<?xml version="1.0" encoding="UTF-8"?>
<!-- Generator: Adobe Illustrator 22.0.0, SVG Export Plug-In . SVG Version: 6.00 Build 0)  -->
<svg version="1.1" id="Слой_1" xmlns="http://www.w3.org/2000/svg" xmlns:xlink="http://www.w3.org/1999/xlink" x="0px" y="0px" viewBox="0 0 301.4 111.4" style="enable-background:new 0 0 301.4 111.4;" xml:space="preserve">
<style type="text/css">
	.st0{fill:#FE6612;}
	.st1{fill:#143362;}
</style>
<path class="st0" d="M6.4,37.4C9.2,37.4,29,65.7,29,65.7L57.4,26L29,51.5C29,51.5,12,37.4,6.4,37.4z"/>
<g>
	<polygon class="st1" points="20.5,71.4 12,71.4 12,48.7 6.4,43 6.4,77 12,77  "/>
	<polygon class="st1" points="51.7,40.2 51.7,77 46,77 37.5,71.4 46,71.4 46,46.6  "/>
</g>
<g>
	<path class="st1" d="M74.4,71.4c-3.7,0-6.9-2.4-8-5.7h22.2v-2.8c0-7.8-6.4-14.2-14.2-14.2s-14.2,6.4-14.2,14.2   c0,7.8,6.4,14.2,14.2,14.2H80l8.5-5.6H74.4z M74.4,54.3c3.7,0,6.9,2.4,8,5.7H66.3C67.5,56.7,70.7,54.3,74.4,54.3z"/>
	<path class="st1" d="M165.1,48.7v2.9c-2.4-1.8-5.3-2.9-8.5-2.9c-7.8,0-14.2,6.4-14.2,14.2c0,7.8,6.3,14.2,14.2,14.2   c3.2,0,6.1-1.1,8.5-2.9V77h5.7V62.9c0,0,0,0,0,0c0,0,0,0,0,0V48.7H165.1z M165.1,62.9c0,4.7-3.8,8.5-8.5,8.5   c-4.7,0-8.5-3.8-8.5-8.5c0-4.7,3.8-8.5,8.5-8.5C161.3,54.3,165.1,58.2,165.1,62.9L165.1,62.9z"/>
	<path class="st1" d="M116.9,45.9v5.7c-2.4-1.8-5.3-2.9-8.5-2.9c-7.8,0-14.2,6.4-14.2,14.2c0,7.8,6.3,14.2,14.2,14.2   c3.2,0,6.2-1.1,8.5-2.9V77h5.6V40.2L116.9,45.9z M108.4,71.4c-4.7,0-8.5-3.8-8.5-8.5c0-4.7,3.8-8.5,8.5-8.5c4.7,0,8.5,3.8,8.5,8.5   C116.9,67.6,113.1,71.4,108.4,71.4z"/>
	<rect x="131.1" y="48.7" class="st1" width="5.7" height="28.3"/>
	<circle class="st1" cx="133.9" cy="43" r="2.8"/>
	<rect x="238.8" y="48.7" class="st1" width="5.7" height="28.3"/>
	<circle class="st1" cx="241.6" cy="43" r="2.8"/>
	<path class="st1" d="M210.4,26l-21.7,51h6.2l5-11.4h7.7l8.5-5.6h-13.8l8.1-19.9L225.9,77h6.2L210.4,26z"/>
	<path class="st1" d="M281.3,48.7c-3.4,0-6.4,1.5-8.5,3.9c-2.1-2.4-5.1-3.9-8.5-3.9c-2.1,0-4,0.6-5.7,1.5v-1.6H253V77h5.7V60   c0-3.1,2.5-5.7,5.7-5.7s5.7,2.5,5.7,5.7v17h5.7V60c0-3.1,2.5-5.7,5.7-5.7s5.7,2.5,5.7,5.7v17h5.7V60   C292.6,53.8,287.5,48.7,281.3,48.7z"/>
</g>
</svg>