<?xml version="1.0" encoding="UTF-8" standalone="no"?>
<!DOCTYPE svg PUBLIC "-//W3C//DTD SVG 1.1//EN" "http://www.w3.org/Graphics/SVG/1.1/DTD/svg11.dtd">
<svg xmlns="http://www.w3.org/2000/svg">
<metadata/>
<defs>
<font id="epregularregular" horiz-adv-x="1175">
<font-face units-per-em="2048" ascent="1638" descent="-410"/>
<missing-glyph horiz-adv-x="500"/>
<glyph horiz-adv-x="0"/>
<glyph horiz-adv-x="682"/>
<glyph unicode="!" horiz-adv-x="638" d="M227 80q0 39 26 66q27 28 66 28q40 0 66 -28q26 -27 26 -66q0 -37 -26 -64q-27 -28 -66 -28t-66 28q-26 27 -26 64zM262 395v1055h117v-1055h-117z"/>
<glyph unicode="&quot;" horiz-adv-x="829" d="M217 973v477h98v-477h-98zM512 973v477h100v-477h-100z"/>
<glyph unicode="#" horiz-adv-x="1134" d="M67 455v96h227l49 352h-223v96h238l59 451h99l-60 -451h295l61 451h99l-60 -451h197v-96h-211l-47 -352h205v-96h-219l-62 -455h-98l61 455h-297l-61 -455h-98l61 455h-215zM395 551h295l47 352h-295z"/>
<glyph unicode="$" d="M118 184l82 64q132 -174 334 -178v622q-183 57 -271 131q-122 102 -122 269t115 272q108 99 278 111v147h82v-147q238 -4 374 -164l-73 -70q-119 141 -301 141v-600q200 -68 288 -141q127 -106 127 -281q0 -169 -119 -276q-116 -104 -296 -109v-147h-82v147 q-255 6 -416 209zM253 1100q0 -209 281 -289v571q-118 -6 -197 -81q-84 -79 -84 -201zM616 70q123 5 204 74q95 81 95 225q0 206 -299 303v-602z"/>
<glyph unicode="%" horiz-adv-x="1697" d="M86 1122q0 148 101 249q102 102 249 102q146 0 247 -102q101 -101 101 -249q0 -146 -101 -247t-247 -101q-147 0 -249 101q-101 101 -101 247zM186 1122q0 -106 74 -178q72 -72 176 -72q103 0 175 72q73 72 73 178q0 107 -73 180q-72 72 -175 72q-104 0 -176 -72 q-74 -73 -74 -180zM346 -16l918 1527l82 -45l-916 -1527zM913 326q0 146 102 247q101 101 247 101t248 -101q102 -102 102 -247q0 -146 -102 -247q-102 -102 -248 -102t-247 102q-102 101 -102 247zM1014 326q0 -107 73 -179q72 -71 175 -71q104 0 176 71q73 72 73 179 q0 106 -73 179t-176 73t-175 -73q-73 -73 -73 -179z"/>
<glyph unicode="&amp;" horiz-adv-x="1441" d="M118 375q0 272 338 432q-180 191 -180 346q0 153 101 245q97 89 247 89q143 0 238 -85q98 -87 98 -228q0 -218 -336 -390l368 -385l211 377h132l-263 -452l310 -324h-160l-215 227q-177 -256 -453 -256q-188 0 -309 105q-127 111 -127 299zM235 373q0 -134 96 -220 q93 -83 229 -83q222 0 369 233l-405 428q-289 -134 -289 -358zM390 1153q0 -138 166 -299q289 142 289 315q0 98 -64 160q-62 62 -157 62q-101 0 -167 -65q-67 -67 -67 -173z"/>
<glyph unicode="'" horiz-adv-x="532" d="M217 973v477h98v-477h-98z"/>
<glyph unicode="(" horiz-adv-x="614" d="M92 590q0 523 287 913l88 -53q-269 -376 -269 -860q0 -468 269 -860l-88 -54q-287 418 -287 914z"/>
<glyph unicode=")" horiz-adv-x="614" d="M145 -270q268 376 268 860t-268 860l88 53q289 -393 289 -913t-289 -914z"/>
<glyph unicode="*" horiz-adv-x="909" d="M71 1145l33 92l301 -96v309h98v-309l301 96l33 -92l-303 -94l192 -260l-77 -60l-195 266l-195 -266l-77 60l192 260z"/>
<glyph unicode="+" horiz-adv-x="1363" d="M174 573v97h459v465h100v-465h457v-97h-457v-464h-100v464h-459z"/>
<glyph unicode="," horiz-adv-x="520" d="M108 -285l131 478h117l-156 -478h-92z"/>
<glyph unicode="-" horiz-adv-x="643" d="M106 457v94h430v-94h-430z"/>
<glyph unicode="." horiz-adv-x="520" d="M167 82q0 36 26 64q27 28 66 28t66 -28q26 -28 26 -64q0 -39 -26 -66q-26 -28 -66 -28q-39 0 -66 28q-26 27 -26 66z"/>
<glyph unicode="/" horiz-adv-x="757" d="M20 -4l625 1493l92 -33l-621 -1491z"/>
<glyph unicode="0" d="M120 723q0 321 96 517q119 243 371 243q250 0 370 -243q97 -197 97 -517q0 -319 -97 -514q-120 -242 -370 -242q-252 0 -371 242q-96 195 -96 514zM237 723q0 -259 66 -428q89 -227 284 -227q194 0 283 227q67 170 67 428q0 260 -67 430q-89 229 -283 229 q-195 0 -284 -229q-66 -169 -66 -430z"/>
<glyph unicode="1" d="M251 1161l348 289h105v-1450h-117v1307l-266 -228z"/>
<glyph unicode="2" d="M112 0v123l567 598q197 208 197 371q0 130 -88 213q-85 79 -211 79q-116 0 -200 -70q-83 -69 -111 -186l-115 25q34 148 150 239q117 91 276 91q179 0 295 -101q123 -106 123 -284q0 -203 -250 -463l-508 -531h768v-104h-893z"/>
<glyph unicode="3" d="M116 238l96 49q107 -219 340 -219q144 0 238 89q96 92 96 238q0 159 -124 244q-106 72 -263 72h-59v100h59q149 0 240 67q104 75 104 220q0 126 -87 208q-84 78 -208 78q-176 0 -285 -163l-88 57q130 205 377 205q173 0 286 -99q120 -105 120 -280q0 -127 -72 -218 q-72 -93 -195 -120v-4q144 -28 228 -127t84 -240q0 -191 -127 -310q-126 -118 -324 -118q-304 0 -436 271z"/>
<glyph unicode="4" d="M86 358v117l627 975h155v-989h222v-103h-222v-358h-114v358h-668zM207 461h547v858h-4z"/>
<glyph unicode="5" d="M131 205l96 55q112 -192 312 -192q149 0 251 100q105 105 105 268q0 166 -105 267q-104 102 -272 102q-147 0 -293 -78l15 723h714v-104h-606l-12 -484q89 39 215 39q204 0 333 -127q130 -126 130 -328q0 -213 -135 -347q-132 -132 -334 -132q-284 0 -414 238z"/>
<glyph unicode="6" d="M131 418q0 178 127 389l391 643h135l-415 -664l4 -4q83 80 239 80q187 0 310 -124q124 -126 124 -320q0 -199 -129 -325t-329 -126q-201 0 -328 126q-129 126 -129 325zM246 418q0 -152 95 -252q97 -100 247 -100q149 0 246 100q96 100 96 252q0 151 -93 249 q-95 101 -245 101q-152 0 -250 -101q-96 -99 -96 -249z"/>
<glyph unicode="7" d="M157 1346v104h838v-111l-590 -1339h-131l604 1346h-721z"/>
<glyph unicode="8" d="M133 383q0 140 77 245t208 142v4q-105 36 -168 130q-62 91 -62 202q0 167 118 274q113 103 282 103q168 0 282 -103q117 -107 117 -274q0 -111 -62 -202q-63 -94 -167 -130v-4q131 -38 208 -143q76 -104 76 -244q0 -186 -134 -303q-129 -113 -320 -113q-192 0 -321 113 q-134 117 -134 303zM250 393q0 -141 93 -234q94 -93 245 -93q150 0 245 93q93 93 93 234q0 142 -96 234q-95 92 -242 92q-148 0 -243 -92t-95 -234zM303 1100q0 -119 82 -199q81 -80 203 -80q121 0 203 80q81 80 81 199q0 123 -81 204q-81 80 -203 80t-203 -80 q-82 -81 -82 -204z"/>
<glyph unicode="9" d="M131 1034q0 197 131 324q129 125 330 125q200 0 327 -125t127 -324q0 -183 -124 -387l-394 -647h-135l418 668l-4 4q-83 -80 -242 -80q-186 0 -309 123q-125 125 -125 319zM248 1034q0 -151 93 -248q95 -100 247 -100q151 0 248 100q96 98 96 248q0 152 -96 251 q-97 99 -246 99q-150 0 -247 -99q-95 -99 -95 -251z"/>
<glyph unicode=":" horiz-adv-x="602" d="M208 82q0 36 26 64q27 28 66 28t66 -28q26 -28 26 -64q0 -39 -26 -66q-26 -28 -66 -28q-39 0 -66 28q-26 27 -26 66zM208 868q0 38 26 66q27 29 66 29t66 -29q26 -28 26 -66q0 -37 -26 -64q-27 -28 -66 -28t-66 28q-26 27 -26 64z"/>
<glyph unicode=";" horiz-adv-x="602" d="M133 -285l131 478h121l-156 -478h-96zM209 868q0 38 26 66q27 29 66 29t66 -29q26 -28 26 -66q0 -37 -26 -64q-27 -28 -66 -28t-66 28q-26 27 -26 64z"/>
<glyph unicode="&lt;" horiz-adv-x="1363" d="M174 580v82l1016 479v-101l-893 -419l893 -420v-101z"/>
<glyph unicode="=" horiz-adv-x="1363" d="M174 412v98h1016v-98h-1016zM174 733v96h1016v-96h-1016z"/>
<glyph unicode="&gt;" horiz-adv-x="1363" d="M174 100v101l893 420l-893 419v101l1016 -479v-82z"/>
<glyph unicode="?" horiz-adv-x="980" d="M100 1141q31 157 140 248q108 90 263 90q168 0 276 -93q114 -97 114 -264q0 -183 -187 -336q-96 -80 -126 -132q-34 -59 -34 -162v-95h-114v119q0 166 157 303l62 53q125 111 125 244q0 121 -82 192q-76 68 -195 68q-116 0 -194 -72q-76 -69 -94 -184zM409 80q0 94 92 94 q38 0 65 -28q26 -27 26 -66q0 -37 -26 -64q-26 -28 -65 -28q-40 0 -66 28q-26 27 -26 64z"/>
<glyph unicode="@" horiz-adv-x="1638" d="M79 725q0 323 226 544q224 220 548 220q301 0 503 -170q216 -182 216 -483q0 -234 -115 -374q-111 -134 -284 -134q-174 0 -174 159h-7q-79 -159 -262 -159q-130 0 -206 91q-72 86 -72 224q0 187 110 329q119 154 297 154q171 0 213 -141h8l27 109h102l-100 -412 q-20 -92 -20 -152q0 -106 108 -106q122 0 195 119q69 113 69 282q0 260 -173 413q-167 148 -437 148q-286 0 -471 -194q-180 -190 -180 -473q0 -292 184 -476q185 -184 481 -184q335 0 562 234l61 -74q-239 -258 -633 -258q-346 0 -563 218q-213 213 -213 546zM571 637 q0 -84 37 -141q46 -72 137 -72q135 0 217 145q67 119 67 250q0 209 -174 209q-128 0 -210 -130q-74 -116 -74 -261z"/>
<glyph unicode="A" horiz-adv-x="1413" d="M24 0l629 1450h116l617 -1450h-129l-164 391h-776l-164 -391h-129zM360 498h690l-342 829z"/>
<glyph unicode="B" horiz-adv-x="1288" d="M200 0v1450h420q195 0 314 -75q149 -92 149 -288q0 -122 -78 -209q-73 -83 -191 -110v-4q143 -15 235 -106q103 -101 103 -261q0 -190 -148 -297q-140 -100 -370 -100h-434zM317 100h305q182 0 290 70q122 79 122 231q0 154 -111 234q-102 74 -277 74h-329v-609zM317 807 h311q137 0 227 60q109 72 109 212q0 271 -367 271h-280v-543z"/>
<glyph unicode="C" horiz-adv-x="1476" d="M124 725q0 331 213 548q212 216 537 216q336 0 499 -211l-84 -78q-145 184 -413 184q-283 0 -460 -195q-169 -187 -169 -464q0 -276 169 -463q177 -196 460 -196q271 0 444 213l80 -64q-194 -254 -528 -254q-327 0 -538 216q-210 216 -210 548z"/>
<glyph unicode="D" horiz-adv-x="1558" d="M200 0v1450h459q317 0 533 -179q241 -200 241 -546t-241 -546q-216 -179 -533 -179h-459zM317 104h311q317 0 504 179q178 170 178 442q0 273 -178 443q-186 178 -504 178h-311v-1242z"/>
<glyph unicode="E" horiz-adv-x="1210" d="M200 0v1450h883v-104h-768v-541h719v-103h-719v-598h794v-104h-909z"/>
<glyph unicode="F" horiz-adv-x="1148" d="M200 0v1450h860v-104h-743v-543h690v-103h-690v-700h-117z"/>
<glyph unicode="G" horiz-adv-x="1605" d="M124 727q0 329 214 545q215 217 542 217q314 0 506 -189l-74 -79q-164 163 -432 163q-284 0 -463 -195q-170 -186 -170 -462q0 -277 169 -464q179 -197 468 -197q251 0 416 98v479h-349v102h465v-647q-228 -137 -534 -137q-332 0 -546 218q-212 216 -212 548z"/>
<glyph unicode="H" horiz-adv-x="1478" d="M200 0v1450h117v-643h846v643h116v-1450h-116v698h-846v-698h-117z"/>
<glyph unicode="I" horiz-adv-x="516" d="M200 0v1450h117v-1450h-117z"/>
<glyph unicode="J" horiz-adv-x="999" d="M53 238l109 30q54 -202 256 -202q276 0 276 354v1030h117v-1038q0 -187 -80 -304q-99 -145 -301 -145q-145 0 -248 78q-99 75 -129 197z"/>
<glyph unicode="K" horiz-adv-x="1247" d="M200 0v1450h117v-655l702 655h168l-733 -659l772 -791h-170l-739 774v-774h-117z"/>
<glyph unicode="L" horiz-adv-x="1036" d="M200 0v1450h117v-1346h688v-104h-805z"/>
<glyph unicode="M" horiz-adv-x="1826" d="M200 0v1450h180l535 -1255l530 1255h180v-1450h-116v1300h-4l-560 -1300h-65l-559 1300h-4v-1300h-117z"/>
<glyph unicode="N" horiz-adv-x="1572" d="M200 0v1450h147l904 -1282h4v1282h116v-1450h-147l-903 1290h-4v-1290h-117z"/>
<glyph unicode="O" horiz-adv-x="1755" d="M124 725q0 331 215 548q213 216 537 216t538 -216q215 -217 215 -548t-215 -548q-214 -216 -538 -216t-537 216q-215 217 -215 548zM247 725q0 -276 170 -463q178 -196 459 -196q282 0 460 196q170 187 170 463q0 277 -171 464q-178 195 -459 195t-458 -195 q-171 -187 -171 -464z"/>
<glyph unicode="P" horiz-adv-x="1183" d="M200 0v1450h403q216 0 340 -90q138 -98 138 -289q0 -186 -133 -288q-125 -97 -338 -97h-293v-686h-117zM317 784h286q167 0 261 72q100 75 100 215q0 279 -363 279h-284v-566z"/>
<glyph unicode="Q" horiz-adv-x="1751" d="M124 741q0 324 210 536q209 212 527 212q316 0 525 -213q211 -213 211 -535q0 -207 -105 -378q-106 -174 -287 -254v-5h484v-104h-830q-314 0 -523 208q-212 210 -212 533zM247 741q0 -266 166 -448q174 -191 448 -191q273 0 449 195q166 184 166 444q0 268 -168 452 q-174 191 -447 191q-275 0 -448 -191q-166 -182 -166 -452z"/>
<glyph unicode="R" horiz-adv-x="1224" d="M200 0v1450h418q483 0 483 -379q0 -165 -116 -265q-104 -90 -269 -104l428 -702h-141l-414 694h-272v-694h-117zM317 795h284q383 0 383 276q0 279 -385 279h-282v-555z"/>
<glyph unicode="S" horiz-adv-x="1159" d="M126 170l82 72q151 -179 356 -179q138 0 236 77q108 85 108 225q0 141 -118 221q-63 43 -262 111q-184 63 -261 127q-118 99 -118 272q0 188 146 297q129 96 312 96q266 0 398 -172l-84 -76q-122 148 -320 148q-131 0 -227 -72q-109 -82 -109 -221q0 -140 119 -218 q62 -41 262 -108q184 -61 262 -126q119 -99 119 -273q0 -197 -145 -310q-128 -100 -318 -100q-277 0 -438 209z"/>
<glyph unicode="T" horiz-adv-x="1148" d="M28 1346v104h1092v-104h-488v-1346h-117v1346h-487z"/>
<glyph unicode="U" horiz-adv-x="1468" d="M188 543v907h117v-893q0 -206 87 -332q110 -159 341 -159q230 0 341 157q89 127 89 334v893h117v-907q0 -239 -113 -391q-142 -191 -434 -191q-291 0 -432 191q-113 152 -113 391z"/>
<glyph unicode="V" horiz-adv-x="1265" d="M14 1450h127l489 -1305h5l489 1305h125l-553 -1450h-131z"/>
<glyph unicode="W" horiz-adv-x="1980" d="M36 1450h123l377 -1296h4l377 1296h145l379 -1296h6l373 1296h123l-430 -1450h-142l-381 1294h-4l-379 -1294h-141z"/>
<glyph unicode="X" horiz-adv-x="1292" d="M49 0l526 762l-479 688h146l405 -598l401 598h138l-473 -686l530 -764h-145l-453 670l-451 -670h-145z"/>
<glyph unicode="Y" horiz-adv-x="1193" d="M8 1450h145l447 -723l448 723h136l-529 -823v-627h-117v627z"/>
<glyph unicode="Z" horiz-adv-x="1185" d="M77 0v102l879 1244h-856v104h997v-104l-877 -1242h893v-104h-1036z"/>
<glyph unicode="[" horiz-adv-x="614" d="M133 -319v1818h317v-90h-211v-1638h211v-90h-317z"/>
<glyph unicode="\" horiz-adv-x="757" d="M20 1456l94 33l623 -1493l-94 -31z"/>
<glyph unicode="]" horiz-adv-x="614" d="M163 -229h211v1638h-211v90h317v-1818h-317v90z"/>
<glyph unicode="^" horiz-adv-x="1363" d="M174 543l467 907h82l467 -907h-103l-405 796l-406 -796h-102z"/>
<glyph unicode="_" horiz-adv-x="1024" d="M0 -166h1024v-84h-1024v84z"/>
<glyph unicode="`" horiz-adv-x="491" d="M-2 1450h147l207 -295h-96z"/>
<glyph unicode="a" horiz-adv-x="1079" d="M118 258q0 320 580 320h96v43q0 266 -270 266q-169 0 -285 -113l-62 74q135 131 357 131q165 0 262 -86q104 -91 104 -260v-418q0 -130 17 -215h-101q-16 98 -16 176h-4q-113 -203 -350 -203q-128 0 -219 66q-109 78 -109 219zM233 264q0 -103 77 -155q64 -43 162 -43 q156 0 244 107q78 96 78 239v77h-72q-489 0 -489 -225z"/>
<glyph unicode="b" horiz-adv-x="1298" d="M194 0v1548h111v-788h6q125 219 381 219q216 0 353 -144q134 -141 134 -358q0 -216 -135 -358q-137 -146 -352 -146q-261 0 -381 215h-6v-188h-111zM292 477q0 -173 110 -290q112 -117 279 -117q175 0 281 119q100 114 100 288t-100 289q-106 121 -281 121 q-167 0 -279 -119q-110 -117 -110 -291z"/>
<glyph unicode="c" horiz-adv-x="1011" d="M120 477q0 218 137 359q138 143 357 143q221 0 340 -150l-74 -67q-94 121 -264 121q-171 0 -278 -118q-103 -114 -103 -288q0 -173 103 -287q106 -116 274 -116q167 0 278 114l70 -63q-132 -152 -348 -152q-222 0 -358 143q-134 140 -134 361z"/>
<glyph unicode="d" horiz-adv-x="1298" d="M118 477q0 215 135 357q137 145 352 145q256 0 381 -219h4v788h113v-1548h-113v188h-4q-126 -215 -381 -215q-215 0 -352 146q-135 142 -135 358zM235 477q0 -174 100 -288q106 -119 281 -119q167 0 278 117q109 117 109 290q0 174 -109 291q-111 119 -278 119 q-175 0 -281 -121q-100 -115 -100 -289z"/>
<glyph unicode="e" horiz-adv-x="1161" d="M118 479q0 215 137 358q135 142 336 142q214 0 337 -140q114 -128 114 -327v-57h-809q3 -159 103 -269q106 -116 269 -116q192 0 328 161l74 -59q-154 -199 -406 -199q-208 0 -346 144q-137 144 -137 362zM235 543h696q-6 154 -96 247q-92 97 -246 97q-151 0 -255 -113 q-93 -102 -99 -231z"/>
<glyph unicode="f" horiz-adv-x="595" d="M32 860v94h199v285q0 334 301 334q65 0 108 -14l-18 -93q-38 11 -92 11q-187 0 -187 -250v-273h234v-94h-234v-860h-112v860h-199z"/>
<glyph unicode="g" horiz-adv-x="1290" d="M118 481q0 211 135 353q138 145 352 145q262 0 381 -219h4v194h113v-931q0 -215 -101 -350q-129 -171 -403 -171q-273 0 -448 189l71 76q156 -166 381 -166q387 0 387 422v186h-4q-115 -217 -381 -217q-216 0 -352 139q-135 138 -135 350zM235 485q0 -167 100 -280 q107 -119 281 -119q168 0 278 114q109 113 109 285q0 165 -109 282q-112 120 -278 120q-174 0 -281 -120q-100 -114 -100 -282z"/>
<glyph unicode="h" horiz-adv-x="1185" d="M194 0v1548h111v-780h4q96 211 336 211q179 0 272 -114q86 -104 86 -283v-582h-111v541q0 344 -272 344q-132 0 -219 -100q-96 -110 -96 -300v-485h-111z"/>
<glyph unicode="i" horiz-adv-x="497" d="M165 1333q0 36 26 61q24 23 56 23q33 0 58 -23q26 -25 26 -61t-26 -60q-25 -24 -58 -24q-32 0 -56 24q-26 25 -26 60zM192 0v954h112v-954h-112z"/>
<glyph unicode="j" horiz-adv-x="499" d="M-49 -479l16 92q41 -10 78 -10q91 0 125 64q25 47 25 155v1132h110v-1147q0 -299 -258 -299q-62 0 -96 13zM168 1333q0 36 26 61q24 23 56 23q33 0 58 -23q26 -25 26 -61q0 -35 -27 -60q-25 -24 -57 -24t-56 24q-26 25 -26 60z"/>
<glyph unicode="k" horiz-adv-x="1005" d="M194 0v1548h111v-1028h6l454 434h160l-487 -438l538 -516h-164l-501 502h-6v-502h-111z"/>
<glyph unicode="l" horiz-adv-x="499" d="M194 0v1548h111v-1548h-111z"/>
<glyph unicode="m" horiz-adv-x="1812" d="M184 954h106q9 -106 9 -190h4q41 97 131 157q88 58 190 58q230 0 305 -227h5q96 227 342 227q176 0 269 -114q85 -105 85 -283v-582h-111v541q0 346 -260 346q-142 0 -223 -116q-74 -106 -74 -273v-498h-112v561q0 326 -244 326q-123 0 -207 -101q-94 -112 -94 -301v-485 h-113v735q0 135 -8 219z"/>
<glyph unicode="n" horiz-adv-x="1183" d="M184 954h106q9 -106 9 -190h4q41 97 138 157q95 58 204 58q179 0 272 -114q84 -104 84 -283v-582h-110v541q0 344 -271 344q-133 0 -220 -100q-95 -109 -95 -300v-485h-113v735q0 135 -8 219z"/>
<glyph unicode="o" horiz-adv-x="1247" d="M120 477q0 219 140 360q141 142 362 142q222 0 363 -142q141 -141 141 -360q0 -218 -141 -360q-142 -144 -363 -144q-220 0 -362 144q-140 142 -140 360zM235 477q0 -174 104 -287q108 -116 283 -116q176 0 284 116q105 113 105 287q0 175 -105 288q-108 118 -284 118 q-175 0 -283 -118q-104 -113 -104 -288z"/>
<glyph unicode="p" horiz-adv-x="1294" d="M192 -492v1446h111v-190h6q119 215 379 215q217 0 354 -144q135 -142 135 -358q0 -217 -133 -358q-136 -146 -352 -146q-269 0 -383 211h-6v-676h-111zM292 477q0 -173 109 -290q110 -117 276 -117q175 0 281 119q100 114 100 288t-100 289q-106 121 -281 121 q-166 0 -276 -119q-109 -117 -109 -291z"/>
<glyph unicode="q" horiz-adv-x="1294" d="M118 477q0 217 134 358q137 144 353 144q257 0 379 -219h6v194h113v-1446h-113v680h-6q-118 -215 -379 -215q-215 0 -352 146q-135 142 -135 358zM235 477q0 -174 100 -288q106 -119 281 -119q166 0 276 117q109 117 109 290q0 174 -109 291q-110 119 -276 119 q-175 0 -281 -121q-100 -115 -100 -289z"/>
<glyph unicode="r" horiz-adv-x="710" d="M184 954h106q9 -106 9 -190h4q83 215 313 215q51 0 76 -8l-12 -103q-29 9 -78 9q-133 0 -214 -103q-83 -106 -83 -285v-489h-113v735q0 135 -8 219z"/>
<glyph unicode="s" horiz-adv-x="890" d="M86 154l88 63q95 -147 274 -147q99 0 163 43q73 50 73 143q0 86 -87 131q-40 22 -190 62q-133 36 -191 79q-87 66 -87 185q0 130 101 202q89 64 225 64q226 0 321 -162l-86 -61q-77 131 -239 131q-86 0 -146 -39q-69 -45 -69 -127q0 -78 60 -120q51 -34 179 -62 q320 -71 320 -275q0 -142 -108 -220q-95 -69 -239 -69q-241 0 -362 179z"/>
<glyph unicode="t" horiz-adv-x="641" d="M18 860v94h199v273h112v-273h273v-94h-273v-604q0 -176 152 -176q60 0 117 26l6 -96q-73 -26 -152 -26q-233 0 -233 245v631h-201z"/>
<glyph unicode="u" horiz-adv-x="1183" d="M180 371v583h113v-540q0 -346 270 -346q131 0 219 100q96 111 96 301v485h111v-735q0 -117 10 -219h-108q-9 102 -9 188h-4q-39 -95 -136 -155q-95 -60 -204 -60q-179 0 -272 115q-86 104 -86 283z"/>
<glyph unicode="v" horiz-adv-x="966" d="M36 954h125l324 -837h4l319 837h119l-379 -954h-127z"/>
<glyph unicode="w" horiz-adv-x="1499" d="M57 954h119l239 -815h4l273 815h113l276 -815h4l238 815h116l-295 -954h-124l-271 811h-4l-268 -811h-125z"/>
<glyph unicode="x" horiz-adv-x="970" d="M40 0l375 496l-346 458h143l272 -381l273 381h135l-342 -454l381 -500h-146l-303 420l-309 -420h-133z"/>
<glyph unicode="y" horiz-adv-x="962" d="M36 954h125l332 -841l4 4l307 837h121l-475 -1220q-91 -228 -279 -228q-52 0 -112 15l14 100q42 -16 94 -16q119 0 186 174l82 215z"/>
<glyph unicode="z" horiz-adv-x="903" d="M73 0v82l588 778h-557v94h700v-84l-586 -774h609v-96h-754z"/>
<glyph unicode="{" horiz-adv-x="614" d="M0 541v98q160 0 160 229v375q0 256 221 256h119v-90h-99q-133 0 -133 -182v-377q0 -126 -62 -197q-46 -53 -106 -61v-4q60 -9 106 -61q62 -71 62 -197v-377q0 -182 133 -182h99v-90h-119q-221 0 -221 256v374q0 230 -160 230z"/>
<glyph unicode="|" horiz-adv-x="454" d="M178 -512v2048h98v-2048h-98z"/>
<glyph unicode="}" horiz-adv-x="614" d="M114 -229h98q133 0 133 182v377q0 126 63 197q46 52 105 61v4q-59 8 -105 61q-63 71 -63 197v377q0 182 -133 182h-98v90h119q221 0 221 -256v-375q0 -229 160 -229v-98q-160 0 -160 -230v-374q0 -256 -221 -256h-119v90z"/>
<glyph unicode="~" horiz-adv-x="1363" d="M184 561q127 191 276 191q112 0 220 -72q135 -90 221 -90q114 0 209 158l69 -68q-117 -188 -274 -188q-114 0 -221 71q-138 88 -219 88q-126 0 -209 -155z"/>
<glyph unicode="­" horiz-adv-x="643" d="M106 457v94h430v-94h-430z"/>
<glyph unicode="А" horiz-adv-x="1413" d="M24 0l629 1450h116l617 -1450h-129l-164 391h-776l-164 -391h-129zM360 498h690l-342 829z"/>
<glyph unicode="Б" horiz-adv-x="1273" d="M200 0v1450h840v-104h-723v-535h321q223 0 356 -100q144 -109 144 -310t-145 -306q-133 -95 -361 -95h-432zM317 100h305q397 0 397 299q0 153 -108 233q-101 77 -281 77h-313v-609z"/>
<glyph unicode="В" horiz-adv-x="1288" d="M200 0v1450h420q195 0 314 -75q149 -92 149 -288q0 -122 -78 -209q-73 -83 -191 -110v-4q143 -15 235 -106q103 -101 103 -261q0 -190 -148 -297q-140 -100 -370 -100h-434zM317 100h305q182 0 290 70q122 79 122 231q0 154 -111 234q-102 74 -277 74h-329v-609zM317 807 h311q137 0 227 60q109 72 109 212q0 271 -367 271h-280v-543z"/>
<glyph unicode="Г" horiz-adv-x="1030" d="M200 0v1450h801v-104h-684v-1346h-117z"/>
<glyph unicode="Д" horiz-adv-x="1523" d="M34 104h115q262 269 262 947v399h872v-1346h166v-469h-112v365h-1192v-365h-111v469zM296 104h871v1242h-641v-295q0 -665 -230 -947z"/>
<glyph unicode="Е" horiz-adv-x="1210" d="M200 0v1450h883v-104h-768v-541h719v-103h-719v-598h794v-104h-909z"/>
<glyph unicode="Ж" horiz-adv-x="1929" d="M20 0l748 791l-709 659h168l678 -655v655h116v-655l680 655h168l-708 -659l747 -791h-170l-717 774v-774h-116v774l-715 -774h-170z"/>
<glyph unicode="З" horiz-adv-x="1177" d="M83 166l80 70q155 -173 379 -173q153 0 261 91q114 95 114 245q0 155 -125 237q-110 73 -285 73h-94v102h88q163 0 261 69q109 77 109 226q0 122 -97 203q-95 80 -232 80q-183 0 -328 -146l-72 72q164 174 396 174q202 0 322 -101q122 -104 122 -286q0 -128 -78 -221 q-74 -88 -192 -115v-4q139 -24 228 -118q95 -101 95 -245q0 -198 -145 -321q-140 -117 -350 -117q-290 0 -457 205z"/>
<glyph unicode="И" horiz-adv-x="1509" d="M200 0v1450h117v-1272h4l852 1272h137v-1450h-117v1280h-6l-852 -1280h-135z"/>
<glyph unicode="Й" horiz-adv-x="1509" d="M200 0v1450h117v-1272h4l852 1272h137v-1450h-117v1280h-6l-852 -1280h-135zM466 1843l78 15q32 -181 209 -181t209 181l78 -15q-14 -115 -90 -185q-78 -71 -197 -71q-120 0 -197 71q-76 70 -90 185z"/>
<glyph unicode="К" horiz-adv-x="1247" d="M200 0v1450h117v-655l702 655h168l-733 -659l772 -791h-170l-739 774v-774h-117z"/>
<glyph unicode="Л" horiz-adv-x="1517" d="M8 2l20 104q58 -14 86 -14q195 0 276 246q77 236 77 792v320h850v-1450h-117v1348h-619v-269q0 -559 -94 -812q-105 -281 -356 -281q-71 0 -123 16z"/>
<glyph unicode="М" horiz-adv-x="1826" d="M200 0v1450h180l535 -1255l530 1255h180v-1450h-116v1300h-4l-560 -1300h-65l-559 1300h-4v-1300h-117z"/>
<glyph unicode="Н" horiz-adv-x="1478" d="M200 0v1450h117v-643h846v643h116v-1450h-116v698h-846v-698h-117z"/>
<glyph unicode="О" horiz-adv-x="1755" d="M124 725q0 331 215 548q213 216 537 216t538 -216q215 -217 215 -548t-215 -548q-214 -216 -538 -216t-537 216q-215 217 -215 548zM247 725q0 -276 170 -463q178 -196 459 -196q282 0 460 196q170 187 170 463q0 277 -171 464q-178 195 -459 195t-458 -195 q-171 -187 -171 -464z"/>
<glyph unicode="П" horiz-adv-x="1472" d="M200 0v1450h1073v-1450h-117v1346h-839v-1346h-117z"/>
<glyph unicode="Р" horiz-adv-x="1183" d="M200 0v1450h403q216 0 340 -90q138 -98 138 -289q0 -187 -133 -289q-126 -98 -338 -98h-293v-684h-117zM317 784h286q167 0 261 72q100 75 100 215q0 279 -363 279h-284v-566z"/>
<glyph unicode="С" horiz-adv-x="1476" d="M124 725q0 331 213 548q212 216 537 216q336 0 499 -211l-84 -78q-145 184 -413 184q-283 0 -460 -195q-169 -187 -169 -464q0 -276 169 -463q177 -196 460 -196q271 0 444 213l80 -64q-194 -254 -528 -254q-327 0 -538 216q-210 216 -210 548z"/>
<glyph unicode="Т" horiz-adv-x="1148" d="M28 1346v104h1092v-104h-488v-1346h-117v1346h-487z"/>
<glyph unicode="У" horiz-adv-x="1267" d="M14 1450h135l496 -877l479 877h129l-682 -1237q-127 -227 -317 -227q-68 0 -117 12l20 108q43 -14 97 -14q128 0 217 162l108 201z"/>
<glyph unicode="Ф" horiz-adv-x="1685" d="M110 748q0 280 190 444q182 158 484 166v131h117v-131q302 -8 484 -166q189 -164 189 -444q0 -275 -186 -443q-184 -165 -487 -170v-174h-117v174q-302 5 -487 170q-187 168 -187 443zM233 745q0 -229 148 -363q145 -132 403 -144v1017q-257 -7 -405 -145 q-146 -137 -146 -365zM901 238q257 12 403 144q149 134 149 363q0 228 -146 365q-148 138 -406 145v-1017z"/>
<glyph unicode="Х" horiz-adv-x="1292" d="M47 0l526 762l-479 688h146l409 -606l408 606h137l-475 -690l526 -760h-145l-455 674l-453 -674h-145z"/>
<glyph unicode="Ц" horiz-adv-x="1511" d="M200 0v1450h117v-1346h839v1346h117v-1346h164v-469h-111v365h-1126z"/>
<glyph unicode="Ч" horiz-adv-x="1292" d="M169 948v502h117v-492q0 -282 329 -282q229 0 359 47v727h117v-1450h-117v618q-162 -45 -354 -45q-451 0 -451 375z"/>
<glyph unicode="Ш" horiz-adv-x="2168" d="M200 0v1450h117v-1346h708v1346h117v-1346h709v1346h116v-1450h-1767z"/>
<glyph unicode="Щ" horiz-adv-x="2207" d="M200 0v1450h117v-1346h708v1346h117v-1346h709v1346h116v-1346h166v-469h-110v365h-1823z"/>
<glyph unicode="Ъ" horiz-adv-x="1419" d="M28 1346v104h502v-639h291q222 0 355 -100q144 -109 144 -310t-145 -306q-133 -95 -361 -95h-403v1346h-383zM530 100h274q398 0 398 299q0 153 -108 233q-102 77 -282 77h-282v-609z"/>
<glyph unicode="Ы" horiz-adv-x="1652" d="M200 0v1450h117v-639h291q222 0 355 -100q144 -109 144 -310t-145 -306q-133 -95 -361 -95h-401zM317 100h274q397 0 397 299q0 153 -107 233q-102 77 -282 77h-282v-609zM1335 0v1450h116v-1450h-116z"/>
<glyph unicode="Ь" horiz-adv-x="1206" d="M200 0v1450h117v-639h291q222 0 355 -100q144 -109 144 -310t-145 -306q-133 -95 -361 -95h-401zM317 100h274q397 0 397 299q0 153 -107 233q-102 77 -282 77h-282v-609z"/>
<glyph unicode="Э" horiz-adv-x="1476" d="M65 217l90 62q151 -213 445 -213q273 0 453 187q175 182 175 449h-760v103h756q-25 249 -191 410q-174 169 -433 169q-268 0 -410 -186l-94 74q171 217 506 217q324 0 536 -216q213 -217 213 -548q0 -332 -211 -548q-212 -216 -538 -216q-353 0 -537 256z"/>
<glyph unicode="Ю" horiz-adv-x="2162" d="M200 0v1450h117v-645h332q23 294 210 484q193 198 482 198q308 0 505 -221q191 -215 191 -537q0 -329 -191 -545q-196 -221 -505 -221q-303 0 -497 212q-190 207 -200 527h-327v-702h-117zM767 729q0 -273 149 -460q160 -201 425 -201q263 0 424 201q149 188 149 460 q0 266 -150 453q-162 202 -423 202q-263 0 -424 -202q-150 -187 -150 -453z"/>
<glyph unicode="Я" horiz-adv-x="1226" d="M94 0l397 649q-372 57 -372 400q0 201 145 305q132 96 358 96h404v-1450h-117v639h-291l-383 -639h-141zM235 1051q0 -152 109 -233q103 -77 282 -77h283v609h-274q-400 0 -400 -299z"/>
<glyph unicode="а" horiz-adv-x="1079" d="M118 258q0 190 191 265q139 55 413 55h72v43q0 266 -270 266q-169 0 -285 -113l-62 74q135 131 357 131q165 0 262 -86q104 -91 104 -260v-418q0 -130 17 -215h-101q-16 98 -16 176h-4q-113 -203 -350 -203q-128 0 -219 66q-109 78 -109 219zM233 264q0 -103 77 -155 q64 -43 162 -43q156 0 244 107q78 96 78 239v77h-72q-489 0 -489 -225z"/>
<glyph unicode="б" horiz-adv-x="1259" d="M139 582q0 406 68 584q93 241 356 274l307 37q147 18 170 94l80 -25q-36 -137 -217 -160l-293 -36q-208 -26 -291 -168q-81 -137 -86 -457h6q128 252 428 252q212 0 344 -145q129 -141 129 -357q0 -217 -141 -359q-142 -143 -362 -143q-250 0 -377 166q-121 137 -121 443 zM254 473q0 -175 104 -288q107 -115 279 -115t281 116q106 114 106 287q0 176 -103 291q-107 119 -278 119t-282 -120q-107 -117 -107 -290z"/>
<glyph unicode="в" horiz-adv-x="1089" d="M192 0v954h428q303 0 303 -239q0 -169 -174 -209v-2q93 -12 154 -71q67 -66 67 -171q0 -125 -97 -195q-91 -67 -243 -67h-438zM305 96h309q242 0 242 174q0 181 -228 181h-323v-355zM305 543h311q79 0 134 36q65 43 65 123q0 158 -217 158h-293v-317z"/>
<glyph unicode="г" horiz-adv-x="858" d="M192 0v954h621v-94h-508v-860h-113z"/>
<glyph unicode="д" horiz-adv-x="1226" d="M51 96h113q159 202 159 600v258h674v-858h156v-409h-105v313h-893v-313h-104v409zM291 96h598v764h-457v-192q0 -337 -141 -572z"/>
<glyph unicode="е" horiz-adv-x="1161" d="M118 479q0 215 137 358q135 142 336 142q214 0 337 -140q114 -128 114 -327v-57h-809q3 -159 103 -269q106 -116 269 -116q192 0 328 161l74 -59q-154 -199 -406 -199q-208 0 -346 144q-137 144 -137 362zM235 543h696q-6 154 -96 247q-92 97 -246 97q-151 0 -255 -113 q-93 -102 -99 -231z"/>
<glyph unicode="ж" horiz-adv-x="1492" d="M26 0l526 500l-475 454h160l448 -450h5v450h112v-450h4l449 450h160l-476 -454l527 -500h-164l-496 485h-4v-485h-112v485h-5l-495 -485h-164z"/>
<glyph unicode="з" horiz-adv-x="950" d="M79 150l82 65q105 -145 297 -145q108 0 177 46q79 53 79 152q0 91 -85 140q-76 45 -198 45h-80v90h72q115 0 186 47q76 49 76 137q0 160 -235 160q-167 0 -252 -131l-86 61q98 162 342 162q154 0 246 -65q96 -67 96 -187q0 -83 -58 -145q-56 -59 -145 -78v-4 q103 -14 166 -77q65 -64 65 -159q0 -134 -102 -214q-100 -77 -262 -77q-256 0 -381 177z"/>
<glyph unicode="и" horiz-adv-x="1220" d="M192 0v954h113v-798l600 798h121v-954h-109v805h-4l-600 -805h-121z"/>
<glyph unicode="й" horiz-adv-x="1220" d="M192 0v954h113v-798l600 798h121v-954h-109v805h-4l-600 -805h-121zM321 1434l78 14q31 -180 209 -180q177 0 209 180l77 -14q-14 -116 -89 -185q-78 -71 -197 -71q-120 0 -197 71q-76 69 -90 185z"/>
<glyph unicode="к" horiz-adv-x="1015" d="M196 0v954h111v-450h6l465 450h159l-497 -454l549 -500h-164l-512 485h-6v-485h-111z"/>
<glyph unicode="л" horiz-adv-x="1189" d="M24 2l14 96q28 -10 64 -10q233 0 233 535v331h662v-954h-111v860h-442v-272q0 -598 -326 -598q-53 0 -94 12z"/>
<glyph unicode="м" horiz-adv-x="1474" d="M192 0v954h166l379 -790l381 790h161v-954h-110v825h-4l-400 -825h-59l-401 825v-825h-113z"/>
<glyph unicode="н" horiz-adv-x="1196" d="M192 0v954h113v-411h585v411h111v-954h-111v449h-585v-449h-113z"/>
<glyph unicode="о" horiz-adv-x="1247" d="M118 477q0 219 141 360q142 142 363 142q222 0 364 -142q142 -141 142 -360q0 -218 -142 -360q-143 -144 -364 -144q-220 0 -363 144q-141 143 -141 360zM235 477q0 -174 104 -289q108 -118 283 -118q176 0 284 118q105 114 105 289t-105 290q-109 120 -284 120 q-174 0 -283 -120q-104 -115 -104 -290z"/>
<glyph unicode="п" horiz-adv-x="1181" d="M192 0v954h795v-954h-111v860h-571v-860h-113z"/>
<glyph unicode="р" horiz-adv-x="1294" d="M192 -492v1446h111v-190h6q119 215 379 215q217 0 354 -144q135 -142 135 -358q0 -217 -133 -358q-136 -146 -352 -146q-269 0 -383 211h-6v-676h-111zM292 477q0 -173 109 -290q110 -117 276 -117q175 0 281 119q100 114 100 288t-100 289q-106 121 -281 121 q-166 0 -276 -119q-109 -117 -109 -291z"/>
<glyph unicode="с" horiz-adv-x="1011" d="M120 477q0 218 137 359q138 143 357 143q221 0 340 -150l-74 -67q-94 121 -264 121q-171 0 -278 -118q-103 -114 -103 -288q0 -173 103 -287q106 -116 274 -116q167 0 278 114l70 -63q-132 -152 -348 -152q-222 0 -358 143q-134 140 -134 361z"/>
<glyph unicode="т" horiz-adv-x="903" d="M43 860v94h815v-94h-352v-860h-111v860h-352z"/>
<glyph unicode="у" horiz-adv-x="962" d="M36 954h125l332 -839l311 839h121l-475 -1220q-91 -228 -279 -228q-52 0 -112 15l14 100q42 -16 94 -16q119 0 186 174l82 215z"/>
<glyph unicode="ф" horiz-adv-x="1435" d="M108 475q0 231 147 365q148 134 406 137v582h113v-582q257 -3 405 -137t148 -365q0 -233 -148 -366q-147 -133 -405 -136v-465h-113v465q-259 3 -406 136t-147 366zM225 477q0 -196 113 -302q114 -105 323 -105v813q-208 -3 -322 -109q-114 -107 -114 -297zM774 70 q209 0 322 105q114 106 114 302q0 191 -114 297t-322 109v-813z"/>
<glyph unicode="х" horiz-adv-x="970" d="M40 0l375 496l-346 458h143l272 -381l273 381h135l-342 -454l381 -500h-146l-303 420l-309 -420h-133z"/>
<glyph unicode="ц" horiz-adv-x="1216" d="M192 0v954h113v-858h571v858h111v-858h155v-409h-104v313h-846z"/>
<glyph unicode="ч" horiz-adv-x="1075" d="M157 662v292h113v-280q0 -124 61 -174q52 -41 168 -41q115 0 270 39v456h111v-954h-111v403q-146 -38 -293 -38q-319 0 -319 297z"/>
<glyph unicode="ш" horiz-adv-x="1726" d="M192 0v954h113v-858h503v858h111v-858h504v858h110v-954h-1341z"/>
<glyph unicode="щ" horiz-adv-x="1763" d="M192 0v954h113v-858h503v858h111v-858h504v858h110v-858h156v-409h-104v313h-1393z"/>
<glyph unicode="ъ" horiz-adv-x="1159" d="M43 860v94h406v-374h256q362 0 362 -295q0 -285 -362 -285h-369v860h-293zM449 96h268q235 0 235 189q0 200 -235 200h-268v-389z"/>
<glyph unicode="ы" horiz-adv-x="1417" d="M192 0v954h113v-374h256q362 0 362 -295q0 -285 -362 -285h-369zM305 96h268q235 0 235 189q0 200 -235 200h-268v-389zM1112 0v954h110v-954h-110z"/>
<glyph unicode="ь" horiz-adv-x="1015" d="M192 0v954h113v-374h256q362 0 362 -295q0 -285 -362 -285h-369zM305 96h268q235 0 235 189q0 200 -235 200h-268v-389z"/>
<glyph unicode="э" horiz-adv-x="1015" d="M43 123l78 65q104 -118 274 -118t277 109q102 105 110 270h-471v94h467q-20 152 -120 244q-104 96 -261 96q-161 0 -272 -119l-70 70q123 145 344 145q223 0 361 -140q137 -139 137 -362t-139 -363q-139 -141 -363 -141q-222 0 -352 150z"/>
<glyph unicode="ю" horiz-adv-x="1624" d="M192 0v954h113v-411h231q24 191 153 312q134 124 330 124q214 0 351 -145q135 -143 135 -359q0 -217 -135 -359q-137 -145 -351 -145q-207 0 -343 137q-133 133 -142 338l-229 3v-449h-113zM651 475q0 -175 98 -290q103 -119 270 -119t270 119q99 115 99 290t-99 290 q-103 120 -270 120t-270 -120q-98 -114 -98 -290z"/>
<glyph unicode="я" horiz-adv-x="1093" d="M129 0l260 393q-242 51 -242 277q0 135 97 210q96 74 262 74h395v-954h-113v385h-278l-246 -385h-135zM260 670q0 -191 246 -191h282v381h-276q-252 0 -252 -190z"/>
<glyph unicode=" " horiz-adv-x="929"/>
<glyph unicode=" " horiz-adv-x="1858"/>
<glyph unicode=" " horiz-adv-x="929"/>
<glyph unicode=" " horiz-adv-x="1858"/>
<glyph unicode=" " horiz-adv-x="619"/>
<glyph unicode=" " horiz-adv-x="464"/>
<glyph unicode=" " horiz-adv-x="309"/>
<glyph unicode=" " horiz-adv-x="309"/>
<glyph unicode=" " horiz-adv-x="232"/>
<glyph unicode=" " horiz-adv-x="371"/>
<glyph unicode=" " horiz-adv-x="103"/>
<glyph unicode="‐" horiz-adv-x="643" d="M106 457v94h430v-94h-430z"/>
<glyph unicode="‑" horiz-adv-x="643" d="M106 457v94h430v-94h-430z"/>
<glyph unicode="‒" horiz-adv-x="643" d="M106 457v94h430v-94h-430z"/>
<glyph unicode="–" horiz-adv-x="1237" d="M106 457v94h1024v-94h-1024z"/>
<glyph unicode="—" horiz-adv-x="2261" d="M106 457v94h2048v-94h-2048z"/>
<glyph unicode=" " horiz-adv-x="371"/>
<glyph unicode=" " horiz-adv-x="464"/>
<glyph unicode="◼" horiz-adv-x="955" d="M0 0v955h955v-955h-955z"/>
</font>
</defs>
</svg>
