<?xml version="1.0" encoding="UTF-8"?>
<!-- Generator: Adobe Illustrator 19.0.1, SVG Export Plug-In . SVG Version: 6.00 Build 0)  -->
<svg version="1.1" id="Слой_1" xmlns="http://www.w3.org/2000/svg" xmlns:xlink="http://www.w3.org/1999/xlink" x="0px" y="0px" viewBox="0 0 230.9 10.8" style="enable-background:new 0 0 230.9 10.8;" xml:space="preserve">
<style type="text/css">
	.st0{fill:none;stroke:#E53935;stroke-width:2;stroke-miterlimit:10;}
</style>
<g>
	<path class="st0" d="M0,4.7c7.2,0,7.2,2,14.4,2c7.2,0,7.2-2,14.4-2c7.2,0,7.2,2,14.4,2c7.2,0,7.2-2,14.4-2c7.2,0,7.2,2,14.4,2   c7.2,0,7.2-2,14.4-2c7.2,0,7.2,2,14.4,2c7.2,0,7.2-2,14.4-2c7.2,0,7.2,2,14.4,2c7.2,0,7.2-2,14.4-2c7.2,0,7.2,2,14.4,2   c7.2,0,7.2-2,14.4-2c7.2,0,7.2,2,14.4,2c7.2,0,7.2-2,14.4-2c7.2,0,7.2,2,14.4,2c7.2,0,7.2-2,14.4-2"/>
</g>
</svg>