<?xml version="1.0" encoding="utf-8"?>
<!-- Generator: Adobe Illustrator 19.0.1, SVG Export Plug-In . SVG Version: 6.00 Build 0)  -->
<svg version="1.1" id="MOBIOS" xmlns="http://www.w3.org/2000/svg" xmlns:xlink="http://www.w3.org/1999/xlink" x="0px" y="0px"
	 viewBox="204.2 138.1 366.1 123.4" style="enable-background:new 204.2 138.1 366.1 123.4;" xml:space="preserve">
<style type="text/css">
	.st0{fill:#00B2D9;stroke:#000000;stroke-width:0.5;stroke-miterlimit:10;}
	.st1{fill:none;stroke:#000000;stroke-width:0.5;stroke-miterlimit:10;}
	.st2{fill:#1F1A17;}
</style>
<g id="logo">
	<path id="M_1_" class="st0" d="M204.5,185.1c0-4.9,0-9.9,0-14.8c0-1.2,0-1.2,1-0.6c5.5,2.9,11,5.7,16.6,8.6
		c0.3,0.1,0.5,0.3,0.6,0.6c3.2,5.2,6.4,10.4,9.6,15.7c0.3,0.4,0.4,0.5,0.8,0.1c2-1.7,3.9-3.4,5.9-5.1c0.3-0.3,0.6-0.3,1-0.2
		c1.5,0.5,2.9,1.1,4.3,1.8c3.9,1.9,7.7,4,11.3,6.5c1.9,1.3,1.9,1.3,1.9,3.7c0,19.7,0,39.4,0,59.1c0,0.2,0,0.4,0,0.7
		c-0.1,0-0.2,0-0.3,0c-1.3-0.3-2.5-0.9-3.7-1.6c-2.9-1.5-5.7-3.1-8.5-4.7c-1.7-1-3.3-2-4.9-3.3c-0.6-0.5-0.9-1.1-1-2
		c-0.1-6.5-0.1-12.9-0.1-19.4c0-1.2-0.1-2.4-0.1-3.5c0-0.5-0.1-0.6-0.5-0.3c-2.3,1.4-4.6,2.8-6.8,4.1c-1,0.6-1,0.6-1.6-0.4
		c-2.3-4-4.7-8-7-11.9c-0.1-0.2-0.2-0.4-0.3-0.6c0,0.2,0,0.4,0,0.6c0,7.6,0,15.1,0,22.7c0,1.1-0.2,1.2-1.2,0.8s-1.9-1-2.8-1.5
		c-2.1-1.3-4.3-2.5-6.6-3.6c-2.5-1.2-4.9-2.6-7-4.3c-0.3-0.2-0.5-0.5-0.7-0.9c0-3.3,0-6.6,0-9.9c0.1-0.2,0.1-0.4,0.1-0.6
		c0-2.4,0-4.9,0-7.3c0-1.6,0-3.2,0-4.8c0-1.5,0-3.1,0-4.6c0-1.7,0-3.3,0-5c0-1.5,0-3,0-4.5c0-1.4,0-2.9,0-4.3
		C204.5,188.7,204.5,186.9,204.5,185.1z"/>
	<path id="M" class="st0" d="M333.3,196.9c0-4.3,0-8.6,0-12.9c0-4,1.4-7.5,3.8-10.6c3.1-4,7.2-6.4,12.1-7.1c5-0.7,9.7,0.4,13.8,3.5
		c0.3,0.3,0.5,0.3,0.9,0c3.3-2.5,7-3.8,11.1-3.7c6.5,0.1,11.6,2.8,15.5,7.9c0.2,0.3,0.3,0.5,0,0.9c-2.9,3.3-4.8,7.1-5.7,11.4
		c-0.6,2.8-0.6,5.5-0.3,8.3c0.5,4.6,2.2,8.6,5,12.3c1.1,1.5,2.4,2.8,3.8,3.9c0.3,0.2,0.3,0.4,0.3,0.8c-0.5,2.4-3,4.5-5.5,5
		c-3.6,0.6-7-1.6-7.9-5.2c-0.1-0.6-0.2-1.1-0.2-1.7c0-8.3,0-16.6,0-24.9c0-2.2-1.1-3.9-3-4.6c-2-0.7-4.3-0.2-5.7,1.4
		c-0.8,0.9-1,1.9-1,3c0,3.9,0,7.8,0,11.8c0,4.5,0,8.9,0,13.4c0,4-3.2,7.1-7.2,6.9c-2.9-0.1-5.7-2.3-6.3-5c-0.1-0.6-0.2-1.2-0.2-1.8
		c0-8.4,0-16.8,0-25.2c0-2.4-1.4-4.2-3.7-4.8c-2.7-0.7-5.6,1.3-5.9,4.1c0,0.4-0.1,0.9-0.1,1.3c0,8.2,0,16.4,0,24.6
		c0,4.1-3.7,7.3-7.7,6.7c-2.9-0.4-5.2-2.5-5.9-5.2c-0.1-0.4-0.1-0.7-0.1-1.1C333.3,205.8,333.3,201.4,333.3,196.9L333.3,196.9z"/>
	<path id="O" class="st0" d="M411.8,166.1c-13.8,0.2-25.4,10.9-25.3,25.3c0,14.2,11,25.2,25.2,25.2c14,0,25.3-11.3,25.3-25.2
		C437.1,177.6,425.6,165.9,411.8,166.1z M411.7,203.3c-6.2,0-11.6-5.5-11.6-11.8c0-6.4,5.2-11.6,11.6-11.6c6.4,0,11.8,5.4,11.7,11.9
		C423.4,197.4,418.6,203.2,411.7,203.3z"/>
	<path id="B" class="st0" d="M480.8,186.3c-1-5.5-3.7-10.1-8-13.8c-7.6-6.5-19-8.3-28.1-3.8c-0.4,0.2-0.5,0.1-0.5-0.3c0-2,0-4,0-6
		l0,0c0-2,0.1-4,0-6c-0.3-5.1-6.2-8.1-10.4-5.3c-1.9,1.2-3.2,2.9-3.2,5.3c-0.1,5.1,0,10.1,0,15.2c0,0.3,0.1,0.4,0.3,0.6
		c1.7,1.4,3.1,3.1,4.4,4.9c3.7,5.4,5.1,11.4,4.2,17.9c-0.5,3.7-1.9,7.1-4,10.2c-0.3,0.4-0.2,0.6,0,1c1.5,1.9,3.1,3.7,5,5.1
		c5.6,4.3,11.9,6.2,18.9,5.3c5.2-0.7,9.7-2.9,13.5-6.5C479.8,203.6,482.4,195.6,480.8,186.3z M456.1,203.1
		c-6.4,0.1-11.8-5.3-11.8-11.6c0-6.5,6-11.8,11.7-11.7c6.3,0.1,11.7,5.4,11.7,11.7C467.7,198.2,461.9,203.1,456.1,203.1z"/>
	<g id="I">
		<path class="st1" d="M491.2,178.5c0-1.7,0.1-3.4-0.1-5c-0.2-1.8-1-3.4-2.3-4.6c-1.5-1.4-3.4-1.9-5.4-1.5c-3,0.5-5.5,2.9-5.8,6.1
			c0,0.4-0.2,0.8,0.2,1.2c1.3,1.3,2.4,2.9,3.3,4.5c1.8,3.1,2.8,6.5,3,10c0.2,2.6,0.1,5.3-0.5,7.9c-0.5,1.8-1.1,3.6-1.9,5.3
			c-1,1.9-2.1,3.7-3.5,5.4c-0.2,0.2-0.6,0.4-0.6,0.8c0,1.2-0.1,2.4,0.1,3.5c0.4,2,1.3,3.6,3,4.8c1.2,0.8,2.6,1.1,4.1,1
			c1.6-0.1,3.1-0.7,4.3-1.8c1.6-1.4,2.1-3.2,2.1-5.2c0-6.1,0-12.1,0-18.2C491.2,187.9,491.3,183.2,491.2,178.5z"/>
		<path class="st1" d="M484.2,164.9c4.2,0.3,7-3.3,7-6.8c0-3.7-3-6.9-6.7-6.8c-3.8-0.1-6.8,3-6.9,6.5
			C477.5,162.2,480.6,164.6,484.2,164.9z"/>
	</g>
	<path id="O_1_" class="st1" d="M537.6,187.5c-0.4-2.1-1-4.2-1.9-6.1c-0.9-1.9-2-3.8-3.4-5.4c-1.6-1.9-3.3-3.6-5.4-5
		c-2.4-1.6-4.9-2.9-7.7-3.6c-1.8-0.5-3.6-0.8-5.5-0.9c-1.8-0.1-3.6,0.1-5.3,0.5c-2,0.4-4,1-5.9,1.8c-3.3,1.5-6.2,3.5-8.6,6.1
		c-0.2,0.3-0.3,0.5-0.3,0.8c0,5.4,0,10.8,0,16.2c0,5.3,0,10.6,0,15.9c0,0.7,0.2,1.1,0.7,1.6c0.9,0.9,1.8,1.7,2.8,2.5
		c1.8,1.4,3.8,2.5,5.9,3.4c1.7,0.7,3.5,1.2,5.4,1.5c1.5,0.3,3.1,0.4,4.6,0.4c1.2,0,2.4-0.1,3.6-0.3c2.6-0.4,5-1.1,7.3-2.2
		c1.9-0.9,3.7-2.1,5.4-3.5c1.5-1.3,2.9-2.8,4-4.4c1.1-1.6,2.1-3.3,2.9-5.1c1.1-2.5,1.7-5.1,1.9-7.8
		C538,191.7,537.9,189.6,537.6,187.5z M512.6,203.6c-6.4,0-11.7-5.5-11.7-11.8c0-6.5,5.2-11.5,11.4-11.5c6.8,0,11.9,5.3,11.9,12
		C524.1,198.1,519.1,203.5,512.6,203.6z"/>
	<path id="S" class="st1" d="M570,203c-0.2,0.7-0.3,1.4-0.5,2.1c-0.6,2.3-1.7,4.4-3.3,6.2c-1.4,1.6-3.1,2.8-4.9,3.8
		c-1.7,0.9-3.5,1.4-5.4,1.6c-0.7,0.1-1.5,0.1-2.2,0.1c-6.6,0-13.3,0-19.9,0c-1.4,0-2.6-0.6-3.7-1.4c-0.6-0.5-1.1-1-1.5-1.6
		c-0.2-0.2-0.2-0.4,0.1-0.6c1.7-1,3.2-2.3,4.6-3.6c1.5-1.5,2.8-3.1,3.8-5c0.1-0.1,0.2-0.2,0.2-0.4c0.3-1.1,1.1-1.1,2-1.1
		c4.7,0,9.5,0,14.2,0c0.9,0,1.8-0.2,2.3-1.1c0.5-1,0.4-2,0-2.9c-0.4-0.8-1.2-1.2-2.1-1.2c-3.5,0-7.1,0-10.6,0c-1,0-2-0.2-3.1-0.1
		c0.8-2.7,0.8-5.5,0.7-8.2c-0.2-2.9-1-5.7-2.3-8.4c-1.2-2.4-2.6-4.7-4.5-6.7c-0.9-1-1.9-1.8-2.9-2.7c-0.2-0.2-0.2-0.3-0.1-0.5
		c1.7-2,3.8-3.4,6.3-4.4c2-0.8,4.1-1.1,6.3-1c6,0,12,0,18,0c2,0,3.5,1,4.7,2.5c0.8,1,1.4,2.1,1.5,3.4c0.2,1.4,0,2.8-0.8,4.1
		c-0.9,1.5-2.1,2.6-3.7,3.2c-0.5,0.2-1.1,0.3-1.7,0.3c-6,0-12,0-18,0c-1.1,0-2.2,0.3-3,1.2c-0.8,1-0.5,3.1,0.5,3.8
		c0.7,0.5,1.4,0.7,2.2,0.7c3.5,0,7,0,10.5,0c1.8,0,3.7,0.1,5.4,0.7c1.5,0.5,2.9,1.3,4.2,2.2c2.3,1.8,4.1,4,5.4,6.6
		c0.6,1.2,1,2.5,1.1,3.9c0,0.1,0,0.1,0.1,0.2C570,200.3,570,201.6,570,203z"/>
	<path id="O2" class="st1" d="M312.5,170c0-0.6-0.1-0.7-0.7-0.5c-1.4,0.6-2.7,1.2-4,1.9c-3.2,1.7-6.4,3.5-9.5,5.3
		c-2.6,1.5-5.3,3-7.9,4.5c-2.4,1.4-4.9,2.8-7.4,4.1c-1.5,0.8-2.9,1.5-4.4,2.3c-3.5,1.9-7.1,3.8-10.5,5.8c-2.6,1.5-5.3,3-7.7,4.8
		c-0.7,0.5-1.1,1.1-1.1,2.1c0,20.3,0,40.6,0,60.9c0.2,0,0.3,0,0.5,0c0.5-0.4,1.2-0.6,1.7-0.9c1.7-0.9,3.5-1.8,5.2-2.7
		c2.6-1.4,5.1-2.8,7.7-4.3c1.7-1,3.4-1.9,5.2-2.9c2.7-1.5,5.4-3.1,8.1-4.6c2.3-1.3,4.7-2.5,7.1-3.7c3-1.6,6-3.2,9-4.9
		c2.7-1.5,5.4-3.1,7.9-4.9c0.5-0.4,1-0.8,1-1.6C312.5,210.4,312.5,190.2,312.5,170z M294.8,219.8c0,0.5-0.4,0.8-0.8,1.1
		c-1.4,1.1-2.8,2-4.3,2.9c-2.8,1.7-5.7,3.2-8.7,4.6c-1,0.5-2.1,1-3.2,1.4c-0.1,0.1-0.3,0.1-0.4,0.1c0-4.7,0-9.4,0-14.1
		c0-2.1,0-4.1,0-6.2c0-0.3,0.1-0.6,0.4-0.7c0.7-0.3,1.4-0.7,2-1.1c2.9-1.5,5.8-3.1,8.7-4.6c1.9-1,3.7-2,5.6-3
		c0.2-0.1,0.3-0.1,0.5-0.2c0,0.1,0,0.2,0,0.2c0,3.7,0.1,7.4,0.2,11.1c0,2,0.1,4,0.1,5.9C294.9,218.1,294.8,218.9,294.8,219.8z"/>
	<path class="st2" d="M284.5,153.4c-0.2-0.1-0.5-0.1-0.8-0.2c-1.4,0-2.7-0.1-4.1-0.1c-0.4,0-0.5-0.1-0.5-0.5c0-0.6-0.1-1.2-0.1-1.8
		c0-0.4-0.1-0.7-0.5-0.9c-5.7-3.3-11.4-6.6-17-9.8c-1.1-0.7-2.3-1.3-3.4-2H258c-0.7,0.4-1.4,0.7-2.1,1.1
		c-11.7,6.2-23.3,12.7-34.9,19.2c-4.9,2.8-9.8,5.5-14.6,8.5c-0.3,0.2-0.6,0.3-0.8,0.6c0.5,0.3,1.1,0.5,1.5,0.7c4.1,2,8,4.2,12,6.4
		c10.7,5.9,21.3,12,32.1,17.8c2.2,1.2,4.5,2.4,6.8,3.4c0.4,0.2,0.8,0.2,1.2,0c16.7-9.2,33.4-18.3,50-27.5c0.1-0.1,0.3-0.1,0.4-0.3
		C301.3,163.1,292.9,158.2,284.5,153.4z M250.1,166.6c-0.3,0.1-0.5,0.2-0.8,0.1c-3.4-1.9-6.8-3.8-10.3-5.7c1.1-0.6,2-1.1,3-1.6
		c2.4-1.3,4.7-2.5,7.1-3.8c0.2-0.1,0.4-0.2,0.7-0.1c3.3,1.9,6.6,3.8,9.9,5.7l0.1,0.1c-1.1,0.6-2.1,1.1-3.1,1.7
		C254.5,164.2,252.3,165.4,250.1,166.6z M281,172.1c-4,2.3-8,4.5-12.1,6.8c-0.2,0.1-0.4,0.3-0.8,0.1c-4.2-2.4-8.5-4.7-12.9-7.1
		c1.2-0.7,2.4-1.3,3.5-1.9c3-1.6,6-3.2,9-4.8c0.3-0.1,0.5-0.2,0.8,0c4.1,2.1,8.3,4.3,12.4,6.4c0.1,0.1,0.2,0.1,0.4,0.2
		C281.3,171.9,281.1,172,281,172.1z"/>
	<g id="WEB">
		<path class="st2" d="M332.7,233.7c0-1.1,0-2.2,0-3.3c0-1.1,0.7-1.8,1.7-1.8s1.7,0.7,1.7,1.8c0,2,0,4,0,6c0,0.6,0.2,1,0.7,1.3
			c0.9,0.4,1.8-0.2,1.8-1.3c0-1.8,0-3.6,0-5.5c0-0.2,0-0.5,0-0.7c-0.1-0.9,0.6-1.5,1.6-1.7c0.8-0.1,1.6,0.5,1.7,1.4
			c0,0.2,0.1,0.5,0.1,0.7c0,2,0,3.9,0,5.9c0,0.8,0.5,1.4,1.2,1.4c0.7,0,1.3-0.6,1.3-1.4c0-2.1,0-4.1,0-6.2c0-0.7,0.4-1.2,1-1.5
			s1.2-0.2,1.8,0.3c0.4,0.3,0.6,0.8,0.6,1.3c0,2.1,0,4.2,0,6.4c0,1.8-0.9,3.2-2.5,4s-3.2,0.8-4.8-0.2c-0.3-0.2-0.4-0.1-0.7,0
			c-1.5,1-3.1,1.1-4.7,0.2c-1.6-0.8-2.4-2.1-2.4-3.9C332.7,235.7,332.7,234.7,332.7,233.7L332.7,233.7z"/>
		<path class="st2" d="M384.6,237.7c1,0,1.8,0.7,1.8,1.7s-0.8,1.8-1.8,1.8c-0.9,0-1.7-0.8-1.7-1.8
			C382.9,238.5,383.6,237.7,384.6,237.7z"/>
		<path class="st2" d="M373.4,229.8c-2-1.4-4.3-1.6-6.6-0.5c0-0.9,0-1.8,0-2.6c0-0.2,0-0.5-0.1-0.7c-0.2-0.9-0.9-1.5-1.9-1.4
			c-0.8,0.1-1.5,0.8-1.5,1.7c0,2.9,0,5.8,0,8.7c0,4.1,4,7.1,7.9,6.1c2.7-0.7,4.3-2.6,4.7-5.4C376.3,233.2,375.4,231.2,373.4,229.8z
			 M369.7,237.8c-1.6,0-2.9-1.4-2.9-3c0-1.6,1.4-2.9,2.9-2.9c1.6,0,2.9,1.3,2.9,3C372.6,236.5,371.3,237.8,369.7,237.8z"/>
		<path class="st2" d="M361.9,234.2c-0.3-3.3-3.8-6-7.1-5.5c-2.5,0.4-4.7,2.4-5.3,4.9c-0.6,2.4,0.5,5,2.5,6.6c2,1.5,4.8,1.4,6.6,0.4
			c0.8-0.4,1-1,0.8-1.8c-0.2-0.7-0.8-1.2-1.5-1.3c-0.5,0-0.9,0.2-1.3,0.3c-1.2,0.4-2.5,0-3.2-1c-0.1-0.1-0.2-0.2-0.1-0.3
			c0.1-0.1,0.2-0.1,0.3-0.1c1.1,0,2.3,0,3.4,0c1,0,2.1,0,3.1,0c0.3,0,0.5,0,0.8-0.1C361.8,235.9,362.1,235.4,361.9,234.2z
			 M353.4,233.4c0.1-0.7,0.9-1.3,1.8-1.4c1.4-0.2,2.3,0.3,2.9,1.4C356.4,233.4,354.9,233.4,353.4,233.4z"/>
	</g>
	<g id="SEO">
		<path class="st2" d="M439.5,241.2c-1,0-1.8,0-2.6,0c-1.1,0-1.8-0.7-1.8-1.6c0-1,0.8-1.7,1.9-1.7c1.5,0,3,0,4.4,0
			c0.6,0,0.8-0.2,0.8-0.7c0-0.4-0.2-0.7-0.6-0.7c-0.9,0-1.7,0-2.6,0c-2.7,0.1-4.1-2.2-4.1-3.9c0-2.2,1.7-4,4-4.1c1.5,0,3,0,4.4,0
			c1,0,1.7,0.7,1.7,1.7c0,0.9-0.8,1.7-1.8,1.7c-1.3,0-2.6,0-3.9,0c-0.9,0-1.2,0.2-1.2,0.7c0,0.6,0.3,0.7,1.2,0.8
			c1,0,2.1-0.1,3.1,0.1c1.7,0.3,3.2,2.1,3.1,3.9c0,1.9-1.4,3.5-3.2,3.8C441.5,241.3,440.4,241.2,439.5,241.2z"/>
		<path class="st2" d="M482.5,237.7c1,0,1.8,0.7,1.8,1.8c0,0.9-0.8,1.7-1.8,1.8c-0.9,0-1.7-0.8-1.7-1.8S481.5,237.7,482.5,237.7z"/>
		<path class="st2" d="M452.6,228.6c-2.7,0.4-4.5,2-5.3,4.6c-0.8,2.5,0.1,4.7,2,6.5c2.1,1.9,5.2,1.8,7.1,0.7c0.6-0.4,0.9-1,0.7-1.7
			c-0.1-0.6-0.7-1.1-1.3-1.3c-0.6-0.1-1,0.1-1.5,0.3c-1.4,0.5-2.7-0.1-3.3-1.4c0.5,0,1,0,1.4,0c1.9,0,3.9,0,5.8,0
			c1,0,1.5-0.6,1.5-1.5C459.7,231.2,456.1,228.1,452.6,228.6z M451,233.4c0.5-1.1,1.4-1.5,2.5-1.5c1,0,1.8,0.5,2.3,1.5
			C454.2,233.4,452.6,233.4,451,233.4z"/>
		<path class="st2" d="M467.2,228.6c-3.6,0.1-6.3,2.9-6.3,6.4s2.8,6.2,6.3,6.2s6.4-2.9,6.3-6.3C473.5,231.4,470.6,228.5,467.2,228.6
			z M467.2,237.8c-1.6,0-2.9-1.4-2.9-3c0-1.6,1.3-2.9,2.8-2.9c1.7,0,3,1.3,3,3C470.2,236.5,468.8,237.8,467.2,237.8z"/>
	</g>
	<g id="IOS">
		<path class="st2" d="M562.3,241.2c-1,0-1.8,0-2.5,0c-1.1,0-1.8-0.7-1.8-1.7s0.8-1.7,1.8-1.7c1.5,0,3,0,4.5,0
			c0.6,0,0.9-0.3,0.8-0.9c-0.1-0.4-0.3-0.5-0.6-0.5c-0.9,0-1.7,0-2.6,0c-2.5,0.1-4.1-2-4.1-3.9c0-2.2,1.7-4,4-4c1.5,0,2.9,0,4.4,0
			c1,0,1.8,0.7,1.8,1.7s-0.8,1.7-1.8,1.7c-1.4,0-2.8,0-4.2,0c-0.6,0-0.9,0.3-0.9,0.7c0,0.5,0.3,0.7,0.9,0.7c1.1,0,2.3-0.1,3.4,0.1
			c1.8,0.3,3.2,2,3.2,3.9c0,1.8-1.5,3.5-3.3,3.8C564.2,241.3,563.2,241.2,562.3,241.2z"/>
		<path class="st2" d="M538.8,234.9c0-1.4,0-2.9,0-4.3c0-1.1,0.7-1.9,1.7-1.9c0.9,0,1.6,0.8,1.6,1.9c0,1.6,0,3.2,0,4.8
			c0,1.4,0,2.7,0,4.1c0,1-0.5,1.7-1.4,1.8c-1.1,0.2-2-0.6-2-1.7C538.8,238,538.8,236.4,538.8,234.9z"/>
		<path class="st2" d="M540.5,224.7c0.9,0,1.6,0.8,1.6,1.7c0,0.9-0.8,1.7-1.6,1.7c-1,0-1.8-0.8-1.7-1.7
			C538.8,225.4,539.6,224.7,540.5,224.7z"/>
		<path class="st2" d="M550.1,228.6c-3.4,0-6.4,2.7-6.4,6.2c0,3.6,2.6,6.3,6.3,6.4c3.4,0.1,6.3-2.7,6.3-6.2
			C556.4,231.6,553.5,228.6,550.1,228.6z M550,237.8c-1.6,0-2.9-1.4-2.9-2.9c0-1.6,1.4-3,2.9-3c1.7,0,3,1.3,3,3
			C553,236.5,551.6,237.8,550,237.8z"/>
	</g>
</g>
</svg>
