<?xml version="1.0" encoding="UTF-8"?>
<!-- Generator: Adobe Illustrator 18.0.0, SVG Export Plug-In . SVG Version: 6.00 Build 0) -->
<svg xmlns="http://www.w3.org/2000/svg" xmlns:xlink="http://www.w3.org/1999/xlink" id="Layer_1" x="0px" y="0px" viewBox="0 0 640 280" style="enable-background:new 0 0 640 280;" xml:space="preserve"><script xmlns="" type="text/javascript" charset="utf-8" id="zm-extension"/> <g> <g> <path d="M49.247,79.999c-6.577,0-12.029-2.185-16.358-6.556c-4.33-4.371-6.493-9.802-6.493-16.295 c0-6.494,2.164-11.925,6.493-16.296c4.329-4.37,9.781-6.556,16.358-6.556c4.037,0,7.762,0.958,11.176,2.872 c3.413,1.915,6.077,4.496,7.992,7.742l-10.864,6.243c-0.708-1.415-1.811-2.538-3.309-3.371c-1.498-0.833-3.164-1.249-4.995-1.249 c-3.081,0-5.578,0.999-7.492,2.997c-1.915,1.998-2.872,4.537-2.872,7.617c0,3.081,0.957,5.619,2.872,7.617 c1.914,1.998,4.412,2.997,7.492,2.997c1.873,0,3.548-0.416,5.026-1.249c1.477-0.833,2.57-1.977,3.278-3.434l10.864,6.244 c-1.915,3.289-4.579,5.89-7.992,7.804C57.009,79.041,53.284,79.999,49.247,79.999z"/> <path d="M87.27,79.874c-4.662,0-8.627-1.581-11.894-4.745c-3.268-3.163-4.901-7.076-4.901-11.738c0-4.661,1.623-8.574,4.87-11.738 c3.247-3.163,7.221-4.745,11.925-4.745c4.703,0,8.678,1.583,11.925,4.745c3.247,3.164,4.87,7.077,4.87,11.738 c0,4.662-1.624,8.575-4.87,11.738C95.948,78.293,91.973,79.874,87.27,79.874z M83.493,67.356c0.978,1.021,2.237,1.53,3.777,1.53 c1.54,0,2.799-0.509,3.777-1.53c0.978-1.02,1.467-2.341,1.467-3.965c0-1.623-0.49-2.944-1.467-3.964 c-0.979-1.02-2.238-1.53-3.777-1.53c-1.541,0-2.8,0.51-3.777,1.53c-0.979,1.021-1.467,2.341-1.467,3.964 C82.025,65.015,82.514,66.336,83.493,67.356z"/> <path d="M126.916,63.017c3.205,1.541,4.808,4.038,4.808,7.492c0,2.789-1.239,5.068-3.715,6.837 c-2.477,1.769-5.734,2.653-9.771,2.653c-3.331,0-6.15-0.573-8.46-1.717c-2.311-1.145-4.152-3.091-5.526-5.838l8.679-5.057 c0.999,2.248,2.601,3.372,4.808,3.372c0.582,0,1.124-0.146,1.623-0.438c0.5-0.291,0.75-0.707,0.75-1.249 c0-1.124-0.708-1.686-2.123-1.686h-3.122v-8.366h3.122c0.416,0,0.78-0.166,1.093-0.5c0.312-0.333,0.468-0.708,0.468-1.124 c0-1.165-0.812-1.748-2.435-1.748c-1.915,0-3.206,1.061-3.871,3.184l-8.678-4.62c1.581-2.623,3.454-4.496,5.619-5.619 c2.164-1.124,4.89-1.686,8.179-1.686c3.58,0,6.545,0.896,8.897,2.685c2.351,1.79,3.528,3.996,3.528,6.618 C130.787,59.292,129.497,61.56,126.916,63.017z"/> <path d="M166.062,68.011h4.059v19.355h-10.926V79H144.21v8.366h-10.926V68.011h3.497c1.498-2.455,2.248-5.931,2.248-10.426v-9.802 h27.034V68.011z M148.58,68.011h6.244v-9.989h-4.558C150.224,61.977,149.662,65.306,148.58,68.011z"/> <path d="M193.908,47.783h11.551V79h-11.551v-2.81c-1.998,2.457-4.787,3.684-8.366,3.684c-4.205,0-7.639-1.561-10.302-4.683 c-2.664-3.122-3.996-7.055-3.996-11.8s1.332-8.678,3.996-11.8c2.663-3.122,6.097-4.683,10.302-4.683 c3.58,0,6.369,1.229,8.366,3.684V47.783z M184.324,67.574c1.02,1.124,2.362,1.686,4.027,1.686c1.665,0,3.007-0.562,4.027-1.686 c1.019-1.124,1.529-2.518,1.529-4.183c0-1.664-0.51-3.059-1.529-4.183c-1.021-1.124-2.363-1.686-4.027-1.686 c-1.665,0-3.007,0.562-4.027,1.686c-1.021,1.124-1.53,2.519-1.53,4.183C182.794,65.057,183.304,66.451,184.324,67.574z"/> <path d="M229.495,47.783h11.55V79h-11.55V68.886h-7.492V79h-11.55V47.783h11.55v10.114h7.492V47.783z"/> <path d="M267.955,47.783h9.303V79h-11.238V65.577L255.343,79h-9.303V47.783h11.238v13.423L267.955,47.783z"/> <path d="M292.428,67.325c0.999,2.082,3.122,3.122,6.368,3.122c1.914,0,3.684-0.665,5.307-1.998l7.555,6.369 c-3.122,3.372-7.534,5.057-13.236,5.057c-5.329,0-9.605-1.55-12.831-4.651c-3.226-3.1-4.838-7.002-4.838-11.707 c0-4.745,1.57-8.699,4.714-11.863c3.142-3.163,7.106-4.745,11.894-4.745c4.745,0,8.647,1.551,11.707,4.651 c3.06,3.102,4.589,7.004,4.589,11.707c0,1.374-0.167,2.727-0.499,4.058H292.428z M292.241,59.895h10.489 c-0.708-2.498-2.394-3.746-5.057-3.746C294.966,56.149,293.156,57.397,292.241,59.895z"/> <path d="M344.873,79.874c-4.787,0-8.763-1.571-11.925-4.714c-3.164-3.142-4.745-7.065-4.745-11.769 c0-4.703,1.581-8.625,4.745-11.769c3.162-3.142,7.138-4.714,11.925-4.714c3.08,0,5.9,0.74,8.46,2.217 c2.56,1.478,4.526,3.465,5.9,5.962l-9.74,5.557c-1.041-1.748-2.581-2.622-4.62-2.622c-1.457,0-2.675,0.51-3.652,1.529 c-0.979,1.021-1.468,2.301-1.468,3.84c0,1.541,0.489,2.82,1.468,3.84c0.978,1.021,2.195,1.53,3.652,1.53 c2.164,0,3.704-0.895,4.62-2.685l9.74,5.619c-1.374,2.539-3.341,4.537-5.9,5.994S347.953,79.874,344.873,79.874z"/> <path d="M382.709,47.783h11.55V79h-11.55v-2.81c-1.998,2.457-4.787,3.684-8.366,3.684c-4.205,0-7.639-1.561-10.302-4.683 c-2.665-3.122-3.996-7.055-3.996-11.8s1.331-8.678,3.996-11.8c2.663-3.122,6.097-4.683,10.302-4.683 c3.579,0,6.368,1.229,8.366,3.684V47.783z M373.125,67.574c1.02,1.124,2.361,1.686,4.027,1.686c1.664,0,3.006-0.562,4.026-1.686 c1.02-1.124,1.53-2.518,1.53-4.183c0-1.664-0.511-3.059-1.53-4.183c-1.021-1.124-2.362-1.686-4.026-1.686 c-1.666,0-3.008,0.562-4.027,1.686c-1.021,1.124-1.53,2.519-1.53,4.183C371.595,65.057,372.104,66.451,373.125,67.574z"/> <path d="M421.168,47.783h9.303V79h-11.238V65.577L408.556,79h-9.303V47.783h11.238v13.423L421.168,47.783z M403.936,44.723v-9.365 h21.853v9.365H403.936z"/> <path d="M462,47.783v10.988h-8.491V79h-11.613V58.771h-8.615V47.783H462z"/> <path d="M479.605,79.874c-4.662,0-8.627-1.581-11.894-4.745c-3.269-3.163-4.901-7.076-4.901-11.738 c0-4.661,1.623-8.574,4.87-11.738c3.246-3.163,7.221-4.745,11.925-4.745c4.703,0,8.679,1.583,11.925,4.745 c3.247,3.164,4.87,7.077,4.87,11.738c0,4.662-1.623,8.575-4.87,11.738C488.284,78.293,484.309,79.874,479.605,79.874z M475.828,67.356c0.978,1.021,2.237,1.53,3.777,1.53c1.539,0,2.799-0.509,3.777-1.53c0.978-1.02,1.467-2.341,1.467-3.965 c0-1.623-0.489-2.944-1.467-3.964c-0.979-1.02-2.238-1.53-3.777-1.53c-1.54,0-2.8,0.51-3.777,1.53 c-0.979,1.021-1.468,2.341-1.468,3.964C474.36,65.015,474.85,66.336,475.828,67.356z"/> <path d="M524.809,63.079c3.038,1.374,4.558,3.643,4.558,6.805c0,2.831-0.947,5.058-2.841,6.681 c-1.895,1.624-4.693,2.435-8.397,2.435h-18.106V47.783h17.17c3.704,0,6.503,0.802,8.397,2.403 c1.894,1.603,2.841,3.819,2.841,6.649C528.43,59.583,527.222,61.665,524.809,63.079z M515.068,55.836h-3.809v3.871h3.809 c1.415,0,2.123-0.625,2.123-1.873C517.191,56.503,516.483,55.836,515.068,55.836z M515.631,70.946 c1.414,0,2.122-0.665,2.122-1.998c0-1.249-0.708-1.873-2.122-1.873h-4.371v3.871H515.631z"/> <path d="M57.613,142.934h4.059v19.354H50.746v-8.366H35.761v8.366H24.835v-19.354h3.497c1.498-2.456,2.248-5.932,2.248-10.427 v-9.802h27.034V142.934z M40.131,142.934h6.244v-9.99h-4.558C41.775,136.898,41.213,140.229,40.131,142.934z"/> <path d="M96.759,122.705v31.217h-11.55v-20.229h-5.62v7.306c0,5.078-1.27,8.647-3.808,10.707 c-2.54,2.061-6.618,2.799-12.237,2.217v-10.614c1.539,0.417,2.674,0.24,3.402-0.53c0.728-0.77,1.093-2.195,1.093-4.277v-15.795 H96.759z"/> <path d="M130.536,122.705v31.217h-11.55v-8.741h-0.812l-5.495,8.741H99.568l7.305-10.614c-3.372-2.122-5.057-5.14-5.057-9.053 c0-3.579,1.092-6.399,3.278-8.46c2.185-2.061,5.171-3.09,8.959-3.09H130.536z M115.489,132.07c-1.623,0-2.435,0.729-2.435,2.185 c0,1.457,0.812,2.186,2.435,2.186h3.497v-4.371H115.489z"/> <path d="M172.803,138.001c3.038,1.373,4.558,3.643,4.558,6.806c0,2.831-0.947,5.057-2.841,6.681 c-1.895,1.623-4.693,2.435-8.397,2.435h-18.106v-31.217h17.169c3.704,0,6.503,0.802,8.397,2.403 c1.894,1.603,2.841,3.819,2.841,6.649C176.424,134.505,175.217,136.586,172.803,138.001z M163.063,130.758h-3.809v3.872h3.809 c1.415,0,2.123-0.625,2.123-1.874C165.186,131.425,164.478,130.758,163.063,130.758z M163.625,145.868 c1.415,0,2.123-0.666,2.123-1.998c0-1.249-0.708-1.873-2.123-1.873h-4.37v3.871H163.625z"/> <path d="M202.084,122.705h11.551v31.217h-11.551v-2.81c-1.998,2.456-4.787,3.684-8.366,3.684c-4.205,0-7.639-1.561-10.302-4.683 c-2.664-3.122-3.996-7.055-3.996-11.8c0-4.746,1.332-8.679,3.996-11.801c2.663-3.122,6.097-4.683,10.302-4.683 c3.58,0,6.369,1.229,8.366,3.684V122.705z M192.501,142.496c1.02,1.124,2.362,1.686,4.027,1.686c1.665,0,3.007-0.562,4.027-1.686 c1.019-1.124,1.529-2.518,1.529-4.183s-0.51-3.06-1.529-4.184c-1.021-1.124-2.363-1.686-4.027-1.686 c-1.665,0-3.007,0.562-4.027,1.686c-1.021,1.124-1.53,2.519-1.53,4.184S191.48,141.372,192.501,142.496z"/> <path d="M253.905,122.705h11.55v31.217h-46.826v-31.217h11.55v20.229h6.244v-20.229h11.238v20.229h6.244V122.705z"/> <path d="M280.626,142.246c0.999,2.082,3.122,3.122,6.368,3.122c1.914,0,3.684-0.665,5.307-1.998l7.555,6.368 c-3.122,3.372-7.534,5.058-13.236,5.058c-5.329,0-9.605-1.55-12.831-4.651c-3.226-3.101-4.838-7.003-4.838-11.707 c0-4.745,1.57-8.698,4.714-11.862c3.142-3.163,7.106-4.745,11.894-4.745c4.745,0,8.647,1.551,11.707,4.651 c3.06,3.102,4.589,7.004,4.589,11.707c0,1.373-0.167,2.727-0.499,4.058H280.626z M280.439,134.816h10.489 c-0.708-2.497-2.394-3.746-5.057-3.746C283.165,131.071,281.354,132.319,280.439,134.816z"/> <path d="M328.39,122.705v10.988h-11.551v20.229h-11.551v-31.217H328.39z"/> <path d="M346.309,154.796c-4.662,0-8.627-1.581-11.894-4.745c-3.269-3.163-4.901-7.075-4.901-11.737s1.623-8.574,4.87-11.738 c3.246-3.163,7.221-4.745,11.925-4.745c4.703,0,8.679,1.583,11.925,4.745c3.247,3.164,4.87,7.076,4.87,11.738 s-1.623,8.574-4.87,11.737C354.987,153.215,351.012,154.796,346.309,154.796z M342.531,142.277c0.978,1.021,2.237,1.53,3.777,1.53 c1.539,0,2.799-0.51,3.777-1.53c0.978-1.02,1.467-2.341,1.467-3.964c0-1.624-0.489-2.944-1.467-3.965 c-0.979-1.02-2.238-1.53-3.777-1.53c-1.54,0-2.8,0.51-3.777,1.53c-0.979,1.021-1.468,2.341-1.468,3.965 C341.063,139.937,341.553,141.258,342.531,142.277z"/> <path d="M395.443,154.921c-5.328,0-9.574-1.581-12.736-4.745c-3.164-3.163-4.745-7.45-4.745-12.861 c0-5.203,0.905-9.417,2.716-12.644c1.811-3.225,4.609-5.753,8.397-7.586c4.203-2.039,7.055-3.579,8.554-4.62 c1.498-1.04,2.58-2.331,3.246-3.871l9.303,5.307c-0.666,2.248-1.801,4.007-3.402,5.276c-1.603,1.27-4.069,2.591-7.398,3.965 c-2.956,1.208-5.037,2.196-6.243,2.965c-1.208,0.771-2.103,1.739-2.686,2.903c1.998-1.623,4.517-2.435,7.555-2.435 c3.746,0,6.982,1.26,9.709,3.777c2.726,2.519,4.09,5.838,4.09,9.959c0,4.245-1.479,7.741-4.434,10.488 C404.412,153.547,400.438,154.921,395.443,154.921z M395.193,145.243c1.457,0,2.663-0.446,3.621-1.342 c0.957-0.895,1.437-2.029,1.437-3.403c0-1.414-0.5-2.58-1.498-3.496c-0.999-0.915-2.228-1.374-3.685-1.374 c-1.373,0-2.57,0.428-3.59,1.28c-1.021,0.854-1.529,1.988-1.529,3.403c0,1.457,0.499,2.644,1.498,3.559 C392.446,144.786,393.695,145.243,395.193,145.243z"/> <path d="M436.838,122.705h9.303v31.217h-11.238v-13.424l-10.677,13.424h-9.303v-31.217h11.238v13.423L436.838,122.705z"/> <path d="M471.613,137.938c3.204,1.54,4.807,4.038,4.807,7.492c0,2.789-1.238,5.068-3.715,6.837s-5.734,2.653-9.771,2.653 c-3.331,0-6.15-0.572-8.46-1.717c-2.311-1.145-4.152-3.091-5.525-5.838l8.678-5.058c0.999,2.248,2.602,3.372,4.808,3.372 c0.583,0,1.124-0.146,1.624-0.438c0.499-0.29,0.749-0.707,0.749-1.248c0-1.124-0.708-1.687-2.123-1.687h-3.122v-8.366h3.122 c0.416,0,0.78-0.166,1.093-0.499s0.468-0.708,0.468-1.124c0-1.165-0.812-1.748-2.435-1.748c-1.915,0-3.206,1.061-3.871,3.184 l-8.679-4.62c1.582-2.623,3.455-4.496,5.619-5.619c2.164-1.124,4.891-1.686,8.18-1.686c3.579,0,6.545,0.896,8.896,2.685 c2.352,1.79,3.527,3.996,3.527,6.618C475.483,134.214,474.193,136.482,471.613,137.938z"/> <path d="M498.896,122.705h11.551v31.217h-11.551v-10.114h-7.492v10.114h-11.551v-31.217h11.551v10.114h7.492V122.705z"/> <path d="M525.618,142.246c0.999,2.082,3.122,3.122,6.369,3.122c1.914,0,3.684-0.665,5.307-1.998l7.555,6.368 c-3.122,3.372-7.534,5.058-13.236,5.058c-5.328,0-9.605-1.55-12.83-4.651c-3.227-3.101-4.839-7.003-4.839-11.707 c0-4.745,1.57-8.698,4.714-11.862c3.142-3.163,7.106-4.745,11.894-4.745c4.745,0,8.647,1.551,11.707,4.651 c3.059,3.102,4.589,7.004,4.589,11.707c0,1.373-0.167,2.727-0.5,4.058H525.618z M525.432,134.816h10.488 c-0.708-2.497-2.394-3.746-5.057-3.746C528.157,131.071,526.347,132.319,525.432,134.816z"/> <path d="M565.701,154.796c-4.787,0-8.763-1.57-11.925-4.714c-3.164-3.143-4.745-7.064-4.745-11.769 c0-4.703,1.581-8.626,4.745-11.77c3.162-3.142,7.138-4.714,11.925-4.714c3.08,0,5.9,0.74,8.46,2.217 c2.56,1.478,4.526,3.465,5.9,5.962l-9.74,5.557c-1.041-1.749-2.581-2.623-4.62-2.623c-1.457,0-2.675,0.51-3.652,1.53 c-0.979,1.021-1.468,2.3-1.468,3.84s0.489,2.82,1.468,3.84c0.978,1.02,2.195,1.529,3.652,1.529c2.164,0,3.704-0.895,4.62-2.685 l9.74,5.619c-1.374,2.539-3.341,4.537-5.9,5.993C571.602,154.067,568.781,154.796,565.701,154.796z"/> <path d="M603.537,122.705h11.55v31.217h-11.55v-2.81c-1.998,2.456-4.787,3.684-8.366,3.684c-4.205,0-7.639-1.561-10.302-4.683 c-2.665-3.122-3.996-7.055-3.996-11.8c0-4.746,1.331-8.679,3.996-11.801c2.663-3.122,6.097-4.683,10.302-4.683 c3.579,0,6.368,1.229,8.366,3.684V122.705z M593.953,142.496c1.02,1.124,2.361,1.686,4.027,1.686c1.664,0,3.006-0.562,4.026-1.686 c1.02-1.124,1.53-2.518,1.53-4.183s-0.511-3.06-1.53-4.184c-1.021-1.124-2.362-1.686-4.026-1.686 c-1.666,0-3.008,0.562-4.027,1.686c-1.021,1.124-1.53,2.519-1.53,4.184S592.933,141.372,593.953,142.496z"/> <path d="M46.375,197.626h11.55v31.218h-11.55v-10.114h-7.492v10.114h-11.55v-31.218h11.55v10.114h7.492V197.626z"/> <path d="M84.085,197.626h11.551v31.218H84.085v-2.81c-1.998,2.456-4.787,3.684-8.366,3.684c-4.205,0-7.639-1.561-10.302-4.683 c-2.664-3.122-3.996-7.055-3.996-11.8s1.332-8.679,3.996-11.801c2.663-3.121,6.097-4.683,10.302-4.683 c3.58,0,6.369,1.229,8.366,3.684V197.626z M74.502,217.418c1.02,1.124,2.362,1.686,4.027,1.686c1.665,0,3.007-0.562,4.027-1.686 c1.019-1.124,1.529-2.518,1.529-4.183s-0.51-3.06-1.529-4.184c-1.021-1.124-2.363-1.686-4.027-1.686 c-1.665,0-3.007,0.562-4.027,1.686c-1.021,1.124-1.53,2.519-1.53,4.184S73.481,216.294,74.502,217.418z"/> <path d="M144.958,228.844h-12.799l-7.492-12.487v12.487h-11.55v-31.218h11.55v12.112l6.556-12.112h13.111l-9.49,15.609 L144.958,228.844z"/> <path d="M160.692,229.718c-4.662,0-8.627-1.581-11.894-4.745c-3.268-3.163-4.901-7.075-4.901-11.737 c0-4.661,1.623-8.574,4.87-11.738c3.247-3.162,7.221-4.745,11.925-4.745c4.703,0,8.678,1.583,11.925,4.745 c3.247,3.164,4.87,7.077,4.87,11.738c0,4.662-1.624,8.574-4.87,11.737C169.371,228.137,165.396,229.718,160.692,229.718z M156.915,217.199c0.978,1.021,2.237,1.53,3.777,1.53c1.54,0,2.799-0.51,3.777-1.53c0.978-1.02,1.467-2.341,1.467-3.964 c0-1.624-0.49-2.944-1.467-3.965c-0.979-1.02-2.238-1.53-3.777-1.53c-1.541,0-2.8,0.511-3.777,1.53 c-0.979,1.021-1.467,2.341-1.467,3.965C155.448,214.858,155.937,216.18,156.915,217.199z"/> <path d="M200.15,197.626h11.55v31.218h-11.55v-10.114h-7.492v10.114h-11.55v-31.218h11.55v10.114h7.492V197.626z"/> <path d="M231.867,229.718c-4.787,0-8.762-1.57-11.925-4.714c-3.164-3.143-4.745-7.064-4.745-11.769 c0-4.703,1.581-8.626,4.745-11.77c3.163-3.142,7.138-4.714,11.925-4.714c3.08,0,5.9,0.739,8.46,2.217 c2.56,1.478,4.526,3.465,5.9,5.962l-9.74,5.558c-1.041-1.749-2.581-2.623-4.62-2.623c-1.458,0-2.675,0.511-3.652,1.53 c-0.979,1.021-1.467,2.3-1.467,3.84s0.489,2.82,1.467,3.84c0.978,1.02,2.195,1.529,3.652,1.529c2.164,0,3.704-0.895,4.62-2.685 l9.74,5.619c-1.374,2.539-3.34,4.537-5.9,5.993C237.768,228.989,234.947,229.718,231.867,229.718z"/> <path d="M275.883,197.626v10.989h-8.491v20.229h-11.613v-20.229h-8.616v-10.989H275.883z"/> <path d="M298.609,196.752c4.204,0,7.638,1.562,10.302,4.683c2.664,3.122,3.996,7.056,3.996,11.801s-1.333,8.678-3.996,11.8 c-2.664,3.122-6.098,4.683-10.302,4.683c-3.58,0-6.368-1.228-8.366-3.684v15.297h-11.55v-43.705h11.55v2.81 C292.241,197.98,295.029,196.752,298.609,196.752z M291.772,217.418c1.02,1.124,2.362,1.686,4.027,1.686 c1.665,0,3.007-0.562,4.027-1.686c1.019-1.124,1.529-2.518,1.529-4.183s-0.51-3.06-1.529-4.184 c-1.021-1.124-2.363-1.686-4.027-1.686c-1.665,0-3.007,0.562-4.027,1.686c-1.021,1.124-1.53,2.519-1.53,4.184 S290.752,216.294,291.772,217.418z"/> <path d="M335.259,197.626h13.111l-10.365,30.281c-1.623,4.786-4.193,8.272-7.711,10.458s-7.709,3.173-12.58,2.966v-10.927 c2.123,0,3.746-0.155,4.871-0.468c1.123-0.313,2.018-0.885,2.684-1.717l-12.487-30.594h13.112l5.557,16.67L335.259,197.626z"/> <path d="M382.708,228.844h-12.799l-7.492-12.487v12.487h-11.551v-31.218h11.551v12.112l6.556-12.112h13.111l-9.49,15.609 L382.708,228.844z"/> <path d="M411.74,197.626v10.989h-8.491v20.229h-11.613v-20.229h-8.615v-10.989H411.74z"/> <path d="M429.346,229.718c-4.662,0-8.627-1.581-11.894-4.745c-3.269-3.163-4.901-7.075-4.901-11.737 c0-4.661,1.623-8.574,4.87-11.738c3.246-3.162,7.221-4.745,11.925-4.745c4.703,0,8.679,1.583,11.925,4.745 c3.247,3.164,4.87,7.077,4.87,11.738c0,4.662-1.623,8.574-4.87,11.737C438.024,228.137,434.049,229.718,429.346,229.718z M425.568,217.199c0.978,1.021,2.237,1.53,3.777,1.53c1.539,0,2.799-0.51,3.777-1.53c0.978-1.02,1.467-2.341,1.467-3.964 c0-1.624-0.489-2.944-1.467-3.965c-0.979-1.02-2.238-1.53-3.777-1.53c-1.54,0-2.8,0.511-3.777,1.53 c-0.979,1.021-1.468,2.341-1.468,3.965C424.101,214.858,424.59,216.18,425.568,217.199z"/> <path d="M469.679,196.752c4.204,0,7.638,1.562,10.302,4.683c2.663,3.122,3.996,7.056,3.996,11.801s-1.333,8.678-3.996,11.8 c-2.664,3.122-6.098,4.683-10.302,4.683c-3.58,0-6.368-1.228-8.366-3.684v15.297h-11.551v-43.705h11.551v2.81 C463.311,197.98,466.099,196.752,469.679,196.752z M462.842,217.418c1.02,1.124,2.362,1.686,4.027,1.686 c1.664,0,3.007-0.562,4.027-1.686c1.02-1.124,1.529-2.518,1.529-4.183s-0.51-3.06-1.529-4.184 c-1.021-1.124-2.363-1.686-4.027-1.686c-1.665,0-3.008,0.562-4.027,1.686c-1.021,1.124-1.529,2.519-1.529,4.184 S461.821,216.294,462.842,217.418z"/> <path d="M497.897,217.168c0.999,2.082,3.122,3.122,6.369,3.122c1.914,0,3.684-0.665,5.307-1.998l7.555,6.368 c-3.122,3.372-7.534,5.058-13.236,5.058c-5.328,0-9.605-1.55-12.83-4.651c-3.227-3.101-4.839-7.003-4.839-11.707 c0-4.744,1.57-8.698,4.714-11.862c3.142-3.162,7.106-4.745,11.894-4.745c4.745,0,8.647,1.552,11.707,4.651 c3.059,3.102,4.589,7.004,4.589,11.707c0,1.373-0.167,2.727-0.5,4.058H497.897z M497.711,209.738h10.488 c-0.708-2.497-2.394-3.746-5.057-3.746C500.437,205.992,498.626,207.241,497.711,209.738z"/> </g> <g> <linearGradient id="SVGID_1_" gradientUnits="userSpaceOnUse" x1="24.835" y1="137.8272" x2="615.0869" y2="137.8272"> <stop offset="0" style="stop-color:#6C009A"/> <stop offset="0.0728" style="stop-color:#7506A1"/> <stop offset="0.1939" style="stop-color:#8F15B6"/> <stop offset="0.3483" style="stop-color:#B82ED7"/> <stop offset="0.5069" style="stop-color:#EA4CFE"/> <stop offset="0.9944" style="stop-color:#6C009A"/> </linearGradient> <path style="fill:url(#SVGID_1_);" d="M49.247,79.999c-6.577,0-12.029-2.185-16.358-6.556c-4.33-4.371-6.493-9.802-6.493-16.295 c0-6.494,2.164-11.925,6.493-16.296c4.329-4.37,9.781-6.556,16.358-6.556c4.037,0,7.762,0.958,11.176,2.872 c3.413,1.915,6.077,4.496,7.992,7.742l-10.864,6.243c-0.708-1.415-1.811-2.538-3.309-3.371c-1.498-0.833-3.164-1.249-4.995-1.249 c-3.081,0-5.578,0.999-7.492,2.997c-1.915,1.998-2.872,4.537-2.872,7.617c0,3.081,0.957,5.619,2.872,7.617 c1.914,1.998,4.412,2.997,7.492,2.997c1.873,0,3.548-0.416,5.026-1.249c1.477-0.833,2.57-1.977,3.278-3.434l10.864,6.244 c-1.915,3.289-4.579,5.89-7.992,7.804C57.009,79.041,53.284,79.999,49.247,79.999z"/> <linearGradient id="SVGID_2_" gradientUnits="userSpaceOnUse" x1="24.835" y1="137.8272" x2="615.0869" y2="137.8272"> <stop offset="0" style="stop-color:#6C009A"/> <stop offset="0.0728" style="stop-color:#7506A1"/> <stop offset="0.1939" style="stop-color:#8F15B6"/> <stop offset="0.3483" style="stop-color:#B82ED7"/> <stop offset="0.5069" style="stop-color:#EA4CFE"/> <stop offset="0.9944" style="stop-color:#6C009A"/> </linearGradient> <path style="fill:url(#SVGID_2_);" d="M87.27,79.874c-4.662,0-8.627-1.581-11.894-4.745c-3.268-3.163-4.901-7.076-4.901-11.738 c0-4.661,1.623-8.574,4.87-11.738c3.247-3.163,7.221-4.745,11.925-4.745c4.703,0,8.678,1.583,11.925,4.745 c3.247,3.164,4.87,7.077,4.87,11.738c0,4.662-1.624,8.575-4.87,11.738C95.948,78.293,91.973,79.874,87.27,79.874z M83.493,67.356 c0.978,1.021,2.237,1.53,3.777,1.53c1.54,0,2.799-0.509,3.777-1.53c0.978-1.02,1.467-2.341,1.467-3.965 c0-1.623-0.49-2.944-1.467-3.964c-0.979-1.02-2.238-1.53-3.777-1.53c-1.541,0-2.8,0.51-3.777,1.53 c-0.979,1.021-1.467,2.341-1.467,3.964C82.025,65.015,82.514,66.336,83.493,67.356z"/> <linearGradient id="SVGID_3_" gradientUnits="userSpaceOnUse" x1="24.835" y1="137.8272" x2="615.0869" y2="137.8272"> <stop offset="0" style="stop-color:#6C009A"/> <stop offset="0.0728" style="stop-color:#7506A1"/> <stop offset="0.1939" style="stop-color:#8F15B6"/> <stop offset="0.3483" style="stop-color:#B82ED7"/> <stop offset="0.5069" style="stop-color:#EA4CFE"/> <stop offset="0.9944" style="stop-color:#6C009A"/> </linearGradient> <path style="fill:url(#SVGID_3_);" d="M126.916,63.017c3.205,1.541,4.808,4.038,4.808,7.492c0,2.789-1.239,5.068-3.715,6.837 c-2.477,1.769-5.734,2.653-9.771,2.653c-3.331,0-6.15-0.573-8.46-1.717c-2.311-1.145-4.152-3.091-5.526-5.838l8.679-5.057 c0.999,2.248,2.601,3.372,4.808,3.372c0.582,0,1.124-0.146,1.623-0.438c0.5-0.291,0.75-0.707,0.75-1.249 c0-1.124-0.708-1.686-2.123-1.686h-3.122v-8.366h3.122c0.416,0,0.78-0.166,1.093-0.5c0.312-0.333,0.468-0.708,0.468-1.124 c0-1.165-0.812-1.748-2.435-1.748c-1.915,0-3.206,1.061-3.871,3.184l-8.678-4.62c1.581-2.623,3.454-4.496,5.619-5.619 c2.164-1.124,4.89-1.686,8.179-1.686c3.58,0,6.545,0.896,8.897,2.685c2.351,1.79,3.528,3.996,3.528,6.618 C130.787,59.292,129.497,61.56,126.916,63.017z"/> <linearGradient id="SVGID_4_" gradientUnits="userSpaceOnUse" x1="24.835" y1="137.8272" x2="615.0869" y2="137.8272"> <stop offset="0" style="stop-color:#6C009A"/> <stop offset="0.0728" style="stop-color:#7506A1"/> <stop offset="0.1939" style="stop-color:#8F15B6"/> <stop offset="0.3483" style="stop-color:#B82ED7"/> <stop offset="0.5069" style="stop-color:#EA4CFE"/> <stop offset="0.9944" style="stop-color:#6C009A"/> </linearGradient> <path style="fill:url(#SVGID_4_);" d="M166.062,68.011h4.059v19.355h-10.926V79H144.21v8.366h-10.926V68.011h3.497 c1.498-2.455,2.248-5.931,2.248-10.426v-9.802h27.034V68.011z M148.58,68.011h6.244v-9.989h-4.558 C150.224,61.977,149.662,65.306,148.58,68.011z"/> <linearGradient id="SVGID_5_" gradientUnits="userSpaceOnUse" x1="24.835" y1="137.8272" x2="615.0869" y2="137.8272"> <stop offset="0" style="stop-color:#6C009A"/> <stop offset="0.0728" style="stop-color:#7506A1"/> <stop offset="0.1939" style="stop-color:#8F15B6"/> <stop offset="0.3483" style="stop-color:#B82ED7"/> <stop offset="0.5069" style="stop-color:#EA4CFE"/> <stop offset="0.9944" style="stop-color:#6C009A"/> </linearGradient> <path style="fill:url(#SVGID_5_);" d="M193.908,47.783h11.551V79h-11.551v-2.81c-1.998,2.457-4.787,3.684-8.366,3.684 c-4.205,0-7.639-1.561-10.302-4.683c-2.664-3.122-3.996-7.055-3.996-11.8s1.332-8.678,3.996-11.8 c2.663-3.122,6.097-4.683,10.302-4.683c3.58,0,6.369,1.229,8.366,3.684V47.783z M184.324,67.574 c1.02,1.124,2.362,1.686,4.027,1.686c1.665,0,3.007-0.562,4.027-1.686c1.019-1.124,1.529-2.518,1.529-4.183 c0-1.664-0.51-3.059-1.529-4.183c-1.021-1.124-2.363-1.686-4.027-1.686c-1.665,0-3.007,0.562-4.027,1.686 c-1.021,1.124-1.53,2.519-1.53,4.183C182.794,65.057,183.304,66.451,184.324,67.574z"/> <linearGradient id="SVGID_6_" gradientUnits="userSpaceOnUse" x1="24.835" y1="137.8272" x2="615.0869" y2="137.8272"> <stop offset="0" style="stop-color:#6C009A"/> <stop offset="0.0728" style="stop-color:#7506A1"/> <stop offset="0.1939" style="stop-color:#8F15B6"/> <stop offset="0.3483" style="stop-color:#B82ED7"/> <stop offset="0.5069" style="stop-color:#EA4CFE"/> <stop offset="0.9944" style="stop-color:#6C009A"/> </linearGradient> <path style="fill:url(#SVGID_6_);" d="M229.495,47.783h11.55V79h-11.55V68.886h-7.492V79h-11.55V47.783h11.55v10.114h7.492V47.783 z"/> <linearGradient id="SVGID_7_" gradientUnits="userSpaceOnUse" x1="24.835" y1="137.8272" x2="615.0869" y2="137.8272"> <stop offset="0" style="stop-color:#6C009A"/> <stop offset="0.0728" style="stop-color:#7506A1"/> <stop offset="0.1939" style="stop-color:#8F15B6"/> <stop offset="0.3483" style="stop-color:#B82ED7"/> <stop offset="0.5069" style="stop-color:#EA4CFE"/> <stop offset="0.9944" style="stop-color:#6C009A"/> </linearGradient> <path style="fill:url(#SVGID_7_);" d="M267.955,47.783h9.303V79h-11.238V65.577L255.343,79h-9.303V47.783h11.238v13.423 L267.955,47.783z"/> <linearGradient id="SVGID_8_" gradientUnits="userSpaceOnUse" x1="24.835" y1="137.8272" x2="615.0869" y2="137.8272"> <stop offset="0" style="stop-color:#6C009A"/> <stop offset="0.0728" style="stop-color:#7506A1"/> <stop offset="0.1939" style="stop-color:#8F15B6"/> <stop offset="0.3483" style="stop-color:#B82ED7"/> <stop offset="0.5069" style="stop-color:#EA4CFE"/> <stop offset="0.9944" style="stop-color:#6C009A"/> </linearGradient> <path style="fill:url(#SVGID_8_);" d="M292.428,67.325c0.999,2.082,3.122,3.122,6.368,3.122c1.914,0,3.684-0.665,5.307-1.998 l7.555,6.369c-3.122,3.372-7.534,5.057-13.236,5.057c-5.329,0-9.605-1.55-12.831-4.651c-3.226-3.1-4.838-7.002-4.838-11.707 c0-4.745,1.57-8.699,4.714-11.863c3.142-3.163,7.106-4.745,11.894-4.745c4.745,0,8.647,1.551,11.707,4.651 c3.06,3.102,4.589,7.004,4.589,11.707c0,1.374-0.167,2.727-0.499,4.058H292.428z M292.241,59.895h10.489 c-0.708-2.498-2.394-3.746-5.057-3.746C294.966,56.149,293.156,57.397,292.241,59.895z"/> <linearGradient id="SVGID_9_" gradientUnits="userSpaceOnUse" x1="24.835" y1="137.8272" x2="615.0869" y2="137.8272"> <stop offset="0" style="stop-color:#6C009A"/> <stop offset="0.0728" style="stop-color:#7506A1"/> <stop offset="0.1939" style="stop-color:#8F15B6"/> <stop offset="0.3483" style="stop-color:#B82ED7"/> <stop offset="0.5069" style="stop-color:#EA4CFE"/> <stop offset="0.9944" style="stop-color:#6C009A"/> </linearGradient> <path style="fill:url(#SVGID_9_);" d="M344.873,79.874c-4.787,0-8.763-1.571-11.925-4.714c-3.164-3.142-4.745-7.065-4.745-11.769 c0-4.703,1.581-8.625,4.745-11.769c3.162-3.142,7.138-4.714,11.925-4.714c3.08,0,5.9,0.74,8.46,2.217 c2.56,1.478,4.526,3.465,5.9,5.962l-9.74,5.557c-1.041-1.748-2.581-2.622-4.62-2.622c-1.457,0-2.675,0.51-3.652,1.529 c-0.979,1.021-1.468,2.301-1.468,3.84c0,1.541,0.489,2.82,1.468,3.84c0.978,1.021,2.195,1.53,3.652,1.53 c2.164,0,3.704-0.895,4.62-2.685l9.74,5.619c-1.374,2.539-3.341,4.537-5.9,5.994S347.953,79.874,344.873,79.874z"/> <linearGradient id="SVGID_10_" gradientUnits="userSpaceOnUse" x1="24.835" y1="137.8272" x2="615.0869" y2="137.8272"> <stop offset="0" style="stop-color:#6C009A"/> <stop offset="0.0728" style="stop-color:#7506A1"/> <stop offset="0.1939" style="stop-color:#8F15B6"/> <stop offset="0.3483" style="stop-color:#B82ED7"/> <stop offset="0.5069" style="stop-color:#EA4CFE"/> <stop offset="0.9944" style="stop-color:#6C009A"/> </linearGradient> <path style="fill:url(#SVGID_10_);" d="M382.709,47.783h11.55V79h-11.55v-2.81c-1.998,2.457-4.787,3.684-8.366,3.684 c-4.205,0-7.639-1.561-10.302-4.683c-2.665-3.122-3.996-7.055-3.996-11.8s1.331-8.678,3.996-11.8 c2.663-3.122,6.097-4.683,10.302-4.683c3.579,0,6.368,1.229,8.366,3.684V47.783z M373.125,67.574 c1.02,1.124,2.361,1.686,4.027,1.686c1.664,0,3.006-0.562,4.026-1.686c1.02-1.124,1.53-2.518,1.53-4.183 c0-1.664-0.511-3.059-1.53-4.183c-1.021-1.124-2.362-1.686-4.026-1.686c-1.666,0-3.008,0.562-4.027,1.686 c-1.021,1.124-1.53,2.519-1.53,4.183C371.595,65.057,372.104,66.451,373.125,67.574z"/> <linearGradient id="SVGID_11_" gradientUnits="userSpaceOnUse" x1="24.835" y1="137.8272" x2="615.0869" y2="137.8272"> <stop offset="0" style="stop-color:#6C009A"/> <stop offset="0.0728" style="stop-color:#7506A1"/> <stop offset="0.1939" style="stop-color:#8F15B6"/> <stop offset="0.3483" style="stop-color:#B82ED7"/> <stop offset="0.5069" style="stop-color:#EA4CFE"/> <stop offset="0.9944" style="stop-color:#6C009A"/> </linearGradient> <path style="fill:url(#SVGID_11_);" d="M421.168,47.783h9.303V79h-11.238V65.577L408.556,79h-9.303V47.783h11.238v13.423 L421.168,47.783z M403.936,44.723v-9.365h21.853v9.365H403.936z"/> <linearGradient id="SVGID_12_" gradientUnits="userSpaceOnUse" x1="24.835" y1="137.8272" x2="615.0869" y2="137.8272"> <stop offset="0" style="stop-color:#6C009A"/> <stop offset="0.0728" style="stop-color:#7506A1"/> <stop offset="0.1939" style="stop-color:#8F15B6"/> <stop offset="0.3483" style="stop-color:#B82ED7"/> <stop offset="0.5069" style="stop-color:#EA4CFE"/> <stop offset="0.9944" style="stop-color:#6C009A"/> </linearGradient> <path style="fill:url(#SVGID_12_);" d="M462,47.783v10.988h-8.491V79h-11.613V58.771h-8.615V47.783H462z"/> <linearGradient id="SVGID_13_" gradientUnits="userSpaceOnUse" x1="24.835" y1="137.8272" x2="615.0869" y2="137.8272"> <stop offset="0" style="stop-color:#6C009A"/> <stop offset="0.0728" style="stop-color:#7506A1"/> <stop offset="0.1939" style="stop-color:#8F15B6"/> <stop offset="0.3483" style="stop-color:#B82ED7"/> <stop offset="0.5069" style="stop-color:#EA4CFE"/> <stop offset="0.9944" style="stop-color:#6C009A"/> </linearGradient> <path style="fill:url(#SVGID_13_);" d="M479.605,79.874c-4.662,0-8.627-1.581-11.894-4.745c-3.269-3.163-4.901-7.076-4.901-11.738 c0-4.661,1.623-8.574,4.87-11.738c3.246-3.163,7.221-4.745,11.925-4.745c4.703,0,8.679,1.583,11.925,4.745 c3.247,3.164,4.87,7.077,4.87,11.738c0,4.662-1.623,8.575-4.87,11.738C488.284,78.293,484.309,79.874,479.605,79.874z M475.828,67.356c0.978,1.021,2.237,1.53,3.777,1.53c1.539,0,2.799-0.509,3.777-1.53c0.978-1.02,1.467-2.341,1.467-3.965 c0-1.623-0.489-2.944-1.467-3.964c-0.979-1.02-2.238-1.53-3.777-1.53c-1.54,0-2.8,0.51-3.777,1.53 c-0.979,1.021-1.468,2.341-1.468,3.964C474.36,65.015,474.85,66.336,475.828,67.356z"/> <linearGradient id="SVGID_14_" gradientUnits="userSpaceOnUse" x1="24.835" y1="137.8272" x2="615.0869" y2="137.8272"> <stop offset="0" style="stop-color:#6C009A"/> <stop offset="0.0728" style="stop-color:#7506A1"/> <stop offset="0.1939" style="stop-color:#8F15B6"/> <stop offset="0.3483" style="stop-color:#B82ED7"/> <stop offset="0.5069" style="stop-color:#EA4CFE"/> <stop offset="0.9944" style="stop-color:#6C009A"/> </linearGradient> <path style="fill:url(#SVGID_14_);" d="M524.809,63.079c3.038,1.374,4.558,3.643,4.558,6.805c0,2.831-0.947,5.058-2.841,6.681 c-1.895,1.624-4.693,2.435-8.397,2.435h-18.106V47.783h17.17c3.704,0,6.503,0.802,8.397,2.403 c1.894,1.603,2.841,3.819,2.841,6.649C528.43,59.583,527.222,61.665,524.809,63.079z M515.068,55.836h-3.809v3.871h3.809 c1.415,0,2.123-0.625,2.123-1.873C517.191,56.503,516.483,55.836,515.068,55.836z M515.631,70.946 c1.414,0,2.122-0.665,2.122-1.998c0-1.249-0.708-1.873-2.122-1.873h-4.371v3.871H515.631z"/> <linearGradient id="SVGID_15_" gradientUnits="userSpaceOnUse" x1="24.835" y1="137.8272" x2="615.0869" y2="137.8272"> <stop offset="0" style="stop-color:#6C009A"/> <stop offset="0.0728" style="stop-color:#7506A1"/> <stop offset="0.1939" style="stop-color:#8F15B6"/> <stop offset="0.3483" style="stop-color:#B82ED7"/> <stop offset="0.5069" style="stop-color:#EA4CFE"/> <stop offset="0.9944" style="stop-color:#6C009A"/> </linearGradient> <path style="fill:url(#SVGID_15_);" d="M57.613,142.934h4.059v19.354H50.746v-8.366H35.761v8.366H24.835v-19.354h3.497 c1.498-2.456,2.248-5.932,2.248-10.427v-9.802h27.034V142.934z M40.131,142.934h6.244v-9.99h-4.558 C41.775,136.898,41.213,140.229,40.131,142.934z"/> <linearGradient id="SVGID_16_" gradientUnits="userSpaceOnUse" x1="24.835" y1="137.8272" x2="615.0869" y2="137.8272"> <stop offset="0" style="stop-color:#6C009A"/> <stop offset="0.0728" style="stop-color:#7506A1"/> <stop offset="0.1939" style="stop-color:#8F15B6"/> <stop offset="0.3483" style="stop-color:#B82ED7"/> <stop offset="0.5069" style="stop-color:#EA4CFE"/> <stop offset="0.9944" style="stop-color:#6C009A"/> </linearGradient> <path style="fill:url(#SVGID_16_);" d="M96.759,122.705v31.217h-11.55v-20.229h-5.62v7.306c0,5.078-1.27,8.647-3.808,10.707 c-2.54,2.061-6.618,2.799-12.237,2.217v-10.614c1.539,0.417,2.674,0.24,3.402-0.53c0.728-0.77,1.093-2.195,1.093-4.277v-15.795 H96.759z"/> <linearGradient id="SVGID_17_" gradientUnits="userSpaceOnUse" x1="24.835" y1="137.8272" x2="615.0869" y2="137.8272"> <stop offset="0" style="stop-color:#6C009A"/> <stop offset="0.0728" style="stop-color:#7506A1"/> <stop offset="0.1939" style="stop-color:#8F15B6"/> <stop offset="0.3483" style="stop-color:#B82ED7"/> <stop offset="0.5069" style="stop-color:#EA4CFE"/> <stop offset="0.9944" style="stop-color:#6C009A"/> </linearGradient> <path style="fill:url(#SVGID_17_);" d="M130.536,122.705v31.217h-11.55v-8.741h-0.812l-5.495,8.741H99.568l7.305-10.614 c-3.372-2.122-5.057-5.14-5.057-9.053c0-3.579,1.092-6.399,3.278-8.46c2.185-2.061,5.171-3.09,8.959-3.09H130.536z M115.489,132.07c-1.623,0-2.435,0.729-2.435,2.185c0,1.457,0.812,2.186,2.435,2.186h3.497v-4.371H115.489z"/> <linearGradient id="SVGID_18_" gradientUnits="userSpaceOnUse" x1="24.835" y1="137.8272" x2="615.0869" y2="137.8272"> <stop offset="0" style="stop-color:#6C009A"/> <stop offset="0.0728" style="stop-color:#7506A1"/> <stop offset="0.1939" style="stop-color:#8F15B6"/> <stop offset="0.3483" style="stop-color:#B82ED7"/> <stop offset="0.5069" style="stop-color:#EA4CFE"/> <stop offset="0.9944" style="stop-color:#6C009A"/> </linearGradient> <path style="fill:url(#SVGID_18_);" d="M172.803,138.001c3.038,1.373,4.558,3.643,4.558,6.806c0,2.831-0.947,5.057-2.841,6.681 c-1.895,1.623-4.693,2.435-8.397,2.435h-18.106v-31.217h17.169c3.704,0,6.503,0.802,8.397,2.403 c1.894,1.603,2.841,3.819,2.841,6.649C176.424,134.505,175.217,136.586,172.803,138.001z M163.063,130.758h-3.809v3.872h3.809 c1.415,0,2.123-0.625,2.123-1.874C165.186,131.425,164.478,130.758,163.063,130.758z M163.625,145.868 c1.415,0,2.123-0.666,2.123-1.998c0-1.249-0.708-1.873-2.123-1.873h-4.37v3.871H163.625z"/> <linearGradient id="SVGID_19_" gradientUnits="userSpaceOnUse" x1="24.835" y1="137.8272" x2="615.0869" y2="137.8272"> <stop offset="0" style="stop-color:#6C009A"/> <stop offset="0.0728" style="stop-color:#7506A1"/> <stop offset="0.1939" style="stop-color:#8F15B6"/> <stop offset="0.3483" style="stop-color:#B82ED7"/> <stop offset="0.5069" style="stop-color:#EA4CFE"/> <stop offset="0.9944" style="stop-color:#6C009A"/> </linearGradient> <path style="fill:url(#SVGID_19_);" d="M202.084,122.705h11.551v31.217h-11.551v-2.81c-1.998,2.456-4.787,3.684-8.366,3.684 c-4.205,0-7.639-1.561-10.302-4.683c-2.664-3.122-3.996-7.055-3.996-11.8c0-4.746,1.332-8.679,3.996-11.801 c2.663-3.122,6.097-4.683,10.302-4.683c3.58,0,6.369,1.229,8.366,3.684V122.705z M192.501,142.496 c1.02,1.124,2.362,1.686,4.027,1.686c1.665,0,3.007-0.562,4.027-1.686c1.019-1.124,1.529-2.518,1.529-4.183 s-0.51-3.06-1.529-4.184c-1.021-1.124-2.363-1.686-4.027-1.686c-1.665,0-3.007,0.562-4.027,1.686 c-1.021,1.124-1.53,2.519-1.53,4.184S191.48,141.372,192.501,142.496z"/> <linearGradient id="SVGID_20_" gradientUnits="userSpaceOnUse" x1="24.835" y1="137.8272" x2="615.0869" y2="137.8272"> <stop offset="0" style="stop-color:#6C009A"/> <stop offset="0.0728" style="stop-color:#7506A1"/> <stop offset="0.1939" style="stop-color:#8F15B6"/> <stop offset="0.3483" style="stop-color:#B82ED7"/> <stop offset="0.5069" style="stop-color:#EA4CFE"/> <stop offset="0.9944" style="stop-color:#6C009A"/> </linearGradient> <path style="fill:url(#SVGID_20_);" d="M253.905,122.705h11.55v31.217h-46.826v-31.217h11.55v20.229h6.244v-20.229h11.238v20.229 h6.244V122.705z"/> <linearGradient id="SVGID_21_" gradientUnits="userSpaceOnUse" x1="24.835" y1="137.8272" x2="615.0869" y2="137.8272"> <stop offset="0" style="stop-color:#6C009A"/> <stop offset="0.0728" style="stop-color:#7506A1"/> <stop offset="0.1939" style="stop-color:#8F15B6"/> <stop offset="0.3483" style="stop-color:#B82ED7"/> <stop offset="0.5069" style="stop-color:#EA4CFE"/> <stop offset="0.9944" style="stop-color:#6C009A"/> </linearGradient> <path style="fill:url(#SVGID_21_);" d="M280.626,142.246c0.999,2.082,3.122,3.122,6.368,3.122c1.914,0,3.684-0.665,5.307-1.998 l7.555,6.368c-3.122,3.372-7.534,5.058-13.236,5.058c-5.329,0-9.605-1.55-12.831-4.651c-3.226-3.101-4.838-7.003-4.838-11.707 c0-4.745,1.57-8.698,4.714-11.862c3.142-3.163,7.106-4.745,11.894-4.745c4.745,0,8.647,1.551,11.707,4.651 c3.06,3.102,4.589,7.004,4.589,11.707c0,1.373-0.167,2.727-0.499,4.058H280.626z M280.439,134.816h10.489 c-0.708-2.497-2.394-3.746-5.057-3.746C283.165,131.071,281.354,132.319,280.439,134.816z"/> <linearGradient id="SVGID_22_" gradientUnits="userSpaceOnUse" x1="24.835" y1="137.8272" x2="615.0869" y2="137.8272"> <stop offset="0" style="stop-color:#6C009A"/> <stop offset="0.0728" style="stop-color:#7506A1"/> <stop offset="0.1939" style="stop-color:#8F15B6"/> <stop offset="0.3483" style="stop-color:#B82ED7"/> <stop offset="0.5069" style="stop-color:#EA4CFE"/> <stop offset="0.9944" style="stop-color:#6C009A"/> </linearGradient> <path style="fill:url(#SVGID_22_);" d="M328.39,122.705v10.988h-11.551v20.229h-11.551v-31.217H328.39z"/> <linearGradient id="SVGID_23_" gradientUnits="userSpaceOnUse" x1="24.835" y1="137.8272" x2="615.0869" y2="137.8272"> <stop offset="0" style="stop-color:#6C009A"/> <stop offset="0.0728" style="stop-color:#7506A1"/> <stop offset="0.1939" style="stop-color:#8F15B6"/> <stop offset="0.3483" style="stop-color:#B82ED7"/> <stop offset="0.5069" style="stop-color:#EA4CFE"/> <stop offset="0.9944" style="stop-color:#6C009A"/> </linearGradient> <path style="fill:url(#SVGID_23_);" d="M346.309,154.796c-4.662,0-8.627-1.581-11.894-4.745 c-3.269-3.163-4.901-7.075-4.901-11.737s1.623-8.574,4.87-11.738c3.246-3.163,7.221-4.745,11.925-4.745 c4.703,0,8.679,1.583,11.925,4.745c3.247,3.164,4.87,7.076,4.87,11.738s-1.623,8.574-4.87,11.737 C354.987,153.215,351.012,154.796,346.309,154.796z M342.531,142.277c0.978,1.021,2.237,1.53,3.777,1.53 c1.539,0,2.799-0.51,3.777-1.53c0.978-1.02,1.467-2.341,1.467-3.964c0-1.624-0.489-2.944-1.467-3.965 c-0.979-1.02-2.238-1.53-3.777-1.53c-1.54,0-2.8,0.51-3.777,1.53c-0.979,1.021-1.468,2.341-1.468,3.965 C341.063,139.937,341.553,141.258,342.531,142.277z"/> <linearGradient id="SVGID_24_" gradientUnits="userSpaceOnUse" x1="24.835" y1="137.8272" x2="615.0869" y2="137.8272"> <stop offset="0" style="stop-color:#6C009A"/> <stop offset="0.0728" style="stop-color:#7506A1"/> <stop offset="0.1939" style="stop-color:#8F15B6"/> <stop offset="0.3483" style="stop-color:#B82ED7"/> <stop offset="0.5069" style="stop-color:#EA4CFE"/> <stop offset="0.9944" style="stop-color:#6C009A"/> </linearGradient> <path style="fill:url(#SVGID_24_);" d="M395.443,154.921c-5.328,0-9.574-1.581-12.736-4.745c-3.164-3.163-4.745-7.45-4.745-12.861 c0-5.203,0.905-9.417,2.716-12.644c1.811-3.225,4.609-5.753,8.397-7.586c4.203-2.039,7.055-3.579,8.554-4.62 c1.498-1.04,2.58-2.331,3.246-3.871l9.303,5.307c-0.666,2.248-1.801,4.007-3.402,5.276c-1.603,1.27-4.069,2.591-7.398,3.965 c-2.956,1.208-5.037,2.196-6.243,2.965c-1.208,0.771-2.103,1.739-2.686,2.903c1.998-1.623,4.517-2.435,7.555-2.435 c3.746,0,6.982,1.26,9.709,3.777c2.726,2.519,4.09,5.838,4.09,9.959c0,4.245-1.479,7.741-4.434,10.488 C404.412,153.547,400.438,154.921,395.443,154.921z M395.193,145.243c1.457,0,2.663-0.446,3.621-1.342 c0.957-0.895,1.437-2.029,1.437-3.403c0-1.414-0.5-2.58-1.498-3.496c-0.999-0.915-2.228-1.374-3.685-1.374 c-1.373,0-2.57,0.428-3.59,1.28c-1.021,0.854-1.529,1.988-1.529,3.403c0,1.457,0.499,2.644,1.498,3.559 C392.446,144.786,393.695,145.243,395.193,145.243z"/> <linearGradient id="SVGID_25_" gradientUnits="userSpaceOnUse" x1="24.835" y1="137.8272" x2="615.0869" y2="137.8272"> <stop offset="0" style="stop-color:#6C009A"/> <stop offset="0.0728" style="stop-color:#7506A1"/> <stop offset="0.1939" style="stop-color:#8F15B6"/> <stop offset="0.3483" style="stop-color:#B82ED7"/> <stop offset="0.5069" style="stop-color:#EA4CFE"/> <stop offset="0.9944" style="stop-color:#6C009A"/> </linearGradient> <path style="fill:url(#SVGID_25_);" d="M436.838,122.705h9.303v31.217h-11.238v-13.424l-10.677,13.424h-9.303v-31.217h11.238 v13.423L436.838,122.705z"/> <linearGradient id="SVGID_26_" gradientUnits="userSpaceOnUse" x1="24.835" y1="137.8272" x2="615.0869" y2="137.8272"> <stop offset="0" style="stop-color:#6C009A"/> <stop offset="0.0728" style="stop-color:#7506A1"/> <stop offset="0.1939" style="stop-color:#8F15B6"/> <stop offset="0.3483" style="stop-color:#B82ED7"/> <stop offset="0.5069" style="stop-color:#EA4CFE"/> <stop offset="0.9944" style="stop-color:#6C009A"/> </linearGradient> <path style="fill:url(#SVGID_26_);" d="M471.613,137.938c3.204,1.54,4.807,4.038,4.807,7.492c0,2.789-1.238,5.068-3.715,6.837 s-5.734,2.653-9.771,2.653c-3.331,0-6.15-0.572-8.46-1.717c-2.311-1.145-4.152-3.091-5.525-5.838l8.678-5.058 c0.999,2.248,2.602,3.372,4.808,3.372c0.583,0,1.124-0.146,1.624-0.438c0.499-0.29,0.749-0.707,0.749-1.248 c0-1.124-0.708-1.687-2.123-1.687h-3.122v-8.366h3.122c0.416,0,0.78-0.166,1.093-0.499s0.468-0.708,0.468-1.124 c0-1.165-0.812-1.748-2.435-1.748c-1.915,0-3.206,1.061-3.871,3.184l-8.679-4.62c1.582-2.623,3.455-4.496,5.619-5.619 c2.164-1.124,4.891-1.686,8.18-1.686c3.579,0,6.545,0.896,8.896,2.685c2.352,1.79,3.527,3.996,3.527,6.618 C475.483,134.214,474.193,136.482,471.613,137.938z"/> <linearGradient id="SVGID_27_" gradientUnits="userSpaceOnUse" x1="24.835" y1="137.8272" x2="615.0869" y2="137.8272"> <stop offset="0" style="stop-color:#6C009A"/> <stop offset="0.0728" style="stop-color:#7506A1"/> <stop offset="0.1939" style="stop-color:#8F15B6"/> <stop offset="0.3483" style="stop-color:#B82ED7"/> <stop offset="0.5069" style="stop-color:#EA4CFE"/> <stop offset="0.9944" style="stop-color:#6C009A"/> </linearGradient> <path style="fill:url(#SVGID_27_);" d="M498.896,122.705h11.551v31.217h-11.551v-10.114h-7.492v10.114h-11.551v-31.217h11.551 v10.114h7.492V122.705z"/> <linearGradient id="SVGID_28_" gradientUnits="userSpaceOnUse" x1="24.835" y1="137.8272" x2="615.0869" y2="137.8272"> <stop offset="0" style="stop-color:#6C009A"/> <stop offset="0.0728" style="stop-color:#7506A1"/> <stop offset="0.1939" style="stop-color:#8F15B6"/> <stop offset="0.3483" style="stop-color:#B82ED7"/> <stop offset="0.5069" style="stop-color:#EA4CFE"/> <stop offset="0.9944" style="stop-color:#6C009A"/> </linearGradient> <path style="fill:url(#SVGID_28_);" d="M525.618,142.246c0.999,2.082,3.122,3.122,6.369,3.122c1.914,0,3.684-0.665,5.307-1.998 l7.555,6.368c-3.122,3.372-7.534,5.058-13.236,5.058c-5.328,0-9.605-1.55-12.83-4.651c-3.227-3.101-4.839-7.003-4.839-11.707 c0-4.745,1.57-8.698,4.714-11.862c3.142-3.163,7.106-4.745,11.894-4.745c4.745,0,8.647,1.551,11.707,4.651 c3.059,3.102,4.589,7.004,4.589,11.707c0,1.373-0.167,2.727-0.5,4.058H525.618z M525.432,134.816h10.488 c-0.708-2.497-2.394-3.746-5.057-3.746C528.157,131.071,526.347,132.319,525.432,134.816z"/> <linearGradient id="SVGID_29_" gradientUnits="userSpaceOnUse" x1="24.835" y1="137.8272" x2="615.0869" y2="137.8272"> <stop offset="0" style="stop-color:#6C009A"/> <stop offset="0.0728" style="stop-color:#7506A1"/> <stop offset="0.1939" style="stop-color:#8F15B6"/> <stop offset="0.3483" style="stop-color:#B82ED7"/> <stop offset="0.5069" style="stop-color:#EA4CFE"/> <stop offset="0.9944" style="stop-color:#6C009A"/> </linearGradient> <path style="fill:url(#SVGID_29_);" d="M565.701,154.796c-4.787,0-8.763-1.57-11.925-4.714c-3.164-3.143-4.745-7.064-4.745-11.769 c0-4.703,1.581-8.626,4.745-11.77c3.162-3.142,7.138-4.714,11.925-4.714c3.08,0,5.9,0.74,8.46,2.217 c2.56,1.478,4.526,3.465,5.9,5.962l-9.74,5.557c-1.041-1.749-2.581-2.623-4.62-2.623c-1.457,0-2.675,0.51-3.652,1.53 c-0.979,1.021-1.468,2.3-1.468,3.84s0.489,2.82,1.468,3.84c0.978,1.02,2.195,1.529,3.652,1.529c2.164,0,3.704-0.895,4.62-2.685 l9.74,5.619c-1.374,2.539-3.341,4.537-5.9,5.993C571.602,154.067,568.781,154.796,565.701,154.796z"/> <linearGradient id="SVGID_30_" gradientUnits="userSpaceOnUse" x1="24.835" y1="137.8272" x2="615.0869" y2="137.8272"> <stop offset="0" style="stop-color:#6C009A"/> <stop offset="0.0728" style="stop-color:#7506A1"/> <stop offset="0.1939" style="stop-color:#8F15B6"/> <stop offset="0.3483" style="stop-color:#B82ED7"/> <stop offset="0.5069" style="stop-color:#EA4CFE"/> <stop offset="0.9944" style="stop-color:#6C009A"/> </linearGradient> <path style="fill:url(#SVGID_30_);" d="M603.537,122.705h11.55v31.217h-11.55v-2.81c-1.998,2.456-4.787,3.684-8.366,3.684 c-4.205,0-7.639-1.561-10.302-4.683c-2.665-3.122-3.996-7.055-3.996-11.8c0-4.746,1.331-8.679,3.996-11.801 c2.663-3.122,6.097-4.683,10.302-4.683c3.579,0,6.368,1.229,8.366,3.684V122.705z M593.953,142.496 c1.02,1.124,2.361,1.686,4.027,1.686c1.664,0,3.006-0.562,4.026-1.686c1.02-1.124,1.53-2.518,1.53-4.183s-0.511-3.06-1.53-4.184 c-1.021-1.124-2.362-1.686-4.026-1.686c-1.666,0-3.008,0.562-4.027,1.686c-1.021,1.124-1.53,2.519-1.53,4.184 S592.933,141.372,593.953,142.496z"/> <linearGradient id="SVGID_31_" gradientUnits="userSpaceOnUse" x1="24.835" y1="137.8272" x2="615.0869" y2="137.8272"> <stop offset="0" style="stop-color:#6C009A"/> <stop offset="0.0728" style="stop-color:#7506A1"/> <stop offset="0.1939" style="stop-color:#8F15B6"/> <stop offset="0.3483" style="stop-color:#B82ED7"/> <stop offset="0.5069" style="stop-color:#EA4CFE"/> <stop offset="0.9944" style="stop-color:#6C009A"/> </linearGradient> <path style="fill:url(#SVGID_31_);" d="M46.375,197.626h11.55v31.218h-11.55v-10.114h-7.492v10.114h-11.55v-31.218h11.55v10.114 h7.492V197.626z"/> <linearGradient id="SVGID_32_" gradientUnits="userSpaceOnUse" x1="24.835" y1="137.8272" x2="615.0869" y2="137.8272"> <stop offset="0" style="stop-color:#6C009A"/> <stop offset="0.0728" style="stop-color:#7506A1"/> <stop offset="0.1939" style="stop-color:#8F15B6"/> <stop offset="0.3483" style="stop-color:#B82ED7"/> <stop offset="0.5069" style="stop-color:#EA4CFE"/> <stop offset="0.9944" style="stop-color:#6C009A"/> </linearGradient> <path style="fill:url(#SVGID_32_);" d="M84.085,197.626h11.551v31.218H84.085v-2.81c-1.998,2.456-4.787,3.684-8.366,3.684 c-4.205,0-7.639-1.561-10.302-4.683c-2.664-3.122-3.996-7.055-3.996-11.8s1.332-8.679,3.996-11.801 c2.663-3.121,6.097-4.683,10.302-4.683c3.58,0,6.369,1.229,8.366,3.684V197.626z M74.502,217.418 c1.02,1.124,2.362,1.686,4.027,1.686c1.665,0,3.007-0.562,4.027-1.686c1.019-1.124,1.529-2.518,1.529-4.183 s-0.51-3.06-1.529-4.184c-1.021-1.124-2.363-1.686-4.027-1.686c-1.665,0-3.007,0.562-4.027,1.686 c-1.021,1.124-1.53,2.519-1.53,4.184S73.481,216.294,74.502,217.418z"/> <linearGradient id="SVGID_33_" gradientUnits="userSpaceOnUse" x1="24.835" y1="137.8272" x2="615.0869" y2="137.8272"> <stop offset="0" style="stop-color:#6C009A"/> <stop offset="0.0728" style="stop-color:#7506A1"/> <stop offset="0.1939" style="stop-color:#8F15B6"/> <stop offset="0.3483" style="stop-color:#B82ED7"/> <stop offset="0.5069" style="stop-color:#EA4CFE"/> <stop offset="0.9944" style="stop-color:#6C009A"/> </linearGradient> <path style="fill:url(#SVGID_33_);" d="M144.958,228.844h-12.799l-7.492-12.487v12.487h-11.55v-31.218h11.55v12.112l6.556-12.112 h13.111l-9.49,15.609L144.958,228.844z"/> <linearGradient id="SVGID_34_" gradientUnits="userSpaceOnUse" x1="24.835" y1="137.8272" x2="615.0869" y2="137.8272"> <stop offset="0" style="stop-color:#6C009A"/> <stop offset="0.0728" style="stop-color:#7506A1"/> <stop offset="0.1939" style="stop-color:#8F15B6"/> <stop offset="0.3483" style="stop-color:#B82ED7"/> <stop offset="0.5069" style="stop-color:#EA4CFE"/> <stop offset="0.9944" style="stop-color:#6C009A"/> </linearGradient> <path style="fill:url(#SVGID_34_);" d="M160.692,229.718c-4.662,0-8.627-1.581-11.894-4.745 c-3.268-3.163-4.901-7.075-4.901-11.737c0-4.661,1.623-8.574,4.87-11.738c3.247-3.162,7.221-4.745,11.925-4.745 c4.703,0,8.678,1.583,11.925,4.745c3.247,3.164,4.87,7.077,4.87,11.738c0,4.662-1.624,8.574-4.87,11.737 C169.371,228.137,165.396,229.718,160.692,229.718z M156.915,217.199c0.978,1.021,2.237,1.53,3.777,1.53 c1.54,0,2.799-0.51,3.777-1.53c0.978-1.02,1.467-2.341,1.467-3.964c0-1.624-0.49-2.944-1.467-3.965 c-0.979-1.02-2.238-1.53-3.777-1.53c-1.541,0-2.8,0.511-3.777,1.53c-0.979,1.021-1.467,2.341-1.467,3.965 C155.448,214.858,155.937,216.18,156.915,217.199z"/> <linearGradient id="SVGID_35_" gradientUnits="userSpaceOnUse" x1="24.835" y1="137.8272" x2="615.0869" y2="137.8272"> <stop offset="0" style="stop-color:#6C009A"/> <stop offset="0.0728" style="stop-color:#7506A1"/> <stop offset="0.1939" style="stop-color:#8F15B6"/> <stop offset="0.3483" style="stop-color:#B82ED7"/> <stop offset="0.5069" style="stop-color:#EA4CFE"/> <stop offset="0.9944" style="stop-color:#6C009A"/> </linearGradient> <path style="fill:url(#SVGID_35_);" d="M200.15,197.626h11.55v31.218h-11.55v-10.114h-7.492v10.114h-11.55v-31.218h11.55v10.114 h7.492V197.626z"/> <linearGradient id="SVGID_36_" gradientUnits="userSpaceOnUse" x1="24.835" y1="137.8272" x2="615.0869" y2="137.8272"> <stop offset="0" style="stop-color:#6C009A"/> <stop offset="0.0728" style="stop-color:#7506A1"/> <stop offset="0.1939" style="stop-color:#8F15B6"/> <stop offset="0.3483" style="stop-color:#B82ED7"/> <stop offset="0.5069" style="stop-color:#EA4CFE"/> <stop offset="0.9944" style="stop-color:#6C009A"/> </linearGradient> <path style="fill:url(#SVGID_36_);" d="M231.867,229.718c-4.787,0-8.762-1.57-11.925-4.714c-3.164-3.143-4.745-7.064-4.745-11.769 c0-4.703,1.581-8.626,4.745-11.77c3.163-3.142,7.138-4.714,11.925-4.714c3.08,0,5.9,0.739,8.46,2.217 c2.56,1.478,4.526,3.465,5.9,5.962l-9.74,5.558c-1.041-1.749-2.581-2.623-4.62-2.623c-1.458,0-2.675,0.511-3.652,1.53 c-0.979,1.021-1.467,2.3-1.467,3.84s0.489,2.82,1.467,3.84c0.978,1.02,2.195,1.529,3.652,1.529c2.164,0,3.704-0.895,4.62-2.685 l9.74,5.619c-1.374,2.539-3.34,4.537-5.9,5.993C237.768,228.989,234.947,229.718,231.867,229.718z"/> <linearGradient id="SVGID_37_" gradientUnits="userSpaceOnUse" x1="24.835" y1="137.8272" x2="615.0869" y2="137.8272"> <stop offset="0" style="stop-color:#6C009A"/> <stop offset="0.0728" style="stop-color:#7506A1"/> <stop offset="0.1939" style="stop-color:#8F15B6"/> <stop offset="0.3483" style="stop-color:#B82ED7"/> <stop offset="0.5069" style="stop-color:#EA4CFE"/> <stop offset="0.9944" style="stop-color:#6C009A"/> </linearGradient> <path style="fill:url(#SVGID_37_);" d="M275.883,197.626v10.989h-8.491v20.229h-11.613v-20.229h-8.616v-10.989H275.883z"/> <linearGradient id="SVGID_38_" gradientUnits="userSpaceOnUse" x1="24.835" y1="137.8272" x2="615.0869" y2="137.8272"> <stop offset="0" style="stop-color:#6C009A"/> <stop offset="0.0728" style="stop-color:#7506A1"/> <stop offset="0.1939" style="stop-color:#8F15B6"/> <stop offset="0.3483" style="stop-color:#B82ED7"/> <stop offset="0.5069" style="stop-color:#EA4CFE"/> <stop offset="0.9944" style="stop-color:#6C009A"/> </linearGradient> <path style="fill:url(#SVGID_38_);" d="M298.609,196.752c4.204,0,7.638,1.562,10.302,4.683c2.664,3.122,3.996,7.056,3.996,11.801 s-1.333,8.678-3.996,11.8c-2.664,3.122-6.098,4.683-10.302,4.683c-3.58,0-6.368-1.228-8.366-3.684v15.297h-11.55v-43.705h11.55 v2.81C292.241,197.98,295.029,196.752,298.609,196.752z M291.772,217.418c1.02,1.124,2.362,1.686,4.027,1.686 c1.665,0,3.007-0.562,4.027-1.686c1.019-1.124,1.529-2.518,1.529-4.183s-0.51-3.06-1.529-4.184 c-1.021-1.124-2.363-1.686-4.027-1.686c-1.665,0-3.007,0.562-4.027,1.686c-1.021,1.124-1.53,2.519-1.53,4.184 S290.752,216.294,291.772,217.418z"/> <linearGradient id="SVGID_39_" gradientUnits="userSpaceOnUse" x1="24.835" y1="137.8272" x2="615.0869" y2="137.8272"> <stop offset="0" style="stop-color:#6C009A"/> <stop offset="0.0728" style="stop-color:#7506A1"/> <stop offset="0.1939" style="stop-color:#8F15B6"/> <stop offset="0.3483" style="stop-color:#B82ED7"/> <stop offset="0.5069" style="stop-color:#EA4CFE"/> <stop offset="0.9944" style="stop-color:#6C009A"/> </linearGradient> <path style="fill:url(#SVGID_39_);" d="M335.259,197.626h13.111l-10.365,30.281c-1.623,4.786-4.193,8.272-7.711,10.458 s-7.709,3.173-12.58,2.966v-10.927c2.123,0,3.746-0.155,4.871-0.468c1.123-0.313,2.018-0.885,2.684-1.717l-12.487-30.594h13.112 l5.557,16.67L335.259,197.626z"/> <linearGradient id="SVGID_40_" gradientUnits="userSpaceOnUse" x1="24.835" y1="137.8272" x2="615.0869" y2="137.8272"> <stop offset="0" style="stop-color:#6C009A"/> <stop offset="0.0728" style="stop-color:#7506A1"/> <stop offset="0.1939" style="stop-color:#8F15B6"/> <stop offset="0.3483" style="stop-color:#B82ED7"/> <stop offset="0.5069" style="stop-color:#EA4CFE"/> <stop offset="0.9944" style="stop-color:#6C009A"/> </linearGradient> <path style="fill:url(#SVGID_40_);" d="M382.708,228.844h-12.799l-7.492-12.487v12.487h-11.551v-31.218h11.551v12.112 l6.556-12.112h13.111l-9.49,15.609L382.708,228.844z"/> <linearGradient id="SVGID_41_" gradientUnits="userSpaceOnUse" x1="24.835" y1="137.8272" x2="615.0869" y2="137.8272"> <stop offset="0" style="stop-color:#6C009A"/> <stop offset="0.0728" style="stop-color:#7506A1"/> <stop offset="0.1939" style="stop-color:#8F15B6"/> <stop offset="0.3483" style="stop-color:#B82ED7"/> <stop offset="0.5069" style="stop-color:#EA4CFE"/> <stop offset="0.9944" style="stop-color:#6C009A"/> </linearGradient> <path style="fill:url(#SVGID_41_);" d="M411.74,197.626v10.989h-8.491v20.229h-11.613v-20.229h-8.615v-10.989H411.74z"/> <linearGradient id="SVGID_42_" gradientUnits="userSpaceOnUse" x1="24.835" y1="137.8272" x2="615.0869" y2="137.8272"> <stop offset="0" style="stop-color:#6C009A"/> <stop offset="0.0728" style="stop-color:#7506A1"/> <stop offset="0.1939" style="stop-color:#8F15B6"/> <stop offset="0.3483" style="stop-color:#B82ED7"/> <stop offset="0.5069" style="stop-color:#EA4CFE"/> <stop offset="0.9944" style="stop-color:#6C009A"/> </linearGradient> <path style="fill:url(#SVGID_42_);" d="M429.346,229.718c-4.662,0-8.627-1.581-11.894-4.745 c-3.269-3.163-4.901-7.075-4.901-11.737c0-4.661,1.623-8.574,4.87-11.738c3.246-3.162,7.221-4.745,11.925-4.745 c4.703,0,8.679,1.583,11.925,4.745c3.247,3.164,4.87,7.077,4.87,11.738c0,4.662-1.623,8.574-4.87,11.737 C438.024,228.137,434.049,229.718,429.346,229.718z M425.568,217.199c0.978,1.021,2.237,1.53,3.777,1.53 c1.539,0,2.799-0.51,3.777-1.53c0.978-1.02,1.467-2.341,1.467-3.964c0-1.624-0.489-2.944-1.467-3.965 c-0.979-1.02-2.238-1.53-3.777-1.53c-1.54,0-2.8,0.511-3.777,1.53c-0.979,1.021-1.468,2.341-1.468,3.965 C424.101,214.858,424.59,216.18,425.568,217.199z"/> <linearGradient id="SVGID_43_" gradientUnits="userSpaceOnUse" x1="24.835" y1="137.8272" x2="615.0869" y2="137.8272"> <stop offset="0" style="stop-color:#6C009A"/> <stop offset="0.0728" style="stop-color:#7506A1"/> <stop offset="0.1939" style="stop-color:#8F15B6"/> <stop offset="0.3483" style="stop-color:#B82ED7"/> <stop offset="0.5069" style="stop-color:#EA4CFE"/> <stop offset="0.9944" style="stop-color:#6C009A"/> </linearGradient> <path style="fill:url(#SVGID_43_);" d="M469.679,196.752c4.204,0,7.638,1.562,10.302,4.683c2.663,3.122,3.996,7.056,3.996,11.801 s-1.333,8.678-3.996,11.8c-2.664,3.122-6.098,4.683-10.302,4.683c-3.58,0-6.368-1.228-8.366-3.684v15.297h-11.551v-43.705h11.551 v2.81C463.311,197.98,466.099,196.752,469.679,196.752z M462.842,217.418c1.02,1.124,2.362,1.686,4.027,1.686 c1.664,0,3.007-0.562,4.027-1.686c1.02-1.124,1.529-2.518,1.529-4.183s-0.51-3.06-1.529-4.184 c-1.021-1.124-2.363-1.686-4.027-1.686c-1.665,0-3.008,0.562-4.027,1.686c-1.021,1.124-1.529,2.519-1.529,4.184 S461.821,216.294,462.842,217.418z"/> <linearGradient id="SVGID_44_" gradientUnits="userSpaceOnUse" x1="24.835" y1="137.8272" x2="615.0869" y2="137.8272"> <stop offset="0" style="stop-color:#6C009A"/> <stop offset="0.0728" style="stop-color:#7506A1"/> <stop offset="0.1939" style="stop-color:#8F15B6"/> <stop offset="0.3483" style="stop-color:#B82ED7"/> <stop offset="0.5069" style="stop-color:#EA4CFE"/> <stop offset="0.9944" style="stop-color:#6C009A"/> </linearGradient> <path style="fill:url(#SVGID_44_);" d="M497.897,217.168c0.999,2.082,3.122,3.122,6.369,3.122c1.914,0,3.684-0.665,5.307-1.998 l7.555,6.368c-3.122,3.372-7.534,5.058-13.236,5.058c-5.328,0-9.605-1.55-12.83-4.651c-3.227-3.101-4.839-7.003-4.839-11.707 c0-4.744,1.57-8.698,4.714-11.862c3.142-3.162,7.106-4.745,11.894-4.745c4.745,0,8.647,1.552,11.707,4.651 c3.059,3.102,4.589,7.004,4.589,11.707c0,1.373-0.167,2.727-0.5,4.058H497.897z M497.711,209.738h10.488 c-0.708-2.497-2.394-3.746-5.057-3.746C500.437,205.992,498.626,207.241,497.711,209.738z"/> </g> </g> <g> </g> <g> </g> <g> </g> <g> </g> <g> </g> <g> </g> <g> </g> <g> </g> <g> </g> <g> </g> <g> </g> <g> </g> <g> </g> <g> </g> <g> </g> </svg>