<?xml version="1.0" encoding="UTF-8"?>
<!-- Generator: Adobe Illustrator 18.0.0, SVG Export Plug-In . SVG Version: 6.00 Build 0) -->
<svg xmlns="http://www.w3.org/2000/svg" xmlns:xlink="http://www.w3.org/1999/xlink" id="Layer_1" x="0px" y="0px" viewBox="0 0 500 100" style="enable-background:new 0 0 500 100;" xml:space="preserve"><script xmlns="" type="text/javascript" charset="utf-8" id="zm-extension"/> <g> <g> <path d="M171.058,31.74h14.809l-11.706,34.203c-1.833,5.405-4.737,9.344-8.709,11.812c-3.973,2.469-8.709,3.585-14.209,3.351 V68.763c2.397,0,4.231-0.176,5.5-0.528c1.269-0.353,2.28-1,3.032-1.939L145.67,31.74h14.809l6.276,18.829L171.058,31.74z"/> <path d="M204.202,67.987c-5.407,0-9.897-1.774-13.469-5.324c-3.573-3.549-5.359-7.979-5.359-13.293 c0-5.313,1.786-9.743,5.359-13.293c3.572-3.549,8.063-5.324,13.469-5.324c3.479,0,6.664,0.835,9.556,2.503 c2.891,1.669,5.113,3.914,6.664,6.734l-11.001,6.276c-1.176-1.975-2.916-2.962-5.219-2.962c-1.646,0-3.021,0.576-4.125,1.728 c-1.105,1.152-1.657,2.598-1.657,4.337c0,1.74,0.552,3.186,1.657,4.337c1.104,1.152,2.479,1.728,4.125,1.728 c2.444,0,4.184-1.01,5.219-3.032l11.001,6.347c-1.551,2.868-3.773,5.125-6.664,6.771C210.866,67.164,207.68,67.987,204.202,67.987 z"/> <path d="M258.643,31.74V67h-13.045V44.151h-6.347v8.251c0,5.736-1.435,9.767-4.301,12.094c-2.868,2.327-7.475,3.162-13.822,2.504 V55.012c1.739,0.471,3.021,0.271,3.843-0.6c0.822-0.869,1.234-2.479,1.234-4.831V31.74H258.643z"/> <path d="M286.851,31.74h14.809l-11.706,34.203c-1.833,5.405-4.737,9.344-8.709,11.812c-3.974,2.469-8.709,3.585-14.21,3.351 V68.763c2.397,0,4.231-0.176,5.501-0.528c1.269-0.353,2.279-1,3.032-1.939L261.463,31.74h14.81l6.276,18.829L286.851,31.74z"/> <path d="M330.572,31.74v12.412h-13.046V67h-13.047V31.74H330.572z"/> <path d="M358.851,31.74h10.508V67h-12.694V51.839L344.605,67h-10.508V31.74h12.694v15.162L358.851,31.74z"/> </g> <g> <linearGradient id="SVGID_1_" gradientUnits="userSpaceOnUse" x1="145.6704" y1="55.944" x2="369.3584" y2="55.944"> <stop offset="0" style="stop-color:#6C009A"/> <stop offset="0.0728" style="stop-color:#7506A1"/> <stop offset="0.1939" style="stop-color:#8F15B6"/> <stop offset="0.3483" style="stop-color:#B82ED7"/> <stop offset="0.5069" style="stop-color:#EA4CFE"/> <stop offset="0.9944" style="stop-color:#6C009A"/> </linearGradient> <path style="fill:url(#SVGID_1_);" d="M171.058,31.74h14.809l-11.706,34.203c-1.833,5.405-4.737,9.344-8.709,11.812 c-3.973,2.469-8.709,3.585-14.209,3.351V68.763c2.397,0,4.231-0.176,5.5-0.528c1.269-0.353,2.28-1,3.032-1.939L145.67,31.74 h14.809l6.276,18.829L171.058,31.74z"/> <linearGradient id="SVGID_2_" gradientUnits="userSpaceOnUse" x1="145.6704" y1="55.944" x2="369.3584" y2="55.944"> <stop offset="0" style="stop-color:#6C009A"/> <stop offset="0.0728" style="stop-color:#7506A1"/> <stop offset="0.1939" style="stop-color:#8F15B6"/> <stop offset="0.3483" style="stop-color:#B82ED7"/> <stop offset="0.5069" style="stop-color:#EA4CFE"/> <stop offset="0.9944" style="stop-color:#6C009A"/> </linearGradient> <path style="fill:url(#SVGID_2_);" d="M204.202,67.987c-5.407,0-9.897-1.774-13.469-5.324c-3.573-3.549-5.359-7.979-5.359-13.293 c0-5.313,1.786-9.743,5.359-13.293c3.572-3.549,8.063-5.324,13.469-5.324c3.479,0,6.664,0.835,9.556,2.503 c2.891,1.669,5.113,3.914,6.664,6.734l-11.001,6.276c-1.176-1.975-2.916-2.962-5.219-2.962c-1.646,0-3.021,0.576-4.125,1.728 c-1.105,1.152-1.657,2.598-1.657,4.337c0,1.74,0.552,3.186,1.657,4.337c1.104,1.152,2.479,1.728,4.125,1.728 c2.444,0,4.184-1.01,5.219-3.032l11.001,6.347c-1.551,2.868-3.773,5.125-6.664,6.771C210.866,67.164,207.68,67.987,204.202,67.987 z"/> <linearGradient id="SVGID_3_" gradientUnits="userSpaceOnUse" x1="145.6704" y1="55.944" x2="369.3584" y2="55.944"> <stop offset="0" style="stop-color:#6C009A"/> <stop offset="0.0728" style="stop-color:#7506A1"/> <stop offset="0.1939" style="stop-color:#8F15B6"/> <stop offset="0.3483" style="stop-color:#B82ED7"/> <stop offset="0.5069" style="stop-color:#EA4CFE"/> <stop offset="0.9944" style="stop-color:#6C009A"/> </linearGradient> <path style="fill:url(#SVGID_3_);" d="M258.643,31.74V67h-13.045V44.151h-6.347v8.251c0,5.736-1.435,9.767-4.301,12.094 c-2.868,2.327-7.475,3.162-13.822,2.504V55.012c1.739,0.471,3.021,0.271,3.843-0.6c0.822-0.869,1.234-2.479,1.234-4.831V31.74 H258.643z"/> <linearGradient id="SVGID_4_" gradientUnits="userSpaceOnUse" x1="145.6704" y1="55.944" x2="369.3584" y2="55.944"> <stop offset="0" style="stop-color:#6C009A"/> <stop offset="0.0728" style="stop-color:#7506A1"/> <stop offset="0.1939" style="stop-color:#8F15B6"/> <stop offset="0.3483" style="stop-color:#B82ED7"/> <stop offset="0.5069" style="stop-color:#EA4CFE"/> <stop offset="0.9944" style="stop-color:#6C009A"/> </linearGradient> <path style="fill:url(#SVGID_4_);" d="M286.851,31.74h14.809l-11.706,34.203c-1.833,5.405-4.737,9.344-8.709,11.812 c-3.974,2.469-8.709,3.585-14.21,3.351V68.763c2.397,0,4.231-0.176,5.501-0.528c1.269-0.353,2.279-1,3.032-1.939L261.463,31.74 h14.81l6.276,18.829L286.851,31.74z"/> <linearGradient id="SVGID_5_" gradientUnits="userSpaceOnUse" x1="145.6704" y1="55.944" x2="369.3584" y2="55.944"> <stop offset="0" style="stop-color:#6C009A"/> <stop offset="0.0728" style="stop-color:#7506A1"/> <stop offset="0.1939" style="stop-color:#8F15B6"/> <stop offset="0.3483" style="stop-color:#B82ED7"/> <stop offset="0.5069" style="stop-color:#EA4CFE"/> <stop offset="0.9944" style="stop-color:#6C009A"/> </linearGradient> <path style="fill:url(#SVGID_5_);" d="M330.572,31.74v12.412h-13.046V67h-13.047V31.74H330.572z"/> <linearGradient id="SVGID_6_" gradientUnits="userSpaceOnUse" x1="145.6704" y1="55.944" x2="369.3584" y2="55.944"> <stop offset="0" style="stop-color:#6C009A"/> <stop offset="0.0728" style="stop-color:#7506A1"/> <stop offset="0.1939" style="stop-color:#8F15B6"/> <stop offset="0.3483" style="stop-color:#B82ED7"/> <stop offset="0.5069" style="stop-color:#EA4CFE"/> <stop offset="0.9944" style="stop-color:#6C009A"/> </linearGradient> <path style="fill:url(#SVGID_6_);" d="M358.851,31.74h10.508V67h-12.694V51.839L344.605,67h-10.508V31.74h12.694v15.162 L358.851,31.74z"/> </g> </g> <g> </g> <g> </g> <g> </g> <g> </g> <g> </g> <g> </g> <g> </g> <g> </g> <g> </g> <g> </g> <g> </g> <g> </g> <g> </g> <g> </g> <g> </g> </svg>