<?xml version="1.0" encoding="UTF-8"?>
<!-- Generator: Adobe Illustrator 18.0.0, SVG Export Plug-In . SVG Version: 6.00 Build 0) -->
<svg xmlns="http://www.w3.org/2000/svg" xmlns:xlink="http://www.w3.org/1999/xlink" id="Layer_1" x="0px" y="0px" viewBox="0 0 640 280" style="enable-background:new 0 0 640 280;" xml:space="preserve"><script xmlns="" type="text/javascript" charset="utf-8" id="zm-extension"/> <g> <g> <path style="fill:#FFFFFF;" d="M69.958,137.493c-1.553-3.557-3.522-6.663-6.202-9.318c-2.679-2.644-5.745-4.526-9.301-6.079 c-3.568-1.541-7.309-2.096-11.34-2.096H14v65h29.115c4.031,0,7.836-1.644,11.405-3.185c3.557-1.553,6.686-4.112,9.366-6.791 c2.679-2.679,4.52-6.016,6.073-9.584c1.541-3.568,2.042-7.58,2.042-11.623v-4.92C72,144.866,71.499,141.061,69.958,137.493z M58,153.817c0,2.015-0.495,3.924-1.242,5.726c-0.759,1.802-1.848,3.355-3.176,4.683c-1.328,1.328-2.928,2.63-4.718,3.377 C47.062,168.362,45.13,169,43.115,169H28v-34h15.115c2.015,0,3.924,0.002,5.726,0.76c1.79,0.747,3.355,1.595,4.683,2.923 s2.475,2.795,3.234,4.585c0.747,1.802,1.242,3.613,1.242,5.629V153.817z"/> <path style="fill:#FFFFFF;" d="M79,120v65h15v-65H79z"/> <path style="fill:#FFFFFF;" d="M116.093,143.266c0.759-1.79,1.779-3.355,3.107-4.683c1.328-1.328,2.881-2.005,4.683-2.787 c1.79-0.782,3.687-0.796,5.715-0.796H159v-15h-29.402c-4.102,0-7.931,0.554-11.499,2.096c-3.568,1.553-6.674,3.543-9.318,6.187 c-2.656,2.656-4.335,5.725-5.876,9.306c-1.541,3.616-1.904,7.373-1.904,11.404v4.825c0,4.102,0.363,7.931,1.904,11.499 c1.541,3.557,3.43,6.663,6.085,9.318c2.644,2.644,5.639,5.627,9.207,7.18c3.58,1.541,7.299,3.185,11.401,3.185H159v-40h-29v14h15 v10h-15.402c-2.027,0-3.936-0.603-5.726-1.397c-1.802-0.782-3.367-1.949-4.683-3.277c-1.328-1.328-2.338-2.931-3.096-4.733 c-0.747-1.802-1.093-3.761-1.093-5.776v-4.825C115,146.977,115.346,145.068,116.093,143.266z"/> <path style="fill:#FFFFFF;" d="M166,120v65h16v-65H166z"/> <path style="fill:#FFFFFF;" d="M187,120v15h20v50h14v-50h21v-15H187z"/> <path style="fill:#FFFFFF;" d="M275.688,120c-4.043,0-7.836,0.554-11.405,2.096c-3.568,1.553-6.674,3.555-9.318,6.234 c-2.656,2.679-4.933,5.761-6.474,9.317c-1.541,3.557-2.491,7.314-2.491,11.345V185h14v-16h35v16h15v-65H275.688z M295,155h-35 v-6.008c0-2.015,0.909-3.912,1.679-5.679c0.806-1.766,2.114-3.308,3.442-4.635c1.328-1.328,2.995-1.552,4.762-2.323 c1.766-0.806,3.778-0.355,5.805-0.355H295V155z"/> <path style="fill:#FFFFFF;" d="M331,169v-49h-15v65h48v-16H331z"/> </g> <g> <path style="fill:#FFFFFF;" d="M591.029,148.506L572.321,9.387l-68.297,84.373l-21.707-0.771l-21.635,0.771L392.468,9.387 l-18.719,139.119l-9.84,20.592l-0.142,0.296l-6.615,13.847l-0.095,0.202l-19.205,40.189l88.214-10.859l56.252,57.841 l56.323-57.841l88.297,10.859L591.029,148.506z M459,185h-48v-65h16v49h32V185z M483,185h-16v-65h16V185z M551.243,171.019 c-1.043,2.371-2.442,4.505-4.209,6.271c-1.766,1.766-3.829,4.062-6.2,5.106c-2.359,1.055-4.908,2.604-7.611,2.604H489v-16h44.223 c1.316,0,2.466-0.84,3.45-1.824c0.972-0.972,1.47-2.246,1.47-3.562c0-1.316-0.498-2.337-1.47-3.321 c-0.984-0.972-2.134-1.294-3.45-1.294h-24.516c-2.703,0-5.252-0.807-7.611-1.85c-2.371-1.043-4.434-2.615-6.2-4.381 c-1.766-1.766-3.165-3.886-4.209-6.257s-1.565-4.924-1.565-7.627c0-2.715,0.522-5.254,1.565-7.625 c1.043-2.359,2.442-4.417,4.209-6.184c1.766-1.766,3.829-2.846,6.2-3.889c2.359-1.043,4.908-1.186,7.611-1.186H552v15h-43.293 c-1.316,0-2.466,0.013-3.45,0.985c-0.972,0.984-1.47,2.01-1.47,3.338c0,1.387,0.474,2.85,1.423,3.799 c0.948,0.96,2.11,1.878,3.497,1.878h24.516c2.324,0,4.6-0.197,6.805,0.656c2.205,0.854,4.185,1.549,5.916,3.007 c1.731,1.446,3.201,3.116,4.398,5.167c1.197,2.051,1.956,4.214,2.276,6.537c0.059,0.51,0.107,0.986,0.142,1.496 c0.024,0.51,0.047,1.021,0.047,1.531C552.808,166.098,552.286,168.66,551.243,171.019z"/> </g> </g> <g> </g> <g> </g> <g> </g> <g> </g> <g> </g> <g> </g> <g> </g> <g> </g> <g> </g> <g> </g> <g> </g> <g> </g> <g> </g> <g> </g> <g> </g> </svg>