<?xml version="1.0" encoding="UTF-8"?>
<!-- Generator: Adobe Illustrator 18.0.0, SVG Export Plug-In . SVG Version: 6.00 Build 0) -->
<svg xmlns="http://www.w3.org/2000/svg" xmlns:xlink="http://www.w3.org/1999/xlink" id="Layer_1" x="0px" y="0px" viewBox="0 0 500 100" style="enable-background:new 0 0 500 100;" xml:space="preserve"><script xmlns="" type="text/javascript" charset="utf-8" id="zm-extension"/> <g> <g> <path d="M49.894,53.469h4.431v19.379H42.508v-7.917H24.782v7.917H12.965V53.469h4.372c1.655-2.994,2.482-7.169,2.482-12.526 V23.571h30.074V53.469z M29.568,53.469h8.508V34.443h-6.44v6.618C31.636,46.181,30.947,50.317,29.568,53.469z"/> <path d="M71.283,65.758c-4.412,0-8.164-1.496-11.256-4.49c-3.093-2.993-4.638-6.696-4.638-11.108 c0-4.411,1.536-8.114,4.609-11.108c3.072-2.993,6.833-4.49,11.285-4.49c4.451,0,8.213,1.498,11.285,4.49 c3.072,2.994,4.608,6.697,4.608,11.108c0,4.412-1.536,8.115-4.608,11.108C79.496,64.262,75.733,65.758,71.283,65.758z M67.708,53.911c0.925,0.966,2.117,1.448,3.575,1.448c1.457,0,2.648-0.482,3.575-1.448c0.925-0.964,1.388-2.215,1.388-3.752 c0-1.536-0.463-2.786-1.388-3.751c-0.926-0.965-2.118-1.448-3.575-1.448c-1.458,0-2.65,0.483-3.575,1.448 c-0.926,0.965-1.389,2.215-1.389,3.751C66.319,51.696,66.782,52.947,67.708,53.911z"/> <path d="M119.554,35.388v29.542h-10.931V45.787h-7.09v19.144H90.603V35.388H119.554z"/> <path d="M138.756,65.758c-4.412,0-8.164-1.496-11.256-4.49c-3.093-2.993-4.638-6.696-4.638-11.108 c0-4.411,1.536-8.114,4.609-11.108c3.072-2.993,6.833-4.49,11.285-4.49c4.451,0,8.213,1.498,11.285,4.49 c3.072,2.994,4.608,6.697,4.608,11.108c0,4.412-1.536,8.115-4.608,11.108C146.969,64.262,143.207,65.758,138.756,65.758z M135.182,53.911c0.925,0.966,2.117,1.448,3.575,1.448c1.457,0,2.648-0.482,3.575-1.448c0.925-0.964,1.388-2.215,1.388-3.752 c0-1.536-0.463-2.786-1.388-3.751c-0.926-0.965-2.118-1.448-3.575-1.448c-1.458,0-2.65,0.483-3.575,1.448 c-0.926,0.965-1.389,2.215-1.389,3.751C133.793,51.696,134.255,52.947,135.182,53.911z"/> <path d="M187.737,35.388v29.542h-10.931V45.787h-5.317V52.7c0,4.806-1.202,8.184-3.604,10.133 c-2.403,1.95-6.263,2.648-11.581,2.098V54.887c1.457,0.394,2.531,0.227,3.22-0.503c0.688-0.728,1.034-2.077,1.034-4.047V35.388 H187.737z"/> <path d="M210.484,35.388h10.931v29.542h-10.931v-9.571h-7.09v9.571h-10.931V35.388h10.931v9.572h7.09V35.388z"/> <path d="M246.88,35.388h8.804v29.542h-10.635V52.228l-10.104,12.703h-8.804V35.388h10.635v12.703L246.88,35.388z"/> <path d="M285.521,35.388v10.399h-8.035v19.144h-10.99V45.787h-8.153V35.388H285.521z"/> <path d="M297.337,53.882c0.945,1.971,2.954,2.954,6.026,2.954c1.812,0,3.486-0.629,5.022-1.891l7.149,6.026 c-2.954,3.19-7.13,4.786-12.526,4.786c-5.042,0-9.09-1.467-12.142-4.401c-3.054-2.935-4.579-6.627-4.579-11.079 c0-4.49,1.486-8.232,4.461-11.226c2.974-2.993,6.726-4.49,11.256-4.49c4.49,0,8.183,1.468,11.078,4.402 c2.896,2.935,4.343,6.627,4.343,11.078c0,1.301-0.158,2.581-0.473,3.841H297.337z M297.159,46.851h9.927 c-0.67-2.363-2.266-3.545-4.786-3.545C299.739,43.306,298.025,44.487,297.159,46.851z"/> <path d="M349.45,35.388v29.542H338.52V45.787h-5.318V52.7c0,4.806-1.202,8.184-3.604,10.133c-2.403,1.95-6.264,2.648-11.581,2.098 V54.887c1.457,0.394,2.53,0.227,3.22-0.503c0.689-0.728,1.034-2.077,1.034-4.047V35.388H349.45z"/> <path d="M369.774,43.069c3.584,0,6.41,0.975,8.479,2.925c2.068,1.95,3.103,4.619,3.103,8.006c0,3.388-1.034,6.057-3.103,8.006 c-2.068,1.95-4.895,2.925-8.479,2.925h-15.599V35.388h10.931v7.681H369.774z M368.415,56.068c1.536,0,2.305-0.688,2.305-2.068 c0-1.378-0.769-2.067-2.305-2.067h-3.309v4.136H368.415z"/> <path d="M402.33,35.388h10.931v29.542H402.33v-9.571h-7.091v9.571h-10.931V35.388h10.931v9.572h7.091V35.388z"/> <path d="M433.586,43.069c3.584,0,6.41,0.975,8.479,2.925c2.068,1.95,3.103,4.619,3.103,8.006c0,3.388-1.034,6.057-3.103,8.006 c-2.068,1.95-4.895,2.925-8.479,2.925h-15.599V35.388h10.931v7.681H433.586z M432.227,56.068c1.536,0,2.305-0.688,2.305-2.068 c0-1.378-0.769-2.067-2.305-2.067h-3.309v4.136H432.227z M446.939,35.388h10.931v29.542h-10.931V35.388z"/> <path d="M472.227,53.882c0.945,1.971,2.954,2.954,6.026,2.954c1.812,0,3.486-0.629,5.022-1.891l7.149,6.026 c-2.954,3.19-7.13,4.786-12.526,4.786c-5.042,0-9.09-1.467-12.142-4.401c-3.053-2.935-4.579-6.627-4.579-11.079 c0-4.49,1.486-8.232,4.461-11.226c2.974-2.993,6.726-4.49,11.256-4.49c4.49,0,8.184,1.468,11.078,4.402 c2.896,2.935,4.343,6.627,4.343,11.078c0,1.301-0.158,2.581-0.473,3.841H472.227z M472.05,46.851h9.926 c-0.67-2.363-2.266-3.545-4.786-3.545C474.629,43.306,472.915,44.487,472.05,46.851z"/> </g> <g> <linearGradient id="SVGID_1_" gradientUnits="userSpaceOnUse" x1="12.9653" y1="48.2095" x2="492.3154" y2="48.2095"> <stop offset="0" style="stop-color:#6C009A"/> <stop offset="0.0728" style="stop-color:#7506A1"/> <stop offset="0.1939" style="stop-color:#8F15B6"/> <stop offset="0.3483" style="stop-color:#B82ED7"/> <stop offset="0.5069" style="stop-color:#EA4CFE"/> <stop offset="0.9944" style="stop-color:#6C009A"/> </linearGradient> <path style="fill:url(#SVGID_1_);" d="M49.894,53.469h4.431v19.379H42.508v-7.917H24.782v7.917H12.965V53.469h4.372 c1.655-2.994,2.482-7.169,2.482-12.526V23.571h30.074V53.469z M29.568,53.469h8.508V34.443h-6.44v6.618 C31.636,46.181,30.947,50.317,29.568,53.469z"/> <linearGradient id="SVGID_2_" gradientUnits="userSpaceOnUse" x1="12.9653" y1="48.2095" x2="492.3154" y2="48.2095"> <stop offset="0" style="stop-color:#6C009A"/> <stop offset="0.0728" style="stop-color:#7506A1"/> <stop offset="0.1939" style="stop-color:#8F15B6"/> <stop offset="0.3483" style="stop-color:#B82ED7"/> <stop offset="0.5069" style="stop-color:#EA4CFE"/> <stop offset="0.9944" style="stop-color:#6C009A"/> </linearGradient> <path style="fill:url(#SVGID_2_);" d="M71.283,65.758c-4.412,0-8.164-1.496-11.256-4.49c-3.093-2.993-4.638-6.696-4.638-11.108 c0-4.411,1.536-8.114,4.609-11.108c3.072-2.993,6.833-4.49,11.285-4.49c4.451,0,8.213,1.498,11.285,4.49 c3.072,2.994,4.608,6.697,4.608,11.108c0,4.412-1.536,8.115-4.608,11.108C79.496,64.262,75.733,65.758,71.283,65.758z M67.708,53.911c0.925,0.966,2.117,1.448,3.575,1.448c1.457,0,2.648-0.482,3.575-1.448c0.925-0.964,1.388-2.215,1.388-3.752 c0-1.536-0.463-2.786-1.388-3.751c-0.926-0.965-2.118-1.448-3.575-1.448c-1.458,0-2.65,0.483-3.575,1.448 c-0.926,0.965-1.389,2.215-1.389,3.751C66.319,51.696,66.782,52.947,67.708,53.911z"/> <linearGradient id="SVGID_3_" gradientUnits="userSpaceOnUse" x1="12.9653" y1="48.2095" x2="492.3154" y2="48.2095"> <stop offset="0" style="stop-color:#6C009A"/> <stop offset="0.0728" style="stop-color:#7506A1"/> <stop offset="0.1939" style="stop-color:#8F15B6"/> <stop offset="0.3483" style="stop-color:#B82ED7"/> <stop offset="0.5069" style="stop-color:#EA4CFE"/> <stop offset="0.9944" style="stop-color:#6C009A"/> </linearGradient> <path style="fill:url(#SVGID_3_);" d="M119.554,35.388v29.542h-10.931V45.787h-7.09v19.144H90.603V35.388H119.554z"/> <linearGradient id="SVGID_4_" gradientUnits="userSpaceOnUse" x1="12.9653" y1="48.2095" x2="492.3154" y2="48.2095"> <stop offset="0" style="stop-color:#6C009A"/> <stop offset="0.0728" style="stop-color:#7506A1"/> <stop offset="0.1939" style="stop-color:#8F15B6"/> <stop offset="0.3483" style="stop-color:#B82ED7"/> <stop offset="0.5069" style="stop-color:#EA4CFE"/> <stop offset="0.9944" style="stop-color:#6C009A"/> </linearGradient> <path style="fill:url(#SVGID_4_);" d="M138.756,65.758c-4.412,0-8.164-1.496-11.256-4.49c-3.093-2.993-4.638-6.696-4.638-11.108 c0-4.411,1.536-8.114,4.609-11.108c3.072-2.993,6.833-4.49,11.285-4.49c4.451,0,8.213,1.498,11.285,4.49 c3.072,2.994,4.608,6.697,4.608,11.108c0,4.412-1.536,8.115-4.608,11.108C146.969,64.262,143.207,65.758,138.756,65.758z M135.182,53.911c0.925,0.966,2.117,1.448,3.575,1.448c1.457,0,2.648-0.482,3.575-1.448c0.925-0.964,1.388-2.215,1.388-3.752 c0-1.536-0.463-2.786-1.388-3.751c-0.926-0.965-2.118-1.448-3.575-1.448c-1.458,0-2.65,0.483-3.575,1.448 c-0.926,0.965-1.389,2.215-1.389,3.751C133.793,51.696,134.255,52.947,135.182,53.911z"/> <linearGradient id="SVGID_5_" gradientUnits="userSpaceOnUse" x1="12.9653" y1="48.2095" x2="492.3154" y2="48.2095"> <stop offset="0" style="stop-color:#6C009A"/> <stop offset="0.0728" style="stop-color:#7506A1"/> <stop offset="0.1939" style="stop-color:#8F15B6"/> <stop offset="0.3483" style="stop-color:#B82ED7"/> <stop offset="0.5069" style="stop-color:#EA4CFE"/> <stop offset="0.9944" style="stop-color:#6C009A"/> </linearGradient> <path style="fill:url(#SVGID_5_);" d="M187.737,35.388v29.542h-10.931V45.787h-5.317V52.7c0,4.806-1.202,8.184-3.604,10.133 c-2.403,1.95-6.263,2.648-11.581,2.098V54.887c1.457,0.394,2.531,0.227,3.22-0.503c0.688-0.728,1.034-2.077,1.034-4.047V35.388 H187.737z"/> <linearGradient id="SVGID_6_" gradientUnits="userSpaceOnUse" x1="12.9653" y1="48.2095" x2="492.3154" y2="48.2095"> <stop offset="0" style="stop-color:#6C009A"/> <stop offset="0.0728" style="stop-color:#7506A1"/> <stop offset="0.1939" style="stop-color:#8F15B6"/> <stop offset="0.3483" style="stop-color:#B82ED7"/> <stop offset="0.5069" style="stop-color:#EA4CFE"/> <stop offset="0.9944" style="stop-color:#6C009A"/> </linearGradient> <path style="fill:url(#SVGID_6_);" d="M210.484,35.388h10.931v29.542h-10.931v-9.571h-7.09v9.571h-10.931V35.388h10.931v9.572 h7.09V35.388z"/> <linearGradient id="SVGID_7_" gradientUnits="userSpaceOnUse" x1="12.9653" y1="48.2095" x2="492.3154" y2="48.2095"> <stop offset="0" style="stop-color:#6C009A"/> <stop offset="0.0728" style="stop-color:#7506A1"/> <stop offset="0.1939" style="stop-color:#8F15B6"/> <stop offset="0.3483" style="stop-color:#B82ED7"/> <stop offset="0.5069" style="stop-color:#EA4CFE"/> <stop offset="0.9944" style="stop-color:#6C009A"/> </linearGradient> <path style="fill:url(#SVGID_7_);" d="M246.88,35.388h8.804v29.542h-10.635V52.228l-10.104,12.703h-8.804V35.388h10.635v12.703 L246.88,35.388z"/> <linearGradient id="SVGID_8_" gradientUnits="userSpaceOnUse" x1="12.9653" y1="48.2095" x2="492.3154" y2="48.2095"> <stop offset="0" style="stop-color:#6C009A"/> <stop offset="0.0728" style="stop-color:#7506A1"/> <stop offset="0.1939" style="stop-color:#8F15B6"/> <stop offset="0.3483" style="stop-color:#B82ED7"/> <stop offset="0.5069" style="stop-color:#EA4CFE"/> <stop offset="0.9944" style="stop-color:#6C009A"/> </linearGradient> <path style="fill:url(#SVGID_8_);" d="M285.521,35.388v10.399h-8.035v19.144h-10.99V45.787h-8.153V35.388H285.521z"/> <linearGradient id="SVGID_9_" gradientUnits="userSpaceOnUse" x1="12.9653" y1="48.2095" x2="492.3154" y2="48.2095"> <stop offset="0" style="stop-color:#6C009A"/> <stop offset="0.0728" style="stop-color:#7506A1"/> <stop offset="0.1939" style="stop-color:#8F15B6"/> <stop offset="0.3483" style="stop-color:#B82ED7"/> <stop offset="0.5069" style="stop-color:#EA4CFE"/> <stop offset="0.9944" style="stop-color:#6C009A"/> </linearGradient> <path style="fill:url(#SVGID_9_);" d="M297.337,53.882c0.945,1.971,2.954,2.954,6.026,2.954c1.812,0,3.486-0.629,5.022-1.891 l7.149,6.026c-2.954,3.19-7.13,4.786-12.526,4.786c-5.042,0-9.09-1.467-12.142-4.401c-3.054-2.935-4.579-6.627-4.579-11.079 c0-4.49,1.486-8.232,4.461-11.226c2.974-2.993,6.726-4.49,11.256-4.49c4.49,0,8.183,1.468,11.078,4.402 c2.896,2.935,4.343,6.627,4.343,11.078c0,1.301-0.158,2.581-0.473,3.841H297.337z M297.159,46.851h9.927 c-0.67-2.363-2.266-3.545-4.786-3.545C299.739,43.306,298.025,44.487,297.159,46.851z"/> <linearGradient id="SVGID_10_" gradientUnits="userSpaceOnUse" x1="12.9653" y1="48.2095" x2="492.3154" y2="48.2095"> <stop offset="0" style="stop-color:#6C009A"/> <stop offset="0.0728" style="stop-color:#7506A1"/> <stop offset="0.1939" style="stop-color:#8F15B6"/> <stop offset="0.3483" style="stop-color:#B82ED7"/> <stop offset="0.5069" style="stop-color:#EA4CFE"/> <stop offset="0.9944" style="stop-color:#6C009A"/> </linearGradient> <path style="fill:url(#SVGID_10_);" d="M349.45,35.388v29.542H338.52V45.787h-5.318V52.7c0,4.806-1.202,8.184-3.604,10.133 c-2.403,1.95-6.264,2.648-11.581,2.098V54.887c1.457,0.394,2.53,0.227,3.22-0.503c0.689-0.728,1.034-2.077,1.034-4.047V35.388 H349.45z"/> <linearGradient id="SVGID_11_" gradientUnits="userSpaceOnUse" x1="12.9653" y1="48.2095" x2="492.3154" y2="48.2095"> <stop offset="0" style="stop-color:#6C009A"/> <stop offset="0.0728" style="stop-color:#7506A1"/> <stop offset="0.1939" style="stop-color:#8F15B6"/> <stop offset="0.3483" style="stop-color:#B82ED7"/> <stop offset="0.5069" style="stop-color:#EA4CFE"/> <stop offset="0.9944" style="stop-color:#6C009A"/> </linearGradient> <path style="fill:url(#SVGID_11_);" d="M369.774,43.069c3.584,0,6.41,0.975,8.479,2.925c2.068,1.95,3.103,4.619,3.103,8.006 c0,3.388-1.034,6.057-3.103,8.006c-2.068,1.95-4.895,2.925-8.479,2.925h-15.599V35.388h10.931v7.681H369.774z M368.415,56.068 c1.536,0,2.305-0.688,2.305-2.068c0-1.378-0.769-2.067-2.305-2.067h-3.309v4.136H368.415z"/> <linearGradient id="SVGID_12_" gradientUnits="userSpaceOnUse" x1="12.9653" y1="48.2095" x2="492.3154" y2="48.2095"> <stop offset="0" style="stop-color:#6C009A"/> <stop offset="0.0728" style="stop-color:#7506A1"/> <stop offset="0.1939" style="stop-color:#8F15B6"/> <stop offset="0.3483" style="stop-color:#B82ED7"/> <stop offset="0.5069" style="stop-color:#EA4CFE"/> <stop offset="0.9944" style="stop-color:#6C009A"/> </linearGradient> <path style="fill:url(#SVGID_12_);" d="M402.33,35.388h10.931v29.542H402.33v-9.571h-7.091v9.571h-10.931V35.388h10.931v9.572 h7.091V35.388z"/> <linearGradient id="SVGID_13_" gradientUnits="userSpaceOnUse" x1="12.9653" y1="48.2095" x2="492.3154" y2="48.2095"> <stop offset="0" style="stop-color:#6C009A"/> <stop offset="0.0728" style="stop-color:#7506A1"/> <stop offset="0.1939" style="stop-color:#8F15B6"/> <stop offset="0.3483" style="stop-color:#B82ED7"/> <stop offset="0.5069" style="stop-color:#EA4CFE"/> <stop offset="0.9944" style="stop-color:#6C009A"/> </linearGradient> <path style="fill:url(#SVGID_13_);" d="M433.586,43.069c3.584,0,6.41,0.975,8.479,2.925c2.068,1.95,3.103,4.619,3.103,8.006 c0,3.388-1.034,6.057-3.103,8.006c-2.068,1.95-4.895,2.925-8.479,2.925h-15.599V35.388h10.931v7.681H433.586z M432.227,56.068 c1.536,0,2.305-0.688,2.305-2.068c0-1.378-0.769-2.067-2.305-2.067h-3.309v4.136H432.227z M446.939,35.388h10.931v29.542h-10.931 V35.388z"/> <linearGradient id="SVGID_14_" gradientUnits="userSpaceOnUse" x1="12.9653" y1="48.2095" x2="492.3154" y2="48.2095"> <stop offset="0" style="stop-color:#6C009A"/> <stop offset="0.0728" style="stop-color:#7506A1"/> <stop offset="0.1939" style="stop-color:#8F15B6"/> <stop offset="0.3483" style="stop-color:#B82ED7"/> <stop offset="0.5069" style="stop-color:#EA4CFE"/> <stop offset="0.9944" style="stop-color:#6C009A"/> </linearGradient> <path style="fill:url(#SVGID_14_);" d="M472.227,53.882c0.945,1.971,2.954,2.954,6.026,2.954c1.812,0,3.486-0.629,5.022-1.891 l7.149,6.026c-2.954,3.19-7.13,4.786-12.526,4.786c-5.042,0-9.09-1.467-12.142-4.401c-3.053-2.935-4.579-6.627-4.579-11.079 c0-4.49,1.486-8.232,4.461-11.226c2.974-2.993,6.726-4.49,11.256-4.49c4.49,0,8.184,1.468,11.078,4.402 c2.896,2.935,4.343,6.627,4.343,11.078c0,1.301-0.158,2.581-0.473,3.841H472.227z M472.05,46.851h9.926 c-0.67-2.363-2.266-3.545-4.786-3.545C474.629,43.306,472.915,44.487,472.05,46.851z"/> </g> </g> <g> </g> <g> </g> <g> </g> <g> </g> <g> </g> <g> </g> <g> </g> <g> </g> <g> </g> <g> </g> <g> </g> <g> </g> <g> </g> <g> </g> <g> </g> </svg>