<?xml version="1.0" encoding="UTF-8"?>
<!-- Generator: Adobe Illustrator 18.0.0, SVG Export Plug-In . SVG Version: 6.00 Build 0) -->
<svg xmlns="http://www.w3.org/2000/svg" xmlns:xlink="http://www.w3.org/1999/xlink" id="Layer_1" x="0px" y="0px" viewBox="0 0 1000 1000" style="enable-background:new 0 0 1000 1000;" xml:space="preserve"><script xmlns="" type="text/javascript" charset="utf-8" id="zm-extension"/> <g> <g> <g> <path d="M523.833,40.341c15.494,1.699,31.087,2.77,46.466,5.194C729.122,70.57,847.965,153.735,920.852,296.632 c137.49,269.552-16.692,595.373-311.578,663.188C353.03,1018.748,98.112,851.691,49.223,592.46 c-3.884-20.596-5.116-41.69-7.635-62.547c-0.176-1.459-0.81-2.863-1.231-4.292c0-12.628,0-25.256,0-37.884 c0.493-2.902,1.261-5.788,1.441-8.709c6.724-108.941,46.389-204.343,119.618-285.072 c75.237-82.943,168.87-132.416,279.89-148.392c15.413-2.218,30.961-3.504,46.447-5.221 C499.779,40.341,511.806,40.341,523.833,40.341z M505.429,940.93c239.792,0.781,434.658-193.362,435.425-433.809 C941.62,267.145,747.698,71.979,507.549,71.036C267.38,70.094,71.788,264.542,71.035,504.996 C70.283,745.189,264.551,940.146,505.429,940.93z"/> <path d="M337.587,424.69c-14.971,0-31.079,0-47.136,0c-14.815-62.915,35.345-126.768,99.151-126.962 c29.645-0.09,56.587,9.61,82.981,21.476c25.99,11.685,51.649,24.104,77.655,35.753c18.674,8.365,37.861,15.285,58.705,15.885 c22.392,0.644,35.88-8.154,42.752-29.51c3-9.324,4.008-19.308,5.666-29.035c0.639-3.75,0.571-7.621,0.846-11.744 c16.727,0,32.556,0,48.364,0c6.007,48.739-11.283,112.685-72.084,124.979c-24.526,4.959-48.91,2.841-71.867-5.805 c-31.655-11.923-62.332-26.42-93.593-39.418c-20.982-8.724-42.021-17.435-63.512-24.746c-7.601-2.586-16.733-2.028-24.967-1.112 c-16.876,1.878-28.202,12.214-33.29,27.85C342.944,395.562,340.935,409.573,337.587,424.69z"/> <path d="M532.913,776.738c-21.231,0-41.826,0-62.916,0c0-115.024,0-229.657,0-345.34c20.258,7.163,40.053,13.934,59.576,21.417 c1.96,0.751,3.185,5.81,3.201,8.878c0.209,40.261,0.139,80.523,0.139,120.786c0,61.295,0,122.589,0,183.884 C532.913,769.637,532.913,772.912,532.913,776.738z"/> </g> </g> <g> <g> <linearGradient id="SVGID_1_" gradientUnits="userSpaceOnUse" x1="40.3577" y1="506.0006" x2="971.6431" y2="506.0006"> <stop offset="0" style="stop-color:#6C009A"/> <stop offset="0.0728" style="stop-color:#7506A1"/> <stop offset="0.1939" style="stop-color:#8F15B6"/> <stop offset="0.3483" style="stop-color:#B82ED7"/> <stop offset="0.5069" style="stop-color:#EA4CFE"/> <stop offset="0.9944" style="stop-color:#6C009A"/> </linearGradient> <path style="fill:url(#SVGID_1_);" d="M523.833,40.341c15.494,1.699,31.087,2.77,46.466,5.194 C729.122,70.57,847.965,153.735,920.852,296.632c137.49,269.552-16.692,595.373-311.578,663.188 C353.03,1018.748,98.112,851.691,49.223,592.46c-3.884-20.596-5.116-41.69-7.635-62.547c-0.176-1.459-0.81-2.863-1.231-4.292 c0-12.628,0-25.256,0-37.884c0.493-2.902,1.261-5.788,1.441-8.709c6.724-108.941,46.389-204.343,119.618-285.072 c75.237-82.943,168.87-132.416,279.89-148.392c15.413-2.218,30.961-3.504,46.447-5.221 C499.779,40.341,511.806,40.341,523.833,40.341z M505.429,940.93c239.792,0.781,434.658-193.362,435.425-433.809 C941.62,267.145,747.698,71.979,507.549,71.036C267.38,70.094,71.788,264.542,71.035,504.996 C70.283,745.189,264.551,940.146,505.429,940.93z"/> <linearGradient id="SVGID_2_" gradientUnits="userSpaceOnUse" x1="40.3577" y1="506.0006" x2="971.6431" y2="506.0006"> <stop offset="0" style="stop-color:#6C009A"/> <stop offset="0.0728" style="stop-color:#7506A1"/> <stop offset="0.1939" style="stop-color:#8F15B6"/> <stop offset="0.3483" style="stop-color:#B82ED7"/> <stop offset="0.5069" style="stop-color:#EA4CFE"/> <stop offset="0.9944" style="stop-color:#6C009A"/> </linearGradient> <path style="fill:url(#SVGID_2_);" d="M337.587,424.69c-14.971,0-31.079,0-47.136,0 c-14.815-62.915,35.345-126.768,99.151-126.962c29.645-0.09,56.587,9.61,82.981,21.476c25.99,11.685,51.649,24.104,77.655,35.753 c18.674,8.365,37.861,15.285,58.705,15.885c22.392,0.644,35.88-8.154,42.752-29.51c3-9.324,4.008-19.308,5.666-29.035 c0.639-3.75,0.571-7.621,0.846-11.744c16.727,0,32.556,0,48.364,0c6.007,48.739-11.283,112.685-72.084,124.979 c-24.526,4.959-48.91,2.841-71.867-5.805c-31.655-11.923-62.332-26.42-93.593-39.418c-20.982-8.724-42.021-17.435-63.512-24.746 c-7.601-2.586-16.733-2.028-24.967-1.112c-16.876,1.878-28.202,12.214-33.29,27.85 C342.944,395.562,340.935,409.573,337.587,424.69z"/> <linearGradient id="SVGID_3_" gradientUnits="userSpaceOnUse" x1="40.3577" y1="506.0006" x2="971.6431" y2="506.0006"> <stop offset="0" style="stop-color:#6C009A"/> <stop offset="0.0728" style="stop-color:#7506A1"/> <stop offset="0.1939" style="stop-color:#8F15B6"/> <stop offset="0.3483" style="stop-color:#B82ED7"/> <stop offset="0.5069" style="stop-color:#EA4CFE"/> <stop offset="0.9944" style="stop-color:#6C009A"/> </linearGradient> <path style="fill:url(#SVGID_3_);" d="M532.913,776.738c-21.231,0-41.826,0-62.916,0c0-115.024,0-229.657,0-345.34 c20.258,7.163,40.053,13.934,59.576,21.417c1.96,0.751,3.185,5.81,3.201,8.878c0.209,40.261,0.139,80.523,0.139,120.786 c0,61.295,0,122.589,0,183.884C532.913,769.637,532.913,772.912,532.913,776.738z"/> </g> </g> </g> <g> </g> <g> </g> <g> </g> <g> </g> <g> </g> <g> </g> <g> </g> <g> </g> <g> </g> <g> </g> <g> </g> <g> </g> <g> </g> <g> </g> <g> </g> </svg>