<?xml version="1.0" encoding="UTF-8"?>
<!-- Generator: Adobe Illustrator 18.0.0, SVG Export Plug-In . SVG Version: 6.00 Build 0) -->
<svg xmlns="http://www.w3.org/2000/svg" xmlns:xlink="http://www.w3.org/1999/xlink" id="Layer_1" x="0px" y="0px" viewBox="0 0 1000 1000" style="enable-background:new 0 0 1000 1000;" xml:space="preserve"><script xmlns="" type="text/javascript" charset="utf-8" id="zm-extension"/> <g> <g> <path d="M341.964,157.431c11.404,2.154,22.882,3.976,34.2,6.513c103.12,23.114,184.532,108.058,201.795,212.166 c3.708,22.359,2.802,45.477,4.205,68.235c0.145,2.357,0.917,5.259,2.478,6.845c7.353,7.47,15.094,14.557,22.662,21.817 c0.795,0.763,1.361,1.765,2.035,2.654c17.778,23.423,32.606,23.276,50.175-0.378c3.82-5.144,7.659-10.36,12.12-14.927 c14.514-14.857,36.628-13.994,50.087,1.907c5.041,5.955,9.276,12.587,14.222,18.63c13.15,16.067,29.091,15.974,42.134-0.185 c4.73-5.859,8.873-12.207,13.773-17.911c14.679-17.086,36.324-17.625,51.717-1.095c5.872,6.306,10.546,13.711,16.188,20.251 c13.109,15.195,29.279,14.341,41.434-1.689c5.55-7.32,10.615-15.516,17.683-21.026c6.429-5.012,15.274-6.926,23.054-10.205 c0,2.793,0,5.586,0,8.379c-12.195,2.746-20.636,10.442-27.269,20.579c-1.526,2.331-3.274,4.519-4.956,6.745 c-17.459,23.102-41.42,23.436-59.37,0.84c-5.03-6.332-9.633-13.078-15.213-18.883c-10.184-10.593-23.876-10.531-33.889,0.218 c-6.253,6.712-11.305,14.525-17.279,21.517c-15.829,18.526-38.249,18.466-54.028-0.101c-4.15-4.883-7.698-10.273-11.674-15.311 c-14.888-18.863-30.427-18.888-45.192-0.087c-4.136,5.267-7.847,10.892-12.236,15.933c-15.681,18.015-38.104,17.85-53.46-0.35 c-4.494-5.326-8.263-11.27-12.837-16.519c-3.704-4.251-8.118-7.883-13.079-12.61c-2.879,12.921-4.974,24.076-7.908,35.006 c-2.977,11.088-6.782,21.955-10.586,34.07c21.997-4.291,34.749,7.152,45.067,23.232c2.248,3.503,4.913,6.819,7.809,9.812 c11.679,12.069,25.9,11.987,37.141-0.518c5.393-5.999,9.809-12.864,14.933-19.118c16.001-19.528,39.944-19.339,55.73,0.396 c5.052,6.316,9.465,13.196,14.922,19.126c11.306,12.287,26.003,12.112,37.127-0.314c5.01-5.596,9.147-11.964,13.837-17.857 c16.983-21.339,41.085-21.23,57.841,0.255c4.289,5.5,8.081,11.413,12.634,16.675c11.61,13.419,26.16,13.841,38.19,0.907 c5.488-5.901,9.886-12.8,15.065-19.006c7.425-8.898,16.323-15.134,28.68-14.249c0,2.234,0,4.469,0,6.703 c-14.504,4.333-23.666,14.889-31.568,26.969c-1.366,2.088-3.105,3.948-4.785,5.813c-15.656,17.381-38.929,16.641-53.495-1.757 c-4.674-5.903-8.844-12.222-13.723-17.941c-12.617-14.788-27.999-14.628-40.436,0.337c-5.166,6.216-9.627,13.03-14.931,19.116 c-15.081,17.307-37.102,17.263-52.225-0.116c-5.484-6.302-10.085-13.365-15.463-19.766c-11.804-14.049-27.32-14.112-39.27-0.117 c-5.246,6.143-9.693,12.967-14.905,19.142c-15.354,18.193-37.909,18.374-53.393,0.397c-5.271-6.12-9.713-12.952-14.952-19.102 c-13.678-16.056-30.241-13.643-41.596,3.841c-13.161,20.264-27.89,39.553-42.671,58.7c-6.177,8.001-14.244,14.543-21.349,21.647 c14.691,21.557,32.229,22.058,47.494,1.906c3.874-5.114,7.457-10.471,11.605-15.35c14.736-17.333,37.123-17.685,52.31-0.67 c5.745,6.436,10.514,13.735,16.092,20.332c11.638,13.763,26.747,13.958,38.622,0.39c6.053-6.916,11.081-14.748,17.296-21.501 c14.938-16.229,36.596-15.684,51.046,1.094c5.819,6.756,10.784,14.254,16.686,20.93c11.334,12.821,26.36,12.715,37.504-0.194 c5.644-6.537,10.418-13.826,16.07-20.356c15.647-18.079,39.039-17.543,54.02,1.097c5.066,6.303,9.475,13.17,14.856,19.178 c11.819,13.196,26.492,13.051,38.192-0.29c4.953-5.648,9.1-11.998,13.727-17.94c7.412-9.52,16.964-15.078,29.246-15.402 c0,2.793,0,5.586,0,8.379c-10.982,1.667-18.567,8.25-24.897,16.871c-4.287,5.839-8.513,11.821-13.517,17.017 c-13.203,13.711-33.78,13.993-47.06,0.428c-6.208-6.341-11.15-13.907-16.819-20.792c-13.807-16.768-28.645-16.821-42.574-0.057 c-4.632,5.575-8.571,11.728-13.249,17.26c-15.469,18.296-38.879,18.082-54.058-0.414c-5.482-6.679-10.246-14.002-16.141-20.276 c-11.53-12.271-25.787-11.904-36.994,0.752c-5.35,6.041-9.733,12.929-14.926,19.122c-16.25,19.382-38.806,19.298-55.082-0.185 c-5.362-6.419-9.997-13.461-15.537-19.711c-10.807-12.194-26.489-11.871-37.028,0.581c-4.682,5.532-8.85,11.496-13.353,17.182 c-17.09,21.581-38.868,22.242-57.495,1.785c-1.477-1.622-2.943-3.253-4.662-5.154c-28.462,21.308-59.446,36.79-93.533,45.856 c-116.56,31.001-240.231-21.56-298.983-127.076c-17.577-31.568-28.528-65.267-32.489-101.217c-0.17-1.547-0.981-3.024-1.493-4.534 c0-17.317,0-34.635,0-51.952c1.044-5.376,2.322-10.719,3.097-16.133c15.094-105.468,98.46-195.534,202.441-218.505 c11.311-2.499,22.739-4.471,34.112-6.687C308.446,157.431,325.205,157.431,341.964,157.431z M451.065,449.55 c11.228,1.299,18.209,4.859,25.61,13.603c5.585,6.599,10.553,13.719,16.087,20.364c9.788,11.756,25.307,12.365,35.844,1.406 c3.468-3.607,6.192-7.924,9.603-11.594c6.227-6.7,12.046-14.066,19.321-19.404c4.958-3.638,6.797-7.193,7.105-12.817 c2.171-39.684-4.443-77.774-19.83-114.438c-43.636-103.976-155.498-166.747-265.114-148.619 c-138.428,22.893-230.536,151.82-205.894,290.52c30.921,174.042,227.233,263.779,379.441,164.611 c4.968-3.237,9.666-6.888,13.644-9.74c-2.381-9.67-19.824-3.701-15.864-20.315c9.148,4.275,17.254,8.063,26.17,12.229 c5.507-5.271,11.7-10.878,17.512-16.855c5.396-5.548,10.385-11.492,16.619-18.451c-17.693-1.299-26.004-13.223-35.342-24.462 c-5.892-7.091-13.278-13.343-21.056-18.307c-4.431-2.828-5.813-4.887-4.654-9.415c11.708,0.08,19.831,4.511,28.538,15.217 c5.97,7.341,11.34,15.361,18.235,21.715c10.284,9.476,20.33,7.546,27.783-4.108c13.151-20.563,23.419-42.481,30.002-66.006 c2.886-10.315,5.022-20.839,7.499-31.268c-0.731-0.361-1.462-0.723-2.193-1.084c-3.469,3.816-7.083,7.511-10.37,11.478 c-4.271,5.155-8,10.778-12.457,15.757c-15.132,16.904-36.654,16.938-51.768,0c-5.19-5.817-9.138-12.789-14.585-18.316 c-4.579-4.646-10.027-9.203-15.978-11.515C448.861,457.364,448.53,454.782,451.065,449.55z"/> <path d="M504.523,812.697c-13.273-4.353-21.193-14.723-28.867-25.465c-6.417-8.982-13.779-16.883-25.737-18.753 c0.241-2.716,0.431-4.853,0.626-7.058c1.07-0.284,1.87-0.753,2.586-0.648c9.832,1.44,17.861,6.15,24.027,13.869 c4.352,5.448,8.284,11.231,12.618,16.694c13.366,16.85,29.739,16.847,43.318-0.02c4.373-5.431,8.292-11.229,12.684-16.644 c14.917-18.391,37.675-18.797,53.256-0.826c5.475,6.315,10.153,13.317,15.55,19.705c11.581,13.707,26.877,13.952,38.72,0.489 c6.071-6.901,11.185-14.65,17.309-21.499c14.256-15.944,35.536-16.024,49.823-0.19c5.405,5.99,9.857,12.827,15.002,19.064 c13.924,16.883,29.533,16.778,43.158-0.217c4.711-5.877,8.963-12.143,13.914-17.802c15.09-17.245,37.403-17.039,52.174,0.466 c5.031,5.962,9.251,12.605,14.263,18.585c12.994,15.503,28.856,15.36,41.707-0.311c4.419-5.389,7.676-11.954,12.783-16.497 c6.29-5.596,13.788-9.946,21.178-14.1c1.487-0.836,4.825,1.62,7.31,2.559c0,1.676,0,3.352,0,5.028 c-12.958,0.317-20.086,9.324-26.748,18.515c-7.667,10.579-15.406,20.833-28.556,25.057c-5.028,0-10.055,0-15.083,0 c-11.826-5.143-19.978-14.274-27.103-24.633c-2.663-3.872-5.648-7.601-8.944-10.945c-10.085-10.233-23.85-10.326-33.976-0.114 c-4.082,4.117-7.799,8.695-11.103,13.465c-6.771,9.777-14.737,17.968-26.13,22.227c-5.028,0-10.055,0-15.083,0 c-12.256-5.027-20.753-14.181-27.734-25.068c-1.642-2.561-3.602-4.946-5.616-7.235c-13.049-14.833-28.371-14.613-41.031,0.561 c-1.779,2.133-3.579,4.279-5.091,6.599c-7.06,10.833-15.554,20.04-27.783,25.143c-5.028,0-10.055,0-15.083,0 c-11.744-4.349-19.781-12.95-26.659-22.983c-2.673-3.899-5.59-7.67-8.729-11.203c-10.367-11.67-24.941-12.145-35.86-1.037 c-3.886,3.954-7.48,8.3-10.597,12.883c-6.891,10.134-15.09,18.487-27.086,22.34C513.461,812.697,508.992,812.697,504.523,812.697z "/> <path d="M941.926,688.683c-16.666,6.51-25.883,20.877-36.829,33.785c-14.829,17.488-36.332,16.857-51.49-0.466 c-5.503-6.289-10.135-13.335-15.556-19.701c-11.968-14.056-27.095-14.173-39.344-0.242c-4.964,5.645-9.141,11.974-13.89,17.818 c-16.522,20.328-39.603,20.219-56.014-0.239c-4.886-6.092-9.201-12.682-14.438-18.444c-11.541-12.7-26.309-12.643-37.72,0.148 c-5.559,6.231-10.227,13.249-15.47,19.772c-14.036,17.461-36.287,18.602-51.598,2.322c-5.518-5.867-9.971-12.726-15.044-19.024 c-13.683-16.987-29.37-17.014-43.196-0.065c-5.112,6.267-9.638,13.055-15.116,18.971c-14.632,15.802-35.362,15.653-49.826-0.26 c-4.676-5.145-8.108-11.471-13.021-16.335c-5.437-5.383-11.355-10.898-18.128-14.117c-5.316-2.527-5.889-4.772-4.261-9.644 c8.757-0.19,15.83,3.554,21.411,9.627c6.782,7.379,12.909,15.363,19.261,23.134c10.573,12.934,26.272,13.957,37.632,1.91 c5.336-5.659,9.748-12.187,14.584-18.318c17.287-21.917,40.335-22.032,57.678-0.297c5.216,6.537,10.017,13.477,15.779,19.493 c10.036,10.478,24.022,10.409,34.035-0.163c5.73-6.05,10.508-13.005,15.687-19.575c16.514-20.951,39.936-21.216,56.631-0.568 c5.259,6.504,9.853,13.617,15.604,19.636c10.852,11.359,24.451,11.336,35.271-0.077c6.115-6.45,11.103-13.956,16.746-20.866 c14.697-17.998,37.239-18.642,52.821-1.269c5.202,5.8,9.391,12.494,14.372,18.507c13.656,16.482,30.359,15.972,43.194-1.143 c3.181-4.242,6.311-8.524,9.58-12.697c7.856-10.029,17.463-17.185,30.653-18.314C941.926,684.214,941.926,686.448,941.926,688.683 z"/> <path style="fill:#FFFFFF;" d="M221.922,378.133c0.955-6.173,1.582-11.968,2.779-17.642c3.785-17.942,15.814-26.695,33.615-22.148 c13.353,3.411,25.967,9.733,38.882,14.831c20.944,8.267,41.247,19.143,62.918,24.385c52.357,12.666,76.913-27.814,71.083-70.593 c-8.856,0-17.711,0-26.767,0c-0.702,4.991-1.306,9.649-2.02,14.289c-3.287,21.38-14.906,29.821-35.936,24.324 c-12.575-3.287-24.632-8.695-36.742-13.595c-19.864-8.038-39.101-17.988-59.478-24.312c-28.314-8.787-54.33,1.618-66.921,24.041 c-8.01,14.265-9.879,29.873-10.001,46.421C202.894,378.133,211.995,378.133,221.922,378.133z M332.757,580.113 c0-9.241,0-17.825,0-26.408c0-50.213,0.039-100.427-0.097-150.64c-0.008-3.049-0.564-8.073-2.305-8.818 c-10.788-4.62-21.987-8.28-33.513-12.425c0,66.862,0,132.34,0,198.291C308.591,580.113,319.942,580.113,332.757,580.113z"/> <path d="M221.922,378.133c-9.926,0-19.028,0-28.588,0c0.122-16.548,1.99-32.155,10.001-46.421 c12.591-22.423,38.607-32.828,66.921-24.041c20.377,6.324,39.614,16.274,59.478,24.312c12.11,4.9,24.166,10.308,36.742,13.595 c21.03,5.496,32.649-2.944,35.936-24.324c0.713-4.64,1.317-9.297,2.02-14.289c9.056,0,17.912,0,26.769-0.001 c5.828,42.78-18.728,83.259-71.085,70.593c-21.67-5.242-41.974-16.118-62.918-24.385c-12.915-5.098-25.53-11.42-38.882-14.831 c-17.801-4.547-29.83,4.206-33.615,22.148C223.504,366.165,222.877,371.96,221.922,378.133z"/> <path d="M332.757,580.113c-12.815,0-24.165,0-35.915,0c0-65.951,0-131.429,0-198.291c11.526,4.145,22.725,7.804,33.513,12.425 c1.74,0.745,2.296,5.769,2.305,8.818c0.136,50.213,0.097,100.427,0.097,150.64C332.757,562.288,332.757,570.872,332.757,580.113z"/> </g> <g> <linearGradient id="SVGID_1_" gradientUnits="userSpaceOnUse" x1="77.0376" y1="399.0642" x2="966.9259" y2="399.0642" gradientTransform="matrix(1 0 0 1 -25 86)"> <stop offset="0" style="stop-color:#6C009A"/> <stop offset="0.0728" style="stop-color:#7506A1"/> <stop offset="0.1939" style="stop-color:#8F15B6"/> <stop offset="0.3483" style="stop-color:#B82ED7"/> <stop offset="0.5069" style="stop-color:#EA4CFE"/> <stop offset="0.9944" style="stop-color:#6C009A"/> </linearGradient> <path style="fill:url(#SVGID_1_);" d="M341.964,157.431c11.404,2.154,22.882,3.976,34.2,6.513 c103.12,23.114,184.532,108.058,201.795,212.166c3.708,22.359,2.802,45.477,4.205,68.235c0.145,2.357,0.917,5.259,2.478,6.845 c7.353,7.47,15.094,14.557,22.662,21.817c0.795,0.763,1.361,1.765,2.035,2.654c17.778,23.423,32.606,23.276,50.175-0.378 c3.82-5.144,7.659-10.36,12.12-14.927c14.514-14.857,36.628-13.994,50.087,1.907c5.041,5.955,9.276,12.587,14.222,18.63 c13.15,16.067,29.091,15.974,42.134-0.185c4.73-5.859,8.873-12.207,13.773-17.911c14.679-17.086,36.324-17.625,51.717-1.095 c5.872,6.306,10.546,13.711,16.188,20.251c13.109,15.195,29.279,14.341,41.434-1.689c5.55-7.32,10.615-15.516,17.683-21.026 c6.429-5.012,15.274-6.926,23.054-10.205c0,2.793,0,5.586,0,8.379c-12.195,2.746-20.636,10.442-27.269,20.579 c-1.526,2.331-3.274,4.519-4.956,6.745c-17.459,23.102-41.42,23.436-59.37,0.84c-5.03-6.332-9.633-13.078-15.213-18.883 c-10.184-10.593-23.876-10.531-33.889,0.218c-6.253,6.712-11.305,14.525-17.279,21.517c-15.829,18.526-38.249,18.466-54.028-0.101 c-4.15-4.883-7.698-10.273-11.674-15.311c-14.888-18.863-30.427-18.888-45.192-0.087c-4.136,5.267-7.847,10.892-12.236,15.933 c-15.681,18.015-38.104,17.85-53.46-0.35c-4.494-5.326-8.263-11.27-12.837-16.519c-3.704-4.251-8.118-7.883-13.079-12.61 c-2.879,12.921-4.974,24.076-7.908,35.006c-2.977,11.088-6.782,21.955-10.586,34.07c21.997-4.291,34.749,7.152,45.067,23.232 c2.248,3.503,4.913,6.819,7.809,9.812c11.679,12.069,25.9,11.987,37.141-0.518c5.393-5.999,9.809-12.864,14.933-19.118 c16.001-19.528,39.944-19.339,55.73,0.396c5.052,6.316,9.465,13.196,14.922,19.126c11.306,12.287,26.003,12.112,37.127-0.314 c5.01-5.596,9.147-11.964,13.837-17.857c16.983-21.339,41.085-21.23,57.841,0.255c4.289,5.5,8.081,11.413,12.634,16.675 c11.61,13.419,26.16,13.841,38.19,0.907c5.488-5.901,9.886-12.8,15.065-19.006c7.425-8.898,16.323-15.134,28.68-14.249 c0,2.234,0,4.469,0,6.703c-14.504,4.333-23.666,14.889-31.568,26.969c-1.366,2.088-3.105,3.948-4.785,5.813 c-15.656,17.381-38.929,16.641-53.495-1.757c-4.674-5.903-8.844-12.222-13.723-17.941c-12.617-14.788-27.999-14.628-40.436,0.337 c-5.166,6.216-9.627,13.03-14.931,19.116c-15.081,17.307-37.102,17.263-52.225-0.116c-5.484-6.302-10.085-13.365-15.463-19.766 c-11.804-14.049-27.32-14.112-39.27-0.117c-5.246,6.143-9.693,12.967-14.905,19.142c-15.354,18.193-37.909,18.374-53.393,0.397 c-5.271-6.12-9.713-12.952-14.952-19.102c-13.678-16.056-30.241-13.643-41.596,3.841c-13.161,20.264-27.89,39.553-42.671,58.7 c-6.177,8.001-14.244,14.543-21.349,21.647c14.691,21.557,32.229,22.058,47.494,1.906c3.874-5.114,7.457-10.471,11.605-15.35 c14.736-17.333,37.123-17.685,52.31-0.67c5.745,6.436,10.514,13.735,16.092,20.332c11.638,13.763,26.747,13.958,38.622,0.39 c6.053-6.916,11.081-14.748,17.296-21.501c14.938-16.229,36.596-15.684,51.046,1.094c5.819,6.756,10.784,14.254,16.686,20.93 c11.334,12.821,26.36,12.715,37.504-0.194c5.644-6.537,10.418-13.826,16.07-20.356c15.647-18.079,39.039-17.543,54.02,1.097 c5.066,6.303,9.475,13.17,14.856,19.178c11.819,13.196,26.492,13.051,38.192-0.29c4.953-5.648,9.1-11.998,13.727-17.94 c7.412-9.52,16.964-15.078,29.246-15.402c0,2.793,0,5.586,0,8.379c-10.982,1.667-18.567,8.25-24.897,16.871 c-4.287,5.839-8.513,11.821-13.517,17.017c-13.203,13.711-33.78,13.993-47.06,0.428c-6.208-6.341-11.15-13.907-16.819-20.792 c-13.807-16.768-28.645-16.821-42.574-0.057c-4.632,5.575-8.571,11.728-13.249,17.26c-15.469,18.296-38.879,18.082-54.058-0.414 c-5.482-6.679-10.246-14.002-16.141-20.276c-11.53-12.271-25.787-11.904-36.994,0.752c-5.35,6.041-9.733,12.929-14.926,19.122 c-16.25,19.382-38.806,19.298-55.082-0.185c-5.362-6.419-9.997-13.461-15.537-19.711c-10.807-12.194-26.489-11.871-37.028,0.581 c-4.682,5.532-8.85,11.496-13.353,17.182c-17.09,21.581-38.868,22.242-57.495,1.785c-1.477-1.622-2.943-3.253-4.662-5.154 c-28.462,21.308-59.446,36.79-93.533,45.856c-116.56,31.001-240.231-21.56-298.983-127.076 c-17.577-31.568-28.528-65.267-32.489-101.217c-0.17-1.547-0.981-3.024-1.493-4.534c0-17.317,0-34.635,0-51.952 c1.044-5.376,2.322-10.719,3.097-16.133c15.094-105.468,98.46-195.534,202.441-218.505c11.311-2.499,22.739-4.471,34.112-6.687 C308.446,157.431,325.205,157.431,341.964,157.431z M451.065,449.55c11.228,1.299,18.209,4.859,25.61,13.603 c5.585,6.599,10.553,13.719,16.087,20.364c9.788,11.756,25.307,12.365,35.844,1.406c3.468-3.607,6.192-7.924,9.603-11.594 c6.227-6.7,12.046-14.066,19.321-19.404c4.958-3.638,6.797-7.193,7.105-12.817c2.171-39.684-4.443-77.774-19.83-114.438 c-43.636-103.976-155.498-166.747-265.114-148.619c-138.428,22.893-230.536,151.82-205.894,290.52 c30.921,174.042,227.233,263.779,379.441,164.611c4.968-3.237,9.666-6.888,13.644-9.74c-2.381-9.67-19.824-3.701-15.864-20.315 c9.148,4.275,17.254,8.063,26.17,12.229c5.507-5.271,11.7-10.878,17.512-16.855c5.396-5.548,10.385-11.492,16.619-18.451 c-17.693-1.299-26.004-13.223-35.342-24.462c-5.892-7.091-13.278-13.343-21.056-18.307c-4.431-2.828-5.813-4.887-4.654-9.415 c11.708,0.08,19.831,4.511,28.538,15.217c5.97,7.341,11.34,15.361,18.235,21.715c10.284,9.476,20.33,7.546,27.783-4.108 c13.151-20.563,23.419-42.481,30.002-66.006c2.886-10.315,5.022-20.839,7.499-31.268c-0.731-0.361-1.462-0.723-2.193-1.084 c-3.469,3.816-7.083,7.511-10.37,11.478c-4.271,5.155-8,10.778-12.457,15.757c-15.132,16.904-36.654,16.938-51.768,0 c-5.19-5.817-9.138-12.789-14.585-18.316c-4.579-4.646-10.027-9.203-15.978-11.515C448.861,457.364,448.53,454.782,451.065,449.55 z"/> <linearGradient id="SVGID_2_" gradientUnits="userSpaceOnUse" x1="77.0376" y1="399.0642" x2="966.9259" y2="399.0642" gradientTransform="matrix(1 0 0 1 -25 86)"> <stop offset="0" style="stop-color:#6C009A"/> <stop offset="0.0728" style="stop-color:#7506A1"/> <stop offset="0.1939" style="stop-color:#8F15B6"/> <stop offset="0.3483" style="stop-color:#B82ED7"/> <stop offset="0.5069" style="stop-color:#EA4CFE"/> <stop offset="0.9944" style="stop-color:#6C009A"/> </linearGradient> <path style="fill:url(#SVGID_2_);" d="M504.523,812.697c-13.273-4.353-21.193-14.723-28.867-25.465 c-6.417-8.982-13.779-16.883-25.737-18.753c0.241-2.716,0.431-4.853,0.626-7.058c1.07-0.284,1.87-0.753,2.586-0.648 c9.832,1.44,17.861,6.15,24.027,13.869c4.352,5.448,8.284,11.231,12.618,16.694c13.366,16.85,29.739,16.847,43.318-0.02 c4.373-5.431,8.292-11.229,12.684-16.644c14.917-18.391,37.675-18.797,53.256-0.826c5.475,6.315,10.153,13.317,15.55,19.705 c11.581,13.707,26.877,13.952,38.72,0.489c6.071-6.901,11.185-14.65,17.309-21.499c14.256-15.944,35.536-16.024,49.823-0.19 c5.405,5.99,9.857,12.827,15.002,19.064c13.924,16.883,29.533,16.778,43.158-0.217c4.711-5.877,8.963-12.143,13.914-17.802 c15.09-17.245,37.403-17.039,52.174,0.466c5.031,5.962,9.251,12.605,14.263,18.585c12.994,15.503,28.856,15.36,41.707-0.311 c4.419-5.389,7.676-11.954,12.783-16.497c6.29-5.596,13.788-9.946,21.178-14.1c1.487-0.836,4.825,1.62,7.31,2.559 c0,1.676,0,3.352,0,5.028c-12.958,0.317-20.086,9.324-26.748,18.515c-7.667,10.579-15.406,20.833-28.556,25.057 c-5.028,0-10.055,0-15.083,0c-11.826-5.143-19.978-14.274-27.103-24.633c-2.663-3.872-5.648-7.601-8.944-10.945 c-10.085-10.233-23.85-10.326-33.976-0.114c-4.082,4.117-7.799,8.695-11.103,13.465c-6.771,9.777-14.737,17.968-26.13,22.227 c-5.028,0-10.055,0-15.083,0c-12.256-5.027-20.753-14.181-27.734-25.068c-1.642-2.561-3.602-4.946-5.616-7.235 c-13.049-14.833-28.371-14.613-41.031,0.561c-1.779,2.133-3.579,4.279-5.091,6.599c-7.06,10.833-15.554,20.04-27.783,25.143 c-5.028,0-10.055,0-15.083,0c-11.744-4.349-19.781-12.95-26.659-22.983c-2.673-3.899-5.59-7.67-8.729-11.203 c-10.367-11.67-24.941-12.145-35.86-1.037c-3.886,3.954-7.48,8.3-10.597,12.883c-6.891,10.134-15.09,18.487-27.086,22.34 C513.461,812.697,508.992,812.697,504.523,812.697z"/> <linearGradient id="SVGID_3_" gradientUnits="userSpaceOnUse" x1="77.0376" y1="399.0642" x2="966.9259" y2="399.0642" gradientTransform="matrix(1 0 0 1 -25 86)"> <stop offset="0" style="stop-color:#6C009A"/> <stop offset="0.0728" style="stop-color:#7506A1"/> <stop offset="0.1939" style="stop-color:#8F15B6"/> <stop offset="0.3483" style="stop-color:#B82ED7"/> <stop offset="0.5069" style="stop-color:#EA4CFE"/> <stop offset="0.9944" style="stop-color:#6C009A"/> </linearGradient> <path style="fill:url(#SVGID_3_);" d="M941.926,688.683c-16.666,6.51-25.883,20.877-36.829,33.785 c-14.829,17.488-36.332,16.857-51.49-0.466c-5.503-6.289-10.135-13.335-15.556-19.701c-11.968-14.056-27.095-14.173-39.344-0.242 c-4.964,5.645-9.141,11.974-13.89,17.818c-16.522,20.328-39.603,20.219-56.014-0.239c-4.886-6.092-9.201-12.682-14.438-18.444 c-11.541-12.7-26.309-12.643-37.72,0.148c-5.559,6.231-10.227,13.249-15.47,19.772c-14.036,17.461-36.287,18.602-51.598,2.322 c-5.518-5.867-9.971-12.726-15.044-19.024c-13.683-16.987-29.37-17.014-43.196-0.065c-5.112,6.267-9.638,13.055-15.116,18.971 c-14.632,15.802-35.362,15.653-49.826-0.26c-4.676-5.145-8.108-11.471-13.021-16.335c-5.437-5.383-11.355-10.898-18.128-14.117 c-5.316-2.527-5.889-4.772-4.261-9.644c8.757-0.19,15.83,3.554,21.411,9.627c6.782,7.379,12.909,15.363,19.261,23.134 c10.573,12.934,26.272,13.957,37.632,1.91c5.336-5.659,9.748-12.187,14.584-18.318c17.287-21.917,40.335-22.032,57.678-0.297 c5.216,6.537,10.017,13.477,15.779,19.493c10.036,10.478,24.022,10.409,34.035-0.163c5.73-6.05,10.508-13.005,15.687-19.575 c16.514-20.951,39.936-21.216,56.631-0.568c5.259,6.504,9.853,13.617,15.604,19.636c10.852,11.359,24.451,11.336,35.271-0.077 c6.115-6.45,11.103-13.956,16.746-20.866c14.697-17.998,37.239-18.642,52.821-1.269c5.202,5.8,9.391,12.494,14.372,18.507 c13.656,16.482,30.359,15.972,43.194-1.143c3.181-4.242,6.311-8.524,9.58-12.697c7.856-10.029,17.463-17.185,30.653-18.314 C941.926,684.214,941.926,686.448,941.926,688.683z"/> <linearGradient id="SVGID_4_" gradientUnits="userSpaceOnUse" x1="77.0376" y1="399.0642" x2="966.9259" y2="399.0642" gradientTransform="matrix(1 0 0 1 -25 86)"> <stop offset="0" style="stop-color:#6C009A"/> <stop offset="0.0728" style="stop-color:#7506A1"/> <stop offset="0.1939" style="stop-color:#8F15B6"/> <stop offset="0.3483" style="stop-color:#B82ED7"/> <stop offset="0.5069" style="stop-color:#EA4CFE"/> <stop offset="0.9944" style="stop-color:#6C009A"/> </linearGradient> <path style="fill:url(#SVGID_4_);" d="M221.922,378.133c0.955-6.173,1.582-11.968,2.779-17.642 c3.785-17.942,15.814-26.695,33.615-22.148c13.353,3.411,25.967,9.733,38.882,14.831c20.944,8.267,41.247,19.143,62.918,24.385 c52.357,12.666,76.913-27.814,71.083-70.593c-8.856,0-17.711,0-26.767,0c-0.702,4.991-1.306,9.649-2.02,14.289 c-3.287,21.38-14.906,29.821-35.936,24.324c-12.575-3.287-24.632-8.695-36.742-13.595c-19.864-8.038-39.101-17.988-59.478-24.312 c-28.314-8.787-54.33,1.618-66.921,24.041c-8.01,14.265-9.879,29.873-10.001,46.421 C202.894,378.133,211.995,378.133,221.922,378.133z M332.757,580.113c0-9.241,0-17.825,0-26.408 c0-50.213,0.039-100.427-0.097-150.64c-0.008-3.049-0.564-8.073-2.305-8.818c-10.788-4.62-21.987-8.28-33.513-12.425 c0,66.862,0,132.34,0,198.291C308.591,580.113,319.942,580.113,332.757,580.113z"/> <linearGradient id="SVGID_5_" gradientUnits="userSpaceOnUse" x1="77.0376" y1="399.0642" x2="966.9259" y2="399.0642" gradientTransform="matrix(1 0 0 1 -25 86)"> <stop offset="0" style="stop-color:#6C009A"/> <stop offset="0.0728" style="stop-color:#7506A1"/> <stop offset="0.1939" style="stop-color:#8F15B6"/> <stop offset="0.3483" style="stop-color:#B82ED7"/> <stop offset="0.5069" style="stop-color:#EA4CFE"/> <stop offset="0.9944" style="stop-color:#6C009A"/> </linearGradient> <path style="fill:url(#SVGID_5_);" d="M221.922,378.133c-9.926,0-19.028,0-28.588,0c0.122-16.548,1.99-32.155,10.001-46.421 c12.591-22.423,38.607-32.828,66.921-24.041c20.377,6.324,39.614,16.274,59.478,24.312c12.11,4.9,24.166,10.308,36.742,13.595 c21.03,5.496,32.649-2.944,35.936-24.324c0.713-4.64,1.317-9.297,2.02-14.289c9.056,0,17.912,0,26.769-0.001 c5.828,42.78-18.728,83.259-71.085,70.593c-21.67-5.242-41.974-16.118-62.918-24.385c-12.915-5.098-25.53-11.42-38.882-14.831 c-17.801-4.547-29.83,4.206-33.615,22.148C223.504,366.165,222.877,371.96,221.922,378.133z"/> <linearGradient id="SVGID_6_" gradientUnits="userSpaceOnUse" x1="77.0376" y1="399.0642" x2="966.9259" y2="399.0642" gradientTransform="matrix(1 0 0 1 -25 86)"> <stop offset="0" style="stop-color:#6C009A"/> <stop offset="0.0728" style="stop-color:#7506A1"/> <stop offset="0.1939" style="stop-color:#8F15B6"/> <stop offset="0.3483" style="stop-color:#B82ED7"/> <stop offset="0.5069" style="stop-color:#EA4CFE"/> <stop offset="0.9944" style="stop-color:#6C009A"/> </linearGradient> <path style="fill:url(#SVGID_6_);" d="M332.757,580.113c-12.815,0-24.165,0-35.915,0c0-65.951,0-131.429,0-198.291 c11.526,4.145,22.725,7.804,33.513,12.425c1.74,0.745,2.296,5.769,2.305,8.818c0.136,50.213,0.097,100.427,0.097,150.64 C332.757,562.288,332.757,570.872,332.757,580.113z"/> </g> </g> <g> </g> <g> </g> <g> </g> <g> </g> <g> </g> <g> </g> <g> </g> <g> </g> <g> </g> <g> </g> <g> </g> <g> </g> <g> </g> <g> </g> <g> </g> </svg>