<?xml version="1.0" encoding="UTF-8"?>
<!-- Generator: Adobe Illustrator 18.0.0, SVG Export Plug-In . SVG Version: 6.00 Build 0) -->
<svg xmlns="http://www.w3.org/2000/svg" xmlns:xlink="http://www.w3.org/1999/xlink" x="0px" y="0px" viewBox="0 0 640 280" style="enable-background:new 0 0 640 280;" xml:space="preserve"><script xmlns="" type="text/javascript" charset="utf-8" id="zm-extension"/> <g id="Layer_1" style="display:none;"> <g style="display:inline;"> <g> <path d="M53.247,70.499c-6.577,0-12.029-2.185-16.358-6.556c-4.33-4.371-6.493-9.802-6.493-16.295 c0-6.494,2.164-11.925,6.493-16.296c4.329-4.37,9.781-6.556,16.358-6.556c4.037,0,7.762,0.958,11.176,2.872 c3.413,1.915,6.077,4.496,7.992,7.742l-10.864,6.243c-0.708-1.415-1.811-2.538-3.309-3.371c-1.498-0.833-3.164-1.249-4.995-1.249 c-3.081,0-5.578,0.999-7.492,2.997c-1.915,1.998-2.872,4.537-2.872,7.617c0,3.081,0.957,5.619,2.872,7.617 c1.914,1.998,4.412,2.997,7.492,2.997c1.873,0,3.548-0.416,5.026-1.249c1.477-0.833,2.57-1.977,3.278-3.434l10.864,6.244 c-1.915,3.289-4.579,5.89-7.992,7.804C61.009,69.541,57.284,70.499,53.247,70.499z"/> <path d="M91.27,70.374c-4.662,0-8.627-1.581-11.894-4.745c-3.268-3.163-4.901-7.076-4.901-11.738 c0-4.661,1.623-8.574,4.87-11.738c3.247-3.163,7.221-4.745,11.925-4.745c4.703,0,8.678,1.583,11.925,4.745 c3.247,3.164,4.87,7.077,4.87,11.738c0,4.662-1.624,8.575-4.87,11.738C99.948,68.793,95.973,70.374,91.27,70.374z M87.493,57.856 c0.978,1.021,2.237,1.53,3.777,1.53c1.54,0,2.799-0.509,3.777-1.53c0.978-1.02,1.467-2.341,1.467-3.965 c0-1.623-0.49-2.944-1.467-3.964c-0.979-1.02-2.238-1.53-3.777-1.53c-1.541,0-2.8,0.51-3.777,1.53 c-0.979,1.021-1.467,2.341-1.467,3.964C86.025,55.515,86.514,56.836,87.493,57.856z"/> <path d="M130.916,53.517c3.205,1.541,4.808,4.038,4.808,7.492c0,2.789-1.239,5.068-3.715,6.837 c-2.477,1.769-5.734,2.653-9.771,2.653c-3.331,0-6.15-0.573-8.46-1.717c-2.311-1.145-4.152-3.091-5.526-5.838l8.679-5.057 c0.999,2.248,2.601,3.372,4.808,3.372c0.582,0,1.124-0.146,1.623-0.438c0.5-0.291,0.75-0.707,0.75-1.249 c0-1.124-0.708-1.686-2.123-1.686h-3.122v-8.366h3.122c0.416,0,0.78-0.166,1.093-0.5c0.312-0.333,0.468-0.708,0.468-1.124 c0-1.165-0.812-1.748-2.435-1.748c-1.915,0-3.206,1.061-3.871,3.184l-8.678-4.62c1.581-2.623,3.454-4.496,5.619-5.619 c2.164-1.124,4.89-1.686,8.179-1.686c3.58,0,6.545,0.896,8.897,2.685c2.351,1.79,3.528,3.996,3.528,6.618 C134.787,49.792,133.497,52.06,130.916,53.517z"/> <path d="M170.062,58.511h4.059v19.355h-10.926V69.5H148.21v8.366h-10.926V58.511h3.497c1.498-2.455,2.248-5.931,2.248-10.426 v-9.802h27.034V58.511z M152.58,58.511h6.244v-9.989h-4.558C154.224,52.477,153.662,55.806,152.58,58.511z"/> <path d="M197.908,38.283h11.551V69.5h-11.551v-2.81c-1.998,2.457-4.787,3.684-8.366,3.684c-4.205,0-7.639-1.561-10.302-4.683 c-2.664-3.122-3.996-7.055-3.996-11.8s1.332-8.678,3.996-11.8c2.663-3.122,6.097-4.683,10.302-4.683 c3.58,0,6.369,1.229,8.366,3.684V38.283z M188.324,58.074c1.02,1.124,2.362,1.686,4.027,1.686c1.665,0,3.007-0.562,4.027-1.686 c1.019-1.124,1.529-2.518,1.529-4.183c0-1.664-0.51-3.059-1.529-4.183c-1.021-1.124-2.363-1.686-4.027-1.686 c-1.665,0-3.007,0.562-4.027,1.686c-1.021,1.124-1.53,2.519-1.53,4.183C186.794,55.557,187.304,56.951,188.324,58.074z"/> <path d="M233.495,38.283h11.55V69.5h-11.55V59.386h-7.492V69.5h-11.55V38.283h11.55v10.114h7.492V38.283z"/> <path d="M271.955,38.283h9.303V69.5h-11.238V56.077L259.343,69.5h-9.303V38.283h11.238v13.423L271.955,38.283z"/> <path d="M296.428,57.825c0.999,2.082,3.122,3.122,6.368,3.122c1.914,0,3.684-0.665,5.307-1.998l7.555,6.369 c-3.122,3.372-7.534,5.057-13.236,5.057c-5.329,0-9.605-1.55-12.831-4.651c-3.226-3.1-4.838-7.002-4.838-11.707 c0-4.745,1.57-8.699,4.714-11.863c3.142-3.163,7.106-4.745,11.894-4.745c4.745,0,8.647,1.551,11.707,4.651 c3.06,3.102,4.589,7.004,4.589,11.707c0,1.374-0.167,2.727-0.499,4.058H296.428z M296.241,50.395h10.489 c-0.708-2.498-2.394-3.746-5.057-3.746C298.966,46.649,297.156,47.897,296.241,50.395z"/> <path d="M348.873,70.374c-4.787,0-8.763-1.571-11.925-4.714c-3.164-3.142-4.745-7.065-4.745-11.769 c0-4.703,1.581-8.625,4.745-11.769c3.162-3.142,7.138-4.714,11.925-4.714c3.08,0,5.9,0.74,8.46,2.217 c2.56,1.478,4.526,3.465,5.9,5.962l-9.74,5.557c-1.041-1.748-2.581-2.622-4.62-2.622c-1.457,0-2.675,0.51-3.652,1.529 c-0.979,1.021-1.468,2.301-1.468,3.84c0,1.541,0.489,2.82,1.468,3.84c0.978,1.021,2.195,1.53,3.652,1.53 c2.164,0,3.704-0.895,4.62-2.685l9.74,5.619c-1.374,2.539-3.341,4.537-5.9,5.994S351.953,70.374,348.873,70.374z"/> <path d="M386.709,38.283h11.55V69.5h-11.55v-2.81c-1.998,2.457-4.787,3.684-8.366,3.684c-4.205,0-7.639-1.561-10.302-4.683 c-2.665-3.122-3.996-7.055-3.996-11.8s1.331-8.678,3.996-11.8c2.663-3.122,6.097-4.683,10.302-4.683 c3.579,0,6.368,1.229,8.366,3.684V38.283z M377.125,58.074c1.02,1.124,2.361,1.686,4.027,1.686c1.664,0,3.006-0.562,4.026-1.686 c1.02-1.124,1.53-2.518,1.53-4.183c0-1.664-0.511-3.059-1.53-4.183c-1.021-1.124-2.362-1.686-4.026-1.686 c-1.666,0-3.008,0.562-4.027,1.686c-1.021,1.124-1.53,2.519-1.53,4.183C375.595,55.557,376.104,56.951,377.125,58.074z"/> <path d="M425.168,38.283h9.303V69.5h-11.238V56.077L412.556,69.5h-9.303V38.283h11.238v13.423L425.168,38.283z M407.936,35.223 v-9.365h21.853v9.365H407.936z"/> <path d="M466,38.283v10.988h-8.491V69.5h-11.613V49.271h-8.615V38.283H466z"/> <path d="M483.605,70.374c-4.662,0-8.627-1.581-11.894-4.745c-3.269-3.163-4.901-7.076-4.901-11.738 c0-4.661,1.623-8.574,4.87-11.738c3.246-3.163,7.221-4.745,11.925-4.745c4.703,0,8.679,1.583,11.925,4.745 c3.247,3.164,4.87,7.077,4.87,11.738c0,4.662-1.623,8.575-4.87,11.738C492.284,68.793,488.309,70.374,483.605,70.374z M479.828,57.856c0.978,1.021,2.237,1.53,3.777,1.53c1.539,0,2.799-0.509,3.777-1.53c0.978-1.02,1.467-2.341,1.467-3.965 c0-1.623-0.489-2.944-1.467-3.964c-0.979-1.02-2.238-1.53-3.777-1.53c-1.54,0-2.8,0.51-3.777,1.53 c-0.979,1.021-1.468,2.341-1.468,3.964C478.36,55.515,478.85,56.836,479.828,57.856z"/> <path d="M528.809,53.579c3.038,1.374,4.558,3.643,4.558,6.805c0,2.831-0.947,5.058-2.841,6.681 c-1.895,1.624-4.693,2.435-8.397,2.435h-18.106V38.283h17.17c3.704,0,6.503,0.802,8.397,2.403 c1.894,1.603,2.841,3.819,2.841,6.649C532.43,50.083,531.222,52.165,528.809,53.579z M519.068,46.336h-3.809v3.871h3.809 c1.415,0,2.123-0.625,2.123-1.873C521.191,47.003,520.483,46.336,519.068,46.336z M519.631,61.446 c1.414,0,2.122-0.665,2.122-1.998c0-1.249-0.708-1.873-2.122-1.873h-4.371v3.871H519.631z"/> <path d="M61.613,133.434h4.059v19.354H54.746v-8.366H39.761v8.366H28.835v-19.354h3.497c1.498-2.456,2.248-5.932,2.248-10.427 v-9.802h27.034V133.434z M44.131,133.434h6.244v-9.99h-4.558C45.775,127.398,45.213,130.729,44.131,133.434z"/> <path d="M100.759,113.205v31.217h-11.55v-20.229h-5.62v7.306c0,5.078-1.27,8.647-3.808,10.707 c-2.54,2.061-6.618,2.799-12.237,2.217v-10.614c1.539,0.417,2.674,0.24,3.402-0.53c0.728-0.77,1.093-2.195,1.093-4.277v-15.795 H100.759z"/> <path d="M134.536,113.205v31.217h-11.55v-8.741h-0.812l-5.495,8.741h-13.111l7.305-10.614c-3.372-2.122-5.057-5.14-5.057-9.053 c0-3.579,1.092-6.399,3.278-8.46c2.185-2.061,5.171-3.09,8.959-3.09H134.536z M119.489,122.57c-1.623,0-2.435,0.729-2.435,2.185 c0,1.457,0.812,2.186,2.435,2.186h3.497v-4.371H119.489z"/> <path d="M176.803,128.501c3.038,1.373,4.558,3.643,4.558,6.806c0,2.831-0.947,5.057-2.841,6.681 c-1.895,1.623-4.693,2.435-8.397,2.435h-18.106v-31.217h17.169c3.704,0,6.503,0.802,8.397,2.403 c1.894,1.603,2.841,3.819,2.841,6.649C180.424,125.005,179.217,127.086,176.803,128.501z M167.063,121.258h-3.809v3.872h3.809 c1.415,0,2.123-0.625,2.123-1.874C169.186,121.925,168.478,121.258,167.063,121.258z M167.625,136.368 c1.415,0,2.123-0.666,2.123-1.998c0-1.249-0.708-1.873-2.123-1.873h-4.37v3.871H167.625z"/> <path d="M206.084,113.205h11.551v31.217h-11.551v-2.81c-1.998,2.456-4.787,3.684-8.366,3.684c-4.205,0-7.639-1.561-10.302-4.683 c-2.664-3.122-3.996-7.055-3.996-11.8c0-4.746,1.332-8.679,3.996-11.801c2.663-3.122,6.097-4.683,10.302-4.683 c3.58,0,6.369,1.229,8.366,3.684V113.205z M196.501,132.996c1.02,1.124,2.362,1.686,4.027,1.686c1.665,0,3.007-0.562,4.027-1.686 c1.019-1.124,1.529-2.518,1.529-4.183s-0.51-3.06-1.529-4.184c-1.021-1.124-2.363-1.686-4.027-1.686 c-1.665,0-3.007,0.562-4.027,1.686c-1.021,1.124-1.53,2.519-1.53,4.184S195.48,131.872,196.501,132.996z"/> <path d="M257.905,113.205h11.55v31.217h-46.826v-31.217h11.55v20.229h6.244v-20.229h11.238v20.229h6.244V113.205z"/> <path d="M284.626,132.746c0.999,2.082,3.122,3.122,6.368,3.122c1.914,0,3.684-0.665,5.307-1.998l7.555,6.368 c-3.122,3.372-7.534,5.058-13.236,5.058c-5.329,0-9.605-1.55-12.831-4.651c-3.226-3.101-4.838-7.003-4.838-11.707 c0-4.745,1.57-8.698,4.714-11.862c3.142-3.163,7.106-4.745,11.894-4.745c4.745,0,8.647,1.551,11.707,4.651 c3.06,3.102,4.589,7.004,4.589,11.707c0,1.373-0.167,2.727-0.499,4.058H284.626z M284.439,125.316h10.489 c-0.708-2.497-2.394-3.746-5.057-3.746C287.165,121.571,285.354,122.819,284.439,125.316z"/> <path d="M332.39,113.205v10.988h-11.551v20.229h-11.551v-31.217H332.39z"/> <path d="M350.309,145.296c-4.662,0-8.627-1.581-11.894-4.745c-3.269-3.163-4.901-7.075-4.901-11.737s1.623-8.574,4.87-11.738 c3.246-3.163,7.221-4.745,11.925-4.745c4.703,0,8.679,1.583,11.925,4.745c3.247,3.164,4.87,7.076,4.87,11.738 s-1.623,8.574-4.87,11.737C358.987,143.715,355.012,145.296,350.309,145.296z M346.531,132.777 c0.978,1.021,2.237,1.53,3.777,1.53c1.539,0,2.799-0.51,3.777-1.53c0.978-1.02,1.467-2.341,1.467-3.964 c0-1.624-0.489-2.944-1.467-3.965c-0.979-1.02-2.238-1.53-3.777-1.53c-1.54,0-2.8,0.51-3.777,1.53 c-0.979,1.021-1.468,2.341-1.468,3.965C345.063,130.437,345.553,131.758,346.531,132.777z"/> <path d="M399.443,145.421c-5.328,0-9.574-1.581-12.736-4.745c-3.164-3.163-4.745-7.45-4.745-12.861 c0-5.203,0.905-9.417,2.716-12.644c1.811-3.225,4.609-5.753,8.397-7.586c4.203-2.039,7.055-3.579,8.554-4.62 c1.498-1.04,2.58-2.331,3.246-3.871l9.303,5.307c-0.666,2.248-1.801,4.007-3.402,5.276c-1.603,1.27-4.069,2.591-7.398,3.965 c-2.956,1.208-5.037,2.196-6.243,2.965c-1.208,0.771-2.103,1.739-2.686,2.903c1.998-1.623,4.517-2.435,7.555-2.435 c3.746,0,6.982,1.26,9.709,3.777c2.726,2.519,4.09,5.838,4.09,9.959c0,4.245-1.479,7.741-4.434,10.488 C408.412,144.047,404.438,145.421,399.443,145.421z M399.193,135.743c1.457,0,2.663-0.446,3.621-1.342 c0.957-0.895,1.437-2.029,1.437-3.403c0-1.414-0.5-2.58-1.498-3.496c-0.999-0.915-2.228-1.374-3.685-1.374 c-1.373,0-2.57,0.428-3.59,1.28c-1.021,0.854-1.529,1.988-1.529,3.403c0,1.457,0.499,2.644,1.498,3.559 C396.446,135.286,397.695,135.743,399.193,135.743z"/> <path d="M440.838,113.205h9.303v31.217h-11.238v-13.424l-10.677,13.424h-9.303v-31.217h11.238v13.423L440.838,113.205z"/> <path d="M475.613,128.438c3.204,1.54,4.807,4.038,4.807,7.492c0,2.789-1.238,5.068-3.715,6.837s-5.734,2.653-9.771,2.653 c-3.331,0-6.15-0.572-8.46-1.717c-2.311-1.145-4.152-3.091-5.525-5.838l8.678-5.058c0.999,2.248,2.602,3.372,4.808,3.372 c0.583,0,1.124-0.146,1.624-0.438c0.499-0.29,0.749-0.707,0.749-1.248c0-1.124-0.708-1.687-2.123-1.687h-3.122v-8.366h3.122 c0.416,0,0.78-0.166,1.093-0.499s0.468-0.708,0.468-1.124c0-1.165-0.812-1.748-2.435-1.748c-1.915,0-3.206,1.061-3.871,3.184 l-8.679-4.62c1.582-2.623,3.455-4.496,5.619-5.619c2.164-1.124,4.891-1.686,8.18-1.686c3.579,0,6.545,0.896,8.896,2.685 c2.352,1.79,3.527,3.996,3.527,6.618C479.483,124.714,478.193,126.982,475.613,128.438z"/> <path d="M502.896,113.205h11.551v31.217h-11.551v-10.114h-7.492v10.114h-11.551v-31.217h11.551v10.114h7.492V113.205z"/> <path d="M529.618,132.746c0.999,2.082,3.122,3.122,6.369,3.122c1.914,0,3.684-0.665,5.307-1.998l7.555,6.368 c-3.122,3.372-7.534,5.058-13.236,5.058c-5.328,0-9.605-1.55-12.83-4.651c-3.227-3.101-4.839-7.003-4.839-11.707 c0-4.745,1.57-8.698,4.714-11.862c3.142-3.163,7.106-4.745,11.894-4.745c4.745,0,8.647,1.551,11.707,4.651 c3.059,3.102,4.589,7.004,4.589,11.707c0,1.373-0.167,2.727-0.5,4.058H529.618z M529.432,125.316h10.488 c-0.708-2.497-2.394-3.746-5.057-3.746C532.157,121.571,530.347,122.819,529.432,125.316z"/> <path d="M569.701,145.296c-4.787,0-8.763-1.57-11.925-4.714c-3.164-3.143-4.745-7.064-4.745-11.769 c0-4.703,1.581-8.626,4.745-11.77c3.162-3.142,7.138-4.714,11.925-4.714c3.08,0,5.9,0.74,8.46,2.217 c2.56,1.478,4.526,3.465,5.9,5.962l-9.74,5.557c-1.041-1.749-2.581-2.623-4.62-2.623c-1.457,0-2.675,0.51-3.652,1.53 c-0.979,1.021-1.468,2.3-1.468,3.84s0.489,2.82,1.468,3.84c0.978,1.02,2.195,1.529,3.652,1.529c2.164,0,3.704-0.895,4.62-2.685 l9.74,5.619c-1.374,2.539-3.341,4.537-5.9,5.993C575.602,144.567,572.781,145.296,569.701,145.296z"/> <path d="M607.537,113.205h11.55v31.217h-11.55v-2.81c-1.998,2.456-4.787,3.684-8.366,3.684c-4.205,0-7.639-1.561-10.302-4.683 c-2.665-3.122-3.996-7.055-3.996-11.8c0-4.746,1.331-8.679,3.996-11.801c2.663-3.122,6.097-4.683,10.302-4.683 c3.579,0,6.368,1.229,8.366,3.684V113.205z M597.953,132.996c1.02,1.124,2.361,1.686,4.027,1.686 c1.664,0,3.006-0.562,4.026-1.686c1.02-1.124,1.53-2.518,1.53-4.183s-0.511-3.06-1.53-4.184 c-1.021-1.124-2.362-1.686-4.026-1.686c-1.666,0-3.008,0.562-4.027,1.686c-1.021,1.124-1.53,2.519-1.53,4.184 S596.933,131.872,597.953,132.996z"/> <path d="M50.375,188.126h11.55v31.218h-11.55v-10.114h-7.492v10.114h-11.55v-31.218h11.55v10.114h7.492V188.126z"/> <path d="M88.085,188.126h11.551v31.218H88.085v-2.81c-1.998,2.456-4.787,3.684-8.366,3.684c-4.205,0-7.639-1.561-10.302-4.683 c-2.664-3.122-3.996-7.055-3.996-11.8s1.332-8.679,3.996-11.801c2.663-3.121,6.097-4.683,10.302-4.683 c3.58,0,6.369,1.229,8.366,3.684V188.126z M78.502,207.918c1.02,1.124,2.362,1.686,4.027,1.686c1.665,0,3.007-0.562,4.027-1.686 c1.019-1.124,1.529-2.518,1.529-4.183s-0.51-3.06-1.529-4.184c-1.021-1.124-2.363-1.686-4.027-1.686 c-1.665,0-3.007,0.562-4.027,1.686c-1.021,1.124-1.53,2.519-1.53,4.184S77.481,206.794,78.502,207.918z"/> <path d="M148.958,219.344h-12.799l-7.492-12.487v12.487h-11.55v-31.218h11.55v12.112l6.556-12.112h13.111l-9.49,15.609 L148.958,219.344z"/> <path d="M164.692,220.218c-4.662,0-8.627-1.581-11.894-4.745c-3.268-3.163-4.901-7.075-4.901-11.737 c0-4.661,1.623-8.574,4.87-11.738c3.247-3.162,7.221-4.745,11.925-4.745c4.703,0,8.678,1.583,11.925,4.745 c3.247,3.164,4.87,7.077,4.87,11.738c0,4.662-1.624,8.574-4.87,11.737C173.371,218.637,169.396,220.218,164.692,220.218z M160.915,207.699c0.978,1.021,2.237,1.53,3.777,1.53c1.54,0,2.799-0.51,3.777-1.53c0.978-1.02,1.467-2.341,1.467-3.964 c0-1.624-0.49-2.944-1.467-3.965c-0.979-1.02-2.238-1.53-3.777-1.53c-1.541,0-2.8,0.511-3.777,1.53 c-0.979,1.021-1.467,2.341-1.467,3.965C159.448,205.358,159.937,206.68,160.915,207.699z"/> <path d="M204.15,188.126h11.55v31.218h-11.55v-10.114h-7.492v10.114h-11.55v-31.218h11.55v10.114h7.492V188.126z"/> <path d="M235.867,220.218c-4.787,0-8.762-1.57-11.925-4.714c-3.164-3.143-4.745-7.064-4.745-11.769 c0-4.703,1.581-8.626,4.745-11.77c3.163-3.142,7.138-4.714,11.925-4.714c3.08,0,5.9,0.739,8.46,2.217 c2.56,1.478,4.526,3.465,5.9,5.962l-9.74,5.558c-1.041-1.749-2.581-2.623-4.62-2.623c-1.458,0-2.675,0.511-3.652,1.53 c-0.979,1.021-1.467,2.3-1.467,3.84s0.489,2.82,1.467,3.84c0.978,1.02,2.195,1.529,3.652,1.529c2.164,0,3.704-0.895,4.62-2.685 l9.74,5.619c-1.374,2.539-3.34,4.537-5.9,5.993C241.768,219.489,238.947,220.218,235.867,220.218z"/> <path d="M279.883,188.126v10.989h-8.491v20.229h-11.613v-20.229h-8.616v-10.989H279.883z"/> <path d="M302.609,187.252c4.204,0,7.638,1.562,10.302,4.683c2.664,3.122,3.996,7.056,3.996,11.801s-1.333,8.678-3.996,11.8 c-2.664,3.122-6.098,4.683-10.302,4.683c-3.58,0-6.368-1.228-8.366-3.684v15.297h-11.55v-43.705h11.55v2.81 C296.241,188.48,299.029,187.252,302.609,187.252z M295.772,207.918c1.02,1.124,2.362,1.686,4.027,1.686 c1.665,0,3.007-0.562,4.027-1.686c1.019-1.124,1.529-2.518,1.529-4.183s-0.51-3.06-1.529-4.184 c-1.021-1.124-2.363-1.686-4.027-1.686c-1.665,0-3.007,0.562-4.027,1.686c-1.021,1.124-1.53,2.519-1.53,4.184 S294.752,206.794,295.772,207.918z"/> <path d="M339.259,188.126h13.111l-10.365,30.281c-1.623,4.786-4.193,8.272-7.711,10.458s-7.709,3.173-12.58,2.966v-10.927 c2.123,0,3.746-0.155,4.871-0.468c1.123-0.313,2.018-0.885,2.684-1.717l-12.487-30.594h13.112l5.557,16.67L339.259,188.126z"/> <path d="M386.708,219.344h-12.799l-7.492-12.487v12.487h-11.551v-31.218h11.551v12.112l6.556-12.112h13.111l-9.49,15.609 L386.708,219.344z"/> <path d="M415.74,188.126v10.989h-8.491v20.229h-11.613v-20.229h-8.615v-10.989H415.74z"/> <path d="M433.346,220.218c-4.662,0-8.627-1.581-11.894-4.745c-3.269-3.163-4.901-7.075-4.901-11.737 c0-4.661,1.623-8.574,4.87-11.738c3.246-3.162,7.221-4.745,11.925-4.745c4.703,0,8.679,1.583,11.925,4.745 c3.247,3.164,4.87,7.077,4.87,11.738c0,4.662-1.623,8.574-4.87,11.737C442.024,218.637,438.049,220.218,433.346,220.218z M429.568,207.699c0.978,1.021,2.237,1.53,3.777,1.53c1.539,0,2.799-0.51,3.777-1.53c0.978-1.02,1.467-2.341,1.467-3.964 c0-1.624-0.489-2.944-1.467-3.965c-0.979-1.02-2.238-1.53-3.777-1.53c-1.54,0-2.8,0.511-3.777,1.53 c-0.979,1.021-1.468,2.341-1.468,3.965C428.101,205.358,428.59,206.68,429.568,207.699z"/> <path d="M473.679,187.252c4.204,0,7.638,1.562,10.302,4.683c2.663,3.122,3.996,7.056,3.996,11.801s-1.333,8.678-3.996,11.8 c-2.664,3.122-6.098,4.683-10.302,4.683c-3.58,0-6.368-1.228-8.366-3.684v15.297h-11.551v-43.705h11.551v2.81 C467.311,188.48,470.099,187.252,473.679,187.252z M466.842,207.918c1.02,1.124,2.362,1.686,4.027,1.686 c1.664,0,3.007-0.562,4.027-1.686c1.02-1.124,1.529-2.518,1.529-4.183s-0.51-3.06-1.529-4.184 c-1.021-1.124-2.363-1.686-4.027-1.686c-1.665,0-3.008,0.562-4.027,1.686c-1.021,1.124-1.529,2.519-1.529,4.184 S465.821,206.794,466.842,207.918z"/> <path d="M501.897,207.668c0.999,2.082,3.122,3.122,6.369,3.122c1.914,0,3.684-0.665,5.307-1.998l7.555,6.368 c-3.122,3.372-7.534,5.058-13.236,5.058c-5.328,0-9.605-1.55-12.83-4.651c-3.227-3.101-4.839-7.003-4.839-11.707 c0-4.744,1.57-8.698,4.714-11.862c3.142-3.162,7.106-4.745,11.894-4.745c4.745,0,8.647,1.552,11.707,4.651 c3.059,3.102,4.589,7.004,4.589,11.707c0,1.373-0.167,2.727-0.5,4.058H501.897z M501.711,200.238h10.488 c-0.708-2.497-2.394-3.746-5.057-3.746C504.437,196.492,502.626,197.741,501.711,200.238z"/> </g> <g> <linearGradient id="SVGID_1_" gradientUnits="userSpaceOnUse" x1="28.835" y1="128.3272" x2="619.0869" y2="128.3272"> <stop offset="0" style="stop-color:#6C009A"/> <stop offset="0.0728" style="stop-color:#7506A1"/> <stop offset="0.1939" style="stop-color:#8F15B6"/> <stop offset="0.3483" style="stop-color:#B82ED7"/> <stop offset="0.5069" style="stop-color:#EA4CFE"/> <stop offset="0.9944" style="stop-color:#6C009A"/> </linearGradient> <path style="fill:url(#SVGID_1_);" d="M53.247,70.499c-6.577,0-12.029-2.185-16.358-6.556c-4.33-4.371-6.493-9.802-6.493-16.295 c0-6.494,2.164-11.925,6.493-16.296c4.329-4.37,9.781-6.556,16.358-6.556c4.037,0,7.762,0.958,11.176,2.872 c3.413,1.915,6.077,4.496,7.992,7.742l-10.864,6.243c-0.708-1.415-1.811-2.538-3.309-3.371c-1.498-0.833-3.164-1.249-4.995-1.249 c-3.081,0-5.578,0.999-7.492,2.997c-1.915,1.998-2.872,4.537-2.872,7.617c0,3.081,0.957,5.619,2.872,7.617 c1.914,1.998,4.412,2.997,7.492,2.997c1.873,0,3.548-0.416,5.026-1.249c1.477-0.833,2.57-1.977,3.278-3.434l10.864,6.244 c-1.915,3.289-4.579,5.89-7.992,7.804C61.009,69.541,57.284,70.499,53.247,70.499z"/> <linearGradient id="SVGID_2_" gradientUnits="userSpaceOnUse" x1="28.835" y1="128.3272" x2="619.0869" y2="128.3272"> <stop offset="0" style="stop-color:#6C009A"/> <stop offset="0.0728" style="stop-color:#7506A1"/> <stop offset="0.1939" style="stop-color:#8F15B6"/> <stop offset="0.3483" style="stop-color:#B82ED7"/> <stop offset="0.5069" style="stop-color:#EA4CFE"/> <stop offset="0.9944" style="stop-color:#6C009A"/> </linearGradient> <path style="fill:url(#SVGID_2_);" d="M91.27,70.374c-4.662,0-8.627-1.581-11.894-4.745c-3.268-3.163-4.901-7.076-4.901-11.738 c0-4.661,1.623-8.574,4.87-11.738c3.247-3.163,7.221-4.745,11.925-4.745c4.703,0,8.678,1.583,11.925,4.745 c3.247,3.164,4.87,7.077,4.87,11.738c0,4.662-1.624,8.575-4.87,11.738C99.948,68.793,95.973,70.374,91.27,70.374z M87.493,57.856 c0.978,1.021,2.237,1.53,3.777,1.53c1.54,0,2.799-0.509,3.777-1.53c0.978-1.02,1.467-2.341,1.467-3.965 c0-1.623-0.49-2.944-1.467-3.964c-0.979-1.02-2.238-1.53-3.777-1.53c-1.541,0-2.8,0.51-3.777,1.53 c-0.979,1.021-1.467,2.341-1.467,3.964C86.025,55.515,86.514,56.836,87.493,57.856z"/> <linearGradient id="SVGID_3_" gradientUnits="userSpaceOnUse" x1="28.835" y1="128.3272" x2="619.0869" y2="128.3272"> <stop offset="0" style="stop-color:#6C009A"/> <stop offset="0.0728" style="stop-color:#7506A1"/> <stop offset="0.1939" style="stop-color:#8F15B6"/> <stop offset="0.3483" style="stop-color:#B82ED7"/> <stop offset="0.5069" style="stop-color:#EA4CFE"/> <stop offset="0.9944" style="stop-color:#6C009A"/> </linearGradient> <path style="fill:url(#SVGID_3_);" d="M130.916,53.517c3.205,1.541,4.808,4.038,4.808,7.492c0,2.789-1.239,5.068-3.715,6.837 c-2.477,1.769-5.734,2.653-9.771,2.653c-3.331,0-6.15-0.573-8.46-1.717c-2.311-1.145-4.152-3.091-5.526-5.838l8.679-5.057 c0.999,2.248,2.601,3.372,4.808,3.372c0.582,0,1.124-0.146,1.623-0.438c0.5-0.291,0.75-0.707,0.75-1.249 c0-1.124-0.708-1.686-2.123-1.686h-3.122v-8.366h3.122c0.416,0,0.78-0.166,1.093-0.5c0.312-0.333,0.468-0.708,0.468-1.124 c0-1.165-0.812-1.748-2.435-1.748c-1.915,0-3.206,1.061-3.871,3.184l-8.678-4.62c1.581-2.623,3.454-4.496,5.619-5.619 c2.164-1.124,4.89-1.686,8.179-1.686c3.58,0,6.545,0.896,8.897,2.685c2.351,1.79,3.528,3.996,3.528,6.618 C134.787,49.792,133.497,52.06,130.916,53.517z"/> <linearGradient id="SVGID_4_" gradientUnits="userSpaceOnUse" x1="28.835" y1="128.3272" x2="619.0869" y2="128.3272"> <stop offset="0" style="stop-color:#6C009A"/> <stop offset="0.0728" style="stop-color:#7506A1"/> <stop offset="0.1939" style="stop-color:#8F15B6"/> <stop offset="0.3483" style="stop-color:#B82ED7"/> <stop offset="0.5069" style="stop-color:#EA4CFE"/> <stop offset="0.9944" style="stop-color:#6C009A"/> </linearGradient> <path style="fill:url(#SVGID_4_);" d="M170.062,58.511h4.059v19.355h-10.926V69.5H148.21v8.366h-10.926V58.511h3.497 c1.498-2.455,2.248-5.931,2.248-10.426v-9.802h27.034V58.511z M152.58,58.511h6.244v-9.989h-4.558 C154.224,52.477,153.662,55.806,152.58,58.511z"/> <linearGradient id="SVGID_5_" gradientUnits="userSpaceOnUse" x1="28.835" y1="128.3272" x2="619.0869" y2="128.3272"> <stop offset="0" style="stop-color:#6C009A"/> <stop offset="0.0728" style="stop-color:#7506A1"/> <stop offset="0.1939" style="stop-color:#8F15B6"/> <stop offset="0.3483" style="stop-color:#B82ED7"/> <stop offset="0.5069" style="stop-color:#EA4CFE"/> <stop offset="0.9944" style="stop-color:#6C009A"/> </linearGradient> <path style="fill:url(#SVGID_5_);" d="M197.908,38.283h11.551V69.5h-11.551v-2.81c-1.998,2.457-4.787,3.684-8.366,3.684 c-4.205,0-7.639-1.561-10.302-4.683c-2.664-3.122-3.996-7.055-3.996-11.8s1.332-8.678,3.996-11.8 c2.663-3.122,6.097-4.683,10.302-4.683c3.58,0,6.369,1.229,8.366,3.684V38.283z M188.324,58.074 c1.02,1.124,2.362,1.686,4.027,1.686c1.665,0,3.007-0.562,4.027-1.686c1.019-1.124,1.529-2.518,1.529-4.183 c0-1.664-0.51-3.059-1.529-4.183c-1.021-1.124-2.363-1.686-4.027-1.686c-1.665,0-3.007,0.562-4.027,1.686 c-1.021,1.124-1.53,2.519-1.53,4.183C186.794,55.557,187.304,56.951,188.324,58.074z"/> <linearGradient id="SVGID_6_" gradientUnits="userSpaceOnUse" x1="28.835" y1="128.3272" x2="619.0869" y2="128.3272"> <stop offset="0" style="stop-color:#6C009A"/> <stop offset="0.0728" style="stop-color:#7506A1"/> <stop offset="0.1939" style="stop-color:#8F15B6"/> <stop offset="0.3483" style="stop-color:#B82ED7"/> <stop offset="0.5069" style="stop-color:#EA4CFE"/> <stop offset="0.9944" style="stop-color:#6C009A"/> </linearGradient> <path style="fill:url(#SVGID_6_);" d="M233.495,38.283h11.55V69.5h-11.55V59.386h-7.492V69.5h-11.55V38.283h11.55v10.114h7.492 V38.283z"/> <linearGradient id="SVGID_7_" gradientUnits="userSpaceOnUse" x1="28.835" y1="128.3272" x2="619.0869" y2="128.3272"> <stop offset="0" style="stop-color:#6C009A"/> <stop offset="0.0728" style="stop-color:#7506A1"/> <stop offset="0.1939" style="stop-color:#8F15B6"/> <stop offset="0.3483" style="stop-color:#B82ED7"/> <stop offset="0.5069" style="stop-color:#EA4CFE"/> <stop offset="0.9944" style="stop-color:#6C009A"/> </linearGradient> <path style="fill:url(#SVGID_7_);" d="M271.955,38.283h9.303V69.5h-11.238V56.077L259.343,69.5h-9.303V38.283h11.238v13.423 L271.955,38.283z"/> <linearGradient id="SVGID_8_" gradientUnits="userSpaceOnUse" x1="28.835" y1="128.3272" x2="619.0869" y2="128.3272"> <stop offset="0" style="stop-color:#6C009A"/> <stop offset="0.0728" style="stop-color:#7506A1"/> <stop offset="0.1939" style="stop-color:#8F15B6"/> <stop offset="0.3483" style="stop-color:#B82ED7"/> <stop offset="0.5069" style="stop-color:#EA4CFE"/> <stop offset="0.9944" style="stop-color:#6C009A"/> </linearGradient> <path style="fill:url(#SVGID_8_);" d="M296.428,57.825c0.999,2.082,3.122,3.122,6.368,3.122c1.914,0,3.684-0.665,5.307-1.998 l7.555,6.369c-3.122,3.372-7.534,5.057-13.236,5.057c-5.329,0-9.605-1.55-12.831-4.651c-3.226-3.1-4.838-7.002-4.838-11.707 c0-4.745,1.57-8.699,4.714-11.863c3.142-3.163,7.106-4.745,11.894-4.745c4.745,0,8.647,1.551,11.707,4.651 c3.06,3.102,4.589,7.004,4.589,11.707c0,1.374-0.167,2.727-0.499,4.058H296.428z M296.241,50.395h10.489 c-0.708-2.498-2.394-3.746-5.057-3.746C298.966,46.649,297.156,47.897,296.241,50.395z"/> <linearGradient id="SVGID_9_" gradientUnits="userSpaceOnUse" x1="28.835" y1="128.3272" x2="619.0869" y2="128.3272"> <stop offset="0" style="stop-color:#6C009A"/> <stop offset="0.0728" style="stop-color:#7506A1"/> <stop offset="0.1939" style="stop-color:#8F15B6"/> <stop offset="0.3483" style="stop-color:#B82ED7"/> <stop offset="0.5069" style="stop-color:#EA4CFE"/> <stop offset="0.9944" style="stop-color:#6C009A"/> </linearGradient> <path style="fill:url(#SVGID_9_);" d="M348.873,70.374c-4.787,0-8.763-1.571-11.925-4.714c-3.164-3.142-4.745-7.065-4.745-11.769 c0-4.703,1.581-8.625,4.745-11.769c3.162-3.142,7.138-4.714,11.925-4.714c3.08,0,5.9,0.74,8.46,2.217 c2.56,1.478,4.526,3.465,5.9,5.962l-9.74,5.557c-1.041-1.748-2.581-2.622-4.62-2.622c-1.457,0-2.675,0.51-3.652,1.529 c-0.979,1.021-1.468,2.301-1.468,3.84c0,1.541,0.489,2.82,1.468,3.84c0.978,1.021,2.195,1.53,3.652,1.53 c2.164,0,3.704-0.895,4.62-2.685l9.74,5.619c-1.374,2.539-3.341,4.537-5.9,5.994S351.953,70.374,348.873,70.374z"/> <linearGradient id="SVGID_10_" gradientUnits="userSpaceOnUse" x1="28.835" y1="128.3272" x2="619.0869" y2="128.3272"> <stop offset="0" style="stop-color:#6C009A"/> <stop offset="0.0728" style="stop-color:#7506A1"/> <stop offset="0.1939" style="stop-color:#8F15B6"/> <stop offset="0.3483" style="stop-color:#B82ED7"/> <stop offset="0.5069" style="stop-color:#EA4CFE"/> <stop offset="0.9944" style="stop-color:#6C009A"/> </linearGradient> <path style="fill:url(#SVGID_10_);" d="M386.709,38.283h11.55V69.5h-11.55v-2.81c-1.998,2.457-4.787,3.684-8.366,3.684 c-4.205,0-7.639-1.561-10.302-4.683c-2.665-3.122-3.996-7.055-3.996-11.8s1.331-8.678,3.996-11.8 c2.663-3.122,6.097-4.683,10.302-4.683c3.579,0,6.368,1.229,8.366,3.684V38.283z M377.125,58.074 c1.02,1.124,2.361,1.686,4.027,1.686c1.664,0,3.006-0.562,4.026-1.686c1.02-1.124,1.53-2.518,1.53-4.183 c0-1.664-0.511-3.059-1.53-4.183c-1.021-1.124-2.362-1.686-4.026-1.686c-1.666,0-3.008,0.562-4.027,1.686 c-1.021,1.124-1.53,2.519-1.53,4.183C375.595,55.557,376.104,56.951,377.125,58.074z"/> <linearGradient id="SVGID_11_" gradientUnits="userSpaceOnUse" x1="28.835" y1="128.3272" x2="619.0869" y2="128.3272"> <stop offset="0" style="stop-color:#6C009A"/> <stop offset="0.0728" style="stop-color:#7506A1"/> <stop offset="0.1939" style="stop-color:#8F15B6"/> <stop offset="0.3483" style="stop-color:#B82ED7"/> <stop offset="0.5069" style="stop-color:#EA4CFE"/> <stop offset="0.9944" style="stop-color:#6C009A"/> </linearGradient> <path style="fill:url(#SVGID_11_);" d="M425.168,38.283h9.303V69.5h-11.238V56.077L412.556,69.5h-9.303V38.283h11.238v13.423 L425.168,38.283z M407.936,35.223v-9.365h21.853v9.365H407.936z"/> <linearGradient id="SVGID_12_" gradientUnits="userSpaceOnUse" x1="28.835" y1="128.3272" x2="619.0869" y2="128.3272"> <stop offset="0" style="stop-color:#6C009A"/> <stop offset="0.0728" style="stop-color:#7506A1"/> <stop offset="0.1939" style="stop-color:#8F15B6"/> <stop offset="0.3483" style="stop-color:#B82ED7"/> <stop offset="0.5069" style="stop-color:#EA4CFE"/> <stop offset="0.9944" style="stop-color:#6C009A"/> </linearGradient> <path style="fill:url(#SVGID_12_);" d="M466,38.283v10.988h-8.491V69.5h-11.613V49.271h-8.615V38.283H466z"/> <linearGradient id="SVGID_13_" gradientUnits="userSpaceOnUse" x1="28.835" y1="128.3272" x2="619.0869" y2="128.3272"> <stop offset="0" style="stop-color:#6C009A"/> <stop offset="0.0728" style="stop-color:#7506A1"/> <stop offset="0.1939" style="stop-color:#8F15B6"/> <stop offset="0.3483" style="stop-color:#B82ED7"/> <stop offset="0.5069" style="stop-color:#EA4CFE"/> <stop offset="0.9944" style="stop-color:#6C009A"/> </linearGradient> <path style="fill:url(#SVGID_13_);" d="M483.605,70.374c-4.662,0-8.627-1.581-11.894-4.745 c-3.269-3.163-4.901-7.076-4.901-11.738c0-4.661,1.623-8.574,4.87-11.738c3.246-3.163,7.221-4.745,11.925-4.745 c4.703,0,8.679,1.583,11.925,4.745c3.247,3.164,4.87,7.077,4.87,11.738c0,4.662-1.623,8.575-4.87,11.738 C492.284,68.793,488.309,70.374,483.605,70.374z M479.828,57.856c0.978,1.021,2.237,1.53,3.777,1.53 c1.539,0,2.799-0.509,3.777-1.53c0.978-1.02,1.467-2.341,1.467-3.965c0-1.623-0.489-2.944-1.467-3.964 c-0.979-1.02-2.238-1.53-3.777-1.53c-1.54,0-2.8,0.51-3.777,1.53c-0.979,1.021-1.468,2.341-1.468,3.964 C478.36,55.515,478.85,56.836,479.828,57.856z"/> <linearGradient id="SVGID_14_" gradientUnits="userSpaceOnUse" x1="28.835" y1="128.3272" x2="619.0869" y2="128.3272"> <stop offset="0" style="stop-color:#6C009A"/> <stop offset="0.0728" style="stop-color:#7506A1"/> <stop offset="0.1939" style="stop-color:#8F15B6"/> <stop offset="0.3483" style="stop-color:#B82ED7"/> <stop offset="0.5069" style="stop-color:#EA4CFE"/> <stop offset="0.9944" style="stop-color:#6C009A"/> </linearGradient> <path style="fill:url(#SVGID_14_);" d="M528.809,53.579c3.038,1.374,4.558,3.643,4.558,6.805c0,2.831-0.947,5.058-2.841,6.681 c-1.895,1.624-4.693,2.435-8.397,2.435h-18.106V38.283h17.17c3.704,0,6.503,0.802,8.397,2.403 c1.894,1.603,2.841,3.819,2.841,6.649C532.43,50.083,531.222,52.165,528.809,53.579z M519.068,46.336h-3.809v3.871h3.809 c1.415,0,2.123-0.625,2.123-1.873C521.191,47.003,520.483,46.336,519.068,46.336z M519.631,61.446 c1.414,0,2.122-0.665,2.122-1.998c0-1.249-0.708-1.873-2.122-1.873h-4.371v3.871H519.631z"/> <linearGradient id="SVGID_15_" gradientUnits="userSpaceOnUse" x1="28.835" y1="128.3272" x2="619.0869" y2="128.3272"> <stop offset="0" style="stop-color:#6C009A"/> <stop offset="0.0728" style="stop-color:#7506A1"/> <stop offset="0.1939" style="stop-color:#8F15B6"/> <stop offset="0.3483" style="stop-color:#B82ED7"/> <stop offset="0.5069" style="stop-color:#EA4CFE"/> <stop offset="0.9944" style="stop-color:#6C009A"/> </linearGradient> <path style="fill:url(#SVGID_15_);" d="M61.613,133.434h4.059v19.354H54.746v-8.366H39.761v8.366H28.835v-19.354h3.497 c1.498-2.456,2.248-5.932,2.248-10.427v-9.802h27.034V133.434z M44.131,133.434h6.244v-9.99h-4.558 C45.775,127.398,45.213,130.729,44.131,133.434z"/> <linearGradient id="SVGID_16_" gradientUnits="userSpaceOnUse" x1="28.835" y1="128.3272" x2="619.0869" y2="128.3272"> <stop offset="0" style="stop-color:#6C009A"/> <stop offset="0.0728" style="stop-color:#7506A1"/> <stop offset="0.1939" style="stop-color:#8F15B6"/> <stop offset="0.3483" style="stop-color:#B82ED7"/> <stop offset="0.5069" style="stop-color:#EA4CFE"/> <stop offset="0.9944" style="stop-color:#6C009A"/> </linearGradient> <path style="fill:url(#SVGID_16_);" d="M100.759,113.205v31.217h-11.55v-20.229h-5.62v7.306c0,5.078-1.27,8.647-3.808,10.707 c-2.54,2.061-6.618,2.799-12.237,2.217v-10.614c1.539,0.417,2.674,0.24,3.402-0.53c0.728-0.77,1.093-2.195,1.093-4.277v-15.795 H100.759z"/> <linearGradient id="SVGID_17_" gradientUnits="userSpaceOnUse" x1="28.835" y1="128.3272" x2="619.0869" y2="128.3272"> <stop offset="0" style="stop-color:#6C009A"/> <stop offset="0.0728" style="stop-color:#7506A1"/> <stop offset="0.1939" style="stop-color:#8F15B6"/> <stop offset="0.3483" style="stop-color:#B82ED7"/> <stop offset="0.5069" style="stop-color:#EA4CFE"/> <stop offset="0.9944" style="stop-color:#6C009A"/> </linearGradient> <path style="fill:url(#SVGID_17_);" d="M134.536,113.205v31.217h-11.55v-8.741h-0.812l-5.495,8.741h-13.111l7.305-10.614 c-3.372-2.122-5.057-5.14-5.057-9.053c0-3.579,1.092-6.399,3.278-8.46c2.185-2.061,5.171-3.09,8.959-3.09H134.536z M119.489,122.57c-1.623,0-2.435,0.729-2.435,2.185c0,1.457,0.812,2.186,2.435,2.186h3.497v-4.371H119.489z"/> <linearGradient id="SVGID_18_" gradientUnits="userSpaceOnUse" x1="28.835" y1="128.3272" x2="619.0869" y2="128.3272"> <stop offset="0" style="stop-color:#6C009A"/> <stop offset="0.0728" style="stop-color:#7506A1"/> <stop offset="0.1939" style="stop-color:#8F15B6"/> <stop offset="0.3483" style="stop-color:#B82ED7"/> <stop offset="0.5069" style="stop-color:#EA4CFE"/> <stop offset="0.9944" style="stop-color:#6C009A"/> </linearGradient> <path style="fill:url(#SVGID_18_);" d="M176.803,128.501c3.038,1.373,4.558,3.643,4.558,6.806c0,2.831-0.947,5.057-2.841,6.681 c-1.895,1.623-4.693,2.435-8.397,2.435h-18.106v-31.217h17.169c3.704,0,6.503,0.802,8.397,2.403 c1.894,1.603,2.841,3.819,2.841,6.649C180.424,125.005,179.217,127.086,176.803,128.501z M167.063,121.258h-3.809v3.872h3.809 c1.415,0,2.123-0.625,2.123-1.874C169.186,121.925,168.478,121.258,167.063,121.258z M167.625,136.368 c1.415,0,2.123-0.666,2.123-1.998c0-1.249-0.708-1.873-2.123-1.873h-4.37v3.871H167.625z"/> <linearGradient id="SVGID_19_" gradientUnits="userSpaceOnUse" x1="28.835" y1="128.3272" x2="619.0869" y2="128.3272"> <stop offset="0" style="stop-color:#6C009A"/> <stop offset="0.0728" style="stop-color:#7506A1"/> <stop offset="0.1939" style="stop-color:#8F15B6"/> <stop offset="0.3483" style="stop-color:#B82ED7"/> <stop offset="0.5069" style="stop-color:#EA4CFE"/> <stop offset="0.9944" style="stop-color:#6C009A"/> </linearGradient> <path style="fill:url(#SVGID_19_);" d="M206.084,113.205h11.551v31.217h-11.551v-2.81c-1.998,2.456-4.787,3.684-8.366,3.684 c-4.205,0-7.639-1.561-10.302-4.683c-2.664-3.122-3.996-7.055-3.996-11.8c0-4.746,1.332-8.679,3.996-11.801 c2.663-3.122,6.097-4.683,10.302-4.683c3.58,0,6.369,1.229,8.366,3.684V113.205z M196.501,132.996 c1.02,1.124,2.362,1.686,4.027,1.686c1.665,0,3.007-0.562,4.027-1.686c1.019-1.124,1.529-2.518,1.529-4.183 s-0.51-3.06-1.529-4.184c-1.021-1.124-2.363-1.686-4.027-1.686c-1.665,0-3.007,0.562-4.027,1.686 c-1.021,1.124-1.53,2.519-1.53,4.184S195.48,131.872,196.501,132.996z"/> <linearGradient id="SVGID_20_" gradientUnits="userSpaceOnUse" x1="28.835" y1="128.3272" x2="619.0869" y2="128.3272"> <stop offset="0" style="stop-color:#6C009A"/> <stop offset="0.0728" style="stop-color:#7506A1"/> <stop offset="0.1939" style="stop-color:#8F15B6"/> <stop offset="0.3483" style="stop-color:#B82ED7"/> <stop offset="0.5069" style="stop-color:#EA4CFE"/> <stop offset="0.9944" style="stop-color:#6C009A"/> </linearGradient> <path style="fill:url(#SVGID_20_);" d="M257.905,113.205h11.55v31.217h-46.826v-31.217h11.55v20.229h6.244v-20.229h11.238v20.229 h6.244V113.205z"/> <linearGradient id="SVGID_21_" gradientUnits="userSpaceOnUse" x1="28.835" y1="128.3272" x2="619.0869" y2="128.3272"> <stop offset="0" style="stop-color:#6C009A"/> <stop offset="0.0728" style="stop-color:#7506A1"/> <stop offset="0.1939" style="stop-color:#8F15B6"/> <stop offset="0.3483" style="stop-color:#B82ED7"/> <stop offset="0.5069" style="stop-color:#EA4CFE"/> <stop offset="0.9944" style="stop-color:#6C009A"/> </linearGradient> <path style="fill:url(#SVGID_21_);" d="M284.626,132.746c0.999,2.082,3.122,3.122,6.368,3.122c1.914,0,3.684-0.665,5.307-1.998 l7.555,6.368c-3.122,3.372-7.534,5.058-13.236,5.058c-5.329,0-9.605-1.55-12.831-4.651c-3.226-3.101-4.838-7.003-4.838-11.707 c0-4.745,1.57-8.698,4.714-11.862c3.142-3.163,7.106-4.745,11.894-4.745c4.745,0,8.647,1.551,11.707,4.651 c3.06,3.102,4.589,7.004,4.589,11.707c0,1.373-0.167,2.727-0.499,4.058H284.626z M284.439,125.316h10.489 c-0.708-2.497-2.394-3.746-5.057-3.746C287.165,121.571,285.354,122.819,284.439,125.316z"/> <linearGradient id="SVGID_22_" gradientUnits="userSpaceOnUse" x1="28.835" y1="128.3272" x2="619.0869" y2="128.3272"> <stop offset="0" style="stop-color:#6C009A"/> <stop offset="0.0728" style="stop-color:#7506A1"/> <stop offset="0.1939" style="stop-color:#8F15B6"/> <stop offset="0.3483" style="stop-color:#B82ED7"/> <stop offset="0.5069" style="stop-color:#EA4CFE"/> <stop offset="0.9944" style="stop-color:#6C009A"/> </linearGradient> <path style="fill:url(#SVGID_22_);" d="M332.39,113.205v10.988h-11.551v20.229h-11.551v-31.217H332.39z"/> <linearGradient id="SVGID_23_" gradientUnits="userSpaceOnUse" x1="28.835" y1="128.3272" x2="619.0869" y2="128.3272"> <stop offset="0" style="stop-color:#6C009A"/> <stop offset="0.0728" style="stop-color:#7506A1"/> <stop offset="0.1939" style="stop-color:#8F15B6"/> <stop offset="0.3483" style="stop-color:#B82ED7"/> <stop offset="0.5069" style="stop-color:#EA4CFE"/> <stop offset="0.9944" style="stop-color:#6C009A"/> </linearGradient> <path style="fill:url(#SVGID_23_);" d="M350.309,145.296c-4.662,0-8.627-1.581-11.894-4.745 c-3.269-3.163-4.901-7.075-4.901-11.737s1.623-8.574,4.87-11.738c3.246-3.163,7.221-4.745,11.925-4.745 c4.703,0,8.679,1.583,11.925,4.745c3.247,3.164,4.87,7.076,4.87,11.738s-1.623,8.574-4.87,11.737 C358.987,143.715,355.012,145.296,350.309,145.296z M346.531,132.777c0.978,1.021,2.237,1.53,3.777,1.53 c1.539,0,2.799-0.51,3.777-1.53c0.978-1.02,1.467-2.341,1.467-3.964c0-1.624-0.489-2.944-1.467-3.965 c-0.979-1.02-2.238-1.53-3.777-1.53c-1.54,0-2.8,0.51-3.777,1.53c-0.979,1.021-1.468,2.341-1.468,3.965 C345.063,130.437,345.553,131.758,346.531,132.777z"/> <linearGradient id="SVGID_24_" gradientUnits="userSpaceOnUse" x1="28.835" y1="128.3272" x2="619.0869" y2="128.3272"> <stop offset="0" style="stop-color:#6C009A"/> <stop offset="0.0728" style="stop-color:#7506A1"/> <stop offset="0.1939" style="stop-color:#8F15B6"/> <stop offset="0.3483" style="stop-color:#B82ED7"/> <stop offset="0.5069" style="stop-color:#EA4CFE"/> <stop offset="0.9944" style="stop-color:#6C009A"/> </linearGradient> <path style="fill:url(#SVGID_24_);" d="M399.443,145.421c-5.328,0-9.574-1.581-12.736-4.745 c-3.164-3.163-4.745-7.45-4.745-12.861c0-5.203,0.905-9.417,2.716-12.644c1.811-3.225,4.609-5.753,8.397-7.586 c4.203-2.039,7.055-3.579,8.554-4.62c1.498-1.04,2.58-2.331,3.246-3.871l9.303,5.307c-0.666,2.248-1.801,4.007-3.402,5.276 c-1.603,1.27-4.069,2.591-7.398,3.965c-2.956,1.208-5.037,2.196-6.243,2.965c-1.208,0.771-2.103,1.739-2.686,2.903 c1.998-1.623,4.517-2.435,7.555-2.435c3.746,0,6.982,1.26,9.709,3.777c2.726,2.519,4.09,5.838,4.09,9.959 c0,4.245-1.479,7.741-4.434,10.488C408.412,144.047,404.438,145.421,399.443,145.421z M399.193,135.743 c1.457,0,2.663-0.446,3.621-1.342c0.957-0.895,1.437-2.029,1.437-3.403c0-1.414-0.5-2.58-1.498-3.496 c-0.999-0.915-2.228-1.374-3.685-1.374c-1.373,0-2.57,0.428-3.59,1.28c-1.021,0.854-1.529,1.988-1.529,3.403 c0,1.457,0.499,2.644,1.498,3.559C396.446,135.286,397.695,135.743,399.193,135.743z"/> <linearGradient id="SVGID_25_" gradientUnits="userSpaceOnUse" x1="28.835" y1="128.3272" x2="619.0869" y2="128.3272"> <stop offset="0" style="stop-color:#6C009A"/> <stop offset="0.0728" style="stop-color:#7506A1"/> <stop offset="0.1939" style="stop-color:#8F15B6"/> <stop offset="0.3483" style="stop-color:#B82ED7"/> <stop offset="0.5069" style="stop-color:#EA4CFE"/> <stop offset="0.9944" style="stop-color:#6C009A"/> </linearGradient> <path style="fill:url(#SVGID_25_);" d="M440.838,113.205h9.303v31.217h-11.238v-13.424l-10.677,13.424h-9.303v-31.217h11.238 v13.423L440.838,113.205z"/> <linearGradient id="SVGID_26_" gradientUnits="userSpaceOnUse" x1="28.835" y1="128.3272" x2="619.0869" y2="128.3272"> <stop offset="0" style="stop-color:#6C009A"/> <stop offset="0.0728" style="stop-color:#7506A1"/> <stop offset="0.1939" style="stop-color:#8F15B6"/> <stop offset="0.3483" style="stop-color:#B82ED7"/> <stop offset="0.5069" style="stop-color:#EA4CFE"/> <stop offset="0.9944" style="stop-color:#6C009A"/> </linearGradient> <path style="fill:url(#SVGID_26_);" d="M475.613,128.438c3.204,1.54,4.807,4.038,4.807,7.492c0,2.789-1.238,5.068-3.715,6.837 s-5.734,2.653-9.771,2.653c-3.331,0-6.15-0.572-8.46-1.717c-2.311-1.145-4.152-3.091-5.525-5.838l8.678-5.058 c0.999,2.248,2.602,3.372,4.808,3.372c0.583,0,1.124-0.146,1.624-0.438c0.499-0.29,0.749-0.707,0.749-1.248 c0-1.124-0.708-1.687-2.123-1.687h-3.122v-8.366h3.122c0.416,0,0.78-0.166,1.093-0.499s0.468-0.708,0.468-1.124 c0-1.165-0.812-1.748-2.435-1.748c-1.915,0-3.206,1.061-3.871,3.184l-8.679-4.62c1.582-2.623,3.455-4.496,5.619-5.619 c2.164-1.124,4.891-1.686,8.18-1.686c3.579,0,6.545,0.896,8.896,2.685c2.352,1.79,3.527,3.996,3.527,6.618 C479.483,124.714,478.193,126.982,475.613,128.438z"/> <linearGradient id="SVGID_27_" gradientUnits="userSpaceOnUse" x1="28.835" y1="128.3272" x2="619.0869" y2="128.3272"> <stop offset="0" style="stop-color:#6C009A"/> <stop offset="0.0728" style="stop-color:#7506A1"/> <stop offset="0.1939" style="stop-color:#8F15B6"/> <stop offset="0.3483" style="stop-color:#B82ED7"/> <stop offset="0.5069" style="stop-color:#EA4CFE"/> <stop offset="0.9944" style="stop-color:#6C009A"/> </linearGradient> <path style="fill:url(#SVGID_27_);" d="M502.896,113.205h11.551v31.217h-11.551v-10.114h-7.492v10.114h-11.551v-31.217h11.551 v10.114h7.492V113.205z"/> <linearGradient id="SVGID_28_" gradientUnits="userSpaceOnUse" x1="28.835" y1="128.3272" x2="619.0869" y2="128.3272"> <stop offset="0" style="stop-color:#6C009A"/> <stop offset="0.0728" style="stop-color:#7506A1"/> <stop offset="0.1939" style="stop-color:#8F15B6"/> <stop offset="0.3483" style="stop-color:#B82ED7"/> <stop offset="0.5069" style="stop-color:#EA4CFE"/> <stop offset="0.9944" style="stop-color:#6C009A"/> </linearGradient> <path style="fill:url(#SVGID_28_);" d="M529.618,132.746c0.999,2.082,3.122,3.122,6.369,3.122c1.914,0,3.684-0.665,5.307-1.998 l7.555,6.368c-3.122,3.372-7.534,5.058-13.236,5.058c-5.328,0-9.605-1.55-12.83-4.651c-3.227-3.101-4.839-7.003-4.839-11.707 c0-4.745,1.57-8.698,4.714-11.862c3.142-3.163,7.106-4.745,11.894-4.745c4.745,0,8.647,1.551,11.707,4.651 c3.059,3.102,4.589,7.004,4.589,11.707c0,1.373-0.167,2.727-0.5,4.058H529.618z M529.432,125.316h10.488 c-0.708-2.497-2.394-3.746-5.057-3.746C532.157,121.571,530.347,122.819,529.432,125.316z"/> <linearGradient id="SVGID_29_" gradientUnits="userSpaceOnUse" x1="28.835" y1="128.3272" x2="619.0869" y2="128.3272"> <stop offset="0" style="stop-color:#6C009A"/> <stop offset="0.0728" style="stop-color:#7506A1"/> <stop offset="0.1939" style="stop-color:#8F15B6"/> <stop offset="0.3483" style="stop-color:#B82ED7"/> <stop offset="0.5069" style="stop-color:#EA4CFE"/> <stop offset="0.9944" style="stop-color:#6C009A"/> </linearGradient> <path style="fill:url(#SVGID_29_);" d="M569.701,145.296c-4.787,0-8.763-1.57-11.925-4.714 c-3.164-3.143-4.745-7.064-4.745-11.769c0-4.703,1.581-8.626,4.745-11.77c3.162-3.142,7.138-4.714,11.925-4.714 c3.08,0,5.9,0.74,8.46,2.217c2.56,1.478,4.526,3.465,5.9,5.962l-9.74,5.557c-1.041-1.749-2.581-2.623-4.62-2.623 c-1.457,0-2.675,0.51-3.652,1.53c-0.979,1.021-1.468,2.3-1.468,3.84s0.489,2.82,1.468,3.84c0.978,1.02,2.195,1.529,3.652,1.529 c2.164,0,3.704-0.895,4.62-2.685l9.74,5.619c-1.374,2.539-3.341,4.537-5.9,5.993 C575.602,144.567,572.781,145.296,569.701,145.296z"/> <linearGradient id="SVGID_30_" gradientUnits="userSpaceOnUse" x1="28.835" y1="128.3272" x2="619.0869" y2="128.3272"> <stop offset="0" style="stop-color:#6C009A"/> <stop offset="0.0728" style="stop-color:#7506A1"/> <stop offset="0.1939" style="stop-color:#8F15B6"/> <stop offset="0.3483" style="stop-color:#B82ED7"/> <stop offset="0.5069" style="stop-color:#EA4CFE"/> <stop offset="0.9944" style="stop-color:#6C009A"/> </linearGradient> <path style="fill:url(#SVGID_30_);" d="M607.537,113.205h11.55v31.217h-11.55v-2.81c-1.998,2.456-4.787,3.684-8.366,3.684 c-4.205,0-7.639-1.561-10.302-4.683c-2.665-3.122-3.996-7.055-3.996-11.8c0-4.746,1.331-8.679,3.996-11.801 c2.663-3.122,6.097-4.683,10.302-4.683c3.579,0,6.368,1.229,8.366,3.684V113.205z M597.953,132.996 c1.02,1.124,2.361,1.686,4.027,1.686c1.664,0,3.006-0.562,4.026-1.686c1.02-1.124,1.53-2.518,1.53-4.183s-0.511-3.06-1.53-4.184 c-1.021-1.124-2.362-1.686-4.026-1.686c-1.666,0-3.008,0.562-4.027,1.686c-1.021,1.124-1.53,2.519-1.53,4.184 S596.933,131.872,597.953,132.996z"/> <linearGradient id="SVGID_31_" gradientUnits="userSpaceOnUse" x1="28.835" y1="128.3272" x2="619.0869" y2="128.3272"> <stop offset="0" style="stop-color:#6C009A"/> <stop offset="0.0728" style="stop-color:#7506A1"/> <stop offset="0.1939" style="stop-color:#8F15B6"/> <stop offset="0.3483" style="stop-color:#B82ED7"/> <stop offset="0.5069" style="stop-color:#EA4CFE"/> <stop offset="0.9944" style="stop-color:#6C009A"/> </linearGradient> <path style="fill:url(#SVGID_31_);" d="M50.375,188.126h11.55v31.218h-11.55v-10.114h-7.492v10.114h-11.55v-31.218h11.55v10.114 h7.492V188.126z"/> <linearGradient id="SVGID_32_" gradientUnits="userSpaceOnUse" x1="28.835" y1="128.3272" x2="619.0869" y2="128.3272"> <stop offset="0" style="stop-color:#6C009A"/> <stop offset="0.0728" style="stop-color:#7506A1"/> <stop offset="0.1939" style="stop-color:#8F15B6"/> <stop offset="0.3483" style="stop-color:#B82ED7"/> <stop offset="0.5069" style="stop-color:#EA4CFE"/> <stop offset="0.9944" style="stop-color:#6C009A"/> </linearGradient> <path style="fill:url(#SVGID_32_);" d="M88.085,188.126h11.551v31.218H88.085v-2.81c-1.998,2.456-4.787,3.684-8.366,3.684 c-4.205,0-7.639-1.561-10.302-4.683c-2.664-3.122-3.996-7.055-3.996-11.8s1.332-8.679,3.996-11.801 c2.663-3.121,6.097-4.683,10.302-4.683c3.58,0,6.369,1.229,8.366,3.684V188.126z M78.502,207.918 c1.02,1.124,2.362,1.686,4.027,1.686c1.665,0,3.007-0.562,4.027-1.686c1.019-1.124,1.529-2.518,1.529-4.183 s-0.51-3.06-1.529-4.184c-1.021-1.124-2.363-1.686-4.027-1.686c-1.665,0-3.007,0.562-4.027,1.686 c-1.021,1.124-1.53,2.519-1.53,4.184S77.481,206.794,78.502,207.918z"/> <linearGradient id="SVGID_33_" gradientUnits="userSpaceOnUse" x1="28.835" y1="128.3272" x2="619.0869" y2="128.3272"> <stop offset="0" style="stop-color:#6C009A"/> <stop offset="0.0728" style="stop-color:#7506A1"/> <stop offset="0.1939" style="stop-color:#8F15B6"/> <stop offset="0.3483" style="stop-color:#B82ED7"/> <stop offset="0.5069" style="stop-color:#EA4CFE"/> <stop offset="0.9944" style="stop-color:#6C009A"/> </linearGradient> <path style="fill:url(#SVGID_33_);" d="M148.958,219.344h-12.799l-7.492-12.487v12.487h-11.55v-31.218h11.55v12.112l6.556-12.112 h13.111l-9.49,15.609L148.958,219.344z"/> <linearGradient id="SVGID_34_" gradientUnits="userSpaceOnUse" x1="28.835" y1="128.3272" x2="619.0869" y2="128.3272"> <stop offset="0" style="stop-color:#6C009A"/> <stop offset="0.0728" style="stop-color:#7506A1"/> <stop offset="0.1939" style="stop-color:#8F15B6"/> <stop offset="0.3483" style="stop-color:#B82ED7"/> <stop offset="0.5069" style="stop-color:#EA4CFE"/> <stop offset="0.9944" style="stop-color:#6C009A"/> </linearGradient> <path style="fill:url(#SVGID_34_);" d="M164.692,220.218c-4.662,0-8.627-1.581-11.894-4.745 c-3.268-3.163-4.901-7.075-4.901-11.737c0-4.661,1.623-8.574,4.87-11.738c3.247-3.162,7.221-4.745,11.925-4.745 c4.703,0,8.678,1.583,11.925,4.745c3.247,3.164,4.87,7.077,4.87,11.738c0,4.662-1.624,8.574-4.87,11.737 C173.371,218.637,169.396,220.218,164.692,220.218z M160.915,207.699c0.978,1.021,2.237,1.53,3.777,1.53 c1.54,0,2.799-0.51,3.777-1.53c0.978-1.02,1.467-2.341,1.467-3.964c0-1.624-0.49-2.944-1.467-3.965 c-0.979-1.02-2.238-1.53-3.777-1.53c-1.541,0-2.8,0.511-3.777,1.53c-0.979,1.021-1.467,2.341-1.467,3.965 C159.448,205.358,159.937,206.68,160.915,207.699z"/> <linearGradient id="SVGID_35_" gradientUnits="userSpaceOnUse" x1="28.835" y1="128.3272" x2="619.0869" y2="128.3272"> <stop offset="0" style="stop-color:#6C009A"/> <stop offset="0.0728" style="stop-color:#7506A1"/> <stop offset="0.1939" style="stop-color:#8F15B6"/> <stop offset="0.3483" style="stop-color:#B82ED7"/> <stop offset="0.5069" style="stop-color:#EA4CFE"/> <stop offset="0.9944" style="stop-color:#6C009A"/> </linearGradient> <path style="fill:url(#SVGID_35_);" d="M204.15,188.126h11.55v31.218h-11.55v-10.114h-7.492v10.114h-11.55v-31.218h11.55v10.114 h7.492V188.126z"/> <linearGradient id="SVGID_36_" gradientUnits="userSpaceOnUse" x1="28.835" y1="128.3272" x2="619.0869" y2="128.3272"> <stop offset="0" style="stop-color:#6C009A"/> <stop offset="0.0728" style="stop-color:#7506A1"/> <stop offset="0.1939" style="stop-color:#8F15B6"/> <stop offset="0.3483" style="stop-color:#B82ED7"/> <stop offset="0.5069" style="stop-color:#EA4CFE"/> <stop offset="0.9944" style="stop-color:#6C009A"/> </linearGradient> <path style="fill:url(#SVGID_36_);" d="M235.867,220.218c-4.787,0-8.762-1.57-11.925-4.714 c-3.164-3.143-4.745-7.064-4.745-11.769c0-4.703,1.581-8.626,4.745-11.77c3.163-3.142,7.138-4.714,11.925-4.714 c3.08,0,5.9,0.739,8.46,2.217c2.56,1.478,4.526,3.465,5.9,5.962l-9.74,5.558c-1.041-1.749-2.581-2.623-4.62-2.623 c-1.458,0-2.675,0.511-3.652,1.53c-0.979,1.021-1.467,2.3-1.467,3.84s0.489,2.82,1.467,3.84c0.978,1.02,2.195,1.529,3.652,1.529 c2.164,0,3.704-0.895,4.62-2.685l9.74,5.619c-1.374,2.539-3.34,4.537-5.9,5.993C241.768,219.489,238.947,220.218,235.867,220.218 z"/> <linearGradient id="SVGID_37_" gradientUnits="userSpaceOnUse" x1="28.835" y1="128.3272" x2="619.0869" y2="128.3272"> <stop offset="0" style="stop-color:#6C009A"/> <stop offset="0.0728" style="stop-color:#7506A1"/> <stop offset="0.1939" style="stop-color:#8F15B6"/> <stop offset="0.3483" style="stop-color:#B82ED7"/> <stop offset="0.5069" style="stop-color:#EA4CFE"/> <stop offset="0.9944" style="stop-color:#6C009A"/> </linearGradient> <path style="fill:url(#SVGID_37_);" d="M279.883,188.126v10.989h-8.491v20.229h-11.613v-20.229h-8.616v-10.989H279.883z"/> <linearGradient id="SVGID_38_" gradientUnits="userSpaceOnUse" x1="28.835" y1="128.3272" x2="619.0869" y2="128.3272"> <stop offset="0" style="stop-color:#6C009A"/> <stop offset="0.0728" style="stop-color:#7506A1"/> <stop offset="0.1939" style="stop-color:#8F15B6"/> <stop offset="0.3483" style="stop-color:#B82ED7"/> <stop offset="0.5069" style="stop-color:#EA4CFE"/> <stop offset="0.9944" style="stop-color:#6C009A"/> </linearGradient> <path style="fill:url(#SVGID_38_);" d="M302.609,187.252c4.204,0,7.638,1.562,10.302,4.683c2.664,3.122,3.996,7.056,3.996,11.801 s-1.333,8.678-3.996,11.8c-2.664,3.122-6.098,4.683-10.302,4.683c-3.58,0-6.368-1.228-8.366-3.684v15.297h-11.55v-43.705h11.55 v2.81C296.241,188.48,299.029,187.252,302.609,187.252z M295.772,207.918c1.02,1.124,2.362,1.686,4.027,1.686 c1.665,0,3.007-0.562,4.027-1.686c1.019-1.124,1.529-2.518,1.529-4.183s-0.51-3.06-1.529-4.184 c-1.021-1.124-2.363-1.686-4.027-1.686c-1.665,0-3.007,0.562-4.027,1.686c-1.021,1.124-1.53,2.519-1.53,4.184 S294.752,206.794,295.772,207.918z"/> <linearGradient id="SVGID_39_" gradientUnits="userSpaceOnUse" x1="28.835" y1="128.3272" x2="619.0869" y2="128.3272"> <stop offset="0" style="stop-color:#6C009A"/> <stop offset="0.0728" style="stop-color:#7506A1"/> <stop offset="0.1939" style="stop-color:#8F15B6"/> <stop offset="0.3483" style="stop-color:#B82ED7"/> <stop offset="0.5069" style="stop-color:#EA4CFE"/> <stop offset="0.9944" style="stop-color:#6C009A"/> </linearGradient> <path style="fill:url(#SVGID_39_);" d="M339.259,188.126h13.111l-10.365,30.281c-1.623,4.786-4.193,8.272-7.711,10.458 s-7.709,3.173-12.58,2.966v-10.927c2.123,0,3.746-0.155,4.871-0.468c1.123-0.313,2.018-0.885,2.684-1.717l-12.487-30.594h13.112 l5.557,16.67L339.259,188.126z"/> <linearGradient id="SVGID_40_" gradientUnits="userSpaceOnUse" x1="28.835" y1="128.3272" x2="619.0869" y2="128.3272"> <stop offset="0" style="stop-color:#6C009A"/> <stop offset="0.0728" style="stop-color:#7506A1"/> <stop offset="0.1939" style="stop-color:#8F15B6"/> <stop offset="0.3483" style="stop-color:#B82ED7"/> <stop offset="0.5069" style="stop-color:#EA4CFE"/> <stop offset="0.9944" style="stop-color:#6C009A"/> </linearGradient> <path style="fill:url(#SVGID_40_);" d="M386.708,219.344h-12.799l-7.492-12.487v12.487h-11.551v-31.218h11.551v12.112 l6.556-12.112h13.111l-9.49,15.609L386.708,219.344z"/> <linearGradient id="SVGID_41_" gradientUnits="userSpaceOnUse" x1="28.835" y1="128.3272" x2="619.0869" y2="128.3272"> <stop offset="0" style="stop-color:#6C009A"/> <stop offset="0.0728" style="stop-color:#7506A1"/> <stop offset="0.1939" style="stop-color:#8F15B6"/> <stop offset="0.3483" style="stop-color:#B82ED7"/> <stop offset="0.5069" style="stop-color:#EA4CFE"/> <stop offset="0.9944" style="stop-color:#6C009A"/> </linearGradient> <path style="fill:url(#SVGID_41_);" d="M415.74,188.126v10.989h-8.491v20.229h-11.613v-20.229h-8.615v-10.989H415.74z"/> <linearGradient id="SVGID_42_" gradientUnits="userSpaceOnUse" x1="28.835" y1="128.3272" x2="619.0869" y2="128.3272"> <stop offset="0" style="stop-color:#6C009A"/> <stop offset="0.0728" style="stop-color:#7506A1"/> <stop offset="0.1939" style="stop-color:#8F15B6"/> <stop offset="0.3483" style="stop-color:#B82ED7"/> <stop offset="0.5069" style="stop-color:#EA4CFE"/> <stop offset="0.9944" style="stop-color:#6C009A"/> </linearGradient> <path style="fill:url(#SVGID_42_);" d="M433.346,220.218c-4.662,0-8.627-1.581-11.894-4.745 c-3.269-3.163-4.901-7.075-4.901-11.737c0-4.661,1.623-8.574,4.87-11.738c3.246-3.162,7.221-4.745,11.925-4.745 c4.703,0,8.679,1.583,11.925,4.745c3.247,3.164,4.87,7.077,4.87,11.738c0,4.662-1.623,8.574-4.87,11.737 C442.024,218.637,438.049,220.218,433.346,220.218z M429.568,207.699c0.978,1.021,2.237,1.53,3.777,1.53 c1.539,0,2.799-0.51,3.777-1.53c0.978-1.02,1.467-2.341,1.467-3.964c0-1.624-0.489-2.944-1.467-3.965 c-0.979-1.02-2.238-1.53-3.777-1.53c-1.54,0-2.8,0.511-3.777,1.53c-0.979,1.021-1.468,2.341-1.468,3.965 C428.101,205.358,428.59,206.68,429.568,207.699z"/> <linearGradient id="SVGID_43_" gradientUnits="userSpaceOnUse" x1="28.835" y1="128.3272" x2="619.0869" y2="128.3272"> <stop offset="0" style="stop-color:#6C009A"/> <stop offset="0.0728" style="stop-color:#7506A1"/> <stop offset="0.1939" style="stop-color:#8F15B6"/> <stop offset="0.3483" style="stop-color:#B82ED7"/> <stop offset="0.5069" style="stop-color:#EA4CFE"/> <stop offset="0.9944" style="stop-color:#6C009A"/> </linearGradient> <path style="fill:url(#SVGID_43_);" d="M473.679,187.252c4.204,0,7.638,1.562,10.302,4.683c2.663,3.122,3.996,7.056,3.996,11.801 s-1.333,8.678-3.996,11.8c-2.664,3.122-6.098,4.683-10.302,4.683c-3.58,0-6.368-1.228-8.366-3.684v15.297h-11.551v-43.705h11.551 v2.81C467.311,188.48,470.099,187.252,473.679,187.252z M466.842,207.918c1.02,1.124,2.362,1.686,4.027,1.686 c1.664,0,3.007-0.562,4.027-1.686c1.02-1.124,1.529-2.518,1.529-4.183s-0.51-3.06-1.529-4.184 c-1.021-1.124-2.363-1.686-4.027-1.686c-1.665,0-3.008,0.562-4.027,1.686c-1.021,1.124-1.529,2.519-1.529,4.184 S465.821,206.794,466.842,207.918z"/> <linearGradient id="SVGID_44_" gradientUnits="userSpaceOnUse" x1="28.835" y1="128.3272" x2="619.0869" y2="128.3272"> <stop offset="0" style="stop-color:#6C009A"/> <stop offset="0.0728" style="stop-color:#7506A1"/> <stop offset="0.1939" style="stop-color:#8F15B6"/> <stop offset="0.3483" style="stop-color:#B82ED7"/> <stop offset="0.5069" style="stop-color:#EA4CFE"/> <stop offset="0.9944" style="stop-color:#6C009A"/> </linearGradient> <path style="fill:url(#SVGID_44_);" d="M501.897,207.668c0.999,2.082,3.122,3.122,6.369,3.122c1.914,0,3.684-0.665,5.307-1.998 l7.555,6.368c-3.122,3.372-7.534,5.058-13.236,5.058c-5.328,0-9.605-1.55-12.83-4.651c-3.227-3.101-4.839-7.003-4.839-11.707 c0-4.744,1.57-8.698,4.714-11.862c3.142-3.162,7.106-4.745,11.894-4.745c4.745,0,8.647,1.552,11.707,4.651 c3.059,3.102,4.589,7.004,4.589,11.707c0,1.373-0.167,2.727-0.5,4.058H501.897z M501.711,200.238h10.488 c-0.708-2.497-2.394-3.746-5.057-3.746C504.437,196.492,502.626,197.741,501.711,200.238z"/> </g> </g> </g> <g id="Layer_2"> <g style="display:none;"> <g style="display:inline;"> <path d="M190.931,54.179v41.709h-35.474v108.787h-42.999V95.888H76.984V54.179H190.931z"/> <path d="M221.672,89.008c-6.02,0-11.217-2.184-15.587-6.557c-4.374-4.371-6.558-9.494-6.558-15.372 c0-5.875,2.184-10.999,6.558-15.372c4.37-4.371,9.567-6.558,15.587-6.558c5.875,0,10.998,2.187,15.372,6.558 c4.37,4.374,6.557,9.497,6.557,15.372c0,5.878-2.187,11.001-6.557,15.372C232.67,86.825,227.548,89.008,221.672,89.008z M201.678,204.675V97.178h39.774v107.497H201.678z"/> <path d="M258.651,204.675V47.729h39.774v156.945H258.651z"/> <path d="M388.507,54.179h39.774v150.496h-39.774V195c-6.879,8.459-16.483,12.685-28.809,12.685 c-14.479,0-26.304-5.375-35.474-16.124c-9.175-10.75-13.76-24.295-13.76-40.634c0-16.34,4.585-29.884,13.76-40.634 c9.17-10.75,20.995-16.125,35.474-16.125c12.325,0,21.93,4.229,28.809,12.685V54.179z M355.506,165.331 c3.511,3.87,8.133,5.805,13.867,5.805c5.73,0,10.354-1.935,13.867-5.805c3.51-3.87,5.267-8.67,5.267-14.404 c0-5.731-1.757-10.535-5.267-14.405c-3.514-3.87-8.137-5.805-13.867-5.805c-5.734,0-10.356,1.935-13.867,5.805 c-3.514,3.87-5.268,8.673-5.268,14.405C350.238,156.661,351.992,161.461,355.506,165.331z"/> <path d="M518.36,97.178h39.774v107.497H518.36V195c-6.879,8.459-16.483,12.685-28.809,12.685 c-14.479,0-26.304-5.375-35.474-16.124c-9.175-10.75-13.76-24.295-13.76-40.634c0-16.34,4.585-29.884,13.76-40.634 c9.17-10.75,20.995-16.125,35.474-16.125c12.325,0,21.93,4.229,28.809,12.685V97.178z M485.359,165.331 c3.511,3.87,8.133,5.805,13.867,5.805c5.73,0,10.354-1.935,13.867-5.805c3.51-3.87,5.267-8.67,5.267-14.404 c0-5.731-1.757-10.535-5.267-14.405c-3.514-3.87-8.137-5.805-13.867-5.805c-5.734,0-10.356,1.935-13.867,5.805 c-3.514,3.87-5.268,8.673-5.268,14.405C480.092,156.661,481.846,161.461,485.359,165.331z"/> </g> <g style="display:inline;"> <linearGradient id="SVGID_45_" gradientUnits="userSpaceOnUse" x1="76.9844" y1="126.417" x2="558.1348" y2="126.417"> <stop offset="0" style="stop-color:#6C009A"/> <stop offset="0.0728" style="stop-color:#7506A1"/> <stop offset="0.1939" style="stop-color:#8F15B6"/> <stop offset="0.3483" style="stop-color:#B82ED7"/> <stop offset="0.5069" style="stop-color:#EA4CFE"/> <stop offset="0.9944" style="stop-color:#6C009A"/> </linearGradient> <path style="fill:url(#SVGID_45_);" d="M190.931,54.179v41.709h-35.474v108.787h-42.999V95.888H76.984V54.179H190.931z"/> <linearGradient id="SVGID_46_" gradientUnits="userSpaceOnUse" x1="76.9844" y1="126.417" x2="558.1348" y2="126.417"> <stop offset="0" style="stop-color:#6C009A"/> <stop offset="0.0728" style="stop-color:#7506A1"/> <stop offset="0.1939" style="stop-color:#8F15B6"/> <stop offset="0.3483" style="stop-color:#B82ED7"/> <stop offset="0.5069" style="stop-color:#EA4CFE"/> <stop offset="0.9944" style="stop-color:#6C009A"/> </linearGradient> <path style="fill:url(#SVGID_46_);" d="M221.672,89.008c-6.02,0-11.217-2.184-15.587-6.557 c-4.374-4.371-6.558-9.494-6.558-15.372c0-5.875,2.184-10.999,6.558-15.372c4.37-4.371,9.567-6.558,15.587-6.558 c5.875,0,10.998,2.187,15.372,6.558c4.37,4.374,6.557,9.497,6.557,15.372c0,5.878-2.187,11.001-6.557,15.372 C232.67,86.825,227.548,89.008,221.672,89.008z M201.678,204.675V97.178h39.774v107.497H201.678z"/> <linearGradient id="SVGID_47_" gradientUnits="userSpaceOnUse" x1="76.9844" y1="126.417" x2="558.1348" y2="126.417"> <stop offset="0" style="stop-color:#6C009A"/> <stop offset="0.0728" style="stop-color:#7506A1"/> <stop offset="0.1939" style="stop-color:#8F15B6"/> <stop offset="0.3483" style="stop-color:#B82ED7"/> <stop offset="0.5069" style="stop-color:#EA4CFE"/> <stop offset="0.9944" style="stop-color:#6C009A"/> </linearGradient> <path style="fill:url(#SVGID_47_);" d="M258.651,204.675V47.729h39.774v156.945H258.651z"/> <linearGradient id="SVGID_48_" gradientUnits="userSpaceOnUse" x1="76.9844" y1="126.417" x2="558.1348" y2="126.417"> <stop offset="0" style="stop-color:#6C009A"/> <stop offset="0.0728" style="stop-color:#7506A1"/> <stop offset="0.1939" style="stop-color:#8F15B6"/> <stop offset="0.3483" style="stop-color:#B82ED7"/> <stop offset="0.5069" style="stop-color:#EA4CFE"/> <stop offset="0.9944" style="stop-color:#6C009A"/> </linearGradient> <path style="fill:url(#SVGID_48_);" d="M388.507,54.179h39.774v150.496h-39.774V195c-6.879,8.459-16.483,12.685-28.809,12.685 c-14.479,0-26.304-5.375-35.474-16.124c-9.175-10.75-13.76-24.295-13.76-40.634c0-16.34,4.585-29.884,13.76-40.634 c9.17-10.75,20.995-16.125,35.474-16.125c12.325,0,21.93,4.229,28.809,12.685V54.179z M355.506,165.331 c3.511,3.87,8.133,5.805,13.867,5.805c5.73,0,10.354-1.935,13.867-5.805c3.51-3.87,5.267-8.67,5.267-14.404 c0-5.731-1.757-10.535-5.267-14.405c-3.514-3.87-8.137-5.805-13.867-5.805c-5.734,0-10.356,1.935-13.867,5.805 c-3.514,3.87-5.268,8.673-5.268,14.405C350.238,156.661,351.992,161.461,355.506,165.331z"/> <linearGradient id="SVGID_49_" gradientUnits="userSpaceOnUse" x1="76.9844" y1="126.417" x2="558.1348" y2="126.417"> <stop offset="0" style="stop-color:#6C009A"/> <stop offset="0.0728" style="stop-color:#7506A1"/> <stop offset="0.1939" style="stop-color:#8F15B6"/> <stop offset="0.3483" style="stop-color:#B82ED7"/> <stop offset="0.5069" style="stop-color:#EA4CFE"/> <stop offset="0.9944" style="stop-color:#6C009A"/> </linearGradient> <path style="fill:url(#SVGID_49_);" d="M518.36,97.178h39.774v107.497H518.36V195c-6.879,8.459-16.483,12.685-28.809,12.685 c-14.479,0-26.304-5.375-35.474-16.124c-9.175-10.75-13.76-24.295-13.76-40.634c0-16.34,4.585-29.884,13.76-40.634 c9.17-10.75,20.995-16.125,35.474-16.125c12.325,0,21.93,4.229,28.809,12.685V97.178z M485.359,165.331 c3.511,3.87,8.133,5.805,13.867,5.805c5.73,0,10.354-1.935,13.867-5.805c3.51-3.87,5.267-8.67,5.267-14.404 c0-5.731-1.757-10.535-5.267-14.405c-3.514-3.87-8.137-5.805-13.867-5.805c-5.734,0-10.356,1.935-13.867,5.805 c-3.514,3.87-5.268,8.673-5.268,14.405C480.092,156.661,481.846,161.461,485.359,165.331z"/> </g> </g> <linearGradient id="SVGID_50_" gradientUnits="userSpaceOnUse" x1="739" y1="96.5" x2="1175" y2="96.5"> <stop offset="0" style="stop-color:#6C009A"/> <stop offset="0.0728" style="stop-color:#7506A1"/> <stop offset="0.1939" style="stop-color:#8F15B6"/> <stop offset="0.3483" style="stop-color:#B82ED7"/> <stop offset="0.5069" style="stop-color:#EA4CFE"/> <stop offset="0.9944" style="stop-color:#6C009A"/> </linearGradient> <rect x="739" y="-31" style="display:none;fill:url(#SVGID_50_);" width="436" height="255"/> <g> <g> <path d="M169.802,42.561v50.285h-42.768V224h-51.84V92.846H32.426V42.561H169.802z"/> <path d="M206.864,84.551c-7.258,0-13.522-2.633-18.792-7.905c-5.273-5.27-7.906-11.445-7.906-18.533 c0-7.083,2.633-13.26,7.906-18.532c5.269-5.27,11.534-7.906,18.792-7.906c7.084,0,13.26,2.637,18.533,7.906 c5.27,5.272,7.906,11.449,7.906,18.532c0,7.088-2.637,13.264-7.906,18.533C220.124,81.918,213.948,84.551,206.864,84.551z M182.759,224V94.4h47.951V224H182.759z"/> <path d="M251.447,224V34.785h47.951V224H251.447z"/> <path d="M408.002,42.561h47.952V224h-47.952v-11.664c-8.294,10.198-19.873,15.293-34.732,15.293 c-17.456,0-31.712-6.48-42.769-19.44c-11.06-12.96-16.587-29.289-16.587-48.988s5.527-36.028,16.587-48.988 c11.057-12.96,25.313-19.44,42.769-19.44c14.859,0,26.438,5.1,34.732,15.293V42.561z M368.215,176.566 c4.232,4.666,9.805,6.999,16.719,6.999c6.909,0,12.481-2.333,16.718-6.999c4.232-4.665,6.351-10.453,6.351-17.366 c0-6.909-2.118-12.701-6.351-17.366c-4.236-4.666-9.809-6.998-16.718-6.998c-6.914,0-12.486,2.332-16.719,6.998 c-4.236,4.665-6.351,10.457-6.351,17.366C361.864,166.113,363.979,171.901,368.215,176.566z"/> <path d="M564.556,94.4h47.952V224h-47.952v-11.664c-8.294,10.198-19.873,15.293-34.732,15.293 c-17.456,0-31.712-6.48-42.769-19.44c-11.061-12.96-16.588-29.289-16.588-48.988s5.527-36.028,16.588-48.988 c11.057-12.96,25.313-19.44,42.769-19.44c14.859,0,26.438,5.1,34.732,15.293V94.4z M524.769,176.566 c4.232,4.666,9.805,6.999,16.719,6.999c6.909,0,12.481-2.333,16.718-6.999c4.232-4.665,6.351-10.453,6.351-17.366 c0-6.909-2.118-12.701-6.351-17.366c-4.236-4.666-9.809-6.998-16.718-6.998c-6.914,0-12.486,2.332-16.719,6.998 c-4.236,4.665-6.351,10.457-6.351,17.366C518.418,166.113,520.532,171.901,524.769,176.566z"/> </g> <g> <linearGradient id="SVGID_51_" gradientUnits="userSpaceOnUse" x1="32.4263" y1="129.6514" x2="612.5078" y2="129.6514"> <stop offset="0" style="stop-color:#E9E400"/> <stop offset="0.055" style="stop-color:#E9DE09"/> <stop offset="0.1466" style="stop-color:#E9CF23"/> <stop offset="0.2634" style="stop-color:#E9B64D"/> <stop offset="0.4009" style="stop-color:#EA9486"/> <stop offset="0.5539" style="stop-color:#EA68CF"/> <stop offset="0.6459" style="stop-color:#EA4CFE"/> <stop offset="0.9944" style="stop-color:#6C009A"/> </linearGradient> <path style="fill:url(#SVGID_51_);" d="M169.802,42.561v50.285h-42.768V224h-51.84V92.846H32.426V42.561H169.802z"/> <linearGradient id="SVGID_52_" gradientUnits="userSpaceOnUse" x1="32.4263" y1="129.6514" x2="612.5078" y2="129.6514"> <stop offset="0" style="stop-color:#E9E400"/> <stop offset="0.055" style="stop-color:#E9DE09"/> <stop offset="0.1466" style="stop-color:#E9CF23"/> <stop offset="0.2634" style="stop-color:#E9B64D"/> <stop offset="0.4009" style="stop-color:#EA9486"/> <stop offset="0.5539" style="stop-color:#EA68CF"/> <stop offset="0.6459" style="stop-color:#EA4CFE"/> <stop offset="0.9944" style="stop-color:#6C009A"/> </linearGradient> <path style="fill:url(#SVGID_52_);" d="M206.864,84.551c-7.258,0-13.522-2.633-18.792-7.905 c-5.273-5.27-7.906-11.445-7.906-18.533c0-7.083,2.633-13.26,7.906-18.532c5.269-5.27,11.534-7.906,18.792-7.906 c7.084,0,13.26,2.637,18.533,7.906c5.27,5.272,7.906,11.449,7.906,18.532c0,7.088-2.637,13.264-7.906,18.533 C220.124,81.918,213.948,84.551,206.864,84.551z M182.759,224V94.4h47.951V224H182.759z"/> <linearGradient id="SVGID_53_" gradientUnits="userSpaceOnUse" x1="32.4263" y1="129.6514" x2="612.5078" y2="129.6514"> <stop offset="0" style="stop-color:#E9E400"/> <stop offset="0.055" style="stop-color:#E9DE09"/> <stop offset="0.1466" style="stop-color:#E9CF23"/> <stop offset="0.2634" style="stop-color:#E9B64D"/> <stop offset="0.4009" style="stop-color:#EA9486"/> <stop offset="0.5539" style="stop-color:#EA68CF"/> <stop offset="0.6459" style="stop-color:#EA4CFE"/> <stop offset="0.9944" style="stop-color:#6C009A"/> </linearGradient> <path style="fill:url(#SVGID_53_);" d="M251.447,224V34.785h47.951V224H251.447z"/> <linearGradient id="SVGID_54_" gradientUnits="userSpaceOnUse" x1="32.4263" y1="129.6514" x2="612.5078" y2="129.6514"> <stop offset="0" style="stop-color:#E9E400"/> <stop offset="0.055" style="stop-color:#E9DE09"/> <stop offset="0.1466" style="stop-color:#E9CF23"/> <stop offset="0.2634" style="stop-color:#E9B64D"/> <stop offset="0.4009" style="stop-color:#EA9486"/> <stop offset="0.5539" style="stop-color:#EA68CF"/> <stop offset="0.6459" style="stop-color:#EA4CFE"/> <stop offset="0.9944" style="stop-color:#6C009A"/> </linearGradient> <path style="fill:url(#SVGID_54_);" d="M408.002,42.561h47.952V224h-47.952v-11.664c-8.294,10.198-19.873,15.293-34.732,15.293 c-17.456,0-31.712-6.48-42.769-19.44c-11.06-12.96-16.587-29.289-16.587-48.988s5.527-36.028,16.587-48.988 c11.057-12.96,25.313-19.44,42.769-19.44c14.859,0,26.438,5.1,34.732,15.293V42.561z M368.215,176.566 c4.232,4.666,9.805,6.999,16.719,6.999c6.909,0,12.481-2.333,16.718-6.999c4.232-4.665,6.351-10.453,6.351-17.366 c0-6.909-2.118-12.701-6.351-17.366c-4.236-4.666-9.809-6.998-16.718-6.998c-6.914,0-12.486,2.332-16.719,6.998 c-4.236,4.665-6.351,10.457-6.351,17.366C361.864,166.113,363.979,171.901,368.215,176.566z"/> <linearGradient id="SVGID_55_" gradientUnits="userSpaceOnUse" x1="32.4263" y1="129.6514" x2="612.5078" y2="129.6514"> <stop offset="0" style="stop-color:#E9E400"/> <stop offset="0.055" style="stop-color:#E9DE09"/> <stop offset="0.1466" style="stop-color:#E9CF23"/> <stop offset="0.2634" style="stop-color:#E9B64D"/> <stop offset="0.4009" style="stop-color:#EA9486"/> <stop offset="0.5539" style="stop-color:#EA68CF"/> <stop offset="0.6459" style="stop-color:#EA4CFE"/> <stop offset="0.9944" style="stop-color:#6C009A"/> </linearGradient> <path style="fill:url(#SVGID_55_);" d="M564.556,94.4h47.952V224h-47.952v-11.664c-8.294,10.198-19.873,15.293-34.732,15.293 c-17.456,0-31.712-6.48-42.769-19.44c-11.061-12.96-16.588-29.289-16.588-48.988s5.527-36.028,16.588-48.988 c11.057-12.96,25.313-19.44,42.769-19.44c14.859,0,26.438,5.1,34.732,15.293V94.4z M524.769,176.566 c4.232,4.666,9.805,6.999,16.719,6.999c6.909,0,12.481-2.333,16.718-6.999c4.232-4.665,6.351-10.453,6.351-17.366 c0-6.909-2.118-12.701-6.351-17.366c-4.236-4.666-9.809-6.998-16.718-6.998c-6.914,0-12.486,2.332-16.719,6.998 c-4.236,4.665-6.351,10.457-6.351,17.366C518.418,166.113,520.532,171.901,524.769,176.566z"/> </g> </g> <g> </g> <g> </g> <g> </g> <g> </g> <g> </g> <g> </g> <g> </g> <g> </g> <g> </g> <g> </g> <g> </g> <g> </g> <g> </g> <g> </g> <g> </g> </g> </svg>