<?xml version="1.0" encoding="UTF-8" standalone="no"?>
<!-- Generator: Adobe Illustrator 16.0.0, SVG Export Plug-In . SVG Version: 6.00 Build 0)  -->
<svg xmlns:dc="http://purl.org/dc/elements/1.1/" xmlns:cc="http://creativecommons.org/ns#" xmlns:rdf="http://www.w3.org/1999/02/22-rdf-syntax-ns#" xmlns:svg="http://www.w3.org/2000/svg" xmlns="http://www.w3.org/2000/svg" xmlns:sodipodi="http://sodipodi.sourceforge.net/DTD/sodipodi-0.dtd" xmlns:inkscape="http://www.inkscape.org/namespaces/inkscape" version="1.1" id="Capa_1" x="0px" y="0px" width="58" height="67.579269" viewBox="0 0 58.000002 67.579271" xml:space="preserve" inkscape:version="0.91 r13725" sodipodi:docname="adv-8.svg"><script xmlns="" type="text/javascript" charset="utf-8" id="zm-extension"/><metadata id="metadata51"><rdf:RDF><cc:Work rdf:about=""><dc:format>image/svg+xml</dc:format><dc:type rdf:resource="http://purl.org/dc/dcmitype/StillImage"/><dc:title/></cc:Work></rdf:RDF></metadata><defs id="defs49"/><sodipodi:namedview pagecolor="#ffffff" bordercolor="#666666" borderopacity="1" objecttolerance="10" gridtolerance="10" guidetolerance="10" inkscape:pageopacity="0" inkscape:pageshadow="2" inkscape:window-width="1920" inkscape:window-height="1017" id="namedview47" showgrid="false" fit-margin-top="0" fit-margin-left="0" fit-margin-right="0" fit-margin-bottom="0" inkscape:zoom="0.70617033" inkscape:cx="143.4125" inkscape:cy="167.09962" inkscape:window-x="-8" inkscape:window-y="-8" inkscape:window-maximized="1" inkscape:current-layer="Capa_1"/><g id="g3" transform="matrix(0.20221319,0,0,0.20221319,-4.7896216,0)" style="fill:#ffffff"><g id="g5" style="fill:#ffffff"><path d="M 296.345,8.681 C 290.98,3.135 283.597,0 275.881,0 L 82.048,0 c 16.231,8.277 28.05,25.541 28.05,44.144 0,15.153 -6.441,28.653 -17.01,37.922 l 200.182,0 c 10.558,-9.274 17.242,-23.26 17.242,-38.422 0,-13.601 -5.406,-25.896 -14.167,-34.963 z" id="path7" inkscape:connector-curvature="0" style="fill:#ffffff"/><path d="m 162.985,326.988 c -0.122,0.725 0.207,1.449 0.826,1.854 0.627,0.394 1.432,0.362 2.033,-0.052 l 9.432,-6.576 c 3.967,-2.775 9.419,-1.885 12.298,2.009 l 6.846,9.228 c 0.445,0.601 1.196,0.87 1.905,0.694 0.725,-0.171 1.258,-0.767 1.377,-1.486 l 8.182,-50.108 c -12.873,-0.519 -24.533,-5.676 -33.389,-13.867 l -9.51,58.304 z" id="path9" inkscape:connector-curvature="0" style="fill:#ffffff"/><path d="m 210.046,282.56 8.182,50.104 c 0.119,0.715 0.663,1.305 1.378,1.481 0.72,0.165 1.471,-0.099 1.905,-0.694 l 8.948,-12.06 c 1.708,-2.314 4.955,-2.849 7.316,-1.207 l 12.318,8.606 c 0.601,0.409 1.403,0.435 2.024,0.041 0.627,-0.394 0.953,-1.118 0.834,-1.849 l -9.518,-58.29 c -8.853,8.203 -20.525,13.36 -33.387,13.868 z" id="path11" inkscape:connector-curvature="0" style="fill:#ffffff"/><path d="m 240.308,259.921 c 7.146,-7.809 11.547,-18.165 11.547,-29.546 0,-24.192 -19.697,-43.89 -43.885,-43.89 -24.197,0 -43.882,19.707 -43.882,43.89 0,11.335 4.347,21.639 11.436,29.432 0.854,0.953 1.745,1.854 2.688,2.734 7.431,6.877 17.213,11.2 28.014,11.625 0.591,0.026 1.16,0.099 1.745,0.099 0.585,0 1.165,-0.072 1.745,-0.099 10.791,-0.425 20.583,-4.748 28.014,-11.625 0.889,-0.839 1.759,-1.709 2.578,-2.62 z" id="path13" inkscape:connector-curvature="0" style="fill:#ffffff"/><path d="M 87.387,77.374 C 97.075,68.879 102.419,57.241 102.419,44.609 102.419,24.371 87.913,11.586 77.398,4.984 69.429,-0.026 59.487,-0.911 50.759,2.625 34.878,9.051 23.686,24.614 23.686,42.802 l 0,240.535 c 0,4.784 3.871,8.662 8.668,8.662 l 127.343,0 5.243,-32.13 c -5.799,-8.399 -9.266,-18.538 -9.266,-29.494 0,-28.832 23.45,-52.294 52.292,-52.294 28.832,0 52.289,23.473 52.289,52.294 0,10.956 -3.454,21.105 -9.279,29.505 l 5.25,32.119 17.72,0 c 4.795,-0.016 8.699,-3.898 8.699,-8.684 l 0,-194.557 -208.242,0 c 0,0 9.74,-8.536 12.984,-11.384 z m 165.534,98.319 -192.406,0 c -2.392,0 -4.327,-1.946 -4.327,-4.339 0,-2.397 1.935,-4.334 4.327,-4.334 l 192.406,0 c 2.388,0 4.329,1.937 4.329,4.334 0,2.393 -1.941,4.339 -4.329,4.339 z M 56.194,145.72 c 0,-2.395 1.937,-4.336 4.332,-4.336 l 135.778,0 c 2.402,0 4.35,1.942 4.35,4.336 0,2.393 -1.947,4.334 -4.35,4.334 l -135.794,0 c -2.387,0 -4.316,-1.942 -4.316,-4.334 z m 196.727,-29.984 c 2.388,0 4.329,1.947 4.329,4.336 0,2.397 -1.941,4.334 -4.329,4.334 l -192.406,0 c -2.392,0 -4.327,-1.937 -4.327,-4.334 0,-2.39 1.935,-4.336 4.327,-4.336 l 192.406,0 z" id="path15" inkscape:connector-curvature="0" style="fill:#ffffff"/></g></g><g id="g17" transform="translate(-23.686,-266.61885)"/><g id="g19" transform="translate(-23.686,-266.61885)"/><g id="g21" transform="translate(-23.686,-266.61885)"/><g id="g23" transform="translate(-23.686,-266.61885)"/><g id="g25" transform="translate(-23.686,-266.61885)"/><g id="g27" transform="translate(-23.686,-266.61885)"/><g id="g29" transform="translate(-23.686,-266.61885)"/><g id="g31" transform="translate(-23.686,-266.61885)"/><g id="g33" transform="translate(-23.686,-266.61885)"/><g id="g35" transform="translate(-23.686,-266.61885)"/><g id="g37" transform="translate(-23.686,-266.61885)"/><g id="g39" transform="translate(-23.686,-266.61885)"/><g id="g41" transform="translate(-23.686,-266.61885)"/><g id="g43" transform="translate(-23.686,-266.61885)"/><g id="g45" transform="translate(-23.686,-266.61885)"/></svg>