<?xml version="1.0" encoding="UTF-8" standalone="no"?>
<!-- Generator: Adobe Illustrator 16.0.0, SVG Export Plug-In . SVG Version: 6.00 Build 0)  -->
<svg xmlns:dc="http://purl.org/dc/elements/1.1/" xmlns:cc="http://creativecommons.org/ns#" xmlns:rdf="http://www.w3.org/1999/02/22-rdf-syntax-ns#" xmlns:svg="http://www.w3.org/2000/svg" xmlns="http://www.w3.org/2000/svg" xmlns:sodipodi="http://sodipodi.sourceforge.net/DTD/sodipodi-0.dtd" xmlns:inkscape="http://www.inkscape.org/namespaces/inkscape" version="1.1" id="Capa_1" x="0px" y="0px" width="65.275223" height="70" viewBox="0 0 65.275222 69.999999" xml:space="preserve" inkscape:version="0.91 r13725" sodipodi:docname="adv-1.svg"><script xmlns="" type="text/javascript" charset="utf-8" id="zm-extension"/><metadata id="metadata53"><rdf:RDF><cc:Work rdf:about=""><dc:format>image/svg+xml</dc:format><dc:type rdf:resource="http://purl.org/dc/dcmitype/StillImage"/><dc:title/></cc:Work></rdf:RDF></metadata><defs id="defs51"/><sodipodi:namedview pagecolor="#ffffff" bordercolor="#666666" borderopacity="1" objecttolerance="10" gridtolerance="10" guidetolerance="10" inkscape:pageopacity="0" inkscape:pageshadow="2" inkscape:window-width="1920" inkscape:window-height="1017" id="namedview49" showgrid="false" inkscape:zoom="1.1539721" inkscape:cx="-34.198348" inkscape:cy="102.2565" inkscape:window-x="-8" inkscape:window-y="-8" inkscape:window-maximized="1" inkscape:current-layer="Capa_1" fit-margin-top="0" fit-margin-left="0" fit-margin-right="0" fit-margin-bottom="0"/><g id="g3" transform="matrix(0.3422782,0,0,0.3422782,-2.3621725,0)" style="fill:#ffffff"><g id="g5" style="fill:#ffffff"><path d="m 43.019,55.082 c 8.692,0 15.744,-10.083 15.744,-18.782 0,-8.705 -7.051,-15.75 -15.744,-15.75 -8.698,0 -15.75,7.051 -15.75,15.75 0,8.693 7.051,18.782 15.75,18.782 z" id="path7" inkscape:connector-curvature="0" style="fill:#ffffff"/><path d="m 161.486,55.082 c 8.695,0 15.746,-10.083 15.746,-18.782 0,-8.705 -7.051,-15.75 -15.746,-15.75 -8.695,0 -15.747,7.051 -15.747,15.75 0,8.693 7.052,18.782 15.747,18.782 z" id="path9" inkscape:connector-curvature="0" style="fill:#ffffff"/><path d="m 53.888,123.72 c -2.338,-2.924 -3.397,-6.589 -2.986,-10.303 l 6.146,-55.348 c -4.408,-0.95 -9.371,-1.708 -14.029,-1.708 -11.104,0 -24.031,4.308 -26.576,5.194 -0.104,0.03 -0.198,0.067 -0.298,0.106 -0.055,0.024 -0.137,0.049 -0.155,0.055 -0.125,0.048 -0.207,0.143 -0.326,0.201 -0.597,0.262 -1.166,0.566 -1.65,1.001 -0.231,0.201 -0.381,0.451 -0.576,0.679 -0.311,0.369 -0.624,0.719 -0.84,1.16 -0.201,0.387 -0.274,0.813 -0.387,1.23 -0.082,0.304 -0.25,0.566 -0.286,0.898 L 6.94,111.724 c -0.38,3.416 2.083,6.497 5.501,6.881 0.234,0.024 0.466,0.036 0.697,0.036 3.13,0 5.831,-2.351 6.181,-5.541 l 4.536,-40.846 c 0.533,-0.155 1.111,-0.332 1.729,-0.506 l 0,42.509 -4.957,61.641 c -0.332,4.109 2.737,7.715 6.85,8.043 0.207,0.019 0.408,0.025 0.606,0.025 3.86,0 7.134,-2.96 7.444,-6.869 l 4.484,-55.716 c 0.922,0.402 1.939,0.646 3.011,0.646 1.078,0 2.095,-0.231 3.017,-0.646 l 4.484,55.716 c 0.311,3.909 3.584,6.869 7.438,6.869 0.201,0 0.405,-0.007 0.606,-0.025 4.113,-0.328 7.182,-3.934 6.851,-8.043 l -3.809,-47.344 c -3.002,-0.706 -5.733,-2.338 -7.721,-4.834 z" id="path11" inkscape:connector-curvature="0" style="fill:#ffffff"/><path d="m 192.59,66.88 c -0.037,-0.313 -0.201,-0.569 -0.274,-0.861 -0.121,-0.436 -0.201,-0.88 -0.414,-1.285 -0.183,-0.362 -0.444,-0.648 -0.694,-0.953 -0.249,-0.32 -0.462,-0.643 -0.767,-0.904 -0.359,-0.308 -0.768,-0.493 -1.176,-0.712 -0.262,-0.137 -0.463,-0.354 -0.742,-0.454 -0.604,-0.213 -14.925,-5.349 -27.036,-5.349 -4.671,0 -9.621,0.773 -14.029,1.72 l 6.149,55.336 c 0.408,3.714 -0.651,7.386 -2.989,10.303 -1.973,2.472 -4.683,4.109 -7.715,4.822 l -3.812,47.35 c -0.329,4.104 2.739,7.709 6.85,8.043 0.207,0.019 0.408,0.024 0.609,0.024 3.86,0 7.13,-2.965 7.44,-6.874 l 4.488,-55.71 c 0.919,0.408 1.937,0.651 3.008,0.651 1.078,0 2.095,-0.243 3.021,-0.651 l 4.481,55.71 c 0.311,3.909 3.586,6.874 7.44,6.874 0.201,0 0.402,-0.006 0.604,-0.024 4.116,-0.334 7.185,-3.939 6.85,-8.043 l -4.956,-61.646 0,-42.505 c 0.621,0.174 1.199,0.35 1.729,0.505 l 4.542,40.846 c 0.354,3.185 3.045,5.547 6.181,5.547 0.231,0 0.463,-0.024 0.694,-0.048 3.416,-0.378 5.882,-3.459 5.498,-6.875 L 192.59,66.88 Z" id="path13" inkscape:connector-curvature="0" style="fill:#ffffff"/><path d="m 102.254,43.218 c 10.872,0 19.701,-12.623 19.701,-23.511 C 121.955,8.823 113.126,0 102.254,0 91.367,0 82.537,8.823 82.537,19.707 c 0,10.888 8.83,23.511 19.717,23.511 z" id="path15" inkscape:connector-curvature="0" style="fill:#ffffff"/><path d="m 140.527,122.702 c 4.274,-0.469 7.355,-4.329 6.881,-8.604 L 141.173,57.98 c -0.043,-0.387 -0.25,-0.703 -0.341,-1.077 -0.146,-0.548 -0.256,-1.1 -0.518,-1.604 -0.231,-0.448 -0.561,-0.811 -0.877,-1.197 -0.305,-0.393 -0.572,-0.798 -0.95,-1.126 -0.444,-0.387 -0.956,-0.624 -1.474,-0.898 -0.322,-0.17 -0.572,-0.438 -0.932,-0.569 -0.7,-0.256 -16.392,-5.879 -30.811,-6.622 l -1.982,3.961 -0.049,0 5.249,40.892 -6.235,10.89 -6.235,-10.89 5.249,-40.886 -0.061,0 -1.952,-3.909 c -13.143,0.661 -27.304,5.337 -30.26,6.366 -0.131,0.037 -0.25,0.085 -0.375,0.131 -0.073,0.031 -0.167,0.061 -0.198,0.073 -0.159,0.058 -0.262,0.183 -0.408,0.25 -0.752,0.332 -1.458,0.706 -2.07,1.254 -0.286,0.256 -0.472,0.566 -0.715,0.855 -0.387,0.459 -0.78,0.901 -1.054,1.446 -0.25,0.484 -0.344,1.008 -0.487,1.538 -0.106,0.39 -0.311,0.712 -0.356,1.123 l -6.235,56.118 c -0.472,4.274 2.606,8.135 6.884,8.604 0.295,0.043 0.588,0.055 0.874,0.055 3.915,0 7.295,-2.953 7.739,-6.941 l 5.678,-51.106 c 0.661,-0.201 1.391,-0.411 2.165,-0.636 l 0,53.203 -6.205,77.132 c -0.411,5.146 3.425,9.663 8.574,10.071 0.256,0.019 0.512,0.031 0.761,0.031 4.826,0 8.924,-3.709 9.316,-8.604 l 5.605,-69.715 c 1.16,0.512 2.433,0.804 3.772,0.804 1.339,0 2.618,-0.292 3.772,-0.804 l 5.605,69.715 c 0.393,4.896 4.49,8.604 9.313,8.604 0.249,0 0.505,-0.013 0.761,-0.031 5.151,-0.408 8.987,-4.926 8.573,-10.071 l -6.211,-77.132 0,-53.205 c 0.773,0.219 1.504,0.429 2.168,0.636 l 5.675,51.106 c 0.445,3.994 3.818,6.941 7.739,6.941 0.283,0.001 0.575,-0.023 0.873,-0.054 z" id="path17" inkscape:connector-curvature="0" style="fill:#ffffff"/></g></g><g id="g19" transform="translate(-6.9013232,-134.512)"/><g id="g21" transform="translate(-6.9013232,-134.512)"/><g id="g23" transform="translate(-6.9013232,-134.512)"/><g id="g25" transform="translate(-6.9013232,-134.512)"/><g id="g27" transform="translate(-6.9013232,-134.512)"/><g id="g29" transform="translate(-6.9013232,-134.512)"/><g id="g31" transform="translate(-6.9013232,-134.512)"/><g id="g33" transform="translate(-6.9013232,-134.512)"/><g id="g35" transform="translate(-6.9013232,-134.512)"/><g id="g37" transform="translate(-6.9013232,-134.512)"/><g id="g39" transform="translate(-6.9013232,-134.512)"/><g id="g41" transform="translate(-6.9013232,-134.512)"/><g id="g43" transform="translate(-6.9013232,-134.512)"/><g id="g45" transform="translate(-6.9013232,-134.512)"/><g id="g47" transform="translate(-6.9013232,-134.512)"/></svg>