<?xml version="1.0" encoding="UTF-8" standalone="no"?>
<!-- Generator: Adobe Illustrator 18.1.1, SVG Export Plug-In . SVG Version: 6.00 Build 0)  -->
<svg xmlns:dc="http://purl.org/dc/elements/1.1/" xmlns:cc="http://creativecommons.org/ns#" xmlns:rdf="http://www.w3.org/1999/02/22-rdf-syntax-ns#" xmlns:svg="http://www.w3.org/2000/svg" xmlns="http://www.w3.org/2000/svg" xmlns:sodipodi="http://sodipodi.sourceforge.net/DTD/sodipodi-0.dtd" xmlns:inkscape="http://www.inkscape.org/namespaces/inkscape" version="1.1" id="Capa_1" x="0px" y="0px" viewBox="0 0 51 68.835449" xml:space="preserve" inkscape:version="0.91 r13725" sodipodi:docname="adv-2.svg" width="51" height="68.835449"><script xmlns="" type="text/javascript" charset="utf-8" id="zm-extension"/><metadata id="metadata73"><rdf:RDF><cc:Work rdf:about=""><dc:format>image/svg+xml</dc:format><dc:type rdf:resource="http://purl.org/dc/dcmitype/StillImage"/><dc:title/></cc:Work></rdf:RDF></metadata><defs id="defs71"/><sodipodi:namedview pagecolor="#ffffff" bordercolor="#666666" borderopacity="1" objecttolerance="10" gridtolerance="10" guidetolerance="10" inkscape:pageopacity="0" inkscape:pageshadow="2" inkscape:window-width="1920" inkscape:window-height="1017" id="namedview69" showgrid="false" fit-margin-top="0" fit-margin-left="0" fit-margin-right="0" fit-margin-bottom="0" inkscape:zoom="1" inkscape:cx="11.741" inkscape:cy="15.846999" inkscape:window-x="-8" inkscape:window-y="-8" inkscape:window-maximized="1" inkscape:current-layer="Capa_1"/><g id="g3" transform="matrix(2.1718763,0,0,2.1718763,-8.9177241,0)" style="fill:#ffffff"><path d="m 23.112,9.35 c -4.473,2.742 -7.697,6.205 -9.006,7.744 L 10.745,14.461 C 10.656,14.397 8.811,16.035 8.86,16.086 l 6.121,6.223 c 0.045,0.051 0.107,0.074 0.174,0.074 0.012,0 0.031,0 0.047,-0.004 0.08,-0.018 0.148,-0.072 0.178,-0.152 0.986,-2.521 4.242,-7.799 8.4,-11.627 0.074,-0.07 0.1,-0.18 0.059,-0.275 C 23.838,10.324 23.174,9.312 23.112,9.35 Z" id="path5" inkscape:connector-curvature="0" style="fill:#ffffff"/><path d="M 27.126,3.842 C 17.858,3.842 16.29,0.324 16.276,0.291 16.208,0.119 16.04,0.004 15.85,0 15.85,0 15.846,0 15.842,0 15.658,0 15.488,0.115 15.414,0.283 15.403,0.32 13.801,3.842 4.568,3.842 4.31,3.842 4.106,4.051 4.106,4.303 l 0,15.764 c 0,6.453 11.084,11.383 11.553,11.59 0.062,0.027 0.121,0.037 0.188,0.037 0.061,0 0.127,-0.01 0.186,-0.037 0.473,-0.207 11.555,-5.137 11.555,-11.59 l 0,-15.764 C 27.586,4.051 27.381,3.842 27.126,3.842 Z M 25.038,19.15 c 0,5.049 -8.678,8.912 -9.047,9.072 -0.045,0.023 -0.098,0.031 -0.145,0.031 -0.051,0 -0.098,-0.008 -0.146,-0.031 -0.365,-0.16 -9.046,-4.023 -9.046,-9.072 l 0,-12.339 c 0,-0.199 0.161,-0.363 0.362,-0.363 7.229,0 8.482,-2.756 8.494,-2.783 0.057,-0.133 0.189,-0.223 0.334,-0.223 0.002,0 0.006,0 0.006,0 0.148,0.002 0.279,0.092 0.332,0.229 0.012,0.025 1.24,2.777 8.494,2.777 0.201,0 0.361,0.164 0.361,0.363 l 0.001,12.339 0,0 z" id="path7" inkscape:connector-curvature="0" style="fill:#ffffff"/><g id="g9" style="fill:#ffffff"/><g id="g11" style="fill:#ffffff"/><g id="g13" style="fill:#ffffff"/><g id="g15" style="fill:#ffffff"/><g id="g17" style="fill:#ffffff"/><g id="g19" style="fill:#ffffff"/><g id="g21" style="fill:#ffffff"/><g id="g23" style="fill:#ffffff"/><g id="g25" style="fill:#ffffff"/><g id="g27" style="fill:#ffffff"/><g id="g29" style="fill:#ffffff"/><g id="g31" style="fill:#ffffff"/><g id="g33" style="fill:#ffffff"/><g id="g35" style="fill:#ffffff"/><g id="g37" style="fill:#ffffff"/></g><g id="g39" transform="translate(-4.1059999,37.141448)"/><g id="g41" transform="translate(-4.1059999,37.141448)"/><g id="g43" transform="translate(-4.1059999,37.141448)"/><g id="g45" transform="translate(-4.1059999,37.141448)"/><g id="g47" transform="translate(-4.1059999,37.141448)"/><g id="g49" transform="translate(-4.1059999,37.141448)"/><g id="g51" transform="translate(-4.1059999,37.141448)"/><g id="g53" transform="translate(-4.1059999,37.141448)"/><g id="g55" transform="translate(-4.1059999,37.141448)"/><g id="g57" transform="translate(-4.1059999,37.141448)"/><g id="g59" transform="translate(-4.1059999,37.141448)"/><g id="g61" transform="translate(-4.1059999,37.141448)"/><g id="g63" transform="translate(-4.1059999,37.141448)"/><g id="g65" transform="translate(-4.1059999,37.141448)"/><g id="g67" transform="translate(-4.1059999,37.141448)"/></svg>