<?xml version="1.0" encoding="UTF-8" standalone="no"?>
<!-- Generator: Adobe Illustrator 16.0.0, SVG Export Plug-In . SVG Version: 6.00 Build 0)  -->
<svg xmlns:dc="http://purl.org/dc/elements/1.1/" xmlns:cc="http://creativecommons.org/ns#" xmlns:rdf="http://www.w3.org/1999/02/22-rdf-syntax-ns#" xmlns:svg="http://www.w3.org/2000/svg" xmlns="http://www.w3.org/2000/svg" xmlns:sodipodi="http://sodipodi.sourceforge.net/DTD/sodipodi-0.dtd" xmlns:inkscape="http://www.inkscape.org/namespaces/inkscape" version="1.1" id="Capa_1" x="0px" y="0px" width="35" height="73.90284" viewBox="0 0 34.999999 73.902838" xml:space="preserve" inkscape:version="0.91 r13725" sodipodi:docname="adv-5.svg"><script xmlns="" type="text/javascript" charset="utf-8" id="zm-extension"/><metadata id="metadata41"><rdf:RDF><cc:Work rdf:about=""><dc:format>image/svg+xml</dc:format><dc:type rdf:resource="http://purl.org/dc/dcmitype/StillImage"/><dc:title/></cc:Work></rdf:RDF></metadata><defs id="defs39"/><sodipodi:namedview pagecolor="#ffffff" bordercolor="#666666" borderopacity="1" objecttolerance="10" gridtolerance="10" guidetolerance="10" inkscape:pageopacity="0" inkscape:pageshadow="2" inkscape:window-width="1920" inkscape:window-height="1017" id="namedview37" showgrid="false" fit-margin-top="0" fit-margin-left="0" fit-margin-right="0" fit-margin-bottom="0" inkscape:zoom="0.26334876" inkscape:cx="212.20601" inkscape:cy="448.075" inkscape:window-x="-8" inkscape:window-y="-8" inkscape:window-maximized="1" inkscape:current-layer="Capa_1"/><g id="g3" transform="matrix(0.08246704,0,0,0.08246704,-19.451418,0)" style="fill:#ffffff"><path d="m 565.65,537.727 c 9.836,-45.773 15.408,-98.106 15.408,-153.699 0,-110.484 -19.464,-196.042 -53.142,-269.977 C 506.818,67.729 478.591,0 450.902,0 c -27.421,0 -56.854,68.503 -77.83,114.05 -34.021,73.852 -52.321,158.826 -52.321,269.977 0,53.134 5.096,103.289 14.124,147.587 l -99.006,138.184 0,226.352 135.8,-141.472 11.328,0 0,28.293 130.154,0 0,-28.293 11.328,0 135.802,141.472 0,-226.353 -94.631,-132.07 z M 450.903,494.374 c -28.128,0 -50.929,-22.801 -50.929,-50.93 0,-28.128 22.802,-50.93 50.929,-50.93 28.13,0 50.931,22.802 50.931,50.93 0,28.129 -22.802,50.93 -50.931,50.93 z m 0,-164.106 c -28.128,0 -50.929,-22.801 -50.929,-50.93 0,-28.126 22.802,-50.929 50.929,-50.929 28.13,0 50.931,22.803 50.931,50.929 0,28.128 -22.802,50.93 -50.931,50.93 z" id="path5" inkscape:connector-curvature="0" style="fill:#ffffff"/></g><g id="g7" transform="translate(-235.869,-822.24717)"/><g id="g9" transform="translate(-235.869,-822.24717)"/><g id="g11" transform="translate(-235.869,-822.24717)"/><g id="g13" transform="translate(-235.869,-822.24717)"/><g id="g15" transform="translate(-235.869,-822.24717)"/><g id="g17" transform="translate(-235.869,-822.24717)"/><g id="g19" transform="translate(-235.869,-822.24717)"/><g id="g21" transform="translate(-235.869,-822.24717)"/><g id="g23" transform="translate(-235.869,-822.24717)"/><g id="g25" transform="translate(-235.869,-822.24717)"/><g id="g27" transform="translate(-235.869,-822.24717)"/><g id="g29" transform="translate(-235.869,-822.24717)"/><g id="g31" transform="translate(-235.869,-822.24717)"/><g id="g33" transform="translate(-235.869,-822.24717)"/><g id="g35" transform="translate(-235.869,-822.24717)"/></svg>