<?xml version="1.0" encoding="UTF-8" standalone="no"?>
<!-- Generator: Adobe Illustrator 16.0.0, SVG Export Plug-In . SVG Version: 6.00 Build 0)  -->
<svg xmlns:dc="http://purl.org/dc/elements/1.1/" xmlns:cc="http://creativecommons.org/ns#" xmlns:rdf="http://www.w3.org/1999/02/22-rdf-syntax-ns#" xmlns:svg="http://www.w3.org/2000/svg" xmlns="http://www.w3.org/2000/svg" xmlns:sodipodi="http://sodipodi.sourceforge.net/DTD/sodipodi-0.dtd" xmlns:inkscape="http://www.inkscape.org/namespaces/inkscape" version="1.1" id="Capa_1" x="0px" y="0px" width="66" height="66" viewBox="0 0 66 66" xml:space="preserve" inkscape:version="0.91 r13725" sodipodi:docname="adv-3.svg"><script xmlns="" type="text/javascript" charset="utf-8" id="zm-extension"/><metadata id="metadata69"><rdf:RDF><cc:Work rdf:about=""><dc:format>image/svg+xml</dc:format><dc:type rdf:resource="http://purl.org/dc/dcmitype/StillImage"/><dc:title/></cc:Work></rdf:RDF></metadata><defs id="defs67"/><sodipodi:namedview pagecolor="#ffffff" bordercolor="#666666" borderopacity="1" objecttolerance="10" gridtolerance="10" guidetolerance="10" inkscape:pageopacity="0" inkscape:pageshadow="2" inkscape:window-width="1920" inkscape:window-height="1017" id="namedview65" showgrid="false" fit-margin-top="0" fit-margin-left="0" fit-margin-right="0" fit-margin-bottom="0" inkscape:zoom="3.9333333" inkscape:cx="30" inkscape:cy="30" inkscape:window-x="-8" inkscape:window-y="-8" inkscape:window-maximized="1" inkscape:current-layer="Capa_1"/><g id="g3" transform="scale(1.1,1.1)" style="fill:#ffffff"><g id="g5" style="fill:#ffffff"><path d="M 30,0 C 13.458,0 0,13.458 0,30 0,46.542 13.458,60 30,60 46.542,60 60,46.542 60,30 60,13.458 46.542,0 30,0 Z m 0,56.999 c -14.888,0 -27,-12.112 -27,-27 0,-14.888 12.112,-27 27,-27 14.889,0 27,12.112 27,27 0,14.888 -12.111,27 -27,27 z" id="path7" inkscape:connector-curvature="0" style="fill:#ffffff"/><path d="m 10.917,28.833 c 0,-0.552 -0.448,-1 -1,-1 l -5.334,0 c -0.552,0 -1,0.448 -1,1 0,0.552 0.448,1 1,1 l 5.334,0 c 0.552,0 1,-0.448 1,-1 z" id="path9" inkscape:connector-curvature="0" style="fill:#ffffff"/><path d="m 47.708,28.833 c 0,0.552 0.448,1 1,1 l 5.334,0 c 0.552,0 1,-0.448 1,-1 0,-0.552 -0.448,-1 -1,-1 l -5.334,0 c -0.552,0 -1,0.448 -1,1 z" id="path11" inkscape:connector-curvature="0" style="fill:#ffffff"/><path d="m 29.375,11.604 c 0.552,0 1,-0.448 1,-1 l 0,-5.334 c 0,-0.552 -0.448,-1 -1,-1 -0.552,0 -1,0.448 -1,1 l 0,5.334 c 0,0.552 0.448,1 1,1 z" id="path13" inkscape:connector-curvature="0" style="fill:#ffffff"/><path d="m 29.375,48.395 c -0.552,0 -1,0.448 -1,1 l 0,5.334 c 0,0.553 0.448,1 1,1 0.552,0 1,-0.447 1,-1 l 0,-5.334 c 0,-0.552 -0.448,-1 -1,-1 z" id="path15" inkscape:connector-curvature="0" style="fill:#ffffff"/><circle cx="9.9169998" cy="18.249001" r="1.1670001" id="circle17" style="fill:#ffffff"/><circle cx="49.875" cy="18.249001" r="1.1670001" id="circle19" style="fill:#ffffff"/><circle cx="17.5" cy="9.1040001" r="1.1670001" id="circle21" style="fill:#ffffff"/><circle cx="41.25" cy="9.1040001" r="1.1670001" id="circle23" style="fill:#ffffff"/><circle cx="10.021" cy="41.749001" r="1.1670001" id="circle25" style="fill:#ffffff"/><circle cx="49.979" cy="41.749001" r="1.1670001" id="circle27" style="fill:#ffffff"/><circle cx="17.604" cy="50.896" r="1.1670001" id="circle29" style="fill:#ffffff"/><circle cx="41.354" cy="50.896" r="1.1670001" id="circle31" style="fill:#ffffff"/><path d="m 26.221,12.05 c -0.18,-0.522 -0.749,-0.8 -1.271,-0.621 -0.522,0.18 -0.8,0.748 -0.621,1.271 L 30.348,30.212 17.052,43.18 c -0.396,0.385 -0.403,1.019 -0.017,1.413 0.196,0.201 0.455,0.302 0.716,0.302 0.252,0 0.504,-0.094 0.698,-0.283 l 13.75,-13.409 c 0.277,-0.271 0.373,-0.675 0.248,-1.041 L 26.221,12.05 Z" id="path33" inkscape:connector-curvature="0" style="fill:#ffffff"/></g></g><g id="g35" transform="translate(0,6)"/><g id="g37" transform="translate(0,6)"/><g id="g39" transform="translate(0,6)"/><g id="g41" transform="translate(0,6)"/><g id="g43" transform="translate(0,6)"/><g id="g45" transform="translate(0,6)"/><g id="g47" transform="translate(0,6)"/><g id="g49" transform="translate(0,6)"/><g id="g51" transform="translate(0,6)"/><g id="g53" transform="translate(0,6)"/><g id="g55" transform="translate(0,6)"/><g id="g57" transform="translate(0,6)"/><g id="g59" transform="translate(0,6)"/><g id="g61" transform="translate(0,6)"/><g id="g63" transform="translate(0,6)"/></svg>