<?xml version="1.0" encoding="UTF-8" standalone="no"?>
<!-- Generator: Adobe Illustrator 16.0.0, SVG Export Plug-In . SVG Version: 6.00 Build 0)  -->
<svg xmlns:dc="http://purl.org/dc/elements/1.1/" xmlns:cc="http://creativecommons.org/ns#" xmlns:rdf="http://www.w3.org/1999/02/22-rdf-syntax-ns#" xmlns:svg="http://www.w3.org/2000/svg" xmlns="http://www.w3.org/2000/svg" xmlns:sodipodi="http://sodipodi.sourceforge.net/DTD/sodipodi-0.dtd" xmlns:inkscape="http://www.inkscape.org/namespaces/inkscape" version="1.1" id="Capa_1" x="0px" y="0px" width="81" height="59.828594" viewBox="0 0 81.000003 59.828596" xml:space="preserve" inkscape:version="0.91 r13725" sodipodi:docname="adv-7.svg"><script xmlns="" type="text/javascript" charset="utf-8" id="zm-extension"/><metadata id="metadata53"><rdf:RDF><cc:Work rdf:about=""><dc:format>image/svg+xml</dc:format><dc:type rdf:resource="http://purl.org/dc/dcmitype/StillImage"/><dc:title/></cc:Work></rdf:RDF></metadata><defs id="defs51"/><sodipodi:namedview pagecolor="#ffffff" bordercolor="#666666" borderopacity="1" objecttolerance="10" gridtolerance="10" guidetolerance="10" inkscape:pageopacity="0" inkscape:pageshadow="2" inkscape:window-width="1920" inkscape:window-height="1017" id="namedview49" showgrid="false" fit-margin-top="0" fit-margin-left="0" fit-margin-right="0" fit-margin-bottom="0" inkscape:zoom="0.29744538" inkscape:cx="396.71185" inkscape:cy="293.02051" inkscape:window-x="-8" inkscape:window-y="-8" inkscape:window-maximized="1" inkscape:current-layer="Capa_1"/><g id="g3" transform="matrix(0.10208926,0,0,0.10208926,3.682896e-5,-10.585635)" style="fill:#ffffff"><g id="g5" style="fill:#ffffff"><path d="M 533.433,578.916 C 544.089,353.023 744.41,421.221 744.41,421.221 686.872,301.88 435.406,312.533 435.406,312.533 l 0,-127.862 C 384.262,67.46 196.725,131.394 196.725,131.394 L 177.547,265.652 C -20.641,261.391 0.667,395.646 0.667,395.646 c 59.672,-49.197 133.758,-53.262 181.142,-49.197 186.098,15.998 179.01,232.469 179.01,232.469 l 172.614,-0.002 0,0 z M 207.382,280.57 224.431,159.098 c 151.305,-38.36 183.272,44.753 183.272,44.753 l 0,142.598 -35.495,53.46 C 343.105,289.094 207.382,280.57 207.382,280.57 Z" id="path7" inkscape:connector-curvature="0" style="fill:#ffffff"/><path d="m 162.63,399.909 c -80.03,0 -144.914,64.885 -144.914,144.911 0,80.035 64.884,144.912 144.914,144.912 80.028,0 144.91,-64.877 144.91,-144.912 0,-80.028 -64.882,-144.911 -144.91,-144.911 z m 0,221.63 c -42.372,0 -76.72,-34.346 -76.72,-76.719 0,-42.371 34.349,-76.717 76.72,-76.717 42.371,0 76.717,34.346 76.717,76.717 0,42.373 -34.346,76.719 -76.717,76.719 z" id="path9" inkscape:connector-curvature="0" style="fill:#ffffff"/><circle cx="162.63" cy="544.82098" r="34.095001" id="circle11" style="fill:#ffffff"/><path d="m 684.741,689.732 c 60.019,0 108.682,-48.666 108.682,-108.684 0,-60.02 -48.663,-108.688 -108.682,-108.688 -60.018,0 -108.685,48.669 -108.685,108.688 10e-4,60.017 48.668,108.684 108.685,108.684 z m 0,-166.222 c 31.782,0 57.537,25.756 57.537,57.539 0,31.784 -25.754,57.539 -57.537,57.539 -31.784,0 -57.54,-25.755 -57.54,-57.539 0,-31.783 25.756,-57.539 57.54,-57.539 z" id="path13" inkscape:connector-curvature="0" style="fill:#ffffff"/><path d="m 684.741,606.621 c 14.116,0 25.572,-11.452 25.572,-25.57 0,-14.117 -11.456,-25.572 -25.572,-25.572 -14.118,0 -25.573,11.455 -25.573,25.572 0,14.117 11.455,25.57 25.573,25.57 z" id="path15" inkscape:connector-curvature="0" style="fill:#ffffff"/><path d="m 554.747,103.69 c 0,0 -62.271,46.882 -55.878,200.321 l 55.878,0 c 0,0 -28.174,-112.932 0,-159.831 l 0,-40.49 z" id="path17" inkscape:connector-curvature="0" style="fill:#ffffff"/></g></g><g id="g19" transform="translate(3.6075254e-4,-629.90341)"/><g id="g21" transform="translate(3.6075254e-4,-629.90341)"/><g id="g23" transform="translate(3.6075254e-4,-629.90341)"/><g id="g25" transform="translate(3.6075254e-4,-629.90341)"/><g id="g27" transform="translate(3.6075254e-4,-629.90341)"/><g id="g29" transform="translate(3.6075254e-4,-629.90341)"/><g id="g31" transform="translate(3.6075254e-4,-629.90341)"/><g id="g33" transform="translate(3.6075254e-4,-629.90341)"/><g id="g35" transform="translate(3.6075254e-4,-629.90341)"/><g id="g37" transform="translate(3.6075254e-4,-629.90341)"/><g id="g39" transform="translate(3.6075254e-4,-629.90341)"/><g id="g41" transform="translate(3.6075254e-4,-629.90341)"/><g id="g43" transform="translate(3.6075254e-4,-629.90341)"/><g id="g45" transform="translate(3.6075254e-4,-629.90341)"/><g id="g47" transform="translate(3.6075254e-4,-629.90341)"/></svg>