<?xml version="1.0" encoding="UTF-8" standalone="no"?>
<!-- Generator: Adobe Illustrator 18.1.1, SVG Export Plug-In . SVG Version: 6.00 Build 0)  -->
<svg xmlns:dc="http://purl.org/dc/elements/1.1/" xmlns:cc="http://creativecommons.org/ns#" xmlns:rdf="http://www.w3.org/1999/02/22-rdf-syntax-ns#" xmlns:svg="http://www.w3.org/2000/svg" xmlns="http://www.w3.org/2000/svg" xmlns:sodipodi="http://sodipodi.sourceforge.net/DTD/sodipodi-0.dtd" xmlns:inkscape="http://www.inkscape.org/namespaces/inkscape" version="1.1" id="Capa_1" x="0px" y="0px" viewBox="0 0 64.000001 75.318803" xml:space="preserve" inkscape:version="0.91 r13725" sodipodi:docname="adv-4.svg" width="64" height="75.318802"><script xmlns="" type="text/javascript" charset="utf-8" id="zm-extension"/><metadata id="metadata61"><rdf:RDF><cc:Work rdf:about=""><dc:format>image/svg+xml</dc:format><dc:type rdf:resource="http://purl.org/dc/dcmitype/StillImage"/><dc:title/></cc:Work></rdf:RDF></metadata><defs id="defs59"/><sodipodi:namedview pagecolor="#ffffff" bordercolor="#666666" borderopacity="1" objecttolerance="10" gridtolerance="10" guidetolerance="10" inkscape:pageopacity="0" inkscape:pageshadow="2" inkscape:window-width="1920" inkscape:window-height="1017" id="namedview57" showgrid="false" fit-margin-top="0" fit-margin-left="0" fit-margin-right="0" fit-margin-bottom="0" inkscape:zoom="1.3183916" inkscape:cx="76.051492" inkscape:cy="89.503006" inkscape:window-x="-8" inkscape:window-y="-8" inkscape:window-maximized="1" inkscape:current-layer="Capa_1"/><g id="g3" transform="matrix(0.42076134,0,0,0.42076134,-5.6598737,0)" style="fill:#ffffff"><g id="g5" style="fill:#ffffff"><path style="fill:#ffffff" d="m 124.759,52.664 c 0,-1.462 -0.543,-2.572 -1.617,-3.33 -0.621,-0.448 -1.665,-0.865 -3.121,-1.265 l 0,9.219 c 1.999,-0.09 3.377,-0.823 4.135,-2.19 0.406,-0.692 0.603,-1.516 0.603,-2.434 z" id="path7" inkscape:connector-curvature="0"/><path style="fill:#ffffff" d="m 118.362,36.213 c -1.551,0.06 -2.637,0.525 -3.3,1.402 -0.662,0.877 -0.985,1.796 -0.985,2.751 0,1.158 0.382,2.059 1.152,2.721 0.782,0.65 1.82,1.11 3.121,1.366 l 0.012,-8.24 0,0 z" id="path9" inkscape:connector-curvature="0"/><path style="fill:#ffffff" d="m 119.174,67.42 c 11.128,0 20.162,-9.022 20.162,-20.15 0,-11.128 -9.034,-20.156 -20.162,-20.156 -11.128,0 -20.15,9.028 -20.15,20.156 -0.001,11.134 9.015,20.15 20.15,20.15 z m -6.421,-22.173 c -1.211,-1.122 -1.826,-2.679 -1.826,-4.666 0,-1.778 0.644,-3.377 1.951,-4.803 1.307,-1.426 3.121,-2.154 5.484,-2.172 l 0,-2.333 1.659,0 0,2.297 c 2.333,0.161 4.111,0.847 5.358,2.053 1.235,1.211 1.886,2.798 1.945,4.785 l -3.067,0 c -0.084,-0.889 -0.328,-1.653 -0.722,-2.297 -0.734,-1.181 -1.909,-1.802 -3.532,-1.856 l 0,8.539 c 2.715,0.758 4.559,1.474 5.537,2.136 1.575,1.098 2.363,2.727 2.363,4.875 0,3.109 -1.014,5.316 -3.037,6.629 -1.122,0.728 -2.739,1.205 -4.851,1.438 l 0,3.401 -1.659,0 0,-3.401 c -3.395,-0.221 -5.71,-1.426 -6.928,-3.61 -0.662,-1.175 -0.996,-2.775 -0.996,-4.785 l 3.109,0 c 0.101,1.599 0.352,2.769 0.758,3.509 0.722,1.319 2.088,2.059 4.069,2.226 l 0,-9.553 c -2.548,-0.485 -4.415,-1.29 -5.615,-2.412 z" id="path11" inkscape:connector-curvature="0"/><path style="fill:#ffffff" d="m 84.655,19.16 c 0,-1.092 -0.406,-1.927 -1.211,-2.5 -0.465,-0.334 -1.247,-0.644 -2.345,-0.949 l 0,6.916 c 1.492,-0.066 2.542,-0.615 3.109,-1.641 0.292,-0.52 0.447,-1.128 0.447,-1.826 z" id="path13" inkscape:connector-curvature="0"/><path style="fill:#ffffff" d="m 79.852,6.832 c -1.164,0.048 -1.981,0.394 -2.476,1.056 -0.489,0.656 -0.74,1.349 -0.74,2.065 0,0.871 0.292,1.545 0.871,2.041 0.579,0.489 1.36,0.835 2.345,1.026 l 0,-6.188 0,0 z" id="path15" inkscape:connector-curvature="0"/><path style="fill:#ffffff" d="m 80.455,30.234 c 8.342,0 15.114,-6.772 15.114,-15.12 C 95.569,6.766 88.796,0 80.455,0 72.114,0 65.34,6.766 65.34,15.114 c 0,8.354 6.773,15.12 15.115,15.12 z M 75.639,13.598 c -0.913,-0.841 -1.366,-2.005 -1.366,-3.497 0,-1.331 0.489,-2.536 1.468,-3.604 0.979,-1.068 2.351,-1.617 4.105,-1.629 l 0,-1.747 1.247,0 0,1.724 c 1.742,0.125 3.085,0.632 4.028,1.539 0.925,0.907 1.414,2.1 1.456,3.586 l -2.303,0 C 84.208,9.308 84.035,8.729 83.737,8.246 83.17,7.363 82.299,6.897 81.094,6.856 l 0,6.402 c 2.035,0.567 3.407,1.104 4.141,1.605 1.175,0.823 1.772,2.041 1.772,3.658 0,2.333 -0.758,3.986 -2.273,4.97 -0.841,0.543 -2.053,0.901 -3.64,1.08 l 0,2.554 -1.247,0 0,-2.554 C 77.293,24.404 75.557,23.503 74.656,21.862 74.155,20.979 73.898,19.78 73.898,18.27 l 2.345,0 c 0.066,1.199 0.257,2.076 0.561,2.631 0.549,0.991 1.569,1.545 3.055,1.671 l 0,-7.166 C 77.948,15.042 76.54,14.44 75.639,13.598 Z" id="path17" inkscape:connector-curvature="0"/><path style="fill:#ffffff" d="M 70.114,86.412 C 66.773,85.833 64.38,84.407 63.043,82.02 62.172,80.498 61.748,78.434 61.748,75.832 l 4.01,0 c 0.125,2.071 0.465,3.58 0.991,4.535 0.937,1.712 2.685,2.667 5.245,2.882 l 0,-12.357 c -3.276,-0.621 -5.698,-1.653 -7.262,-3.103 -1.569,-1.456 -2.351,-3.467 -2.351,-6.033 0,-2.297 0.847,-4.362 2.524,-6.212 1.689,-1.838 4.046,-2.775 7.089,-2.81 l 0,-3.013 2.154,0 0,2.971 c 3.007,0.215 5.316,1.098 6.916,2.655 1.617,1.563 2.458,3.622 2.536,6.182 l -3.962,0 c -0.113,-1.146 -0.418,-2.136 -0.931,-2.971 -0.955,-1.522 -2.47,-2.327 -4.559,-2.399 l 0,11.039 c 3.509,0.985 5.877,1.909 7.136,2.763 2.047,1.42 3.061,3.52 3.061,6.301 0,4.022 -1.307,6.874 -3.914,8.568 -1.08,0.692 -2.619,1.152 -4.415,1.498 5.221,0.179 10.418,1.02 15.43,2.53 4.732,-4.726 7.667,-11.248 7.667,-18.461 0,-14.392 -11.677,-26.057 -26.057,-26.057 -14.386,0 -26.057,11.665 -26.057,26.057 0,7.435 3.121,14.124 8.121,18.867 4.856,-1.581 9.904,-2.53 14.994,-2.852 z" id="path19" inkscape:connector-curvature="0"/><path style="fill:#ffffff" d="m 67.978,65.009 c 0.991,0.847 2.345,1.438 4.034,1.772 l 0,-10.657 c -1.993,0.078 -3.419,0.68 -4.266,1.814 -0.853,1.134 -1.271,2.321 -1.271,3.562 -10e-4,1.492 0.5,2.656 1.503,3.509 z" id="path21" inkscape:connector-curvature="0"/><path style="fill:#ffffff" d="m 78.193,73.076 c -0.806,-0.573 -2.142,-1.116 -4.04,-1.629 l 0,11.922 c 2.584,-0.125 4.362,-1.068 5.346,-2.834 0.519,-0.907 0.776,-1.963 0.776,-3.151 10e-4,-1.897 -0.692,-3.323 -2.082,-4.308 z" id="path23" inkscape:connector-curvature="0"/><path style="fill:#ffffff" d="m 162.398,138.849 c 3.18,-3.324 3.473,-9.475 2.954,-17.704 -3.741,-0.257 -9.261,0.37 -11.212,0 -4.738,-9.428 -11.546,-16.779 -21.242,-21.248 0.328,-6.152 1.152,-11.808 4.708,-14.75 -8.646,-0.597 -15.979,5.257 -20.639,10.621 -4.195,-4.35 -10.394,-7.817 -17.704,-10.257 L 94.722,93.59 C 81.207,88.93 66.379,88.984 52.948,93.727 l -5.925,-7.96 c -0.012,-0.024 -0.036,-0.048 -0.054,-0.066 -9.267,3.067 -17.781,7.87 -24.416,14.786 -4.314,-0.328 -3.825,-9.076 1.772,-7.667 -9.105,-6.206 -14.13,10.806 -5.316,12.978 -7.345,10.496 -8.049,33.027 1.772,41.297 1.432,12.423 3.628,24.088 9.672,31.911 l 19.822,0 c -0.519,-4.034 -1.044,-8.33 -0.591,-13.032 12.047,2.733 26.35,3.532 40.7,2.363 2.214,3.67 4.356,7.411 7.005,10.663 l 19.637,0 c -0.71,-5.197 -1.504,-10.639 -0.084,-15.979 4.726,-0.889 29.029,-7.065 45.456,-24.172 z m -27.09,-26.344 c 2.697,0 4.875,2.184 4.875,4.869 0,2.703 -2.178,4.881 -4.875,4.881 -2.685,0 -4.875,-2.19 -4.875,-4.881 -0.006,-2.679 2.19,-4.869 4.875,-4.869 z" id="path25" inkscape:connector-curvature="0"/></g></g><g id="g27" transform="translate(-13.451506,-103.6872)"/><g id="g29" transform="translate(-13.451506,-103.6872)"/><g id="g31" transform="translate(-13.451506,-103.6872)"/><g id="g33" transform="translate(-13.451506,-103.6872)"/><g id="g35" transform="translate(-13.451506,-103.6872)"/><g id="g37" transform="translate(-13.451506,-103.6872)"/><g id="g39" transform="translate(-13.451506,-103.6872)"/><g id="g41" transform="translate(-13.451506,-103.6872)"/><g id="g43" transform="translate(-13.451506,-103.6872)"/><g id="g45" transform="translate(-13.451506,-103.6872)"/><g id="g47" transform="translate(-13.451506,-103.6872)"/><g id="g49" transform="translate(-13.451506,-103.6872)"/><g id="g51" transform="translate(-13.451506,-103.6872)"/><g id="g53" transform="translate(-13.451506,-103.6872)"/><g id="g55" transform="translate(-13.451506,-103.6872)"/></svg>