<?xml version="1.0" encoding="UTF-8" standalone="no"?>
<!-- Generator: Adobe Illustrator 19.1.0, SVG Export Plug-In . SVG Version: 6.00 Build 0)  -->
<svg xmlns:dc="http://purl.org/dc/elements/1.1/" xmlns:cc="http://creativecommons.org/ns#" xmlns:rdf="http://www.w3.org/1999/02/22-rdf-syntax-ns#" xmlns:svg="http://www.w3.org/2000/svg" xmlns="http://www.w3.org/2000/svg" xmlns:sodipodi="http://sodipodi.sourceforge.net/DTD/sodipodi-0.dtd" xmlns:inkscape="http://www.inkscape.org/namespaces/inkscape" version="1.1" id="Capa_1" x="0px" y="0px" viewBox="0 0 40.000004 40.000004" xml:space="preserve" inkscape:version="0.91 r13725" sodipodi:docname="clock-icon.svg" width="40.000004" height="40.000004"><script xmlns="" type="text/javascript" charset="utf-8" id="zm-extension"/><metadata id="metadata53"><rdf:RDF><cc:Work rdf:about=""><dc:format>image/svg+xml</dc:format><dc:type rdf:resource="http://purl.org/dc/dcmitype/StillImage"/><dc:title/></cc:Work></rdf:RDF></metadata><defs id="defs51"/><sodipodi:namedview pagecolor="#ffffff" bordercolor="#666666" borderopacity="1" objecttolerance="10" gridtolerance="10" guidetolerance="10" inkscape:pageopacity="0" inkscape:pageshadow="2" inkscape:window-width="1920" inkscape:window-height="1017" id="namedview49" showgrid="false" fit-margin-top="0" fit-margin-left="0" fit-margin-right="0" fit-margin-bottom="0" inkscape:zoom="1" inkscape:cx="61.399323" inkscape:cy="21.136468" inkscape:window-x="-8" inkscape:window-y="-8" inkscape:window-maximized="1" inkscape:current-layer="Capa_1"/><g id="g3" transform="scale(0.07406338,0.07406338)" style="fill:#ffc546;fill-opacity:1;stroke:none;stroke-opacity:1" inkscape:export-xdpi="90" inkscape:export-ydpi="90"><g id="g5" style="fill:#ffc546;fill-opacity:1;stroke:none;stroke-opacity:1"><polygon points="288.822,291.285 297.823,275.695 282.287,266.725 381.281,95.411 365.71,86.413 266.713,257.734 157.7,194.793 148.699,210.383 257.707,273.32 248.764,288.797 264.334,297.794 273.28,282.312 " id="polygon7" style="fill:#ffc546;fill-opacity:1;stroke:none;stroke-opacity:1"/><path d="M 270.039,0 C 121.14,0 0,121.139 0,270.039 c 0,148.9 121.14,270.039 270.039,270.039 148.9,0 270.039,-121.14 270.039,-270.039 C 540.078,121.14 418.938,0 270.039,0 Z m 0,522.075 c -138.98,0 -252.036,-113.056 -252.036,-252.036 0,-138.98 113.056,-252.036 252.036,-252.036 138.98,0 252.036,113.056 252.036,252.036 0,138.98 -113.056,252.036 -252.036,252.036 z" id="path9" inkscape:connector-curvature="0" style="fill:#ffc546;fill-opacity:1;stroke:none;stroke-opacity:1"/><rect x="27.004" y="270.039" width="36.005001" height="18.003" id="rect11" style="fill:#ffc546;fill-opacity:1;stroke:none;stroke-opacity:1"/><rect x="477.069" y="252.036" width="36.005001" height="18.003" id="rect13" style="fill:#ffc546;fill-opacity:1;stroke:none;stroke-opacity:1"/><rect x="252.036" y="27.004" width="18.003" height="36.005001" id="rect15" style="fill:#ffc546;fill-opacity:1;stroke:none;stroke-opacity:1"/><rect x="270.039" y="477.069" width="18.003" height="36.005001" id="rect17" style="fill:#ffc546;fill-opacity:1;stroke:none;stroke-opacity:1"/></g></g><g id="g19" transform="translate(0,-500.078)"/><g id="g21" transform="translate(0,-500.078)"/><g id="g23" transform="translate(0,-500.078)"/><g id="g25" transform="translate(0,-500.078)"/><g id="g27" transform="translate(0,-500.078)"/><g id="g29" transform="translate(0,-500.078)"/><g id="g31" transform="translate(0,-500.078)"/><g id="g33" transform="translate(0,-500.078)"/><g id="g35" transform="translate(0,-500.078)"/><g id="g37" transform="translate(0,-500.078)"/><g id="g39" transform="translate(0,-500.078)"/><g id="g41" transform="translate(0,-500.078)"/><g id="g43" transform="translate(0,-500.078)"/><g id="g45" transform="translate(0,-500.078)"/><g id="g47" transform="translate(0,-500.078)"/></svg>