<?xml version="1.0" encoding="UTF-8" standalone="no"?>
<!-- Generator: Adobe Illustrator 19.1.0, SVG Export Plug-In . SVG Version: 6.00 Build 0)  -->
<svg xmlns:dc="http://purl.org/dc/elements/1.1/" xmlns:cc="http://creativecommons.org/ns#" xmlns:rdf="http://www.w3.org/1999/02/22-rdf-syntax-ns#" xmlns:svg="http://www.w3.org/2000/svg" xmlns="http://www.w3.org/2000/svg" xmlns:sodipodi="http://sodipodi.sourceforge.net/DTD/sodipodi-0.dtd" xmlns:inkscape="http://www.inkscape.org/namespaces/inkscape" version="1.1" id="Capa_1" x="0px" y="0px" viewBox="0 0 42.999998 30.644276" xml:space="preserve" inkscape:version="0.91 r13725" sodipodi:docname="email.svg" width="43" height="30.644278"><script xmlns="" type="text/javascript" charset="utf-8" id="zm-extension"/><metadata id="metadata71"><rdf:RDF><cc:Work rdf:about=""><dc:format>image/svg+xml</dc:format><dc:type rdf:resource="http://purl.org/dc/dcmitype/StillImage"/><dc:title/></cc:Work></rdf:RDF></metadata><defs id="defs69"/><sodipodi:namedview pagecolor="#ffffff" bordercolor="#666666" borderopacity="1" objecttolerance="10" gridtolerance="10" guidetolerance="10" inkscape:pageopacity="0" inkscape:pageshadow="2" inkscape:window-width="1920" inkscape:window-height="1017" id="namedview67" showgrid="false" fit-margin-top="0" fit-margin-left="0" fit-margin-right="0" fit-margin-bottom="0" inkscape:zoom="1" inkscape:cx="40.305087" inkscape:cy="21.566757" inkscape:window-x="-8" inkscape:window-y="-8" inkscape:window-maximized="1" inkscape:current-layer="Capa_1"/><g id="g3" transform="matrix(0.0820322,0,0,0.0820322,0,-6.177845)" style="stroke:none;stroke-opacity:1;fill:#ffc547;fill-opacity:1"><path d="m 483.606,75.31 -443.064,0 C 18.34,75.31 0,93.65 0,115.852 l 0,292.48 c 0,22.201 18.34,40.542 40.542,40.542 l 443.064,0 c 22.201,0 40.542,-18.34 40.542,-40.542 l 0,-292.48 C 525.113,93.65 506.772,75.31 483.606,75.31 Z M 332.057,273.193 500.981,142.88 l 0,261.591 L 332.057,273.193 Z M 41.507,99.442 l 442.098,0 c 7.722,0 14.479,5.792 16.41,12.549 L 276.07,285.741 c -8.688,6.757 -23.167,6.757 -30.889,0 L 24.132,113.921 c 1.931,-7.722 8.688,-14.479 17.375,-14.479 z m -17.375,305.029 0,-259.661 166.994,129.348 -166.994,130.313 z m 17.375,22.201 c -1.931,0 -3.861,0 -4.826,-0.965 l 174.716,-136.105 19.306,15.444 c 8.688,6.757 19.306,9.653 29.924,9.653 10.618,0 22.201,-2.896 29.924,-9.653 l 21.236,-16.41 176.646,137.07 c -1.931,0.965 -2.896,0.965 -4.826,0.965 l -442.1,0 z" id="path5" inkscape:connector-curvature="0" style="stroke:none;stroke-opacity:1;fill:#ffc547;fill-opacity:1"/><g id="g7" style="stroke:none;stroke-opacity:1;fill:#ffc547;fill-opacity:1"/><g id="g9" style="stroke:none;stroke-opacity:1;fill:#ffc547;fill-opacity:1"/><g id="g11" style="stroke:none;stroke-opacity:1;fill:#ffc547;fill-opacity:1"/><g id="g13" style="stroke:none;stroke-opacity:1;fill:#ffc547;fill-opacity:1"/><g id="g15" style="stroke:none;stroke-opacity:1;fill:#ffc547;fill-opacity:1"/><g id="g17" style="stroke:none;stroke-opacity:1;fill:#ffc547;fill-opacity:1"/><g id="g19" style="stroke:none;stroke-opacity:1;fill:#ffc547;fill-opacity:1"/><g id="g21" style="stroke:none;stroke-opacity:1;fill:#ffc547;fill-opacity:1"/><g id="g23" style="stroke:none;stroke-opacity:1;fill:#ffc547;fill-opacity:1"/><g id="g25" style="stroke:none;stroke-opacity:1;fill:#ffc547;fill-opacity:1"/><g id="g27" style="stroke:none;stroke-opacity:1;fill:#ffc547;fill-opacity:1"/><g id="g29" style="stroke:none;stroke-opacity:1;fill:#ffc547;fill-opacity:1"/><g id="g31" style="stroke:none;stroke-opacity:1;fill:#ffc547;fill-opacity:1"/><g id="g33" style="stroke:none;stroke-opacity:1;fill:#ffc547;fill-opacity:1"/><g id="g35" style="stroke:none;stroke-opacity:1;fill:#ffc547;fill-opacity:1"/></g><g id="g37" transform="translate(0,-418.22972)"/><g id="g39" transform="translate(0,-418.22972)"/><g id="g41" transform="translate(0,-418.22972)"/><g id="g43" transform="translate(0,-418.22972)"/><g id="g45" transform="translate(0,-418.22972)"/><g id="g47" transform="translate(0,-418.22972)"/><g id="g49" transform="translate(0,-418.22972)"/><g id="g51" transform="translate(0,-418.22972)"/><g id="g53" transform="translate(0,-418.22972)"/><g id="g55" transform="translate(0,-418.22972)"/><g id="g57" transform="translate(0,-418.22972)"/><g id="g59" transform="translate(0,-418.22972)"/><g id="g61" transform="translate(0,-418.22972)"/><g id="g63" transform="translate(0,-418.22972)"/><g id="g65" transform="translate(0,-418.22972)"/></svg>