<?xml version="1.0" encoding="UTF-8" standalone="no"?>
<!-- Generator: Adobe Illustrator 18.0.0, SVG Export Plug-In . SVG Version: 6.00 Build 0)  -->
<svg xmlns:dc="http://purl.org/dc/elements/1.1/" xmlns:cc="http://creativecommons.org/ns#" xmlns:rdf="http://www.w3.org/1999/02/22-rdf-syntax-ns#" xmlns:svg="http://www.w3.org/2000/svg" xmlns="http://www.w3.org/2000/svg" xmlns:sodipodi="http://sodipodi.sourceforge.net/DTD/sodipodi-0.dtd" xmlns:inkscape="http://www.inkscape.org/namespaces/inkscape" version="1.1" id="Capa_1" x="0px" y="0px" viewBox="0 0 26.999999 26.574863" xml:space="preserve" inkscape:version="0.91 r13725" sodipodi:docname="email-icon.svg" width="27" height="26.574863"><script xmlns="" type="text/javascript" charset="utf-8" id="zm-extension"/><metadata id="metadata45"><rdf:RDF><cc:Work rdf:about=""><dc:format>image/svg+xml</dc:format><dc:type rdf:resource="http://purl.org/dc/dcmitype/StillImage"/><dc:title/></cc:Work></rdf:RDF></metadata><defs id="defs43"/><sodipodi:namedview pagecolor="#ffffff" bordercolor="#666666" borderopacity="1" objecttolerance="10" gridtolerance="10" guidetolerance="10" inkscape:pageopacity="0" inkscape:pageshadow="2" inkscape:window-width="1920" inkscape:window-height="1017" id="namedview41" showgrid="false" fit-margin-top="0" fit-margin-left="0" fit-margin-right="0" fit-margin-bottom="0" inkscape:zoom="0.51640007" inkscape:cx="-57.126251" inkscape:cy="224.90699" inkscape:window-x="-8" inkscape:window-y="-8" inkscape:window-maximized="1" inkscape:current-layer="Capa_1"/><g id="g3" transform="matrix(0.05907967,0,0,0.05907967,0,-0.21256865)" style="fill:#ffc546;fill-opacity:1"><path d="m 423.72,158.389 0,-55.977 -70.602,0 L 228.5,3.598 l -124.618,98.813 -70.592,0 0,55.977 -33.29,26.401 0,268.623 457.01,0 0,-268.623 -33.29,-26.4 z M 158.567,317.293 14,431.928 14,202.659 158.567,317.293 Z m 69.938,-37.59 201.41,159.709 -402.821,0 201.411,-159.709 z m 69.937,37.59 144.568,-114.635 0,229.27 -144.568,-114.635 z m 140.304,-129.12 -15.026,11.915 0,-23.83 15.026,11.915 z M 228.5,21.466 l 102.086,80.946 -204.171,0 L 228.5,21.466 Z m 181.22,94.946 0,94.777 -122.544,97.171 -58.671,-46.524 -58.672,46.524 -122.543,-97.171 0,-94.778 362.43,0 z M 33.29,200.088 18.264,188.173 33.29,176.257 l 0,23.831 z" id="path5" inkscape:connector-curvature="0" style="fill:#ffc546;fill-opacity:1"/><rect x="92.504997" y="168.412" width="272" height="14" id="rect7" style="fill:#ffc546;fill-opacity:1"/><rect x="92.504997" y="208.412" width="272" height="14" id="rect9" style="fill:#ffc546;fill-opacity:1"/></g><g id="g11" transform="translate(0,-426.83713)"/><g id="g13" transform="translate(0,-426.83713)"/><g id="g15" transform="translate(0,-426.83713)"/><g id="g17" transform="translate(0,-426.83713)"/><g id="g19" transform="translate(0,-426.83713)"/><g id="g21" transform="translate(0,-426.83713)"/><g id="g23" transform="translate(0,-426.83713)"/><g id="g25" transform="translate(0,-426.83713)"/><g id="g27" transform="translate(0,-426.83713)"/><g id="g29" transform="translate(0,-426.83713)"/><g id="g31" transform="translate(0,-426.83713)"/><g id="g33" transform="translate(0,-426.83713)"/><g id="g35" transform="translate(0,-426.83713)"/><g id="g37" transform="translate(0,-426.83713)"/><g id="g39" transform="translate(0,-426.83713)"/></svg>