<?xml version="1.0" encoding="UTF-8" standalone="no"?>
<!-- Generator: Adobe Illustrator 16.0.0, SVG Export Plug-In . SVG Version: 6.00 Build 0)  -->
<svg xmlns:dc="http://purl.org/dc/elements/1.1/" xmlns:cc="http://creativecommons.org/ns#" xmlns:rdf="http://www.w3.org/1999/02/22-rdf-syntax-ns#" xmlns:svg="http://www.w3.org/2000/svg" xmlns="http://www.w3.org/2000/svg" xmlns:sodipodi="http://sodipodi.sourceforge.net/DTD/sodipodi-0.dtd" xmlns:inkscape="http://www.inkscape.org/namespaces/inkscape" version="1.1" id="Capa_1" x="0px" y="0px" width="33.000004" height="43.51524" viewBox="0 0 33.000003 43.515239" xml:space="preserve" inkscape:version="0.91 r13725" sodipodi:docname="location.svg"><script xmlns="" type="text/javascript" charset="utf-8" id="zm-extension"/><metadata id="metadata45"><rdf:RDF><cc:Work rdf:about=""><dc:format>image/svg+xml</dc:format><dc:type rdf:resource="http://purl.org/dc/dcmitype/StillImage"/><dc:title/></cc:Work></rdf:RDF></metadata><defs id="defs43"/><sodipodi:namedview pagecolor="#ffffff" bordercolor="#666666" borderopacity="1" objecttolerance="10" gridtolerance="10" guidetolerance="10" inkscape:pageopacity="0" inkscape:pageshadow="2" inkscape:window-width="1920" inkscape:window-height="1017" id="namedview41" showgrid="false" fit-margin-top="0" fit-margin-left="0" fit-margin-right="0" fit-margin-bottom="0" inkscape:zoom="0.29797904" inkscape:cx="300.31001" inkscape:cy="396.00099" inkscape:window-x="-8" inkscape:window-y="-8" inkscape:window-maximized="1" inkscape:current-layer="Capa_1"/><g id="g3" style="fill:#ffc547;fill-opacity:1" transform="matrix(0.05494332,0,0,0.05494332,-5.2575812,2.0618119e-5)"><g id="g5" style="fill:#ffc547;fill-opacity:1"><g id="g7" style="fill:#ffc547;fill-opacity:1"><path d="m 396.007,792.002 c -12.107,0 -23.088,-5.693 -30.143,-15.589 L 169.824,500.245 c -18.246,-25.392 -37.027,-51.529 -50.443,-83.229 -7.749,-18.271 -13.69,-37.499 -17.656,-57.158 -4.005,-19.868 -6.034,-39.933 -6.034,-59.645 0,-80.193 31.242,-155.609 87.981,-212.361 27.983,-27.996 60.809,-49.894 97.562,-65.142 73.125,-30.274 156.421,-30.287 229.507,0 36.779,15.222 69.605,37.132 97.575,65.142 56.739,56.739 87.994,132.155 87.994,212.361 0,19.685 -2.016,39.75 -6.021,59.645 -4.031,19.738 -9.974,38.965 -17.67,57.171 -13.389,31.648 -32.146,57.76 -50.299,83.021 -2.068,2.854 -3.913,5.406 -8.73,12.199 l -187.467,264.14 c -7.066,9.92 -18.035,15.613 -30.116,15.613 z m 0,-765.941 c -36.15,0 -71.398,7.002 -104.76,20.837 -33.559,13.9 -63.532,33.926 -89.081,59.461 -51.778,51.804 -80.298,120.65 -80.298,193.854 0,17.984 1.859,36.308 5.523,54.475 3.612,17.931 9.031,35.47 16.099,52.119 12.277,29.018 29.396,52.838 47.511,78.06 l 8.73,12.238 187.468,264.125 c 4.293,6.061 13.233,6.112 17.591,-0.013 l 187.454,-264.14 c 4.895,-6.897 6.793,-9.516 8.69,-12.146 18.232,-25.365 35.326,-49.173 47.577,-78.125 7.015,-16.597 12.434,-34.162 16.111,-52.171 3.639,-18.154 5.497,-36.478 5.497,-54.436 0,-73.217 -28.532,-142.05 -80.324,-193.841 C 564.26,80.809 534.3,60.797 500.701,46.897 467.354,33.063 432.132,26.061 396.007,26.061 Z m 0,454.774 c -99.617,0 -180.661,-81.031 -180.661,-180.635 0,-99.604 81.044,-180.622 180.661,-180.622 99.578,0 180.609,81.031 180.609,180.635 0,99.604 -81.017,180.622 -180.609,180.622 z m 0,-335.08 c -85.18,0 -154.484,69.291 -154.484,154.458 0,85.167 69.304,154.458 154.484,154.458 85.154,0 154.432,-69.291 154.432,-154.458 0,-85.167 -69.278,-154.458 -154.432,-154.458 z" id="path9" style="fill:#ffc547;fill-opacity:1" inkscape:connector-curvature="0"/></g></g></g><g id="g11" transform="translate(-95.691,-748.48676)"/><g id="g13" transform="translate(-95.691,-748.48676)"/><g id="g15" transform="translate(-95.691,-748.48676)"/><g id="g17" transform="translate(-95.691,-748.48676)"/><g id="g19" transform="translate(-95.691,-748.48676)"/><g id="g21" transform="translate(-95.691,-748.48676)"/><g id="g23" transform="translate(-95.691,-748.48676)"/><g id="g25" transform="translate(-95.691,-748.48676)"/><g id="g27" transform="translate(-95.691,-748.48676)"/><g id="g29" transform="translate(-95.691,-748.48676)"/><g id="g31" transform="translate(-95.691,-748.48676)"/><g id="g33" transform="translate(-95.691,-748.48676)"/><g id="g35" transform="translate(-95.691,-748.48676)"/><g id="g37" transform="translate(-95.691,-748.48676)"/><g id="g39" transform="translate(-95.691,-748.48676)"/></svg>