<?xml version="1.0" encoding="UTF-8" standalone="no"?>
<!-- Created with Inkscape (http://www.inkscape.org/) -->
<svg xmlns:dc="http://purl.org/dc/elements/1.1/" xmlns:cc="http://creativecommons.org/ns#" xmlns:rdf="http://www.w3.org/1999/02/22-rdf-syntax-ns#" xmlns:svg="http://www.w3.org/2000/svg" xmlns="http://www.w3.org/2000/svg" xmlns:sodipodi="http://sodipodi.sourceforge.net/DTD/sodipodi-0.dtd" xmlns:inkscape="http://www.inkscape.org/namespaces/inkscape" id="svg2" version="1.1" inkscape:version="0.91 r13725" xml:space="preserve" width="33" height="40.656902" viewBox="0 0 33 40.6569" sodipodi:docname="logo-small.svg"><script xmlns="" type="text/javascript" charset="utf-8" id="zm-extension"/><metadata id="metadata8"><rdf:RDF><cc:Work rdf:about=""><dc:format>image/svg+xml</dc:format><dc:type rdf:resource="http://purl.org/dc/dcmitype/StillImage"/><dc:title/></cc:Work></rdf:RDF></metadata><defs id="defs6"><clipPath clipPathUnits="userSpaceOnUse" id="clipPath38"><path d="m 0,841.89 595.28,0 L 595.28,0 0,0 0,841.89 Z" id="path40" inkscape:connector-curvature="0"/></clipPath></defs><sodipodi:namedview pagecolor="#ffffff" bordercolor="#666666" borderopacity="1" objecttolerance="10" gridtolerance="10" guidetolerance="10" inkscape:pageopacity="0" inkscape:pageshadow="2" inkscape:window-width="1920" inkscape:window-height="1017" id="namedview4" showgrid="false" fit-margin-top="0" fit-margin-left="0" fit-margin-right="0" fit-margin-bottom="0" inkscape:zoom="0.22425732" inkscape:cx="105.92699" inkscape:cy="134.38748" inkscape:window-x="-8" inkscape:window-y="-8" inkscape:window-maximized="1" inkscape:current-layer="g10"/><g id="g10" inkscape:groupmode="layer" inkscape:label="logo1" transform="matrix(1.25,0,0,-1.25,-266.123,432.45065)"><g id="g4272" transform="matrix(0.14657091,0,0,0.14657091,181.69369,267.49455)"><g transform="translate(299.6943,516.8877)" id="g12"><path inkscape:connector-curvature="0" id="path14" style="fill:#e69b24;fill-opacity:1;fill-rule:nonzero;stroke:none" d="m 0,0 -30.78,0 55.138,-86.693 30.784,0 L 0,0 Z"/></g><g transform="translate(244.4932,430.1943)" id="g16"><path inkscape:connector-curvature="0" id="path18" style="fill:#ffc546;fill-opacity:1;fill-rule:nonzero;stroke:none" d="m 0,0 -30.782,0 55.142,86.693 30.784,0 L 0,0 Z"/></g><g transform="translate(337.3965,516.8877)" id="g20"><path inkscape:connector-curvature="0" id="path22" style="fill:#e69b24;fill-opacity:1;fill-rule:nonzero;stroke:none" d="m 0,0 -30.782,0 55.141,-86.693 30.784,0 L 0,0 Z"/></g><g transform="translate(282.085,430.1943)" id="g24"><path inkscape:connector-curvature="0" id="path26" style="fill:#ffc546;fill-opacity:1;fill-rule:nonzero;stroke:none" d="m 0,0 -30.782,0 55.138,86.693 30.785,0 L 0,0 Z"/></g><g transform="translate(249.748,495.7778)" id="g28"><path inkscape:connector-curvature="0" id="path30" style="fill:#ffc546;fill-opacity:1;fill-rule:nonzero;stroke:none" d="m 0,0 -15.039,-22.237 0,61.804 L 0,39.567 0,0 Z"/></g><path inkscape:connector-curvature="0" id="path32" style="fill:#bcd530;fill-opacity:1;fill-rule:nonzero;stroke:none" d="m 393.016,313.435 -180.004,0 0,5.756 180.004,0 0,-5.756 z"/><g id="g34"><g clip-path="url(#clipPath38)" id="g36"><g transform="translate(230.7295,412.7764)" id="g42"><path inkscape:connector-curvature="0" id="path44" style="fill:#bcd530;fill-opacity:1;fill-rule:nonzero;stroke:none" d="m 0,0 c 0,1.403 -1.296,2.626 -3.028,2.626 l -4.645,0 c -1.621,0 -3.023,-1.223 -3.023,-2.626 l 0,-47.948 c 0,-1.503 1.402,-2.629 3.023,-2.629 l 4.645,0 c 1.623,0 3.028,1.126 3.028,2.629 l 0,10.016 7.132,0 0,-10.016 c 0,-4.873 -4.541,-8.815 -10.16,-8.815 l -4.645,0 c -5.512,0 -10.158,3.942 -10.158,8.815 l 0,47.948 c 0,4.873 4.646,8.809 10.158,8.809 l 4.645,0 C 2.591,8.809 7.132,4.873 7.132,0 l 0,-7.304 L 0,-7.304 0,0 Z"/></g><g transform="translate(263.7891,415.4023)" id="g46"><path inkscape:connector-curvature="0" id="path48" style="fill:#bcd530;fill-opacity:1;fill-rule:nonzero;stroke:none" d="m 0,0 -7.131,0 c -1.618,0 -3.026,-1.223 -3.026,-2.626 l 0,-47.948 c 0,-1.503 1.408,-2.629 3.026,-2.629 l 7.131,0 c 1.621,0 3.027,1.126 3.027,2.629 l 0,47.948 C 3.027,-1.223 1.621,0 0,0 m 10.158,-50.574 c 0,-4.873 -4.539,-8.815 -10.158,-8.815 l -7.131,0 c -5.508,0 -10.158,3.942 -10.158,8.815 l 0,47.948 c 0,4.873 4.65,8.809 10.158,8.809 l 7.131,0 c 5.619,0 10.158,-3.936 10.158,-8.809 l 0,-47.948 z"/></g><g transform="translate(309.168,409.2227)" id="g50"><path inkscape:connector-curvature="0" id="path52" style="fill:#bcd530;fill-opacity:1;fill-rule:nonzero;stroke:none" d="m 0,0 -4.642,0 0,-40.841 4.642,0 c 1.625,0 3.029,1.123 3.029,2.623 l 0,35.594 C 3.029,-1.217 1.625,0 0,0 m -16.422,0 c -1.728,0 -3.023,-1.217 -3.023,-2.624 l 0,-35.594 c 0,-1.5 1.295,-2.623 3.023,-2.623 l 4.646,0 0,40.841 -4.646,0 z m 11.78,6.18 4.642,0 c 5.619,0 10.158,-3.933 10.158,-8.804 l 0,-35.594 c 0,-4.873 -4.539,-8.805 -10.158,-8.805 l -4.642,0 0,-6.186 -7.134,0 0,6.186 -4.646,0 c -5.62,0 -10.156,3.932 -10.156,8.805 l 0,35.594 c 0,4.871 4.536,8.804 10.156,8.804 l 4.646,0 0,7.122 7.134,0 0,-7.122 z"/></g><g transform="translate(352.6035,409.3184)" id="g54"><path inkscape:connector-curvature="0" id="path56" style="fill:#bcd530;fill-opacity:1;fill-rule:nonzero;stroke:none" d="m 0,0 -14.908,-53.305 -9.727,0 0,65.572 7.133,0 0,-29.784 -2.053,-24.263 0.756,-0.187 15.018,54.234 9.619,0 0,-65.572 -7.135,0 0,29.789 L 0.758,-0.192 0,0 Z"/></g><g transform="translate(385.7734,389.8916)" id="g58"><path inkscape:connector-curvature="0" id="path60" style="fill:#bcd530;fill-opacity:1;fill-rule:nonzero;stroke:none" d="m 0,0 -5.94,0 c -4.432,0 -6.485,2.051 -6.485,6.372 l 0,15.022 c 0,1.725 1.407,3.024 3.023,3.024 L 0,24.418 0,0 Z m -9.402,31.548 c -5.507,0 -10.155,-4.538 -10.155,-10.154 l 0,-15.022 c 0,-5.729 2.592,-10.802 8.643,-12.753 l -8.335,-31.621 -153.626,0 0,-6.082 152.022,0 7.456,0 9.942,37.492 3.455,0 0,-37.492 7.242,0 0,75.632 -16.644,0 z"/></g><g transform="translate(222.7695,336.6699)" id="g62"><path inkscape:connector-curvature="0" id="path64" style="fill:#bcd530;fill-opacity:1;fill-rule:nonzero;stroke:none" d="m 0,0 -3.455,0 0,-10.223 -2.425,0 0,10.223 -3.405,0 0,1.868 L 0,1.868 0,0 Z"/></g><g transform="translate(222.7695,336.6699)" id="g66"><path inkscape:connector-curvature="0" id="path68" style="fill:none;stroke:#bcd530;stroke-width:0.99900001;stroke-linecap:butt;stroke-linejoin:miter;stroke-miterlimit:10;stroke-dasharray:none;stroke-opacity:1" d="m 0,0 -3.455,0 0,-10.223 -2.425,0 0,10.223 -3.405,0 0,1.868 L 0,1.868 0,0 Z"/></g><g transform="translate(235.6992,333.5977)" id="g70"><path inkscape:connector-curvature="0" id="path72" style="fill:#bcd530;fill-opacity:1;fill-rule:nonzero;stroke:none" d="M 0,0 C 0,0.94 -0.236,1.713 -0.706,2.316 -1.177,2.92 -1.827,3.222 -2.658,3.222 -3.477,3.222 -4.115,2.92 -4.572,2.316 -5.029,1.713 -5.257,0.94 -5.257,0 l 0,-2.192 c 0,-0.958 0.23,-1.74 0.689,-2.342 0.46,-0.604 1.101,-0.905 1.927,-0.905 0.83,0 1.478,0.301 1.944,0.905 C -0.232,-3.932 0,-3.15 0,-2.192 L 0,0 Z m 2.416,-2.192 c 0,-1.49 -0.468,-2.718 -1.403,-3.684 -0.936,-0.966 -2.154,-1.449 -3.654,-1.449 -1.495,0 -2.707,0.484 -3.637,1.454 -0.931,0.969 -1.396,2.194 -1.396,3.679 l 0,2.175 c 0,1.478 0.464,2.703 1.391,3.674 0.928,0.972 2.137,1.458 3.625,1.458 1.5,0 2.72,-0.486 3.662,-1.458 0.941,-0.971 1.412,-2.196 1.412,-3.674 l 0,-2.175 z"/></g><g transform="translate(235.6992,333.5977)" id="g74"><path inkscape:connector-curvature="0" id="path76" style="fill:none;stroke:#bcd530;stroke-width:0.99900001;stroke-linecap:butt;stroke-linejoin:miter;stroke-miterlimit:10;stroke-dasharray:none;stroke-opacity:1" d="M 0,0 C 0,0.94 -0.236,1.713 -0.706,2.316 -1.177,2.92 -1.827,3.222 -2.658,3.222 -3.477,3.222 -4.115,2.92 -4.572,2.316 -5.029,1.713 -5.257,0.94 -5.257,0 l 0,-2.192 c 0,-0.958 0.23,-1.74 0.689,-2.342 0.46,-0.604 1.101,-0.905 1.927,-0.905 0.83,0 1.478,0.301 1.944,0.905 C -0.232,-3.932 0,-3.15 0,-2.192 L 0,0 Z m 2.416,-2.192 c 0,-1.49 -0.468,-2.718 -1.403,-3.684 -0.936,-0.966 -2.154,-1.449 -3.654,-1.449 -1.495,0 -2.707,0.484 -3.637,1.454 -0.931,0.969 -1.396,2.194 -1.396,3.679 l 0,2.175 c 0,1.478 0.464,2.703 1.391,3.674 0.928,0.972 2.137,1.458 3.625,1.458 1.5,0 2.72,-0.486 3.662,-1.458 0.941,-0.971 1.412,-2.196 1.412,-3.674 l 0,-2.175 z"/></g><g transform="translate(246.6934,332.7002)" id="g78"><path inkscape:connector-curvature="0" id="path80" style="fill:#bcd530;fill-opacity:1;fill-rule:nonzero;stroke:none" d="M 0,0 2.201,0 C 2.876,0 3.389,0.185 3.736,0.553 4.086,0.921 4.26,1.39 4.26,1.96 4.26,2.541 4.087,3.021 3.741,3.4 3.395,3.78 2.881,3.97 2.201,3.97 L 0,3.97 0,0 Z m 0,-1.868 0,-4.385 -2.425,0 0,12.091 4.626,0 C 3.59,5.838 4.684,5.483 5.48,4.775 6.277,4.066 6.677,3.134 6.677,1.977 6.677,0.819 6.277,-0.11 5.48,-0.813 4.684,-1.517 3.59,-1.868 2.201,-1.868 l -2.201,0 z"/></g><g transform="translate(246.6934,332.7002)" id="g82"><path inkscape:connector-curvature="0" id="path84" style="fill:none;stroke:#bcd530;stroke-width:0.99900001;stroke-linecap:butt;stroke-linejoin:miter;stroke-miterlimit:10;stroke-dasharray:none;stroke-opacity:1" d="M 0,0 2.201,0 C 2.876,0 3.389,0.185 3.736,0.553 4.086,0.921 4.26,1.39 4.26,1.96 4.26,2.541 4.087,3.021 3.741,3.4 3.395,3.78 2.881,3.97 2.201,3.97 L 0,3.97 0,0 Z m 0,-1.868 0,-4.385 -2.425,0 0,12.091 4.626,0 C 3.59,5.838 4.684,5.483 5.48,4.775 6.277,4.066 6.677,3.134 6.677,1.977 6.677,0.819 6.277,-0.11 5.48,-0.813 4.684,-1.517 3.59,-1.868 2.201,-1.868 l -2.201,0 z"/></g><g transform="translate(267.2051,336.6699)" id="g86"><path inkscape:connector-curvature="0" id="path88" style="fill:#bcd530;fill-opacity:1;fill-rule:nonzero;stroke:none" d="m 0,0 -5.456,0 0,-10.223 -2.425,0 0,12.091 L 0,1.868 0,0 Z"/></g><g transform="translate(267.2051,336.6699)" id="g90"><path inkscape:connector-curvature="0" id="path92" style="fill:none;stroke:#bcd530;stroke-width:0.99900001;stroke-linecap:butt;stroke-linejoin:miter;stroke-miterlimit:10;stroke-dasharray:none;stroke-opacity:1" d="m 0,0 -5.456,0 0,-10.223 -2.425,0 0,12.091 L 0,1.868 0,0 Z"/></g><g transform="translate(280.3828,333.5977)" id="g94"><path inkscape:connector-curvature="0" id="path96" style="fill:#bcd530;fill-opacity:1;fill-rule:nonzero;stroke:none" d="M 0,0 C 0,0.94 -0.234,1.713 -0.705,2.316 -1.176,2.92 -1.826,3.222 -2.656,3.222 -3.477,3.222 -4.113,2.92 -4.57,2.316 -5.027,1.713 -5.256,0.94 -5.256,0 l 0,-2.192 c 0,-0.958 0.23,-1.74 0.69,-2.342 0.459,-0.604 1.101,-0.905 1.925,-0.905 0.83,0 1.479,0.301 1.944,0.905 C -0.232,-3.932 0,-3.15 0,-2.192 L 0,0 Z m 2.418,-2.192 c 0,-1.49 -0.469,-2.718 -1.404,-3.684 -0.936,-0.966 -2.155,-1.449 -3.655,-1.449 -1.494,0 -2.707,0.484 -3.636,1.454 -0.93,0.969 -1.395,2.194 -1.395,3.679 l 0,2.175 c 0,1.478 0.463,2.703 1.391,3.674 0.927,0.972 2.135,1.458 3.625,1.458 1.5,0 2.72,-0.486 3.662,-1.458 0.941,-0.971 1.412,-2.196 1.412,-3.674 l 0,-2.175 z"/></g><g transform="translate(280.3828,333.5977)" id="g98"><path inkscape:connector-curvature="0" id="path100" style="fill:none;stroke:#bcd530;stroke-width:0.99900001;stroke-linecap:butt;stroke-linejoin:miter;stroke-miterlimit:10;stroke-dasharray:none;stroke-opacity:1" d="M 0,0 C 0,0.94 -0.234,1.713 -0.705,2.316 -1.176,2.92 -1.826,3.222 -2.656,3.222 -3.477,3.222 -4.113,2.92 -4.57,2.316 -5.027,1.713 -5.256,0.94 -5.256,0 l 0,-2.192 c 0,-0.958 0.23,-1.74 0.69,-2.342 0.459,-0.604 1.101,-0.905 1.925,-0.905 0.83,0 1.479,0.301 1.944,0.905 C -0.232,-3.932 0,-3.15 0,-2.192 L 0,0 Z m 2.418,-2.192 c 0,-1.49 -0.469,-2.718 -1.404,-3.684 -0.936,-0.966 -2.155,-1.449 -3.655,-1.449 -1.494,0 -2.707,0.484 -3.636,1.454 -0.93,0.969 -1.395,2.194 -1.395,3.679 l 0,2.175 c 0,1.478 0.463,2.703 1.391,3.674 0.927,0.972 2.135,1.458 3.625,1.458 1.5,0 2.72,-0.486 3.662,-1.458 0.941,-0.971 1.412,-2.196 1.412,-3.674 l 0,-2.175 z"/></g><g transform="translate(291.3779,331.7949)" id="g102"><path inkscape:connector-curvature="0" id="path104" style="fill:#bcd530;fill-opacity:1;fill-rule:nonzero;stroke:none" d="m 0,0 0,-3.487 2.251,0 c 0.642,0 1.132,0.139 1.47,0.419 0.338,0.279 0.507,0.693 0.507,1.241 0,0.587 -0.166,1.038 -0.499,1.354 C 3.396,-0.157 2.896,0 2.226,0 L 0,0 Z m 0,1.678 1.62,0 c 0.648,0 1.146,0.133 1.494,0.398 0.349,0.266 0.524,0.653 0.524,1.163 0,0.559 -0.176,0.972 -0.528,1.238 C 2.759,4.742 2.234,4.875 1.537,4.875 L 0,4.875 0,1.678 Z m -2.425,-7.026 0,12.091 3.962,0 C 2.96,6.743 4.069,6.465 4.867,5.908 5.664,5.353 6.062,4.526 6.062,3.43 6.062,2.876 5.919,2.381 5.631,1.943 5.343,1.506 4.922,1.177 4.368,0.955 5.121,0.816 5.688,0.49 6.071,-0.024 6.453,-0.539 6.644,-1.141 6.644,-1.827 6.644,-2.983 6.262,-3.86 5.498,-4.455 4.733,-5.05 3.651,-5.348 2.251,-5.348 l -4.676,0 z"/></g><g transform="translate(291.3779,331.7949)" id="g106"><path inkscape:connector-curvature="0" id="path108" style="fill:none;stroke:#bcd530;stroke-width:0.99900001;stroke-linecap:butt;stroke-linejoin:miter;stroke-miterlimit:10;stroke-dasharray:none;stroke-opacity:1" d="m 0,0 0,-3.487 2.251,0 c 0.642,0 1.132,0.139 1.47,0.419 0.338,0.279 0.507,0.693 0.507,1.241 0,0.587 -0.166,1.038 -0.499,1.354 C 3.396,-0.157 2.896,0 2.226,0 L 0,0 Z m 0,1.678 1.62,0 c 0.648,0 1.146,0.133 1.494,0.398 0.349,0.266 0.524,0.653 0.524,1.163 0,0.559 -0.176,0.972 -0.528,1.238 C 2.759,4.742 2.234,4.875 1.537,4.875 L 0,4.875 0,1.678 Z m -2.425,-7.026 0,12.091 3.962,0 C 2.96,6.743 4.069,6.465 4.867,5.908 5.664,5.353 6.062,4.526 6.062,3.43 6.062,2.876 5.919,2.381 5.631,1.943 5.343,1.506 4.922,1.177 4.368,0.955 5.121,0.816 5.688,0.49 6.071,-0.024 6.453,-0.539 6.644,-1.141 6.644,-1.827 6.644,-2.983 6.262,-3.86 5.498,-4.455 4.733,-5.05 3.651,-5.348 2.251,-5.348 l -4.676,0 z"/></g><path inkscape:connector-curvature="0" id="path110" style="fill:#bcd530;fill-opacity:1;fill-rule:nonzero;stroke:none" d="m 316.565,326.447 -2.425,0 0,12.091 2.425,0 0,-12.091 z m -10.131,5.971 0,-4.11 2.076,0 c 0.681,0 1.206,0.202 1.574,0.606 0.368,0.403 0.552,0.899 0.552,1.486 0,0.565 -0.184,1.042 -0.552,1.433 -0.368,0.39 -0.893,0.585 -1.574,0.585 l -2.076,0 z m 0,1.868 2.076,0 c 1.389,0 2.494,-0.362 3.313,-1.088 0.82,-0.724 1.23,-1.663 1.23,-2.814 0,-1.163 -0.411,-2.11 -1.234,-2.841 -0.822,-0.731 -1.924,-1.096 -3.309,-1.096 l -4.501,0 0,12.091 2.425,0 0,-4.252 z"/><path inkscape:connector-curvature="0" id="path112" style="fill:none;stroke:#bcd530;stroke-width:0.99900001;stroke-linecap:butt;stroke-linejoin:miter;stroke-miterlimit:10;stroke-dasharray:none;stroke-opacity:1" d="m 316.565,326.447 -2.425,0 0,12.091 2.425,0 0,-12.091 z m -10.131,5.971 0,-4.11 2.076,0 c 0.681,0 1.206,0.202 1.574,0.606 0.368,0.403 0.552,0.899 0.552,1.486 0,0.565 -0.184,1.042 -0.552,1.433 -0.368,0.39 -0.893,0.585 -1.574,0.585 l -2.076,0 z m 0,1.868 2.076,0 c 1.389,0 2.494,-0.362 3.313,-1.088 0.82,-0.724 1.23,-1.663 1.23,-2.814 0,-1.163 -0.411,-2.11 -1.234,-2.841 -0.822,-0.731 -1.924,-1.096 -3.309,-1.096 l -4.501,0 0,12.091 2.425,0 0,-4.252 z"/><g transform="translate(330.6406,342.1924)" id="g114"><path inkscape:connector-curvature="0" id="path116" style="fill:#bcd530;fill-opacity:1;fill-rule:nonzero;stroke:none" d="m 0,0 0.017,-0.05 c 0.027,-0.703 -0.218,-1.278 -0.736,-1.723 -0.517,-0.446 -1.214,-0.668 -2.089,-0.668 -0.88,0 -1.58,0.222 -2.1,0.668 -0.521,0.445 -0.764,1.02 -0.731,1.723 L -5.622,0 -3.854,0 c 0,-0.294 0.084,-0.535 0.253,-0.723 0.169,-0.188 0.434,-0.282 0.793,-0.282 0.35,0 0.609,0.094 0.778,0.282 0.168,0.188 0.253,0.429 0.253,0.723 L 0,0 Z m -0.357,-3.654 2.424,0 0,-12.091 -2.424,0 0,8.08 -0.05,0.008 -4.883,-8.088 -2.417,0 0,12.091 2.417,0 0,-8.072 0.05,-0.008 4.883,8.08 z"/></g><g transform="translate(330.6406,342.1924)" id="g118"><path inkscape:connector-curvature="0" id="path120" style="fill:none;stroke:#bcd530;stroke-width:0.99900001;stroke-linecap:butt;stroke-linejoin:miter;stroke-miterlimit:10;stroke-dasharray:none;stroke-opacity:1" d="m 0,0 0.017,-0.05 c 0.027,-0.703 -0.218,-1.278 -0.736,-1.723 -0.517,-0.446 -1.214,-0.668 -2.089,-0.668 -0.88,0 -1.58,0.222 -2.1,0.668 -0.521,0.445 -0.764,1.02 -0.731,1.723 L -5.622,0 -3.854,0 c 0,-0.294 0.084,-0.535 0.253,-0.723 0.169,-0.188 0.434,-0.282 0.793,-0.282 0.35,0 0.609,0.094 0.778,0.282 0.168,0.188 0.253,0.429 0.253,0.723 L 0,0 Z m -0.357,-3.654 2.424,0 0,-12.091 -2.424,0 0,8.08 -0.05,0.008 -4.883,-8.088 -2.417,0 0,12.091 2.417,0 0,-8.072 0.05,-0.008 4.883,8.08 z"/></g><g transform="translate(351.6416,333.5889)" id="g122"><path inkscape:connector-curvature="0" id="path124" style="fill:#bcd530;fill-opacity:1;fill-rule:nonzero;stroke:none" d="m 0,0 c -0.056,-1.168 -0.183,-2.192 -0.382,-3.072 -0.199,-0.881 -0.471,-1.617 -0.813,-2.209 l 4.425,0 0,8.362 -3.064,0 L 0,0 Z m 7.084,-10.114 -2.425,0 0,2.972 -7.274,0 0,-2.972 -2.417,0 0,4.833 0.706,0 c 0.631,0 1.085,0.421 1.361,1.261 0.277,0.842 0.457,2.182 0.54,4.02 l 0.275,4.949 7.797,0 0,-10.23 1.437,0 0,-4.833 z"/></g><g transform="translate(351.6416,333.5889)" id="g126"><path inkscape:connector-curvature="0" id="path128" style="fill:none;stroke:#bcd530;stroke-width:0.99900001;stroke-linecap:butt;stroke-linejoin:miter;stroke-miterlimit:10;stroke-dasharray:none;stroke-opacity:1" d="m 0,0 c -0.056,-1.168 -0.183,-2.192 -0.382,-3.072 -0.199,-0.881 -0.471,-1.617 -0.813,-2.209 l 4.425,0 0,8.362 -3.064,0 L 0,0 Z m 7.084,-10.114 -2.425,0 0,2.972 -7.274,0 0,-2.972 -2.417,0 0,4.833 0.706,0 c 0.631,0 1.085,0.421 1.361,1.261 0.277,0.842 0.457,2.182 0.54,4.02 l 0.275,4.949 7.797,0 0,-10.23 1.437,0 0,-4.833 z"/></g><g transform="translate(371.3721,333.5977)" id="g130"><path inkscape:connector-curvature="0" id="path132" style="fill:#bcd530;fill-opacity:1;fill-rule:nonzero;stroke:none" d="M 0,0 C 0,0.94 -0.235,1.713 -0.706,2.316 -1.177,2.92 -1.827,3.222 -2.657,3.222 -3.477,3.222 -4.114,2.92 -4.571,2.316 -5.028,1.713 -5.257,0.94 -5.257,0 l 0,-2.192 c 0,-0.958 0.231,-1.74 0.69,-2.342 0.46,-0.604 1.101,-0.905 1.926,-0.905 0.83,0 1.479,0.301 1.944,0.905 C -0.232,-3.932 0,-3.15 0,-2.192 L 0,0 Z m 2.417,-2.192 c 0,-1.49 -0.469,-2.718 -1.404,-3.684 -0.936,-0.966 -2.154,-1.449 -3.654,-1.449 -1.495,0 -2.707,0.484 -3.637,1.454 -0.93,0.969 -1.395,2.194 -1.395,3.679 l 0,2.175 c 0,1.478 0.464,2.703 1.391,3.674 0.928,0.972 2.136,1.458 3.625,1.458 1.5,0 2.72,-0.486 3.662,-1.458 0.941,-0.971 1.412,-2.196 1.412,-3.674 l 0,-2.175 z"/></g><g transform="translate(371.3721,333.5977)" id="g134"><path inkscape:connector-curvature="0" id="path136" style="fill:none;stroke:#bcd530;stroke-width:0.99900001;stroke-linecap:butt;stroke-linejoin:miter;stroke-miterlimit:10;stroke-dasharray:none;stroke-opacity:1" d="M 0,0 C 0,0.94 -0.235,1.713 -0.706,2.316 -1.177,2.92 -1.827,3.222 -2.657,3.222 -3.477,3.222 -4.114,2.92 -4.571,2.316 -5.028,1.713 -5.257,0.94 -5.257,0 l 0,-2.192 c 0,-0.958 0.231,-1.74 0.69,-2.342 0.46,-0.604 1.101,-0.905 1.926,-0.905 0.83,0 1.479,0.301 1.944,0.905 C -0.232,-3.932 0,-3.15 0,-2.192 L 0,0 Z m 2.417,-2.192 c 0,-1.49 -0.469,-2.718 -1.404,-3.684 -0.936,-0.966 -2.154,-1.449 -3.654,-1.449 -1.495,0 -2.707,0.484 -3.637,1.454 -0.93,0.969 -1.395,2.194 -1.395,3.679 l 0,2.175 c 0,1.478 0.464,2.703 1.391,3.674 0.928,0.972 2.136,1.458 3.625,1.458 1.5,0 2.72,-0.486 3.662,-1.458 0.941,-0.971 1.412,-2.196 1.412,-3.674 l 0,-2.175 z"/></g><g transform="translate(386.1963,329.6279)" id="g138"><path inkscape:connector-curvature="0" id="path140" style="fill:#bcd530;fill-opacity:1;fill-rule:nonzero;stroke:none" d="m 0,0 0.05,0 3.105,8.91 3.164,0 0,-12.091 -2.424,0 0,8.254 -0.05,0.009 -2.991,-8.263 -1.643,0 -2.989,8.28 -0.051,-0.009 0,-8.271 -2.425,0 0,12.091 3.181,0 L 0,0 Z"/></g><g transform="translate(386.1963,329.6279)" id="g142"><path inkscape:connector-curvature="0" id="path144" style="fill:none;stroke:#bcd530;stroke-width:0.99900001;stroke-linecap:butt;stroke-linejoin:miter;stroke-miterlimit:10;stroke-dasharray:none;stroke-opacity:1" d="m 0,0 0.05,0 3.105,8.91 3.164,0 0,-12.091 -2.424,0 0,8.254 -0.05,0.009 -2.991,-8.263 -1.643,0 -2.989,8.28 -0.051,-0.009 0,-8.271 -2.425,0 0,12.091 3.181,0 L 0,0 Z"/></g></g></g></g></g></svg>