<?xml version="1.0" encoding="UTF-8" standalone="no"?>
<!-- Generator: Adobe Illustrator 16.0.0, SVG Export Plug-In . SVG Version: 6.00 Build 0)  -->
<svg xmlns:dc="http://purl.org/dc/elements/1.1/" xmlns:cc="http://creativecommons.org/ns#" xmlns:rdf="http://www.w3.org/1999/02/22-rdf-syntax-ns#" xmlns:svg="http://www.w3.org/2000/svg" xmlns="http://www.w3.org/2000/svg" xmlns:sodipodi="http://sodipodi.sourceforge.net/DTD/sodipodi-0.dtd" xmlns:inkscape="http://www.inkscape.org/namespaces/inkscape" version="1.1" id="Capa_1" x="0px" y="0px" width="28.000002" height="28.017014" viewBox="0 0 28.000003 28.017014" xml:space="preserve" inkscape:version="0.91 r13725" sodipodi:docname="phone-icon.svg"><script xmlns="" type="text/javascript" charset="utf-8" id="zm-extension"/><metadata id="metadata55"><rdf:RDF><cc:Work rdf:about=""><dc:format>image/svg+xml</dc:format><dc:type rdf:resource="http://purl.org/dc/dcmitype/StillImage"/><dc:title/></cc:Work></rdf:RDF></metadata><defs id="defs53"/><sodipodi:namedview pagecolor="#ffffff" bordercolor="#666666" borderopacity="1" objecttolerance="10" gridtolerance="10" guidetolerance="10" inkscape:pageopacity="0" inkscape:pageshadow="2" inkscape:window-width="1920" inkscape:window-height="1017" id="namedview51" showgrid="false" fit-margin-top="0" fit-margin-left="0" fit-margin-right="0" fit-margin-bottom="0" inkscape:zoom="0.38539422" inkscape:cx="305.99432" inkscape:cy="306.18058" inkscape:window-x="-8" inkscape:window-y="-8" inkscape:window-maximized="1" inkscape:current-layer="Capa_1"/><g id="g3" transform="matrix(0.0457525,0,0,0.0457525,-0.00849496,-1.3176661e-5)" style="fill:#ffc547;fill-opacity:1"><g id="g5" style="fill:#ffc547;fill-opacity:1"><g id="g7" style="fill:#ffc547;fill-opacity:1"><path d="m 439.11,239.188 c 2.053,4.844 -0.199,10.466 -5.044,12.519 -4.844,2.053 -10.466,-0.199 -12.519,-5.043 -2.632,-6.18 -5.882,-12.14 -9.648,-17.722 -3.808,-5.642 -8.153,-10.884 -12.878,-15.629 l -0.021,0.02 c -4.805,-4.804 -10.048,-9.15 -15.63,-12.898 -5.62,-3.808 -11.542,-7.057 -17.643,-9.648 -4.844,-2.033 -7.116,-7.635 -5.083,-12.479 2.033,-4.844 7.635,-7.117 12.479,-5.083 7.454,3.17 14.491,6.997 20.95,11.363 6.698,4.505 12.898,9.628 18.479,15.21 l -0.021,0.02 0.021,0.02 c 5.642,5.641 10.765,11.841 15.189,18.419 4.392,6.518 8.219,13.535 11.369,20.931 z" id="path9" inkscape:connector-curvature="0" style="fill:#ffc547;fill-opacity:1"/><path d="m 499.892,240.464 c 1.354,5.104 -1.675,10.346 -6.778,11.702 -5.103,1.356 -10.346,-1.674 -11.701,-6.778 -3.688,-13.655 -9.17,-26.732 -16.207,-38.873 -7.036,-12.14 -15.748,-23.443 -25.836,-33.55 -10.105,-10.107 -21.409,-18.818 -33.55,-25.855 -12.121,-7.037 -25.198,-12.519 -38.873,-16.187 -5.104,-1.355 -8.134,-6.599 -6.777,-11.702 1.354,-5.104 6.599,-8.133 11.701,-6.778 15.271,4.126 29.902,10.267 43.498,18.141 13.716,7.954 26.354,17.662 37.537,28.846 11.184,11.184 20.893,23.822 28.825,37.537 7.894,13.595 14.034,28.227 18.161,43.497 z" id="path11" inkscape:connector-curvature="0" style="fill:#ffc547;fill-opacity:1"/><path d="m 558.699,241.102 c 0.997,5.183 -2.372,10.207 -7.556,11.204 -5.183,0.997 -10.206,-2.372 -11.203,-7.555 -4.206,-21.171 -11.542,-41.504 -21.669,-60.383 l -0.259,-0.498 c -10.088,-18.699 -22.945,-36.002 -38.235,-51.292 l -0.04,-0.04 C 464.328,117.148 446.844,104.171 427.966,94.064 409.127,83.977 388.754,76.621 367.563,72.395 c -5.183,-0.997 -8.552,-6.04 -7.555,-11.203 1.017,-5.183 6.04,-8.552 11.203,-7.555 23.005,4.565 45.133,12.599 65.726,23.603 20.593,11.044 39.591,25.138 56.275,41.803 l 0.04,0.04 c 16.525,16.546 30.501,35.345 41.505,55.718 l 0.299,0.539 c 11.064,20.57 19.058,42.717 23.643,65.762 z" id="path13" inkscape:connector-curvature="0" style="fill:#ffc547;fill-opacity:1"/><path d="m 608.277,500.514 c 4.246,3.11 5.163,9.092 2.055,13.337 -3.11,4.246 -9.092,5.163 -13.338,2.054 l -149.152,-109.324 -9.669,9.668 -15.449,15.45 c -36.76,36.76 -91.899,28.067 -142.654,-2.831 -19.037,-11.582 -37.478,-26.294 -53.963,-42.78 C 209.64,369.602 194.909,351.162 183.327,332.124 152.388,281.35 143.597,226.23 180.138,189.71 L 205.534,164.313 102.789,24.091 56.4,70.141 l 0.02,0.02 -0.399,0.398 C 19.6,106.98 10.051,155.282 28.71,213.891 48.086,274.752 97.385,346.558 177.923,427.693 l 3.249,3.269 0.02,-0.02 c 5.503,5.502 10.027,9.986 13.556,13.396 78.205,75.832 147.718,122.28 206.686,140.321 56.794,17.383 103.681,7.974 138.866,-27.231 l 0.479,-0.458 1.137,-1.137 12.279,-12.678 c 3.668,-3.77 9.729,-3.849 13.496,-0.181 3.769,3.668 3.847,9.729 0.179,13.496 l -12.278,12.678 -0.04,0.04 -1.177,1.178 -0.538,0.598 C 513.31,611.512 459.983,622.516 395.894,602.9 333.997,583.962 261.852,535.979 181.434,458.013 c -5.542,-5.362 -10.146,-9.907 -13.774,-13.535 l 0.02,-0.021 -0.02,-0.021 -3.27,-3.289 C 81.678,357.82 30.844,283.404 10.531,219.652 -10.481,153.647 0.683,98.827 42.485,57.023 l 0.399,-0.398 0.02,0.02 0.02,-0.02 54.264,-53.864 c 0.339,-0.339 0.698,-0.638 1.077,-0.917 4.246,-3.11 10.227,-2.193 13.336,2.053 L 225.349,159.07 c 3.229,3.748 3.07,9.449 -0.479,12.998 l -31.198,31.198 c -29.064,29.065 -20.572,75.394 5.961,118.932 10.725,17.622 24.479,34.826 40.029,50.375 15.549,15.549 32.753,29.304 50.355,40.009 43.537,26.514 89.886,34.887 119.17,5.603 l 15.45,-15.449 15.449,-15.449 0.02,0.02 c 3.271,-3.269 8.532,-3.768 12.38,-0.956 l 155.791,114.163 z" id="path15" inkscape:connector-curvature="0" style="fill:#ffc547;fill-opacity:1"/><path d="m 566.693,542.118 c 4.246,3.108 5.163,9.09 2.053,13.336 -3.108,4.246 -9.09,5.164 -13.336,2.054 l -38.953,-28.525 -38.951,-28.548 -38.953,-28.547 c -4.246,-3.108 -5.163,-9.09 -2.053,-13.337 3.108,-4.246 9.09,-5.163 13.336,-2.053 l 38.952,28.547 38.952,28.546 38.953,28.527 z" id="path17" inkscape:connector-curvature="0" style="fill:#ffc547;fill-opacity:1"/><path d="m 54.625,56.744 c -3.11,-4.246 -2.193,-10.227 2.054,-13.336 4.246,-3.11 10.227,-2.193 13.336,2.053 l 28.526,38.953 28.547,38.933 28.547,38.953 c 3.109,4.246 2.192,10.227 -2.054,13.336 -4.246,3.109 -10.227,2.193 -13.336,-2.053 L 111.718,134.61 83.171,95.677 54.625,56.744 Z" id="path19" inkscape:connector-curvature="0" style="fill:#ffc547;fill-opacity:1"/></g></g></g><g id="g21" transform="matrix(0.69999996,0,0,0.69999996,-0.12997041,-400.63536)"/><g id="g23" transform="matrix(0.69999996,0,0,0.69999996,-0.12997041,-400.63536)"/><g id="g25" transform="matrix(0.69999996,0,0,0.69999996,-0.12997041,-400.63536)"/><g id="g27" transform="matrix(0.69999996,0,0,0.69999996,-0.12997041,-400.63536)"/><g id="g29" transform="matrix(0.69999996,0,0,0.69999996,-0.12997041,-400.63536)"/><g id="g31" transform="matrix(0.69999996,0,0,0.69999996,-0.12997041,-400.63536)"/><g id="g33" transform="matrix(0.69999996,0,0,0.69999996,-0.12997041,-400.63536)"/><g id="g35" transform="matrix(0.69999996,0,0,0.69999996,-0.12997041,-400.63536)"/><g id="g37" transform="matrix(0.69999996,0,0,0.69999996,-0.12997041,-400.63536)"/><g id="g39" transform="matrix(0.69999996,0,0,0.69999996,-0.12997041,-400.63536)"/><g id="g41" transform="matrix(0.69999996,0,0,0.69999996,-0.12997041,-400.63536)"/><g id="g43" transform="matrix(0.69999996,0,0,0.69999996,-0.12997041,-400.63536)"/><g id="g45" transform="matrix(0.69999996,0,0,0.69999996,-0.12997041,-400.63536)"/><g id="g47" transform="matrix(0.69999996,0,0,0.69999996,-0.12997041,-400.63536)"/><g id="g49" transform="matrix(0.69999996,0,0,0.69999996,-0.12997041,-400.63536)"/></svg>