<?xml version="1.0" encoding="UTF-8" standalone="no"?>
<!-- Generator: Adobe Illustrator 16.0.0, SVG Export Plug-In . SVG Version: 6.00 Build 0)  -->
<svg xmlns:dc="http://purl.org/dc/elements/1.1/" xmlns:cc="http://creativecommons.org/ns#" xmlns:rdf="http://www.w3.org/1999/02/22-rdf-syntax-ns#" xmlns:svg="http://www.w3.org/2000/svg" xmlns="http://www.w3.org/2000/svg" xmlns:sodipodi="http://sodipodi.sourceforge.net/DTD/sodipodi-0.dtd" xmlns:inkscape="http://www.inkscape.org/namespaces/inkscape" version="1.1" id="Capa_1" x="0px" y="0px" width="69.998375" height="69.999992" viewBox="0 0 69.998378 69.999991" xml:space="preserve" inkscape:version="0.91 r13725" sodipodi:docname="zoom-big.svg"><script xmlns="" type="text/javascript" charset="utf-8" id="zm-extension"/><metadata id="metadata44"><rdf:RDF><cc:Work rdf:about=""><dc:format>image/svg+xml</dc:format><dc:type rdf:resource="http://purl.org/dc/dcmitype/StillImage"/><dc:title/></cc:Work></rdf:RDF></metadata><defs id="defs42"/><sodipodi:namedview pagecolor="#ffffff" bordercolor="#666666" borderopacity="1" objecttolerance="10" gridtolerance="10" guidetolerance="10" inkscape:pageopacity="0" inkscape:pageshadow="2" inkscape:window-width="1920" inkscape:window-height="1017" id="namedview40" showgrid="false" fit-margin-top="0" fit-margin-left="0" fit-margin-right="0" fit-margin-bottom="0" inkscape:zoom="1" inkscape:cx="305.99749" inkscape:cy="306.00449" inkscape:window-x="-8" inkscape:window-y="-8" inkscape:window-maximized="1" inkscape:current-layer="Capa_1"/><path inkscape:connector-curvature="0" id="path8" d="m 40.517591,27.15317 -8.743231,0 0,-8.75856 c 0,-1.20782 -0.97804,-2.19021 -2.185865,-2.19021 -1.207824,0 -2.18575,0.98022 -2.18575,2.19021 l 0,8.75856 -8.741172,0 c -1.207824,0 -2.18575,0.39826 -2.18575,1.60826 0,1.21 0.97804,2.77216 2.18575,2.77216 l 8.743345,0 0,8.7565 c 0,1.21 0.978041,2.1901 2.185751,2.1901 1.207824,0 2.185865,-0.9801 2.185865,-2.1901 l 0,-8.7565 8.743344,0 c 1.207825,0 2.185751,-0.98021 2.185751,-2.19021 -0.0022,-1.20988 -0.980213,-2.19021 -2.188038,-2.19021 z M 69.333811,66.19175 51.260823,48.40768 C 55.993413,43.26584 58.901342,36.46555 58.901342,28.98253 58.901342,12.97485 45.716383,0 29.450671,0 13.184959,0 0,12.97485 0,28.98241 c 0,16.00756 13.184959,28.9824 29.450671,28.9824 7.027914,0 13.473762,-2.43085 18.536902,-6.47215 L 66.13056,69.34685 c 0.884022,0.87086 2.319229,0.87086 3.203251,0 0.886082,-0.87076 0.886082,-2.28423 0,-3.1551 z M 29.450671,53.5057 c -13.762565,0 -24.9192707,-10.97942 -24.9192707,-24.52329 0,-13.54388 11.1567057,-24.5233 24.9192707,-24.5233 13.762679,0 24.91927,10.97942 24.91927,24.5233 0,13.54387 -11.156591,24.52329 -24.91927,24.52329 z" style="fill:#ffffff" inkscape:export-xdpi="90" inkscape:export-ydpi="90"/><g id="g10" transform="translate(-0.007,-542.0095)"/><g id="g12" transform="translate(-0.007,-542.0095)"/><g id="g14" transform="translate(-0.007,-542.0095)"/><g id="g16" transform="translate(-0.007,-542.0095)"/><g id="g18" transform="translate(-0.007,-542.0095)"/><g id="g20" transform="translate(-0.007,-542.0095)"/><g id="g22" transform="translate(-0.007,-542.0095)"/><g id="g24" transform="translate(-0.007,-542.0095)"/><g id="g26" transform="translate(-0.007,-542.0095)"/><g id="g28" transform="translate(-0.007,-542.0095)"/><g id="g30" transform="translate(-0.007,-542.0095)"/><g id="g32" transform="translate(-0.007,-542.0095)"/><g id="g34" transform="translate(-0.007,-542.0095)"/><g id="g36" transform="translate(-0.007,-542.0095)"/><g id="g38" transform="translate(-0.007,-542.0095)"/></svg>