<svg width="132" height="50" viewBox="0 0 132 50" xmlns="http://www.w3.org/2000/svg"><script xmlns="" type="text/javascript" charset="utf-8" id="zm-extension"/><g fill="#FFF" fill-rule="evenodd"><path fill-rule="nonzero" d="M.36 48.76V.24h28.8v5.64H7.12V43h23.32v5.76zM36.76.24h6.32v48.52h-6.32zM59.4 49.48c-2.12 0-3.84-.28-5.12-.88-1.24-.56-2.24-1.32-2.96-2.28-.72-1-1.24-2.16-1.52-3.44-.28-1.36-.44-2.88-.44-4.48V6.6h6.2v9.96H64l-3.2 4.6-5.24.04v17.12c0 1.72.32 3.16.96 4.36.76 1.36 2.32 2.08 4.6 2.08l.12 4.56c-.64.08-1.4.16-1.84.16zm21.96.28c-2.52 0-4.88-.4-7-1.2-2.08-.76-3.92-1.88-5.48-3.32-1.52-1.4-2.72-3.16-3.6-5.24-.88-2.08-1.32-4.48-1.32-7.12 0-2.6.44-5 1.32-7.12.88-2.12 2.08-3.96 3.6-5.44 1.52-1.48 3.32-2.64 5.4-3.48 2.08-.84 4.36-1.24 6.8-1.24 2.24 0 4.32.36 6.24 1.12 1.88.72 3.52 1.8 4.88 3.24 1.36 1.44 2.44 3.24 3.24 5.4.8 2.2 1.2 4.8 1.2 7.76v1.16H70.32l.08 1.24c.12 1.4.48 2.68 1.08 3.84.6 1.16 1.44 2.16 2.48 3 1 .8 2.16 1.48 3.4 1.92 1.28.48 2.6.72 4 .72 2.32 0 4.36-.44 6-1.32 1.28-.68 2.4-1.56 3.32-2.64l3.96 3.16c-3.24 3.72-7.56 5.56-13.28 5.56zm-.36-30c-2.84 0-5.32.88-7.32 2.6-2 1.76-3.16 4.04-3.36 6.76l-.08 1.24h20v-1.12c0-1.2-.16-2.4-.52-3.48-.36-1.16-.92-2.2-1.68-3.08-.76-.88-1.76-1.6-2.96-2.12-1.16-.52-2.52-.8-4.08-.8zm43.48 29l-9.56-13.36-9.64 13.36H98l13.12-17.16-11.56-15H107l8.04 11.52 8.28-11.52h7l-11.44 15 13.16 17.16z"/><path d="M11.24 27.68L14.56 22h13.12l-3.24 5.68z" opacity=".705"/></g></svg>