<svg width="385" height="54" viewBox="0 0 385 54" xmlns="http://www.w3.org/2000/svg"><script xmlns="" type="text/javascript" charset="utf-8" id="zm-extension"/><path d="M0 54h16V1H0v53zm80-17.95a50.088 50.088 0 0 1-4.752 2.695c-1.54.759-3.438 1.449-5.692 2.068-2.253.62-4.645.93-7.174.93-3.132 0-5.942-.651-8.434-1.954-2.492-1.304-4.44-3.061-5.842-5.275-1.402-2.213-2.103-4.65-2.103-7.305 0-3.01.801-5.642 2.404-7.893 1.602-2.252 3.72-3.985 6.348-5.2 2.63-1.213 5.46-1.82 8.49-1.82 3.406 0 6.368.537 8.885 1.612 2.516 1.076 5.065 2.422 7.644 4.041V3.985C72.286 1.328 65.587 0 59.676 0c-3.956 0-7.72.537-11.288 1.612-3.568 1.076-6.75 2.74-9.542 4.991-2.793 2.252-4.965 5.08-6.517 8.481C30.775 18.487 30 22.453 30 26.981c0 3.947.657 7.57 1.972 10.872 1.315 3.302 3.293 6.186 5.936 8.652 2.642 2.467 5.76 4.333 9.353 5.598C50.855 53.368 54.918 54 59.451 54c2.454 0 4.827-.146 7.119-.437a41.384 41.384 0 0 0 6.818-1.46A37.227 37.227 0 0 0 80 49.37V36.05zm54 7.28h-23.4V32.013h21.72V21.344H110.6V11.63h22.765V1H95v53h39V43.33zM209 1h-14.106l-15.931 19.885L163.107 1H149v53h15.112V23.293l14.07 17.782h1.228l14.032-17.782V54H209V1zm19 53h16V1h-16v53zm89-53h-15.517v29.367L274.805 1H261v53h15.405V24.479L303.158 54H317V1zm68 0h-54v12.886h19.142V54h15.715V13.886H385V1z" fill="#FFF" fill-rule="evenodd"/></svg>