<svg width="367" height="123" viewBox="0 0 367 123" xmlns="http://www.w3.org/2000/svg"><script xmlns="" type="text/javascript" charset="utf-8" id="zm-extension"/><title>EC2B4179-06DF-4230-AD23-1F3E552B092D</title><g fill="none" fill-rule="evenodd"><path d="M294.966 83.62c5.353-3.955 8.801-10.32 8.745-17.47-.096-11.886-9.84-21.445-21.764-21.35a21.544 21.544 0 0 0-12.84 4.344l25.859 34.477z" fill-opacity=".7" fill="#FF1628"/><path d="M293.357 52.136a17.23 17.23 0 0 0-10.506-3.446m15.2 25.633a17.085 17.085 0 0 0 2.205-8.559" stroke="#2D2926" stroke-width="1.282" stroke-linecap="round"/><path fill-opacity=".7" fill="#FF1628" d="M273.991 60.514l2.287-2.45 12.116 15.72-3.553 1.63z"/><path d="M350.725 123H16.875c-.594 0-1.075-.448-1.075-1s.481-1 1.075-1h333.85c.594 0 1.075.448 1.075 1s-.481 1-1.075 1M10.7 123H1.9c-.608 0-1.1-.448-1.1-1s.492-1 1.1-1h8.8c.608 0 1.1.448 1.1 1s-.492 1-1.1 1m355 0h-8.8c-.608 0-1.1-.448-1.1-1s.492-1 1.1-1h8.8c.608 0 1.1.448 1.1 1s-.492 1-1.1 1" fill="#2D2926"/><path fill-opacity=".7" fill="#FF1628" d="M50.475 120.752h10.13v-6.39h-10.13zm34.876 0h16.795v-6.39H85.35z"/><path d="M49.925 118.326h-3.303a.4.4 0 0 1-.4-.398v-.225a.4.4 0 0 1 .4-.399h3.303a.4.4 0 0 1 .4.399v.225a.4.4 0 0 1-.4.398" fill="#2D2926"/><path stroke="#2D2926" stroke-width="1.282" d="M43.166 121.394h7.18v-7.157h-7.18zm7.216 0H60.64v-7.157H50.382z"/><path stroke="#2D2926" stroke-width="1.282" d="M60.608 121.394h12.31v-7.157h-12.31z"/><path stroke="#2D2926" stroke-width="1.282" d="M72.917 121.394h12.31v-7.157h-12.31zm28.576 0h-16.18v-7.158h16.18a.8.8 0 0 1 .8.798v5.562a.8.8 0 0 1-.8.798z"/><path d="M80.64 106.967H54.335V96.546c0-5.588 4.544-10.117 10.15-10.117h6.006c5.607 0 10.15 4.53 10.15 10.117v10.42z" fill-opacity=".7" fill="#FF1628"/><path d="M89.295 114.186H39.607a.799.799 0 0 1-.8-.798v-5.562a.8.8 0 0 1 .8-.798h49.688a.8.8 0 0 1 .8.798v5.562a.8.8 0 0 1-.8.798z" stroke="#2D2926" stroke-width="1.282"/><path d="M89.753 111.374H78.47a.512.512 0 1 1 0-1.022h11.283a.512.512 0 1 1 0 1.022m-37.376 0H39.213c-.33 0-.599-.23-.599-.511 0-.283.268-.511.599-.511h13.164c.33 0 .598.228.598.51 0 .283-.268.512-.598.512m10.137-12.865c0 2.83 2.302 5.125 5.142 5.125 2.841 0 5.143-2.295 5.143-5.125 0-2.831-2.302-5.127-5.143-5.127-2.84 0-5.142 2.296-5.142 5.127" fill="#2D2926"/><path d="M80.545 106.858h-26.03V96.655c0-5.588 4.545-10.117 10.15-10.117h5.73c5.606 0 10.15 4.529 10.15 10.117v10.203z" stroke="#2D2926" stroke-width="1.282"/><path d="M72.4 93.439c0 .564.46 1.022 1.026 1.022a1.023 1.023 0 1 0 0-2.044c-.566 0-1.025.457-1.025 1.022m-10.515 0c0 .564.46 1.022 1.026 1.022.566 0 1.026-.458 1.026-1.022 0-.565-.46-1.022-1.026-1.022-.566 0-1.026.457-1.026 1.022m1.942 5.07a3.822 3.822 0 0 0 3.828 3.816 3.823 3.823 0 0 0 3.829-3.816 3.823 3.823 0 0 0-3.829-3.817 3.822 3.822 0 0 0-3.828 3.817" fill="#2D2926"/><path d="M69.409 96.911c0 .565-.69 1.022-1.539 1.022-.85 0-1.539-.457-1.539-1.022 0-.564.69-1.022 1.54-1.022.849 0 1.538.458 1.538 1.022" fill="#FFF"/><path d="M230.548 118.178h-7.178a.512.512 0 1 1 0-1.023h7.178a.512.512 0 1 1 0 1.023m-40.308 0h-35.917a.512.512 0 1 1 0-1.023h35.917a.512.512 0 1 1 0 1.023" fill="#2D2926"/><path fill="#FF1628" d="M174.9 101.667l34.363-.085 2.656 5.404h-39.236z"/><path fill-opacity=".7" fill="#FF1628" d="M173.169 106.63l38.445.073 2.17 7.084-43.051-.063z"/><path d="M212.896 114.162H171.78a1.023 1.023 0 0 1-.97-1.355l7.137-20.717h28.784l7.137 20.717a1.023 1.023 0 0 1-.97 1.355z" stroke="#2D2926" stroke-width="1.282"/><path d="M258.567 101.709H126.109c-.884 0-1.6-.715-1.6-1.595V3.617c0-.88.716-1.594 1.6-1.594h132.458c.884 0 1.6.713 1.6 1.594v96.497c0 .88-.716 1.595-1.6 1.595" fill="#FFF"/><path d="M258.567 101.709H126.109c-.884 0-1.6-.715-1.6-1.595V3.617c0-.88.716-1.594 1.6-1.594h132.458c.884 0 1.6.713 1.6 1.594v96.497c0 .88-.716 1.595-1.6 1.595z" stroke="#2D2926" stroke-width="2.564"/><path d="M260.167 75.11H124.509V3.617c0-.88.716-1.595 1.6-1.595h132.458c.884 0 1.6.715 1.6 1.595V75.11z" fill-opacity=".7" fill="#FF1628"/><path d="M189.774 88.503a2.56 2.56 0 0 0 2.564 2.557 2.56 2.56 0 0 0 2.564-2.557 2.56 2.56 0 0 0-2.564-2.556 2.56 2.56 0 0 0-2.564 2.556" fill="#2A2421"/><path d="M260.167 75.11H124.509V3.617c0-.88.716-1.595 1.6-1.595h132.458c.884 0 1.6.715 1.6 1.595V75.11z" stroke="#2D2926" stroke-width="2.564"/><path fill="#FFDEE3" d="M137.83 73.829l50.992-70.526h33.595L171.534 73.83zm45.274-.002l50.91-70.523h14.531l-50.908 70.524z"/><path d="M230.176 120.904H154.5a.799.799 0 0 1-.8-.797v-4.88a.8.8 0 0 1 .8-.798h75.676a.8.8 0 0 1 .8.797v4.88a.8.8 0 0 1-.8.798z" stroke="#2D2926" stroke-width="1.282"/><path d="M119.427 102.26l-7.87.112-2.366-5.126a3.749 3.749 0 0 1 1.846-4.98 3.771 3.771 0 0 1 4.996 1.84l3.394 8.155z" fill-opacity=".7" fill="#FF1628"/><path d="M115.41 88.982l-1.08 2.915c-.117.313-.393.5-.618.418-.224-.083-.312-.404-.196-.718l1.081-2.914c.116-.315.393-.501.617-.419.225.083.313.404.196.718m-5.506-.009l1.339 2.9c.144.312.08.649-.143.75-.224.104-.522-.066-.666-.378l-1.34-2.9c-.143-.313-.08-.648.144-.751.224-.102.522.068.666.38m-3.751 3.701l2.925 1.077c.314.115.502.39.42.615-.084.224-.406.31-.72.195l-2.926-1.077c-.314-.116-.501-.392-.419-.615.083-.224.405-.312.72-.195m-.303 5.529l2.91-1.335c.313-.143.65-.08.753.143.103.222-.068.52-.38.663l-2.91 1.335c-.314.144-.65.08-.754-.142-.102-.223.068-.52.381-.664" fill="#2D2926"/><path d="M119.32 102.133l-7.868.11-2.368-5.125a3.75 3.75 0 0 1 1.846-4.98 3.772 3.772 0 0 1 4.996 1.84l3.394 8.155z" stroke="#2D2926" stroke-width="1.282"/><path d="M129.656 102.216h-10.087V88.074a3.927 3.927 0 0 1 3.933-3.92h2.22s3.934.158 3.934 3.92v14.142z" fill="#FF1628"/><path fill-opacity=".7" fill="#FF1628" d="M110.146 110.158h20.003v-1.55h-20.003z"/><path fill-opacity=".7" fill="#FF1628" d="M126.238 120.6l-12.256-.01-3.323-10.448 18.955.021z"/><path d="M132.153 105.93h-4.1a.512.512 0 1 1 0-1.022h4.1a.512.512 0 1 1 0 1.023m-20.793-.001h-3.074a.512.512 0 1 1 0-1.022h3.073a.512.512 0 1 1 0 1.023m2.52-.001h-1.02a.512.512 0 1 1 0-1.022h1.02a.512.512 0 1 1 0 1.023" fill="#2D2926"/><path stroke="#2D2926" stroke-width="1.282" d="M126.246 120.75h-12.304l-4.106-12.27h20.515z"/><path d="M131.603 108.487h-23.019a.799.799 0 0 1-.8-.798v-4.54a.8.8 0 0 1 .8-.797h23.019a.8.8 0 0 1 .8.798v4.54a.8.8 0 0 1-.8.797z" stroke="#2D2926" stroke-width="1.282"/><path d="M133.338 95.323h-5.743c-.397 0-.718-.229-.718-.511 0-.282.321-.511.718-.511h5.743c.397 0 .719.229.719.51 0 .283-.322.512-.719.512m-8.272.362h-2.664c-.397 0-.718-.229-.718-.511 0-.282.321-.511.718-.511h2.664c.397 0 .719.229.719.51 0 .283-.322.512-.719.512m2.298 3.632h-5.503c-.464 0-.839-.229-.839-.511 0-.283.375-.511.839-.511h5.503c.463 0 .838.228.838.51 0 .283-.375.512-.838.512m-10.339-.365l-2.21.994c-.424.186-.86.129-.974-.13-.115-.258.136-.618.559-.805l2.21-.994c.424-.187.86-.129.974.13.115.257-.136.618-.56.805" fill="#2D2926"/><path d="M118.056 102.714h-5.503c-.463 0-.839-.228-.839-.51 0-.283.376-.512.839-.512h5.503c.463 0 .838.229.838.511 0 .283-.375.511-.838.511" fill="#2A2421"/><path d="M133.636 89.941h-3.69c-.397 0-.718-.229-.718-.51 0-.283.321-.512.718-.512h3.69c.397 0 .719.229.719.511 0 .282-.322.511-.719.511m-2.039-6.957l-2.61 2.6c-.28.28-.67.345-.871.146-.2-.2-.135-.589.146-.869l2.61-2.6c.28-.28.67-.345.87-.145.2.2.136.588-.145.868" fill="#2D2926"/><path d="M125.06 80.094v3.678c0 .395-.23.716-.513.716-.283 0-.513-.32-.513-.716v-3.678c0-.396.23-.716.513-.716.283 0 .513.32.513.716" fill="#2A2421"/><path d="M117.987 82.26l2.61 2.602c.28.28.345.668.145.868-.2.2-.59.135-.871-.146l-2.609-2.6c-.28-.28-.346-.668-.146-.868.2-.2.59-.135.87.145m1.571 6.616c.343 0 .62.228.62.51 0 .283-.277.512-.62.512h-3.184c-.342 0-.62-.23-.62-.511 0-.283.278-.511.62-.511h3.184zm6.763.98h-3.69c-.398 0-.72-.23-.72-.512 0-.282.322-.51.72-.51h3.69c.396 0 .718.228.718.51 0 .283-.322.512-.718.512" fill="#2D2926"/><path d="M129.657 102.28H119.57V88.138a3.927 3.927 0 0 1 3.933-3.92h2.22a3.927 3.927 0 0 1 3.934 3.92v14.142z" stroke="#2D2926" stroke-width="1.282"/><path d="M270.86 99.106h-4.1a.512.512 0 1 1 0-1.022h4.1a.512.512 0 1 1 0 1.022" fill="#2D2926"/><path fill-opacity=".7" fill="#FF1628" d="M284.627 121.05h-12.305l-2.58-16.23 17.565.031z"/><path fill="#FF1628" d="M287.066 104.82l-17.325.063-.499-4.281h18.464z"/><path stroke="#2D2926" stroke-width="1.282" d="M284.627 121.05h-12.305l-3.08-20.449h18.464zm5.357-20.495h-23.019a.798.798 0 0 1-.8-.798v-2.495c0-.44.358-.797.8-.797h23.019a.8.8 0 0 1 .8.797v2.495a.8.8 0 0 1-.8.798zm-3.078-4.117h-16.864a.799.799 0 0 1-.8-.798v-2.495a.8.8 0 0 1 .8-.797h16.864c.442 0 .8.357.8.797v2.495a.8.8 0 0 1-.8.798z"/><path d="M286.734 116.066h-1.674a2.961 2.961 0 0 1-2.967-2.957v-3.373a2.962 2.962 0 0 1 2.967-2.957h1.674a2.962 2.962 0 0 1 2.967 2.957v3.373a2.961 2.961 0 0 1-2.967 2.957" fill="#FFF"/><path d="M286.734 116.066h-1.674a2.961 2.961 0 0 1-2.967-2.957v-3.373a2.962 2.962 0 0 1 2.967-2.957h1.674a2.962 2.962 0 0 1 2.967 2.957v3.373a2.961 2.961 0 0 1-2.967 2.957z" stroke="#2D2926" stroke-width="1.282"/><path d="M343.295 120.718h-42.142v-2.148a3.993 3.993 0 0 1 4-3.986h34.142c2.209 0 4 1.784 4 3.986v2.148z" fill="#FF1628"/><path d="M333.037 114.586a11.153 11.153 0 0 0-10.813-8.374 11.152 11.152 0 0 0-10.813 8.375l21.626-.001z" fill-opacity=".7" fill="#FF1628"/><path d="M317.161 118.183h-11.283a.513.513 0 0 1-.513-.511c0-.282.23-.511.513-.511h11.283a.512.512 0 1 1 0 1.022m8.779 0h-4.099a.512.512 0 1 1 0-1.022h4.1a.512.512 0 1 1 0 1.022" fill="#2A2421"/><path d="M343.295 120.718h-42.142v-2.148a3.993 3.993 0 0 1 4-3.986h34.142c2.209 0 4 1.784 4 3.986v2.148z" stroke="#2D2926" stroke-width="1.282"/><path d="M333.037 114.586a11.153 11.153 0 0 0-10.813-8.374 11.152 11.152 0 0 0-10.813 8.375l21.626-.001z" stroke="#2D2926" stroke-width="1.282"/><path fill="#2D2926" d="M326.365 106.98l-.81-.528 13.79-20.995.81.528z"/><path fill="#2D2926" d="M331.725 89.096l.249-.933 9.358 2.477-.248.932zm-26.562-31.042l.421-.884 34.448 22.982-.537.803z"/><path fill="#2D2926" d="M337.646 73.539l.6.758-7.61 5.97-.6-.76z"/><path fill="#2A2421" d="M303 52.773l-.636-.802 4.827-3.806.636.802z"/><path d="M297.718 51.061a5.12 5.12 0 0 1 3.28-1.375c2.83-.124 5.225 2.062 5.35 4.883a5.114 5.114 0 0 1-3.354 5.024" fill="#FFF"/><path d="M297.718 51.061a5.12 5.12 0 0 1 3.28-1.375c2.83-.124 5.225 2.062 5.35 4.883a5.114 5.114 0 0 1-3.354 5.024" stroke="#2A2421" stroke-width="1.282"/><path d="M294.966 83.62c5.353-3.955 8.801-10.32 8.745-17.47-.096-11.886-9.84-21.445-21.764-21.35a21.544 21.544 0 0 0-12.84 4.344l25.859 34.477z" stroke="#2D2926" stroke-width="1.282"/><path d="M336.835 82.096a3.985 3.985 0 0 0 3.593 4.345 3.99 3.99 0 0 0 4.358-3.582 3.984 3.984 0 0 0-3.593-4.344 3.99 3.99 0 0 0-4.358 3.581" fill="#FFF"/><path d="M336.835 82.096a3.985 3.985 0 0 0 3.593 4.345 3.99 3.99 0 0 0 4.358-3.582 3.984 3.984 0 0 0-3.593-4.344 3.99 3.99 0 0 0-4.358 3.581z" stroke="#2A2421" stroke-width="1.21"/><path d="M276.01 58.213a9.896 9.896 0 0 0-4.03 8.053c.044 5.478 4.536 9.884 10.032 9.84a9.926 9.926 0 0 0 5.917-2.002" stroke="#2D2926" stroke-width="1.282"/></g></svg>