<svg width="235" height="319" viewBox="0 0 235 319" xmlns="http://www.w3.org/2000/svg"><script xmlns="" type="text/javascript" charset="utf-8" id="zm-extension"/><title>15370435-8262-4A08-B049-F8E6CF3E45DE</title><g fill="none" fill-rule="evenodd"><path d="M199.334 318.416H89.008a1.068 1.068 0 0 1-1.059-1.074c0-.594.474-1.074 1.059-1.074h110.326c.584 0 1.058.48 1.058 1.074 0 .591-.474 1.074-1.058 1.074m-123.86 0h-62.38a1.068 1.068 0 0 1-1.059-1.074c0-.594.474-1.074 1.059-1.074h62.38c.585 0 1.058.48 1.058 1.074 0 .591-.473 1.074-1.058 1.074m148.262 0h-10.67a1.068 1.068 0 0 1-1.06-1.074c0-.594.475-1.074 1.06-1.074h10.67c.585 0 1.058.48 1.058 1.074 0 .591-.473 1.074-1.058 1.074m-65.67-10.285h-7.968a1.068 1.068 0 0 1-1.059-1.073c0-.594.474-1.074 1.059-1.074h7.968c.585 0 1.057.48 1.057 1.074 0 .59-.472 1.073-1.057 1.073m-21.777 0H98.59a1.066 1.066 0 0 1-1.057-1.073c0-.594.473-1.074 1.057-1.074h37.699c.585 0 1.057.48 1.057 1.074 0 .59-.472 1.073-1.057 1.073m-44.594 0H75.62a1.068 1.068 0 0 1-1.06-1.073c0-.594.475-1.074 1.06-1.074h16.076c.585 0 1.058.48 1.058 1.074 0 .59-.473 1.073-1.058 1.073m-24.141 0H35.26a1.066 1.066 0 0 1-1.057-1.073c0-.594.472-1.074 1.057-1.074h32.294c.585 0 1.057.48 1.057 1.074 0 .59-.472 1.073-1.057 1.073m-66.497 0A1.066 1.066 0 0 1 0 307.058c0-.594.473-1.074 1.057-1.074h26.996c.585 0 1.058.48 1.058 1.074 0 .59-.473 1.073-1.058 1.073H1.057zm167.272 0a1.067 1.067 0 0 1-1.058-1.073c0-.594.474-1.074 1.058-1.074h65.59c.583 0 1.057.48 1.057 1.074 0 .59-.474 1.073-1.057 1.073h-65.59z" fill="#2D2926"/><path fill="#FF1628" d="M144.056 35.482H91.33l2.026-5.028h48.562zM140.68 28l-45.862-.286.675-1.375h44.23z"/><path d="M87.974 46.474a77.408 77.408 0 0 0-1.673 16.008v155.773c0 1.007.788 1.822 1.76 1.822h59.205c.974 0 1.762-.815 1.762-1.822V63.025c0-17.044-5.627-33.483-15.83-47.134l-4.342-5.332a83.87 83.87 0 0 0-9.553-9.185 3.13 3.13 0 0 0-3.958.02l-.035.03C104.768 10.272 96.8 21.32 91.908 33.527l-3.934 12.948z" fill-opacity=".7" fill="#FF1628"/><path d="M128.855 10.559a83.856 83.856 0 0 0-9.551-9.185 3.133 3.133 0 0 0-3.96.02l-.034.031c-10.543 8.846-18.51 19.895-23.401 32.1m-3.935 12.949a77.408 77.408 0 0 0-1.673 16.008v155.773c0 1.007.788 1.822 1.76 1.822h59.205c.974 0 1.762-.815 1.762-1.822V63.025c0-17.044-5.627-33.483-15.83-47.134" stroke="#2D2926" stroke-width=".991" stroke-linecap="round"/><path d="M168.879 132.426a21.087 21.087 0 0 0-6.044-6.602l-.007-.006a1.264 1.264 0 0 0-1.466.001c-5.59 3.974-8.92 10.466-8.92 17.395v71.217H171.8v-71.18c0-2.22-.342-4.395-.989-6.455l-1.932-4.37zm-88.351-.229a21.087 21.087 0 0 0-6.044-6.602l-.007-.006a1.264 1.264 0 0 0-1.466.003c-5.59 3.972-8.92 10.464-8.92 17.393v71.217h19.358v-71.18c0-2.22-.342-4.395-.989-6.455l-1.932-4.37z" fill-opacity=".7" fill="#FF1628"/><path d="M161.357 202.51v8.093c0 .593-.475 1.075-1.057 1.075a1.066 1.066 0 0 1-1.058-1.075v-8.092c0-.594.473-1.074 1.058-1.074.582 0 1.057.48 1.057 1.074" fill="#2A2421"/><path d="M170.585 136.567c.648 2.06.99 4.235.99 6.454v71.18h-19.358v-71.216c0-6.928 3.329-13.42 8.92-17.394a1.266 1.266 0 0 1 1.465-.003l.008.006a21.118 21.118 0 0 1 6.044 6.603" stroke="#2D2926" stroke-linecap="round"/><path d="M167.94 198.394v12.209c0 .593-.475 1.075-1.057 1.075a1.066 1.066 0 0 1-1.057-1.075v-12.209c0-.592.473-1.073 1.057-1.073.582 0 1.058.481 1.058 1.073" fill="#2A2421"/><path d="M160.49 193.576c-1.492 0-2.702-1.228-2.702-2.742v-28.798c0-1.514 1.21-2.742 2.701-2.742s2.701 1.228 2.701 2.742v28.798c0 1.514-1.21 2.742-2.7 2.742" fill="#2D2926"/><path d="M82.572 136.567a21.55 21.55 0 0 1 .988 6.454v71.18H64.203v-71.216c0-6.928 3.33-13.42 8.92-17.394a1.269 1.269 0 0 1 1.466-.003l.008.006a21.114 21.114 0 0 1 6.042 6.603" stroke="#2D2926" stroke-linecap="round"/><path d="M74.995 202.51v8.093c0 .593.474 1.075 1.058 1.075.584 0 1.057-.482 1.057-1.075v-8.092c0-.594-.473-1.074-1.057-1.074s-1.058.48-1.058 1.074m-6.584-4.117v12.209c0 .593.474 1.075 1.058 1.075.585 0 1.057-.482 1.057-1.075v-12.209c0-.592-.472-1.073-1.057-1.073-.584 0-1.058.481-1.058 1.073" fill="#2A2421"/><path d="M73.713 193.576c-1.49 0-2.7-1.228-2.7-2.742v-28.798c0-1.514 1.21-2.742 2.7-2.742 1.492 0 2.701 1.228 2.701 2.742v28.798c0 1.514-1.209 2.742-2.7 2.742" fill="#2D2926"/><path d="M216.624 299.56a24.503 24.503 0 0 1 3.2 6.368" stroke="#2D2926" stroke-linecap="round"/><path d="M141.67 138.662s5.402 19.883 13.731 28.34c8.327 8.456 13.786 10.798 18.57 17.826 4.782 7.028 9.116 16.226 10.129 22.626 1.012 6.4 1.35 12.34 1.35 12.34l-43.78-.228v-80.904z" fill="#FFF"/><path d="M141.67 138.662s5.402 19.883 13.731 28.34c8.327 8.456 13.786 10.798 18.57 17.826 4.782 7.028 9.116 16.226 10.129 22.626 1.012 6.4 1.35 12.34 1.35 12.34l-43.78-.228v-80.904z" stroke="#2D2926"/><path fill="#2D2926" d="M152.417 208.36h1.35v-8.228h-1.35zm12.775 0h1.35v-8.228h-1.35zm-6.387 4.113h1.35v-16.455h-1.35z"/><path d="M93.277 138.662s-5.402 19.883-13.73 28.34c-8.33 8.456-13.787 10.798-18.57 17.826-4.784 7.028-9.116 16.226-10.13 22.626a140.153 140.153 0 0 0-1.35 12.34l43.78-.228v-80.904z" fill="#FFF"/><path d="M93.277 138.662s-5.402 19.883-13.73 28.34c-8.33 8.456-13.787 10.798-18.57 17.826-4.784 7.028-9.116 16.226-10.13 22.626a140.153 140.153 0 0 0-1.35 12.34l43.78-.228v-80.904z" stroke="#2D2926"/><path fill="#2D2926" d="M81.346 206.302h1.35v-8.227h-1.35zm-12.773 0h1.35v-8.227h-1.35zm6.387 4.114h1.351v-16.455h-1.35z"/><path d="M58.954 279.23c-10.014 2.656-17.406 11.903-17.406 22.902 0 1.229.093 2.435.27 3.612m40.167-19.67c-4.258-4.68-10.354-7.61-17.126-7.61M24.972 299.56a24.507 24.507 0 0 0-3.202 6.368" stroke="#2D2926" stroke-linecap="round"/><path d="M45.237 289.285a24.44 24.44 0 0 0-.636-.008c-7.086 0-13.459 3.108-17.864 8.054m34.283-27.503c-4.737 2.236-8.18 6.828-8.864 12.293m19.122-13.301a15.464 15.464 0 0 0-5.914-.299m11.306-8.468a21.358 21.358 0 0 0-5.507 14.37m25.691-20.703a20.63 20.63 0 0 0-4.758-.552 20.643 20.643 0 0 0-12.873 4.491M182.64 279.23c10.016 2.656 17.406 11.903 17.406 22.902 0 1.229-.093 2.435-.27 3.612m-40.166-19.67c4.258-4.68 10.355-7.61 17.125-7.61" stroke="#2D2926" stroke-linecap="round"/><path d="M196.358 289.285c.211-.006.422-.008.635-.008 7.088 0 13.46 3.108 17.866 8.054m-34.285-27.503c4.738 2.236 8.18 6.828 8.865 12.293m-19.123-13.301a15.464 15.464 0 0 1 5.914-.299m-26-14.702a22.12 22.12 0 0 0-6.196-.88c-1.263 0-2.503.106-3.71.31m25.513 27.951c.424-1.75.648-3.581.648-5.464 0-7.806-3.863-14.695-9.754-18.805" stroke="#2D2926" stroke-linecap="round"/><path fill="#2D2926" d="M132.385 269.164h1.576v-20.682h-1.576zm0 15.936h1.576v-11.078h-1.576zm-7.935-22.898h1.577v-20.404h-1.576zm0 11.67h1.577v-6.876h-1.576zm-7.934 6.355h1.576v-31.659h-1.576zm-7.934-10.886h1.576v-27.543h-1.576zm-7.934 20.986h1.576v-6.962h-1.576zm0-9.843h1.576v-31.66h-1.576z"/><path d="M97.91 84.937c3.752-9.192 9.863-17.516 17.949-24.179l.027-.022a2.435 2.435 0 0 1 3.036-.016 63.776 63.776 0 0 1 7.324 6.918m3.333 4.017c7.824 10.281 12.138 22.664 12.138 35.503v123.124a1.36 1.36 0 0 1-1.35 1.37l-45.407.001a1.36 1.36 0 0 1-1.35-1.371V106.749c0-4.083.435-8.119 1.282-12.059" stroke="#2A2421" stroke-width="1.066" stroke-linecap="round"/><path d="M97.91 84.937c3.752-9.192 9.863-17.516 17.949-24.179l.027-.022a2.435 2.435 0 0 1 3.036-.016 63.776 63.776 0 0 1 7.324 6.918m3.333 4.017c7.824 10.281 12.138 22.664 12.138 35.503v123.124a1.36 1.36 0 0 1-1.35 1.37l-45.407.001a1.36 1.36 0 0 1-1.35-1.371V106.749c0-4.083.435-8.119 1.282-12.059" stroke="#2A2421" stroke-width="1.066" stroke-linecap="round"/><path d="M94.893 94.69a57.342 57.342 0 0 0-1.283 12.059V230.28a1.36 1.36 0 0 0 1.35 1.372h45.407a1.36 1.36 0 0 0 1.351-1.372V107.157c0-12.838-4.315-25.22-12.138-35.502l-3.334-4.017a63.79 63.79 0 0 0-7.325-6.918 2.436 2.436 0 0 0-3.036.015l-.027.022c-8.085 6.663-14.195 14.988-17.948 24.18l-3.017 9.753z" fill="#FFF"/><path d="M94.893 94.69a57.342 57.342 0 0 0-1.283 12.059V230.28a1.36 1.36 0 0 0 1.35 1.372h45.407a1.36 1.36 0 0 0 1.351-1.372V107.157c0-12.838-4.315-25.22-12.138-35.502l-3.334-4.017a63.79 63.79 0 0 0-7.325-6.918 2.436 2.436 0 0 0-3.036.015l-.027.022c-8.085 6.663-14.195 14.988-17.948 24.18l-3.017 9.753z" stroke="#2D2926"/><path fill="#2D2926" d="M123.056 239.212h13.505v-6.857h-13.505zm-24.612 0h13.505v-6.857H98.444z"/><path d="M141.815 228.918v1.024c0 1.516-1.21 2.743-2.7 2.743H96.213c-1.491 0-2.701-1.227-2.701-2.743v-1.024h48.302z" fill="#FF1628"/><path d="M106.08 96.96c0-2.086.59-4.036 1.615-5.687m2.595-2.875a10.76 10.76 0 0 1 6.594-2.245c2.078 0 4.02.588 5.668 1.606m5.136 9.201a10.76 10.76 0 0 0-1.733-5.872" stroke="#2D2926" stroke-linecap="round"/><path d="M82.973 219.742H51.445c-2.432 0-4.404 1.957-4.404 4.372 0 2.413 1.972 4.37 4.404 4.37h131.637c2.433 0 4.406-1.957 4.406-4.37 0-2.415-1.973-4.372-4.405-4.372H82.973z" fill-opacity=".7" fill="#FF1628"/><path d="M158.92 225.513H78.808a1.067 1.067 0 0 1-1.058-1.074c0-.594.474-1.074 1.058-1.074h80.112c.585 0 1.057.48 1.057 1.074 0 .592-.472 1.074-1.057 1.074" fill="#2D2926"/><path d="M87.58 219.685h95.618c2.433 0 4.405 1.958 4.405 4.371 0 2.414-1.972 4.37-4.405 4.37h-4.06" stroke="#2D2926" stroke-width="1.012" stroke-linecap="round"/><path d="M174.387 228.427H51.56c-2.432 0-4.405-1.957-4.405-4.372 0-2.412 1.973-4.37 4.405-4.37h31.528" stroke="#2A2421" stroke-width="1.012" stroke-linecap="round"/><path d="M155.235 228.11c0 3.537 2.89 6.406 6.454 6.406 3.565 0 6.457-2.869 6.457-6.405h-12.911zm-88.621 0c0 3.537 2.89 6.406 6.454 6.406 3.565 0 6.455-2.869 6.455-6.405h-12.91z" fill="#2D2926"/><path d="M139.03 232.754h-42.9c-1.492 0-2.702-1.228-2.702-2.742v-38.07c0-1.514 1.21-2.742 2.701-2.742h42.9c1.492 0 2.702 1.228 2.702 2.742v38.07c0 1.514-1.21 2.742-2.701 2.742" fill="#FFF"/><path d="M139.03 232.754h-42.9c-1.492 0-2.702-1.228-2.702-2.742v-38.07c0-1.514 1.21-2.742 2.701-2.742h42.9c1.492 0 2.702 1.228 2.702 2.742v38.07c0 1.514-1.21 2.742-2.701 2.742z" stroke="#2D2926"/><path d="M125.505 207.117c-1.649 0-3.218 1.281-4.707 3.84 1.489 2.642 3.099 3.963 4.788 3.963 1.045 0 1.89-.372 2.535-1.156.643-.785.964-1.694.964-2.807 0-1.115-.321-2.023-.964-2.766-.725-.702-1.57-1.074-2.616-1.074m-15.771 7.637c1.65 0 3.22-1.278 4.667-3.88-.724-1.321-1.448-2.27-2.212-2.93-.766-.66-1.61-.95-2.535-.95-1.047 0-1.892.371-2.535 1.115-.644.743-.966 1.692-.966 2.848s.322 2.065.966 2.766c.685.66 1.529 1.03 2.615 1.03m25.065-3.755c0 2.725-.845 5.036-2.574 6.936-1.69 1.897-3.822 2.848-6.357 2.848-3.3 0-6.116-1.694-8.41-5.078-1.126 1.486-2.333 2.684-3.742 3.55-1.366.91-2.814 1.363-4.304 1.363-2.655 0-4.828-.868-6.517-2.642-1.69-1.776-2.535-4.129-2.535-7.1 0-2.766.845-5.078 2.535-6.935 1.69-1.86 3.862-2.767 6.478-2.767 3.298 0 6.033 1.692 8.167 5.037 2.332-3.261 5.109-4.912 8.247-4.912 2.616 0 4.788.907 6.438 2.682 1.77 1.735 2.574 4.086 2.574 7.018" fill="#FF1628"/></g></svg>