<svg width="313" height="131" viewBox="0 0 313 131" xmlns="http://www.w3.org/2000/svg"><script xmlns="" type="text/javascript" charset="utf-8" id="zm-extension"/><title>75F5A58C-CCD3-43C3-895F-B70CB87261A8</title><g fill="none" fill-rule="evenodd"><path fill="#000" d="M253.413 70.33l1.353-6.863 2.207 4.96 2.286-4.96 1.216 6.862h-.995l-.62-3.852-1.904 4.145-1.848-4.15-.692 3.857zm9.081-3.209c0 .706.24 1.286.717 1.74.475.455 1.022.683 1.644.683.675 0 1.244-.232 1.708-.695a2.343 2.343 0 0 0 .695-1.711c0-.681-.228-1.252-.687-1.712-.455-.463-1.019-.695-1.69-.695-.67 0-1.234.232-1.695.695-.46.458-.692 1.023-.692 1.695m-.978-.012c0-.899.332-1.67.995-2.315a3.288 3.288 0 0 1 2.382-.968c.916 0 1.701.326 2.357.976.658.65.987 1.431.987 2.344a3.13 3.13 0 0 1-.991 2.336c-.664.642-1.464.963-2.403.963-.83 0-1.576-.285-2.236-.856-.727-.631-1.09-1.458-1.09-2.48m7.94 3.221v-6.818l4.689 4.87v-4.436h.97v6.772l-4.689-4.858v4.47zm8.17-.906h.437c.436 0 .799-.046 1.088-.137.288-.096.549-.25.782-.458.478-.433.716-.997.716-1.691 0-.7-.236-1.268-.708-1.704-.424-.388-1.05-.582-1.878-.582h-.437v4.572zm-.97.905v-6.383h1.349c.647 0 1.158.064 1.533.19.402.124.767.335 1.095.632.663.602.995 1.392.995 2.37 0 .981-.345 1.775-1.037 2.381-.347.303-.71.514-1.09.633-.357.118-.86.177-1.512.177h-1.333zm9.257-2.455l-.953-2.17-1 2.17h1.953zm.395.905h-2.752l-.716 1.55h-1.046l3.182-6.783 3.069 6.783h-1.062l-.675-1.55zm3.278-1.207l-2.099-3.626h1.116l1.47 2.55 1.474-2.55h1.116l-2.107 3.626v2.758h-.97z"/><path d="M266.788 88.23h5.19v1.961h-9.359l4.837-5.813c.475-.58.874-1.081 1.196-1.505.321-.425.567-.78.735-1.067.343-.56.514-1.066.514-1.514a2.15 2.15 0 0 0-.685-1.621c-.457-.436-1.023-.654-1.697-.654-1.407 0-2.214.827-2.418 2.481h-2.094c.337-2.914 1.82-4.371 4.449-4.371 1.27 0 2.334.4 3.194 1.2.867.8 1.3 1.792 1.3 2.975 0 .752-.202 1.49-.604 2.212-.206.377-.505.823-.899 1.34a44.338 44.338 0 0 1-1.494 1.832l-2.165 2.544zm11.56-4.462v-1.782c.89 0 1.49-.1 1.796-.296.547-.346.82-.902.82-1.666 0-.592-.197-1.072-.595-1.442-.39-.377-.9-.565-1.524-.565-.584 0-1.035.14-1.355.42-.306.288-.535.772-.685 1.452h-2.094c.217-1.302.662-2.256 1.336-2.862.674-.606 1.615-.909 2.824-.909 1.222 0 2.217.358 2.987 1.075.77.711 1.155 1.627 1.155 2.75 0 1.266-.505 2.252-1.516 2.957 1.155.674 1.733 1.77 1.733 3.287 0 1.243-.422 2.257-1.263 3.046-.843.788-1.922 1.183-3.24 1.183-1.678 0-2.924-.613-3.736-1.837-.337-.513-.55-1.225-.64-2.132h2.03c.108.669.37 1.181.79 1.536.418.356.963.534 1.637.534.68 0 1.242-.225 1.688-.673.445-.46.667-1.041.667-1.747 0-.931-.333-1.594-1.002-1.989-.39-.226-.995-.34-1.813-.34" fill="#FF1628"/><path d="M299.417 59.636h-53.301v-6.383c0-4.5 3.674-8.146 8.206-8.146h36.888c4.532 0 8.207 3.647 8.207 8.146v6.383z" fill-opacity=".7" fill="#FF1628"/><path d="M273.022 128.926c.908 0 1.643-.73 1.643-1.632V97.523c0-.9-.735-1.631-1.643-1.631-.907 0-1.643.73-1.643 1.63v29.772c0 .902.736 1.632 1.643 1.632z" stroke="#2A2421" stroke-width="1.009"/><path d="M299.674 130.241H20.753a.624.624 0 0 1-.626-.62v-.328c0-.342.28-.62.626-.62h278.92c.347 0 .626.278.626.62v.328c0 .342-.28.62-.625.62m-284.842 0H.625a.623.623 0 0 1-.625-.62v-.328c0-.342.28-.62.625-.62h14.207c.346 0 .626.278.626.62v.328c0 .342-.28.62-.626.62m297.498 0h-7.632a.623.623 0 0 1-.625-.62v-.328c0-.342.28-.62.625-.62h7.631c.346 0 .625.278.625.62v.328c0 .342-.279.62-.625.62" fill="#2A2421"/><path d="M228.433 3.063v.817c0 .857-.7 1.552-1.564 1.552H104.25a1.558 1.558 0 0 1-1.563-1.552v-.817c0-.858.7-1.553 1.563-1.553h122.62c.864 0 1.564.695 1.564 1.553" fill="#FFF"/><path d="M292.739 95.64h-39.945c-3.688 0-6.679-2.969-6.679-6.63V53.253c0-4.5 3.675-8.146 8.207-8.146h36.888c4.533 0 8.207 3.647 8.207 8.146V89.01c0 3.661-2.99 6.63-6.678 6.63z" stroke="#1D1000" stroke-width="2"/><path fill="#000" d="M246.115 59.614h53.568v-1.058h-53.568z"/><path d="M259.868 50.597c0 1.826 1.491 3.307 3.33 3.307 1.84 0 3.332-1.481 3.332-3.307 0-1.827-1.491-3.308-3.331-3.308-1.84 0-3.331 1.481-3.331 3.308m19.294 0c0 1.826 1.491 3.307 3.33 3.307 1.841 0 3.332-1.481 3.332-3.307 0-1.827-1.49-3.308-3.331-3.308-1.84 0-3.331 1.481-3.331 3.308" fill="#2A2421"/><path d="M263.734 51.236h-1.07c-.882 0-1.597-.71-1.597-1.585v-9.53a1.59 1.59 0 0 1 1.597-1.585h1.07c.882 0 1.597.71 1.597 1.586v9.529c0 .875-.715 1.585-1.597 1.585" fill="#FFF"/><path d="M263.734 51.236h-1.07c-.882 0-1.597-.71-1.597-1.585v-9.53a1.59 1.59 0 0 1 1.597-1.585h1.07c.882 0 1.597.71 1.597 1.586v9.529c0 .875-.715 1.585-1.597 1.585z" stroke="#1D1000"/><path d="M283.028 51.236h-1.07c-.882 0-1.597-.71-1.597-1.585v-9.53a1.59 1.59 0 0 1 1.597-1.585h1.07c.882 0 1.597.71 1.597 1.586v9.529c0 .875-.715 1.585-1.597 1.585" fill="#FFF"/><path d="M283.028 51.236h-1.07c-.882 0-1.597-.71-1.597-1.585v-9.53a1.59 1.59 0 0 1 1.597-1.585h1.07c.882 0 1.597.71 1.597 1.586v9.529c0 .875-.715 1.585-1.597 1.585z" stroke="#1D1000"/><path fill="#2A2421" d="M56.661 111.345h.966v-9.875h-.966z"/><path d="M81.609 128.312H32.617v-3.139c0-2.19 1.788-3.963 3.992-3.963h41.007c2.205 0 3.993 1.774 3.993 3.963v3.14z" fill="#FF1628"/><path d="M69.683 121.212c-1.426-5.573-6.513-9.696-12.57-9.696-6.058 0-11.146 4.124-12.57 9.698l25.14-.002z" fill-opacity=".7" fill="#FF1628"/><path d="M51.227 125.377H38.11a.594.594 0 0 1-.596-.592c0-.326.266-.591.596-.591h13.117c.33 0 .597.265.597.591a.594.594 0 0 1-.597.592m10.206 0h-4.765a.594.594 0 0 1-.596-.592c0-.326.267-.591.596-.591h4.765c.33 0 .597.265.597.591a.594.594 0 0 1-.597.592" fill="#2A2421"/><path d="M81.609 128.312H32.617v-3.139c0-2.19 1.788-3.963 3.992-3.963h41.007c2.205 0 3.993 1.774 3.993 3.963v3.14z" stroke="#2A2421" stroke-width="1.282"/><path d="M69.683 121.212c-1.426-5.573-6.513-9.696-12.57-9.696-6.058 0-11.146 4.124-12.57 9.698l25.14-.002z" stroke="#2A2421" stroke-width="1.282"/><path d="M39.963 51.169c-6.03 5.367-9.824 13.16-9.824 21.832 0 16.189 13.22 29.313 29.527 29.313A29.55 29.55 0 0 0 82.21 91.932" stroke="#2A2421" stroke-width="2" stroke-linecap="round"/><path d="M77.41 54.585a23.433 23.433 0 0 0-15.948-6.223c-1.364 0-2.702.116-4.002.339a23.424 23.424 0 0 0-12.492 6.404C40.69 59.32 38.04 65.16 38.04 71.614c0 9.166 5.343 17.094 13.106 20.882M35.822 40.527a3.829 3.829 0 0 0-3.259-.96 3.828 3.828 0 0 0-2.039 1.045 3.772 3.772 0 0 0-1.131 2.696c0 1.496.872 2.791 2.14 3.41" fill-opacity=".7" fill="#FF1628"/><path d="M38.04 71.614c0 12.842 10.486 23.252 23.422 23.252a23.434 23.434 0 0 0 16.562-6.81c4.239-4.208 6.86-10.021 6.86-16.442 0-12.841-10.486-23.252-23.422-23.252a23.434 23.434 0 0 0-16.494 6.744c-4.278 4.213-6.928 10.053-6.928 16.508zm-8.97-28.206c0 2.329 1.9 4.216 4.246 4.216a4.248 4.248 0 0 0 3.003-1.235 4.189 4.189 0 0 0 1.244-2.981c0-2.328-1.902-4.216-4.247-4.216a4.252 4.252 0 0 0-2.99 1.223 4.189 4.189 0 0 0-1.257 2.993z" stroke="#2A2421" stroke-width="2"/><path stroke="#2A2421" stroke-linecap="round" d="M81.84 92.273L35.625 46.748l.505-.76 46.31 45.757zM59.749 49.006s3.31 4.277 3.31 6.16-2.795 5.549.3 8.62c3.094 3.072 12.775.298 15.17.298 2.396 0 5.79 2.873 5.79 2.873"/><path d="M83.47 77.609c-.4.066-10.497-.512-12.293 1.271-1.797 1.784.815 6.507.815 8.588 0 2.081-.624 4.656-.624 4.656M41.7 59.972s.15 6.044 1.497 7.382c1.348 1.337 6.488 2.675 7.685 5.449 1.198 2.774-2.195 8.323 0 10.503 2.196 2.18 4.791 3.469 6.488 5.153 1.697 1.685 1.896 5.648 1.896 5.648" stroke="#2A2421" stroke-linecap="round"/><path d="M149.373 126.67c-.872-.257-1.363-1.146-1.095-1.985l9.456-29.615c.268-.838 1.192-1.309 2.064-1.051.872.257 1.362 1.145 1.094 1.984l-9.456 29.615c-.268.839-1.192 1.31-2.063 1.052zm39.35 0c-.871.258-1.795-.213-2.063-1.052l-9.456-29.615c-.268-.839.222-1.727 1.094-1.984.872-.258 1.796.213 2.064 1.051l9.456 29.615c.268.839-.223 1.728-1.095 1.985" fill="#FF1628"/><path d="M188.723 126.67c-.871.258-1.795-.213-2.063-1.052l-9.456-29.615c-.268-.839.222-1.727 1.094-1.984.872-.258 1.796.213 2.064 1.051l9.456 29.615c.268.839-.223 1.728-1.095 1.985zm-39.35 0c.871.258 1.795-.213 2.063-1.052l9.456-29.615c.268-.839-.222-1.727-1.094-1.984-.872-.258-1.796.213-2.064 1.051l-9.456 29.615c-.268.839.223 1.728 1.095 1.985zm19.77-8.103c.912 0 1.652-.739 1.652-1.652V95.6a1.652 1.652 0 0 0-3.304 0v21.315c0 .913.739 1.652 1.652 1.652z" stroke="#2A2421" stroke-width="1.009"/><path fill-opacity=".7" fill="#FF1628" d="M104.49 84.827h122.558V5.619H104.49z"/><path fill="#2A2421" d="M226.944 85.531h1.446V4.734h-1.446zm-123.762.022h1.446V4.756h-1.446z"/><path d="M228.943 3.305a1.986 1.986 0 0 1-1.986 1.987H104.503a1.986 1.986 0 0 1 0-3.973h122.454c1.098 0 1.986.89 1.986 1.986" fill="#FFF"/><path d="M228.943 3.305a1.986 1.986 0 0 1-1.986 1.987H104.503a1.986 1.986 0 0 1 0-3.973h122.454c1.098 0 1.986.89 1.986 1.986z" stroke="#373737" stroke-width="1.288"/><path fill="#FFDEE3" d="M176.437 27.781l48.285.177.05-5.332z"/><path d="M186.704 33.578h-16.913a.63.63 0 0 1-.63-.628v-.332a.63.63 0 0 1 .63-.628h16.913c.348 0 .629.282.629.628v.332a.629.629 0 0 1-.629.628m-9.288 3.212h-7.428c-.456 0-.826-.356-.826-.794 0-.44.37-.795.826-.795h7.428c.456 0 .826.356.826.795 0 .438-.37.794-.826.794" fill="#2A2421"/><path stroke="#2A2421" stroke-width="2.018" d="M169.983 27.958h53.962v-16.68h-53.962z"/><path stroke="#2A2421" stroke-width="2.018" d="M174.592 27.825l12.029-6.156h8.878l7.538-5.46 10.22 3.574 11.15-5.263"/><path d="M113.42 48.09c0 4.12 3.471 7.458 7.754 7.458 4.283 0 7.755-3.338 7.755-7.458 0-4.118-3.472-7.457-7.755-7.457-4.283 0-7.755 3.34-7.755 7.457m32.517 0c0 4.12 3.472 7.458 7.755 7.458 4.284 0 7.755-3.338 7.755-7.458 0-4.118-3.471-7.457-7.755-7.457-4.283 0-7.755 3.34-7.755 7.457" fill="#FFDEE3"/><path d="M126.946 62.835h-16.914a.629.629 0 0 1-.628-.629v-.331a.63.63 0 0 1 .628-.629h16.914a.63.63 0 0 1 .629.629v.331a.629.629 0 0 1-.629.629m-.366 6.379h-9.475a.629.629 0 0 1-.629-.628v-.332a.63.63 0 0 1 .629-.629h9.475c.348 0 .629.282.629.629v.332a.629.629 0 0 1-.629.628m-5.027 2.416h-4.516a.63.63 0 0 1-.63-.628v-.331a.63.63 0 0 1 .63-.629h4.516a.63.63 0 0 1 .629.629v.331a.629.629 0 0 1-.629.629m36.546-8.796h-16.913a.63.63 0 0 1-.63-.629v-.331a.63.63 0 0 1 .63-.629h16.913c.347 0 .628.282.628.629v.331a.629.629 0 0 1-.628.629" fill="#2A2421"/><path d="M140.557 50.275c0 4.826 4.068 8.737 9.085 8.737 5.018 0 9.086-3.911 9.086-8.737 0-4.826-4.068-8.738-9.086-8.738-5.017 0-9.085 3.912-9.085 8.738z" stroke="#2A2421" stroke-width="2.018"/><path d="M140.557 50.275l8.254-.095a.406.406 0 0 1 .418.398v8.037m-39.825-8.34c0 4.826 4.068 8.737 9.086 8.737 5.017 0 9.085-3.911 9.085-8.737 0-4.826-4.068-8.738-9.085-8.738-5.018 0-9.086 3.912-9.086 8.738z" stroke="#2A2421" stroke-width="2.018"/><path d="M109.817 50.275l8.254-.095a.406.406 0 0 1 .419.398v8.037" stroke="#2A2421" stroke-width="2.018"/><path fill="#FFDEE3" d="M111.52 70.315h4.13v-3.971h-4.13zm31.55 0h4.13v-3.971h-4.13zm0 7.035h4.13v-3.97h-4.13zm-31.55.114h4.13v-3.972h-4.13z"/><path stroke="#2A2421" stroke-width="2.018" d="M110.196 71.59h4.13v-3.972h-4.13z"/><path d="M126.606 76.413h-9.475a.629.629 0 0 1-.629-.629v-.331c0-.347.281-.629.629-.629h9.475c.348 0 .629.282.629.629v.331a.629.629 0 0 1-.629.629m-5.028 2.417h-4.516a.629.629 0 0 1-.629-.629v-.332c0-.346.281-.628.629-.628h4.516c.348 0 .629.282.629.628v.332a.629.629 0 0 1-.629.629" fill="#2A2421"/><path stroke="#2A2421" stroke-width="2.018" d="M110.221 78.788h4.13v-3.972h-4.13z"/><path d="M157.923 69.214h-9.476a.629.629 0 0 1-.628-.628v-.332c0-.347.28-.629.628-.629h9.476c.347 0 .628.282.628.629v.332a.629.629 0 0 1-.628.628m-5.028 2.416h-4.517a.63.63 0 0 1-.629-.628v-.331a.63.63 0 0 1 .63-.629h4.516c.348 0 .628.282.628.629v.331a.629.629 0 0 1-.628.629" fill="#2A2421"/><path stroke="#2A2421" stroke-width="2.018" d="M141.537 71.59h4.13v-3.972h-4.13z"/><path d="M157.948 76.413h-9.475a.629.629 0 0 1-.629-.629v-.331a.63.63 0 0 1 .629-.629h9.475c.348 0 .629.282.629.629v.331a.629.629 0 0 1-.629.629m-5.028 2.417h-4.516a.63.63 0 0 1-.63-.629v-.332a.63.63 0 0 1 .63-.628h4.517c.347 0 .628.282.628.628v.332a.629.629 0 0 1-.628.629" fill="#2A2421"/><path stroke="#2A2421" stroke-width="2.018" d="M141.564 78.788h4.13v-3.972h-4.13z"/><path d="M146.753 85.483h34.406" fill="#FFF"/><path d="M228.943 87.144a1.986 1.986 0 0 1-1.986 1.986H104.503a1.986 1.986 0 0 1 0-3.972h122.454c1.098 0 1.986.89 1.986 1.986z" stroke="#373737" stroke-width="1.288"/><path fill="#FFDEE3" d="M114.894 27.781l48.285.177.05-5.332z"/><path d="M126.126 33.578h-16.914a.63.63 0 0 1-.629-.628v-.332a.63.63 0 0 1 .63-.628h16.913c.347 0 .628.282.628.628v.332a.629.629 0 0 1-.628.628m-9.289 3.212h-7.428c-.456 0-.826-.356-.826-.794 0-.44.37-.795.826-.795h7.428c.456 0 .827.356.827.795 0 .438-.37.794-.827.794" fill="#2A2421"/><path stroke="#2A2421" stroke-width="2.018" d="M109.404 27.958h53.962v-16.68h-53.962z"/><path fill="#2A2421" d="M113.413 27.486h2.637v-3.419h-2.637zm5.414 0h2.637v-4.433h-2.637zm5.415 0h2.636v-5.449h-2.636zm5.414 0h2.636v-6.463h-2.636zm5.414 0h2.637v-7.478h-2.636zm5.415 0h2.637v-8.493h-2.637zm5.415 0h2.636v-9.508h-2.637zm5.414 0h2.637V16.964h-2.637zm5.414 0h2.637V15.949h-2.637z"/><path fill-opacity=".7" fill="#FF1628" d="M170.48 75.992h52.984V44.221h-52.983z"/><path stroke="#000" stroke-width="2" d="M170.48 75.992h52.984V44.221h-52.983z"/><path fill="#FFF" d="M176.053 52.568h1.4v-2.724h-1.4zm0 5.858h1.4v-2.723h-1.4zm0 6.084h1.4v-2.723h-1.4zm0 6.085h1.4v-2.724h-1.4zm8.087-18.255h1.402v-2.723h-1.401zm0 6.086h1.402v-2.723h-1.401zm0 6.084h1.402v-2.723h-1.401zm0 6.085h1.402v-2.724h-1.401zm8.088-18.255h1.401v-2.723h-1.4zm0 6.086h1.401v-2.723h-1.4zm0 6.084h1.401v-2.723h-1.4zm0 6.085h1.401v-2.724h-1.4zm8.087-18.255h1.401v-2.723h-1.4zm0 6.086h1.401v-2.723h-1.4zm0 6.084h1.401v-2.723h-1.4zm0 6.085h1.401v-2.724h-1.4zm8.088-18.255h1.401v-2.723h-1.4zm0 6.086h1.401v-2.723h-1.4zm0 6.084h1.401v-2.723h-1.4zm0 6.085h1.401v-2.724h-1.4zm8.087-18.255h1.402v-2.723h-1.401zm0 6.086h1.402v-2.723h-1.401zm0 6.084h1.402v-2.723h-1.401zm0 6.085h1.402v-2.724h-1.401z"/><path d="M177.712 60.648c0 1.645 1.371 2.978 3.063 2.978 1.693 0 3.064-1.333 3.064-2.978 0-1.645-1.371-2.978-3.064-2.978-1.692 0-3.063 1.333-3.063 2.978" fill="#FFDEE3"/><path d="M177.712 60.648c0 1.645 1.371 2.978 3.063 2.978 1.693 0 3.064-1.333 3.064-2.978 0-1.645-1.371-2.978-3.064-2.978-1.692 0-3.063 1.333-3.063 2.978z" stroke="#000"/><path d="M196.005 64.052c0 1.645 1.372 2.978 3.064 2.978s3.063-1.333 3.063-2.978c0-1.645-1.37-2.978-3.063-2.978-1.692 0-3.064 1.333-3.064 2.978" fill="#FFDEE3"/><path d="M196.005 64.052c0 1.645 1.372 2.978 3.064 2.978s3.063-1.333 3.063-2.978c0-1.645-1.37-2.978-3.063-2.978-1.692 0-3.064 1.333-3.064 2.978z" stroke="#000"/><path d="M211.499 54.378c0 1.645 1.371 2.979 3.063 2.979 1.692 0 3.064-1.334 3.064-2.979s-1.372-2.978-3.064-2.978-3.063 1.333-3.063 2.978" fill="#FFDEE3"/><path d="M211.499 54.378c0 1.645 1.371 2.979 3.063 2.979 1.692 0 3.064-1.334 3.064-2.979s-1.372-2.978-3.064-2.978-3.063 1.333-3.063 2.978z" stroke="#000"/><path d="M183.967 61.213l12.096 2.127m5.651-.894l10.087-6.403" stroke="#2A2421"/></g></svg>