<svg width="1320" height="466" viewBox="0 0 1320 466" xmlns="http://www.w3.org/2000/svg"><script xmlns="" type="text/javascript" charset="utf-8" id="zm-extension"/><title>83EDF45A-1838-40C4-99BF-77BAB95F346B</title><g fill="none" fill-rule="evenodd"><path d="M1281.125 465.568H38.875c-21.269 0-38.51-17.242-38.51-38.51 0-21.27 17.241-38.512 38.51-38.512h1242.25c21.27 0 38.511 17.242 38.511 38.512 0 21.268-17.242 38.51-38.51 38.51z" fill="#FFDEE3"/><path d="M925.008 217.173l-6.623 32.854a.954.954 0 0 1-1.326.683l-52.325-23.463c-.865-.388-.696-1.665.241-1.814l58.946-9.391a.955.955 0 0 1 1.087 1.131" fill="#FF1628"/><path d="M922.192 217.224v.003-.004.001zm-50.837 9.978l44.778 20.079 5.668-28.117-50.446 8.038zm45.787 26.166a4.13 4.13 0 0 1-1.69-.364l-50.557-22.669a4.102 4.102 0 0 1-2.403-4.307 4.101 4.101 0 0 1 3.443-3.534l56.956-9.073a4.109 4.109 0 0 1 3.626 1.218 4.122 4.122 0 0 1 1.068 3.67v.002l-6.4 31.744a4.1 4.1 0 0 1-2.157 2.854 4.114 4.114 0 0 1-1.886.459z" fill="#2D2926"/><path d="M912.72 201.666l-6.633 47.818a.955.955 0 0 1-1.282.762l-77.291-29.131c-.888-.334-.798-1.62.129-1.826l83.923-18.687a.956.956 0 0 1 1.154 1.064" fill="#AEAEC2"/><path d="M909.912 201.887v.002-.002zm-75.793 18.779l69.553 26.214 5.967-43.03-75.52 16.816zM904.8 252.9a4.1 4.1 0 0 1-1.457-.266l-75.482-28.449a4.1 4.1 0 0 1-2.66-4.153 4.098 4.098 0 0 1 3.22-3.735l81.956-18.25a4.125 4.125 0 0 1 4.983 4.596l-6.477 46.696a4.102 4.102 0 0 1-1.976 2.979 4.107 4.107 0 0 1-2.107.582z" fill="#2D2926"/><path fill="#FFF" d="M930.745 257.573v19.876l-147.848-68.811v-19.842z"/><path d="M785.649 206.883l142.345 66.252v-13.808L785.65 193.11v13.774zm147.847 74.88l-153.349-71.371v-25.909l153.349 71.336v25.944zM1283.512 427.29H36.56a3.438 3.438 0 1 1 0-6.877h1246.952a3.439 3.439 0 0 1 0 6.877" fill="#2D2926"/><path fill="#464480" d="M537.289 424.21h243.445V149.82H537.29z"/><path d="M540.04 421.46h237.943V152.57H540.04V421.46zm-5.502 5.502h248.947V147.068H534.538v279.894z" fill="#2A2421"/><path fill="#FFF" d="M537.289 424.21h243.445V287.458H537.29z"/><path d="M540.04 421.46h237.943V290.21H540.04V421.46zm-5.502 5.502h248.947V284.707H534.538v142.255z" fill="#2D2926"/><path d="M778.444 134.04H540.266l26.996-86.288a2.75 2.75 0 0 1 2.665-2.07h178.857c1.256 0 2.354.853 2.665 2.07l26.995 86.289z" fill-opacity=".7" fill="#FF1628"/><path d="M542.138 132.666h234.435l-26.437-84.503c-.176-.68-.723-1.105-1.352-1.105H569.926c-.628 0-1.176.426-1.332 1.036l-26.456 84.572zm238.178 2.75h-241.92l27.553-88.075c.448-1.758 2.092-3.034 3.977-3.034h178.858a4.125 4.125 0 0 1 3.998 3.104l27.534 88.006z" fill="#2A2421"/><path d="M544.01 131.29h230.692l-25.918-82.856H569.926l-.039.139-25.877 82.717zm238.177 5.502H536.524l28.095-89.804a5.499 5.499 0 0 1 5.307-4.056h178.858a5.499 5.499 0 0 1 5.308 4.056l28.095 89.804z" fill="#2D2926"/><path d="M535.68 297.615H353.498v-18.3c0-.527.426-.955.955-.955h180.272c.528 0 .955.428.955.955v18.3z" fill="#FF1628"/><path d="M354.873 296.24h179.432v-16.504H354.873v16.504zm182.183 2.751H352.122v-19.255a2.755 2.755 0 0 1 2.75-2.752h179.433a2.754 2.754 0 0 1 2.75 2.752v19.255zM524.666 145.699h268.581v-8.25H524.666v8.25zm269.957 5.501H523.29a4.13 4.13 0 0 1-4.126-4.126v-11.001a4.13 4.13 0 0 1 4.126-4.126h271.333a4.13 4.13 0 0 1 4.126 4.126v11.001a4.13 4.13 0 0 1-4.126 4.126z" fill="#2D2926"/><path fill="#FF1628" d="M794.614 147.07H523.288v-11.002h271.337z"/><path fill="#FFF" d="M356.229 422.853h176.719V299.68H356.229z"/><path d="M360.356 418.727h168.465v-114.92H360.356v114.92zm-8.252 8.253h184.97V295.554h-184.97V426.98z" fill="#2D2926"/><path fill="#B5B6C7" d="M356.229 422.853h176.719V299.68H356.229z"/><path fill="#AEAEC2" d="M490.336 323.344h15.207v-3.893h-15.207zM468.604 323.344h19.026v-3.893h-19.026zM458.611 323.344h7.287v-3.893h-7.287zM446.834 323.344h9.245v-3.893h-9.245zM425.484 323.344h19.026v-3.893h-19.026zM414.201 323.344h8.577v-3.893h-8.577zM403.759 323.344h8.818v-3.893h-8.818zM384.886 323.344h16.145v-3.893h-16.145zM373.464 317.044h-9.845a.329.329 0 0 1-.329-.329v-8.741c0-.182.148-.329.329-.329h9.845c.181 0 .328.147.328.329v8.741a.329.329 0 0 1-.328.329M359.022 317.044h-2.467a.33.33 0 0 1-.329-.329v-8.741a.33.33 0 0 1 .329-.329h2.467c.181 0 .328.147.328.329v8.741a.329.329 0 0 1-.328.329M396.705 317.044h-18.369a.329.329 0 0 1-.329-.329v-8.741c0-.182.147-.329.329-.329h18.37c.18 0 .328.147.328.329v8.741a.329.329 0 0 1-.329.329M418.437 317.044h-18.37a.329.329 0 0 1-.328-.329v-8.741c0-.182.147-.329.329-.329h18.37c.18 0 .328.147.328.329v8.741a.329.329 0 0 1-.329.329M428.43 317.044h-6.63a.329.329 0 0 1-.328-.329v-8.741c0-.182.147-.329.328-.329h6.63c.181 0 .328.147.328.329v8.741a.329.329 0 0 1-.328.329M440.207 317.044h-8.588a.329.329 0 0 1-.329-.329v-8.741c0-.182.148-.329.329-.329h8.588c.181 0 .328.147.328.329v8.741a.329.329 0 0 1-.328.329M461.557 317.044h-18.37a.329.329 0 0 1-.328-.329v-8.741c0-.182.147-.329.329-.329h18.37c.18 0 .328.147.328.329v8.741a.329.329 0 0 1-.329.329M472.84 317.044h-7.92a.329.329 0 0 1-.329-.329v-8.741c0-.182.147-.329.329-.329h7.92c.181 0 .328.147.328.329v8.741a.329.329 0 0 1-.328.329M483.282 317.044h-8.161a.329.329 0 0 1-.329-.329v-8.741c0-.182.147-.329.329-.329h8.161c.182 0 .329.147.329.329v8.741a.329.329 0 0 1-.329.329M505.02 317.044h-.725a.329.329 0 0 1-.329-.329v-8.741c0-.182.147-.329.329-.329h.726c.181 0 .328.147.328.329v8.741a.329.329 0 0 1-.328.329M502.155 317.044h-15.487a.329.329 0 0 1-.329-.329v-8.741c0-.182.147-.329.329-.329h15.487c.182 0 .329.147.329.329v8.741a.329.329 0 0 1-.329.329M527.753 317.044H509.5a.329.329 0 0 1-.329-.329v-8.741c0-.182.147-.329.329-.329h18.252c.181 0 .328.147.328.329v8.741a.329.329 0 0 1-.328.329M532.567 317.044h-1.755a.329.329 0 0 1-.329-.329v-8.741c0-.182.147-.329.329-.329h1.755c.181 0 .328.147.328.329v8.741a.329.329 0 0 1-.328.329M373.464 304.577h-9.845a.329.329 0 0 1-.329-.329v-4.57h10.502v4.57a.329.329 0 0 1-.328.329M360.053 304.577h-3.501a.329.329 0 0 1-.329-.329v-4.57h4.159v4.57a.329.329 0 0 1-.329.329M396.705 304.577h-18.369a.329.329 0 0 1-.329-.329v-4.57h19.027v4.57a.329.329 0 0 1-.329.329M415.485 304.577H403.31a.329.329 0 0 1-.329-.329v-4.57h12.833v4.57a.329.329 0 0 1-.329.329M401.66 304.577h-1.731a.329.329 0 0 1-.329-.329v-4.57h2.389v4.57a.329.329 0 0 1-.329.329M418.795 304.577h-1.731a.329.329 0 0 1-.329-.329v-4.57h2.389v4.57a.329.329 0 0 1-.329.329M440.169 304.577h-3.417a.329.329 0 0 1-.328-.329v-4.57h4.073v4.57a.329.329 0 0 1-.328.329M433.98 304.577h-5.766a.329.329 0 0 1-.329-.329v-4.57h6.423v4.57a.329.329 0 0 1-.329.329M425.44 304.577h-3.416a.33.33 0 0 1-.33-.329v-4.57h4.075v4.57a.329.329 0 0 1-.328.329M448.15 304.577h-4.962a.329.329 0 0 1-.329-.329v-4.57h5.62v4.57a.329.329 0 0 1-.33.329M461.47 304.577h-10.653a.329.329 0 0 1-.328-.329v-4.57h11.309v4.57a.329.329 0 0 1-.329.329M483.289 304.577h-18.37a.329.329 0 0 1-.328-.329v-4.57h19.026v4.57a.329.329 0 0 1-.328.329M488.49 304.577h-1.838a.329.329 0 0 1-.329-.329v-4.57h2.495v4.57a.329.329 0 0 1-.329.329M505.116 304.577H491.92a.329.329 0 0 1-.328-.329v-4.57h13.851v4.57a.329.329 0 0 1-.328.329M516.343 304.577h-6.64a.532.532 0 0 1-.531-.532v-4.366h7.703v4.366a.532.532 0 0 1-.532.532M527.524 304.577h-8.395a.329.329 0 0 1-.329-.329v-4.57h9.052v4.57a.329.329 0 0 1-.328.329M532.612 304.577h-2.403a.329.329 0 0 1-.329-.329v-4.57h3.06v4.57a.329.329 0 0 1-.328.329M368.264 328.847h-11.688a.328.328 0 0 1-.329-.329v-8.74c0-.183.147-.33.329-.33h11.688c.181 0 .329.147.329.33v8.74a.328.328 0 0 1-.329.329M374.01 328.847h-3.206a.329.329 0 0 1-.33-.329v-8.74a.33.33 0 0 1 .33-.33h3.206c.182 0 .329.147.329.33v8.74a.328.328 0 0 1-.329.329M382.276 328.847h-5.869a.329.329 0 0 1-.33-.329v-8.74a.33.33 0 0 1 .33-.33h5.869c.181 0 .328.147.328.33v8.74a.328.328 0 0 1-.328.329M526.492 328.847h-16.925a.328.328 0 0 1-.33-.329v-8.74c0-.183.147-.33.33-.33h16.925c.181 0 .329.147.329.33v8.74a.328.328 0 0 1-.33.329M532.632 328.847h-3.352a.328.328 0 0 1-.328-.329v-8.74c0-.183.147-.33.328-.33h3.352c.181 0 .328.147.328.33v8.74a.328.328 0 0 1-.328.329M381.522 342.038h-19.21a.328.328 0 0 1-.328-.329v-8.74c0-.183.147-.33.328-.33h19.21c.182 0 .329.147.329.33v8.74a.328.328 0 0 1-.329.329M358.044 342.038h1.313c.181 0 .33-.146.33-.329v-8.74a.33.33 0 0 0-.33-.33h-1.313a.329.329 0 0 0-.329.33v8.74c0 .183.147.329.329.329M532.616 342.038h-.29a.328.328 0 0 1-.328-.329v-8.74c0-.183.147-.33.328-.33h.29c.181 0 .328.147.328.33v8.74a.328.328 0 0 1-.328.329M528.564 342.038H514.01a.328.328 0 0 1-.329-.329v-8.74c0-.183.147-.33.329-.33h14.554c.182 0 .329.147.329.33v8.74a.328.328 0 0 1-.329.329M510.492 342.038h-2.328a.328.328 0 0 1-.328-.329v-8.74c0-.183.147-.33.328-.33h2.328c.181 0 .328.147.328.33v8.74a.328.328 0 0 1-.328.329M376.367 354.526h-18.369a.329.329 0 0 1-.328-.33v-8.74c0-.182.147-.328.328-.328h18.37c.18 0 .328.146.328.328v8.74c0 .183-.147.33-.329.33M382.345 354.526h-2.627a.329.329 0 0 1-.33-.33v-8.74c0-.182.147-.328.33-.328h2.627c.182 0 .329.146.329.328v8.74c0 .183-.147.33-.329.33M532.616 354.526h-1.488a.329.329 0 0 1-.328-.33v-8.74c0-.182.147-.328.328-.328h1.488c.181 0 .328.146.328.328v8.74c0 .183-.147.33-.328.33M528.546 354.526h-4.93a.329.329 0 0 1-.328-.33v-8.74c0-.182.147-.328.328-.328h4.93c.181 0 .328.146.328.328v8.74c0 .183-.147.33-.328.33M520.087 354.526h-12.181a.329.329 0 0 1-.329-.33v-8.74c0-.182.147-.328.329-.328h12.18c.182 0 .33.146.33.328v8.74c0 .183-.148.33-.33.33M382.34 368.07h-5.885a.328.328 0 0 1-.328-.329v-8.74c0-.183.147-.33.328-.33h5.886c.181 0 .328.147.328.33v8.74a.328.328 0 0 1-.328.329M372.268 368.07H358a.328.328 0 0 1-.329-.329v-8.74c0-.183.147-.33.329-.33h14.267c.181 0 .328.147.328.33v8.74a.328.328 0 0 1-.328.329M532.616 368.07h-4.088a.329.329 0 0 1-.33-.329v-8.74a.33.33 0 0 1 .33-.33h4.088c.181 0 .328.147.328.33v8.74a.328.328 0 0 1-.328.329M514.292 368.07h-6.128a.328.328 0 0 1-.329-.329v-8.74c0-.183.147-.33.329-.33h6.128c.182 0 .329.147.329.33v8.74a.328.328 0 0 1-.329.329M526.031 368.07h-8.276a.328.328 0 0 1-.329-.329v-8.74c0-.183.147-.33.329-.33h8.276c.182 0 .329.147.329.33v8.74a.328.328 0 0 1-.329.329M375.696 381.25H358.01a.329.329 0 0 1-.329-.33v-8.74c0-.183.147-.329.329-.329h17.687c.182 0 .329.146.329.329v8.74c0 .183-.147.33-.329.33M383.318 381.25h-4.171a.329.329 0 0 1-.329-.33v-8.74c0-.183.148-.329.329-.329h4.171c.182 0 .329.146.329.329v8.74c0 .183-.147.33-.329.33M517.822 381.25h-6.22a.329.329 0 0 1-.328-.33v-8.74c0-.183.147-.329.328-.329h6.22c.182 0 .329.146.329.329v8.74c0 .183-.147.33-.329.33M532.58 381.25h-11.866a.329.329 0 0 1-.33-.33v-8.74c0-.183.148-.329.33-.329h11.865c.182 0 .329.146.329.329v8.74c0 .183-.147.33-.329.33M509.217 381.25h-2.772a.329.329 0 0 1-.329-.33v-8.74c0-.183.147-.329.329-.329h2.772c.181 0 .328.146.328.329v8.74c0 .183-.147.33-.328.33M512.978 406.217h4.813a.329.329 0 0 0 .328-.33v-8.74a.329.329 0 0 0-.328-.33h-4.813a.329.329 0 0 0-.329.33v8.74c0 .182.148.33.329.33M520.977 406.217h11.646a.329.329 0 0 0 .328-.33v-8.74a.329.329 0 0 0-.328-.33h-11.646a.329.329 0 0 0-.329.33v8.74c0 .182.147.33.329.33M510.348 406.217h-3.145a.329.329 0 0 1-.329-.33v-8.74c0-.183.147-.33.329-.33h3.145c.182 0 .329.147.329.33v8.74c0 .182-.147.33-.329.33M371.971 406.217h-13.976a.329.329 0 0 1-.329-.33v-8.74c0-.183.147-.33.329-.33h13.976c.182 0 .329.147.329.33v8.74c0 .182-.147.33-.329.33M383.278 406.217h-7.46a.329.329 0 0 1-.329-.33v-8.74c0-.183.147-.33.329-.33h7.46c.181 0 .328.147.328.33v8.74c0 .182-.147.33-.328.33M528.51 417.485h-3.815a.329.329 0 0 1-.328-.328v-8.742c0-.181.147-.328.328-.328h3.815c.182 0 .329.147.329.328v8.742a.329.329 0 0 1-.329.328M532.618 417.485H531.4a.329.329 0 0 1-.328-.328v-8.742c0-.181.147-.328.328-.328h1.218c.182 0 .329.147.329.328v8.742a.329.329 0 0 1-.329.328M521.063 417.485H506.96a.329.329 0 0 1-.328-.328v-8.742c0-.181.147-.328.328-.328h14.103c.181 0 .328.147.328.328v8.742a.329.329 0 0 1-.328.328M377.358 416.533h-4.282a.329.329 0 0 1-.329-.33v-6.835a.33.33 0 0 1 .329-.328h4.282a.33.33 0 0 1 .328.328v6.835c0 .183-.147.33-.328.33M371.342 416.533h-13.976a.329.329 0 0 1-.329-.33v-6.835a.33.33 0 0 1 .329-.328h13.976a.33.33 0 0 1 .329.328v6.835c0 .183-.147.33-.329.33M383.262 416.533h-3.24a.329.329 0 0 1-.328-.33v-6.835a.33.33 0 0 1 .329-.328h3.24a.33.33 0 0 1 .328.328v6.835c0 .183-.147.33-.329.33M363.272 420.77h4.282c.181 0 .328.146.328.328v1.758h-4.939v-1.758c0-.182.147-.329.329-.329M380.015 420.77h3.261c.182 0 .329.146.329.328v1.758h-3.919v-1.758c0-.182.147-.329.329-.329M370.65 420.77h6.552c.181 0 .328.146.328.328v1.758h-7.208v-1.758c0-.182.147-.329.328-.329M357.367 420.77h3.24c.182 0 .329.146.329.328v1.758h-3.897v-1.758c0-.182.147-.329.328-.329M527.721 422.854h-14.633v-3.244c0-.181.147-.328.328-.328h13.977c.181 0 .328.147.328.328v3.244zM532.952 422.854h-3.037v-3.244c0-.181.147-.328.328-.328h2.38c.182 0 .329.147.329.328v3.244zM510.983 422.854h-4.514v-3.244c0-.181.147-.328.328-.328h3.857c.182 0 .329.147.329.328v3.244zM522.74 393.289h-8.368a.329.329 0 0 1-.329-.329v-8.741c0-.182.148-.329.329-.329h8.369c.181 0 .328.147.328.329v8.741a.329.329 0 0 1-.328.329M532.618 393.289h-7.262a.329.329 0 0 1-.328-.329v-8.741c0-.182.147-.329.328-.329h7.262c.181 0 .329.147.329.329v8.741a.329.329 0 0 1-.329.329M511.289 393.289h-4.415a.329.329 0 0 1-.328-.329v-8.741c0-.182.147-.329.328-.329h4.415c.181 0 .329.147.329.329v8.741a.329.329 0 0 1-.329.329M368.006 393.289h-10.008a.33.33 0 0 1-.33-.329v-8.741a.33.33 0 0 1 .33-.329h10.008c.181 0 .328.147.328.329v8.741a.329.329 0 0 1-.328.329M383.233 393.289h-11.93a.329.329 0 0 1-.328-.329v-8.741c0-.182.147-.329.329-.329h11.93c.18 0 .328.147.328.329v8.741a.329.329 0 0 1-.329.329"/><path fill-opacity=".7" fill="#FF1628" d="M386.364 424.21h116.45v-98.112h-116.45z"/><path d="M389.114 421.46h110.95v-92.61h-110.95v92.61zm-5.501 5.502h121.952V323.349H383.613v103.613z" fill="#2D2926"/><path fill="#2D2926" d="M408.29 357.16H435.8v-5.501H408.29zM456.258 357.16h27.508v-5.501h-27.508zM408.29 398.938H435.8v-5.503H408.29zM456.258 398.938h27.508v-5.503h-27.508zM451.349 376.674h-11.844a.955.955 0 0 1-.955-.956v-.84c0-.527.428-.955.955-.955h11.844c.527 0 .955.428.955.955v.84a.955.955 0 0 1-.955.956M581.672 42.871h44.93V24.02h-44.93V42.87zm-5.503 5.502h55.934V18.518H576.17v29.855z"/><path fill-opacity=".7" fill="#FF1628" d="M592.962 19.948h25.043v-16.4h-25.043z"/><path d="M595.713 17.196h19.542v-10.9h-19.542v10.9zm-5.502 5.502h30.545V.795h-30.545v21.903z" fill="#2D2926"/><path fill="#2D2926" d="M605.515 19.748h5.502v-7.564h-5.502zM549.653 111.958h17.422v-5.501h-17.422zM576.015 80.61h40.818v-5.502h-40.818zM611.89 111.958h42.194v-5.501H611.89zM686.964 93.39h39.441V87.89h-39.441zM741.649 73.103h17.422v-5.501h-17.422zM743.712 111.844h25.679v-5.502h-25.679z"/><path fill="#B5B6C7" d="M537.51 287.42h242.966V149.896H537.51z"/><path d="M540.261 284.67h237.464V152.648H540.261V284.67zm-5.501 5.5h248.467V147.147H534.76V290.17z" fill="#2D2926"/><path d="M561.086 217.344h-18.369a.329.329 0 0 1-.328-.329v-8.741c0-.182.147-.329.328-.329h18.37c.18 0 .328.147.328.329v8.741a.329.329 0 0 1-.329.329M775.327 217.344h-7.814a.329.329 0 0 1-.328-.329v-8.741c0-.182.147-.329.328-.329h7.814c.182 0 .329.147.329.329v8.741a.329.329 0 0 1-.329.329M763.983 217.344h-12.18a.329.329 0 0 1-.33-.329v-8.741c0-.182.148-.329.33-.329h12.18c.182 0 .329.147.329.329v8.741a.329.329 0 0 1-.329.329M748.373 217.344h-4.93a.329.329 0 0 1-.328-.329v-8.741c0-.182.147-.329.329-.329h4.929c.182 0 .329.147.329.329v8.741a.329.329 0 0 1-.329.329M739.914 217.344h-12.181a.329.329 0 0 1-.329-.329v-8.741c0-.182.148-.329.329-.329h12.18c.182 0 .33.147.33.329v8.741a.329.329 0 0 1-.33.329M658.514 217.344h-4.93a.329.329 0 0 1-.328-.329v-8.741c0-.182.147-.329.328-.329h4.93c.181 0 .328.147.328.329v8.741a.329.329 0 0 1-.328.329M650.054 217.344h-12.18a.329.329 0 0 1-.329-.329v-8.741c0-.182.147-.329.33-.329h12.18c.18 0 .328.147.328.329v8.741a.329.329 0 0 1-.329.329M565.1 207.945h8.813c.181 0 .328.147.328.328v8.742a.329.329 0 0 1-.328.328H565.1a.329.329 0 0 1-.329-.328v-8.742c0-.181.147-.328.329-.328M577.04 207.945h12.182c.181 0 .328.147.328.328v8.742a.329.329 0 0 1-.328.328H577.04a.329.329 0 0 1-.329-.328v-8.742c0-.181.147-.328.329-.328M567.117 229.432h-5.886a.329.329 0 0 1-.328-.329v-8.741c0-.182.147-.329.328-.329h5.886c.181 0 .329.147.329.329v8.741a.329.329 0 0 1-.329.329M557.044 229.432h-14.267a.329.329 0 0 1-.329-.329v-8.741c0-.182.147-.329.329-.329h14.267c.181 0 .328.147.328.329v8.741a.329.329 0 0 1-.328.329M775.356 229.432h-2.875a.329.329 0 0 1-.328-.329v-8.741c0-.182.147-.329.328-.329h2.875c.182 0 .329.147.329.329v8.741a.329.329 0 0 1-.329.329M758.246 229.432h-6.128a.329.329 0 0 1-.329-.329v-8.741c0-.182.147-.329.329-.329h6.128c.181 0 .328.147.328.329v8.741a.329.329 0 0 1-.328.329M769.985 229.432h-8.276a.329.329 0 0 1-.329-.329v-8.741c0-.182.147-.329.329-.329h8.276c.182 0 .329.147.329.329v8.741a.329.329 0 0 1-.329.329M724.438 220.033h2.875c.182 0 .329.147.329.328v8.742a.329.329 0 0 1-.329.328h-2.875a.329.329 0 0 1-.328-.328v-8.742c0-.181.147-.328.328-.328M741.07 220.033h7.294c.182 0 .329.147.329.328v8.742a.329.329 0 0 1-.329.328h-7.294a.329.329 0 0 1-.329-.328v-8.742c0-.181.147-.328.329-.328M652.445 229.432h-8.797a.329.329 0 0 1-.329-.329v-8.741c0-.182.148-.329.329-.329h8.797c.181 0 .328.147.328.329v8.741a.329.329 0 0 1-.328.329M660 229.432h-5.559a.329.329 0 0 1-.328-.329v-8.741c0-.182.147-.329.328-.329h5.56c.18 0 .328.147.328.329v8.741a.329.329 0 0 1-.329.329M633.802 220.033h7.295c.181 0 .328.147.328.328v8.742a.329.329 0 0 1-.328.328h-7.295a.329.329 0 0 1-.328-.328v-8.742c0-.181.147-.328.328-.328M587.687 229.432h-8.797a.329.329 0 0 1-.329-.329v-8.741c0-.182.147-.329.329-.329h8.797c.181 0 .328.147.328.329v8.741a.329.329 0 0 1-.328.329M592.947 229.432h-3.264a.329.329 0 0 1-.328-.329v-8.741c0-.182.147-.329.328-.329h3.264c.181 0 .329.147.329.329v8.741a.329.329 0 0 1-.329.329M569.044 220.033h7.294c.182 0 .329.147.329.328v8.742a.329.329 0 0 1-.329.328h-7.294a.329.329 0 0 1-.328-.328v-8.742c0-.181.147-.328.328-.328M730.095 220.033h8.277c.181 0 .328.147.328.328v8.742a.329.329 0 0 1-.328.328h-8.277a.329.329 0 0 1-.328-.328v-8.742c0-.181.147-.328.328-.328M560.415 241.575h-17.687a.329.329 0 0 1-.329-.328v-8.742c0-.181.147-.328.329-.328h17.687c.182 0 .329.147.329.328v8.742a.329.329 0 0 1-.329.328M572.548 241.575h-8.682a.329.329 0 0 1-.329-.328v-8.742c0-.181.148-.328.329-.328h8.682c.182 0 .329.147.329.328v8.742a.329.329 0 0 1-.329.328M763.897 241.575h-6.22a.329.329 0 0 1-.329-.328v-8.742c0-.181.147-.328.329-.328h6.22c.181 0 .328.147.328.328v8.742a.329.329 0 0 1-.328.328M775.286 241.575h-8.498a.329.329 0 0 1-.328-.328v-8.742c0-.181.147-.328.328-.328h8.498c.182 0 .329.147.329.328v8.742a.329.329 0 0 1-.329.328M645.269 241.575h-6.22a.329.329 0 0 1-.329-.328v-8.742c0-.181.147-.328.329-.328h6.22c.181 0 .328.147.328.328v8.742a.329.329 0 0 1-.328.328M656.658 241.575h-8.498a.329.329 0 0 1-.328-.328v-8.742c0-.181.147-.328.328-.328h8.498c.182 0 .329.147.329.328v8.742a.329.329 0 0 1-.329.328M636.663 241.575h-2.772a.329.329 0 0 1-.329-.328v-8.742c0-.181.147-.328.329-.328h2.772c.181 0 .328.147.328.328v8.742a.329.329 0 0 1-.328.328M582.688 241.575h-6.22a.329.329 0 0 1-.328-.328v-8.742c0-.181.147-.328.328-.328h6.22c.181 0 .328.147.328.328v8.742a.329.329 0 0 1-.328.328M594.077 241.575h-8.497a.329.329 0 0 1-.329-.328v-8.742c0-.181.147-.328.329-.328h8.497c.182 0 .329.147.329.328v8.742a.329.329 0 0 1-.329.328M772.407 277.916h-3.815a.329.329 0 0 1-.329-.329v-8.741c0-.182.147-.329.329-.329h3.815c.181 0 .328.147.328.329v8.741a.329.329 0 0 1-.328.329M775.925 277.916h-.628a.329.329 0 0 1-.329-.329v-8.741c0-.182.147-.329.329-.329h.628c.182 0 .329.147.329.329v8.741a.329.329 0 0 1-.329.329M764.96 277.916h-14.103a.329.329 0 0 1-.329-.329v-8.741c0-.182.147-.329.329-.329h14.102c.182 0 .329.147.329.329v8.741a.329.329 0 0 1-.329.329M582.749 168.858h-20.51a.329.329 0 0 1-.328-.328v-8.652c0-.181.147-.328.328-.328h20.51c.181 0 .329.147.329.328v8.652a.329.329 0 0 1-.329.328M586.719 168.858h-.816a.329.329 0 0 1-.329-.328v-8.652c0-.181.147-.328.329-.328h.816c.181 0 .328.147.328.328v8.652a.329.329 0 0 1-.328.328M558.097 168.903h-9.845a.329.329 0 0 1-.329-.328v-8.742c0-.181.147-.328.329-.328h9.845c.181 0 .328.147.328.328v8.742a.329.329 0 0 1-.328.328M545.623 168.903h-2.954a.329.329 0 0 1-.329-.328v-8.742c0-.181.147-.328.329-.328h2.954c.181 0 .329.147.329.328v8.742a.329.329 0 0 1-.329.328M647.507 168.903h-18.369a.329.329 0 0 1-.328-.328v-8.742c0-.181.147-.328.328-.328h18.37c.18 0 .328.147.328.328v8.742a.329.329 0 0 1-.329.328M625.19 168.903h-2.928a.329.329 0 0 1-.329-.328v-8.742c0-.181.147-.328.329-.328h2.928c.182 0 .329.147.329.328v8.742a.329.329 0 0 1-.329.328M669.24 168.903h-18.37a.329.329 0 0 1-.328-.328v-8.742c0-.181.147-.328.328-.328h18.37c.18 0 .328.147.328.328v8.742a.329.329 0 0 1-.329.328M705.368 168.903h-15.59a.329.329 0 0 1-.329-.328v-8.742c0-.181.147-.328.329-.328h15.59c.181 0 .328.147.328.328v8.742a.329.329 0 0 1-.328.328M716.65 168.903h-7.92a.329.329 0 0 1-.328-.328v-8.742c0-.181.147-.328.328-.328h7.92c.182 0 .329.147.329.328v8.742a.329.329 0 0 1-.329.328M727.093 168.903h-8.161a.329.329 0 0 1-.329-.328v-8.742c0-.181.147-.328.329-.328h8.161c.182 0 .329.147.329.328v8.742a.329.329 0 0 1-.329.328M748.831 168.903h-2.322a.329.329 0 0 1-.328-.328v-8.742c0-.181.147-.328.328-.328h2.322c.182 0 .329.147.329.328v8.742a.329.329 0 0 1-.329.328M686.788 168.903h-15.487a.329.329 0 0 1-.329-.328v-8.742c0-.181.147-.328.329-.328h15.487c.182 0 .329.147.329.328v8.742a.329.329 0 0 1-.329.328M771.563 168.903h-18.251a.329.329 0 0 1-.329-.328v-8.742c0-.181.147-.328.329-.328h18.251c.182 0 .329.147.329.328v8.742a.329.329 0 0 1-.329.328M743.387 168.81h-12.892a.329.329 0 0 1-.33-.328v-8.556c0-.182.148-.329.33-.329h12.892c.181 0 .329.147.329.329v8.556a.329.329 0 0 1-.33.329M602.43 168.903h-6.22a.329.329 0 0 1-.328-.328v-8.742c0-.181.147-.328.329-.328h6.22c.181 0 .328.147.328.328v8.742a.329.329 0 0 1-.328.328M617.188 168.903h-11.866a.329.329 0 0 1-.329-.328v-8.742c0-.181.147-.328.329-.328h11.866c.181 0 .328.147.328.328v8.742a.329.329 0 0 1-.328.328M593.825 168.903h-2.772a.329.329 0 0 1-.328-.328v-8.742c0-.181.147-.328.328-.328h2.772c.181 0 .328.147.328.328v8.742a.329.329 0 0 1-.328.328M737.066 171.733h20.51c.181 0 .328.147.328.329v8.651a.329.329 0 0 1-.328.329h-20.51a.329.329 0 0 1-.328-.329v-8.651c0-.182.147-.329.328-.329M761.719 171.711h9.844c.182 0 .329.147.329.329v8.741a.329.329 0 0 1-.329.329h-9.844a.329.329 0 0 1-.329-.329v-8.741c0-.182.147-.329.329-.329M672.308 171.688h18.369c.181 0 .329.147.329.328v8.742a.329.329 0 0 1-.329.328h-18.37a.329.329 0 0 1-.328-.328v-8.742c0-.181.147-.328.329-.328M650.576 171.688h18.37c.18 0 .328.147.328.328v8.742a.329.329 0 0 1-.329.328h-18.37a.329.329 0 0 1-.328-.328v-8.742c0-.181.147-.328.329-.328M614.448 171.688h15.59c.18 0 .328.147.328.328v8.742a.329.329 0 0 1-.329.328h-15.59a.329.329 0 0 1-.328-.328v-8.742c0-.181.147-.328.329-.328M603.165 171.688h7.92c.181 0 .328.147.328.328v8.742a.329.329 0 0 1-.328.328h-7.92a.329.329 0 0 1-.329-.328v-8.742c0-.181.147-.328.329-.328M592.722 171.688h8.162c.181 0 .328.147.328.328v8.742a.329.329 0 0 1-.328.328h-8.162a.329.329 0 0 1-.328-.328v-8.742c0-.181.147-.328.328-.328M633.027 171.688h15.487c.182 0 .329.147.329.328v8.742a.329.329 0 0 1-.329.328h-15.487a.329.329 0 0 1-.329-.328v-8.742c0-.181.147-.328.329-.328M543.926 171.688h11.479c.181 0 .328.147.328.328v8.742a.329.329 0 0 1-.328.328h-11.479a.329.329 0 0 1-.329-.328v-8.742c0-.181.148-.328.33-.328M559.443 171.688h7.693c.182 0 .329.147.329.328v8.742a.329.329 0 0 1-.329.328h-7.693a.329.329 0 0 1-.329-.328v-8.742c0-.181.147-.328.329-.328M571.063 171.78h18.257c.182 0 .329.147.329.329v8.557a.329.329 0 0 1-.329.328h-18.257a.329.329 0 0 1-.329-.328v-8.557c0-.182.147-.329.329-.329M717.385 171.688h6.22c.181 0 .328.147.328.328v8.742a.329.329 0 0 1-.328.328h-6.22a.329.329 0 0 1-.329-.328v-8.742c0-.181.147-.328.329-.328M694.33 171.688h20.163c.182 0 .329.147.329.328v8.742a.329.329 0 0 1-.329.328H694.33a.329.329 0 0 1-.328-.328v-8.742c0-.181.147-.328.328-.328M725.99 171.688h8.173c.182 0 .329.147.329.328v8.742a.329.329 0 0 1-.329.328h-8.173a.329.329 0 0 1-.328-.328v-8.742c0-.181.147-.328.328-.328M731.483 257.203h20.51c.181 0 .328.147.328.329v8.651a.329.329 0 0 1-.328.329h-20.51a.329.329 0 0 1-.328-.329v-8.651c0-.182.147-.329.328-.329M712.113 257.203h16.233c.181 0 .328.147.328.329v8.651a.329.329 0 0 1-.328.329h-16.233a.329.329 0 0 1-.329-.329v-8.651c0-.182.147-.329.329-.329M745.693 232.266h9.178c.182 0 .329.147.329.329v8.652a.33.33 0 0 1-.329.329h-9.178a.33.33 0 0 1-.328-.33v-8.651c0-.182.147-.329.328-.329M756.136 257.158h9.844c.182 0 .329.147.329.328v8.742a.329.329 0 0 1-.329.328h-9.844a.329.329 0 0 1-.329-.328v-8.742c0-.181.147-.328.329-.328M768.61 257.158h2.953c.182 0 .33.147.33.328v8.742a.329.329 0 0 1-.33.328h-2.954a.329.329 0 0 1-.328-.328v-8.742c0-.181.147-.328.328-.328M666.725 257.158h18.369c.182 0 .329.147.329.328v8.742a.329.329 0 0 1-.329.328h-18.37a.329.329 0 0 1-.328-.328v-8.742c0-.181.147-.328.329-.328M644.993 257.158h18.37c.18 0 .328.147.328.328v8.742a.329.329 0 0 1-.329.328h-18.37a.329.329 0 0 1-.328-.328v-8.742c0-.181.147-.328.329-.328M608.865 257.158h15.59c.18 0 .328.147.328.328v8.742a.329.329 0 0 1-.329.328h-15.59a.329.329 0 0 1-.328-.328v-8.742c0-.181.147-.328.329-.328M597.582 257.158h7.92c.181 0 .328.147.328.328v8.742a.329.329 0 0 1-.328.328h-7.92a.329.329 0 0 1-.329-.328v-8.742c0-.181.147-.328.329-.328M587.14 257.158h8.16c.182 0 .33.147.33.328v8.742a.329.329 0 0 1-.33.328h-8.16a.329.329 0 0 1-.33-.328v-8.742c0-.181.148-.328.33-.328M627.444 257.158h15.487c.182 0 .329.147.329.328v8.742a.329.329 0 0 1-.329.328h-15.487a.329.329 0 0 1-.329-.328v-8.742c0-.181.147-.328.329-.328M542.669 257.158h18.252c.181 0 .328.147.328.328v8.742a.329.329 0 0 1-.328.328h-18.252a.329.329 0 0 1-.329-.328v-8.742c0-.181.147-.328.329-.328M565.033 257.25h18.705a.33.33 0 0 1 .328.329v8.557a.33.33 0 0 1-.328.328h-18.705a.329.329 0 0 1-.328-.328v-8.557c0-.182.147-.329.328-.329M731.903 232.222h6.22c.181 0 .328.147.328.328v8.742a.329.329 0 0 1-.328.328h-6.22a.329.329 0 0 1-.329-.328v-8.742c0-.181.147-.328.329-.328M689.75 257.158h19.16a.33.33 0 0 1 .33.328v8.742a.33.33 0 0 1-.33.328h-19.16a.329.329 0 0 1-.329-.328v-8.742c0-.181.147-.328.329-.328M740.508 232.222h2.772c.182 0 .329.147.329.328v8.742a.329.329 0 0 1-.329.328h-2.772a.329.329 0 0 1-.328-.328v-8.742c0-.181.147-.328.328-.328M552.983 193.082h-10.377a.329.329 0 0 1-.328-.328v-8.742c0-.181.147-.328.328-.328h10.377c.181 0 .328.147.328.328v8.742a.329.329 0 0 1-.328.328M566.995 193.082h-10.118a.329.329 0 0 1-.329-.328v-8.742c0-.181.148-.328.33-.328h10.117c.181 0 .328.147.328.328v8.742a.329.329 0 0 1-.328.328M770.388 193.082h-16.925a.33.33 0 0 1-.33-.328v-8.742a.33.33 0 0 1 .33-.328h16.925c.182 0 .33.147.33.328v8.742a.329.329 0 0 1-.33.328M775.409 193.082h-2.231a.329.329 0 0 1-.33-.328v-8.742c0-.181.147-.328.33-.328h2.23c.182 0 .33.147.33.328v8.742a.329.329 0 0 1-.33.328M710.275 193.082h-8.369a.329.329 0 0 1-.328-.328v-8.742c0-.181.147-.328.328-.328h8.369c.181 0 .329.147.329.328v8.742a.329.329 0 0 1-.329.328M720.152 193.082h-7.262a.329.329 0 0 1-.328-.328v-8.742c0-.181.147-.328.328-.328h7.262c.182 0 .329.147.329.328v8.742a.329.329 0 0 1-.329.328M698.823 193.082h-4.414a.329.329 0 0 1-.329-.328v-8.742c0-.181.147-.328.329-.328h4.414c.182 0 .329.147.329.328v8.742a.329.329 0 0 1-.329.328M738.986 193.082h-8.369a.329.329 0 0 1-.328-.328v-8.742c0-.181.147-.328.328-.328h8.37c.18 0 .328.147.328.328v8.742a.329.329 0 0 1-.329.328M748.864 193.082h-7.262a.329.329 0 0 1-.329-.328v-8.742c0-.181.147-.328.329-.328h7.262c.181 0 .328.147.328.328v8.742a.329.329 0 0 1-.328.328M727.535 193.082h-4.415a.329.329 0 0 1-.329-.328v-8.742c0-.181.147-.328.329-.328h4.415c.181 0 .328.147.328.328v8.742a.329.329 0 0 1-.328.328M650.823 193.082h-11.445a.33.33 0 0 1-.33-.328v-8.742a.33.33 0 0 1 .33-.328h11.445c.181 0 .328.147.328.328v8.742a.329.329 0 0 1-.328.328M636.355 193.082h-4.273a.329.329 0 0 1-.329-.328v-8.742c0-.181.147-.328.329-.328h4.273c.181 0 .328.147.328.328v8.742a.329.329 0 0 1-.328.328M662.042 193.082h-7.262a.329.329 0 0 1-.329-.328v-8.742c0-.181.147-.328.329-.328h7.262c.181 0 .328.147.328.328v8.742a.329.329 0 0 1-.328.328M680.876 193.082h-8.369a.329.329 0 0 1-.329-.328v-8.742c0-.181.147-.328.329-.328h8.369c.181 0 .328.147.328.328v8.742a.329.329 0 0 1-.328.328M690.753 193.082h-7.262a.329.329 0 0 1-.329-.328v-8.742c0-.181.148-.328.329-.328h7.262c.181 0 .329.147.329.328v8.742a.329.329 0 0 1-.33.328M596.242 193.082h-4.415a.329.329 0 0 1-.329-.328v-8.742c0-.181.147-.328.329-.328h4.415c.181 0 .328.147.328.328v8.742a.329.329 0 0 1-.328.328M578.294 193.082h-8.369a.329.329 0 0 1-.329-.328v-8.742c0-.181.148-.328.329-.328h8.369c.181 0 .328.147.328.328v8.742a.329.329 0 0 1-.328.328M588.171 193.082h-7.262a.329.329 0 0 1-.328-.328v-8.742c0-.181.147-.328.328-.328h7.262c.182 0 .329.147.329.328v8.742a.329.329 0 0 1-.329.328M669.424 193.082h-4.415a.329.329 0 0 1-.328-.328v-8.742c0-.181.147-.328.328-.328h4.415c.181 0 .329.147.329.328v8.742a.329.329 0 0 1-.329.328M612.049 193.082h-12.787a.329.329 0 0 1-.328-.328v-8.742c0-.181.147-.328.328-.328h12.787c.181 0 .328.147.328.328v8.742a.329.329 0 0 1-.328.328M621.926 193.082h-7.262a.329.329 0 0 1-.329-.328v-8.742c0-.181.147-.328.329-.328h7.262c.181 0 .328.147.328.328v8.742a.329.329 0 0 1-.328.328M629.308 193.082h-4.414a.329.329 0 0 1-.329-.328v-8.742c0-.181.147-.328.329-.328h4.414c.182 0 .329.147.329.328v8.742a.329.329 0 0 1-.329.328" fill="#AEAEC2"/><path d="M771.42 181.042h-8.395a.329.329 0 0 1-.328-.329v-8.651c0-.182.147-.329.328-.329h8.395c.182 0 .329.147.329.329v8.651a.329.329 0 0 1-.329.329M775.252 181.042h-1.147a.329.329 0 0 1-.328-.329v-8.651c0-.182.147-.329.328-.329h1.147c.181 0 .328.147.328.329v8.651a.329.329 0 0 1-.328.329M710.804 277.884h-18.369a.329.329 0 0 1-.328-.328v-8.652c0-.181.147-.328.328-.328h18.37c.18 0 .328.147.328.328v8.652a.329.329 0 0 1-.329.328M729.584 277.884H714.26a.329.329 0 0 1-.329-.328v-8.652c0-.181.147-.328.329-.328h15.324c.182 0 .329.147.329.328v8.652a.329.329 0 0 1-.329.328M748.078 277.884h-5.765a.329.329 0 0 1-.328-.328v-8.652c0-.181.147-.328.328-.328h5.765c.182 0 .329.147.329.328v8.652a.329.329 0 0 1-.329.328M739.54 277.884h-7.585a.329.329 0 0 1-.328-.328v-8.652c0-.181.147-.328.328-.328h7.585c.181 0 .328.147.328.328v8.652a.329.329 0 0 1-.328.328M635.18 268.68h23.27a.33.33 0 0 1 .328.328v8.741a.33.33 0 0 1-.328.329h-23.27a.329.329 0 0 1-.329-.329v-8.741c0-.182.147-.329.329-.329M671.462 268.68h8.368c.182 0 .329.146.329.328v8.741a.329.329 0 0 1-.329.329h-8.368a.329.329 0 0 1-.329-.329v-8.741c0-.182.147-.329.329-.329M661.584 268.68h7.262c.182 0 .329.146.329.328v8.741a.329.329 0 0 1-.329.329h-7.262a.329.329 0 0 1-.328-.329v-8.741c0-.182.147-.329.328-.329M682.913 268.68h6.636c.183 0 .33.146.33.328v8.741a.329.329 0 0 1-.33.329h-6.636a.329.329 0 0 1-.328-.329v-8.741c0-.182.147-.329.328-.329M622.146 278.008h-18.39a.329.329 0 0 1-.329-.328v-8.742c0-.181.147-.328.329-.328h18.39c.181 0 .328.147.328.328v8.742a.329.329 0 0 1-.328.328M629.774 278.008h-4.84a.329.329 0 0 1-.328-.328v-8.742c0-.181.147-.328.328-.328h4.84c.181 0 .328.147.328.328v8.742a.329.329 0 0 1-.328.328M590.744 278.008h-15.116a.329.329 0 0 1-.329-.328v-8.742c0-.181.147-.328.329-.328h15.116c.181 0 .328.147.328.328v8.742a.329.329 0 0 1-.328.328M600.62 278.008h-7.261a.329.329 0 0 1-.329-.328v-8.742c0-.181.147-.328.329-.328h7.262c.181 0 .328.147.328.328v8.742a.329.329 0 0 1-.328.328M555.069 268.61h15.612c.182 0 .329.147.329.329v8.741a.329.329 0 0 1-.329.329H555.07a.329.329 0 0 1-.329-.329v-8.741c0-.182.147-.329.329-.329M542.819 268.61h9.634c.182 0 .329.147.329.329v8.741a.329.329 0 0 1-.329.329h-9.634a.329.329 0 0 1-.329-.329v-8.741c0-.182.147-.329.329-.329M758.562 195.887h11.08c.18 0 .328.147.328.329v8.651a.329.329 0 0 1-.329.329h-11.08a.329.329 0 0 1-.328-.329v-8.651c0-.182.147-.329.329-.329M772.405 195.887h2.847c.181 0 .328.147.328.329v8.651a.329.329 0 0 1-.328.329h-2.847a.329.329 0 0 1-.328-.329v-8.651c0-.182.147-.329.328-.329M677.377 195.887h18.37c.18 0 .328.147.328.329v8.651a.329.329 0 0 1-.329.329h-18.369a.329.329 0 0 1-.328-.329v-8.651c0-.182.147-.329.328-.329M673.236 195.887h.778c.182 0 .329.147.329.329v8.651a.329.329 0 0 1-.329.329h-.778a.329.329 0 0 1-.329-.329v-8.651c0-.182.147-.329.329-.329M655.613 195.887h5.024c.181 0 .328.147.328.329v8.651a.329.329 0 0 1-.328.329h-5.024a.329.329 0 0 1-.328-.329v-8.651c0-.182.147-.329.328-.329" fill="#AEAEC2"/><path d="M658.597 195.887h12.175c.182 0 .329.147.329.329v8.651a.329.329 0 0 1-.329.329h-12.175a.329.329 0 0 1-.328-.329v-8.651c0-.182.147-.329.328-.329M633.913 195.887h3.417c.181 0 .329.147.329.329v8.651a.329.329 0 0 1-.329.329h-3.417a.329.329 0 0 1-.328-.329v-8.651c0-.182.147-.329.328-.329M640.103 195.887h5.765c.182 0 .329.147.329.329v8.651a.329.329 0 0 1-.329.329h-5.765a.329.329 0 0 1-.328-.329v-8.651c0-.182.147-.329.328-.329M648.642 195.887h3.416c.182 0 .329.147.329.329v8.651a.329.329 0 0 1-.329.329h-3.416a.329.329 0 0 1-.329-.329v-8.651c0-.182.147-.329.329-.329M625.933 195.887h4.962c.181 0 .328.147.328.329v8.651a.329.329 0 0 1-.328.329h-4.962a.329.329 0 0 1-.329-.329v-8.651c0-.182.147-.329.329-.329M612.613 195.887h10.652c.181 0 .328.147.328.329v8.651a.329.329 0 0 1-.328.329h-10.652a.329.329 0 0 1-.328-.329v-8.651c0-.182.147-.329.328-.329M590.794 195.887h18.369c.181 0 .328.147.328.329v8.651a.329.329 0 0 1-.328.329h-18.37a.329.329 0 0 1-.328-.329v-8.651c0-.182.147-.329.329-.329M585.593 195.887h1.838c.181 0 .328.147.328.329v8.651a.329.329 0 0 1-.328.329h-1.838a.329.329 0 0 1-.329-.329v-8.651c0-.182.147-.329.329-.329M568.967 195.887h13.194c.181 0 .329.147.329.329v8.651a.329.329 0 0 1-.329.329h-13.194a.329.329 0 0 1-.329-.329v-8.651c0-.182.147-.329.329-.329M557.536 195.887h7.046c.181 0 .328.147.328.329v8.651a.329.329 0 0 1-.328.329h-7.046a.329.329 0 0 1-.328-.329v-8.651c0-.182.147-.329.328-.329M543.876 195.887h11.077c.182 0 .329.147.329.329v8.651a.329.329 0 0 1-.329.329h-11.077a.329.329 0 0 1-.329-.329v-8.651c0-.182.147-.329.329-.329M748.122 205.092h-16.925a.329.329 0 0 1-.33-.328v-8.742c0-.181.148-.328.33-.328h16.925c.182 0 .329.147.329.328v8.742a.329.329 0 0 1-.329.328M755.75 205.092h-4.84a.329.329 0 0 1-.328-.328v-8.742c0-.181.147-.328.328-.328h4.84c.182 0 .329.147.329.328v8.742a.329.329 0 0 1-.329.328M716.72 205.092h-8.369a.329.329 0 0 1-.329-.328v-8.742c0-.181.147-.328.329-.328h8.369c.181 0 .328.147.328.328v8.742a.329.329 0 0 1-.328.328M726.597 205.092h-7.262a.329.329 0 0 1-.329-.328v-8.742c0-.181.148-.328.33-.328h7.261c.181 0 .329.147.329.328v8.742a.329.329 0 0 1-.329.328M705.268 205.092h-4.414a.329.329 0 0 1-.329-.328v-8.742c0-.181.147-.328.329-.328h4.414c.182 0 .329.147.329.328v8.742a.329.329 0 0 1-.329.328M766.58 253.721h-8.369a.329.329 0 0 1-.328-.328v-8.742c0-.181.147-.328.328-.328h8.37c.18 0 .328.147.328.328v8.742a.329.329 0 0 1-.329.328M775.439 253.721h-6.244a.329.329 0 0 1-.328-.328v-8.742c0-.181.147-.328.328-.328h6.244c.181 0 .328.147.328.328v8.742a.329.329 0 0 1-.328.328M755.128 253.721h-4.414a.329.329 0 0 1-.329-.328v-8.742c0-.181.147-.328.329-.328h4.414c.182 0 .329.147.329.328v8.742a.329.329 0 0 1-.329.328M730.173 244.323h8.37c.18 0 .328.147.328.329v8.741a.329.329 0 0 1-.329.329h-8.369a.329.329 0 0 1-.328-.329v-8.741c0-.182.147-.329.328-.329M721.315 244.323h6.242c.183 0 .33.147.33.329v8.741a.329.329 0 0 1-.33.329h-6.242a.329.329 0 0 1-.329-.329v-8.741c0-.182.147-.329.329-.329M741.625 244.323h4.415c.181 0 .328.147.328.329v8.741a.329.329 0 0 1-.328.329h-4.415a.329.329 0 0 1-.329-.329v-8.741c0-.182.148-.329.329-.329M647.134 244.323h8.368c.182 0 .329.147.329.329v8.741a.329.329 0 0 1-.329.329h-8.368a.329.329 0 0 1-.329-.329v-8.741c0-.182.147-.329.329-.329M638.275 244.323h6.243c.182 0 .329.147.329.329v8.741a.329.329 0 0 1-.329.329h-6.243a.329.329 0 0 1-.329-.329v-8.741c0-.182.147-.329.329-.329M658.585 244.323H663c.182 0 .329.147.329.329v8.741a.329.329 0 0 1-.329.329h-4.415a.329.329 0 0 1-.328-.329v-8.741c0-.182.147-.329.328-.329M578.879 244.323h8.369c.181 0 .328.147.328.329v8.741a.329.329 0 0 1-.328.329h-8.37a.329.329 0 0 1-.328-.329v-8.741c0-.182.147-.329.329-.329M570.322 244.323h6.243c.182 0 .33.147.33.329v8.741a.329.329 0 0 1-.33.329h-6.243a.329.329 0 0 1-.329-.329v-8.741c0-.182.147-.329.329-.329M590.33 244.323h4.415c.181 0 .329.147.329.329v8.741a.329.329 0 0 1-.329.329h-4.415a.329.329 0 0 1-.328-.329v-8.741c0-.182.147-.329.328-.329M552.667 253.721H542.66a.33.33 0 0 1-.33-.328v-8.742a.33.33 0 0 1 .33-.328h10.008c.182 0 .329.147.329.328v8.742a.329.329 0 0 1-.329.328M567.895 253.721h-11.93a.329.329 0 0 1-.329-.328v-8.742c0-.181.148-.328.329-.328h11.93c.181 0 .328.147.328.328v8.742a.329.329 0 0 1-.328.328M548.422 280.101h4.282c.182 0 .329.147.329.329v4.03h-4.94v-4.03c0-.182.148-.329.33-.329M565.165 280.101h3.262c.182 0 .329.147.329.329v4.03h-3.92v-4.03c0-.182.148-.329.33-.329M555.801 280.101h6.551c.182 0 .329.147.329.329v4.03h-7.208v-4.03c0-.182.147-.329.328-.329M542.518 280.101h3.24c.181 0 .328.147.328.329v4.03h-3.897v-4.03c0-.182.147-.329.329-.329M772.048 284.472h-14.634v-4.055c0-.181.147-.328.329-.328h13.976c.182 0 .329.147.329.328v4.055zM776.346 284.472h-2.563v-4.055c0-.181.147-.328.329-.328h1.905c.182 0 .329.147.329.328v4.055zM755.31 284.472h-4.515v-4.055c0-.181.148-.328.329-.328h3.857c.181 0 .328.147.328.328v4.055zM678.316 280.088h18.37c.18 0 .328.147.328.33v4.054h-19.027v-4.054c0-.183.147-.33.329-.33M656.584 280.088h18.37c.18 0 .328.147.328.33v4.054h-19.027v-4.054c0-.183.147-.33.329-.33M646.591 280.088h6.63c.181 0 .328.147.328.33v4.054h-7.286v-4.054c0-.183.147-.33.328-.33M634.814 280.088h8.588c.182 0 .329.147.329.33v4.054h-9.245v-4.054c0-.183.147-.33.328-.33M721.8 280.088h18.37c.182 0 .329.147.329.33v4.054h-19.027v-4.054c0-.183.147-.33.329-.33M711.808 280.088h6.63c.181 0 .328.147.328.33v4.054h-7.287v-4.054c0-.183.148-.33.329-.33M742.64 280.088h6.63c.18 0 .328.147.328.33v4.054h-7.287v-4.054c0-.183.147-.33.329-.33M700.031 280.088h8.588c.181 0 .328.147.328.33v4.054h-9.245v-4.054c0-.183.148-.33.33-.33M613.593 280.088h18.37c.18 0 .328.147.328.33v4.054h-19.027v-4.054c0-.183.148-.33.329-.33M602.31 280.088h7.92c.182 0 .329.147.329.33v4.054h-8.577v-4.054c0-.183.147-.33.328-.33M591.867 280.088h8.162c.181 0 .329.147.329.33v4.054h-8.82v-4.054c0-.183.148-.33.33-.33M571.551 280.088h16.932c.181 0 .328.147.328.33v4.054h-17.588v-4.054c0-.183.147-.33.328-.33M770.113 157.414h-4.282a.329.329 0 0 1-.329-.329v-4.03h4.94v4.03a.329.329 0 0 1-.33.329M753.37 157.414h-3.262a.329.329 0 0 1-.328-.329v-4.03h3.919v4.03a.329.329 0 0 1-.329.329M762.734 157.414h-6.551a.329.329 0 0 1-.329-.329v-4.03h7.209v4.03a.329.329 0 0 1-.329.329M776.017 157.414h-3.24a.329.329 0 0 1-.328-.329v-4.03h3.897v4.03a.329.329 0 0 1-.329.329M546.487 153.043h14.634v4.055a.329.329 0 0 1-.329.328h-13.976a.329.329 0 0 1-.329-.328v-4.055zM542.19 153.043h2.562v4.055a.329.329 0 0 1-.329.328h-1.905a.329.329 0 0 1-.329-.328v-4.055zM563.226 153.043h4.514v4.055a.329.329 0 0 1-.329.328h-3.857a.329.329 0 0 1-.328-.328v-4.055zM640.22 157.427h-18.37a.329.329 0 0 1-.328-.329v-4.055h19.026v4.055a.329.329 0 0 1-.329.329M661.951 157.427h-18.369a.329.329 0 0 1-.329-.329v-4.055h19.027v4.055a.329.329 0 0 1-.329.329M671.944 157.427h-6.63a.329.329 0 0 1-.328-.329v-4.055h7.286v4.055a.329.329 0 0 1-.328.329M683.72 157.427h-8.587a.329.329 0 0 1-.328-.329v-4.055h9.244v4.055a.329.329 0 0 1-.328.329M596.734 157.427h-18.369a.329.329 0 0 1-.328-.329v-4.055h19.026v4.055a.329.329 0 0 1-.329.329M606.727 157.427h-6.63a.329.329 0 0 1-.328-.329v-4.055h7.287v4.055a.329.329 0 0 1-.329.329M575.895 157.427h-6.63a.329.329 0 0 1-.328-.329v-4.055h7.287v4.055a.329.329 0 0 1-.329.329M618.504 157.427h-8.588a.329.329 0 0 1-.328-.329v-4.055h9.245v4.055a.329.329 0 0 1-.329.329M704.942 157.427h-18.369a.329.329 0 0 1-.328-.329v-4.055h19.026v4.055a.329.329 0 0 1-.329.329M716.225 157.427h-7.92a.329.329 0 0 1-.329-.329v-4.055h8.578v4.055a.329.329 0 0 1-.329.329M726.668 157.427h-8.162a.329.329 0 0 1-.329-.329v-4.055h8.82v4.055a.329.329 0 0 1-.33.329M746.984 157.427h-16.932a.329.329 0 0 1-.328-.329v-4.055h17.589v4.055a.329.329 0 0 1-.329.329" fill="#AEAEC2"/><path fill="#FFF" d="M584.41 244.603h50.783v-56.288H584.41z"/><path d="M587.16 241.852h45.282v-50.787H587.16v50.787zm-5.501 5.502h56.285v-61.79h-56.285v61.79z" fill="#2D2926"/><path d="M640.964 248.687h-62.326a3.818 3.818 0 0 1 0-7.635h62.326a3.817 3.817 0 1 1 0 7.635M585.209 204.65h47.903v-3.55h-47.903z" fill="#2D2926"/><path fill="#2D2926" d="M598.837 243.713h3.551v-41.724h-3.551z"/><path fill="#FFF" d="M586.554 201.083h46.504v-10.64h-46.504z"/><path fill="#FF1628" d="M586.552 241.05h12.286v-36.4h-12.286z"/><path fill-opacity=".7" fill="#FF1628" d="M602.387 241.049h30.668v-36.4h-30.668z"/><path d="M613.04 219.928l-.46.46a.74.74 0 0 1-1.046 0l-6.984-6.983a.74.74 0 0 1 0-1.047l.46-.46a.74.74 0 0 1 1.046 0l6.984 6.984a.741.741 0 0 1 0 1.046M616.403 216.565l-.46.46a.74.74 0 0 1-1.047 0l-9.998-9.999a.738.738 0 0 1 0-1.046l.46-.46a.738.738 0 0 1 1.046 0l10 10a.74.74 0 0 1 0 1.045" fill="#FFF"/><path fill="#8A8A97" d="M580.57 253.237h58.463v-4.528H580.57z"/><path fill="#FFF" d="M661.159 244.603h72.653v-56.288H661.16z"/><path d="M663.91 241.852h67.151v-50.787H663.91v50.787zm-5.502 5.502h78.155v-61.79h-78.155v61.79z" fill="#2D2926"/><path fill="#2D2926" d="M662.302 204.65h69.383v-3.55h-69.383z"/><path fill="#FFF" d="M663.29 201.098h68.384V190.45H663.29z"/><path fill="#FF1628" d="M662.384 241.05h12.286v-36.4h-12.286zM716.88 241.05h14.869v-36.4H716.88z"/><path fill-opacity=".7" fill="#FF1628" d="M678.01 241.049h37.303V204.64H678.01z"/><path d="M688.872 219.928l-.46.46a.74.74 0 0 1-1.046 0l-6.984-6.983a.74.74 0 0 1 0-1.047l.46-.46a.74.74 0 0 1 1.046 0l6.984 6.984a.741.741 0 0 1 0 1.046M692.235 216.565l-.46.46a.738.738 0 0 1-1.046 0l-10-9.999a.738.738 0 0 1 0-1.046l.46-.46a.738.738 0 0 1 1.047 0l9.999 10a.74.74 0 0 1 0 1.045" fill="#FFF"/><path d="M739.309 248.687h-83.646a3.818 3.818 0 1 1 0-7.635h83.646a3.817 3.817 0 1 1 0 7.635" fill="#2D2926"/><path fill="#2D2926" d="M713.289 243.713h3.551v-53.446h-3.551zM674.669 243.713h3.551v-53.446h-3.551z"/><path fill="#8A8A97" d="M663.22 253.237h68.53v-4.528h-68.53z"/><path fill="#FFF" d="M676.746 390.796H749.4v-56.289h-72.654z"/><path d="M679.497 388.045h67.152v-50.786h-67.152v50.786zm-5.5 5.502h78.155v-61.79h-78.155v61.79z" fill="#2D2926"/><path fill="#2D2926" d="M677.89 350.844h69.383v-3.551H677.89z"/><path fill="#FFF" d="M678.88 347.29h68.383v-10.646H678.88z"/><path fill="#FF1628" d="M677.972 387.243h12.286v-36.399h-12.286zM732.434 387.243h14.205v-36.399h-14.205z"/><path fill-opacity=".7" fill="#FF1628" d="M693.836 387.242h37.026V350.85h-37.026z"/><path d="M704.46 366.121l-.46.46a.74.74 0 0 1-1.047 0l-6.984-6.983a.74.74 0 0 1 0-1.046l.461-.46a.738.738 0 0 1 1.046 0l6.984 6.982a.741.741 0 0 1 0 1.047M707.823 362.759l-.46.46a.74.74 0 0 1-1.046 0l-10-9.998a.74.74 0 0 1 0-1.047l.46-.46a.74.74 0 0 1 1.046 0l10 9.998a.741.741 0 0 1 0 1.047" fill="#FFF"/><path d="M756.063 394.88h-85.98a2.65 2.65 0 0 1-2.65-2.65v-2.334a2.65 2.65 0 0 1 2.65-2.65h85.98a2.65 2.65 0 0 1 2.652 2.65v2.333a2.65 2.65 0 0 1-2.652 2.65" fill="#2D2926"/><path fill="#2D2926" d="M728.877 389.906h3.551v-53.445h-3.551zM690.256 389.906h3.551v-53.445h-3.551z"/><path fill="#8A8A97" d="M678.809 399.43h68.529v-4.527h-68.53z"/><path fill-opacity=".7" fill="#FF1628" d="M572.467 409.371h61.884v-86.65h-61.884z"/><path d="M574.874 408.34h56.381v-81.148h-56.38v81.148zm-5.5 5.502h67.384v-92.15h-67.384v92.15z" fill="#2D2926"/><path fill="#FFF" d="M609.14 368.412h12.378V336.95H609.14z"/><path d="M610.515 367.036h9.628v-28.711h-9.628v28.711zm-2.75 2.751h15.129v-34.212h-15.13v34.212z" fill="#2D2926"/><path fill="#FFF" d="M585.94 368.412h12.378V336.95H585.94z"/><path d="M587.315 367.036h9.628v-28.711h-9.628v28.711zm-2.75 2.751h15.129v-34.212h-15.13v34.212zM623.084 378.221h-7.715a.954.954 0 0 1-.955-.955v-.84c0-.529.427-.956.955-.956h7.715c.527 0 .955.427.955.955v.84a.955.955 0 0 1-.955.956M593.58 393.332h22.232v-5.48H593.58z" fill="#2D2926"/><path fill="#FFF" d="M560.428 424.058h86.327v-14.212h-86.327z"/><path d="M561.803 422.683h83.578v-11.461h-83.578v11.46zm-2.75 2.75h89.078V408.47h-89.079v16.964z" fill="#2D2926"/><path d="M593.884 345.868l-.37.266a.52.52 0 0 1-.727-.117l-4.213-5.852a.52.52 0 0 1 .118-.725l.371-.267a.52.52 0 0 1 .725.118l4.214 5.85a.52.52 0 0 1-.118.727M616.707 345.868l-.37.266a.52.52 0 0 1-.727-.117l-4.213-5.852a.519.519 0 0 1 .118-.725l.371-.267a.52.52 0 0 1 .725.118l4.214 5.85a.52.52 0 0 1-.118.727" fill="#FFF"/><path d="M572.822 308.97c0-.81-.578-1.503-1.657-1.503h-3.525v2.987h3.525c1.04 0 1.657-.559 1.657-1.484zm-.25-5.24c0-.81-.58-1.406-1.503-1.406h-3.429v2.793h3.43c.923 0 1.502-.578 1.502-1.386zm-7.668 9.094v-12.85h6.761c2.447 0 3.7 1.56 3.7 3.275 0 1.618-1.002 2.696-2.215 2.948 1.367.211 2.466 1.54 2.466 3.159 0 1.925-1.292 3.468-3.739 3.468h-6.973zM591.52 306.408c0-2.408-1.54-4.22-3.911-4.22-2.37 0-3.891 1.812-3.891 4.22 0 2.388 1.521 4.22 3.89 4.22 2.371 0 3.912-1.832 3.912-4.22m-10.615 0c0-3.874 2.832-6.646 6.704-6.646 3.892 0 6.724 2.772 6.724 6.646 0 3.873-2.832 6.646-6.724 6.646-3.872 0-6.704-2.773-6.704-6.646M610.102 306.408c0-2.408-1.541-4.22-3.912-4.22-2.37 0-3.891 1.812-3.891 4.22 0 2.388 1.522 4.22 3.891 4.22 2.37 0 3.912-1.832 3.912-4.22m-10.616 0c0-3.874 2.832-6.646 6.704-6.646 3.892 0 6.724 2.772 6.724 6.646 0 3.873-2.832 6.646-6.724 6.646-3.872 0-6.704-2.773-6.704-6.646M617.816 311.012l1.485-2.08a5.635 5.635 0 0 0 4.084 1.735c1.502 0 2.234-.696 2.234-1.426 0-2.274-7.399-.715-7.399-5.55 0-2.137 1.85-3.911 4.875-3.911 2.044 0 3.738.617 5.01 1.792l-1.521 2.004c-1.041-.963-2.43-1.406-3.739-1.406-1.176 0-1.83.52-1.83 1.29 0 2.041 7.379.674 7.379 5.472 0 2.349-1.677 4.123-5.145 4.123-2.466 0-4.238-.829-5.433-2.043M636.806 312.824V302.38h-3.756v-2.408h10.247v2.408h-3.736v10.443zM652.982 302.71l-2.004 5.527h4.007l-2.003-5.528zm3.544 10.114l-.79-2.178h-5.51l-.809 2.178h-3.121l4.97-12.85h3.43l4.95 12.85h-3.12zM682.27 312.824v-5.394h-6.068v5.394h-2.736v-12.85h2.736v5.047h6.069v-5.048h2.754v12.85zM701.392 306.408c0-2.408-1.54-4.22-3.911-4.22-2.37 0-3.891 1.812-3.891 4.22 0 2.388 1.521 4.22 3.89 4.22 2.372 0 3.912-1.832 3.912-4.22m-10.615 0c0-3.874 2.832-6.646 6.704-6.646 3.892 0 6.724 2.772 6.724 6.646 0 3.873-2.832 6.646-6.724 6.646-3.872 0-6.704-2.773-6.704-6.646M709.975 307.7v-7.727h2.774v7.629c0 1.792 1.04 3.025 3.025 3.025 1.984 0 3.005-1.233 3.005-3.025v-7.629h2.794v7.706c0 3.198-1.888 5.375-5.8 5.375-3.91 0-5.798-2.195-5.798-5.355M727.072 311.012l1.484-2.08a5.635 5.635 0 0 0 4.084 1.735c1.503 0 2.235-.696 2.235-1.426 0-2.274-7.399-.715-7.399-5.55 0-2.137 1.85-3.911 4.875-3.911 2.043 0 3.738.617 5.01 1.792l-1.523 2.004c-1.04-.963-2.428-1.406-3.737-1.406-1.176 0-1.831.52-1.831 1.29 0 2.041 7.38.674 7.38 5.472 0 2.349-1.677 4.123-5.145 4.123-2.466 0-4.238-.829-5.433-2.043M743.344 312.824v-12.85h9.094v2.407h-6.36v2.717h6.226v2.409h-6.225v2.909h6.36v2.408z" fill="#FF1628"/><path fill="#B5B6C7" d="M943.16 282.438V423.42H781.551V210.908l54.328 23.395z"/><path d="M784.302 420.67H940.41V284.22l-105.657-47.405-50.451-21.726V420.67zm161.61 5.502H778.8V206.727l58.167 25.05 108.944 48.88v145.515z" fill="#2D2926"/><path d="M802.824 234.601h-9.844a.329.329 0 0 1-.329-.328v-8.742c0-.181.147-.328.329-.328h9.844c.182 0 .329.147.329.328v8.742a.329.329 0 0 1-.329.328M788.382 234.601h-2.467a.329.329 0 0 1-.328-.328v-8.742c0-.181.147-.328.328-.328h2.467c.182 0 .329.147.329.328v8.742a.329.329 0 0 1-.329.328M821.361 234.601h-13.664a.329.329 0 0 1-.329-.328v-8.742c0-.181.147-.328.329-.328h13.664c.181 0 .329.147.329.328v8.742a.329.329 0 0 1-.329.328" fill="#AEAEC2"/><path fill="#878595" d="M356.233 303.47h176.733v-3.856H356.233zM540.258 156.512h237.448v-3.857H540.258z"/><path d="M797.624 246.974h-11.687a.329.329 0 0 1-.33-.328v-8.742c0-.181.148-.328.33-.328h11.687c.182 0 .329.147.329.328v8.742a.329.329 0 0 1-.329.328M803.37 246.974h-3.206a.329.329 0 0 1-.33-.328v-8.742c0-.181.148-.328.33-.328h3.207c.181 0 .328.147.328.328v8.742a.329.329 0 0 1-.328.328M811.636 246.974h-5.868a.33.33 0 0 1-.33-.328v-8.742a.33.33 0 0 1 .33-.328h5.868c.182 0 .329.147.329.328v8.742a.329.329 0 0 1-.329.328M817.927 246.974h-3.206a.329.329 0 0 1-.33-.328v-8.742c0-.181.147-.328.33-.328h3.206c.182 0 .329.147.329.328v8.742a.329.329 0 0 1-.329.328M826.193 246.974h-5.869a.33.33 0 0 1-.33-.328v-8.742a.33.33 0 0 1 .33-.328h5.869c.181 0 .328.147.328.328v8.742a.329.329 0 0 1-.328.328M801.332 319.645h-13.977a.329.329 0 0 1-.328-.328v-8.742c0-.181.147-.328.328-.328h13.977c.181 0 .328.147.328.328v8.742a.329.329 0 0 1-.328.328M812.638 319.645h-8.72a.329.329 0 0 1-.328-.328v-8.742c0-.181.147-.328.328-.328h8.72c.181 0 .329.147.329.328v8.742a.329.329 0 0 1-.33.328M797.366 308.094h-10.008a.33.33 0 0 1-.33-.329v-8.741a.33.33 0 0 1 .33-.329h10.008c.182 0 .329.147.329.329v8.741a.329.329 0 0 1-.329.329M812.594 308.094h-11.93a.329.329 0 0 1-.329-.329v-8.741c0-.182.147-.329.329-.329h11.93c.181 0 .328.147.328.329v8.741a.329.329 0 0 1-.328.329M824 308.094h-8.55a.329.329 0 0 1-.33-.329v-8.741c0-.182.148-.329.33-.329H824c.182 0 .33.147.33.329v8.741a.329.329 0 0 1-.33.329M827.12 298.695h19.555c.182 0 .329.148.329.329v8.741a.329.329 0 0 1-.329.329H827.12a.329.329 0 0 1-.329-.329v-8.741c0-.181.147-.329.329-.329M860.061 308.094h-10.008a.33.33 0 0 1-.33-.329v-8.741a.33.33 0 0 1 .33-.329h10.008c.182 0 .329.147.329.329v8.741a.329.329 0 0 1-.329.329M875.289 308.094h-11.93a.329.329 0 0 1-.328-.329v-8.741c0-.182.147-.329.328-.329h11.93c.182 0 .329.147.329.329v8.741a.329.329 0 0 1-.329.329M883.348 308.094h-5.203a.329.329 0 0 1-.329-.329v-8.741c0-.182.147-.329.329-.329h5.203c.181 0 .328.147.328.329v8.741a.329.329 0 0 1-.328.329M887.496 298.695h21.875c.181 0 .328.148.328.329v8.741a.329.329 0 0 1-.328.329h-21.875a.329.329 0 0 1-.328-.329v-8.741c0-.181.147-.329.328-.329M919.327 298.695h19.563c.181 0 .328.148.328.329v8.741a.329.329 0 0 1-.328.329h-19.563a.329.329 0 0 1-.328-.329v-8.741c0-.181.147-.329.328-.329M911.269 298.695h5.203c.181 0 .328.148.328.329v8.741a.329.329 0 0 1-.328.329h-5.203a.329.329 0 0 1-.329-.329v-8.741c0-.181.147-.329.329-.329M915.12 319.636h-3.814a.329.329 0 0 1-.329-.33v-8.74c0-.183.147-.33.329-.33h3.815c.181 0 .328.147.328.33v8.74c0 .183-.147.33-.328.33M907.674 319.636H893.57a.329.329 0 0 1-.329-.33v-8.74c0-.183.148-.33.329-.33h14.103c.181 0 .328.147.328.33v8.74c0 .183-.147.33-.328.33M853.518 319.604H835.15a.329.329 0 0 1-.328-.328v-8.652c0-.182.147-.329.328-.329h18.37c.18 0 .328.147.328.329v8.652a.329.329 0 0 1-.329.328M872.298 319.604h-15.324a.329.329 0 0 1-.328-.328v-8.652c0-.182.147-.329.328-.329h15.324c.182 0 .329.147.329.329v8.652a.329.329 0 0 1-.329.328M890.792 319.604h-5.765a.329.329 0 0 1-.329-.328v-8.652c0-.182.148-.329.329-.329h5.765c.182 0 .329.147.329.329v8.652a.329.329 0 0 1-.329.328M882.254 319.604h-7.585a.329.329 0 0 1-.328-.328v-8.652c0-.182.147-.329.328-.329h7.585c.181 0 .328.147.328.329v8.652a.329.329 0 0 1-.328.328M815.877 310.399h6.667c.182 0 .329.147.329.328v8.742a.329.329 0 0 1-.329.328h-6.667a.329.329 0 0 1-.328-.328v-8.742c0-.181.147-.328.328-.328M825.627 310.399h6.637c.181 0 .328.147.328.328v8.742a.329.329 0 0 1-.328.328h-6.637a.329.329 0 0 1-.328-.328v-8.742c0-.181.147-.328.328-.328M810.883 259.222h-19.21a.329.329 0 0 1-.329-.329v-8.741c0-.182.148-.329.33-.329h19.209c.181 0 .328.147.328.329v8.741a.329.329 0 0 1-.328.329M787.404 259.222h2.731c.182 0 .33-.147.33-.329v-8.741a.329.329 0 0 0-.33-.329h-2.73a.329.329 0 0 0-.33.329v8.741c0 .182.148.329.33.329M822.266 259.222h-8.72a.329.329 0 0 1-.328-.329v-8.741c0-.182.147-.329.328-.329h8.72c.181 0 .328.147.328.329v8.741a.329.329 0 0 1-.328.329M863.146 259.177h-18.369a.329.329 0 0 1-.329-.328v-8.652c0-.182.148-.329.329-.329h18.37c.18 0 .328.147.328.329v8.652a.329.329 0 0 1-.329.328M825.505 249.823h6.667c.181 0 .328.148.328.329v8.741a.329.329 0 0 1-.328.329h-6.667a.329.329 0 0 1-.329-.329v-8.741c0-.181.148-.329.329-.329M835.255 249.823h6.636c.182 0 .329.148.329.329v8.741a.329.329 0 0 1-.329.329h-6.636a.329.329 0 0 1-.328-.329v-8.741c0-.181.147-.329.328-.329M918.675 310.399h14.102c.182 0 .329.147.329.328v8.742a.329.329 0 0 1-.329.328h-14.102a.329.329 0 0 1-.329-.328v-8.742c0-.181.147-.328.329-.328M935.556 310.43h3.476v9.31h-3.476a.329.329 0 0 1-.329-.33v-8.651c0-.182.147-.329.329-.329M805.057 296.055H787.37a.329.329 0 0 1-.329-.329v-8.741c0-.182.147-.329.329-.329h17.687c.181 0 .328.147.328.329v8.741a.329.329 0 0 1-.328.329M812.679 296.055h-4.171a.329.329 0 0 1-.329-.329v-8.741c0-.182.147-.329.329-.329h4.17c.182 0 .33.147.33.329v8.741a.329.329 0 0 1-.33.329M915.12 296.14h-3.814a.329.329 0 0 1-.329-.329v-8.741c0-.182.147-.329.329-.329h3.815c.181 0 .328.147.328.329v8.741a.329.329 0 0 1-.328.329M907.674 296.14H893.57a.329.329 0 0 1-.329-.329v-8.741c0-.182.148-.329.329-.329h14.103c.181 0 .328.147.328.329v8.741a.329.329 0 0 1-.328.329M853.518 296.108H835.15a.328.328 0 0 1-.328-.329v-8.65c0-.183.147-.33.328-.33h18.37c.18 0 .328.147.328.33v8.65a.328.328 0 0 1-.329.329M872.298 296.108h-15.324a.328.328 0 0 1-.328-.329v-8.65c0-.183.147-.33.328-.33h15.324c.182 0 .329.147.329.33v8.65a.328.328 0 0 1-.329.329M890.792 296.108h-5.765a.328.328 0 0 1-.329-.329v-8.65c0-.183.148-.33.329-.33h5.765c.182 0 .329.147.329.33v8.65a.328.328 0 0 1-.329.329M882.254 296.108h-7.585a.328.328 0 0 1-.328-.329v-8.65c0-.183.147-.33.328-.33h7.585c.181 0 .328.147.328.33v8.65a.328.328 0 0 1-.328.329M815.877 286.903h6.667c.182 0 .329.147.329.33v8.74c0 .182-.147.33-.329.33h-6.667a.329.329 0 0 1-.328-.33v-8.74c0-.183.147-.33.328-.33M825.627 286.903h6.637c.181 0 .328.147.328.33v8.74c0 .182-.147.33-.328.33h-6.637a.329.329 0 0 1-.328-.33v-8.74c0-.183.147-.33.328-.33M918.675 286.903h14.102c.182 0 .329.147.329.33v8.74c0 .182-.147.33-.329.33h-14.102a.329.329 0 0 1-.329-.33v-8.74c0-.183.147-.33.329-.33M935.556 286.934h4.71v9.31h-4.71a.329.329 0 0 1-.329-.33v-8.65c0-.182.147-.33.329-.33M907.095 269.136h-8.423a.329.329 0 0 1-.329-.328v-8.742c0-.181.148-.328.329-.328h8.423c.182 0 .329.147.329.328v8.742a.329.329 0 0 1-.329.328M805.728 271.756h-18.37a.329.329 0 0 1-.328-.328v-8.742c0-.181.147-.328.329-.328h18.369c.181 0 .328.147.328.328v8.742a.329.329 0 0 1-.328.328M811.706 271.756h-3.77a.33.33 0 0 1-.33-.328v-8.742a.33.33 0 0 1 .33-.328h3.77c.182 0 .329.147.329.328v8.742a.329.329 0 0 1-.329.328M851.627 271.711h-18.369a.329.329 0 0 1-.329-.329v-8.651c0-.182.148-.329.329-.329h18.37c.18 0 .328.147.328.329v8.651a.329.329 0 0 1-.329.329M863.922 271.711h-8.84a.329.329 0 0 1-.328-.329v-8.651c0-.182.147-.329.329-.329h8.839c.181 0 .328.147.328.329v8.651a.329.329 0 0 1-.328.329M895.395 271.711h-12.259a.329.329 0 0 1-.329-.329v-8.651c0-.182.147-.329.329-.329h12.26c.18 0 .328.147.328.329v8.651a.329.329 0 0 1-.329.329M880.363 271.711h-13.667a.329.329 0 0 1-.329-.329v-8.651c0-.182.147-.329.329-.329h13.667c.181 0 .328.147.328.329v8.651a.329.329 0 0 1-.328.329M813.986 262.357h10.156a.33.33 0 0 1 .33.329v8.741a.33.33 0 0 1-.33.329h-10.156a.329.329 0 0 1-.328-.329v-8.741c0-.182.147-.329.328-.329M826.884 262.357h3.489c.182 0 .329.147.329.329v8.741a.329.329 0 0 1-.329.329h-3.49a.329.329 0 0 1-.328-.329v-8.741c0-.182.147-.329.329-.329M915.12 405.748h-3.814a.329.329 0 0 1-.329-.328v-8.742c0-.181.147-.328.329-.328h3.815c.181 0 .328.147.328.328v8.742a.329.329 0 0 1-.328.328M907.674 405.748H893.57a.329.329 0 0 1-.329-.328v-8.742c0-.181.148-.328.329-.328h14.103c.181 0 .328.147.328.328v8.742a.329.329 0 0 1-.328.328M853.518 405.704H835.15a.329.329 0 0 1-.328-.329v-8.652c0-.181.147-.328.328-.328h18.37c.18 0 .328.147.328.328v8.652a.329.329 0 0 1-.329.329M872.298 405.704h-15.324a.329.329 0 0 1-.328-.329v-8.652c0-.181.147-.328.328-.328h15.324c.182 0 .329.147.329.328v8.652a.329.329 0 0 1-.329.329M890.792 405.704h-5.765a.329.329 0 0 1-.329-.329v-8.652c0-.181.148-.328.329-.328h5.765c.182 0 .329.147.329.328v8.652a.329.329 0 0 1-.329.329M882.254 405.704h-7.585a.329.329 0 0 1-.328-.329v-8.652c0-.181.147-.328.328-.328h7.585c.181 0 .328.147.328.328v8.652a.329.329 0 0 1-.328.329M814.176 396.35h8.369c.181 0 .328.147.328.328v8.742a.329.329 0 0 1-.328.328h-8.37a.329.329 0 0 1-.328-.328v-8.742c0-.181.147-.328.329-.328M825.627 396.35h6.637c.181 0 .328.147.328.328v8.742a.329.329 0 0 1-.328.328h-6.637a.329.329 0 0 1-.328-.328v-8.742c0-.181.147-.328.328-.328M918.675 396.35h14.102c.182 0 .329.147.329.328v8.742a.329.329 0 0 1-.329.328h-14.102a.329.329 0 0 1-.329-.328v-8.742c0-.181.147-.328.329-.328M935.7 396.395l3.333-.003-.001 9.305-3.332.006a.473.473 0 0 1-.474-.472v-8.364c0-.26.213-.472.474-.472M786.91 396.35h1.486c.182 0 .329.147.329.328v8.742a.329.329 0 0 1-.329.328h-1.487a.329.329 0 0 1-.328-.328v-8.742c0-.181.147-.328.328-.328M790.979 396.35h5.844c.182 0 .329.147.329.328v8.742a.329.329 0 0 1-.329.328h-5.844a.329.329 0 0 1-.329-.328v-8.742c0-.181.147-.328.329-.328M799.438 396.35h12.18c.182 0 .33.147.33.328v8.742a.329.329 0 0 1-.33.328h-12.18a.329.329 0 0 1-.329-.328v-8.742c0-.181.147-.328.329-.328M801.702 371.968h4.643c.183 0 .33.147.33.33v8.74a.329.329 0 0 1-.33.328h-4.643a.329.329 0 0 1-.328-.328v-8.74c0-.183.147-.33.328-.33M786.946 371.968h11.864c.183 0 .33.147.33.33v8.74a.329.329 0 0 1-.33.328h-11.864a.329.329 0 0 1-.33-.328v-8.74c0-.183.148-.33.33-.33M808.94 371.968h4.14c.181 0 .328.147.328.33v8.74a.329.329 0 0 1-.328.328h-4.14a.329.329 0 0 1-.328-.328v-8.74c0-.183.147-.33.328-.33M786.909 408.556h2.166c.181 0 .329.147.329.33v8.74a.328.328 0 0 1-.329.328h-2.166a.328.328 0 0 1-.329-.328v-8.74c0-.183.147-.33.329-.33M790.96 408.556h14.555c.182 0 .329.147.329.33v8.74a.328.328 0 0 1-.329.328h-14.554a.328.328 0 0 1-.329-.328v-8.74c0-.183.147-.33.329-.33M809.033 408.556h2.328c.181 0 .328.147.328.33v8.74a.328.328 0 0 1-.328.328h-2.328a.328.328 0 0 1-.329-.328v-8.74c0-.183.148-.33.33-.33M911.258 408.556h18.39c.182 0 .33.147.33.33v8.74a.328.328 0 0 1-.33.328h-18.39a.328.328 0 0 1-.328-.328v-8.74c0-.183.147-.33.328-.33M903.63 408.556h4.84c.182 0 .329.147.329.33v8.74a.328.328 0 0 1-.329.328h-4.84a.328.328 0 0 1-.328-.328v-8.74c0-.183.147-.33.328-.33M932.784 408.556h6.214v9.398h-6.214a.328.328 0 0 1-.329-.328v-8.74c0-.183.147-.33.329-.33M893.345 417.954h-18.39a.328.328 0 0 1-.329-.328v-8.74c0-.183.147-.33.329-.33h18.39c.181 0 .329.147.329.33v8.74a.328.328 0 0 1-.329.328M900.973 417.954h-4.84a.328.328 0 0 1-.328-.328v-8.74c0-.183.147-.33.328-.33h4.84c.181 0 .329.147.329.33v8.74a.328.328 0 0 1-.329.328M861.943 417.954h-8.37a.328.328 0 0 1-.328-.328v-8.74c0-.183.147-.33.329-.33h8.369c.181 0 .328.147.328.33v8.74a.328.328 0 0 1-.328.328M871.82 417.954h-7.262a.328.328 0 0 1-.329-.328v-8.74c0-.183.147-.33.329-.33h7.262c.181 0 .328.147.328.33v8.74a.328.328 0 0 1-.328.328M850.491 417.954h-4.415a.328.328 0 0 1-.328-.328v-8.74c0-.183.147-.33.328-.33h4.415c.182 0 .329.147.329.33v8.74a.328.328 0 0 1-.329.328M826.268 408.556h15.612c.182 0 .329.147.329.33v8.74a.328.328 0 0 1-.329.328h-15.612a.328.328 0 0 1-.329-.328v-8.74c0-.183.147-.33.329-.33M814.018 408.556h9.634c.182 0 .329.147.329.33v8.74a.328.328 0 0 1-.329.328h-9.634a.328.328 0 0 1-.329-.328v-8.74c0-.183.147-.33.329-.33M846.957 334.335h2.327c.182 0 .329.146.329.329v8.74c0 .182-.147.33-.329.33h-2.327a.329.329 0 0 1-.329-.33v-8.74c0-.183.147-.329.329-.329M899.867 343.799h-8.37a.329.329 0 0 1-.328-.33v-8.74c0-.183.147-.329.329-.329h8.369c.181 0 .328.146.328.329v8.74c0 .183-.147.33-.328.33M787.143 335.268h7.686c.182 0 .329.147.329.33v8.74a.328.328 0 0 1-.329.328h-7.686a.328.328 0 0 1-.328-.328v-8.74c0-.183.147-.33.328-.33M798.462 335.268h14.102c.182 0 .329.147.329.33v8.74a.328.328 0 0 1-.329.328h-14.102a.328.328 0 0 1-.329-.328v-8.74c0-.183.147-.33.329-.33M815.323 335.235h2.327c.182 0 .329.147.329.33v8.74a.328.328 0 0 1-.329.329h-2.327a.328.328 0 0 1-.329-.329v-8.74c0-.183.147-.33.329-.33" fill="#AEAEC2"/><path d="M899.635 344.699h-18.39a.328.328 0 0 1-.33-.329v-8.74c0-.183.148-.33.33-.33h18.39c.181 0 .328.147.328.33v8.74a.328.328 0 0 1-.328.329M907.263 344.699h-4.84a.328.328 0 0 1-.329-.329v-8.74c0-.183.147-.33.329-.33h4.84c.181 0 .328.147.328.33v8.74a.328.328 0 0 1-.328.329M868.232 344.699h-8.369a.328.328 0 0 1-.328-.329v-8.74c0-.183.147-.33.328-.33h8.37c.18 0 .328.147.328.33v8.74a.328.328 0 0 1-.329.329M878.11 344.699h-7.263a.328.328 0 0 1-.328-.329v-8.74c0-.183.147-.33.328-.33h7.262c.182 0 .329.147.329.33v8.74a.328.328 0 0 1-.329.329M856.78 344.699h-4.414a.328.328 0 0 1-.329-.329v-8.74c0-.183.148-.33.329-.33h4.415c.181 0 .328.147.328.33v8.74a.328.328 0 0 1-.328.329M832.558 335.3h15.612c.182 0 .329.147.329.33v8.74a.328.328 0 0 1-.329.329h-15.612a.328.328 0 0 1-.329-.329v-8.74c0-.183.147-.33.329-.33M820.307 335.3h9.635c.181 0 .328.147.328.33v8.74a.328.328 0 0 1-.328.329h-9.635a.328.328 0 0 1-.328-.329v-8.74c0-.183.147-.33.328-.33M931.269 344.666h-18.39a.328.328 0 0 1-.33-.328v-8.74c0-.183.148-.33.33-.33h18.39c.181 0 .328.147.328.33v8.74a.328.328 0 0 1-.328.328M938.897 344.666h-4.84a.328.328 0 0 1-.328-.328v-8.74c0-.183.147-.33.328-.33h4.84c.181 0 .328.147.328.33v8.74a.328.328 0 0 1-.328.328" fill="#AEAEC2"/><path d="M909.744 344.666h-7.262a.328.328 0 0 1-.329-.328v-8.74c0-.183.147-.33.329-.33h7.262c.181 0 .328.147.328.33v8.74a.328.328 0 0 1-.328.328M888.415 343.799H884a.329.329 0 0 1-.329-.33v-8.74c0-.183.148-.329.329-.329h4.415c.181 0 .328.146.328.329v8.74c0 .183-.147.33-.328.33M864.192 334.4h15.612c.182 0 .329.146.329.329v8.74c0 .183-.147.33-.329.33h-15.612a.329.329 0 0 1-.329-.33v-8.74c0-.183.147-.329.329-.329M851.941 334.4h9.635c.181 0 .328.146.328.329v8.74c0 .183-.147.33-.328.33h-9.635a.329.329 0 0 1-.328-.33v-8.74c0-.183.147-.329.328-.329M903.733 393.016h-18.37a.328.328 0 0 1-.328-.328v-8.651c0-.182.147-.33.328-.33h18.37c.181 0 .328.148.328.33v8.65a.328.328 0 0 1-.328.33M818.654 381.391h-3.417a.328.328 0 0 1-.33-.328v-8.65c0-.183.148-.33.33-.33h3.417c.181 0 .329.147.329.33v8.65a.328.328 0 0 1-.329.328M826.635 381.391h-4.962a.328.328 0 0 1-.329-.328v-8.65c0-.183.147-.33.329-.33h4.962c.181 0 .328.147.328.33v8.65a.328.328 0 0 1-.328.328M839.954 381.391h-10.652a.328.328 0 0 1-.328-.328v-8.65c0-.183.147-.33.328-.33h10.652c.181 0 .329.147.329.33v8.65a.328.328 0 0 1-.329.328M861.774 381.391h-18.37a.328.328 0 0 1-.328-.328v-8.65c0-.183.147-.33.329-.33h18.369c.181 0 .329.147.329.33v8.65a.328.328 0 0 1-.33.328M866.974 381.391h-1.837a.328.328 0 0 1-.329-.328v-8.65c0-.183.147-.33.329-.33h1.837c.182 0 .329.147.329.33v8.65a.328.328 0 0 1-.329.328M883.6 381.391h-13.194a.328.328 0 0 1-.328-.328v-8.65c0-.183.147-.33.328-.33h13.195c.181 0 .328.147.328.33v8.65a.328.328 0 0 1-.328.328M895.031 381.391h-7.045a.328.328 0 0 1-.329-.328v-8.65c0-.183.147-.33.329-.33h7.045c.181 0 .329.147.329.33v8.65a.328.328 0 0 1-.329.328M832.988 383.812h16.925c.182 0 .33.146.33.328v8.74c0 .183-.148.33-.33.33h-16.925a.329.329 0 0 1-.329-.33v-8.74c0-.182.147-.328.329-.328M786.91 384.196h4.087a.33.33 0 0 1 .33.329v8.74a.33.33 0 0 1-.33.33h-4.088a.329.329 0 0 1-.328-.33v-8.74c0-.182.147-.329.328-.329M802.48 384.196h6.128c.182 0 .329.147.329.329v8.74c0 .183-.147.33-.329.33h-6.128a.329.329 0 0 1-.328-.33v-8.74c0-.182.147-.329.328-.329M793.493 384.196h6.277c.181 0 .328.147.328.329v8.74c0 .183-.147.33-.328.33h-6.277a.329.329 0 0 1-.328-.33v-8.74c0-.182.147-.329.328-.329M821.313 393.55h-9.844a.329.329 0 0 1-.329-.33v-8.65c0-.182.147-.329.329-.329h9.844c.182 0 .329.147.329.329v8.65c0 .183-.147.33-.329.33M922.512 393.55h-15.324a.329.329 0 0 1-.328-.33v-8.65c0-.182.147-.329.328-.329h15.324c.182 0 .329.147.329.329v8.65c0 .183-.147.33-.329.33M939.02 393.55h-3.78a.329.329 0 0 1-.328-.33v-8.65c0-.182.147-.329.329-.329h3.778v9.309zM932.468 393.55h-7.585a.329.329 0 0 1-.328-.33v-8.65c0-.182.147-.329.328-.329h7.585c.182 0 .329.147.329.329v8.65c0 .183-.147.33-.329.33M825.36 384.196h4.84c.18 0 .328.147.328.329v8.74c0 .183-.147.33-.329.33h-4.84a.329.329 0 0 1-.328-.33v-8.74c0-.182.147-.329.329-.329M864.39 383.812h8.369c.181 0 .328.146.328.328v8.74c0 .183-.147.33-.328.33h-8.37a.329.329 0 0 1-.328-.33v-8.74c0-.182.147-.328.329-.328M854.513 383.812h7.262c.181 0 .328.146.328.328v8.74c0 .183-.147.33-.328.33h-7.262a.329.329 0 0 1-.329-.33v-8.74c0-.182.147-.328.329-.328M875.841 383.812h4.415c.182 0 .329.146.329.328v8.74c0 .183-.147.33-.329.33h-4.415a.329.329 0 0 1-.328-.33v-8.74c0-.182.147-.328.328-.328" fill="#AEAEC2"/><path d="M905.099 381.391h-18.37a.328.328 0 0 1-.328-.328v-8.65c0-.183.147-.33.329-.33h18.369c.181 0 .328.147.328.33v8.65a.328.328 0 0 1-.328.328M910.3 381.391h-1.838a.328.328 0 0 1-.329-.328v-8.65c0-.183.147-.33.329-.33h1.837c.182 0 .329.147.329.33v8.65a.328.328 0 0 1-.329.328M926.926 381.391H913.73a.328.328 0 0 1-.328-.328v-8.65c0-.183.147-.33.328-.33h13.195c.181 0 .328.147.328.33v8.65a.328.328 0 0 1-.328.328M938.356 381.391h-7.045a.328.328 0 0 1-.329-.328v-8.65c0-.183.147-.33.329-.33h7.045c.181 0 .328.147.328.33v8.65a.328.328 0 0 1-.328.328M796.784 359.732h8.369c.181 0 .328.147.328.33v8.74a.328.328 0 0 1-.328.328h-8.369a.328.328 0 0 1-.329-.328v-8.74c0-.183.148-.33.329-.33M786.907 359.732h7.262c.181 0 .328.147.328.33v8.74a.328.328 0 0 1-.328.328h-7.262a.328.328 0 0 1-.329-.328v-8.74c0-.183.147-.33.329-.33M807.264 359.732h5.387c.181 0 .328.147.328.33v8.74a.328.328 0 0 1-.328.328h-5.387a.328.328 0 0 1-.329-.328v-8.74c0-.183.147-.33.329-.33M919.987 359.622h18.37c.18 0 .328.147.328.33v8.65c0 .183-.147.33-.329.33h-18.37a.329.329 0 0 1-.328-.33v-8.65c0-.183.147-.33.329-.33M914.787 359.622h1.837c.182 0 .329.147.329.33v8.65c0 .183-.147.33-.329.33h-1.837a.329.329 0 0 1-.329-.33v-8.65c0-.183.147-.33.329-.33M898.16 359.622h13.195c.181 0 .328.147.328.33v8.65c0 .183-.147.33-.328.33H898.16a.329.329 0 0 1-.328-.33v-8.65c0-.183.147-.33.328-.33M886.73 359.622h7.045c.181 0 .329.147.329.33v8.65c0 .183-.148.33-.329.33h-7.045a.329.329 0 0 1-.329-.33v-8.65c0-.183.147-.33.329-.33M848.982 359.794h18.37c.18 0 .328.148.328.329v8.65c0 .183-.147.33-.329.33h-18.369a.329.329 0 0 1-.328-.33v-8.65c0-.181.147-.329.328-.329M843.782 359.794h1.837c.182 0 .329.148.329.329v8.65c0 .183-.147.33-.329.33h-1.837a.329.329 0 0 1-.329-.33v-8.65c0-.181.147-.329.329-.329M827.155 359.794h13.195c.181 0 .328.148.328.329v8.65c0 .183-.147.33-.328.33h-13.195a.329.329 0 0 1-.328-.33v-8.65c0-.181.147-.329.328-.329M815.725 359.794h7.045c.182 0 .329.148.329.329v8.65c0 .183-.147.33-.329.33h-7.045a.329.329 0 0 1-.328-.33v-8.65c0-.181.147-.329.328-.329M834.934 332.19h-7.814a.329.329 0 0 1-.328-.33v-8.74c0-.183.147-.33.328-.33h7.814c.182 0 .329.147.329.33v8.74c0 .183-.147.33-.329.33M823.59 332.19h-12.18a.329.329 0 0 1-.33-.33v-8.74c0-.183.148-.33.33-.33h12.18c.182 0 .329.147.329.33v8.74c0 .183-.147.33-.329.33M807.98 332.19h-4.93a.329.329 0 0 1-.328-.33v-8.74c0-.183.147-.33.329-.33h4.929c.181 0 .329.147.329.33v8.74c0 .183-.148.33-.329.33M799.52 332.19h-12.18a.329.329 0 0 1-.328-.33v-8.74c0-.183.147-.33.328-.33h12.18c.182 0 .33.147.33.33v8.74c0 .183-.148.33-.33.33M885.824 332.19h-7.814a.329.329 0 0 1-.329-.33v-8.74c0-.183.147-.33.329-.33h7.814c.181 0 .328.147.328.33v8.74c0 .183-.147.33-.328.33M874.48 332.19H862.3a.329.329 0 0 1-.33-.33v-8.74c0-.183.148-.33.33-.33h12.18c.182 0 .329.147.329.33v8.74c0 .183-.147.33-.329.33M858.87 332.19h-4.93a.329.329 0 0 1-.328-.33v-8.74c0-.183.147-.33.328-.33h4.93c.181 0 .328.147.328.33v8.74c0 .183-.147.33-.328.33M850.41 332.19h-12.18a.329.329 0 0 1-.329-.33v-8.74c0-.183.147-.33.329-.33h12.18c.182 0 .33.147.33.33v8.74c0 .183-.148.33-.33.33M937.058 332.19h-7.814a.329.329 0 0 1-.329-.33v-8.74c0-.183.147-.33.329-.33h7.814c.181 0 .328.147.328.33v8.74c0 .183-.147.33-.328.33M925.714 332.19h-12.181a.329.329 0 0 1-.329-.33v-8.74c0-.183.147-.33.329-.33h12.18c.182 0 .33.147.33.33v8.74c0 .183-.148.33-.33.33M910.103 332.19h-4.93a.329.329 0 0 1-.328-.33v-8.74c0-.183.147-.33.329-.33h4.93c.18 0 .328.147.328.33v8.74c0 .183-.147.33-.329.33M901.644 332.19h-12.18a.329.329 0 0 1-.33-.33v-8.74c0-.183.148-.33.33-.33h12.18c.182 0 .329.147.329.33v8.74c0 .183-.147.33-.329.33M812.374 347.427h-10.64a.329.329 0 0 0-.33.329v8.741c0 .182.148.329.33.329h10.64a.329.329 0 0 0 .329-.329v-8.741a.329.329 0 0 0-.329-.329M798.548 347.427h-11.646a.329.329 0 0 0-.329.329v8.741c0 .182.147.329.329.329h11.646a.329.329 0 0 0 .328-.329v-8.741a.329.329 0 0 0-.328-.329M920.476 356.826h-9.17a.329.329 0 0 1-.33-.33v-8.74c0-.182.148-.329.33-.329h9.17c.181 0 .328.147.328.329v8.74a.329.329 0 0 1-.328.33M907.674 356.826H893.57a.329.329 0 0 1-.329-.33v-8.74c0-.182.148-.329.329-.329h14.103c.181 0 .328.147.328.329v8.74a.329.329 0 0 1-.328.33M853.518 356.78H835.15a.329.329 0 0 1-.328-.328v-8.651c0-.182.147-.33.328-.33h18.37c.18 0 .328.148.328.33v8.651a.329.329 0 0 1-.329.329M872.298 356.78h-15.324a.329.329 0 0 1-.328-.328v-8.651c0-.182.147-.33.328-.33h15.324c.182 0 .329.148.329.33v8.651a.329.329 0 0 1-.329.329M890.792 356.78h-5.765a.329.329 0 0 1-.329-.328v-8.651c0-.182.148-.33.329-.33h5.765c.182 0 .329.148.329.33v8.651a.329.329 0 0 1-.329.329M882.254 356.78h-7.585a.329.329 0 0 1-.328-.328v-8.651c0-.182.147-.33.328-.33h7.585c.181 0 .328.148.328.33v8.651a.329.329 0 0 1-.328.329M814.176 347.427h6.112c.182 0 .33.147.33.329v8.741a.329.329 0 0 1-.33.329h-6.112a.329.329 0 0 1-.329-.329v-8.741c0-.182.147-.329.329-.329M823.351 347.427h8.913a.33.33 0 0 1 .33.329v8.741a.33.33 0 0 1-.33.329h-8.913a.329.329 0 0 1-.328-.329v-8.741c0-.182.147-.329.328-.329M923.987 347.427h14.935a.33.33 0 0 1 .33.329v8.741a.33.33 0 0 1-.33.329h-14.935a.329.329 0 0 1-.329-.329v-8.741c0-.182.147-.329.329-.329M811.701 283.982h-7.117a.329.329 0 0 1-.33-.328v-8.742c0-.181.147-.328.33-.328h7.117c.182 0 .329.147.329.328v8.742a.329.329 0 0 1-.329.328M801.628 283.982h-14.267a.33.33 0 0 1-.328-.328v-8.742a.33.33 0 0 1 .328-.328h14.267c.181 0 .329.147.329.328v8.742a.329.329 0 0 1-.329.328M920.476 283.982h-9.17a.329.329 0 0 1-.33-.328v-8.742c0-.181.148-.328.33-.328h9.17c.181 0 .328.147.328.328v8.742a.329.329 0 0 1-.328.328M907.674 283.982H893.57a.329.329 0 0 1-.329-.328v-8.742c0-.181.148-.328.329-.328h14.103c.181 0 .328.147.328.328v8.742a.329.329 0 0 1-.328.328M853.518 283.938H835.15a.329.329 0 0 1-.328-.329v-8.652c0-.181.147-.328.328-.328h18.37c.18 0 .328.147.328.328v8.652a.329.329 0 0 1-.329.329M872.298 283.938h-15.324a.329.329 0 0 1-.328-.329v-8.652c0-.181.147-.328.328-.328h15.324c.182 0 .329.147.329.328v8.652a.329.329 0 0 1-.329.329M890.792 283.938h-5.765a.329.329 0 0 1-.329-.329v-8.652c0-.181.148-.328.329-.328h5.765c.182 0 .329.147.329.328v8.652a.329.329 0 0 1-.329.329M882.254 283.938h-7.585a.329.329 0 0 1-.328-.329v-8.652c0-.181.147-.328.328-.328h7.585c.181 0 .328.147.328.328v8.652a.329.329 0 0 1-.328.329M814.176 274.584h6.112c.182 0 .33.147.33.328v8.742a.329.329 0 0 1-.33.328h-6.112a.329.329 0 0 1-.329-.328v-8.742c0-.181.147-.328.329-.328M823.351 274.584h8.913a.33.33 0 0 1 .33.328v8.742a.33.33 0 0 1-.33.328h-8.913a.329.329 0 0 1-.328-.328v-8.742c0-.181.147-.328.328-.328" fill="#AEAEC2"/><path d="M784.044 211.488l174.021 76.392" fill="#B5B6C7"/><path d="M958.063 293.383c-.738 0-1.489-.149-2.209-.465l-174.021-76.392a5.502 5.502 0 0 1 4.422-10.076l174.022 76.392a5.503 5.503 0 0 1-2.214 10.541" fill="#2D2926"/><path fill="#878595" d="M784.302 224.171v-6.537l156.104 68.524.004 6.16z"/><path fill="#FFF" d="M829.505 389.549h71.558v-55.44h-71.558z"/><path d="M832.256 386.798h66.057V336.86h-66.057v49.938zm-5.501 5.502h77.06v-60.942h-77.06V392.3z" fill="#2D2926"/><path fill="#2D2926" d="M830.63 350.2h68.338v-3.498H830.63z"/><path fill="#FFF" d="M831.605 346.7h67.353v-10.486h-67.353z"/><path fill="#FF1628" d="M830.712 386.05h12.1V350.2h-12.1zM884.352 386.05h13.956V350.2h-13.956z"/><path fill-opacity=".7" fill="#FF1628" d="M846.336 386.05h36.298v-35.843h-36.298z"/><path d="M856.806 365.242l-.464.463a.721.721 0 0 1-1.02 0l-6.89-6.89a.72.72 0 0 1 0-1.019l.465-.464a.721.721 0 0 1 1.02 0l6.89 6.89a.721.721 0 0 1 0 1.02M860.118 361.93l-.464.463a.721.721 0 0 1-1.02 0l-9.86-9.858a.721.721 0 0 1 0-1.02l.465-.465a.721.721 0 0 1 1.02 0l9.859 9.86a.721.721 0 0 1 0 1.02" fill="#FFF"/><path d="M906.477 393.572H824.09a3.76 3.76 0 0 1-3.76-3.76v-.001a3.76 3.76 0 0 1 3.76-3.76h82.386a3.76 3.76 0 0 1 0 7.52" fill="#2D2926"/><path fill="#2D2926" d="M880.85 388.673h3.497v-52.64h-3.497zM842.811 388.673h3.498v-52.64h-3.498z"/><path fill="#8A8A97" d="M831.535 398.054h67.497v-4.46h-67.497z"/><path d="M524.378 36.524h-6.807a2.752 2.752 0 1 1 0-5.502h6.807a2.75 2.75 0 1 1 0 5.502M506.776 36.524H493.69a2.752 2.752 0 0 1 0-5.502h13.085a2.75 2.75 0 1 1 0 5.502" fill="#2D2926"/><path d="M489.756 20.057c-4.387-3.36-10.174-2.32-13.123-1.452a2.075 2.075 0 0 1-2.522-1.27c-1.634-4.314-6.977-14.313-21.338-14.005-14.068.302-20.1 13.024-22.137 18.887-.444 1.279-1.968 1.787-3.106 1.052-2.159-1.393-5.761-2.817-10.303-1.252-7.579 2.614-8.428 11.926-8.428 11.926h86.185s.915-9.18-5.228-13.886" fill="#D2D2DD"/><path d="M412.406 31.077h79.963c-.205-2.585-1.047-6.584-4.136-8.95-3.396-2.601-8.147-1.742-10.676-.997-2.396.705-4.977-.58-5.87-2.934-1.743-4.604-6.404-12.237-18.118-12.237-.194 0-.389.001-.588.007-11.991.257-17.426 10.785-19.598 17.038a4.793 4.793 0 0 1-2.982 2.976 4.83 4.83 0 0 1-4.213-.513c-2.473-1.595-5.135-1.921-7.915-.963-3.376 1.162-5.054 4.222-5.867 6.573zm85.217 5.502h-91.69l.275-3c.04-.453 1.116-11.12 10.271-14.276 4.07-1.405 8.296-1.005 11.989 1.114 2.4-6.473 9.15-19.625 24.395-19.953.242-.005.482-.006.72-.006 14.985 0 20.982 10.19 23.027 15.224 3.658-.98 9.934-1.778 14.969 2.077 7.273 5.572 6.334 15.905 6.291 16.342l-.247 2.478z" fill="#2D2926"/><path d="M992.564 79.425h-16.449a2.75 2.75 0 0 1 0-5.501h16.45a2.752 2.752 0 0 1 0 5.501M831.654 79.425h-16.45a2.75 2.75 0 0 1 0-5.501h16.45a2.752 2.752 0 0 1 0 5.501M966.735 79.425H950.99a2.752 2.752 0 0 1 0-5.501h15.745a2.75 2.75 0 0 1 0 5.501" fill="#2A2421"/><path d="M946.233 59.966c-5.279-4.043-12.244-2.792-15.792-1.747-1.253.37-2.572-.306-3.034-1.529-1.967-5.192-8.396-17.223-25.677-16.853-16.928.363-24.187 15.672-26.638 22.728-.534 1.538-2.369 2.15-3.738 1.266-2.598-1.676-6.933-3.39-12.397-1.506-9.12 3.145-10.143 14.349-10.143 14.349h103.709s1.101-11.047-6.29-16.708" fill="#D2D2DD"/><path d="M852.193 73.924h97.601c-.17-3.165-1.1-8.609-5.234-11.774-4.286-3.283-10.199-2.218-13.341-1.292-2.612.768-5.415-.633-6.385-3.192-1.759-4.646-7.572-15.455-23.044-15.078-15.32.327-21.957 14.71-24.099 20.879a5.208 5.208 0 0 1-3.244 3.234 5.245 5.245 0 0 1-4.585-.56c-2.15-1.387-5.63-2.723-10.01-1.216-4.682 1.616-6.763 6.003-7.66 8.999zm102.82 5.501H845.801l.273-3c.049-.53 1.307-13.018 11.986-16.701 6.302-2.173 11.347-.35 14.54 1.639 2.629-7.41 10.554-23.88 29.072-24.277.284-.006.57-.008.849-.008 18.176 0 25.152 12.68 27.38 18.434 4.201-1.2 11.903-2.403 18.005 2.27 8.51 6.518 7.406 18.652 7.355 19.166l-.248 2.477z" fill="#2A2421"/><path d="M734.184 451.395h-15.989a2.75 2.75 0 1 1 0-5.501h15.99a2.75 2.75 0 0 1 0 5.501M836.31 451.224h-90.432a2.75 2.75 0 0 1 0-5.503h90.432a2.752 2.752 0 0 1 0 5.503" fill="#2D2926"/><path d="M794.35 418.73c0 9.999 8.106 18.105 18.106 18.105 10 0 18.106-8.106 18.106-18.106 0-10-8.106-18.106-18.106-18.106-10 0-18.106 8.106-18.106 18.106" fill="#FFF"/><path d="M812.456 402.687c-8.846 0-16.043 7.196-16.043 16.043 0 8.846 7.197 16.043 16.043 16.043 8.845 0 16.042-7.197 16.042-16.043 0-8.847-7.197-16.043-16.042-16.043m0 36.211c-11.122 0-20.169-9.048-20.169-20.168 0-11.122 9.047-20.17 20.169-20.17 11.121 0 20.168 9.048 20.168 20.17 0 11.12-9.047 20.168-20.168 20.168" fill="#2D2926"/><path d="M753.642 418.73c0 9.999 8.106 18.105 18.105 18.105 10 0 18.106-8.106 18.106-18.106 0-10-8.106-18.106-18.106-18.106-10 0-18.105 8.106-18.105 18.106" fill="#FFF"/><path d="M771.747 402.687c-8.845 0-16.042 7.196-16.042 16.043 0 8.846 7.197 16.043 16.042 16.043 8.846 0 16.043-7.197 16.043-16.043 0-8.847-7.197-16.043-16.043-16.043m0 36.211c-11.121 0-20.168-9.048-20.168-20.168 0-11.122 9.047-20.17 20.168-20.17 11.122 0 20.169 9.048 20.169 20.17 0 11.12-9.047 20.168-20.169 20.168M812.714 449.676c-.76 0-1.376-.616-1.376-1.375v-24.413a1.375 1.375 0 1 1 2.751 0V448.3c0 .76-.616 1.375-1.375 1.375" fill="#2D2926"/><path d="M819.59 424.23h-14.27a1.375 1.375 0 1 1 0-2.75h14.27a1.376 1.376 0 0 1 0 2.75M772.005 449.676c-.76 0-1.375-.616-1.375-1.375v-24.413a1.375 1.375 0 1 1 2.75 0V448.3c0 .76-.615 1.375-1.375 1.375" fill="#2D2926"/><path d="M778.882 424.23h-14.27a1.375 1.375 0 1 1 0-2.75h14.27a1.376 1.376 0 0 1 0 2.75" fill="#2D2926"/><path d="M1190.32 364.25v-50.04" fill="#FFF"/><path fill="#2A2421" d="M1189.633 364.25h1.376v-50.04h-1.376z"/><path fill="#FFF" d="M1161.572 386.863h-49.3l-28.885-53.646h49.3z"/><path d="M1113.094 385.488h46.176l-27.405-50.896h-46.176l27.405 50.896zm50.782 2.75h-52.425l-30.368-56.397h52.425l30.368 56.398z" fill="#2D2926"/><path fill="#FFF" d="M1221.787 386.261h-74.42l7.964-73.608h58.492z"/><path d="M1148.9 384.886h71.354l-7.666-70.86h-56.022l-7.666 70.86zm74.42 2.751h-77.485l8.263-76.36h60.96l8.262 76.36z" fill="#2D2926"/><path fill-opacity=".7" fill="#F00" d="M1191.732 314.261h20.833l5.642 46.683-26.833 3.671zM1156.54 314.262h33.818l-.013 49.838-39.796 5.56z"/><path fill="#2D2926" d="M1120.115 385.267l-26.524-51.42 2.446-1.26 26.522 51.421zM1146.277 385.267l-26.524-51.42 2.445-1.26 26.523 51.421z"/><path d="M1235.428 386.38h-93.101v-14.184l88.172-12.31a4.33 4.33 0 0 1 4.929 4.289v22.205z" fill="#FFF"/><path d="M1143.702 385.004h90.35v-20.83a2.954 2.954 0 0 0-3.363-2.926l-86.987 12.144v11.612zm93.102 2.75h-95.852V371l89.357-12.475a5.688 5.688 0 0 1 4.534 1.346 5.7 5.7 0 0 1 1.96 4.304v23.58z" fill="#2D2926"/><path d="M1246.895 417.915h-151.88c-5.89 0-10.666-4.776-10.666-10.666v-10.905c0-5.89 4.775-10.666 10.666-10.666h151.88c5.89 0 10.666 4.776 10.666 10.666v10.905c0 5.89-4.776 10.666-10.666 10.666" fill-opacity=".7" fill="#FF1628"/><path d="M1099.707 388.429c-6.951 0-12.608 5.656-12.608 12.609v1.518c0 6.953 5.657 12.608 12.608 12.608h142.495c6.953 0 12.608-5.655 12.608-12.608v-1.518c0-6.953-5.655-12.609-12.608-12.609h-142.495zm142.495 32.238h-142.495c-9.986 0-18.11-8.124-18.11-18.11v-1.52c0-9.986 8.124-18.11 18.11-18.11h142.495c9.986 0 18.11 8.124 18.11 18.11v1.52c0 9.986-8.124 18.11-18.11 18.11z" fill="#2D2926"/><path fill="#2D2926" d="M1082.316 404.321l-3.97 2.888v-10.826l3.97 2.89zM1259.126 399.272l3.97-2.888v10.826l-3.97-2.889zM1086.084 390.288l-4.822-.926 7.907-7.394.602 4.872zM1101.098 384.178l-2.892-3.966 10.826-.009-2.885 3.972zM1118.178 384.178l-2.892-3.966 10.827-.009-2.886 3.972zM1135.74 384.178l-2.892-3.966 10.827-.009-2.886 3.972zM1154.385 384.178l-2.893-3.966 10.827-.009-2.886 3.972zM1172.307 384.178l-2.892-3.966 10.826-.009-2.885 3.972zM1188.185 384.178l-2.892-3.966 10.826-.009-2.885 3.972zM1204.303 384.178l-2.892-3.966 10.827-.009-2.886 3.972zM1222.827 384.178l-2.892-3.966 10.827-.009-2.886 3.972zM1239.884 384.75l-2.844-4.002 10.825.121-2.933 3.938zM1252.26 387.253l1.04-4.798 7.206 8.079-4.886.486zM1255.359 413.353l4.821.926-7.907 7.394-.601-4.872zM1240.344 419.463l2.892 3.966-10.826.009 2.886-3.972zM1223.264 419.463l2.892 3.966-10.827.009 2.886-3.972zM1205.702 419.463l2.891 3.966-10.825.009 2.885-3.972zM1187.058 419.463l2.891 3.966-10.825.009 2.885-3.972zM1169.135 419.463l2.892 3.966-10.826.009 2.885-3.972zM1153.257 419.463l2.892 3.966-10.826.009 2.885-3.972zM1137.14 419.463l2.891 3.966-10.826.009 2.885-3.972zM1118.615 419.463l2.891 3.966-10.825.009 2.885-3.972zM1101.558 418.89l2.844 4.003-10.825-.123 2.933-3.936zM1089.182 416.388l-1.039 4.798-7.207-8.08 4.886-.485zM1127.657 402.816h-27.617a.717.717 0 0 1-.716-.717v-.732c0-.396.32-.717.716-.717h27.617c.396 0 .717.321.717.717v.732c0 .396-.321.717-.717.717M1151.738 402.816h-17.505a.716.716 0 0 1-.717-.717v-.732c0-.396.32-.717.717-.717h17.505c.396 0 .717.321.717.717v.732c0 .396-.321.717-.717.717M1219.814 402.816h-7.396a.717.717 0 0 1-.717-.717v-.732c0-.396.321-.717.717-.717h7.396c.396 0 .717.321.717.717v.732c0 .396-.321.717-.717.717M1224.194 402.847a.716.716 0 0 1-.705-.726v-.744c0-.4.316-.727.705-.727h18.648c.39 0 .705.326.705.727v.744a.716.716 0 0 1-.705.726h-18.648zM1201.011 402.816h-43.504a.717.717 0 0 1-.716-.717v-.732c0-.396.321-.717.716-.717h43.504c.396 0 .716.321.716.717v.732c0 .396-.32.717-.716.717"/><path fill="#2D2926" d="M1195.888 386.622h1.376V364.37h-1.376z"/><path d="M1216.53 312.887h-67.273a4.855 4.855 0 0 1-4.855-4.855v-4.964a4.854 4.854 0 0 1 4.855-4.855h67.272a4.854 4.854 0 0 1 4.855 4.855v4.964a4.855 4.855 0 0 1-4.855 4.855" fill="#FFF"/><path d="M1151.393 299.587a5.623 5.623 0 0 0-5.616 5.617v.692a5.622 5.622 0 0 0 5.616 5.615h63a5.622 5.622 0 0 0 5.617-5.615v-.692a5.623 5.623 0 0 0-5.617-5.617h-63zm63 14.675h-63c-4.614 0-8.367-3.752-8.367-8.366v-.692c0-4.613 3.753-8.368 8.367-8.368h63c4.614 0 8.367 3.755 8.367 8.368v.692c0 4.614-3.753 8.366-8.367 8.366z" fill="#2D2926"/><path fill="#2D2926" d="M1190.355 364.429h1.376v-51.602h-1.376z"/><path fill="#FFF" d="M1156.541 314.261l6.785.006-6.234 54.472-6.54.915z"/><path d="M1133.773 333.035h-54.102a4.496 4.496 0 0 1-4.497-4.497v-4.598a4.497 4.497 0 0 1 4.497-4.497h54.102a4.497 4.497 0 0 1 4.497 4.497v4.598a4.496 4.496 0 0 1-4.497 4.497" fill-opacity=".7" fill="#FF1628"/><path d="M1081.65 320.818a5.106 5.106 0 0 0-5.1 5.1v.642c0 2.812 2.288 5.1 5.1 5.1h50.144c2.812 0 5.1-2.288 5.1-5.1v-.641c0-2.813-2.288-5.1-5.1-5.1h-50.144zm50.144 13.591h-50.144c-4.328 0-7.85-3.52-7.85-7.85v-.64c0-4.329 3.522-7.851 7.85-7.851h50.144c4.329 0 7.851 3.522 7.851 7.85v.642c0 4.328-3.522 7.85-7.85 7.85z" fill="#2D2926"/><path fill="#2D2926" d="M1080.194 319.316l-63.24-149.937 2.535-1.068 63.24 149.935zM1121.4 319.454l-88.276-157.56 2.401-1.345 88.275 157.56z"/><path d="M1008.702 155.854c0 7.233 5.865 13.098 13.098 13.098 7.234 0 13.099-5.865 13.099-13.098 0-7.234-5.865-13.098-13.1-13.098-7.232 0-13.097 5.864-13.097 13.098" fill="#FF1628"/><path d="M1021.8 144.13c-6.464 0-11.723 5.26-11.723 11.724 0 6.463 5.26 11.721 11.723 11.721 6.465 0 11.723-5.258 11.723-11.721 0-6.464-5.258-11.723-11.723-11.723m0 26.195c-7.98 0-14.474-6.493-14.474-14.472 0-7.981 6.493-14.474 14.474-14.474 7.98 0 14.474 6.493 14.474 14.474 0 7.98-6.493 14.472-14.474 14.472" fill="#2D2926"/><path d="M1015.136 155.854a6.664 6.664 0 1 0 13.33 0 6.664 6.664 0 0 0-13.33 0" fill="#FFF"/><path d="M1021.8 150.566a5.294 5.294 0 0 0-5.288 5.288 5.295 5.295 0 0 0 5.288 5.288 5.294 5.294 0 0 0 5.288-5.288 5.293 5.293 0 0 0-5.288-5.288m0 13.327c-4.432 0-8.039-3.606-8.039-8.04 0-4.431 3.607-8.038 8.04-8.038 4.432 0 8.038 3.607 8.038 8.039 0 4.433-3.606 8.04-8.039 8.04M1030.834 170.186l7.585 15.652 1.383-10.653-8.968-5zm7.149 40.372l11.273 3.954-9.296-19.184-1.977 15.23zm16.657 8.758l8.906 18.38 3.526-14.02-12.432-4.36zm9.73 26.387l-4.553 18.109a.271.271 0 0 0 .166.319l16.355 6.269-11.968-24.697zm17.474 29.754l13.07 26.972 4.892-20.085-17.962-6.887zm18.227 43.924l-4.296-8.866-2.151 8.832-2.673-.65 2.94-12.07-15.8-32.608-19.092-7.32a3.022 3.022 0 0 1-1.85-3.558l5.353-21.292-11.544-23.825-15.99-5.61 2.805-21.6-10.94-22.578a1.64 1.64 0 0 1 .35-1.915 1.633 1.633 0 0 1 1.933-.242l13.654 7.612-2.163 16.662 12.332 25.45 15.362 5.389a2.368 2.368 0 0 1 1.52 2.826l-4.406 17.53 14.676 30.292 20.964 8.036a2.431 2.431 0 0 1 1.49 2.843l-5.747 23.599 5.749 11.862-2.476 1.201z" fill="#2D2926"/><path d="M1118.194 313.384l-42.598-10.064a2.708 2.708 0 0 1-2.067-3.014l7.088-51.67a.326.326 0 0 0-.239-.36l-32.081-8.465a2.63 2.63 0 0 1-1.906-2.992l6.824-37.755-29.579-13.467 3.079-18.191 2.711.46-2.725 16.103 29.6 13.477-7.18 39.738 31.959 8.433a3.079 3.079 0 0 1 2.262 3.391l-7.087 51.671 42.571 10.026-.632 2.68zM1008.637 219.741l-.722-60.203 2.75-.031.723 60.202z" fill="#2D2926"/><path d="M1005.682 223.334a4.33 4.33 0 1 0 8.661 0 4.33 4.33 0 0 0-8.661 0" fill="#FFF"/><path d="M1010.012 220.38a2.959 2.959 0 0 0-2.955 2.955 2.959 2.959 0 0 0 2.955 2.955 2.959 2.959 0 0 0 2.955-2.955 2.959 2.959 0 0 0-2.955-2.956m0 8.662a5.713 5.713 0 0 1-5.706-5.706 5.713 5.713 0 0 1 5.706-5.706 5.713 5.713 0 0 1 5.706 5.706 5.713 5.713 0 0 1-5.706 5.706" fill="#2D2926"/><path fill="#2D2926" d="M1026.365 238.19l-13.682-10.705 1.695-2.166 13.682 10.706zM994.158 238.19l-1.695-2.165 13.682-10.706 1.695 2.166z"/><path d="M1036.978 302.903H985.21a2.866 2.866 0 0 1-2.865-2.865v-59.946a2.866 2.866 0 0 1 2.865-2.865h51.767a2.866 2.866 0 0 1 2.865 2.865v59.946a2.865 2.865 0 0 1-2.865 2.865" fill="#FFF"/><path d="M986.472 238.602a2.754 2.754 0 0 0-2.75 2.75v57.426a2.755 2.755 0 0 0 2.75 2.75h49.245a2.755 2.755 0 0 0 2.751-2.75v-57.425a2.754 2.754 0 0 0-2.751-2.751h-49.245zm49.245 65.677h-49.245a5.507 5.507 0 0 1-5.501-5.501v-57.425a5.508 5.508 0 0 1 5.501-5.502h49.245a5.508 5.508 0 0 1 5.501 5.502v57.425a5.507 5.507 0 0 1-5.501 5.501z" fill="#2D2926"/><path d="M1036.978 302.903H985.21a2.866 2.866 0 0 1-2.865-2.865v-6.483h57.497v6.483a2.865 2.865 0 0 1-2.865 2.865" fill-opacity=".7" fill="#FF1628"/><path d="M983.722 294.93v3.847a2.755 2.755 0 0 0 2.75 2.751h49.245a2.754 2.754 0 0 0 2.75-2.75v-3.848h-54.745zm51.995 9.349h-49.244a5.507 5.507 0 0 1-5.502-5.502v-6.598h60.247v6.598a5.507 5.507 0 0 1-5.501 5.502zM993.147 285.04h-.732a.717.717 0 0 1-.717-.715V249.67c0-.395.321-.716.717-.716h.732c.396 0 .717.32.717.716v34.654c0 .395-.321.716-.717.716M1000.1 273.328l-.553-.48a.718.718 0 0 1-.073-1.011l9.456-10.904a.716.716 0 0 1 1.01-.073l.554.48a.716.716 0 0 1 .071 1.011l-9.455 10.904a.717.717 0 0 1-1.01.073M1016.209 269.058l-.545-.49a.717.717 0 0 1-.052-1.011l13.527-15.016a.716.716 0 0 1 1.012-.053l.544.49a.717.717 0 0 1 .053 1.012l-13.528 15.016a.716.716 0 0 1-1.011.052" fill="#2D2926"/><path d="M1017.69 268.445l-.477.556a.718.718 0 0 1-1.01.079l-7.668-6.575a.716.716 0 0 1-.077-1.01l.476-.555a.716.716 0 0 1 1.01-.078l7.669 6.573c.3.258.335.71.077 1.01M991.72 283.965c0-.598.485-1.083 1.083-1.083h39.698a1.082 1.082 0 1 1 0 2.166h-39.698a1.083 1.083 0 0 1-1.082-1.083" fill="#2D2926"/><path d="M419.887 257.047h-72.273a4.776 4.776 0 0 1-4.776-4.776v-39.274a4.776 4.776 0 0 1 4.776-4.776h72.273a4.776 4.776 0 0 1 4.776 4.776v39.274a4.776 4.776 0 0 1-4.776 4.776" fill="#FFF"/><path d="M349.716 209.597a5.507 5.507 0 0 0-5.502 5.501v35.072c0 3.034 2.468 5.5 5.502 5.5h68.07a5.507 5.507 0 0 0 5.501-5.5v-35.072a5.507 5.507 0 0 0-5.501-5.501h-68.07zm68.07 48.825h-68.07c-4.55 0-8.253-3.702-8.253-8.252v-35.072c0-4.55 3.702-8.252 8.253-8.252h68.07c4.55 0 8.252 3.702 8.252 8.252v35.072c0 4.55-3.701 8.252-8.252 8.252zM143.78 418.78h93.615v-24.343a5.507 5.507 0 0 0-5.5-5.501H149.28a5.507 5.507 0 0 0-5.502 5.501v24.344zm96.367 2.751H141.03v-27.094c0-4.55 3.702-8.252 8.252-8.252h82.614c4.55 0 8.252 3.702 8.252 8.252v27.094z" fill="#2D2926"/><path d="M163.344 418.895l-19.682-.01v-25.032a5.039 5.039 0 0 1 5.04-5.039h14.64l.002 30.081z" fill-opacity=".7" fill="#FF1628"/><path fill="#FF1628" d="M163.268 418.895h54.544v-30.112h-54.544z"/><path d="M217.827 418.895l19.683-.01v-25.032a5.039 5.039 0 0 0-5.04-5.039H217.83l-.002 30.081zM222.395 387.403H158.36v-7.747a1.91 1.91 0 0 1 1.91-1.91h60.214a1.91 1.91 0 0 1 1.91 1.91v7.747z" fill-opacity=".7" fill="#FF1628"/><path d="M159.735 386.028h61.284v-5.531c0-.76-.617-1.376-1.375-1.376H161.11c-.759 0-1.376.617-1.376 1.376v5.531zm64.035 2.75h-66.785v-8.281a4.13 4.13 0 0 1 4.126-4.126h58.533a4.13 4.13 0 0 1 4.126 4.126v8.282zM106.406 417.656h7.799v-14.412h-7.799v14.412zm10.55 2.75h-13.3v-17.162a2.754 2.754 0 0 1 2.75-2.751h7.799a2.753 2.753 0 0 1 2.75 2.75v17.164z" fill="#2D2926"/><path fill="#2D2926" d="M107.157 401.79h6.298v-4.251h-6.298z"/><path fill="#2D2926" d="M108.889 398.877h2.833V358.88h-2.833z"/><path fill="#2A2421" d="M108.904 358.515h2.834v-5.963h-2.834z"/><path fill="#2D2926" d="M108.889 331.948h2.833v-5.963h-2.833zM105.582 358.884h9.447v-2.525h-9.447z"/><path d="M101.732 339.758h17.148c-.661-4.137-4.255-7.307-8.574-7.307-4.32 0-7.913 3.17-8.574 7.307zm20.007 2.75H98.872v-1.376c0-6.303 5.13-11.432 11.434-11.432 6.304 0 11.433 5.129 11.433 11.432v1.377z" fill="#2D2926"/><path d="M110.279 350.773h.053l3.253-2.336a2.056 2.056 0 0 0 .857-1.669v-4.266h-8.272v4.266c0 .661.32 1.284.854 1.669l3.255 2.336zm.938 2.75h-1.824l-3.972-2.851a4.815 4.815 0 0 1-2.002-3.904v-7.016h13.774v7.016a4.812 4.812 0 0 1-2.004 3.904l-3.972 2.852zM165.718 376.16h49.317v-21.366h-49.317v21.367zm-2.75 2.752h54.819v-26.868h-54.819v26.868z" fill="#2D2926"/><path fill="#2D2926" d="M183.529 378.297l-1.945-1.944 24.171-24.171 1.945 1.946z"/><path fill="#2D2926" d="M196.932 378.297l-24.17-24.17 1.944-1.945 24.17 24.17z"/><path d="M156.218 343.64v8.113h67.165l-.001-8.114h-67.164zm67.164 10.864h-67.164a2.755 2.755 0 0 1-2.75-2.75v-8.115a2.755 2.755 0 0 1 2.75-2.752h67.164a2.754 2.754 0 0 1 2.75 2.752v8.114a2.754 2.754 0 0 1-2.75 2.75z" fill="#2D2926"/><path fill-opacity=".7" fill="#FF1628" d="M156.22 351.756h10.098v-8.118H156.22zM213.254 351.754l10.128-.001v-8.116h-10.128z"/><path fill="#FF1628" d="M166.311 351.753h46.984v-8.117H166.31z"/><path d="M156.114 244.132v8.114h67.164l-.002-8.114h-67.162zm67.162 10.865h-67.162a2.754 2.754 0 0 1-2.751-2.751v-8.114a2.755 2.755 0 0 1 2.75-2.75h67.163a2.755 2.755 0 0 1 2.752 2.75v8.114a2.754 2.754 0 0 1-2.752 2.75z" fill="#2D2926"/><path fill-opacity=".7" fill="#FF1628" d="M156.112 252.26h10.101v-8.129h-10.1zM213.171 252.244h10.108v-8.107h-10.09z"/><path fill="#FF1628" d="M166.217 252.245h46.957l.015-8.113h-46.972z"/><path d="M166.288 340.773h47.444v-85.132h-47.444v85.132zm-2.75 2.75h52.945V252.89h-52.945v90.634z" fill="#2D2926"/><path fill="#2D2926" d="M172.979 342.712l-1.945-1.945 42.987-42.988 1.945 1.945z"/><path fill="#2D2926" d="M207.089 342.712l-42.987-42.988 1.944-1.945 42.987 42.988z"/><path fill="#2D2926" d="M166.116 298.657l-1.944-1.944 42.986-42.988 1.945 1.944z"/><path fill="#2D2926" d="M214.091 298.657l-42.987-42.988 1.945-1.944 42.987 42.988z"/><path fill="#2D2926" d="M165.078 299.34h49.6v-2.75h-49.6zM166.288 240.936h47.444v-95.594h-47.444v95.594zm-2.75 2.777h52.945V142.565h-52.945v101.148z"/><path fill="#2D2926" d="M172.979 243.713l-1.945-2.022 42.987-44.688 1.945 2.022z"/><path fill="#2D2926" d="M207.089 243.713l-42.987-44.688 1.944-2.022 42.987 44.688z"/><path fill="#2D2926" d="M166.116 197.881l-1.944-1.944 49.926-49.928 1.945 1.944z"/><path fill="#2D2926" d="M214.091 197.881l-50.125-50.126 1.944-1.946 50.126 50.128z"/><path fill="#2D2926" d="M165.078 198.564h49.6v-2.751h-49.6z"/><path d="M70.492 120.434h66.95V84.336h-66.95v36.098zm-2.75 2.752h72.45V81.585h-72.45v41.601z" fill="#2A2421"/><path fill="#2D2926" d="M137.391 95.049l-15.045-10.861 1.61-2.23 15.046 10.861zM123.982 122.745l-1.662-2.192 15.071-11.423 1.662 2.193z"/><path fill="#2D2926" d="M121.242 122.667L71.235 84.004l1.683-2.176 50.007 38.663z"/><path fill="#2D2926" d="M72.788 122.885l-1.683-2.176 50.137-38.794 1.684 2.176z"/><path fill="#2D2926" d="M120.988 121.644h2.751V83.387h-2.75zM240.551 120.434h99.722V84.336h-99.722v36.098zm-2.75 2.752h105.223V81.585H237.801v41.601z"/><path fill="#2D2926" d="M340.387 122.098l-48.03-37.946 1.707-2.157 48.029 37.946z"/><path fill="#2D2926" d="M294.046 122.742l-1.67-2.186 48.03-36.685 1.669 2.187zM288.754 122.646l-47.486-38.663 1.737-2.133 47.486 38.663z"/><path fill="#2D2926" d="M242.848 122.885l-1.683-2.176 50.137-38.794 1.684 2.176z"/><path fill="#2D2926" d="M291.049 121.644h2.75V83.387h-2.75zM343.007 120.434h99.722V84.336h-99.722v36.098zm-2.75 2.752H445.48V81.585H340.256v41.601z"/><path fill="#2D2926" d="M442.843 122.098l-48.03-37.946 1.706-2.157 48.03 37.946z"/><path fill="#2D2926" d="M396.501 122.742l-1.67-2.186 48.03-36.685 1.67 2.187zM391.21 122.646l-47.486-38.663 1.737-2.133 47.486 38.663z"/><path fill="#2D2926" d="M345.303 122.885l-1.683-2.176 50.138-38.794 1.683 2.176z"/><path fill="#2D2926" d="M393.504 121.644h2.751V83.387h-2.75zM444.828 120.45h50.857l.061-36.474H444.89l-.062 36.473zm53.603 2.75h-56.36l.073-41.974h56.359l-.072 41.974z"/><path fill="#2D2926" d="M493.639 122.66l-47.487-38.662 1.737-2.133 47.486 38.663z"/><path fill="#2D2926" d="M447.732 122.9l-1.683-2.176 50.137-38.793 1.683 2.175z"/><path d="M222.237 143.756h-65.714a7.873 7.873 0 0 1-7.873-7.874v-3.464h81.46v3.464a7.873 7.873 0 0 1-7.873 7.874" fill-opacity=".7" fill="#FF1628"/><path d="M150.12 133.794c.672 4.844 4.84 8.587 9.867 8.587h58.786c5.027 0 9.195-3.743 9.868-8.587H150.12zm68.653 11.337h-58.786c-7.01 0-12.713-5.703-12.713-12.713v-1.375h84.212v1.375c0 7.01-5.703 12.713-12.713 12.713z" fill="#2D2926"/><path d="M155.263 60.773h65.715a7.873 7.873 0 0 1 7.873 7.873v3.464H147.39v-3.464a7.873 7.873 0 0 1 7.873-7.873" fill-opacity=".7" fill="#FF1628"/><path d="M148.86 70.735h78.52c-.672-4.844-4.84-8.586-9.867-8.586h-58.785c-5.027 0-9.196 3.742-9.868 8.586zm81.366 2.751h-84.211v-1.375c0-7.01 5.703-12.713 12.713-12.713h58.785c7.01 0 12.713 5.703 12.713 12.713v1.375z" fill="#2D2926"/><path d="M166.326 49.488h43.693a7.873 7.873 0 0 1 7.873 7.873v3.465h-59.439V57.36a7.873 7.873 0 0 1 7.873-7.873" fill-opacity=".7" fill="#FF1628"/><path d="M159.923 59.45h56.5c-.673-4.845-4.842-8.587-9.867-8.587H169.79c-5.026 0-9.195 3.742-9.867 8.587zm59.344 2.75h-62.19v-1.375c0-7.01 5.704-12.713 12.713-12.713h36.766c7.008 0 12.711 5.704 12.711 12.713v1.376zM141.113 73.959c-.758 0-1.375.617-1.375 1.375v53.704c0 .758.617 1.375 1.375 1.375h99.799V75.334c0-.758-.617-1.375-1.375-1.375h-98.424zm102.55 59.205h-102.55a4.13 4.13 0 0 1-4.126-4.126V75.334a4.13 4.13 0 0 1 4.126-4.126h98.424a4.13 4.13 0 0 1 4.126 4.126v57.83z" fill="#2D2926"/><path fill="#2D2926" d="M138.781 82.356h102.876v-2.751H138.781zM139.57 124.334h102.874v-2.75H139.57z"/><path fill="#FF1628" d="M157.153 121.585h-16.95V82.358h16.95zM223.418 121.583l17.607.125V82.24l-17.607.117z"/><path fill-opacity=".7" fill="#FF1628" d="M157.153 121.587h66.267V82.354h-66.267z"/><path d="M183.489 48.087h11.992l-5.996-27.647-5.996 27.647zm15.404 2.75h-18.816l9.408-43.374 9.408 43.374zM498.715 113.117h8.648c.758 0 1.376-.617 1.376-1.375V93.669c0-.76-.618-1.376-1.376-1.376h-8.648v20.824zm8.648 2.75h-11.399V89.542h11.4a4.131 4.131 0 0 1 4.125 4.128v18.073a4.13 4.13 0 0 1-4.126 4.126zM244.016 130.422l251.734.032-.055-7.979-251.68-.032v7.98zm251.734 2.77l-254.482-.032v-13.454l257.165.032v10.78a2.682 2.682 0 0 1-2.683 2.674z" fill="#2D2926"/><path fill="#2D2926" d="M72.448 84.184l-1.213-2.477 114.16-54.556 1.213 2.477zM449.812 84.874L193.217 30.168l.571-2.692 256.595 54.707z"/><path d="M424.707 248.513h-82.543a4.776 4.776 0 0 1-4.776-4.776v-63.25a4.776 4.776 0 0 1 4.776-4.776h82.543a4.776 4.776 0 0 1 4.776 4.776v63.25a4.776 4.776 0 0 1-4.776 4.776" fill="#FFF"/><path d="M344.266 177.087a5.507 5.507 0 0 0-5.502 5.501v59.049a5.508 5.508 0 0 0 5.502 5.501h78.34a5.508 5.508 0 0 0 5.502-5.501v-59.049a5.507 5.507 0 0 0-5.502-5.501h-78.34zm78.34 72.802h-78.34c-4.55 0-8.252-3.702-8.252-8.252v-59.049c0-4.55 3.702-8.252 8.252-8.252h78.34c4.55 0 8.252 3.702 8.252 8.252v59.049c0 4.55-3.701 8.252-8.252 8.252z" fill="#2D2926"/><path d="M432.454 230.403h-10.037a1.911 1.911 0 0 1-1.91-1.91V210.74c0-1.055.856-1.91 1.91-1.91h10.037c1.055 0 1.91.855 1.91 1.91v17.752c0 1.054-.855 1.91-1.91 1.91" fill="#FF1628"/><path d="M423.259 210.206c-.759 0-1.376.617-1.376 1.376v16.07c0 .76.617 1.376 1.376 1.376h8.355c.758 0 1.376-.616 1.376-1.375v-16.071c0-.759-.618-1.376-1.376-1.376h-8.355zm8.355 21.573h-8.355a4.13 4.13 0 0 1-4.127-4.126v-16.071a4.13 4.13 0 0 1 4.127-4.127h8.355a4.13 4.13 0 0 1 4.126 4.127v16.07a4.13 4.13 0 0 1-4.126 4.127z" fill="#2D2926"/><path d="M344.59 230.403h-10.037a1.911 1.911 0 0 1-1.91-1.91V210.74c0-1.055.856-1.91 1.91-1.91h10.037c1.054 0 1.91.855 1.91 1.91v17.752c0 1.054-.856 1.91-1.91 1.91" fill="#FF1628"/><path d="M335.394 210.206c-.758 0-1.375.617-1.375 1.376v16.07c0 .76.617 1.376 1.375 1.376h8.356c.757 0 1.375-.616 1.375-1.375v-16.071c0-.759-.618-1.376-1.375-1.376h-8.356zm8.356 21.573h-8.356a4.13 4.13 0 0 1-4.126-4.126v-16.071a4.13 4.13 0 0 1 4.126-4.127h8.356a4.13 4.13 0 0 1 4.126 4.127v16.07a4.13 4.13 0 0 1-4.126 4.127zM379.31 222.45h-22.186a.875.875 0 0 1-.875-.874v-.77c0-.483.393-.875.875-.875h22.185c.483 0 .875.392.875.875v.77a.875.875 0 0 1-.875.875M386.26 222.45a.875.875 0 0 1-.874-.874v-.77c0-.483.391-.875.875-.875h22.185c.483 0 .874.392.874.875v.77a.875.875 0 0 1-.874.875H386.26zM407.91 229.065h-50.405a1.26 1.26 0 0 1 0-2.52h50.406a1.26 1.26 0 0 1 0 2.52" fill="#2D2926"/><path d="M429.798 184.23h-92.094v-3.743a4.775 4.775 0 0 1 4.776-4.775h82.542a4.776 4.776 0 0 1 4.776 4.775v3.743z" fill-opacity=".7" fill="#FF1628"/><path d="M339.08 182.854h88.95v-.265a5.508 5.508 0 0 0-5.501-5.503H344.58a5.508 5.508 0 0 0-5.502 5.503v.265zm91.7 2.751h-94.452v-3.016c0-4.551 3.702-8.253 8.253-8.253h77.948c4.55 0 8.252 3.702 8.252 8.253v3.016zM371.514 158.63h2.75v-27.143h-2.75zM390.421 158.63h2.75v-27.143h-2.75z" fill="#2D2926"/><path d="M353.623 186.087c0 16.465 13.348 29.813 29.813 29.813 16.465 0 29.813-13.348 29.813-29.813 0-16.465-13.348-29.813-29.813-29.813-16.465 0-29.813 13.348-29.813 29.813" fill="#FFF"/><path d="M383.436 157.65c-15.68 0-28.437 12.757-28.437 28.437 0 15.68 12.756 28.438 28.437 28.438 15.68 0 28.437-12.758 28.437-28.438s-12.757-28.437-28.437-28.437m0 59.625c-17.197 0-31.188-13.99-31.188-31.188s13.99-31.188 31.188-31.188c17.197 0 31.188 13.99 31.188 31.188s-13.99 31.188-31.188 31.188" fill="#2D2926"/><path d="M401.877 186.978l-8.645-8.645a1.26 1.26 0 0 1 1.781-1.781l8.645 8.645a1.26 1.26 0 0 1-1.781 1.781" fill="#2D2926"/><path d="M403.653 186.978l-8.645 8.644a1.26 1.26 0 0 1-1.781-1.78l8.645-8.646a1.26 1.26 0 0 1 1.781 1.782M388.727 182.655l-8.645 8.645a1.26 1.26 0 0 1-1.781-1.781l8.645-8.645a1.26 1.26 0 0 1 1.781 1.781M364.995 185.196l8.645 8.645a1.26 1.26 0 0 1-1.781 1.781l-8.645-8.645a1.26 1.26 0 0 1 1.78-1.781" fill="#2D2926"/><path d="M363.219 185.197l8.645-8.645a1.26 1.26 0 0 1 1.781 1.781L365 186.978a1.26 1.26 0 0 1-1.781-1.781M53.564 84.344c-.758 0-1.375.617-1.375 1.375v33.351c0 .76.617 1.375 1.375 1.375h13.929v-36.1h-13.93zm16.68 38.852h-16.68a4.13 4.13 0 0 1-4.126-4.126V85.72a4.13 4.13 0 0 1 4.126-4.127h16.68v41.603z" fill="#2D2926"/></g></svg>