<svg width="702" height="374" viewBox="0 0 702 374" xmlns="http://www.w3.org/2000/svg"><script xmlns="" type="text/javascript" charset="utf-8" id="zm-extension"/><title>EE8CD4C0-7EBD-4732-9AB2-D5B5EDB90025</title><path d="M511.814 114.014c-33.533 0-65.428 24.283-95.684 72.848 30.256 50.141 62.982 75.19 97.323 75.19 21.256 0 38.426-7.044 51.512-21.92 13.085-14.898 19.617-32.137 19.617-53.27 0-21.154-6.532-38.393-19.617-52.481-14.725-13.323-31.895-20.367-53.15-20.367M191.25 258.924c33.534 0 65.428-24.283 94.854-73.637-14.701-25.07-29.426-43.075-44.98-55.61-15.533-12.535-32.703-18.004-51.512-18.004-21.256 0-38.426 7.044-51.512 21.132-13.086 14.11-19.617 32.115-19.617 54.057 0 21.943 6.531 39.16 19.617 52.482 13.893 12.535 31.064 19.58 53.15 19.58m509.463-71.274c0 51.694-17.171 95.557-52.343 131.587-34.341 36.03-77.683 54.057-129.194 54.057-67.067 0-124.302-32.115-170.921-96.344-22.894 28.177-47.427 50.907-76.045 67.358-27.81 17.217-57.235 25.836-87.49 25.836-53.982 0-98.132-16.43-132.496-50.12C17.885 286.335.714 241.685.714 185.288c0-52.482 17.17-96.344 51.511-131.587C86.59 18.435 130.74 1.218 183.89 1.218c67.067 0 122.664 32.115 166.005 95.557C397.321 34.886 453.748 3.559 517.538 3.559c53.15 0 97.3 17.239 130.833 50.929 35.98 32.88 52.343 77.53 52.343 133.162" stroke="#D8D8D8" fill="none" fill-rule="evenodd"/></svg>