<svg id="Layer_1" xmlns="http://www.w3.org/2000/svg" viewBox="0 0 2027 1078"><script xmlns="" type="text/javascript" charset="utf-8" id="zm-extension"/><style>.st0{fill:none;stroke:#da1c2c;stroke-miterlimit:10}</style><path class="st0" d="M2026.5 540.1c0 149.6-49.7 276.6-151.5 380.9-99.4 104.3-224.8 156.5-373.9 156.5-194.1 0-359.8-92.9-494.7-278.8-66.3 81.6-137.3 147.3-220.1 195-80.5 49.8-165.7 74.8-253.2 74.8-156.2 0-284-47.6-383.5-145.1C50.2 825.9.5 696.7.5 533.4c0-151.9 49.7-278.8 149.1-380.9C249 50.3 376.8.5 530.7.5c194.1 0 355 92.9 480.5 276.6C1148.5 98 1311.8 7.3 1496.4 7.3c153.8 0 281.6 49.9 378.7 147.4 104 95.1 151.4 224.4 151.4 385.4M552 746.4c97.1 0 189.4-70.3 274.5-213.1-42.5-72.6-85.2-124.7-130.2-161s-94.7-52.1-149.1-52.1c-61.5 0-111.2 20.4-149.1 61.2s-56.8 92.9-56.8 156.5c0 63.5 18.9 113.3 56.8 151.9C438.4 726 488 746.4 552 746.4M1479.8 327c-97.1 0-189.4 70.3-276.9 210.8 87.6 145.1 182.3 217.6 281.7 217.6 61.5 0 111.2-20.4 149.1-63.4 37.9-43.1 56.8-93 56.8-154.2s-18.9-111.1-56.8-151.9c-42.7-38.5-92.4-58.9-153.9-58.9"/></svg>