<svg width="90" height="51" viewBox="0 0 90 51" xmlns="http://www.w3.org/2000/svg"><script xmlns="" type="text/javascript" charset="utf-8" id="zm-extension"/><title>539B8327-5734-439C-9209-F1FB26E9E5E3</title><path d="M65.713 15.3c-4.311 0-8.412 3.293-12.302 9.88 3.89 6.801 8.097 10.199 12.513 10.199 2.732 0 4.94-.956 6.623-2.974 1.682-2.02 2.522-4.358 2.522-7.225 0-2.87-.84-5.207-2.522-7.118-1.894-1.807-4.101-2.763-6.834-2.763M24.498 34.954c4.311 0 8.412-3.293 12.195-9.987-1.89-3.4-3.783-5.843-5.783-7.543-1.997-1.7-4.205-2.442-6.623-2.442-2.733 0-4.94.955-6.623 2.866-1.682 1.914-2.522 4.356-2.522 7.332s.84 5.312 2.522 7.119c1.786 1.7 3.994 2.655 6.834 2.655M90 25.287c0 7.012-2.208 12.961-6.73 17.848-4.415 4.887-9.988 7.332-16.61 7.332-8.623 0-15.982-4.356-21.976-13.068-2.944 3.822-6.098 6.905-9.777 9.137-3.576 2.335-7.359 3.504-11.249 3.504-6.94 0-12.617-2.229-17.035-6.798C2.208 38.672 0 32.616 0 24.967c0-7.119 2.208-13.068 6.623-17.849C11.04 2.335 16.718 0 23.55 0c8.623 0 15.771 4.356 21.344 12.961C50.992 4.567 58.247.317 66.449.317c6.833 0 12.51 2.339 16.821 6.908C87.896 11.685 90 17.741 90 25.287" fill="#EA1C2C" fill-rule="evenodd"/></svg>