<svg width="1817" height="846" viewBox="0 0 1817 846" xmlns="http://www.w3.org/2000/svg"><script xmlns="" type="text/javascript" charset="utf-8" id="zm-extension"/><title>Page 1</title><g stroke="#EA3336" fill="none" fill-rule="evenodd" stroke-linecap="round"><path d="M925.223 611.478a905.25 905.25 0 0 1-15.674-22.626 1111.663 1111.663 0 0 1-16.789 21.782"/><path d="M135.633-24.5C45.553 72.308.5 192.78.5 336.916c0 154.896 45.054 277.526 135.133 370.026 90.097 92.5 205.917 137.683 347.489 137.683 79.366 0 156.583-23.662 229.51-70.986 53.514-32.21 101.574-73.157 146.517-122.07l22.523-26.061M884.89 48.813c-14.099-18.734-28.644-36.266-43.63-52.594M1681.369-24.5a522.58 522.58 0 0 1 18.854 21.395c77.51 92.98 116.278 206.32 116.278 340.02 0 154.897-45.055 277.527-135.132 370.027-90.098 92.5-205.918 137.683-347.49 137.683-79.365 0-156.583-23.662-229.51-70.986-53.514-32.21-101.574-73.157-146.516-122.07l-22.84-26.714M932.11 48.813c14.2-18.868 28.852-36.518 43.953-52.945" stroke-dasharray="5.91,5.91"/><path d="M891.776 59.595a832.722 832.722 0 0 1 15.641 22.626 940.476 940.476 0 0 1 16.823-21.797M699.5 323.365a859.449 859.449 0 0 1 13 23.445 918.404 918.404 0 0 1-12.83 23.555"/><path d="M685.5 296.222c-68.445-103.056-141.586-153.857-218.006-153.857-57.337 0-101.932 19.15-138.032 53.193-33.972 36.171-50.962 82.976-50.962 142.55 0 59.573 16.99 108.512 50.962 146.801 33.98 38.307 78.576 57.456 133.785 57.456 48.843 0 93.437-14.905 133.794-48.94 25.266-21.32 49.7-48.484 73.825-82.529l12.488-19.499" stroke-dasharray="5.861,5.861"/><path d="M1108.5 323.365a859.449 859.449 0 0 0-13 23.445 915.326 915.326 0 0 0 12.83 23.555"/><path d="M1121.5 296.222c68.446-103.056 141.586-153.857 218.006-153.857 57.337 0 101.932 19.15 138.033 53.193 33.97 36.171 50.96 82.976 50.96 142.55 0 59.573-16.99 108.512-50.96 146.801-33.981 38.307-78.576 57.456-133.786 57.456-48.842 0-93.437-14.905-133.794-48.94-25.266-21.322-49.701-48.484-73.825-82.529l-13.076-19.694" stroke-dasharray="5.861,5.861"/></g></svg>