<svg width="30" height="30" viewBox="0 0 30 30" xmlns="http://www.w3.org/2000/svg"><script xmlns="" type="text/javascript" charset="utf-8" id="zm-extension"/><title>DB84DC1F-957F-4067-8806-2C8AC3236B07</title><g fill="#2A2421" fill-rule="evenodd"><path d="M10.885 2.301c.722 0 1.307.583 1.308 1.305v.003c0 .721-.584 1.306-1.306 1.307h-.002a1.307 1.307 0 0 1-1.308-1.305v-.002a1.306 1.306 0 0 1 1.305-1.308h.003zM14.892 0c-7.615 0-7.14 3.303-7.14 3.303l.008 3.421h7.268v1.028H4.873S0 7.199 0 14.884c0 7.684 4.254 7.412 4.254 7.412h2.538V18.73s-.136-4.254 4.186-4.254h7.209s4.05.065 4.05-3.914v-6.58S22.852 0 14.892 0z"/><path d="M19.115 27.543a1.306 1.306 0 0 1-1.307-1.305v-.003a1.306 1.306 0 0 1 1.305-1.307h.002a1.306 1.306 0 0 1 1.308 1.305v.002a1.305 1.305 0 0 1-1.305 1.308h-.003zm-4.007 2.301c7.615 0 7.141-3.303 7.141-3.303l-.009-3.42h-7.268v-1.029h10.155S30 22.645 30 14.96c0-7.684-4.254-7.412-4.254-7.412h-2.538v3.566s.136 4.254-4.186 4.254h-7.209s-4.05-.066-4.05 3.914v6.58s-.614 3.982 7.345 3.982z"/></g></svg>