<svg width="23" height="30" viewBox="0 0 23 30" xmlns="http://www.w3.org/2000/svg"><script xmlns="" type="text/javascript" charset="utf-8" id="zm-extension"/><title>EB815E0F-A2AA-494F-B729-F22D1F548BEF</title><g fill="#2A2421" fill-rule="evenodd"><path d="M7.126 23.2s-1.146.667.816.893c2.377.271 3.592.232 6.212-.264 0 0 .688.432 1.65.807-5.872 2.516-13.291-.147-8.678-1.436m-.718-3.284s-1.286.952.678 1.155c2.54.262 4.545.283 8.015-.384 0 0 .48.486 1.235.751-7.1 2.078-15.01.165-9.928-1.522m6.05-5.571c1.447 1.666-.38 3.165-.38 3.165s3.674-1.896 1.987-4.272c-1.576-2.215-2.785-3.316 3.758-7.11 0 0-10.27 2.565-5.365 8.217"/><path d="M20.226 25.63s.848.699-.935 1.24c-3.39 1.027-14.108 1.337-17.086.04-1.071-.465.937-1.111 1.568-1.247.659-.142 1.035-.116 1.035-.116-1.19-.838-7.694 1.646-3.304 2.358 11.974 1.943 21.827-.874 18.722-2.275M7.677 16.513s-5.453 1.295-1.93 1.766c1.486.199 4.45.154 7.211-.078 2.257-.19 4.522-.594 4.522-.594s-.795.34-1.37.733c-5.538 1.456-16.234.778-13.155-.711 2.604-1.26 4.722-1.116 4.722-1.116m9.781 5.467c5.629-2.925 3.026-5.735 1.21-5.357a4.13 4.13 0 0 0-.644.173s.165-.259.481-.37c3.594-1.264 6.357 3.725-1.16 5.701 0 0 .087-.078.113-.147M14.065 0s3.117 3.118-2.957 7.913c-4.87 3.846-1.11 6.039-.001 8.545-2.844-2.564-4.93-4.823-3.53-6.924C9.63 6.449 15.322 4.953 14.065 0"/><path d="M8.23 29.905c5.403.347 13.699-.19 13.896-2.748 0 0-.378.97-4.465 1.74-4.612.866-10.299.765-13.672.21 0 0 .69.57 4.241.798"/></g></svg>