<svg width="30" height="29" viewBox="0 0 30 29" xmlns="http://www.w3.org/2000/svg"><script xmlns="" type="text/javascript" charset="utf-8" id="zm-extension"/><title>EB732554-525F-46DE-B049-66A05699F903</title><path d="M14.466 7.52a9.19 9.19 0 0 0-3.225.59c-2.493 1.043-4.391 3-5.335 5.513-1.023 2.728-.836 5.87.515 8.625 2.095 3.884 6.023 6.212 10.503 6.212 2.18 0 4.372-.573 6.339-1.654 3.342-1.982 5.627-5.16 6.43-8.945.841-3.976-.065-8.211-2.49-11.62C24.24 2.277 19.648 0 14.611 0 8.945 0 3.813 2.82.883 7.544c-.289.47-.648 1.055-.841 1.65-.03.088-.087.362.023.494.093.109.29.137.381.137h.001c.238 0 .489-.24.845-.772 1.739-2.455 3.722-4.241 6.064-5.467a14.905 14.905 0 0 1 6.702-1.607c5.479 0 10.209 2.998 12.346 7.825 1.254 3.048 1.243 6.453-.028 9.348a10.423 10.423 0 0 1-5.982 5.64 9.792 9.792 0 0 1-3.109.508c-4.093 0-7.441-2.498-8.332-6.215-.404-2.01.094-4.185 1.296-5.682.713-.886 1.989-1.951 4.026-1.99 1.277.026 2.56.627 3.278 1.53.542.68.735 1.477.564 2.303-.167.634-.812 1.385-1.371 1.385a.678.678 0 0 1-.448-.17c-.119-.126-.136-.261-.162-.45-.043-.338-.11-.851-.847-1.125a1.69 1.69 0 0 0-.458-.063c-1.036 0-1.762.984-1.944 1.957a3.167 3.167 0 0 0 .777 2.56c.781.889 2.075 1.442 3.382 1.442.107 0 .211-.003.343-.013a5.335 5.335 0 0 0 3.87-2.35c1.046-1.554 1.352-3.638.812-5.575-1.051-3.23-4.038-5.324-7.605-5.324" fill="#2A2421" fill-rule="evenodd"/></svg>