<svg width="34" height="23" viewBox="0 0 34 23" xmlns="http://www.w3.org/2000/svg"><script xmlns="" type="text/javascript" charset="utf-8" id="zm-extension"/><title>DBEFE39F-7968-456D-967F-E0758CBD8040</title><path d="M27.2 8.287c-1.275-2.55-3.932-4.355-6.906-4.355-3.719 0-6.8 2.656-7.544 6.162-1.806.213-3.4 1.169-4.357 2.549h9.244c.638-.85 1.594-1.274 2.657-1.274 1.912 0 3.4 1.594 3.4 3.506 0 1.912-1.594 3.506-3.4 3.506-1.063 0-2.019-.531-2.657-1.275H7.331c.426 2.975 2.975 5.313 5.95 5.313h13.813c3.825 0 6.906-3.081 6.906-7.013 0-3.931-3.081-7.013-6.8-7.12m-7.013 4.357c-.849 0-1.593.532-2.018 1.276H5.632c-2.125 0-3.826-1.807-3.826-3.932s1.701-3.93 3.826-3.93h1.805c0-.425.213-.851.32-1.276.105-.106.105-.318.212-.425A5.057 5.057 0 0 1 12.431 1.7c1.701 0 3.188.85 4.144 2.125.531-.213 1.062-.425 1.7-.531C17.106 1.274 14.981 0 12.431 0 9.562 0 7.119 1.807 6.056 4.356h-.424C2.55 4.356 0 6.906 0 10.094c0 3.187 2.55 5.63 5.632 5.63h12.643c.319.745 1.063 1.276 2.019 1.276 1.169 0 2.125-.956 2.125-2.232 0-1.274-.956-2.125-2.232-2.125" fill="#2A2421" fill-rule="evenodd"/></svg>