<svg width="30" height="27" viewBox="0 0 30 27" xmlns="http://www.w3.org/2000/svg"><script xmlns="" type="text/javascript" charset="utf-8" id="zm-extension"/><title>B8A78A2A-7665-4B02-B8FD-474CF8539B52</title><g fill="#2A2421" fill-rule="evenodd"><path d="M23.92 16.97c-.164.054-.332.106-.504.157a30.139 30.139 0 0 0-1.519-3.8 30.295 30.295 0 0 0 1.461-3.746c.306.09.604.183.891.283 2.776.955 4.47 2.368 4.47 3.457 0 1.16-1.829 2.665-4.799 3.649m-1.088 6.4c-.179.964-.538 1.606-.982 1.863-.946.548-2.967-.164-5.148-2.04-.25-.215-.502-.445-.755-.688.846-.925 1.691-2 2.515-3.193a29.969 29.969 0 0 0 4.063-.626c.062.247.116.489.163.725.3 1.517.343 2.888.144 3.959m-7.782-1.782a28.985 28.985 0 0 1-1.806-2.16c.575.022 1.16.033 1.756.033a40 40 0 0 0 1.811-.04 27.16 27.16 0 0 1-1.76 2.167m-1.465 1.448c-1.164 1.018-2.33 1.74-3.358 2.103-.924.326-1.66.335-2.105.079-.946-.546-1.339-2.653-.803-5.478a17.9 17.9 0 0 1 .22-.997 30.13 30.13 0 0 0 4.042.585 31.18 31.18 0 0 0 2.575 3.182 15.7 15.7 0 0 1-.57.526M6.64 17.195a17.19 17.19 0 0 1-.74-.232c-1.463-.5-2.67-1.15-3.5-1.86-.744-.636-1.12-1.27-1.12-1.782 0-1.093 1.63-2.486 4.345-3.433.341-.118.686-.227 1.033-.325a30.548 30.548 0 0 0 1.462 3.789 31.317 31.317 0 0 0-1.48 3.843M8.104 1.489c1.003-.581 3.222.247 5.562 2.324.15.133.3.27.45.415A30.708 30.708 0 0 0 11.56 7.39a31.407 31.407 0 0 0-4.004.622 19.303 19.303 0 0 1-.206-.925c-.564-2.881-.19-5.055.753-5.6m6.911 3.656c.591.64 1.182 1.355 1.764 2.132a37.113 37.113 0 0 0-3.546-.001 27.941 27.941 0 0 1 1.782-2.131m6.14 6.7a42.324 42.324 0 0 0-1.776-3.061 28.42 28.42 0 0 1 2.735.479c-.257.828-.58 1.695-.96 2.583m-.857 4.557c.302-.524.592-1.053.87-1.59.4.914.738 1.799 1.007 2.639-.87.199-1.809.359-2.798.477.316-.502.624-1.012.921-1.526m-10.76-3.05a36.691 36.691 0 0 1 2.732-4.735 36.502 36.502 0 0 1 5.467 0c.51.753.992 1.523 1.447 2.309.457.788.887 1.59 1.293 2.407a39.143 39.143 0 0 1-1.289 2.429 42.283 42.283 0 0 1-1.44 2.32c-.889.066-1.809.098-2.747.098-.934 0-1.842-.03-2.717-.086a36.618 36.618 0 0 1-2.746-4.742m-.68-1.508a28.058 28.058 0 0 1-.954-2.596 28.851 28.851 0 0 1 2.72-.466 38.014 38.014 0 0 0-1.766 3.062m0 3.015a39.457 39.457 0 0 0 1.793 3.092 27.157 27.157 0 0 1-2.764-.444c.264-.855.591-1.745.971-2.648m7.746-11.264C18.817 1.667 20.887.907 21.83 1.45c1.005.58 1.396 2.916.764 5.98-.04.199-.086.398-.135.596a30.756 30.756 0 0 0-4.01-.633 29.988 29.988 0 0 0-2.537-3.165c.225-.217.455-.428.691-.633m8.063 5.057c-.319-.11-.642-.211-.966-.305.054-.22.104-.44.15-.658.73-3.55.253-6.408-1.379-7.35-1.566-.901-4.125.039-6.71 2.289-.255.222-.504.45-.747.686-.163-.157-.328-.31-.497-.46C11.808.449 9.092-.566 7.462.379 5.9 1.284 5.435 3.972 6.093 7.335c.065.333.14.664.222.993-.384.11-.755.226-1.11.35C2.027 9.785 0 11.52 0 13.32c0 1.859 2.177 3.724 5.485 4.854.27.092.54.176.812.254-.089.354-.167.712-.235 1.07-.628 3.306-.138 5.93 1.421 6.829 1.611.929 4.314-.026 6.946-2.327.21-.181.417-.375.627-.577.262.254.533.5.81.74 2.55 2.195 5.068 3.08 6.626 2.178 1.61-.932 2.132-3.75 1.453-7.18a15.85 15.85 0 0 0-.18-.801c.19-.056.377-.115.558-.174C27.763 17.047 30 15.204 30 13.32c0-1.807-2.094-3.554-5.334-4.67"/><path d="M15 16a2.68 2.68 0 1 0 0-5.36A2.68 2.68 0 0 0 15 16"/></g></svg>