<svg width="30" height="19" viewBox="0 0 30 19" xmlns="http://www.w3.org/2000/svg"><script xmlns="" type="text/javascript" charset="utf-8" id="zm-extension"/><title>AFD570DE-2801-4605-B46D-7D299AF567DB</title><path d="M28.526.084c.167.007.332.037.488.097.18.069.343.171.478.302a1.477 1.477 0 0 1 .456 1.013c.07 5.336.07 10.672 0 16.008a1.477 1.477 0 0 1-.456 1.013c-.135.13-.299.233-.478.302-.156.06-.32.09-.488.097-9.02.112-18.043.112-27.063 0a1.458 1.458 0 0 1-1.324-.927 1.48 1.48 0 0 1-.098-.486 780.462 780.462 0 0 1 0-16.006A1.465 1.465 0 0 1 .468.508a1.458 1.458 0 0 1 .995-.424c9.02-.112 18.043-.112 27.063 0zM20.1 9.342a482.017 482.017 0 0 1-4.144 3.751l-.054.045a1.441 1.441 0 0 1-.416.231 1.48 1.48 0 0 1-1.48-.298L9.98 9.381l-8.768 8.752c.007.004.018.007.025.01.077.03.16.045.245.048 9.008.113 18.017.113 27.025 0a.756.756 0 0 0 .354-.101l-8.76-8.748zM.927 1.084a.641.641 0 0 0-.113.204.687.687 0 0 0-.044.226 777.146 777.146 0 0 0 0 15.972c0 .02 0 .039.004.058l8.67-8.655L.926 1.084zm28.131 0c-2.812 2.582-5.606 5.185-8.421 7.766l8.582 8.57c.069-5.301.069-10.604 0-15.905a.698.698 0 0 0-.051-.243.642.642 0 0 0-.11-.188zm-.77-.278c-8.862-.107-17.725 0-26.587.002 4.267 3.92 8.494 7.88 12.812 11.741a.728.728 0 0 0 .978-.013L28.289.806z" fill="#2d2926" fill-rule="evenodd"/></svg>