<svg width="23" height="18" viewBox="0 0 23 18" xmlns="http://www.w3.org/2000/svg"><script xmlns="" type="text/javascript" charset="utf-8" id="zm-extension"/><title>8E2A5F6E-326D-402B-9BDF-D1A1DA8BBF62</title><path d="M0 14.266l2.687-1.626c.518.92.99 1.698 2.12 1.698 1.084 0 1.768-.425 1.768-2.075V1.046h3.3V12.31c0 3.417-2.004 4.973-4.927 4.973-2.639 0-4.17-1.367-4.948-3.017m11.64-1.042l2.552-1.477c.672 1.097 1.545 1.902 3.09 1.902 1.298 0 2.126-.649 2.126-1.545 0-1.074-.85-1.455-2.283-2.08l-.784-.337c-2.26-.963-3.761-2.172-3.761-4.724 0-2.35 1.791-4.141 4.59-4.141 1.992 0 3.426.693 4.455 2.507l-2.44 1.567c-.538-.963-1.12-1.343-2.015-1.343-.918 0-1.5.582-1.5 1.343 0 .94.582 1.321 1.925 1.903l.783.336c2.665 1.141 4.165 2.306 4.165 4.925 0 2.821-2.216 4.366-5.194 4.366-2.91 0-4.791-1.388-5.709-3.202" fill="#2A2421" fill-rule="evenodd"/></svg>