<svg width="30" height="30" viewBox="0 0 30 30" xmlns="http://www.w3.org/2000/svg"><script xmlns="" type="text/javascript" charset="utf-8" id="zm-extension"/><title>5196E1D6-DF41-4457-B777-44CFB1C0DE19</title><g fill="#2A2421" fill-rule="evenodd"><path d="M2.132 15c0 5.093 2.96 9.494 7.252 11.58L3.246 9.764A12.816 12.816 0 0 0 2.132 15zm21.554-.65c0-1.59-.571-2.691-1.061-3.548-.652-1.06-1.264-1.957-1.264-3.02 0-1.18.897-2.282 2.162-2.282.057 0 .11.006.166.01a12.814 12.814 0 0 0-8.69-3.378c-4.495 0-8.45 2.305-10.75 5.8.3.008.587.015.827.015 1.347 0 3.43-.164 3.43-.164.694-.04.775.98.082 1.061 0 0-.697.082-1.473.123L11.8 22.904l2.816-8.444-2.005-5.494c-.693-.04-1.35-.121-1.35-.121-.692-.042-.611-1.103.083-1.063 0 0 2.125.165 3.389.165 1.346 0 3.43-.164 3.43-.164.693-.04.775.98.08 1.061 0 0-.697.082-1.471.123l4.65 13.832 1.285-4.29c.65-1.67.978-3.058.978-4.159zm-8.46 1.775l-3.862 11.22a12.878 12.878 0 0 0 7.91-.206 1.113 1.113 0 0 1-.094-.178l-3.954-10.836zm11.065-7.3c.055.41.087.852.087 1.325 0 1.304-.245 2.772-.98 4.608l-3.93 11.364c3.826-2.232 6.4-6.377 6.4-11.123a12.8 12.8 0 0 0-1.577-6.174z"/><path d="M0 15c0 8.27 6.729 15 14.999 15 8.272 0 15-6.73 15-15 0-8.272-6.728-15-15-15-8.27 0-15 6.728-15 15m.688 0C.687 7.107 7.107.686 14.999.686 22.892.687 29.312 7.108 29.312 15c0 7.89-6.42 14.313-14.313 14.313C7.108 29.313.687 22.89.687 15"/></g></svg>