<svg width="30" height="24" viewBox="0 0 30 24" xmlns="http://www.w3.org/2000/svg"><script xmlns="" type="text/javascript" charset="utf-8" id="zm-extension"/><title>C31663E3-FA3A-4865-A82D-583D8BA6B018</title><path d="M22.617 19.876c-.36-.469-1.046-.541-1.515-.181a9.73 9.73 0 0 1-6.06 2.093c-5.41 0-9.848-4.401-9.848-9.812 0-.505.036-1.046.108-1.551l1.01 1.046c.433.433 1.118.433 1.515 0 .433-.433.433-1.118 0-1.515L4.292 6.349.36 9.92a1.024 1.024 0 0 0-.36.793c0 .253.108.506.288.722a1.079 1.079 0 0 0 1.515.072l1.335-1.118a11.366 11.366 0 0 0-.108 1.587c0 6.601 5.375 12.012 12.012 12.012 2.705 0 5.266-.902 7.394-2.561.47-.397.577-1.082.181-1.551M7.359 3.283c0 .216.072.469.216.649.36.469 1.047.578 1.515.217a9.65 9.65 0 0 1 5.953-2.02c5.41 0 9.847 4.4 9.847 9.847 0 .469-.036.938-.108 1.407l-1.01-1.046c-.433-.433-1.118-.433-1.515 0a1.104 1.104 0 0 0-.325.758c0 .288.109.54.325.757l3.535 3.607 3.86-3.535a1.079 1.079 0 0 0 .072-1.515 1.079 1.079 0 0 0-1.515-.072l-1.263 1.155c.073-.506.109-.975.109-1.48C27.055 5.412 21.68 0 15.043 0c-2.634 0-5.16.83-7.251 2.453-.288.18-.433.505-.433.83" fill-rule="evenodd"/></svg>