<svg width="35" height="27" viewBox="0 0 35 27" xmlns="http://www.w3.org/2000/svg"><script xmlns="" type="text/javascript" charset="utf-8" id="zm-extension"/><title>D26D62C9-9529-4011-B038-833F023B5B24</title><path d="M20.315 20.414v-1.538c1.425 0 2.288-.291 3.217 1.33-.975.134-2.01.21-3.115.21l-.102-.002m3.826-5.737h-3.826v-3.574h3.826c.907 0 1.64.894 1.64 1.788 0 .892-.729 1.786-1.64 1.786M6.928 12.39c0-4.375 5.468-8.015 12.76-8.015 9.208 0 13.476 3.543 13.476 7.918 0 2.512-1.557 4.812-4.4 6.32-.607-.456-1.318-.503-2.255-.81 2.186-.356 4.224-1.263 4.933-3.207.62-1.786.547-4.06-.78-5.582-1.15-1.205-2.33-1.928-5.246-1.928H14.484V19.56c-4.423-1.33-7.556-4.063-7.556-7.17M35 11.667C35 5.104 26.98 0 17.5 0 8.021 0 0 5.104 0 11.667c0 5.537 6.368 10.223 14.484 11.16v3.55h5.831V22.85a25.408 25.408 0 0 0 4.261-.805 178.057 178.057 0 0 1 2.298 4.333h6.922s-2.763-4.515-4.078-6.543C32.955 17.815 35 14.968 35 11.667" fill="#2A2421" fill-rule="evenodd"/></svg>