<svg width="30" height="22" viewBox="0 0 30 22" xmlns="http://www.w3.org/2000/svg"><script xmlns="" type="text/javascript" charset="utf-8" id="zm-extension"/><title>E0B4FF60-40C2-4D0E-9A64-8E73510B4F49</title><g fill="#2A2421" fill-rule="evenodd"><path d="M25.936 8.128c-.081-1.219-.731-2.276-1.87-3.17l-.406-.325-.325.406c-.57.894-.813 2.032-.732 3.007.082.651.326 1.382.732 1.87-.325.244-1.382.732-2.763.732H.088c-.406 2.194.244 10.485 9.754 10.485 7.072 0 12.843-3.17 15.525-9.835.894 0 3.17.163 4.308-2.032L30 8.697l-.406-.325c-.732-.407-2.44-.569-3.658-.244M13.255 2.926h3.17V0h-3.17zm0 3.494h3.17V3.496h-3.17zm-3.738 0h3.17V3.496h-3.17zm-3.74 0h3.17V3.496h-3.17z"/><path d="M2.039 9.835h3.17V6.909h-3.17zm3.738 0h3.17V6.909h-3.17zm3.74 0h3.17V6.909h-3.17zm3.738 0h3.17V6.909h-3.17z"/></g></svg>