<svg width="30" height="30" viewBox="0 0 30 30" xmlns="http://www.w3.org/2000/svg"><script xmlns="" type="text/javascript" charset="utf-8" id="zm-extension"/><title>F3F244FE-4C83-4711-A6A4-42C2BDE0F81D</title><g fill="#2A2421" fill-rule="evenodd"><path d="M14.863 24.055c-6.248.25-11.069-4.429-10.77-10.45C4.394 7.583 9.703 2.5 15.953 2.25c3.632-.145 6.8 1.328 8.77 3.81l2.974-1.572-4.173 4.233-9.883 10.324c.817.32 1.721.496 2.682.496 4.094 0 7.666-3.188 7.981-7.12a6.617 6.617 0 0 0-.252-2.444l1.654-2.286c.618 1.198.962 2.504 1.021 3.95 0 0-.019.985-.05 1.312-.042.462-.264 1.835-.264 1.835-1.258 5.066-6.038 9.048-11.55 9.268m13.14-15.312v-.007a13.347 13.347 0 0 0-.694-1.629L30 2.62l-4.555 1.745C23.058 1.671 19.562 0 15.55 0 7.63 0 .69 6.504.05 14.527c-.643 8.025 5.255 14.528 13.174 14.528 4.884 0 9.393-2.473 12.285-6.25a13.26 13.26 0 0 0 3.496-8.989c0-1.797-.357-3.51-1.002-5.073"/><path d="M17.462 5.297c-4.094 0-7.667 3.19-7.982 7.122a6.487 6.487 0 0 0 .928 3.95l12.138-8.975c-1.238-1.295-3.032-2.097-5.084-2.097"/></g></svg>