<svg width="30" height="29" viewBox="0 0 30 29" xmlns="http://www.w3.org/2000/svg" xmlns:xlink="http://www.w3.org/1999/xlink"><script xmlns="" type="text/javascript" charset="utf-8" id="zm-extension"/><title>4BE768FB-1AD6-4B42-8500-5B2728D661C7</title><defs><path id="a" d="M0 5.796V.676h5.122v5.12z"/><path id="c" d="M.146.72h4.968v4.968H.146V.72z"/></defs><g fill="none" fill-rule="evenodd"><g transform="translate(0 12.28)"><mask id="b" fill="#fff"><use xlink:href="#a"/></mask><path d="M2.56.675a2.56 2.56 0 1 1 0 5.122 2.56 2.56 0 0 1 0-5.122" fill="#2A2421" mask="url(#b)"/></g><path d="M4.357 6.65A2.675 2.675 0 1 1 4.356 12a2.675 2.675 0 0 1 0-5.35m22.128.496a2.18 2.18 0 1 1-.001 4.36 2.18 2.18 0 0 1 0-4.36M9.287 1.758a2.522 2.522 0 1 1 0 5.044 2.522 2.522 0 0 1 0-5.044m12.535.152a2.369 2.369 0 1 1 0 4.739 2.369 2.369 0 0 1 0-4.738m6.191 11.847a1.987 1.987 0 1 1 0 3.974 1.987 1.987 0 0 1 0-3.974m-1.529 6.191a1.949 1.949 0 1 1 0 3.898 1.949 1.949 0 0 1 0-3.898m-4.662 4.968a1.682 1.682 0 1 1 0 3.364 1.682 1.682 0 0 1 0-3.364" fill="#2A2421"/><g transform="translate(13 -.72)"><mask id="d" fill="#fff"><use xlink:href="#c"/></mask><path d="M2.63.72a2.484 2.484 0 1 1 0 4.967 2.484 2.484 0 0 1 0-4.968" fill="#2A2421" mask="url(#d)"/></g></g></svg>