<svg width="28" height="30" viewBox="0 0 28 30" xmlns="http://www.w3.org/2000/svg"><script xmlns="" type="text/javascript" charset="utf-8" id="zm-extension"/><title>E0602936-C633-41AA-86EF-213E9FA179A0</title><g fill="#2A2421" fill-rule="evenodd"><path d="M24.296 0c2.038 1.04 3.789 3.764 3.7 7.462-.265 4.558-3.57 8.485-7.164 12.103-.202-4.412-1.161-7.225-2.66-11.179C16.759 4.4 20.895.127 24.297 0M13.27 19.41c1.094-1.36 1.87-2.574 2.412-3.669 3.708 1.94 2.833 1.577 4.621 3.642.007.065.012.13.017.193.15 2.864-1.94 9.485-10.168 10.393-.57-4.45 1.282-8.245 3.118-10.559"/><path d="M.03 2.766c5.862-2.32 12.17.057 15.813 5.008.353.478.687.976 1.002 1.488.569 3.633.136 5.651-.972 6.721a21.241 21.241 0 0 0-2.336-.995c-1.928-.7-3.708-1.164-6.251-1.917C1.25 11.423-.24 6.247.03 2.766"/><path d="M16.621 8.906l.114.18.046.073c.094.152.187.304.277.457l.016.026.024.042.023.038.064.112.005.008.088.155.003.004c.064.113.127.226.189.34l.007.015.069.127.002.003.075.142.022.042.042.081.052.1.049.097c.051.1.102.201.151.301l.013.025c.088.182.175.365.259.55l.065.14.006.014.041.091.048.108.027.062.044.101.031.071.065.155.005.011.07.168.008.021c.075.182.148.364.218.547l.007.016.058.154.003.008.034.091c.037.1.074.2.11.302l.013.04c.04.111.08.225.118.337l.012.036c.036.106.07.212.104.317l.017.053.004.012.054.171.003.008.05.164.05.168.001.004.042.143.013.046.026.088.084.305.02.076.039.15.002.007c.048.185.093.37.136.553l.004.02.005.02c.056.241.107.484.155.725l.004.024c.073.375.136.747.189 1.117v.005c.017.114.031.227.046.341l.005.05.02.162.016.15.005.05.012.12.005.047.002.02.014.162c-1.295-1.668-2.843-2.817-4.699-3.716 1.499-2.962 1.288-5.073.999-6.953"/></g></svg>