<svg width="29" height="28" viewBox="0 0 29 28" xmlns="http://www.w3.org/2000/svg"><script xmlns="" type="text/javascript" charset="utf-8" id="zm-extension"/><title>96AB3CAC-E157-49B9-B5A5-303FD6E425ED</title><path d="M21.623 19.304a8.305 8.305 0 0 1-2.62 2.596l-1.702-4.067a.702.702 0 0 1 .393-.821 1.26 1.26 0 0 1 .393-.088l4.365.736c-.218.606-.48 1.168-.83 1.644zm-5.326 3.764a8.903 8.903 0 0 1-1.877.216c-.917 0-1.877-.172-2.75-.432l2.139-3.85c.218-.26.567-.347.873-.174.13.086.218.174.349.304l2.095 3.764a6.887 6.887 0 0 0-.83.172zm-9.91-5.365l4.323-.735c.349 0 .698.216.742.562a.505.505 0 0 1-.044.433l-1.66 3.98c-1.526-.995-2.75-2.51-3.36-4.24zm.743-7.311l3.23 2.855a.69.69 0 0 1 .088.995c-.088.13-.175.173-.35.216L5.865 15.67a9.043 9.043 0 0 1 1.266-5.278zm5.326-3.807l.873-.173-.218 4.326c0 .39-.35.693-.742.693-.131 0-.22-.044-.35-.088L8.396 8.791c1.135-1.082 2.532-1.86 4.06-2.206zm7.9 2.206l-3.58 2.509c-.304.173-.741.13-.96-.173a.393.393 0 0 1-.13-.303l-.262-4.369c1.92.216 3.623 1.038 4.933 2.336zm2.358 4.153c.219.909.262 1.818.175 2.726l-4.147-1.168c-.393-.087-.611-.476-.524-.865a.693.693 0 0 1 .175-.303l3.273-2.942a8.75 8.75 0 0 1 1.048 2.552zm-7.115 2.813l-1.18.562-1.177-.562-.306-1.255.83-1.039h1.309l.829 1.04-.305 1.254zm12.615 1.34c-.043 0-.087 0-.087-.043 0-.042-.087-.042-.174-.042-.175-.044-.35-.044-.524-.044-.088 0-.175 0-.263-.044h-.043a8.822 8.822 0 0 1-1.484-.26.524.524 0 0 1-.306-.302c.044 0 0 0 0 0l-.35-.087c.176-1.254.088-2.552-.173-3.807a11.697 11.697 0 0 0-1.528-3.548l.26-.259v-.043c0-.13.045-.302.132-.39a7.826 7.826 0 0 1 1.223-.865l.262-.13c.174-.086.305-.173.48-.26.044-.042.087-.042.13-.086.044-.043 0-.043 0-.086.394-.303.48-.822.175-1.211a.834.834 0 0 0-.611-.303 1.05 1.05 0 0 0-.611.216l-.043.043c-.044.044-.088.087-.132.087a2.93 2.93 0 0 0-.35.39c-.042.085-.13.129-.173.172a5.741 5.741 0 0 1-1.091.952c-.088.043-.175.086-.263.086-.043 0-.13 0-.174-.043h-.044l-.35.217c-.348-.347-.741-.693-1.09-1.039-1.616-1.255-3.623-2.034-5.675-2.25l-.044-.346v.044c-.131-.087-.174-.217-.218-.347 0-.476 0-.951.087-1.47v-.043c0-.088.044-.174.044-.26.043-.174.043-.347.087-.52v-.26a.857.857 0 0 0-.742-.908c-.262-.043-.524.087-.742.303a.846.846 0 0 0-.262.606v.216c0 .173.044.347.087.52a.54.54 0 0 1 .044.259v.044c.088.475.088.951.088 1.47-.044.13-.088.26-.22.346v.088l-.043.345c-.48.043-.96.13-1.484.216-2.051.433-3.928 1.515-5.37 3.03l-.261-.174h-.043c-.044 0-.088.043-.175.043a.617.617 0 0 1-.262-.087 7.893 7.893 0 0 1-1.091-.995c-.044-.086-.131-.13-.175-.172-.131-.13-.218-.26-.35-.39-.043-.043-.086-.043-.13-.086l-.044-.044a1.046 1.046 0 0 0-.611-.217c-.262 0-.48.088-.611.304a.923.923 0 0 0 .175 1.21c.043 0 .043.044.043.044s.088.087.13.087c.132.086.307.173.482.26l.26.13c.438.259.874.518 1.223.864.088.088.175.26.13.39v-.044l.263.26c-.043.086-.087.13-.13.217-1.354 2.119-1.921 4.628-1.528 7.094l-.35.088c0 .042-.043.042-.043.042-.044.131-.175.217-.306.303-.48.13-.96.217-1.484.26-.087 0-.175 0-.262.044-.174 0-.35.042-.524.042-.043 0-.087.044-.174.044-.044 0-.044 0-.088.044a.844.844 0 0 0-.698.994c.087.39.48.649.873.606.087 0 .13 0 .218-.043.044 0 .044 0 .044-.044 0-.043.13 0 .175 0 .174-.043.349-.13.48-.172a.615.615 0 0 1 .26-.087h.045a7.78 7.78 0 0 1 1.44-.39h.044c.132 0 .262.044.35.13.043 0 .043.043.043.043l.393-.043a10.446 10.446 0 0 0 3.579 5.062c.393.304.743.562 1.179.778l-.218.304c0 .043.044.043.044.043.087.13.087.302.043.433-.175.432-.436.865-.698 1.254v.044a.756.756 0 0 1-.175.216c-.087.086-.175.26-.305.433-.044.042-.044.086-.088.13 0 0 0 .042-.043.042a.886.886 0 0 0 .349 1.169.824.824 0 0 0 .305.086c.35 0 .655-.216.83-.52 0 0 0-.042.044-.042 0-.044.043-.086.087-.13.043-.173.13-.302.174-.476l.088-.26c.13-.475.349-.908.567-1.341a.675.675 0 0 1 .35-.259c.043 0 .043 0 .043-.043l.175-.346c1.222.475 2.488.691 3.797.691a8.83 8.83 0 0 0 2.358-.302c.48-.087.96-.26 1.397-.39l.174.303c.044 0 .044 0 .044.044.13.043.262.13.349.26.218.432.437.864.567 1.34v.044l.088.26c.043.173.087.345.175.475.043.044.043.086.087.13 0 0 0 .043.044.043.174.303.479.519.829.519.13 0 .218-.044.349-.086.175-.086.349-.26.393-.476a1.097 1.097 0 0 0-.044-.65c0-.043-.044-.043-.044-.043 0-.042-.043-.086-.087-.13a1.552 1.552 0 0 0-.305-.432.773.773 0 0 0-.175-.216v-.087a5.051 5.051 0 0 1-.698-1.254.508.508 0 0 1 .043-.433c0-.043.044-.043.044-.043l-.131-.346c2.226-1.341 3.929-3.419 4.715-5.884l.349.043c.043 0 .043-.043.043-.043a.498.498 0 0 1 .349-.13h.044c.48.087.96.216 1.397.39h.044a.622.622 0 0 0 .26.086c.176.087.307.173.482.216.043 0 .087.043.174.043.044 0 .044 0 .088.044a.393.393 0 0 0 .218.043.95.95 0 0 0 .873-.606 1.022 1.022 0 0 0-.786-.908z" fill="#2A2421" fill-rule="evenodd"/></svg>