<svg width="17" height="30" viewBox="0 0 17 30" xmlns="http://www.w3.org/2000/svg"><script xmlns="" type="text/javascript" charset="utf-8" id="zm-extension"/><title>9E06DB3F-45BC-4A4C-B8DA-8C792FB241EA</title><g fill="#2d2926"><path d="M4.4 29.864h8c2.4 0 4.333-1.968 4.333-4.412V4.412C16.733 1.968 14.8 0 12.4 0h-8C2 0 .067 1.968.067 4.412v21.04c0 2.444 1.966 4.412 4.333 4.412zM.733 6.041c.034.034.1.068.167.068h15a.252.252 0 0 0 .167-.068v15.712a.252.252 0 0 0-.167-.067H.9a.252.252 0 0 0-.167.067V6.041zM4.4.679h8c2.033 0 3.667 1.663 3.667 3.733v1.086a.252.252 0 0 0-.167-.068H.9a.252.252 0 0 0-.167.068V4.412C.733 2.342 2.4.679 4.4.679zM.733 22.33c.034.034.1.068.167.068h15a.252.252 0 0 0 .167-.068v3.122c0 2.07-1.634 3.734-3.667 3.734h-8c-2.033 0-3.667-1.663-3.667-3.734V22.33z"/><path d="M6.733 26.131h3.334c.2 0 .333-.136.333-.34 0-.203-.133-.339-.333-.339H6.733c-.2 0-.333.136-.333.34 0 .203.167.34.333.34z"/></g></svg>