<?xml version="1.0" encoding="UTF-8"?>
<!-- Generator: Adobe Illustrator 17.0.0, SVG Export Plug-In . SVG Version: 6.00 Build 0)  -->
<!DOCTYPE svg PUBLIC "-//W3C//DTD SVG 1.1//EN" "http://www.w3.org/Graphics/SVG/1.1/DTD/svg11.dtd">
<svg version="1.1" id="Layer_1" xmlns="http://www.w3.org/2000/svg" xmlns:xlink="http://www.w3.org/1999/xlink" x="0px" y="0px" width="4655.998px" height="2240px" viewBox="0 0 4655.998 2240" enable-background="new 0 0 4655.998 2240" xml:space="preserve"><script xmlns="" type="text/javascript" charset="utf-8" id="zm-extension"/>
<g>
	<g>
		<polygon fill="#C94D1B" points="1103.3,1248.456 909.012,1707.718 969.019,1707.718 1103.3,1398.474 1237.58,1707.718     1297.587,1707.718   "/>
		<path fill="#C94D1B" d="M1150.682,1587.673c1.708-0.248,2.109,2.758,0.697,3.417    C1150.882,1589.992,1150.587,1588.837,1150.682,1587.673"/>
		<circle fill="#C94D1B" cx="1103.438" cy="1598.455" r="51.018"/>
		<path fill="#3E8638" d="M2663.047,1274.449c-119.472,0-216.323,96.851-216.323,216.323s96.851,216.323,216.323,216.323    c119.472,0,216.323-96.851,216.323-216.323S2782.519,1274.449,2663.047,1274.449z M2663.047,1647.45    c-86.531,0-156.678-70.147-156.678-156.678c0-86.531,70.147-156.678,156.678-156.678c86.531,0,156.678,70.147,156.678,156.678    C2819.724,1577.303,2749.577,1647.45,2663.047,1647.45z"/>
		<path fill="#3E8638" d="M3145.748,1274.449c-119.472,0-216.323,96.851-216.323,216.323s96.851,216.323,216.323,216.323    c119.472,0,216.323-96.851,216.323-216.323S3265.22,1274.449,3145.748,1274.449z M3145.748,1647.45    c-86.531,0-156.678-70.147-156.678-156.678c0-86.531,70.147-156.678,156.678-156.678c86.531,0,156.678,70.147,156.678,156.678    C3302.426,1577.303,3232.279,1647.45,3145.748,1647.45z"/>
		<path fill="#C94D1B" d="M1601.437,1461.164h-134.655l-24.932,60.007h159.587v80.236c-28.558,29.482-68.468,47.801-112.641,47.801    c-86.824,0-157.208-70.743-157.208-158.008s70.384-158.008,157.208-158.008c54.272,0,102.121,27.642,130.371,69.682l25.428-61.201    c-39.226-41.277-94.524-66.992-155.799-66.992c-118.974,0-215.422,96.939-215.422,216.519s96.448,216.519,215.422,216.519    c41.292,0,79.865-11.686,112.641-31.934v32.146h58.752v-186.76v-60.007H1601.437z"/>
		<path fill="#C94D1B" d="M1903.104,1527.649c51.934-16.893,89.476-65.686,89.476-123.255c0-71.573-58.021-129.594-129.594-129.594    c-1.589,0-3.169,0.039-4.745,0.096v-0.02h-89.245v-0.337h-58.752v0.337v58.503v142v58.612v173.939h58.752v-173.939h68.015    l-0.185,0.019l99.508,173.92h69.905L1903.104,1527.649z M1770.882,1333.379h87.359h6.264v0.038    c38.517,0.811,69.496,32.266,69.496,70.977c0,39.221-31.795,71.015-71.015,71.015c-0.901,0-1.794-0.035-2.687-0.068h-89.417    V1333.379z"/>
		<rect x="2056.294" y="1274.449" fill="#C94D1B" width="58.752" height="433.482"/>
		<polygon fill="#3E8638" points="2396.669,1333.202 2396.669,1274.449 2223.853,1274.449 2165.101,1274.449 2165.101,1274.449     2165.101,1707.931 2223.853,1707.931 2223.853,1518.35 2396.669,1518.35 2396.669,1459.598 2223.853,1459.598 2223.853,1333.202       "/>
		<path fill="#3E8638" d="M3527.91,1274.449L3527.91,1274.449l-115.784,0v0h0v433.482h58.752v-0.835h57.032    c119.472,0,216.323-96.851,216.323-216.323S3647.382,1274.449,3527.91,1274.449z M3527.91,1647.45v0.893h-57.032v-315.142h57.032    v0.893c86.531,0,156.678,70.147,156.678,156.678C3684.588,1577.303,3614.441,1647.45,3527.91,1647.45z"/>
		<g>
			<path fill="#C94D1B" d="M985.126,1860.173c-6.544,5.54-15.005,8.888-24.251,8.888c-20.745,0-37.563-16.818-37.563-37.563     c0-20.745,16.817-37.563,37.563-37.563c9.246,0,17.707,3.347,24.251,8.888l10.135-10.135     c-9.154-8.116-21.19-13.053-34.386-13.053c-28.643,0-51.862,23.22-51.862,51.863c0,28.643,23.22,51.862,51.862,51.862     c13.196,0,25.232-4.937,34.386-13.053L985.126,1860.173z"/>
			<path fill="#C94D1B" d="M1286.137,1779.635c-28.643,0-51.863,23.22-51.863,51.863c0,28.643,23.22,51.862,51.863,51.862     c28.643,0,51.862-23.22,51.862-51.862C1338,1802.855,1314.78,1779.635,1286.137,1779.635z M1286.137,1869.06     c-20.745,0-37.563-16.818-37.563-37.563c0-20.745,16.817-37.563,37.563-37.563c20.745,0,37.563,16.817,37.563,37.563     C1323.7,1852.243,1306.883,1869.06,1286.137,1869.06z"/>
			<polygon fill="#C94D1B" points="1640.125,1779.281 1640.125,1848.79 1640.603,1849.933 1577.014,1771.73 1577.014,1795.205      1577.014,1883.006 1591.316,1883.006 1591.316,1812.828 1654.398,1890.557 1654.407,1882.958 1654.427,1883.006      1654.427,1779.281    "/>
			<polygon fill="#C94D1B" points="3401.069,1779.635 3401.069,1849.145 3401.546,1850.287 3337.958,1772.084 3337.958,1795.56      3337.958,1883.36 3352.26,1883.36 3352.26,1813.183 3415.342,1890.911 3415.351,1883.313 3415.371,1883.36 3415.371,1779.635         "/>
			<path fill="#C94D1B" d="M1957.817,1843.645c-1.778-9.922-8.435-18.745-17.492-23.157c-4.83-2.672-10.31-3.547-15.704-4.101     c-5.49-0.632-10.699-5.306-10.68-11.049c-0.515-6.929,6.462-13.294,13.323-11.914c4.802,0.995,7.855,5.15,10.803,8.721     l0.021,0.036l0.005-0.003c0.008,0.01,0.017,0.021,0.025,0.031l12.098-7.502c-3.858-6.229-9.348-11.651-16.219-14.411     c-9.504-3.712-21.078-0.729-27.802,6.9c-8.182,8.843-8.862,23.507-1.72,33.176c4.548,6.385,12.04,10.573,19.902,10.942     c5.607,0.262,11.583,1.905,15.393,6.316c3.975,4.665,4.587,11.263,3.605,17.113c-2.361,10.971-16.209,17.822-26.15,12.205     c-7.677-4.179-10.981-13.148-11.593-21.427h0l0-0.019h-14.168c-0.709,15.315,8.6,31.116,23.245,36.48     c10.194,3.323,22.078,1.428,30.513-5.286c6.112-4.878,10.913-11.71,12.565-19.416     C1958.555,1852.779,1958.506,1848.134,1957.817,1843.645z"/>
			<path fill="#C94D1B" d="M2254.455,1778.964v66.536c-0.133,6.744-0.801,14.107-5.261,18.65c-3.289,3.351-8.614,5.107-15.791,5.264     c-7.178-0.157-12.502-1.913-15.791-5.264c-4.46-4.543-5.127-11.906-5.261-18.65v-66.536h-14.988v66.536v0     c0.17,9.058,1.758,20.621,9.847,28.861c5.917,6.028,14.374,9.26,25.156,9.623v0.036c0.351,0,0.691-0.012,1.038-0.018     c0.346,0.006,0.687,0.018,1.037,0.018v-0.036c10.781-0.364,19.238-3.596,25.156-9.623c8.089-8.24,9.677-19.803,9.847-28.861v0     v-66.536H2254.455z"/>
			<polygon fill="#C94D1B" points="2550.599,1869.447 2522.759,1869.447 2522.759,1778.964 2508.457,1778.964 2508.457,1883.749      2522.759,1883.749 2522.759,1883.749 2550.599,1883.749    "/>
			<polygon fill="#C94D1B" points="2824.771,1778.964 2824.771,1778.964 2824.769,1778.964 2810.469,1778.964 2810.467,1778.964      2810.467,1778.964 2789.613,1778.964 2789.613,1793.266 2810.467,1793.266 2810.467,1883.749 2810.469,1883.749      2824.769,1883.749 2824.771,1883.749 2824.771,1793.266 2845.625,1793.266 2845.625,1778.964    "/>
			<polygon fill="#C94D1B" points="3098.941,1778.964 3084.642,1778.964 3084.639,1778.964 3084.639,1778.964 3084.639,1793.266      3084.639,1883.749 3084.642,1883.749 3098.941,1883.749 3098.944,1883.749 3098.944,1793.266 3098.944,1778.964      3098.944,1778.964    "/>
			<path fill="#C94D1B" d="M3732.92,1824.286h-32.235l-5.969,14.365h38.204v19.208c-6.837,7.058-16.391,11.443-26.965,11.443     c-20.785,0-37.634-16.935-37.634-37.826s16.849-37.826,37.634-37.826c12.992,0,24.447,6.617,31.209,16.681l6.087-14.651     c-9.39-9.881-22.628-16.037-37.297-16.037c-28.481,0-51.57,23.206-51.57,51.833s23.089,51.833,51.57,51.833     c9.885,0,19.119-2.797,26.965-7.645v7.696h14.065v-44.708v-14.365H3732.92z"/>
		</g>
	</g>
	<g>
		<path fill="#3E8638" d="M2273.999,353.118c14.56-2.51,29.32-3.45,44.07-4.01c2.45-0.06,4.92,0.01,7.39,0.34    c-3.52,2.68-8.03,3.4-11.82,5.57c-12.4,6-23.05,16.26-27.78,29.38c-4.39,11.48-2.64,24.19,0.59,35.73    c1.32,5.41,3.84,10.45,5.22,15.84c-26.52,9.57-51.25,23.46-75.55,37.62c-0.79,0.45-1.62,0.65-2.5,0.59    c-7.6-16.97-12.61-35.64-11-54.36c1.6-16.31,9.03-32.35,21.72-42.97c7.94-6.91,17-12.35,25.59-18.4    C2257.429,354.968,2265.939,354.528,2273.999,353.118"/>
		<path fill="#3E8638" d="M2342.689,365.188c10.16-5.6,21.8-7.86,33.3-8.41c12.16-0.79,24.64-1.07,36.46,2.35    c57.86,13.98,112.07,42.84,155.88,83.15c4.77,4.56,10.11,8.86,13.1,14.91c4.64,9.05,8.19,19.04,7.81,29.34    c-0.09,9.46-3.68,19.04-10.57,25.64c-7.98,7.92-18.92,11.82-29.69,14.16c-3.14,0.66-6.36,1.34-9.56,0.96    c-8.93-22.85-17-46.5-31.45-66.63c-2.5-3.2-4.48-6.99-7.97-9.23c0.92,5.24,3.32,10.04,5.07,15.03    c7.1,18.64,14.22,37.33,19.17,56.69c0.38,1.76,0.67,3.56,0.81,5.38c-8.43,0.21-16.81-1.03-25.17-1.82    c-11.04-1.29-22.03-3.18-32.7-6.29c-1.34-0.58-3.77-0.83-3.4-2.83c0.54-22.78,6.26-45.35,4.26-68.19    c-1.75,1.92-2.53,4.43-3.39,6.83c-7.15,18.92-9.43,39.33-17.01,58.1c-4.77-0.72-8.95-3.36-13.43-5    c-14.46-6.07-28.48-13.15-42.21-20.71c-1.4-0.89-3.1-1.55-3.95-3.01c12.88-14.47,28.42-26.26,42.21-39.84    c2.79-2.92,6.24-5.43,7.91-9.22c-6.25,1.34-11.7,4.92-17.34,7.76c-15.79,8.76-30.24,19.68-44.77,30.33    c-0.92,0.6-1.86,1.16-2.86,1.55c-14.84-11.56-28.7-24.69-40.05-39.74c2.21-1.67,4.93-2.38,7.51-3.3    c23.03-8.33,47.44-11.57,71.08-17.69c2.81-0.86,6.08-0.93,8.43-2.88c-32.32-2.63-64,5.95-95.53,11.61    c-2.2-9.09-4.95-18.22-5.02-27.63C2320.499,382.728,2330.979,371.478,2342.689,365.188"/>
		<path fill="#3E8638" d="M2046.919,486.428c45.12-58.49,109.1-102.28,180.07-122.84c-5.26,3.15-11.04,5.34-16.17,8.71    c-17.47,10.51-32.35,26.13-39.69,45.36c-7.31,18.48-5.76,39.18-0.36,57.95c2.05,8.52,5.62,16.56,8.31,24.87    c-3.42,4.26-8.29,7.07-12.18,10.871c-16.6,14.75-31.94,30.84-46.59,47.5c-4.39,4.71-8.11,10.05-12.82,14.45    c-9.64-20.45-18.46-41.87-20.1-64.66c-0.34-9.41-0.49-18.95,1.7-28.17c1.52-8.78,4.54-17.24,5.88-26.04    c-3.63,0.87-5.74,4.3-8.28,6.75c-13.17,14.25-22.02,32.59-24.27,51.92c-3.61,31.23,5.16,62.47,18.55,90.45    c3.73,7.59-2.7,14.56-5.91,20.99c-13.47,22.63-22.66,47.4-32.33,71.8c-16.57-30.43-24.68-65.12-26.14-99.61    c-0.33,0.05-0.99,0.15-1.32,0.2c-8.55,20.45-9.28,43.41-5.85,65.08c3.33,21.49,10.79,42.09,19.02,62.13    c1.35,3.54,3.36,6.86,4.15,10.6c0.91,11.62-1.08,23.21-0.93,34.84c0.03,9.67-1.5,19.33-0.54,29.01    c0.65,16.14,2.4,32.53,8.16,47.72c0.43,0.07,1.29,0.21,1.72,0.28c2.52-27.99,1.26-56.58,8.33-83.98c2.76,1.73,4.44,4.64,6.56,7.05    c19.78,23.77,41.11,46.44,65.39,65.69c2.55,2.1,5.57,3.73,7.63,6.39c-1.17,8.09-4.09,15.83-5.89,23.81    c-3.23,13.41-6.91,26.72-9.7,40.25c-1.38,5.19-1.65,10.66-3.47,15.75c-4.34-1.95-7.68-5.49-11.38-8.38    c-14.63-12.34-27.06-27.02-41.3-39.78c-1.3-1.13-2.73-2.08-4.19-2.92c1.88,6.22,5.64,11.62,8.91,17.18    c9.83,15.45,22.07,29.16,34.45,42.59c39.56,41.78,89.51,73.7,144.13,91.84c27.38,9.24,56.08,13.55,84.62,17.38    c30.62,3.91,61.49-0.66,91.58-6.38c18.83-4.03,38.1-7.64,55.41-16.47c1.25-0.65,2.5-1.46,3.08-2.8    c-27.29,3.12-54.56,7.61-82.1,7.55c-15.03,0.22-30.15,0.1-45.04-2.17c12.68-6.96,25.81-13.12,38.34-20.36    c10.48-5.88,20.27-12.88,29.74-20.26c9.01-7.26,17.06-15.79,26.87-22.02c5.52-1.38,11.39-0.28,17.06-0.69    c31.13-1.28,62.79-3.45,92.43-13.82c25.52-8.9,50.45-20.99,70.64-39.25c-29.17,43.95-68.64,80.95-114.02,107.79    c-22.76,13.52-47.14,24.21-72.26,32.5c-10.13,3.12-20.44,5.61-30.68,8.31c-64.61,14.32-133.21,10.61-195.7-11.29    c-62.29-21.61-118.22-61.05-159.5-112.45c-49.58-61.53-78.11-140-78.29-219.1C1971.149,628.938,1997.999,549.208,2046.919,486.428    "/>
		<path fill="#3E8638" d="M2241.689,482.208c18.59-12.13,37.85-23.45,58.17-32.42c2.19,1.84,3.52,4.45,5.3,6.68    c12.21,15.59,26.72,29.27,42.36,41.37c-0.45,1.17-1.55,1.91-2.37,2.81c-16.11,14.54-31.21,30.16-45.83,46.2    c-3.45,3.67-6.43,7.81-10.28,11.09c-12.05-8.51-22.88-18.68-33.37-29.01c-8.03-8.03-15.65-16.47-22.64-25.41    c-2.48-3.26-5.33-6.27-7.22-9.91C2230.639,489.218,2236.379,485.968,2241.689,482.208"/>
		<path fill="#3E8638" d="M2617.339,497.598c18.31,25.73,33.23,53.88,44.18,83.51c0.91,2.54,1.68,5.31,0.9,8.01    c-3.19,13.63-11.75,25.48-21.91,34.86c-19.9,17.52-46.61,24.47-72.41,27.19c-3.19,0.08-6.6,1.24-9.66,0.19    c-0.63-26.88-3.11-53.75-7.76-80.25c-0.62-3.75-1.56-7.48-1.46-11.29c14.88-2.95,30.32-5.55,43.47-13.61    c12.31-7.15,21.99-19.51,24.29-33.73C2617.749,507.548,2617.379,502.548,2617.339,497.598"/>
		<path fill="#3E8638" d="M2355.969,518.488c3.08-2.86,5.37-6.74,9.04-8.87c13.63,8.39,27.58,16.37,42.36,22.62    c10.22,4.71,20.92,8.25,31.38,12.39c-7.25,27.1-17.43,53.34-27.25,79.59c-5.53-0.8-10.49-3.67-15.71-5.46    c-18.52-7.54-36.59-16.18-54.01-25.99c-10.74-6.18-21.61-12.25-31.68-19.46c1.11-2.87,3.44-5.01,5.3-7.4    C2328.429,549.698,2341.929,533.849,2355.969,518.488"/>
		<path fill="#3E8638" d="M2181.429,529.918c3.11-2.76,5.66-6.4,9.48-8.22c3.76,3.94,6.42,8.82,10.05,12.9    c17.05,21.81,37.09,41.17,58.87,58.21c-3.62,6.34-8.55,11.83-12.6,17.9c-14.9,20.98-29.1,42.46-42.91,64.17    c-0.62,1.38-2.22,2.07-3.31,0.76c-26.54-20.88-51.26-44.26-72.25-70.76c-2.1-2.68-4.48-5.2-5.96-8.28    c3.98-6.27,9.12-11.72,13.7-17.54C2150.549,561.848,2165.419,545.318,2181.429,529.918"/>
		<path fill="#3E8638" d="M2457.269,550.668c6.88,0.4,13.5,2.65,20.35,3.49c17.87,3.12,35.93,5.53,54.09,5.86    c1.4,4.69,1.38,9.65,2.09,14.47c2.89,25.24,4.64,50.64,4,76.06c-6.97,0.37-13.91-0.7-20.83-1.29    c-21.85-2.25-43.46-6.43-64.72-11.91c-5.75-1.58-11.74-2.53-17.18-5.02c4.99-18.53,11.02-36.83,15.42-55.54    C2453.009,568.148,2454.389,559.188,2457.269,550.668"/>
		<path fill="#3E8638" d="M2282.269,609.028c29.58,19.56,61.24,35.97,94.18,49.16c6.14,2.69,12.63,4.58,18.65,7.56    c-1.2,4.98-3.85,9.44-5.66,14.21c-8.16,19.06-16.41,38.08-25.15,56.88c-3.55,7.03-6.39,14.45-10.39,21.24    c-42.51-15.83-83.71-35.65-121.45-60.91c-2.13-1.42-4.39-2.69-6.13-4.56C2244.279,664.318,2262.359,636.008,2282.269,609.028"/>
		<path fill="#3E8638" d="M2666.469,639.978c3.34-4.44,5.29-9.68,8.22-14.36c6.95,32.1,10.13,65.12,8.13,97.95    c-0.46,5.58,0.3,11.55-2.07,16.79c-7.76,11.52-19.38,19.65-31.04,26.83c-27.05,15.98-58.47,23.04-89.58,24.98    c-7.62,0.12-15.27,1.11-22.87,0.31c8.48-29.17,13.17-59.27,17.53-89.29c0.61-3.71,0.8-7.48,1.79-11.11    c13.93-2.75,28.07-4.63,41.86-8.11C2625.009,677.288,2650.639,662.828,2666.469,639.978"/>
		<path fill="#3E8638" d="M2098.499,633.848c4.66,5.47,8.52,11.59,13.18,17.09c14.28,17.59,30.4,33.62,47.46,48.5    c7.04,6.35,14.73,11.96,21.73,18.35c-2.32,5.92-5.88,11.29-8.47,17.11c-9.75,19.78-18.22,40.17-26.45,60.62    c-1.37,3.28-2.39,6.74-4.13,9.87c-1.26,0.31-2.14-1.03-3.11-1.53c-28.04-22.39-54.27-47.36-75.78-76.17    c-1.41-2.28-4.47-4.51-3.18-7.46C2070.009,690.338,2082.949,661.368,2098.499,633.848"/>
		<path fill="#3E8638" d="M2420.409,673.908c7.75,1.19,15.22,3.79,22.89,5.43c30,6.79,60.63,11.89,91.47,11.62    c0.1,6.79-1.55,13.45-2.36,20.16c-3.71,23.54-9.03,46.84-16.37,69.52c-1.38,3.89-2.18,8.04-4.26,11.64    c-5.29,0.35-10.54-0.72-15.78-1.15c-38.13-4.09-75.99-11.39-112.58-22.95c-0.57-0.23-1.72-0.7-2.3-0.93    c0.43-2.75,1.81-5.2,3.01-7.67C2397.399,731.538,2409.359,702.878,2420.409,673.908"/>
		<path fill="#3E8638" d="M2203.269,733.748c5.83,2.77,10.95,6.81,16.57,10c31.54,19.12,64.63,35.73,99.05,49.02    c4.95,2.09,10.24,3.37,15.05,5.82c-6.34,13.29-13.88,26-20.91,38.94c-8.57,15.31-17.46,30.45-26.57,45.44    c-0.75,2.06-3.04,1.16-4.53,0.66c-27.46-10.81-54.11-23.68-79.78-38.25c-13.77-7.94-27.57-15.95-40.6-25.03    C2173.689,790.698,2188.009,761.908,2203.269,733.748"/>
		<path fill="#3E8638" d="M2663.369,785.878c4.66-3.88,8.28-8.85,12.98-12.69c-0.43,8.04-3.51,15.59-5.08,23.43    c-7.13,27.17-17.62,53.46-31.06,78.12c-2.22,3.91-3.98,8.56-8.21,10.74c-10.41,6.02-20.63,12.48-31.69,17.28    c-28.28,12.06-58.62,18.94-89.22,21.41c-13.53,1.71-27.18,0.86-40.77,1.17c15.76-22.34,30.3-45.6,42.39-70.15    c4.04-7.8,7.14-16.07,11.05-23.92c29.08-1.48,58.47-4.95,86.02-14.92C2629.229,809.428,2647.639,799.298,2663.369,785.878"/>
		<path fill="#3E8638" d="M2360.209,807.038c34.24,10.33,69.49,17.21,105.01,21.36c10.52,1.46,21.18,1.84,31.7,3.19    c-4.31,10.81-10.2,20.95-15.61,31.26c-10.44,19.02-22.14,37.38-35.46,54.53c-1.68,1.92-2.8,4.61-5.12,5.8    c-3.93,0.34-7.83-0.57-11.71-0.99c-41.12-5.15-81.67-14.93-120.68-28.89c3.03-5.63,7.01-10.68,10.35-16.12    c10.64-16.53,20.98-33.26,30.6-50.42C2353.089,820.278,2356.209,813.398,2360.209,807.038"/>
		<path fill="#3E8638" d="M2147.399,855.818c1.19-0.34,2.17,0.72,3.2,1.2c26.8,18.19,55.34,33.74,84.78,47.19    c9.42,4.46,19.17,8.23,28.64,12.57c-2.6,5.38-6.69,9.86-9.91,14.87c-10.76,15.09-22.04,29.81-33.9,44.05    c-2.35,2.78-4.46,5.81-7.27,8.15c-13.07-5.07-25.5-11.73-37.87-18.32c-17.61-9.64-34.61-20.39-50.88-32.12    c-1.25-0.74-2.24-1.94-1.5-3.39C2130.239,905.078,2137.449,879.918,2147.399,855.818"/>
		<path fill="#3E8638" d="M2284.479,926.008c0.96-1.89,3.14-1.02,4.71-0.57c30.84,10.61,62.72,17.91,94.86,23.33    c9.96,1.6,19.91,3.36,29.96,4.34c-6.27,6.84-13.57,12.69-20.54,18.8c-18.03,14.99-37.5,28.58-59.1,37.92    c-4.91,2.03-9.83,4.89-15.34,4.51c-19.9-1.17-39.28-6.43-58.12-12.69c-10.89-3.72-21.91-7.12-32.64-11.25    c8.49-9.99,18.01-19.12,26.58-29.08C2265.059,949.828,2274.999,938.098,2284.479,926.008"/>
	</g>
</g>
</svg>