<?xml version="1.0" encoding="UTF-8"?>
<!-- Generator: Adobe Illustrator 17.0.0, SVG Export Plug-In . SVG Version: 6.00 Build 0)  -->
<!DOCTYPE svg PUBLIC "-//W3C//DTD SVG 1.1//EN" "http://www.w3.org/Graphics/SVG/1.1/DTD/svg11.dtd">
<svg version="1.1" id="Layer_1" xmlns="http://www.w3.org/2000/svg" xmlns:xlink="http://www.w3.org/1999/xlink" x="0px" y="0px" width="652px" height="302px" viewBox="0 0 652 302" enable-background="new 0 0 652 302" xml:space="preserve"><script xmlns="" type="text/javascript" charset="utf-8" id="zm-extension"/>
<g>
	<g>
		<path fill="#0054A5" d="M177.166,159.187c0.209-0.523,0.317-0.835,0.456-1.133c1.963-4.196,3.904-8.402,5.903-12.581    c1.771-3.702,4.694-6.031,8.695-6.954c0.902-0.208,1.848-0.321,2.774-0.322c17.413-0.019,34.826-0.014,52.238-0.011    c0.359,0,0.717,0.037,1.223,0.066c-0.191,0.5-0.321,0.877-0.477,1.243c-3.46,8.108-6.922,16.216-10.385,24.323    c-2.069,4.844-4.122,9.694-6.215,14.527c-3.035,7.007-8.074,12.033-15.078,15.066c-2.973,1.287-6.089,2.03-9.336,2.167    c-1.306,0.055-2.613,0.106-3.92,0.106c-13.826,0.008-27.651,0.005-41.477,0.003c-0.438,0-0.876-0.02-1.239-0.029    c-0.088-0.139-0.117-0.169-0.125-0.203c-0.008-0.034-0.004-0.077,0.011-0.109c3.297-7.076,6.594-14.152,9.895-21.227    c0.11-0.235,0.247-0.458,0.406-0.75c0.465-0.013,0.946-0.037,1.427-0.037c9.117-0.002,18.235,0.056,27.352-0.021    c6.802-0.058,11.627-3.292,14.434-9.5c0.523-1.157,1.008-2.332,1.502-3.502c0.128-0.303,0.223-0.619,0.344-0.958    c-0.43-0.26-0.848-0.16-1.239-0.161c-3.475-0.009-6.95-0.005-10.425-0.005c-8.407,0-16.815,0-25.222,0    C178.242,159.187,177.799,159.187,177.166,159.187z"/>
		<path fill="#FFDE00" d="M193.401,106.143c-0.148,0.414-0.205,0.624-0.296,0.819c-1.723,3.687-3.454,7.371-5.175,11.059    c-2.336,5.008-4.663,10.02-6.997,15.029c-1.199,2.572-2.407,5.14-3.607,7.711c-2.463,5.278-4.923,10.558-7.385,15.837    c-1.152,2.47-2.306,4.94-3.459,7.409c-2.591,5.548-5.173,11.1-7.778,16.642c-0.809,1.722-1.575,3.476-2.537,5.112    c-3.059,5.2-7.683,8.234-13.543,9.424c-1.053,0.214-2.15,0.284-3.227,0.29c-5.042,0.031-10.085,0.018-15.128,0.015    c-0.324,0-0.647-0.046-1.07-0.078c0.108-0.339,0.16-0.587,0.263-0.81c1.379-2.982,2.763-5.962,4.151-8.94    c2.459-5.28,4.921-10.559,7.383-15.838c1.152-2.47,2.308-4.939,3.461-7.408c2.575-5.514,5.15-11.028,7.725-16.542    c1.169-2.503,2.34-5.006,3.509-7.51c2.495-5.346,4.972-10.7,7.49-16.035c1.098-2.328,2.12-4.714,3.451-6.907    c2.879-4.743,7.197-7.58,12.576-8.818c1.494-0.344,3.015-0.477,4.556-0.469c4.744,0.024,9.488,0.009,14.232,0.009    C192.399,106.143,192.804,106.143,193.401,106.143z"/>
		<path fill="#0054A5" d="M540.359,104.776c0,12.83,0,25.479,0,38.222c1.779,0.189,3.454-0.012,5.141,0.132    c0.054,0.271,0.123,0.482,0.135,0.697c0.13,2.36,0.036,12.924-0.127,13.824c-0.184,0.043-0.393,0.133-0.602,0.134    c-2.017,0.011-4.034,0.018-6.052,0.003c-1.154-0.008-2.112-0.439-2.754-1.44c-0.331-0.516-0.476-1.086-0.466-1.703    c0.013-0.855,0.003-1.71,0.003-2.48c-0.403-0.385-0.794-0.295-1.155-0.297c-1.718-0.009-3.437-0.004-5.155-0.004    c-7.322,0-14.643-0.001-21.965,0.002c-0.476,0-0.953,0.035-1.521,0.058c-0.024,0.485-0.051,0.884-0.061,1.283    c-0.013,0.56,0.022,1.123-0.025,1.68c-0.131,1.544-1.156,2.619-2.687,2.857c-0.184,0.029-0.371,0.047-0.557,0.048    c-1.98,0.003-3.96,0.005-5.94-0.001c-0.217-0.001-0.434-0.056-0.707-0.093c-0.238-1.209-0.088-2.398-0.114-3.576    c-0.027-1.232-0.006-2.465-0.006-3.698c0-1.195,0-2.391,0-3.586c0-1.189,0-2.377,0-3.595c1.226-0.335,2.394-0.026,3.606-0.243    c0.236-0.314,0.517-0.658,0.768-1.024c2.417-3.53,3.956-7.438,4.957-11.573c0.74-3.054,1.179-6.156,1.439-9.287    c0.328-3.95,0.411-7.906,0.388-11.866c-0.003-0.486-0.006-0.971,0.002-1.457c0.03-1.783,1.027-2.854,2.799-2.999    c0.334-0.027,0.672-0.017,1.008-0.017c9.376-0.001,18.753-0.001,28.129-0.001C539.283,104.776,539.725,104.776,540.359,104.776z     M530.015,113.371c-1.117-0.198-11.826-0.195-12.762-0.017c-0.038,0.095-0.108,0.195-0.115,0.3    c-0.025,0.372-0.036,0.745-0.039,1.118c-0.025,3.102-0.149,6.195-0.49,9.283c-0.698,6.335-2.29,12.401-5.244,18.078    c-0.132,0.253-0.215,0.532-0.362,0.9c0.474,0.019,0.839,0.046,1.204,0.046c1.98,0.004,3.96,0.002,5.941,0.002    c3.512,0,7.024,0.005,10.536-0.006c0.433-0.001,0.898,0.121,1.331-0.218C530.015,133.057,530.015,123.241,530.015,113.371z"/>
		<path fill="#0054A5" d="M261.317,106.027c-0.174,0.489-0.259,0.771-0.374,1.04c-1.714,4.02-3.391,8.057-5.159,12.053    c-2.52,5.698-6.8,9.452-12.765,11.257c-1.76,0.533-3.571,0.783-5.415,0.783c-15.394-0.001-30.789-0.001-46.183-0.001    c-0.37,0-0.74,0-1.222,0c0.083-0.337,0.105-0.586,0.204-0.798c2.066-4.436,4.045-8.916,6.238-13.288    c3.16-6.298,8.36-9.882,15.311-10.927c0.771-0.116,1.565-0.114,2.349-0.114c15.245-0.006,30.49-0.005,45.735-0.005    C260.404,106.027,260.771,106.027,261.317,106.027z"/>
		<path fill="#0054A5" d="M411.844,151.808c0-15.554,0-30.943,0.004-46.332c0-0.177,0.061-0.354,0.089-0.511    c1.032-0.233,24.367-0.338,33.647-0.159c0.326,0.006,0.651,0.054,1.06,0.09c0.07,2.089,0.161,4.102-0.039,6.104    c-0.116,1.153-1.164,2.082-2.338,2.259c-0.477,0.072-0.968,0.071-1.453,0.071c-6.389,0.004-12.779,0.001-19.168,0.008    c-0.474,0.001-0.972-0.109-1.522,0.233c-0.037,2.625-0.018,5.301-0.013,7.91c0.505,0.376,0.969,0.257,1.403,0.259    c3.587,0.01,7.174,0.015,10.761,0.003c2.293-0.008,4.553,0.224,6.743,0.922c0.887,0.283,1.772,0.607,2.602,1.025    c4.226,2.129,6.579,5.604,7.266,10.254c0.342,2.317,0.274,4.619-0.226,6.905c-0.962,4.402-3.529,7.506-7.634,9.334    c-2.209,0.984-4.548,1.451-6.95,1.614c-0.856,0.058-1.718,0.064-2.577,0.064c-6.688,0.005-13.376,0.004-20.065,0.001    C412.957,151.862,412.48,151.831,411.844,151.808z M422.25,143.317c0.232,0.037,0.484,0.112,0.736,0.112    c3.4,0.006,6.8,0.027,10.2-0.011c1.342-0.015,2.687-0.127,3.972-0.597c1.983-0.725,3.216-2.092,3.67-4.17    c0.235-1.075,0.271-2.157,0.132-3.232c-0.323-2.495-1.683-4.171-4.088-4.978c-1.073-0.36-2.18-0.554-3.301-0.564    c-3.549-0.031-7.099-0.022-10.648-0.017c-0.243,0-0.486,0.092-0.703,0.136C422.04,131.198,422.067,142.411,422.25,143.317z"/>
		<path fill="#0054A5" d="M361.546,104.858c-0.867,1.087-1.772,1.902-2.618,2.769c-0.861,0.882-1.725,1.762-2.593,2.637    c-0.868,0.876-1.744,1.744-2.613,2.618c-0.843,0.848-1.682,1.699-2.523,2.549c-0.868,0.876-1.735,1.752-2.605,2.626    c-0.87,0.874-1.745,1.742-2.613,2.618c-0.865,0.873-1.725,1.752-2.651,2.694c0.236,0.365,0.442,0.708,0.672,1.034    c6.17,8.723,12.343,17.444,18.514,26.167c0.252,0.357,0.487,0.726,0.804,1.201c-0.43,0.04-0.713,0.088-0.995,0.089    c-3.288,0.005-6.576-0.022-9.863,0.014c-1.411,0.016-2.393-0.559-3.171-1.72c-4.096-6.114-8.225-12.207-12.344-18.305    c-0.225-0.334-0.467-0.657-0.77-1.081c-2.032,2.01-3.99,3.946-5.973,5.906c0,2.528,0.009,5.029-0.003,7.53    c-0.012,2.494,0.053,4.989-0.045,7.525c-1.179,0.263-2.296,0.1-3.402,0.129c-1.083,0.028-2.167,0.009-3.25,0.005    c-1.115-0.004-2.23-0.014-3.387-0.022c-0.054-0.341-0.109-0.589-0.129-0.84c-0.02-0.26-0.006-0.523-0.006-0.784    c0-14.609-0.001-29.217,0.002-43.826c0-0.475,0.03-0.95,0.046-1.432c0.235-0.064,0.374-0.136,0.514-0.136    c3.026-0.007,6.052-0.008,9.078-0.002c0.141,0,0.281,0.066,0.524,0.126c0.019,0.441,0.055,0.877,0.055,1.313    c0.004,5.492,0.003,10.984,0.003,16.477c0,0.407,0,0.813,0,1.383c0.299-0.207,0.489-0.296,0.623-0.437    c5.369-5.669,10.762-11.316,16.075-17.037c1.219-1.313,2.517-1.931,4.314-1.871c3.023,0.101,6.052,0.026,9.078,0.03    C360.654,104.805,361.014,104.834,361.546,104.858z"/>
		<path fill="#0054A5" d="M378.005,135.035c-0.026,0.517-0.068,0.953-0.068,1.39c-0.005,3.885,0.002,7.771-0.009,11.656    c-0.001,0.519-0.023,1.052-0.139,1.555c-0.275,1.196-1.225,2.132-2.419,2.167c-2.496,0.073-4.996,0.022-7.553,0.022    c-0.055-0.293-0.121-0.537-0.141-0.785c-0.024-0.297-0.008-0.597-0.008-0.896c0-14.571,0-29.141,0-43.712c0-0.482,0-0.964,0-1.502    c0.323-0.06,0.565-0.122,0.812-0.147c0.222-0.023,0.448-0.007,0.672-0.007c6.015,0,12.03-0.008,18.045,0.004    c2.508,0.005,5.013,0.14,7.431,0.865c1.175,0.352,2.346,0.778,3.438,1.331c3.268,1.654,5.419,4.28,6.441,7.802    c0.882,3.04,0.943,6.127,0.268,9.201c-1.046,4.76-3.978,7.923-8.486,9.664c-2.434,0.94-4.979,1.305-7.575,1.322    c-3.138,0.021-6.277,0.003-9.415,0.008C378.898,134.975,378.496,135.011,378.005,135.035z M377.992,126.784    c0.531,0.025,0.935,0.058,1.339,0.059c2.127,0.005,4.254,0.015,6.381-0.003c1.044-0.009,2.088-0.059,3.13-0.117    c0.976-0.054,1.916-0.287,2.819-0.663c1.659-0.693,2.724-1.906,3.204-3.641c0.304-1.098,0.311-2.215,0.216-3.333    c-0.218-2.556-1.526-4.305-3.947-5.194c-1.132-0.416-2.313-0.603-3.511-0.613c-2.91-0.025-5.821-0.018-8.731-0.014    c-0.285,0-0.569,0.07-0.899,0.113C377.992,117.849,377.992,122.24,377.992,126.784z"/>
		<path fill="#FFDE00" d="M103.869,106.143c0.599,0,0.965,0,1.33,0c4.743,0,9.487-0.05,14.229,0.013    c5.795,0.076,10.279,2.597,13.249,7.586c2.711,4.554,5.293,9.186,7.93,13.785c0.984,1.716,1.965,3.435,2.945,5.154    c0.092,0.16,0.169,0.329,0.287,0.56c-3.961,8.362-7.904,16.761-11.963,25.271c-0.222-0.297-0.37-0.451-0.467-0.632    c-1.574-2.926-3.145-5.854-4.708-8.786c-3.003-5.634-6-11.27-8.999-16.906c-1.403-2.637-2.8-5.277-4.203-7.913    c-2.929-5.504-5.861-11.006-8.791-16.509C104.465,107.308,104.232,106.845,103.869,106.143z"/>
		<path fill="#0054A5" d="M315.123,105.024c-0.139,0.328-0.261,0.64-0.4,0.944c-5.163,11.277-10.312,22.561-15.508,33.823    c-0.906,1.963-1.973,3.856-3.044,5.737c-0.514,0.903-1.17,1.735-1.83,2.544c-2.238,2.747-5.146,4.276-8.671,4.586    c-2.21,0.194-4.406,0.075-6.546-0.588c-0.35-0.109-0.693-0.243-1-0.352c-0.192-1.059-0.188-7.628,0.009-8.648    c0.359,0.11,0.709,0.215,1.057,0.326c1.328,0.421,2.683,0.667,4.081,0.589c0.408-0.023,0.821-0.073,1.216-0.173    c2.339-0.593,3.578-2.462,3.075-4.813c-0.224-1.048-0.628-2.074-1.077-3.052c-1.138-2.478-2.356-4.919-3.528-7.381    c-3.579-7.523-7.152-15.049-10.725-22.575c-0.156-0.328-0.284-0.67-0.466-1.103c0.339-0.045,0.582-0.105,0.825-0.106    c2.691-0.007,5.381,0.002,8.072-0.006c1.682-0.005,2.785,0.741,3.456,2.321c2.991,7.05,6.031,14.079,9.059,21.113    c0.156,0.363,0.226,0.788,0.668,1.101c0.188-0.42,0.358-0.785,0.515-1.156c2.918-6.919,5.833-13.838,8.749-20.757    c0.087-0.207,0.175-0.413,0.26-0.62c0.525-1.279,1.508-1.914,2.86-1.986c0.708-0.038,1.42-0.013,2.13-0.014    c1.943-0.001,3.886-0.005,5.829,0.005C314.5,104.783,314.86,104.674,315.123,105.024z"/>
		<path fill="#0054A5" d="M476.189,129.472c0.262-0.555,0.428-0.876,0.568-1.207c2.901-6.881,5.799-13.764,8.699-20.647    c0.116-0.275,0.242-0.546,0.356-0.822c0.547-1.321,1.569-1.941,2.963-2.012c0.186-0.01,0.373-0.006,0.56-0.006    c2.391,0,4.781-0.003,7.172,0.002c0.326,0.001,0.651,0.034,1.004,0.054c0.037,0.509-0.217,0.852-0.383,1.214    c-2.686,5.875-5.378,11.748-8.07,17.62c-2.63,5.737-5.254,11.476-7.898,17.206c-0.987,2.139-2.089,4.224-3.523,6.101    c-0.722,0.945-1.516,1.854-2.385,2.665c-1.984,1.854-4.416,2.764-7.088,3.012c-2.208,0.205-4.404,0.087-6.545-0.567    c-0.352-0.107-0.697-0.237-1.004-0.342c-0.234-0.974-0.247-7.544-0.016-8.621c0.315,0.081,0.631,0.148,0.937,0.244    c1.291,0.404,2.602,0.671,3.963,0.627c0.261-0.008,0.524-0.011,0.783-0.043c2.774-0.349,4.298-2.444,3.673-5.167    c-0.223-0.972-0.594-1.929-1.023-2.833c-4.735-9.988-9.496-19.963-14.247-29.943c-0.156-0.327-0.283-0.668-0.467-1.105    c0.346-0.052,0.588-0.118,0.829-0.119c2.727-0.007,5.453-0.004,8.18-0.005c1.594,0,2.655,0.728,3.288,2.215    c2.984,7.009,6.001,14.004,9.008,21.003C475.699,128.404,475.889,128.806,476.189,129.472z"/>
		<path d="M505.493,177.277c0.444,0.142,0.769,0.224,1.077,0.348c2.597,1.047,4.537,3.33,4.118,6.812    c-0.308,2.555-1.676,4.337-4.017,5.376c-1.172,0.52-2.407,0.826-3.688,0.838c-3.546,0.034-7.093,0.036-10.639,0.046    c-0.182,0.001-0.363-0.043-0.551-0.067c-0.29-0.467-0.172-0.964-0.172-1.434c-0.008-7.467-0.005-14.934-0.005-22.401    c0-0.336-0.001-0.672,0.014-1.008c0.006-0.142,0.052-0.283,0.092-0.482c0.271-0.03,0.521-0.082,0.772-0.083    c3.323-0.005,6.646-0.008,9.968,0.002c1.399,0.004,2.744,0.276,4.006,0.901c2.706,1.341,4.061,4.502,3.147,7.383    c-0.491,1.55-1.534,2.619-2.996,3.294C506.287,176.954,505.948,177.086,505.493,177.277z M493.249,189.102    c0.232,0.086,0.3,0.133,0.367,0.133c3.17-0.005,6.34,0.019,9.509-0.039c1.159-0.021,2.282-0.36,3.313-0.926    c1.124-0.617,1.947-1.498,2.323-2.745c0.294-0.976,0.375-1.966,0.214-2.984c-0.158-1.001-0.6-1.833-1.312-2.535    c-0.623-0.615-1.375-1.013-2.198-1.294c-1.073-0.367-2.182-0.487-3.305-0.492c-2.648-0.012-5.297-0.007-7.945,0    c-0.286,0.001-0.571,0.06-0.97,0.105C493.246,181.951,493.241,185.517,493.249,189.102z M493.302,176.596    c0.207,0.056,0.278,0.092,0.349,0.092c3.061,0.001,6.122,0.039,9.182-0.029c0.836-0.019,1.706-0.256,2.488-0.571    c1.907-0.77,2.983-2.617,2.896-4.746c-0.084-2.047-1.216-3.584-3.255-4.216c-0.88-0.273-1.826-0.436-2.746-0.456    c-2.724-0.059-5.45-0.025-8.175-0.017c-0.245,0.001-0.489,0.078-0.739,0.121C493.302,170.081,493.302,173.317,493.302,176.596z"/>
		<path d="M275.705,190.641c-0.051-0.277-0.126-0.491-0.126-0.705c-0.006-8.172-0.005-16.345-0.005-24.571    c0.3-0.06,0.508-0.138,0.716-0.138c5.378-0.006,10.757-0.005,16.135-0.001c0.146,0,0.291,0.039,0.434,0.06    c0.325,0.38,0.165,0.782,0.151,1.164c-0.445,0.301-0.906,0.189-1.34,0.19c-4.333,0.009-8.665,0.004-12.998,0.007    c-0.403,0-0.807,0.027-1.259,0.043c-0.258,1.084-0.103,2.126-0.13,3.155c-0.028,1.045-0.006,2.091-0.006,3.137    c0,1.041,0,2.081,0,3.046c0.454,0.385,0.883,0.276,1.279,0.278c2.54,0.011,5.08-0.006,7.619,0.012    c0.857,0.006,1.719,0.049,2.571,0.145c2.948,0.33,5.097,2.148,5.759,4.873c0.34,1.398,0.353,2.816,0.007,4.217    c-0.701,2.838-3.058,4.779-6.139,5.073c-0.52,0.05-1.044,0.072-1.566,0.073c-3.361,0.007-6.723,0.005-10.084,0.001    C276.392,190.701,276.063,190.663,275.705,190.641z M277.33,189.16c0.245,0.044,0.387,0.092,0.528,0.092    c3.247-0.003,6.494,0.001,9.741-0.026c0.904-0.007,1.773-0.251,2.585-0.654c1.671-0.829,2.609-2.19,2.816-4.032    c0.071-0.626,0.076-1.272,0.017-1.899c-0.202-2.128-1.302-3.605-3.312-4.377c-0.81-0.311-1.652-0.447-2.52-0.446    c-2.986,0.003-5.972-0.002-8.958,0.005c-0.285,0.001-0.57,0.062-0.898,0.101C277.33,181.685,277.33,185.371,277.33,189.16z"/>
		<path d="M369.275,174.372c0,2.687,0,5.375,0,8.062c0,2.683,0,5.367,0,8.04c-0.454,0.289-0.845,0.241-1.324,0.124    c-0.032-0.271-0.095-0.557-0.096-0.843c-0.006-5.49-0.005-10.98-0.002-16.47c0-0.255,0.038-0.51,0.064-0.827    c0.725-0.205,1.417-0.095,2.205-0.079c2.329,5.371,4.528,10.782,6.889,16.236c0.453-0.396,0.539-0.85,0.705-1.241    c1.953-4.605,3.894-9.215,5.84-13.823c0.158-0.375,0.332-0.744,0.51-1.143c0.739,0,1.432,0,2.108,0    c0.231,0.94,0.247,17.13,0.022,18.206c-0.37,0-0.753,0-1.224,0c-0.094-2.792-0.032-5.51-0.043-8.227    c-0.011-2.684-0.002-5.369-0.002-8.175c-0.438,0.29-0.485,0.681-0.618,1.001c-1.963,4.722-3.917,9.448-5.875,14.172    c-0.17,0.41-0.361,0.81-0.559,1.252c-0.51,0-0.983,0-1.573,0c-2.305-5.415-4.51-10.9-6.806-16.348    C369.422,174.318,369.349,174.345,369.275,174.372z"/>
		<path d="M437.213,190.881c-0.978-0.232-14.412-0.242-15.449-0.017c-0.181,1.786,0.055,3.611-0.146,5.496c-0.437,0-0.828,0-1.264,0    c-0.326-0.698-0.129-1.451-0.161-2.178c-0.035-0.783-0.019-1.568-0.005-2.352c0.013-0.738-0.068-1.483,0.09-2.32    c0.691-0.033,1.349-0.065,2.094-0.101c0.172-0.335,0.374-0.686,0.539-1.053c0.894-1.991,1.404-4.086,1.71-6.24    c0.384-2.706,0.5-5.425,0.459-8.154c-0.007-0.478,0.022-0.956,0.037-1.511c1.284-0.212,2.509-0.081,3.724-0.104    c1.232-0.023,2.464-0.008,3.697-0.004c1.223,0.003,2.447,0.013,3.773,0.02c0.022,0.54,0.054,0.976,0.054,1.413    c0.004,4.78,0.001,9.559,0.004,14.339c0,0.401,0.03,0.803,0.049,1.275c0.774,0.042,1.466,0.079,2.261,0.123    c0.093,2.317,0.098,4.568-0.004,6.874c-0.468,0-0.83,0-1.283,0c-0.046-0.287-0.126-0.566-0.129-0.846    c-0.015-1.195-0.004-2.39-0.01-3.585C437.254,191.588,437.227,191.222,437.213,190.881z M434.795,173.666    c-1.528-0.14-7.274-0.098-8.193,0.071c-0.021,0.339-0.048,0.703-0.065,1.067c-0.097,2.012-0.146,4.029-0.3,6.037    c-0.207,2.696-0.808,5.308-1.91,7.792c-0.1,0.225-0.146,0.475-0.222,0.729c0.175,0.037,0.283,0.079,0.391,0.079    c3.286,0.003,6.572,0.004,9.858-0.003c0.173,0,0.345-0.08,0.497-0.118C435.016,187.964,434.973,174.571,434.795,173.666z"/>
		<path d="M312.517,190.811c0,1.883,0,3.665,0,5.451c-0.461,0.242-0.856,0.188-1.306,0.123c-0.348-0.706-0.142-1.46-0.176-2.183    c-0.036-0.782-0.011-1.568-0.007-2.352c0.003-0.74,0.013-1.48,0.02-2.239c0.727-0.293,1.416-0.065,2.166-0.237    c0.124-0.224,0.301-0.502,0.437-0.799c0.914-1.981,1.453-4.07,1.775-6.221c0.417-2.778,0.522-5.572,0.481-8.375    c-0.006-0.41,0.015-0.82,0.032-1.23c0.003-0.069,0.051-0.135,0.109-0.283c0.123-0.031,0.294-0.11,0.466-0.11    c3.36-0.007,6.721-0.005,10.081,0c0.143,0,0.286,0.049,0.446,0.079c0.252,0.426,0.163,0.883,0.164,1.318    c0.007,4.742,0.003,9.484,0.006,14.226c0,0.441,0.031,0.881,0.05,1.404c0.767,0.045,1.457,0.085,2.124,0.124    c0.221,0.851,0.272,5.352,0.093,6.729c-0.532,0.186-0.532,0.186-1.205,0.104c-0.298-0.885-0.101-1.82-0.137-2.735    c-0.034-0.892-0.007-1.786-0.007-2.716c-0.277-0.072-0.483-0.173-0.69-0.173c-4.742-0.009-9.484-0.008-14.226-0.004    C313.035,190.712,312.855,190.761,312.517,190.811z M314.879,189.394c0.346,0.025,0.567,0.055,0.787,0.054    c3.281-0.013,6.562-0.03,9.843-0.049c0.031,0,0.063-0.034,0.092-0.055c0.03-0.022,0.056-0.049,0.108-0.096    c0.017-0.121,0.056-0.266,0.056-0.412c0.004-4.849,0.005-9.698-0.001-14.547c0-0.208-0.079-0.415-0.117-0.601    c-1.395-0.164-7.25-0.124-8.159,0.064c-0.024,0.302-0.056,0.626-0.075,0.952c-0.124,2.195-0.195,4.395-0.382,6.585    c-0.207,2.426-0.765,4.781-1.733,7.028C315.166,188.62,315.056,188.934,314.879,189.394z"/>
		<path d="M530.246,189.435c0,0.416,0,0.737,0,1.041c-2.415,0.677-3.418-0.093-3.645-2.847c-0.184,0.188-0.336,0.307-0.443,0.457    c-1.374,1.933-3.284,2.891-5.613,3.001c-0.924,0.044-1.876,0.01-2.783-0.16c-3.106-0.582-4.325-2.672-4.06-5.699    c0.152-1.735,1.094-2.981,2.637-3.771c1.254-0.642,2.626-0.82,4.001-0.971c1.26-0.138,2.522-0.259,3.783-0.395    c0.222-0.024,0.444-0.067,0.659-0.126c1.313-0.363,1.789-0.948,1.875-2.297c0.014-0.223,0.022-0.448,0.024-0.671    c0.015-1.796-0.73-2.888-2.434-3.45c-1.641-0.542-3.304-0.551-4.952-0.013c-1.664,0.543-2.693,1.682-3.07,3.397    c-0.071,0.323-0.123,0.651-0.197,1.047c-0.418,0-0.809,0-1.202,0c-0.27-1.326,0.297-3.054,1.361-4.178    c0.997-1.054,2.269-1.584,3.662-1.764c1.557-0.201,3.126-0.217,4.674,0.158c2.052,0.497,3.599,2.028,3.583,4.509    c-0.021,3.397-0.006,6.794,0,10.192c0.001,0.447,0.009,0.898,0.071,1.339c0.136,0.96,0.418,1.185,1.404,1.199    C529.767,189.438,529.952,189.435,530.246,189.435z M526.628,180.53c-0.984,0.637-1.956,0.729-2.911,0.856    c-0.961,0.128-1.938,0.143-2.896,0.286c-1.066,0.159-2.15,0.308-3.17,0.637c-1.576,0.508-2.447,1.669-2.511,3.347    c-0.082,2.169,0.805,3.47,2.941,4.008c1.061,0.267,2.137,0.284,3.223,0.103c2.979-0.498,5.055-2.658,5.309-5.655    C526.706,183.003,526.628,181.879,526.628,180.53z"/>
		<path d="M475.643,172.412c0.194,1.25,0.171,17.246-0.021,18.203c-0.369,0-0.754,0-1.241,0c-0.023-0.443-0.06-0.843-0.062-1.242    c-0.007-1.793,0.001-3.587-0.007-5.38c-0.002-0.362-0.047-0.723-0.075-1.132c-2.11,0-4.117,0-6.209,0    c-1.962,2.581-3.947,5.192-5.917,7.784c-0.55,0-1.025,0-1.484,0c-0.159-0.412,0.128-0.603,0.296-0.822    c1.545-2.017,3.1-4.026,4.648-6.04c0.221-0.288,0.422-0.591,0.674-0.945c-0.375-0.115-0.656-0.204-0.939-0.289    c-2.51-0.751-3.8-2.701-3.629-5.362c0.168-2.601,1.964-4.463,4.522-4.771c0.37-0.045,0.745-0.068,1.118-0.069    c2.466-0.006,4.932-0.006,7.398-0.001C475.01,172.346,475.304,172.386,475.643,172.412z M474.15,173.669    c-0.177-0.03-0.287-0.064-0.396-0.064c-2.162-0.004-4.323-0.024-6.484,0.007c-0.549,0.008-1.118,0.117-1.64,0.291    c-1.26,0.42-2.08,1.31-2.361,2.608c-0.124,0.571-0.118,1.189-0.068,1.777c0.123,1.438,0.896,2.444,2.258,2.902    c0.66,0.222,1.381,0.344,2.077,0.361c2.011,0.047,4.025,0.019,6.037,0.011c0.21-0.001,0.419-0.065,0.601-0.096    C474.382,180.36,474.364,174.596,474.15,173.669z"/>
		<path d="M363.853,177.766c-0.467,0-0.829,0-1.228,0c-0.111-0.304-0.225-0.575-0.31-0.854c-0.566-1.841-1.843-2.949-3.648-3.466    c-1.468-0.421-2.955-0.397-4.424,0.028c-1.664,0.482-2.9,1.519-3.725,3.026c-0.65,1.187-1.049,2.451-1.018,3.925    c1.118,0.106,2.158,0.044,3.194,0.054c1.083,0.011,2.166,0.003,3.249,0.003c1.039,0,2.077,0,3.193,0    c0.037,0.416,0.065,0.73,0.092,1.033c-0.163,0.084-0.256,0.168-0.356,0.176c-0.371,0.029-0.745,0.042-1.117,0.043    c-2.353,0.003-4.706-0.001-7.059,0.004c-0.402,0.001-0.803,0.032-1.185,0.049c-0.239,0.572-0.098,1.054,0.001,1.514    c0.197,0.908,0.363,1.838,0.698,2.697c0.932,2.39,2.743,3.652,5.29,3.861c1.054,0.086,2.09-0.029,3.093-0.369    c1.852-0.627,3.125-1.847,3.754-3.713c0.129-0.384,0.256-0.769,0.39-1.17c0.44,0,0.834,0,1.346,0    c-0.278,1.876-0.997,3.415-2.359,4.63c-0.821,0.732-1.774,1.246-2.832,1.538c-1.611,0.445-3.246,0.473-4.881,0.151    c-2.24-0.441-3.841-1.74-4.903-3.734c-0.568-1.067-0.886-2.215-1.042-3.409c-0.26-1.982-0.229-3.955,0.346-5.882    c0.931-3.116,2.892-5.202,6.161-5.818c1.7-0.32,3.421-0.288,5.088,0.301c2.267,0.8,3.633,2.402,4.186,4.719    C363.889,177.277,363.853,177.468,363.853,177.766z"/>
		<path d="M407.079,181.62c-0.06,1.654-0.286,3.278-1.019,4.783c-1.472,3.024-3.858,4.619-7.264,4.726    c-3.957,0.125-6.927-2.321-8.026-5.745c-0.848-2.643-0.863-5.299,0.076-7.914c0.998-2.779,2.849-4.765,5.817-5.358    c4.618-0.923,8.038,1.162,9.606,5.02C406.803,178.449,407.115,180.22,407.079,181.62z M391.641,181.477    c-0.021,1.345,0.195,2.663,0.71,3.928c0.443,1.087,1.064,2.052,1.934,2.851c2.658,2.441,7.841,2.433,10.129-1.9    c1.703-3.225,1.678-6.559-0.057-9.774c-1.21-2.244-3.178-3.428-5.768-3.413c-2.586,0.014-4.484,1.234-5.751,3.456    C391.985,178.119,391.628,179.748,391.641,181.477z"/>
		<path d="M332.488,197.285c0-0.496,0-0.82,0-1.245c0.407-0.032,0.769-0.065,1.132-0.089c1.601-0.108,2.759-0.839,3.347-2.375    c0.373-0.975,0.747-1.95,1.139-2.973c-2.489-6.025-5.073-12.015-7.571-18.068c0.557-0.288,1.03-0.192,1.621-0.12    c1.145,2.663,2.218,5.401,3.33,8.122c1.1,2.693,2.202,5.385,3.371,8.245c0.619-1.15,0.918-2.25,1.332-3.299    c0.425-1.077,0.822-2.164,1.229-3.248c0.407-1.084,0.809-2.169,1.215-3.253c0.407-1.084,0.817-2.166,1.225-3.249    c0.407-1.081,0.812-2.163,1.242-3.306c0.492,0,0.956,0,1.447,0c0.109,0.479-0.137,0.833-0.278,1.199    c-1.932,5.017-3.869,10.033-5.816,15.045c-0.689,1.775-1.402,3.54-2.117,5.305c-0.168,0.414-0.376,0.813-0.581,1.212    c-0.633,1.234-1.637,1.905-3.03,1.976C334.024,197.199,333.323,197.239,332.488,197.285z"/>
		<path d="M309.89,172.452c0.561-0.128,1.024-0.199,1.555,0.08c-0.124,0.363-0.231,0.714-0.362,1.056    c-2.408,6.234-4.815,12.469-7.237,18.698c-0.365,0.938-0.789,1.855-1.221,2.766c-0.63,1.33-1.679,2.063-3.172,2.117    c-0.699,0.025-1.4,0.226-2.158-0.015c0-0.337,0-0.658,0-0.972c0.329-0.301,0.724-0.2,1.082-0.224    c1.65-0.111,2.824-0.865,3.414-2.45c0.363-0.977,0.74-1.95,1.112-2.926c-2.53-6.022-5.044-12.004-7.57-18.016    c0.567-0.37,1.067-0.17,1.625-0.189c2.228,5.458,4.435,10.865,6.744,16.524C305.832,183.241,307.864,177.837,309.89,172.452z"/>
		<path d="M446.181,172.515c0.915-0.206,9.644-0.258,11.052-0.084c0.322,0.378,0.186,0.846,0.187,1.276    c0.011,4.222,0.007,8.443,0.007,12.665c0,1.009,0,2.017,0,3.026c0,0.367,0,0.735,0,1.069c-0.654,0.211-0.654,0.211-1.27,0.12    c-0.258-0.401-0.149-0.862-0.15-1.298c-0.008-4.782-0.004-9.564-0.007-14.346c0-0.402-0.028-0.804-0.042-1.182    c-0.906-0.197-6.731-0.249-8.313-0.082c-0.04,0.257-0.111,0.537-0.123,0.819c-0.141,3.321-0.247,6.644-0.424,9.963    c-0.057,1.074-0.278,2.142-0.462,3.205c-0.063,0.362-0.219,0.714-0.371,1.053c-0.993,2.223-3.161,2.98-5.45,1.866    c0-0.335,0-0.696,0-1.161c0.308,0.056,0.584,0.098,0.857,0.158c1.773,0.388,2.91-0.229,3.475-1.953    c0.398-1.215,0.501-2.484,0.55-3.756c0.137-3.546,0.279-7.091,0.421-10.636C446.124,173.016,446.155,172.795,446.181,172.515z"/>
		<path d="M547.976,178.023c-0.533,0-0.895,0-1.314,0c-0.092-0.284-0.199-0.555-0.268-0.836c-0.391-1.6-1.346-2.734-2.848-3.379    c-3.244-1.392-7.353-0.749-9.291,3.471c-0.852,1.856-1.013,3.809-0.759,5.807c0.136,1.077,0.394,2.127,0.865,3.116    c1.936,4.06,6.651,4.375,9.264,2.81c1.488-0.891,2.413-2.193,2.893-3.837c0.073-0.25,0.136-0.502,0.207-0.752    c0.009-0.033,0.043-0.059,0.066-0.088c0.634-0.172,0.634-0.172,1.339,0.025c-0.377,2.685-1.642,4.77-4.126,5.966    c-2.306,1.111-4.709,1.1-7.071,0.176c-1.82-0.712-3.129-2.05-3.897-3.831c-1.391-3.225-1.539-6.527-0.219-9.805    c1.013-2.514,2.876-4.176,5.555-4.747c2.008-0.428,4.021-0.317,5.923,0.552C546.525,173.692,547.697,175.465,547.976,178.023z"/>
	</g>
</g>
</svg>