<?xml version="1.0" encoding="UTF-8"?>
<!-- Generator: Adobe Illustrator 17.0.0, SVG Export Plug-In . SVG Version: 6.00 Build 0)  -->
<!DOCTYPE svg PUBLIC "-//W3C//DTD SVG 1.1//EN" "http://www.w3.org/Graphics/SVG/1.1/DTD/svg11.dtd">
<svg version="1.1" id="Layer_1" xmlns="http://www.w3.org/2000/svg" xmlns:xlink="http://www.w3.org/1999/xlink" x="0px" y="0px" width="283.46px" height="283.46px" viewBox="0 0 283.46 283.46" enable-background="new 0 0 283.46 283.46" xml:space="preserve"><script xmlns="" type="text/javascript" charset="utf-8" id="zm-extension"/>
<g>
	<g>
		<defs>
			<rect id="SVGID_1_" x="33.034" y="91.229" width="217.393" height="101.002"/>
		</defs>
		<clipPath id="SVGID_2_">
			<use xlink:href="#SVGID_1_" overflow="visible"/>
		</clipPath>
		<path clip-path="url(#SVGID_2_)" fill="#1F345D" d="M45.618,173.345c-0.495-1.456-0.783-2.341-0.861-2.653l-4.103,10.691h7.933    L45.618,173.345z M33.034,190.554c1.328-0.131,2.202-0.73,2.618-1.796l9.183-22.865l1.954-0.43l8.637,22.203    c0.678,1.794,1.629,2.785,2.852,2.966l0.006,1.131h-1.804c-1.068,0-3.296-0.074-6.682,0.003v-1.291    c1.434-0.052,1.967-0.558,1.602-1.521l-2.149-5.736h-9.271l-0.147,0.39l-2.501,6.515l3.322,0.43l0.01,1.209h-7.63V190.554z"/>
		<path clip-path="url(#SVGID_2_)" fill="#1F345D" d="M61.04,190.554c1.798-0.209,2.697-1.029,2.697-2.459v-18.456    c0-1.014-0.118-1.652-0.353-1.911c-0.286-0.34-1.094-0.65-2.422-0.938v-1.053h2.93c2.762,0,4.482-0.052,5.16-0.155l0.196,0.155    c-0.861,1.042-1.29,2.641-1.29,4.799v17.56c0,0.756-0.066,1.43-0.196,2.029l3.556,0.351l0.002,1.27l-10.28,0.042V190.554z"/>
		<path clip-path="url(#SVGID_2_)" fill="#1F345D" d="M74.403,190.554c1.798-0.209,2.736-1.016,2.814-2.419l0.781-18.496    c0.052-0.963-0.092-1.6-0.43-1.911c-0.338-0.314-1.225-0.626-2.657-0.938v-1.053h3.009c2.319,0,4.038-0.052,5.158-0.155    l0.157,0.155c0.286,1.171,0.665,2.369,1.133,3.59l5.433,14.008c0.233,0.573,0.481,1.327,0.743,2.264l6.994-17.129    c0.209-0.547,0.495-1.458,0.861-2.733h1.406c2.189,0,3.726-0.052,4.611-0.155l0.196,0.155c-0.913,1.068-1.328,2.707-1.251,4.917    l0.743,17.597c0.026,0.807-0.013,1.471-0.116,1.992l3.36,0.233l-0.155,1.27l-9.967,0.042v-1.233    c1.849-0.209,2.76-0.976,2.736-2.304l-0.781-18.805l-9.146,22.318l-1.176-0.039l-8.866-22.279    c-0.053,0.545-0.092,1.066-0.118,1.56l-0.663,17.131c-0.026,0.726-0.118,1.43-0.273,2.107l3.595,0.233l-0.013,1.27l-8.116,0.021    V190.554z"/>
		<path clip-path="url(#SVGID_2_)" fill="#1F345D" d="M158.619,178.691c1.145,0,2.149-0.468,3.008-1.404    c0.964-1.04,1.446-2.432,1.446-4.174c0-3.746-1.967-5.621-5.901-5.621h-1.662l-0.019,0.43v10.769H158.619z M148.575,190.554    c1.798-0.209,2.697-1.016,2.697-2.419v-18.496c0-0.963-0.159-1.6-0.469-1.911c-0.34-0.34-1.212-0.65-2.619-0.938v-1.053h9.928    c3.255,0,5.731,0.637,7.425,1.912c1.459,1.092,2.187,2.55,2.187,4.37c0,2.759-1.668,5.072-5.001,6.946v0.586l5.627,8.35    c1.094,1.56,2.187,2.393,3.283,2.497l0.429,0.04l0.015,1.325h-6.825l0.011-0.116c-0.443-1.223-1.226-2.653-2.346-4.292    l-4.65-6.946h-2.776l0.002,0.429v7.299c0,0.754-0.065,1.417-0.196,1.988l3.519,0.351l-0.008,1.249l-10.232,0.042V190.554z"/>
		<path clip-path="url(#SVGID_2_)" fill="#1F345D" d="M123.682,169.639c2.683-2.914,6.422-4.37,11.216-4.37    c1.356,0,3.061,0.129,5.119,0.39l3.83,0.468l-1.17,6.127h-1.448c-0.026-3.537-2.202-5.307-6.525-5.307    c-3.179,0-5.681,1.144-7.504,3.433c-1.668,2.107-2.501,4.775-2.501,7.999c0,3.485,1.029,6.336,3.087,8.544    c2.111,2.265,4.847,3.396,8.208,3.396c1.223,0,2.424-0.142,3.597-0.43v-5.385c0-0.987-0.173-1.639-0.51-1.95    c-0.417-0.364-1.446-0.663-3.087-0.898v-1.053h9.187l-0.002,0.623c-1.018,0.469-1.527,1.705-1.527,3.708v6.283    c-5.575,0.675-8.609,1.013-9.104,1.013c-4.116,0-7.517-1.105-10.2-3.315c-2.841-2.393-4.26-5.606-4.26-9.638    C120.087,175.452,121.285,172.241,123.682,169.639"/>
		<path clip-path="url(#SVGID_2_)" fill="#1F345D" d="M179.422,186.455c1.825,2.707,4.182,4.059,7.075,4.059    c2.736,0,4.962-1.223,6.682-3.668c1.537-2.238,2.306-4.904,2.306-7.999c0-3.149-0.807-5.854-2.422-8.117    c-1.799-2.496-4.169-3.746-7.113-3.746c-2.789,0-5.017,1.146-6.684,3.435c-1.563,2.081-2.344,4.631-2.344,7.646    C176.922,181.242,177.755,184.036,179.422,186.455 M175.906,169.6c2.708-2.888,6.318-4.331,10.824-4.331    c4.169,0,7.504,1.249,10.005,3.746c2.319,2.341,3.479,5.283,3.479,8.819c0,3.823-1.29,7.127-3.869,9.912    c-2.815,2.992-6.384,4.487-10.709,4.487c-4.064,0-7.36-1.327-9.887-3.98c-2.344-2.472-3.517-5.514-3.517-9.132    C172.231,175.374,173.456,172.201,175.906,169.6"/>
		<path clip-path="url(#SVGID_2_)" fill="#1F345D" d="M204.16,169.639c0-1.016-0.118-1.652-0.351-1.912    c-0.288-0.338-1.095-0.649-2.424-0.937v-1.053h2.93c2.762,0,4.482-0.052,5.16-0.155l0.196,0.155    c-0.859,1.014-1.29,2.615-1.29,4.799v11.745c0,2.603,0.794,4.619,2.385,6.05c1.378,1.275,3.098,1.912,5.156,1.912    c2.058,0,3.804-0.637,5.237-1.912c1.589-1.43,2.385-3.356,2.385-5.774v-12.72c0-0.99-0.131-1.652-0.392-1.992    c-0.392-0.468-1.277-0.78-2.657-0.937v-1.17h7.776l0.196,0.625c-1.849,0.545-2.775,1.899-2.775,4.058v12.018    c0,3.097-1.055,5.529-3.165,7.297c-1.98,1.665-4.522,2.496-7.621,2.496c-2.972,0-5.42-0.714-7.347-2.145    c-2.268-1.691-3.401-4.187-3.401-7.493V169.639z"/>
		<path clip-path="url(#SVGID_2_)" fill="#1F345D" d="M230.847,190.554c1.798-0.209,2.697-1.016,2.697-2.419v-18.496    c0-0.963-0.157-1.6-0.469-1.911c-0.34-0.34-1.212-0.65-2.619-0.938v-1.053h10.24c2.708,0,4.898,0.482,6.566,1.443    c2.11,1.225,3.165,3.097,3.165,5.621c0,2.755-1.121,4.902-3.361,6.438c-2.006,1.378-4.273,1.938-6.8,1.678v-1.249    c3.647-0.181,5.47-2.12,5.47-5.813c0-2.081-0.676-3.694-2.032-4.839c-1.223-1.014-2.812-1.522-4.766-1.522h-1.194l0.021,0.43    v20.213c0,0.754-0.065,1.417-0.196,1.988l3.713,0.351l-0.01,1.249l-10.437,0.063L230.847,190.554z"/>
	</g>
	<polygon fill="#1F345D" points="152.181,91.229 124.498,118.912 152.181,146.596 158.699,140.075 154.477,135.852 152.181,138.15    132.943,118.912 152.181,99.673 154.509,102.002 158.732,97.78  "/>
	<polygon fill="#1F345D" points="179.864,118.912 163.165,102.213 158.942,106.436 171.42,118.912 158.86,131.472 163.082,135.693     "/>
	<polygon fill="#868686" points="131.279,91.229 124.757,97.751 128.98,101.974 131.279,99.673 150.516,118.912 131.279,138.15    128.975,135.851 124.775,140.051 124.752,140.074 131.279,146.596 158.962,118.912  "/>
	<polygon fill="#868686" points="112.041,118.912 124.598,106.355 120.375,102.132 103.597,118.912 120.479,135.794    124.702,131.572  "/>
	<polygon fill="#1F345D" points="152.181,91.229 124.498,118.912 129.555,122.283 152.181,99.673  "/>
</g>
</svg>