<?xml version="1.0" encoding="UTF-8"?>
<!-- Generator: Adobe Illustrator 17.0.0, SVG Export Plug-In . SVG Version: 6.00 Build 0)  -->
<!DOCTYPE svg PUBLIC "-//W3C//DTD SVG 1.1//EN" "http://www.w3.org/Graphics/SVG/1.1/DTD/svg11.dtd">
<svg version="1.1" id="Layer_1" xmlns="http://www.w3.org/2000/svg" xmlns:xlink="http://www.w3.org/1999/xlink" x="0px" y="0px" width="3000px" height="3000px" viewBox="0 0 3000 3000" enable-background="new 0 0 3000 3000" xml:space="preserve"><script xmlns="" type="text/javascript" charset="utf-8" id="zm-extension"/>
<polygon fill="#4E1757" points="2657.226,1209.724 2450.167,1796.14 738.603,1833.596 735.617,1842.077 2491.937,1897.563   2734.895,1209.724 "/>
<polygon fill="#DEDFE0" points="2594.918,1103.372 2386.821,1698.961 267.428,1733.129 264.399,1741.769 2433.696,1778.216   2672.601,1103.372 "/>
<g>
	<defs>
		<rect id="SVGID_1_" x="264.393" y="1103.383" width="2470.496" height="794.181"/>
	</defs>
	<clipPath id="SVGID_2_">
		<use xlink:href="#SVGID_1_" overflow="visible"/>
	</clipPath>
	<path clip-path="url(#SVGID_2_)" fill="#4E1757" d="M647.794,1540.748c21.303,2.192,42.592,4.385,63.894,6.793   c-7.284,22.442-11.034,33.765-18.043,56.279c-21.476-2.091-42.952-4.183-64.385-6.188   C636.689,1574.988,640.511,1563.421,647.794,1540.748"/>
</g>
<polygon fill="#4E1757" points="744.14,1497.592 610.466,1483.674 567.629,1615.025 557.172,1389.606 "/>
<g>
	<defs>
		<rect id="SVGID_3_" x="264.393" y="1103.383" width="2470.496" height="794.181"/>
	</defs>
	<clipPath id="SVGID_4_">
		<use xlink:href="#SVGID_3_" overflow="visible"/>
	</clipPath>
	<path clip-path="url(#SVGID_4_)" fill="#4E1757" d="M631.348,1219.84c-14.25-32.091-28.486-64.197-42.433-96.476   c37.082-7.832,55.832-11.697,92.784-19.99c14.539,32.279,29.063,64.543,43.659,96.678   C687.901,1207.854,668.747,1211.821,631.348,1219.84"/>
</g>
<polygon fill="#4E1757" points="555.9,1134.794 610.838,1258.977 744.598,1230.852 557.025,1352.742 "/>
<g>
	<defs>
		<rect id="SVGID_5_" x="264.393" y="1103.383" width="2470.496" height="794.181"/>
	</defs>
	<clipPath id="SVGID_6_">
		<use xlink:href="#SVGID_5_" overflow="visible"/>
	</clipPath>
	<path clip-path="url(#SVGID_6_)" fill="#4E1757" d="M360.476,1374.049c-15.649,21.966-31.298,43.947-47.193,65.798   c-19.442-22.024-29.207-33.188-48.894-54.967c15.664-22.226,31.313-44.467,46.861-66.693   C330.807,1340.472,340.788,1351.881,360.476,1374.049"/>
</g>
<polygon fill="#4E1757" points="339.732,1481.262 418.468,1370.997 327.545,1267.771 525.574,1371.3 "/>
<g>
	<defs>
		<rect id="SVGID_7_" x="264.393" y="1103.383" width="2470.496" height="794.181"/>
	</defs>
	<clipPath id="SVGID_8_">
		<use xlink:href="#SVGID_7_" overflow="visible"/>
	</clipPath>
	<path clip-path="url(#SVGID_8_)" fill="#4E1757" d="M922.943,1239.748l-21.534,65.178h44.308l-21.952-65.178H922.943z    M984.804,1350.648c3.202,0.144,6.404,0.361,9.62,0.635c3.202,0.288,6.404,0.635,9.606,1.067v16.284h-59.351v-16.284   c2.639-0.288,5.149-0.534,7.514-0.75s4.889-0.462,7.529-0.75l-9.202-26.452h-53.712l-8.149,26.452   c2.51,0.288,4.601,0.534,6.26,0.75c1.688,0.216,3.909,0.462,6.692,0.75v16.284h-54.548v-16.284   c3.202-0.433,6.332-0.779,9.404-1.067c3.058-0.274,6.13-0.49,9.202-0.635l37.616-112.385c-1.947-0.144-4.183-0.317-6.678-0.534   c-2.524-0.216-5.798-0.534-9.837-0.952v-16.298h53.928L984.804,1350.648z"/>
	<path clip-path="url(#SVGID_8_)" fill="#4E1757" d="M1013.649,1368.638v-16.298c4.183-0.418,7.587-0.75,10.24-0.952   s4.803-0.389,6.476-0.534v-112.601c-2.784-0.274-5.611-0.519-8.466-0.736c-2.856-0.216-5.74-0.461-8.668-0.735v-16.298h59.568   v16.298c-3.202,0.562-6.447,0.952-9.721,1.168c-3.274,0.202-6.577,0.389-9.923,0.519v111.75h57.274l2.712-24.548h15.26v42.966   H1013.649z"/>
	<path clip-path="url(#SVGID_8_)" fill="#4E1757" d="M1261.552,1350.007c-5.856,6.779-13.024,11.971-21.534,15.563   c-8.495,3.606-17.423,5.394-26.755,5.394h-14.207c-17.005,0-29.553-4.024-37.63-12.072c-8.077-8.034-12.26-20.798-12.534-38.293   v-48.476c0-17.784,4.24-31.183,12.75-40.212c8.495-9.029,21.39-13.543,38.668-13.543h8.567c7.659,0,15.707,0.534,24.144,1.587   c8.423,1.053,17.452,3.202,27.058,6.447v38.524h-18.808l-2.711-23.914c-5.712-1.976-11.539-3.101-17.452-3.39   c-5.928-0.274-12.577-0.418-19.962-0.418c-9.62,0-16.933,2.812-21.952,8.466c-5.019,5.639-7.529,13.962-7.529,24.966v51.433   c0,10.168,2.51,17.64,7.529,22.442c5.019,4.788,12.332,7.197,21.952,7.197h10.861c14.914,0,25.154-6.361,30.736-19.053h18.808   V1350.007z"/>
	<path clip-path="url(#SVGID_8_)" fill="#4E1757" d="M1356.017,1350.439c10.457,0,18.433-2.683,23.942-8.048   c5.51-5.351,8.25-13.543,8.25-24.548v-46.14c0-11.005-2.74-19.226-8.25-24.664c-5.51-5.423-13.486-8.149-23.942-8.149h-14.827   c-10.457,0-18.404,2.856-23.827,8.567c-5.438,5.726-8.149,13.803-8.149,24.245v46.14c0,11.005,2.712,19.197,8.149,24.548   c5.423,5.365,13.37,8.048,23.827,8.048H1356.017z M1339.935,1370.963c-17.423,0-30.664-4.788-39.721-14.394   c-9.058-9.591-13.659-22.861-13.789-39.793v-43.601c0-17.063,4.529-30.476,13.587-40.212c9.058-9.736,22.356-14.596,39.923-14.596   h18.389c17.135,0,30.216,4.904,39.202,14.712c8.971,9.808,13.471,23.164,13.471,40.096v43.601c0,16.933-4.529,30.202-13.587,39.793   c-9.058,9.606-22.082,14.394-39.087,14.394H1339.935z"/>
	<path clip-path="url(#SVGID_8_)" fill="#4E1757" d="M1503.815,1293.923c8.625,0,15.144-2.048,19.529-6.13   c4.399-4.096,6.591-9.606,6.591-16.515v-7.615c0-7.63-2.192-13.587-6.591-17.885c-4.385-4.312-10.904-6.462-19.529-6.462h-34.486   v54.606H1503.815z M1504.017,1220.48c15.75,0,27.591,3.39,35.524,10.154c7.947,6.779,11.928,17.293,11.928,31.543v10.572   c0,9.88-2.337,17.784-7.01,23.712c-4.673,5.928-10.962,10.514-18.909,13.76c1.385,2.394,2.986,5.149,4.803,8.25   c1.803,3.115,3.62,6.462,5.438,10.053c1.803,3.606,3.62,7.312,5.438,11.106c1.803,3.822,3.476,7.558,5.005,11.221   c1.962,0.288,4.298,0.505,7.01,0.649c2.712,0.13,5.957,0.418,9.721,0.837v16.298h-40.962v-17.567   c-2.942-7.76-5.798-14.784-8.582-21.058c-2.784-6.274-5.495-11.611-8.149-15.981h-35.943v37.255   c2.365,0.144,4.76,0.274,7.197,0.418c2.438,0.144,4.846,0.361,7.212,0.635v16.298h-54.548v-16.298   c2.928-0.274,5.841-0.563,8.784-0.837c2.913-0.288,5.784-0.505,8.567-0.649v-112.385c-1.947-0.274-4.399-0.519-7.312-0.736   c-2.928-0.216-6.418-0.534-10.457-0.952v-16.298H1504.017z"/>
	<path clip-path="url(#SVGID_8_)" fill="#4E1757" d="M1682.314,1236.774c-2.928,0.288-5.74,0.562-8.467,0.851   c-2.726,0.288-5.481,0.49-8.264,0.635v112.601c2.784,0.144,5.539,0.346,8.264,0.635c2.726,0.288,5.539,0.562,8.467,0.851v16.284   h-56.221v-16.284c2.928-0.288,5.74-0.534,8.466-0.75c2.712-0.216,5.452-0.462,8.25-0.736V1238.26   c-2.798-0.144-5.611-0.346-8.466-0.635c-2.856-0.289-5.74-0.563-8.668-0.851v-16.298h56.64V1236.774z"/>
	<path clip-path="url(#SVGID_8_)" fill="#4E1757" d="M1845.143,1236.774c-3.072,0.418-6.029,0.75-8.885,0.952   c-2.856,0.216-5.683,0.462-8.466,0.75v130.154h-24.043l-70.428-110.899v93.347c4.587,0.274,9.389,0.707,14.423,1.269v16.284   h-52.053v-16.284c3.072-0.288,6.029-0.562,8.885-0.851c2.856-0.288,5.683-0.49,8.466-0.635v-112.385   c-1.947-0.144-4.399-0.36-7.312-0.649c-2.928-0.274-6.418-0.635-10.457-1.053v-16.298h39.505l72.736,113.034v-95.467   c-4.601-0.13-9.548-0.562-14.841-1.269v-16.298h52.471V1236.774z"/>
	<path clip-path="url(#SVGID_8_)" fill="#4E1757" d="M2007.126,1236.774c-2.784,0.288-5.466,0.562-8.048,0.851   c-2.582,0.288-5.12,0.49-7.63,0.635l-43.471,130.371h-33.245l-43.053-130.371c-2.51-0.288-5.005-0.534-7.529-0.735   c-2.51-0.216-5.005-0.462-7.515-0.75v-16.298h57.895v16.298c-3.216,0.288-6.231,0.534-9.087,0.75   c-2.87,0.202-5.899,0.447-9.101,0.735l34.284,107.308h2.928l33.433-107.308c-2.784-0.288-5.74-0.534-8.87-0.735   c-3.144-0.216-6.245-0.462-9.303-0.75v-16.298h58.313V1236.774z"/>
	<path clip-path="url(#SVGID_8_)" fill="#4E1757" d="M2129.819,1260.486h-14.423l-2.928-21.591h-56.02v45.087h42.433v19.673h-42.433   v46.572h57.909l2.928-21.591h14.408v39.995h-114.75v-16.284c4.038-0.433,7.428-0.707,10.14-0.851   c2.712-0.144,4.918-0.361,6.591-0.635V1238.26c-1.962-0.288-4.255-0.49-6.909-0.635c-2.639-0.144-6.058-0.433-10.24-0.851v-16.298   h113.294V1260.486z"/>
	<path clip-path="url(#SVGID_8_)" fill="#4E1757" d="M2178.532,1346.203c5.019,2.409,10.168,4.096,15.461,5.077   c5.308,0.995,11.423,1.486,18.389,1.486h2.942c5.423,0,9.995-0.346,13.673-1.067c3.707-0.692,6.62-1.86,8.784-3.49   c2.164-1.615,3.736-3.764,4.702-6.447c0.981-2.683,1.471-6.072,1.471-10.168v-5.712c0-3.245-0.303-5.957-0.938-8.149   c-0.635-2.178-1.702-4.082-3.245-5.712c-1.529-1.615-3.577-3-6.159-4.125c-2.582-1.125-5.827-2.178-9.735-3.173l-39.707-9.317   c-5.438-1.558-9.966-3.245-13.586-5.077c-3.62-1.832-6.476-4.125-8.567-6.88c-2.091-2.755-3.592-6.043-4.5-9.837   c-0.894-3.822-1.356-8.409-1.356-13.76v-2.553c0-6.894,0.938-12.837,2.827-17.769c1.875-4.933,4.832-8.957,8.885-12.058   c4.038-3.115,9.231-5.409,15.563-6.88c6.346-1.486,13.976-2.235,22.904-2.235h5.221c9.188,0,17.827,0.75,25.918,2.235   c8.077,1.471,16.442,3.837,25.082,7.082v36.62h-17.986l-2.712-22.442c-4.327-1.962-8.986-3.375-14.005-4.226   s-10.312-1.269-15.894-1.269h-5.423c-9.62,0-16.486,1.486-20.596,4.442c-4.111,2.971-6.159,8.048-6.159,15.245v2.524   c0,4.947,1.039,8.755,3.13,11.438c2.092,2.683,5.784,4.803,11.077,6.346l44.74,10.168c5.149,1.269,9.505,2.856,13.053,4.76   c3.562,1.904,6.447,4.226,8.683,6.981c2.221,2.755,3.836,6.072,4.803,9.952c0.981,3.88,1.457,8.423,1.457,13.659v9.303   c0,7.053-0.923,13.082-2.812,18.101c-1.889,5.005-4.817,9.101-8.784,12.274c-3.966,3.173-9.159,5.495-15.562,6.981   c-6.418,1.486-14.077,2.221-22.991,2.221h-6.908c-5.164,0-9.894-0.216-14.207-0.635c-4.327-0.418-8.51-1.096-12.548-2.005   c-4.038-0.923-8.149-2.12-12.332-3.606c-4.183-1.471-8.712-3.202-13.587-5.178v-34.933h18.822L2178.532,1346.203z"/>
	<path clip-path="url(#SVGID_8_)" fill="#4E1757" d="M2396.333,1261.964l-1.457-22.428h-36.375v111.318   c2.783,0.144,5.769,0.361,8.986,0.635c3.202,0.288,6.202,0.562,8.985,0.851v16.298h-58.731v-16.298   c2.928-0.288,5.957-0.534,9.087-0.75c3.13-0.202,6.101-0.447,8.885-0.736v-111.318h-36.577l-1.673,22.428h-15.678v-41.481h130.428   v41.481H2396.333z"/>
	<path clip-path="url(#SVGID_8_)" fill="#4E1757" d="M992.738,1459.046h-8.942l-1.817-13.385h-35.885v30.563h29.409v12.202h-29.409   v26.654c0.865,0.087,1.918,0.144,3.173,0.188c1.255,0.043,2.538,0.115,3.88,0.202c1.341,0.087,2.639,0.173,3.894,0.26   c1.24,0.087,2.351,0.173,3.303,0.26v10.111h-38.741v-10.111c1.803-0.173,3.563-0.317,5.236-0.462   c1.687-0.13,3.389-0.274,5.12-0.447v-69.808c-1.111-0.101-2.524-0.202-4.212-0.332c-1.673-0.144-3.822-0.332-6.418-0.591v-10.096   h71.409V1459.046z"/>
	<path clip-path="url(#SVGID_8_)" fill="#4E1757" d="M1035.507,1444.349c-1.817,0.173-3.563,0.346-5.25,0.519   c-1.688,0.188-3.389,0.303-5.12,0.404v69.808c1.731,0.087,3.433,0.216,5.12,0.389s3.433,0.346,5.25,0.519v10.111h-34.861v-10.111   c1.817-0.173,3.562-0.317,5.25-0.462c1.688-0.13,3.389-0.274,5.12-0.447v-69.808c-1.731-0.101-3.476-0.216-5.25-0.404   c-1.774-0.173-3.563-0.346-5.38-0.519v-10.096h35.12V1444.349z"/>
	<path clip-path="url(#SVGID_8_)" fill="#4E1757" d="M1136.449,1444.349c-1.904,0.26-3.736,0.447-5.51,0.591   c-1.774,0.13-3.519,0.274-5.25,0.447v80.712h-14.899l-43.673-68.755v57.851c2.856,0.188,5.827,0.447,8.942,0.793v10.111h-32.265   v-10.111c1.904-0.173,3.736-0.346,5.51-0.519s3.519-0.303,5.25-0.389v-69.693c-1.212-0.087-2.726-0.216-4.543-0.389   c-1.817-0.159-3.966-0.389-6.476-0.649v-10.096h24.49l45.101,70.053v-59.178c-2.856-0.072-5.913-0.346-9.202-0.779v-10.096h32.524   V1444.349z"/>
	<path clip-path="url(#SVGID_8_)" fill="#4E1757" d="M1183.222,1446.179l-13.341,40.414h27.476l-13.601-40.414H1183.222z    M1221.587,1514.934c1.99,0.087,3.966,0.231,5.957,0.39c1.99,0.188,3.981,0.404,5.957,0.663v10.111h-36.793v-10.111   c1.644-0.173,3.202-0.317,4.659-0.462c1.471-0.13,3.029-0.274,4.673-0.447l-5.697-16.413h-33.317l-5.048,16.413   c1.558,0.173,2.856,0.317,3.894,0.447c1.038,0.144,2.409,0.288,4.14,0.462v10.111h-33.822v-10.111   c1.99-0.26,3.938-0.476,5.827-0.663c1.904-0.159,3.808-0.303,5.712-0.39l23.322-69.664c-1.212-0.101-2.596-0.202-4.14-0.332   c-1.558-0.13-3.591-0.332-6.101-0.591v-10.096h33.433L1221.587,1514.934z"/>
	<path clip-path="url(#SVGID_8_)" fill="#4E1757" d="M1332.123,1444.349c-1.904,0.26-3.736,0.447-5.51,0.591   c-1.774,0.13-3.519,0.274-5.25,0.447v80.712h-14.899l-43.673-68.755v57.851c2.856,0.188,5.827,0.447,8.942,0.793v10.111h-32.265   v-10.111c1.904-0.173,3.736-0.346,5.51-0.519c1.774-0.173,3.519-0.303,5.25-0.389v-69.693c-1.212-0.087-2.726-0.216-4.543-0.389   c-1.803-0.159-3.966-0.389-6.476-0.649v-10.096h24.49l45.101,70.053v-59.178c-2.856-0.072-5.913-0.346-9.202-0.779v-10.096h32.524   V1444.349z"/>
	<path clip-path="url(#SVGID_8_)" fill="#4E1757" d="M1412.473,1514.551c-3.635,4.197-8.077,7.413-13.356,9.635   c-5.279,2.236-10.803,3.346-16.587,3.346h-8.812c-10.543,0-18.317-2.481-23.322-7.471c-5.019-4.99-7.601-12.909-7.774-23.755   v-30.043c0-11.019,2.639-19.341,7.904-24.938c5.265-5.596,13.255-8.394,23.971-8.394h5.322c4.731,0,9.735,0.332,14.957,0.981   c5.236,0.663,10.817,1.99,16.789,3.995v23.885h-11.668l-1.673-14.812c-3.548-1.226-7.168-1.933-10.832-2.106   c-3.678-0.173-7.803-0.274-12.375-0.274c-5.957,0-10.5,1.76-13.615,5.265c-3.101,3.49-4.659,8.654-4.659,15.476v31.89   c0,6.289,1.558,10.933,4.659,13.904c3.115,2.971,7.659,4.457,13.615,4.457h6.736c9.245,0,15.591-3.923,19.053-11.798h11.668   V1514.551z"/>
	<path clip-path="url(#SVGID_8_)" fill="#4E1757" d="M1459.5,1444.349c-1.817,0.173-3.562,0.346-5.25,0.519   c-1.688,0.188-3.389,0.303-5.12,0.404v69.808c1.731,0.087,3.433,0.216,5.12,0.389c1.688,0.173,3.433,0.346,5.25,0.519v10.111   h-34.861v-10.111c1.817-0.173,3.562-0.317,5.25-0.462c1.688-0.13,3.389-0.274,5.12-0.447v-69.808   c-1.731-0.101-3.49-0.216-5.25-0.404c-1.774-0.173-3.562-0.346-5.38-0.519v-10.096h35.12V1444.349z"/>
	<path clip-path="url(#SVGID_8_)" fill="#4E1757" d="M1514.055,1446.179l-13.356,40.414h27.476l-13.601-40.414H1514.055z    M1552.406,1514.934c1.99,0.087,3.981,0.231,5.971,0.39c1.976,0.188,3.966,0.404,5.957,0.663v10.111h-36.793v-10.111   c1.63-0.173,3.188-0.317,4.659-0.462c1.471-0.13,3.015-0.274,4.659-0.447l-5.697-16.413h-33.303l-5.062,16.413   c1.558,0.173,2.856,0.317,3.894,0.447c1.039,0.144,2.423,0.288,4.139,0.462v10.111h-33.822v-10.111   c1.99-0.26,3.938-0.476,5.841-0.663c1.889-0.159,3.793-0.303,5.697-0.39l23.322-69.664c-1.212-0.101-2.582-0.202-4.139-0.332   c-1.558-0.13-3.591-0.332-6.101-0.591v-10.096h33.447L1552.406,1514.934z"/>
	<path clip-path="url(#SVGID_8_)" fill="#4E1757" d="M1570.298,1526.094v-10.111c2.582-0.26,4.702-0.462,6.346-0.591   c1.644-0.115,2.986-0.231,4.024-0.317v-69.808c-1.731-0.173-3.49-0.332-5.25-0.462c-1.774-0.13-3.563-0.274-5.38-0.462v-10.096   h36.923v10.096c-1.976,0.346-3.981,0.591-6.015,0.721c-2.034,0.13-4.082,0.245-6.159,0.332v69.289h35.51l1.673-15.231h9.462v26.64   H1570.298z"/>
	<path clip-path="url(#SVGID_8_)" fill="#4E1757" d="M1755.605,1514.551c-3.635,4.197-8.077,7.413-13.342,9.635   c-5.279,2.236-10.803,3.346-16.587,3.346h-8.813c-10.543,0-18.317-2.481-23.337-7.471c-5.005-4.99-7.601-12.909-7.774-23.755   v-30.043c0-11.019,2.639-19.341,7.904-24.938c5.279-5.596,13.269-8.394,23.971-8.394h5.322c4.745,0,9.736,0.332,14.971,0.981   c5.221,0.663,10.817,1.99,16.774,3.995v23.885h-11.654l-1.688-14.812c-3.548-1.226-7.154-1.933-10.832-2.106   c-3.663-0.173-7.788-0.274-12.36-0.274c-5.971,0-10.515,1.76-13.615,5.265c-3.115,3.49-4.659,8.654-4.659,15.476v31.89   c0,6.289,1.543,10.933,4.659,13.904c3.101,2.971,7.644,4.457,13.615,4.457h6.735c9.231,0,15.591-3.923,19.039-11.798h11.668   V1514.551z"/>
	<path clip-path="url(#SVGID_8_)" fill="#4E1757" d="M1814.18,1514.812c6.476,0,11.423-1.659,14.827-4.99   c3.418-3.317,5.12-8.394,5.12-15.216v-28.615c0-6.822-1.702-11.913-5.12-15.289c-3.404-3.361-8.351-5.048-14.827-5.048h-9.202   c-6.476,0-11.409,1.774-14.784,5.322c-3.361,3.534-5.048,8.539-5.048,15.015v28.615c0,6.822,1.688,11.899,5.048,15.216   c3.375,3.332,8.308,4.99,14.784,4.99H1814.18z M1804.2,1527.533c-10.803,0-19.01-2.971-24.62-8.928   c-5.611-5.942-8.466-14.164-8.553-24.649v-27.043c0-10.572,2.798-18.894,8.423-24.923c5.611-6.043,13.861-9.058,24.75-9.058h11.394   c10.63,0,18.736,3.043,24.303,9.115c5.582,6.087,8.365,14.365,8.365,24.865v27.043c0,10.486-2.812,18.707-8.423,24.649   c-5.625,5.957-13.702,8.928-24.245,8.928H1804.2z"/>
	<path clip-path="url(#SVGID_8_)" fill="#4E1757" d="M1973.562,1444.349c-2.495,0.26-4.688,0.49-6.548,0.649   c-1.846,0.173-3.375,0.303-4.587,0.389v69.693c1.803,0.087,3.606,0.216,5.365,0.389c1.774,0.173,3.606,0.346,5.51,0.519v10.111   h-33.303v-10.111c3.202-0.433,6.144-0.692,8.813-0.793v-63.505l-29.019,74.409h-9.462l-26.697-74.409v63.39   c1.558,0.173,3.086,0.317,4.601,0.447c1.514,0.144,3.13,0.288,4.861,0.462v10.111h-33.563v-10.111   c1.99-0.173,3.837-0.346,5.567-0.519s3.462-0.303,5.192-0.389v-69.693c-1.139-0.087-2.596-0.188-4.413-0.317   c-1.817-0.13-4.024-0.375-6.606-0.721v-10.096h29.293l26.683,70.457h0.26l28.125-70.457h29.928V1444.349z"/>
	<path clip-path="url(#SVGID_8_)" fill="#4E1757" d="M2043.918,1461.534c0-4.976-1.356-8.841-4.067-11.553   c-2.726-2.712-6.808-4.067-12.26-4.067h-20.856v35.827h20.856c5.365,0,9.418-1.341,12.188-3.995c2.755-2.668,4.14-6.49,4.14-11.481   V1461.534z M2028.63,1434.246c9.678,0.087,16.832,2.293,21.462,6.62c4.601,4.327,6.923,10.918,6.923,19.745v7.615   c0,8.481-2.322,14.827-6.923,19.024c-4.63,4.197-11.784,6.303-21.462,6.303h-21.894v21.375c1.904,0.101,3.779,0.231,5.64,0.404   s3.736,0.389,5.64,0.663v10.096h-36.159v-10.096c1.803-0.188,3.606-0.332,5.365-0.476c1.774-0.115,3.577-0.274,5.394-0.447v-69.678   c-1.226-0.173-2.726-0.332-4.543-0.461c-1.817-0.13-3.966-0.332-6.476-0.591v-10.096H2028.63z"/>
	<path clip-path="url(#SVGID_8_)" fill="#4E1757" d="M2099.14,1446.179l-13.356,40.414h27.476l-13.601-40.414H2099.14z    M2137.491,1514.934c1.99,0.087,3.981,0.231,5.971,0.39c1.976,0.188,3.967,0.404,5.957,0.663v10.111h-36.794v-10.111   c1.63-0.173,3.188-0.317,4.659-0.462c1.471-0.13,3.014-0.274,4.659-0.447l-5.697-16.413h-33.303l-5.062,16.413   c1.558,0.173,2.856,0.317,3.894,0.447c1.039,0.144,2.423,0.288,4.139,0.462v10.111h-33.808v-10.111   c1.976-0.26,3.923-0.476,5.827-0.663c1.89-0.159,3.793-0.303,5.697-0.39l23.322-69.664c-1.212-0.101-2.582-0.202-4.139-0.332   c-1.558-0.13-3.592-0.332-6.101-0.591v-10.096h33.447L2137.491,1514.934z"/>
	<path clip-path="url(#SVGID_8_)" fill="#4E1757" d="M2248.027,1444.349c-1.904,0.26-3.736,0.447-5.51,0.591   c-1.774,0.13-3.519,0.274-5.25,0.447v80.712h-14.899l-43.673-68.755v57.851c2.856,0.188,5.827,0.447,8.942,0.793v10.111h-32.264   v-10.111c1.904-0.173,3.736-0.346,5.51-0.519c1.76-0.173,3.519-0.303,5.25-0.389v-69.693c-1.226-0.087-2.726-0.216-4.543-0.389   c-1.817-0.159-3.966-0.389-6.476-0.649v-10.096h24.49l45.101,70.053v-59.178c-2.856-0.072-5.914-0.346-9.202-0.779v-10.096h32.524   V1444.349z"/>
	<path clip-path="url(#SVGID_8_)" fill="#4E1757" d="M2288.455,1444.349c-1.471,0.173-2.942,0.303-4.399,0.389   c-1.486,0.101-2.899,0.13-4.284,0.13l19.053,37.789h0.519l19.039-37.659c-1.471-0.087-2.957-0.159-4.457-0.26   c-1.514-0.087-3.087-0.216-4.731-0.389v-10.096h33.043v10.096c-1.731,0.26-3.433,0.447-5.12,0.591   c-1.688,0.13-3.346,0.274-4.99,0.447l-26.827,48.173v21.519c1.731,0.087,3.461,0.216,5.178,0.389   c1.731,0.173,3.462,0.346,5.192,0.519v10.111h-34.731v-10.111c1.716-0.173,3.462-0.317,5.178-0.462   c1.731-0.13,3.461-0.274,5.192-0.447v-21l-26.697-48.808c-1.558-0.188-3.115-0.332-4.673-0.476   c-1.543-0.115-3.159-0.274-4.789-0.447v-10.096h33.303V1444.349z"/>
</g>
</svg>