<?xml version="1.0" encoding="UTF-8"?>
<!-- Generator: Adobe Illustrator 17.0.0, SVG Export Plug-In . SVG Version: 6.00 Build 0)  -->
<!DOCTYPE svg PUBLIC "-//W3C//DTD SVG 1.1//EN" "http://www.w3.org/Graphics/SVG/1.1/DTD/svg11.dtd">
<svg version="1.1" id="Layer_1" xmlns="http://www.w3.org/2000/svg" xmlns:xlink="http://www.w3.org/1999/xlink" x="0px" y="0px" width="1700.79px" height="850.39px" viewBox="0 0 1700.79 850.39" enable-background="new 0 0 1700.79 850.39" xml:space="preserve"><script xmlns="" type="text/javascript" charset="utf-8" id="zm-extension"/>
<g>
	<circle fill="none" cx="717.689" cy="401.708" r="8.622"/>
	<path fill="none" d="M726.976,406.26c-1.689,3.427-5.221,5.794-9.287,5.794c-0.584,0-1.157-0.049-1.716-0.143   C712.49,445.821,774.222,408.07,726.976,406.26z"/>
	<path fill="none" d="M709.71,395.134c-27.625-19.971-25.786,52.363-0.596,12.352c-1.117-1.652-1.771-3.641-1.771-5.778   C707.343,399.215,708.232,396.923,709.71,395.134z"/>
	<path fill="none" d="M717.689,391.362c4.452,0,8.223,2.797,9.677,6.755c31.108-13.939-32.501-48.548-10.445-6.727   C717.166,391.373,717.438,391.362,717.689,391.362z"/>
	<path fill="none" d="M717.689,367.222c-18.994,0-34.486,15.492-34.486,34.486s15.492,34.486,34.486,34.486   s34.486-15.492,34.486-34.486S736.683,367.222,717.689,367.222z M717.689,434.47c-18.094,0-32.762-14.668-32.762-32.762   s14.668-32.762,32.762-32.762s32.762,14.668,32.762,32.762S735.782,434.47,717.689,434.47z"/>
	<path fill="#009FE3" d="M717.689,365.498c-19.944,0-36.21,16.266-36.21,36.21c0,19.944,16.266,36.21,36.21,36.21   c19.944,0,36.21-16.266,36.21-36.21C753.899,381.764,737.633,365.498,717.689,365.498z M717.689,436.194   c-18.994,0-34.486-15.492-34.486-34.486s15.492-34.486,34.486-34.486s34.486,15.492,34.486,34.486S736.683,436.194,717.689,436.194   z"/>
	<path fill="#009FE3" d="M717.689,368.947c-18.094,0-32.762,14.668-32.762,32.762s14.668,32.762,32.762,32.762   s32.762-14.668,32.762-32.762S735.782,368.947,717.689,368.947z M727.365,398.117c-1.454-3.958-5.225-6.755-9.677-6.755   c-0.25,0-0.523,0.01-0.769,0.028C694.864,349.57,758.473,384.179,727.365,398.117z M709.71,395.134   c-1.478,1.789-2.367,4.081-2.367,6.574c0,2.137,0.654,4.126,1.771,5.778C683.924,447.497,682.085,375.163,709.71,395.134z    M709.067,401.708c0-4.761,3.86-8.621,8.622-8.621c4.762,0,8.622,3.86,8.622,8.621c0,4.762-3.86,8.622-8.622,8.622   C712.927,410.33,709.067,406.47,709.067,401.708z M715.973,411.911c0.558,0.094,1.132,0.143,1.716,0.143   c4.067,0,7.598-2.367,9.287-5.794C774.222,408.07,712.49,445.821,715.973,411.911z"/>
	
		<path fill-rule="evenodd" clip-rule="evenodd" fill="#E30613" stroke="#E30613" stroke-width="0.216" stroke-miterlimit="22.9256" d="   M762.572,372.549c3.483,0,7.002-2.233,10.486-2.233c6.405,0,12.774,4.428,19.178,4.428c3.408,0,6.815-2.197,10.223-2.197   l-0.009,3.783c-3.405,0.001-6.774,2.199-10.178,2.201c-6.428,0.003-12.821-4.424-19.25-4.421c-3.462,0.001-6.959,2.27-10.422,2.271   L762.572,372.549L762.572,372.549z"/>
	<g>
		<path fill="#E30613" d="M1037.145,432.299c-8.966,0-16.466-2.733-22.292-8.124c-1.898-1.761-3.509-3.754-4.801-5.938h-9.513    l6.015,13.113h-18.477l-5.583-12.688H959.57L954.3,431.35h-18.114l5.85-13.113h-12.41l-5.378,13.113h-16.472l-5.367-13.113H881.46    v13.113h-16.908v-13.113h-21.295v13.113h-16.923v-59.835h16.923v33.804h21.295v-33.804h16.908v33.804h15.661l-13.837-33.804    h18.355l13.226,33.804h3.049l12.812-33.804h18.06l-13.863,33.804h12.876l15.08-33.804h16.233l15.504,33.804h11.529    c-0.091-1.1-0.137-2.232-0.137-3.386c0-9.818,2.988-17.596,8.881-23.118c5.857-5.475,13.61-8.25,23.045-8.25    c8.268,0,15.108,2.193,20.333,6.518c3.18,2.592,5.598,6.365,7.177,11.204l0.692,2.123l-16.845,3.51l-0.476-1.85    c-0.627-2.442-1.916-4.313-3.939-5.72c-2.041-1.428-4.596-2.151-7.598-2.151c-4.232,0-7.541,1.265-10.117,3.866    c-2.551,2.564-3.843,6.945-3.843,13.023c0,6.501,1.276,11.104,3.794,13.683c2.535,2.623,5.771,3.895,9.898,3.895    c3.013,0,5.51-0.799,7.635-2.442c2.099-1.612,3.651-4.273,4.621-7.916l0.52-1.951l16.449,4.548l-0.623,1.976    c-2.051,6.514-5.541,11.443-10.373,14.651C1050.467,430.696,1044.38,432.299,1037.145,432.299z M994.304,414.237h18.123    l0.563,1.063c1.169,2.207,2.71,4.206,4.581,5.941c5.061,4.683,11.646,7.058,19.573,7.058c6.436,0,11.779-1.379,15.883-4.1    c3.62-2.403,6.278-5.869,8.087-10.56l-8.571-2.37c-1.232,3.558-3.063,6.285-5.455,8.123c-2.809,2.171-6.2,3.274-10.077,3.274    c-5.196,0-9.492-1.719-12.769-5.108c-3.311-3.392-4.924-8.782-4.924-16.47c0-7.173,1.684-12.502,5.004-15.841    c3.315-3.349,7.676-5.048,12.956-5.048c3.839,0,7.165,0.966,9.886,2.87c2.274,1.582,3.929,3.655,4.934,6.18l8.765-1.826    c-1.288-3.084-3.01-5.517-5.135-7.249c-4.499-3.725-10.482-5.608-17.794-5.608c-8.388,0-15.222,2.413-20.312,7.17    c-5.051,4.734-7.613,11.53-7.613,20.197c0,1.778,0.12,3.492,0.355,5.094l0.338,2.292h-18.652l-15.504-33.804h-11.071    l-15.08,33.804h-21.435l13.863-33.804h-9.335l-12.812,33.804h-8.541l-13.226-33.804h-9.666l13.837,33.804h-25.62v-33.804h-8.908    v33.804h-29.295v-33.804h-8.923v51.835h8.923v-13.113h29.295v13.113h8.908v-13.113h27.634l5.367,13.113h11.103l5.378-13.113    h21.258l-5.85,13.113h9.28l5.271-12.688h28.203l5.583,12.688h9.633L994.304,414.237z M982.685,409.263h-23.474l11.616-27.876    L982.685,409.263z M965.211,405.263h11.425l-5.771-13.568L965.211,405.263z"/>
	</g>
	<g>
		<path fill="#3C3C3B" d="M632.003,474.958l10.355-26.965h3.844l11.036,26.965h-4.065l-3.146-8.167h-11.275l-2.961,8.167H632.003z     M639.784,463.885h9.142l-2.814-7.467c-0.859-2.269-1.497-4.133-1.913-5.592c-0.343,1.729-0.828,3.445-1.453,5.15L639.784,463.885    z"/>
	</g>
	<g>
		<path fill="#3C3C3B" d="M657.06,455.424h15.874v2.741h-6.291v16.793h-3.292v-16.793h-6.291V455.424z"/>
		<path fill="#3C3C3B" d="M676.171,455.424h3.311v7.634h4.193c2.734,0,4.84,0.53,6.318,1.591c1.478,1.061,2.216,2.523,2.216,4.387    c0,1.631-0.616,3.026-1.849,4.185c-1.232,1.159-3.204,1.738-5.914,1.738h-8.277V455.424z M679.482,472.236h3.476    c2.097,0,3.593-0.257,4.488-0.772c0.895-0.515,1.342-1.317,1.342-2.409c0-0.846-0.331-1.601-0.993-2.263s-2.127-0.993-4.396-0.993    h-3.917V472.236z M694.693,455.424h3.311v19.534h-3.311V455.424z"/>
		<path fill="#3C3C3B" d="M703.172,482.445v-27.021h3.017v2.539c0.711-0.993,1.514-1.738,2.41-2.235    c0.895-0.496,1.98-0.745,3.255-0.745c1.667,0,3.139,0.43,4.415,1.288s2.238,2.069,2.888,3.633s0.975,3.277,0.975,5.141    c0,1.999-0.359,3.798-1.076,5.398s-1.76,2.826-3.127,3.679s-2.805,1.278-4.313,1.278c-1.104,0-2.094-0.233-2.971-0.699    c-0.877-0.466-1.597-1.054-2.161-1.766v9.51H703.172z M706.171,465.302c0,2.514,0.508,4.371,1.526,5.573    c1.018,1.201,2.25,1.802,3.697,1.802c1.471,0,2.731-0.622,3.78-1.866c1.048-1.245,1.573-3.173,1.573-5.785    c0-2.489-0.512-4.353-1.536-5.592c-1.024-1.238-2.247-1.857-3.669-1.857c-1.41,0-2.658,0.659-3.743,1.978    C706.713,460.872,706.171,462.788,706.171,465.302z"/>
		<path fill="#3C3C3B" d="M736.869,472.549c-1.226,1.042-2.406,1.777-3.541,2.207c-1.134,0.429-2.352,0.644-3.651,0.644    c-2.146,0-3.795-0.524-4.948-1.572c-1.152-1.049-1.729-2.389-1.729-4.02c0-0.956,0.217-1.83,0.653-2.621    c0.435-0.791,1.005-1.425,1.71-1.903s1.499-0.84,2.382-1.085c0.65-0.172,1.631-0.338,2.943-0.497    c2.673-0.318,4.642-0.699,5.904-1.141c0.012-0.453,0.019-0.741,0.019-0.864c0-1.349-0.312-2.299-0.938-2.851    c-0.846-0.748-2.103-1.122-3.771-1.122c-1.558,0-2.707,0.272-3.449,0.818c-0.742,0.546-1.291,1.512-1.646,2.896l-3.237-0.441    c0.294-1.385,0.779-2.504,1.453-3.356s1.649-1.508,2.925-1.968c1.275-0.46,2.752-0.69,4.433-0.69c1.667,0,3.022,0.196,4.065,0.589    c1.042,0.393,1.809,0.886,2.299,1.48c0.49,0.596,0.833,1.347,1.03,2.254c0.11,0.563,0.166,1.581,0.166,3.053v4.415    c0,3.077,0.07,5.024,0.211,5.84s0.42,1.597,0.837,2.345h-3.458C737.188,474.272,736.967,473.468,736.869,472.549z     M736.593,465.155c-1.202,0.49-3.004,0.907-5.407,1.251c-1.361,0.196-2.324,0.417-2.888,0.662s-1,0.604-1.306,1.076    c-0.307,0.472-0.46,0.996-0.46,1.572c0,0.883,0.334,1.619,1.002,2.207c0.668,0.589,1.646,0.883,2.934,0.883    c1.275,0,2.41-0.278,3.403-0.837c0.993-0.558,1.723-1.321,2.189-2.29c0.355-0.747,0.533-1.851,0.533-3.311V465.155z"/>
	</g>
	<g>
		<path fill="#3C3C3B" d="M744.512,482.481l-0.368-3.108c0.723,0.196,1.354,0.295,1.895,0.295c0.735,0,1.324-0.123,1.766-0.368    s0.803-0.589,1.085-1.03c0.208-0.331,0.546-1.152,1.012-2.465c0.062-0.184,0.159-0.453,0.294-0.809l-7.413-19.571h3.568    l4.065,11.312c0.527,1.435,0.999,2.942,1.417,4.524c0.38-1.521,0.833-3.004,1.361-4.451l4.175-11.386h3.311l-7.431,19.865    c-0.797,2.146-1.416,3.623-1.858,4.433c-0.588,1.092-1.263,1.892-2.023,2.4c-0.761,0.509-1.668,0.764-2.722,0.764    C746.008,482.886,745.296,482.75,744.512,482.481z"/>
		<path fill="#3C3C3B" d="M763.954,447.994h21.208v26.965h-3.586v-23.782h-14.053v23.782h-3.568V447.994z"/>
		<path fill="#3C3C3B" d="M790.568,482.445v-27.021h3.017v2.539c0.711-0.993,1.514-1.738,2.41-2.235    c0.895-0.496,1.98-0.745,3.255-0.745c1.667,0,3.139,0.43,4.415,1.288s2.238,2.069,2.888,3.633s0.975,3.277,0.975,5.141    c0,1.999-0.359,3.798-1.076,5.398s-1.76,2.826-3.127,3.679s-2.805,1.278-4.313,1.278c-1.104,0-2.094-0.233-2.971-0.699    c-0.877-0.466-1.597-1.054-2.161-1.766v9.51H790.568z M793.567,465.302c0,2.514,0.508,4.371,1.526,5.573    c1.018,1.201,2.25,1.802,3.697,1.802c1.471,0,2.731-0.622,3.78-1.866c1.048-1.245,1.573-3.173,1.573-5.785    c0-2.489-0.512-4.353-1.536-5.592c-1.024-1.238-2.247-1.857-3.669-1.857c-1.41,0-2.658,0.659-3.743,1.978    C794.109,460.872,793.567,462.788,793.567,465.302z"/>
		<path fill="#3C3C3B" d="M810.287,465.192c0-3.617,1.005-6.297,3.016-8.038c1.68-1.447,3.728-2.171,6.144-2.171    c2.686,0,4.88,0.881,6.585,2.64c1.704,1.76,2.557,4.191,2.557,7.293c0,2.514-0.377,4.491-1.131,5.932    c-0.754,1.441-1.852,2.561-3.292,3.357s-3.014,1.195-4.718,1.195c-2.734,0-4.945-0.877-6.631-2.63    C811.129,471.016,810.287,468.491,810.287,465.192z M813.689,465.192c0,2.501,0.546,4.374,1.637,5.619    c1.091,1.244,2.465,1.866,4.12,1.866c1.643,0,3.01-0.625,4.102-1.876c1.091-1.25,1.637-3.157,1.637-5.72    c0-2.416-0.549-4.246-1.646-5.49c-1.097-1.245-2.461-1.867-4.092-1.867c-1.655,0-3.029,0.619-4.12,1.857    C814.235,460.821,813.689,462.69,813.689,465.192z"/>
		<path fill="#3C3C3B" d="M832.561,455.424h5.15l5.132,15.635l5.702-15.635h4.764v19.534h-3.312v-15.727l-5.775,15.727h-2.961    l-5.462-16.48v16.48h-3.237V455.424z"/>
		<path fill="#3C3C3B" d="M858.643,474.958v-26.965h10.116c2.061,0,3.713,0.273,4.957,0.818c1.245,0.546,2.22,1.386,2.925,2.521    c0.705,1.134,1.058,2.32,1.058,3.559c0,1.153-0.312,2.238-0.938,3.256c-0.625,1.018-1.569,1.839-2.832,2.465    c1.631,0.479,2.885,1.294,3.762,2.446c0.876,1.152,1.314,2.514,1.314,4.083c0,1.264-0.267,2.438-0.8,3.522    s-1.192,1.922-1.978,2.511c-0.784,0.589-1.769,1.033-2.952,1.334c-1.184,0.3-2.633,0.45-4.35,0.45H858.643z M862.211,459.324    h5.831c1.582,0,2.716-0.104,3.402-0.312c0.907-0.27,1.591-0.717,2.051-1.343c0.46-0.625,0.69-1.409,0.69-2.354    c0-0.895-0.215-1.683-0.645-2.363c-0.429-0.681-1.042-1.146-1.839-1.397s-2.164-0.377-4.102-0.377h-5.39V459.324z     M862.211,471.777h6.714c1.152,0,1.962-0.043,2.428-0.129c0.821-0.147,1.509-0.393,2.061-0.736    c0.552-0.343,1.005-0.843,1.36-1.499c0.355-0.655,0.534-1.413,0.534-2.271c0-1.005-0.258-1.879-0.773-2.621    c-0.515-0.741-1.229-1.263-2.143-1.563c-0.913-0.3-2.229-0.45-3.945-0.45h-6.235V471.777z"/>
		<path fill="#3C3C3B" d="M896.864,468.668l3.421,0.423c-0.54,1.999-1.539,3.55-2.998,4.653c-1.46,1.104-3.323,1.655-5.592,1.655    c-2.857,0-5.122-0.88-6.796-2.64c-1.674-1.759-2.511-4.228-2.511-7.403c0-3.286,0.846-5.837,2.538-7.651s3.887-2.723,6.585-2.723    c2.611,0,4.745,0.89,6.4,2.667c1.655,1.778,2.483,4.28,2.483,7.505c0,0.196-0.007,0.49-0.019,0.883H885.81    c0.122,2.146,0.729,3.789,1.821,4.93c1.091,1.141,2.452,1.71,4.083,1.71c1.214,0,2.25-0.318,3.108-0.956    S896.361,470.066,896.864,468.668z M885.993,463.316H896.9c-0.146-1.644-0.563-2.876-1.251-3.697    c-1.055-1.275-2.422-1.913-4.102-1.913c-1.521,0-2.799,0.509-3.835,1.526C886.677,460.25,886.104,461.611,885.993,463.316z"/>
		<path fill="#3C3C3B" d="M904.461,455.424h3.311v8.13h9.178v-8.13h3.312v19.534h-3.312v-8.663h-9.178v8.663h-3.311V455.424z"/>
		<path fill="#3C3C3B" d="M923.461,455.424h15.873v2.741h-6.29v16.793h-3.293v-16.793h-6.29V455.424z"/>
		<path fill="#3C3C3B" d="M942.498,455.424h3.311v14.899l9.179-14.899h3.567v19.534h-3.311v-14.807l-9.178,14.807h-3.568V455.424z"/>
		<path fill="#3C3C3B" d="M965.158,455.424h15.377v19.534h-3.292v-16.793h-8.774v9.729c0,2.27-0.073,3.765-0.221,4.488    c-0.146,0.724-0.552,1.355-1.214,1.895c-0.662,0.54-1.618,0.81-2.869,0.81c-0.772,0-1.662-0.049-2.667-0.147v-2.759h1.453    c0.687,0,1.177-0.07,1.472-0.212c0.294-0.141,0.49-0.364,0.588-0.671c0.099-0.307,0.147-1.306,0.147-2.998V455.424z"/>
		<path fill="#3C3C3B" d="M1000.896,455.424v19.534h-3.293v-7.615h-1.913c-1.165,0-2.032,0.15-2.603,0.451s-1.4,1.267-2.492,2.896    l-2.888,4.268h-4.102l3.568-5.261c1.091-1.606,2.177-2.514,3.256-2.722c-1.889-0.258-3.29-0.938-4.203-2.042    c-0.914-1.104-1.37-2.373-1.37-3.808c0-1.692,0.598-3.065,1.793-4.12s2.928-1.582,5.196-1.582H1000.896z M997.604,458.165h-4.709    c-1.974,0-3.246,0.307-3.816,0.92s-0.855,1.33-0.855,2.151c0,1.165,0.42,2.021,1.261,2.566c0.84,0.546,2.326,0.818,4.46,0.818    h3.66V458.165z"/>
		<path fill="#3C3C3B" d="M1005.973,455.424h3.311v16.812h9.16v-16.812h3.311v16.812h2.134v8.259h-2.722v-5.536h-15.193V455.424z"/>
		<path fill="#3C3C3B" d="M1027.493,455.424h3.311v14.899l9.179-14.899h3.567v19.534h-3.311v-14.807l-9.178,14.807h-3.568V455.424z"/>
		<path fill="#3C3C3B" d="M1063.912,455.424v19.534h-3.293v-7.615h-1.913c-1.165,0-2.032,0.15-2.603,0.451s-1.4,1.267-2.492,2.896    l-2.888,4.268h-4.102l3.568-5.261c1.091-1.606,2.177-2.514,3.256-2.722c-1.889-0.258-3.29-0.938-4.203-2.042    c-0.914-1.104-1.37-2.373-1.37-3.808c0-1.692,0.598-3.065,1.793-4.12s2.928-1.582,5.196-1.582H1063.912z M1060.619,458.165h-4.709    c-1.974,0-3.246,0.307-3.816,0.92s-0.855,1.33-0.855,2.151c0,1.165,0.42,2.021,1.261,2.566c0.84,0.546,2.326,0.818,4.46,0.818    h3.66V458.165z"/>
	</g>
	
		<path fill-rule="evenodd" clip-rule="evenodd" fill="#E30613" stroke="#E30613" stroke-width="0.216" stroke-miterlimit="22.9256" d="   M762.572,379.259c3.483,0,7.002-2.233,10.486-2.233c6.405,0,12.774,4.428,19.178,4.428c3.408,0,6.815-2.197,10.223-2.197   l-0.009,3.783c-3.405,0.001-6.774,2.199-10.178,2.201c-6.428,0.003-12.821-4.424-19.25-4.421c-3.462,0.001-6.959,2.27-10.422,2.271   L762.572,379.259L762.572,379.259z"/>
	
		<path fill-rule="evenodd" clip-rule="evenodd" fill="#E30613" stroke="#E30613" stroke-width="0.216" stroke-miterlimit="22.9256" d="   M762.572,386.331c3.483,0,7.002-2.233,10.486-2.233c6.405,0,12.774,4.428,19.178,4.428c3.408,0,6.815-2.197,10.223-2.197   l-0.009,3.783c-3.405,0.001-6.774,2.199-10.178,2.201c-6.428,0.003-12.821-4.424-19.25-4.421c-3.462,0.001-6.959,2.27-10.422,2.271   L762.572,386.331L762.572,386.331z"/>
	
		<path fill-rule="evenodd" clip-rule="evenodd" fill="#009FE3" stroke="#009FE3" stroke-width="0.216" stroke-miterlimit="22.9256" d="   M632.452,413.237c3.484,0,7.002-2.233,10.486-2.233c6.405,0,12.774,4.428,19.178,4.428c3.408,0,6.815-2.197,10.223-2.197   l-0.009,3.783c-3.405,0.001-6.774,2.199-10.178,2.201c-6.428,0.003-12.821-4.424-19.25-4.421c-3.462,0.001-6.959,2.27-10.422,2.271   L632.452,413.237L632.452,413.237z"/>
	
		<path fill-rule="evenodd" clip-rule="evenodd" fill="#009FE3" stroke="#009FE3" stroke-width="0.216" stroke-miterlimit="22.9256" d="   M632.452,419.964c3.484,0,7.002-2.233,10.486-2.233c6.405,0,12.774,4.428,19.178,4.428c3.408,0,6.815-2.197,10.223-2.197   l-0.009,3.783c-3.405,0.001-6.774,2.199-10.178,2.201c-6.428,0.003-12.821-4.424-19.25-4.421c-3.462,0.001-6.959,2.27-10.422,2.271   L632.452,419.964L632.452,419.964z"/>
	
		<path fill-rule="evenodd" clip-rule="evenodd" fill="#009FE3" stroke="#009FE3" stroke-width="0.216" stroke-miterlimit="22.9256" d="   M632.452,426.816c3.484,0,7.002-2.233,10.486-2.233c6.405,0,12.774,4.428,19.178,4.428c3.408,0,6.815-2.197,10.223-2.197   l-0.009,3.783c-3.405,0.001-6.774,2.199-10.178,2.201c-6.428,0.003-12.821-4.424-19.25-4.421c-3.462,0.001-6.959,2.27-10.422,2.271   L632.452,426.816L632.452,426.816z"/>
	
		<path fill-rule="evenodd" clip-rule="evenodd" fill="#E30613" stroke="#E30613" stroke-width="0.216" stroke-miterlimit="22.9256" d="   M762.572,393.124c3.483,0,7.002-2.233,10.486-2.233c6.405,0,12.774,4.428,19.178,4.428c3.408,0,6.815-2.197,10.223-2.197   l-0.009,3.783c-3.405,0.001-6.774,2.199-10.178,2.201c-6.428,0.003-12.821-4.424-19.25-4.421c-3.462,0.001-6.959,2.27-10.422,2.271   L762.572,393.124L762.572,393.124z"/>
	
		<path fill-rule="evenodd" clip-rule="evenodd" fill="#009FE3" stroke="#009FE3" stroke-width="0.216" stroke-miterlimit="22.9256" d="   M632.452,406.444c3.484,0,7.002-2.233,10.486-2.233c6.405,0,12.774,4.428,19.178,4.428c3.408,0,6.815-2.197,10.223-2.197   l-0.009,3.783c-3.405,0.001-6.774,2.199-10.178,2.201c-6.428,0.003-12.821-4.424-19.25-4.421c-3.462,0.001-6.959,2.27-10.422,2.271   L632.452,406.444L632.452,406.444z"/>
</g>
</svg>