<?xml version="1.0" encoding="UTF-8"?>
<!-- Generator: Adobe Illustrator 17.0.0, SVG Export Plug-In . SVG Version: 6.00 Build 0)  -->
<!DOCTYPE svg PUBLIC "-//W3C//DTD SVG 1.1//EN" "http://www.w3.org/Graphics/SVG/1.1/DTD/svg11.dtd">
<svg version="1.1" id="Layer_1" xmlns="http://www.w3.org/2000/svg" xmlns:xlink="http://www.w3.org/1999/xlink" x="0px" y="0px" width="603.78px" height="612.283px" viewBox="0 0 603.78 612.283" enable-background="new 0 0 603.78 612.283" xml:space="preserve"><script xmlns="" type="text/javascript" charset="utf-8" id="zm-extension"/>
<g>
	<g>
		<path fill="#FFFFFF" d="M121.342,291.265c0,6.086-4.934,11.02-11.02,11.02c-6.086,0-11.02-4.934-11.02-11.02    s4.934-11.02,11.02-11.02C116.409,280.245,121.342,285.179,121.342,291.265"/>
		<path fill="#FFFFFF" d="M145.896,291.265c0,6.086-4.934,11.02-11.02,11.02c-6.086,0-11.02-4.934-11.02-11.02    s4.934-11.02,11.02-11.02C140.962,280.245,145.896,285.179,145.896,291.265"/>
		<path fill="#FFFFFF" d="M195.003,291.265c0,6.086-4.934,11.02-11.02,11.02c-6.086,0-11.02-4.934-11.02-11.02    s4.934-11.02,11.02-11.02C190.07,280.245,195.003,285.179,195.003,291.265"/>
		<path fill="#FFFFFF" d="M170.347,291.265c0,6.086-4.934,11.02-11.02,11.02c-6.086,0-11.02-4.934-11.02-11.02    s4.934-11.02,11.02-11.02C165.414,280.245,170.347,285.179,170.347,291.265"/>
		<path fill="#FFFFFF" d="M121.342,315.19c0,6.086-4.934,11.02-11.02,11.02c-6.086,0-11.02-4.934-11.02-11.02    c0-6.086,4.934-11.02,11.02-11.02C116.409,304.17,121.342,309.104,121.342,315.19"/>
		<path fill="#FFFFFF" d="M145.896,315.19c0,6.086-4.934,11.02-11.02,11.02c-6.086,0-11.02-4.934-11.02-11.02    c0-6.086,4.934-11.02,11.02-11.02C140.962,304.17,145.896,309.104,145.896,315.19"/>
		<path fill="#FFFFFF" d="M195.003,315.19c0,6.086-4.934,11.02-11.02,11.02c-6.086,0-11.02-4.934-11.02-11.02    c0-6.086,4.934-11.02,11.02-11.02C190.07,304.17,195.003,309.104,195.003,315.19"/>
		<path fill="#FFFFFF" d="M170.347,315.19c0,6.086-4.934,11.02-11.02,11.02c-6.086,0-11.02-4.934-11.02-11.02    c0-6.086,4.934-11.02,11.02-11.02C165.414,304.17,170.347,309.104,170.347,315.19"/>
		<path fill="#FFFFFF" d="M121.342,339.116c0,6.086-4.934,11.02-11.02,11.02c-6.086,0-11.02-4.934-11.02-11.02    c0-6.086,4.934-11.02,11.02-11.02C116.409,328.096,121.342,333.03,121.342,339.116"/>
		<path fill="#FFFFFF" d="M145.896,339.116c0,6.086-4.934,11.02-11.02,11.02c-6.086,0-11.02-4.934-11.02-11.02    c0-6.086,4.934-11.02,11.02-11.02C140.962,328.096,145.896,333.03,145.896,339.116"/>
		<path fill="#FFFFFF" d="M195.003,339.116c0,6.086-4.934,11.02-11.02,11.02c-6.086,0-11.02-4.934-11.02-11.02    c0-6.086,4.934-11.02,11.02-11.02C190.07,328.096,195.003,333.03,195.003,339.116"/>
		<path fill="#FFFFFF" d="M170.347,339.116c0,6.086-4.934,11.02-11.02,11.02c-6.086,0-11.02-4.934-11.02-11.02    c0-6.086,4.934-11.02,11.02-11.02C165.414,328.096,170.347,333.03,170.347,339.116"/>
		<path fill="#FFFFFF" d="M145.896,363.434c0,6.086-4.934,11.02-11.02,11.02c-6.086,0-11.02-4.934-11.02-11.02    c0-6.086,4.934-11.02,11.02-11.02C140.962,352.414,145.896,357.347,145.896,363.434"/>
		<path fill="#FFFFFF" d="M170.347,363.434c0,6.086-4.934,11.02-11.02,11.02c-6.086,0-11.02-4.934-11.02-11.02    c0-6.086,4.934-11.02,11.02-11.02C165.414,352.414,170.347,357.347,170.347,363.434"/>
		<path fill="#FFFFFF" d="M152.157,275.54c4.05-1.675,9.431-4.706,12.835-9.833c4.24-6.391,4.046-15.84,3.751-19.713    c-3.572,1.049-11.955,4.152-16.616,11.176c-0.588,0.885-1.085,1.835-1.514,2.814C152.32,266.143,152.366,271.992,152.157,275.54"/>
		<path fill="#FFFFFF" d="M148.718,266.772c-0.162-1.322-0.391-2.698-0.704-4.106c-0.207-0.925-0.443-1.859-0.73-2.8    c-0.933-3.071-2.317-6.174-4.361-9.004c-6.068-8.396-18.323-12.484-22.806-13.744c-0.387,4.451-0.704,16.646,5.987,25.901    c4.786,6.621,13.407,10.555,19.043,12.544c0.566,0.199,1.109,0.385,1.605,0.546c0.596,0.191,1.127,0.353,1.603,0.493    c0.164,0.048,0.333,0.098,0.479,0.14c0.028-0.008,0.052-0.016,0.078-0.024C149.087,274.667,149.236,271.014,148.718,266.772"/>
		<path fill="#FFFFFF" d="M148.908,276.762c0.002-0.014,0.002-0.032,0.004-0.046c-0.028,0.008-0.052,0.016-0.078,0.024    C148.857,276.746,148.886,276.756,148.908,276.762"/>
	</g>
	<path fill="#FFFFFF" d="M252.69,324.973l-9.377-26.364l-9.817,26.364H252.69z M260.908,349.352l-7.06-20.684l-21.731,0.277   l-7.612,20.407h-5.626l22.393-55.984l6.619-1.93l20.959,57.914H260.908z"/>
	<g>
		<path fill="#FFFFFF" d="M295.325,317.582c-0.846-0.074-1.801-0.156-2.868-0.247c-1.067-0.094-2.078-0.14-3.033-0.14    c-0.7,0-1.296,0.074-1.793,0.221c-0.497,0.148-0.975,0.377-1.434,0.69c-0.461,0.311-0.911,0.68-1.352,1.103    c-0.441,0.423-0.957,0.909-1.544,1.462v28.681h-7.446v-37.727h6.232l1.049,5.901h0.054c0.405-0.477,0.828-1.001,1.268-1.571    c0.443-0.57,0.891-1.113,1.352-1.627c0.461-0.514,0.945-0.993,1.462-1.434c0.514-0.441,1.067-0.79,1.655-1.047    c0.993-0.443,2.114-0.728,3.364-0.855c1.248-0.13,2.628-0.193,4.136-0.193L295.325,317.582z"/>
		<path fill="#FFFFFF" d="M304.371,315.707l-4.248-0.387v-2.15l9.983-8.164h1.49l0.166,6.619h10.314l-0.497,3.364    c-0.919,0.112-1.938,0.211-3.061,0.305c-1.123,0.092-2.178,0.173-3.171,0.247c-1.177,0.11-2.353,0.183-3.53,0.221v24.543    c0,1.362,0.247,2.493,0.744,3.392c0.497,0.901,1.571,1.352,3.227,1.352c0.883,0,1.948-0.018,3.199-0.056    c1.25-0.036,2.391-0.092,3.42-0.166v2.592c-0.55,0.257-1.26,0.534-2.124,0.828c-0.863,0.295-1.811,0.58-2.84,0.855    c-1.029,0.275-2.06,0.505-3.089,0.69c-1.029,0.183-1.986,0.275-2.868,0.275c-0.81,0-1.637-0.102-2.483-0.303    c-0.846-0.203-1.607-0.58-2.289-1.131c-0.68-0.552-1.24-1.334-1.681-2.345c-0.441-1.011-0.662-2.325-0.662-3.943V315.707z"/>
		<path fill="#FFFFFF" d="M356.273,329.826c0-2.499-0.249-4.633-0.746-6.397c-0.495-1.765-1.203-3.217-2.122-4.357    c-0.919-1.141-2.022-1.966-3.31-2.483c-1.286-0.514-2.702-0.772-4.246-0.772c-1.546,0-3.007,0.158-4.385,0.469    c-1.38,0.313-2.73,0.726-4.054,1.242v27.853c1.177,0.183,2.307,0.321,3.392,0.413c1.085,0.092,2.251,0.14,3.502,0.14    c1.765,0,3.392-0.148,4.882-0.443c1.49-0.293,2.638-0.772,3.446-1.434c0.405-0.367,0.82-0.937,1.242-1.709    c0.423-0.772,0.818-1.757,1.185-2.951c0.369-1.195,0.662-2.592,0.883-4.192S356.273,331.812,356.273,329.826 M329.964,287.467    l7.446-1.875v23.221c0,0.662-0.01,1.342-0.028,2.04c-0.018,0.698-0.028,1.342-0.028,1.93c-0.036,0.662-0.054,1.342-0.054,2.04    c0.772-0.55,1.561-1.065,2.371-1.544c0.808-0.479,1.655-0.901,2.537-1.268c0.883-0.369,1.821-0.662,2.814-0.883    c0.991-0.219,2.076-0.331,3.253-0.331c2.06,0,4.046,0.331,5.959,0.993c1.91,0.662,3.604,1.729,5.073,3.199    c1.472,1.472,2.648,3.392,3.53,5.765c0.883,2.371,1.324,5.249,1.324,8.631c0,3.273-0.433,6.186-1.296,8.743    c-0.864,2.555-2.114,4.716-3.751,6.481c-1.635,1.765-3.621,3.115-5.957,4.054c-2.335,0.937-4.974,1.406-7.915,1.406    c-2.315,0-4.77-0.156-7.363-0.469c-2.593-0.313-5.231-0.856-7.915-1.627V287.467z"/>
		<path fill="#FFFFFF" d="M383.852,316.258c-0.405,0.295-0.782,0.764-1.131,1.406c-0.349,0.644-0.654,1.416-0.911,2.317    c-0.257,0.901-0.469,1.885-0.634,2.951c-0.166,1.067-0.247,2.15-0.247,3.255l15.774-0.662c-0.183-1.25-0.451-2.511-0.8-3.779    c-0.349-1.268-0.828-2.399-1.434-3.392c-0.606-0.993-1.37-1.801-2.289-2.427c-0.919-0.624-2.04-0.937-3.364-0.937    c-0.883,0-1.757,0.092-2.62,0.275C385.331,315.45,384.55,315.779,383.852,316.258 M390.084,310.798    c1.655,0,3.272,0.239,4.854,0.718c1.581,0.477,3.025,1.276,4.329,2.399c1.306,1.121,2.445,2.61,3.42,4.467    c0.975,1.857,1.701,4.164,2.178,6.922v0.441c-0.331,0.405-0.78,0.774-1.35,1.103c-0.57,0.331-1.314,0.626-2.234,0.883    s-2.05,0.487-3.392,0.69c-1.342,0.201-2.951,0.357-4.826,0.469l-12.246,0.828v2.371c0,4.449,0.792,7.686,2.373,9.708    c1.581,2.022,3.97,3.033,7.169,3.033c1.324,0,2.694-0.13,4.11-0.387c1.416-0.257,2.766-0.568,4.054-0.937    c1.286-0.367,2.453-0.744,3.502-1.131c1.047-0.385,1.867-0.726,2.455-1.019l0.937,2.15c-1.067,0.7-2.261,1.434-3.586,2.208    c-1.324,0.772-2.748,1.48-4.274,2.122c-1.528,0.644-3.127,1.177-4.8,1.601c-1.671,0.423-3.39,0.634-5.157,0.634    c-2.096,0-4.034-0.331-5.817-0.993c-1.785-0.662-3.338-1.729-4.662-3.199c-1.322-1.472-2.361-3.392-3.115-5.765    c-0.754-2.371-1.131-5.249-1.131-8.631c0-3.787,0.441-7.006,1.322-9.652c0.883-2.648,2.096-4.78,3.641-6.399    c1.543-1.617,3.364-2.794,5.46-3.53C385.395,311.165,387.657,310.798,390.084,310.798"/>
		<path fill="#FFFFFF" d="M434.925,317.582c-0.846-0.074-1.803-0.156-2.868-0.247c-1.067-0.094-2.078-0.14-3.033-0.14    c-0.7,0-1.296,0.074-1.793,0.221c-0.497,0.148-0.975,0.377-1.434,0.69c-0.461,0.311-0.911,0.68-1.352,1.103    c-0.441,0.423-0.955,0.909-1.544,1.462v28.681h-7.446v-37.727h6.232l1.049,5.901h0.054c0.405-0.477,0.828-1.001,1.268-1.571    c0.443-0.57,0.893-1.113,1.352-1.627c0.459-0.514,0.947-0.993,1.462-1.434c0.514-0.441,1.067-0.79,1.655-1.047    c0.993-0.443,2.114-0.728,3.364-0.855c1.25-0.13,2.628-0.193,4.136-0.193L434.925,317.582z"/>
		<path fill="#FFFFFF" d="M463.441,317.582c-0.846-0.074-1.801-0.156-2.868-0.247c-1.067-0.094-2.078-0.14-3.033-0.14    c-0.7,0-1.296,0.074-1.793,0.221c-0.497,0.148-0.975,0.377-1.434,0.69c-0.461,0.311-0.911,0.68-1.352,1.103    c-0.441,0.423-0.955,0.909-1.546,1.462v28.681h-7.444v-37.727h6.232l1.049,5.901h0.054c0.405-0.477,0.828-1.001,1.268-1.571    c0.443-0.57,0.893-1.113,1.352-1.627c0.459-0.514,0.947-0.993,1.462-1.434c0.514-0.441,1.067-0.79,1.655-1.047    c0.991-0.443,2.114-0.728,3.364-0.855c1.25-0.13,2.628-0.193,4.136-0.193L463.441,317.582z"/>
		<path fill="#FFFFFF" d="M498.134,317.582c0-0.514-0.028-1.057-0.084-1.627c-0.054-0.57-0.128-1.103-0.219-1.599    c-0.092-0.497-0.193-0.937-0.303-1.324c-0.112-0.385-0.203-0.69-0.277-0.909l6.399-1.49c0.293,0.626,0.505,1.426,0.634,2.399    c0.128,0.975,0.193,1.976,0.193,3.007c0,2.206-0.341,4.696-1.021,7.472c-0.68,2.776-1.589,5.636-2.73,8.577    c-1.141,2.941-2.463,5.901-3.97,8.88c-1.508,2.979-3.071,5.773-4.688,8.384c-1.141,1.803-2.335,3.685-3.586,5.654    c-1.25,1.968-2.557,3.907-3.917,5.819s-2.776,3.731-4.248,5.46c-1.47,1.729-2.987,3.255-4.549,4.579    c-1.563,1.322-3.173,2.371-4.826,3.143c-1.655,0.772-3.346,1.159-5.075,1.159c-1.067,0-1.986-0.11-2.758-0.331    c-0.772-0.221-1.452-0.532-2.04-0.937v-2.371c0.331,0.072,0.708,0.138,1.131,0.191c0.423,0.056,0.8,0.084,1.131,0.084    c1.103,0,2.335-0.341,3.695-1.021c1.36-0.68,2.786-1.581,4.274-2.702c1.49-1.121,2.989-2.409,4.495-3.861    c1.508-1.452,2.951-2.969,4.331-4.551c1.378-1.581,2.656-3.153,3.833-4.716c1.177-1.561,2.17-3.023,2.977-4.383    c-1.434-4.12-2.85-7.981-4.246-11.584c-1.398-3.604-2.702-6.856-3.917-9.762c-1.212-2.906-2.335-5.414-3.364-7.528    c-1.029-2.116-1.894-3.743-2.592-4.882c-0.552-0.883-1.214-1.518-1.986-1.902c-0.772-0.387-1.526-0.58-2.261-0.58h-0.606v-2.261    c0.624-0.183,1.49-0.377,2.592-0.578c1.103-0.203,2.188-0.303,3.255-0.303c0.955,0,1.885,0.12,2.786,0.357    c0.899,0.239,1.627,0.708,2.178,1.408c0.81,0.993,1.709,2.527,2.702,4.605c0.993,2.078,2.032,4.487,3.117,7.225    c1.085,2.74,2.198,5.699,3.336,8.88c1.141,3.181,2.243,6.372,3.31,9.57h0.165c1.36-2.391,2.481-4.716,3.364-6.978    c0.881-2.261,1.571-4.457,2.068-6.591c0.497-2.132,0.838-4.202,1.021-6.204C498.043,321.453,498.134,319.494,498.134,317.582"/>
	</g>
</g>
</svg>