<?xml version="1.0" encoding="UTF-8" standalone="no"?>
<svg width="15px" height="30px" viewBox="0 0 15 30" version="1.1" xmlns="http://www.w3.org/2000/svg" xmlns:xlink="http://www.w3.org/1999/xlink"><script xmlns="" type="text/javascript" charset="utf-8" id="zm-extension"/>
    <!-- Generator: Sketch 43.1 (39012) - http://www.bohemiancoding.com/sketch -->
    <title>Shape</title>
    <desc>Created with Sketch.</desc>
    <defs/>
    <g id="Page-1" stroke="none" stroke-width="1" fill="none" fill-rule="evenodd">
        <g id="Home-fold-#6" transform="translate(-539.000000, -604.000000)" fill="#212121">
            <g id="services" transform="translate(50.000000, 93.000000)">
                <g id="Group-2" transform="translate(93.000000, 66.000000)">
                    <g id="Group-13" transform="translate(396.000000, 161.000000)">
                        <g id="form" transform="translate(0.000000, 14.000000)">
                            <g id="Group-3" transform="translate(0.000000, 270.000000)">
                                <g id="1490884432_ic_attach_file_48px">
                                    <g id="Group">
                                        <path d="M13,7 L13,22.3333333 C13,25.28 10.6133333,27.6666667 7.66666667,27.6666667 C4.72,27.6666667 2.33333333,25.28 2.33333333,22.3333333 L2.33333333,5.66666667 C2.33333333,3.82666667 3.82666667,2.33333333 5.66666667,2.33333333 C7.50666667,2.33333333 9,3.82666667 9,5.66666667 L9,19.6666667 C9,20.4 8.40666667,21 7.66666667,21 C6.92666667,21 6.33333333,20.4 6.33333333,19.6666667 L6.33333333,7 L4.33333333,7 L4.33333333,19.6666667 C4.33333333,21.5066667 5.82666667,23 7.66666667,23 C9.50666667,23 11,21.5066667 11,19.6666667 L11,5.66666667 C11,2.72 8.61333333,0.333333333 5.66666667,0.333333333 C2.72,0.333333333 0.333333333,2.72 0.333333333,5.66666667 L0.333333333,22.3333333 C0.333333333,26.3866667 3.62,29.6666667 7.66666667,29.6666667 C11.7133333,29.6666667 15,26.3866667 15,22.3333333 L15,7 L13,7 Z" id="Shape"/>
                                    </g>
                                </g>
                            </g>
                        </g>
                    </g>
                </g>
            </g>
        </g>
    </g>
</svg>