<?xml version="1.0" encoding="UTF-8"?>
<!-- Generator: Adobe Illustrator 17.0.0, SVG Export Plug-In . SVG Version: 6.00 Build 0)  -->
<!DOCTYPE svg PUBLIC "-//W3C//DTD SVG 1.1//EN" "http://www.w3.org/Graphics/SVG/1.1/DTD/svg11.dtd">
<svg version="1.1" id="Layer_1" xmlns="http://www.w3.org/2000/svg" xmlns:xlink="http://www.w3.org/1999/xlink" x="0px" y="0px" width="1000px" height="1000px" viewBox="0 0 1000 1000" enable-background="new 0 0 1000 1000" xml:space="preserve"><script xmlns="" type="text/javascript" charset="utf-8" id="zm-extension"/>
<path fill-rule="evenodd" clip-rule="evenodd" fill="#ED6E31" d="M808.555,500.856c0,6.245,1.271,11.646,3.826,16.184  c2.554,4.519,5.968,7.997,10.025,10.245c4.118,2.279,8.561,3.739,13.201,3.739c4.981,0,9.689-1.461,14.011-3.823  c4.334-2.377,7.906-5.991,10.522-10.646c2.623-4.625,3.974-10.192,3.974-16.649c0-6.495-1.34-12.1-3.879-16.657  c-2.562-4.572-6.04-8.096-10.234-10.355c-4.216-2.263-8.871-3.406-13.795-3.406c-4.833,0-9.363,1.215-13.549,3.618  c-4.194,2.407-7.672,6.063-10.234,10.805C809.868,488.658,808.555,494.312,808.555,500.856 M780.991,499.153  c0-6.691,1.276-13.602,3.732-20.68c2.471-7.112,6.169-13.72,10.964-19.756c4.799-6.014,10.631-10.889,17.432-14.488  c6.79-3.603,14.42-5.443,22.814-5.443c7.963,0,15.385,1.62,22.217,4.826c6.854,3.187,12.83,7.744,17.841,13.493  c5.011,5.768,8.898,12.456,11.596,19.893c2.695,7.471,4.087,15.392,4.087,23.711c0,8.652-1.548,16.721-4.614,24.06  c-3.073,7.316-7.297,13.765-12.561,19.068c-5.287,5.352-11.233,9.537-17.762,12.505c-6.517,2.937-13.198,4.644-19.859,4.701  c-7.403,0.061-14.537-1.514-21.285-4.508c-6.775-3.001-12.808-7.361-18.004-12.902c-5.23-5.564-9.326-12.179-12.228-19.764  C782.459,516.32,780.991,508.066,780.991,499.153z M106.794,558.335v-75.044c0-7.762,1.563-15.101,4.693-22.042  c3.145-6.934,7.744-12.569,13.648-16.77c5.919-4.224,12.838-6.373,20.695-6.373c4.678,0,9.352,0.893,13.958,2.649  c4.606,1.779,8.864,4.549,12.724,8.209c3.868,3.675,6.99,8.554,9.276,14.45c2.293,5.927,3.52,12.959,3.52,20.892v74.029h-32.034  v-36.243h-9.625v-30.028h9.625v-11.123c0-2.88-0.723-5.113-2.085-6.612c-1.362-1.533-3.183-2.32-5.359-2.32  c-1.953,0-3.656,0.78-4.988,2.35c-1.306,1.529-3.414,3.823-3.414,6.582v77.394H106.794z M201.783,558.335v-79.392  c0-7.993,1.544-15.01,4.527-21.009c3.009-6.01,7.422-10.786,13.163-14.208c5.734-3.406,12.562-5.476,20.392-5.62  c7.925-0.14,14.738,1.775,20.309,5.215c5.544,3.437,9.78,8.065,12.535,13.693c2.74,5.59,4.159,11.517,4.159,17.678  c0,8.103-2.108,14.552-6.302,19.408c4.25,3.009,7.486,7.089,9.693,12.1c2.214,5.045,3.334,10.446,3.334,16.248  c0,4.568-0.738,9.045-2.093,13.292c-1.363,4.284-3.463,8.194-6.052,11.574c-2.6,3.391-5.836,6.105-9.632,8.084  c-3.747,1.945-8.046,2.937-12.584,2.937h-14.787v-31.36c3.925,0,6.763-0.882,8.47-2.521c1.756-1.661,2.664-3.52,2.664-5.541  c0-5.302-3.721-7.956-11.135-7.956v-26.16c2.297-0.163,4.08-0.908,5.287-2.207c1.204-1.294,1.877-2.895,1.877-4.701  c0-1.873-0.609-3.52-1.707-4.86c-1.109-1.355-2.676-2.044-4.595-2.044c-1.73,0-4.413,1.559-5.151,2.611  c-1.54,2.18-2.577,10.559-2.577,12.887v71.849H201.783z M310.363,560.094v-84.316h-16.471V442.2h64.34v33.578h-16.755v84.316  H310.363z M397.878,502.631c0,6.18,1.276,11.54,3.83,16.025c2.551,4.485,5.961,7.922,10.022,10.154  c4.122,2.252,8.565,3.705,13.209,3.705c4.98,0,9.685-1.453,14-3.796c4.337-2.35,7.906-5.927,10.533-10.537  c2.619-4.587,3.974-10.101,3.974-16.494c0-6.43-1.34-11.982-3.883-16.501c-2.566-4.527-6.037-8.012-10.238-10.257  c-4.208-2.241-8.871-3.368-13.791-3.368c-4.841,0-9.367,1.204-13.545,3.592c-4.197,2.381-7.672,5.995-10.242,10.692  C399.199,490.546,397.878,496.159,397.878,502.631z M370.321,500.95c0-6.638,1.268-13.477,3.732-20.491  c2.468-7.032,6.165-13.576,10.972-19.567c4.784-5.953,10.616-10.779,17.421-14.355c6.786-3.569,14.416-5.382,22.81-5.382  c7.963,0,15.388,1.605,22.22,4.769c6.851,3.175,12.827,7.675,17.834,13.371c5.011,5.715,8.901,12.342,11.604,19.711  c2.699,7.399,4.088,15.245,4.088,23.477c0,8.572-1.552,16.562-4.618,23.829c-3.065,7.255-7.289,13.633-12.558,18.893  c-5.283,5.295-11.233,9.439-17.769,12.376c-6.506,2.918-13.186,4.606-19.851,4.659c-7.407,0.053-14.533-1.499-21.289-4.466  c-6.779-2.975-12.804-7.289-18.004-12.789c-5.227-5.499-9.318-12.051-12.229-19.559C371.789,517.951,370.321,509.769,370.321,500.95  z M602.193,444.229v84.638c0,10.62,2.785,18.666,8.371,24.139c4.784,4.719,10.931,7.077,18.432,7.077h31.83v-29.282h-21.07  c-3.818,0-6.574-1.022-8.247-3.062c-1.677-2.044-2.513-5.791-2.513-11.267h31.83v-28.639h-31.83v-14.321h31.83v-29.282H602.193z   M499.229,560.492V442.2h38.983c13.697,0,25.293,5.764,34.767,17.315c9.469,11.528,14.215,25.509,14.215,41.901  c0,16.312-4.689,30.221-14.079,41.761c-9.398,11.547-20.718,17.315-33.964,17.315V521.77c4.526,0,8.421-1.994,11.664-5.987  c3.251-3.982,4.875-8.773,4.875-14.367c0-5.677-1.624-10.522-4.875-14.503c-3.243-3.989-7.145-5.999-11.664-5.999h-8.417v79.578  H499.229z M673.841,559.648l55.155-118.818l52.475,118.818h-33.257l-20.195-54.254l-22.674,54.254H673.841z"/>
</svg>