<?xml version="1.0" encoding="UTF-8"?>
<!--Icons from directory ""-->
<svg xmlns="http://www.w3.org/2000/svg" width="12" height="70" viewBox="0 0 12 70"><script xmlns="" type="text/javascript" charset="utf-8" id="zm-extension"/><svg width="11" viewBox="0 0 11 17" height="17" id="carousel-arrow-left-hover" y="0"><path fill-rule="evenodd" d="m1.031 15.937c-0.712-0.708-0.712-1.858 0-2.567l4.926-4.887-4.926-4.887c-0.712-0.71-0.712-1.86 0-2.568 0.713-0.709 1.868-0.709 2.581 0l6.384 6.34c0.313 0.31 0.48 0.708 0.518 1.115-0.038 0.406-0.205 0.804-0.518 1.115l-6.384 6.339c-0.713 0.709-1.868 0.709-2.581 0z" transform="rotate(180 5.5 8.5)" fill="#FFD931"/></svg><svg width="11" viewBox="0 0 11 17" height="17" id="carousel-arrow-left" y="17"><path fill-rule="evenodd" d="m1.031 15.937c-0.712-0.708-0.712-1.858 0-2.567l4.926-4.887-4.926-4.887c-0.712-0.71-0.712-1.86 0-2.568 0.713-0.709 1.868-0.709 2.581 0l6.384 6.34c0.313 0.31 0.48 0.708 0.518 1.115-0.038 0.406-0.205 0.804-0.518 1.115l-6.384 6.339c-0.713 0.709-1.868 0.709-2.581 0z" transform="rotate(180 5.5 8.5)" fill="#1D1D1D"/></svg><svg xmlns:xlink="http://www.w3.org/1999/xlink" height="18" width="12" preserveAspectRatio="xMidYMid" viewBox="0 0 12 18" id="carousel-arrow-right-hover" y="34"><path class="cls-1" d="m1.031 15.937c-0.712-0.708-0.712-1.858 0-2.567l4.926-4.887-4.926-4.887c-0.712-0.71-0.712-1.86 0-2.568 0.713-0.709 1.868-0.709 2.581 0l6.384 6.34c0.313 0.31 0.48 0.708 0.518 1.115-0.038 0.406-0.205 0.804-0.518 1.115l-6.384 6.339c-0.713 0.709-1.868 0.709-2.581 0z" transform="translate(1 1)" fill="#FFD931"/></svg><svg xmlns:xlink="http://www.w3.org/1999/xlink" height="18" width="12" preserveAspectRatio="xMidYMid" viewBox="0 0 12 18" id="carousel-arrow-right" y="52"><path class="cls-1" d="m1.031 15.937c-0.712-0.708-0.712-1.858 0-2.567l4.926-4.887-4.926-4.887c-0.712-0.71-0.712-1.86 0-2.568 0.713-0.709 1.868-0.709 2.581 0l6.384 6.34c0.313 0.31 0.48 0.708 0.518 1.115-0.038 0.406-0.205 0.804-0.518 1.115l-6.384 6.339c-0.713 0.709-1.868 0.709-2.581 0z" transform="translate(1 1)" fill="#1D1D1D"/></svg></svg>