<?xml version="1.0" encoding="UTF-8"?>
<!-- Generator: Adobe Illustrator 17.0.0, SVG Export Plug-In . SVG Version: 6.00 Build 0)  -->
<!DOCTYPE svg PUBLIC "-//W3C//DTD SVG 1.1//EN" "http://www.w3.org/Graphics/SVG/1.1/DTD/svg11.dtd">
<svg version="1.1" id="Layer_1" xmlns="http://www.w3.org/2000/svg" xmlns:xlink="http://www.w3.org/1999/xlink" x="0px" y="0px" width="483.908px" height="560.997px" viewBox="0 0 483.908 560.997" enable-background="new 0 0 483.908 560.997" xml:space="preserve"><script xmlns="" type="text/javascript" charset="utf-8" id="zm-extension"/>
<g>
	<path fill="#42210B" d="M294.802,254.328c-4.744-11.336-9.227-22.043-9.227-32.713v-37.398h1.797V168.68   c0-4.68-3.271-7.052-9.725-7.052c-6.105,0-9.365,2.122-9.695,6.352l-0.033,16.237h1.801v37.398c0,9.667-4.348,20.216-8.953,31.385   c-0.365,0.885-0.73,1.77-1.094,2.66c-0.186-0.445-0.371-0.89-0.557-1.332c-4.746-11.336-9.229-22.043-9.229-32.713v-37.398h1.799   V168.68c0-4.68-3.273-7.052-9.727-7.052c-6.451,0-9.723,2.372-9.723,7.099v15.49h1.797v37.398c0,9.667-4.348,20.216-8.953,31.385   c-0.365,0.885-0.73,1.77-1.094,2.66c-0.188-0.445-0.371-0.89-0.557-1.332c-4.746-11.336-9.228-22.043-9.228-32.713v-37.398H216   V168.68c0-4.68-3.271-7.052-9.725-7.052c-6.453,0-9.728,2.372-9.728,7.099v15.49h1.803v37.398c0,9.667-4.349,20.216-8.955,31.385   c-5.23,12.686-10.639,25.804-10.639,39.491v42.792c0,4.796,4.217,8.697,9.401,8.697h35.686h0.547h35.138h0.547h35.686   c5.178,0,9.391-3.901,9.391-8.697v-42.792C305.152,279.051,299.89,266.483,294.802,254.328z M188.158,342.488   c-4.359,0-7.906-3.231-7.906-7.204v-42.792c0-13.392,5.351-26.37,10.526-38.922c4.662-11.31,9.066-21.991,9.066-31.954v-38.894   h-1.801V168.68c0-3.791,2.615-5.558,8.232-5.558c5.615,0,8.232,1.767,8.232,5.604v13.995h-1.799v38.894   c0,10.971,4.539,21.812,9.343,33.289c0.377,0.903,0.758,1.809,1.133,2.717c-4.564,11.246-8.742,22.838-8.742,34.87v42.792   c0,2.994,1.643,5.638,4.138,7.204H188.158z M223.843,342.488c-4.359,0-7.906-3.231-7.906-7.204v-42.792   c0-11.261,3.785-22.228,8.064-32.896c4.341,10.56,8.285,21.456,8.285,32.896v42.792c0,3.973-3.545,7.204-7.896,7.204H223.843z    M229.646,342.488c2.492-1.566,4.135-4.21,4.135-7.204v-42.792c0-12.233-4.359-23.741-8.978-34.875   c0.551-1.353,1.105-2.702,1.662-4.047c4.66-11.31,9.064-21.991,9.064-31.954v-38.894h-1.797V168.68   c0-3.791,2.615-5.558,8.229-5.558c5.617,0,8.232,1.767,8.232,5.604v13.995h-1.799v38.894c0,10.971,4.539,21.812,9.344,33.289   c0.379,0.904,0.756,1.811,1.133,2.718c-4.563,11.245-8.742,22.837-8.742,34.869v42.792c0,2.994,1.643,5.638,4.137,7.204H229.646z    M259.528,342.488c-4.359,0-7.906-3.231-7.906-7.204v-42.792c0-11.261,3.785-22.228,8.066-32.896   c4.338,10.559,8.283,21.455,8.283,32.896v42.792c0,3.973-3.543,7.204-7.897,7.204H259.528z M303.657,335.284   c0,3.973-3.543,7.204-7.896,7.204h-30.428c2.49-1.566,4.131-4.21,4.131-7.204v-42.792c0-12.233-4.357-23.741-8.979-34.875   c0.553-1.353,1.107-2.704,1.662-4.047c4.664-11.31,9.068-21.991,9.068-31.954v-38.894h-1.801V168.68   c0-3.791,2.615-5.558,8.232-5.558c5.615,0,8.23,1.767,8.23,5.604v13.995h-1.797v38.894c0,10.971,4.539,21.812,9.344,33.289   c5.029,12.019,10.232,24.445,10.232,37.587V335.284z"/>
	<g>
		<path fill="#42210B" d="M152.735,374.253c4.138,0,7.899,2.119,10.066,5.668l1.294-0.791c-2.446-4.003-6.692-6.391-11.36-6.391    c-7.343,0-13.316,5.974-13.316,13.314c0,7.34,5.974,13.315,13.316,13.315c4.668,0,8.914-2.391,11.36-6.395l-1.294-0.791    c-2.167,3.552-5.931,5.672-10.066,5.672c-6.506,0-11.802-5.293-11.802-11.801C140.933,379.547,146.229,374.253,152.735,374.253z"/>
		<polygon fill="#42210B" points="186.148,375.085 198.69,398.251 200.413,398.251 186.148,371.907 171.882,398.251     173.603,398.251   "/>
		<polygon fill="#42210B" points="218.808,396.05 206.272,372.883 204.551,372.883 218.808,399.228 233.073,372.883     231.353,372.883   "/>
		<polygon fill="#42210B" points="251.48,375.085 264.013,398.251 265.734,398.251 251.48,371.907 237.208,398.251 238.929,398.251       "/>
		<polygon fill="#42210B" points="330.236,375.085 342.769,398.251 344.489,398.251 330.236,371.907 315.964,398.251     317.685,398.251   "/>
		<path fill="#42210B" d="M307.763,372.883v12.193c0,6.506-5.293,11.802-11.801,11.802c-6.506,0-11.801-5.296-11.801-11.802v-12.193    h-1.514v12.193c0,7.342,5.975,13.316,13.314,13.316c7.34,0,13.314-5.975,13.314-13.316v-12.193H307.763z"/>
		<circle fill="#42210B" cx="276.186" cy="396.674" r="1.577"/>
	</g>
</g>
</svg>