<?xml version="1.0" encoding="UTF-8" standalone="no"?>
<svg width="272px" height="218px" viewBox="0 0 272 218" version="1.1" xmlns="http://www.w3.org/2000/svg" xmlns:xlink="http://www.w3.org/1999/xlink"><script xmlns="" type="text/javascript" charset="utf-8" id="zm-extension"/>
    <!-- Generator: Sketch 43.1 (39012) - http://www.bohemiancoding.com/sketch -->
    <title>20</title>
    <desc>Created with Sketch.</desc>
    <defs/>
    <g id="Page-1" stroke="none" stroke-width="1" fill="none" fill-rule="evenodd">
        <g id="Home-Copy-2" transform="translate(-469.000000, -3154.000000)" fill="#FFD931">
            <g id="services" transform="translate(50.000000, 3060.000000)">
                <g id="Group-3" transform="translate(20.000000, 70.000000)">
                    <g id="20" transform="translate(384.000000, 8.000000)">
                        <g transform="translate(149.500000, 125.500000) rotate(-95.000000) translate(-149.500000, -125.500000) translate(36.000000, -14.000000)">
                            <path d="M43.0890622,173.115847 C50.1938849,183.478476 47.2242911,197.830995 36.8445891,204.896424 C26.5897765,212.155806 12.3523778,209.689833 5.12266559,199.438034 C-2.10704663,189.172381 0.335236194,175.013815 10.6178019,167.768287 L11.7556837,166.978621 C15.0583162,164.720455 18.735617,163.45976 22.4545477,163.141123 C30.3225838,162.476142 38.2461264,166.078125 43.0890622,173.115847" id="Fill-65"/>
                            <path d="M93.6199028,66.3162444 L94.5198448,67.2453346 C100.299159,73.2562663 100.088236,82.7864788 94.0698738,88.5721764 C88.051512,94.343797 78.4755671,94.1326402 72.6962524,88.1076314 C66.6778906,82.3219337 66.4810283,72.7635669 72.2744046,66.7385581 C74.2711508,64.6269896 76.788176,63.2333544 79.4176939,62.5717296 C84.2970666,61.3188657 89.7107799,62.5435754 93.6199028,66.3162444" id="Fill-75"/>
                            <path d="M155.559817,10.7028663 L156.010845,11.1684098 C158.900246,14.173281 158.787489,18.9415743 155.785331,21.8335865 C152.783173,24.7114913 147.990996,24.6127397 145.101596,21.5937611 C142.085343,18.7017489 141.986681,13.9193482 144.890176,10.914477 C145.890896,9.85642374 147.145318,9.16516229 148.45612,8.82658525 C150.894492,8.20586068 153.600662,8.81247787 155.559817,10.7028663" id="Fill-101"/>
                            <path d="M219.26485,43.5943697 L219.909595,43.6800463 C224.016335,44.2655036 226.847602,48.1209537 226.272939,52.304831 C225.698276,56.4887084 221.885876,59.4017152 217.779136,58.8162579 C213.644363,58.402154 210.630885,54.64666 211.051371,50.4485032 C211.177516,48.9777204 211.738163,47.6354526 212.551102,46.5502148 C214.078865,44.5225336 216.573744,43.3230602 219.26485,43.5943697" id="Fill-109"/>
                            <path d="M120.201794,152.623462 L121.101736,153.552373 C126.881051,159.562146 126.670127,169.090522 120.651765,174.875105 C114.633404,180.645613 105.057459,180.434497 99.278144,174.410649 C93.2597822,168.626067 93.0629199,159.069542 98.8562962,153.045694 C100.853042,150.934533 103.370068,149.541166 105.985524,148.865594 C110.878958,147.627046 116.292672,148.85152 120.201794,152.623462" id="Fill-155"/>
                            <path d="M217.366291,109.664311 L218.011036,109.749988 C222.117775,110.335445 224.949043,114.190895 224.37438,118.374772 C223.799717,122.55865 219.987317,125.471657 215.880577,124.886199 C211.745804,124.472095 208.732326,120.716601 209.152811,116.518445 C209.292973,115.047662 209.839604,113.705394 210.652542,112.620156 C212.180306,110.592475 214.675185,109.393002 217.366291,109.664311" id="Fill-201"/>
                            <path d="M67.9693573,104.607682 L68.4205451,105.073226 C71.3109668,108.078097 71.1981699,112.84639 68.1949512,115.738402 C65.1917325,118.616307 60.3978622,118.517556 57.5074405,115.498577 C54.4901222,112.606565 54.4055245,107.824164 57.2959462,104.819293 C58.2970191,103.76124 59.5518851,103.069978 60.8631497,102.731401 C63.3023836,102.110677 66.0095103,102.717294 67.9693573,104.607682" id="Fill-211"/>
                            <path d="M54.8109849,18.549181 L55.7110855,19.4782711 C61.4914191,25.4892028 61.280458,35.0194153 55.2610352,40.805113 C49.2416124,46.5767335 39.6639793,46.3655767 33.8836457,40.3405679 C27.8642228,34.5548702 27.6813899,24.9965035 33.4617235,18.9714947 C35.4588217,16.8599262 37.9762906,15.4662909 40.6062721,14.8046662 C45.4865051,13.5518022 50.9011729,14.7765119 54.8109849,18.549181" id="Fill-219"/>
                            <path d="M159.620933,201.638411 L160.520875,202.567501 C166.30019,208.578433 166.089266,218.108645 160.070904,223.894343 C154.052543,229.665964 144.476598,229.454807 138.697283,223.429798 C132.678921,217.6441 132.482059,208.085733 138.275435,202.060725 C140.272181,199.949156 142.789207,198.555521 145.418724,197.893896 C150.298097,196.641032 155.711811,197.865742 159.620933,201.638411" id="Fill-223"/>
                            <path d="M174.72564,60.8813557 L175.625582,61.8104458 C181.404897,67.8213775 181.193973,77.35159 175.175611,83.1372877 C169.15725,88.9089082 159.581305,88.6977514 153.80199,82.6727426 C147.783628,76.8870449 147.586766,67.3286782 153.380142,61.3036694 C155.376888,59.1921009 157.893914,57.7984657 160.523432,57.1368409 C165.402804,55.8839769 170.816518,57.1086866 174.72564,60.8813557" id="Fill-260"/>
                            <path d="M208.029859,160.971386 L208.929801,161.900298 C214.709116,167.910071 214.498192,177.438447 208.47983,183.223029 C202.461468,188.993538 192.885524,188.782422 187.106209,182.758574 C181.087847,176.973991 180.890985,167.403392 186.684361,161.393619 C188.681107,159.282457 191.198132,157.889091 193.813589,157.213519 C198.707023,155.974971 204.120736,157.199444 208.029859,160.971386" id="Fill-314"/>
                            <path d="M128.821781,100.336334 L129.721882,101.265245 C135.502215,107.275018 135.291254,116.803394 129.271831,122.587977 C123.252409,128.358485 113.674775,128.147369 107.894442,122.123521 C101.875019,116.338939 101.692186,106.782414 107.47252,100.758566 C109.469618,98.6474046 111.987087,97.2540379 114.603004,96.5784662 C119.497301,95.3399181 124.911969,96.5643918 128.821781,100.336334" id="Fill-318"/>
                            <path d="M126.993032,32.9775703 L127.892974,33.9066604 C133.672289,39.9175921 133.461365,49.4478046 127.443003,55.2335023 C121.424642,61.0051228 111.848697,60.793966 106.069382,54.7689572 C100.05102,48.9832595 99.8541579,39.4248928 105.647534,33.399884 C107.64428,31.2883155 110.161306,29.8946803 112.790823,29.2330555 C117.670196,27.9801915 123.08391,29.2049012 126.993032,32.9775703" id="Fill-358"/>
                            <path d="M148.742315,228.485814 C159.255309,241.52464 156.798468,260.89783 143.700078,271.345972 C130.801663,282.036101 111.589738,280.214082 100.91962,267.34607 C90.249503,254.44959 92.0349979,235.375325 104.976265,224.699431 L106.404661,223.532199 C110.575577,220.20132 115.332135,218.151549 120.245817,217.354415 C130.658823,215.674741 141.586052,219.617705 148.742315,228.485814" id="Fill-362"/>
                            <path d="M52.2029482,229.024534 C61.0621783,237.853458 61.0776936,252.175245 52.2339787,261.019686 L51.1944544,262.059295 C42.1955866,270.74857 27.8749747,270.500305 19.2174433,261.485182 C10.513366,252.501093 10.7771259,238.179306 19.7604784,229.505547 L20.2259371,229.055567 C24.13579,225.098844 29.1627437,222.926525 34.3138197,222.492061 C40.7216341,221.948981 47.315632,224.1213 52.2029482,229.024534" id="Fill-372"/>
                            <path d="M33.3441457,138.55576 L33.795174,139.021364 C36.6845747,142.026625 36.5718176,146.795538 33.5696598,149.687925 C30.5675021,152.566204 25.7753254,152.46744 22.8859248,149.448069 C19.8696724,146.555681 19.7710099,141.77266 22.6745052,138.767398 C23.6752245,137.709208 24.9296472,137.017856 26.2404484,136.679235 C28.6788207,136.05843 31.3849911,136.679235 33.3441457,138.55576" id="Fill-380"/>
                            <path d="M38.5060727,184.122278 L38.957101,184.587822 C41.8465017,187.592693 41.7337446,192.360986 38.7315868,195.252998 C35.7294291,198.130903 30.9372524,198.032151 28.0478518,195.013173 C25.0315994,192.121161 24.9329369,187.33876 27.8364322,184.333889 C28.8371515,183.275835 30.0915742,182.584574 31.4023754,182.245997 C33.8407477,181.625272 36.5469181,182.23189 38.5060727,184.122278" id="Fill-472"/>
                            <path d="M65.0537748,80.8996205 C70.3945529,92.2578 65.6194647,105.844059 54.3056667,111.255109 L52.5753212,112.042476 C41.2615232,116.950951 28.150828,111.657169 23.1594466,100.248732 C18.1181513,88.8402947 23.3424639,75.404808 34.6229859,70.2282926 L44.6223867,90.6663147 L34.9224688,70.0775203 C37.4514354,68.8713419 40.0802296,68.1844903 42.7256618,67.9499557 C51.8432519,67.1793417 60.8942902,72.071065 65.0537748,80.8996205" id="Fill-530"/>
                            <path d="M53.1853876,120.165157 L54.0854882,121.094068 C59.8658218,127.103841 59.6548607,136.632217 53.6354379,142.4168 C47.6300791,148.187308 38.038382,147.976192 32.2580484,141.952344 C26.2386255,136.167761 26.0557926,126.611237 31.8361262,120.587389 C33.8472885,118.476227 36.3506933,117.082861 38.9806748,116.407289 C43.8609078,115.168741 49.2755756,116.393215 53.1853876,120.165157" id="Fill-538"/>
                            <path d="M69.5958555,2.99680422 L70.0468839,3.46234765 C72.9362846,6.46721887 72.8235275,11.2355122 69.8213697,14.1275244 C66.819212,17.0054292 62.0270353,16.9066776 59.1376347,13.887699 C56.1213823,10.9956868 56.0227198,6.21328609 58.9262151,3.20841487 C59.9269343,2.15036162 61.1813571,1.45910017 62.4921583,1.12052313 C64.9305306,0.499798562 67.636701,1.10641576 69.5958555,2.99680422" id="Fill-550"/>
                        </g>
                    </g>
                </g>
            </g>
        </g>
    </g>
</svg>