<?xml version="1.0" encoding="UTF-8" standalone="no"?>
<svg width="293px" height="231px" viewBox="0 0 293 231" version="1.1" xmlns="http://www.w3.org/2000/svg" xmlns:xlink="http://www.w3.org/1999/xlink"><script xmlns="" type="text/javascript" charset="utf-8" id="zm-extension"/>
    <!-- Generator: Sketch 43.1 (39012) - http://www.bohemiancoding.com/sketch -->
    <title>80</title>
    <desc>Created with Sketch.</desc>
    <defs/>
    <g id="Page-1" stroke="none" stroke-width="1" fill="none" fill-rule="evenodd">
        <g id="Home-fold-#5" transform="translate(-508.000000, -412.000000)" fill="#FFD931">
            <g id="services" transform="translate(50.000000, 93.000000)">
                <g id="Group-3" transform="translate(20.000000, 70.000000)">
                    <g id="Group-2-Copy-4" transform="translate(370.000000, 171.000000)">
                        <g id="80" transform="translate(215.788459, 206.924659) scale(-1, 1) rotate(-31.000000) translate(-215.788459, -206.924659) translate(49.288459, 66.424659)">
                            <g id="Group-6" transform="translate(51.637134, 0.661554)">
                                <path d="M185.349781,60.595348 L185.648222,60.9048482 C187.560106,62.9025312 187.485495,66.0725633 185.499002,67.9952159 C183.512508,69.9084897 180.341579,69.8428381 178.429695,67.8357764 C176.433875,65.9131238 176.368591,62.7337129 178.289801,60.7360299 C178.951966,60.0326205 179.782003,59.5730596 180.649345,59.3479685 C182.262789,58.9353016 184.053431,59.3479685 185.349781,60.595348" id="Fill-13"/>
                                <path d="M44.2574655,122.51414 L44.472794,122.887881 C45.839662,125.289168 44.9783479,128.325815 42.5722859,129.689971 C40.1568617,131.044783 37.095452,130.194521 35.7285841,127.783891 C34.2680951,125.429321 34.9983396,122.345956 37.3575911,120.897709 C38.1720946,120.383815 39.0895813,120.140883 39.9977059,120.140883 C41.6735234,120.140883 43.3118925,120.981801 44.2574655,122.51414" id="Fill-17"/>
                                <path d="M164.988446,52.7073374 L165.286887,53.0167974 C167.19877,55.014221 167.12416,58.1838415 165.137666,60.1062445 C163.151173,62.0192699 159.980244,61.9536269 158.06836,59.9468257 C156.07254,58.0244227 156.007256,54.8454246 157.928466,52.848001 C158.59063,52.1446828 159.420668,51.6851816 160.28801,51.4601198 C161.901453,51.0475065 163.692096,51.4507423 164.988446,52.7073374" id="Fill-19"/>
                                <path d="M101.451619,14.7726897 L102.047101,15.3901634 C105.871208,19.3850311 105.731642,25.7188143 101.74936,29.5639914 C97.7670781,33.3998128 91.4307837,33.2594779 87.6066765,29.2552545 C83.6243946,25.4100774 83.494133,19.0575829 87.3275446,15.0533595 C88.648769,13.6500102 90.3142561,12.7237997 92.0448739,12.2747279 C95.2828041,11.4514296 98.864997,12.2653722 101.451619,14.7726897" id="Fill-41"/>
                                <path d="M43.3306928,127.102344 L43.2646058,127.957077 C42.8114383,133.447809 37.9304468,137.498501 32.3508221,137.061844 C26.7711973,136.606606 22.626603,131.766214 23.0797705,126.275482 C23.3063542,120.766169 28.0268489,116.492503 33.6253556,116.715477 C35.5701995,116.789802 37.3923104,117.421561 38.8934277,118.424944 C41.6974016,120.30164 43.4817486,123.516181 43.3306928,127.102344" id="Fill-43"/>
                                <path d="M141.30595,39.0698676 C139.084225,39.2589218 136.79276,38.7116597 134.810144,37.3584296 C130.247138,34.2440105 129.071517,28.0251225 132.189903,23.4579712 L132.568493,22.9306095 C135.776544,18.4231595 142.043205,17.3684361 146.53647,20.5724072 C151.029735,23.7763783 152.085802,30.0151667 148.897676,34.5126665 L148.728306,34.7415216 C146.954911,37.328579 144.19519,38.8310623 141.30595,39.0698676" id="Fill-51"/>
                                <path d="M79.9041998,43.2383659 L80.4996812,43.8558396 C84.3237884,47.8507072 84.1842225,54.1844904 80.2019405,58.0296675 C76.2196586,61.865489 69.8833642,61.7251541 66.059257,57.7209307 C62.076975,53.8757536 61.9467135,47.5232591 65.7801251,43.5190357 C67.1013494,42.1156864 68.7668365,41.1894759 70.5067588,40.7404041 C73.7353846,39.9171058 77.3175774,40.7310484 79.9041998,43.2383659" id="Fill-69"/>
                                <path d="M142.748007,6.89819216 L143.046447,7.20765215 C144.958331,9.20507575 144.883721,12.3746963 142.897227,14.2970993 C140.910733,16.2101247 137.739804,16.1444817 135.82792,14.1376805 C133.8321,12.2152775 133.766816,9.03627939 135.688026,7.03885579 C136.350191,6.33553763 137.180228,5.87603642 138.047571,5.65097461 C139.661014,5.23836129 141.451656,5.64159703 142.748007,6.89819216" id="Fill-97"/>
                                <path d="M107.321121,1.57387253 L107.619561,1.88333253 C109.531445,3.88075612 109.456835,7.05037666 107.470341,8.97277964 C105.483847,10.8858051 102.312918,10.820162 100.401034,8.81336086 C98.4052142,6.89095787 98.3399304,3.71195976 100.26114,1.71453617 C100.923305,1.011218 101.753342,0.551716796 102.620685,0.326654983 C104.234128,-0.0859583413 106.02477,0.317277407 107.321121,1.57387253" id="Fill-99"/>
                                <path d="M56.1749365,126.643543 L56.4733769,126.953003 C58.3852607,128.950427 58.3106506,132.120048 56.3241567,134.042451 C54.3376629,135.955476 51.1667338,135.889833 49.2548501,133.883032 C47.25903,131.960629 47.1937461,128.781631 49.1149561,126.784207 C49.7771207,126.080889 50.6071581,125.621388 51.4745004,125.396326 C53.0879438,124.983713 54.8785861,125.386948 56.1749365,126.643543" id="Fill-113"/>
                                <path d="M58.506831,15.1813207 L58.8052713,15.4907807 C60.7171551,17.4882043 60.642545,20.6578248 58.6560511,22.5802278 C56.6695573,24.4932532 53.4986282,24.4276102 51.5867445,22.420809 C49.5909244,20.498406 49.5256405,17.3194079 51.4468505,15.3219843 C52.1090151,14.6186662 52.9390525,14.159165 53.8063949,13.9341031 C55.4198382,13.5214898 57.2104805,13.9247256 58.506831,15.1813207" id="Fill-117"/>
                                <path d="M66.8479443,135.440765 L67.4435307,136.058239 C71.2683121,140.053106 71.1287216,146.386889 67.1457375,150.232067 C63.1720596,154.067888 56.825342,153.927553 53.0005607,149.92333 C49.0175766,146.078153 48.8965982,139.716302 52.7213795,135.721435 C54.0428368,134.318085 55.7086175,133.391875 57.4488465,132.942803 C60.6780415,132.119505 64.2608659,132.933447 66.8479443,135.440765" id="Fill-151"/>
                                <path d="M49.5199286,72.2113317 L49.9496767,72.9570485 C52.6776429,77.7669215 50.9679928,83.8351915 46.1473402,86.5663791 C41.3266876,89.2789237 35.1981061,87.5637752 32.4701399,82.7445807 C29.536642,78.0465653 30.9940486,71.8850807 35.7119353,68.9674639 C37.3468466,67.9514248 39.1872895,67.466709 40.990363,67.466709 C44.3442667,67.466709 47.6234315,69.1538931 49.5199286,72.2113317" id="Fill-179"/>
                                <path d="M109.716264,85.8485686 C106.384491,86.1347085 102.946611,85.3080821 99.9756039,83.2839073 C93.1316762,78.6102891 91.3702933,69.2736504 96.0496299,62.4380863 L96.6119991,61.6326554 C101.418665,54.8712758 110.819781,53.3028052 117.557601,58.1035968 C124.306032,62.9043883 125.897643,72.2728204 121.101588,79.0130045 L120.857541,79.362731 C118.194245,83.2415162 114.056057,85.4776465 109.716264,85.8485686" id="Fill-187"/>
                                <path d="M52.7593478,96.3553208 L53.0577882,96.6647808 C54.9696719,98.6622044 54.8950618,101.831825 52.908568,103.754228 C50.9220742,105.667253 47.7511451,105.60161 45.8392613,103.594809 C43.8434412,101.672406 43.7781574,98.493408 45.6993674,96.4959845 C46.361532,95.7926663 47.1915693,95.3331651 48.0589117,95.1081033 C49.6723551,94.6954899 51.4629974,95.0987257 52.7593478,96.3553208" id="Fill-195"/>
                                <path d="M113.939207,52.4754354 C111.71752,52.6644896 109.426094,52.1172274 107.443512,50.7639974 C102.880586,47.6495783 101.714947,41.4306903 104.833279,36.863539 L105.2019,36.3361773 C108.409896,31.8287273 114.676448,30.7740039 119.169636,33.9779749 C123.672786,37.181946 124.728834,43.4207345 121.530801,47.9182343 L121.361434,48.1470894 C119.58807,50.7341468 116.828396,52.2266799 113.939207,52.4754354" id="Fill-225"/>
                                <path d="M134.321996,119.816854 C132.098086,120.006997 129.805631,119.459386 127.825438,118.105572 C123.263377,114.994841 122.090493,108.765773 125.213106,104.20996 L125.586296,103.677561 C128.792686,99.1673813 135.06076,98.1177949 139.554277,101.319794 C144.047793,104.521793 145.106435,110.766072 141.915277,115.253435 L141.747722,115.489211 C139.973164,118.075149 137.216125,119.573472 134.321996,119.816854" id="Fill-248"/>
                                <path d="M184.90227,106.179709 L185.20071,106.48921 C187.112594,108.486893 187.037984,111.656925 185.05149,113.579577 C183.064996,115.492851 179.894067,115.427199 177.982183,113.420138 C175.986363,111.497485 175.921079,108.318074 177.842289,106.320391 C178.504454,105.616982 179.334491,105.157421 180.201834,104.93233 C181.815277,104.519663 183.605919,104.93233 184.90227,106.179709" id="Fill-274"/>
                                <path d="M155.20606,63.0488342 L155.801541,63.6663078 C159.625648,67.6611755 159.486082,73.9949587 155.5038,77.8401358 C151.521519,81.6759573 145.185224,81.5356224 141.361117,77.531399 C137.378835,73.6862219 137.248573,67.3243717 141.081985,63.329504 C142.403209,61.9261547 144.068696,60.9999442 145.808619,60.5508724 C149.037245,59.7275741 152.619437,60.5415167 155.20606,63.0488342" id="Fill-302"/>
                                <path d="M99.4975951,136.87966 C96.6092429,137.12461 93.6299189,136.098883 91.4465975,133.825444 C87.6106231,129.814392 87.7243378,123.422737 91.7043507,119.541815 C95.6009729,115.599656 102.037222,115.484836 105.941426,119.43465 C109.860791,123.376809 109.966924,129.668954 106.062721,133.618767 L105.600282,134.078048 C103.871819,135.762077 101.71124,136.688293 99.4975951,136.87966" id="Fill-324"/>
                                <path d="M179.38361,107.81764 C176.051838,108.10378 172.613958,107.277154 169.642951,105.252979 C162.799023,100.57936 161.03764,91.2427218 165.716977,84.4071577 L166.279346,83.6017268 C171.086011,76.8403472 180.487127,75.2718766 187.224948,80.0726682 C193.973379,84.8734597 195.56499,94.2418917 190.768935,100.982076 L190.524888,101.331802 C187.861592,105.210588 183.723403,107.446718 179.38361,107.81764" id="Fill-366"/>
                                <path d="M48.7587718,41.6091304 L49.0572121,41.9185904 C50.9690959,43.916014 50.8944858,47.0856345 48.907992,49.0080375 C46.9214981,50.9210629 43.750569,50.8554199 41.8386853,48.8486187 C39.8428652,46.9262158 39.7775813,43.7472176 41.6987913,41.749794 C42.3609559,41.0464759 43.1909933,40.5869747 44.0583357,40.3619129 C45.671779,39.9492995 47.4624213,40.3525353 48.7587718,41.6091304" id="Fill-410"/>
                                <path d="M147.801424,38.4459726 L148.099864,38.7554325 C150.011748,40.7528561 149.937138,43.9224767 147.950644,45.8448797 C145.96415,47.7579051 142.793221,47.6922621 140.881337,45.6854609 C138.885517,43.7630579 138.820233,40.5840598 140.741443,38.5866362 C141.403608,37.883318 142.233645,37.4238168 143.100987,37.198755 C144.714431,36.7861417 146.505073,37.1893774 147.801424,38.4459726" id="Fill-414"/>
                                <path d="M80.7904105,14.573211 L81.0888509,14.882671 C83.0007347,16.8800946 82.9261246,20.0497151 80.9396307,21.9721181 C78.9531369,23.8851435 75.7822078,23.8195005 73.870324,21.8126993 C71.874504,19.8902963 71.8092201,16.7112982 73.7304301,14.7138746 C74.3925947,14.0105565 75.2226321,13.5510553 76.0899744,13.3259934 C77.7034178,12.9133801 79.4940601,13.3166159 80.7904105,14.573211" id="Fill-416"/>
                                <path d="M124.23879,127.317895 L124.537231,127.627355 C126.449114,129.624779 126.374504,132.794399 124.38801,134.716802 C122.401517,136.629828 119.230587,136.564184 117.318704,134.557383 C115.322884,132.63498 115.2576,129.455982 117.17881,127.458559 C117.840974,126.75524 118.671012,126.295739 119.538354,126.070677 C121.151797,125.658064 122.94244,126.0613 124.23879,127.317895" id="Fill-418"/>
                                <path d="M57.6549475,59.9327885 L57.9533879,60.2422485 C59.8652716,62.2396721 59.7906615,65.4092926 57.8041677,67.3316956 C55.8176739,69.244721 52.6467448,69.179078 50.734861,67.1722768 C48.7390409,65.2498738 48.6737571,62.0708757 50.5949671,60.0734521 C51.2571317,59.370134 52.087169,58.9106328 52.9545114,58.685571 C54.5679548,58.2729576 56.3585971,58.6761934 57.6549475,59.9327885" id="Fill-428"/>
                                <path d="M18.7660165,53.2560098 L19.1899041,53.9990416 C21.9279892,58.8116013 20.2095258,64.8930306 15.3863718,67.6136701 C10.5746742,70.3228783 4.43403155,68.6081895 1.70740292,63.7956299 C-1.2139849,59.0973828 0.240980798,52.9245033 4.94957057,50.0095325 C6.58783903,48.9921505 8.43232311,48.5120377 10.2309815,48.5120377 C13.5877134,48.5120377 16.8642503,50.1924326 18.7660165,53.2560098" id="Fill-508"/>
                                <path d="M20.0677454,35.4429585 L20.0393564,35.8714918 C19.8122447,38.6196942 17.370794,40.6412532 14.5792127,40.4269866 C11.7876313,40.1940881 9.71523708,37.7812595 9.94234878,35.0330571 C10.0559046,32.2755388 12.4121885,30.1328725 15.2132328,30.2539797 C16.1879205,30.2819275 17.0963673,30.5986695 17.8534063,31.1017303 C19.2444655,32.0426403 20.1434493,33.644982 20.0677454,35.4429585" id="Fill-510"/>
                                <path d="M88.5766197,84.3508162 L89.1721011,84.9684089 C92.9962083,88.9640466 92.8566423,95.2990507 88.8743604,99.1449689 C84.8920784,102.98153 78.555784,102.841168 74.7316768,98.8361726 C70.7493949,94.9902543 70.6191333,88.6365353 74.4525449,84.6315402 C75.7737693,83.2279204 77.4392564,82.3015313 79.1791786,81.8617304 C82.4078044,81.028916 85.9899973,81.8430155 88.5766197,84.3508162" id="Fill-532"/>
                                <path d="M216.271454,85.0145171 L216.866935,85.6321098 C220.691042,89.6277475 220.551476,95.9627516 216.569194,99.8086698 C212.586912,103.645231 206.250618,103.504869 202.426511,99.4998735 C198.444229,95.6539552 198.313967,89.3002363 202.147379,85.2952411 C203.468603,83.8916213 205.13409,82.9652322 206.874013,82.5254313 C210.102638,81.6926169 213.684831,82.5067164 216.271454,85.0145171" id="Fill-534"/>
                            </g>
                            <g id="Group-6-Copy" transform="translate(133.963913, 151.836945) scale(-1, 1) rotate(141.000000) translate(-133.963913, -151.836945) translate(23.963913, 74.836945)">
                                <path d="M185.349781,60.595348 L185.648222,60.9048482 C187.560106,62.9025312 187.485495,66.0725633 185.499002,67.9952159 C183.512508,69.9084897 180.341579,69.8428381 178.429695,67.8357764 C176.433875,65.9131238 176.368591,62.7337129 178.289801,60.7360299 C178.951966,60.0326205 179.782003,59.5730596 180.649345,59.3479685 C182.262789,58.9353016 184.053431,59.3479685 185.349781,60.595348" id="Fill-13"/>
                                <path d="M44.2574655,122.51414 L44.472794,122.887881 C45.839662,125.289168 44.9783479,128.325815 42.5722859,129.689971 C40.1568617,131.044783 37.095452,130.194521 35.7285841,127.783891 C34.2680951,125.429321 34.9983396,122.345956 37.3575911,120.897709 C38.1720946,120.383815 39.0895813,120.140883 39.9977059,120.140883 C41.6735234,120.140883 43.3118925,120.981801 44.2574655,122.51414" id="Fill-17"/>
                                <path d="M164.988446,52.7073374 L165.286887,53.0167974 C167.19877,55.014221 167.12416,58.1838415 165.137666,60.1062445 C163.151173,62.0192699 159.980244,61.9536269 158.06836,59.9468257 C156.07254,58.0244227 156.007256,54.8454246 157.928466,52.848001 C158.59063,52.1446828 159.420668,51.6851816 160.28801,51.4601198 C161.901453,51.0475065 163.692096,51.4507423 164.988446,52.7073374" id="Fill-19"/>
                                <path d="M101.451619,14.7726897 L102.047101,15.3901634 C105.871208,19.3850311 105.731642,25.7188143 101.74936,29.5639914 C97.7670781,33.3998128 91.4307837,33.2594779 87.6066765,29.2552545 C83.6243946,25.4100774 83.494133,19.0575829 87.3275446,15.0533595 C88.648769,13.6500102 90.3142561,12.7237997 92.0448739,12.2747279 C95.2828041,11.4514296 98.864997,12.2653722 101.451619,14.7726897" id="Fill-41"/>
                                <path d="M43.3306928,127.102344 L43.2646058,127.957077 C42.8114383,133.447809 37.9304468,137.498501 32.3508221,137.061844 C26.7711973,136.606606 22.626603,131.766214 23.0797705,126.275482 C23.3063542,120.766169 28.0268489,116.492503 33.6253556,116.715477 C35.5701995,116.789802 37.3923104,117.421561 38.8934277,118.424944 C41.6974016,120.30164 43.4817486,123.516181 43.3306928,127.102344" id="Fill-43"/>
                                <path d="M141.30595,39.0698676 C139.084225,39.2589218 136.79276,38.7116597 134.810144,37.3584296 C130.247138,34.2440105 129.071517,28.0251225 132.189903,23.4579712 L132.568493,22.9306095 C135.776544,18.4231595 142.043205,17.3684361 146.53647,20.5724072 C151.029735,23.7763783 152.085802,30.0151667 148.897676,34.5126665 L148.728306,34.7415216 C146.954911,37.328579 144.19519,38.8310623 141.30595,39.0698676" id="Fill-51"/>
                                <path d="M79.9041998,43.2383659 L80.4996812,43.8558396 C84.3237884,47.8507072 84.1842225,54.1844904 80.2019405,58.0296675 C76.2196586,61.865489 69.8833642,61.7251541 66.059257,57.7209307 C62.076975,53.8757536 61.9467135,47.5232591 65.7801251,43.5190357 C67.1013494,42.1156864 68.7668365,41.1894759 70.5067588,40.7404041 C73.7353846,39.9171058 77.3175774,40.7310484 79.9041998,43.2383659" id="Fill-69"/>
                                <path d="M142.748007,6.89819216 L143.046447,7.20765215 C144.958331,9.20507575 144.883721,12.3746963 142.897227,14.2970993 C140.910733,16.2101247 137.739804,16.1444817 135.82792,14.1376805 C133.8321,12.2152775 133.766816,9.03627939 135.688026,7.03885579 C136.350191,6.33553763 137.180228,5.87603642 138.047571,5.65097461 C139.661014,5.23836129 141.451656,5.64159703 142.748007,6.89819216" id="Fill-97"/>
                                <path d="M107.321121,1.57387253 L107.619561,1.88333253 C109.531445,3.88075612 109.456835,7.05037666 107.470341,8.97277964 C105.483847,10.8858051 102.312918,10.820162 100.401034,8.81336086 C98.4052142,6.89095787 98.3399304,3.71195976 100.26114,1.71453617 C100.923305,1.011218 101.753342,0.551716796 102.620685,0.326654983 C104.234128,-0.0859583413 106.02477,0.317277407 107.321121,1.57387253" id="Fill-99"/>
                                <path d="M56.1749365,126.643543 L56.4733769,126.953003 C58.3852607,128.950427 58.3106506,132.120048 56.3241567,134.042451 C54.3376629,135.955476 51.1667338,135.889833 49.2548501,133.883032 C47.25903,131.960629 47.1937461,128.781631 49.1149561,126.784207 C49.7771207,126.080889 50.6071581,125.621388 51.4745004,125.396326 C53.0879438,124.983713 54.8785861,125.386948 56.1749365,126.643543" id="Fill-113"/>
                                <path d="M58.506831,15.1813207 L58.8052713,15.4907807 C60.7171551,17.4882043 60.642545,20.6578248 58.6560511,22.5802278 C56.6695573,24.4932532 53.4986282,24.4276102 51.5867445,22.420809 C49.5909244,20.498406 49.5256405,17.3194079 51.4468505,15.3219843 C52.1090151,14.6186662 52.9390525,14.159165 53.8063949,13.9341031 C55.4198382,13.5214898 57.2104805,13.9247256 58.506831,15.1813207" id="Fill-117"/>
                                <path d="M66.8479443,135.440765 L67.4435307,136.058239 C71.2683121,140.053106 71.1287216,146.386889 67.1457375,150.232067 C63.1720596,154.067888 56.825342,153.927553 53.0005607,149.92333 C49.0175766,146.078153 48.8965982,139.716302 52.7213795,135.721435 C54.0428368,134.318085 55.7086175,133.391875 57.4488465,132.942803 C60.6780415,132.119505 64.2608659,132.933447 66.8479443,135.440765" id="Fill-151"/>
                                <path d="M49.5199286,72.2113317 L49.9496767,72.9570485 C52.6776429,77.7669215 50.9679928,83.8351915 46.1473402,86.5663791 C41.3266876,89.2789237 35.1981061,87.5637752 32.4701399,82.7445807 C29.536642,78.0465653 30.9940486,71.8850807 35.7119353,68.9674639 C37.3468466,67.9514248 39.1872895,67.466709 40.990363,67.466709 C44.3442667,67.466709 47.6234315,69.1538931 49.5199286,72.2113317" id="Fill-179"/>
                                <path d="M109.716264,85.8485686 C106.384491,86.1347085 102.946611,85.3080821 99.9756039,83.2839073 C93.1316762,78.6102891 91.3702933,69.2736504 96.0496299,62.4380863 L96.6119991,61.6326554 C101.418665,54.8712758 110.819781,53.3028052 117.557601,58.1035968 C124.306032,62.9043883 125.897643,72.2728204 121.101588,79.0130045 L120.857541,79.362731 C118.194245,83.2415162 114.056057,85.4776465 109.716264,85.8485686" id="Fill-187"/>
                                <path d="M52.7593478,96.3553208 L53.0577882,96.6647808 C54.9696719,98.6622044 54.8950618,101.831825 52.908568,103.754228 C50.9220742,105.667253 47.7511451,105.60161 45.8392613,103.594809 C43.8434412,101.672406 43.7781574,98.493408 45.6993674,96.4959845 C46.361532,95.7926663 47.1915693,95.3331651 48.0589117,95.1081033 C49.6723551,94.6954899 51.4629974,95.0987257 52.7593478,96.3553208" id="Fill-195"/>
                                <path d="M113.939207,52.4754354 C111.71752,52.6644896 109.426094,52.1172274 107.443512,50.7639974 C102.880586,47.6495783 101.714947,41.4306903 104.833279,36.863539 L105.2019,36.3361773 C108.409896,31.8287273 114.676448,30.7740039 119.169636,33.9779749 C123.672786,37.181946 124.728834,43.4207345 121.530801,47.9182343 L121.361434,48.1470894 C119.58807,50.7341468 116.828396,52.2266799 113.939207,52.4754354" id="Fill-225"/>
                                <path d="M134.321996,119.816854 C132.098086,120.006997 129.805631,119.459386 127.825438,118.105572 C123.263377,114.994841 122.090493,108.765773 125.213106,104.20996 L125.586296,103.677561 C128.792686,99.1673813 135.06076,98.1177949 139.554277,101.319794 C144.047793,104.521793 145.106435,110.766072 141.915277,115.253435 L141.747722,115.489211 C139.973164,118.075149 137.216125,119.573472 134.321996,119.816854" id="Fill-248"/>
                                <path d="M184.90227,106.179709 L185.20071,106.48921 C187.112594,108.486893 187.037984,111.656925 185.05149,113.579577 C183.064996,115.492851 179.894067,115.427199 177.982183,113.420138 C175.986363,111.497485 175.921079,108.318074 177.842289,106.320391 C178.504454,105.616982 179.334491,105.157421 180.201834,104.93233 C181.815277,104.519663 183.605919,104.93233 184.90227,106.179709" id="Fill-274"/>
                                <path d="M155.20606,63.0488342 L155.801541,63.6663078 C159.625648,67.6611755 159.486082,73.9949587 155.5038,77.8401358 C151.521519,81.6759573 145.185224,81.5356224 141.361117,77.531399 C137.378835,73.6862219 137.248573,67.3243717 141.081985,63.329504 C142.403209,61.9261547 144.068696,60.9999442 145.808619,60.5508724 C149.037245,59.7275741 152.619437,60.5415167 155.20606,63.0488342" id="Fill-302"/>
                                <path d="M99.4975951,136.87966 C96.6092429,137.12461 93.6299189,136.098883 91.4465975,133.825444 C87.6106231,129.814392 87.7243378,123.422737 91.7043507,119.541815 C95.6009729,115.599656 102.037222,115.484836 105.941426,119.43465 C109.860791,123.376809 109.966924,129.668954 106.062721,133.618767 L105.600282,134.078048 C103.871819,135.762077 101.71124,136.688293 99.4975951,136.87966" id="Fill-324"/>
                                <path d="M179.38361,107.81764 C176.051838,108.10378 172.613958,107.277154 169.642951,105.252979 C162.799023,100.57936 161.03764,91.2427218 165.716977,84.4071577 L166.279346,83.6017268 C171.086011,76.8403472 180.487127,75.2718766 187.224948,80.0726682 C193.973379,84.8734597 195.56499,94.2418917 190.768935,100.982076 L190.524888,101.331802 C187.861592,105.210588 183.723403,107.446718 179.38361,107.81764" id="Fill-366"/>
                                <path d="M48.7587718,41.6091304 L49.0572121,41.9185904 C50.9690959,43.916014 50.8944858,47.0856345 48.907992,49.0080375 C46.9214981,50.9210629 43.750569,50.8554199 41.8386853,48.8486187 C39.8428652,46.9262158 39.7775813,43.7472176 41.6987913,41.749794 C42.3609559,41.0464759 43.1909933,40.5869747 44.0583357,40.3619129 C45.671779,39.9492995 47.4624213,40.3525353 48.7587718,41.6091304" id="Fill-410"/>
                                <path d="M147.801424,38.4459726 L148.099864,38.7554325 C150.011748,40.7528561 149.937138,43.9224767 147.950644,45.8448797 C145.96415,47.7579051 142.793221,47.6922621 140.881337,45.6854609 C138.885517,43.7630579 138.820233,40.5840598 140.741443,38.5866362 C141.403608,37.883318 142.233645,37.4238168 143.100987,37.198755 C144.714431,36.7861417 146.505073,37.1893774 147.801424,38.4459726" id="Fill-414"/>
                                <path d="M80.7904105,14.573211 L81.0888509,14.882671 C83.0007347,16.8800946 82.9261246,20.0497151 80.9396307,21.9721181 C78.9531369,23.8851435 75.7822078,23.8195005 73.870324,21.8126993 C71.874504,19.8902963 71.8092201,16.7112982 73.7304301,14.7138746 C74.3925947,14.0105565 75.2226321,13.5510553 76.0899744,13.3259934 C77.7034178,12.9133801 79.4940601,13.3166159 80.7904105,14.573211" id="Fill-416"/>
                                <path d="M124.23879,127.317895 L124.537231,127.627355 C126.449114,129.624779 126.374504,132.794399 124.38801,134.716802 C122.401517,136.629828 119.230587,136.564184 117.318704,134.557383 C115.322884,132.63498 115.2576,129.455982 117.17881,127.458559 C117.840974,126.75524 118.671012,126.295739 119.538354,126.070677 C121.151797,125.658064 122.94244,126.0613 124.23879,127.317895" id="Fill-418"/>
                                <path d="M57.6549475,59.9327885 L57.9533879,60.2422485 C59.8652716,62.2396721 59.7906615,65.4092926 57.8041677,67.3316956 C55.8176739,69.244721 52.6467448,69.179078 50.734861,67.1722768 C48.7390409,65.2498738 48.6737571,62.0708757 50.5949671,60.0734521 C51.2571317,59.370134 52.087169,58.9106328 52.9545114,58.685571 C54.5679548,58.2729576 56.3585971,58.6761934 57.6549475,59.9327885" id="Fill-428"/>
                                <path d="M18.7660165,53.2560098 L19.1899041,53.9990416 C21.9279892,58.8116013 20.2095258,64.8930306 15.3863718,67.6136701 C10.5746742,70.3228783 4.43403155,68.6081895 1.70740292,63.7956299 C-1.2139849,59.0973828 0.240980798,52.9245033 4.94957057,50.0095325 C6.58783903,48.9921505 8.43232311,48.5120377 10.2309815,48.5120377 C13.5877134,48.5120377 16.8642503,50.1924326 18.7660165,53.2560098" id="Fill-508"/>
                                <path d="M20.0677454,35.4429585 L20.0393564,35.8714918 C19.8122447,38.6196942 17.370794,40.6412532 14.5792127,40.4269866 C11.7876313,40.1940881 9.71523708,37.7812595 9.94234878,35.0330571 C10.0559046,32.2755388 12.4121885,30.1328725 15.2132328,30.2539797 C16.1879205,30.2819275 17.0963673,30.5986695 17.8534063,31.1017303 C19.2444655,32.0426403 20.1434493,33.644982 20.0677454,35.4429585" id="Fill-510"/>
                                <path d="M88.5766197,84.3508162 L89.1721011,84.9684089 C92.9962083,88.9640466 92.8566423,95.2990507 88.8743604,99.1449689 C84.8920784,102.98153 78.555784,102.841168 74.7316768,98.8361726 C70.7493949,94.9902543 70.6191333,88.6365353 74.4525449,84.6315402 C75.7737693,83.2279204 77.4392564,82.3015313 79.1791786,81.8617304 C82.4078044,81.028916 85.9899973,81.8430155 88.5766197,84.3508162" id="Fill-532"/>
                                <path d="M216.271454,85.0145171 L216.866935,85.6321098 C220.691042,89.6277475 220.551476,95.9627516 216.569194,99.8086698 C212.586912,103.645231 206.250618,103.504869 202.426511,99.4998735 C198.444229,95.6539552 198.313967,89.3002363 202.147379,85.2952411 C203.468603,83.8916213 205.13409,82.9652322 206.874013,82.5254313 C210.102638,81.6926169 213.684831,82.5067164 216.271454,85.0145171" id="Fill-534"/>
                            </g>
                            <g id="Group-4" transform="translate(249.294570, 179.960034) rotate(-160.000000) translate(-249.294570, -179.960034) translate(188.294570, 104.960034)">
                                <path d="M23.0930569,92.9505595 C26.9008,98.5145343 25.3092824,106.220788 19.7464078,110.014407 C14.2504662,113.912165 6.62010611,112.588117 2.74543009,107.08365 C-1.12924592,101.571745 0.179665746,93.9696298 5.69048135,90.0793105 L6.30031519,89.6553178 C8.07032074,88.4428474 10.0411252,87.7659467 12.0342407,87.5948619 C16.2510187,87.2378154 20.4975446,89.1718173 23.0930569,92.9505595" id="Fill-65"/>
                                <path d="M50.1744442,35.6069773 L50.6567571,36.1058308 C53.7541103,39.3332619 53.6410682,44.4502896 50.4156006,47.5567865 C47.1901331,50.655725 42.0580223,50.5423492 38.9606691,47.3073597 C35.7352016,44.2008628 35.6296956,39.0687183 38.734585,35.8337289 C39.8047167,34.6999709 41.1536856,33.9516906 42.5629436,33.5964465 C45.1779839,32.9237501 48.0793975,33.5813297 50.1744442,35.6069773" id="Fill-75"/>
                                <path d="M83.370385,5.74665713 L83.6121081,5.99661993 C85.1606472,7.6100162 85.1002164,10.1702413 83.4912466,11.7230405 C81.8822768,13.2682651 79.3139682,13.2152427 77.7654291,11.5942718 C76.1489055,10.0414725 76.0960286,7.47367285 77.6521214,5.86027658 C78.1884447,5.29217931 78.8607372,4.92102242 79.5632452,4.73923129 C80.870061,4.40594755 82.3204,4.73165666 83.370385,5.74665713" id="Fill-101"/>
                                <path d="M117.51232,23.4069909 L117.857863,23.452993 C120.05882,23.7673408 121.576204,25.8374358 121.26822,28.0838722 C120.960236,30.3303086 118.917027,31.8943803 116.71607,31.5800326 C114.500089,31.357689 112.885052,29.3412632 113.110406,27.0871598 C113.178012,26.2974569 113.478484,25.5767571 113.914168,24.9940637 C114.732955,23.9053471 116.070055,23.2613176 117.51232,23.4069909" id="Fill-109"/>
                                <path d="M64.4206845,81.9476463 L64.9029974,82.4464037 C68.0003506,85.6732128 67.8873085,90.7892544 64.661841,93.8951526 C61.4363734,96.9934939 56.3042627,96.8801399 53.2069095,93.6457739 C49.9814419,90.5398757 49.875936,85.4087202 52.9808253,82.1743542 C54.0509571,81.0408147 55.399926,80.2926787 56.8016478,79.929946 C59.4242243,79.2649362 62.3256378,79.9223891 64.4206845,81.9476463" id="Fill-155"/>
                                <path d="M116.494811,58.8817215 L116.840353,58.9277236 C119.041311,59.2420713 120.558694,61.3121663 120.25071,63.5586027 C119.942726,65.8050391 117.899517,67.3691109 115.69856,67.0547631 C113.482579,66.8324196 111.867542,64.8159937 112.092896,62.5618903 C112.168014,61.7721874 112.460975,61.0514877 112.896659,60.4687943 C113.715445,59.3800777 115.052545,58.7360481 116.494811,58.8817215" id="Fill-201"/>
                                <path d="M36.4273474,56.1666813 L36.669156,56.4166441 C38.2182422,58.0300404 38.1577901,60.5902655 36.5482517,62.1430647 C34.9387133,63.6882893 32.369497,63.6352669 30.8204108,62.014296 C29.2033159,60.4614968 29.1579768,57.8936971 30.707063,56.2803008 C31.2435758,55.7122035 31.9161059,55.3410466 32.6188622,55.1592555 C33.9261398,54.8259718 35.3769913,55.1516809 36.4273474,56.1666813" id="Fill-211"/>
                                <path d="M29.3752783,9.95955472 L29.8576763,10.4584082 C32.9555755,13.6858393 32.8425135,18.802867 29.6164773,21.9093639 C26.3904411,25.0083024 21.2574256,24.8949266 18.1595263,21.6599371 C14.9334901,18.5534402 14.835503,13.4212958 17.9334023,10.1863063 C19.0037227,9.05254833 20.3529294,8.30426806 21.7624359,7.94902389 C24.3779372,7.27632749 27.2798623,7.93390712 29.3752783,9.95955472" id="Fill-219"/>
                                <path d="M85.5468909,108.265092 L86.0292038,108.763946 C89.126557,111.991377 89.0135149,117.108405 85.7880473,120.214901 C82.5625798,123.31384 77.430469,123.200464 74.3331159,119.965475 C71.1076483,116.858978 71.0021424,111.726833 74.1070317,108.491844 C75.1771634,107.358086 76.5261323,106.609806 77.9353904,106.254561 C80.5504306,105.581865 83.4518442,106.239445 85.5468909,108.265092" id="Fill-223"/>
                                <path d="M93.6420743,32.6888392 L94.1243872,33.1876927 C97.2217404,36.4151238 97.1086983,41.5321515 93.8832307,44.6386483 C90.6577632,47.7375868 85.5256524,47.624211 82.4282992,44.3892216 C79.2028317,41.2827247 79.0973257,36.1505802 82.2022151,32.9155908 C83.2723468,31.7818328 84.6213157,31.0335525 86.0305737,30.6783083 C88.645614,30.0056119 91.5470276,30.6631916 93.6420743,32.6888392" id="Fill-260"/>
                                <path d="M111.491064,86.4298718 L111.973377,86.9286291 C115.07073,90.1554382 114.957688,95.2714798 111.73222,98.377378 C108.506753,101.475719 103.374642,101.362365 100.277289,98.1279993 C97.0518212,95.0221011 96.9463153,89.8833887 100.051205,86.6565797 C101.121336,85.5230402 102.470305,84.7749041 103.872027,84.4121715 C106.494604,83.7471616 109.396017,84.4046145 111.491064,86.4298718" id="Fill-314"/>
                                <path d="M69.0404611,53.8732793 L69.5228591,54.3720367 C72.6207583,57.5988458 72.5076963,62.7148874 69.2816601,65.8207856 C66.0556239,68.9191269 60.9226084,68.8057729 57.8247091,65.5714069 C54.5986729,62.4655087 54.5006859,57.3343533 57.5985851,54.0999872 C58.6689055,52.9664477 60.0181123,52.2183117 61.4200813,51.855579 C64.04312,51.1905692 66.9450451,51.8480221 69.0404611,53.8732793" id="Fill-318"/>
                                <path d="M68.0603656,17.7065454 L68.5426785,18.205399 C71.6400317,21.43283 71.5269896,26.5498577 68.3015221,29.6563546 C65.0760545,32.7552931 59.9439438,32.6419173 56.8465906,29.4069279 C53.621123,26.300431 53.5156171,21.1682865 56.6205064,17.933297 C57.6906382,16.7995391 59.0396071,16.0512588 60.4488651,15.6960146 C63.0639054,15.0233182 65.9653189,15.6808978 68.0603656,17.7065454" id="Fill-358"/>
                                <path d="M79.7166283,122.680186 C85.350939,129.681083 84.0342251,140.08307 77.0143026,145.692959 C70.1015546,151.432777 59.8051579,150.454486 54.0866387,143.545304 C48.3681195,136.620836 49.3250337,126.37935 56.2607477,120.647175 L57.0262791,120.020457 C59.2616306,118.232018 61.81085,117.13144 64.4442779,116.703438 C70.0250014,115.801576 75.8813162,117.918659 79.7166283,122.680186" id="Fill-362"/>
                                <path d="M27.9775329,122.969439 C32.7255291,127.709926 32.7338444,135.399679 27.9941633,140.148497 L27.4370429,140.706692 C22.6142096,145.372198 14.9392524,145.238897 10.2993542,140.398435 C5.63451019,135.574636 5.7758691,127.884882 10.5903872,123.227708 L10.8398441,122.986102 C12.935282,120.86163 15.6294165,119.695254 18.3900728,119.461978 C21.8242628,119.170384 25.3582355,120.336761 27.9775329,122.969439" id="Fill-372"/>
                                <path d="M17.8703879,74.3943184 L18.112111,74.6443136 C19.66065,76.2579194 19.6002192,78.8184769 17.9912494,80.3714777 C16.3822796,81.916903 13.813971,81.8638737 12.265432,80.2426923 C10.6489084,78.6896915 10.5960314,76.1215584 12.1521243,74.5079526 C12.6884476,73.9397816 13.3607401,73.5685765 14.063248,73.3867617 C15.3700639,73.0534347 16.8204029,73.3867617 17.8703879,74.3943184" id="Fill-380"/>
                                <path d="M20.6368596,98.8602088 L20.8785828,99.1101716 C22.4271218,100.723568 22.366691,103.283793 20.7577212,104.836592 C19.1487514,106.381817 16.5804428,106.328794 15.0319038,104.707823 C13.4153801,103.155024 13.3625032,100.587225 14.9185961,98.9738283 C15.4549193,98.405731 16.1272119,98.0345741 16.8297198,97.852783 C18.1365357,97.5194993 19.5868746,97.8452084 20.6368596,98.8602088" id="Fill-472"/>
                                <path d="M34.8647765,43.4371846 C37.7271014,49.535697 35.1679511,56.8305253 29.1044592,59.7358638 L28.1771016,60.158622 C22.1136097,62.7941149 15.0870926,59.9517403 12.4120227,53.8262433 C9.71020204,47.7007464 12.5101086,40.4868718 18.5557667,37.7074613 L23.9148235,48.6811857 L18.7162709,37.6265076 C20.0716397,36.9788779 21.4805098,36.6100888 22.8982969,36.4841608 C27.784758,36.0703975 32.6355516,38.6968954 34.8647765,43.4371846" id="Fill-530"/>
                                <path d="M28.5040593,64.5199081 L28.9864572,65.0186655 C32.0843565,68.2454746 31.9712945,73.3615162 28.7452583,76.4674144 C25.5267595,79.5657557 20.3862065,79.4524018 17.2883073,76.2180357 C14.0622711,73.1121375 13.964284,67.9809821 17.0621832,64.746616 C18.1400411,63.6130766 19.4817104,62.8649405 20.8912169,62.5022078 C23.5067182,61.837198 26.4086433,62.4946509 28.5040593,64.5199081" id="Fill-538"/>
                                <path d="M37.2990493,1.60906488 L37.5407724,1.85902768 C39.0893115,3.47242395 39.0288807,6.03264901 37.4199109,7.58544823 C35.8109411,9.13067283 33.2426325,9.07765041 31.6940935,7.45667952 C30.0775698,5.90388029 30.0246929,3.3360806 31.5807857,1.72268433 C32.117109,1.15458706 32.7894015,0.78343017 33.4919095,0.601639041 C34.7987253,0.268355306 36.2490643,0.594064411 37.2990493,1.60906488" id="Fill-550"/>
                            </g>
                        </g>
                    </g>
                </g>
            </g>
        </g>
    </g>
</svg>