<?xml version="1.0" encoding="UTF-8" standalone="no"?>
<svg width="332px" height="231px" viewBox="0 0 332 231" version="1.1" xmlns="http://www.w3.org/2000/svg" xmlns:xlink="http://www.w3.org/1999/xlink"><script xmlns="" type="text/javascript" charset="utf-8" id="zm-extension"/>
    <!-- Generator: Sketch 43.1 (39012) - http://www.bohemiancoding.com/sketch -->
    <title>30</title>
    <desc>Created with Sketch.</desc>
    <defs/>
    <g id="Page-1" stroke="none" stroke-width="1" fill="none" fill-rule="evenodd">
        <g id="Home-fold-#5" transform="translate(-870.000000, -414.000000)" fill="#FFD931">
            <g id="services" transform="translate(50.000000, 93.000000)">
                <g id="Group-3" transform="translate(20.000000, 70.000000)">
                    <g id="Group-2-Copy-5" transform="translate(800.000000, 251.000000)">
                        <g id="30">
                            <path d="M280.11629,91.1580387 L280.567319,91.6236426 C283.456719,94.628904 283.343962,99.3978164 280.341805,102.290204 C277.339647,105.168483 272.54747,105.069718 269.658069,102.050348 C266.641817,99.1579599 266.543155,94.3749382 269.44665,91.3696768 C270.447369,90.3114862 271.701792,89.620135 273.012593,89.281514 C275.450965,88.6607088 278.157136,89.281514 280.11629,91.1580387" id="Fill-13"/>
                            <path d="M66.8856309,184.307031 L67.2110535,184.869277 C69.2767802,188.48171 67.9750894,193.049962 64.3388446,195.102161 C60.6884511,197.140304 56.0617894,195.861194 53.9960628,192.234705 C51.7888481,188.692553 52.8924555,184.05402 56.4579562,181.875315 C57.6889028,181.102226 59.0754864,180.736766 60.4479212,180.736766 C62.9805587,180.736766 65.4566008,182.001821 66.8856309,184.307031" id="Fill-17"/>
                            <path d="M249.344516,79.2915241 L249.795544,79.7570675 C252.684945,82.7619388 252.572188,87.5302321 249.57003,90.4222443 C246.567872,93.3001491 241.775696,93.2013974 238.886295,90.1824189 C235.870043,87.2904066 235.77138,82.508006 238.674875,79.5031348 C239.675595,78.4450815 240.930017,77.7538201 242.240819,77.415243 C244.679191,76.7945185 247.385361,77.4011356 249.344516,79.2915241" id="Fill-19"/>
                            <path d="M153.322281,22.2236436 L154.222223,23.1525547 C160.001538,29.1623279 159.790614,38.6907038 153.772252,44.4752866 C147.75389,50.2457949 138.177945,50.0346787 132.398631,44.010831 C126.380269,38.2262483 126.183406,28.6697236 131.976783,22.6458759 C133.973529,20.5347143 136.490554,19.1413477 139.10601,18.465776 C143.999445,17.2272278 149.413158,18.4517015 153.322281,22.2236436" id="Fill-41"/>
                            <path d="M65.4850134,191.209404 L65.3851372,192.495242 C64.7002721,200.755354 57.3237042,206.849108 48.8913027,206.192212 C40.4589011,205.507364 34.1952391,198.225607 34.8801042,189.965495 C35.2225367,181.677431 42.3565482,175.24824 50.8174858,175.583676 C53.7566985,175.695488 56.5104269,176.64589 58.7790426,178.155352 C63.0166454,180.978605 65.7133017,185.814475 65.4850134,191.209404" id="Fill-43"/>
                            <path d="M213.553522,58.7756753 C210.195863,59.0600835 206.732806,58.2367968 203.736509,56.2010333 C196.840508,51.5157836 195.06381,42.160253 199.776578,35.2895513 L200.348736,34.4962023 C205.197015,27.7153138 214.667723,26.1286158 221.458326,30.9485851 C228.248929,35.7685545 229.844946,45.1540228 225.02678,51.9199425 L224.770815,52.2642261 C222.09071,56.1561268 217.919985,58.416423 213.553522,58.7756753" id="Fill-51"/>
                            <path d="M120.757995,65.0466538 L121.657937,65.9755649 C127.437252,71.9853382 127.226328,81.5137141 121.207966,87.2982968 C115.189604,93.0688051 105.61366,92.857689 99.8343449,86.8338413 C93.8159831,81.0492586 93.6191208,71.4927338 99.4124971,65.4688862 C101.409243,63.3577246 103.926268,61.9643579 106.555786,61.2887862 C111.435159,60.0502381 116.848872,61.2747118 120.757995,65.0466538" id="Fill-69"/>
                            <path d="M215.73288,10.3774578 L216.183908,10.8430012 C219.073309,13.8478725 218.960552,18.6161657 215.958394,21.508178 C212.956236,24.3860828 208.16406,24.2873311 205.274659,21.2683525 C202.258407,18.3763403 202.159744,13.5939397 205.063239,10.5890685 C206.063959,9.53101521 207.318381,8.83975376 208.629183,8.50117672 C211.067555,7.88045215 213.773725,8.48706935 215.73288,10.3774578" id="Fill-97"/>
                            <path d="M162.192769,2.3676922 L162.643797,2.83323563 C165.533198,5.83810685 165.420441,10.6064001 162.418283,13.4984123 C159.416125,16.3763172 154.623949,16.2775655 151.734548,13.2585869 C148.718295,10.3665747 148.619633,5.58417407 151.523128,2.57930285 C152.523848,1.52124961 153.77827,0.829988154 155.089072,0.491411116 C157.527444,-0.129313455 160.233614,0.477303739 162.192769,2.3676922" id="Fill-99"/>
                            <path d="M84.8963226,190.519197 L85.347351,190.98474 C88.2367516,193.989611 88.1239945,198.757905 85.1218368,201.649917 C82.119679,204.527822 77.3275023,204.42907 74.4381017,201.410091 C71.4218493,198.518079 71.3231868,193.735679 74.2266821,190.730807 C75.2274014,189.672754 76.4818241,188.981493 77.7926254,188.642916 C80.2309976,188.022191 82.937168,188.628808 84.8963226,190.519197" id="Fill-113"/>
                            <path d="M88.4204789,22.8383773 L88.8715073,23.3039207 C91.760908,26.3087919 91.6481509,31.0770852 88.6459931,33.9690974 C85.6438354,36.8470022 80.8516587,36.7482506 77.9622581,33.729272 C74.9460057,30.8372598 74.8473432,26.0548591 77.7508385,23.0499879 C78.7515577,21.9919347 80.0059805,21.3006732 81.3167817,20.9620962 C83.755154,20.3413716 86.4613244,20.9479888 88.4204789,22.8383773" id="Fill-117"/>
                            <path d="M101.026276,203.753504 L101.926377,204.682415 C107.70671,210.692188 107.495749,220.220564 101.476326,226.005147 C95.4709676,231.775655 85.8792705,231.564539 80.0989368,225.540691 C74.079514,219.756109 73.8966811,210.18551 79.6770147,204.175736 C81.6741129,202.064575 84.1915818,200.671208 86.8215633,199.995636 C91.7017963,198.757088 97.116464,199.981562 101.026276,203.753504" id="Fill-151"/>
                            <path d="M74.8387108,108.632817 L75.4881825,109.754654 C79.6109161,116.9905 77.0271482,126.119444 69.7417696,130.228171 C62.4563911,134.308851 53.1943594,131.728627 49.0716258,124.478758 C44.6382753,117.411188 46.8408316,108.142014 53.9709017,103.752828 C56.4417181,102.224326 59.2231514,101.495132 61.9481089,101.495132 C67.0168121,101.495132 71.9725638,104.033287 74.8387108,108.632817" id="Fill-179"/>
                            <path d="M165.812512,129.148316 C160.777255,129.578777 155.581639,128.335222 151.091601,125.290107 C140.748478,118.259239 138.086527,104.213447 145.158337,93.9302053 L146.008237,92.7185365 C153.272477,82.5468958 167.48024,80.1873302 177.663005,87.409514 C187.861805,94.6316978 190.267183,108.725319 183.018978,118.865074 L182.650154,119.391193 C178.625156,125.226335 172.371174,128.59031 165.812512,129.148316" id="Fill-187"/>
                            <path d="M79.7343956,144.954396 L80.185424,145.419939 C83.0748246,148.42481 82.9620675,153.193104 79.9599098,156.085116 C76.957752,158.963021 72.1655753,158.864269 69.2761747,155.845291 C66.2599223,152.953278 66.1612598,148.170878 69.0647551,145.166006 C70.0654744,144.107953 71.3198971,143.416692 72.6306984,143.078115 C75.0690706,142.45739 77.775241,143.064007 79.7343956,144.954396" id="Fill-195"/>
                            <path d="M172.194581,78.9426569 C168.836979,79.227065 165.373982,78.4037784 162.377737,76.3680149 C155.481856,71.6827652 153.720244,62.3272346 158.432931,55.4565329 L158.990022,54.6631839 C163.838218,47.8822953 173.308762,46.2955974 180.099248,51.1155667 C186.90479,55.9355361 188.50078,65.3210044 183.667641,72.0869241 L183.41168,72.4312076 C180.731621,76.3231083 176.560968,78.5684357 172.194581,78.9426569" id="Fill-225"/>
                            <path d="M202.998778,180.249306 C199.637818,180.535351 196.173266,179.711541 193.18063,177.674898 C186.286056,172.995197 184.513495,163.624352 189.232652,156.770707 L189.796649,155.96978 C194.642417,149.184785 204.115262,147.605815 210.906244,152.422818 C217.697227,157.239821 219.297136,166.633549 214.474387,173.384218 L214.221164,173.738915 C211.539302,177.629131 207.372631,179.883168 202.998778,180.249306" id="Fill-248"/>
                            <path d="M279.439973,159.733946 L279.891001,160.19955 C282.780402,163.204811 282.667645,167.973724 279.665487,170.866112 C276.663329,173.74439 271.871152,173.645626 268.981752,170.626255 C265.965499,167.733867 265.866837,162.950846 268.770332,159.945584 C269.771051,158.887394 271.025474,158.196042 272.336275,157.857421 C274.774648,157.236616 277.480818,157.857421 279.439973,159.733946" id="Fill-274"/>
                            <path d="M234.560545,94.8489983 L235.460487,95.7779094 C241.239801,101.787683 241.028878,111.316059 235.010516,117.100641 C228.992154,122.87115 219.416209,122.660033 213.636894,116.636186 C207.618533,110.851603 207.42167,101.281004 213.215047,95.2712306 C215.211793,93.1600691 217.728818,91.7667024 220.358336,91.0911307 C225.237709,89.8525826 230.651422,91.0770563 234.560545,94.8489983" id="Fill-302"/>
                            <path d="M150.369194,205.91814 C146.004071,206.286635 141.501465,204.743559 138.201844,201.323457 C132.404595,195.289338 132.57645,185.6739 138.591383,179.835545 C144.480288,173.905065 154.207294,173.732332 160.107656,179.674328 C166.030933,185.604807 166.191331,195.070544 160.290969,201.012539 L159.592091,201.703469 C156.979891,204.236877 153.714642,205.630252 150.369194,205.91814" id="Fill-324"/>
                            <path d="M271.099707,162.198006 C266.064451,162.628467 260.868835,161.384912 256.378797,158.339797 C246.035674,151.308929 243.373723,137.263137 250.445533,126.979895 L251.295433,125.768226 C258.559673,115.596586 272.767436,113.23702 282.9502,120.459204 C293.149001,127.681388 295.554378,141.775009 288.306174,151.914764 L287.93735,152.440883 C283.912351,158.276025 277.65837,161.64 271.099707,162.198006" id="Fill-366"/>
                            <path d="M73.6883861,62.5956751 L74.1394145,63.0612186 C77.0288152,66.0660898 76.9160581,70.8343831 73.9139003,73.7263953 C70.9117426,76.6043001 66.1195659,76.5055485 63.2301653,73.4865699 C60.2139129,70.5945577 60.1152504,65.812157 63.0187457,62.8072858 C64.0194649,61.7492325 65.2738877,61.0579711 66.5846889,60.719394 C69.0230612,60.0986695 71.7292316,60.7052867 73.6883861,62.5956751" id="Fill-410"/>
                            <path d="M223.370031,57.8371041 L223.82106,58.3026476 C226.71046,61.3075188 226.597703,66.0758121 223.595545,68.9678243 C220.593388,71.8457291 215.801211,71.7469775 212.91181,68.7279989 C209.895558,65.8359867 209.796895,61.053586 212.700391,58.0487148 C213.70111,56.9906615 214.955533,56.2994001 216.266334,55.960823 C218.704706,55.3400985 221.410877,55.9467157 223.370031,57.8371041" id="Fill-414"/>
                            <path d="M122.097312,21.9235531 L122.54834,22.3890965 C125.437741,25.3939678 125.324984,30.1622611 122.322826,33.0542733 C119.320668,35.9321781 114.528492,35.8334265 111.639091,32.8144479 C108.622839,29.9224357 108.524176,25.140035 111.427672,22.1351638 C112.428391,21.0771105 113.682814,20.3858491 114.993615,20.047272 C117.431987,19.4265475 120.138157,20.0331647 122.097312,21.9235531" id="Fill-416"/>
                            <path d="M187.760184,191.533673 L188.211212,191.999217 C191.100613,195.004088 190.987856,199.772381 187.985698,202.664394 C184.98354,205.542298 180.191363,205.443547 177.301963,202.424568 C174.28571,199.532556 174.187048,194.750155 177.090543,191.745284 C178.091263,190.687231 179.345685,189.995969 180.656486,189.657392 C183.094859,189.036668 185.801029,189.643285 187.760184,191.533673" id="Fill-418"/>
                            <path d="M87.1330405,90.1613017 L87.5840689,90.6268451 C90.4734696,93.6317163 90.3607125,98.4000096 87.3585547,101.292022 C84.356397,104.169927 79.5642203,104.071175 76.6748196,101.052196 C73.6585672,98.1601842 73.5599048,93.3777835 76.4634001,90.3729123 C77.4641193,89.3148591 78.718542,88.6235976 80.0293433,88.2850206 C82.4677156,87.664296 85.1738859,88.2709132 87.1330405,90.1613017" id="Fill-428"/>
                            <path d="M28.3607937,80.1169324 L29.0014087,81.2347298 C33.1394347,88.4746173 30.5423472,97.6233587 23.2531883,101.716217 C15.9813434,105.791878 6.70108407,103.212346 2.58037192,95.972458 C-1.83467681,88.9045393 0.364190595,79.6182228 7.48021032,75.2330178 C9.95610039,73.7024953 12.743641,72.9802262 15.4619259,72.9802262 C20.5349034,72.9802262 25.4866836,75.508168 28.3607937,80.1169324" id="Fill-508"/>
                            <path d="M30.3280768,53.3194492 L30.285173,53.9641233 C29.9419425,58.0984463 26.2522153,61.1396263 22.0333411,60.8172892 C17.814467,60.4669229 14.6824892,56.8371274 15.0257197,52.7028044 C15.1973349,48.5544668 18.7583507,45.3310963 22.9915261,45.5132868 C24.4645568,45.5553307 25.8374785,46.031829 26.98158,46.7886203 C29.0838664,48.2041004 30.4424869,50.6146209 30.3280768,53.3194492" id="Fill-510"/>
                            <path d="M133.864491,126.895137 L134.764433,127.824227 C140.543747,133.835158 140.332824,143.365371 134.314462,149.151069 C128.2961,154.922689 118.720155,154.711532 112.94084,148.686524 C106.922479,142.900826 106.725616,133.342459 112.518993,127.31745 C114.515739,125.205882 117.032764,123.812247 119.662282,123.150622 C124.541655,121.897758 129.955368,123.122468 133.864491,126.895137" id="Fill-532"/>
                            <path d="M326.847741,127.893591 L327.747683,128.822681 C333.526997,134.833613 333.316073,144.363825 327.297712,150.149523 C321.27935,155.921143 311.703405,155.709986 305.92409,149.684978 C299.905728,143.89928 299.708866,134.340913 305.502242,128.315904 C307.498989,126.204336 310.016014,124.810701 312.645532,124.149076 C317.524904,122.896212 322.938618,124.120922 326.847741,127.893591" id="Fill-534"/>
                        </g>
                    </g>
                </g>
            </g>
        </g>
    </g>
</svg>