<?xml version="1.0" encoding="UTF-8" standalone="no"?>
<svg width="281px" height="188px" viewBox="0 0 281 188" version="1.1" xmlns="http://www.w3.org/2000/svg" xmlns:xlink="http://www.w3.org/1999/xlink"><script xmlns="" type="text/javascript" charset="utf-8" id="zm-extension"/>
    <!-- Generator: Sketch 43.1 (39012) - http://www.bohemiancoding.com/sketch -->
    <title>cocaine</title>
    <desc>Created with Sketch.</desc>
    <defs/>
    <g id="Page-1" stroke="none" stroke-width="1" fill="none" fill-rule="evenodd">
        <g id="Home-mobile" transform="translate(-94.000000, -325.000000)">
            <g id="Group-11" transform="translate(0.000000, 79.000000)">
                <g id="cocaine" transform="translate(389.500000, 847.500000) scale(-1, 1) rotate(225.000000) translate(-389.500000, -847.500000) translate(-174.000000, 279.000000)">
                    <path d="M763.037925,992.687332 L763.470897,993.134453 C766.244623,996.020418 766.13638,1000.60002 763.254411,1003.3776 C760.372442,1006.14162 755.772115,1006.04677 752.998389,1003.14726 C750.10289,1000.36969 750.008177,995.776534 752.795434,992.890569 C753.75609,991.874384 754.960293,991.210477 756.218618,990.885298 C758.559372,990.289136 761.157203,990.885298 763.037925,992.687332" id="Fill-9" fill="#ED1C24"/>
                    <path d="M692.110092,1094.43099 L692.543064,1094.87811 C695.31679,1097.76408 695.208547,1102.34368 692.326578,1105.12126 C689.444609,1107.88528 684.844283,1107.79043 682.070557,1104.89092 C679.175057,1102.11335 679.080345,1097.52019 681.867601,1094.63423 C682.828257,1093.61804 684.032461,1092.95414 685.290785,1092.62896 C687.631539,1092.0328 690.229371,1092.62896 692.110092,1094.43099" id="Fill-11" fill="#ED1C24"/>
                    <path d="M734.934444,1066.31926 L735.367416,1066.76632 C738.141142,1069.65191 738.032899,1074.23093 735.15093,1077.00814 C732.268961,1079.7718 727.668635,1079.67697 724.894908,1076.77783 C721.999409,1074.00062 721.904696,1069.40806 724.691953,1066.52247 C725.652609,1065.50642 726.856812,1064.8426 728.115137,1064.51746 C730.455891,1063.92138 733.053722,1064.50391 734.934444,1066.31926" id="Fill-15" fill="#ED1C24"/>
                    <path d="M852.554915,980.703164 L852.86731,981.243092 C854.850337,984.712126 853.600758,989.099037 850.110087,991.069772 C846.605834,993.027009 842.164396,991.798674 840.181369,988.316142 C838.062518,984.914599 839.121944,980.460197 842.544703,978.367978 C843.72637,977.625578 845.057443,977.274625 846.374933,977.274625 C848.806179,977.274625 851.183095,978.489462 852.554915,980.703164" id="Fill-17" fill="#ED1C24"/>
                    <path d="M863.407499,892.284054 L863.840471,892.731117 C866.614197,895.616707 866.505954,900.195719 863.623985,902.97293 C860.742016,905.736593 856.14169,905.641762 853.367964,902.742624 C850.472464,899.965413 850.377751,895.372854 853.165008,892.487264 C854.125664,891.471212 855.329867,890.80739 856.588192,890.482254 C858.928946,889.886169 861.526778,890.468706 863.407499,892.284054" id="Fill-21" fill="#ED1C24"/>
                    <path d="M880.562824,1005.67945 L880.466946,1006.91425 C879.809499,1014.84646 872.728245,1020.69832 864.633427,1020.0675 C856.538609,1019.40984 850.525707,1012.41714 851.183154,1004.48492 C851.511878,996.525858 858.360286,990.35188 866.482497,990.674001 C869.304042,990.781374 871.947527,991.694049 874.125321,993.143592 C878.193275,995.854773 880.781973,1000.49868 880.562824,1005.67945" id="Fill-43" fill="#ED1C24"/>
                    <path d="M836.642279,965.914334 L837.075251,966.361397 C839.848978,969.246987 839.740735,973.825998 836.858765,976.60321 C833.976796,979.366873 829.37647,979.272042 826.602744,976.372904 C823.707244,973.595693 823.612532,969.003134 826.399788,966.117544 C827.360445,965.101492 828.564648,964.43767 829.822972,964.112533 C832.163726,963.516449 834.761558,964.098986 836.642279,965.914334" id="Fill-113" fill="#00ADEF"/>
                    <path d="M819.469628,1010.78272 L820.333694,1011.67476 C825.882617,1017.44597 825.680102,1026.5961 819.901661,1032.15106 C814.136721,1037.6925 804.929019,1037.48977 799.380095,1031.70504 C793.601654,1026.15009 793.426141,1016.9594 798.975064,1011.18819 C800.892211,1009.16083 803.308895,1007.82278 805.833588,1007.17402 C810.518445,1005.98464 815.716341,1007.16051 819.469628,1010.78272" id="Fill-151" fill="#00ADEF"/>
                    <path d="M747.203534,981.330607 L748.0676,982.222644 C753.616524,987.993854 753.414008,997.143992 747.635567,1002.69895 C741.870627,1008.24039 732.662925,1008.03766 727.114002,1002.25293 C721.335561,996.697973 721.160047,987.520804 726.708971,981.736078 C728.626117,979.708721 731.042801,978.370666 733.567494,977.721911 C738.252351,976.532529 743.450248,977.708396 747.203534,981.330607" id="Fill-153" fill="#00ADEF"/>
                    <path d="M936.950908,956.015593 L937.574378,957.092897 C941.532062,964.041509 939.051733,972.808072 932.058018,976.753699 C925.064302,980.672393 916.173068,978.194593 912.215384,971.232515 C907.959518,964.445498 910.073897,955.544273 916.918522,951.32932 C919.290421,949.861493 921.960503,949.161245 924.576369,949.161245 C929.442151,949.161245 934.199504,951.598646 936.950908,956.015593" id="Fill-179" fill="#00ADEF"/>
                    <path d="M878.12837,951.188278 L878.561342,951.635341 C881.335068,954.520931 881.226825,959.099942 878.344856,961.877154 C875.462887,964.640817 870.862561,964.545986 868.088834,961.646848 C865.193335,958.869637 865.098622,954.277078 867.885879,951.391488 C868.846535,950.375436 870.050738,949.711614 871.309063,949.386478 C873.649817,948.790393 876.247649,949.37293 878.12837,951.188278" id="Fill-195" fill="#00934C"/>
                    <path d="M825.39993,878.155542 C822.173522,878.430233 818.847671,877.639124 815.974842,875.683328 C809.356286,871.189392 807.654687,862.190532 812.184918,855.608949 L812.726335,854.839815 C817.378108,848.324157 826.471716,846.807866 832.990828,851.433654 C839.50994,856.059441 841.045798,865.080276 836.416124,871.562971 L836.173038,871.903587 C833.598542,875.639378 829.59868,877.803939 825.39993,878.155542" id="Fill-248" fill="#00934C"/>
                    <path d="M763.037925,1022.14109 L763.470897,1022.58816 C766.244623,1025.47375 766.13638,1030.05276 763.254411,1032.82997 C760.372442,1035.59363 755.772115,1035.4988 752.998389,1032.59966 C750.10289,1029.82245 750.008177,1025.22989 752.795434,1022.3443 C753.75609,1021.32825 754.960293,1020.66443 756.218618,1020.33929 C758.559372,1019.74321 761.157203,1020.32575 763.037925,1022.14109" id="Fill-270" fill="#882173"/>
                    <path d="M825.395805,934.383998 C821.205436,934.737866 816.883087,933.256044 813.715564,929.971706 C808.150402,924.177117 808.315377,914.943373 814.089507,909.336776 C819.742656,903.641712 829.08025,903.475837 834.744397,909.181959 C840.430541,914.877023 840.584517,923.967008 834.92037,929.67313 L834.249471,930.336632 C831.741849,932.769475 828.607321,934.107538 825.395805,934.383998" id="Fill-324" fill="#882173"/>
                    <path d="M692.110092,1052.93194 L692.543064,1053.379 C695.31679,1056.26459 695.208547,1060.8436 692.326578,1063.62081 C689.444609,1066.38448 684.844283,1066.28965 682.070557,1063.39051 C679.175057,1060.6133 679.080345,1056.02074 681.867601,1053.13515 C682.828257,1052.1191 684.032461,1051.45527 685.290785,1051.13014 C687.631539,1050.53405 690.229371,1051.11659 692.110092,1052.93194" id="Fill-402" fill="#F7971C"/>
                    <path d="M676.05096,1066.31926 L676.483932,1066.76632 C679.257659,1069.65191 679.149416,1074.23093 676.267446,1077.00814 C673.385477,1079.7718 668.785151,1079.67697 666.011425,1076.77783 C663.115925,1074.00062 663.021213,1069.40806 665.808469,1066.52247 C666.769126,1065.50642 667.973329,1064.8426 669.231653,1064.51746 C671.572407,1063.92138 674.170239,1064.50391 676.05096,1066.31926" id="Fill-406" fill="#F7971C"/>
                    <path d="M981.11516,984.128033 L981.730128,985.201458 C985.702492,992.153951 983.209377,1000.93952 976.212033,1004.86991 C969.231309,1008.78379 960.322577,1006.30665 956.366833,999.354158 C952.128537,992.566807 954.239375,983.64912 961.070511,979.43799 C963.447281,977.968223 966.123225,977.274625 968.732686,977.274625 C973.602572,977.274625 978.356112,979.702218 981.11516,984.128033" id="Fill-508" fill="#F7971C"/>
                    <path d="M895.290164,1058.40826 L895.248978,1059.02734 C894.919488,1062.99755 891.377476,1065.91801 887.3275,1065.60847 C883.277525,1065.27201 880.270933,1061.7863 880.600422,1057.81609 C880.765167,1053.83243 884.183621,1050.73701 888.247325,1050.91197 C889.661384,1050.95235 890.979343,1051.40993 892.077641,1052.13668 C894.095764,1053.49597 895.399994,1055.8108 895.290164,1058.40826" id="Fill-510" fill="#F7971C"/>
                    <path d="M767.402444,978.510157 C757.502002,979.349784 747.445031,975.046697 741.34041,966.309331 C732.131303,953.177044 735.23579,935.072592 748.279851,925.81046 L749.727741,924.787165 C762.837023,915.72182 780.863915,919.119684 789.877361,932.383163 C798.890807,945.620403 795.512395,963.711736 782.337894,972.763962 L781.581338,973.301847 C777.25071,976.397971 772.320055,978.090344 767.402444,978.510157" id="Fill-528" fill="#F7971C"/>
                    <path d="M890.398324,909.034164 L891.262238,909.926373 C896.810183,915.698695 896.607703,924.850597 890.830281,930.406626 C885.052858,935.949137 875.860278,935.746362 870.312332,929.960521 C864.53491,924.404492 864.345929,915.225554 869.907373,909.439714 C871.824181,907.411966 874.24044,906.073652 876.764687,905.438291 C881.448719,904.235161 886.645699,905.411255 890.398324,909.034164" id="Fill-532" fill="#F7971C"/>
                </g>
            </g>
        </g>
    </g>
</svg>