<?xml version="1.0" encoding="UTF-8" standalone="no"?>
<svg width="329px" height="212px" viewBox="0 0 329 212" version="1.1" xmlns="http://www.w3.org/2000/svg" xmlns:xlink="http://www.w3.org/1999/xlink"><script xmlns="" type="text/javascript" charset="utf-8" id="zm-extension"/>
    <!-- Generator: Sketch 43.1 (39012) - http://www.bohemiancoding.com/sketch -->
    <title>400</title>
    <desc>Created with Sketch.</desc>
    <defs/>
    <g id="Page-1" stroke="none" stroke-width="1" fill="none" fill-rule="evenodd">
        <g id="Home-fold-#5" transform="translate(-873.000000, -176.000000)" fill="#FFD931">
            <g id="services" transform="translate(50.000000, 93.000000)">
                <g id="Group-3" transform="translate(20.000000, 70.000000)">
                    <g id="Group-2" transform="translate(802.000000, 0.000000)">
                        <g id="400">
                            <g id="Group-12" transform="translate(98.944851, 116.836749) scale(-1, 1) rotate(90.000000) translate(-98.944851, -116.836749) translate(-17.555149, 18.336749)">
                                <g id="Group-6" transform="translate(36.076659, 0.462199)">
                                    <path d="M129.495971,42.33538 L129.704478,42.5516145 C131.04023,43.9473102 130.988103,46.1620762 129.600225,47.5053514 C128.212346,48.842074 125.996954,48.7962061 124.661202,47.3939578 C123.266808,46.0506826 123.221197,43.8293641 124.563464,42.4336684 C125.02609,41.9422263 125.606002,41.6211507 126.211977,41.4638892 C127.339221,41.1755765 128.590266,41.4638892 129.495971,42.33538" id="Fill-13"/>
                                    <path d="M30.9207997,85.5953933 L31.0712405,85.8565104 C32.0262127,87.5341871 31.4244494,89.6557628 29.7434367,90.6088399 C28.0558831,91.555389 25.917007,90.9613478 24.9620348,89.2771431 C23.9416535,87.632106 24.4518441,85.4778907 26.1001523,84.4660623 C26.6692111,84.1070264 27.3102199,83.9373004 27.9446877,83.9373004 C29.1155098,83.9373004 30.2601682,84.5248136 30.9207997,85.5953933" id="Fill-17"/>
                                    <path d="M115.270376,36.824364 L115.478884,37.0405705 C116.814635,38.436085 116.762508,40.6505634 115.37463,41.9936642 C113.986752,43.3302133 111.771359,43.2843513 110.435607,41.8822851 C109.041213,40.5391843 108.995602,38.3181542 110.33787,36.9226397 C110.800496,36.4312614 111.380407,36.1102275 111.986382,35.9529864 C113.113626,35.6647111 114.364672,35.9464347 115.270376,36.824364" id="Fill-19"/>
                                    <path d="M70.8799106,10.3210469 L71.295948,10.7524494 C73.9676883,13.5434927 73.8701795,17.9686364 71.0879293,20.6550973 C68.3056791,23.3350218 63.878781,23.2369757 61.2070408,20.439396 C58.4247906,17.7529351 58.3337824,13.3147187 61.0120232,10.517139 C61.9351062,9.53667877 63.0987109,8.88957505 64.3078196,8.57582779 C66.5700231,8.00062448 69.0727481,8.56929139 70.8799106,10.3210469" id="Fill-41"/>
                                    <path d="M30.2733032,88.8009756 L30.2271311,89.3981411 C29.9105223,93.2342809 26.5003821,96.0643264 22.6021368,95.7592527 C18.7038914,95.4411971 15.8082405,92.0594225 16.1248492,88.2232828 C16.2831536,84.3741612 19.5811615,81.3883333 23.4925989,81.5441157 C24.8513782,81.5960431 26.1244092,82.0374264 27.1731757,82.7384468 C29.1321924,84.0496147 30.3788394,86.2954765 30.2733032,88.8009756" id="Fill-43"/>
                                    <path d="M98.7244285,27.2964467 C97.172204,27.4285308 95.5712549,27.0461822 94.1860859,26.1007382 C90.9981091,23.9248266 90.1767526,19.5799554 92.3554355,16.3890819 L92.6199401,16.0206369 C94.8612688,12.8714742 99.2395165,12.134584 102.378769,14.3730617 C105.518021,16.6115393 106.25585,20.9703142 104.028442,24.1125251 L103.910111,24.2724163 C102.671116,26.0798828 100.743016,27.1296037 98.7244285,27.2964467" id="Fill-51"/>
                                    <path d="M55.8256495,30.2087983 L56.2416869,30.6402008 C58.9134272,33.4312441 58.8159184,37.8563878 56.0336682,40.5428487 C53.251418,43.2227732 48.8245199,43.1247271 46.1527796,40.3271474 C43.3705294,37.6406865 43.2795212,33.2024701 45.9577621,30.4048904 C46.8808451,29.4244302 48.0444497,28.7773264 49.2600591,28.4635792 C51.5157619,27.8883759 54.018487,28.4570428 55.8256495,30.2087983" id="Fill-69"/>
                                    <path d="M99.7319317,4.81947205 L99.9404392,5.03567852 C101.276191,6.43119302 101.224064,8.64567143 99.8361855,9.98877224 C98.4483071,11.3253213 96.2329145,11.2794594 94.897163,9.87739314 C93.5027688,8.53429234 93.4571578,6.31326222 94.7994251,4.91774772 C95.2620512,4.42636937 95.8419628,4.10533552 96.4479379,3.94809445 C97.5751818,3.65981916 98.826227,3.94154274 99.7319317,4.81947205" id="Fill-97"/>
                                    <path d="M74.9806805,1.09959747 L75.189188,1.31580395 C76.5249395,2.71131845 76.4728126,4.92579685 75.0849342,6.26889766 C73.6970559,7.60544676 71.4816632,7.55958478 70.1459118,6.15751857 C68.7515176,4.81441776 68.7059066,2.59338764 70.0481739,1.19787314 C70.5108,0.706494798 71.0907116,0.385460947 71.6966866,0.228219876 C72.8239306,-0.0600554194 74.0749758,0.221668165 74.9806805,1.09959747" id="Fill-99"/>
                                    <path d="M39.2470274,88.4804314 L39.4555349,88.6966378 C40.7912864,90.0921523 40.7391595,92.3066307 39.3512811,93.6497315 C37.9634028,94.9862806 35.7480101,94.9404187 34.4122587,93.5383525 C33.0178645,92.1952516 32.9722535,89.9742215 34.3145208,88.578707 C34.7771469,88.0873287 35.3570585,87.7662948 35.9630336,87.6090538 C37.0902775,87.3207785 38.3413227,87.602502 39.2470274,88.4804314" id="Fill-113"/>
                                    <path d="M40.8762223,10.6065399 L41.0847299,10.8227464 C42.4204813,12.2182609 42.3683545,14.4327393 40.9804761,15.7758401 C39.5925978,17.1123892 37.3772051,17.0665273 36.0414537,15.664461 C34.6470595,14.3213602 34.6014484,12.1003301 35.9437158,10.7048156 C36.4063419,10.2134373 36.9862535,9.89240342 37.5922285,9.73516235 C38.7194724,9.44688706 39.9705177,9.72861064 40.8762223,10.6065399" id="Fill-117"/>
                                    <path d="M46.7038018,94.626674 L47.1199125,95.0580765 C49.7921238,97.8491198 49.6945979,102.274263 46.9118572,104.960724 C44.1356182,107.640649 39.7014379,107.542603 37.0292266,104.745023 C34.2464859,102.058562 34.1619634,97.6138094 36.8341747,94.8227661 C37.7574204,93.8423059 38.9212302,93.1952021 40.1370539,92.8814549 C42.3931544,92.3062516 44.8963207,92.8749185 46.7038018,94.626674" id="Fill-151"/>
                                    <path d="M34.5974577,50.4509713 L34.8977044,50.9719718 C36.8036178,54.3324245 35.6091583,58.5720654 32.2411744,60.4802294 C28.8731905,62.3753684 24.5914124,61.1770675 22.685499,57.8101023 C20.6359894,54.5277996 21.6542171,50.2230337 24.950403,48.1846195 C26.0926456,47.4747564 27.3784844,47.1361062 28.6382148,47.1361062 C30.981444,47.1361062 33.2724563,48.3148696 34.5974577,50.4509713" id="Fill-179"/>
                                    <path d="M76.6540644,59.9787259 C74.3262973,60.1786396 71.9243976,59.6011111 69.8486817,58.1869067 C65.067122,54.9216494 63.836519,48.3985389 67.1057715,43.6228224 L67.4986748,43.0601023 C70.8568865,38.3362153 77.4250446,37.240392 82.1324716,40.5944998 C86.8473119,43.9486077 87.9593026,50.4939308 84.6085041,55.2030094 L84.4379989,55.4473484 C82.5772679,58.1572899 79.6860922,59.7195785 76.6540644,59.9787259" id="Fill-187"/>
                                    <path d="M36.8607015,67.3193447 L37.0692091,67.5355511 C38.4049605,68.9310656 38.3528336,71.145544 36.9649553,72.4886448 C35.5770769,73.8251939 33.3616843,73.779332 32.0259328,72.3772658 C30.6315386,71.0341649 30.5859276,68.8131348 31.9281949,67.4176203 C32.390821,66.926242 32.9707326,66.6052081 33.5767077,66.4479671 C34.7039516,66.1596918 35.9549969,66.4414153 36.8607015,67.3193447" id="Fill-195"/>
                                    <path d="M79.6044542,36.662344 C78.0522565,36.7944281 76.4513351,36.4120795 75.06619,35.4666355 C71.8782683,33.2907239 71.0638865,28.9458527 73.2425317,25.7549792 L73.5000713,25.3865341 C75.7413612,22.2373714 80.1195333,21.5004813 83.2587314,23.738959 C86.40489,25.9774366 87.142706,30.3362115 84.9083765,33.4784224 L84.7900475,33.6383136 C83.5510736,35.4457801 81.6230073,36.4885492 79.6044542,36.662344" id="Fill-225"/>
                                    <path d="M93.845038,83.7109152 C92.2912873,83.8437596 90.6896471,83.4611677 89.3061705,82.5153154 C86.1188532,80.3419807 85.2994094,75.9899975 87.4810455,72.8070452 L87.7417777,72.4350808 C89.9819456,69.2840111 94.3611812,68.5507099 97.5006089,70.78781 C100.640037,73.02491 101.379664,77.3875208 99.1501387,80.5226491 L99.0330753,80.6873762 C97.7932674,82.4940603 95.8670423,83.5408744 93.845038,83.7109152" id="Fill-248"/>
                                    <path d="M129.183314,74.1832251 L129.391821,74.3994596 C130.727573,75.7951553 130.675446,78.0099213 129.287567,79.3531965 C127.899689,80.6899191 125.684296,80.6440512 124.348545,79.2418029 C122.954151,77.8985277 122.90854,75.6772092 124.250807,74.2815135 C124.713433,73.7900714 125.293345,73.4689958 125.89932,73.3117343 C127.026564,73.0234216 128.277609,73.3117343 129.183314,74.1832251" id="Fill-274"/>
                                    <path d="M108.435841,44.0495259 L108.851878,44.4809283 C111.523619,47.2719717 111.42611,51.6971153 108.64386,54.3835762 C105.861609,57.0635007 101.434711,56.9654547 98.762971,54.167875 C95.9807208,51.4814141 95.8897126,47.0366612 98.5679534,44.2456179 C99.4910364,43.2651577 100.654641,42.618054 101.87025,42.3043067 C104.125953,41.7291034 106.628678,42.2977703 108.435841,44.0495259" id="Fill-302"/>
                                    <path d="M69.5147174,95.6319685 C67.4967491,95.8031043 65.4152228,95.0864729 63.8898295,93.498118 C61.2097981,90.6957681 61.2892457,86.2301913 64.0699106,83.5187573 C66.792314,80.7645393 71.2890465,80.6843194 74.0167464,83.4438854 C76.7550393,86.1981033 76.8291903,90.5941561 74.1014904,93.3537221 L73.7784036,93.6746019 C72.5708006,94.851161 71.0612968,95.4982686 69.5147174,95.6319685" id="Fill-324"/>
                                    <path d="M125.327662,75.3275772 C122.999895,75.5274909 120.597995,74.9499624 118.522279,73.535758 C113.74072,70.2705006 112.510117,63.7473902 115.779369,58.9716737 L116.172273,58.4089536 C119.530484,53.6850666 126.098642,52.5892433 130.806069,55.9433511 C135.52091,59.297459 136.6329,65.8427821 133.282102,70.5518607 L133.111597,70.7961997 C131.250866,73.5061411 128.35969,75.0684298 125.327662,75.3275772" id="Fill-366"/>
                                    <path d="M34.06567,29.0705211 L34.2741775,29.2867276 C35.609929,30.6822421 35.5578021,32.8967205 34.1699238,34.2398213 C32.7820454,35.5763704 30.5666528,35.5305084 29.2309013,34.1284422 C27.8365071,32.7853414 27.7908961,30.5643113 29.1331634,29.1687968 C29.5957895,28.6774185 30.1757011,28.3563846 30.7816762,28.1991435 C31.9089201,27.9108682 33.1599653,28.1925918 34.06567,29.0705211" id="Fill-410"/>
                                    <path d="M103.262538,26.8605579 L103.471045,27.0767644 C104.806797,28.4722789 104.75467,30.6867573 103.366792,32.0298581 C101.978913,33.3664072 99.7635207,33.3205452 98.4277693,31.918479 C97.0333751,30.5753782 96.987764,28.3543481 98.3300313,26.9588336 C98.7926575,26.4674553 99.3725691,26.1464214 99.9785441,25.9891803 C101.105788,25.700905 102.356833,25.9826286 103.262538,26.8605579" id="Fill-414"/>
                                    <path d="M56.444807,10.1816797 L56.6533146,10.3978862 C57.989066,11.7934007 57.9369392,14.0078791 56.5490608,15.3509799 C55.1611825,16.687529 52.9457898,16.641667 51.6100384,15.2396008 C50.2156442,13.8965 50.1700331,11.6754699 51.5123005,10.2799554 C51.9749266,9.78857702 52.5548382,9.46754317 53.1608132,9.3103021 C54.2880571,9.0220268 55.5391024,9.30375038 56.444807,10.1816797" id="Fill-416"/>
                                    <path d="M86.800333,88.951572 L87.0088405,89.1677784 C88.344592,90.5632929 88.2924651,92.7777713 86.9045868,94.1208722 C85.5167084,95.4574213 83.3013158,95.4115593 81.9655643,94.0094931 C80.5711701,92.6663923 80.5255591,90.4453621 81.8678264,89.0498476 C82.3304525,88.5584693 82.9103641,88.2374354 83.5163392,88.0801944 C84.6435831,87.7919191 85.8946284,88.0736427 86.800333,88.951572" id="Fill-418"/>
                                    <path d="M40.2810478,41.8724779 L40.4895553,42.0886844 C41.8253068,43.4841989 41.7731799,45.6986773 40.3853016,47.0417781 C38.9974232,48.3783272 36.7820306,48.3324652 35.4462791,46.930399 C34.0518849,45.5872982 34.0062739,43.3662681 35.3485412,41.9707536 C35.8111673,41.4793753 36.3910789,41.1583414 36.997054,41.0011003 C38.1242979,40.712825 39.3753431,40.9945486 40.2810478,41.8724779" id="Fill-428"/>
                                    <path d="M13.1110137,37.207698 L13.4071659,37.7268226 C15.3201489,41.0891524 14.1195319,45.3379871 10.7498004,47.2387816 C7.38807291,49.1315896 3.09786834,47.9336099 1.19288945,44.5712801 C-0.848159366,41.2888156 0.168362985,36.9760886 3.45805343,34.9395231 C4.60264158,34.2287218 5.89130378,33.8932874 7.14794952,33.8932874 C9.49315462,33.8932874 11.7823309,35.0673076 13.1110137,37.207698" id="Fill-508"/>
                                    <path d="M14.0204761,24.7624804 L14.0006419,25.0618782 C13.8419687,26.9819298 12.1362314,28.3943067 10.1858728,28.2446078 C8.23551424,28.0818915 6.78762094,26.3961514 6.94629418,24.4760998 C7.0256308,22.5495396 8.67186565,21.0525502 10.6288356,21.1371626 C11.3098082,21.1566886 11.9445012,21.3779827 12.473412,21.7294497 C13.4452856,22.3868233 14.0733671,23.506311 14.0204761,24.7624804" id="Fill-510"/>
                                    <path d="M61.8846986,58.9323103 L62.300736,59.363796 C64.9724763,62.1553773 64.8749675,66.5813738 62.0927173,69.2683526 C59.3104671,71.9487936 54.883569,71.8507287 52.2118287,69.0526097 C49.4295785,66.365631 49.3385704,61.9265591 52.0168112,59.1284402 C52.9398942,58.147791 54.1034989,57.5005625 55.3191082,57.1932925 C57.574811,56.6114406 60.0775361,57.1802171 61.8846986,58.9323103" id="Fill-532"/>
                                    <path d="M151.099622,59.3960098 L151.515659,59.8274954 C154.187399,62.6190767 154.089891,67.0450733 151.30764,69.732052 C148.52539,72.4124931 144.098492,72.3144282 141.426752,69.5163092 C138.644502,66.8293305 138.553493,62.3902586 141.231734,59.5921396 C142.154817,58.6114905 143.318422,57.964262 144.534031,57.6569919 C146.789734,57.0751401 149.292459,57.6439166 151.099622,59.3960098" id="Fill-534"/>
                                </g>
                                <g id="Group-6-Copy" transform="translate(93.522984, 106.405444) scale(-1, 1) rotate(141.000000) translate(-93.522984, -106.405444) translate(16.522984, 52.905444)">
                                    <path d="M129.495971,42.33538 L129.704478,42.5516145 C131.04023,43.9473102 130.988103,46.1620762 129.600225,47.5053514 C128.212346,48.842074 125.996954,48.7962061 124.661202,47.3939578 C123.266808,46.0506826 123.221197,43.8293641 124.563464,42.4336684 C125.02609,41.9422263 125.606002,41.6211507 126.211977,41.4638892 C127.339221,41.1755765 128.590266,41.4638892 129.495971,42.33538" id="Fill-13"/>
                                    <path d="M30.9207997,85.5953933 L31.0712405,85.8565104 C32.0262127,87.5341871 31.4244494,89.6557628 29.7434367,90.6088399 C28.0558831,91.555389 25.917007,90.9613478 24.9620348,89.2771431 C23.9416535,87.632106 24.4518441,85.4778907 26.1001523,84.4660623 C26.6692111,84.1070264 27.3102199,83.9373004 27.9446877,83.9373004 C29.1155098,83.9373004 30.2601682,84.5248136 30.9207997,85.5953933" id="Fill-17"/>
                                    <path d="M115.270376,36.824364 L115.478884,37.0405705 C116.814635,38.436085 116.762508,40.6505634 115.37463,41.9936642 C113.986752,43.3302133 111.771359,43.2843513 110.435607,41.8822851 C109.041213,40.5391843 108.995602,38.3181542 110.33787,36.9226397 C110.800496,36.4312614 111.380407,36.1102275 111.986382,35.9529864 C113.113626,35.6647111 114.364672,35.9464347 115.270376,36.824364" id="Fill-19"/>
                                    <path d="M70.8799106,10.3210469 L71.295948,10.7524494 C73.9676883,13.5434927 73.8701795,17.9686364 71.0879293,20.6550973 C68.3056791,23.3350218 63.878781,23.2369757 61.2070408,20.439396 C58.4247906,17.7529351 58.3337824,13.3147187 61.0120232,10.517139 C61.9351062,9.53667877 63.0987109,8.88957505 64.3078196,8.57582779 C66.5700231,8.00062448 69.0727481,8.56929139 70.8799106,10.3210469" id="Fill-41"/>
                                    <path d="M30.2733032,88.8009756 L30.2271311,89.3981411 C29.9105223,93.2342809 26.5003821,96.0643264 22.6021368,95.7592527 C18.7038914,95.4411971 15.8082405,92.0594225 16.1248492,88.2232828 C16.2831536,84.3741612 19.5811615,81.3883333 23.4925989,81.5441157 C24.8513782,81.5960431 26.1244092,82.0374264 27.1731757,82.7384468 C29.1321924,84.0496147 30.3788394,86.2954765 30.2733032,88.8009756" id="Fill-43"/>
                                    <path d="M98.7244285,27.2964467 C97.172204,27.4285308 95.5712549,27.0461822 94.1860859,26.1007382 C90.9981091,23.9248266 90.1767526,19.5799554 92.3554355,16.3890819 L92.6199401,16.0206369 C94.8612688,12.8714742 99.2395165,12.134584 102.378769,14.3730617 C105.518021,16.6115393 106.25585,20.9703142 104.028442,24.1125251 L103.910111,24.2724163 C102.671116,26.0798828 100.743016,27.1296037 98.7244285,27.2964467" id="Fill-51"/>
                                    <path d="M55.8256495,30.2087983 L56.2416869,30.6402008 C58.9134272,33.4312441 58.8159184,37.8563878 56.0336682,40.5428487 C53.251418,43.2227732 48.8245199,43.1247271 46.1527796,40.3271474 C43.3705294,37.6406865 43.2795212,33.2024701 45.9577621,30.4048904 C46.8808451,29.4244302 48.0444497,28.7773264 49.2600591,28.4635792 C51.5157619,27.8883759 54.018487,28.4570428 55.8256495,30.2087983" id="Fill-69"/>
                                    <path d="M99.7319317,4.81947205 L99.9404392,5.03567852 C101.276191,6.43119302 101.224064,8.64567143 99.8361855,9.98877224 C98.4483071,11.3253213 96.2329145,11.2794594 94.897163,9.87739314 C93.5027688,8.53429234 93.4571578,6.31326222 94.7994251,4.91774772 C95.2620512,4.42636937 95.8419628,4.10533552 96.4479379,3.94809445 C97.5751818,3.65981916 98.826227,3.94154274 99.7319317,4.81947205" id="Fill-97"/>
                                    <path d="M74.9806805,1.09959747 L75.189188,1.31580395 C76.5249395,2.71131845 76.4728126,4.92579685 75.0849342,6.26889766 C73.6970559,7.60544676 71.4816632,7.55958478 70.1459118,6.15751857 C68.7515176,4.81441776 68.7059066,2.59338764 70.0481739,1.19787314 C70.5108,0.706494798 71.0907116,0.385460947 71.6966866,0.228219876 C72.8239306,-0.0600554194 74.0749758,0.221668165 74.9806805,1.09959747" id="Fill-99"/>
                                    <path d="M39.2470274,88.4804314 L39.4555349,88.6966378 C40.7912864,90.0921523 40.7391595,92.3066307 39.3512811,93.6497315 C37.9634028,94.9862806 35.7480101,94.9404187 34.4122587,93.5383525 C33.0178645,92.1952516 32.9722535,89.9742215 34.3145208,88.578707 C34.7771469,88.0873287 35.3570585,87.7662948 35.9630336,87.6090538 C37.0902775,87.3207785 38.3413227,87.602502 39.2470274,88.4804314" id="Fill-113"/>
                                    <path d="M40.8762223,10.6065399 L41.0847299,10.8227464 C42.4204813,12.2182609 42.3683545,14.4327393 40.9804761,15.7758401 C39.5925978,17.1123892 37.3772051,17.0665273 36.0414537,15.664461 C34.6470595,14.3213602 34.6014484,12.1003301 35.9437158,10.7048156 C36.4063419,10.2134373 36.9862535,9.89240342 37.5922285,9.73516235 C38.7194724,9.44688706 39.9705177,9.72861064 40.8762223,10.6065399" id="Fill-117"/>
                                    <path d="M46.7038018,94.626674 L47.1199125,95.0580765 C49.7921238,97.8491198 49.6945979,102.274263 46.9118572,104.960724 C44.1356182,107.640649 39.7014379,107.542603 37.0292266,104.745023 C34.2464859,102.058562 34.1619634,97.6138094 36.8341747,94.8227661 C37.7574204,93.8423059 38.9212302,93.1952021 40.1370539,92.8814549 C42.3931544,92.3062516 44.8963207,92.8749185 46.7038018,94.626674" id="Fill-151"/>
                                    <path d="M34.5974577,50.4509713 L34.8977044,50.9719718 C36.8036178,54.3324245 35.6091583,58.5720654 32.2411744,60.4802294 C28.8731905,62.3753684 24.5914124,61.1770675 22.685499,57.8101023 C20.6359894,54.5277996 21.6542171,50.2230337 24.950403,48.1846195 C26.0926456,47.4747564 27.3784844,47.1361062 28.6382148,47.1361062 C30.981444,47.1361062 33.2724563,48.3148696 34.5974577,50.4509713" id="Fill-179"/>
                                    <path d="M76.6540644,59.9787259 C74.3262973,60.1786396 71.9243976,59.6011111 69.8486817,58.1869067 C65.067122,54.9216494 63.836519,48.3985389 67.1057715,43.6228224 L67.4986748,43.0601023 C70.8568865,38.3362153 77.4250446,37.240392 82.1324716,40.5944998 C86.8473119,43.9486077 87.9593026,50.4939308 84.6085041,55.2030094 L84.4379989,55.4473484 C82.5772679,58.1572899 79.6860922,59.7195785 76.6540644,59.9787259" id="Fill-187"/>
                                    <path d="M36.8607015,67.3193447 L37.0692091,67.5355511 C38.4049605,68.9310656 38.3528336,71.145544 36.9649553,72.4886448 C35.5770769,73.8251939 33.3616843,73.779332 32.0259328,72.3772658 C30.6315386,71.0341649 30.5859276,68.8131348 31.9281949,67.4176203 C32.390821,66.926242 32.9707326,66.6052081 33.5767077,66.4479671 C34.7039516,66.1596918 35.9549969,66.4414153 36.8607015,67.3193447" id="Fill-195"/>
                                    <path d="M79.6044542,36.662344 C78.0522565,36.7944281 76.4513351,36.4120795 75.06619,35.4666355 C71.8782683,33.2907239 71.0638865,28.9458527 73.2425317,25.7549792 L73.5000713,25.3865341 C75.7413612,22.2373714 80.1195333,21.5004813 83.2587314,23.738959 C86.40489,25.9774366 87.142706,30.3362115 84.9083765,33.4784224 L84.7900475,33.6383136 C83.5510736,35.4457801 81.6230073,36.4885492 79.6044542,36.662344" id="Fill-225"/>
                                    <path d="M93.845038,83.7109152 C92.2912873,83.8437596 90.6896471,83.4611677 89.3061705,82.5153154 C86.1188532,80.3419807 85.2994094,75.9899975 87.4810455,72.8070452 L87.7417777,72.4350808 C89.9819456,69.2840111 94.3611812,68.5507099 97.5006089,70.78781 C100.640037,73.02491 101.379664,77.3875208 99.1501387,80.5226491 L99.0330753,80.6873762 C97.7932674,82.4940603 95.8670423,83.5408744 93.845038,83.7109152" id="Fill-248"/>
                                    <path d="M129.183314,74.1832251 L129.391821,74.3994596 C130.727573,75.7951553 130.675446,78.0099213 129.287567,79.3531965 C127.899689,80.6899191 125.684296,80.6440512 124.348545,79.2418029 C122.954151,77.8985277 122.90854,75.6772092 124.250807,74.2815135 C124.713433,73.7900714 125.293345,73.4689958 125.89932,73.3117343 C127.026564,73.0234216 128.277609,73.3117343 129.183314,74.1832251" id="Fill-274"/>
                                    <path d="M108.435841,44.0495259 L108.851878,44.4809283 C111.523619,47.2719717 111.42611,51.6971153 108.64386,54.3835762 C105.861609,57.0635007 101.434711,56.9654547 98.762971,54.167875 C95.9807208,51.4814141 95.8897126,47.0366612 98.5679534,44.2456179 C99.4910364,43.2651577 100.654641,42.618054 101.87025,42.3043067 C104.125953,41.7291034 106.628678,42.2977703 108.435841,44.0495259" id="Fill-302"/>
                                    <path d="M69.5147174,95.6319685 C67.4967491,95.8031043 65.4152228,95.0864729 63.8898295,93.498118 C61.2097981,90.6957681 61.2892457,86.2301913 64.0699106,83.5187573 C66.792314,80.7645393 71.2890465,80.6843194 74.0167464,83.4438854 C76.7550393,86.1981033 76.8291903,90.5941561 74.1014904,93.3537221 L73.7784036,93.6746019 C72.5708006,94.851161 71.0612968,95.4982686 69.5147174,95.6319685" id="Fill-324"/>
                                    <path d="M125.327662,75.3275772 C122.999895,75.5274909 120.597995,74.9499624 118.522279,73.535758 C113.74072,70.2705006 112.510117,63.7473902 115.779369,58.9716737 L116.172273,58.4089536 C119.530484,53.6850666 126.098642,52.5892433 130.806069,55.9433511 C135.52091,59.297459 136.6329,65.8427821 133.282102,70.5518607 L133.111597,70.7961997 C131.250866,73.5061411 128.35969,75.0684298 125.327662,75.3275772" id="Fill-366"/>
                                    <path d="M34.06567,29.0705211 L34.2741775,29.2867276 C35.609929,30.6822421 35.5578021,32.8967205 34.1699238,34.2398213 C32.7820454,35.5763704 30.5666528,35.5305084 29.2309013,34.1284422 C27.8365071,32.7853414 27.7908961,30.5643113 29.1331634,29.1687968 C29.5957895,28.6774185 30.1757011,28.3563846 30.7816762,28.1991435 C31.9089201,27.9108682 33.1599653,28.1925918 34.06567,29.0705211" id="Fill-410"/>
                                    <path d="M103.262538,26.8605579 L103.471045,27.0767644 C104.806797,28.4722789 104.75467,30.6867573 103.366792,32.0298581 C101.978913,33.3664072 99.7635207,33.3205452 98.4277693,31.918479 C97.0333751,30.5753782 96.987764,28.3543481 98.3300313,26.9588336 C98.7926575,26.4674553 99.3725691,26.1464214 99.9785441,25.9891803 C101.105788,25.700905 102.356833,25.9826286 103.262538,26.8605579" id="Fill-414"/>
                                    <path d="M56.444807,10.1816797 L56.6533146,10.3978862 C57.989066,11.7934007 57.9369392,14.0078791 56.5490608,15.3509799 C55.1611825,16.687529 52.9457898,16.641667 51.6100384,15.2396008 C50.2156442,13.8965 50.1700331,11.6754699 51.5123005,10.2799554 C51.9749266,9.78857702 52.5548382,9.46754317 53.1608132,9.3103021 C54.2880571,9.0220268 55.5391024,9.30375038 56.444807,10.1816797" id="Fill-416"/>
                                    <path d="M86.800333,88.951572 L87.0088405,89.1677784 C88.344592,90.5632929 88.2924651,92.7777713 86.9045868,94.1208722 C85.5167084,95.4574213 83.3013158,95.4115593 81.9655643,94.0094931 C80.5711701,92.6663923 80.5255591,90.4453621 81.8678264,89.0498476 C82.3304525,88.5584693 82.9103641,88.2374354 83.5163392,88.0801944 C84.6435831,87.7919191 85.8946284,88.0736427 86.800333,88.951572" id="Fill-418"/>
                                    <path d="M40.2810478,41.8724779 L40.4895553,42.0886844 C41.8253068,43.4841989 41.7731799,45.6986773 40.3853016,47.0417781 C38.9974232,48.3783272 36.7820306,48.3324652 35.4462791,46.930399 C34.0518849,45.5872982 34.0062739,43.3662681 35.3485412,41.9707536 C35.8111673,41.4793753 36.3910789,41.1583414 36.997054,41.0011003 C38.1242979,40.712825 39.3753431,40.9945486 40.2810478,41.8724779" id="Fill-428"/>
                                    <path d="M13.1110137,37.207698 L13.4071659,37.7268226 C15.3201489,41.0891524 14.1195319,45.3379871 10.7498004,47.2387816 C7.38807291,49.1315896 3.09786834,47.9336099 1.19288945,44.5712801 C-0.848159366,41.2888156 0.168362985,36.9760886 3.45805343,34.9395231 C4.60264158,34.2287218 5.89130378,33.8932874 7.14794952,33.8932874 C9.49315462,33.8932874 11.7823309,35.0673076 13.1110137,37.207698" id="Fill-508"/>
                                    <path d="M14.0204761,24.7624804 L14.0006419,25.0618782 C13.8419687,26.9819298 12.1362314,28.3943067 10.1858728,28.2446078 C8.23551424,28.0818915 6.78762094,26.3961514 6.94629418,24.4760998 C7.0256308,22.5495396 8.67186565,21.0525502 10.6288356,21.1371626 C11.3098082,21.1566886 11.9445012,21.3779827 12.473412,21.7294497 C13.4452856,22.3868233 14.0733671,23.506311 14.0204761,24.7624804" id="Fill-510"/>
                                    <path d="M61.8846986,58.9323103 L62.300736,59.363796 C64.9724763,62.1553773 64.8749675,66.5813738 62.0927173,69.2683526 C59.3104671,71.9487936 54.883569,71.8507287 52.2118287,69.0526097 C49.4295785,66.365631 49.3385704,61.9265591 52.0168112,59.1284402 C52.9398942,58.147791 54.1034989,57.5005625 55.3191082,57.1932925 C57.574811,56.6114406 60.0775361,57.1802171 61.8846986,58.9323103" id="Fill-532"/>
                                    <path d="M151.099622,59.3960098 L151.515659,59.8274954 C154.187399,62.6190767 154.089891,67.0450733 151.30764,69.732052 C148.52539,72.4124931 144.098492,72.3144282 141.426752,69.5163092 C138.644502,66.8293305 138.553493,62.3902586 141.231734,59.5921396 C142.154817,58.6114905 143.318422,57.964262 144.534031,57.6569919 C146.789734,57.0751401 149.292459,57.6439166 151.099622,59.3960098" id="Fill-534"/>
                                </g>
                                <g id="Group-4" transform="translate(174.316876, 125.676143) rotate(-160.000000) translate(-174.316876, -125.676143) translate(131.816876, 73.176143)">
                                    <path d="M16.1341319,64.9405834 C18.7944393,68.8278948 17.6825139,74.211925 13.7959712,76.8623645 C9.95619168,79.5855613 4.62518521,78.6605059 1.91811467,74.81477 C-0.788955864,70.9638373 0.125524778,65.6525643 3.97569612,62.9345645 L4.40176096,62.6383389 C5.6383882,61.7912376 7.01530507,61.3183161 8.40780969,61.1987864 C11.3538922,60.9493333 14.3207584,62.3005378 16.1341319,64.9405834" id="Fill-65"/>
                                    <path d="M35.0547398,24.8770733 L35.3917112,25.2256009 C37.5556995,27.4804691 37.4767218,31.0555176 35.2232255,33.2258942 C32.9697292,35.3909901 29.3841427,35.3117793 27.2201544,33.0516304 C24.9666581,30.8812538 24.8929456,27.2956438 27.0621991,25.0354949 C27.8098544,24.2433867 28.7523213,23.7205952 29.7369097,23.4724013 C31.5639266,23.0024171 33.5910202,23.4618399 35.0547398,24.8770733" id="Fill-75"/>
                                    <path d="M58.2473249,4.01494374 L58.4162066,4.18958206 C59.4981046,5.31679308 59.4558842,7.10551291 58.3317658,8.19038737 C57.2076473,9.26996975 55.4132799,9.23292526 54.3313818,8.10042217 C53.2019858,7.01554771 53.165043,5.22153581 54.2522186,4.09432479 C54.6269247,3.69741951 55.0966268,3.43810805 55.5874391,3.31109836 C56.5004554,3.07824726 57.5137453,3.30580629 58.2473249,4.01494374" id="Fill-101"/>
                                    <path d="M82.1008359,16.3534642 L82.3422519,16.3856039 C83.8799666,16.6052252 84.9400975,18.0515121 84.7249224,19.6210012 C84.5097474,21.1904904 83.0822443,22.2832405 81.5445296,22.0636191 C79.9963186,21.9082772 78.8679613,20.4994866 79.0254065,18.9246409 C79.0726401,18.3729092 79.282567,17.8693871 79.5869611,17.4622841 C80.1590119,16.7016444 81.0931867,16.2516884 82.1008359,16.3534642" id="Fill-109"/>
                                    <path d="M45.0079791,57.2533182 L45.3449505,57.6017787 C47.5089388,59.8562123 47.4299611,63.4305719 45.1764648,65.6005303 C42.9229685,67.7652089 39.337382,67.6860133 37.1733937,65.4263 C34.9198974,63.2563417 34.8461849,59.6714227 37.0154384,57.4117094 C37.7630937,56.6197537 38.7055606,56.0970631 39.6848838,55.8436373 C41.5171658,55.3790233 43.5442595,55.8383576 45.0079791,57.2533182" id="Fill-155"/>
                                    <path d="M81.3899455,41.1381423 L81.6313615,41.170282 C83.1690761,41.3899034 84.2292071,42.8361903 84.014032,44.4056794 C83.7988569,45.9751685 82.3713538,47.0679186 80.8336392,46.8482972 C79.2854281,46.6929553 78.1570709,45.2841647 78.3145161,43.709319 C78.3669978,43.1575873 78.5716766,42.6540652 78.8760706,42.2469623 C79.4481215,41.4863225 80.3822963,41.0363666 81.3899455,41.1381423" id="Fill-201"/>
                                    <path d="M25.4502308,39.2412598 L25.6191721,39.4158981 C26.7014525,40.5431092 26.6592172,42.331829 25.5347015,43.4167035 C24.4101858,44.4962858 22.6151842,44.4592413 21.5329038,43.3267383 C20.4031087,42.2418638 20.3714322,40.4478519 21.4537126,39.3206409 C21.8285511,38.9237356 22.2984192,38.6644241 22.7894049,38.5374144 C23.702744,38.3045633 24.7163919,38.5321224 25.4502308,39.2412598" id="Fill-211"/>
                                    <path d="M20.5232515,6.95831523 L20.8602824,7.30684286 C23.0246522,9.56171102 22.9456606,13.1367596 20.6917669,15.3071362 C18.4378733,17.4722321 14.8516547,17.3930213 12.6872849,15.1328724 C10.4333913,12.9624958 10.3649319,9.37688576 12.5293017,7.11673688 C13.2770889,6.32462863 14.219722,5.80183719 15.2044839,5.55364327 C17.0318229,5.08365904 19.0592739,5.54308183 20.5232515,6.95831523" id="Fill-219"/>
                                    <path d="M59.7679566,75.640193 L60.104928,75.9887206 C62.2689163,78.2435887 62.1899386,81.8186373 59.9364423,83.9890139 C57.682946,86.1541098 54.0973595,86.074899 51.9333712,83.8147501 C49.6798749,81.6443735 49.6061624,78.0587635 51.7754159,75.7986146 C52.5230712,75.0065064 53.4655381,74.4837149 54.4501265,74.235521 C56.2771434,73.7655368 58.304237,74.2249596 59.7679566,75.640193" id="Fill-223"/>
                                    <path d="M65.4237153,22.8382949 L65.7606867,23.1868225 C67.924675,25.4416907 67.8456973,29.0167392 65.592201,31.1871158 C63.3387046,33.3522117 59.7531182,33.2730009 57.5891299,31.012852 C55.3356336,28.8424754 55.2619211,25.2568654 57.4311745,22.9967165 C58.1788299,22.2046083 59.1212968,21.6818168 60.1058851,21.4336229 C61.932902,20.9636387 63.9599957,21.4230615 65.4237153,22.8382949" id="Fill-260"/>
                                    <path d="M77.8940414,60.3848576 L78.2310128,60.733318 C80.3950011,62.9877517 80.3160235,66.5621113 78.0625271,68.7320696 C75.8090308,70.8967483 72.2234444,70.8175527 70.0594561,68.5578394 C67.8059597,66.387881 67.7322472,62.7976823 69.9015007,60.5432487 C70.649156,59.7512931 71.591623,59.2286024 72.5709461,58.9751766 C74.4032282,58.5105627 76.4303218,58.9698969 77.8940414,60.3848576" id="Fill-314"/>
                                    <path d="M48.2356196,37.6389579 L48.5726504,37.9874183 C50.7370202,40.2418519 50.6580286,43.8162115 48.404135,45.9861699 C46.1502414,48.1508485 42.5640228,48.071653 40.399653,45.8119396 C38.1457594,43.6419813 38.0773,40.0570623 40.2416698,37.797349 C40.9894569,37.0053934 41.93209,36.4827027 42.9115858,36.2292769 C44.7441909,35.7646629 46.7716419,36.2239972 48.2356196,37.6389579" id="Fill-318"/>
                                    <path d="M47.5508687,12.3708066 L47.8878401,12.7193342 C50.0518284,14.9742023 49.9728507,18.5492509 47.7193544,20.7196275 C45.4658581,22.8847234 41.8802716,22.8055126 39.7162833,20.5453637 C37.462787,18.3749871 37.3890745,14.7893771 39.558328,12.5292282 C40.3059833,11.73712 41.2484502,11.2143285 42.2330386,10.9661346 C44.0600555,10.4961504 46.0871491,10.9555732 47.5508687,12.3708066" id="Fill-358"/>
                                    <path d="M55.6946013,85.7114029 C59.6310534,90.6026302 58.7111217,97.8700542 53.8066018,101.789444 C48.9769602,105.799609 41.7833079,105.116119 37.7880229,100.288969 C33.792738,95.4511394 34.461293,88.2958505 39.30698,84.2910247 L39.841824,83.8531637 C41.4035686,82.6036581 43.1845993,81.8347315 45.0244628,81.5357045 C48.9234758,80.9056119 53.0150327,82.3847276 55.6946013,85.7114029" id="Fill-362"/>
                                    <path d="M19.5467065,85.9134916 C22.8639286,89.2254673 22.8697381,94.5979692 19.5583255,97.9157656 L19.1690893,98.3057522 C15.7995818,101.565342 10.4374172,101.47221 7.19571858,98.0903864 C3.93659147,94.7202038 4.03535289,89.3477019 7.39905093,86.0939332 L7.5733358,85.925133 C9.03732873,84.4408557 10.9196053,83.6259583 12.8483579,83.4629788 C15.2476797,83.2592545 17.7167154,84.0741518 19.5467065,85.9134916" id="Fill-372"/>
                                    <path d="M12.4852763,51.9761308 L12.6541579,52.1507918 C13.7360559,53.2781492 13.6938355,55.0671013 12.5697171,56.1521166 C11.4455986,57.2318392 9.65123119,57.1947899 8.56933316,56.0621397 C7.43993717,54.9771244 7.40299432,53.1828796 8.49016989,52.0555222 C8.86487604,51.6585654 9.33457811,51.3992202 9.82539038,51.2721941 C10.7384068,51.0393127 11.7516966,51.2721941 12.4852763,51.9761308" id="Fill-380"/>
                                    <path d="M14.4180918,69.0694029 L14.5869735,69.2440412 C15.6688715,70.3712522 15.6266511,72.159972 14.5025327,73.2448465 C13.3784142,74.3244289 11.5840468,74.2873844 10.5021488,73.1548813 C9.37275277,72.0700068 9.33580991,70.2759949 10.4229855,69.1487839 C10.7976916,68.7518786 11.2673937,68.4925672 11.758206,68.3655575 C12.6712224,68.1327064 13.6845122,68.3602654 14.4180918,69.0694029" id="Fill-472"/>
                                    <path d="M24.3585293,30.3477045 C26.3583134,34.6084745 24.5703445,39.7050592 20.3340418,41.7348951 L19.6861367,42.0302582 C15.449834,43.8715644 10.5407068,41.8857188 8.67174979,37.6060958 C6.78410317,33.3264729 8.74027822,28.286447 12.9641212,26.3445917 L16.7082651,34.0114639 L13.0762586,26.2880328 C14.0231968,25.8355616 15.0075142,25.5779044 15.9980614,25.4899239 C19.412023,25.2008451 22.8010651,27.035867 24.3585293,30.3477045" id="Fill-530"/>
                                    <path d="M19.914568,45.0773024 L20.2515988,45.4257629 C22.4159687,47.6801965 22.3369771,51.2545561 20.0830834,53.4245144 C17.8344559,55.5891931 14.2429712,55.5099975 12.0786014,53.2502842 C9.82470782,51.0803258 9.75624843,47.4954068 11.9206182,45.2356935 C12.6736715,44.4437379 13.6110384,43.9210472 14.5958004,43.6676214 C16.4231394,43.2030075 18.4505904,43.6623417 19.914568,45.0773024" id="Fill-538"/>
                                    <path d="M26.0592517,1.12418486 L26.2281333,1.29882319 C27.3100313,2.42603421 27.2678109,4.21475404 26.1436925,5.2996285 C25.019574,6.37921088 23.2252066,6.34216639 22.1433086,5.2096633 C21.0139126,4.12478884 20.9769697,2.33077694 22.0641453,1.20356592 C22.4388514,0.806660633 22.9085535,0.547349178 23.3993658,0.420339486 C24.3123822,0.187488383 25.325672,0.415047415 26.0592517,1.12418486" id="Fill-550"/>
                                </g>
                            </g>
                            <g id="Group-6" transform="translate(158.000000, 101.000000)">
                                <path d="M145.120488,47.2264538 L145.354153,47.4676703 C146.851071,49.0246129 146.792655,51.4952543 145.23732,52.9937202 C143.681986,54.4848765 141.199292,54.4337094 139.702373,52.8694572 C138.139737,51.3709913 138.088622,48.8930403 139.592843,47.3360976 C140.111288,46.7878784 140.761169,46.4297085 141.440259,46.2542783 C142.703512,45.9326564 144.105504,46.2542783 145.120488,47.2264538" id="Fill-13"/>
                                <path d="M34.6515919,95.4843653 L34.8201844,95.7756496 C35.8903801,97.647151 35.2160102,100.013836 33.3321725,101.077023 C31.4410048,102.132929 29.0440596,101.470257 27.9738639,99.5914735 C26.8303671,97.7563826 27.4021155,95.3532874 29.2493026,94.2245609 C29.887022,93.824045 30.6053725,93.6347102 31.3163929,93.6347102 C32.6284822,93.6347102 33.911251,94.2900998 34.6515919,95.4843653" id="Fill-17"/>
                                <path d="M129.178484,41.0787414 L129.412149,41.3199266 C130.909068,42.8766671 130.850652,45.3469877 129.295317,46.8452591 C127.739982,48.3362218 125.257288,48.2850613 123.76037,46.7210122 C122.197733,45.2227408 122.146619,42.7451115 123.650839,41.188371 C124.169284,40.640223 124.819166,40.2820996 125.498255,40.1066922 C126.761509,39.785112 128.1635,40.0993835 129.178484,41.0787414" id="Fill-19"/>
                                <path d="M79.4320251,11.5134539 L79.89826,11.994697 C82.8923629,15.108194 82.783089,20.0445815 79.6651425,23.0414135 C76.5471961,26.030954 71.5861644,25.9215805 68.5920616,22.800792 C65.4741151,19.80396 65.3721262,14.8529893 68.3735139,11.7322008 C69.4079728,10.6384664 70.7119738,9.9166018 72.0669692,9.56660682 C74.602122,8.92494936 77.4068168,9.55931526 79.4320251,11.5134539" id="Fill-41"/>
                                <path d="M33.9259708,99.0602936 L33.8742277,99.7264506 C33.5194181,104.005786 29.6978227,107.162791 25.3292291,106.822472 C20.9606355,106.46767 17.7156058,102.695194 18.0704154,98.415859 C18.2478202,94.1220423 21.9437539,90.791257 26.3271312,90.9650371 C27.8498559,91.0229638 29.2764862,91.5153408 30.4517931,92.2973512 C32.6471777,93.7600004 34.0442407,96.2653303 33.9259708,99.0602936" id="Fill-43"/>
                                <path d="M110.636162,30.4500487 C108.896652,30.5973926 107.102538,30.1708706 105.550239,29.116198 C101.977613,26.6888999 101.057154,21.8420588 103.498709,18.2825386 L103.795128,17.8715265 C106.306887,14.3585361 111.213399,13.5365118 114.731422,16.0336044 C118.249445,18.5306969 119.076297,23.393048 116.580139,26.8982835 L116.447531,27.0766472 C115.059043,29.0929332 112.898306,30.26393 110.636162,30.4500487" id="Fill-51"/>
                                <path d="M62.5613711,33.6988689 L63.027606,34.180112 C66.0217089,37.293609 65.912435,42.2299965 62.7944885,45.2268285 C59.6765421,48.2163689 54.7155104,48.1069955 51.7214076,44.9862069 C48.6034611,41.9893749 48.5014722,37.0384043 51.5028599,33.9176157 C52.5373188,32.8238814 53.8413198,32.1020168 55.2036002,31.7520218 C57.731468,31.1103643 60.5361628,31.7447302 62.5613711,33.6988689" id="Fill-69"/>
                                <path d="M111.765227,5.37627332 L111.998892,5.61745847 C113.495811,7.17419898 113.437394,9.6445196 111.88206,11.142791 C110.326725,12.6337537 107.844031,12.5825932 106.347112,11.0185441 C104.784476,9.52027271 104.733361,7.04264345 106.237582,5.48590294 C106.756027,4.93775487 107.405908,4.57963147 108.084998,4.40422409 C109.348251,4.08264389 110.750243,4.39691544 111.765227,5.37627332" id="Fill-97"/>
                                <path d="M84.027579,1.22663572 L84.2612443,1.46782087 C85.7581627,3.02456138 85.6997464,5.494882 84.1444116,6.99315338 C82.5890769,8.48411613 80.106383,8.43295564 78.6094646,6.86890649 C77.0468278,5.37063511 76.9957135,2.89300584 78.4999339,1.33626533 C79.0183789,0.788117267 79.6682605,0.429993863 80.3473503,0.254586482 C81.6106034,-0.0669937176 83.0125953,0.247277841 84.027579,1.22663572" id="Fill-99"/>
                                <path d="M43.9824322,98.7027164 L44.2160975,98.9439015 C45.7130159,100.500642 45.6545996,102.970963 44.0992648,104.469234 C42.5439301,105.960197 40.0612361,105.909036 38.5643177,104.344987 C37.001681,102.846716 36.9505667,100.369087 38.4547871,98.812346 C38.973232,98.2641979 39.6231137,97.9060745 40.3022035,97.7306671 C41.5654566,97.4090869 42.9674485,97.7233585 43.9824322,98.7027164" id="Fill-113"/>
                                <path d="M45.8081999,11.8319304 L46.0418652,12.0731155 C47.5387837,13.629856 47.4803673,16.1001767 45.9250326,17.5984481 C44.3696979,19.0894108 41.8870039,19.0382503 40.3900855,17.4742012 C38.8274487,15.9759298 38.7763344,13.4983005 40.2805549,11.94156 C40.7989998,11.3934119 41.4488814,11.0352885 42.1279713,10.8598811 C43.3912244,10.5383009 44.7932162,10.8525725 45.8081999,11.8319304" id="Fill-117"/>
                                <path d="M52.3389141,105.559044 L52.8052313,106.040287 C55.7998619,109.153784 55.6905689,114.090172 52.5720727,117.087004 C49.4608627,120.076544 44.4916702,119.967171 41.4970396,116.846382 C38.3785434,113.84955 38.2838227,108.891288 41.2784534,105.777791 C42.3130946,104.684057 43.6173255,103.962192 44.979846,103.612197 C47.5081595,102.97054 50.3133488,103.604906 52.3389141,105.559044" id="Fill-151"/>
                                <path d="M38.7718622,56.2796523 L39.1083355,56.8608448 C41.2442096,60.6095359 39.905631,65.3389893 36.1312782,67.4676065 C32.3569255,69.581694 27.5585236,68.2449514 25.4226495,64.4889954 C23.1258535,60.8274831 24.2669369,56.0253807 27.9608286,53.7514653 C29.2408901,52.9595906 30.6818736,52.5818155 32.0935986,52.5818155 C34.7195533,52.5818155 37.2869909,53.8967634 38.7718622,56.2796523" id="Fill-179"/>
                                <path d="M85.9028674,66.9081636 C83.2942404,67.1311736 80.602536,66.4869223 78.2763718,64.9093326 C72.9178863,61.2668349 71.5388032,53.9900991 75.2025119,48.6626365 L75.6428215,48.0349045 C79.406223,42.7652593 86.7668713,41.5428337 92.0422795,45.284447 C97.3259954,49.0260603 98.5721548,56.327575 94.8170611,61.5807009 L94.6259834,61.8532688 C92.5407433,64.8762941 89.3007288,66.6190764 85.9028674,66.9081636" id="Fill-187"/>
                                <path d="M41.3081808,75.0968557 L41.5418461,75.3380408 C43.0387646,76.8947813 42.9803482,79.3651019 41.4250135,80.8633733 C39.8696788,82.3543361 37.3869848,82.3031756 35.8900664,80.7391264 C34.3274296,79.240855 34.2763153,76.7632258 35.7805358,75.2064853 C36.2989807,74.6583372 36.9488623,74.3002138 37.6279522,74.1248064 C38.8912053,73.8032262 40.2931971,74.1174978 41.3081808,75.0968557" id="Fill-195"/>
                                <path d="M89.2092406,40.898003 C87.4697603,41.045347 85.6756775,40.6188249 84.1234058,39.5641523 C80.5508409,37.1368542 79.6381988,32.2900131 82.0797115,28.730493 L82.3683248,28.3194808 C84.8800408,24.8064904 89.7864673,23.9844661 93.3044297,26.4815587 C96.8301924,28.9786512 97.6570306,33.8410023 95.153115,37.3462378 L95.0205089,37.5246015 C93.6320448,39.5408875 91.4713451,40.7041293 89.2092406,40.898003" id="Fill-225"/>
                                <path d="M105.168042,93.3821705 C103.426821,93.5303626 101.631933,93.1035692 100.081531,92.0484411 C96.5096435,89.6240176 95.5913285,84.7692428 98.0361931,81.218559 L98.3283842,80.8036209 C100.838843,77.2885032 105.746461,76.4704825 109.264681,78.9660383 C112.7829,81.4615941 113.611769,86.3282242 111.113237,89.8255589 L110.982049,90.0093172 C109.59265,92.0247304 107.434014,93.1924845 105.168042,93.3821705" id="Fill-248"/>
                                <path d="M144.770106,82.7537311 L145.003772,82.9949476 C146.50069,84.5518902 146.442274,87.0225316 144.886939,88.5209975 C143.331604,90.0121539 140.84891,89.9609868 139.351992,88.3967345 C137.789355,86.8982686 137.738241,84.4203176 139.242461,82.863375 C139.760906,82.3151557 140.410788,81.9569858 141.089878,81.7815557 C142.353131,81.4599337 143.755123,81.7815557 144.770106,82.7537311" id="Fill-274"/>
                                <path d="M121.519318,49.1386377 L121.985553,49.6198808 C124.979656,52.7333778 124.870382,57.6697653 121.752436,60.6665973 C118.634489,63.6561378 113.673458,63.5467643 110.679355,60.4259758 C107.561408,57.4291437 107.45942,52.4708815 110.460807,49.3573845 C111.495266,48.2636502 112.799267,47.5417856 114.161547,47.1917906 C116.689415,46.5501331 119.49411,47.184499 121.519318,49.1386377" id="Fill-302"/>
                                <path d="M77.9021125,106.680482 C75.6406635,106.871389 73.3079877,106.071964 71.5985459,104.300104 C68.5951516,101.173994 68.6841851,96.1925025 71.800355,93.1678122 C74.8512338,90.095395 79.8905257,90.0059072 82.9473401,93.0842902 C86.0160255,96.1567074 86.0991234,101.060643 83.0423091,104.139026 L82.6802398,104.496978 C81.3269317,105.809467 79.6352966,106.531335 77.9021125,106.680482" id="Fill-324"/>
                                <path d="M140.449246,84.0302921 C137.840619,84.2533021 135.148915,83.6090508 132.82275,82.0314611 C127.464265,78.3889634 126.085182,71.1122276 129.74889,65.784765 L130.1892,65.157033 C133.952602,59.8873877 141.31325,58.6649622 146.588658,62.4065755 C151.872374,66.1481888 153.118533,73.4497035 149.36344,78.7028294 L149.172362,78.9753973 C147.087122,81.9984226 143.847107,83.7412049 140.449246,84.0302921" id="Fill-366"/>
                                <path d="M38.1759109,32.4290847 L38.4095762,32.6702699 C39.9064946,34.2270104 39.8480783,36.697331 38.2927435,38.1956024 C36.7374088,39.6865651 34.2547149,39.6354046 32.7577965,38.0713555 C31.1951597,36.5730841 31.1440454,34.0954548 32.6482658,32.5387143 C33.1667108,31.9905663 33.8165924,31.6324429 34.4956822,31.4570355 C35.7589353,31.1354553 37.1609272,31.4497268 38.1759109,32.4290847" id="Fill-410"/>
                                <path d="M115.721823,29.9638009 L115.955489,30.2049861 C117.452407,31.7617266 117.393991,34.2320472 115.838656,35.7303186 C114.283321,37.2212813 111.800627,37.1701209 110.303709,35.6060717 C108.741072,34.1078003 108.689958,31.6301711 110.194178,30.0734305 C110.712623,29.5252825 111.362505,29.1671591 112.041595,28.9917517 C113.304848,28.6701715 114.70684,28.9844431 115.721823,29.9638009" id="Fill-414"/>
                                <path d="M63.2552339,11.3579854 L63.4888992,11.5991705 C64.9858176,13.155911 64.9274013,15.6262316 63.3720666,17.124503 C61.8167318,18.6154658 59.3340379,18.5643053 57.8371195,17.0002561 C56.2744827,15.5019847 56.2233684,13.0243555 57.7275889,11.467615 C58.2460338,10.9194669 58.8959154,10.5613435 59.5750053,10.3859361 C60.8382583,10.0643559 62.2402502,10.3786275 63.2552339,11.3579854" id="Fill-416"/>
                                <path d="M97.2733482,99.2282886 L97.5070135,99.4694738 C99.0039319,101.026214 98.9455156,103.496535 97.3901808,104.994806 C95.8348461,106.485769 93.3521522,106.434609 91.8552337,104.870559 C90.292597,103.372288 90.2414827,100.894659 91.7457031,99.3379182 C92.264148,98.7897702 92.9140297,98.4316468 93.5931195,98.2562394 C94.8563726,97.9346592 96.2583645,98.2489307 97.2733482,99.2282886" id="Fill-418"/>
                                <path d="M45.1412138,46.7100719 L45.3748791,46.9512571 C46.8717975,48.5079976 46.8133812,50.9783182 45.2580464,52.4765896 C43.7027117,53.9675523 41.2200177,53.9163919 39.7230993,52.3523427 C38.1604626,50.8540713 38.1093483,48.3764421 39.6135687,46.8197016 C40.1320136,46.2715535 40.7818953,45.9134301 41.4609851,45.7380227 C42.7242382,45.4164425 44.1262301,45.7307141 45.1412138,46.7100719" id="Fill-428"/>
                                <path d="M14.6929413,41.5063626 L15.0248262,42.0854624 C17.1686228,45.8362475 15.8231437,50.5759569 12.0468325,52.6963533 C8.27949114,54.8078403 3.47164596,53.4714561 1.33681919,49.720671 C-0.950495216,46.0589782 0.188677055,41.247995 3.87528968,38.9761418 C5.15797972,38.1832205 6.60212725,37.8090329 8.01039533,37.8090329 C10.6385644,37.8090329 13.2039445,39.1186894 14.6929413,41.5063626" id="Fill-508"/>
                                <path d="M15.7121362,27.6233291 L15.6899089,27.9573169 C15.5120907,30.0991951 13.6005453,31.6747462 11.4148635,31.5077523 C9.2291817,31.3262372 7.60659081,29.4457407 7.78440899,27.3038625 C7.87331808,25.1547237 9.71818169,23.4847848 11.9112726,23.5791727 C12.6744089,23.6009545 13.3856816,23.847815 13.9784089,24.2398876 C15.0675453,24.9732086 15.7714089,26.2220325 15.7121362,27.6233291" id="Fill-510"/>
                                <path d="M69.3514832,65.7408539 L69.8177182,66.2221898 C72.811821,69.3362869 72.7025472,74.2736259 69.5846007,77.2710355 C66.4666542,80.2611522 61.5056225,80.1517577 58.5115197,77.0303676 C55.3935732,74.032958 55.2915843,69.081033 58.2929721,65.9596429 C59.3274309,64.8656978 60.6314319,64.143694 61.9937123,63.8009245 C64.5215801,63.1518504 67.326275,63.7863386 69.3514832,65.7408539" id="Fill-532"/>
                                <path d="M169.330757,66.2581253 L169.796992,66.7394612 C172.791095,69.8535583 172.681821,74.7908973 169.563875,77.788307 C166.445928,80.7784236 161.484897,80.6690291 158.490794,77.547639 C155.372847,74.5502294 155.270858,69.5983044 158.272246,66.4769143 C159.306705,65.3829692 160.610706,64.6609654 161.972986,64.318196 C164.500854,63.6691219 167.305549,64.30361 169.330757,66.2581253" id="Fill-534"/>
                            </g>
                            <g id="Group-6-Copy-2" transform="translate(224.000000, 100.837349) rotate(77.000000) translate(-224.000000, -100.837349) translate(138.000000, 41.000000)">
                                <path d="M145.120488,47.2264538 L145.354153,47.4676703 C146.851071,49.0246129 146.792655,51.4952543 145.23732,52.9937202 C143.681986,54.4848765 141.199292,54.4337094 139.702373,52.8694572 C138.139737,51.3709913 138.088622,48.8930403 139.592843,47.3360976 C140.111288,46.7878784 140.761169,46.4297085 141.440259,46.2542783 C142.703512,45.9326564 144.105504,46.2542783 145.120488,47.2264538" id="Fill-13"/>
                                <path d="M34.6515919,95.4843653 L34.8201844,95.7756496 C35.8903801,97.647151 35.2160102,100.013836 33.3321725,101.077023 C31.4410048,102.132929 29.0440596,101.470257 27.9738639,99.5914735 C26.8303671,97.7563826 27.4021155,95.3532874 29.2493026,94.2245609 C29.887022,93.824045 30.6053725,93.6347102 31.3163929,93.6347102 C32.6284822,93.6347102 33.911251,94.2900998 34.6515919,95.4843653" id="Fill-17"/>
                                <path d="M129.178484,41.0787414 L129.412149,41.3199266 C130.909068,42.8766671 130.850652,45.3469877 129.295317,46.8452591 C127.739982,48.3362218 125.257288,48.2850613 123.76037,46.7210122 C122.197733,45.2227408 122.146619,42.7451115 123.650839,41.188371 C124.169284,40.640223 124.819166,40.2820996 125.498255,40.1066922 C126.761509,39.785112 128.1635,40.0993835 129.178484,41.0787414" id="Fill-19"/>
                                <path d="M79.4320251,11.5134539 L79.89826,11.994697 C82.8923629,15.108194 82.783089,20.0445815 79.6651425,23.0414135 C76.5471961,26.030954 71.5861644,25.9215805 68.5920616,22.800792 C65.4741151,19.80396 65.3721262,14.8529893 68.3735139,11.7322008 C69.4079728,10.6384664 70.7119738,9.9166018 72.0669692,9.56660682 C74.602122,8.92494936 77.4068168,9.55931526 79.4320251,11.5134539" id="Fill-41"/>
                                <path d="M33.9259708,99.0602936 L33.8742277,99.7264506 C33.5194181,104.005786 29.6978227,107.162791 25.3292291,106.822472 C20.9606355,106.46767 17.7156058,102.695194 18.0704154,98.415859 C18.2478202,94.1220423 21.9437539,90.791257 26.3271312,90.9650371 C27.8498559,91.0229638 29.2764862,91.5153408 30.4517931,92.2973512 C32.6471777,93.7600004 34.0442407,96.2653303 33.9259708,99.0602936" id="Fill-43"/>
                                <path d="M110.636162,30.4500487 C108.896652,30.5973926 107.102538,30.1708706 105.550239,29.116198 C101.977613,26.6888999 101.057154,21.8420588 103.498709,18.2825386 L103.795128,17.8715265 C106.306887,14.3585361 111.213399,13.5365118 114.731422,16.0336044 C118.249445,18.5306969 119.076297,23.393048 116.580139,26.8982835 L116.447531,27.0766472 C115.059043,29.0929332 112.898306,30.26393 110.636162,30.4500487" id="Fill-51"/>
                                <path d="M62.5613711,33.6988689 L63.027606,34.180112 C66.0217089,37.293609 65.912435,42.2299965 62.7944885,45.2268285 C59.6765421,48.2163689 54.7155104,48.1069955 51.7214076,44.9862069 C48.6034611,41.9893749 48.5014722,37.0384043 51.5028599,33.9176157 C52.5373188,32.8238814 53.8413198,32.1020168 55.2036002,31.7520218 C57.731468,31.1103643 60.5361628,31.7447302 62.5613711,33.6988689" id="Fill-69"/>
                                <path d="M111.765227,5.37627332 L111.998892,5.61745847 C113.495811,7.17419898 113.437394,9.6445196 111.88206,11.142791 C110.326725,12.6337537 107.844031,12.5825932 106.347112,11.0185441 C104.784476,9.52027271 104.733361,7.04264345 106.237582,5.48590294 C106.756027,4.93775487 107.405908,4.57963147 108.084998,4.40422409 C109.348251,4.08264389 110.750243,4.39691544 111.765227,5.37627332" id="Fill-97"/>
                                <path d="M84.027579,1.22663572 L84.2612443,1.46782087 C85.7581627,3.02456138 85.6997464,5.494882 84.1444116,6.99315338 C82.5890769,8.48411613 80.106383,8.43295564 78.6094646,6.86890649 C77.0468278,5.37063511 76.9957135,2.89300584 78.4999339,1.33626533 C79.0183789,0.788117267 79.6682605,0.429993863 80.3473503,0.254586482 C81.6106034,-0.0669937176 83.0125953,0.247277841 84.027579,1.22663572" id="Fill-99"/>
                                <path d="M43.9824322,98.7027164 L44.2160975,98.9439015 C45.7130159,100.500642 45.6545996,102.970963 44.0992648,104.469234 C42.5439301,105.960197 40.0612361,105.909036 38.5643177,104.344987 C37.001681,102.846716 36.9505667,100.369087 38.4547871,98.812346 C38.973232,98.2641979 39.6231137,97.9060745 40.3022035,97.7306671 C41.5654566,97.4090869 42.9674485,97.7233585 43.9824322,98.7027164" id="Fill-113"/>
                                <path d="M45.8081999,11.8319304 L46.0418652,12.0731155 C47.5387837,13.629856 47.4803673,16.1001767 45.9250326,17.5984481 C44.3696979,19.0894108 41.8870039,19.0382503 40.3900855,17.4742012 C38.8274487,15.9759298 38.7763344,13.4983005 40.2805549,11.94156 C40.7989998,11.3934119 41.4488814,11.0352885 42.1279713,10.8598811 C43.3912244,10.5383009 44.7932162,10.8525725 45.8081999,11.8319304" id="Fill-117"/>
                                <path d="M52.3389141,105.559044 L52.8052313,106.040287 C55.7998619,109.153784 55.6905689,114.090172 52.5720727,117.087004 C49.4608627,120.076544 44.4916702,119.967171 41.4970396,116.846382 C38.3785434,113.84955 38.2838227,108.891288 41.2784534,105.777791 C42.3130946,104.684057 43.6173255,103.962192 44.979846,103.612197 C47.5081595,102.97054 50.3133488,103.604906 52.3389141,105.559044" id="Fill-151"/>
                                <path d="M38.7718622,56.2796523 L39.1083355,56.8608448 C41.2442096,60.6095359 39.905631,65.3389893 36.1312782,67.4676065 C32.3569255,69.581694 27.5585236,68.2449514 25.4226495,64.4889954 C23.1258535,60.8274831 24.2669369,56.0253807 27.9608286,53.7514653 C29.2408901,52.9595906 30.6818736,52.5818155 32.0935986,52.5818155 C34.7195533,52.5818155 37.2869909,53.8967634 38.7718622,56.2796523" id="Fill-179"/>
                                <path d="M85.9028674,66.9081636 C83.2942404,67.1311736 80.602536,66.4869223 78.2763718,64.9093326 C72.9178863,61.2668349 71.5388032,53.9900991 75.2025119,48.6626365 L75.6428215,48.0349045 C79.406223,42.7652593 86.7668713,41.5428337 92.0422795,45.284447 C97.3259954,49.0260603 98.5721548,56.327575 94.8170611,61.5807009 L94.6259834,61.8532688 C92.5407433,64.8762941 89.3007288,66.6190764 85.9028674,66.9081636" id="Fill-187"/>
                                <path d="M41.3081808,75.0968557 L41.5418461,75.3380408 C43.0387646,76.8947813 42.9803482,79.3651019 41.4250135,80.8633733 C39.8696788,82.3543361 37.3869848,82.3031756 35.8900664,80.7391264 C34.3274296,79.240855 34.2763153,76.7632258 35.7805358,75.2064853 C36.2989807,74.6583372 36.9488623,74.3002138 37.6279522,74.1248064 C38.8912053,73.8032262 40.2931971,74.1174978 41.3081808,75.0968557" id="Fill-195"/>
                                <path d="M89.2092406,40.898003 C87.4697603,41.045347 85.6756775,40.6188249 84.1234058,39.5641523 C80.5508409,37.1368542 79.6381988,32.2900131 82.0797115,28.730493 L82.3683248,28.3194808 C84.8800408,24.8064904 89.7864673,23.9844661 93.3044297,26.4815587 C96.8301924,28.9786512 97.6570306,33.8410023 95.153115,37.3462378 L95.0205089,37.5246015 C93.6320448,39.5408875 91.4713451,40.7041293 89.2092406,40.898003" id="Fill-225"/>
                                <path d="M105.168042,93.3821705 C103.426821,93.5303626 101.631933,93.1035692 100.081531,92.0484411 C96.5096435,89.6240176 95.5913285,84.7692428 98.0361931,81.218559 L98.3283842,80.8036209 C100.838843,77.2885032 105.746461,76.4704825 109.264681,78.9660383 C112.7829,81.4615941 113.611769,86.3282242 111.113237,89.8255589 L110.982049,90.0093172 C109.59265,92.0247304 107.434014,93.1924845 105.168042,93.3821705" id="Fill-248"/>
                                <path d="M144.770106,82.7537311 L145.003772,82.9949476 C146.50069,84.5518902 146.442274,87.0225316 144.886939,88.5209975 C143.331604,90.0121539 140.84891,89.9609868 139.351992,88.3967345 C137.789355,86.8982686 137.738241,84.4203176 139.242461,82.863375 C139.760906,82.3151557 140.410788,81.9569858 141.089878,81.7815557 C142.353131,81.4599337 143.755123,81.7815557 144.770106,82.7537311" id="Fill-274"/>
                                <path d="M121.519318,49.1386377 L121.985553,49.6198808 C124.979656,52.7333778 124.870382,57.6697653 121.752436,60.6665973 C118.634489,63.6561378 113.673458,63.5467643 110.679355,60.4259758 C107.561408,57.4291437 107.45942,52.4708815 110.460807,49.3573845 C111.495266,48.2636502 112.799267,47.5417856 114.161547,47.1917906 C116.689415,46.5501331 119.49411,47.184499 121.519318,49.1386377" id="Fill-302"/>
                                <path d="M77.9021125,106.680482 C75.6406635,106.871389 73.3079877,106.071964 71.5985459,104.300104 C68.5951516,101.173994 68.6841851,96.1925025 71.800355,93.1678122 C74.8512338,90.095395 79.8905257,90.0059072 82.9473401,93.0842902 C86.0160255,96.1567074 86.0991234,101.060643 83.0423091,104.139026 L82.6802398,104.496978 C81.3269317,105.809467 79.6352966,106.531335 77.9021125,106.680482" id="Fill-324"/>
                                <path d="M140.449246,84.0302921 C137.840619,84.2533021 135.148915,83.6090508 132.82275,82.0314611 C127.464265,78.3889634 126.085182,71.1122276 129.74889,65.784765 L130.1892,65.157033 C133.952602,59.8873877 141.31325,58.6649622 146.588658,62.4065755 C151.872374,66.1481888 153.118533,73.4497035 149.36344,78.7028294 L149.172362,78.9753973 C147.087122,81.9984226 143.847107,83.7412049 140.449246,84.0302921" id="Fill-366"/>
                                <path d="M38.1759109,32.4290847 L38.4095762,32.6702699 C39.9064946,34.2270104 39.8480783,36.697331 38.2927435,38.1956024 C36.7374088,39.6865651 34.2547149,39.6354046 32.7577965,38.0713555 C31.1951597,36.5730841 31.1440454,34.0954548 32.6482658,32.5387143 C33.1667108,31.9905663 33.8165924,31.6324429 34.4956822,31.4570355 C35.7589353,31.1354553 37.1609272,31.4497268 38.1759109,32.4290847" id="Fill-410"/>
                                <path d="M115.721823,29.9638009 L115.955489,30.2049861 C117.452407,31.7617266 117.393991,34.2320472 115.838656,35.7303186 C114.283321,37.2212813 111.800627,37.1701209 110.303709,35.6060717 C108.741072,34.1078003 108.689958,31.6301711 110.194178,30.0734305 C110.712623,29.5252825 111.362505,29.1671591 112.041595,28.9917517 C113.304848,28.6701715 114.70684,28.9844431 115.721823,29.9638009" id="Fill-414"/>
                                <path d="M63.2552339,11.3579854 L63.4888992,11.5991705 C64.9858176,13.155911 64.9274013,15.6262316 63.3720666,17.124503 C61.8167318,18.6154658 59.3340379,18.5643053 57.8371195,17.0002561 C56.2744827,15.5019847 56.2233684,13.0243555 57.7275889,11.467615 C58.2460338,10.9194669 58.8959154,10.5613435 59.5750053,10.3859361 C60.8382583,10.0643559 62.2402502,10.3786275 63.2552339,11.3579854" id="Fill-416"/>
                                <path d="M97.2733482,99.2282886 L97.5070135,99.4694738 C99.0039319,101.026214 98.9455156,103.496535 97.3901808,104.994806 C95.8348461,106.485769 93.3521522,106.434609 91.8552337,104.870559 C90.292597,103.372288 90.2414827,100.894659 91.7457031,99.3379182 C92.264148,98.7897702 92.9140297,98.4316468 93.5931195,98.2562394 C94.8563726,97.9346592 96.2583645,98.2489307 97.2733482,99.2282886" id="Fill-418"/>
                                <path d="M45.1412138,46.7100719 L45.3748791,46.9512571 C46.8717975,48.5079976 46.8133812,50.9783182 45.2580464,52.4765896 C43.7027117,53.9675523 41.2200177,53.9163919 39.7230993,52.3523427 C38.1604626,50.8540713 38.1093483,48.3764421 39.6135687,46.8197016 C40.1320136,46.2715535 40.7818953,45.9134301 41.4609851,45.7380227 C42.7242382,45.4164425 44.1262301,45.7307141 45.1412138,46.7100719" id="Fill-428"/>
                                <path d="M14.6929413,41.5063626 L15.0248262,42.0854624 C17.1686228,45.8362475 15.8231437,50.5759569 12.0468325,52.6963533 C8.27949114,54.8078403 3.47164596,53.4714561 1.33681919,49.720671 C-0.950495216,46.0589782 0.188677055,41.247995 3.87528968,38.9761418 C5.15797972,38.1832205 6.60212725,37.8090329 8.01039533,37.8090329 C10.6385644,37.8090329 13.2039445,39.1186894 14.6929413,41.5063626" id="Fill-508"/>
                                <path d="M15.7121362,27.6233291 L15.6899089,27.9573169 C15.5120907,30.0991951 13.6005453,31.6747462 11.4148635,31.5077523 C9.2291817,31.3262372 7.60659081,29.4457407 7.78440899,27.3038625 C7.87331808,25.1547237 9.71818169,23.4847848 11.9112726,23.5791727 C12.6744089,23.6009545 13.3856816,23.847815 13.9784089,24.2398876 C15.0675453,24.9732086 15.7714089,26.2220325 15.7121362,27.6233291" id="Fill-510"/>
                                <path d="M69.3514832,65.7408539 L69.8177182,66.2221898 C72.811821,69.3362869 72.7025472,74.2736259 69.5846007,77.2710355 C66.4666542,80.2611522 61.5056225,80.1517577 58.5115197,77.0303676 C55.3935732,74.032958 55.2915843,69.081033 58.2929721,65.9596429 C59.3274309,64.8656978 60.6314319,64.143694 61.9937123,63.8009245 C64.5215801,63.1518504 67.326275,63.7863386 69.3514832,65.7408539" id="Fill-532"/>
                                <path d="M169.330757,66.2581253 L169.796992,66.7394612 C172.791095,69.8535583 172.681821,74.7908973 169.563875,77.788307 C166.445928,80.7784236 161.484897,80.6690291 158.490794,77.547639 C155.372847,74.5502294 155.270858,69.5983044 158.272246,66.4769143 C159.306705,65.3829692 160.610706,64.6609654 161.972986,64.318196 C164.500854,63.6691219 167.305549,64.30361 169.330757,66.2581253" id="Fill-534"/>
                            </g>
                        </g>
                    </g>
                </g>
            </g>
        </g>
    </g>
</svg>