<?xml version="1.0" encoding="UTF-8" standalone="no"?>
<svg width="120px" height="126px" viewBox="0 0 120 126" version="1.1" xmlns="http://www.w3.org/2000/svg" xmlns:xlink="http://www.w3.org/1999/xlink"><script xmlns="" type="text/javascript" charset="utf-8" id="zm-extension"/>
    <!-- Generator: Sketch 43.1 (39012) - http://www.bohemiancoding.com/sketch -->
    <title>7</title>
    <desc>Created with Sketch.</desc>
    <defs/>
    <g id="Page-1" stroke="none" stroke-width="1" fill="none" fill-rule="evenodd">
        <g id="Home-fold-#5" transform="translate(-147.000000, -182.000000)" fill="#FFD931">
            <g id="services" transform="translate(50.000000, 93.000000)">
                <g id="Group-3" transform="translate(20.000000, 70.000000)">
                    <g id="7" transform="translate(77.000000, 19.000000)">
                        <g>
                            <path d="M24.6323798,68.1032856 L25.5582129,68.1783421 C37.9026544,69.3342128 47.0287236,80.502626 45.9118456,93.1271361 C44.7949676,105.751646 33.8613194,115.08868 21.5021821,113.902786 L20.3412168,113.812719 C7.96738376,112.596803 -1.08520667,101.368344 0.105150189,88.7588455 C1.16324517,77.5453983 9.95131186,69.0039641 20.5616532,68.0882743 C21.884272,67.9681838 23.250978,67.9681838 24.6323798,68.1032856" id="Fill-63"/>
                            <path d="M92.7339956,98.7689381 L93.6339375,99.6980283 C99.4132523,105.70896 99.2023284,115.239172 93.1839666,121.02487 C87.1656048,126.796491 77.5896599,126.585334 71.8103452,120.560325 C65.7919834,114.774627 65.5951211,105.216261 71.3884974,99.1912518 C73.3852436,97.0796833 75.9022688,95.6860481 78.5317866,95.0244233 C83.4111594,93.7715593 88.8248727,94.9962691 92.7339956,98.7689381" id="Fill-161"/>
                            <path d="M87.0128262,76.1560753 L87.4638546,76.6216188 C90.3532553,79.62649 90.2404982,84.3947833 87.2383404,87.2867955 C84.2361827,90.1647003 79.444006,90.0659487 76.5546053,87.0469701 C73.5383529,84.1549579 73.4396905,79.3725572 76.3431858,76.367686 C77.343905,75.3096327 78.5983277,74.6183713 79.909129,74.2797942 C82.3475013,73.6590697 85.0536716,74.2656869 87.0128262,76.1560753" id="Fill-496"/>
                            <path d="M87.3509851,41.8681216 L87.8020135,42.333665 C90.6914141,45.3385363 90.578657,50.1068296 87.5764993,52.9988418 C84.5743415,55.8767466 79.7821649,55.7779949 76.8927642,52.7590164 C73.8765118,49.8670041 73.7778494,45.0846035 76.6813447,42.0797323 C77.6820639,41.021679 78.9364866,40.3304176 80.2472879,39.9918405 C82.6856601,39.371116 85.3918305,39.9777331 87.3509851,41.8681216" id="Fill-500"/>
                            <path d="M93.7351534,89.9388886 L94.1861818,90.404432 C97.0755825,93.4093032 96.9628254,98.1775965 93.9606676,101.069609 C90.9585099,103.947514 86.1663332,103.848762 83.2769325,100.829783 C80.2606801,97.9377711 80.1620177,93.1553705 83.065513,90.1504992 C84.0662322,89.092446 85.3206549,88.4011845 86.6314562,88.0626075 C89.0698285,87.4418829 91.7759988,88.0485001 93.7351534,89.9388886" id="Fill-502"/>
                            <path d="M114.864733,4.2185461 L115.764675,5.14763624 C121.54399,11.1585679 121.333066,20.6887804 115.314704,26.4744781 C109.296343,32.2460987 99.7203977,32.0349418 93.9410829,26.009933 C87.9227211,20.2242353 87.7258588,10.6658686 93.5192351,4.6408598 C95.5159814,2.5292913 98.0330065,1.13565609 100.662524,0.474031291 C105.541897,-0.778832687 110.95561,0.445877044 114.864733,4.2185461" id="Fill-524"/>
                            <path d="M59.7853586,55.3110589 L60.236387,55.7766628 C63.1257876,58.7819242 63.0130305,63.5508366 60.0108728,66.4432243 C57.008715,69.3215028 52.2165383,69.2227384 49.3271377,66.2033678 C46.3108853,63.3109801 46.2122228,58.5279584 49.1157181,55.522697 C50.1164374,54.4645064 51.3708601,53.7731552 52.6816614,53.4345342 C55.1200336,52.813729 57.826204,53.4345342 59.7853586,55.3110589" id="Fill-552"/>
                        </g>
                    </g>
                </g>
            </g>
        </g>
    </g>
</svg>