<?xml version="1.0" encoding="UTF-8"?>
<!-- Generator: Adobe Illustrator 17.0.0, SVG Export Plug-In . SVG Version: 6.00 Build 0)  -->
<!DOCTYPE svg PUBLIC "-//W3C//DTD SVG 1.1//EN" "http://www.w3.org/Graphics/SVG/1.1/DTD/svg11.dtd">
<svg version="1.1" id="Layer_1" xmlns="http://www.w3.org/2000/svg" xmlns:xlink="http://www.w3.org/1999/xlink" x="0px" y="0px" width="243.78px" height="153.07px" viewBox="0 0 243.78 153.07" enable-background="new 0 0 243.78 153.07" xml:space="preserve"><script xmlns="" type="text/javascript" charset="utf-8" id="zm-extension"/>
<g>
	<defs>
		<rect id="SVGID_1_" x="33.544" y="30.865" width="176.693" height="91.341"/>
	</defs>
	<clipPath id="SVGID_2_">
		<use xlink:href="#SVGID_1_" overflow="visible"/>
	</clipPath>
	<path clip-path="url(#SVGID_2_)" fill="#3C3C3B" d="M116.641,30.865c-0.873,0.416-1.866,1.473-2.98,3.173   c-2.71,4.06-5.857,11.019-9.44,20.877c-0.223,0.642-0.585,1.331-1.086,2.067c-0.223,0.303-0.455,0.605-0.696,0.907   c-0.557,0.623-0.836,1.01-0.836,1.161c0,0.038,0.019,0.057,0.056,0.057c0.056,0,0.167-0.038,0.334-0.113l2.395-2.578   c-0.018,1.567,0.464,2.493,1.448,2.776c0.081,0.013,0.166,0.02,0.256,0.02c0.428,0,0.96-0.148,1.596-0.445   c0.77-0.359,1.397-0.803,1.88-1.331c-0.947,0.34-1.569,0.51-1.866,0.51c-1.541-0.076-2.311-0.699-2.311-1.87   c0-0.245,0.037-0.51,0.111-0.793c7.723-12.804,11.585-20.66,11.585-23.568C117.087,31.167,116.938,30.884,116.641,30.865    M106.198,52.932c6.294-13.994,9.719-20.99,10.276-20.99c0.037,0,0.056,0.028,0.056,0.085c-0.112,1.359-0.752,3.21-1.922,5.552   c-0.631,1.246-1.958,3.635-3.982,7.166C108.677,48.126,107.201,50.854,106.198,52.932 M184.06,31.29   c-1.114,0-2.683,1.671-4.706,5.014c-1.95,3.267-4.753,8.828-8.41,16.685l-2.924,2.86c-0.075,0.303,0.028,0.492,0.306,0.567   c0.006,0.001,0.012,0.001,0.018,0.001c0.139,0,0.429-0.194,0.873-0.582c0.407-0.356,0.693-0.534,0.857-0.534   c0.023,0,0.044,0.003,0.062,0.01c0.037,0.019,0.056,0.066,0.056,0.142c0,0.227-0.2,0.878-0.599,1.954   c-0.399,1.077-0.599,1.747-0.599,2.012c0,0.132,0.037,0.198,0.112,0.198c0.001,0,0.003,0,0.005,0c0.155,0,0.626-0.784,1.415-2.351   c1.077-2.134,1.875-3.617,2.395-4.448c0.984-1.605,1.773-2.426,2.367-2.464c0.187-0.01,0.361-0.016,0.522-0.016   c1.007,0,1.511,0.204,1.511,0.611c0,0.396-0.455,0.906-1.365,1.53c-0.91,0.623-1.847,1.104-2.812,1.444   c-0.539,0.17-0.808,0.548-0.808,1.133c0,0.624,0.279,1.388,0.835,2.295c0.483,0.774,0.938,1.312,1.365,1.614   c0.26,0.208,0.687,0.312,1.281,0.312c1.708,0,3.072-0.67,4.094-2.011c-0.52,0.283-1.133,0.425-1.838,0.425   c-0.762,0-1.532-0.142-2.312-0.425c-0.334-0.151-0.798-0.463-1.392-0.935c-0.761-0.623-1.142-1.133-1.142-1.53   c0-0.226,0.13-0.415,0.39-0.566c4.363-2.361,6.544-3.787,6.544-4.278c0-0.075-0.028-0.132-0.083-0.169   c-0.446-0.265-1.068-0.397-1.866-0.397c-0.891,0-2.015,0.17-3.37,0.51c-0.538,0.132-1.086,0.274-1.643,0.425   c0.075-0.227,1.987-3.352,5.737-9.376c3.639-5.855,5.458-9.037,5.458-9.546C184.394,31.328,184.283,31.29,184.06,31.29    M75.909,33.612c-0.6,0-0.9,0.359-0.9,1.077c0,0.491,0.176,1.133,0.529,1.927c0.019,0.283,0.028,0.736,0.028,1.359   c-3.23-0.51-6.043-0.812-8.438-0.906c-0.464-0.151-0.882-0.227-1.253-0.227c-1.467,0-2.2,1.039-2.2,3.116   c0,0.246,0.009,0.458,0.028,0.637c0.018,0.18,0.074,0.27,0.167,0.27c-0.019,0,0.39-0.255,1.235-0.765   c0.839-0.51,1.74-0.765,2.701-0.765c0.278,0,0.561,0.019,0.858,0.057c1.128,0.151,3.43,0.292,6.902,0.424   c-0.501,6.874-2.219,12.426-5.161,16.657c-1.778-0.359-3.398-0.539-4.86-0.539c-2.478,0-4.279,0.463-5.411,1.388   c-0.497,0.473-0.748,0.973-0.748,1.502c0,0.491,0.219,0.906,0.655,1.246c0.436,0.34,1.026,0.51,1.768,0.51   c0.557,0,1.151-0.104,1.783-0.311c2.005-0.548,4.344-1.266,7.017-2.153c0.041,0,0.082,0,0.123,0c4.315,0,8.284-0.982,11.907-2.946   c2.841-1.53,5.663-3.796,8.466-6.799c0.65-0.717,0.974-1.445,0.974-2.181c0-1.7-1.726-3.352-5.179-4.957   c-2.636-1.228-5.57-2.172-8.8-2.833c-0.037-0.434-0.046-0.736-0.028-0.906v-1.049c0-0.963-0.158-1.657-0.473-2.082   c-0.316-0.424-0.863-0.675-1.643-0.75C75.94,33.612,75.925,33.612,75.909,33.612 M73.561,56.869c-0.65,0-1.225-0.057-1.727-0.17   c3.695-5.363,5.82-10.924,6.377-16.684c3.843,0.34,6.758,1.397,8.745,3.172c0.816,0.737,1.42,1.587,1.81,2.55   c0.13,0.453,0.194,0.906,0.194,1.359c0,2.267-1.503,4.334-4.511,6.204c-2.32,1.435-5.087,2.531-8.298,3.286   C75.278,56.775,74.415,56.869,73.561,56.869 M62.417,59.702c-0.501,0-0.844-0.076-1.03-0.231c-0.459-0.553-0.692-1.03-0.692-1.431   c0-0.647,0.622-0.972,1.861-0.972c1.258,0,3.115,0.335,5.575,1C65.597,59.159,63.694,59.702,62.417,59.702 M148.721,34.746   c-0.148,0-0.668,0.406-1.559,1.218c-1.467-0.378-2.59-0.567-3.37-0.567c-0.278,0-0.473,0.019-0.585,0.057   c-0.464,0.227-0.696,0.661-0.696,1.303c0,0.224,0.058,0.336,0.174,0.336c0.031,0,0.066-0.008,0.105-0.024   c0.724-0.265,1.439-0.397,2.144-0.397c0.557,0,1.049,0.076,1.476,0.227c-1.597,4.065-2.813,8.743-3.648,14.036   c-0.334,2.195-0.585,4.424-0.752,6.694v1.36c0.557,1.27,0.947,2.101,1.17,2.498c0.055,0.113,0.12,0.17,0.195,0.17   c0.278,0,0.455-0.945,0.529-2.833v-2.266c-0.038-4.57,0.487-8.196,1.568-10.878c1.843-0.17,2.971-0.293,3.384-0.368   c0.896-0.095,2.135-0.51,3.718-1.247c1.698-0.793,2.882-1.567,3.555-2.322c0.093-0.095,0.139-0.227,0.139-0.397   c0-1.435-2.71-3.135-8.132-5.099c0.261-0.585,0.465-1.067,0.613-1.444C148.768,34.765,148.758,34.746,148.721,34.746    M145.714,44.434c0.594-3.079,1.188-5.477,1.782-7.195c1.912,0.982,3.49,1.879,4.734,2.691c0.52,0.34,0.956,0.651,1.309,0.935   c0.186,0.17,0.279,0.377,0.279,0.623C153.818,42.753,151.116,43.735,145.714,44.434 M120.4,42.961c-1.67,0-3.072,2.285-4.205,6.855   c1.467-1.398,2.767-3.116,3.899-5.156c0.13-0.207,0.409-0.453,0.835-0.736c0.372-0.227,0.557-0.387,0.557-0.482   C121.486,43.291,121.125,43.131,120.4,42.961 M155.293,51.09c-1.485,0.133-2.84,0.529-4.065,1.19   c-1.616,0.85-2.785,2.059-3.509,3.626c-0.297,0.68-0.446,1.294-0.446,1.841c0,1.001,0.529,1.502,1.588,1.502   c0.909,0,2.162-0.368,3.759-1.105c1.968-0.907,3.165-1.615,3.592-2.125c-0.148,0.284-0.222,0.59-0.222,0.916   c0,0.893,0.519,1.454,1.559,1.686c1.541,0.42,2.516,0.628,2.924,0.628c-1.615-0.741-2.423-1.993-2.423-3.754   c0-0.344,0.033-0.703,0.098-1.085c0.065-0.17,0.097-0.322,0.097-0.454c0-0.321-0.167-0.51-0.497-0.566   c-1.03-0.232-1.819-0.42-2.371-0.572c0.408,0.378,0.613,0.784,0.613,1.219c0,0.83-0.664,1.661-1.996,2.492   c-1.136,0.703-2.03,1.054-2.688,1.054c-0.049,0-0.097-0.002-0.144-0.006c-1.313-0.094-1.967-0.576-1.967-1.444   c0-0.718,0.353-1.492,1.058-2.323C151.2,52.847,152.88,51.94,155.293,51.09 M132.681,51.09l-4.316,0.482l-0.919,1.558l4.79-0.453   L132.681,51.09z M96.424,51.09c-1.486,0.133-2.841,0.529-4.066,1.19c-1.615,0.85-2.785,2.059-3.509,3.626   c-0.297,0.68-0.445,1.294-0.445,1.841c0,1.001,0.529,1.502,1.587,1.502c0.91,0,2.163-0.368,3.759-1.105   c1.968-0.907,3.166-1.615,3.593-2.125c-0.149,0.284-0.223,0.59-0.223,0.916c0,0.893,0.52,1.454,1.559,1.686   c1.541,0.42,2.516,0.628,2.924,0.628c-1.615-0.741-2.422-1.993-2.422-3.754c0-0.344,0.032-0.703,0.097-1.085   c0.065-0.17,0.097-0.322,0.097-0.454c0-0.321-0.166-0.51-0.496-0.566c-1.03-0.232-1.819-0.42-2.372-0.572   c0.409,0.378,0.613,0.784,0.613,1.219c0,0.83-0.664,1.661-1.996,2.492c-1.135,0.703-2.03,1.054-2.687,1.054   c-0.05,0-0.097-0.002-0.144-0.006c-1.313-0.094-1.968-0.576-1.968-1.444c0-0.718,0.353-1.492,1.058-2.323   C92.33,52.847,94.01,51.94,96.424,51.09 M168.66,51.402c-1.114,0.076-2.107,0.236-2.979,0.482c-0.607,0.187-1.45,0.809-2.53,1.866   c-0.003,0.031-0.009,0.047-0.017,0.047c-0.004,0-0.009-0.005-0.015-0.015c0.01-0.011,0.021-0.022,0.032-0.032   c0.012-0.116-0.008-0.446-0.06-0.988c0-0.567-0.446-0.85-1.337-0.85c-0.427,0-0.808,0.085-1.142,0.25l0.557,0.203h0.39   c0.483,0,0.724,0.302,0.724,0.907c0,0.396-0.158,1.161-0.473,2.294c-0.335,1.284-0.539,2.21-0.613,2.776   c-0.056,0.265-0.084,0.51-0.084,0.737c0,0.434,0.102,0.651,0.307,0.651c0.222,0,0.557-0.274,1.002-0.821   c0.371-1.341,0.808-2.493,1.309-3.456c1.244-2.323,2.757-3.513,4.539-3.569L168.66,51.402z M115.527,52.875   c-0.241,0-0.501,0.283-0.78,0.85c-0.427,0.944-0.705,1.52-0.835,1.728c-0.186,0.245-0.446,0.529-0.78,0.85   c-0.798,0.736-1.875,1.529-3.23,2.379c0.037,0.057,0.111,0.085,0.223,0.085c0.278,0,0.956-0.293,2.033-0.878   c1.011-0.55,1.613-0.825,1.805-0.825c0.013,0,0.023,0.001,0.033,0.004c0.111,0.037,0.232,0.245,0.362,0.623   c0.167,0.491,0.324,0.84,0.473,1.048c0.278,0.359,0.668,0.538,1.169,0.538c0.557,0,1.217-0.246,1.978-0.737   c0.668-0.434,1.002-0.698,1.002-0.793l-0.028-0.028l-0.055,0.057c-0.464,0.283-1.021,0.424-1.671,0.424   c-0.631,0-1.04-0.047-1.226-0.141c-0.296-0.151-0.445-0.51-0.445-1.077c0-0.358,0.06-0.953,0.181-1.784   c0.121-0.831,0.181-1.388,0.181-1.671C115.917,53.092,115.787,52.875,115.527,52.875"/>
	<path clip-path="url(#SVGID_2_)" fill="#3C3C3B" d="M200.241,49.052c-3.16,0-6.629,1.639-9.7,5.786   c4.176-2.914,7.624-4.089,10.296-4.089c5.556,0.001,7.757,5.078,6.167,10.156c-1.59,5.077-6.969,10.155-16.575,10.155   c-1.277,0-2.629-0.09-4.056-0.281c-6.754-0.906-13.867-1.15-19.865-1.15c-4.508,0-8.386,0.138-11.003,0.237   c-0.432,0.017-0.877,0.025-1.336,0.025c-11.677,0-31.49-5.117-31.49-5.117s-0.032-0.009-0.084-0.009   c-0.306,0-1.301,0.334-0.198,5.01c0.498,2.11,1.481,2.678,2.645,2.678c0.68,0,1.421-0.194,2.163-0.388   c0.741-0.193,1.484-0.387,2.166-0.387c0.49,0,0.948,0.1,1.353,0.371c1.606,1.073,7.377,1.668,11.691,1.668   c2.41,0,4.364-0.186,4.883-0.577c1.092-0.823,16.776-0.523,39.192-0.837C219.499,71.725,211.998,49.052,200.241,49.052"/>
	<path clip-path="url(#SVGID_2_)" fill="#3C3C3B" d="M43.539,49.052C31.782,49.051,24.281,71.725,57.29,72.303   c22.416,0.314,38.1,0.014,39.192,0.837c0.519,0.391,2.473,0.577,4.883,0.577c4.314,0,10.086-0.595,11.691-1.668   c0.405-0.271,0.864-0.371,1.353-0.371c0.682,0,1.425,0.194,2.166,0.387c0.742,0.194,1.483,0.388,2.163,0.388   c1.164,0,2.147-0.568,2.645-2.678c1.103-4.676,0.109-5.01-0.198-5.01c-0.052,0-0.084,0.009-0.084,0.009s-19.813,5.117-31.489,5.117   c-0.46,0-0.905-0.008-1.337-0.025c-2.617-0.099-6.495-0.237-11.003-0.237c-5.998,0-13.111,0.244-19.865,1.15   c-1.427,0.191-2.779,0.281-4.056,0.281c-9.606,0-14.985-5.078-16.575-10.155c-1.59-5.078,0.611-10.156,6.167-10.156   c2.672,0,6.12,1.175,10.296,4.089C50.168,50.691,46.699,49.052,43.539,49.052"/>
	<path clip-path="url(#SVGID_2_)" fill="#3C3C3B" d="M133.522,77.989c-4.375,0-8.379,1.8-11.632,5.032   c-3.254-3.232-7.257-5.032-11.632-5.032c-1.578,0-3.204,0.234-4.861,0.72c-10.195,2.986-10.739,13.185-22.861,16.457   c-0.019,0.005-4.648,1.014-4.22,1.371h0.002c0.295-0.146,2.645-0.362,2.668-0.365c14.804-2.027,14.629-12.794,24.956-15.469   c1.326-0.344,2.62-0.511,3.873-0.511c4.302,0.001,8.115,1.965,11.064,5.469c0.251,0.296,0.605,0.448,0.961,0.448   c0.016,0,0.033,0,0.05-0.001c0.017,0.001,0.033,0.001,0.05,0.001c0.356,0,0.71-0.152,0.961-0.448   c2.949-3.504,6.761-5.469,11.064-5.469c1.252,0.001,2.547,0.167,3.873,0.511c10.327,2.675,10.152,13.442,24.956,15.469   c0.023,0.003,2.373,0.219,2.668,0.365h0.002c0.427-0.357-4.201-1.366-4.221-1.371c-12.121-3.272-12.665-13.471-22.86-16.457   C136.726,78.223,135.1,77.989,133.522,77.989 M132.55,95.419c-3.538,0-5.835,1.654-10.637,2.147l-0.023,0.001l-0.023-0.001   c-4.802-0.492-7.1-2.147-10.637-2.147c-1.303,0-2.774,0.225-4.601,0.814c-4.359,1.407-10.967,2.661-16.577,2.661   c-1.98,0-3.835-0.156-5.423-0.517c-0.465-0.106-3.606-0.742-4.17-0.75c-0.18,0.389,3.124,1.26,3.129,1.262   c3.096,0.955,6.39,1.362,9.717,1.362c4.751,0,9.569-0.829,13.972-2.069c1.279-0.361,2.398-0.507,3.433-0.507   c3.641,0,6.241,1.808,11.101,2.464h0.079h0.078c4.861-0.656,7.461-2.464,11.102-2.464c1.035,0,2.154,0.146,3.433,0.507   c4.403,1.24,9.221,2.069,13.972,2.069c3.327,0,6.621-0.407,9.717-1.362c0.004-0.002,3.309-0.873,3.128-1.262   c-0.563,0.008-3.705,0.644-4.169,0.75c-1.588,0.361-3.444,0.517-5.423,0.517c-5.61,0-12.217-1.254-16.577-2.661   C135.324,95.644,133.853,95.419,132.55,95.419 M165.538,98.107c-17.585,14.797-30.614,22.192-43.645,22.192   S95.827,112.9,78.242,98.107c13.957,16.068,28.8,24.098,43.645,24.098C136.733,122.205,151.581,114.171,165.538,98.107"/>
</g>
</svg>