<?xml version="1.0" encoding="UTF-8"?>
<!-- Generator: Adobe Illustrator 17.0.0, SVG Export Plug-In . SVG Version: 6.00 Build 0)  -->
<!DOCTYPE svg PUBLIC "-//W3C//DTD SVG 1.1//EN" "http://www.w3.org/Graphics/SVG/1.1/DTD/svg11.dtd">
<svg version="1.1" id="Layer_1" xmlns="http://www.w3.org/2000/svg" xmlns:xlink="http://www.w3.org/1999/xlink" x="0px" y="0px" width="3000.452px" height="462.577px" viewBox="0 0 3000.452 462.577" enable-background="new 0 0 3000.452 462.577" xml:space="preserve"><script xmlns="" type="text/javascript" charset="utf-8" id="zm-extension"/>
<g>
	<g>
		<path fill="#7F7F7F" d="M1896.122,0.004c25.29,0.04,50.58-0.02,75.87,0.03c24.08,91.94,48.37,183.83,72.45,275.77    c62.37-91.96,124.81-183.88,187.25-275.8c24.28,0.06,48.56-0.06,72.85,0.06c-0.92,8.69-3.49,17.12-5.07,25.72    c-24.17,113.52-48.32,227.04-72.51,340.55c-22.63-0.08-45.27,0.19-67.9-0.13c4.38-22.58,9.53-45.01,14.19-67.54    c12.95-60.97,25.98-121.92,38.87-182.9c-52.45,83.51-104.82,167.08-157.26,250.59c-20.82-0.05-41.63,0.04-62.44-0.04    c-17.53-83.84-35.41-167.6-52.82-251.45c-17.67,83.86-35.62,167.66-53.43,251.48c-15.53-0.01-31.05,0-46.56,0    c-7.07-0.23-14.21,0.45-21.2-0.33c1.13-8.55,3.57-16.96,5.14-25.46C1847.782,227.044,1871.812,113.494,1896.122,0.004     M2831.332,0.104c26.18-0.19,52.38-0.06,78.58-0.07c29.33,118.28,58.8,236.52,88.18,354.79c0.77,3.83,2.35,7.54,2.36,11.51    c-25.27,0-50.54,0.04-75.81-0.02c-7.61-33.12-15.39-66.21-23-99.34c-41.34,0.02-82.67-0.03-124.01,0.02    c-1.58-0.2-3.36,0.38-4.71-0.42c-0.55-1.32,0.6-2.36,1.19-3.38c11.55-18.1,23.03-36.24,34.49-54.39c0.67-1.06,1.38-2.57,2.99-2.14    c25.37-0.02,50.74,0.03,76.12-0.03c-10.62-44.71-20.94-89.49-31.48-134.21c-63.32,97.97-126.52,196.04-189.94,293.95    c-25.25-0.09-50.49,0.02-75.73-0.06c-1.48,0.43-2.28-0.83-1.31-1.93C2669.922,242.944,2750.772,121.624,2831.332,0.104     M2366.202,35.294c26.11-25.97,65.84-36.43,101.61-28.67c15.76,3.54,30.96,12.4,39.32,26.59c9.13,15.08,9.57,33.91,5.05,50.58    c-4.39,16.94-13.7,32.31-25.46,45.15c-13.49,14.92-29.81,26.9-46.53,37.93c18.92,27.21,37.75,54.48,56.65,81.7    c1.42,1.53,2.05,4.27,4.08,5.04c14.74-24.02,23.68-51.15,29.35-78.62c14.76,0.98,29.53,1.75,44.29,2.78    c1.77,0.45,6.56-0.78,5.41,2.41c-9.32,41.21-25.14,81.61-50.85,115.44c16.18,22.82,32.18,45.78,48.25,68.68    c1.45,1.28-0.53,2.52-1.77,2.05c-20.58-0.01-41.16-0.04-61.74,0.02c-7.79-10.57-15.36-21.3-23.11-31.89    c-29.61,22.37-66.05,34.95-102.96,37.47c-24.78,1.84-50.56,0.35-73.61-9.71c-16.31-7.02-30.77-19.15-38.83-35.14    c-8.51-16.48-9.69-35.88-6.15-53.86c2.86-15.8,9.87-30.68,19.54-43.44c11.25-14.95,25.36-27.44,39.98-38.98    c13.64-10.66,27.84-20.61,42.38-30c-8.99-13.14-18.31-26.28-24.27-41.15c-4.4-10.72-6.84-22.39-5.72-33.99    C2343.032,66.554,2352.692,48.764,2366.202,35.294 M2419.113,55.134c-10.41,3.31-19.01,11.72-22.32,22.15    c-3.18,8.82-1.15,18.51,2.34,26.92c3.88,9.77,10.54,18.01,15.88,26.98c13.27-8.65,26.2-18.47,35.5-31.46    c5.44-7.86,9.65-17.25,8.931-27c-0.45-6.95-4.7-13.5-10.93-16.62C2439.462,51.384,2428.572,52.184,2419.113,55.134     M2335.772,245.904c-10.94,12.89-17.57,31.05-12.33,47.74c2.77,8.93,9.19,16.45,17.14,21.27c8.4,5.22,18.18,7.85,27.95,8.95    c33.77,3.26,68.91-6.25,95.49-27.59c-22.73-33.01-45.54-65.96-68.3-98.96C2374.772,212.184,2352.512,226.094,2335.772,245.904    L2335.772,245.904z"/>
		<path fill="#002820" d="M297.462,0.664c24.8-0.09,49.59,0.12,74.39-0.1c8.15,15.81,15.37,32.13,23.18,48.14    c35.09,73.75,70.19,147.49,105.28,221.25c1.17,2.38,2.07,4.92,3.75,7.04c42.65-91.62,85.38-183.2,128.05-274.81    c0.42-1.17,1.25-1.68,2.49-1.54c23.42,0.02,46.84-0.02,70.27,0.03c0.07,121.64,0.02,243.28,0.02,364.92    c-22.24,0.02-44.47,0.04-66.71,0c0-84.48,0.05-168.95-0.02-253.43c-35.12,84.41-70.14,168.86-105.07,253.34    c-20.58,0.18-41.17,0.19-61.75,0c-30.2-71.85-60.74-143.56-91.06-215.36c-5.43-12.52-10.45-25.22-16.11-37.64    c-0.08,84.36-0.03,168.73-0.03,253.09c-22.23,0.04-44.46,0.01-66.68,0.02C297.442,243.964,297.422,122.314,297.462,0.664     M1028.132,97.684c18.6,0,37.21-0.02,55.81,0c2.88,11.31,6.08,22.54,8.76,33.9c11.55-9.65,23.68-18.94,37.63-24.9    c13.13-5.9,27.45-8.98,41.84-9.06c0.05,18.27,0.02,36.54,0.02,54.81c-16.24-0.07-32.49,4.05-46.65,12.04    c-9.29,5.17-17.71,11.8-25.28,19.25c0.03,60.63-0.01,121.26,0.02,181.89c-24.06,0.02-48.13,0.03-72.19-0.01    C1028.132,276.294,1028.072,186.984,1028.132,97.684 M851.622,98.484c20.84-1.47,41.96-1.09,62.49,3.08    c18.09,3.73,35.86,10.75,50.22,22.58c15.23,12.3,25.69,29.79,31.19,48.44c7.9,26.78,7.84,55.28,4.21,82.76    c-63.14,0.21-126.29,0.02-189.44,0.1c0.04,11.68,3.26,23.72,11,32.71c9.2,10.8,22.88,16.52,36.42,19.68    c22.89,5.28,46.56,4.38,69.85,3.26c19.32-1.23,38.59-3.45,57.66-6.86c-0.03,17.93,0.06,35.86-0.05,53.79    c-24.87,4.91-50.22,6.82-75.53,7.43c-33.66,0.93-68.37-0.89-99.86-13.93c-14.71-6.11-28.44-14.92-39.37-26.58    c-13.44-14.03-22.25-32-26.95-50.74c-5.5-21.98-6.18-44.92-4.22-67.41c1.95-19.18,6.58-38.43,16.25-55.27    c8.43-14.92,20.99-27.43,35.88-35.9C809.682,105.074,830.732,100.334,851.622,98.484 M830.892,163.004    c-13.72,10.78-19.05,28.6-20.63,45.33c40.55,0.04,81.09,0.01,121.64,0.01c0.15-14.42-2.43-30.02-12.49-41.03    c-9.28-10.43-23.41-14.76-36.91-15.99C864.782,149.994,845.322,151.504,830.892,163.004 M1237.772,112.124    c17.92-7.93,37.38-11.69,56.81-13.46c48.45-3.3,96.9,2.94,144.78,9.89c0.16,71.73,0.02,143.46,0.07,215.19    c-0.24,14.05,0.74,28.18-1.23,42.14c-2.09,16.6-7.45,33-16.96,46.86c-12.38,18.34-31.73,30.95-52.37,38.23    c-27.6,9.73-57.21,11.91-86.27,11.57c-29.29-0.53-58.74-3.95-86.76-12.76c0.01-17.9-0.01-35.8,0.01-53.69    c31.28,9.59,64.17,12.86,96.78,12.81c16.35-0.54,33.26-2.44,47.86-10.41c9.74-5.22,17.75-13.69,22-23.94    c3.61-8.41,4.79-17.63,4.92-26.71c-31.51,12.54-66.39,15.29-99.81,10.5c-24.4-3.58-48.79-13.38-65.78-31.79    c-10.63-11.32-18.09-25.32-22.75-40.06c-5.44-17.02-7.43-34.95-7.68-52.75c-0.3-18.11,1.39-36.4,6.6-53.8    c4.84-16.23,13.07-31.62,24.9-43.83C1212.692,125.794,1224.782,117.824,1237.772,112.124 M1264.542,168.644    c-12.72,10.94-18.83,27.57-20.88,43.84c-1.49,14.35-1.46,29.01,1.39,43.21c2.92,14.78,10.07,29.56,22.87,38.19    c14.71,10.08,33.42,11.37,50.68,9.92c16.87-1.49,33.38-6.13,48.75-13.22c0.15-44.02-0.03-88.04,0.08-132.06    c-16.99-5.53-35.09-6.07-52.81-6.07C1296.922,152.734,1278.182,156.644,1264.542,168.644 M1564.442,100.334    c19.24-3.09,38.88-3.23,58.28-1.64c25.38,2.52,51.39,9.87,71,26.91c17.41,14.75,27.88,36.24,32.37,58.34    c4.75,23.49,4.59,47.83,1.16,71.49c-63.07,0-126.15,0.01-189.23,0c0.04,10.3,2.38,20.87,8.41,29.39    c8.08,11.64,21.41,18.32,34.78,21.95c24.21,6.5,49.55,5.49,74.34,4.31c19.21-1.25,38.37-3.45,57.32-6.85    c0.01,17.92,0.02,35.83-0.01,53.75c-26.73,5.35-54.04,7.14-81.26,7.57c-23.44,0.47-47.09-0.69-69.95-6.22    c-23.36-5.53-46.11-16.17-62.92-33.65c-17.72-18.25-27.4-42.96-30.82-67.87c-2.56-18.24-2.63-36.81-0.52-55.1    c2.87-25.09,11.42-50.49,28.99-69.18C1513.962,114.434,1539.202,104.284,1564.442,100.334 M1554.712,166.504    c-11.05,10.95-15.35,26.76-16.69,41.85c40.48,0,80.96,0,121.45,0c0.06-6.79-0.27-13.62-1.91-20.22    c-2.42-10.88-8.57-21.13-17.95-27.34c-12.26-8.21-27.53-10.14-41.96-9.8C1582.222,151.024,1565.812,155.194,1554.712,166.504     M44.852,335.524c1.72-0.6,2.52,1.3,3.05,2.58C46.612,338.534,44.302,336.914,44.852,335.524L44.852,335.524z"/>
		<path fill="#122E89" d="M85.542,102.944c22.56-5.53,46.05-6.08,69.13-4.48c21.34,1.96,42.91,6.98,61.28,18.4    c14.21,8.69,25.89,21.36,33.49,36.17c10.19,19.57,13.85,41.85,14.37,63.72c0.21,12.94-0.36,25.92-2.46,38.71    c-63.07-0.01-126.14,0.02-189.21-0.01c-0.01,11.75,3.26,23.88,11.11,32.86c9.42,10.92,23.37,16.59,37.13,19.71    c23.73,5.27,48.2,4.07,72.28,2.86c18.21-1.35,36.37-3.43,54.34-6.69c0.04,17.93,0.01,35.87,0.01,53.8    c-26.76,5.39-54.11,7.14-81.36,7.58c-22.15,0.43-44.48-0.55-66.16-5.36c-17.16-3.74-33.93-9.94-48.66-19.6    c-0.99-0.82-2.43-1.3-2.93-2.51c-0.53-1.28-1.33-3.18-3.05-2.58l-0.99,0.13c-12.87-10.08-23.33-23.17-30.28-37.96    c-8.73-18.34-12.38-38.68-13.39-58.84c-0.81-22.17,0.79-44.72,7.66-65.92c5.39-16.73,14.56-32.43,27.59-44.34    C49.362,115.604,67.172,107.394,85.542,102.944 M89.482,165.854c-11.47,10.98-15.95,27.1-17.34,42.48    c40.54-0.05,81.09,0.08,121.63-0.07c-0.41-5.18-0.23-10.4-1.21-15.51c-1.6-10.39-5.94-20.69-13.8-27.89    c-8.92-8.45-21.24-12.06-33.19-13.4c-6.98-0.6-14.01-0.63-20.99-0.14C111.822,152.484,98.812,156.734,89.482,165.854    L89.482,165.854z"/>
	</g>
</g>
</svg>