<?xml version="1.0" encoding="UTF-8"?>
<!-- Generator: Adobe Illustrator 17.0.0, SVG Export Plug-In . SVG Version: 6.00 Build 0)  -->
<!DOCTYPE svg PUBLIC "-//W3C//DTD SVG 1.0//EN" "http://www.w3.org/TR/2001/REC-SVG-20010904/DTD/svg10.dtd">
<svg version="1.0" id="Layer_1" xmlns="http://www.w3.org/2000/svg" xmlns:xlink="http://www.w3.org/1999/xlink" x="0px" y="0px" width="1080px" height="1080px" viewBox="0 0 1080 1080" style="enable-background:new 0 0 1080 1080;" xml:space="preserve"><script xmlns="" type="text/javascript" charset="utf-8" id="zm-extension"/>
<style type="text/css">
	.st0{fill:#6F6F6E;}
	.st1{fill:none;}
	.st2{fill:url(#SVGID_1_);}
	.st3{fill:url(#SVGID_2_);}
	.st4{fill:url(#SVGID_3_);}
</style>
<g>
	<g>
		<g>
			<g>
				<path class="st0" d="M493,566.9c-6.9,0-11.3,2.5-14,6.4c-2.7-4.1-7-6.4-12.7-6.4c-6.5,0-10.7,2.5-13,5.8v-4.4h-14.5v48.4h14.5      v-27.3c0-5.7,2.7-9.1,7.5-9.1c4.6,0,7,3.1,7,7.9v28.4h14.5v-27.3c0-5.7,2.7-9.1,7.5-9.1c4.6,0,7,3.1,7,7.9v28.4h14.5v-29.7      C511.4,574.8,504.1,566.9,493,566.9z"/>
				<path class="st0" d="M544.6,566.9c-15.3,0-25.7,11.1-25.7,25.5c0,14.4,10.3,25.5,26.8,25.5c9.2,0,16.4-3.4,21.1-10l-11.6-6.7      c-1.9,2.1-5.3,3.7-9.3,3.7c-5.3,0-9.8-1.7-11.6-6.8h34.3c0.4-1.8,0.6-3.8,0.6-5.8C569.2,577.8,558.8,566.9,544.6,566.9z       M534,587.4c1.4-4.9,5-7.6,10.5-7.6c4.4,0,8.7,2,10.3,7.6H534z"/>
				<rect x="577.4" y="546" class="st0" width="14.5" height="70.6"/>
				<path class="st0" d="M637.7,572.8c-3.2-3.7-7.9-5.9-14.4-5.9c-12.7,0-23.1,11.1-23.1,25.5c0,14.4,10.4,25.5,23.1,25.5      c6.5,0,11.2-2.2,14.4-5.9v4.5h14.5v-67.7h-14.5V572.8z M626.2,604.3c-6.7,0-11.5-4.5-11.5-11.8s4.8-11.8,11.5-11.8      c6.7,0,11.5,4.5,11.5,11.8S632.9,604.3,626.2,604.3z"/>
				<path class="st0" d="M686.2,566.9c-15.3,0-25.7,11.1-25.7,25.5c0,14.4,10.3,25.5,26.8,25.5c9.2,0,16.3-3.4,21.1-10l-11.6-6.7      c-1.9,2.1-5.3,3.7-9.3,3.7c-5.3,0-9.8-1.7-11.6-6.8h34.3c0.4-1.8,0.6-3.8,0.6-5.8C710.7,577.8,700.3,566.9,686.2,566.9z       M675.5,587.4c1.4-4.9,5-7.6,10.5-7.6c4.4,0,8.7,2,10.3,7.6H675.5z"/>
				<path class="st0" d="M747.3,566.9c-6.4,0-11.2,2.3-13.8,5.9v-4.5H719v48.4h14.5v-26.4c0-6.9,3.7-10,9-10c4.6,0,8.4,2.8,8.4,8.8      v27.6h14.5v-29.7C765.4,573.9,757.1,566.9,747.3,566.9z"/>
				<rect x="800.4" y="602" class="st0" width="14.5" height="14.6"/>
				<rect x="800.4" y="546" class="st0" width="14.5" height="43.5"/>
			</g>
		</g>
		<g>
			<path class="st0" d="M470.7,510.7c0,6.9-3.7,10-9,10c-4.6,0-8.4-2.8-8.4-8.8v-27.6h-14.5V514c0,13.1,8.3,20,18.1,20     c6.4,0,11.2-2.3,13.8-5.9v4.5h14.5v-48.4h-14.5V510.7z"/>
			<path class="st0" d="M524.2,482.9c-6.4,0-11.2,2.3-13.8,5.9v-4.5h-14.5v48.4h14.5v-26.4c0-6.9,3.7-10,9-10c4.6,0,8.4,2.8,8.4,8.8     v27.6h14.5v-29.7C542.3,489.9,534,482.9,524.2,482.9z"/>
			<path class="st0" d="M555.4,484.3h-6.5v13.9h6.5v34.4h14.5v-34.4h9v-13.9h-9c0-5.6,3.6-7.3,9-6.8v-13.9     C562.8,462.6,555.4,470.7,555.4,484.3z"/>
			<path class="st0" d="M617.9,488.8c-3.2-3.7-7.9-5.9-14.4-5.9c-12.7,0-23.1,11.1-23.1,25.5c0,14.4,10.4,25.5,23.1,25.5     c6.5,0,11.2-2.2,14.4-5.9v4.5h14.5v-48.4h-14.5V488.8z M606.4,520.3c-6.7,0-11.5-4.5-11.5-11.8c0-7.3,4.8-11.8,11.5-11.8     c6.7,0,11.5,4.5,11.5,11.8C617.9,515.7,613,520.3,606.4,520.3z"/>
			<rect x="643" y="462" class="st0" width="14.5" height="70.6"/>
			<rect x="668.2" y="462" class="st0" width="14.5" height="70.6"/>
		</g>
	</g>
	<g>
		<polygon class="st1" points="372.2,581.8 372.2,581.8 336.6,520.1   "/>
		<polygon class="st1" points="300.9,581.8 372.2,581.8 336.6,520.1   "/>
		<linearGradient id="SVGID_1_" gradientUnits="userSpaceOnUse" x1="265.0856" y1="599.1303" x2="390.0444" y2="599.1303">
			<stop offset="0" style="stop-color:#FF4618"/>
			<stop offset="1" style="stop-color:#CF000F"/>
		</linearGradient>
		<path class="st2" d="M300.9,581.8h-35.8c-0.3,6.2,1.2,12.5,4.4,18.1c6,10.3,16.6,16.5,28.6,16.5H375c5.4,0,10.5-1.3,15.1-3.6    l-17.9-31H300.9z"/>
		<linearGradient id="SVGID_2_" gradientUnits="userSpaceOnUse" x1="315.7354" y1="511.1659" x2="378.3615" y2="619.6376">
			<stop offset="0" style="stop-color:#CF000F"/>
			<stop offset="1" style="stop-color:#FF4618"/>
		</linearGradient>
		<path class="st3" d="M408,581.8c-0.3-5.1-1.7-10.2-4.4-14.9l-38.4-66.6c-2.7-4.8-6.5-8.6-10.9-11.4l-53.3,92.9l35.7-61.8    l35.7,61.8h0l17.9,31c5.5-2.8,10.2-7.2,13.5-12.9C406.8,594.3,408.3,588,408,581.8z"/>
		<linearGradient id="SVGID_3_" gradientUnits="userSpaceOnUse" x1="276.9767" y1="588.6718" x2="339.4813" y2="480.4107">
			<stop offset="0" style="stop-color:#CF000F"/>
			<stop offset="1" style="stop-color:#FF4618"/>
		</linearGradient>
		<path class="st4" d="M354.2,488.9c-5.2-3.3-11.2-5.1-17.7-5.1c-11.9,0-22.6,6.2-28.6,16.5l-38.4,66.6c-2.7,4.7-4.2,9.8-4.4,14.9    h35.8L354.2,488.9z"/>
	</g>
</g>
</svg>