<?xml version="1.0" encoding="UTF-8"?>
<!-- Generator: Adobe Illustrator 17.0.0, SVG Export Plug-In . SVG Version: 6.00 Build 0)  -->
<!DOCTYPE svg PUBLIC "-//W3C//DTD SVG 1.1//EN" "http://www.w3.org/Graphics/SVG/1.1/DTD/svg11.dtd">
<svg version="1.1" id="Layer_1" xmlns="http://www.w3.org/2000/svg" xmlns:xlink="http://www.w3.org/1999/xlink" x="0px" y="0px" width="243.78px" height="153.07px" viewBox="0 0 243.78 153.07" enable-background="new 0 0 243.78 153.07" xml:space="preserve"><script xmlns="" type="text/javascript" charset="utf-8" id="zm-extension"/>
<g>
	<defs>
		<rect id="SVGID_1_" x="29.686" y="26.277" width="184.409" height="100.516"/>
	</defs>
	<clipPath id="SVGID_2_">
		<use xlink:href="#SVGID_1_" overflow="visible"/>
	</clipPath>
	<path clip-path="url(#SVGID_2_)" fill="#3C3C3B" d="M149.371,52.088c0.579-2.339,3.186-5.855,3.898-7.742l0.412-1.778l-3.291,5.568   c-0.582,1.079-1.853,2.627-2.805,3.341c-0.56,0.42-0.499,0.362-1.164,0.367c-0.853-1.266-0.198-4.08,0.684-5.393   c0.402-0.597,0.313-0.683,0.415-1.324c1.239-7.722,8.802-13.709,13.069-18.849c0.863,1.617,0.343,7.19-0.045,9.444   c-0.803,4.664-3.293,9.137-6.302,12.474C153.294,49.246,150.415,51.921,149.371,52.088 M142.39,41.868   c-0.02,0.005-0.018-0.056-0.019-0.06L142.39,41.868z M140.867,54.21c0.89-1.053,1.872-2.44,2.623-3.93   c3.319-6.593,3.256-12.248,0.258-18.174c-0.337-0.663-0.657-1.464-1.062-2.065l-1.451,3.215c-2.258,4.497-5.023,10.219-5.803,15.16   c-0.159,1.003-0.247,1.812-0.299,2.728c-0.155,2.696,0.347,0.592-0.682,2.636c-1.241,2.463,3.199,5.172,3.695,1.088   c0.117-0.969,0.025-0.127,0.412-0.894c1.314-2.61,1.879-3.933,2.647-6.675c0.699-2.494,0.686-3.548,1.118-5.3   c0.259,0.536,0.057,2.173,0,2.851c-0.227,2.735-1.525,6.601-2.803,9.138l-1.713,3.082C138.509,56.956,140.42,54.737,140.867,54.21    M198.583,58.002c-0.302,0.108-0.354,0.106-0.667,0.256c-0.317,0.151-0.307,0.18-0.655,0.294c-0.532,0.173-0.815,0.141-1.388,0.334   c-2.487,0.834-3.365,0.319-6.376,2.466c1.853,0.989,4.993,1.333,6.546,1.198c2.427-0.213,1.838-0.236,3.646-0.611   c1.666-0.345,0.906-0.316,2.025-0.685c1.781-0.587,3.538-1.782,5.122-3.075c1.614-1.318,3.13-3.116,4.36-5.556   c-0.364-0.012-1.356-0.462-1.891-0.607c-0.656-0.178-1.278-0.331-1.829-0.404c-3.081-0.408-6.66,0.239-9.407,1.614   c-5.18,2.592-1.102,1.678-8.627,4.142c-0.85,0.279-2.332,0.517-2.923,1.229c2.622,0.688,5.972-0.016,8.49-0.44l3.211-0.64   c0.526-0.101,1.075-0.244,1.61-0.306C199.486,57.625,199.041,57.839,198.583,58.002 M171.323,38.998   c1.758-3.489,2.362-6.893,2.743-7.692l-0.255-0.136c-0.36,0.406-2.832,1.276-3.375,1.489l-3.347,1.583   c-7.115,3.787-5.924,6.59-9.187,11.314c-1.157,1.676-2.792,3.825-1.965,5.374c4.203-2.998,4.002-3.158,7.459-6.899l2.561-2.404   c-0.335,0.666-0.233,0.784-0.6,1.513c-1.756,3.488-4.277,4.962-5.564,7.517C163.781,50.197,169.238,43.141,171.323,38.998    M179.844,52.83c4.01-1.489,9.057-4.744,11.186-8.974c0.969-1.922,2.709-5.972,1.907-7.638c-0.389,0.438-5.863,3.617-7.154,4.433   c-1.434,0.907-3.269,2.217-4.606,3.368c-1.561,1.344-3.841,4.053-4.217,4.287c-1.442,0.898-2.901,2.973-2.029,3.439   c0.471,0.252,1.846-0.673,2.556-1.037c1.772-0.91,3.173-2.217,4.74-3.279c0.799-0.542,1.693-1.32,2.412-1.156   c-0.265,0.206-0.717,0.752-0.968,1.002c-0.347,0.348-0.651,0.656-0.984,0.953c-0.665,0.591-1.346,1.205-2.016,1.758   c-0.915,0.756-3.2,2.722-3.904,3.571C177.239,53.664,179.269,53.042,179.844,52.83 M169.592,51.354   c4.912-1.93,10.304-6.579,12.829-11.592c1.373-2.726,1.049-2.238,2.057-4.729c-0.655,0.076-0.752,0.247-1.34,0.487   c-2.11,0.859-5.773,2.138-7.468,3.069c-2.134,1.172-3.951,2.14-5.441,5.154c-1.619,3.274-5.772,5.467-4.017,7.012   c1.041-0.166,3.814-2.371,4.97-3.229c0.496-0.369,0.701-0.608,1.171-1.034c0.44-0.397,0.722-0.629,1.167-1.055l2.302-2.206   c-1.004,1.997-4.415,5.439-6.153,6.991l-2.191,1.874C168.271,52.005,168.849,51.646,169.592,51.354 M136.893,61.361   c1.392-1.249,3.678-2.194,5.435-2.754c2.067-0.657,2.875-1.123,5.613-1.829l1.993-0.443c3.866-0.63,5.644-0.914,10.069-0.848   c5.507,0.083,11.653,1.075,17.728,3.275c3.218,1.165,4.273,1.651,7.266,3.191c0.563,0.289,0.818,0.282,1.186,0.493   c1.564,0.896,7.91,5.125,8.984,6.593c0.048-0.512-0.428-0.694-1.056-1.299c-7.581-7.311-16.841-11.508-26.944-13.541l-3.565-0.511   c-1.201-0.121-2.277-0.188-3.499-0.297c-1.138-0.102-2.329-0.051-3.43-0.069c-1.616-0.029-3.404,0.045-4.993,0.383l-9.325,2.919   c-0.547,0.215-0.946,0.413-1.497,0.67c-2.086,0.973-10.076,5.478-11.438,7.118C131.161,64.467,131.42,66.271,136.893,61.361    M188.051,56.656c0.753-0.094,1.476-0.3,2.179-0.531c4.262-1.402,6.923-4.149,9.509-7.852l1.538-2.608   c-0.551-0.126-2.316,0.382-2.932,0.501c-2.522,0.485-8.326,3.053-10.969,4.496c-0.761,0.416-7.335,4.13-7.744,4.592   c1.85-0.016,3.711-0.406,5.486-0.86c2.181-0.559,8.145-3.448,8.509-3.491c-1.913,3.132-8.445,2.008-8.043,5.697   C186.168,56.851,187.459,56.729,188.051,56.656 M201.685,76.01c1.549,2.012,3.447,4.283,5.486,5.883   c1.48,1.161,2.331,1.456,3.96,2.325c0.344-0.849,0.189-3.012,0.099-3.869c-0.314-3-1.872-6.168-4.472-7.97   c-1.763-1.222-0.807-0.415-1.929-1.013c-1.084-0.579-1.026-1.107-2.255-0.753c-0.434,0.125-1.826,0.905-0.837,1.432   c0.696,0.372,0.839,0.115,1.534,0.487c1.077,0.574,2.965,2.97,3.093,3.815c-1.307-0.698-2.037-2.993-5.306-3.743   c-0.68-0.156-0.605-0.155-1.128,0.142C199.707,73.786,200.967,75.08,201.685,76.01 M206.75,68.612   c1.765-0.303,6.07-1.587,7.344-3.122c-2.005-1.07-3.379-1.594-5.123-2.112c-1.978-0.588-4.874-0.855-6.764-0.523   c-0.402,0.071-0.614,0.072-1.021,0.141c-0.416,0.07-0.592,0.179-0.978,0.285c-1.548,0.419-3.265-0.659-4.074,0.947   c-0.884,1.756,3.759,0.509,6.839,2.153c-0.525,0.131-0.958-0.134-2.356-0.044c-0.992,0.063-1.304,0.279-2.085,0.836   C199.624,69.217,204.99,68.911,206.75,68.612 M89.538,104.875c-3.008,3.336-5.498,7.81-6.301,12.474   c-0.387,2.253-0.909,7.827-0.046,9.444c4.267-5.141,11.83-11.127,13.07-18.85c0.103-0.64,0.013-0.726,0.415-1.324   c0.882-1.311,1.536-4.126,0.683-5.393c-0.664,0.006-0.604-0.053-1.164,0.368c-0.951,0.715-2.223,2.262-2.805,3.34l-3.289,5.569   l0.41-1.779c0.712-1.886,3.32-5.403,3.898-7.741C93.365,101.15,90.487,103.824,89.538,104.875 M101.391,111.202   c0.019-0.006,0.017,0.056,0.018,0.059L101.391,111.202z M102.915,98.861c-0.891,1.053-1.874,2.439-2.625,3.929   c-3.319,6.593-3.255,12.249-0.257,18.174c0.336,0.664,0.658,1.465,1.062,2.066l1.451-3.215c2.258-4.498,5.023-10.219,5.803-15.16   c0.158-1.004,0.246-1.811,0.298-2.73c0.156-2.695-0.346-0.591,0.683-2.634c1.241-2.463-3.199-5.173-3.694-1.089   c-0.119,0.97-0.027,0.128-0.413,0.895c-1.315,2.61-1.879,3.932-2.648,6.676c-0.699,2.493-0.685,3.547-1.118,5.298   c-0.258-0.536-0.056-2.171,0-2.851c0.227-2.734,1.526-6.601,2.803-9.138l1.713-3.08C105.272,96.114,103.36,98.333,102.915,98.861    M45.198,95.068c0.302-0.108,0.354-0.105,0.667-0.255c0.317-0.151,0.306-0.181,0.654-0.294c0.532-0.174,0.815-0.142,1.389-0.334   c2.486-0.835,3.365-0.319,6.375-2.466c-1.852-0.989-4.993-1.334-6.545-1.197c-2.426,0.213-1.838,0.234-3.646,0.61   c-1.666,0.345-0.907,0.315-2.026,0.684c-1.78,0.587-3.538,1.782-5.122,3.077c-1.614,1.318-3.129,3.114-4.359,5.555   c0.363,0.012,1.355,0.462,1.891,0.607c0.657,0.178,1.277,0.33,1.828,0.403c3.081,0.408,6.66-0.239,9.407-1.613   c5.18-2.593,1.102-1.679,8.627-4.143c0.85-0.278,2.333-0.515,2.923-1.228c-2.622-0.687-5.971,0.015-8.49,0.439l-3.211,0.641   c-0.526,0.1-1.073,0.244-1.609,0.305C44.294,95.447,44.74,95.232,45.198,95.068 M72.457,114.071   c-1.758,3.49-2.361,6.893-2.742,7.693l0.255,0.136c0.359-0.407,2.831-1.277,3.375-1.49l3.346-1.582   c7.116-3.787,5.925-6.589,9.187-11.315c1.158-1.676,2.792-3.824,1.966-5.373c-4.203,2.998-4.002,3.157-7.46,6.898l-2.561,2.404   c0.335-0.666,0.233-0.783,0.6-1.511c1.756-3.489,4.278-4.964,5.564-7.519C79.999,102.873,74.542,109.93,72.457,114.071    M63.936,100.241c-4.009,1.489-9.057,4.745-11.186,8.973c-0.968,1.923-2.708,5.972-1.907,7.639   c0.389-0.439,5.863-3.616,7.155-4.434c1.433-0.907,3.268-2.217,4.606-3.368c1.56-1.343,3.84-4.052,4.217-4.287   c1.442-0.897,2.9-2.973,2.029-3.438c-0.472-0.252-1.846,0.672-2.556,1.036c-1.773,0.91-3.174,2.218-4.741,3.28   c-0.798,0.543-1.693,1.32-2.412,1.157c0.265-0.206,0.718-0.754,0.968-1.004c0.347-0.346,0.651-0.655,0.986-0.953   c0.664-0.59,1.345-1.204,2.014-1.757c0.915-0.757,3.201-2.723,3.905-3.571C66.541,99.406,64.512,100.027,63.936,100.241    M74.189,101.716c-4.912,1.931-10.305,6.579-12.829,11.593c-1.373,2.726-1.049,2.238-2.058,4.728   c0.655-0.075,0.752-0.247,1.341-0.486c2.109-0.859,5.773-2.138,7.468-3.069c2.133-1.172,3.951-2.141,5.441-5.154   c1.618-3.274,5.771-5.468,4.016-7.012c-1.04,0.167-3.814,2.37-4.969,3.229c-0.497,0.369-0.701,0.607-1.172,1.034   c-0.44,0.397-0.722,0.629-1.166,1.055l-2.302,2.205c1.005-1.997,4.414-5.439,6.153-6.99l2.191-1.874   C75.509,101.067,74.931,101.424,74.189,101.716 M106.888,91.711c-1.392,1.25-3.678,2.195-5.435,2.753   c-2.068,0.657-2.876,1.125-5.613,1.831l-1.993,0.441c-3.867,0.631-5.644,0.916-10.069,0.849C78.271,97.5,72.124,96.509,66.05,94.31   c-3.218-1.165-4.274-1.651-7.266-3.192c-0.563-0.289-0.818-0.281-1.186-0.492c-1.564-0.896-7.911-5.124-8.985-6.594   c-0.046,0.513,0.428,0.694,1.057,1.301c7.58,7.309,16.841,11.507,26.944,13.539l3.564,0.512c1.201,0.122,2.278,0.188,3.5,0.298   c1.138,0.101,2.328,0.049,3.429,0.069c1.616,0.027,3.406-0.046,4.994-0.385l9.324-2.918c0.547-0.216,0.947-0.414,1.497-0.67   c2.086-0.972,10.077-5.479,11.439-7.119C112.62,88.603,112.36,86.799,106.888,91.711 M55.73,96.415   c-0.754,0.094-1.476,0.3-2.179,0.531c-4.262,1.402-6.924,4.148-9.509,7.852l-1.539,2.608c0.552,0.125,2.317-0.383,2.933-0.502   c2.521-0.485,8.326-3.053,10.968-4.496c0.761-0.416,7.335-4.129,7.744-4.591c-1.85,0.015-3.71,0.406-5.485,0.861   c-2.182,0.558-8.146,3.447-8.509,3.489c1.913-3.132,8.444-2.007,8.043-5.696C57.612,96.22,56.322,96.341,55.73,96.415    M42.097,77.06c-1.55-2.012-3.449-4.283-5.488-5.882c-1.48-1.162-2.33-1.455-3.959-2.325c-0.345,0.848-0.189,3.013-0.1,3.869   c0.315,2.999,1.872,6.167,4.472,7.969c1.764,1.223,0.808,0.416,1.93,1.015c1.084,0.578,1.025,1.107,2.254,0.751   c0.434-0.123,1.827-0.904,0.837-1.432c-0.696-0.372-0.838-0.115-1.534-0.486c-1.077-0.575-2.965-2.971-3.092-3.814   c1.307,0.698,2.037,2.991,5.306,3.742c0.679,0.156,0.604,0.154,1.128-0.142C44.074,79.285,42.813,77.992,42.097,77.06    M37.031,84.46c-1.765,0.303-6.071,1.586-7.345,3.121c2.005,1.07,3.379,1.595,5.124,2.114c1.978,0.588,4.874,0.853,6.763,0.522   c0.403-0.071,0.615-0.072,1.021-0.141c0.417-0.071,0.592-0.18,0.978-0.284c1.548-0.42,3.266,0.658,4.075-0.948   c0.883-1.757-3.76-0.509-6.84-2.153c0.526-0.131,0.96,0.134,2.356,0.045c0.994-0.065,1.305-0.281,2.085-0.837   C44.158,83.854,38.791,84.159,37.031,84.46 M65.499,74.751v2.477c0,2.938,0,5.232,0.148,6.517c0.089,0.888,0.267,1.56,1.159,1.683   c0.416,0.061,1.07,0.122,1.486,0.122c0.386,0,0.505,0.092,0.505,0.245c0,0.214-0.208,0.306-0.654,0.306   c-1.872,0-3.744-0.092-4.517-0.092c-0.772,0-2.645,0.092-3.774,0.092c-0.415,0-0.624-0.061-0.624-0.306   c0-0.153,0.119-0.245,0.446-0.245c0.445,0,0.803-0.061,1.07-0.122c0.594-0.123,0.743-0.795,0.861-1.683   c0.149-1.285,0.149-3.579,0.149-6.517v-5.384c0-4.65,0-5.507-0.059-6.486c-0.06-1.04-0.298-1.529-1.278-1.744   c-0.238-0.061-0.743-0.092-1.159-0.092c-0.298,0-0.506-0.06-0.506-0.244c0-0.245,0.239-0.307,0.685-0.307   c0.772,0,1.634,0.032,2.406,0.032c0.773,0.03,1.457,0.06,1.872,0.06c1.129,0,7.162,0,7.846-0.03c0.565-0.03,0.921-0.03,1.218-0.122   c0.179-0.062,0.327-0.184,0.475-0.184c0.119,0,0.208,0.122,0.208,0.276c0,0.213-0.148,0.581-0.237,1.376   c-0.03,0.306-0.089,2.111-0.149,2.478c-0.03,0.245-0.089,0.429-0.297,0.429s-0.268-0.154-0.297-0.49c0-0.244,0-0.735-0.179-1.162   c-0.208-0.429-0.831-0.888-1.961-0.918l-4.576-0.092c-0.179,0-0.267,0.092-0.267,0.428v7.649c0,0.184,0.029,0.276,0.208,0.276   l3.803-0.032c0.505,0,0.922,0,1.338-0.03c0.564-0.03,0.98-0.153,1.278-0.551c0.148-0.183,0.208-0.306,0.385-0.306   c0.12,0,0.179,0.092,0.179,0.276c0,0.183-0.148,0.948-0.238,1.896c-0.06,0.612-0.118,2.02-0.118,2.234c0,0.275,0,0.581-0.298,0.581   c-0.178,0-0.237-0.214-0.237-0.429c0-0.214-0.06-0.581-0.179-0.948c-0.148-0.428-0.595-0.979-1.515-1.101   c-0.743-0.092-3.894-0.092-4.398-0.092C65.558,74.475,65.499,74.536,65.499,74.751 M85.141,79.523c0.119,0,0.208,0.03,0.267,0.183   l2.021,5.263c0.119,0.305-0.059,0.55-0.237,0.58c-0.267,0.031-0.327,0.122-0.327,0.276c0,0.183,0.297,0.183,0.772,0.214   c2.2,0.061,4.102,0.061,5.022,0.061c0.982,0,1.13-0.061,1.13-0.275c0-0.184-0.119-0.276-0.356-0.276   c-0.298,0-0.595-0.03-0.982-0.091c-0.475-0.092-1.218-0.429-2.228-2.785c-1.664-3.946-6.033-14.471-6.657-15.909   c-0.267-0.581-0.386-0.826-0.772-0.826c-0.268,0-0.476,0.306-0.773,1.041l-6.835,16.245c-0.535,1.316-0.981,2.111-2.169,2.295   c-0.238,0-0.535,0.03-0.773,0.03c-0.208,0-0.297,0.122-0.297,0.276c0,0.214,0.148,0.275,0.476,0.275   c1.366,0,2.763-0.092,3.03-0.092c0.833,0,2.051,0.092,2.913,0.092c0.267,0,0.416-0.061,0.416-0.275   c0-0.154-0.059-0.276-0.386-0.276h-0.387c-0.803,0-1.04-0.275-1.04-0.734c0-0.306,0.119-0.949,0.387-1.591l1.396-3.518   c0.06-0.153,0.09-0.183,0.238-0.183H85.141z M79.525,78.086c-0.09,0-0.149-0.062-0.09-0.184l2.526-6.487   c0.03-0.091,0.06-0.244,0.149-0.244c0.06,0,0.089,0.153,0.119,0.244l2.467,6.517c0.029,0.092,0,0.154-0.119,0.154H79.525z    M95.631,83.5l2.586-16.857c0.059-0.428,0.296-0.673,0.504-0.673c0.269,0,0.446,0.123,0.803,0.826l7.014,14.38l7.012-14.564   c0.208-0.428,0.447-0.642,0.684-0.642c0.208,0,0.506,0.275,0.594,0.826l2.378,16c0.238,1.622,0.475,2.326,1.278,2.571   c0.743,0.214,1.159,0.244,1.486,0.244c0.237,0,0.416,0.092,0.416,0.245c0,0.215-0.297,0.307-0.684,0.307   c-0.654,0-4.368-0.092-5.409-0.154c-0.623-0.03-0.772-0.153-0.772-0.306c0-0.122,0.119-0.214,0.297-0.275   c0.148-0.061,0.208-0.368,0.119-1.102l-1.457-11.227h-0.088l-5.617,11.502c-0.594,1.225-0.743,1.47-1.04,1.47   c-0.327,0-0.624-0.521-1.04-1.316c-0.625-1.193-2.704-5.171-3.002-5.905c-0.208-0.489-1.752-3.641-2.614-5.446H98.99l-1.249,10.035   c-0.059,0.46-0.089,0.795-0.089,1.224c0,0.489,0.357,0.673,0.803,0.765c0.445,0.092,0.683,0.122,0.92,0.122   c0.239,0,0.416,0.122,0.416,0.245c0,0.245-0.237,0.306-0.624,0.306c-1.099,0-2.288-0.092-2.763-0.092   c-0.505,0-1.753,0.092-2.586,0.092c-0.267,0-0.475-0.061-0.475-0.306c0-0.123,0.148-0.245,0.416-0.245c0.208,0,0.386,0,0.802-0.061   C95.275,85.396,95.512,84.356,95.631,83.5 M132.362,86.438c-7.608,0-10.698-5.569-10.698-10.188   c0-4.436,3.031-10.189,10.965-10.189c6.597,0,10.698,3.764,10.698,9.729C143.327,81.757,139.107,86.438,132.362,86.438    M133.432,85.03c1.842,0,6.002-0.887,6.002-8.291c0-5.752-3.357-9.3-7.578-9.3c-2.912,0-6.329,1.59-6.329,8.015   C125.527,80.809,128.499,85.03,133.432,85.03 M147.963,77.779v-3.824c0-3.946,0.03-4.681-0.029-5.507   c-0.06-0.918-0.298-1.162-1.13-1.407c-0.208-0.061-0.654-0.092-1.01-0.092c-0.298,0-0.446-0.092-0.446-0.275   c0-0.184,0.178-0.245,0.565-0.245c1.396,0,3.15,0.061,3.922,0.061c0.654,0,2.407-0.061,3.358-0.061   c0.387,0,0.565,0.061,0.565,0.245c0,0.183-0.149,0.275-0.416,0.275c-0.297,0-0.445,0.031-0.773,0.092   c-0.683,0.123-0.892,0.489-0.95,1.407c-0.06,0.826-0.06,1.561-0.06,5.507v3.641c0,3.793,0.713,5.262,1.991,6.303   c1.159,0.948,2.407,1.039,3.299,1.039c1.129,0,2.466-0.337,3.507-1.376c1.455-1.407,1.515-3.672,1.515-6.334v-3.273   c0-3.946-0.031-4.681-0.06-5.507c-0.059-0.887-0.267-1.162-1.099-1.407c-0.208-0.061-0.654-0.092-0.951-0.092   c-0.298,0-0.446-0.092-0.446-0.275c0-0.184,0.178-0.245,0.535-0.245c1.337,0,3.091,0.061,3.12,0.061   c0.298,0,2.05-0.061,3.061-0.061c0.356,0,0.535,0.061,0.535,0.245c0,0.183-0.149,0.275-0.445,0.275   c-0.298,0-0.447,0.031-0.774,0.092c-0.712,0.123-0.891,0.489-0.951,1.407c-0.029,0.826-0.059,1.561-0.059,5.507v2.784   c0,2.907-0.297,5.966-2.497,7.832c-1.842,1.592-3.832,1.867-5.526,1.867c-1.367,0-4.072-0.062-5.973-1.775   C149.003,83.469,147.963,81.543,147.963,77.779 M170.637,85.733c-0.475-0.214-0.564-0.367-0.564-1.04   c0-1.683,0.119-3.518,0.148-4.008c0.029-0.459,0.119-0.796,0.356-0.796c0.268,0,0.298,0.276,0.298,0.52   c0,0.399,0.119,1.041,0.268,1.561c0.653,2.263,2.406,3.089,4.249,3.089c2.675,0,3.982-1.865,3.982-3.487   c0-1.499-0.446-2.906-2.912-4.895l-1.367-1.102c-3.269-2.631-4.398-4.772-4.398-7.251c0-3.365,2.733-5.781,6.864-5.781   c1.932,0,3.18,0.305,3.953,0.519c0.267,0.062,0.415,0.153,0.415,0.367c0,0.399-0.118,1.286-0.118,3.672   c0,0.673-0.089,0.918-0.327,0.918c-0.208,0-0.297-0.184-0.297-0.551c0-0.275-0.148-1.224-0.773-2.019   c-0.445-0.582-1.308-1.499-3.239-1.499c-2.199,0-3.537,1.316-3.537,3.151c0,1.407,0.685,2.478,3.151,4.405l0.832,0.643   c3.595,2.784,4.873,4.895,4.873,7.801c0,1.775-0.654,3.886-2.793,5.324c-1.486,0.978-3.151,1.255-4.725,1.255   C173.253,86.53,171.915,86.314,170.637,85.733"/>
</g>
</svg>