<?xml version="1.0" encoding="UTF-8"?>
<!-- Generator: Adobe Illustrator 17.0.0, SVG Export Plug-In . SVG Version: 6.00 Build 0)  -->
<!DOCTYPE svg PUBLIC "-//W3C//DTD SVG 1.1//EN" "http://www.w3.org/Graphics/SVG/1.1/DTD/svg11.dtd">
<svg version="1.1" id="Layer_1" xmlns="http://www.w3.org/2000/svg" xmlns:xlink="http://www.w3.org/1999/xlink" x="0px" y="0px" width="1080px" height="1080px" viewBox="0 0 1080 1080" enable-background="new 0 0 1080 1080" xml:space="preserve"><script xmlns="" type="text/javascript" charset="utf-8" id="zm-extension"/>
<g>
	<g>
		<path fill="#EF4B42" d="M288.261,654.054c-4.145-0.767-8.291-1.529-12.435-2.303c-1.121-0.209-2.237-0.451-3.923-0.793    c2.21-4.851,4.284-9.39,6.345-13.933c7.963-17.547,16.038-35.045,23.831-52.668c3.719-8.409,6.101-17.25,6.134-26.555    c0.039-11.093-5.299-18.905-15.639-22.968c-2.872-1.128-5.793-2.131-8.505-3.124c-0.624-2.255,0.215-3.399,2.016-3.767    c1.129-0.231,2.327-0.169,3.494-0.169c48.518-0.006,97.037-0.005,145.556,0.006c0.963,0,1.926,0.125,3.54,0.237    c0.481,2.113,1.282,4.288,1.433,6.506c1.428,21.062-3.479,40.558-14.813,58.387c-15.426,24.265-37.397,40.288-63.868,50.66    c-12.582,4.93-25.584,8.024-39.009,9.442c-0.885,0.093-1.717,0.683-2.573,1.042C309.316,654.054,298.789,654.054,288.261,654.054z    "/>
		<path fill="#1C4685" d="M227.094,634.861c-13.438-7.457-24.696-16.019-34.135-26.811c-13.638-15.593-22.604-33.468-25.607-54.128    c-2.418-16.635,0.356-32.57,6.637-47.984c10.052-24.668,27.914-42.332,50.449-55.685c18.887-11.191,39.409-17.394,61.175-19.807    c32.032-3.551,62.528,1.649,91.116,16.52c23.742,12.351,42.746,29.749,54.462,54.3c0.814,1.706,1.47,3.486,2.577,6.134    c-2.967,0.099-5.2,0.238-7.434,0.238c-43.838-0.001-87.675-0.024-131.513-0.018c-2.501,0-5.001,0.204-7.997,0.335    C266.988,550.102,247.202,592.138,227.094,634.861z"/>
	</g>
	<g>
		<path fill="#1C4685" d="M915.254,498.335c-1.178,2.831-2.357,5.662-3.804,9.139c-1.978,0-4.071,0.001-6.165,0    c-12.67-0.01-25.341-0.144-38.009,0.003c-14.108,0.164-24.863,10.93-25.485,25.9c20.346,0.559,40.71-0.061,61.851,0.365    c-1.281,3.665-2.343,6.704-3.641,10.416c-20.023,0.129-39.99-0.036-60.126,0.094c-1.249,8.051-0.585,15.089,3.06,21.586    c3.659,6.523,9.601,9.501,16.942,9.577c10.525,0.108,21.051,0.016,31.577,0.041c1.906,0.005,3.811,0.165,6.561,0.292    c-0.913,3.949-1.711,7.403-2.622,11.345c-2.379,0-4.288,0-6.198,0c-15.399,0-30.798,0.02-46.197-0.006    c-16.283-0.027-27.943-9.092-31.324-25.105c-3.015-14.279-1.596-28.331,4.666-41.619c6.977-14.804,19.241-22.226,35.208-23.19    c11.073-0.668,22.212-0.306,33.322-0.291c10.128,0.014,20.257,0.182,30.385,0.282    C915.254,497.555,915.254,497.945,915.254,498.335z"/>
		<path fill="#1C4685" d="M697.481,586.854c-8.678,0-16.632,0.448-24.508-0.145c-6.058-0.456-11.174-3.722-14.189-9.203    c-7.698-13.99-15.181-28.097-22.724-42.171c-0.153-0.286,0.012-0.742,0.06-1.824c1.844,0,3.724,0.009,5.604-0.002    c5.652-0.034,11.319,0.161,16.954-0.17c8.098-0.476,13.913-4.461,17.035-12.13c2.735-6.718-1.55-13.875-9.288-13.537    c-9.908,0.432-19.85,0.105-30.499,0.105c-4.199,12.975-7.211,26.197-10.857,39.228c-3.665,13.102-7.179,26.247-10.899,39.886    c-9.66,0.49-19.07,0.261-29.463,0.049c8.082-30.675,16.092-60.443,24.36-90.397c2.64-0.12,4.748-0.299,6.857-0.299    c14.62,0.004,29.24-0.027,43.859,0.102c8.178,0.072,16.353,0.418,24.529,0.672c1.36,0.042,2.74,0.122,4.068,0.392    c13.296,2.701,18.983,11.766,15.565,24.999c-3.027,11.718-10.961,18.467-22.371,21.518c-1.84,0.492-3.73,0.799-6.222,1.323    C682.799,559.251,689.978,572.747,697.481,586.854z"/>
		<path fill="#1C4685" d="M593.072,496.866c-1.546,4.693-2.679,8.135-3.952,12c-2.42,0-4.531,0-6.642,0    c-15.396,0-30.793,0.094-46.188-0.028c-11.956-0.095-20.427,5.465-26.07,15.647c-5.073,9.151-7.771,19.121-8.793,29.456    c-0.353,3.575,0.166,7.461,1.247,10.903c1.753,5.583,5.661,9.386,11.868,9.688c7.969,0.388,15.951,0.565,23.929,0.667    c4.364,0.056,7.273-1.914,8.532-6.412c2.092-7.472,4.509-14.853,7.026-23.047c-7.836-1.092-15.357,0.088-23.196-0.813    c1.234-3.882,2.335-7.347,3.537-11.127c16.804,0,33.447,0,50.594,0c-2.011,8.231-3.915,16.139-5.882,24.032    c-1.035,4.153-1.906,8.377-3.335,12.397c-3.329,9.365-9.384,15.615-19.953,16.134c-4.468,0.219-8.941,0.581-13.408,0.542    c-14.021-0.123-28.04-0.394-42.06-0.629c-13.568-0.227-27.401-9.989-28.666-26.173c-1.707-21.838,6.127-39.68,22.516-53.738    c6.978-5.985,15.745-8.571,24.835-9.176c7.742-0.515,15.537-0.294,23.309-0.313c14.421-0.036,28.843-0.01,43.265-0.01    C587.677,496.866,589.772,496.866,593.072,496.866z"/>
		<path fill="#1C4685" d="M813.474,497.508c-1.001,3.154-1.924,6.061-3.014,9.494c-2.108,0.16-4.175,0.446-6.243,0.451    c-12.863,0.032-25.728-0.107-38.59,0.021c-13.835,0.138-24.921,11.276-25.422,26.035c20.353,0.132,40.705-0.022,62.021,0.092    c-1.416,3.833-2.526,6.836-3.86,10.446c-19.998,0.43-39.973-0.1-60.389,0.3c-0.918,8.714-0.005,16.505,4.629,23.383    c3.621,5.375,9.224,7.638,15.621,7.688c10.524,0.082,21.049,0.026,31.574,0.027c1.937,0,3.873,0,6.673,0    c-0.825,3.882-1.558,7.331-2.397,11.277c-2.35,0.135-4.419,0.352-6.489,0.356c-15.202,0.029-30.405,0.027-45.607,0.013    c-17.496-0.016-29.389-9.642-32.206-26.829c-2.109-12.868-1.152-25.631,4.011-37.817c6.566-15.496,18.612-24.284,35.066-25.085    c20.613-1.004,41.305-0.383,61.964-0.434C811.546,496.924,812.278,497.236,813.474,497.508z"/>
	</g>
</g>
</svg>