<?xml version="1.0" encoding="UTF-8"?>
<!-- Generator: Adobe Illustrator 17.0.0, SVG Export Plug-In . SVG Version: 6.00 Build 0)  -->
<!DOCTYPE svg PUBLIC "-//W3C//DTD SVG 1.1//EN" "http://www.w3.org/Graphics/SVG/1.1/DTD/svg11.dtd">
<svg version="1.1" id="Слой_1" xmlns="http://www.w3.org/2000/svg" xmlns:xlink="http://www.w3.org/1999/xlink" x="0px" y="0px" width="640px" height="163px" viewBox="0 0 640 163" enable-background="new 0 0 640 163" xml:space="preserve"><script xmlns="" type="text/javascript" charset="utf-8" id="zm-extension"/>
<g>
	<polygon fill="#012525" points="116.157,77.437 116.157,63.508 80.174,63.508 80.174,99.492 116.157,99.492 116.157,85.563    111.514,85.563 111.514,94.848 100.487,94.848 100.487,85.563 95.844,85.563 95.844,94.848 84.817,94.848 84.817,68.151    95.844,68.151 95.844,77.437 100.487,77.437 100.487,68.151 111.514,68.151 111.514,77.437  "/>
	<polygon fill="#05554F" points="155.622,85.563 147.497,85.563 142.854,85.563 142.854,126.189 100.487,126.189 100.487,115.742    95.844,115.742 95.844,126.189 53.477,126.189 53.477,83.822 59.28,83.822 59.28,120.384 87.718,120.384 87.718,115.742    63.923,115.742 63.923,47.258 87.718,47.258 87.718,42.615 59.28,42.615 59.28,79.178 53.477,79.178 53.477,36.812 95.844,36.812    95.844,47.258 100.487,47.258 100.487,36.812 142.854,36.812 142.854,77.438 147.497,77.438 147.497,32.169 48.834,32.169    48.834,130.831 95.844,130.831 100.487,130.831 147.497,130.831 147.497,90.205 155.622,90.205  "/>
	<polygon fill="#05554F" points="132.407,115.742 108.612,115.742 108.612,120.385 137.05,120.385 137.05,86.723 137.05,42.615    108.612,42.615 108.612,47.258 132.407,47.258 132.407,79.179 126.603,79.179 126.603,53.062 69.727,53.062 69.727,77.437    74.37,77.437 74.37,57.705 121.96,57.705 121.96,86.723 121.96,105.295 74.37,105.295 74.37,85.563 69.727,85.563 69.727,109.938    126.603,109.938 126.603,86.723 126.603,83.822 132.407,83.822 132.407,86.723  "/>
	<polygon fill="#012525" points="216.456,58.371 234.218,58.371 234.218,104.629 216.456,104.629 216.456,87.994 204.593,87.994    204.593,104.629 186.832,104.629 186.832,58.371 204.593,58.371 204.593,74.343 216.456,74.343  "/>
	<rect x="254.165" y="58.371" fill="#012525" width="17.762" height="46.258"/>
	<polygon fill="#012525" points="291.875,58.371 309.637,58.371 309.637,90.977 331.44,90.977 331.44,104.629 291.875,104.629  "/>
	<path fill="#012525" d="M392.809,102.907c-6.098,1.789-11.862,2.519-19.152,2.519c-15.375,0-27.702-8.086-27.702-24.588   c0-15.508,12.857-23.262,27.702-23.262c8.682,0,12.856,0.663,17.297,1.723v12.46c-2.518-1.459-7.223-2.651-12.194-2.651   c-8.813,0-14.645,4.44-14.645,12.856c0,6.363,2.584,11.93,9.676,11.93c1.258,0,2.717,0,3.777-0.397V81.169h15.242V102.907z"/>
	<path fill="#012525" d="M412.228,58.371h28.695c11.068,0,17.895,3.446,17.895,12.326c0,7.091-4.44,10.67-11.068,12.261v0.132   c3.844,0.663,6.164,2.518,7.821,4.971c2.717,4.904,2.518,12.062,4.374,16.568h-18.491c-0.794-3.313-0.994-10.537-2.451-13.321   c-1.061-2.12-2.85-2.386-5.037-2.386h-3.976v15.707h-17.762V58.371z M429.193,78.584h4.639c3.646,0,7.224-0.398,7.224-5.103   c0-4.176-3.38-4.772-6.959-4.772h-4.903V78.584z"/>
	<path fill="#012525" d="M495.336,85.807c0,4.375,1.258,7.689,5.5,7.689c4.64,0,5.633-3.115,5.633-7.621V58.371h17.363v27.171   c0,14.978-9.212,19.883-23.194,19.883c-12.925,0-23.064-5.302-23.064-18.955V58.371h17.762V85.807z"/>
	<path fill="#012525" d="M543.648,58.37h30.552c7.225,0,16.967,3.446,16.967,15.906c0,12.062-7.754,17.032-17.033,17.032h-12.725   v13.321h-17.761V58.37z M560.944,80.573h3.91c4.241,0,8.55-0.796,8.55-5.965c0-4.904-4.309-5.5-8.615-5.5h-3.845V80.573z"/>
</g>
</svg>