<svg xmlns="http://www.w3.org/2000/svg" xmlns:xlink="http://www.w3.org/1999/xlink" preserveAspectRatio="xMidYMid" width="18.656" height="20" viewBox="0 0 18.656 20"><script xmlns="" type="text/javascript" charset="utf-8" id="zm-extension"/>
  <defs>
    <style>
      .cls-1 {
        fill: #1d1d1e;
        fill-rule: evenodd;
      }
    </style>
  </defs>
  <path d="M16.181,11.389 C15.437,11.389 14.524,11.480 13.463,11.660 C11.982,10.190 10.436,8.042 9.346,5.933 C10.427,1.670 9.886,1.067 9.647,0.782 C9.393,0.479 9.035,-0.013 8.627,-0.013 C8.456,-0.013 7.990,0.060 7.805,0.118 C7.338,0.263 7.088,0.599 6.887,1.038 C6.315,2.290 7.100,4.424 7.907,6.069 C7.217,8.639 6.059,11.714 4.842,14.210 C1.775,15.525 0.146,16.816 -0.002,18.049 C-0.055,18.497 0.058,19.155 0.901,19.746 C1.131,19.908 1.402,19.993 1.683,19.993 L1.683,19.993 C2.391,19.993 3.107,19.486 3.935,18.398 C4.538,17.604 5.187,16.522 5.863,15.178 C8.030,14.291 10.712,13.490 13.007,13.041 C14.286,14.190 15.431,14.772 16.415,14.772 C17.140,14.772 17.762,14.460 18.212,13.870 C18.680,13.255 18.787,12.705 18.527,12.233 C18.216,11.666 17.448,11.389 16.181,11.389 ZM1.701,18.715 C1.322,18.443 1.344,18.260 1.352,18.191 C1.402,17.770 2.107,17.022 3.837,16.113 C2.526,18.379 1.822,18.679 1.701,18.715 ZM8.337,1.355 C8.372,1.345 9.183,2.189 8.415,3.791 C7.261,2.686 8.258,1.380 8.337,1.355 ZM6.664,13.492 C7.486,11.660 8.250,9.637 8.828,7.764 C9.737,9.292 10.829,10.775 11.921,11.962 C10.194,12.342 8.356,12.877 6.664,13.492 ZM17.105,13.130 C16.855,13.456 16.315,13.463 16.125,13.463 C15.694,13.463 15.533,13.223 14.874,12.749 C15.417,12.684 15.931,12.667 16.339,12.667 C17.059,12.667 17.191,12.766 17.290,12.816 C17.272,12.870 17.225,12.971 17.105,13.130 Z" class="cls-1"/>
</svg>