<svg xmlns="http://www.w3.org/2000/svg" xmlns:xlink="http://www.w3.org/1999/xlink" preserveAspectRatio="xMidYMid" width="20" height="20" viewBox="0 0 20 20"><script xmlns="" type="text/javascript" charset="utf-8" id="zm-extension"/>
  <defs>
    <style>
      .cls-1 {
        fill: #1d1d1e;
        fill-rule: evenodd;
      }
    </style>
  </defs>
  <path d="M15.983,17.999 L19.000,17.999 L19.000,18.999 L15.000,18.999 L14.339,18.999 C14.229,19.052 14.112,19.092 14.000,19.141 L14.000,14.000 L14.000,14.000 L14.000,13.999 L15.000,13.999 L15.000,17.463 C17.407,15.849 19.000,13.116 19.000,10.000 C19.000,5.029 14.971,1.000 10.000,1.000 C10.000,1.000 10.000,1.000 10.000,1.000 L10.000,-0.000 C10.000,-0.000 10.000,-0.000 10.000,-0.000 C15.523,-0.000 20.000,4.477 20.000,10.000 C20.000,13.276 18.417,16.175 15.983,17.999 ZM5.000,2.537 C2.593,4.151 1.000,6.884 1.000,10.000 C1.000,14.971 5.029,19.000 10.000,19.000 L10.000,20.000 C4.477,20.000 -0.000,15.523 -0.000,10.000 C-0.000,6.723 1.583,3.823 4.019,1.999 L1.000,1.999 L1.000,0.999 L5.000,0.999 L5.665,0.999 C5.774,0.947 5.889,0.908 6.000,0.859 L6.000,1.947 L6.000,1.999 L6.000,5.999 L5.000,5.999 L5.000,2.537 Z" class="cls-1"/>
</svg>