<svg xmlns="http://www.w3.org/2000/svg" xmlns:xlink="http://www.w3.org/1999/xlink" preserveAspectRatio="xMidYMid" width="13.969" height="14" viewBox="0 0 13.969 14"><script xmlns="" type="text/javascript" charset="utf-8" id="zm-extension"/>
  <defs>
    <style>
      .cls-1 {
        fill: #111;
        fill-rule: evenodd;
      }
    </style>
  </defs>
  <path d="M13.075,0.904 C11.872,-0.304 9.916,-0.304 8.713,0.904 L0.715,8.912 C0.652,8.974 0.614,9.055 0.602,9.141 L0.009,13.538 C-0.009,13.663 0.036,13.788 0.122,13.875 C0.197,13.949 0.301,13.994 0.405,13.994 C0.423,13.994 0.441,13.994 0.459,13.991 L3.103,13.633 C3.323,13.603 3.478,13.400 3.448,13.180 C3.418,12.959 3.216,12.804 2.996,12.834 L0.876,13.120 L1.290,10.054 L4.511,13.281 C4.586,13.356 4.690,13.400 4.794,13.400 C4.898,13.400 5.003,13.359 5.077,13.281 L13.075,5.273 C13.658,4.689 13.980,3.913 13.980,3.087 C13.980,2.261 13.658,1.486 13.075,0.904 ZM8.867,1.888 L10.210,3.233 L2.912,10.543 L1.569,9.198 L8.867,1.888 ZM4.797,12.428 L3.484,11.113 L10.782,3.803 L12.095,5.118 L4.797,12.428 ZM12.655,4.543 L9.442,1.325 C9.850,0.988 10.359,0.803 10.895,0.803 C11.505,0.803 12.077,1.041 12.509,1.471 C12.941,1.900 13.176,2.476 13.176,3.087 C13.176,3.627 12.991,4.134 12.655,4.543 Z" class="cls-1"/>
</svg>