<?xml version="1.0" encoding="UTF-8"?>
<!-- Generator: Adobe Illustrator 17.0.0, SVG Export Plug-In . SVG Version: 6.00 Build 0)  -->
<!DOCTYPE svg PUBLIC "-//W3C//DTD SVG 1.1//EN" "http://www.w3.org/Graphics/SVG/1.1/DTD/svg11.dtd">
<svg version="1.1" id="Layer_1" xmlns="http://www.w3.org/2000/svg" xmlns:xlink="http://www.w3.org/1999/xlink" x="0px" y="0px" width="1000px" height="1000px" viewBox="0 0 1000 1000" enable-background="new 0 0 1000 1000" xml:space="preserve"><script xmlns="" type="text/javascript" charset="utf-8" id="zm-extension"/>
<g>
	<g>
		<path fill="#00AFEB" d="M886.356,443.98l-8.346,32.521h-71.123l-4.173,16.436h48.583c15.136,0,22.704,5.712,22.704,17.135    c0,2.799-1.834,11.366-5.507,25.702c-3.339,12.826-7.903,21.711-13.689,26.668c-5.791,4.951-14.972,7.432-27.547,7.432h-80.968    l8.681-34.099h76.795l4.173-16.26h-48.583c-9.68,0-16.192-1.516-19.531-4.548c-2.447-2.214-3.673-5.712-3.673-10.487    c0-2.918,2.004-12.241,6.012-27.979c3.112-12.122,7.676-20.576,13.689-25.35c6.007-4.78,15.08-7.171,27.213-7.171H886.356z     M720.077,475.104h-41.401l-4.843,19.23h41.401L720.077,475.104z M765.322,443.98l-32.22,125.894h-37.228l12.854-50.36h-41.406    l-12.854,50.36H617.24l24.209-94.77c3.117-12.241,8.511-20.695,16.192-25.356c6.455-3.844,16.136-5.769,29.046-5.769H765.322z     M631.428,443.98l-8.346,32.521h-72.957l-15.187,59.274h41.401l10.685-41.44h37.228l-10.685,41.44    c-3.56,13.638-8.738,22.847-15.523,27.627c-6.234,4.315-16.363,6.472-30.386,6.472h-41.401c-9.237,0-15.971-0.817-20.201-2.453    c-7.239-2.68-10.855-7.863-10.855-15.562c0-4.196,0.835-9.555,2.504-16.085l15.193-59.274    c3.338-13.053,8.624-21.915,15.863-26.577c6.228-3.963,16.136-5.945,29.716-5.945H631.428z M507.555,443.98l-32.22,125.894h-42.4    l-21.206-64.52l-16.527,64.52h-35.893l32.22-125.894h42.406l21.2,64.52l16.527-64.52H507.555z M377.005,443.98l-32.22,125.894    h-37.727l32.22-125.894H377.005z"/>
	</g>
	<polygon fill="#00AFEB" points="128.58,425.626 172.621,425.626 122.976,608.835 122.772,609.653 122.624,610.396 122.516,611.118    122.448,611.81 122.414,612.486 122.414,613.133 122.448,613.758 122.511,614.359 122.602,614.933 122.721,615.484    122.869,616.006 123.033,616.506 123.226,616.977 123.442,617.425 123.675,617.851 123.93,618.254 124.203,618.629    124.492,618.987 124.805,619.322 125.134,619.634 125.486,619.923 125.861,620.19 126.258,620.446 126.672,620.673    127.115,620.883 127.581,621.065 128.075,621.229 128.603,621.366 129.154,621.479 129.738,621.559 130.357,621.61    131.078,621.627 182.403,621.627 182.466,621.411 193.355,621.411 231.287,573.458 215.26,573.458 214.493,573.492    213.556,573.509 212.636,573.492 211.734,573.447 210.842,573.373 209.968,573.265 209.105,573.118 208.248,572.93    207.402,572.698 206.573,572.419 205.75,572.084 204.949,571.687 204.166,571.227 203.41,570.705 202.689,570.109 202.019,569.444    201.406,568.712 200.861,567.928 200.39,567.094 199.998,566.225 199.686,565.334 199.453,564.431 199.294,563.517    199.209,562.603 199.181,561.694 199.209,560.786 199.294,559.878 199.425,558.969 199.601,558.061 199.817,557.141    200.078,556.221 200.31,555.495 242.898,398.351 243.187,397.176 243.409,396.08 243.574,395.007 243.681,393.962 243.744,392.946    243.749,391.958 243.715,390.998 243.63,390.067 243.5,389.176 243.329,388.307 243.119,387.473 242.869,386.678 242.58,385.911    242.256,385.173 241.899,384.475 241.507,383.805 241.081,383.175 240.627,382.573 240.139,382.005 239.616,381.472    239.066,380.972 238.481,380.501 237.868,380.063 237.22,379.66 236.539,379.291 235.818,378.962 235.068,378.667 234.279,378.406    233.45,378.19 232.587,378.014 231.685,377.883 229.368,377.679 166.512,377.679  "/>
	<polygon fill="#00AFEB" points="223.649,360.424 224.676,360.396 225.715,360.305 226.766,360.163 227.827,359.959    228.895,359.697 229.968,359.379 231.046,359.005 232.119,358.573 233.193,358.091 234.266,357.551 235.327,356.961    236.378,356.314 237.417,355.621 238.439,354.883 239.449,354.094 240.432,353.265 241.391,352.39 242.333,351.471    243.242,350.517 244.116,349.523 244.962,348.496 245.774,347.434 246.546,346.344 247.284,345.22 247.977,344.073    248.624,342.903 249.232,341.705 249.788,340.496 250.299,339.258 250.759,338.009 251.168,336.749 251.52,335.471 251.815,334.2    252.053,332.956 252.224,331.741 252.337,330.56 252.4,329.408 252.4,328.284 252.354,327.199 252.258,326.149 252.11,325.133    251.917,324.156 251.679,323.219 251.395,322.328 251.077,321.47 250.719,320.658 250.322,319.881 249.89,319.154 249.43,318.467    248.931,317.82 248.403,317.212 247.846,316.644 247.256,316.122 246.631,315.634 245.978,315.191 245.291,314.788    244.571,314.425 243.815,314.107 243.02,313.829 242.186,313.596 241.317,313.414 240.403,313.272 239.444,313.192    238.444,313.164 237.417,313.192 236.378,313.278 235.322,313.425 234.266,313.63 233.198,313.891 232.125,314.209    231.046,314.584 229.973,315.009 228.9,315.498 227.827,316.037 226.766,316.627 225.715,317.269 224.676,317.962 223.654,318.705    222.649,319.489 221.662,320.324 220.702,321.198 219.765,322.118 218.857,323.072 217.977,324.065 217.131,325.093    216.319,326.154 215.547,327.244 214.814,328.363 214.116,329.516 213.469,330.685 212.861,331.877 212.305,333.092    211.794,334.33 211.334,335.579 210.925,336.84 210.573,338.117 210.278,339.389 210.045,340.632 209.869,341.847 209.756,343.028    209.693,344.186 209.693,345.305 209.739,346.389 209.841,347.44 209.983,348.456 210.181,349.432 210.414,350.364    210.698,351.261 211.016,352.118 211.374,352.93 211.771,353.702 212.203,354.434 212.662,355.121 213.162,355.769 213.69,356.376    214.247,356.944 214.837,357.466 215.462,357.949 216.114,358.392 216.801,358.795 217.523,359.158 218.278,359.482    219.072,359.754 219.907,359.987 220.776,360.174 221.69,360.311 222.649,360.396  "/>
	<polygon fill="#00AFEB" points="302.004,511.999 319.99,443.817 236.127,443.817 217.646,511.999  "/>
	<g>
		<path fill="#00AFEB" d="M216.196,517.355l-10.748,39.664c-2.776,8.164,0.903,11.577,9.697,11.088h27.207l-46.403,58.661h-9.402    l-0.062,0.216h-55.481c-10.174,0-16.119-8.766-13.212-19.491l43.751-161.458l-1.351,0.857l-3.003,1.925l-2.947,1.913l-2.901,1.908    l-2.844,1.908l-2.793,1.908l-2.742,1.919l-2.691,1.936l-2.64,1.947l-2.589,1.976l-2.538,2.004l-2.492,2.033l-2.436,2.078    l-2.39,2.118l-2.345,2.163l-2.294,2.22l-2.243,2.277l-2.203,2.345l-2.152,2.413l-2.112,2.487l-2.067,2.572l-2.021,2.657    l-1.976,2.748l-1.936,2.845l-1.896,2.947l-1.851,3.06l-1.805,3.174l-1.771,3.299l-1.726,3.424l-1.686,3.554l-1.544,3.469    l-1.096,3.503l-1.181,3.73l-1.164,3.651l-1.153,3.577l-1.13,3.509l-1.118,3.441l-1.096,3.378l-1.079,3.327l-1.056,3.27    l-1.033,3.225l-1.01,3.18l-0.994,3.145l-0.959,3.111l-0.943,3.083l-0.914,3.06l-0.886,3.038l-0.857,3.02l-0.829,3.015l-0.8,3.009    l-0.772,3.009l-0.738,3.009l-0.71,3.021l-0.676,3.038l-0.642,3.055l-0.607,3.077l-0.568,3.111l-0.539,3.14l-0.5,3.185l-0.46,3.225    l-0.426,3.276l-0.386,3.327l-0.346,3.401l-0.329,3.594l-0.199,3.446l-0.08,3.35l0.045,3.253l0.165,3.157l0.278,3.06l0.397,2.964    l0.5,2.862l0.613,2.759l0.715,2.657l0.818,2.561l0.92,2.453l1.016,2.351l1.107,2.243l1.204,2.146l1.289,2.044l1.38,1.936    l1.471,1.84l1.55,1.732l1.641,1.635l1.72,1.533l1.811,1.436l1.891,1.334l1.976,1.226l2.061,1.13l2.146,1.028l2.226,0.92    l2.316,0.812l2.402,0.704l2.481,0.596l2.566,0.483l2.413,0.335h83.352l3.429-0.954l3.98-1.232l3.901-1.334l3.815-1.448l3.73-1.55    l3.656-1.658l3.577-1.766l3.497-1.868l3.418-1.976l3.338-2.084l3.259-2.186l3.191-2.299l3.106-2.402l3.037-2.515l2.958-2.617    l2.878-2.731l2.81-2.839l2.731-2.947l2.657-3.06l2.589-3.168l2.51-3.282l2.436-3.395l2.362-3.503l2.288-3.617l2.209-3.73    l2.14-3.844l2.061-3.963l1.987-4.071l1.913-4.184l1.84-4.304l1.76-4.411l1.618-4.343l21.16-80.201H216.196z"/>
		<path fill="#00AFEB" d="M935.718,544.608l-3.179,25.18h-7.767l1.539-11.264c0.119-0.812,0.29-1.641,0.528-2.481h-0.074    l-6.955,13.745h-6.575l0.38-13.745h-0.068c-0.165,0.653-0.443,1.482-0.84,2.481l-4.44,11.264h-7.761l10.316-25.18h9.334    l-0.142,10.072c-0.023,1.306-0.17,2.492-0.454,3.565h0.074c0.255-0.931,0.749-2.118,1.493-3.571l5.252-10.066H935.718z     M904.98,544.608l-1.749,6.507h-7.693l-5.002,18.674h-7.903l5.002-18.674h-7.693l1.749-6.507H904.98z"/>
	</g>
</g>
</svg>