<?xml version="1.0" encoding="UTF-8" standalone="no"?>
<svg width="279px" height="620px" viewBox="0 0 279 620" version="1.1" xmlns="http://www.w3.org/2000/svg" xmlns:xlink="http://www.w3.org/1999/xlink"><script xmlns="" type="text/javascript" charset="utf-8" id="zm-extension"/>
    <!-- Generator: Sketch 43.1 (39012) - http://www.bohemiancoding.com/sketch -->
    <title>cocaine white</title>
    <desc>Created with Sketch.</desc>
    <defs/>
    <g id="Page-1" stroke="none" stroke-width="1" fill="none" fill-rule="evenodd" opacity="0.400000006">
        <g id="Home-Copy-2" transform="translate(-50.000000, -93.000000)" fill="#FFFFFF">
            <g id="hero" transform="translate(9.000000, 15.000000)">
                <g id="Group-8" transform="translate(0.000000, 78.000000)">
                    <g id="cocaine" transform="translate(41.000000, 0.000000)">
                        <g id="Group-11">
                            <g id="cocaine-white" transform="translate(546.500000, 260.500000) scale(-1, 1) rotate(296.000000) translate(-546.500000, -260.500000) translate(-70.000000, -361.000000)">
                                <path d="M834.805467,1085.23338 L835.279162,1085.72219 C838.313771,1088.8772 838.195347,1093.88376 835.042315,1096.92027 C831.889282,1099.94198 826.856272,1099.83829 823.821663,1096.66847 C820.653827,1093.63195 820.550206,1088.61058 823.599618,1085.45557 C824.650629,1084.34464 825.968093,1083.61884 827.34477,1083.26335 C829.905684,1082.61161 832.747854,1083.26335 834.805467,1085.23338" id="Fill-9"/>
                                <path d="M932.741979,1072.13196 L933.083756,1072.72222 C935.253297,1076.51466 933.886189,1081.31056 930.067203,1083.46502 C926.233357,1085.60472 921.37418,1084.26187 919.204639,1080.45467 C916.886499,1076.73601 918.045569,1071.86634 921.790256,1069.57906 C923.083065,1068.76745 924.539332,1068.38378 925.980739,1068.38378 C928.640655,1068.38378 931.241132,1069.71187 932.741979,1072.13196" id="Fill-17"/>
                                <path d="M944.615303,849.605336 L945.088998,850.094078 C948.123607,853.248685 948.005183,858.254587 944.852151,861.290712 C941.699118,864.312026 936.666108,864.208353 933.631499,861.038936 C930.463663,858.002811 930.360042,852.982098 933.409454,849.827491 C934.460465,848.716714 935.77793,847.991006 937.154606,847.635558 C939.71552,846.983902 942.55769,847.620747 944.615303,849.605336" id="Fill-19"/>
                                <path d="M944.615303,975.469726 L945.088998,975.958468 C948.123607,979.113076 948.005183,984.118978 944.852151,987.155102 C941.699118,990.176416 936.666108,990.072744 933.631499,986.903326 C930.463663,983.867202 930.360042,978.846489 933.409454,975.691882 C934.460465,974.581105 935.77793,973.855397 937.154606,973.499948 C939.71552,972.848292 942.55769,973.485138 944.615303,975.469726" id="Fill-21"/>
                                <path d="M594.997207,1182.64121 L595.942355,1183.61631 C601.982446,1189.96921 601.687087,1199.95655 595.351638,1206.01396 C589.00142,1212.02705 578.929679,1211.74634 572.904356,1205.39345 C566.598442,1199.29171 566.465531,1189.24527 572.579461,1182.95147 C574.691278,1180.76489 577.334741,1179.31702 580.096347,1178.62264 C585.235593,1177.33728 590.906485,1178.66696 594.997207,1182.64121" id="Fill-39"/>
                                <path d="M1012.84755,894.165323 C1009.32115,894.463903 1005.68406,893.599591 1002.53718,891.462384 C995.294618,886.543663 993.42863,876.721936 998.378242,869.50886 L998.979153,868.675977 C1004.07109,861.55719 1014.01775,859.891425 1021.14962,864.951579 C1028.28149,870.011732 1029.95771,879.864889 1024.89741,886.967961 L1024.62858,887.329401 C1021.81378,891.415239 1017.43346,893.788169 1012.84755,894.165323" id="Fill-51"/>
                                <path d="M485.124947,1072.81254 L486.070116,1073.78793 C492.139873,1080.09839 491.918349,1090.10351 485.597532,1096.17751 C479.276714,1102.23674 469.219525,1102.01506 463.149767,1095.68982 C456.82895,1089.61581 456.622194,1079.58114 462.706719,1073.2559 C464.803813,1071.03911 467.447333,1069.57603 470.208998,1068.88143 C475.333587,1067.56614 481.019369,1068.85188 485.124947,1072.81254" id="Fill-53"/>
                                <path d="M594.934783,1087.44794 L595.879952,1088.42332 C601.949709,1094.73379 601.728185,1104.7389 595.407368,1110.8129 C589.08655,1116.87213 579.029361,1116.65045 572.959603,1110.32521 C566.638786,1104.25121 566.43203,1094.21654 572.516555,1087.89129 C574.613649,1085.6745 577.257169,1084.21142 580.018834,1083.51683 C585.143423,1082.20153 590.829205,1083.48727 594.934783,1087.44794" id="Fill-55"/>
                                <path d="M752.053427,1101.96011 C745.175927,1102.54483 738.068667,1100.11364 732.891395,1094.72809 C723.746924,1085.23414 724.022637,1070.07767 733.50409,1060.89146 C742.7711,1051.55138 758.088472,1051.27441 767.401434,1060.62988 C776.729713,1069.96996 776.974791,1084.88023 767.677147,1094.23569 L766.574296,1095.32819 C762.46924,1099.29811 757.322603,1101.51388 752.053427,1101.96011" id="Fill-61"/>
                                <path d="M1038.56652,977.68783 L1039.51169,978.66303 C1045.58145,984.972277 1045.35992,994.975462 1039.03911,1001.0483 C1032.71829,1007.10636 1022.6611,1006.88472 1016.59134,1000.5607 C1010.27052,994.487862 1010.06377,984.455126 1016.14829,978.131103 C1018.24539,975.91474 1020.88891,974.45194 1023.65057,973.742704 C1028.77516,972.442438 1034.46094,973.727928 1038.56652,977.68783" id="Fill-69"/>
                                <path d="M1025.14252,849.605336 L1025.61621,850.094078 C1028.65082,853.248685 1028.5324,858.254587 1025.37936,861.290712 C1022.22633,864.312026 1017.19332,864.208353 1014.15871,861.038936 C1010.99088,858.002811 1010.88726,852.982098 1013.93667,849.827491 C1014.98768,848.716714 1016.30514,847.991006 1017.68182,847.635558 C1020.24273,846.983902 1023.0849,847.620747 1025.14252,849.605336" id="Fill-97"/>
                                <path d="M1057.3534,896.438597 L1057.8271,896.927339 C1060.86171,900.081947 1060.74328,905.087849 1057.59025,908.123973 C1054.43722,911.145287 1049.40421,911.041615 1046.3696,907.872197 C1043.20176,904.836073 1043.09814,899.81536 1046.14755,896.660753 C1047.19856,895.549976 1048.51603,894.824268 1049.8927,894.468819 C1052.45362,893.817163 1055.29579,894.454009 1057.3534,896.438597" id="Fill-99"/>
                                <path d="M915.33268,1055.96439 L915.806375,1056.45314 C918.840984,1059.60774 918.722561,1064.61365 915.569528,1067.64977 C912.416495,1070.67108 907.383485,1070.56741 904.348876,1067.39799 C901.18104,1064.36187 901.077419,1059.34116 904.126831,1056.18655 C905.177842,1055.07577 906.495307,1054.35007 907.871983,1053.99462 C910.432897,1053.34296 913.275067,1053.97981 915.33268,1055.96439" id="Fill-113"/>
                                <path d="M1071.99471,975.469726 L1072.46841,975.958468 C1075.50302,979.113076 1075.38459,984.118978 1072.23156,987.155102 C1069.07853,990.176416 1064.04552,990.072744 1061.01091,986.903326 C1057.84307,983.867202 1057.73945,978.846489 1060.78886,975.691882 C1061.83987,974.581105 1063.15734,973.855397 1064.53402,973.499948 C1067.09493,972.848292 1069.9371,973.485138 1071.99471,975.469726" id="Fill-117"/>
                                <path d="M578.82934,1119.6458 L579.774509,1120.62119 C585.844267,1126.93165 585.622743,1136.93677 579.301925,1143.01077 C572.981107,1149.07 562.923918,1148.84832 556.854161,1142.52308 C550.533343,1136.44907 550.326587,1126.4144 556.411113,1120.08916 C558.508207,1117.87237 561.151726,1116.40929 563.913392,1115.7147 C569.03798,1114.3994 574.723763,1115.68514 578.82934,1119.6458" id="Fill-149"/>
                                <path d="M896.544855,1105.01576 L897.49019,1105.99096 C903.561018,1112.30021 903.339455,1122.30339 897.017522,1128.37623 C890.710361,1134.43429 880.636628,1134.21265 874.565801,1127.88863 C868.243869,1121.81579 868.051847,1111.76828 874.122675,1105.45903 C876.220138,1103.24267 878.864124,1101.77987 881.626276,1101.07063 C886.751768,1099.77037 892.438553,1101.05586 896.544855,1105.01576" id="Fill-151"/>
                                <path d="M817.481773,1072.81789 L818.427108,1073.79309 C824.497936,1080.10234 824.276373,1090.10552 817.95444,1096.17836 C811.647279,1102.23642 801.573546,1102.01478 795.502719,1095.69076 C789.180787,1089.61792 788.988765,1079.58519 795.059593,1073.26117 C797.157056,1071.0448 799.801042,1069.582 802.563194,1068.87277 C807.688686,1067.5725 813.375471,1068.85799 817.481773,1072.81789" id="Fill-153"/>
                                <path d="M707.671937,1135.74474 L708.617272,1136.72012 C714.6881,1143.03059 714.466537,1153.0357 708.144604,1159.10971 C701.822672,1165.16893 691.76371,1164.94725 685.692883,1158.62201 C679.370951,1152.54801 679.178929,1142.51334 685.249757,1136.18809 C687.34722,1133.9713 689.991206,1132.50822 692.753358,1131.81363 C697.87885,1130.49833 703.565635,1131.78407 707.671937,1135.74474" id="Fill-159"/>
                                <path d="M1025.07584,1045.14282 L1025.75795,1046.32056 C1030.08787,1053.91697 1027.37426,1063.50082 1019.72275,1067.81429 C1012.07124,1072.09831 1002.34374,1069.38952 998.013814,1061.77838 C993.357663,1054.35862 995.67091,1044.62756 1003.15931,1040.01965 C1005.75429,1038.41498 1008.67551,1037.64945 1011.53741,1037.64945 C1016.86085,1037.64945 1022.06565,1040.31409 1025.07584,1045.14282" id="Fill-179"/>
                                <path d="M501.23039,1167.94796 L502.175559,1168.92316 C508.245316,1175.2324 508.023792,1185.23559 501.702974,1191.30842 C495.382156,1197.36648 485.324967,1197.14484 479.25521,1190.82082 C472.934392,1184.74799 472.727636,1174.71525 478.812162,1168.39123 C480.909256,1166.17487 483.552775,1164.71207 486.314441,1164.00283 C491.439029,1162.70256 497.124812,1163.98805 501.23039,1167.94796" id="Fill-181"/>
                                <path d="M989.247263,976.093925 C983.958956,976.545837 978.502232,975.240314 973.786545,972.043458 C962.923623,964.662234 960.127894,949.916525 967.555101,939.120858 L968.447714,937.848811 C976.077022,927.170306 990.998804,924.693161 1001.69331,932.275234 C1012.40466,939.857307 1014.93092,954.653229 1007.31845,965.298258 L1006.93109,965.850595 C1002.70381,971.976508 996.135534,975.508114 989.247263,976.093925" id="Fill-187"/>
                                <path d="M487.805439,1133.53198 L488.279301,1134.02073 C491.314983,1137.17533 491.196517,1142.18124 488.04237,1145.21736 C484.888223,1148.23867 479.853434,1148.135 476.817753,1144.96558 C473.648798,1141.92946 473.559949,1136.90875 476.59563,1133.75414 C477.647012,1132.64336 478.964942,1131.91765 480.342105,1131.56221 C482.903924,1130.91055 485.747099,1131.5474 487.805439,1133.53198" id="Fill-191"/>
                                <path d="M960.720746,1039.86546 L961.194441,1040.3542 C964.22905,1043.50881 964.110626,1048.51471 960.957593,1051.55084 C957.80456,1054.57215 952.77155,1054.46848 949.736941,1051.29906 C946.569106,1048.26294 946.465485,1043.24222 949.514897,1040.08762 C950.565908,1038.97684 951.883372,1038.25113 953.260048,1037.89568 C955.820962,1037.24403 958.663133,1037.88087 960.720746,1039.86546" id="Fill-195"/>
                                <path d="M694.248877,1055.96439 L694.722572,1056.45314 C697.757181,1059.60774 697.638757,1064.61365 694.485725,1067.64977 C691.332692,1070.67108 686.299682,1070.56741 683.265073,1067.39799 C680.097237,1064.36187 679.993616,1059.34116 683.043028,1056.18655 C684.094039,1055.07577 685.411503,1054.35007 686.78818,1053.99462 C689.349094,1053.34296 692.191264,1053.97981 694.248877,1055.96439" id="Fill-197"/>
                                <path d="M678.143434,1180.36525 L678.617129,1180.85399 C681.651738,1184.0086 681.533315,1189.0145 678.380282,1192.05062 C675.227249,1195.07194 670.194239,1194.96826 667.15963,1191.79885 C663.991794,1188.76272 663.888173,1183.74201 666.937585,1180.5874 C667.988596,1179.47662 669.306061,1178.75092 670.682737,1178.39547 C673.243651,1177.74381 676.085821,1178.38066 678.143434,1180.36525" id="Fill-199"/>
                                <path d="M1012.83652,942.462124 C1009.31018,942.760704 1005.67315,941.896392 1002.52633,939.759185 C995.283892,934.840464 993.43375,925.018737 998.383276,917.805661 L998.968363,916.972778 C1004.06021,909.853991 1014.0067,908.188226 1021.13844,913.24838 C1028.286,918.308533 1029.9622,928.16169 1024.88617,935.264762 L1024.61734,935.626202 C1021.8026,939.71204 1017.42235,942.069255 1012.83652,942.462124" id="Fill-225"/>
                                <path d="M438.27275,1058.1825 L439.217919,1059.1577 C445.287677,1065.46695 445.066153,1075.47013 438.745335,1081.54297 C432.424517,1087.60102 422.367328,1087.37939 416.297571,1081.05537 C409.976753,1074.98253 409.769997,1064.94979 415.854523,1058.62577 C417.951616,1056.40941 420.595136,1054.94661 423.356802,1054.23737 C428.48139,1052.93711 434.167172,1054.2226 438.27275,1058.1825" id="Fill-229"/>
                                <path d="M658.237862,1148.79458 C650.108286,1149.47972 641.876452,1145.95123 636.848726,1138.79148 C629.298617,1128.03472 631.838044,1113.18423 642.541134,1105.59626 L643.734154,1104.75696 C654.505416,1097.30602 669.281815,1100.09798 676.678536,1110.97464 C684.075257,1121.83417 681.297226,1136.66753 670.491877,1144.08422 L669.878324,1144.52956 C666.316309,1147.06459 662.277086,1148.45201 658.237862,1148.79458" id="Fill-231"/>
                                <path d="M903.032932,960.024045 C899.503064,960.324344 895.864399,959.459482 892.721366,957.321352 C885.480302,952.408456 883.61866,942.570652 888.574981,935.375482 L889.167322,934.534644 C894.256617,927.411546 904.205525,925.753894 911.337791,930.810933 C918.470058,935.867973 920.150372,945.7298 915.085254,952.816863 L914.819305,953.189234 C912.002664,957.273304 907.626595,959.639662 903.032932,960.024045" id="Fill-248"/>
                                <path d="M550.764025,1085.23518 L551.23772,1085.72393 C554.272329,1088.87853 554.153905,1093.88444 551.000872,1096.92056 C547.847839,1099.94187 542.814829,1099.8382 539.78022,1096.66878 C536.612384,1093.63266 536.508764,1088.61195 539.558176,1085.45734 C540.609187,1084.34656 541.926651,1083.62085 543.303327,1083.26541 C545.864241,1082.61375 548.706412,1083.25059 550.764025,1085.23518" id="Fill-254"/>
                                <path d="M757.206516,1102.79766 L757.680211,1103.2864 C760.71482,1106.44101 760.596397,1111.44691 757.443364,1114.48303 C754.290331,1117.50435 749.257321,1117.40067 746.222712,1114.23126 C743.054876,1111.19513 742.951255,1106.17442 746.000667,1103.01981 C747.051678,1101.90903 748.369143,1101.18333 749.745819,1100.82788 C752.306733,1100.17622 755.148903,1100.81307 757.206516,1102.79766" id="Fill-268"/>
                                <path d="M834.805467,1117.43305 L835.279162,1117.92179 C838.313771,1121.0764 838.195347,1126.0823 835.042315,1129.11843 C831.889282,1132.13974 826.856272,1132.03607 823.821663,1128.86665 C820.653827,1125.83053 820.550206,1120.80981 823.599618,1117.65521 C824.650629,1116.54443 825.968093,1115.81872 827.34477,1115.46327 C829.905684,1114.81162 832.747854,1115.44846 834.805467,1117.43305" id="Fill-270"/>
                                <path d="M944.615303,802.770272 L945.088998,803.259077 C948.123607,806.414094 948.005183,811.420646 944.852151,814.457165 C941.699118,817.478871 936.666108,817.375185 933.631499,814.205356 C930.463663,811.168837 930.360042,806.147473 933.409454,802.992456 C934.460465,801.881534 935.77793,801.155732 937.154606,800.800238 C939.71552,800.148497 942.55769,800.800238 944.615303,802.770272" id="Fill-274"/>
                                <path d="M958.039308,884.021307 L958.984477,884.996507 C965.054234,891.305754 964.83271,901.308939 958.511892,907.381774 C952.191074,913.439833 942.133885,913.218196 936.064128,906.894174 C929.74331,900.821339 929.536554,890.773827 935.62108,884.46458 C937.718174,882.248217 940.361693,880.785417 943.123359,880.076181 C948.247947,878.775915 953.93373,880.061405 958.039308,884.021307" id="Fill-302"/>
                                <path d="M722.314193,1105.01041 L723.259362,1105.9858 C729.329119,1112.29626 729.107595,1122.30137 722.786777,1128.37538 C716.46596,1134.4346 706.40877,1134.21293 700.339013,1127.88768 C694.018195,1121.81368 693.81144,1111.77901 699.895965,1105.45377 C701.993059,1103.23698 704.636579,1101.7739 707.398244,1101.0793 C712.522833,1099.76401 718.208615,1101.04974 722.314193,1105.01041" id="Fill-304"/>
                                <path d="M523.7453,1163.45641 C518.332039,1163.92027 512.831467,1161.56337 509.488715,1156.7869 C504.449642,1149.61593 506.145964,1139.71196 513.280493,1134.65968 L514.078762,1134.09553 C521.25071,1129.13101 531.104343,1130.99898 536.043632,1138.24517 C540.970448,1145.47883 539.111978,1155.37026 531.915084,1160.32224 L531.503477,1160.61059 C529.133616,1162.30304 526.439458,1163.23075 523.7453,1163.45641" id="Fill-322"/>
                                <path d="M903.028418,1021.49456 C898.443924,1021.88141 893.715036,1020.26144 890.249592,1016.67091 C884.160999,1010.33611 884.341491,1000.24152 890.658707,994.112236 C896.843563,987.886234 907.059404,987.704895 913.256292,993.942986 C919.477246,1000.16899 919.645705,1010.10641 913.448817,1016.3445 L912.714817,1017.06986 C909.97134,1019.72951 906.541994,1021.19232 903.028418,1021.49456" id="Fill-324"/>
                                <path d="M643.251111,1167.9426 L644.19628,1168.91799 C650.266037,1175.22845 650.044513,1185.23357 643.723695,1191.30757 C637.402878,1197.3668 627.345689,1197.14512 621.275931,1190.81988 C614.955113,1184.74587 614.748358,1174.7112 620.832883,1168.38596 C622.929977,1166.16917 625.573497,1164.70609 628.335162,1164.0115 C633.459751,1162.6962 639.145533,1163.98194 643.251111,1167.9426" id="Fill-334"/>
                                <path d="M1005.35271,848.765995 C1000.0644,849.217907 994.607675,847.912384 989.891988,844.715528 C979.029065,837.334304 976.233337,822.588595 983.660544,811.792928 L984.553156,810.520881 C992.182465,799.842376 1007.10425,797.365231 1017.79875,804.947304 C1028.5101,812.529377 1031.03636,827.325298 1023.42389,837.970328 L1023.03653,838.522665 C1018.80926,844.648578 1012.24098,848.180184 1005.35271,848.765995" id="Fill-366"/>
                                <path d="M850.91091,991.566857 L851.384605,992.055663 C854.419214,995.21068 854.30079,1000.21723 851.147757,1003.25375 C847.994724,1006.27546 842.961714,1006.17177 839.927105,1003.00194 C836.75927,999.965423 836.655649,994.944059 839.705061,991.789042 C840.756072,990.67812 842.073536,989.952318 843.450212,989.596824 C846.011126,988.945083 848.853297,989.596824 850.91091,991.566857" id="Fill-398"/>
                                <path d="M757.206516,1151.09446 L757.680211,1151.5832 C760.71482,1154.73781 760.596397,1159.74371 757.443364,1162.77983 C754.290331,1165.80115 749.257321,1165.69747 746.222712,1162.52806 C743.054876,1159.49193 742.951255,1154.47122 746.000667,1151.31661 C747.051678,1150.20584 748.369143,1149.48013 749.745819,1149.12468 C752.306733,1148.47302 755.148903,1149.10987 757.206516,1151.09446" id="Fill-402"/>
                                <path d="M565.405336,1165.72805 L565.879031,1166.21685 C568.91364,1169.37187 568.795216,1174.37842 565.642184,1177.41494 C562.489151,1180.43665 557.456141,1180.33296 554.421532,1177.16313 C551.253696,1174.12662 551.150075,1169.10525 554.199487,1165.95023 C555.250498,1164.83931 556.567962,1164.11351 557.944639,1163.75802 C560.505553,1163.10627 563.347723,1163.75802 565.405336,1165.72805" id="Fill-404"/>
                                <path d="M739.636943,1165.72985 L740.110638,1166.21859 C743.145247,1169.3732 743.026823,1174.3791 739.87379,1177.41523 C736.720757,1180.43654 731.687747,1180.33287 728.653138,1177.16345 C725.485302,1174.12733 725.381682,1169.10661 728.431094,1165.95201 C729.482105,1164.84123 730.799569,1164.11552 732.176245,1163.76007 C734.737159,1163.10842 737.57933,1163.74526 739.636943,1165.72985" id="Fill-406"/>
                                <path d="M536.122713,1180.36525 L536.596408,1180.85399 C539.631017,1184.0086 539.512593,1189.0145 536.359561,1192.05062 C533.206528,1195.07194 528.173518,1194.96826 525.138909,1191.79885 C521.971073,1188.76272 521.867452,1183.74201 524.916864,1180.5874 C525.967875,1179.47662 527.285339,1178.75092 528.662016,1178.39547 C531.22293,1177.74381 534.0651,1178.38066 536.122713,1180.36525" id="Fill-408"/>
                                <path d="M1041.24796,1007.66759 L1041.72165,1008.15634 C1044.75626,1011.31094 1044.63784,1016.31685 1041.48481,1019.35297 C1038.33177,1022.37428 1033.29876,1022.27061 1030.26415,1019.10119 C1027.09632,1016.06507 1026.9927,1011.04436 1030.04211,1007.88975 C1031.09312,1006.77897 1032.41059,1006.05326 1033.78726,1005.69782 C1036.34818,1005.04616 1039.19035,1005.68301 1041.24796,1007.66759" id="Fill-410"/>
                                <path d="M787.95327,1023.76653 L788.426965,1024.25527 C791.461574,1027.40988 791.343151,1032.41578 788.190118,1035.4519 C785.037085,1038.47322 780.004075,1038.36954 776.969466,1035.20013 C773.80163,1032.164 773.698009,1027.14329 776.747421,1023.98868 C777.798432,1022.87791 779.115897,1022.1522 780.492573,1021.79675 C783.053487,1021.14509 785.895657,1021.78194 787.95327,1023.76653" id="Fill-412"/>
                                <path d="M976.826188,864.24073 L977.299883,864.729472 C980.334492,867.884079 980.216069,872.889982 977.063036,875.926106 C973.910003,878.94742 968.876993,878.843747 965.842384,875.67433 C962.674548,872.638206 962.570927,867.617493 965.620339,864.462886 C966.67135,863.352108 967.988815,862.626401 969.365491,862.270952 C971.926405,861.619296 974.768575,862.256142 976.826188,864.24073" id="Fill-414"/>
                                <path d="M1057.3534,943.271859 L1057.8271,943.760601 C1060.86171,946.915208 1060.74328,951.921111 1057.59025,954.957235 C1054.43722,957.978549 1049.40421,957.874876 1046.3696,954.705459 C1043.20176,951.669335 1043.09814,946.648622 1046.14755,943.494015 C1047.19856,942.383237 1048.51603,941.65753 1049.8927,941.302081 C1052.45362,940.650425 1055.29579,941.287271 1057.3534,943.271859" id="Fill-416"/>
                                <path d="M867.016352,959.370793 L867.490047,959.859535 C870.524656,963.014142 870.406233,968.020044 867.2532,971.056169 C864.100167,974.077483 859.067157,973.97381 856.032548,970.804393 C852.864712,967.768268 852.761091,962.747555 855.810503,959.592948 C856.861514,958.482171 858.178979,957.756463 859.555655,957.401015 C862.116569,956.749359 864.958739,957.386204 867.016352,959.370793" id="Fill-418"/>
                                <path d="M613.721664,1133.53198 L614.195359,1134.02073 C617.229968,1137.17533 617.111544,1142.18124 613.958511,1145.21736 C610.805479,1148.23867 605.772469,1148.135 602.73786,1144.96558 C599.570024,1141.92946 599.466403,1136.90875 602.515815,1133.75414 C603.566826,1132.64336 604.88429,1131.91765 606.260967,1131.56221 C608.821881,1130.91055 611.664051,1131.5474 613.721664,1133.53198" id="Fill-420"/>
                                <path d="M645.932549,1212.56311 L646.406244,1213.05186 C649.440853,1216.20646 649.322429,1221.21237 646.169397,1224.24849 C643.016364,1227.2698 637.983354,1227.16613 634.948745,1223.99671 C631.780909,1220.96059 631.677288,1215.93988 634.7267,1212.78527 C635.777711,1211.67449 637.095176,1210.94878 638.471852,1210.59334 C641.032766,1209.94168 643.874936,1210.57852 645.932549,1212.56311" id="Fill-422"/>
                                <path d="M597.616221,1228.66205 L598.089916,1229.15079 C601.124525,1232.3054 601.006102,1237.3113 597.853069,1240.34742 C594.700036,1243.36874 589.667026,1243.26506 586.632417,1240.09565 C583.464581,1237.05952 583.36096,1232.03881 586.410372,1228.8842 C587.461383,1227.77343 588.778848,1227.04772 590.155524,1226.69227 C592.716438,1226.04061 595.558608,1226.67746 597.616221,1228.66205" id="Fill-424"/>
                                <path d="M629.827107,1085.23518 L630.300802,1085.72393 C633.335411,1088.87853 633.216987,1093.88444 630.063954,1096.92056 C626.910921,1099.94187 621.877911,1099.8382 618.843302,1096.66878 C615.675466,1093.63266 615.571846,1088.61195 618.621258,1085.45734 C619.672268,1084.34656 620.989733,1083.62085 622.366409,1083.26541 C624.927323,1082.61375 627.769494,1083.25059 629.827107,1085.23518" id="Fill-426"/>
                                <path d="M1009.03707,1007.66759 L1009.51077,1008.15634 C1012.54538,1011.31094 1012.42695,1016.31685 1009.27392,1019.35297 C1006.12089,1022.37428 1001.08788,1022.27061 998.053269,1019.10119 C994.885433,1016.06507 994.781813,1011.04436 997.831225,1007.88975 C998.882236,1006.77897 1000.1997,1006.05326 1001.57638,1005.69782 C1004.13729,1005.04616 1006.97946,1005.68301 1009.03707,1007.66759" id="Fill-428"/>
                                <path d="M515.870756,1087.44794 L516.816092,1088.42332 C522.886919,1094.73379 522.665356,1104.7389 516.343424,1110.8129 C510.021492,1116.87213 499.96253,1116.65045 493.891702,1110.32521 C487.56977,1104.25121 487.377749,1094.21654 493.448576,1087.89129 C495.54604,1085.6745 498.190025,1084.21142 500.952178,1083.51683 C506.07767,1082.20153 511.764455,1083.48727 515.870756,1087.44794" id="Fill-526"/>
                                <path d="M839.580491,1069.7345 C828.748863,1070.6524 817.745983,1065.94815 811.067192,1056.39622 C800.991923,1042.03964 804.388402,1022.24735 818.659322,1012.12173 L820.243394,1011.00303 C834.585669,1001.09254 854.308081,1004.80718 864.169287,1019.30719 C874.030493,1033.77851 870.334324,1053.55645 855.920695,1063.4526 L855.092981,1064.04063 C850.355036,1067.4254 844.960628,1069.27555 839.580491,1069.7345" id="Fill-528"/>
                                <path d="M974.14475,993.781413 L975.089919,994.7568 C981.159676,1001.06726 980.938152,1011.07238 974.617335,1017.14638 C968.296517,1023.20561 958.239328,1022.98393 952.16957,1016.65869 C945.848753,1010.58468 945.641997,1000.55001 951.726522,994.224771 C953.823616,992.00798 956.467136,990.544899 959.228802,989.850305 C964.35339,988.535009 970.039172,989.820747 974.14475,993.781413" id="Fill-532"/>
                                <path d="M974.14475,756.688026 L975.089919,757.663413 C981.159676,763.973876 980.938152,773.97899 974.617335,780.052995 C968.296517,786.112221 958.239328,785.890542 952.16957,779.565301 C945.848753,773.491296 945.641997,763.456625 951.726522,757.131384 C953.823616,754.914593 956.467136,753.451512 959.228802,752.756918 C964.35339,751.441622 970.039172,752.72736 974.14475,756.688026" id="Fill-534"/>
                                <path d="M520.01727,1070.59979 L520.490966,1071.08853 C523.525575,1074.24314 523.407151,1079.24904 520.254118,1082.28517 C517.101085,1085.30648 512.068075,1085.20281 509.033466,1082.03339 C505.86563,1078.99726 505.76201,1073.97655 508.811422,1070.82194 C509.862432,1069.71117 511.179897,1068.98546 512.556573,1068.63001 C515.117487,1067.97835 517.959658,1068.6152 520.01727,1070.59979" id="Fill-542"/>
                            </g>
                        </g>
                    </g>
                </g>
            </g>
        </g>
    </g>
</svg>