<?xml version="1.0" encoding="UTF-8" standalone="no"?>
<svg width="1219px" height="620px" viewBox="0 0 1219 620" version="1.1" xmlns="http://www.w3.org/2000/svg" xmlns:xlink="http://www.w3.org/1999/xlink"><script xmlns="" type="text/javascript" charset="utf-8" id="zm-extension"/>
    <!-- Generator: Sketch 43.1 (39012) - http://www.bohemiancoding.com/sketch -->
    <title>cocaine white</title>
    <desc>Created with Sketch.</desc>
    <defs/>
    <g id="Page-1" stroke="none" stroke-width="1" fill="none" fill-rule="evenodd" opacity="0.100000001">
        <g id="Home-Copy-2" transform="translate(-50.000000, -93.000000)" fill="#FFFFFF">
            <g id="hero" transform="translate(9.000000, 15.000000)">
                <g id="Group-8" transform="translate(0.000000, 78.000000)">
                    <g id="cocaine" transform="translate(41.000000, 0.000000)">
                        <g id="cocaine-white" transform="translate(546.500000, 260.500000) scale(-1, 1) rotate(296.000000) translate(-546.500000, -260.500000) translate(-70.000000, -361.000000)">
                            <path d="M834.805467,1085.23338 L835.279162,1085.72219 C838.313771,1088.8772 838.195347,1093.88376 835.042315,1096.92027 C831.889282,1099.94198 826.856272,1099.83829 823.821663,1096.66847 C820.653827,1093.63195 820.550206,1088.61058 823.599618,1085.45557 C824.650629,1084.34464 825.968093,1083.61884 827.34477,1083.26335 C829.905684,1082.61161 832.747854,1083.26335 834.805467,1085.23338" id="Fill-9"/>
                            <path d="M932.741979,1072.13196 L933.083756,1072.72222 C935.253297,1076.51466 933.886189,1081.31056 930.067203,1083.46502 C926.233357,1085.60472 921.37418,1084.26187 919.204639,1080.45467 C916.886499,1076.73601 918.045569,1071.86634 921.790256,1069.57906 C923.083065,1068.76745 924.539332,1068.38378 925.980739,1068.38378 C928.640655,1068.38378 931.241132,1069.71187 932.741979,1072.13196" id="Fill-17"/>
                            <path d="M944.615303,849.605336 L945.088998,850.094078 C948.123607,853.248685 948.005183,858.254587 944.852151,861.290712 C941.699118,864.312026 936.666108,864.208353 933.631499,861.038936 C930.463663,858.002811 930.360042,852.982098 933.409454,849.827491 C934.460465,848.716714 935.77793,847.991006 937.154606,847.635558 C939.71552,846.983902 942.55769,847.620747 944.615303,849.605336" id="Fill-19"/>
                            <path d="M944.615303,975.469726 L945.088998,975.958468 C948.123607,979.113076 948.005183,984.118978 944.852151,987.155102 C941.699118,990.176416 936.666108,990.072744 933.631499,986.903326 C930.463663,983.867202 930.360042,978.846489 933.409454,975.691882 C934.460465,974.581105 935.77793,973.855397 937.154606,973.499948 C939.71552,972.848292 942.55769,973.485138 944.615303,975.469726" id="Fill-21"/>
                            <path d="M155.448615,328.5853 L155.92231,329.074042 C158.956919,332.228649 158.838495,337.234552 155.685462,340.270676 C152.53243,343.29199 147.49942,343.188318 144.464811,340.0189 C141.296975,336.982776 141.193354,331.962063 144.242766,328.807456 C145.293777,327.696679 146.611241,326.970971 147.987918,326.615522 C150.548832,325.963866 153.391002,326.600712 155.448615,328.5853" id="Fill-31"/>
                            <path d="M218.406254,343.218892 L218.879949,343.707697 C221.914558,346.862714 221.796135,351.869267 218.643102,354.905785 C215.490069,357.927491 210.457059,357.823805 207.42245,354.653976 C204.254614,351.617458 204.150993,346.596093 207.200405,343.441076 C208.251416,342.330155 209.568881,341.604353 210.945557,341.248858 C213.506471,340.597117 216.348641,341.248858 218.406254,343.218892" id="Fill-33"/>
                            <path d="M234.511697,375.418562 L234.985392,375.907304 C238.020001,379.061911 237.901577,384.067814 234.748544,387.103938 C231.595512,390.125252 226.562501,390.021579 223.527892,386.852162 C220.360057,383.816037 220.256436,378.795325 223.305848,375.640717 C224.356859,374.52994 225.674323,373.804232 227.051,373.448784 C229.611913,372.797128 232.454084,373.433973 234.511697,375.418562" id="Fill-35"/>
                            <path d="M202.300812,280.288499 L202.774507,280.777241 C205.809116,283.931848 205.690692,288.937751 202.537659,291.973875 C199.384626,294.995189 194.351616,294.891517 191.317007,291.722099 C188.149171,288.685975 188.045551,283.665262 191.094963,280.510655 C192.145974,279.399878 193.463438,278.67417 194.840114,278.318721 C197.401028,277.667065 200.243199,278.303911 202.300812,280.288499" id="Fill-37"/>
                            <path d="M594.997207,1182.64121 L595.942355,1183.61631 C601.982446,1189.96921 601.687087,1199.95655 595.351638,1206.01396 C589.00142,1212.02705 578.929679,1211.74634 572.904356,1205.39345 C566.598442,1199.29171 566.465531,1189.24527 572.579461,1182.95147 C574.691278,1180.76489 577.334741,1179.31702 580.096347,1178.62264 C585.235593,1177.33728 590.906485,1178.66696 594.997207,1182.64121" id="Fill-39"/>
                            <path d="M1012.84755,894.165323 C1009.32115,894.463903 1005.68406,893.599591 1002.53718,891.462384 C995.294618,886.543663 993.42863,876.721936 998.378242,869.50886 L998.979153,868.675977 C1004.07109,861.55719 1014.01775,859.891425 1021.14962,864.951579 C1028.28149,870.011732 1029.95771,879.864889 1024.89741,886.967961 L1024.62858,887.329401 C1021.81378,891.415239 1017.43346,893.788169 1012.84755,894.165323" id="Fill-51"/>
                            <path d="M485.124947,1072.81254 L486.070116,1073.78793 C492.139873,1080.09839 491.918349,1090.10351 485.597532,1096.17751 C479.276714,1102.23674 469.219525,1102.01506 463.149767,1095.68982 C456.82895,1089.61581 456.622194,1079.58114 462.706719,1073.2559 C464.803813,1071.03911 467.447333,1069.57603 470.208998,1068.88143 C475.333587,1067.56614 481.019369,1068.85188 485.124947,1072.81254" id="Fill-53"/>
                            <path d="M594.934783,1087.44794 L595.879952,1088.42332 C601.949709,1094.73379 601.728185,1104.7389 595.407368,1110.8129 C589.08655,1116.87213 579.029361,1116.65045 572.959603,1110.32521 C566.638786,1104.25121 566.43203,1094.21654 572.516555,1087.89129 C574.613649,1085.6745 577.257169,1084.21142 580.018834,1083.51683 C585.143423,1082.20153 590.829205,1083.48727 594.934783,1087.44794" id="Fill-55"/>
                            <path d="M102.537873,409.747275 C113.453587,417.224292 115.943136,432.367961 108.378738,443.150037 C101.005843,454.081111 86.0411912,456.97981 75.0434035,449.651791 C64.0456158,442.310227 61.1046651,427.559372 68.5049178,416.628298 L69.3256482,415.43631 C71.746803,411.995799 74.8792574,409.395097 78.4357559,407.701932 C85.9317605,404.112422 95.1102624,404.66778 102.537873,409.747275" id="Fill-57"/>
                            <path d="M752.053427,1101.96011 C745.175927,1102.54483 738.068667,1100.11364 732.891395,1094.72809 C723.746924,1085.23414 724.022637,1070.07767 733.50409,1060.89146 C742.7711,1051.55138 758.088472,1051.27441 767.401434,1060.62988 C776.729713,1069.96996 776.974791,1084.88023 767.677147,1094.23569 L766.574296,1095.32819 C762.46924,1099.29811 757.322603,1101.51388 752.053427,1101.96011" id="Fill-61"/>
                            <path d="M642.269506,245.983056 L643.241867,246.061853 C656.206686,247.275322 665.79139,259.000269 664.618383,272.253872 C663.445376,285.507475 651.962251,295.309783 638.981999,294.064795 L637.762688,293.970239 C624.767002,292.693733 615.259469,280.905748 616.509647,267.667905 C617.620918,255.895679 626.850633,246.928616 637.994203,245.967297 C639.383291,245.841222 640.818681,245.841222 642.269506,245.983056" id="Fill-63"/>
                            <path d="M359.025581,351.558477 C366.48746,362.437487 363.368628,377.505207 352.467288,384.922715 C341.697115,392.543839 326.744208,389.954984 319.151163,379.192327 C311.558117,368.415125 314.123138,353.551023 324.92246,345.944442 L326.117527,345.115427 C329.586135,342.744733 333.44824,341.421217 337.354068,341.086702 C345.617516,340.388584 353.939261,344.170058 359.025581,351.558477" id="Fill-65"/>
                            <path d="M239.364809,469.050248 C251.366103,474.508835 256.621939,488.551152 251.099095,500.398924 L250.480762,501.71843 C244.775228,513.496753 230.483289,518.483096 218.580366,512.843945 C206.649337,507.218685 201.632402,493.106919 207.323882,481.314706 L207.647102,480.648008 C211.399263,472.619858 219.086275,467.647406 227.363514,466.952929 C231.354577,466.61958 235.48617,467.272388 239.364809,469.050248" id="Fill-67"/>
                            <path d="M1038.56652,977.68783 L1039.51169,978.66303 C1045.58145,984.972277 1045.35992,994.975462 1039.03911,1001.0483 C1032.71829,1007.10636 1022.6611,1006.88472 1016.59134,1000.5607 C1010.27052,994.487862 1010.06377,984.455126 1016.14829,978.131103 C1018.24539,975.91474 1020.88891,974.45194 1023.65057,973.742704 C1028.77516,972.442438 1034.46094,973.727928 1038.56652,977.68783" id="Fill-69"/>
                            <path d="M406.061865,235.66799 L407.007034,236.643378 C413.076791,242.953841 412.855267,252.958954 406.53445,259.032959 C400.213632,265.092186 390.156443,264.870507 384.086685,258.545265 C377.765868,252.47126 377.559112,242.43659 383.643637,236.111348 C385.740731,233.894558 388.384251,232.431476 391.145917,231.736882 C396.270505,230.421586 401.956287,231.707325 406.061865,235.66799" id="Fill-75"/>
                            <path d="M438.271806,345.433447 L439.217141,346.408835 C445.287969,352.719298 445.066406,362.724411 438.744473,368.798416 C432.422541,374.857643 422.363579,374.635964 416.292752,368.310722 C409.97082,362.236717 409.778798,352.202047 415.849626,345.876805 C417.947089,343.660015 420.591075,342.196933 423.353227,341.502339 C428.478719,340.187043 434.165504,341.472782 438.271806,345.433447" id="Fill-77"/>
                            <path d="M594.933838,298.600185 L595.879174,299.575573 C601.950001,305.886036 601.728438,315.891149 595.406506,321.965155 C589.084574,328.024381 579.025612,327.802702 572.954784,321.477461 C566.632852,315.403455 566.440831,305.368785 572.511658,299.043543 C574.609122,296.826753 577.253107,295.363672 580.000489,294.669077 C585.140752,293.353782 590.827537,294.63952 594.933838,298.600185" id="Fill-81"/>
                            <path d="M854.896392,362.692529 L856.582276,363.876694 C870.870836,374.116237 873.85568,393.815166 863.6851,408.220183 C853.542157,422.625199 833.36682,425.717959 819.119717,415.492348 C804.637694,405.531432 800.920458,385.623532 810.800845,371.05134 C816.411247,362.790049 825.186136,357.997664 834.361769,357.217509 C841.367861,356.618461 848.622691,358.373811 854.896392,362.692529" id="Fill-85"/>
                            <path d="M613.721664,248.090632 L614.195359,248.579374 C617.229968,251.733981 617.111544,256.739884 613.958511,259.776008 C610.805479,262.797322 605.772469,262.693649 602.73786,259.524232 C599.570024,256.488107 599.466403,251.467395 602.515815,248.312787 C603.566826,247.20201 604.88429,246.476302 606.260967,246.120854 C608.821881,245.469198 611.664051,246.106043 613.721664,248.090632" id="Fill-87"/>
                            <path d="M549.545773,156.636861 L550.491108,157.612249 C556.561936,163.922712 556.340373,173.927825 550.018441,180.00183 C543.696508,186.061057 533.637546,185.839378 527.566719,179.514136 C521.244787,173.440131 521.052765,163.405461 527.123593,157.080219 C529.221056,154.863429 531.865042,153.400347 534.627194,152.705753 C539.752686,151.390458 545.439471,152.676196 549.545773,156.636861" id="Fill-95"/>
                            <path d="M1025.14252,849.605336 L1025.61621,850.094078 C1028.65082,853.248685 1028.5324,858.254587 1025.37936,861.290712 C1022.22633,864.312026 1017.19332,864.208353 1014.15871,861.038936 C1010.99088,858.002811 1010.88726,852.982098 1013.93667,849.827491 C1014.98768,848.716714 1016.30514,847.991006 1017.68182,847.635558 C1020.24273,846.983902 1023.0849,847.620747 1025.14252,849.605336" id="Fill-97"/>
                            <path d="M1057.3534,896.438597 L1057.8271,896.927339 C1060.86171,900.081947 1060.74328,905.087849 1057.59025,908.123973 C1054.43722,911.145287 1049.40421,911.041615 1046.3696,907.872197 C1043.20176,904.836073 1043.09814,899.81536 1046.14755,896.660753 C1047.19856,895.549976 1048.51603,894.824268 1049.8927,894.468819 C1052.45362,893.817163 1055.29579,894.454009 1057.3534,896.438597" id="Fill-99"/>
                            <path d="M408.743303,138.325175 L409.216998,138.813917 C412.251607,141.968524 412.133184,146.974427 408.980151,150.010551 C405.827118,153.031865 400.794108,152.928192 397.759499,149.758775 C394.591663,146.72265 394.488042,141.701938 397.537454,138.54733 C398.588465,137.436553 399.90593,136.710845 401.282606,136.355397 C403.84352,135.703741 406.68569,136.340586 408.743303,138.325175" id="Fill-101"/>
                            <path d="M231.830259,630.828986 L232.775428,631.804186 C238.845185,638.113433 238.623661,648.116618 232.302843,654.189453 C225.982025,660.247512 215.924836,660.025876 209.855079,653.701853 C203.534261,647.629018 203.327505,637.596282 209.412031,631.272259 C211.509125,629.055896 214.152644,627.593096 216.91431,626.88386 C222.038898,625.583594 227.724681,626.869085 231.830259,630.828986" id="Fill-107"/>
                            <path d="M339.561024,87.8523175 L340.23817,87.9422635 C344.551297,88.5568947 347.524851,92.6044661 346.921308,96.9968306 C346.317765,101.389195 342.31377,104.44736 338.000644,103.832729 C333.658076,103.39799 330.493154,99.4553554 330.934771,95.0479999 C331.067256,93.5039264 331.656079,92.0947719 332.509872,90.9554555 C334.114414,88.8267328 336.734675,87.5674884 339.561024,87.8523175" id="Fill-109"/>
                            <path d="M915.33268,1055.96439 L915.806375,1056.45314 C918.840984,1059.60774 918.722561,1064.61365 915.569528,1067.64977 C912.416495,1070.67108 907.383485,1070.56741 904.348876,1067.39799 C901.18104,1064.36187 901.077419,1059.34116 904.126831,1056.18655 C905.177842,1055.07577 906.495307,1054.35007 907.871983,1053.99462 C910.432897,1053.34296 913.275067,1053.97981 915.33268,1055.96439" id="Fill-113"/>
                            <path d="M1071.99471,975.469726 L1072.46841,975.958468 C1075.50302,979.113076 1075.38459,984.118978 1072.23156,987.155102 C1069.07853,990.176416 1064.04552,990.072744 1061.01091,986.903326 C1057.84307,983.867202 1057.73945,978.846489 1060.78886,975.691882 C1061.83987,974.581105 1063.15734,973.855397 1064.53402,973.499948 C1067.09493,972.848292 1069.9371,973.485138 1071.99471,975.469726" id="Fill-117"/>
                            <path d="M550.764025,312.486367 L551.23772,312.975109 C554.272329,316.129716 554.153905,321.135618 551.000872,324.171743 C547.847839,327.193057 542.814829,327.089384 539.78022,323.919966 C536.612384,320.883842 536.508764,315.863129 539.558176,312.708522 C540.609187,311.597745 541.926651,310.872037 543.303327,310.516588 C545.864241,309.864932 548.706412,310.501778 550.764025,312.486367" id="Fill-123"/>
                            <path d="M140.807303,375.418562 L141.280998,375.907304 C144.315608,379.061911 144.197184,384.067814 141.044151,387.103938 C137.891118,390.125252 132.858108,390.021579 129.823499,386.852162 C126.655663,383.816037 126.552042,378.795325 129.601454,375.640717 C130.652465,374.52994 131.96993,373.804232 133.346606,373.448784 C135.90752,372.797128 138.74969,373.433973 140.807303,375.418562" id="Fill-125"/>
                            <path d="M92.4909756,233.455238 L92.9646706,233.94398 C95.9992797,237.098587 95.8808559,242.104489 92.7278231,245.140614 C89.5747903,248.161928 84.5417802,248.058255 81.5071712,244.888837 C78.3393354,241.852713 78.2357146,236.832 81.2851266,233.677393 C82.3361376,232.566616 83.653602,231.840908 85.0302783,231.485459 C87.5911922,230.833803 90.4333626,231.470649 92.4909756,233.455238" id="Fill-135"/>
                            <path d="M184.977117,487.402123 L185.922453,488.377322 C191.99328,494.686569 191.771717,504.689754 185.449785,510.762589 C179.142624,516.820648 169.068891,516.599012 162.998063,510.274989 C156.676131,504.202155 156.48411,494.169418 162.554937,487.845395 C164.652401,485.629032 167.296386,484.166233 170.058539,483.456997 C175.184031,482.15673 180.870815,483.442221 184.977117,487.402123" id="Fill-143"/>
                            <path d="M247.934756,535.693572 L248.880092,536.66896 C254.950919,542.979423 254.729356,552.984536 248.407424,559.058541 C242.085492,565.117768 232.02653,564.896089 225.955703,558.570848 C219.63377,552.496842 219.441749,542.462172 225.512576,536.13693 C227.61004,533.92014 230.254026,532.457059 233.016178,531.762464 C238.14167,530.447169 243.828455,531.732907 247.934756,535.693572" id="Fill-145"/>
                            <path d="M75.1682259,345.433447 L76.1133949,346.408835 C82.1831522,352.719298 81.9616282,362.724411 75.6408104,368.798416 C69.3199926,374.857643 59.2628035,374.635964 53.1930462,368.310722 C46.8722284,362.236717 46.6654727,352.202047 52.7499982,345.876805 C54.847092,343.660015 57.4906116,342.196933 60.2522773,341.502339 C65.3768656,340.187043 71.062648,341.472782 75.1682259,345.433447" id="Fill-147"/>
                            <path d="M578.82934,1119.6458 L579.774509,1120.62119 C585.844267,1126.93165 585.622743,1136.93677 579.301925,1143.01077 C572.981107,1149.07 562.923918,1148.84832 556.854161,1142.52308 C550.533343,1136.44907 550.326587,1126.4144 556.411113,1120.08916 C558.508207,1117.87237 561.151726,1116.40929 563.913392,1115.7147 C569.03798,1114.3994 574.723763,1115.68514 578.82934,1119.6458" id="Fill-149"/>
                            <path d="M896.544855,1105.01576 L897.49019,1105.99096 C903.561018,1112.30021 903.339455,1122.30339 897.017522,1128.37623 C890.710361,1134.43429 880.636628,1134.21265 874.565801,1127.88863 C868.243869,1121.81579 868.051847,1111.76828 874.122675,1105.45903 C876.220138,1103.24267 878.864124,1101.77987 881.626276,1101.07063 C886.751768,1099.77037 892.438553,1101.05586 896.544855,1105.01576" id="Fill-151"/>
                            <path d="M817.481773,1072.81789 L818.427108,1073.79309 C824.497936,1080.10234 824.276373,1090.10552 817.95444,1096.17836 C811.647279,1102.23642 801.573546,1102.01478 795.502719,1095.69076 C789.180787,1089.61792 788.988765,1079.58519 795.059593,1073.26117 C797.157056,1071.0448 799.801042,1069.582 802.563194,1068.87277 C807.688686,1067.5725 813.375471,1068.85799 817.481773,1072.81789" id="Fill-153"/>
                            <path d="M312.357472,250.308736 L313.302641,251.283936 C319.372398,257.593182 319.150874,267.596367 312.830056,273.669202 C306.509238,279.727261 296.452049,279.505625 290.382292,273.181602 C284.061474,267.108768 283.854718,257.076031 289.939244,250.752008 C292.036338,248.535645 294.679857,247.072846 297.426755,246.36361 C302.566111,245.063343 308.251894,246.348834 312.357472,250.308736" id="Fill-155"/>
                            <path d="M707.671937,1135.74474 L708.617272,1136.72012 C714.6881,1143.03059 714.466537,1153.0357 708.144604,1159.10971 C701.822672,1165.16893 691.76371,1164.94725 685.692883,1158.62201 C679.370951,1152.54801 679.178929,1142.51334 685.249757,1136.18809 C687.34722,1133.9713 689.991206,1132.50822 692.753358,1131.81363 C697.87885,1130.49833 703.565635,1131.78407 707.671937,1135.74474" id="Fill-159"/>
                            <path d="M643.251111,314.699119 L644.19628,315.674507 C650.266037,321.98497 650.044513,331.990083 643.723695,338.064088 C637.402878,344.123315 627.345689,343.901636 621.275931,337.576394 C614.955113,331.502389 614.748358,321.467719 620.832883,315.142477 C622.929977,312.925687 625.573497,311.462605 628.335162,310.768011 C633.459751,309.452715 639.145533,310.738454 643.251111,314.699119" id="Fill-161"/>
                            <path d="M536.570215,296.060254 C539.936543,308.884425 531.860184,322.16406 519.130372,325.551577 C506.457136,328.953327 493.317141,321.438164 489.851803,308.642459 C486.414753,295.832522 493.939487,282.65252 506.655155,279.193837 L507.87156,278.880705 C509.229406,278.496407 510.587253,278.268674 511.959244,278.154808 C523.203912,277.20118 533.557493,284.61671 536.570215,296.060254" id="Fill-169"/>
                            <path d="M724.700312,294.846574 L726.617268,295.38557 C739.21441,298.967282 746.420112,312.216141 742.877165,324.978166 C739.334219,337.757577 726.138029,345.147032 713.575119,341.56532 C700.858168,338.453055 693.053417,325.447613 696.13424,312.56388 C698.598898,302.23603 707.276548,295.107379 717.135181,294.255418 C719.599839,294.046774 722.167191,294.220644 724.700312,294.846574" id="Fill-171"/>
                            <path d="M408.743303,359.319628 L409.216998,359.80837 C412.251607,362.962977 412.133184,367.96888 408.980151,371.005004 C405.827118,374.026318 400.794108,373.922646 397.759499,370.753228 C394.591663,367.717104 394.488042,362.696391 397.537454,359.541784 C398.588465,358.431006 399.90593,357.705299 401.282606,357.34985 C403.84352,356.698194 406.68569,357.33504 408.743303,359.319628" id="Fill-175"/>
                            <path d="M1025.07584,1045.14282 L1025.75795,1046.32056 C1030.08787,1053.91697 1027.37426,1063.50082 1019.72275,1067.81429 C1012.07124,1072.09831 1002.34374,1069.38952 998.013814,1061.77838 C993.357663,1054.35862 995.67091,1044.62756 1003.15931,1040.01965 C1005.75429,1038.41498 1008.67551,1037.64945 1011.53741,1037.64945 C1016.86085,1037.64945 1022.06565,1040.31409 1025.07584,1045.14282" id="Fill-179"/>
                            <path d="M501.23039,1167.94796 L502.175559,1168.92316 C508.245316,1175.2324 508.023792,1185.23559 501.702974,1191.30842 C495.382156,1197.36648 485.324967,1197.14484 479.25521,1190.82082 C472.934392,1184.74799 472.727636,1174.71525 478.812162,1168.39123 C480.909256,1166.17487 483.552775,1164.71207 486.314441,1164.00283 C491.439029,1162.70256 497.124812,1163.98805 501.23039,1167.94796" id="Fill-181"/>
                            <path d="M627.145668,124.444345 L628.090837,125.419545 C634.160595,131.728792 633.939071,141.731977 627.618253,147.804812 C621.297435,153.862871 611.240246,153.641234 605.170489,147.317212 C598.849671,141.244377 598.642915,131.196865 604.727441,124.887618 C606.824534,122.671255 609.468054,121.208455 612.22972,120.499219 C617.354308,119.198953 623.04009,120.484443 627.145668,124.444345" id="Fill-183"/>
                            <path d="M989.247263,976.093925 C983.958956,976.545837 978.502232,975.240314 973.786545,972.043458 C962.923623,964.662234 960.127894,949.916525 967.555101,939.120858 L968.447714,937.848811 C976.077022,927.170306 990.998804,924.693161 1001.69331,932.275234 C1012.40466,939.857307 1014.93092,954.653229 1007.31845,965.298258 L1006.93109,965.850595 C1002.70381,971.976508 996.135534,975.508114 989.247263,976.093925" id="Fill-187"/>
                            <path d="M487.805439,1133.53198 L488.279301,1134.02073 C491.314983,1137.17533 491.196517,1142.18124 488.04237,1145.21736 C484.888223,1148.23867 479.853434,1148.135 476.817753,1144.96558 C473.648798,1141.92946 473.559949,1136.90875 476.59563,1133.75414 C477.647012,1132.64336 478.964942,1131.91765 480.342105,1131.56221 C482.903924,1130.91055 485.747099,1131.5474 487.805439,1133.53198" id="Fill-191"/>
                            <path d="M960.720746,1039.86546 L961.194441,1040.3542 C964.22905,1043.50881 964.110626,1048.51471 960.957593,1051.55084 C957.80456,1054.57215 952.77155,1054.46848 949.736941,1051.29906 C946.569106,1048.26294 946.465485,1043.24222 949.514897,1040.08762 C950.565908,1038.97684 951.883372,1038.25113 953.260048,1037.89568 C955.820962,1037.24403 958.663133,1037.88087 960.720746,1039.86546" id="Fill-195"/>
                            <path d="M694.248877,1055.96439 L694.722572,1056.45314 C697.757181,1059.60774 697.638757,1064.61365 694.485725,1067.64977 C691.332692,1070.67108 686.299682,1070.56741 683.265073,1067.39799 C680.097237,1064.36187 679.993616,1059.34116 683.043028,1056.18655 C684.094039,1055.07577 685.411503,1054.35007 686.78818,1053.99462 C689.349094,1053.34296 692.191264,1053.97981 694.248877,1055.96439" id="Fill-197"/>
                            <path d="M678.143434,1180.36525 L678.617129,1180.85399 C681.651738,1184.0086 681.533315,1189.0145 678.380282,1192.05062 C675.227249,1195.07194 670.194239,1194.96826 667.15963,1191.79885 C663.991794,1188.76272 663.888173,1183.74201 666.937585,1180.5874 C667.988596,1179.47662 669.306061,1178.75092 670.682737,1178.39547 C673.243651,1177.74381 676.085821,1178.38066 678.143434,1180.36525" id="Fill-199"/>
                            <path d="M278.067516,120.050185 L278.744662,120.140131 C283.057788,120.754762 286.031343,124.802333 285.4278,129.194698 C284.824257,133.587062 280.820262,136.645227 276.507136,136.030596 C272.164568,135.595857 268.999646,131.653223 269.441263,127.245867 C269.588469,125.701794 270.162571,124.292639 271.016364,123.153323 C272.620906,121.0246 275.241167,119.765356 278.067516,120.050185" id="Fill-201"/>
                            <path d="M360.426029,264.189566 L360.899892,264.678308 C363.935573,267.832915 363.817108,272.838817 360.66296,275.874942 C357.508813,278.896255 352.474025,278.792583 349.438343,275.623165 C346.269388,272.587041 346.180539,267.566328 349.21622,264.411721 C350.267603,263.300944 351.585533,262.575236 352.962695,262.219787 C355.524514,261.568131 358.367689,262.204977 360.426029,264.189566" id="Fill-211"/>
                            <path d="M629.82616,186.621976 L630.300023,187.110718 C633.335704,190.265325 633.217239,195.271228 630.063092,198.307352 C626.908944,201.328666 621.874156,201.224993 618.838474,198.055576 C615.669519,195.019452 615.58067,189.998739 618.616351,186.844131 C619.667734,185.733354 620.985664,185.007646 622.362826,184.652198 C624.924645,184.000542 627.76782,184.637387 629.82616,186.621976" id="Fill-213"/>
                            <path d="M469.01856,250.303384 L469.963895,251.278772 C476.034723,257.589235 475.81316,267.594348 469.491227,273.668353 C463.169295,279.72758 453.110333,279.505901 447.039506,273.18066 C440.717574,267.106654 440.525552,257.071984 446.59638,250.746742 C448.693843,248.529952 451.337829,247.066871 454.099981,246.372276 C459.225473,245.056981 464.912258,246.342719 469.01856,250.303384" id="Fill-219"/>
                            <path d="M136.661734,471.297838 L137.606903,472.273225 C143.67666,478.583688 143.455136,488.588801 137.134319,494.662807 C130.813501,500.722033 120.756312,500.500354 114.686554,494.175113 C108.365737,488.101108 108.158981,478.066437 114.243506,471.741196 C116.3406,469.524405 118.98412,468.061324 121.745785,467.36673 C126.870374,466.051434 132.556156,467.337172 136.661734,471.297838" id="Fill-221"/>
                            <path d="M247.935701,235.66799 L248.88087,236.643378 C254.950628,242.953841 254.729104,252.958954 248.408286,259.032959 C242.087468,265.092186 232.030279,264.870507 225.960522,258.545265 C219.639704,252.47126 219.432948,242.43659 225.517474,236.111348 C227.614567,233.894558 230.258087,232.431476 233.019753,231.736882 C238.144341,230.421586 243.830123,231.707325 247.935701,235.66799" id="Fill-223"/>
                            <path d="M1012.83652,942.462124 C1009.31018,942.760704 1005.67315,941.896392 1002.52633,939.759185 C995.283892,934.840464 993.43375,925.018737 998.383276,917.805661 L998.968363,916.972778 C1004.06021,909.853991 1014.0067,908.188226 1021.13844,913.24838 C1028.286,918.308533 1029.9622,928.16169 1024.88617,935.264762 L1024.61734,935.626202 C1021.8026,939.71204 1017.42235,942.069255 1012.83652,942.462124" id="Fill-225"/>
                            <path d="M438.27275,1058.1825 L439.217919,1059.1577 C445.287677,1065.46695 445.066153,1075.47013 438.745335,1081.54297 C432.424517,1087.60102 422.367328,1087.37939 416.297571,1081.05537 C409.976753,1074.98253 409.769997,1064.94979 415.854523,1058.62577 C417.951616,1056.40941 420.595136,1054.94661 423.356802,1054.23737 C428.48139,1052.93711 434.167172,1054.2226 438.27275,1058.1825" id="Fill-229"/>
                            <path d="M658.237862,1148.79458 C650.108286,1149.47972 641.876452,1145.95123 636.848726,1138.79148 C629.298617,1128.03472 631.838044,1113.18423 642.541134,1105.59626 L643.734154,1104.75696 C654.505416,1097.30602 669.281815,1100.09798 676.678536,1110.97464 C684.075257,1121.83417 681.297226,1136.66753 670.491877,1144.08422 L669.878324,1144.52956 C666.316309,1147.06459 662.277086,1148.45201 658.237862,1148.79458" id="Fill-231"/>
                            <path d="M614.111172,2.76836231 L614.59623,3.26269427 C617.703633,6.4533824 617.582369,11.5165401 614.353701,14.5873902 C611.125034,17.6432605 605.971292,17.5384022 602.863889,14.3327343 C599.620063,11.2618842 599.513957,6.18374678 602.636518,2.99305865 C603.71274,1.86957692 605.061808,1.13556885 606.471508,0.776054694 C609.093853,0.116945409 612.004201,0.761074938 614.111172,2.76836231" id="Fill-237"/>
                            <path d="M565.405336,106.127308 L565.879031,106.61605 C568.91364,109.770657 568.795216,114.776559 565.642184,117.812684 C562.489151,120.833997 557.456141,120.730325 554.421532,117.560907 C551.253696,114.524783 551.150075,109.50407 554.199487,106.349463 C555.250498,105.238686 556.567962,104.512978 557.944639,104.157529 C560.505553,103.505873 563.347723,104.142719 565.405336,106.127308" id="Fill-240"/>
                            <path d="M120.556291,345.433447 L121.50146,346.408835 C127.571218,352.719298 127.349694,362.724411 121.028876,368.798416 C114.708058,374.857643 104.650869,374.635964 98.5811118,368.310722 C92.260294,362.236717 92.0535382,352.202047 98.1380638,345.876805 C100.235158,343.660015 102.878677,342.196933 105.640343,341.502339 C110.764931,340.187043 116.450714,341.472782 120.556291,345.433447" id="Fill-242"/>
                            <path d="M903.032932,960.024045 C899.503064,960.324344 895.864399,959.459482 892.721366,957.321352 C885.480302,952.408456 883.61866,942.570652 888.574981,935.375482 L889.167322,934.534644 C894.256617,927.411546 904.205525,925.753894 911.337791,930.810933 C918.470058,935.867973 920.150372,945.7298 915.085254,952.816863 L914.819305,953.189234 C912.002664,957.273304 907.626595,959.639662 903.032932,960.024045" id="Fill-248"/>
                            <path d="M278.864541,439.133347 C286.055315,444.22414 287.623958,454.281896 282.501573,461.422765 C277.518006,468.646187 267.564754,470.503638 260.262926,465.577952 C252.97498,460.624748 251.100936,450.759618 256.084504,443.536195 L256.681421,442.683144 C259.485545,438.789375 263.719495,436.560433 268.14779,436.188943 C271.798704,435.886247 275.602318,436.84937 278.864541,439.133347" id="Fill-250"/>
                            <path d="M550.764025,1085.23518 L551.23772,1085.72393 C554.272329,1088.87853 554.153905,1093.88444 551.000872,1096.92056 C547.847839,1099.94187 542.814829,1099.8382 539.78022,1096.66878 C536.612384,1093.63266 536.508764,1088.61195 539.558176,1085.45734 C540.609187,1084.34656 541.926651,1083.62085 543.303327,1083.26541 C545.864241,1082.61375 548.706412,1083.25059 550.764025,1085.23518" id="Fill-254"/>
                            <path d="M168.872619,266.402318 L169.817788,267.377706 C175.887546,273.688169 175.666022,283.693282 169.345204,289.767287 C163.024386,295.826514 152.967197,295.604835 146.89744,289.279593 C140.576622,283.205588 140.369866,273.170918 146.454392,266.845676 C148.551485,264.628886 151.195005,263.165804 153.956671,262.47121 C159.081259,261.155914 164.767041,262.441653 168.872619,266.402318" id="Fill-258"/>
                            <path d="M373.85098,156.636861 L374.796149,157.612249 C380.865906,163.922712 380.644382,173.927825 374.323564,180.00183 C368.002747,186.061057 357.945557,185.839378 351.8758,179.514136 C345.554982,173.440131 345.348227,163.405461 351.432752,157.080219 C353.529846,154.863429 356.173366,153.400347 358.935031,152.705753 C364.05962,151.390458 369.745402,152.676196 373.85098,156.636861" id="Fill-260"/>
                            <path d="M533.44033,202.006583 L534.385666,202.981971 C540.456493,209.292434 540.23493,219.297547 533.912998,225.371552 C527.591066,231.430779 517.532104,231.2091 511.461276,224.883859 C505.139344,218.809853 504.947323,208.775183 511.01815,202.449941 C513.115614,200.233151 515.759599,198.77007 518.521752,198.075475 C523.647244,196.76018 529.334028,198.045918 533.44033,202.006583" id="Fill-262"/>
                            <path d="M194.781097,578.699817 C203.298608,581.062636 208.24426,589.843857 205.831164,598.225397 C203.752557,606.689224 195.115585,611.896829 186.49056,609.851404 C177.889426,607.805979 172.59734,599.27162 174.687893,590.819548 L175.022382,589.538219 C176.874015,583.037529 182.608104,578.688062 189.035062,578.159073 C190.922533,577.994498 192.845842,578.159073 194.781097,578.699817" id="Fill-264"/>
                            <path d="M757.206516,1102.79766 L757.680211,1103.2864 C760.71482,1106.44101 760.596397,1111.44691 757.443364,1114.48303 C754.290331,1117.50435 749.257321,1117.40067 746.222712,1114.23126 C743.054876,1111.19513 742.951255,1106.17442 746.000667,1103.01981 C747.051678,1101.90903 748.369143,1101.18333 749.745819,1100.82788 C752.306733,1100.17622 755.148903,1100.81307 757.206516,1102.79766" id="Fill-268"/>
                            <path d="M834.805467,1117.43305 L835.279162,1117.92179 C838.313771,1121.0764 838.195347,1126.0823 835.042315,1129.11843 C831.889282,1132.13974 826.856272,1132.03607 823.821663,1128.86665 C820.653827,1125.83053 820.550206,1120.80981 823.599618,1117.65521 C824.650629,1116.54443 825.968093,1115.81872 827.34477,1115.46327 C829.905684,1114.81162 832.747854,1115.44846 834.805467,1117.43305" id="Fill-270"/>
                            <path d="M944.615303,802.770272 L945.088998,803.259077 C948.123607,806.414094 948.005183,811.420646 944.852151,814.457165 C941.699118,817.478871 936.666108,817.375185 933.631499,814.205356 C930.463663,811.168837 930.360042,806.147473 933.409454,802.992456 C934.460465,801.881534 935.77793,801.155732 937.154606,800.800238 C939.71552,800.148497 942.55769,800.800238 944.615303,802.770272" id="Fill-274"/>
                            <path d="M804.057767,390.053956 L804.531629,390.542698 C807.567311,393.697305 807.448845,398.703208 804.294698,401.739332 C801.140551,404.760646 796.105762,404.656974 793.070081,401.487556 C789.901125,398.451432 789.812276,393.430719 792.847958,390.276112 C793.89934,389.165334 795.21727,388.439627 796.594433,388.084178 C799.156252,387.432522 801.999427,388.069368 804.057767,390.053956" id="Fill-280"/>
                            <path d="M536.122713,343.220695 L536.596408,343.709437 C539.631017,346.864044 539.512593,351.869946 536.359561,354.906071 C533.206528,357.927384 528.173518,357.823712 525.138909,354.654294 C521.971073,351.61817 521.867452,346.597457 524.916864,343.44285 C525.967875,342.332073 527.285339,341.606365 528.662016,341.250916 C531.22293,340.59926 534.0651,341.236106 536.122713,343.220695" id="Fill-282"/>
                            <path d="M166.793549,166.883446 L167.470695,166.973392 C171.783821,167.588024 174.757376,171.635595 174.153833,176.02796 C173.550289,180.420324 169.546295,183.478489 165.233169,182.863858 C160.890601,182.429119 157.725679,178.486484 158.167296,174.079129 C158.314502,172.535055 158.888604,171.125901 159.742397,169.986585 C161.346939,167.857862 163.9672,166.598617 166.793549,166.883446" id="Fill-284"/>
                            <path d="M315.03891,455.91323 L315.512605,456.401972 C318.547214,459.556579 318.42879,464.562482 315.275757,467.598606 C312.122725,470.61992 307.089715,470.516248 304.055106,467.34683 C300.88727,464.310706 300.783649,459.289993 303.833061,456.135386 C304.884072,455.024609 306.201536,454.298901 307.578213,453.943452 C310.139127,453.291796 312.981297,453.928642 315.03891,455.91323" id="Fill-286"/>
                            <path d="M234.511697,596.413015 L234.985392,596.901757 C238.020001,600.056364 237.901577,605.062267 234.748544,608.098391 C231.595512,611.119705 226.562501,611.016033 223.527892,607.846615 C220.360057,604.810491 220.256436,599.789778 223.305848,596.635171 C224.356859,595.524393 225.674323,594.798686 227.051,594.443237 C229.611913,593.791581 232.454084,594.428427 234.511697,596.413015" id="Fill-288"/>
                            <path d="M739.636943,264.187763 L740.110638,264.676568 C743.145247,267.831585 743.026823,272.838138 739.87379,275.874656 C736.720757,278.896362 731.687747,278.792676 728.653138,275.622847 C725.485302,272.586329 725.381682,267.564964 728.431094,264.409947 C729.482105,263.299026 730.799569,262.573224 732.176245,262.217729 C734.737159,261.565988 737.57933,262.217729 739.636943,264.187763" id="Fill-294"/>
                            <path d="M958.039308,884.021307 L958.984477,884.996507 C965.054234,891.305754 964.83271,901.308939 958.511892,907.381774 C952.191074,913.439833 942.133885,913.218196 936.064128,906.894174 C929.74331,900.821339 929.536554,890.773827 935.62108,884.46458 C937.718174,882.248217 940.361693,880.785417 943.123359,880.076181 C948.247947,878.775915 953.93373,880.061405 958.039308,884.021307" id="Fill-302"/>
                            <path d="M722.314193,1105.01041 L723.259362,1105.9858 C729.329119,1112.29626 729.107595,1122.30137 722.786777,1128.37538 C716.46596,1134.4346 706.40877,1134.21293 700.339013,1127.88768 C694.018195,1121.81368 693.81144,1111.77901 699.895965,1105.45377 C701.993059,1103.23698 704.636579,1101.7739 707.398244,1101.0793 C712.522833,1099.76401 718.208615,1101.04974 722.314193,1105.01041" id="Fill-304"/>
                            <path d="M120.556291,250.308736 L121.50146,251.283936 C127.571218,257.593182 127.349694,267.596367 121.028876,273.669202 C114.708058,279.727261 104.650869,279.505625 98.5811118,273.181602 C92.260294,267.108768 92.0535382,257.061255 98.1380638,250.752008 C100.235158,248.535645 102.878677,247.072846 105.640343,246.36361 C110.764931,245.063343 116.450714,246.348834 120.556291,250.308736" id="Fill-310"/>
                            <path d="M264.041144,171.277607 L264.986313,172.252807 C271.05607,178.562053 270.834546,188.565239 264.513728,194.638073 C258.192911,200.696132 248.135721,200.474496 242.065964,194.150473 C235.745146,188.077639 235.538391,178.030126 241.622916,171.720879 C243.72001,169.504516 246.36353,168.041717 249.110427,167.332481 C254.249784,166.032214 259.935566,167.317705 264.041144,171.277607" id="Fill-314"/>
                            <path d="M357.744592,218.110868 L358.689928,219.086068 C364.760755,225.395315 364.539192,235.3985 358.21726,241.471335 C351.895328,247.529394 341.836366,247.307758 335.765539,240.983735 C329.443606,234.9109 329.251585,224.878164 335.322413,218.554141 C337.419876,216.337778 340.063862,214.874978 342.811243,214.165742 C347.951506,212.865476 353.638291,214.150966 357.744592,218.110868" id="Fill-318"/>
                            <path d="M643.251111,202.006583 L644.19628,202.981971 C650.266037,209.292434 650.044513,219.297547 643.723695,225.371552 C637.402878,231.430779 627.345689,231.2091 621.275931,224.883859 C614.955113,218.809853 614.748358,208.775183 620.832883,202.449941 C622.929977,200.233151 625.573497,198.77007 628.335162,198.075475 C633.459751,196.76018 639.145533,198.045918 643.251111,202.006583" id="Fill-320"/>
                            <path d="M523.7453,1163.45641 C518.332039,1163.92027 512.831467,1161.56337 509.488715,1156.7869 C504.449642,1149.61593 506.145964,1139.71196 513.280493,1134.65968 L514.078762,1134.09553 C521.25071,1129.13101 531.104343,1130.99898 536.043632,1138.24517 C540.970448,1145.47883 539.111978,1155.37026 531.915084,1160.32224 L531.503477,1160.61059 C529.133616,1162.30304 526.439458,1163.23075 523.7453,1163.45641" id="Fill-322"/>
                            <path d="M903.028418,1021.49456 C898.443924,1021.88141 893.715036,1020.26144 890.249592,1016.67091 C884.160999,1010.33611 884.341491,1000.24152 890.658707,994.112236 C896.843563,987.886234 907.059404,987.704895 913.256292,993.942986 C919.477246,1000.16899 919.645705,1010.10641 913.448817,1016.3445 L912.714817,1017.06986 C909.97134,1019.72951 906.541994,1021.19232 903.028418,1021.49456" id="Fill-324"/>
                            <path d="M643.251111,1167.9426 L644.19628,1168.91799 C650.266037,1175.22845 650.044513,1185.23357 643.723695,1191.30757 C637.402878,1197.3668 627.345689,1197.14512 621.275931,1190.81988 C614.955113,1184.74587 614.748358,1174.7112 620.832883,1168.38596 C622.929977,1166.16917 625.573497,1164.70609 628.335162,1164.0115 C633.459751,1162.6962 639.145533,1163.98194 643.251111,1167.9426" id="Fill-334"/>
                            <path d="M187.594428,393.522096 C206.184342,404.626685 211.917391,428.946652 200.760352,447.377822 C189.927825,465.977244 165.898468,472.386091 147.07676,461.694482 C128.270505,450.956987 121.795713,427.172365 132.62824,408.542353 L133.941742,406.370381 C140.061115,396.305891 149.99737,390.065296 160.768085,388.336896 C169.668991,386.899111 179.15711,388.551034 187.594428,393.522096" id="Fill-338"/>
                            <path d="M310.278401,24.9201222 L310.955547,25.0100682 C315.268674,25.6246994 318.242228,29.6722708 317.638685,34.0646353 C317.035142,38.4569998 313.031147,41.5151648 308.718021,40.9005336 C304.375453,40.4657944 301.210531,36.5231601 301.652148,32.1158046 C301.799354,30.5717311 302.373456,29.1625766 303.227249,28.0232602 C304.831791,25.8945375 307.452052,24.6352931 310.278401,24.9201222" id="Fill-346"/>
                            <path d="M597.616221,59.294046 L598.089916,59.7827879 C601.124525,62.9373951 601.006102,67.9432976 597.853069,70.9794219 C594.700036,74.0007359 589.667026,73.8970633 586.632417,70.7276458 C583.464581,67.6915215 583.36096,62.6708086 586.410372,59.5162014 C587.461383,58.4054242 588.778848,57.6797165 590.155524,57.3242678 C592.716438,56.6726118 595.558608,57.3094574 597.616221,59.294046" id="Fill-352"/>
                            <path d="M59.0627833,218.105517 L60.0079523,219.080905 C66.0777096,225.391368 65.8561856,235.396481 59.5353678,241.470486 C53.21455,247.529713 43.1573609,247.308034 37.0876036,240.982792 C30.7667858,234.908787 30.5600301,224.874117 36.6445556,218.548875 C38.7416494,216.332085 41.385169,214.869003 44.1468347,214.174409 C49.271423,212.859113 54.9572053,214.144852 59.0627833,218.105517" id="Fill-354"/>
                            <path d="M105.91498,282.501252 L106.860149,283.476639 C112.929906,289.787102 112.708382,299.792216 106.387564,305.866221 C100.066747,311.925448 90.0095576,311.703768 83.9398003,305.378527 C77.6189825,299.304522 77.4122268,289.269851 83.4967523,282.94461 C85.5938461,280.727819 88.2373657,279.264738 90.9990314,278.570144 C96.1236197,277.254848 101.809402,278.540586 105.91498,282.501252" id="Fill-356"/>
                            <path d="M422.167308,188.834728 L423.112477,189.810116 C429.182234,196.120579 428.96071,206.125692 422.639892,212.199698 C416.319074,218.258924 406.261885,218.037245 400.192128,211.712004 C393.87131,205.637998 393.664555,195.603328 399.74908,189.278086 C401.846174,187.061296 404.489693,185.598215 407.251359,184.90362 C412.375947,183.588325 418.06173,184.874063 422.167308,188.834728" id="Fill-358"/>
                            <path d="M278.620848,290.15614 C289.662178,303.844704 287.081867,324.183281 273.32521,335.152065 C259.778578,346.374895 239.601148,344.462083 228.394798,330.952844 C217.188448,317.413718 219.063674,297.388962 232.655311,286.181076 L234.155492,284.955681 C238.536019,281.45882 243.531621,279.306906 248.692243,278.470051 C259.62856,276.706677 271.104942,280.846122 278.620848,290.15614" id="Fill-362"/>
                            <path d="M1005.35271,848.765995 C1000.0644,849.217907 994.607675,847.912384 989.891988,844.715528 C979.029065,837.334304 976.233337,822.588595 983.660544,811.792928 L984.553156,810.520881 C992.182465,799.842376 1007.10425,797.365231 1017.79875,804.947304 C1028.5101,812.529377 1031.03636,827.325298 1023.42389,837.970328 L1023.03653,838.522665 C1018.80926,844.648578 1012.24098,848.180184 1005.35271,848.765995" id="Fill-366"/>
                            <path d="M294.622478,364.047118 C303.926934,373.315997 303.943229,388.351454 294.655068,397.636623 L293.563302,398.728037 C284.112191,407.850308 269.071889,407.589672 259.979269,398.125316 C250.837764,388.693539 251.114779,373.658082 260.549595,364.552101 L261.038445,364.079697 C265.14479,359.925806 270.424376,357.645238 275.834322,357.189125 C282.564165,356.618983 289.489547,358.899551 294.622478,364.047118" id="Fill-372"/>
                            <path d="M471.700943,296.387433 L472.174638,296.876175 C475.209247,300.030782 475.090823,305.036685 471.93779,308.072809 C468.784757,311.094123 463.751747,310.99045 460.717138,307.821033 C457.549302,304.784908 457.445682,299.764196 460.495094,296.609588 C461.546105,295.498811 462.863569,294.773103 464.240245,294.417655 C466.801159,293.765999 469.64333,294.402844 471.700943,296.387433" id="Fill-378"/>
                            <path d="M344.321533,312.484564 L344.795228,312.973369 C347.829837,316.128386 347.711413,321.134939 344.55838,324.171457 C341.405348,327.193163 336.372337,327.089477 333.337728,323.919648 C330.169893,320.88313 330.066272,315.861765 333.115684,312.706748 C334.166695,311.595827 335.484159,310.870025 336.860836,310.51453 C339.421749,309.862789 342.26392,310.51453 344.321533,312.484564" id="Fill-380"/>
                            <path d="M485.124947,140.543279 L486.070116,141.518479 C492.139873,147.827725 491.918349,157.830911 485.597532,163.903745 C479.291482,169.961804 469.219525,169.740168 463.149767,163.416145 C456.82895,157.343311 456.622194,147.310574 462.706719,140.986551 C464.803813,138.770188 467.447333,137.307389 470.208998,136.598153 C475.333587,135.297886 481.019369,136.583377 485.124947,140.543279" id="Fill-388"/>
                            <path d="M201.08256,345.433447 L202.027895,346.408835 C208.098723,352.719298 207.87716,362.724411 201.555228,368.798416 C195.233295,374.857643 185.174333,374.635964 179.103506,368.310722 C172.781574,362.236717 172.589552,352.202047 178.66038,345.876805 C180.757843,343.660015 183.401829,342.196933 186.163981,341.502339 C191.289473,340.187043 196.976258,341.472782 201.08256,345.433447" id="Fill-390"/>
                            <path d="M850.91091,991.566857 L851.384605,992.055663 C854.419214,995.21068 854.30079,1000.21723 851.147757,1003.25375 C847.994724,1006.27546 842.961714,1006.17177 839.927105,1003.00194 C836.75927,999.965423 836.655649,994.944059 839.705061,991.789042 C840.756072,990.67812 842.073536,989.952318 843.450212,989.596824 C846.011126,988.945083 848.853297,989.596824 850.91091,991.566857" id="Fill-398"/>
                            <path d="M757.206516,1151.09446 L757.680211,1151.5832 C760.71482,1154.73781 760.596397,1159.74371 757.443364,1162.77983 C754.290331,1165.80115 749.257321,1165.69747 746.222712,1162.52806 C743.054876,1159.49193 742.951255,1154.47122 746.000667,1151.31661 C747.051678,1150.20584 748.369143,1149.48013 749.745819,1149.12468 C752.306733,1148.47302 755.148903,1149.10987 757.206516,1151.09446" id="Fill-402"/>
                            <path d="M565.405336,1165.72805 L565.879031,1166.21685 C568.91364,1169.37187 568.795216,1174.37842 565.642184,1177.41494 C562.489151,1180.43665 557.456141,1180.33296 554.421532,1177.16313 C551.253696,1174.12662 551.150075,1169.10525 554.199487,1165.95023 C555.250498,1164.83931 556.567962,1164.11351 557.944639,1163.75802 C560.505553,1163.10627 563.347723,1163.75802 565.405336,1165.72805" id="Fill-404"/>
                            <path d="M739.636943,1165.72985 L740.110638,1166.21859 C743.145247,1169.3732 743.026823,1174.3791 739.87379,1177.41523 C736.720757,1180.43654 731.687747,1180.33287 728.653138,1177.16345 C725.485302,1174.12733 725.381682,1169.10661 728.431094,1165.95201 C729.482105,1164.84123 730.799569,1164.11552 732.176245,1163.76007 C734.737159,1163.10842 737.57933,1163.74526 739.636943,1165.72985" id="Fill-406"/>
                            <path d="M536.122713,1180.36525 L536.596408,1180.85399 C539.631017,1184.0086 539.512593,1189.0145 536.359561,1192.05062 C533.206528,1195.07194 528.173518,1194.96826 525.138909,1191.79885 C521.971073,1188.76272 521.867452,1183.74201 524.916864,1180.5874 C525.967875,1179.47662 527.285339,1178.75092 528.662016,1178.39547 C531.22293,1177.74381 534.0651,1178.38066 536.122713,1180.36525" id="Fill-408"/>
                            <path d="M1041.24796,1007.66759 L1041.72165,1008.15634 C1044.75626,1011.31094 1044.63784,1016.31685 1041.48481,1019.35297 C1038.33177,1022.37428 1033.29876,1022.27061 1030.26415,1019.10119 C1027.09632,1016.06507 1026.9927,1011.04436 1030.04211,1007.88975 C1031.09312,1006.77897 1032.41059,1006.05326 1033.78726,1005.69782 C1036.34818,1005.04616 1039.19035,1005.68301 1041.24796,1007.66759" id="Fill-410"/>
                            <path d="M787.95327,1023.76653 L788.426965,1024.25527 C791.461574,1027.40988 791.343151,1032.41578 788.190118,1035.4519 C785.037085,1038.47322 780.004075,1038.36954 776.969466,1035.20013 C773.80163,1032.164 773.698009,1027.14329 776.747421,1023.98868 C777.798432,1022.87791 779.115897,1022.1522 780.492573,1021.79675 C783.053487,1021.14509 785.895657,1021.78194 787.95327,1023.76653" id="Fill-412"/>
                            <path d="M976.826188,864.24073 L977.299883,864.729472 C980.334492,867.884079 980.216069,872.889982 977.063036,875.926106 C973.910003,878.94742 968.876993,878.843747 965.842384,875.67433 C962.674548,872.638206 962.570927,867.617493 965.620339,864.462886 C966.67135,863.352108 967.988815,862.626401 969.365491,862.270952 C971.926405,861.619296 974.768575,862.256142 976.826188,864.24073" id="Fill-414"/>
                            <path d="M1057.3534,943.271859 L1057.8271,943.760601 C1060.86171,946.915208 1060.74328,951.921111 1057.59025,954.957235 C1054.43722,957.978549 1049.40421,957.874876 1046.3696,954.705459 C1043.20176,951.669335 1043.09814,946.648622 1046.14755,943.494015 C1047.19856,942.383237 1048.51603,941.65753 1049.8927,941.302081 C1052.45362,940.650425 1055.29579,941.287271 1057.3534,943.271859" id="Fill-416"/>
                            <path d="M867.016352,959.370793 L867.490047,959.859535 C870.524656,963.014142 870.406233,968.020044 867.2532,971.056169 C864.100167,974.077483 859.067157,973.97381 856.032548,970.804393 C852.864712,967.768268 852.761091,962.747555 855.810503,959.592948 C856.861514,958.482171 858.178979,957.756463 859.555655,957.401015 C862.116569,956.749359 864.958739,957.386204 867.016352,959.370793" id="Fill-418"/>
                            <path d="M613.721664,1133.53198 L614.195359,1134.02073 C617.229968,1137.17533 617.111544,1142.18124 613.958511,1145.21736 C610.805479,1148.23867 605.772469,1148.135 602.73786,1144.96558 C599.570024,1141.92946 599.466403,1136.90875 602.515815,1133.75414 C603.566826,1132.64336 604.88429,1131.91765 606.260967,1131.56221 C608.821881,1130.91055 611.664051,1131.5474 613.721664,1133.53198" id="Fill-420"/>
                            <path d="M645.932549,1212.56311 L646.406244,1213.05186 C649.440853,1216.20646 649.322429,1221.21237 646.169397,1224.24849 C643.016364,1227.2698 637.983354,1227.16613 634.948745,1223.99671 C631.780909,1220.96059 631.677288,1215.93988 634.7267,1212.78527 C635.777711,1211.67449 637.095176,1210.94878 638.471852,1210.59334 C641.032766,1209.94168 643.874936,1210.57852 645.932549,1212.56311" id="Fill-422"/>
                            <path d="M597.616221,1228.66205 L598.089916,1229.15079 C601.124525,1232.3054 601.006102,1237.3113 597.853069,1240.34742 C594.700036,1243.36874 589.667026,1243.26506 586.632417,1240.09565 C583.464581,1237.05952 583.36096,1232.03881 586.410372,1228.8842 C587.461383,1227.77343 588.778848,1227.04772 590.155524,1226.69227 C592.716438,1226.04061 595.558608,1226.67746 597.616221,1228.66205" id="Fill-424"/>
                            <path d="M629.827107,1085.23518 L630.300802,1085.72393 C633.335411,1088.87853 633.216987,1093.88444 630.063954,1096.92056 C626.910921,1099.94187 621.877911,1099.8382 618.843302,1096.66878 C615.675466,1093.63266 615.571846,1088.61195 618.621258,1085.45734 C619.672268,1084.34656 620.989733,1083.62085 622.366409,1083.26541 C624.927323,1082.61375 627.769494,1083.25059 629.827107,1085.23518" id="Fill-426"/>
                            <path d="M1009.03707,1007.66759 L1009.51077,1008.15634 C1012.54538,1011.31094 1012.42695,1016.31685 1009.27392,1019.35297 C1006.12089,1022.37428 1001.08788,1022.27061 998.053269,1019.10119 C994.885433,1016.06507 994.781813,1011.04436 997.831225,1007.88975 C998.882236,1006.77897 1000.1997,1006.05326 1001.57638,1005.69782 C1004.13729,1005.04616 1006.97946,1005.68301 1009.03707,1007.66759" id="Fill-428"/>
                            <path d="M757.206516,296.387433 L757.680211,296.876175 C760.71482,300.030782 760.596397,305.036685 757.443364,308.072809 C754.290331,311.094123 749.257321,310.99045 746.222712,307.821033 C743.054876,304.784908 742.951255,299.764196 746.000667,296.609588 C747.051678,295.498811 748.369143,294.773103 749.745819,294.417655 C752.306733,293.765999 755.148903,294.402844 757.206516,296.387433" id="Fill-462"/>
                            <path d="M723.5315,343.220695 L724.005195,343.709437 C727.039804,346.864044 726.92138,351.869946 723.768347,354.906071 C720.615315,357.927384 715.582305,357.823712 712.547696,354.654294 C709.37986,351.61817 709.276239,346.597457 712.325651,343.44285 C713.376662,342.332073 714.694126,341.606365 716.070803,341.250916 C718.631717,340.59926 721.473887,341.236106 723.5315,343.220695" id="Fill-464"/>
                            <path d="M502.447697,343.220695 L502.921392,343.709437 C505.956001,346.864044 505.837577,351.869946 502.684544,354.906071 C499.531511,357.927384 494.498501,357.823712 491.463892,354.654294 C488.296057,351.61817 488.192436,346.597457 491.241848,343.44285 C492.292859,342.332073 493.610323,341.606365 494.986999,341.250916 C497.547913,340.59926 500.390084,341.236106 502.447697,343.220695" id="Fill-466"/>
                            <path d="M107.132287,375.418562 L107.605982,375.907304 C110.640591,379.061911 110.522167,384.067814 107.369135,387.103938 C104.216102,390.125252 99.1830917,390.021579 96.1484827,386.852162 C92.9806469,383.816037 92.8770261,378.795325 95.9264381,375.640717 C96.977449,374.52994 98.2949134,373.804232 99.6715897,373.448784 C102.232504,372.797128 105.074674,373.433973 107.132287,375.418562" id="Fill-468"/>
                            <path d="M581.510779,328.5853 L581.984474,329.074042 C585.019083,332.228649 584.900659,337.234552 581.747626,340.270676 C578.594593,343.29199 573.561583,343.188318 570.526974,340.0189 C567.359139,336.982776 567.255518,331.962063 570.30493,328.807456 C571.355941,327.696679 572.673405,326.970971 574.050081,326.615522 C576.610995,325.963866 579.453166,326.600712 581.510779,328.5853" id="Fill-470"/>
                            <path d="M298.933467,328.5853 L299.407162,329.074042 C302.441771,332.228649 302.323348,337.234552 299.170315,340.270676 C296.017282,343.29199 290.984272,343.188318 287.949663,340.0189 C284.781827,336.982776 284.678206,331.962063 287.727618,328.807456 C288.778629,327.696679 290.096094,326.970971 291.47277,326.615522 C294.033684,325.963866 296.875854,326.600712 298.933467,328.5853" id="Fill-472"/>
                            <path d="M360.426975,407.616429 L360.900671,408.105171 C363.93528,411.259778 363.816856,416.265681 360.663823,419.301805 C357.51079,422.323119 352.47778,422.219447 349.443171,419.050029 C346.275335,416.013905 346.171715,410.993192 349.221127,407.838585 C350.272137,406.727808 351.589602,406.0021 352.966278,405.646651 C355.527192,404.994995 358.369363,405.631841 360.426975,407.616429" id="Fill-474"/>
                            <path d="M234.510751,455.91323 L234.984613,456.401972 C238.020295,459.556579 237.901829,464.562482 234.747682,467.598606 C231.593535,470.61992 226.558746,470.516248 223.523065,467.34683 C220.354109,464.310706 220.26526,459.289993 223.300942,456.135386 C224.352324,455.024609 225.670254,454.298901 227.047417,453.943452 C229.609236,453.291796 232.45241,453.928642 234.510751,455.91323" id="Fill-476"/>
                            <path d="M315.03891,390.053956 L315.512605,390.542698 C318.547214,393.697305 318.42879,398.703208 315.275757,401.739332 C312.122725,404.760646 307.089715,404.656974 304.055106,401.487556 C300.88727,398.451432 300.783649,393.430719 303.833061,390.276112 C304.884072,389.165334 306.201536,388.439627 307.578213,388.084178 C310.139127,387.432522 312.981297,388.069368 315.03891,390.053956" id="Fill-478"/>
                            <path d="M282.828025,501.282953 L283.30172,501.771694 C286.336329,504.926302 286.217905,509.932204 283.064872,512.968328 C279.911839,515.989642 274.878829,515.88597 271.84422,512.716552 C268.676385,509.680428 268.572764,504.659715 271.622176,501.505108 C272.673187,500.394331 273.990651,499.668623 275.367327,499.313174 C277.928241,498.661518 280.770412,499.298364 282.828025,501.282953" id="Fill-480"/>
                            <path d="M187.6595,533.48082 L188.133195,533.969562 C191.167804,537.124169 191.04938,542.130072 187.896348,545.166196 C184.743315,548.18751 179.710305,548.083837 176.675696,544.91442 C173.50786,541.878295 173.404239,536.857583 176.453651,533.702975 C177.504662,532.592198 178.822127,531.86649 180.198803,531.511042 C182.759717,530.859386 185.601887,531.496231 187.6595,533.48082" id="Fill-484"/>
                            <path d="M678.143434,233.455238 L678.617129,233.94398 C681.651738,237.098587 681.533315,242.104489 678.380282,245.140614 C675.227249,248.161928 670.194239,248.058255 667.15963,244.888837 C663.991794,241.852713 663.888173,236.832 666.937585,233.677393 C667.988596,232.566616 669.306061,231.840908 670.682737,231.485459 C673.243651,230.833803 676.085821,231.470649 678.143434,233.455238" id="Fill-490"/>
                            <path d="M678.143434,186.621976 L678.617129,187.110718 C681.651738,190.265325 681.533315,195.271228 678.380282,198.307352 C675.227249,201.328666 670.194239,201.224993 667.15963,198.055576 C663.991794,195.019452 663.888173,189.998739 666.937585,186.844131 C667.988596,185.733354 669.306061,185.007646 670.682737,184.652198 C673.243651,184.000542 676.085821,184.637387 678.143434,186.621976" id="Fill-494"/>
                            <path d="M645.932549,296.387433 L646.406244,296.876175 C649.440853,300.030782 649.322429,305.036685 646.169397,308.072809 C643.016364,311.094123 637.983354,310.99045 634.948745,307.821033 C631.780909,304.784908 631.677288,299.764196 634.7267,296.609588 C635.777711,295.498811 637.095176,294.773103 638.471852,294.417655 C641.032766,293.765999 643.874936,294.402844 645.932549,296.387433" id="Fill-496"/>
                            <path d="M678.143434,280.288499 L678.617129,280.777241 C681.651738,283.931848 681.533315,288.937751 678.380282,291.973875 C675.227249,294.995189 670.194239,294.891517 667.15963,291.722099 C663.991794,288.685975 663.888173,283.665262 666.937585,280.510655 C667.988596,279.399878 669.306061,278.67417 670.682737,278.318721 C673.243651,277.667065 676.085821,278.303911 678.143434,280.288499" id="Fill-500"/>
                            <path d="M629.827107,296.387433 L630.300802,296.876175 C633.335411,300.030782 633.216987,305.036685 630.063954,308.072809 C626.910921,311.094123 621.877911,310.99045 618.843302,307.821033 C615.675466,304.784908 615.571846,299.764196 618.621258,296.609588 C619.672268,295.498811 620.989733,294.773103 622.366409,294.417655 C624.927323,293.765999 627.769494,294.402844 629.827107,296.387433" id="Fill-502"/>
                            <path d="M597.616221,328.5853 L598.089916,329.074042 C601.124525,332.228649 601.006102,337.234552 597.853069,340.270676 C594.700036,343.29199 589.667026,343.188318 586.632417,340.0189 C583.464581,336.982776 583.36096,331.962063 586.410372,328.807456 C587.461383,327.696679 588.778848,326.970971 590.155524,326.615522 C592.716438,325.963866 595.558608,326.600712 597.616221,328.5853" id="Fill-506"/>
                            <path d="M389.956422,377.631314 L390.901591,378.606702 C396.971349,384.917165 396.749825,394.922278 390.429007,400.996284 C384.108189,407.05551 374.051,406.833831 367.981243,400.50859 C361.660425,394.434584 361.453669,384.399914 367.538195,378.074672 C369.635289,375.857882 372.278808,374.394801 375.040474,373.700206 C380.165062,372.384911 385.850845,373.670649 389.956422,377.631314" id="Fill-520"/>
                            <path d="M469.01856,314.699119 L469.963895,315.674507 C476.034723,321.98497 475.81316,331.990083 469.491227,338.064088 C463.184066,344.123315 453.110333,343.901636 447.039506,337.576394 C440.717574,331.502389 440.525552,321.467719 446.59638,315.142477 C448.708614,312.925687 451.337829,311.462605 454.099981,310.768011 C459.225473,309.452715 464.912258,310.738454 469.01856,314.699119" id="Fill-522"/>
                            <path d="M722.314193,250.303384 L723.259362,251.278772 C729.329119,257.589235 729.107595,267.594348 722.786777,273.668353 C716.46596,279.72758 706.40877,279.505901 700.339013,273.18066 C694.018195,267.106654 693.81144,257.071984 699.895965,250.746742 C701.993059,248.529952 704.636579,247.066871 707.398244,246.372276 C712.522833,245.056981 718.208615,246.342719 722.314193,250.303384" id="Fill-524"/>
                            <path d="M515.870756,1087.44794 L516.816092,1088.42332 C522.886919,1094.73379 522.665356,1104.7389 516.343424,1110.8129 C510.021492,1116.87213 499.96253,1116.65045 493.891702,1110.32521 C487.56977,1104.25121 487.377749,1094.21654 493.448576,1087.89129 C495.54604,1085.6745 498.190025,1084.21142 500.952178,1083.51683 C506.07767,1082.20153 511.764455,1083.48727 515.870756,1087.44794" id="Fill-526"/>
                            <path d="M839.580491,1069.7345 C828.748863,1070.6524 817.745983,1065.94815 811.067192,1056.39622 C800.991923,1042.03964 804.388402,1022.24735 818.659322,1012.12173 L820.243394,1011.00303 C834.585669,1001.09254 854.308081,1004.80718 864.169287,1019.30719 C874.030493,1033.77851 870.334324,1053.55645 855.920695,1063.4526 L855.092981,1064.04063 C850.355036,1067.4254 844.960628,1069.27555 839.580491,1069.7345" id="Fill-528"/>
                            <path d="M441.33621,291.750608 C446.945392,303.674778 441.930329,317.938055 430.04795,323.618744 L428.230645,324.445345 C416.348266,329.598416 402.578686,324.040838 397.33646,312.063907 C392.041812,300.086975 397.528675,285.981983 409.376106,280.547517 L419.878032,302.003987 L409.690639,280.389231 C412.346701,279.122948 415.107606,278.401869 417.885986,278.155648 C427.461786,277.346633 436.967689,282.482116 441.33621,291.750608" id="Fill-530"/>
                            <path d="M974.14475,993.781413 L975.089919,994.7568 C981.159676,1001.06726 980.938152,1011.07238 974.617335,1017.14638 C968.296517,1023.20561 958.239328,1022.98393 952.16957,1016.65869 C945.848753,1010.58468 945.641997,1000.55001 951.726522,994.224771 C953.823616,992.00798 956.467136,990.544899 959.228802,989.850305 C964.35339,988.535009 970.039172,989.820747 974.14475,993.781413" id="Fill-532"/>
                            <path d="M974.14475,756.688026 L975.089919,757.663413 C981.159676,763.973876 980.938152,773.97899 974.617335,780.052995 C968.296517,786.112221 958.239328,785.890542 952.16957,779.565301 C945.848753,773.491296 945.641997,763.456625 951.726522,757.131384 C953.823616,754.914593 956.467136,753.451512 959.228802,752.756918 C964.35339,751.441622 970.039172,752.72736 974.14475,756.688026" id="Fill-534"/>
                            <path d="M564.188029,266.402318 L565.133198,267.377706 C571.202955,273.688169 570.981431,283.693282 564.660613,289.767287 C558.339796,295.826514 548.282607,295.604835 542.212849,289.279593 C535.892031,283.205588 535.685276,273.170918 541.769801,266.845676 C543.866895,264.628886 546.510415,263.165804 549.257312,262.47121 C554.396669,261.155914 560.082451,262.441653 564.188029,266.402318" id="Fill-536"/>
                            <path d="M373.850035,298.605537 L374.795371,299.580737 C380.866198,305.889983 380.644635,315.893169 374.322703,321.966003 C368.015542,328.024062 357.941809,327.802426 351.870981,321.478403 C345.549049,315.405569 345.357028,305.372832 351.427855,299.048809 C353.540089,296.832446 356.169304,295.369647 358.931457,294.660411 C364.056949,293.360144 369.743733,294.645635 373.850035,298.605537" id="Fill-538"/>
                            <path d="M520.01727,1070.59979 L520.490966,1071.08853 C523.525575,1074.24314 523.407151,1079.24904 520.254118,1082.28517 C517.101085,1085.30648 512.068075,1085.20281 509.033466,1082.03339 C505.86563,1078.99726 505.76201,1073.97655 508.811422,1070.82194 C509.862432,1069.71117 511.179897,1068.98546 512.556573,1068.63001 C515.117487,1067.97835 517.959658,1068.6152 520.01727,1070.59979" id="Fill-542"/>
                            <path d="M502.447697,248.090632 L502.921392,248.579374 C505.956001,251.733981 505.837577,256.739884 502.684544,259.776008 C499.531511,262.797322 494.498501,262.693649 491.463892,259.524232 C488.296057,256.488107 488.192436,251.467395 491.241848,248.312787 C492.292859,247.20201 493.610323,246.476302 494.986999,246.120854 C497.547913,245.469198 500.390084,246.106043 502.447697,248.090632" id="Fill-544"/>
                            <path d="M455.5955,215.892765 L456.069195,216.381506 C459.103804,219.536114 458.98538,224.542016 455.832348,227.57814 C452.679315,230.599454 447.646305,230.495782 444.611696,227.326364 C441.44386,224.29024 441.340239,219.269527 444.389651,216.11492 C445.440662,215.004143 446.758126,214.278435 448.134803,213.922986 C450.695717,213.27133 453.537887,213.908176 455.5955,215.892765" id="Fill-550"/>
                            <path d="M678.143434,312.484564 L678.617129,312.973369 C681.651738,316.128386 681.533315,321.134939 678.380282,324.171457 C675.227249,327.193163 670.194239,327.089477 667.15963,323.919648 C663.991794,320.88313 663.888173,315.861765 666.937585,312.706748 C667.988596,311.595827 669.306061,310.870025 670.682737,310.51453 C673.243651,309.862789 676.085821,310.51453 678.143434,312.484564" id="Fill-552"/>
                            <path d="M597.616221,280.288499 L598.089916,280.777241 C601.124525,283.931848 601.006102,288.937751 597.853069,291.973875 C594.700036,294.995189 589.667026,294.891517 586.632417,291.722099 C583.464581,288.685975 583.36096,283.665262 586.410372,280.510655 C587.461383,279.399878 588.778848,278.67417 590.155524,278.318721 C592.716438,277.667065 595.558608,278.303911 597.616221,280.288499" id="Fill-554"/>
                            <path d="M581.510779,248.090632 L581.984474,248.579374 C585.019083,251.733981 584.900659,256.739884 581.747626,259.776008 C578.594593,262.797322 573.561583,262.693649 570.526974,259.524232 C567.359139,256.488107 567.255518,251.467395 570.30493,248.312787 C571.355941,247.20201 572.673405,246.476302 574.050081,246.120854 C576.610995,245.469198 579.453166,246.106043 581.510779,248.090632" id="Fill-556"/>
                            <path d="M770.630521,345.438798 L771.57569,346.413998 C777.645447,352.723245 777.423923,362.72643 771.103105,368.799265 C764.782287,374.857324 754.725098,374.635688 748.655341,368.311665 C742.334523,362.23883 742.127767,352.191318 748.212293,345.882071 C750.309387,343.665708 752.952906,342.202908 755.714572,341.493672 C760.83916,340.193406 766.524943,341.478897 770.630521,345.438798" id="Fill-558"/>
                            <path d="M231.829314,409.834533 L232.774649,410.809733 C238.845477,417.11898 238.623914,427.122165 232.301982,433.195 C225.980049,439.253059 215.921087,439.031422 209.85026,432.7074 C203.528328,426.634565 203.336306,416.601828 209.407134,410.277806 C211.504597,408.061443 214.148583,406.598643 216.910736,405.889407 C222.036227,404.589141 227.723012,405.874631 231.829314,409.834533" id="Fill-560"/>
                            <path d="M341.640095,424.464576 L342.585264,425.439964 C348.655021,431.750427 348.433497,441.75554 342.112679,447.829545 C335.791861,453.888772 325.734672,453.667093 319.664915,447.341851 C313.344097,441.267846 313.137341,431.233176 319.221867,424.907934 C321.318961,422.691144 323.96248,421.228062 326.709378,420.533468 C331.848734,419.218172 337.534517,420.503911 341.640095,424.464576" id="Fill-562"/>
                            <path d="M578.82934,171.272255 L579.774509,172.247643 C585.844267,178.558106 585.622743,188.563219 579.301925,194.637225 C572.981107,200.696451 562.923918,200.474772 556.854161,194.149531 C550.533343,188.075525 550.326587,178.040855 556.411113,171.715613 C558.508207,169.498823 561.136958,168.035742 563.898624,167.341147 C569.03798,166.025852 574.723763,167.31159 578.82934,171.272255" id="Fill-564"/>
                        </g>
                    </g>
                </g>
            </g>
        </g>
    </g>
</svg>