<?xml version="1.0" encoding="UTF-8" standalone="no"?>
<svg width="81px" height="23px" viewBox="0 0 81 23" version="1.1" xmlns="http://www.w3.org/2000/svg" xmlns:xlink="http://www.w3.org/1999/xlink"><script xmlns="" type="text/javascript" charset="utf-8" id="zm-extension"/>
    <!-- Generator: Sketch 43.1 (39012) - http://www.bohemiancoding.com/sketch -->
    <title>jaws</title>
    <desc>Created with Sketch.</desc>
    <defs/>
    <g id="Page-1" stroke="none" stroke-width="1" fill="none" fill-rule="evenodd" opacity="0.900000036">
        <g id="Footer-Copy-2" transform="translate(-1210.000000, -652.000000)" fill="#FFD931">
            <g id="fixed-elements" transform="translate(147.000000, 499.000000)">
                <g id="Group-20" transform="translate(866.000000, 153.000000)">
                    <g id="jaws" transform="translate(197.000000, 0.000000)">
                        <g id="Welcome">
                            <g>
                                <g id="Desktop-HD">
                                    <g id="header">
                                        <g id="JAWS">
                                            <g id="jaws" transform="translate(0.495223, 0.000000)">
                                                <path d="M-7.10542736e-14,18.7312766 C0.641362379,19.8599355 1.55027912,20.7160708 2.72739031,21.3022536 C3.90514159,21.8877936 5.55207313,22.1590317 7.6937882,22.2110939 C9.20694253,22.2477303 10.3802133,22.0028448 11.6603777,21.3742409 C11.7941549,16.4733161 13.6299107,12.3777498 13.6299107,12.3777498 C13.6299107,12.3777498 12.7133129,9.57731313 15.3581327,8.15042093 L15.3581327,0.33722192 L9.5903518,0.334650943 L9.5903518,13.8309945 C9.5903518,15.1383363 9.1851798,15.8074331 8.8427358,16.3582649 C8.49965173,16.9103822 7.96262273,17.184834 7.22844847,17.184834 C6.76630907,17.184834 6.40914321,17.0935643 6.1575909,16.9071685 C5.79082379,16.6237183 4.39224415,15.6782415 4.23862442,15.2193221 L-7.10542736e-14,18.7312766" id="Fill-1"/>
                                                <path d="M16.3009737,19.5713433 C16.3009737,19.5713433 19.7458962,20.1086775 20.0076899,19.6304758 C20.2694835,19.1522741 18.2615455,16.2464274 18.2615455,16.2464274 C18.2615455,16.2464274 21.1803205,18.1354527 21.6315784,17.7999402 C22.0828364,17.4650705 21.3902674,13.9961798 21.3902674,13.9961798 C21.3902674,13.9961798 23.3265161,16.8467505 23.8513835,16.7805479 C24.3762509,16.7149879 25.155231,13.2011051 25.155231,13.2011051 C25.155231,13.2011051 25.7978735,16.9791558 26.3272215,17.1417701 C26.8565695,17.3043844 29.2876018,14.1677925 29.2876018,14.1677925 C29.2876018,14.1677925 28.463816,17.8860679 28.6737629,18.0506105 C28.9906037,18.295496 32.4534484,16.7214154 32.4534484,16.7214154 C32.4534484,16.7214154 30.2566863,19.4582203 30.410306,19.8271555 C30.5639257,20.1967335 34.1899915,20.1690955 34.1899915,20.1690955 C34.1899915,20.1690955 32.7107615,21.5304278 30.8839668,22.2554433 C30.9614168,22.2785821 31.3013004,22.2663699 31.3013004,22.2663699 C31.3013004,22.2663699 37.464012,22.2721547 37.4473699,22.2554433 C37.4473699,18.5339541 36.6011811,15.2347479 35.3754237,12.3951039 C35.564248,12.0795165 35.6775425,11.6938699 35.6775425,11.2741579 C35.6775425,10.2091307 34.9619306,9.34656793 34.0779771,9.34656793 C33.9992469,9.34656793 33.9243573,9.36135107 33.8481875,9.37420593 C30.4999175,3.65313946 26.0231825,0.500478957 26.0231825,0.500478957 C25.5239183,-0.00150429503 24.7129342,-0.00150429503 24.2123899,0.500478957 C24.2123899,0.500478957 19.7708594,3.69234686 16.4270699,9.37934793 C16.3387386,9.36135107 16.2504073,9.34656793 16.1575953,9.34656793 C15.2736418,9.34656793 14.5580299,10.2091307 14.5580299,11.2741579 C14.5580299,11.7060821 14.6790054,12.1000843 14.878071,12.4220991 C13.6420722,15.2643142 12.7901228,18.5596639 12.7901228,22.2554433 L20.0294527,22.2554433 C19.5359493,22.1114686 19.2568734,21.9623519 19.2568734,21.9623519 C17.501768,21.0798641 16.3009737,19.5713433 16.3009737,19.5713433 L16.3009737,19.5713433 Z M16.9576981,11.2741579 C16.9576981,11.9130457 16.5998921,12.4317403 16.1575953,12.4317403 C15.7165787,12.4317403 15.3581327,11.9130457 15.3581327,11.2741579 C15.3581327,10.6352701 15.7165787,10.1172183 16.1575953,10.1172183 C16.5998921,10.1172183 16.9576981,10.6352701 16.9576981,11.2741579 L16.9576981,11.2741579 Z M34.0779771,10.1172183 C34.5202739,10.1172183 34.8787199,10.6352701 34.8787199,11.2741579 C34.8787199,11.9130457 34.5202739,12.4317403 34.0779771,12.4317403 C33.6369604,12.4317403 33.2778743,11.9130457 33.2778743,11.2741579 C33.2778743,10.6352701 33.6369604,10.1172183 34.0779771,10.1172183 L34.0779771,10.1172183 Z" id="Fill-3"/>
                                                <path d="M60.3840759,0.343649363 L55.7934063,12.301906 L50.8519716,0.343649363 L46.2926659,0.343649363 L41.2596995,12.301906 L36.8668153,0.343649363 L29.7042953,0.343649363 C34.1106213,6.57762576 34.5791615,8.140137 34.5791615,8.140137 C37.6048301,9.1890956 36.5749378,12.3674659 36.5749378,12.3674659 C36.5749378,12.3674659 38.6180802,15.2951659 38.7518574,22.2053093 L42.7907762,22.2053093 C42.7907762,22.2053093 47.8391046,17.486281 45.7050705,9.98802673 C53.3847769,12.4516654 54.2322457,22.2053093 54.2322457,22.2053093 L57.7603789,22.2053093 L67.469786,0.343649363 L60.3840759,0.343649363" id="Fill-7"/>
                                                <path d="M64.3237819,10.0381607 C64.9401811,10.8718001 65.7114802,11.5511807 66.6351188,12.0743745 C67.5587573,12.5975683 68.6251347,13.0693426 69.83425,13.4890546 C70.92559,13.8444921 71.7621773,14.2025007 72.344652,14.5617947 C72.9258467,14.9210887 73.2350067,15.3864356 73.2695707,15.9584779 C73.2900533,16.2747081 73.1473153,16.6237183 72.843276,17.0055083 C72.5398773,17.3872984 71.8345067,17.6109734 70.7284447,17.6771761 C69.5282907,17.7485207 68.403026,17.5563401 67.314246,17.2201849 C66.0212799,16.8216835 65.063717,16.3222712 63.9384525,15.7225908 L61.8396229,19.9042849 C63.0282555,20.3355663 64.6937495,21.1859169 67.7379807,21.8961493 C68.810118,22.1468195 69.6915113,22.1924543 70.3405547,22.2098085 C70.990878,22.2271625 71.5381487,22.2226633 71.983646,22.1963108 C73.5761707,22.1018274 74.9709093,21.7598875 76.1710633,21.170491 C77.370578,20.58238 78.2839753,19.7821635 78.914456,18.7724123 C79.5430167,17.7620183 79.816972,16.5928665 79.7369613,15.2662424 C79.6646327,14.0707381 79.320268,13.0905531 78.7089893,12.3231165 C78.0964307,11.5550371 77.2752053,10.8942961 76.2465933,10.3415361 C75.2147807,9.78813327 73.8488453,9.17816893 72.1481467,8.51100047 C71.190584,8.12792487 70.520418,7.79369787 70.1408493,7.50896213 C69.75936,7.2248692 69.557734,6.87264533 69.5314907,6.45357612 C69.5052473,6.00558339 69.663348,5.61672312 70.007072,5.28828081 C70.349516,4.96112399 70.92431,4.77344267 71.7308133,4.72459411 C72.9623313,4.65196401 74.133682,4.82743319 75.2435847,5.25357262 C76.3541273,5.67906931 76.798984,6.21061879 77.716862,6.78073293 L79.7580847,2.79571864 C79.4994913,2.64788747 77.2553627,1.42603067 76.576236,1.17921687 C75.8977487,0.933045833 75.05028,0.683661067 74.0171867,0.515904819 C72.9847347,0.346220339 72.0578953,0.251094192 70.659316,0.409852019 C69.619182,0.527474215 68.5713673,0.78842838 68.0567413,1.67027347 L64.3237819,10.0381607" id="Fill-9"/>
                                            </g>
                                        </g>
                                    </g>
                                </g>
                            </g>
                        </g>
                    </g>
                </g>
            </g>
        </g>
    </g>
</svg>