<?xml version="1.0" encoding="UTF-8"?>
<!-- Generator: Adobe Illustrator 17.0.0, SVG Export Plug-In . SVG Version: 6.00 Build 0)  -->
<!DOCTYPE svg PUBLIC "-//W3C//DTD SVG 1.1//EN" "http://www.w3.org/Graphics/SVG/1.1/DTD/svg11.dtd">
<svg version="1.1" id="Layer_1" xmlns="http://www.w3.org/2000/svg" xmlns:xlink="http://www.w3.org/1999/xlink" x="0px" y="0px" width="841.89px" height="595.28px" viewBox="0 0 841.89 595.28" enable-background="new 0 0 841.89 595.28" xml:space="preserve"><script xmlns="" type="text/javascript" charset="utf-8" id="zm-extension"/>
<g>
	<g>
		<path fill="#003441" d="M359.953,437.95l-12.78,15.613l8.147-40.74L342.45,425.34l9.282-44.893l-222.774-0.607l26.417-90.31    l-15.236-0.214l33.928-44.665l215.528,2.045l16.717-59.413l1.231,2.304c11.298,21.147,33.993,33.772,60.71,33.771    c8.432,0,16.942-1.248,25.295-3.71c14.836-4.372,22.188-11.241,33.056-24.985l2.565-3.244l-9.36,54.063l194.17,1.229    l-10.606,46.527l-48.844,41.096h37.041l-7.545,36.241l-0.209,42.161l-261.987,0.482l-0.07-21.216l-28.92,44.666l-0.915-12.914    l-22.664,36.302l-5.502-5.911l-22.478,38.147L359.953,437.95z"/>
		<path fill="#FFCE60" d="M406.616,190.081c12.197,22.828,36.001,34.328,61.636,34.328c8.448,0,17.096-1.249,25.592-3.753    c15.489-4.565,23.168-12.17,33.583-25.341l-8.866,51.21l194.101,1.229l-10.237,44.908l-50.778,42.724h38.629l-7.303,35.08    l-0.205,41.223l-259.894,0.478l-0.078-23.701l-29.133,44.994l-0.921-13.002l-23.648,37.878l-5.528-5.938l-17.915,30.405    l17.199-50.053l-13.82,16.884l7.985-39.926l-12.843,12.49l8.849-42.799l-222.663-0.607l26.412-90.294l-14.537-0.205l32.35-42.588    l215.805,2.048L406.616,190.081 M406.008,184.484l-1.415,5.029l-15.792,56.125l-214.197-2.032l-1.055-0.01l-0.638,0.84    l-32.35,42.588l-2.517,3.314l4.161,0.059l11.774,0.166l-25.637,87.642l-0.785,2.684l2.796,0.008l220.09,0.6l-8.328,40.279    l-1.387,6.707l4.91-4.775l7.989-7.769l-6.657,33.287l-1.653,8.267l5.34-6.524l6.4-7.818l-13.392,38.973l-6.756,19.662    l10.554-17.912l16.486-27.979l3.609,3.876l1.869,2.007l1.452-2.326l20.226-32.397l0.465,6.556l0.444,6.27l3.416-5.276    l25.291-39.06l0.055,16.631l0.007,2.098l2.098-0.004l259.894-0.478l2.087-0.004l0.01-2.087l0.204-41.012l7.26-34.873l0.527-2.53    h-2.584H657.41l46.369-39.015l0.539-0.454l0.157-0.687l10.237-44.908l0.582-2.552l-2.617-0.017l-191.621-1.213l8.443-48.766    l1.411-8.15l-5.13,6.488c-10.724,13.562-17.966,20.337-32.528,24.629c-8.257,2.434-16.667,3.667-24.998,3.667    c-12.62,0-24.676-2.889-34.865-8.354c-10.821-5.804-19.205-14.169-24.918-24.863L406.008,184.484L406.008,184.484z"/>
	</g>
	<path fill="#FFFFFF" d="M160.661,278.056l20.065-26.617h79.033c0,0,15.561,3.685,13.513,26.617H160.661z"/>
	<polygon fill="#FFFFFF" points="306.306,252.941 299.208,278.056 336.472,278.056 343.57,252.941  "/>
	<polygon fill="#FFFFFF" points="482.253,278.056 499.042,251.439 597.731,251.439 592.953,265.499 585.855,278.056  "/>
	<polygon fill="#FFFFFF" points="607.013,251.439 596.775,267.683 593.363,278.056 696.965,278.056 704.609,251.439  "/>
	<polygon fill="#FFFFFF" points="690.277,292.823 648.235,292.823 585.036,339.754 576.007,370.466 674.307,370.466 681.541,340.3    629.398,340.436  "/>
	<polygon fill="#FFFFFF" points="519.176,292.823 554.597,292.823 534.122,370.466 496.449,370.466  "/>
	<path fill="#FFFFFF" d="M274.073,292.823c-0.001-0.161-106.86,0-106.86,0l-21.908,77.643l92.751-0.887   c0,0,29.688-13.309,29.484-38.902c0-10.033-8.395-22.932-8.395-22.932S272.211,304.928,274.073,292.823z M215.943,340.3h-28.46   l3.481-14.742h27.232c0,0,6.757,0,6.552,7.371C224.543,340.3,215.943,340.3,215.943,340.3z"/>
	
		<text transform="matrix(1 0 0 1 488.5614 407.4199)" fill="#FFCE60" font-family="'MyriadPro-Bold'" font-size="43.9279" letter-spacing="14">лото</text>
	<g>
		<polygon fill="#003441" points="415.373,431.115 404.193,425.047 415.81,419.864 418.125,407.355 426.645,416.803 439.256,415.14     432.905,426.161 438.383,437.643 425.938,435.007 416.712,443.766   "/>
		<path fill="#FFCE60" d="M418.556,408.879l7.815,8.666l11.569-1.525l-5.827,10.111l5.026,10.532l-11.417-2.417l-8.463,8.034    l-1.229-11.605l-10.256-5.566l10.657-4.755L418.556,408.879 M417.695,405.833l-0.517,2.791l-1.99,10.75l-9.984,4.455l-2.592,1.157    l2.495,1.354l9.609,5.215l1.151,10.872l0.299,2.823l2.059-1.954l7.929-7.527l10.696,2.265l2.777,0.588l-1.223-2.562l-4.709-9.867    l5.459-9.473l1.417-2.46l-2.814,0.371l-10.839,1.429l-7.322-8.119L417.695,405.833L417.695,405.833z"/>
	</g>
	<g>
		<polygon fill="#003441" points="304.928,398.58 295.57,392.301 306.246,388.691 309.326,377.851 316.058,386.889 327.32,386.468     320.804,395.663 324.685,406.243 313.926,402.889 305.062,409.849   "/>
		<path fill="#FFCE60" d="M309.612,379.407l6.104,8.196l10.212-0.382l-5.908,8.338l3.519,9.594l-9.756-3.043l-8.037,6.311    l-0.121-10.218l-8.486-5.693l9.681-3.273L309.612,379.407 M309.04,376.293l-0.776,2.731l-2.591,9.122l-8.983,3.037l-2.689,0.909    l2.357,1.582l7.874,5.283l0.112,9.482l0.034,2.839l2.233-1.753l7.458-5.856l9.052,2.823l2.71,0.845l-0.978-2.665l-3.265-8.903    l5.483-7.737l1.641-2.316l-2.837,0.106l-9.476,0.354l-5.664-7.605L309.04,376.293L309.04,376.293z"/>
	</g>
	<g>
		<polygon fill="#003441" points="268.852,413.705 258.942,411.576 266.66,405.005 265.622,394.921 274.256,400.231     283.525,396.129 281.144,405.981 287.91,413.528 277.803,414.309 272.716,423.075   "/>
		<path fill="#FFCE60" d="M266.464,396.262l7.739,4.759l8.308-3.677l-2.135,8.831l6.065,6.765l-9.058,0.699l-4.56,7.858    l-3.464-8.399l-8.883-1.908l6.918-5.89L266.464,396.262 M264.78,393.582l0.291,2.824l0.855,8.305l-6.357,5.412l-2.161,1.84    l2.775,0.596l8.162,1.753l3.183,7.718l1.082,2.624l1.425-2.455l4.19-7.221l8.324-0.642l2.83-0.218l-1.895-2.114l-5.573-6.216    l1.962-8.115l0.667-2.759l-2.596,1.149l-7.634,3.379l-7.112-4.373L264.78,393.582L264.78,393.582z"/>
	</g>
	<polygon fill="#FFCE60" points="299.876,419.033 298.063,418.199 296.348,419.219 296.581,417.237 295.08,415.921 297.037,415.53    297.825,413.697 298.802,415.437 300.789,415.62 299.435,417.086  "/>
	<polygon fill="#FFCE60" points="319.718,426.612 317.715,423.847 314.302,423.93 316.312,421.171 315.178,417.951 318.424,419.01    321.136,416.936 321.132,420.35 323.942,422.289 320.694,423.34  "/>
	<g>
		<polygon fill="#003441" points="328.861,448.191 320.578,444.679 328.404,440.24 329.185,431.277 335.825,437.35 344.59,435.322     340.867,443.513 345.504,451.224 336.563,450.214 330.663,457.007   "/>
		<path fill="#FFCE60" d="M329.76,432.752l5.864,5.363l7.742-1.79l-3.288,7.234l4.095,6.81l-7.896-0.892l-5.211,5.999l-1.592-7.785    l-7.316-3.102l6.912-3.92L329.76,432.752 M328.61,429.802l-0.246,2.828l-0.626,7.182l-6.272,3.556l-2.469,1.4l2.614,1.108    l6.638,2.815l1.444,7.064l0.569,2.781l1.862-2.143l4.728-5.443l7.164,0.809l2.821,0.319l-1.463-2.433l-3.715-6.179l2.983-6.563    l1.175-2.584l-2.766,0.64l-7.024,1.624l-5.32-4.866L328.61,429.802L328.61,429.802z"/>
	</g>
	<polygon fill="#FFCE60" points="461.443,419.758 457.027,421.682 456.109,426.41 452.915,422.805 448.135,423.393 450.576,419.241    448.54,414.877 453.243,415.915 456.765,412.63 457.23,417.424  "/>
	<polygon fill="#FFCE60" points="437.941,446.835 433.525,448.759 432.607,453.486 429.413,449.882 424.633,450.47 427.074,446.318    425.038,441.953 429.741,442.992 433.263,439.707 433.728,444.501  "/>
	<polygon fill="#FFCE60" points="404.703,462.217 402.579,463.82 402.696,466.478 400.516,464.954 398.024,465.887 398.8,463.342    397.143,461.26 399.803,461.211 401.271,458.993 402.139,461.507  "/>
	
		<line fill="none" stroke="#FFCE60" stroke-width="2.1015" stroke-miterlimit="10" x1="682.633" y1="379.612" x2="451.677" y2="379.612"/>
	<path fill="#2C2925" d="M449.203,94.905c-29.251,12.118-43.141,45.655-31.022,74.906c12.118,29.252,45.655,43.141,74.906,31.022   s43.141-45.655,31.022-74.906C511.991,96.676,478.455,82.787,449.203,94.905z M508.509,136.467   c-1.309,3.851-3.57,7.274-6.914,10.408c-0.414-1.821-0.931-3.674-1.587-5.564c-1.15-3.316-2.774-6.452-4.668-9.403   c2.866-2.743,4.754-5.654,5.663-8.764C504.296,127.16,506.798,131.59,508.509,136.467z M501.446,121.126   c0.314-2.018,1.003-4.556,0.842-6.906c2.871,2.649,5.426,5.691,7.579,9.088c0.174,4.06-0.141,8.329-0.621,10.514   C507.366,129.19,504.769,124.966,501.446,121.126z M494.411,130.514c-3.766-5.489-8.448-10.246-12.934-14.099   c2.199-1.872,3.802-3.742,4.874-5.538c5.292,3.143,9.727,6.693,13.309,10.683C498.986,124.738,497.255,127.714,494.411,130.514z    M480.223,147.06l-0.091-0.261c-0.545-1.57-1.15-3.131-1.794-4.678c6.744-2.822,12.007-5.834,15.798-9.091   c1.756,2.775,3.25,5.72,4.325,8.818c0.746,2.149,1.297,4.233,1.727,6.273c-4.048,3.404-9.457,6.477-16.414,9.406   C482.709,154.238,481.511,150.775,480.223,147.06z M468.578,124.018c4.876-2.093,8.694-4.323,11.611-6.574   c4.518,3.853,9.273,8.647,13.028,14.18c-3.656,3.209-8.815,6.191-15.525,8.995C475.105,134.704,471.9,129.047,468.578,124.018z    M470.986,102.014c5.312-0.012,10.548,0.901,15.48,2.652c0.08,1.171-0.177,2.5-0.803,3.924   C481.311,106.144,476.421,103.956,470.986,102.014z M484.909,110.045c-1.012,1.686-2.552,3.471-4.711,5.281   c-5.681-4.712-10.824-7.91-12.977-9.175c1.315-1.209,2.27-2.224,2.762-2.771C475.545,105.338,480.502,107.562,484.909,110.045z    M478.892,116.356c-2.815,2.13-6.51,4.262-11.239,6.273c-2.813-4.138-5.67-7.804-8.262-10.762c2.539-1.401,4.765-3.061,6.538-4.573   C467.644,108.28,472.948,111.466,478.892,116.356z M466.111,123.27c-1.24,0.497-2.526,0.987-3.901,1.464   c-4.534,1.573-8.696,2.725-12.486,3.545c-0.162-4.008-0.095-8.291,0.257-12.966c1.633-0.389,3.309-0.867,4.989-1.45   c1.007-0.349,1.983-0.765,2.925-1.22C460.462,115.545,463.305,119.167,466.111,123.27z M448.101,128.613   c-5.299,1.041-9.799,1.401-13.432,1.284c1.058-5.213,2.96-9.761,5.766-13.557c2.193,0.173,4.93-0.073,7.881-0.662   C447.983,120.336,447.929,124.609,448.101,128.613z M449.806,129.916c4.122-0.875,8.479-2.086,12.941-3.635   c1.519-0.527,2.931-1.071,4.294-1.623c3.327,5.009,6.544,10.662,9.133,16.574c-1.824,0.731-3.716,1.454-5.756,2.161   c-6.459,2.241-12.338,3.864-17.547,4.862C451.278,142.636,450.198,136.677,449.806,129.916z M470.956,144.942   c2.076-0.72,4.004-1.458,5.864-2.204c0.633,1.521,1.229,3.055,1.764,4.598l0.091,0.261c1.325,3.818,2.528,7.298,3.585,10.556   c-2.33,0.945-4.818,1.876-7.482,2.801c-5.306,1.841-10.609,3.186-15.732,4.021c-0.456-1.149-0.912-2.304-1.406-3.464   c-1.647-3.865-3.099-7.706-4.308-11.689C458.597,148.807,464.494,147.184,470.956,144.942z M487.097,169.521   c-0.689-3.3-1.659-6.756-2.822-10.443c6.75-2.854,12.129-5.876,16.26-9.211c0.703,3.996,0.911,7.812,0.91,11.52   c0,0.892,0.076,2.218,0.174,3.555c-3.935,3.27-8.652,6.144-14.206,8.622C487.404,172.143,487.329,170.631,487.097,169.521z    M503.078,161.519c0-4.06-0.249-8.351-1.115-12.859c3.403-3.027,5.839-6.316,7.404-9.964c0.835,2.045,1.841,4.279,1.841,4.279   s-0.3-4.253-0.992-6.57c1.007-3.158,1.399-6.595,1.283-10.338c0.737,1.366,1.411,2.782,2.018,4.247   c1.148,2.772,1.994,5.594,2.571,8.43c-2.561,11.555-6.845,19.425-13.166,25.083C503.015,162.953,503.078,162.139,503.078,161.519z    M500.27,112.457c0.305,2.073-0.215,5.353-0.323,7.015c-3.538-3.728-7.806-7.075-12.836-10.053   c0.661-1.457,0.966-2.843,0.992-4.129C492.483,107.036,496.595,109.444,500.27,112.457z M468.965,102.06   c-0.952,1.075-6.972,7.634-14.53,10.256c-5.371,1.864-10.708,2.744-14.128,2.384l-0.55-0.175l-0.35,0.458   c-3.149,4.126-5.258,9.099-6.387,14.823c-1.334-0.103-2.543-0.27-3.597-0.498c-0.051-0.011-0.112-0.017-0.167-0.026   c4.606-10.389,13.035-19.102,24.337-23.785C458.622,103.414,463.815,102.3,468.965,102.06z M488.699,190.241   c-23.364,9.679-50.246-1.454-59.925-24.818c-4.776-11.529-4.477-23.911-0.149-34.663c0.127,0.063,0.252,0.113,0.37,0.139   c1.132,0.252,2.378,0.423,3.702,0.531c-0.602,3.774-0.79,7.863-0.55,12.265c0.077,1.411,1.06,4.25,1.06,4.25   s0.644-3.031,0.569-4.444c-0.228-4.309-0.033-8.3,0.568-11.973c4.01,0.146,8.714-0.284,13.842-1.275   c0.404,6.732,1.484,12.681,3.066,18.297c-4.811,0.822-9.013,1.082-12.502,0.753c-1.079-0.102-3.207,0.303-3.207,0.303   s2.055,1.242,3.299,1.348c3.618,0.308,7.953,0.006,12.863-0.842c1.237,4.107,2.731,8.062,4.427,12.042   c0.44,1.031,0.843,2.055,1.25,3.079c-2.101,0.299-4.171,0.516-6.19,0.633c-1.167,0.068-3.447,0.853-3.447,0.853   s2.388,0.851,3.605,0.779c2.174-0.128,4.406-0.373,6.671-0.706c1.124,2.544,3.662,6.342,3.662,6.342s-1.095-3.989-2.03-6.594   c5.11-0.855,10.387-2.207,15.66-4.036c2.641-0.916,5.119-1.845,7.445-2.792c1.07,3.387,1.961,6.529,2.612,9.519   c0.285,1.309,0.695,3.13,1.063,4.747c-2.001,0.862-4.08,1.687-6.287,2.453c-2.241,0.777-4.529,1.459-6.83,2.035   c-0.882,0.221-2.482,1.4-2.482,1.4s1.963,0.418,2.856,0.195c2.356-0.589,4.699-1.287,6.993-2.083   c2.144-0.744,4.165-1.545,6.119-2.379c0.277,1.214,0.475,2.073,0.475,2.073s0.073-0.982,0.111-2.321   c5.569-2.423,10.36-5.222,14.387-8.41c0.137,1.601,0.264,2.864,0.264,2.864s0.294-1.635,0.568-3.543   c7.436-6.15,12.122-13.715,14.187-22.787C518.667,163.011,507.753,182.347,488.699,190.241z"/>
	
		<radialGradient id="SVGID_1_" cx="685.9456" cy="-438.43" r="57.3295" gradientTransform="matrix(0.2496 -0.9683 3.8734 0.9985 1997.3879 1249.2076)" gradientUnits="userSpaceOnUse">
		<stop offset="0" style="stop-color:#FCEFA7"/>
		<stop offset="0.1579" style="stop-color:#F5C412"/>
		<stop offset="0.3811" style="stop-color:#FBE985"/>
		<stop offset="0.9" style="stop-color:#BD7836"/>
		<stop offset="0.9946" style="stop-color:#B7702C"/>
	</radialGradient>
	<path fill="url(#SVGID_1_)" d="M448.486,94.222c-29.251,12.118-43.141,45.655-31.022,74.906   c12.118,29.252,45.655,43.141,74.906,31.022c29.251-12.118,43.141-45.655,31.022-74.906   C511.275,95.993,477.738,82.104,448.486,94.222z M507.792,135.785c-1.309,3.851-3.57,7.274-6.914,10.408   c-0.414-1.821-0.931-3.674-1.587-5.564c-1.15-3.316-2.774-6.452-4.668-9.403c2.866-2.743,4.754-5.654,5.663-8.764   C503.58,126.478,506.082,130.908,507.792,135.785z M500.729,120.443c0.314-2.018,1.002-4.556,0.842-6.906   c2.871,2.649,5.426,5.691,7.579,9.088c0.174,4.06-0.141,8.329-0.621,10.514C506.649,128.507,504.052,124.283,500.729,120.443z    M493.694,129.831c-3.766-5.489-8.448-10.246-12.934-14.099c2.199-1.872,3.802-3.742,4.874-5.538   c5.292,3.143,9.727,6.693,13.309,10.683C498.27,124.056,496.539,127.032,493.694,129.831z M479.506,146.378l-0.091-0.261   c-0.545-1.57-1.15-3.131-1.794-4.678c6.744-2.822,12.007-5.834,15.798-9.091c1.756,2.775,3.25,5.72,4.325,8.818   c0.746,2.149,1.297,4.233,1.727,6.273c-4.048,3.404-9.457,6.477-16.414,9.406C481.992,153.556,480.795,150.092,479.506,146.378z    M467.861,123.335c4.876-2.093,8.694-4.323,11.611-6.574c4.518,3.853,9.273,8.647,13.028,14.18   c-3.656,3.209-8.815,6.191-15.525,8.995C474.388,134.022,471.183,128.365,467.861,123.335z M470.269,101.332   c5.312-0.012,10.548,0.901,15.48,2.652c0.08,1.171-0.177,2.5-0.803,3.924C480.595,105.461,475.704,103.273,470.269,101.332z    M484.193,109.363c-1.012,1.686-2.552,3.471-4.711,5.281c-5.681-4.712-10.824-7.91-12.977-9.175   c1.315-1.209,2.27-2.224,2.762-2.771C474.828,104.656,479.786,106.88,484.193,109.363z M478.175,115.674   c-2.815,2.13-6.51,4.262-11.239,6.273c-2.814-4.138-5.67-7.804-8.262-10.762c2.539-1.401,4.765-3.061,6.538-4.573   C466.927,107.598,472.231,110.783,478.175,115.674z M465.395,122.588c-1.24,0.497-2.526,0.987-3.901,1.464   c-4.534,1.573-8.696,2.725-12.486,3.545c-0.162-4.008-0.095-8.291,0.257-12.966c1.633-0.389,3.309-0.867,4.989-1.45   c1.007-0.349,1.983-0.765,2.925-1.22C459.745,114.862,462.588,118.485,465.395,122.588z M447.385,127.931   c-5.299,1.041-9.799,1.401-13.432,1.284c1.058-5.213,2.96-9.761,5.766-13.557c2.193,0.173,4.93-0.073,7.881-0.662   C447.266,119.654,447.213,123.927,447.385,127.931z M449.09,129.234c4.122-0.875,8.479-2.086,12.941-3.635   c1.519-0.527,2.931-1.071,4.294-1.623c3.327,5.009,6.544,10.662,9.133,16.574c-1.824,0.731-3.716,1.454-5.755,2.161   c-6.459,2.241-12.338,3.864-17.547,4.862C450.561,141.953,449.481,135.995,449.09,129.234z M470.239,144.259   c2.076-0.72,4.004-1.458,5.864-2.204c0.633,1.521,1.229,3.055,1.764,4.598l0.091,0.261c1.325,3.818,2.528,7.298,3.585,10.556   c-2.33,0.945-4.818,1.876-7.482,2.801c-5.306,1.841-10.608,3.186-15.732,4.021c-0.456-1.149-0.912-2.304-1.406-3.464   c-1.647-3.865-3.099-7.706-4.308-11.689C457.88,148.124,463.778,146.501,470.239,144.259z M486.38,168.838   c-0.689-3.3-1.659-6.756-2.822-10.443c6.75-2.854,12.129-5.876,16.26-9.211c0.703,3.996,0.911,7.812,0.91,11.52   c0,0.892,0.076,2.218,0.174,3.555c-3.935,3.27-8.652,6.144-14.206,8.622C486.687,171.46,486.612,169.949,486.38,168.838z    M502.361,160.837c0-4.06-0.249-8.351-1.115-12.859c3.403-3.027,5.839-6.316,7.405-9.964c0.835,2.045,1.841,4.279,1.841,4.279   s-0.3-4.253-0.992-6.57c1.007-3.158,1.399-6.595,1.283-10.338c0.737,1.366,1.411,2.782,2.018,4.247   c1.148,2.772,1.994,5.594,2.571,8.43c-2.561,11.555-6.845,19.425-13.166,25.083C502.298,162.271,502.361,161.456,502.361,160.837z    M499.554,111.775c0.305,2.073-0.215,5.353-0.323,7.015c-3.538-3.728-7.806-7.075-12.836-10.053   c0.661-1.457,0.966-2.843,0.992-4.129C491.767,106.353,495.878,108.762,499.554,111.775z M468.248,101.377   c-0.952,1.075-6.972,7.634-14.53,10.256c-5.371,1.864-10.708,2.744-14.128,2.384l-0.55-0.175l-0.35,0.458   c-3.149,4.126-5.258,9.099-6.387,14.823c-1.334-0.103-2.543-0.27-3.597-0.498c-0.051-0.011-0.112-0.017-0.167-0.026   c4.606-10.389,13.035-19.102,24.337-23.785C457.905,102.731,463.098,101.617,468.248,101.377z M487.982,189.558   c-23.364,9.679-50.246-1.454-59.925-24.818c-4.776-11.529-4.477-23.911-0.149-34.663c0.127,0.063,0.252,0.113,0.37,0.139   c1.132,0.252,2.377,0.423,3.702,0.531c-0.602,3.774-0.79,7.863-0.55,12.265c0.077,1.411,1.06,4.25,1.06,4.25   s0.644-3.031,0.569-4.444c-0.228-4.309-0.033-8.3,0.568-11.973c4.01,0.146,8.714-0.284,13.842-1.275   c0.404,6.732,1.484,12.681,3.066,18.297c-4.811,0.822-9.013,1.082-12.502,0.753c-1.079-0.102-3.207,0.303-3.207,0.303   s2.055,1.242,3.299,1.348c3.618,0.308,7.953,0.006,12.863-0.842c1.237,4.107,2.731,8.062,4.427,12.042   c0.44,1.031,0.843,2.055,1.25,3.079c-2.101,0.299-4.171,0.516-6.19,0.633c-1.167,0.068-3.447,0.853-3.447,0.853   s2.388,0.851,3.605,0.779c2.174-0.128,4.406-0.373,6.671-0.706c1.124,2.544,3.662,6.342,3.662,6.342s-1.095-3.989-2.03-6.594   c5.11-0.855,10.387-2.207,15.66-4.036c2.641-0.916,5.119-1.845,7.445-2.792c1.07,3.387,1.961,6.529,2.612,9.519   c0.285,1.309,0.695,3.13,1.063,4.747c-2.001,0.862-4.08,1.687-6.287,2.453c-2.241,0.777-4.529,1.459-6.83,2.035   c-0.882,0.221-2.482,1.4-2.482,1.4s1.963,0.418,2.856,0.195c2.356-0.589,4.699-1.287,6.993-2.083   c2.144-0.744,4.165-1.545,6.119-2.379c0.277,1.214,0.475,2.073,0.475,2.073s0.073-0.982,0.112-2.321   c5.569-2.423,10.36-5.222,14.387-8.41c0.137,1.601,0.264,2.864,0.264,2.864s0.294-1.635,0.568-3.543   c7.436-6.15,12.122-13.715,14.187-22.787C517.951,162.329,507.036,181.664,487.982,189.558z"/>
	<g>
		<linearGradient id="SVGID_2_" gradientUnits="userSpaceOnUse" x1="451.275" y1="122.1697" x2="491.4057" y2="174.5853">
			<stop offset="0" style="stop-color:#C4A141"/>
			<stop offset="0.7432" style="stop-color:#EAE5AE"/>
			<stop offset="0.9892" style="stop-color:#B99D2E"/>
		</linearGradient>
		<path fill="url(#SVGID_2_)" d="M470.429,200.128c-29.193,0-52.942-23.749-52.942-52.942c0-29.191,23.749-52.94,52.942-52.94    c29.191,0,52.94,23.749,52.94,52.94C523.37,176.378,499.62,200.128,470.429,200.128z M470.429,95.884    c-28.289,0-51.304,23.013-51.304,51.302s23.015,51.304,51.304,51.304s51.302-23.015,51.302-51.304S498.718,95.884,470.429,95.884z    "/>
	</g>
	<path fill="#EBC76A" d="M470.429,200.332c-29.305,0-53.147-23.842-53.147-53.147s23.842-53.145,53.147-53.145   c29.305,0,53.145,23.84,53.145,53.145S499.734,200.332,470.429,200.332z M470.429,94.45c-29.079,0-52.737,23.656-52.737,52.736   s23.658,52.737,52.737,52.737s52.736-23.658,52.736-52.737S499.508,94.45,470.429,94.45z M470.429,198.694   c-28.402,0-51.509-23.106-51.509-51.509c0-28.401,23.106-51.507,51.509-51.507c28.401,0,51.507,23.106,51.507,51.507   C521.936,175.588,498.83,198.694,470.429,198.694z M470.429,96.088c-28.177,0-51.099,22.922-51.099,51.098   c0,28.177,22.922,51.099,51.099,51.099c28.175,0,51.098-22.922,51.098-51.099C521.527,119.011,498.605,96.088,470.429,96.088z"/>
	<g>
		<polygon fill="#FFCE60" points="356.153,429.824 428.863,206.348 439.677,210.161   "/>
	</g>
	<g>
		<polygon fill="#FFCE60" points="353.15,467.77 449.853,213.757 460.48,218.061   "/>
	</g>
	<g>
		<polygon fill="#FFCE60" points="373.079,442.655 477.939,213.406 488.255,218.412   "/>
	</g>
	<g>
		<polygon fill="#FFCE60" points="397.921,416.993 508.31,198.434 518.421,203.841   "/>
	</g>
	<polygon fill="#FFFFFF" points="295.59,292.662 333.878,292.662 320.365,342.757 375.238,342.757 352.715,370.466 273.459,369.579     "/>
	<g>
		<g>
			<polygon fill="#FFCE60" points="364.578,359.541 350.693,405.527 369.37,353.645    "/>
		</g>
		<g>
			<polygon fill="#FFCE60" points="373.855,341.185 424.931,199.303 414.045,195.703 370.12,341.185    "/>
		</g>
	</g>
</g>
</svg>