<?xml version="1.0" encoding="UTF-8"?>
<!-- Generator: Adobe Illustrator 17.0.0, SVG Export Plug-In . SVG Version: 6.00 Build 0)  -->
<!DOCTYPE svg PUBLIC "-//W3C//DTD SVG 1.1//EN" "http://www.w3.org/Graphics/SVG/1.1/DTD/svg11.dtd">
<svg version="1.1" id="Layer_1" xmlns="http://www.w3.org/2000/svg" xmlns:xlink="http://www.w3.org/1999/xlink" x="0px" y="0px" width="300px" height="300px" viewBox="0 0 300 300" enable-background="new 0 0 300 300" xml:space="preserve"><script xmlns="" type="text/javascript" charset="utf-8" id="zm-extension"/>
<g>
	<g>
		<path fill="#003C6E" d="M71.437,141.142c4.529-9.068,9.075-18.128,13.595-27.203c9.766,19.519,19.52,39.04,29.284,58.561    c-6.959,0.013-13.918,0.002-20.877,0.006c-7.409-0.003-14.819,0.016-22.229-0.003c0.7-1.362,1.333-2.755,2.013-4.125    c3.952-8.039,7.87-16.095,11.815-24.136c0.149,0.163,0.222,0.377,0.323,0.572c1.132,2.256,2.26,4.516,3.387,6.775    c0.067,0.098,0.011,0.206-0.032,0.301c-1.442,2.953-2.888,5.903-4.329,8.854c-0.827,1.702-1.675,3.393-2.483,5.103    c7.141,0,14.282,0.005,21.424-0.002c-1.596-3.164-3.172-6.337-4.758-9.504c-2.877-5.827-5.8-11.63-8.709-17.441    c-1.602-3.21-3.181-6.432-4.826-9.619c-8.31,16.634-16.631,33.259-24.942,49.893c15.916-0.003,31.833,0.006,47.749,0.005    c3.274,0.003,6.552-0.022,9.827,0.009c1.124,2.285,2.275,4.557,3.411,6.837c-24.022,0-48.045,0.005-72.067-0.003    c1.431-2.932,2.915-5.841,4.367-8.764C59.399,165.221,65.417,153.181,71.437,141.142"/>
		<path fill="#8A8A8D" d="M215.413,149.757c0.45-0.009,0.899,0,1.351-0.006c4.839,9.546,9.671,19.096,14.501,28.647    c4.821-9.545,9.635-19.096,14.452-28.644c0.467,0,0.936-0.003,1.404,0.002c1.283,11.912,2.587,24.354,3.868,36.266    c-1.477-0.008-2.955,0.016-4.43-0.011c-0.819-7.771-1.655-16.073-2.478-23.845c-2.961,5.855-5.943,11.701-8.91,17.554    c-1.072,2.103-2.13,4.21-3.211,6.308c-0.432-0.01-0.863-0.003-1.292-0.005c-4.073-7.933-8.145-15.867-12.213-23.803    c-0.808,7.754-1.628,16.075-2.427,23.829c-1.479,0.022-2.958,0.005-4.435,0.009C212.863,174.148,214.146,161.669,215.413,149.757"/>
		<path fill="#8A8A8D" d="M126.938,149.632c6.642,0.003,13.283,0,19.926,0c-0.002,1.279-0.002,2.556,0,3.833    c-5.182,0.006-10.365,0.002-15.549,0.003c0.003,3.746,0,7.494,0.002,11.241c4.883,0,9.768-0.002,14.651,0    c-0.002,1.278-0.002,2.556,0,3.833c-4.885,0.002-9.768,0.002-14.651,0c-0.003,4.548,0.006,9.094-0.005,13.639    c5.399,0.027,10.8,0.005,16.2,0.013c-0.002,1.276,0,2.554,0,3.83c-6.859,0.006-13.717,0.002-20.575,0.003    C126.937,173.895,126.935,161.764,126.938,149.632"/>
		<path fill="#8A8A8D" d="M153.938,149.632c2.503,0.002,5.005,0.002,7.51,0.002c2.122,0.014,4.269-0.1,6.364,0.329    c2.465,0.486,4.867,1.648,6.549,3.55c0.891,0.999,1.552,2.196,1.944,3.476c0.953,2.993,0.758,6.373-0.706,9.171    c-1.126,2.199-3.064,3.962-5.355,4.883c-0.925,0.374-1.902,0.606-2.89,0.738c4.259,4.745,8.514,9.496,12.767,14.247    c-1.906,0-3.813,0-5.719,0c-4.755-5.566-9.513-11.128-14.262-16.697c0.006-0.431,0.002-0.86,0.003-1.289    c1.235,0.002,2.472,0,3.707,0.002c1.65,0.01,3.352-0.173,4.845-0.925c1.362-0.64,2.519-1.737,3.148-3.113    c0.57-1.298,0.776-2.752,0.611-4.16c-0.158-1.303-0.586-2.614-1.454-3.623c-0.96-1.159-2.326-1.922-3.756-2.339    c-1.78-0.504-3.647-0.364-5.474-0.385c-1.153-0.002-2.305,0-3.458-0.002c0,10.843,0.002,21.685,0,32.528    c-1.458,0.003-2.917,0-4.373,0C153.937,173.895,153.94,161.764,153.938,149.632"/>
		<path fill="#8A8A8D" d="M185.589,149.633c6.641,0.002,13.282-0.002,19.924,0.002c0,1.275-0.003,2.551,0.002,3.827    c-5.182,0.016-10.367,0.002-15.547,0.006c0.003,3.748,0,7.494,0,11.242c4.883-0.002,9.768-0.002,14.651,0    c-0.002,1.276-0.002,2.556,0,3.833c-4.883,0-9.766,0.002-14.65-0.002c-0.003,4.549,0.002,9.1-0.002,13.649    c5.398,0.009,10.797,0.002,16.197,0.003c-0.002,1.276-0.002,2.554,0,3.83c-6.858,0.01-13.717,0.002-20.575,0.003    C185.587,173.895,185.589,161.765,185.589,149.633"/>
		<path fill="#7D252A" d="M97.026,128.335c0,0,0.038-0.459,0.314-1.281c0.29-0.808,0.798-2.014,1.881-3.274    c1.051-1.276,2.698-2.571,4.866-3.469c1.083-0.439,2.28-0.789,3.563-1.05c1.284-0.228,2.652-0.372,4.073-0.394    c2.85-0.066,5.9,0.321,9.04,0.993c3.14,0.676,6.378,1.694,9.595,2.849c0.822,0.29,1.644,0.586,2.456,0.904    c0.819,0.31,1.637,0.632,2.456,0.966c1.647,0.652,3.295,1.347,4.942,2.071c3.301,1.428,6.598,2.974,9.887,4.492    c3.278,1.539,6.552,3.043,9.784,4.467c0.809,0.352,1.615,0.706,2.421,1.037c0.803,0.344,1.602,0.682,2.404,1.001    c0.798,0.328,1.594,0.644,2.389,0.941c0.396,0.154,0.79,0.306,1.184,0.456c0.396,0.146,0.789,0.288,1.181,0.432    c3.141,1.137,6.22,2.106,9.179,2.877c2.959,0.773,5.795,1.376,8.444,1.78c2.646,0.415,5.099,0.709,7.284,0.86    c0.548,0.038,1.077,0.074,1.588,0.111c0.513,0.022,1.007,0.043,1.482,0.063c0.477,0.022,0.933,0.043,1.368,0.063    c0.437,0.016,0.853,0.011,1.249,0.017c0.793,0.01,1.503,0.016,2.119,0.024c0.616-0.009,1.142-0.017,1.568-0.024    c0.855-0.006,1.311-0.009,1.311-0.009s-0.447,0.092-1.284,0.261c-0.421,0.082-0.939,0.182-1.549,0.301    c-0.611,0.116-1.317,0.207-2.109,0.323c-0.397,0.054-0.814,0.124-1.254,0.174c-0.44,0.046-0.901,0.095-1.382,0.146    c-0.48,0.051-0.982,0.109-1.503,0.146c-0.523,0.03-1.062,0.06-1.621,0.09c-1.118,0.082-2.31,0.082-3.571,0.111    c-0.632,0.021-1.276-0.022-1.938-0.033c-0.662-0.017-1.341-0.03-2.032-0.082c-2.768-0.143-5.759-0.507-8.889-1.08    c-3.129-0.578-6.394-1.382-9.703-2.412c-0.83-0.252-1.663-0.513-2.491-0.804c-0.834-0.279-1.667-0.575-2.502-0.882    c-1.674-0.6-3.346-1.259-5.015-1.949c-3.347-1.365-6.672-2.885-9.974-4.41c-3.276-1.537-6.552-3.077-9.778-4.592    c-0.804-0.369-1.607-0.735-2.405-1.1c-0.798-0.367-1.591-0.728-2.385-1.077c-0.79-0.355-1.579-0.698-2.366-1.028    c-0.785-0.34-1.56-0.673-2.329-0.986c-3.13-1.287-6.115-2.437-9.025-3.287c-2.902-0.85-5.703-1.46-8.3-1.658    c-1.3-0.122-2.541-0.101-3.723-0.046c-1.172,0.09-2.277,0.266-3.29,0.534c-2.006,0.576-3.653,1.473-4.793,2.494    c-1.153,1.009-1.865,2.033-2.272,2.768C97.164,127.895,97.026,128.335,97.026,128.335"/>
		<path fill="#7D252A" d="M111.193,115.204c0,0,0.443-0.144,1.297-0.329c0.855-0.181,2.117-0.434,3.743-0.608    c1.626-0.187,3.617-0.333,5.905-0.323c2.288,0.006,4.878,0.13,7.683,0.491c2.803,0.367,5.827,0.923,8.965,1.769    c3.135,0.846,6.399,1.93,9.67,3.308c1.651,0.698,3.236,1.419,4.869,2.15c1.623,0.725,3.265,1.458,4.921,2.198    c3.319,1.461,6.68,2.958,10.059,4.402c1.689,0.719,3.379,1.439,5.07,2.127c1.683,0.711,3.371,1.379,5.048,2.035    c3.35,1.321,6.671,2.533,9.915,3.561c3.238,1.031,6.419,1.889,9.434,2.41c1.591,0.264,3.05,0.481,4.514,0.632    c0.73,0.082,1.449,0.16,2.158,0.212c0.706,0.067,1.403,0.108,2.084,0.144c2.73,0.16,5.249,0.173,7.48,0.078    c2.234-0.087,4.187-0.233,5.791-0.407c1.606-0.163,2.868-0.328,3.729-0.447c0.86-0.122,1.319-0.187,1.319-0.187    s-0.442,0.141-1.273,0.402c-0.834,0.241-2.06,0.613-3.645,0.99c-1.585,0.372-3.523,0.803-5.779,1.138    c-2.255,0.331-4.821,0.613-7.642,0.717c-0.705,0.024-1.425,0.046-2.16,0.043c-0.735,0.008-1.482,0.003-2.244-0.025    c-1.52-0.04-3.14-0.15-4.7-0.29c-0.838-0.079-1.644-0.188-2.484-0.285c-0.83-0.122-1.666-0.255-2.513-0.397    c-0.836-0.169-1.683-0.342-2.537-0.515c-0.846-0.201-1.705-0.388-2.562-0.606c-0.852-0.231-1.712-0.464-2.576-0.698    c-0.858-0.255-1.721-0.511-2.59-0.77c-0.86-0.28-1.726-0.562-2.595-0.846c-0.863-0.298-1.731-0.597-2.602-0.898    c-1.729-0.63-3.469-1.273-5.197-1.957c-1.732-0.675-3.447-1.401-5.168-2.114c-1.715-0.725-3.417-1.479-5.105-2.239    c-1.696-0.746-3.362-1.534-5.018-2.309c-1.65-0.785-3.298-1.563-4.894-2.359c-1.59-0.782-3.159-1.555-4.703-2.315    c-3.061-1.455-6.104-2.682-9.044-3.704c-2.939-1.028-5.786-1.808-8.443-2.427c-2.659-0.61-5.132-1.037-7.342-1.325    c-2.21-0.261-4.156-0.431-5.764-0.485c-1.609-0.054-2.88-0.057-3.745-0.017C111.655,115.158,111.193,115.204,111.193,115.204"/>
		<path fill="#7D252A" d="M171.045,123.126c0,0,0.31,0.114,0.893,0.326c0.578,0.215,1.442,0.494,2.529,0.863    c1.089,0.363,2.423,0.763,3.944,1.224c1.525,0.448,3.256,0.912,5.143,1.389c3.776,0.95,8.21,1.878,12.982,2.559    c1.194,0.169,2.408,0.325,3.639,0.464c1.232,0.135,2.48,0.242,3.735,0.353c2.516,0.181,5.075,0.299,7.632,0.295    c2.56,0.029,5.105-0.076,7.629-0.264c0.659-0.04,1.249-0.116,1.862-0.171c0.605-0.046,1.221-0.127,1.83-0.201    c0.61-0.066,1.213-0.16,1.811-0.252c0.6-0.084,1.192-0.182,1.781-0.285c4.7-0.82,9.006-2.07,12.58-3.491    c1.788-0.709,3.406-1.435,4.81-2.149c1.398-0.724,2.602-1.403,3.567-2.009c0.961-0.611,1.715-1.112,2.206-1.482    c0.496-0.366,0.752-0.578,0.752-0.578s-0.182,0.277-0.578,0.76c-0.399,0.477-0.994,1.18-1.842,1.986    c-0.841,0.811-1.897,1.773-3.213,2.746c-1.306,0.985-2.841,2.028-4.605,3.021c-1.759,0.998-3.74,1.959-5.905,2.809    c-2.163,0.852-4.505,1.606-6.972,2.204c-1.232,0.31-2.497,0.568-3.783,0.79c-1.264,0.23-2.646,0.423-3.93,0.557l-0.966,0.1    l-0.516,0.052l-0.499,0.036c-0.665,0.051-1.333,0.097-2.003,0.138c-1.341,0.046-2.687,0.101-4.035,0.093    c-2.692-0.022-5.384-0.157-8.014-0.447c-0.657-0.079-1.311-0.158-1.962-0.236c-0.649-0.089-1.292-0.196-1.932-0.293    c-1.278-0.209-2.538-0.426-3.765-0.698c-4.921-1.036-9.39-2.475-13.095-3.981c-1.854-0.749-3.515-1.525-4.967-2.247    c-1.457-0.709-2.685-1.409-3.689-1.993c-1.005-0.58-1.764-1.094-2.282-1.436C171.308,123.329,171.045,123.126,171.045,123.126"/>
	</g>
</g>
</svg>