<svg id="Layer_1" data-name="Layer 1" xmlns="http://www.w3.org/2000/svg" viewBox="0 0 166.91 153.71"><script xmlns="" type="text/javascript" charset="utf-8" id="zm-extension"/><defs><style>.cls-1{opacity:0.95;}.cls-2{fill:#f9f3ed;}.cls-3{fill:#eee0cf;}.cls-4{fill:#e66932;}.cls-5{fill:#f87b4a;}.cls-6{fill:#fc9c5f;}.cls-7{fill:#9e8677;}.cls-8{fill:#d66432;}.cls-9{fill:#fff;}.cls-10{fill:#597ce1;}.cls-11{fill:#2f2f2f;}.cls-12{fill:#b9d5ff;}.cls-13{fill:#f6f9ff;}.cls-14{fill:#ccb6a8;}.cls-15{fill:#ffcf5a;}.cls-16{fill:#fef19f;}.cls-17{fill:#cc905e;}.cls-18{fill:#8ba4ec;}.cls-19{fill:#3a57b5;}.cls-20{fill:#3b5cd6;}.cls-21{fill:#fbd162;}.cls-22{fill:#fce59c;}</style></defs><title>logo_text</title><g id="_404" data-name="404" class="cls-1"><g id="_404-_--01.--Large-Devices:-Desktops--" data-name="404-/--01.--Large-Devices:-Desktops--"><g id="Closed"><g id="Header"><g id="Logo-_-Desktop" data-name="Logo-/-Desktop"><g id="Logo"><g id="Owl"><g id="Color"><path id="Fill-1" class="cls-2" d="M261.78,129.25c-1.62-1.23-3.41-2.23-5.16-3.29-.79-.48-1.63-.87-2.44-1.3l.06-.14c.79.25,1.58.52,2.37.76a1.41,1.41,0,0,0,.72.08,15.36,15.36,0,0,1,5.08-.71,6.25,6.25,0,0,0-3.06-2.54c-1.23-.43-2.53-.69-3.86-1l1.55-1.92,0-.18a17.75,17.75,0,0,0-2.53.22c-1.81.41-3.58.94-5.38,1.41a.71.71,0,0,0-.58.74,26.1,26.1,0,0,1-.46,3.11q-.11-4.57-.21-9.15c-.08-3.51-.11-7-.28-10.52a83.92,83.92,0,0,0-1.06-11,22.27,22.27,0,0,0-8.68-14.32q.54-1,1-2a.81.81,0,0,0,.1-.49c1.12,1.06,2.21,2.07,3.27,3.11a19.08,19.08,0,0,1,4.93,8.4,14.86,14.86,0,0,0-.53-2.59c-.3-1.57-.58-3.14-.92-4.7a9.75,9.75,0,0,0-1.42-3.52,3.52,3.52,0,0,0-4.33-1.38s-.09,0-.12,0a1.74,1.74,0,0,1-2.33-.25,9.64,9.64,0,0,0-2.1-1.59,81.88,81.88,0,0,0-11.06-6.58c-3.21-1.63-6.43-3.2-9.67-4.77-3.9-1.89-7.93-3.48-12-5.08-3.69-1.46-7.47-2.64-11.28-3.76a76,76,0,0,0-9.36-2.1,18.82,18.82,0,0,0-3.37-.3.89.89,0,0,1-.65-.13h-1.36a6.41,6.41,0,0,1-2,.2,14.9,14.9,0,0,0-5.75,2.1,52.8,52.8,0,0,0-8.85,6.55c-2.08,1.84-4.07,3.77-6,5.77q-3.68,3.81-7.08,7.88c-2,2.42-4.08,4.83-6,7.36a49.52,49.52,0,0,0-7.64,14.28,36.65,36.65,0,0,0-1.84,10.19,44.72,44.72,0,0,0,.81,9,76.19,76.19,0,0,0,2,9.11,43,43,0,0,0,3.87,9.63c.14.23.21.39.13.49a1.16,1.16,0,0,1,.15.18c4.55-.57,10.12-.14,12.68,1.41q-1.54-.16-3.06-.26a28.11,28.11,0,0,0-8.72.61l5.49,2.77-.81.36a39.5,39.5,0,0,0-9.57,5.14,9.23,9.23,0,0,0-2.63,2.93,2.9,2.9,0,0,0-.19.45,1.12,1.12,0,0,0,0,.27l.76-.33A16,16,0,0,1,140,146.2c.31,0,.65,0,.48.29a20.57,20.57,0,0,0-2.62,6.89,8.48,8.48,0,0,0,.39,3.78,108.36,108.36,0,0,0,5.09,13c1.43,3.22,2.94,6.4,4.42,9.6.35.76.71.84,1.38.31a6.74,6.74,0,0,0,.85-.81,104.55,104.55,0,0,1,9.87-9.2.25.25,0,0,1,.23-.06L156,175.28l.08.11a2.63,2.63,0,0,0,.42-.15,23.17,23.17,0,0,1,7.7-2.18,42.91,42.91,0,0,1,8.66-.21,64.32,64.32,0,0,1,10.84,1.85c5.17,1.26,10.33,2.52,15.53,3.61a48.23,48.23,0,0,0,6.94.8,52.88,52.88,0,0,0,6.13,0c6.17-.34,12-1.71,17.25-5.23a22.31,22.31,0,0,0,6.35-6.53l12.47-19.5c.53-.83,1.11-1.63,1.66-2.44l.16.09-2.67,5.43c.25-.13.36-.16.45-.22a16,16,0,0,1,4.44-2.16,5,5,0,0,1,3.1,0,25.77,25.77,0,0,1,5.91,2.81c.72.43,1.48.8,2.32,1.25.11-1.06.22-2,.28-2.93.14-1.85.28-3.7.36-5.55.12-2.95.15-5.89.29-8.84a6.75,6.75,0,0,0-2.83-6" transform="translate(-104 -32.43)"/><path id="Fill-3" class="cls-3" d="M223.91,170.29c-.2.09-.44.33-.63.4s-.4.26-.61.32c-.6.18-.7.47-1.28.48-.16,0-.87.2-.93.2a5.41,5.41,0,0,1-4.75-2.45,14.61,14.61,0,0,1-1.49-2.7c-.71-2-1.41-4.12-2-6.18a46.82,46.82,0,0,1-1.54-10.2l-2.8-1.72s3.18-2.93,5.12-9.54c.56-1.9,3.58-4.58,6.64-5.42-.25-6.76-.55-14.06-.55-21.33,0-4.67,0-8.91.15-13.39a16.13,16.13,0,0,1-6.32,1.34h-.18a23.76,23.76,0,0,1-4.25-.23,64.91,64.91,0,0,1-11.71-3.18L195,96.11c-.9-.18-1.82-.31-2.87-.45a18.63,18.63,0,0,0-8.09.62,38.42,38.42,0,0,0-7.78,3.49A40,40,0,0,0,170,104c-.11.09-.18.21-.05.13s-.09.09-.09.09-.54.7-.61.76c-2.2,4-2.64,4.49-3.71,7.42A53,53,0,0,0,162.8,127c-.12,4.42.08,11-.55,10.48-.16-.12-.29,0-1-.14-3.68-.66-13.28-1.91-15-1.8a37.83,37.83,0,0,0-6.77.75c1.81.91,3.57,1.83,5.5,2.8l-.81.36a39.5,39.5,0,0,0-9.57,5.14,9.23,9.23,0,0,0-2.63,2.93,3.39,3.39,0,0,0-.19.45,1.07,1.07,0,0,0,0,.26l.75-.33a17,17,0,0,1,6.55-1.7c.33,0,.65,0,1,0s.66,0,.5.29a20.57,20.57,0,0,0-2.62,6.89,8.48,8.48,0,0,0,.39,3.78,108.36,108.36,0,0,0,5.09,13c1.43,3.22,2.94,6.4,4.42,9.6.22.47.43.68.73.65a1.39,1.39,0,0,0,.64-.33,6.74,6.74,0,0,0,.85-.81,76.46,76.46,0,0,1,7.62-7.23l2.26-2a.25.25,0,0,1,.23-.06h0L156,175.27l.07.11a3.24,3.24,0,0,0,.41-.15,23.17,23.17,0,0,1,7.7-2.18,40.66,40.66,0,0,1,5.42-.33c1.08,0,2.17,0,3.26.12a64.32,64.32,0,0,1,10.84,1.85c5.17,1.26,10.33,2.52,15.53,3.61a48.87,48.87,0,0,0,6.94.8c1,.07,2,.1,3.06.1s2,0,3.06-.08a36.51,36.51,0,0,0,13-2.9c.27-2.28-.73-5.89-1.4-5.93" transform="translate(-104 -32.43)"/><path id="Fill-5" class="cls-2" d="M207.39,158.46c0-3.48-3-6.39-7-7.19h0c-2.06-.61-6-.46-9.78-.21s-5.6-1.05-6.76-1.43c-.77-.25-7.8-3.92-7.8-3.92l-5.73-3.89a18.41,18.41,0,0,0-9.31-2.9c-8,0-14.45,5-14.45,11.28a10.31,10.31,0,0,0,4.63,8.27h0c5.89,5.26,17.14,4.41,22.49,4.09s5.82-.84,11,1.34c3.76,1.58,10.05,1.92,13.23,2h.37a8.87,8.87,0,0,0,1.78-.15c4.22-.7,7.4-3.69,7.4-7.27" transform="translate(-104 -32.43)"/><path id="Fill-7" class="cls-3" d="M260.55,144.77c-.73-3.72-1.43-7.45-3.11-10.9a11.09,11.09,0,0,0-3.53-4.26,20.62,20.62,0,0,0-8-3.29c-.73-.15-2.75-1-3-.29a31.44,31.44,0,0,1-2.71,6.78,11.45,11.45,0,0,1-4,4.08c-.75.35-1.68.61-2,.41.71,1,4.12,3.7,4.41,4.91a7.59,7.59,0,0,1-.8,4.95c-.07.15-.14.29-.22.44l.56.25a45.53,45.53,0,0,1,7.58,4.33l.46-.72c.18-.13,1.38-2.16,1.38-2.16.57-.86,1.11-1.66,1.65-2.53a5.17,5.17,0,0,1,.78-1.13,2.28,2.28,0,0,1-.39,1c-.53,1.12-2.65,4.71-3,5.53,1.68-1.49,6-2.41,8.1-2.41s4.83,1.3,6.55,2.48c2,1.34-.42-6.43-.63-7.47" transform="translate(-104 -32.43)"/><path id="Fill-9" class="cls-4" d="M238.64,76.54A77.68,77.68,0,0,0,228.7,70c-3.93-2.23-8-4.16-12.07-6.14A151.43,151.43,0,0,0,190,53.71a55.06,55.06,0,0,0-10.65-1.91h-3.61c-.53.07-1.07.11-1.59.19a16.56,16.56,0,0,0-5.89,2.48A62.7,62.7,0,0,0,157.55,63,169.82,169.82,0,0,0,143.6,78.4,62.92,62.92,0,0,0,136,89.78a39.49,39.49,0,0,0-4.43,15.63v3.73c0,.31,0,.62,0,.93a88.42,88.42,0,0,0,2.08,11.73,46.65,46.65,0,0,0,4.7,12.47,1.59,1.59,0,0,1,.23.29c4.55-.57,10.13-.14,12.69,1.41l2.51.48c2.7.49,5.34,1.26,8,1.88.9.21.91.21.87-.69a93.6,93.6,0,0,1,.12-13.23,48,48,0,0,1,2.53-12A28.06,28.06,0,0,1,178.6,96.56a16.5,16.5,0,0,1,11.11-1.93A66.92,66.92,0,0,1,198,97.1a51.56,51.56,0,0,0,12.5,2.93,16.86,16.86,0,0,0,10.34-2,33.54,33.54,0,0,0,7.51-6.41c2.14-2.35,4-4.93,6.15-7.29a25.19,25.19,0,0,0,3.42-4.82q.54-1,1-2A.81.81,0,0,0,239,77a.78.78,0,0,0-.35-.46" transform="translate(-104 -32.43)"/><path id="Fill-11" class="cls-5" d="M239.73,77.44A77.94,77.94,0,0,0,229.88,71c-3.91-2.22-8-4.15-12-6.11a153,153,0,0,0-24.65-9.61,58.56,58.56,0,0,0-13.43-2.47,16.51,16.51,0,0,0-9.43,2.3A63.4,63.4,0,0,0,159,64a163.85,163.85,0,0,0-16.23,18.36,49.91,49.91,0,0,0-7.34,13.12,35.1,35.1,0,0,0-2.14,16.38,79.77,79.77,0,0,0,2.1,11.27c1.08,4.12,2,7.61,4.23,11.31,0,0,1.45-.12,1.66-.11H144c1.81.1,3.53.38,3.53.38-.51-1.27-.45-1.07-.94-2.35-.59-1.55-1.14-3.11-1.73-4.66a48.8,48.8,0,0,1-2-6.45,60.2,60.2,0,0,1-1.22-6.92c-.19-1.82-.4-3.65-.56-5.47a14.13,14.13,0,0,1,.06-3.25c.13-.91,0-1.83.14-2.75a52.18,52.18,0,0,1,.91-6.17c.41-1.71.81-3.42,1.38-5.08a67.17,67.17,0,0,1,3.21-8,81.14,81.14,0,0,1,4.14-7.46c3.17-5,9.16-10.26,9.36-10.44l1.32-1.28a58.24,58.24,0,0,1,4.63-3.93,59.52,59.52,0,0,1,4.85-3.45,14.39,14.39,0,0,1,5.61-2,25.58,25.58,0,0,1,7.91.46q3.33.56,6.62,1.3a27.53,27.53,0,0,1,4.95,1.67c4.48,2,9,3.93,13.31,6.15,3,1.51,5.89,3.11,8.7,4.91-2.33-1.14-7-3.36-7.25-3.53-3.61,4.7.95,14.77.34,17.35-1.54,4.23-6.06,10.07-8.88,15.21a39.3,39.3,0,0,0,7.78,1.46,16.86,16.86,0,0,0,10.34-2A33.65,33.65,0,0,0,228,91.59c2.14-2.35,4-4.93,6.15-7.29.22-.24.42-.49.62-.73l0,0c.21.21.47.37.69.56a1.46,1.46,0,0,1,1.42-.94l.28,0a27.89,27.89,0,0,0,2.8-4.77.72.72,0,0,0-.29-1" transform="translate(-104 -32.43)"/><path id="Fill-13" class="cls-6" d="M232.85,82.58c-1.87-1.76-3.25-3.36-5.18-5.05A91.36,91.36,0,0,0,219,71.44c-.46-.27-1.16-3-1.51-3.17,0-.39-.08-.67-.09-1,1.67.88,4.61,2.46,6.26,3.38q3.9,2.19,7.74,4.47c1.57.94,3.1,2,4.65,2.93a1.09,1.09,0,0,1,.21.22c-.94.92-2.75,4.93-3.36,4.35" transform="translate(-104 -32.43)"/></g><g id="Outline"><path id="Fill-33" class="cls-7" d="M265.63,132.16a2.77,2.77,0,0,0-1.26-2.47c-1.38-.86-2.71-1.81-4.06-2.71l-.46-.33a15.12,15.12,0,0,1,5.75-1c-2.29-2.49-4.64-4.6-8-5.35l1.88-3.08-10.7,1.81c.09-1.16.22-2.17.25-3.17.07-3.57.16-7.13.15-10.7A83.32,83.32,0,0,0,247.91,92a23.65,23.65,0,0,0-.8-3.87c-2-5.47-5.78-5.38-5.78-5.38A22.64,22.64,0,0,1,246.5,93.8a84,84,0,0,1,1.06,11c.17,3.5.2,7,.28,10.52.07,3,.14,6.1.21,9.15a26.1,26.1,0,0,0,.46-3.11.71.71,0,0,1,.58-.74c1.79-.47,3.57-1,5.38-1.41A17.2,17.2,0,0,1,257,119l0,.18-1.55,1.92c1.34.35,2.63.61,3.86,1a6.25,6.25,0,0,1,3.06,2.54,15.36,15.36,0,0,0-5.08.71,1.41,1.41,0,0,1-.72-.08c-.8-.24-1.58-.51-2.37-.76l-.06.14c.82.43,1.66.82,2.44,1.3,1.74,1.06,3.53,2.07,5.16,3.29a6.76,6.76,0,0,1,2.84,6c-.14,2.94-.17,5.89-.29,8.84-.07,1.85-.22,3.7-.36,5.55-.07.94-.18,1.87-.28,2.93-.84-.45-1.59-.82-2.32-1.25a25.86,25.86,0,0,0-5.91-2.81,5,5,0,0,0-3.1,0,15.86,15.86,0,0,0-4.44,2.16,3.47,3.47,0,0,1-.45.22l2.67-5.43-.16-.09c-.56.81-1.13,1.62-1.66,2.44q-6.25,9.74-12.47,19.5a22.32,22.32,0,0,1-6.35,6.53c-5.21,3.52-11.08,4.89-17.25,5.23a51,51,0,0,1-6.13,0,48.24,48.24,0,0,1-6.94-.8c-5.2-1.1-10.37-2.35-15.53-3.61a64.32,64.32,0,0,0-10.84-1.85,43,43,0,0,0-8.66.21,23.17,23.17,0,0,0-7.7,2.18,4.37,4.37,0,0,1-.42.15l-.08-.11L160.1,170a.26.26,0,0,0-.23.06,104.58,104.58,0,0,0-9.87,9.2,6.44,6.44,0,0,1-.85.81c-.67.53-1,.44-1.38-.31-1.48-3.2-3-6.38-4.42-9.6a108.36,108.36,0,0,1-5.09-13,8.48,8.48,0,0,1-.39-3.78,20.57,20.57,0,0,1,2.62-6.89c.16-.29-.17-.28-.48-.29a16,16,0,0,0-7.54,1.68l-.76.33a1.15,1.15,0,0,1,0-.27,4.09,4.09,0,0,1,.19-.45,9.32,9.32,0,0,1,2.63-2.93,39.34,39.34,0,0,1,9.57-5.14l.81-.36-5.49-2.77a28.66,28.66,0,0,1,8.74-.59c1,.06,2.1.15,3.12.26-2.59-1.55-8.31-2-12.88-1.39a13,13,0,0,0-5.83,1.85l6.89,3a18.9,18.9,0,0,0-7.84,5.21,14.87,14.87,0,0,0-3.67,8.57c3-2.43,6.09-4.49,10.23-4.46-.38.61-.68,1.06-1,1.53A7.75,7.75,0,0,0,136,155a35.61,35.61,0,0,0,1.92,8.78,174.76,174.76,0,0,0,9.62,22.08,3.46,3.46,0,0,0,.23.33l.42-.52c1.31-1.73,2.75-3.37,3.89-5.21a6.69,6.69,0,0,1,5.17-3.4,2.4,2.4,0,0,0,.24-.06,61.6,61.6,0,0,1,10.61-1.7,35.66,35.66,0,0,1,8,.2c2.26.36,4.5.82,6.74,1.24,6.13,1.16,12.25,2.39,18.4,3.49A57.27,57.27,0,0,0,213,181.3a35.27,35.27,0,0,0,9.33-1.39c4.55-1.38,8.67-3.52,11.77-7.21a64.55,64.55,0,0,0,4.27-5.77,153.93,153.93,0,0,0,8.1-14,1.53,1.53,0,0,1,.58-.68c1.48-.73,3-1.42,4.48-2.12a5.32,5.32,0,0,1,5.06.34c2.41,1.39,4.71,3,7,4.48a11.25,11.25,0,0,1,1,.84,3.21,3.21,0,0,0,.14-.48,102.87,102.87,0,0,0,1.13-14.65c0-2.82-.15-5.65-.26-8.47" transform="translate(-104 -32.43)"/><path id="Fill-15" class="cls-8" d="M221.19,69.32A222,222,0,0,0,194.9,57a62.91,62.91,0,0,0-12.72-3.37,19.8,19.8,0,0,0-14.53,3.4,57.48,57.48,0,0,0-10.07,9c-4,4.39-8.12,8.75-12,13.26a49.42,49.42,0,0,0-8.75,14.07,37.52,37.52,0,0,0-2.53,10.72,51,51,0,0,0,1.57,16.17A47.71,47.71,0,0,0,140,132c.51,1,.61,1.2,1.27,2.31-1,0-2.48.22-2.75.22s-2.27-4.16-3.44-7.81a78.72,78.72,0,0,1-3.1-13.59,50.68,50.68,0,0,1-.51-6.15,35.79,35.79,0,0,1,3.29-14.91,50.56,50.56,0,0,1,6.51-10.92,159.21,159.21,0,0,1,18.1-20.09,54.75,54.75,0,0,1,9.92-7.38,15.84,15.84,0,0,1,8.43-2,57,57,0,0,1,14.39,2.6,165.32,165.32,0,0,1,28.14,11.35,122.1,122.1,0,0,1,15.44,8.76c1,.69,2.91,2.17,2.91,2.17a8.38,8.38,0,0,0-2.38,1.63C231.4,74.93,226.33,72.07,221.19,69.32Z" transform="translate(-104 -32.43)"/></g><g id="Left-eye"><path id="Fill-37" class="cls-9" d="M205.62,147.43c.09-.22.17-.43.27-.64a28,28,0,0,0,2.59-15,23.51,23.51,0,0,0-2.15-8.41,18.82,18.82,0,0,0-10.59-10,12,12,0,0,0-12.32,2.1,16.07,16.07,0,0,0-3.83,4.41,27.51,27.51,0,0,0-3.82,17,17.27,17.27,0,0,0,2.17,6.59,23.39,23.39,0,0,0,5.22,6.64c.25.22,1.12.58,1.35.81a14.12,14.12,0,0,0,9.83,2.45,16.85,16.85,0,0,0,11.49-6,1.5,1.5,0,0,1-.22.14" transform="translate(-104 -32.43)"/><g id="Pupil"><path id="Fill-39" class="cls-10" d="M189.92,126.52c-.53,1.89-2.73,3.3-5.38,3.3h-.23c0,.12,0,.24,0,.36a4,4,0,1,0,5.62-3.65" transform="translate(-104 -32.43)"/><path id="Fill-41" class="cls-11" d="M184.82,132.17l.06.07a3.94,3.94,0,0,1-.58-2.07c0-.12,0-.24,0-.36a7,7,0,0,1-2.29-.45c-.18-.07-.59-.19-.57.18,0,.21,0,.43,0,.64a10.37,10.37,0,0,0,2.27,6.65,5.87,5.87,0,0,1,1.12-4.66" transform="translate(-104 -32.43)"/><path id="Fill-43" class="cls-11" d="M188.57,121.08a5.65,5.65,0,0,0-1.8.29c-.21.07-.45.23.07.45,1.85.76,3.19,2.12,3.19,3.81a1.81,1.81,0,0,1-.12.89,4,4,0,0,1,2.39,3.65c0,.1,0,.2,0,.3,1.29.2,2.23,1.23,3.06,2.53a11.3,11.3,0,0,0,.35-2.82c0-5-3.19-9.1-7.13-9.1" transform="translate(-104 -32.43)"/><path id="Fill-45" class="cls-12" d="M192.29,130.47a3.28,3.28,0,0,1,0,.36,4,4,0,0,1-5.74,2.92,4,4,0,0,1-1.63-1.5l-.06-.07a5.86,5.86,0,0,0-1.11,4.65,6.37,6.37,0,0,0,4.87,2.45c3.17,0,5.85-2.64,6.78-6.28-.83-1.3-1.77-2.32-3.06-2.53" transform="translate(-104 -32.43)"/></g><path id="Fill-47" class="cls-13" d="M204.13,127.63c0,.38,0,.76-.05,1.13-.65,6.88-7.19,12.28-15.16,12.28a20.55,20.55,0,0,1-6.25-1.18c-1.2-.38-1.3.39-1.19.9,1.23,5.76,4.79,10.08,9.49,10.72,6.65.9,13.07-5.9,14.34-15.2a22.5,22.5,0,0,0-.29-7.93c-.31-1.36-.88-1.77-.88-.71" transform="translate(-104 -32.43)"/><path id="Fill-49" class="cls-14" d="M210.41,129.52a25.82,25.82,0,0,0-8.18-15.6,18.28,18.28,0,0,0-8.06-4.45,13.07,13.07,0,0,0-6.58.33,17,17,0,0,0-7.66,5.43l.14,0a4.44,4.44,0,0,0,1.05-.78,14.92,14.92,0,0,1,7.14-3.22,11.32,11.32,0,0,1,1.8-.11,12.24,12.24,0,0,1,2.64.36c.29.07.58.15.87.24a16.23,16.23,0,0,1,1.7.64,22.15,22.15,0,0,1,5.14,3.2,1.79,1.79,0,0,1,.27.24.47.47,0,0,1,.11.35l1.16,1.05a20.27,20.27,0,0,1,5.42,8.67,28.64,28.64,0,0,1,1.12,11,24.37,24.37,0,0,1-3,10.41c-.05.1-.16.2,0,.33a.64.64,0,0,0,.15-.08,3.92,3.92,0,0,0,.29-.32,25.12,25.12,0,0,0,4.29-9.49c.62-2.36.31-7.63.21-8.24" transform="translate(-104 -32.43)"/><path id="Fill-51" class="cls-7" d="M179.92,115.23c.34,0,.82-.51,1.19-.8a14.92,14.92,0,0,1,7.14-3.22,12.86,12.86,0,0,1,7,1.14,22.3,22.3,0,0,1,5.14,3.2c.18.15.41.29.38.59a16.7,16.7,0,0,0-6.11-3.11,12,12,0,0,0-11.8,3.27,21.71,21.71,0,0,0-5.92,11,27.17,27.17,0,0,0-.79,8.48,19.36,19.36,0,0,0,3.69,9.66,24.56,24.56,0,0,0,4.55,4.92c.15.12.36.21.41.44-.26.11-.43-.09-.62-.19A19,19,0,0,1,175.11,139a25,25,0,0,1-1-8.67,25.6,25.6,0,0,1,1.51-7.7,21.43,21.43,0,0,1,4.31-7.38" transform="translate(-104 -32.43)"/></g><g id="Right-eye"><path id="Fill-53" class="cls-9" d="M236,136.78a21.94,21.94,0,0,0,6-13,44.94,44.94,0,0,0-1.88-18c-.21-.72-.42-1.44-.69-2.13a8.2,8.2,0,0,0-.79-1.55c-1-1.45-2.14-1.58-3.45-.41a7.49,7.49,0,0,0-.92,1,32.34,32.34,0,0,0-6.52,22A28.07,28.07,0,0,0,229.6,133c.16.42.32.85.47,1.27,0,0,1.6,2.8,3.33,2.8a9,9,0,0,0,2.56-.34" transform="translate(-104 -32.43)"/><g id="Pupil-2" data-name="Pupil"><path id="Fill-55" class="cls-10" d="M229.9,124.9a3.16,3.16,0,0,0,1.17-6.1,5.05,5.05,0,0,1-3.56,1.42h-.31c0,1.06-.06,2.1,0,3.11a3.15,3.15,0,0,0,2.74,1.58" transform="translate(-104 -32.43)"/><path id="Fill-57" class="cls-11" d="M235.12,124.06a10.59,10.59,0,0,0,.62-3.61c0-4.42-2.62-8.08-6-8.73-.36-.07-.77.51-.77.51a4.81,4.81,0,0,1,1.82.77,3.51,3.51,0,0,1,1.56,2.92,4,4,0,0,1-1.25,2.88,3.15,3.15,0,0,1,2,2.91,2.66,2.66,0,0,1,2.06,2.35" transform="translate(-104 -32.43)"/><path id="Fill-59" class="cls-12" d="M229.9,124.9a3.16,3.16,0,0,1-2.74-1.58,33.22,33.22,0,0,0,.77,5.93,4.42,4.42,0,0,0,.69,0c2.9,0,5.4-2.15,6.51-5.23a2.67,2.67,0,0,0-2.06-2.35v0a3.16,3.16,0,0,1-3.17,3.16" transform="translate(-104 -32.43)"/></g><path id="Fill-61" class="cls-13" d="M239.68,115.89c-.48,0-.58.5-.59.93.06.61.09,1.23.09,1.86,0,7.18-3.82,13-8.54,13a4.71,4.71,0,0,1-1.11-.16l-.35-.1c.18.55.37,1.11.58,1.66l.2.54c.06,0-.11.54-.07.6a13.14,13.14,0,0,1,.74,1.3c.23.09.71.14.94.23.78.32,1.54.66,2.29,1l.27.15c3.12-3,4.7-6.68,5.71-11.18a38.69,38.69,0,0,0,.31-8.91c-.05-.37.15-1-.47-1" transform="translate(-104 -32.43)"/><path id="Fill-63" class="cls-14" d="M242.82,109.27a37.09,37.09,0,0,0-2.7-8.42,10.37,10.37,0,0,0-1.48-2.29,2,2,0,0,0-1.56-.76,19.31,19.31,0,0,1,1,3.55,4.09,4.09,0,0,1,.58.7,7.83,7.83,0,0,1,.79,1.55c.27.7.48,1.42.69,2.13a45,45,0,0,1,1.84,18c-.59,4.87-2.18,9.15-5.69,12.65a4.4,4.4,0,0,0-.31.39,9.73,9.73,0,0,0,4.31-4.23,26.46,26.46,0,0,0,3.36-10.5,39.86,39.86,0,0,0-.82-12.77" transform="translate(-104 -32.43)"/><path id="Fill-65" class="cls-7" d="M235.84,98.24a6.23,6.23,0,0,0-1.29,1.16,21,21,0,0,0-1.62,2.21,38.53,38.53,0,0,0-5.74,24.21,31.92,31.92,0,0,0,1.14,5.74,15.24,15.24,0,0,0,1.78,3.84c.34.47.47.1.8.38-.16-.42-1-2.33-1.13-2.75a27.94,27.94,0,0,1-1.88-8.37,32.36,32.36,0,0,1,6.52-22,7,7,0,0,1,.92-1c1-.94,1.93-1,2.73-.29a19.31,19.31,0,0,0-1-3.55,2.47,2.47,0,0,0-1.24.44" transform="translate(-104 -32.43)"/></g><g id="Beak"><path id="Fill-152" class="cls-11" d="M225.23,151.35l-.87.23-.07,0a16.22,16.22,0,0,1-3.5.49h-.14l-.8,0a27.12,27.12,0,0,1-6.68-.9c-.13,0-.08.15-.07.18a3.33,3.33,0,0,0,.07.36,15.52,15.52,0,0,0,2.23,5.11c.35,0,.62-.34,1-.4a9.34,9.34,0,0,1,5.42.88c.7.29,2.4,1.29,2.91,1.59,0-.32,0-5.29.72-7.65l-.2.06" transform="translate(-104 -32.43)"/><path id="Fill-154" class="cls-4" d="M225.59,164.1l0-.18c-.22-1.12-.78-3.89-.85-5-.51-.29-2.21-1.3-2.91-1.59a9.33,9.33,0,0,0-5.42-.88c-.36.07-.63.36-1,.4a15.62,15.62,0,0,0,1.79,2.2,21.94,21.94,0,0,0,7.49,4.82l1,.39s0-.11,0-.18" transform="translate(-104 -32.43)"/><path id="Fill-156" class="cls-15" d="M227.1,148.52a.83.83,0,0,1,1.11.09c1.5,1.23,3,2.42,4.56,3.62l.52.38.09-.09a.24.24,0,0,1-.16,0,.38.38,0,0,1-.13-.3.64.64,0,0,1,.11-.33,2.18,2.18,0,0,0,.25-.52c0-.11.07-.21.11-.31s0-.15.08-.23c.19-.53.38-1.06.56-1.6s.35-1.07.49-1.62a16.06,16.06,0,0,0,.56-3.34,1.67,1.67,0,0,0-1.16-1.66,1.65,1.65,0,0,0-.33-.07l-.12,0a1.75,1.75,0,0,0-.4,0,14,14,0,0,0-1.43.7,2.6,2.6,0,0,1-3-.26,64.42,64.42,0,0,0-8.45-7.61l-1.32-.42a9.53,9.53,0,0,0-6,6.25,12.56,12.56,0,0,1-5.32,7.28l.44.28c1.78.42,3.54,1,5.34,1.3a21.87,21.87,0,0,0,12.08-.8A9.18,9.18,0,0,0,227.1,148.52Z" transform="translate(-104 -32.43)"/><path id="Fill-158" class="cls-16" d="M229.2,164.31a23.27,23.27,0,0,1-1.37-12.67c.07-.39.23-1.32.24-1.36-.26.13-.32.14-.58.25l-.64.26c0,.13-.09.26-.13.4a30.07,30.07,0,0,0-.1,11.54s0,0,0,.06a2.89,2.89,0,0,1,.07.29,5.55,5.55,0,0,1,.23,1.7l.53.19c-.46,0-.91,0-1.37,0a11.76,11.76,0,0,1-5.21-1.82,18.77,18.77,0,0,1-8.48-11.57,1.52,1.52,0,0,0-.42-.81,1.62,1.62,0,0,0-.95-.26v.25a57.85,57.85,0,0,0,2,5.62,23.55,23.55,0,0,0,3.05,4.84,12.45,12.45,0,0,0,5.15,3.88,8.74,8.74,0,0,0,3.38.56c.31,0,.4.22.46.58.13.72-.37.82-.8,1-1,.51-2,1-3.07,1.37l-.8.31h0a3.17,3.17,0,0,1-1.9.25c1.55,1.15,3,1.19,5.06.2a23,23,0,0,0,5.39-3.95.87.87,0,0,0,.24-1.14" transform="translate(-104 -32.43)"/><path id="Fill-168" class="cls-15" d="M225.09,166.21c-.06-.35-.15-.58-.46-.58a8.73,8.73,0,0,1-3.38-.56,12.45,12.45,0,0,1-5.15-3.88,23.55,23.55,0,0,1-3.05-4.84,57.44,57.44,0,0,1-2-5.62v.05a3.56,3.56,0,0,0,0,.43c.07.39.14.79.21,1.18a53,53,0,0,0,2.78,10.15,16.86,16.86,0,0,0,3.54,5.85l.33.31h0a.18.18,0,0,0,.1.09h0c.15.14.31.26.46.37a3.23,3.23,0,0,0,1.9-.25h0l.8-.31c1-.41,2.07-.86,3.07-1.37.43-.22.94-.32.81-1" transform="translate(-104 -32.43)"/><path id="Fill-170" class="cls-16" d="M236.52,143h0c0-.11,0-.21,0-.31a.13.13,0,0,1,0,0c0-.11-.06-.2-.09-.31a6.6,6.6,0,0,0-.47-1.12,4.71,4.71,0,0,0-.24-.41,7.39,7.39,0,0,0-.92-1.11,13.76,13.76,0,0,0-3.41-2.45c-.65-.33-1.54-.74-2.73-1.21a25.46,25.46,0,0,0-7.77-1.53,2.67,2.67,0,0,0-.56,0l-.18,0c-.34.12-.68.25-1,.38l1.32.42a64.42,64.42,0,0,1,8.45,7.61,2.59,2.59,0,0,0,3,.26,14.54,14.54,0,0,1,1.41-.7h0a1.72,1.72,0,0,1,.4,0l.12,0,.33.07a1.66,1.66,0,0,1,1.16,1.66,16.09,16.09,0,0,1-.56,3.35c-.14.54-.31,1.08-.49,1.62s-.36,1.07-.56,1.6l-.08.23c0,.11-.07.21-.11.31a2.22,2.22,0,0,1-.25.51.63.63,0,0,0-.11.33.37.37,0,0,0,.12.3.29.29,0,0,0,.11.05h0a1.05,1.05,0,0,0,.17-.22,25.92,25.92,0,0,0,2.89-7.37h0v0l0-.15c0-.09,0-.18,0-.27a6.22,6.22,0,0,0,.05-.89c0-.22,0-.44,0-.64" transform="translate(-104 -32.43)"/><path id="Fill-150" class="cls-15" d="M226.71,163.07a.13.13,0,0,1,0,0l-.08-.3a30.07,30.07,0,0,1,.1-11.54l.13-.4-.11,0c-.44.17-.87.33-1.31.46-.71,2.36-.72,7.33-.72,7.64.07,1.09.63,3.86.85,5,0,.06,0,.12,0,.18s0,.12,0,.18l1.31.49a5.23,5.23,0,0,0-.22-1.7" transform="translate(-104 -32.43)"/><path id="Fill-172" class="cls-17" d="M227.49,165c-.46,0-.91,0-1.37,0a11.76,11.76,0,0,1-5.21-1.82,18.78,18.78,0,0,1-8.48-11.57c-.23-.82-.45-1-1.37-1.08,0,.1,0,.2,0,.3a3.56,3.56,0,0,0,0,.43,55.77,55.77,0,0,0,3,11.33,16.86,16.86,0,0,0,3.54,5.85c1.89,1.88,3.56,2.16,6,1a23,23,0,0,0,5.39-3.95.85.85,0,0,0,.24-1.13c-1.68-4.12-2.55-7.81-1.59-12.18.11-.78.22-1.22.33-1.8-5,2.44-9.7,2.21-14.78.89,0,.11-.08.15-.07.18s0,.25.07.36a15.34,15.34,0,0,0,4,7.31c2.86,2.93,6.45,4.55,10.3,5.88m-19.71-16.52a20.87,20.87,0,0,0,5-9.07c.93-3.25,3.43-4.87,6.51-5.82a7.84,7.84,0,0,1,4.12.26,41.28,41.28,0,0,1,10.2,3.36,10.77,10.77,0,0,1,3.16,2.43c1.83,2.07,2.47,4.41,1.28,6.94-1.33,2.83-2.88,5.55-4.34,8.31,0,.05-.09.08-.21.17a43.69,43.69,0,0,1-5-4.66,18.2,18.2,0,0,0-.29,2,28.29,28.29,0,0,0,.34,7.26,10.13,10.13,0,0,0,1.88,4,.59.59,0,0,1,0,.87,28.78,28.78,0,0,1-7.26,6.2c-3.16,1.8-5.83,1.2-7.84-1.82a10.55,10.55,0,0,1-1.22-2.32c-.72-2-1.4-4.1-2-6.18a41.52,41.52,0,0,1-1.53-9.66.91.91,0,0,0-.57-.87c-.62-.33-1.22-.76-1.8-1.12,1.78.42,3.55,1,5.34,1.3a21.87,21.87,0,0,0,12.08-.8,9.18,9.18,0,0,0,1.47-.69.83.83,0,0,1,1.11.09c1.5,1.23,3,2.42,4.56,3.62l.52.38a2.09,2.09,0,0,0,.26-.31,25.81,25.81,0,0,0,2.92-7.54,5.47,5.47,0,0,0-1.72-5.1,16.7,16.7,0,0,0-6.15-3.66,25.62,25.62,0,0,0-7.77-1.53,2.09,2.09,0,0,0-.74.06c-3.35,1.15-5.94,3.05-7,6.63a12.58,12.58,0,0,1-5.32,7.28" transform="translate(-104 -32.43)"/></g><g id="Eyebrows"><path id="Fill-25" class="cls-11" d="M188.55,88.36a8.09,8.09,0,0,1,3.14,1.4c2.35,1.65,4.48,3.58,6.72,5.37l2.67,2.11a7.74,7.74,0,0,1,.69.63c.12.13.36.27.27.44s-.38.08-.55,0a58.17,58.17,0,0,0-5.72-1.77c-4.21-1-8.42-1.28-12.58.22a45.48,45.48,0,0,0-9.07,4.47,37.57,37.57,0,0,0-4.8,3.6,4.62,4.62,0,0,1-.44.33s.07,0,0,0c3.62-5.23,7.22-10.37,12.34-14.28A11.62,11.62,0,0,1,187,88.32s1.35,0,1.6,0" transform="translate(-104 -32.43)"/><path id="Fill-35" class="cls-11" d="M229.78,88.81c.23-.49.77-1.77,1.46-3.12A34.31,34.31,0,0,1,234,80.75a14,14,0,0,1,4.27-4.07,6.23,6.23,0,0,1,2.45-.81,3.71,3.71,0,0,1,3.9,2.25,18.31,18.31,0,0,1,1.48,5c.32,1.54.66,3.07,1,4.61v.37c-.31.05-.29-.23-.38-.39a19.16,19.16,0,0,0-1.86-3,5.34,5.34,0,0,0-4.42-2.07,7.79,7.79,0,0,0-5.17,2.19,61.07,61.07,0,0,0-5,4.41c-.36.43-1.09,1.26-1.09,1.3S229.56,89.34,229.78,88.81Z" transform="translate(-104 -32.43)"/></g><g id="Hat"><path id="Fill-67" class="cls-18" d="M270.9,41.63c0-.82-.09-1.59-.06-2.41a.47.47,0,0,0-.49-.55c-2.6-.19-5.78-.14-8.39-.35l-11.31-.94L241,36.6l-11.44-.94-9.65-.78-6.27-.51-6.07-.49-8.34-.69-.7,0c0-.07,0-.14,0-.22-1.37-.22-2.75-.23-4.12-.39-.19,0-.47.38-.63.19-.25,0-.17.11-.41.11-.11.19-.59-.25-.76-.22l-11.7,2.6-18.19,4v0l-10.23,2.26-21.87,4.81c-4.08.9-8.17,1.82-12.25,2.72s-8.41,1.84-12.62,2.75c-.45.1-.58.32-.47.72,1.39.33,2.78.66,4.17,1l10.6,2.7a1.76,1.76,0,0,1,.28.12,5.26,5.26,0,0,1,1.47.35c2.06.56,4.16.95,6.18,1.62,2.36.58,4.73,1.16,7.09,1.76l9,2.29q9.06,2.31,18.12,4.6c.49.12.62.33.65.83.12,2.09.05,4.19.11,6.28.52.1,1-.24,1.47-.23,2.06-.61,4.12-1.23,6.18-1.82l14.79-4.23,18.94-5.42,9.28-2.65a3.45,3.45,0,0,1,.36-.07l1.22-.42c.15-.05.25,0,.3,0q-26.2,7.5-52.4,15a2.88,2.88,0,0,1-1.75,0c-1.08-.34-2.18-.6-3.37-.92l.47,6.53c17.5-3.4,34.83-3.87,52,1.46.6-1.31,1.14-2.61,1.78-3.86.33-.64.69-1.27,1.07-1.86.18.39.27.82.78,1,0,0,.4-.58.43-.63a14.13,14.13,0,0,1,4.08-4.23.65.65,0,0,0,.27-.69c-.08-1.49-.09-3.11-.15-4.6s-.1-3.18-.24-4.63a23.93,23.93,0,0,0-.15-3c-.11-.5.54-.56,1-.68,2.31-.65,4.62-1.31,6.93-2l25.16-7.19c1.79-.51,3.58-1.06,5.37-1.59a11.62,11.62,0,0,0,1.86-.54,34.21,34.21,0,0,0,3.38-.94c2.52-.73,4.3-1.18,6.82-1.91.65-.19.94-.3,1.4-.41.11,0,.71-.17.8-.54v-.16s0-.65,0-1.2" transform="translate(-104 -32.43)"/><path id="Fill-69" class="cls-10" d="M193.75,34.09a2.85,2.85,0,0,0-1.17,0c-2.55.57-10.43,2.18-13,2.71l-12.76,2.7c0,.07.05,1.53.13,3.74,0,1.17.09,2.52.14,4l.06,1.72c.25,7.09.55,15.63.56,15.72,0,.56.62.67,1.6.51l10.13-2.68c15.9-4.15,88.91-23,88.93-23,2.21-.75-5.19-.68-6-.84C262,38.58,197.95,34.41,193.75,34.09Z" transform="translate(-104 -32.43)"/><path id="Fill-71" class="cls-10" d="M162.79,67.82c0-.5-.16-.7-.65-.83q-9.07-2.28-18.12-4.6l-9-2.29-7.09-1.76c-2-.67-4.12-1.06-6.18-1.62,0,0-.09,1-.09,1.66,0,1.4-.13,2.24-.06,3.62,0,.32,0,.92,0,.92,1.79.58,3.22.93,5,1.39l2.11.59,19.92,5.5c2.51.69,5,1.41,7.52,2.11l6,1.62c.25.07.51.21.74,0-.06-2.1,0-4.19-.11-6.28" transform="translate(-104 -32.43)"/><path id="Fill-73" class="cls-10" d="M109.39,53.55c-1.39-.35-3.58-.91-5-1.25.12,1.8.64,3.76.76,5.56,0,.46.64.76,1.12.89,3,.81,6,1.66,9,2.49,1.64.45,3.29.87,4.94,1.3q0-3.08,0-6.15a2.27,2.27,0,0,0-.28-.12l-10.6-2.71" transform="translate(-104 -32.43)"/><path id="Fill-75" class="cls-10" d="M197.43,62.39,178.5,67.81,163.71,72a51,51,0,0,1-7.52.45,1.58,1.58,0,0,1,.29.88c.09,2.25.5,4.54.72,6.82,3.67-.4,7.66-.87,8.57-.94,2-.16,5.42-.9,7.44-.94,3.22-.06,5.86-.71,9.08-.43,2.36.21,3.67.42,6,.65.71.07,7.51.22,8.21.29,1.54.14,18.61-19.69,18.58-20.23-.12,0-14.6,2.91-17.68,3.8" transform="translate(-104 -32.43)"/><path id="Fill-81" class="cls-19" d="M210.27,81.34c.6-1.31,1.13-2.61,1.78-3.86a15.64,15.64,0,0,1,5-6,1.35,1.35,0,0,0,.64-1.44c-.18-2.31-.33-4.63-.49-6.94-.09-1.24-.17-2.48-.25-3.72,0-.39-.2-.52-.57-.4l-.42.12-53,15.19a2.88,2.88,0,0,1-1.75,0c-1.08-.34-2.18-.6-3.37-.92l.47,6.53c17.5-3.4,34.83-3.87,52,1.46ZM267,39.14c0-.06,0-.11,0-.17l-11.19-.75-6.22-.41L239,37.11l-8.09-.53-10.52-.71-8.09-.53-10.45-.71-8.09-.52a4.52,4.52,0,0,0-1.17,0q-7.56,1.56-15.11,3.15l-19.59,4.16-24.47,5.17q-10.47,2.21-20.93,4.44c-2.33.5-4.64,1.07-7,1.6-.35.08-.56.24-.52.64.09.95.19,1.9.25,2.85a.8.8,0,0,0,.7.84l55.94,14.86a2.18,2.18,0,0,0,1.09,0L207,59.52l53.78-15q4.14-1.16,8.27-2.34c.19-.06.49-.26.49-.4,0-.82-.06-1.65-.11-2.57l-11.37,3s2.72-1,2.71-1.08c3.05-1,3.08-.94,6.13-1.93ZM211.16,83.48c-1.15-.33-2.28-.71-3.44-1a117.8,117.8,0,0,0-16.07-2.75,113.76,113.76,0,0,0-17-.49A99.6,99.6,0,0,0,157.6,81.5l-.57.1-1.17-6.72c0-.16-.09-.59-.11-.76-.19-1.48-.67-1.58-2-1.93q-24.38-6.63-48.74-13.38c-.47-.13-.69-.31-.72-.81-.07-1.53-.2-3.06-.28-4.59,0-.46-.16-1,.07-1.33s.84-.25,1.29-.35l18.65-4.11,23.57-5.21,31.53-7c4.44-1,8.86-2,13.31-2.91a13.58,13.58,0,0,1,3.53.06c2.3.16,4.6.38,6.9.57l8.57.71,8.33.67,8.39.7,8.14.66,8.57.71,8.21.67,8.51.7,6.77.54,1.93.14c.36,0,.49.18.49.55,0,1.26.08,2.53.08,3.79,0,.16-.29.4-.49.46-2.87.84-5.74,1.66-8.61,2.49L219.07,58.16c-.45.13-.64.33-.61.82q.21,3.85.37,7.7c.07,1.55.12,3.11.14,4.66a1,1,0,0,1-.41.69,18.83,18.83,0,0,0-7.28,11.32.58.58,0,0,0,0,.12h-.12Z" transform="translate(-104 -32.43)"/><g id="Strip"><path id="Fill-79" class="cls-20" d="M191.93,43a10.8,10.8,0,0,0-8.76.39A3.75,3.75,0,0,0,181,45.48c-.12.33-.43.32-.66.36-1.89.32-3.79.6-5.69.9-2.22.36-4.43.74-6.65,1.07-1.49.22-3,.57-4.48.66-.78.14-1.56.29-2.34.42l-4.21.69c0,.15-.07.32-.25.11h-.25a4.55,4.55,0,0,0-.55,0c-1.39.23-2.78.47-4.17.69l-7.45,1.16c-2.42.39-4.84.8-7.26,1.19-2.2.36-4.4.69-6.6,1-2.48.4-5,.78-7.45,1.27-1.94.39-2.63.62-2.72,1.29,0,0,0,1.39,0,1.4s0,2.71,0,4.76l1,.27c.24,0,.43-.08.42-.4-.07-1.38,0-5,.12-5.68.48-.11,4.06-1,4.54-1.11,2.26-.35,4.52-.68,6.78-1l8.1-1.3L148,52.2c1.72-.26,3.43-.5,5.15-.79,1.1-.18,5.21-.87,5.86-.95,1.34-.16,4.06-.61,4.1-.62l8.59-1.38L180,47.14c.63-.1,1.21-.21,1.64.47a2.21,2.21,0,0,0,1.11.74,10,10,0,0,0,5,.63,10.73,10.73,0,0,0,4.36-1.35,3,3,0,0,0,1.67-2.08c.14-1.13-.5-2-1.84-2.52" transform="translate(-104 -32.43)"/><path id="Fill-86" class="cls-21" d="M121,122a16.82,16.82,0,0,1-2.09,6.56.78.78,0,0,0-.09.61c.39.73.79,1.46,1.19,2.21l.11.21a3.64,3.64,0,0,0,.32-1.23c0-.22.12-1.17.25-2.35.07-.67.16-1.41.24-2.14.05-.48.1-1,.14-1.4.06-.85.14-1.44.12-2.07S121,122.07,121,122Z" transform="translate(-104 -32.43)"/><path id="Fill-84" class="cls-16" d="M121.38,103c-.29.21-.58.42-.84.65a4.46,4.46,0,0,0-.89,1,3.79,3.79,0,0,0-.22.42c-.24.55-.45,1.12-.64,1.7-.12.37-.22.75-.31,1.13,0,.21-.1.42-.14.62-.13.69-.25,1.37-.32,2.07,0,.42-.08.83-.09,1.26s0,.75,0,1.12a26,26,0,0,0,.29,2.69,9,9,0,0,0,1.51,3.83,5.47,5.47,0,0,1,.82,1.4,20.5,20.5,0,0,0,.24-3.19,7.92,7.92,0,0,1,.26,1.77A20,20,0,0,1,121,122a3.2,3.2,0,0,1,.2.41c0,.33-.19,2.52-.26,3.47-.22,2-.48,4.16-.49,4.49a3.64,3.64,0,0,1-.32,1.23l.88,1.59c.12-1.25.2-2.39.36-3.51s.38-2.31.65-3.45.61-2.16.93-3.23a6.41,6.41,0,0,1-.1,1.07c.05-.09.64,2.83,1,4.43.07,0,.07-.11.06-.18,0-.24,0-.47,0-.71a19.68,19.68,0,0,1,0-3.49c.34-1.85.87-3.67,1.4-5.48a25,25,0,0,0,1.33-9.63A12.86,12.86,0,0,0,124,102.3a.69.69,0,0,0-.84-.28l-.38.09-.21.14-.48.32Z" transform="translate(-104 -32.43)"/><path id="Fill-98" class="cls-15" d="M123.39,99.54a3.85,3.85,0,0,0-.47-1.64,4.35,4.35,0,0,0-.94-1.16,4.52,4.52,0,0,0-.84-.48,3.52,3.52,0,0,1-.18.59,1.4,1.4,0,0,1-1.38,0c-.09-.05-.18-.36-.28-.59-1.18-.14-2.3.73-2.8,2.25-.59,1.81-.21,2.67,1.64,3.71a5.16,5.16,0,0,0,.61.25,18.09,18.09,0,0,1-3.4-.87,7.45,7.45,0,0,0-.62,1c-.62,1.43-1.29,2.85-1.79,4.32a13.17,13.17,0,0,0-.3,8.41,41.1,41.1,0,0,0,1.8,4.52,15.63,15.63,0,0,1,1.86,7.69c-.05.73-.19,1.45-.31,2.32a15.4,15.4,0,0,0,4.66-8.93,8.07,8.07,0,0,0-.86-1.36,9,9,0,0,1-1.51-3.83,24.85,24.85,0,0,1-.29-2.69c0-.37,0-.73,0-1.1s0-.86.09-1.28c.07-.69.18-1.38.32-2.07,0-.21.09-.42.14-.62.09-.38.19-.76.31-1.13a17.88,17.88,0,0,1,.64-1.7,3.46,3.46,0,0,1,.22-.42,4.37,4.37,0,0,1,.89-1,9.25,9.25,0,0,1,.84-.65l.65-.45.48-.32.21-.14c-.37.08-.76.13-1.14.2l0-.16.49-.2a2.23,2.23,0,0,0,.67-.41,2,2,0,0,0,.39-.47,2.13,2.13,0,0,0,.29-1A3.82,3.82,0,0,0,123.39,99.54Z" transform="translate(-104 -32.43)"/><path id="Fill-134" class="cls-17" d="M193.45,44.6c-1.26,2.22-3.43,2.83-5.73,3.2a8,8,0,0,1-3.87-.36,7.2,7.2,0,0,1-2.14-1.05c-1.14-.84-.87-1.92.1-3a5.68,5.68,0,0,1,4-1.78c4.69-.35,6.87.29,7.65,2.09ZM121.13,96.26a3.37,3.37,0,0,1,1.79,1.65,4.1,4.1,0,0,1,.47,2.23,2.18,2.18,0,0,1-.29,1,1.85,1.85,0,0,1-.39.47,2.28,2.28,0,0,1-.67.41l-.49.2,0,.16c.38-.07.76-.12,1.14-.2l.38-.09a.68.68,0,0,1,.84.28,12.81,12.81,0,0,1,2.68,6.72,24.91,24.91,0,0,1-1.33,9.63c-.52,1.81-1.06,3.63-1.4,5.48a19.68,19.68,0,0,0,0,3.49c0,.24,0,.47,0,.71,0,.07,0,.18-.06.18s-.07,0-.13-.08l-.42-.41a5.11,5.11,0,0,1-.65-.76,1.51,1.51,0,0,1-.13-1c0-.33.11-.76.18-1.2s.09-.68.13-1a6.41,6.41,0,0,0,.1-1.07c-.32,1.08-.67,2.14-.93,3.23s-.48,2.29-.65,3.45-.24,2.27-.36,3.51l-.88-1.59-.11-.2c-.41-.74-.81-1.47-1.19-2.21a.76.76,0,0,1,.09-.61,16.45,16.45,0,0,0,2.08-6.48,20.51,20.51,0,0,0,.12-2.56,7.85,7.85,0,0,0-.26-1.77,20,20,0,0,1-.24,3.19,1.86,1.86,0,0,1,0,.18,15.26,15.26,0,0,1-4.59,8.71c.12-.88.26-1.6.31-2.32a15.63,15.63,0,0,0-1.86-7.69,42,42,0,0,1-1.8-4.52,13.17,13.17,0,0,1,.3-8.41c.5-1.47,1.16-2.89,1.79-4.32a6.78,6.78,0,0,1,.62-1,17.76,17.76,0,0,0,3.4.87,5.16,5.16,0,0,1-.61-.25c-1.84-1-2.23-1.9-1.64-3.71.5-1.52,1.62-2.39,2.79-2.25.11.24.19.54.28.59a1.4,1.4,0,0,0,1.38,0A3.18,3.18,0,0,0,121.13,96.26Zm69-54.84a17.31,17.31,0,0,0-4.09,0,7.62,7.62,0,0,0-4,1.58,3.28,3.28,0,0,0-1.2,1.63,1.13,1.13,0,0,1-.32.67l.15.5-59.54,9.52-.5-.16c-.69.17-.8.44-.81,1.38,0,.25,0,.49,0,.74V94.41c0,.91,0,.91-.88,1a4.37,4.37,0,0,0-3.16,1.55,3.68,3.68,0,0,0-.3.41,4.18,4.18,0,0,0-.44.92,5.5,5.5,0,0,0-.18.58,2,2,0,0,0,0,.69,4.43,4.43,0,0,0,.09,1,1,1,0,0,1-.25.8,13.91,13.91,0,0,0-3.39,5.8,15.55,15.55,0,0,0-.68,6.14,11.84,11.84,0,0,0,1,4,37,37,0,0,0,2.12,4.24,9.27,9.27,0,0,1,1.49,4.32,29.27,29.27,0,0,1-.36,3.9c-.13.91-.38,1.8-.48,2.83.93-.6,1.87-1.18,2.77-1.81.29-.21.48-.36.76,0l3.72,4.6c.28-2.25.43-4.51.6-6.94l2.46,1.74a1.35,1.35,0,0,0,.07-.68,18.59,18.59,0,0,1,1.14-9.49,25.18,25.18,0,0,0,2-11.6,10.91,10.91,0,0,0-2.45-6.52,2.82,2.82,0,0,1-.73-2,4.38,4.38,0,0,0-3.44-4.36c-.5-.09-.68-.29-.68-.81q0-19,0-38c0-.83.18-1,1-1.16l16.83-2.65,21.76-3.45c6.72-1.07,13.45-2.14,20.17-3.19a1.64,1.64,0,0,1,.92.28,11.91,11.91,0,0,0,1.78,1,10.9,10.9,0,0,0,8.5-.67c.95-.47,2.6-1.67,2.14-3.24C193.22,42.21,191.88,41.71,190.12,41.42Zm-4.33.23a5.68,5.68,0,0,0-4,1.78c-1,1-1.24,2.12-.1,3a7.09,7.09,0,0,0,2.14,1.05,8,8,0,0,0,3.87.36c2.29-.37,4.47-1,5.73-3.2v-.87c-.79-1.8-3-2.43-7.65-2.09" transform="translate(-104 -32.43)"/><path id="Fill-106" class="cls-16" d="M191.26,42.18a14.76,14.76,0,0,0-5.47-.28H186c.49,0,.83.29.78.83-.14,1.4.75,1.84,1.67,2.25a11.25,11.25,0,0,1,1.67.69c.35.22.46.45.36.68.39-.14.78-.29,1.16-.46a2.24,2.24,0,0,0,1.28-2.07,2.1,2.1,0,0,0-1.61-1.65" transform="translate(-104 -32.43)"/><path id="Fill-110" class="cls-21" d="M190.08,45.68a11.74,11.74,0,0,0-1.67-.69c-.93-.42-1.82-.86-1.67-2.25.06-.54-.29-.79-.78-.83h-.17c-.39,0-.72.11-1,.16a5.82,5.82,0,0,0-2.78,1.41,2.73,2.73,0,0,0-.79,1.67,1,1,0,0,0,.15.43,2.91,2.91,0,0,0,2,1.24,11.37,11.37,0,0,0,5,.14,15.88,15.88,0,0,0,2-.59c.11-.23,0-.46-.35-.68" transform="translate(-104 -32.43)"/><path id="Fill-138" class="cls-17" d="M183.44,46.81a2.92,2.92,0,0,1-2-1.24,1,1,0,0,1-.15-.43,1.34,1.34,0,0,0,.32.88,3.88,3.88,0,0,0,2.58,1.43,14.74,14.74,0,0,0,5-.35,2.12,2.12,0,0,0,.9-.35,1.08,1.08,0,0,0,.33-.39,15.88,15.88,0,0,1-2,.59,11.44,11.44,0,0,1-5-.15" transform="translate(-104 -32.43)"/><path id="Fill-146" class="cls-22" d="M180.69,45.77l-.14-.5h0a1.5,1.5,0,0,1-.81.3l-19.5,3.13-15.66,2.54-19,3.06-4.94.81h0l.5.16Z" transform="translate(-104 -32.43)"/></g></g></g></g></g></g></g></g></g></svg>