<?xml version="1.0" encoding="UTF-8" standalone="no"?>
<svg width="30px" height="48px" viewBox="0 0 30 48" version="1.1" xmlns="http://www.w3.org/2000/svg" xmlns:xlink="http://www.w3.org/1999/xlink"><script xmlns="" type="text/javascript" charset="utf-8" id="zm-extension"/>
    <!-- Generator: Sketch 43.1 (39012) - http://www.bohemiancoding.com/sketch -->
    <title>Group</title>
    <desc>Created with Sketch.</desc>
    <defs/>
    <g id="Page-1" stroke="none" stroke-width="1" fill="none" fill-rule="evenodd">
        <g id="Home-fold-#6-–-address-hover" transform="translate(-298.000000, -233.000000)">
            <g id="services" transform="translate(50.000000, 93.000000)">
                <g id="Group-2" transform="translate(93.000000, 32.000000)">
                    <g id="map-tooltip" transform="translate(6.000000, 0.000000)">
                        <g id="Снимок-экрана-2017-04-03-в-11.25.50" transform="translate(10.000000, 10.000000)">
                            <g id="map-location-pin" transform="translate(139.000000, 98.000000)">
                                <g id="Capa_1">
                                    <g id="Group">
                                        <path d="M15,0 C6.7155,0 0,6.7155 0,15 C0,25.5 15,48 15,48 C15,48 30,25.5 30,15 C30,6.7155 23.2815,0 15,0 Z M16.395,26.9115 C15.936,26.9505 15.4875,27 15,27 C14.5125,27 14.0625,26.9505 13.605,26.9115 C7.635,26.22 3,21.156 3,15 C3,8.3715 8.3715,3 15,3 C21.6225,3 27,8.3715 27,15 C27,21.156 22.359,26.22 16.395,26.9115 Z" id="Shape" fill="#212121"/>
                                        <circle id="Oval" stroke="#212121" stroke-width="2" fill="#FFD931" cx="15" cy="15" r="6"/>
                                    </g>
                                </g>
                            </g>
                        </g>
                    </g>
                </g>
            </g>
        </g>
    </g>
</svg>