<?xml version="1.0" encoding="UTF-8"?>
<!-- Generator: Adobe Illustrator 17.0.0, SVG Export Plug-In . SVG Version: 6.00 Build 0)  -->
<!DOCTYPE svg PUBLIC "-//W3C//DTD SVG 1.1//EN" "http://www.w3.org/Graphics/SVG/1.1/DTD/svg11.dtd">
<svg version="1.1" id="Layer_1" xmlns="http://www.w3.org/2000/svg" xmlns:xlink="http://www.w3.org/1999/xlink" x="0px" y="0px" width="623.62px" height="623.62px" viewBox="0 0 623.62 623.62" enable-background="new 0 0 623.62 623.62" xml:space="preserve"><script xmlns="" type="text/javascript" charset="utf-8" id="zm-extension"/>
<g>
	<g>
		<path fill="#211F1F" d="M250.113,344.424h-7.658v-39.026c4.726-2.037,11.732-3.423,17.517-3.423c4.889,0,8.392,0.815,10.836,2.77    c4.563-1.63,10.266-2.77,14.91-2.77c11.814,0,15.969,4.318,15.969,19.309v23.139h-7.658v-22.162c0-10.836-2.2-13.198-9.858-13.198    c-2.363,0-6.355,0.326-9.696,1.385c0.897,2.689,1.467,6.273,1.467,10.836v23.139H268.2v-22.162    c0-10.836-2.037-13.198-9.695-13.198c-2.771,0-5.948,0.407-8.392,1.14V344.424z"/>
		<path fill="#211F1F" d="M344.464,342.306c-4.889,2.037-12.14,3.259-17.68,3.259c-12.466,0-17.11-3.096-17.11-13.851    c0-11.732,6.844-13.606,16.294-13.606c3.911,0,7.089,0.407,10.999,1.222c0-8.637-2.199-10.592-11.243-10.592    c-4.237,0-8.881,0.652-12.222,1.955l-1.629-6.681c3.667-0.977,9.289-2.037,15.074-2.037c12.139,0,17.517,3.585,17.517,16.05    V342.306z M336.968,325.033c-2.607-0.652-6.11-0.896-9.613-0.896c-7.007,0-9.37,0.733-9.37,7.17c0,6.926,1.874,7.985,9.288,7.985    c3.421,0,6.925-0.652,9.695-1.63V325.033z"/>
		<path fill="#211F1F" d="M354.162,303.116h7.658v3.014c1.548-2.119,5.214-4.155,11.081-4.155c1.385,0,2.851,0.082,4.237,0.245    v7.495c-1.386-0.244-3.097-0.407-4.807-0.407c-5.541,0-10.51,1.63-10.51,5.051v30.065h-7.658V303.116z"/>
		<path fill="#211F1F" d="M413.964,343.284c-4.236,1.303-10.184,2.281-14.095,2.281c-12.221,0-19.635-5.052-19.635-21.998    c0-16.377,6.762-21.591,18.902-21.591c12.384,0,17.843,4.562,17.435,23.383h-28.108c0.081,11.081,3.911,13.444,12.303,13.444    c2.933,0,8.392-0.815,11.732-1.956L413.964,343.284z M388.544,319.085h20.369c-0.407-8.799-2.77-10.673-9.451-10.673    C391.967,308.412,389.196,310.856,388.544,319.085z"/>
		<path fill="#211F1F" d="M451.364,310.612c-3.341-1.223-7.903-2.119-11.977-2.119c-5.948,0-8.962,0.733-8.962,6.111    c0,3.421,2.281,4.807,9.37,5.458c10.347,0.897,14.828,4.156,14.828,12.058c0,10.348-6.029,13.444-16.783,13.444    c-4.237,0-10.837-0.815-14.829-2.2l1.874-6.519c2.934,1.222,8.555,2.2,12.792,2.2c6.029,0,9.125-0.896,9.125-6.355    c0-3.666-1.955-5.377-9.532-6.029c-9.533-0.815-14.747-3.341-14.747-11.407c0-10.266,6.437-13.281,17.028-13.281    c4.155,0,9.37,0.815,13.77,2.118L451.364,310.612z"/>
		<path fill="#211F1F" d="M471.409,309.96v20.124c0,6.03,1.629,8.555,7.006,8.555c2.77,0,5.296-0.407,7.415-1.141l1.466,6.355    c-2.607,0.977-6.763,1.711-10.184,1.711c-9.288,0-13.443-2.771-13.443-14.992V309.96l0,0v-6.844l0,0v-7.822l7.74-3.177v10.999    h14.502v6.844H471.409z"/>
		<path fill="#211F1F" d="M491.209,323.567c0-16.866,6.274-21.591,19.228-21.591c13.036,0,19.228,4.725,19.228,21.591    c0,16.946-6.111,21.998-19.228,21.998C497.401,345.565,491.209,340.513,491.209,323.567z M499.356,323.729    c0,12.385,2.689,15.318,11.081,15.318c8.392,0,11.081-2.933,11.081-15.318c0-12.954-2.689-15.235-11.081-15.235    C502.045,308.494,499.356,310.775,499.356,323.729z"/>
	</g>
	<g>
		
			<linearGradient id="SVGID_1_" gradientUnits="userSpaceOnUse" x1="790.7725" y1="-348.2841" x2="844.9852" y2="-334.6155" gradientTransform="matrix(0.772 0.228 0.228 0.772 -360.5017 360.5018)">
			<stop offset="0.1929" style="stop-color:#DEDE1D"/>
			<stop offset="0.2303" style="stop-color:#D8DC1F"/>
			<stop offset="0.2817" style="stop-color:#C6D626"/>
			<stop offset="0.3412" style="stop-color:#A9CD31"/>
			<stop offset="0.4064" style="stop-color:#81BF3F"/>
			<stop offset="0.4208" style="stop-color:#77BC43"/>
			<stop offset="0.494" style="stop-color:#56A942"/>
			<stop offset="0.6546" style="stop-color:#017B40"/>
			<stop offset="0.657" style="stop-color:#007A40"/>
			<stop offset="0.8053" style="stop-color:#1C5732"/>
		</linearGradient>
		<polygon fill="url(#SVGID_1_)" points="186.388,305.017 171.412,290.041 199.712,261.74 214.689,276.717   "/>
		<linearGradient id="SVGID_2_" gradientUnits="userSpaceOnUse" x1="178.6335" y1="282.7812" x2="231.6126" y2="335.7603">
			<stop offset="0.302" style="stop-color:#DEDE1D"/>
			<stop offset="0.3585" style="stop-color:#D8DC1F"/>
			<stop offset="0.4361" style="stop-color:#C6D626"/>
			<stop offset="0.526" style="stop-color:#A9CD31"/>
			<stop offset="0.6244" style="stop-color:#81BF3F"/>
			<stop offset="0.6462" style="stop-color:#77BC43"/>
			<stop offset="0.754" style="stop-color:#56A942"/>
			<stop offset="0.9909" style="stop-color:#017B40"/>
			<stop offset="0.9943" style="stop-color:#007A40"/>
		</linearGradient>
		<polygon fill="url(#SVGID_2_)" points="220.869,261.725 199.69,261.725 199.69,367.13 220.869,345.95   "/>
		<linearGradient id="SVGID_3_" gradientUnits="userSpaceOnUse" x1="141.2592" y1="300.5098" x2="84.5704" y2="357.1986">
			<stop offset="0.1108" style="stop-color:#DEDE1D"/>
			<stop offset="0.1558" style="stop-color:#D8DC1F"/>
			<stop offset="0.2175" style="stop-color:#C6D626"/>
			<stop offset="0.2889" style="stop-color:#A9CD31"/>
			<stop offset="0.3672" style="stop-color:#81BF3F"/>
			<stop offset="0.3845" style="stop-color:#77BC43"/>
			<stop offset="0.4822" style="stop-color:#56A942"/>
			<stop offset="0.6967" style="stop-color:#017B40"/>
			<stop offset="0.6998" style="stop-color:#007A40"/>
			<stop offset="0.9381" style="stop-color:#1C5732"/>
		</linearGradient>
		<polygon fill="url(#SVGID_3_)" points="104.468,345.95 125.647,367.13 125.647,307.472 104.468,286.293   "/>
		<linearGradient id="SVGID_4_" gradientUnits="userSpaceOnUse" x1="117.9933" y1="269.0851" x2="170.1601" y2="321.2518">
			<stop offset="0.1929" style="stop-color:#DEDE1D"/>
			<stop offset="0.2524" style="stop-color:#D8DC1F"/>
			<stop offset="0.334" style="stop-color:#C6D626"/>
			<stop offset="0.4286" style="stop-color:#A9CD31"/>
			<stop offset="0.5321" style="stop-color:#81BF3F"/>
			<stop offset="0.555" style="stop-color:#77BC43"/>
			<stop offset="0.6821" style="stop-color:#56A942"/>
			<stop offset="0.9612" style="stop-color:#017B40"/>
			<stop offset="0.9652" style="stop-color:#007A40"/>
		</linearGradient>
		<polygon fill="url(#SVGID_4_)" points="125.481,261.597 110.505,276.573 110.6,276.668 162.672,328.74 177.648,313.764   "/>
	</g>
</g>
</svg>