<?xml version="1.0" encoding="UTF-8" standalone="no"?>
<svg width="8px" height="15px" viewBox="0 0 8 15" version="1.1" xmlns="http://www.w3.org/2000/svg" xmlns:xlink="http://www.w3.org/1999/xlink"><script xmlns="" type="text/javascript" charset="utf-8" id="zm-extension"/>
    <!-- Generator: Sketch 43.1 (39012) - http://www.bohemiancoding.com/sketch -->
    <title>rect3010</title>
    <desc>Created with Sketch.</desc>
    <defs/>
    <g id="Page-1" stroke="none" stroke-width="1" fill="none" fill-rule="evenodd">
        <g id="Home-fold-#3-–-menu" transform="translate(-157.000000, -554.000000)" fill="#212121">
            <g id="fixed-elements" transform="translate(0.000000, 93.000000)">
                <g id="Group-13" transform="translate(153.000000, 402.000000)">
                    <path d="M5.61044822,59.2866374 C5.35776222,59.2866628 5.10643524,59.3905644 4.92775938,59.5693722 C4.7490832,59.7481797 4.64525819,59.9996919 4.64523277,60.2525641 L4.64523277,72.1656603 C4.64525819,72.4185335 4.7490832,72.6700447 4.92775938,72.8488538 C5.10643524,73.027663 5.35776222,73.1315613 5.61044822,73.131587 L10.4365255,73.131587 C10.6892115,73.1315613 10.9405385,73.027663 11.1192143,72.8488538 C11.2978905,72.6700447 11.4017155,72.4185335 11.4017409,72.1656603 L11.4017409,60.2525641 C11.4017155,59.9996919 11.2978905,59.7481797 11.1192143,59.5693722 C10.9405385,59.3905644 10.6892115,59.2866628 10.4365255,59.2866374 L5.61044822,59.2866374 Z M7.51775417,59.9305885 C7.5200999,59.9305372 7.52244647,59.9305372 7.5247922,59.9305885 C7.53015115,59.9303201 7.53552017,59.9303201 7.54087912,59.9305885 L8.50609458,59.9305885 C8.5641098,59.9297675 8.61807266,59.9602707 8.64731971,60.010418 C8.67656676,60.0605653 8.67656676,60.1225873 8.64731971,60.1727346 C8.61807266,60.2228819 8.5641098,60.2533852 8.50609458,60.2525641 L7.54087912,60.2525641 C7.4520335,60.2589546 7.3748332,60.1920584 7.36844742,60.1031473 C7.36206164,60.0142362 7.42890855,59.936979 7.51775417,59.9305885 L7.51775417,59.9305885 Z M4.96697125,60.8965153 L11.0800024,60.8965153 L11.0800024,71.3607214 L4.96697125,71.3607214 L4.96697125,60.8965153 Z M8.02348685,71.6826969 C8.2900237,71.6826969 8.50609458,71.898927 8.50609458,72.1656603 C8.50609458,72.4323945 8.2900237,72.6486237 8.02348685,72.6486237 C7.75695,72.6486237 7.54087912,72.4323945 7.54087912,72.1656603 C7.54087912,71.898927 7.75695,71.6826969 8.02348685,71.6826969 Z" id="rect3010"/>
                </g>
            </g>
        </g>
    </g>
</svg>