<?xml version="1.0" encoding="UTF-8" standalone="no"?>
<svg width="14px" height="13px" viewBox="0 0 14 13" version="1.1" xmlns="http://www.w3.org/2000/svg" xmlns:xlink="http://www.w3.org/1999/xlink"><script xmlns="" type="text/javascript" charset="utf-8" id="zm-extension"/>
    <!-- Generator: Sketch 43.1 (39012) - http://www.bohemiancoding.com/sketch -->
    <title>Group 16</title>
    <desc>Created with Sketch.</desc>
    <defs/>
    <g id="Page-1" stroke="none" stroke-width="1" fill="none" fill-rule="evenodd">
        <g id="Home-fold-#3-–-menu" transform="translate(-153.000000, -584.000000)" fill="#212121">
            <g id="fixed-elements" transform="translate(0.000000, 93.000000)">
                <g id="Group-13" transform="translate(153.000000, 402.000000)">
                    <g id="Group-16" transform="translate(0.853849, 89.394184)">
                        <path d="M0.400877509,6.24394156 C-0.076127123,6.49406913 -0.0563252702,6.86045318 0.444001544,7.05949836 L1.92430005,7.64562476 C2.42462687,7.84334884 3.18105764,7.73545931 3.60569738,7.40342376 L10.035579,2.32909281 C10.4584586,1.99573617 10.5037828,2.0450571 10.1363484,2.4387438 L5.05299279,7.88342209 C4.68467833,8.27622807 4.7933685,8.75710712 5.29501544,8.95130828 L5.46839166,9.01912456 C5.9700386,9.21288535 6.78851518,9.53963651 7.28664179,9.74220461 L8.92887545,10.4120004 C9.4274421,10.6145685 9.83536027,10.7827881 9.83624035,10.7858707 C9.83668039,10.7889533 9.8388806,10.7982009 9.84152084,10.7990817 C9.84416109,10.7999624 9.96165208,10.3754501 10.1029053,9.85625926 L12.6058595,0.649098657 C12.7471127,0.129467439 12.4729671,-0.0911556459 11.9964025,0.158971924 L0.400877509,6.24394156 Z" id="Shape"/>
                        <path d="M4.46465775,12.2703426 C4.43517499,12.3579753 5.47719249,10.7603295 5.47719249,10.7603295 C5.77158003,10.310276 5.60480443,9.77347056 5.10667782,9.57002173 L3.97049151,9.10411509 C3.4723649,8.90022589 3.23386258,9.13934433 3.44024189,9.637838 C3.44024189,9.63827837 4.49458055,12.180508 4.46465775,12.2703426 Z" id="Shape"/>
                    </g>
                </g>
            </g>
        </g>
    </g>
</svg>