<?xml version="1.0" encoding="UTF-8" standalone="no"?>
<svg width="12px" height="12px" viewBox="0 0 12 12" version="1.1" xmlns="http://www.w3.org/2000/svg" xmlns:xlink="http://www.w3.org/1999/xlink"><script xmlns="" type="text/javascript" charset="utf-8" id="zm-extension"/>
    <!-- Generator: Sketch 43.1 (39012) - http://www.bohemiancoding.com/sketch -->
    <title>1490887725_clock</title>
    <desc>Created with Sketch.</desc>
    <defs/>
    <g id="Page-1" stroke="none" stroke-width="1" fill="none" fill-rule="evenodd">
        <g id="Home-fold-#3-–-menu" transform="translate(-154.000000, -613.000000)" fill="#000000">
            <g id="fixed-elements" transform="translate(0.000000, 93.000000)">
                <g id="Group-13" transform="translate(153.000000, 402.000000)">
                    <g id="1490887725_clock" transform="translate(1.704595, 118.340872)">
                        <g id="clock">
                            <path d="M5.52985075,0 C2.47586499,0 0,2.47768946 0,5.53392569 C0,8.59028769 2.47586499,11.0678514 5.52985075,11.0678514 C8.58396218,11.0678514 11.0597015,8.59028769 11.0597015,5.53392569 C11.0597015,2.47768946 8.58396218,0 5.52985075,0 Z M5.52985075,10.0616831 C3.03111228,10.0616831 1.00542741,8.03450547 1.00542741,5.53392569 C1.00542741,3.0333459 3.03111228,1.00616831 5.52985075,1.00616831 C8.02858921,1.00616831 10.0542741,3.0333459 10.0542741,5.53392569 C10.0542741,8.03450547 8.02858921,10.0616831 5.52985075,10.0616831 Z" id="Shape"/>
                            <path d="M6.03256445,5.32552308 L6.03256445,2.51542077 C6.03256445,2.23759254 5.80747439,2.01233661 5.52985075,2.01233661 C5.2522271,2.01233661 5.02713704,2.23759254 5.02713704,2.51542077 L5.02713704,5.53392569 C5.02713704,5.53505763 5.02751408,5.53618957 5.02751408,5.5373215 C5.02763976,5.56914158 5.03078172,5.60096165 5.03706564,5.63227864 C5.04008192,5.64774848 5.04573745,5.66170906 5.05013619,5.67680159 C5.05503765,5.69340336 5.05880801,5.71025668 5.06546896,5.72648115 C5.07275831,5.74383755 5.08256123,5.7596847 5.09161007,5.77603494 C5.09839671,5.78861204 5.10380088,5.80118914 5.11171862,5.81313739 C5.13019335,5.84093279 5.15118165,5.8669674 5.17468351,5.89023504 L6.59623219,7.31295702 C6.79254189,7.50941139 7.1111367,7.50941139 7.30732073,7.31295702 C7.50363043,7.11650266 7.50363043,6.79767308 7.30732073,6.60159603 L6.03256445,5.32552308 Z" id="Shape"/>
                        </g>
                    </g>
                </g>
            </g>
        </g>
    </g>
</svg>