<?xml version="1.0" encoding="UTF-8" standalone="no"?>
<svg width="11px" height="16px" viewBox="0 0 11 16" version="1.1" xmlns="http://www.w3.org/2000/svg" xmlns:xlink="http://www.w3.org/1999/xlink"><script xmlns="" type="text/javascript" charset="utf-8" id="zm-extension"/>
    <!-- Generator: Sketch 43.1 (39012) - http://www.bohemiancoding.com/sketch -->
    <title>Group 15</title>
    <desc>Created with Sketch.</desc>
    <defs/>
    <g id="Page-1" stroke="none" stroke-width="1" fill="none" fill-rule="evenodd">
        <g id="Home-fold-#3-–-menu" transform="translate(-156.000000, -495.000000)" fill="#212121">
            <g id="fixed-elements" transform="translate(0.000000, 93.000000)">
                <g id="Group-13" transform="translate(153.000000, 402.000000)">
                    <g id="Group-15" transform="translate(3.406088, 0.000000)">
                        <path d="M5.10447761,15.2477744 L4.84191604,14.8675299 C4.64443657,14.5811492 0,7.82167185 0,5.1082391 C0,2.29168376 2.28999627,0 5.10447761,0 C7.91895896,0 10.2089552,2.29168376 10.2089552,5.1082391 C10.2089552,7.82167185 5.56451866,14.5811492 5.36703918,14.8675299 L5.10447761,15.2477744 Z M5.10447761,0.638529887 C2.64156716,0.638529887 0.638059701,2.64351373 0.638059701,5.1082391 C0.638059701,7.27509027 4.11069963,12.6285248 5.10447761,14.1159802 C6.0982556,12.6285248 9.57089552,7.27509027 9.57089552,5.1082391 C9.57089552,2.64351373 7.56738806,0.638529887 5.10447761,0.638529887 Z" id="Shape"/>
                        <path d="M5.10447761,7.3430937 C3.87334142,7.3430937 2.87126866,6.34060178 2.87126866,5.1082391 C2.87126866,3.87587641 3.87334142,2.87338449 5.10447761,2.87338449 C6.33561381,2.87338449 7.33768657,3.87587641 7.33768657,5.1082391 C7.33768657,6.34060178 6.33561381,7.3430937 5.10447761,7.3430937 Z M5.10447761,3.51191438 C4.22491231,3.51191438 3.50932836,4.22802565 3.50932836,5.1082391 C3.50932836,5.98845254 4.22491231,6.70456381 5.10447761,6.70456381 C5.98404291,6.70456381 6.69962687,5.98845254 6.69962687,5.1082391 C6.69962687,4.22802565 5.98404291,3.51191438 5.10447761,3.51191438 Z" id="Shape"/>
                    </g>
                </g>
            </g>
        </g>
    </g>
</svg>