<?xml version="1.0" encoding="UTF-8" standalone="no"?>
<svg width="7px" height="15px" viewBox="0 0 7 15" version="1.1" xmlns="http://www.w3.org/2000/svg" xmlns:xlink="http://www.w3.org/1999/xlink"><script xmlns="" type="text/javascript" charset="utf-8" id="zm-extension"/>
    <!-- Generator: Sketch 43.1 (39012) - http://www.bohemiancoding.com/sketch -->
    <title>Shape</title>
    <desc>Created with Sketch.</desc>
    <defs/>
    <g id="Page-1" stroke="none" stroke-width="1" fill="none" fill-rule="evenodd">
        <g id="Home-fold-#3-–-menu" transform="translate(-157.000000, -525.000000)" fill="#212121">
            <g id="fixed-elements" transform="translate(0.000000, 93.000000)">
                <g id="Group-13" transform="translate(153.000000, 402.000000)">
                    <path d="M9.3391134,38.2895648 C8.16048566,39.4690611 6.79561778,40.5965624 6.25625081,40.056649 C5.48374869,39.2837266 5.00750388,38.6104736 3.3048431,39.9799229 C1.60203345,41.3499681 2.90988297,42.2627852 3.65811879,43.0118704 C4.52158233,43.8758212 7.74036599,43.0573101 10.9219314,39.8738472 C14.1030502,36.6896393 14.9215541,33.4684837 14.057495,32.604086 C13.3091103,31.8551498 12.3969653,30.5467835 11.0285245,32.2509969 C9.65978589,33.9544654 10.3322453,34.4312101 11.1048963,35.2042815 C11.6441144,35.7441949 10.5177411,37.1099196 9.3391134,38.2895648 Z" id="Shape" transform="translate(8.424683, 37.374475) scale(-1, 1) rotate(-45.000000) translate(-8.424683, -37.374475) "/>
                </g>
            </g>
        </g>
    </g>
</svg>