<?xml version="1.0" encoding="UTF-8" standalone="no"?>
<svg width="15px" height="16px" viewBox="0 0 15 16" version="1.1" xmlns="http://www.w3.org/2000/svg" xmlns:xlink="http://www.w3.org/1999/xlink"><script xmlns="" type="text/javascript" charset="utf-8" id="zm-extension"/>
    <!-- Generator: Sketch 43.1 (39012) - http://www.bohemiancoding.com/sketch -->
    <title>1490887992_whatsapp-logo</title>
    <desc>Created with Sketch.</desc>
    <defs/>
    <g id="Page-1" stroke="none" stroke-width="1" fill="none" fill-rule="evenodd">
        <g id="Home-fold-#3-–-menu" transform="translate(-355.000000, -661.000000)" fill="#000000">
            <g id="fixed-elements" transform="translate(0.000000, 93.000000)">
                <g id="Group-13" transform="translate(153.000000, 402.000000)">
                    <g id="Group-4">
                        <g id="Group-17" transform="translate(0.003103, 162.612278)">
                            <g id="1490887992_whatsapp-logo" transform="translate(202.477612, 4.256866)">
                                <g id="Capa_1">
                                    <path d="M14.4626866,7.04369413 C14.4626866,10.9354155 11.2808955,14.0873883 7.3599005,14.0873883 C6.12253731,14.0873883 4.94945274,13.7657584 3.92099502,13.2029061 L0,14.4733441 L1.28557214,10.6941931 C0.64278607,9.63281458 0.27318408,8.37845809 0.27318408,7.05977562 C0.257114428,3.15197272 3.43890547,0 7.3599005,0 C11.2808955,0 14.4626866,3.15197272 14.4626866,7.04369413 Z M7.3599005,1.12570454 C4.06562189,1.12570454 1.3980597,3.77915096 1.3980597,7.04369413 C1.3980597,8.3462951 1.81587065,9.53632561 2.53900498,10.5172967 L1.799801,12.7204613 L4.09776119,11.9967941 C5.04587065,12.6239724 6.17074627,12.9777652 7.37597015,12.9777652 C10.6541791,12.9777652 13.3378109,10.3243188 13.3378109,7.04369413 C13.3378109,3.76306947 10.6541791,1.12570454 7.3599005,1.12570454 Z M10.9434328,8.66792497 C10.8952239,8.60359899 10.7827363,8.55535451 10.6059701,8.45886555 C10.429204,8.37845809 9.57751244,7.96033926 9.41681592,7.89601328 C9.2561194,7.83168731 9.14363184,7.81560582 9.03114428,7.97642075 C8.91865672,8.15331718 8.58119403,8.53927302 8.48477612,8.65184348 C8.38835821,8.76441393 8.27587065,8.78049542 8.11517413,8.70008796 C7.93840796,8.61968049 7.37597015,8.42670257 6.71711443,7.8477688 C6.20288557,7.39748699 5.84935323,6.81855322 5.75293532,6.65773829 C5.65651741,6.48084186 5.73686567,6.3843529 5.83328358,6.30394543 C5.91363184,6.22353796 6.01004975,6.09488602 6.09039801,5.99839706 C6.17074627,5.9019081 6.20288557,5.82150063 6.26716418,5.70893017 C6.33144279,5.59635972 6.29930348,5.49987076 6.25109453,5.4033818 C6.20288557,5.32297433 5.86542289,4.47065518 5.72079602,4.11686232 C5.57616915,3.77915096 5.43154229,3.82739544 5.33512438,3.82739544 C5.23870647,3.82739544 5.11014925,3.81131395 4.99766169,3.81131395 C4.88517413,3.81131395 4.69233831,3.85955843 4.53164179,4.02037336 C4.37094527,4.19726979 3.92099502,4.61538862 3.92099502,5.46770777 C3.92099502,6.32002693 4.54771144,7.14018309 4.6280597,7.25275355 C4.70840796,7.365324 5.83328358,9.16645127 7.60094527,9.85795548 C9.36860697,10.5494597 9.36860697,10.3243188 9.69,10.2921558 C10.011393,10.2599928 10.7184577,9.87403698 10.8630846,9.47199964 C10.9916418,9.0860438 10.9916418,8.74833244 10.9434328,8.66792497 Z" id="WhatsApp"/>
                                </g>
                            </g>
                        </g>
                    </g>
                </g>
            </g>
        </g>
    </g>
</svg>