<?xml version="1.0" encoding="UTF-8" standalone="no"?>
<svg width="15px" height="16px" viewBox="0 0 15 16" version="1.1" xmlns="http://www.w3.org/2000/svg" xmlns:xlink="http://www.w3.org/1999/xlink"><script xmlns="" type="text/javascript" charset="utf-8" id="zm-extension"/>
    <!-- Generator: Sketch 43.1 (39012) - http://www.bohemiancoding.com/sketch -->
    <title>_Group_</title>
    <desc>Created with Sketch.</desc>
    <defs/>
    <g id="Page-1" stroke="none" stroke-width="1" fill="none" fill-rule="evenodd">
        <g id="Home-fold-#3-–-menu" transform="translate(-294.000000, -662.000000)" stroke-width="0.850746269" stroke="#212121">
            <g id="fixed-elements" transform="translate(0.000000, 93.000000)">
                <g id="Group-13" transform="translate(153.000000, 402.000000)">
                    <g id="Group-4">
                        <g id="Group-17" transform="translate(0.003103, 162.612278)">
                            <g id="1490887967_social_media_social_media_logo_viber" transform="translate(141.223881, 5.108239)">
                                <g id="Group">
                                    <g id="Viber">
                                        <g id="_Group_">
                                            <path d="M4.93046133,8.22349097 C5.78507463,9.07873403 7.67179783,10.1971288 8.54613297,10.1971288 C9.33686077,10.205295 10.0240068,9.65517305 10.1896201,8.88137025 L10.1896201,8.22349097 C10.1896201,8.22349097 9.38102442,7.8287634 8.87483039,7.56561169 C8.36863636,7.30245998 7.56004071,8.22349097 7.56004071,8.22349097 C6.94480243,8.02291303 6.38292771,7.68553977 5.9165536,7.23667205 C5.4680164,6.76995427 5.13089157,6.20766551 4.93046133,5.59197386 C4.93046133,5.59197386 5.85081411,4.78278235 5.58785617,4.2762153 C5.32489824,3.76964826 4.93046133,2.96045675 4.93046133,2.96045675 L4.27306649,2.96045675 C3.49983348,3.12619204 2.95011663,3.81384446 2.9582768,4.60515494 C2.9582768,5.48013438 4.07584803,7.36824791 4.93046133,8.22349097 Z" id="_Path_"/>
                                            <path d="M7.23134328,4.93409458 C7.775947,4.93409458 8.21743555,5.37590846 8.21743555,5.9209135" id="_Path_2"/>
                                            <path d="M7.23134328,2.30257747 C9.22822359,2.30257747 10.8470149,3.92256169 10.8470149,5.9209135" id="_Path_3"/>
                                            <path d="M7.23134328,3.61833603 C8.5020853,3.61833603 9.53222524,4.64923507 9.53222524,5.9209135" id="_Path_4"/>
                                            <path d="M7.23134328,0.328939639 C3.64854138,0.328939639 0.328697422,0.907873403 0.328697422,6.24985314 C0.328697422,9.67082538 1.6960787,11.1378962 3.61567164,11.7497239 L3.61567164,13.4667888 C3.58564477,13.763826 3.75925419,14.0438569 4.03852895,14.1488551 C4.31780371,14.2538534 4.63271651,14.1574908 4.80555631,13.9141467 L6.34386024,12.157609 L7.23134328,12.157609 C10.8141452,12.157609 14.1339891,11.5852541 14.1339891,6.23669555 C14.1339891,0.888137025 10.8141452,0.328939639 7.23134328,0.328939639 Z" id="_Path_5"/>
                                        </g>
                                    </g>
                                </g>
                            </g>
                        </g>
                    </g>
                </g>
            </g>
        </g>
    </g>
</svg>