<?xml version="1.0" encoding="UTF-8" standalone="no"?>
<svg width="31px" height="21px" viewBox="0 0 31 21" version="1.1" xmlns="http://www.w3.org/2000/svg" xmlns:xlink="http://www.w3.org/1999/xlink"><script xmlns="" type="text/javascript" charset="utf-8" id="zm-extension"/>
    <!-- Generator: Sketch 43.1 (39012) - http://www.bohemiancoding.com/sketch -->
    <title>Combined Shape</title>
    <desc>Created with Sketch.</desc>
    <defs/>
    <g id="Page-1" stroke="none" stroke-width="1" fill="none" fill-rule="evenodd">
        <g id="Home-mobile" transform="translate(-15.000000, -30.000000)" fill="#212121">
            <path d="M25,31.5 C25,30.6715729 25.6749231,30 26.4934332,30 L44.5065668,30 C45.3313672,30 46,30.6657972 46,31.5 C46,32.3284271 45.3250769,33 44.5065668,33 L26.4934332,33 C25.6686328,33 25,32.3342028 25,31.5 Z M15,40.5 C15,39.6715729 15.6763089,39 16.4951944,39 L44.5048056,39 C45.3305786,39 46,39.6657972 46,40.5 C46,41.3284271 45.3236911,42 44.5048056,42 L16.4951944,42 C15.6694214,42 15,41.3342028 15,40.5 Z M30,49.5 C30,48.6715729 30.6671298,48 31.5052412,48 L44.4947588,48 C45.3260806,48 46,48.6657972 46,49.5 C46,50.3284271 45.3328702,51 44.4947588,51 L31.5052412,51 C30.6739194,51 30,50.3342028 30,49.5 Z" id="Combined-Shape"/>
        </g>
    </g>
</svg>