<?xml version="1.0" encoding="UTF-8" standalone="no"?>
<svg width="23px" height="23px" viewBox="0 0 23 23" version="1.1" xmlns="http://www.w3.org/2000/svg" xmlns:xlink="http://www.w3.org/1999/xlink"><script xmlns="" type="text/javascript" charset="utf-8" id="zm-extension"/>
    <!-- Generator: Sketch 43.1 (39012) - http://www.bohemiancoding.com/sketch -->
    <title>Combined Shape</title>
    <desc>Created with Sketch.</desc>
    <defs/>
    <g id="Page-1" stroke="none" stroke-width="1" fill="none" fill-rule="evenodd">
        <g id="Mobile-subnav" transform="translate(-337.000000, -15.000000)" fill="#212121">
            <path d="M348.402022,24.2807014 L339.559789,15.4384686 C338.980749,14.8594291 338.027653,14.8560802 337.441867,15.4418666 C336.851996,16.0317371 336.854559,16.9758792 337.438469,17.5597889 L346.280701,26.4020218 L337.438469,35.2442546 C336.859429,35.8232941 336.85608,36.7763904 337.441867,37.3621769 C338.031737,37.9520473 338.975879,37.9494847 339.559789,37.3655749 L348.402022,28.5233421 L357.244255,37.3655749 C357.823294,37.9446144 358.77639,37.9479633 359.362177,37.3621769 C359.952047,36.7723064 359.949485,35.8281643 359.365575,35.2442546 L350.523342,26.4020218 L359.365575,17.5597889 C359.944614,16.9807495 359.947963,16.0276531 359.362177,15.4418666 C358.772306,14.8519962 357.828164,14.8545589 357.244255,15.4384686 L348.402022,24.2807014 Z" id="Combined-Shape"/>
        </g>
    </g>
</svg>