<?xml version="1.0" encoding="UTF-8" standalone="no"?>
<svg width="32px" height="23px" viewBox="0 0 32 23" version="1.1" xmlns="http://www.w3.org/2000/svg" xmlns:xlink="http://www.w3.org/1999/xlink"><script xmlns="" type="text/javascript" charset="utf-8" id="zm-extension"/>
    <!-- Generator: Sketch 43.1 (39012) - http://www.bohemiancoding.com/sketch -->
    <title>Combined Shape</title>
    <desc>Created with Sketch.</desc>
    <defs/>
    <g id="Page-1" stroke="none" stroke-width="1" fill="none" fill-rule="evenodd">
        <g id="Mobile-subnav" transform="translate(-15.000000, -15.000000)" fill="#212121">
            <g id="Group-2" transform="translate(31.000000, 26.500000) scale(-1, 1) translate(-31.000000, -26.500000) translate(15.000000, 15.000000)">
                <path d="M27.0357881,10.1571085 L19.4479736,2.56929398 C18.8588144,1.98013475 18.8519962,1.03173708 19.4418666,0.441866647 C20.0276531,-0.14391979 20.973757,-0.14756332 21.569294,0.447973641 L31.4565749,10.3352546 C31.7690891,10.6477688 31.9177514,11.061361 31.9004204,11.4689056 C31.9080579,11.8630524 31.7602356,12.2609392 31.4546515,12.5665233 L21.5673706,22.4538042 C20.9782114,23.0429634 20.0298137,23.0497816 19.4399433,22.4599112 C18.8541568,21.8741248 18.8505133,20.9280208 19.4460503,20.3324839 L26.6214256,13.1571085 L1.94602657,13.1571085 C1.1195265,13.1571085 0.449515803,12.4913112 0.449515803,11.6571085 C0.449515803,10.8286813 1.12212861,10.1571085 1.94602657,10.1571085 L27.0357881,10.1571085 Z" id="Combined-Shape"/>
            </g>
        </g>
    </g>
</svg>