<?xml version="1.0" encoding="UTF-8" standalone="no"?>
<svg width="23px" height="6px" viewBox="0 0 23 6" version="1.1" xmlns="http://www.w3.org/2000/svg" xmlns:xlink="http://www.w3.org/1999/xlink"><script xmlns="" type="text/javascript" charset="utf-8" id="zm-extension"/>
    <!-- Generator: Sketch 43.1 (39012) - http://www.bohemiancoding.com/sketch -->
    <title>Combined Shape</title>
    <desc>Created with Sketch.</desc>
    <defs/>
    <g id="Page-1" stroke="none" stroke-width="1" fill="none" fill-rule="evenodd">
        <g id="Home-mobile" transform="translate(-283.000000, -679.000000)" fill="#212121">
            <g id="projects" transform="translate(-51.000000, 514.041631)">
                <g transform="translate(65.000000, 109.000000)" id="Group-12">
                    <g transform="translate(1.000000, 40.000000)">
                        <path d="M270.5,21 C269.119288,21 268,19.8807119 268,18.5 C268,17.1192881 269.119288,16 270.5,16 C271.880712,16 273,17.1192881 273,18.5 C273,19.8807119 271.880712,21 270.5,21 Z M279.5,21 C278.119288,21 277,19.8807119 277,18.5 C277,17.1192881 278.119288,16 279.5,16 C280.880712,16 282,17.1192881 282,18.5 C282,19.8807119 280.880712,21 279.5,21 Z M288.5,21 C287.119288,21 286,19.8807119 286,18.5 C286,17.1192881 287.119288,16 288.5,16 C289.880712,16 291,17.1192881 291,18.5 C291,19.8807119 289.880712,21 288.5,21 Z" id="Combined-Shape"/>
                    </g>
                </g>
            </g>
        </g>
    </g>
</svg>