<?xml version="1.0" encoding="UTF-8" standalone="no"?>
<svg width="23px" height="5px" viewBox="0 0 23 5" version="1.1" xmlns="http://www.w3.org/2000/svg" xmlns:xlink="http://www.w3.org/1999/xlink"><script xmlns="" type="text/javascript" charset="utf-8" id="zm-extension"/>
    <!-- Generator: Sketch 43.1 (39012) - http://www.bohemiancoding.com/sketch -->
    <title>Combined Shape</title>
    <desc>Created with Sketch.</desc>
    <defs/>
    <g id="Page-1" stroke="none" stroke-width="1" fill="none" fill-rule="evenodd">
        <g id="Home-fold-#2-Copy" transform="translate(-63.000000, -547.000000)" fill="#FFD931">
            <g id="projects" transform="translate(50.000000, 93.000000)">
                <g transform="translate(5.000000, -35.000000)" id="Group-12">
                    <g transform="translate(0.000000, 174.000000)">
                        <path d="M10.5,320 C9.11928813,320 8,318.880712 8,317.5 C8,316.119288 9.11928813,315 10.5,315 C11.8807119,315 13,316.119288 13,317.5 C13,318.880712 11.8807119,320 10.5,320 Z M19.5,320 C18.1192881,320 17,318.880712 17,317.5 C17,316.119288 18.1192881,315 19.5,315 C20.8807119,315 22,316.119288 22,317.5 C22,318.880712 20.8807119,320 19.5,320 Z M28.5,320 C27.1192881,320 26,318.880712 26,317.5 C26,316.119288 27.1192881,315 28.5,315 C29.8807119,315 31,316.119288 31,317.5 C31,318.880712 29.8807119,320 28.5,320 Z" id="Combined-Shape"/>
                    </g>
                </g>
            </g>
        </g>
    </g>
</svg>