<?xml version="1.0" encoding="UTF-8"?>
<!-- Generator: Adobe Illustrator 17.0.0, SVG Export Plug-In . SVG Version: 6.00 Build 0)  -->
<!DOCTYPE svg PUBLIC "-//W3C//DTD SVG 1.1//EN" "http://www.w3.org/Graphics/SVG/1.1/DTD/svg11.dtd">
<svg version="1.1" id="Layer_1" xmlns="http://www.w3.org/2000/svg" xmlns:xlink="http://www.w3.org/1999/xlink" x="0px" y="0px" width="1000px" height="1000px" viewBox="0 0 1000 1000" enable-background="new 0 0 1000 1000" xml:space="preserve"><script xmlns="" type="text/javascript" charset="utf-8" id="zm-extension"/>
<g>
	<g>
		<path fill="#F39335" d="M299.735,422.357c0-3.896-3.158-7.053-7.054-7.053c-3.896,0-7.053,3.158-7.053,7.053v24.483    c-3.073-1.632-6.469-2.667-10.007-2.871c-15.794-0.793-31.76-0.795-47.654,0.003c-12.066,0.693-22.634,10.921-23.562,22.857    c-0.668,9.603-0.668,19.339,0.005,28.999c0.923,11.878,11.491,22.106,23.607,22.803c7.897,0.397,15.906,0.598,23.803,0.598    s15.905-0.202,23.853-0.6c12.064-0.695,22.631-10.923,23.561-22.859c0.332-4.789,0.499-9.613,0.499-14.444    c0-0.009,0.003-0.018,0.003-0.027V422.357z M285.163,494.733c-0.371,4.759-5.377,9.526-10.25,9.807    c-15.324,0.77-30.915,0.768-46.136,0.002c-4.924-0.283-9.932-5.049-10.297-9.751c-0.623-8.952-0.623-18.03-0.004-26.925    c0.369-4.759,5.375-9.526,10.25-9.806c7.662-0.385,15.431-0.581,23.091-0.581h0.003c7.662,0,15.432,0.196,23.043,0.578    c4.924,0.282,9.93,5.049,10.296,9.751C285.781,476.761,285.781,485.839,285.163,494.733z"/>
		<g>
			<circle cx="251.819" cy="480.817" r="11.188"/>
			<circle fill="#FFFFFF" cx="245.528" cy="479.677" r="3.547"/>
		</g>
		<path fill="#F39335" d="M196.216,466.772c-0.925-11.878-11.493-22.107-23.607-22.803c-15.794-0.793-31.759-0.795-47.656,0.003    c-12.066,0.695-22.633,10.924-23.561,22.857c-0.333,4.789-0.5,9.612-0.5,14.441c0,0.011-0.004,0.02-0.004,0.031v58.942    c0,3.896,3.158,7.054,7.054,7.054s7.053-3.158,7.053-7.054V515.76c3.073,1.633,6.47,2.667,10.008,2.871    c7.897,0.397,15.905,0.598,23.802,0.598c7.897,0,15.906-0.202,23.853-0.6c12.064-0.693,22.633-10.921,23.562-22.859    C196.888,486.168,196.888,476.432,196.216,466.772z M182.15,494.733c-0.37,4.76-5.377,9.527-10.25,9.807    c-15.324,0.77-30.915,0.768-46.138,0.002c-4.925-0.282-9.931-5.049-10.296-9.751c-0.623-8.952-0.623-18.03-0.004-26.925    c0.37-4.759,5.377-9.526,10.25-9.806c7.662-0.385,15.431-0.581,23.091-0.581h0.002c7.662,0,15.432,0.196,23.044,0.578    c4.924,0.282,9.93,5.049,10.296,9.751C182.768,476.761,182.768,485.839,182.15,494.733z"/>
		<g>
			<circle cx="148.806" cy="480.817" r="11.189"/>
			<circle fill="#FFFFFF" cx="142.515" cy="479.677" r="3.546"/>
		</g>
		<path d="M260.027,559.249l-8.964-16.999c-1.154-2.188-3.863-3.023-6.051-1.872c-2.188,1.154-3.026,3.864-1.873,6.051l2.204,4.18    c-14.374,8.694-30.84,13.31-47.705,13.31c-17.173,0-33.946-4.761-48.504-13.767c-2.106-1.304-4.864-0.649-6.165,1.452    c-1.301,2.104-0.652,4.864,1.452,6.165c15.976,9.884,34.377,15.108,53.217,15.108c18.324,0,36.216-4.98,51.883-14.346l2.582,4.897    c0.803,1.521,2.356,2.39,3.965,2.39c0.705,0,1.419-0.167,2.086-0.518C260.343,564.147,261.181,561.438,260.027,559.249z"/>
	</g>
	<g>
		<path d="M349.774,449.294c4.774-0.796,11.028-1.48,18.991-1.48c9.785,0,16.946,2.275,21.497,6.372    c4.209,3.643,6.714,9.213,6.714,16.039c0,6.938-2.052,12.396-5.919,16.381c-5.228,5.57-13.764,8.417-23.43,8.417    c-2.959,0-5.688-0.119-7.964-0.684v30.71h-9.89V449.294z M359.664,486.264c2.164,0.565,4.893,0.796,8.194,0.796    c11.942,0,19.222-5.8,19.222-16.381c0-10.12-7.168-15.013-18.084-15.013c-4.327,0-7.622,0.342-9.332,0.796V486.264z"/>
		<path d="M413.148,500.935l-7.964,24.114h-10.239l26.048-76.663h11.949l26.159,76.663h-10.581l-8.187-24.114H413.148z     M438.288,493.202l-7.51-22.069c-1.71-5.004-2.841-9.555-3.978-13.987h-0.23c-1.138,4.551-2.387,9.213-3.867,13.875l-7.51,22.181    H438.288z"/>
		<path d="M470.387,448.386h9.89v68.358h32.762v8.306h-42.652V448.386z"/>
		<path d="M524.088,448.386h9.89v68.358h32.762v8.306h-42.652V448.386z"/>
		<path d="M590.192,500.935l-7.964,24.114h-10.239l26.048-76.663h11.949l26.159,76.663h-10.581l-8.187-24.114H590.192z     M615.332,493.202l-7.51-22.069c-1.71-5.004-2.841-9.555-3.978-13.987h-0.23c-1.138,4.551-2.387,9.213-3.867,13.875l-7.51,22.181    H615.332z"/>
		<path d="M647.431,449.412c6.023-0.914,13.191-1.598,21.036-1.598c14.224,0,24.345,3.301,31.059,9.555    c6.819,6.261,10.804,15.132,10.804,27.527c0,12.514-3.867,22.753-11.035,29.803c-7.168,7.168-18.998,11.035-33.9,11.035    c-7.049,0-12.961-0.342-17.965-0.914V449.412z M657.321,517.205c2.506,0.454,6.142,0.565,10.016,0.565    c21.155,0,32.643-11.83,32.643-32.532c0.112-18.084-10.127-29.572-31.052-29.572c-5.123,0-8.99,0.454-11.607,1.026V517.205z"/>
		<path d="M733.105,448.386v76.663h-9.89v-76.663H733.105z"/>
		<path d="M760.297,448.386v45.381c0,17.177,7.622,24.456,17.861,24.456c11.377,0,18.656-7.503,18.656-24.456v-45.381h10.009v44.704    c0,23.542-12.403,33.209-29.007,33.209c-15.697,0-27.527-8.983-27.527-32.755v-45.158H760.297z"/>
		<path d="M888.631,491.38c-0.565-10.693-1.249-23.542-1.138-33.097h-0.342c-2.617,8.983-5.8,18.538-9.667,29.119l-13.533,37.194    h-7.51l-12.396-36.51c-3.643-10.811-6.714-20.708-8.871-29.803h-0.23c-0.23,9.555-0.796,22.404-1.48,33.893l-2.045,32.874h-9.443    l5.346-76.663h12.626l13.08,37.082c3.19,9.436,5.8,17.854,7.733,25.817h0.342c1.933-7.733,4.669-16.151,8.075-25.817    l13.652-37.082h12.626l4.774,76.663h-9.667L888.631,491.38z"/>
	</g>
	<g>
		<g>
			<path fill="#A8AAAC" d="M374.872,560.024v17.84h-3.239v-15.257h-8.299v15.257h-3.204v-17.84H374.872z"/>
			<path fill="#A8AAAC" d="M411.047,568.798c0,6.596-4.572,9.471-8.885,9.471c-4.83,0-8.55-3.539-8.55-9.178     c0-5.968,3.902-9.471,8.843-9.471C407.578,559.62,411.047,563.34,411.047,568.798z M396.893,568.979     c0,3.909,2.247,6.861,5.416,6.861c3.099,0,5.416-2.917,5.416-6.931c0-3.022-1.508-6.861-5.339-6.861     C398.547,562.048,396.893,565.587,396.893,568.979z"/>
			<path fill="#A8AAAC" d="M433.096,560.024v7.74h0.775l6.707-7.74h3.943l-7.775,8.068c2.876,0.3,4.607,2.213,6.009,5.423     c0.475,1.18,1.103,2.91,1.912,4.348h-3.392c-0.475-0.775-1.103-2.178-1.654-3.65c-1.221-2.876-2.876-4.202-5.898-4.202h-0.628     v7.852h-3.204v-17.84H433.096z"/>
			<path fill="#A8AAAC" d="M463.743,560.024l3.902,10.539c0.405,1.18,0.852,2.582,1.145,3.65h0.077     c0.328-1.068,0.698-2.429,1.138-3.72l3.539-10.469h3.427l-4.865,12.717c-2.317,6.121-3.902,9.255-6.114,11.167     c-1.584,1.403-3.176,1.954-3.985,2.101l-0.81-2.729c0.81-0.258,1.878-0.775,2.841-1.584c0.886-0.698,1.989-1.954,2.729-3.608     c0.147-0.335,0.258-0.593,0.258-0.775c0-0.188-0.077-0.447-0.223-0.852l-6.596-16.437H463.743z"/>
			<path fill="#A8AAAC" d="M509.34,560.024v17.84h-3.239v-15.257h-8.299v15.257H494.6v-17.84H509.34z"/>
			<path fill="#A8AAAC" d="M539.248,577.864l-0.258-2.247h-0.112c-0.991,1.403-2.91,2.652-5.458,2.652     c-3.608,0-5.451-2.541-5.451-5.123c0-4.313,3.832-6.672,10.728-6.638v-0.363c0-1.48-0.405-4.132-4.055-4.132     c-1.661,0-3.392,0.516-4.648,1.326l-0.733-2.136c1.473-0.956,3.608-1.584,5.856-1.584c5.458,0,6.784,3.72,6.784,7.294v6.672     c0,1.549,0.077,3.064,0.293,4.279H539.248z M538.766,568.763c-3.539-0.077-7.552,0.551-7.552,4.013     c0,2.101,1.396,3.099,3.057,3.099c2.324,0,3.797-1.473,4.313-2.987c0.112-0.328,0.181-0.698,0.181-1.033V568.763z"/>
			<path fill="#A8AAAC" d="M564.877,560.024v7.517c0,2.841-0.035,4.607-0.181,7.154l0.112,0.035     c1.068-2.171,1.696-3.427,2.876-5.493l5.563-9.213h3.797v17.84h-3.099v-7.559c0-2.91,0.077-4.418,0.223-7.294h-0.112     c-1.138,2.282-1.912,3.72-2.945,5.528c-1.696,2.764-3.65,6.191-5.57,9.325h-3.72v-17.84H564.877z M566.978,552.759     c0.112,1.591,0.886,2.806,2.359,2.806c1.584,0,2.324-1.18,2.506-2.806h2.324c-0.147,3.029-2.066,4.572-4.9,4.572     c-3.246,0-4.502-2.024-4.648-4.572H566.978z"/>
			<path fill="#A8AAAC" d="M632.348,577.201c-0.852,0.44-2.729,1.033-5.13,1.033c-5.381,0-8.878-3.65-8.878-9.108     c0-5.493,3.755-9.471,9.583-9.471c1.912,0,3.608,0.482,4.495,0.921l-0.74,2.506c-0.768-0.44-1.989-0.845-3.755-0.845     c-4.09,0-6.303,3.022-6.303,6.742c0,4.132,2.652,6.672,6.191,6.672c1.843,0,3.057-0.482,3.978-0.886L632.348,577.201z"/>
			<path fill="#A8AAAC" d="M674.644,560.024l3.902,10.539c0.405,1.18,0.852,2.582,1.145,3.65h0.077     c0.328-1.068,0.698-2.429,1.138-3.72l3.539-10.469h3.434l-4.872,12.717c-2.317,6.121-3.902,9.255-6.114,11.167     c-1.584,1.403-3.169,1.954-3.985,2.101l-0.81-2.729c0.81-0.258,1.878-0.775,2.841-1.584c0.886-0.698,1.989-1.954,2.729-3.608     c0.147-0.335,0.258-0.593,0.258-0.775c0-0.188-0.077-0.447-0.223-0.852l-6.596-16.437H674.644z"/>
			<path fill="#A8AAAC" d="M718.811,560.024v17.84H715.6v-15.299h-6.121v4.648c0,5.011-0.475,8.368-2.799,9.876     c-0.886,0.698-1.878,1.11-3.539,1.11l-0.328-2.548c0.621-0.112,1.326-0.37,1.766-0.733c1.661-1.221,1.843-3.727,1.843-7.705     v-7.189H718.811z"/>
			<path fill="#A8AAAC" d="M742.004,560.024v6.079c0.705-0.147,1.738-0.216,2.917-0.216c3.832,0,7.698,1.584,7.698,5.968     c0,1.878-0.698,3.169-1.843,4.132c-1.954,1.654-4.823,2.059-7.182,2.059c-1.808,0-3.469-0.105-4.795-0.258v-17.763H742.004z      M742.004,575.617c0.628,0.07,1.333,0.147,2.254,0.147c2.464,0,5.158-1.033,5.158-3.797c0-2.876-2.582-3.762-5.011-3.762     c-0.921,0-1.738,0.077-2.401,0.188V575.617z M758.078,560.024v17.84h-3.204v-17.84H758.078z"/>
			<path fill="#A8AAAC" d="M791.629,553.98c-0.921,0.328-2.541,0.628-3.72,0.81c-2.876,0.44-4.976,1.403-6.337,3.357     c-1.145,1.619-1.808,4.013-1.954,5.898h0.112c1.138-2.582,3.643-4.02,6.191-4.02c4.383,0,7.594,3.134,7.594,8.808     c0,5.828-3.022,9.436-8.257,9.436c-6.268,0-8.334-6.009-8.334-11.942c0-4.055,0.852-7.37,2.764-9.876     c1.738-2.471,4.202-3.615,7.671-4.202c1.438-0.223,3.204-0.516,4.425-0.963L791.629,553.98z M785.256,562.418     c-1.919,0-3.28,0.998-4.02,2.436c-0.586,1.068-0.886,2.359-0.886,3.797c0,2.945,1.438,7.189,4.976,7.189     c3.581,0,4.907-3.469,4.907-6.749C790.233,566.18,789.088,562.418,785.256,562.418z"/>
			<path fill="#A8AAAC" d="M815.562,560.024v7.74h0.775l6.707-7.74h3.943l-7.775,8.068c2.876,0.3,4.607,2.213,6.009,5.423     c0.475,1.18,1.103,2.91,1.912,4.348h-3.392c-0.475-0.775-1.103-2.178-1.654-3.65c-1.221-2.876-2.876-4.202-5.898-4.202h-0.628     v7.852h-3.204v-17.84H815.562z"/>
			<path fill="#A8AAAC" d="M860.691,568.798c0,6.596-4.572,9.471-8.885,9.471c-4.83,0-8.55-3.539-8.55-9.178     c0-5.968,3.909-9.471,8.843-9.471C857.223,559.62,860.691,563.34,860.691,568.798z M846.537,568.979     c0,3.909,2.247,6.861,5.416,6.861c3.099,0,5.416-2.917,5.416-6.931c0-3.022-1.508-6.861-5.339-6.861     C848.191,562.048,846.537,565.587,846.537,568.979z"/>
			<path fill="#A8AAAC" d="M882.523,560.024v7.517c0,2.841-0.035,4.607-0.181,7.154l0.112,0.035     c1.068-2.171,1.696-3.427,2.876-5.493l5.563-9.213h3.797v17.84h-3.092v-7.559c0-2.91,0.07-4.418,0.216-7.294h-0.112     c-1.138,2.282-1.912,3.72-2.945,5.528c-1.696,2.764-3.65,6.191-5.57,9.325h-3.72v-17.84H882.523z M884.624,552.759     c0.112,1.591,0.886,2.806,2.359,2.806c1.584,0,2.324-1.18,2.506-2.806h2.324c-0.147,3.029-2.066,4.572-4.9,4.572     c-3.245,0-4.502-2.024-4.648-4.572H884.624z"/>
		</g>
	</g>
</g>
</svg>