<?xml version="1.0" encoding="UTF-8"?>
<svg width="59px" height="71px" viewBox="0 0 59 71" version="1.1" xmlns="http://www.w3.org/2000/svg" xmlns:xlink="http://www.w3.org/1999/xlink"><script xmlns="" type="text/javascript" charset="utf-8" id="zm-extension"/>
    <!-- Generator: Sketch 49.1 (51147) - http://www.bohemiancoding.com/sketch -->
    <title>Artboard</title>
    <desc>Created with Sketch.</desc>
    <defs/>
    <g id="Artboard" stroke="none" stroke-width="1" fill="none" fill-rule="evenodd">
        <g id="noun_89525" transform="translate(4.000000, 0.000000)" fill="#1ABECB" fill-rule="nonzero">
            <path d="M54.1543136,16.2511111 C54.1543136,16.2511111 53.9236718,16.0144444 39.2394805,0.946666667 C38.778197,0.552222222 38.0093912,0 36.933063,0 L3.56688999,0 C1.87551716,0 0.491666667,1.49888889 0.491666667,3.23444444 L0.491666667,67.8444444 C0.491666667,69.58 1.87551716,71 3.56688999,71 L51.9247767,71 C53.6930301,71 55,69.58 55,67.8444444 L55,18.5388889 C55,17.5133333 54.6155971,16.7244444 54.1543136,16.2511111 Z M5.18268529,66.4271186 L5.18268529,4.81355932 L34.2447034,4.81355932 L34.2447034,17.6044339 C34.2447034,19.4436446 35.808948,20.9484534 37.5378499,20.9484534 L50.2164641,20.9484534 L50.2164641,66.3435182 L5.18268529,66.3435182 L5.18268529,66.4271186 Z" id="Shape"/>
        </g>
        <rect id="Rectangle-4" fill="#1ABECB" x="0" y="36" width="50" height="24" rx="4"/>
        <path d="M18.868,45.496 C18.868,47.944 17.188,49.176 14.372,49.176 L12.964,49.176 L12.964,53 L10.42,53 L10.42,41.8 L14.372,41.8 C17.188,41.8 18.868,43.032 18.868,45.496 Z M16.292,45.496 C16.292,44.312 15.588,43.816 14.26,43.816 L12.964,43.816 L12.964,47.16 L14.26,47.16 C15.588,47.16 16.292,46.664 16.292,45.496 Z M23.108,43.896 L23.108,50.904 L24.564,50.904 C26.356,50.904 27.54,49.752 27.54,47.4 C27.54,45.048 26.356,43.896 24.564,43.896 L23.108,43.896 Z M30.116,47.4 C30.116,50.728 28.02,53 24.66,53 L20.564,53 L20.564,41.8 L24.66,41.8 C28.02,41.8 30.116,44.088 30.116,47.4 Z M31.972,53 L31.972,41.8 L39.46,41.8 L39.46,43.832 L34.516,43.832 L34.516,46.536 L38.9,46.536 L38.9,48.568 L34.516,48.568 L34.516,53 L31.972,53 Z" id="PDF" fill="#FFFFFF"/>
    </g>
</svg>