<?xml version="1.0" encoding="UTF-8"?>
<!-- Generator: Adobe Illustrator 17.0.0, SVG Export Plug-In . SVG Version: 6.00 Build 0)  -->
<!DOCTYPE svg PUBLIC "-//W3C//DTD SVG 1.1//EN" "http://www.w3.org/Graphics/SVG/1.1/DTD/svg11.dtd">
<svg version="1.1" id="Layer_1" xmlns="http://www.w3.org/2000/svg" xmlns:xlink="http://www.w3.org/1999/xlink" x="0px" y="0px" width="283.46px" height="283.46px" viewBox="0 0 283.46 283.46" enable-background="new 0 0 283.46 283.46" xml:space="preserve"><script xmlns="" type="text/javascript" charset="utf-8" id="zm-extension"/>
<g>
	<g>
		<path fill="#282727" d="M187.094,139.574h-3.137l-0.241-0.965l9.022-11.533h1.109v7.286h5.829    c0.089,0.431,0.154,0.866,0.195,1.304c0.031,0.387,0.046,0.789,0.046,1.207c0,0.418-0.015,0.853-0.046,1.304    c-0.04,0.468-0.105,0.932-0.195,1.393h-5.824v9.796c-0.021,0.812,0.06,1.623,0.241,2.414c0.12,0.529,0.36,1.025,0.701,1.448    c0.296,0.349,0.691,0.601,1.132,0.724c0.519,0.138,1.055,0.203,1.592,0.195c0.477,0,0.954-0.04,1.425-0.121l1.229-0.218    c0.22,0.618,0.376,1.257,0.465,1.907c0.09,0.584,0.138,1.173,0.143,1.764c0,0.353,0,0.65-0.023,0.891    c-0.023,0.241-0.042,0.464-0.074,0.701c-1.502,0.355-3.041,0.533-4.585,0.529c-2.927,0-5.162-0.684-6.706-2.052    c-1.544-1.367-2.318-3.595-2.321-6.682L187.094,139.574z M173.687,147.872c-0.387-0.065-0.805-0.121-1.253-0.167    c-0.401-0.046-0.804-0.071-1.207-0.074c-1.301-0.066-2.594,0.226-3.74,0.844c-0.936,0.58-1.473,1.631-1.393,2.729    c-0.045,0.685,0.141,1.365,0.529,1.931c0.333,0.435,0.773,0.775,1.277,0.988c0.507,0.212,1.044,0.342,1.591,0.386    c0.564,0.049,1.054,0.074,1.472,0.074c0.485,0,0.969-0.04,1.448-0.121l1.253-0.218L173.687,147.872z M173.687,142.902    c0.026-0.649-0.106-1.294-0.385-1.88c-0.245-0.467-0.612-0.859-1.063-1.132c-0.513-0.295-1.079-0.485-1.666-0.557    c-0.728-0.101-1.461-0.149-2.195-0.144c-1.9,0.025-3.782,0.367-5.569,1.012c-0.415-0.752-0.754-1.544-1.012-2.363    c-0.242-0.863-0.356-1.757-0.339-2.654c1.383-0.475,2.803-0.83,4.246-1.063c1.309-0.216,2.633-0.33,3.959-0.339    c3.345,0,5.959,0.805,7.843,2.414c1.884,1.608,2.825,4.183,2.822,7.722v14.475c-1.349,0.409-2.718,0.747-4.103,1.012    c-1.798,0.332-3.624,0.488-5.453,0.464c-1.514,0.013-3.026-0.132-4.511-0.432c-1.258-0.244-2.456-0.736-3.522-1.448    c-0.968-0.658-1.749-1.555-2.27-2.603c-0.565-1.223-0.839-2.561-0.798-3.908c-0.048-1.363,0.296-2.71,0.989-3.884    c0.641-1.028,1.517-1.889,2.557-2.511c1.083-0.642,2.266-1.098,3.499-1.351c1.269-0.27,2.564-0.407,3.861-0.408    c0.929,0,1.957,0.048,3.087,0.144L173.687,142.902z M145.405,124.036c1.132-0.19,2.277-0.286,3.425-0.287    c1.132,0.002,2.262,0.099,3.379,0.287v25.335c-0.015,0.808,0.04,1.615,0.167,2.413c0.072,0.508,0.252,0.994,0.529,1.425    c0.226,0.327,0.552,0.573,0.928,0.701c0.469,0.141,0.958,0.207,1.448,0.195c0.282-0.001,0.564-0.016,0.845-0.047    c0.299-0.03,0.597-0.078,0.891-0.143c0.345,1.258,0.523,2.556,0.529,3.861v0.701c-0.004,0.236-0.037,0.472-0.098,0.7    c-0.605,0.178-1.227,0.291-1.856,0.339c-0.724,0.065-1.391,0.098-2,0.098c-2.475,0-4.462-0.684-5.959-2.052    c-1.498-1.367-2.245-3.595-2.242-6.683L145.405,124.036z M124.897,142.322c0.359,0.062,0.722,0.095,1.086,0.097h1.23    c0.799,0.001,1.595-0.105,2.367-0.316c0.749-0.198,1.448-0.552,2.051-1.039c0.619-0.515,1.107-1.168,1.425-1.908    c0.379-0.925,0.559-1.919,0.529-2.919c0.029-1.031-0.151-2.057-0.529-3.016c-0.313-0.762-0.801-1.44-1.425-1.977    c-0.598-0.5-1.298-0.863-2.051-1.063c-0.772-0.21-1.568-0.316-2.367-0.316c-0.356,0-0.686,0.008-0.989,0.024    c-0.303,0.015-0.745,0.055-1.327,0.12V142.322z M117.852,124.468c1.479-0.127,2.975-0.232,4.488-0.316    c1.513-0.083,3.041-0.123,4.585-0.12c1.643-0.002,3.283,0.153,4.896,0.464c1.601,0.3,3.127,0.915,4.488,1.81    c1.379,0.943,2.497,2.22,3.249,3.713c0.835,1.577,1.253,3.621,1.253,6.13s-0.418,4.544-1.253,6.103    c-0.764,1.484-1.879,2.759-3.249,3.713c-1.329,0.913-2.831,1.545-4.414,1.856c-1.582,0.312-3.19,0.467-4.803,0.464    c-0.418,0-0.812-0.008-1.183-0.023c-0.372-0.015-0.718-0.04-1.04-0.074v11.138c-0.592,0.095-1.188,0.16-1.787,0.195    c-0.578,0.031-1.141,0.046-1.689,0.046c-0.548,0-1.111-0.015-1.689-0.046c-0.619-0.034-1.247-0.099-1.884-0.195L117.852,124.468z"/>
		<path fill="#EC6726" d="M232.408,134.363c0.446-0.096,0.897-0.169,1.351-0.218c0.496-0.051,0.995-0.076,1.494-0.074    c0.484-0.003,0.967,0.022,1.448,0.074c0.418,0.049,0.852,0.122,1.304,0.218c0.119,0.221,0.208,0.456,0.265,0.701    c0.079,0.306,0.153,0.626,0.218,0.965c0.065,0.339,0.121,0.668,0.167,0.989c0.046,0.32,0.088,0.594,0.121,0.821    c0.346-0.514,0.734-0.998,1.16-1.448c0.467-0.497,0.994-0.935,1.568-1.304c0.624-0.395,1.296-0.707,2.001-0.928    c0.795-0.25,1.625-0.372,2.459-0.362c2.831,0,4.963,0.773,6.395,2.32c1.433,1.547,2.149,3.976,2.149,7.287v15.922    c-2.268,0.387-4.586,0.387-6.854,0v-14.108c0-1.736-0.265-3.071-0.794-4.005c-0.529-0.934-1.457-1.399-2.785-1.392    c-0.571,0.003-1.139,0.084-1.689,0.241c-0.595,0.168-1.135,0.488-1.568,0.928c-0.52,0.558-0.907,1.226-1.133,1.954    c-0.322,1.063-0.469,2.171-0.436,3.281v13.078c-2.267,0.386-4.583,0.386-6.85,0L232.408,134.363z M215.455,154.676    c1.801,0,3.095-0.667,3.884-2s1.184-3.256,1.184-5.769c0-2.509-0.395-4.432-1.184-5.768c-0.789-1.337-2.083-2.004-3.884-2.001    c-1.77,0-3.049,0.667-3.838,2.001c-0.789,1.333-1.183,3.256-1.183,5.768c0,2.51,0.394,4.432,1.183,5.769    S213.685,154.679,215.455,154.676 M215.455,159.888c-1.812,0.042-3.612-0.295-5.286-0.989c-1.435-0.615-2.707-1.557-3.713-2.752    c-1.004-1.215-1.757-2.618-2.218-4.125c-0.51-1.654-0.762-3.375-0.747-5.105c-0.013-1.75,0.238-3.492,0.747-5.166    c0.453-1.526,1.207-2.946,2.218-4.177c1.009-1.199,2.279-2.152,3.713-2.784c1.67-0.708,3.472-1.052,5.286-1.007    c1.821-0.041,3.631,0.304,5.309,1.012c1.449,0.631,2.736,1.583,3.764,2.784c1.022,1.223,1.778,2.645,2.218,4.177    c0.493,1.677,0.737,3.417,0.724,5.165c0.014,1.728-0.23,3.449-0.724,5.105c-0.448,1.513-1.203,2.918-2.218,4.126    c-1.026,1.195-2.314,2.137-3.764,2.752C219.081,159.594,217.274,159.929,215.455,159.888"/>
	</g>
	<g>
		<defs>
			<path id="SVGID_1_" d="M39.607,148.36c-1.801,0.826-3.351,3.198-3.351,5.184v16.173c-0.026,0.593,0.16,1.175,0.525,1.643     c0.309,0.356,0.759,0.558,1.229,0.552h0.024c0.407-0.018,0.805-0.122,1.17-0.306l16.706-7.667     c1.801-0.826,3.347-3.211,3.347-5.193v-9.129c0-1.317-11.501-4.971-11.501-4.971L39.607,148.36z"/>
		</defs>
		<clipPath id="SVGID_2_">
			<use xlink:href="#SVGID_1_" overflow="visible"/>
		</clipPath>
		
			<linearGradient id="SVGID_3_" gradientUnits="userSpaceOnUse" x1="-298.3714" y1="438.573" x2="-297.3714" y2="438.573" gradientTransform="matrix(23.0028 0 0 -23.0028 6899.6338 10246.6953)">
			<stop offset="0" style="stop-color:#F39325"/>
			<stop offset="0.5" style="stop-color:#E66425"/>
			<stop offset="1" style="stop-color:#CA4B27"/>
		</linearGradient>
		<rect x="36.23" y="144.646" clip-path="url(#SVGID_2_)" fill="url(#SVGID_3_)" width="23.027" height="27.272"/>
	</g>
	<g>
		<defs>
			<path id="SVGID_4_" d="M28.952,135.676c0,2.65,2.037,5.824,4.446,6.929l25.868,11.88v-5.977l-30.314-13.899V135.676z"/>
		</defs>
		<clipPath id="SVGID_5_">
			<use xlink:href="#SVGID_4_" overflow="visible"/>
		</clipPath>
		
			<linearGradient id="SVGID_6_" gradientUnits="userSpaceOnUse" x1="-295.3875" y1="440.7556" x2="-294.3875" y2="440.7556" gradientTransform="matrix(30.3144 0 0 -30.3144 8983.4531 13505.7988)">
			<stop offset="0" style="stop-color:#F39325"/>
			<stop offset="0.5" style="stop-color:#E66425"/>
			<stop offset="1" style="stop-color:#CA4B27"/>
		</linearGradient>
		<rect x="28.952" y="134.609" clip-path="url(#SVGID_5_)" fill="url(#SVGID_6_)" width="30.314" height="19.876"/>
	</g>
	<g>
		<defs>
			<path id="SVGID_7_" d="M36.038,122.812l-3.206-1.453c-1.05-0.544-1.732-1.605-1.792-2.785v-2.134     c0-1.077,0.812-1.597,1.796-1.151l3.207,1.452c1.048,0.545,1.731,1.605,1.791,2.785v2.139c0,0.813-0.466,1.309-1.116,1.309     C36.508,122.974,36.278,122.922,36.038,122.812 M28.952,114.509v14.614l30.314,13.89v-14.131c0-2.65-2.037-5.825-4.446-6.929     l-21.859-10.02c-0.498-0.242-1.043-0.373-1.596-0.385C29.875,111.548,28.952,112.68,28.952,114.509"/>
		</defs>
		<clipPath id="SVGID_8_">
			<use xlink:href="#SVGID_7_" overflow="visible"/>
		</clipPath>
		
			<linearGradient id="SVGID_9_" gradientUnits="userSpaceOnUse" x1="-295.3875" y1="440.9161" x2="-294.3875" y2="440.9161" gradientTransform="matrix(30.3144 0 0 -30.3144 8983.4541 13493.4004)">
			<stop offset="0" style="stop-color:#F39325"/>
			<stop offset="0.5" style="stop-color:#E66425"/>
			<stop offset="1" style="stop-color:#CA4B27"/>
		</linearGradient>
		<rect x="28.952" y="111.548" clip-path="url(#SVGID_8_)" fill="url(#SVGID_9_)" width="30.314" height="31.465"/>
	</g>
	<g>
		<defs>
			<path id="SVGID_10_" d="M64.135,149.617v9.129c0,1.982,1.545,4.367,3.346,5.193l16.706,7.667c0.364,0.184,0.763,0.288,1.17,0.306     l0.028-0.009c0.471,0.005,0.921-0.196,1.23-0.553c0.361-0.465,0.545-1.044,0.52-1.633v-16.173c0-1.986-1.551-4.358-3.351-5.184     l-8.149-3.714C75.635,144.646,64.135,148.3,64.135,149.617"/>
		</defs>
		<clipPath id="SVGID_11_">
			<use xlink:href="#SVGID_10_" overflow="visible"/>
		</clipPath>
		
			<linearGradient id="SVGID_12_" gradientUnits="userSpaceOnUse" x1="-273.6295" y1="457.4269" x2="-272.6286" y2="457.4269" gradientTransform="matrix(-23.0027 0 0 23.0027 -6207.0542 -10363.7666)">
			<stop offset="0" style="stop-color:#F39325"/>
			<stop offset="0.5" style="stop-color:#E66425"/>
			<stop offset="1" style="stop-color:#CA4B27"/>
		</linearGradient>
		<rect x="64.134" y="144.646" clip-path="url(#SVGID_11_)" fill="url(#SVGID_12_)" width="23.025" height="27.266"/>
	</g>
	<g>
		<defs>
			<path id="SVGID_13_" d="M64.12,148.508v5.977l25.869-11.875c2.408-1.105,4.446-4.28,4.446-6.929v-1.068L64.12,148.508z"/>
		</defs>
		<clipPath id="SVGID_14_">
			<use xlink:href="#SVGID_13_" overflow="visible"/>
		</clipPath>
		
			<linearGradient id="SVGID_15_" gradientUnits="userSpaceOnUse" x1="-276.6125" y1="455.2751" x2="-275.6125" y2="455.2751" gradientTransform="matrix(-30.3144 0 0 30.3144 -8290.916 -13656.8555)">
			<stop offset="0" style="stop-color:#F39325"/>
			<stop offset="0.5" style="stop-color:#E66425"/>
			<stop offset="1" style="stop-color:#CA4B27"/>
		</linearGradient>
		<rect x="64.119" y="134.613" clip-path="url(#SVGID_14_)" fill="url(#SVGID_15_)" width="30.315" height="19.872"/>
	</g>
	<g>
		<defs>
			<path id="SVGID_16_" d="M85.571,121.656l-0.024-2.139c0.062-1.181,0.743-2.24,1.791-2.785l3.208-1.453     c0.979-0.464,1.795,0.07,1.795,1.151v2.14c-0.06,1.18-0.741,2.24-1.791,2.785l-3.184,1.447c-0.241,0.114-0.473,0.168-0.684,0.168     C86.034,122.97,85.571,122.467,85.571,121.656 M90.425,111.933l-21.859,10.02c-2.408,1.104-4.446,4.279-4.446,6.929v14.131     l30.315-13.89v-14.614c0-1.824-0.928-2.961-2.414-2.961C91.468,111.56,90.923,111.691,90.425,111.933"/>
		</defs>
		<clipPath id="SVGID_17_">
			<use xlink:href="#SVGID_16_" overflow="visible"/>
		</clipPath>
		
			<linearGradient id="SVGID_18_" gradientUnits="userSpaceOnUse" x1="-276.6125" y1="455.0839" x2="-275.6125" y2="455.0839" gradientTransform="matrix(-30.3144 0 0 30.3144 -8290.916 -13668.3281)">
			<stop offset="0" style="stop-color:#F39325"/>
			<stop offset="0.5" style="stop-color:#E66425"/>
			<stop offset="1" style="stop-color:#CA4B27"/>
		</linearGradient>
		<rect x="64.119" y="111.548" clip-path="url(#SVGID_17_)" fill="url(#SVGID_18_)" width="30.315" height="31.465"/>
	</g>
</g>
</svg>