<svg xmlns="http://www.w3.org/2000/svg" width="23" height="46" viewBox="0 0 23 46"><script xmlns="" type="text/javascript" charset="utf-8" id="zm-extension"/><svg xmlns:xlink="http://www.w3.org/1999/xlink" height="23" width="23" preserveAspectRatio="xMidYMid" viewBox="0 0 23 23" id="project_next_arrow-hover"><defs><style>.cls-1 { fill: #ffd519; stroke: #ffd519; stroke-linejoin: round; stroke-width: 1px; } .cls-2 { fill: #fff; fill-rule: evenodd; }</style></defs><circle cy="11.5" cx="11.5" r="8" class="cls-1"/><path d="M10.226 8.453c-.29.29-.29.758 0 1.047l2 1.993-2 1.994c-.29.29-.29.758 0 1.047.29.29.76.29 1.05 0l2.595-2.586c.13-.127.197-.29.21-.455-.013-.166-.08-.328-.21-.455l-2.593-2.585c-.29-.29-.76-.29-1.05 0z" class="cls-2"/></svg><svg xmlns:xlink="http://www.w3.org/1999/xlink" height="23" width="23" preserveAspectRatio="xMidYMid" viewBox="0 0 23 23" id="project_next_arrow" y="23"><defs><style>.cls-3 { fill: #f2f2f2; stroke: #ffd519; stroke-linejoin: round; stroke-width: 1px; } .cls-4 { fill: #111; fill-rule: evenodd; }</style></defs><circle cy="11.5" cx="11.5" r="8" class="cls-3"/><path d="M10.226 8.453c-.29.29-.29.758 0 1.047l2 1.993-2 1.994c-.29.29-.29.758 0 1.047.29.29.76.29 1.05 0l2.595-2.586c.13-.127.197-.29.21-.455-.013-.166-.08-.328-.21-.455l-2.593-2.585c-.29-.29-.76-.29-1.05 0z" class="cls-4"/></svg></svg>