<?xml version="1.0" encoding="UTF-8"?>
<!-- Generator: Adobe Illustrator 17.0.0, SVG Export Plug-In . SVG Version: 6.00 Build 0)  -->
<!DOCTYPE svg PUBLIC "-//W3C//DTD SVG 1.1//EN" "http://www.w3.org/Graphics/SVG/1.1/DTD/svg11.dtd">
<svg version="1.1" id="Layer_1" xmlns="http://www.w3.org/2000/svg" xmlns:xlink="http://www.w3.org/1999/xlink" x="0px" y="0px" width="850.32px" height="324px" viewBox="0 0 850.32 324" enable-background="new 0 0 850.32 324" xml:space="preserve"><script xmlns="" type="text/javascript" charset="utf-8" id="zm-extension"/>
<g>
	<path fill="#458ECC" d="M704.673,122.533h0.032c13.541,0,24.619,4.696,32.355,12.871c7.714,8.149,12.011,19.681,12.017,33.383   h0.016v0.032c0,11.415-5.141,23.038-13.375,31.606c-7.787,8.111-18.393,13.541-30.093,13.56l-112.831,0.032h-3.64l-0.006-3.726   l-0.048-22.623l-0.003-3.726h3.649l112.327-0.035v-0.013c2.431,0,5.458-2.113,7.968-5.039c2.628-3.059,4.522-6.857,4.522-10.037   v-0.032h0.013c-0.006-3.392-1.526-7.664-4.043-11.132c-2.339-3.221-5.484-5.623-8.904-5.623v0.016h-0.026v-0.016l-70.403,0.171   v0.016h-0.172c-13.534,0-24.942-3.662-33.063-11.078c-8.184-7.476-12.89-18.605-12.922-33.463h-0.016v-0.149   c0-14.229,4.271-25.053,11.808-32.616c7.946-7.971,19.393-12.144,33.174-12.715c3.763-0.159,8.314-0.238,14.153-0.279   c5.744-0.041,12.734-0.041,21.499-0.035l75.052,0.067l3.64,0.006l0.003,3.722l0.032,22.464l0.003,3.729h-3.649l-75.081,0.028   c-9.365,0.003-16.952,0.07-22.747,0.203c-5.604,0.13-9.472,0.33-11.598,0.593h-0.013c-4.966,0.587-8.651,2.288-11.072,4.785   c-2.45,2.526-3.675,6.001-3.675,10.047v0.013h-0.013c0,4.903,1.406,8.685,3.922,11.183c2.526,2.516,6.299,3.856,10.999,3.856   v-0.016h0.016v0.016l70.191-0.035V122.533z M102.261,232.194h25.428h0.936v0.939v23.032v0.936h-0.936h-3.271h-0.936v-0.936v-18.999   h-17.012v18.999v0.936h-0.933h-3.275h-0.933v-0.936v-23.032v-0.939H102.261z M149.204,232.715l11.557,23.035l0.679,1.352h-1.511   h-3.694h-0.571l-0.26-0.511l-2.339-4.608h-14.528l-2.307,4.598l-0.26,0.52h-0.574h-3.69h-1.511l0.676-1.352l11.564-23.035   l0.26-0.52h0.568h5.109h0.571L149.204,232.715z M150.721,247.048l-4.887-9.898l-4.887,9.898H150.721z M162.465,256.165v-23.032   v-0.939h0.933h17.917c1.089,0,2.072,0.178,2.948,0.527v-0.003c0.892,0.355,1.669,0.892,2.317,1.602   c0.647,0.711,1.133,1.596,1.444,2.653c0.304,1.009,0.457,2.177,0.457,3.5c0,2.713-0.651,4.763-1.945,6.147   c-0.657,0.701-1.444,1.231-2.355,1.58c-0.892,0.346-1.891,0.517-2.996,0.517h-13.578v7.448v0.936h-0.933h-3.275h-0.933V256.165z    M167.606,243.745h13.578c0.346,0,0.641-0.054,0.892-0.168c0.238-0.105,0.451-0.273,0.638-0.501   c0.193-0.232,0.342-0.546,0.444-0.942c0.117-0.444,0.177-1.003,0.177-1.66c0-1.241-0.206-2.12-0.616-2.637   c-0.178-0.222-0.39-0.39-0.635-0.498c-0.257-0.114-0.568-0.171-0.933-0.171h-13.547V243.745z M191.463,232.194h22.956h0.933v0.939   v3.097v0.936h-0.933h-8.889v18.999v0.936h-0.936h-3.275h-0.933v-0.936v-18.999h-8.923h-0.936v-0.936v-3.097v-0.939H191.463z    M218.018,232.194h3.272h0.936v0.939v8.828h17.047v-8.828v-0.939h0.933h3.275h0.933v0.939v23.032v0.936h-0.933h-3.275h-0.933   v-0.936v-9.234h-17.047v9.234v0.936h-0.936h-3.272h-0.936v-0.936v-23.032v-0.939H218.018z M248.136,232.194h21.033h0.933v0.939   v3.097v0.936h-0.933h-16.825v4.827h16.213h0.933v0.936v3.1v0.936h-0.933h-16.213v5.166h16.825h0.933v0.936v3.097v0.936h-0.933   h-21.033h-0.933v-0.936v-23.032v-0.939H248.136z M272.827,256.165v-23.032v-0.939h0.933h17.917c1.092,0,2.076,0.174,2.948,0.52   v0.006c0.895,0.355,1.669,0.889,2.316,1.599c0.647,0.711,1.126,1.596,1.444,2.65c0.305,1.012,0.454,2.18,0.454,3.503   c0,1.32-0.156,2.488-0.463,3.5v0.003c-0.324,1.054-0.816,1.933-1.472,2.637l-0.003,0.006c-0.66,0.701-1.447,1.231-2.358,1.58   h-0.003c-0.889,0.346-1.888,0.517-2.992,0.517h-13.579v7.448v0.936h-0.933h-3.275h-0.933V256.165z M277.968,243.745h13.579   c0.342,0,0.641-0.054,0.892-0.168c0.238-0.105,0.451-0.273,0.638-0.501c0.191-0.232,0.34-0.546,0.444-0.942   c0.114-0.444,0.175-1.003,0.175-1.66c0-0.654-0.057-1.209-0.172-1.666c-0.105-0.409-0.254-0.733-0.441-0.971   c-0.177-0.222-0.39-0.39-0.634-0.498c-0.254-0.114-0.568-0.171-0.933-0.171h-13.547V243.745z M306.674,244.681   c0,2.053,0.105,3.678,0.308,4.868c0.175,1.047,0.406,1.701,0.683,1.961c0.676,0.638,3.094,0.958,7.26,0.958   c3.941,0,6.293-0.2,7.048-0.597c0.308-0.168,0.552-0.514,0.733-1.034c0.225-0.651,0.336-1.549,0.336-2.688v-0.936h0.936h3.275   h0.936v0.936c0,1.926-0.2,3.51-0.59,4.754v0.003c-0.428,1.361-1.104,2.345-2.018,2.945v0.003c-0.841,0.549-2.18,0.955-4.011,1.215   c-1.739,0.244-3.957,0.368-6.645,0.368c-2.767,0-5.036-0.174-6.81-0.524c-1.885-0.368-3.256-0.955-4.103-1.752l0.003-0.003   c-0.86-0.809-1.491-2.123-1.891-3.938c-0.375-1.701-0.562-3.881-0.562-6.54c0-2.672,0.187-4.871,0.552-6.585   c0.397-1.828,1.015-3.151,1.859-3.957c1.596-1.52,5.246-2.279,10.951-2.279c2.707,0,4.938,0.121,6.686,0.362   c1.834,0.257,3.17,0.66,4.002,1.206c0.904,0.593,1.568,1.574,1.993,2.945v0.003c0.387,1.247,0.584,2.84,0.584,4.77v0.933h-0.936   h-3.275h-0.936v-0.933c0-1.142-0.105-2.037-0.311-2.681c-0.162-0.498-0.374-0.822-0.628-0.952c-0.374-0.197-1.139-0.355-2.285-0.47   c-1.219-0.121-2.849-0.181-4.893-0.181c-2.167,0-3.894,0.095-5.163,0.289c-1.13,0.168-1.838,0.387-2.117,0.651   c-0.27,0.254-0.495,0.911-0.67,1.961C306.776,240.965,306.674,242.606,306.674,244.681 M330.754,232.194h22.959h0.936v0.939v3.097   v0.936h-0.936h-8.892v18.999v0.936h-0.933h-3.275h-0.933v-0.936v-18.999h-8.927h-0.933v-0.936v-3.097v-0.939H330.754z    M382.615,249.432c0,1.234-0.168,2.329-0.502,3.275c-0.349,0.99-0.876,1.812-1.58,2.475c-1.368,1.279-3.319,1.92-5.855,1.92   h-17.625h-0.933v-0.936v-23.032v-0.939h0.933h16.854c2.494,0,4.427,0.647,5.807,1.939c0.702,0.657,1.231,1.466,1.584,2.409   c0.343,0.923,0.514,1.964,0.514,3.123c0,1.314-0.248,2.412-0.74,3.3c-0.229,0.409-0.507,0.771-0.834,1.082   c0.451,0.333,0.841,0.739,1.174,1.206c0.403,0.571,0.711,1.215,0.908,1.923C382.514,247.864,382.615,248.616,382.615,249.432    M376.697,239.664c0-0.435-0.047-0.809-0.143-1.114c-0.083-0.27-0.21-0.498-0.378-0.679h0.003c-0.2-0.216-0.473-0.384-0.822-0.505   c-0.387-0.133-0.876-0.2-1.45-0.2h-12.646v4.662h12.646c1.155,0,1.913-0.171,2.279-0.508v-0.003   c0.158-0.146,0.279-0.343,0.365-0.581C376.65,240.451,376.697,240.092,376.697,239.664 M361.262,246.795v5.338h13.385   c0.521,0,0.962-0.063,1.324-0.194c0.33-0.114,0.6-0.286,0.812-0.508c0.457-0.479,0.688-1.136,0.688-1.967   c0-0.809-0.238-1.457-0.704-1.952c-0.219-0.225-0.492-0.403-0.822-0.524c-0.359-0.13-0.79-0.194-1.298-0.194H361.262z    M400.335,257.438c-2.285,0-4.253-0.079-5.896-0.238c-1.672-0.162-2.999-0.409-3.97-0.739c-2.129-0.72-3.487-2.104-4.068-4.151   h0.003c-0.194-0.663-0.333-1.641-0.419-2.926c-0.089-1.26-0.133-2.827-0.133-4.703c0-3.881,0.172-6.426,0.521-7.629   c0.285-1.025,0.781-1.898,1.475-2.605c0.686-0.701,1.558-1.234,2.621-1.593c0.98-0.336,2.31-0.587,3.979-0.752   c1.647-0.162,3.608-0.241,5.886-0.241c2.288,0,4.252,0.079,5.896,0.238c1.669,0.162,2.992,0.409,3.954,0.739   c1.047,0.352,1.91,0.885,2.593,1.58c0.691,0.701,1.187,1.568,1.488,2.593v0.003c0.19,0.666,0.333,1.644,0.422,2.942   c0.086,1.266,0.133,2.84,0.133,4.725c0,1.894-0.045,3.468-0.124,4.725c-0.086,1.292-0.219,2.253-0.394,2.872h-0.003   c-0.289,1.028-0.781,1.895-1.469,2.602c-0.686,0.698-1.552,1.228-2.596,1.58c-0.971,0.33-2.301,0.577-3.979,0.739   C404.609,257.359,402.633,257.438,400.335,257.438 M400.335,252.469c2.497,0,4.465-0.095,5.899-0.286   c1.301-0.171,2.107-0.393,2.415-0.663l0.003,0.003c0.282-0.251,0.517-0.898,0.705-1.939c0.212-1.19,0.32-2.824,0.32-4.903   c0-2.079-0.108-3.726-0.32-4.931c-0.184-1.047-0.416-1.698-0.695-1.945v0.003c-0.305-0.27-1.108-0.492-2.409-0.663   c-1.438-0.187-3.408-0.282-5.918-0.282c-2.507,0-4.481,0.095-5.918,0.282c-1.298,0.171-2.104,0.393-2.409,0.663   c-0.279,0.244-0.514,0.895-0.695,1.942c-0.213,1.206-0.317,2.853-0.317,4.931c0,2.069,0.105,3.697,0.317,4.884   c0.187,1.041,0.425,1.691,0.711,1.945c0.308,0.273,1.114,0.498,2.412,0.673C395.87,252.373,397.838,252.469,400.335,252.469    M433.633,256.165v-23.032v-0.939h0.933h17.917c1.085,0,2.069,0.178,2.945,0.527l0.003-0.003c0.895,0.355,1.666,0.892,2.316,1.602   c0.644,0.711,1.13,1.596,1.447,2.653c0.301,1.009,0.451,2.177,0.451,3.5c0,1.32-0.155,2.488-0.463,3.497v0.003   c-0.32,1.05-0.815,1.932-1.475,2.64v0.006c-0.663,0.701-1.45,1.231-2.358,1.58c-0.895,0.346-1.891,0.517-2.996,0.517h-13.579v7.448   v0.936h-0.933h-3.275h-0.933V256.165z M438.774,243.745h13.579c0.343,0,0.641-0.054,0.889-0.168   c0.244-0.108,0.457-0.273,0.644-0.498l-0.003-0.003c0.194-0.232,0.343-0.546,0.444-0.942c0.117-0.444,0.178-1.003,0.178-1.66   c0-1.241-0.206-2.12-0.616-2.637c-0.178-0.222-0.394-0.39-0.635-0.498c-0.257-0.114-0.568-0.171-0.933-0.171h-13.547V243.745z    M479.805,232.715l11.557,23.035l0.679,1.352h-1.51h-3.69h-0.571l-0.263-0.511l-2.339-4.608h-14.524l-2.31,4.598l-0.26,0.52h-0.574   h-3.691h-1.51l0.679-1.352l11.56-23.035l0.26-0.52h0.571h5.106h0.571L479.805,232.715z M481.325,247.048l-4.887-9.898l-4.887,9.898   H481.325z M496.211,240.845v-7.679v-0.933h0.936h22.125h0.936v0.933v18.967h0.638h0.933v0.936v8.654v0.936h-0.933h-3.021h-0.933   v-0.936v-4.62h-18.97v4.62v0.936h-0.936h-3.014h-0.936v-0.936v-8.654v-0.936h0.936h0.882c0.321-1.358,0.619-3.119,0.886-5.29   c0.159-1.282,0.276-2.428,0.359-3.434C496.173,242.419,496.211,241.562,496.211,240.845 M515.064,237.198h-13.706v3.646   c0,0.876-0.035,1.856-0.102,2.926c-0.064,1.044-0.162,2.18-0.292,3.402c-0.13,1.209-0.282,2.326-0.451,3.341   c-0.092,0.574-0.194,1.117-0.298,1.618h14.848V237.198z M547.333,232.194h4.785h0.933v0.939v23.032v0.936h-0.933h-3.275h-0.933   v-0.936v-17.641L530.835,256.8l-0.279,0.301h-0.397h-4.947h-0.936v-0.936v-23.032v-0.939h0.936h3.275h0.933v0.939v17.834   l17.234-18.472l0.279-0.301H547.333z M584.519,252.132c0.771,0,1.399-0.108,1.888-0.324c0.2-0.086,0.384-0.213,0.539-0.371   l0.003-0.003l0.124-0.133l-15.518-17.552l-1.371-1.555h2.069h4.493h0.422l0.282,0.327l12.411,14.309l7.676-14.144l0.27-0.492h0.549   h3.722h1.574l-0.752,1.384l-10.342,18.957l-0.006,0.009c-0.422,0.765-0.898,1.431-1.431,1.999   c-0.549,0.584-1.149,1.066-1.806,1.441c-0.654,0.371-1.403,0.654-2.247,0.844c-0.819,0.178-1.714,0.273-2.681,0.273h-7.191h-0.936   v-0.936v-3.097v-0.936h0.936H584.519z M609.6,244.681c0,2.053,0.098,3.678,0.305,4.868c0.174,1.047,0.406,1.701,0.682,1.961   c0.285,0.27,0.993,0.495,2.117,0.666c1.269,0.194,2.986,0.292,5.144,0.292c3.942,0,6.29-0.2,7.051-0.597   c0.304-0.168,0.549-0.514,0.73-1.034c0.229-0.651,0.339-1.549,0.339-2.688v-0.936h0.936h3.275h0.933v0.936   c0,1.926-0.197,3.513-0.59,4.757c-0.432,1.365-1.104,2.348-2.015,2.948c-0.847,0.549-2.183,0.955-4.011,1.215   c-1.742,0.244-3.957,0.368-6.648,0.368c-2.767,0-5.039-0.174-6.81-0.524c-1.885-0.371-3.256-0.955-4.103-1.752v-0.003   c-0.86-0.809-1.491-2.12-1.888-3.938c-0.371-1.701-0.559-3.881-0.559-6.54c0-2.672,0.184-4.871,0.552-6.585   c0.39-1.828,1.012-3.151,1.857-3.957c0.841-0.8,2.208-1.387,4.1-1.755c1.78-0.349,4.065-0.524,6.851-0.524   c2.71,0,4.938,0.121,6.686,0.362c1.831,0.254,3.164,0.66,4.002,1.206c0.901,0.593,1.568,1.574,1.996,2.945v0.003   c0.384,1.247,0.581,2.84,0.581,4.77v0.933h-0.933h-3.275h-0.936v-0.933c0-2.094-0.314-3.307-0.942-3.633   c-0.374-0.197-1.136-0.355-2.285-0.47c-1.219-0.121-2.849-0.181-4.893-0.181c-2.17,0-3.89,0.095-5.163,0.289   c-1.13,0.168-1.834,0.387-2.113,0.651C609.921,238.414,609.6,240.708,609.6,244.681 M634.768,232.194h25.431h0.933v0.939v23.032   v0.936h-0.933h-3.275h-0.933v-0.936v-18.999h-17.012v18.999v0.936h-0.933h-3.278h-0.933v-0.936v-23.032v-0.939H634.768z    M665.274,232.194h21.03h0.936v0.939v3.097v0.936h-0.936h-16.822v4.827h16.216h0.933v0.936v3.1v0.936h-0.933h-16.216v5.166h16.822   h0.936v0.936v3.097v0.936h-0.936h-21.03h-0.933v-0.936v-23.032v-0.939H665.274z M713.213,232.194h4.528h2.222l-1.558,1.593   l-10.631,10.862l10.631,10.862l0.597,0.609l0.188-0.371l11.56-23.035l0.26-0.52h0.571h5.106h0.574l0.257,0.52l11.56,23.035   l0.679,1.352h-1.513h-3.691h-0.571l-0.26-0.511l-2.342-4.608h-14.524l-2.31,4.601l-0.257,0.517h-0.574h-3.694h-0.057h-1.45h-0.771   h-4.303h-0.394l-0.279-0.292l-8.736-9.066l-8.733,9.066l-0.279,0.292h-0.394h-4.335h-2.218l1.552-1.59l10.634-10.862   l-10.634-10.862l-1.552-1.593h2.218h4.56h0.397l0.276,0.295l8.507,8.984l8.511-8.984l0.276-0.295H713.213z M739.038,247.048   l-4.887-9.898l-4.887,9.898H739.038z M504.865,167.052c0,7.635-1.044,14.375-3.132,20.198c-2.136,5.953-5.363,10.935-9.685,14.93   c-4.275,3.951-9.463,6.905-15.556,8.857c-5.95,1.907-12.76,2.865-20.414,2.865H345.474h-3.659v-3.741V65.702v-3.741h3.659h105.859   c7.502,0,14.213,0.968,20.132,2.9c6.064,1.977,11.24,4.95,15.537,8.911l0.016,0.009c4.319,4.018,7.559,8.885,9.72,14.607   c2.123,5.62,3.183,12.008,3.183,19.164c0,8.162-1.438,14.791-4.309,19.881c-1.517,2.688-3.408,4.928-5.671,6.712l0.444,0.295   c2.602,1.761,4.947,4.097,7.042,7.003v0.013c2.488,3.5,4.357,7.394,5.595,11.694C504.249,157.408,504.865,162.044,504.865,167.052    M468.594,107.552c0-2.536-0.292-4.719-0.867-6.54c-0.53-1.669-1.307-3.062-2.326-4.173c-1.292-1.396-3.034-2.456-5.217-3.183   c-2.406-0.796-5.36-1.196-8.851-1.196h-77.991v28.16h77.991c3.789,0,6.899-0.305,9.33-0.898c2.136-0.524,3.716-1.25,4.744-2.177   l-0.007-0.003c1.003-0.923,1.774-2.148,2.301-3.675C468.295,112.156,468.594,110.049,468.594,107.552 M373.343,151.122v32.279   h82.529c3.164,0,5.874-0.387,8.124-1.158c2.085-0.717,3.802-1.761,5.138-3.145c1.374-1.441,2.418-3.129,3.116-5.061l0.003,0.003   c0.717-1.986,1.082-4.259,1.082-6.813c0-2.459-0.365-4.662-1.092-6.588c-0.707-1.885-1.783-3.57-3.217-5.046l-0.029-0.032   c-1.381-1.444-3.11-2.535-5.179-3.269c-2.209-0.781-4.858-1.171-7.946-1.171H373.343z M315.81,213.903h-24.213h-3.659v-3.741   V97.128h31.533v113.034v3.741H315.81z M217.215,122.533h0.029c13.541,0,24.618,4.696,32.359,12.871   c7.714,8.149,12.011,19.681,12.014,33.383h0.019v0.032c0,11.402-5.217,23.007-13.515,31.572c-7.87,8.13-18.57,13.575-30.283,13.595   l-112.507,0.032h-3.637l-0.007-3.726l-0.048-22.623l-0.006-3.726h3.653l112.326-0.035v-0.013c2.431,0,5.458-2.113,7.968-5.039   c2.628-3.059,4.519-6.857,4.519-10.037v-0.032h0.019c-0.01-3.392-1.527-7.664-4.046-11.132c-2.339-3.221-5.484-5.623-8.904-5.623   v0.016h-0.025v-0.016l-70.404,0.171v0.016h-0.171c-13.534,0-24.942-3.665-33.063-11.078c-8.184-7.476-12.89-18.605-12.922-33.463   h-0.019v-0.149c0-14.226,4.275-25.05,11.814-32.616c7.943-7.971,19.392-12.144,33.168-12.715c3.767-0.159,8.314-0.238,14.16-0.279   c5.74-0.041,12.734-0.041,21.496-0.035l75.049,0.067l3.64,0.006l0.007,3.722l0.031,22.381l0.007,3.722l-3.649,0.006l-75.084,0.111   c-9.364,0.003-16.952,0.07-22.746,0.203c-5.604,0.13-9.472,0.33-11.599,0.593h-0.013c-4.966,0.587-8.65,2.291-11.071,4.785   c-2.45,2.526-3.675,6.001-3.675,10.047v0.013h-0.013c0,4.903,1.406,8.685,3.919,11.183c2.529,2.516,6.302,3.856,11.002,3.856   v-0.016h0.013v0.016l70.197-0.035V122.533z M302.79,61.342h1.964c4.077,0,7.787,1.783,10.478,4.652l0.009-0.006   c2.65,2.831,4.294,6.718,4.294,10.977c0,4.259-1.644,8.149-4.294,10.98l-0.009-0.006c-2.691,2.869-6.401,4.652-10.478,4.652h-1.964   c-4.094,0-7.806-1.78-10.488-4.646c-2.65-2.831-4.294-6.721-4.294-10.98c0-4.259,1.644-8.146,4.294-10.977   C294.984,63.122,298.696,61.342,302.79,61.342 M561.87,213.903h-24.213h-3.659v-3.741V97.128h31.53v113.034v3.741H561.87z    M549,61.345h1.964c4.078,0,7.791,1.783,10.478,4.652l0.007-0.006c2.653,2.827,4.297,6.718,4.297,10.977   c0,4.262-1.644,8.149-4.297,10.98l-0.007-0.006c-2.688,2.869-6.401,4.652-10.478,4.652H549c-4.091,0-7.807-1.78-10.488-4.646   c-2.65-2.831-4.294-6.721-4.294-10.98c0-4.255,1.644-8.149,4.294-10.977C541.193,63.125,544.909,61.345,549,61.345"/>
</g>
</svg>