<?xml version="1.0" encoding="UTF-8"?>
<!--Icons from directory ""-->
<svg xmlns="http://www.w3.org/2000/svg" width="34" height="264" viewBox="0 0 34 264"><script xmlns="" type="text/javascript" charset="utf-8" id="zm-extension"/><svg width="26" viewBox="0 0 26 16" height="16" id="social-big-be-hover" y="0"><g fill-rule="evenodd" fill="#0065FF"><path d="m7.3933 0c0.743 0 1.4185 0.06171 2.0326 0.19747 0.6081 0.12959 1.1301 0.34558 1.5721 0.64796 0.436 0.29617 0.774 0.69737 1.013 1.191 0.24 0.4937 0.356 1.1108 0.356 1.839 0 0.7899-0.178 1.444-0.534 1.9747-0.356 0.5245-0.884 0.9565-1.59 1.2898 0.958 0.2776 1.67 0.7652 2.137 1.4563 0.472 0.6973 0.706 1.5308 0.706 2.5118 0 0.796-0.154 1.475-0.455 2.049-0.307 0.58-0.718 1.055-1.234 1.419s-1.105 0.636-1.7685 0.814c-0.657 0.173-1.3386 0.266-2.0325 0.266h-7.5407l-0.000034-15.656h7.338zm-0.4421 6.3191c0.6079 0 1.1115-0.1419 1.5106-0.4381 0.393-0.2901 0.5834-0.7652 0.5834-1.4255 0-0.3641-0.0615-0.6665-0.1904-0.901-0.1351-0.2345-0.307-0.4135-0.5281-0.543-0.2211-0.1358-0.4667-0.2222-0.7553-0.2777-0.2825-0.0556-0.5772-0.0803-0.8843-0.0803h-3.2054v3.6594h3.4695v0.0062zm0.1904 6.6649c0.3377 0 0.657-0.031 0.964-0.099 0.3071-0.068 0.5773-0.173 0.8106-0.333 0.2272-0.154 0.4176-0.358 0.5588-0.623 0.1412-0.266 0.2026-0.605 0.2026-1.012 0-0.809-0.2272-1.3766-0.6754-1.7284-0.4483-0.3455-1.0501-0.5122-1.787-0.5122h-3.7273v4.3076h3.6537zm10.838-0.056c0.466 0.457 1.136 0.685 2.002 0.685 0.626 0 1.166-0.16 1.615-0.475 0.448-0.315 0.724-0.654 0.829-1.006h2.726c-0.436 1.364-1.105 2.339-2.008 2.925-0.896 0.587-1.99 0.883-3.267 0.883-0.89 0-1.688-0.142-2.407-0.432-0.718-0.29-1.314-0.691-1.818-1.216-0.491-0.531-0.871-1.154-1.142-1.888-0.27-0.728-0.405-1.537-0.405-2.4131 0-0.8455 0.141-1.6415 0.418-2.3697 0.282-0.7344 0.669-1.37 1.179-1.9007 0.509-0.5369 1.117-0.9565 1.83-1.265 0.706-0.3086 1.486-0.4629 2.351-0.4629 0.952 0 1.787 0.1852 2.506 0.5616 0.712 0.3703 1.295 0.8701 1.756 1.4996 0.461 0.6294 0.786 1.3452 0.989 2.1475 0.202 0.8022 0.276 1.6415 0.215 2.5237h-8.137c0 0.901 0.301 1.753 0.768 2.203zm3.555-5.9486c-0.368-0.4073-0.988-0.6294-1.75-0.6294-0.497 0-0.903 0.0864-1.234 0.253-0.319 0.1666-0.584 0.3764-0.786 0.6232-0.203 0.2531-0.338 0.5184-0.418 0.7961s-0.129 0.5245-0.141 0.7467h5.042c-0.068-0.7899-0.338-1.3761-0.713-1.7896z"/><rect y="1.049" width="6.313" x="16.58" height="1.543"/></g></svg><svg width="26" viewBox="0 0 26 16" height="16" id="social-big-be" y="16"><g fill-rule="evenodd" fill="#212121"><path d="m7.3933 0c0.743 0 1.4185 0.061726 2.0326 0.19752 0.6081 0.12963 1.1301 0.34567 1.5721 0.64813 0.436 0.29625 0.774 0.69755 1.013 1.1914 0.24 0.4938 0.356 1.111 0.356 1.8394 0 0.7901-0.178 1.4444-0.534 1.9753-0.356 0.5246-0.884 0.9567-1.59 1.2901 0.958 0.2777 1.67 0.7654 2.137 1.4567 0.472 0.6975 0.706 1.5305 0.706 2.5125 0 0.796-0.154 1.475-0.455 2.049-0.307 0.58-0.718 1.056-1.234 1.42s-1.105 0.636-1.7685 0.815c-0.657 0.172-1.3386 0.265-2.0325 0.265h-7.5407l-0.000034-15.66h7.338zm-0.4421 6.3208c0.6079 0 1.1115-0.142 1.5106-0.4383 0.393-0.2901 0.5834-0.7654 0.5834-1.4259 0-0.3641-0.0615-0.6666-0.1904-0.9012-0.1351-0.2345-0.307-0.4135-0.5281-0.5431-0.2211-0.1358-0.4667-0.2223-0.7553-0.2778-0.2825-0.0556-0.5772-0.0803-0.8843-0.0803h-3.2054v3.6604h3.4695v0.0062zm0.1904 6.6662c0.3377 0 0.657-0.031 0.964-0.099 0.3071-0.067 0.5773-0.172 0.8106-0.333 0.2272-0.154 0.4176-0.358 0.5588-0.623 0.1412-0.266 0.2026-0.605 0.2026-1.013 0-0.808-0.2272-1.3761-0.6754-1.7279-0.4483-0.3457-1.0501-0.5124-1.787-0.5124h-3.7273v4.3083h3.6537zm10.838-0.291c0.466 0.456 1.136 0.685 2.002 0.685 0.626 0 1.166-0.161 1.615-0.476 0.448-0.314 0.724-0.654 0.829-1.006h2.726c-0.436 1.364-1.105 2.34-2.008 2.926-0.896 0.586-1.99 0.883-3.267 0.883-0.89 0-1.688-0.142-2.407-0.432-0.718-0.29-1.314-0.692-1.818-1.216-0.491-0.531-0.871-1.155-1.142-1.889-0.27-0.728-0.405-1.537-0.405-2.4135 0-0.8457 0.141-1.6419 0.418-2.3703 0.282-0.7345 0.669-1.3703 1.179-1.9011 0.509-0.537 1.117-0.9568 1.83-1.2654 0.706-0.3086 1.486-0.4629 2.351-0.4629 0.952 0 1.787 0.1852 2.506 0.5617 0.712 0.3703 1.295 0.8703 1.756 1.4999s0.786 1.3456 0.989 2.148c0.202 0.8025 0.276 1.6419 0.215 2.5246h-8.137c0 0.901 0.301 1.753 0.768 2.204zm3.555-5.9507c-0.368-0.4074-0.988-0.6296-1.75-0.6296-0.497 0-0.903 0.0864-1.234 0.2531-0.319 0.1666-0.584 0.3765-0.786 0.6234-0.203 0.2531-0.338 0.5185-0.418 0.7962-0.08 0.2778-0.129 0.5247-0.141 0.7469h5.042c-0.068-0.7901-0.338-1.3765-0.713-1.79z"/><rect y=".987" width="6.313" x="16.58" height="1.54"/></g></svg><svg width="21" viewBox="0 0 21 22" height="22" id="social-big-fb-hover" y="32"><g fill-rule="evenodd" transform="translate(0 .5)"><path fill-rule="nonzero" d="m0 3.3416c0-1.8455 1.5009-3.3416 3.3416-3.3416h14.187c1.845 0 3.341 1.5009 3.341 3.3416v14.187c0 1.845-1.501 3.341-3.341 3.341h-14.187c-1.8459 0-3.342-1.501-3.342-3.341v-14.187z" fill="#3B5998"/><path transform="translate(7.59 3.795)" d="m6.4829 4.5707h-2.1153v-1.4561c0-0.5468 0.3453-0.6743 0.5885-0.6743h1.4927v-2.404l-2.0558-0.008421c-2.2821 0-2.8015 1.7929-2.8015 2.9403v1.6025h-1.3198l0.00001 2.4771h1.3198v7.0092h2.7761v-7.0092h1.8732l0.2421-2.4771z" fill="#FFF"/></g></svg><svg width="21" viewBox="0 0 21 22" height="22" id="social-big-fb" y="54"><g fill-rule="evenodd" transform="translate(0 .5)" fill="#212121"><path d="m6.4963 4.5801h-2.1197v-1.4591c0-0.5479 0.346-0.6757 0.5897-0.6757h1.4959v-2.4089l-2.0601-0.008463c-2.2869 0-2.8073 1.7967-2.8073 2.9465v1.6057h-1.3225l-0.00003 2.4823h1.3225v7.0236h2.7818v-7.0236h1.8771l0.2426-2.4823z" transform="translate(7.605 3.802)"/><path d="m1.6731 3.3485v14.216c0 0.924 0.7522 1.676 1.6754 1.676h14.216c0.924 0 1.676-0.752 1.676-1.675v-14.216c0-0.923-0.752-1.6759-1.675-1.6759h-14.216c-0.923 0-1.6759 0.7522-1.6759 1.6754zm-1.6731 0c0-1.8493 1.5041-3.3485 3.3485-3.3485h14.216c1.85 0 3.35 1.5041 3.35 3.3485v14.216c0 1.85-1.504 3.35-3.349 3.35h-14.216c-1.8498 0-3.349-1.504-3.349-3.349v-14.216z" fill-rule="nonzero"/></g></svg><svg width="27" viewBox="0 0 27 18" height="18" id="social-big-google-hover" y="76"><g fill-rule="evenodd" fill="#FF3427"><path d="m8.8762 7.6748c-0.004 0.9984 0 1.9967 0.0041 2.9952 1.6017 0.054 3.2067 0.029 4.8077 0.054-0.706 3.713-5.5381 4.917-8.0944 2.492-2.6286-2.127-2.5042-6.7912 0.2287-8.767 1.9102-1.5941 4.6267-1.1998 6.5377 0.1804 0.75-0.7257 1.452-1.5018 2.13-2.3072-1.589-1.3256-3.539-2.2694-5.6138-2.1687-4.3301-0.15105-8.311 3.8131-8.3833 8.3393-0.27689 3.7002 2.0507 7.3282 5.3374 8.6372 3.2747 1.317 7.4727 0.419 9.5637-2.655 1.38-1.943 1.677-4.443 1.516-6.7918-2.68-0.021-5.357-0.0168-8.0338-0.0084zm15.659-0.0126c-0.008-0.8348-0.012-1.6738-0.016-2.5085h-2.388c-0.008 0.8348-0.016 1.6695-0.02 2.5085-0.802 0.0042-1.601 0.0084-2.4 0.0168v2.496c0.799 0.008 1.602 0.017 2.4 0.025 0.008 0.835 0.008 1.67 0.016 2.504h2.392c0.004-0.834 0.008-1.669 0.016-2.508 0.803-0.008 1.601-0.013 2.4-0.021v-2.496c-0.799-0.0084-1.601-0.0084-2.4-0.0168z"/></g></svg><svg width="27" viewBox="0 0 27 18" height="18" id="social-big-google" y="94"><g fill-rule="evenodd" fill="#212121"><path d="m8.8884 7.6748c-0.004 0.9984 0 1.9967 0.0041 2.9952 1.6035 0.054 3.2105 0.029 4.8145 0.054-0.708 3.713-5.5459 4.917-8.1057 2.492-2.6323-2.127-2.5077-6.7912 0.229-8.767 1.9129-1.5941 4.6337-1.1998 6.5467 0.1804 0.751-0.7257 1.454-1.5018 2.133-2.3072-1.591-1.3256-3.544-2.2694-5.6216-2.1687-4.336-0.15105-8.3225 3.8131-8.3948 8.3393-0.2773 3.7002 2.0535 7.3282 5.3448 8.6372 3.2791 1.317 7.4826 0.419 9.5766-2.655 1.382-1.943 1.679-4.443 1.519-6.7918-2.685-0.021-5.365-0.0168-8.0456-0.0084zm15.681-0.0126c-0.008-0.8348-0.012-1.6738-0.016-2.5085h-2.391c-0.008 0.8348-0.016 1.6695-0.02 2.5085-0.804 0.0042-1.604 0.0084-2.403 0.0168v2.496c0.799 0.008 1.603 0.017 2.403 0.025 0.008 0.835 0.008 1.67 0.016 2.504h2.395c0.004-0.834 0.008-1.669 0.016-2.508 0.804-0.008 1.603-0.013 2.403-0.021v-2.496c-0.8-0.0084-1.603-0.0084-2.403-0.0168z"/></g></svg><svg width="24" viewBox="0 0 24 25" height="25" id="social-big-insta-hover" y="112"><defs><linearGradient id="social-big-insta-hover-social-big-insta-hover-a" x2="50%" y1="99.709%" x1="50%" y2=".777%"><stop stop-color="#E09B3D" offset="0"/><stop stop-color="#C74C4D" offset=".3"/><stop stop-color="#C21975" offset=".6"/><stop stop-color="#7024C4" offset="1"/></linearGradient></defs><g fill-rule="evenodd" transform="translate(0 .5)" fill="url(#social-big-insta-hover-social-big-insta-hover-a)"><path d="m23.23 4.125c-0.303-0.7844-0.708-1.4488-1.37-2.1132-0.661-0.6645-1.323-1.0705-2.105-1.375-0.754-0.29535-1.627-0.49838-2.886-0.55375-1.269-0.055365-1.673-0.073822-4.909-0.073822-3.236 3e-7 -3.6405 0.009229-4.9091 0.073826-1.2686 0.055366-2.1328 0.2584-2.8866 0.5537-0.7814 0.30453-1.4432 0.71055-2.1051 1.375-0.6619 0.6644-1.0664 1.3288-1.3697 2.1132-0.29421 0.7568-0.49645 1.6334-0.55161 2.8977-0.055155 1.2735-0.073541 1.6796-0.073541 4.9283 0 3.248 0.009193 3.654 0.073541 4.928 0.05516 1.273 0.2574 2.14 0.55157 2.897 0.30336 0.785 0.70784 1.449 1.3697 2.113 0.6619 0.665 1.3237 1.071 2.1051 1.375 0.7538 0.296 1.6272 0.499 2.8866 0.554 1.2686 0.056 1.6731 0.074 4.9091 0.074s3.64-0.009 4.909-0.074c1.268-0.055 2.132-0.258 2.886-0.554 0.782-0.304 1.444-0.71 2.105-1.375 0.662-0.664 1.067-1.328 1.37-2.113 0.294-0.757 0.497-1.633 0.552-2.897 0.055-1.274 0.073-1.68 0.073-4.928 0-3.2487-0.009-3.6548-0.073-4.9283-0.055-1.2735-0.258-2.1409-0.552-2.8977zm-1.59 12.652c-0.055 1.163-0.248 1.8-0.414 2.215-0.211 0.553-0.478 0.96-0.892 1.375-0.413 0.415-0.809 0.673-1.369 0.895-0.423 0.166-1.048 0.36-2.207 0.415-1.259 0.056-1.627 0.074-4.807 0.074-3.1811 0-3.558-0.009-4.8082-0.074-1.1583-0.055-1.7926-0.249-2.2063-0.415-0.5515-0.212-0.956-0.48-1.3697-0.895s-0.6711-0.812-0.8917-1.375c-0.1655-0.425-0.3585-1.052-0.4137-2.215-0.0551-1.264-0.0735-1.643-0.0735-4.826 0-3.1841 0.0092-3.5717 0.0735-4.8268 0.0552-1.1627 0.2482-1.7995 0.4137-2.2148 0.2114-0.5537 0.478-0.9597 0.8917-1.375 0.4137-0.4152 0.809-0.6736 1.3697-0.8951 0.4229-0.1661 1.048-0.3599 2.2063-0.4153 1.2594-0.0554 1.6363-0.0738 4.8082-0.0738 3.171 0 3.557 0.0092 4.807 0.0738 1.159 0.0554 1.793 0.2492 2.207 0.4153 0.551 0.2122 0.956 0.4799 1.369 0.8951 0.414 0.4153 0.672 0.8121 0.892 1.375 0.166 0.4245 0.359 1.0521 0.414 2.2148 0.055 1.2643 0.073 1.6427 0.073 4.8268 0 3.183-0.018 3.571-0.073 4.826z"/><path d="m11.951 5.8138c-3.3741 0-6.1136 2.75-6.1136 6.1372 0 3.386 2.7395 6.136 6.1136 6.136 3.373 0 6.113-2.75 6.113-6.136 0-3.3872-2.74-6.1372-6.113-6.1372zm0 10.123c-2.1883 0-3.9717-1.781-3.9717-3.986 0-2.1967 1.7742-3.987 3.9717-3.987 2.197 0 3.971 1.7811 3.971 3.987 0 2.196-1.784 3.986-3.971 3.986z"/><ellipse cy="5.574" cx="18.303" rx="1.425" ry="1.43"/></g></svg><svg width="24" viewBox="0 0 24 25" height="25" id="social-big-insta" y="137"><g fill-rule="evenodd" transform="translate(0 .5)" fill="#212121"><path d="m23.23 4.125c-0.303-0.7844-0.708-1.4488-1.37-2.1132-0.661-0.6645-1.323-1.0705-2.105-1.375-0.754-0.29535-1.627-0.49838-2.886-0.55375-1.269-0.055365-1.673-0.073822-4.909-0.073822-3.236 3e-7 -3.6405 0.009229-4.9091 0.073826-1.2686 0.055366-2.1328 0.2584-2.8866 0.5537-0.7814 0.30453-1.4432 0.71055-2.1051 1.375-0.6619 0.6644-1.0664 1.3288-1.3697 2.1132-0.29421 0.7568-0.49645 1.6334-0.55161 2.8977-0.055155 1.2735-0.073541 1.6796-0.073541 4.9283 0 3.248 0.009193 3.654 0.073541 4.928 0.05516 1.273 0.2574 2.14 0.55157 2.897 0.30336 0.785 0.70784 1.449 1.3697 2.113 0.6619 0.665 1.3237 1.071 2.1051 1.375 0.7538 0.296 1.6272 0.499 2.8866 0.554 1.2686 0.056 1.6731 0.074 4.9091 0.074s3.64-0.009 4.909-0.074c1.268-0.055 2.132-0.258 2.886-0.554 0.782-0.304 1.444-0.71 2.105-1.375 0.662-0.664 1.067-1.328 1.37-2.113 0.294-0.757 0.497-1.633 0.552-2.897 0.055-1.274 0.073-1.68 0.073-4.928 0-3.2487-0.009-3.6548-0.073-4.9283-0.055-1.2735-0.258-2.1409-0.552-2.8977zm-1.59 12.652c-0.055 1.163-0.248 1.8-0.414 2.215-0.211 0.553-0.478 0.96-0.892 1.375-0.413 0.415-0.809 0.673-1.369 0.895-0.423 0.166-1.048 0.36-2.207 0.415-1.259 0.056-1.627 0.074-4.807 0.074-3.1811 0-3.558-0.009-4.8082-0.074-1.1583-0.055-1.7926-0.249-2.2063-0.415-0.5515-0.212-0.956-0.48-1.3697-0.895s-0.6711-0.812-0.8917-1.375c-0.1655-0.425-0.3585-1.052-0.4137-2.215-0.0551-1.264-0.0735-1.643-0.0735-4.826 0-3.1841 0.0092-3.5717 0.0735-4.8268 0.0552-1.1627 0.2482-1.7995 0.4137-2.2148 0.2114-0.5537 0.478-0.9597 0.8917-1.375 0.4137-0.4152 0.809-0.6736 1.3697-0.8951 0.4229-0.1661 1.048-0.3599 2.2063-0.4153 1.2594-0.0554 1.6363-0.0738 4.8082-0.0738 3.171 0 3.557 0.0092 4.807 0.0738 1.159 0.0554 1.793 0.2492 2.207 0.4153 0.551 0.2122 0.956 0.4799 1.369 0.8951 0.414 0.4153 0.672 0.8121 0.892 1.375 0.166 0.4245 0.359 1.0521 0.414 2.2148 0.055 1.2643 0.073 1.6427 0.073 4.8268 0 3.183-0.018 3.571-0.073 4.826z"/><path d="m11.951 5.8138c-3.3741 0-6.1136 2.75-6.1136 6.1372 0 3.386 2.7395 6.136 6.1136 6.136 3.373 0 6.113-2.75 6.113-6.136 0-3.3872-2.74-6.1372-6.113-6.1372zm0 10.123c-2.1883 0-3.9717-1.781-3.9717-3.986 0-2.1967 1.7742-3.987 3.9717-3.987 2.197 0 3.971 1.7811 3.971 3.987 0 2.196-1.784 3.986-3.971 3.986z"/><ellipse cy="5.574" cx="18.303" rx="1.425" ry="1.43"/></g></svg><svg width="26" viewBox="0 0 26 27" height="27" id="social-big-slideshare-hover" y="162"><path fill-rule="evenodd" d="m12.379 10.896c0 0.815-0.305 1.514-0.917 2.098-0.611 0.584-1.344 0.876-2.2008 0.876-0.8565 0-1.5902-0.292-2.2013-0.876s-0.9166-1.283-0.9166-2.098c0-0.825 0.3055-1.5265 0.9166-2.1056 0.6111-0.5792 1.3448-0.8688 2.2013-0.8688 0.8568 0 1.5898 0.2896 2.2008 0.8688 0.612 0.5791 0.917 1.2806 0.917 2.1056zm7.246 0c0 0.815-0.303 1.514-0.909 2.098s-1.342 0.876-2.209 0.876c-0.856 0-1.59-0.292-2.201-0.876s-0.916-1.283-0.916-2.098c0-0.825 0.305-1.5265 0.916-2.1056 0.611-0.5792 1.345-0.8688 2.201-0.8688 0.867 0 1.603 0.2896 2.209 0.8688 0.606 0.5791 0.909 1.2806 0.909 2.1056zm3.248 2.65v-9.8208c0-0.854-0.154-1.4601-0.462-1.8184s-0.842-0.5374-1.602-0.5374h-16.052c-0.7982 0-1.3395 0.1668-1.6234 0.5006-0.2839 0.3337-0.4258 0.9521-0.4258 1.8552v9.9098c0.4138 0.225 0.8396 0.422 1.2775 0.589 0.4378 0.166 0.8276 0.304 1.1692 0.412s0.7313 0.199 1.1692 0.272c0.4379 0.074 0.7795 0.128 1.0249 0.162 0.2454 0.035 0.5822 0.054 1.0104 0.059s0.7097 0.008 0.8445 0.008c0.1347 0 0.4065-0.01 0.8155-0.03s0.623-0.029 0.642-0.029c0.655-0.01 1.112 0.122 1.372 0.397 0.057 0.059 0.106 0.103 0.144 0.133 0.25 0.245 0.544 0.495 0.881 0.751 0.067-0.894 0.635-1.321 1.703-1.281 0.048 0 0.224 0.007 0.527 0.022 0.303 0.014 0.51 0.024 0.62 0.029 0.111 0.005 0.33 0.01 0.657 0.015s0.582 0 0.765-0.015 0.445-0.037 0.787-0.066c0.342-0.03 0.635-0.071 0.88-0.125 0.246-0.054 0.544-0.121 0.895-0.199 0.352-0.079 0.674-0.174 0.968-0.287 0.293-0.113 0.618-0.246 0.974-0.398s0.702-0.321 1.039-0.508zm2.353-0.073c-1.164 1.462-2.954 2.699-5.37 3.71 0.809 2.798 0.698 5.08-0.332 6.847-0.635 1.109-1.515 1.836-2.641 2.179-1.001 0.314-1.877 0.241-2.627-0.221-0.828-0.5-1.223-1.305-1.184-2.414l-0.014-4.801v-0.014c-0.077-0.02-0.195-0.049-0.354-0.089-0.159-0.039-0.272-0.063-0.339-0.073l-0.015 4.977c0.039 1.119-0.361 1.923-1.198 2.414-0.76 0.462-1.6406 0.535-2.6414 0.221-1.1259-0.353-2.0016-1.089-2.6272-2.208-1.0104-1.767-1.1162-4.04-0.3175-6.818-2.4154-1.011-4.2054-2.248-5.3698-3.71-0.24056-0.364-0.2598-0.673-0.05771-0.928 0.20208-0.255 0.49078-0.25 0.86611 0.015 0.0288 0.019 0.0818 0.054 0.1588 0.103 0.0769 0.049 0.1299 0.088 0.1587 0.118v-10.219c0-0.7067 0.2262-1.3104 0.6785-1.8111 0.4523-0.50059 1.0008-0.7509 1.6455-0.7509h18.145c0.644 0 1.193 0.25031 1.645 0.75094 0.452 0.50066 0.679 1.1044 0.679 1.8111v10.219l0.303-0.221c0.375-0.265 0.664-0.27 0.866-0.015s0.183 0.564-0.058 0.928z" transform="translate(0 .5)" fill="#007ECB"/></svg><svg width="26" viewBox="0 0 26 27" height="27" id="social-big-slideshare" y="189"><path fill-rule="evenodd" d="m12.379 10.896c0 0.815-0.305 1.514-0.917 2.098-0.611 0.584-1.344 0.876-2.2008 0.876-0.8565 0-1.5902-0.292-2.2013-0.876s-0.9166-1.283-0.9166-2.098c0-0.825 0.3055-1.5265 0.9166-2.1056 0.6111-0.5792 1.3448-0.8688 2.2013-0.8688 0.8568 0 1.5898 0.2896 2.2008 0.8688 0.612 0.5791 0.917 1.2806 0.917 2.1056zm7.246 0c0 0.815-0.303 1.514-0.909 2.098s-1.342 0.876-2.209 0.876c-0.856 0-1.59-0.292-2.201-0.876s-0.916-1.283-0.916-2.098c0-0.825 0.305-1.5265 0.916-2.1056 0.611-0.5792 1.345-0.8688 2.201-0.8688 0.867 0 1.603 0.2896 2.209 0.8688 0.606 0.5791 0.909 1.2806 0.909 2.1056zm3.248 2.65v-9.8208c0-0.854-0.154-1.4601-0.462-1.8184s-0.842-0.5374-1.602-0.5374h-16.052c-0.7982 0-1.3395 0.1668-1.6234 0.5006-0.2839 0.3337-0.4258 0.9521-0.4258 1.8552v9.9098c0.4138 0.225 0.8396 0.422 1.2775 0.589 0.4378 0.166 0.8276 0.304 1.1692 0.412s0.7313 0.199 1.1692 0.272c0.4379 0.074 0.7795 0.128 1.0249 0.162 0.2454 0.035 0.5822 0.054 1.0104 0.059s0.7097 0.008 0.8445 0.008c0.1347 0 0.4065-0.01 0.8155-0.03s0.623-0.029 0.642-0.029c0.655-0.01 1.112 0.122 1.372 0.397 0.057 0.059 0.106 0.103 0.144 0.133 0.25 0.245 0.544 0.495 0.881 0.751 0.067-0.894 0.635-1.321 1.703-1.281 0.048 0 0.224 0.007 0.527 0.022 0.303 0.014 0.51 0.024 0.62 0.029 0.111 0.005 0.33 0.01 0.657 0.015s0.582 0 0.765-0.015 0.445-0.037 0.787-0.066c0.342-0.03 0.635-0.071 0.88-0.125 0.246-0.054 0.544-0.121 0.895-0.199 0.352-0.079 0.674-0.174 0.968-0.287 0.293-0.113 0.618-0.246 0.974-0.398s0.702-0.321 1.039-0.508zm2.353-0.073c-1.164 1.462-2.954 2.699-5.37 3.71 0.809 2.798 0.698 5.08-0.332 6.847-0.635 1.109-1.515 1.836-2.641 2.179-1.001 0.314-1.877 0.241-2.627-0.221-0.828-0.5-1.223-1.305-1.184-2.414l-0.014-4.801v-0.014c-0.077-0.02-0.195-0.049-0.354-0.089-0.159-0.039-0.272-0.063-0.339-0.073l-0.015 4.977c0.039 1.119-0.361 1.923-1.198 2.414-0.76 0.462-1.6406 0.535-2.6414 0.221-1.1259-0.353-2.0016-1.089-2.6272-2.208-1.0104-1.767-1.1162-4.04-0.3175-6.818-2.4154-1.011-4.2054-2.248-5.3698-3.71-0.24056-0.364-0.2598-0.673-0.05771-0.928 0.20208-0.255 0.49078-0.25 0.86611 0.015 0.0288 0.019 0.0818 0.054 0.1588 0.103 0.0769 0.049 0.1299 0.088 0.1587 0.118v-10.219c0-0.7067 0.2262-1.3104 0.6785-1.8111 0.4523-0.50059 1.0008-0.7509 1.6455-0.7509h18.145c0.644 0 1.193 0.25031 1.645 0.75094 0.452 0.50066 0.679 1.1044 0.679 1.8111v10.219l0.303-0.221c0.375-0.265 0.664-0.27 0.866-0.015s0.183 0.564-0.058 0.928z" transform="translate(0 .5)" fill="#212121"/></svg><svg xmlns:xlink="http://www.w3.org/1999/xlink" viewBox="0 0 34 24" width="34" height="24" id="social-big-youtube-hover" y="216"><defs><polygon id="social-big-youtube-hover-social-big-youtube-hover-a" points="0.012 23.808 0.012 0.008 33.792 0.008 33.792 23.808"/></defs><g fill-rule="evenodd"><mask id="social-big-youtube-hover-social-big-youtube-hover-b" fill="#fff"><use xlink:href="#social-big-youtube-hover-social-big-youtube-hover-a"/></mask><path mask="url(#social-big-youtube-hover-social-big-youtube-hover-b)" d="m30.098 0.71078c-2.635-0.71078-13.202-0.71078-13.202-0.71078s-10.567 0-13.202 0.71078c-1.4541 0.39112-2.5992 1.5435-2.9878 3.0069-0.7062 2.6523-0.7062 8.1863-0.7062 8.1863s0 5.534 0.70618 8.186c0.38862 1.464 1.5337 2.616 2.9875 3.007 2.6352 0.711 13.202 0.711 13.202 0.711s10.567 0 13.202-0.711c1.454-0.391 2.599-1.543 2.988-3.007 0.706-2.652 0.706-8.186 0.706-8.186s0-5.534-0.706-8.1863c-0.389-1.4634-1.534-2.6158-2.988-3.0069z" fill="#F00000"/><polyline points="13.44 16.928 22.272 11.904 13.44 6.88 13.44 16.928" fill="#FFFFFE"/></g></svg><svg xmlns:xlink="http://www.w3.org/1999/xlink" viewBox="0 0 34 24" width="34" height="24" id="social-big-youtube" y="240"><defs><polygon id="social-big-youtube-social-big-youtube-a" points="0.012 23.808 0.012 0.008 33.792 0.008 33.792 23.808"/></defs><g fill-rule="evenodd"><mask id="social-big-youtube-social-big-youtube-b" fill="#fff"><use xlink:href="#social-big-youtube-social-big-youtube-a"/></mask><path mask="url(#social-big-youtube-social-big-youtube-b)" d="m33.086 3.7177c-0.389-1.4634-1.534-2.6158-2.988-3.0069-2.635-0.7108-13.202-0.7108-13.202-0.7108s-10.567 0-13.202 0.71078c-1.4541 0.39112-2.5992 1.5435-2.9878 3.0069-0.7062 2.6523-0.7062 8.1863-0.7062 8.1863s0 5.534 0.70618 8.186c0.38862 1.464 1.5337 2.616 2.9875 3.007 2.6352 0.711 13.202 0.711 13.202 0.711s10.567 0 13.202-0.711c1.454-0.391 2.599-1.543 2.988-3.007 0.706-2.652 0.706-8.186 0.706-8.186s0-5.534-0.706-8.1863" fill="#282828"/><polyline points="13.44 16.928 22.272 11.904 13.44 6.88 13.44 16.928" fill="#FFFFFE"/></g></svg></svg>