<?xml version="1.0" encoding="UTF-8"?>
<!--Icons from directory ""-->
<svg xmlns="http://www.w3.org/2000/svg" width="21" height="194" viewBox="0 0 21 194"><script xmlns="" type="text/javascript" charset="utf-8" id="zm-extension"/><svg xmlns:xlink="http://www.w3.org/1999/xlink" height="13" width="21" version="1.1" viewBox="0 0 21 13" id="social-be-hover" y="0"><title>1490801643_Behance_Solid</title><desc>Created with Sketch.</desc><g id="social-be-hover-Page-1" fill-rule="evenodd" fill="none"><g id="social-be-hover-Artboard-4" fill="#0065FF" transform="translate(-44 -134)"><g id="social-be-hover-social-icons-copy" transform="translate(43 37)"><g id="social-be-hover-1490801643_Behance_Solid" transform="translate(1.6296 97.778)"><g id="social-be-hover-Layer_1"><g id="social-be-hover-XMLID_97_"><path id="social-be-hover-XMLID_102_" d="m5.6872 0c0.5715 0 1.0911 0.04719 1.5635 0.15101 0.4676 0.0991 0.8691 0.26426 1.2092 0.49549 0.3354 0.22652 0.5952 0.5333 0.7794 0.9108s0.274 0.8494 0.274 1.4062c0 0.6041-0.137 1.1043-0.411 1.5101-0.274 0.4011-0.6802 0.7315-1.2234 0.9863 0.7369 0.2123 1.2848 0.5851 1.6438 1.1137 0.3637 0.5332 0.5433 1.1703 0.5433 1.9206 0 0.6088-0.1182 1.1279-0.3496 1.5668-0.2362 0.444-0.5527 0.807-0.9495 1.085-0.3967 0.279-0.8502 0.486-1.3604 0.623-0.5054 0.132-1.0297 0.203-1.5635 0.203h-5.8005l0.000012-11.972h5.6447zm-0.3401 4.8323c0.4676 0 0.8549-0.1086 1.162-0.3351 0.3023-0.2218 0.4487-0.5851 0.4487-1.0901 0-0.2784-0.0472-0.5096-0.1464-0.689-0.1039-0.1793-0.2362-0.3161-0.4062-0.4152-0.1701-0.1038-0.359-0.1699-0.581-0.2124-0.2173-0.0425-0.4441-0.0613-0.6802-0.0613h-2.4657v2.7983h2.6688v0.0048zm0.1464 5.0965c0.2598 0 0.5054-0.0236 0.7416-0.0755s0.444-0.1322 0.6235-0.2548c0.1748-0.118 0.3212-0.2737 0.4299-0.4767 0.1086-0.2029 0.1558-0.4624 0.1558-0.7739 0-0.6182-0.1747-1.0523-0.5196-1.3213-0.3448-0.2643-0.8077-0.3917-1.3745-0.3917h-2.8672v3.2939h2.8105z"/><path id="social-be-hover-XMLID_99_" d="m13.831 9.8863c0.359 0.3497 0.873 0.5237 1.539 0.5237 0.482 0 0.898-0.123 1.243-0.363 0.345-0.2409 0.557-0.5005 0.637-0.7694h2.098c-0.336 1.0424-0.851 1.7884-1.545 2.2364-0.69 0.449-1.53 0.675-2.513 0.675-0.685 0-1.299-0.108-1.851-0.33-0.553-0.222-1.011-0.529-1.399-0.93-0.378-0.406-0.67-0.882-0.878-1.4438-0.208-0.5568-0.312-1.175-0.312-1.8451 0-0.6465 0.109-1.2553 0.321-1.8121 0.218-0.5616 0.515-1.0476 0.907-1.4535 0.392-0.4105 0.86-0.7314 1.408-0.9674 0.543-0.2359 1.143-0.3539 1.809-0.3539 0.732 0 1.374 0.1416 1.927 0.4294 0.548 0.2832 0.997 0.6654 1.351 1.1467 0.354 0.4814 0.605 1.0288 0.761 1.6423 0.155 0.6134 0.212 1.2552 0.165 1.93h-6.259c0 0.689 0.232 1.3402 0.591 1.6847zm2.735-4.5491c-0.284-0.3115-0.761-0.4813-1.347-0.4813-0.382 0-0.694 0.066-0.949 0.1934-0.246 0.1274-0.449 0.2879-0.605 0.4767-0.156 0.1934-0.26 0.3964-0.321 0.6087-0.061 0.2124-0.099 0.4011-0.109 0.571h3.878c-0.051-0.604-0.259-1.0523-0.547-1.3685z"/><rect id="social-be-hover-XMLID_98_" y=".80223" x="12.754" height="1.1798" width="4.8558"/></g></g></g></g></g></g></svg><svg xmlns:xlink="http://www.w3.org/1999/xlink" height="13" width="21" version="1.1" viewBox="0 0 21 13" id="social-be" y="13"><title>1490801643_Behance_Solid</title><desc>Created with Sketch.</desc><g id="social-be-Page-1" fill-rule="evenodd" fill="none"><g id="social-be-Home-Copy-2" fill="#212121" transform="translate(-1405 -393)"><g id="social-be-hero" transform="translate(9 15)"><g id="social-be-social-icons" transform="translate(1395 281)"><g id="social-be-1490801643_Behance_Solid" transform="translate(1.6296 97.778)"><g id="social-be-Layer_1"><g id="social-be-XMLID_97_"><path id="social-be-XMLID_102_" d="m5.6872 0c0.5715 0 1.0911 0.04719 1.5635 0.15101 0.4676 0.0991 0.8691 0.26426 1.2092 0.49549 0.3354 0.22652 0.5952 0.5333 0.7794 0.9108s0.274 0.8494 0.274 1.4062c0 0.6041-0.137 1.1043-0.411 1.5101-0.274 0.4011-0.6802 0.7315-1.2234 0.9863 0.7369 0.2123 1.2848 0.5851 1.6438 1.1137 0.3637 0.5332 0.5433 1.1703 0.5433 1.9206 0 0.6088-0.1182 1.1279-0.3496 1.5668-0.2362 0.444-0.5527 0.807-0.9495 1.085-0.3967 0.279-0.8502 0.486-1.3604 0.623-0.5054 0.132-1.0297 0.203-1.5635 0.203h-5.8005l0.000012-11.972h5.6447zm-0.3401 4.8323c0.4676 0 0.8549-0.1086 1.162-0.3351 0.3023-0.2218 0.4487-0.5851 0.4487-1.0901 0-0.2784-0.0472-0.5096-0.1464-0.689-0.1039-0.1793-0.2362-0.3161-0.4062-0.4152-0.1701-0.1038-0.359-0.1699-0.581-0.2124-0.2173-0.0425-0.4441-0.0613-0.6802-0.0613h-2.4657v2.7983h2.6688v0.0048zm0.1464 5.0965c0.2598 0 0.5054-0.0236 0.7416-0.0755s0.444-0.1322 0.6235-0.2548c0.1748-0.118 0.3212-0.2737 0.4299-0.4767 0.1086-0.2029 0.1558-0.4624 0.1558-0.7739 0-0.6182-0.1747-1.0523-0.5196-1.3213-0.3448-0.2643-0.8077-0.3917-1.3745-0.3917h-2.8672v3.2939h2.8105z"/><path id="social-be-XMLID_99_" d="m13.831 9.8863c0.359 0.3497 0.873 0.5237 1.539 0.5237 0.482 0 0.898-0.123 1.243-0.363 0.345-0.2409 0.557-0.5005 0.637-0.7694h2.098c-0.336 1.0424-0.851 1.7884-1.545 2.2364-0.69 0.449-1.53 0.675-2.513 0.675-0.685 0-1.299-0.108-1.851-0.33-0.553-0.222-1.011-0.529-1.399-0.93-0.378-0.406-0.67-0.882-0.878-1.4438-0.208-0.5568-0.312-1.175-0.312-1.8451 0-0.6465 0.109-1.2553 0.321-1.8121 0.218-0.5616 0.515-1.0476 0.907-1.4535 0.392-0.4105 0.86-0.7314 1.408-0.9674 0.543-0.2359 1.143-0.3539 1.809-0.3539 0.732 0 1.374 0.1416 1.927 0.4294 0.548 0.2832 0.997 0.6654 1.351 1.1467 0.354 0.4814 0.605 1.0288 0.761 1.6423 0.155 0.6134 0.212 1.2552 0.165 1.93h-6.259c0 0.689 0.232 1.3402 0.591 1.6847zm2.735-4.5491c-0.284-0.3115-0.761-0.4813-1.347-0.4813-0.382 0-0.694 0.066-0.949 0.1934-0.246 0.1274-0.449 0.2879-0.605 0.4767-0.156 0.1934-0.26 0.3964-0.321 0.6087-0.061 0.2124-0.099 0.4011-0.109 0.571h3.878c-0.051-0.604-0.259-1.0523-0.547-1.3685z"/><rect id="social-be-XMLID_98_" y=".80223" x="12.754" height="1.1798" width="4.8558"/></g></g></g></g></g></g></g></svg><svg xmlns:xlink="http://www.w3.org/1999/xlink" height="18" width="18" version="1.1" viewBox="0 0 18 18" id="social-fb-hover" y="26"><title>Group 9</title><desc>Created with Sketch.</desc><g id="social-fb-hover-Page-1" fill-rule="evenodd" fill="none"><g id="social-fb-hover-Artboard-4" transform="translate(-45 -37)"><g id="social-fb-hover-social-icons-copy" transform="translate(43 37)"><g id="social-fb-hover-Group-9" transform="translate(2.4444)"><g id="social-fb-hover-Group-10"><path id="social-fb-hover-Rectangle" fill-rule="nonzero" fill="#3B5998" d="m0 2.7397c0-1.5131 1.2306-2.7397 2.7397-2.7397h11.631c1.514 0 2.74 1.2306 2.74 2.7397v11.631c0 1.514-1.23 2.74-2.74 2.74h-11.631c-1.5134 0-2.74-1.23-2.74-2.74v-11.631z"/><g id="social-fb-hover-1490801663_06-facebook" fill="#fff" transform="translate(6.2222 3.1111)"><g id="social-fb-hover-Layer_1"><path id="social-fb-hover-Shape" d="m5.3151 3.7474h-1.7342v-1.1938c0-0.4484 0.2831-0.5529 0.4825-0.5529h1.2238v-1.9709l-1.6855-0.006943c-1.871 0-2.2968 1.47-2.2968 2.4107v1.3138h-1.0821l-0.00003 2.0309h1.0821v5.7467h2.276v-5.7467h1.5357l0.1985-2.0309z"/></g></g></g></g></g></g></g></svg><svg xmlns:xlink="http://www.w3.org/1999/xlink" height="18" width="18" version="1.1" viewBox="0 0 18 18" id="social-fb" y="44"><desc>Created with Sketch.</desc><g id="social-fb-Page-1" fill-rule="evenodd" fill="none"><g id="social-fb-Home-Copy-2" fill="#212121" transform="translate(-1406 -296)"><g id="social-fb-hero" transform="translate(9 15)"><g id="social-fb-social-icons" transform="translate(1395 281)"><g id="social-fb-Group-9" transform="translate(2.4444)"><g id="social-fb-Group-10"><g id="social-fb-1490801663_06-facebook" transform="translate(6.2222 3.1111)"><g id="social-fb-Layer_1"><path id="social-fb-Shape" d="m5.3151 3.7474h-1.7342v-1.1938c0-0.4484 0.2831-0.5529 0.4825-0.5529h1.2238v-1.9709l-1.6855-0.006943c-1.871 0-2.2968 1.47-2.2968 2.4107v1.3138h-1.0821l-0.00003 2.0309h1.0821v5.7467h2.276v-5.7467h1.5357l0.1985-2.0309z"/></g></g><path id="social-fb-Rectangle" fill-rule="nonzero" d="m1.3689 2.7397v11.631c0 0.755 0.6154 1.371 1.3708 1.371h11.631c0.755 0 1.371-0.615 1.371-1.371v-11.631c0-0.7551-0.615-1.3711-1.371-1.3711h-11.631c-0.7551 0-1.3711 0.6154-1.3711 1.3708zm-1.3689 0c0-1.5131 1.2306-2.7397 2.7397-2.7397h11.631c1.514 0 2.74 1.2306 2.74 2.7397v11.631c0 1.514-1.23 2.74-2.74 2.74h-11.631c-1.5134 0-2.74-1.23-2.74-2.74v-11.631z"/></g></g></g></g></g></g></svg><svg xmlns:xlink="http://www.w3.org/1999/xlink" height="14" width="20" version="1.1" viewBox="0 0 20 14" id="social-google-hover" y="62"><title>1490801653_40-google-plus</title><desc>Created with Sketch.</desc><g id="social-google-hover-Page-1" fill-rule="evenodd" fill="none"><g id="social-google-hover-Artboard-4" fill="#FF3427" transform="translate(-45 -194)"><g id="social-google-hover-social-icons-copy" transform="translate(43 37)"><g id="social-google-hover-1490801653_40-google-plus" transform="translate(1.6296 157.26)"><g id="social-google-hover-Layer_1"><g id="social-google-hover-Group"><path id="social-google-hover-Shape" d="m6.6572 5.5429c-0.003 0.7211 0 1.4421 0.003 2.1631 1.2009 0.0394 2.4048 0.0212 3.6058 0.0394-0.5298 2.6816-4.1536 3.5506-6.0708 1.7996-1.9715-1.536-1.8782-4.9049 0.1715-6.3318 1.4327-1.1513 3.4703-0.8665 4.903 0.1302 0.5628-0.5241 1.0893-1.0846 1.5983-1.6663-1.192-0.95732-2.6547-1.639-4.2108-1.5663-3.2476-0.10903-6.2333 2.7539-6.2875 6.0229-0.2077 2.6721 1.538 5.2923 4.0031 6.2383 2.4559 0.951 5.6042 0.303 7.1722-1.918 1.036-1.4028 1.258-3.2084 1.138-4.905-2.011-0.0152-4.0183-0.0122-6.0258-0.0061z"/><path id="social-google-hover-Shape" d="m18.401 5.5338c-0.006-0.6029-0.009-1.2088-0.012-1.8117h-1.79c-0.006 0.6029-0.012 1.2058-0.016 1.8117-0.601 0.003-1.2 0.0061-1.799 0.0122v1.8026c0.599 0.006 1.201 0.0121 1.799 0.0181 0.007 0.603 0.007 1.2058 0.013 1.8087h1.793c0.003-0.6029 0.006-1.2057 0.012-1.8117 0.602-0.006 1.201-0.0091 1.8-0.0151v-1.8026c-0.599-0.0061-1.201-0.0061-1.8-0.0122z"/></g></g></g></g></g></g></svg><svg xmlns:xlink="http://www.w3.org/1999/xlink" height="14" width="20" version="1.1" viewBox="0 0 20 14" id="social-google" y="76"><title>1490801653_40-google-plus</title><desc>Created with Sketch.</desc><g id="social-google-Page-1" fill-rule="evenodd" fill="none"><g id="social-google-Home-Copy-2" fill="#212121" transform="translate(-1406 -453)"><g id="social-google-hero" transform="translate(9 15)"><g id="social-google-social-icons" transform="translate(1395 281)"><g id="social-google-1490801653_40-google-plus" transform="translate(1.6296 157.26)"><g id="social-google-Layer_1"><g id="social-google-Group"><path id="social-google-Shape" d="m6.6572 5.5429c-0.003 0.7211 0 1.4421 0.003 2.1631 1.2009 0.0394 2.4048 0.0212 3.6058 0.0394-0.5298 2.6816-4.1536 3.5506-6.0708 1.7996-1.9715-1.536-1.8782-4.9049 0.1715-6.3318 1.4327-1.1513 3.4703-0.8665 4.903 0.1302 0.5628-0.5241 1.0893-1.0846 1.5983-1.6663-1.192-0.95732-2.6547-1.639-4.2108-1.5663-3.2476-0.10903-6.2333 2.7539-6.2875 6.0229-0.2077 2.6721 1.538 5.2923 4.0031 6.2383 2.4559 0.951 5.6042 0.303 7.1722-1.918 1.036-1.4028 1.258-3.2084 1.138-4.905-2.011-0.0152-4.0183-0.0122-6.0258-0.0061z"/><path id="social-google-Shape" d="m18.401 5.5338c-0.006-0.6029-0.009-1.2088-0.012-1.8117h-1.79c-0.006 0.6029-0.012 1.2058-0.016 1.8117-0.601 0.003-1.2 0.0061-1.799 0.0122v1.8026c0.599 0.006 1.201 0.0121 1.799 0.0181 0.007 0.603 0.007 1.2058 0.013 1.8087h1.793c0.003-0.6029 0.006-1.2057 0.012-1.8117 0.602-0.006 1.201-0.0091 1.8-0.0151v-1.8026c-0.599-0.0061-1.201-0.0061-1.8-0.0122z"/></g></g></g></g></g></g></g></svg><svg xmlns:xlink="http://www.w3.org/1999/xlink" height="19" width="19" version="1.1" viewBox="0 0 19 19" id="social-insta-hover" y="90"><title>1490801671_Instagram_Solid</title><desc>Created with Sketch.</desc><defs><linearGradient id="social-insta-hover-linearGradient-1" y1="99.709%" x2="50%" x1="50%" y2=".77672%"><stop stop-color="#E09B3D" offset="0"/><stop stop-color="#C74C4D" offset=".3"/><stop stop-color="#C21975" offset=".6"/><stop stop-color="#7024C4" offset="1"/></linearGradient></defs><g id="social-insta-hover-Page-1" fill-rule="evenodd" fill="none"><g id="social-insta-hover-Artboard-4" fill="url(#social-insta-hover-linearGradient-1)" transform="translate(-44 -68)"><g id="social-insta-hover-social-icons-copy" transform="translate(43 37)"><g id="social-insta-hover-1490801671_Instagram_Solid" transform="translate(1.6296 31.778)"><g id="social-insta-hover-Layer_1"><g id="social-insta-hover-XMLID_138_"><path id="social-insta-hover-XMLID_142_" d="m17.423 3.0938c-0.228-0.5883-0.531-1.0866-1.028-1.585-0.496-0.4983-0.992-0.80284-1.579-1.0312-0.565-0.22152-1.22-0.37378-2.164-0.41531-0.952-0.041526-1.255-0.055369-3.6821-0.055369-2.4269 2e-7 -2.7303 0.006921-3.6818 0.05537-0.9514 0.041529-1.5995 0.19379-2.1649 0.41527-0.586 0.2284-1.0824 0.53294-1.5788 1.0312-0.4964 0.4984-0.79978 0.9967-1.0273 1.585-0.22063 0.5675-0.37231 1.225-0.41368 2.1732-0.041369 0.9552-0.055158 1.2597-0.055158 3.696 0 2.436 0.006895 2.741 0.055158 3.696 0.04137 0.955 0.19305 1.606 0.41367 2.173 0.22753 0.588 0.53091 1.087 1.0273 1.585 0.4964 0.498 0.9928 0.803 1.5788 1.031 0.5654 0.222 1.2204 0.374 2.1649 0.416 0.9515 0.041 1.2549 0.055 3.6818 0.055 2.4271 0 2.7301-0.007 3.6821-0.055 0.951-0.042 1.599-0.194 2.164-0.416 0.587-0.228 1.083-0.533 1.579-1.031 0.497-0.498 0.8-0.997 1.028-1.585 0.22-0.567 0.372-1.225 0.413-2.173 0.042-0.955 0.055-1.26 0.055-3.696 0-2.4363-0.006-2.7408-0.055-3.696-0.041-0.9551-0.193-1.6057-0.413-2.1732zm-1.193 9.4892c-0.042 0.872-0.186 1.349-0.31 1.661-0.159 0.415-0.359 0.72-0.669 1.031-0.31 0.312-0.607 0.505-1.027 0.671-0.318 0.125-0.786 0.27-1.655 0.312-0.945 0.041-1.221 0.055-3.606 0.055-2.3856 0-2.6682-0.007-3.6059-0.055-0.8687-0.042-1.3445-0.187-1.6547-0.312-0.4137-0.159-0.717-0.359-1.0273-0.671-0.3103-0.311-0.5033-0.609-0.6688-1.031-0.1241-0.319-0.2689-0.789-0.3102-1.661-0.0414-0.948-0.0552-1.232-0.0552-3.62 0-2.3879 0.0069-2.6785 0.0552-3.6198 0.0413-0.8721 0.1861-1.3497 0.3102-1.6611 0.1586-0.4153 0.3585-0.7198 0.6688-1.0313 0.3103-0.3114 0.6067-0.5052 1.0273-0.6713 0.3171-0.1246 0.786-0.27 1.6547-0.3115 0.9446-0.0415 1.2272-0.0554 3.6059-0.0554 2.379 0 2.668 0.007 3.606 0.0554 0.869 0.0415 1.344 0.1869 1.655 0.3115 0.413 0.1592 0.717 0.3599 1.027 0.6713 0.31 0.3115 0.503 0.6091 0.669 1.0313 0.124 0.3184 0.268 0.789 0.31 1.6611 0.041 0.9482 0.055 1.2319 0.055 3.6198 0 2.388-0.014 2.678-0.055 3.62z"/><path id="social-insta-hover-XMLID_145_" d="m8.963 4.3604c-2.5304 0-4.5849 2.0625-4.5849 4.6026 0 2.54 2.0545 4.603 4.5849 4.603 2.53 0 4.585-2.063 4.585-4.603 0-2.5401-2.055-4.6026-4.585-4.6026zm0 7.5926c-1.6409 0-2.9785-1.336-2.9785-2.99 0-1.6473 1.3307-2.99 2.9785-2.99 1.648 0 2.978 1.3358 2.978 2.99 0 1.647-1.337 2.99-2.978 2.99z"/><ellipse id="social-insta-hover-XMLID_143_" cy="4.1804" cx="13.727" rx="1.0687" ry="1.0728"/></g></g></g></g></g></g></svg><svg xmlns:xlink="http://www.w3.org/1999/xlink" height="19" width="19" version="1.1" viewBox="0 0 19 19" id="social-insta" y="109"><title>XMLID_138_</title><desc>Created with Sketch.</desc><g id="social-insta-Page-1" fill-rule="evenodd" fill="none"><g id="social-insta-Home-Copy-2" fill="#212121" transform="translate(-1405 -327)"><g id="social-insta-hero" transform="translate(9 15)"><g id="social-insta-social-icons" transform="translate(1395 281)"><g id="social-insta-1490801671_Instagram_Solid" transform="translate(1.6296 31.778)"><g id="social-insta-Layer_1"><g id="social-insta-XMLID_138_"><path id="social-insta-XMLID_142_" d="m17.423 3.0938c-0.228-0.5883-0.531-1.0866-1.028-1.585-0.496-0.4983-0.992-0.80284-1.579-1.0312-0.565-0.22152-1.22-0.37378-2.164-0.41531-0.952-0.041526-1.255-0.055369-3.6821-0.055369-2.4269 2e-7 -2.7303 0.006921-3.6818 0.05537-0.9514 0.041529-1.5995 0.19379-2.1649 0.41527-0.586 0.2284-1.0824 0.53294-1.5788 1.0312-0.4964 0.4984-0.79978 0.9967-1.0273 1.585-0.22063 0.5675-0.37231 1.225-0.41368 2.1732-0.041369 0.9552-0.055158 1.2597-0.055158 3.696 0 2.436 0.006895 2.741 0.055158 3.696 0.04137 0.955 0.19305 1.606 0.41367 2.173 0.22753 0.588 0.53091 1.087 1.0273 1.585 0.4964 0.498 0.9928 0.803 1.5788 1.031 0.5654 0.222 1.2204 0.374 2.1649 0.416 0.9515 0.041 1.2549 0.055 3.6818 0.055 2.4271 0 2.7301-0.007 3.6821-0.055 0.951-0.042 1.599-0.194 2.164-0.416 0.587-0.228 1.083-0.533 1.579-1.031 0.497-0.498 0.8-0.997 1.028-1.585 0.22-0.567 0.372-1.225 0.413-2.173 0.042-0.955 0.055-1.26 0.055-3.696 0-2.4363-0.006-2.7408-0.055-3.696-0.041-0.9551-0.193-1.6057-0.413-2.1732zm-1.193 9.4892c-0.042 0.872-0.186 1.349-0.31 1.661-0.159 0.415-0.359 0.72-0.669 1.031-0.31 0.312-0.607 0.505-1.027 0.671-0.318 0.125-0.786 0.27-1.655 0.312-0.945 0.041-1.221 0.055-3.606 0.055-2.3856 0-2.6682-0.007-3.6059-0.055-0.8687-0.042-1.3445-0.187-1.6547-0.312-0.4137-0.159-0.717-0.359-1.0273-0.671-0.3103-0.311-0.5033-0.609-0.6688-1.031-0.1241-0.319-0.2689-0.789-0.3102-1.661-0.0414-0.948-0.0552-1.232-0.0552-3.62 0-2.3879 0.0069-2.6785 0.0552-3.6198 0.0413-0.8721 0.1861-1.3497 0.3102-1.6611 0.1586-0.4153 0.3585-0.7198 0.6688-1.0313 0.3103-0.3114 0.6067-0.5052 1.0273-0.6713 0.3171-0.1246 0.786-0.27 1.6547-0.3115 0.9446-0.0415 1.2272-0.0554 3.6059-0.0554 2.379 0 2.668 0.007 3.606 0.0554 0.869 0.0415 1.344 0.1869 1.655 0.3115 0.413 0.1592 0.717 0.3599 1.027 0.6713 0.31 0.3115 0.503 0.6091 0.669 1.0313 0.124 0.3184 0.268 0.789 0.31 1.6611 0.041 0.9482 0.055 1.2319 0.055 3.6198 0 2.388-0.014 2.678-0.055 3.62z"/><path id="social-insta-XMLID_145_" d="m8.963 4.3604c-2.5304 0-4.5849 2.0625-4.5849 4.6026 0 2.54 2.0545 4.603 4.5849 4.603 2.53 0 4.585-2.063 4.585-4.603 0-2.5401-2.055-4.6026-4.585-4.6026zm0 7.5926c-1.6409 0-2.9785-1.336-2.9785-2.99 0-1.6473 1.3307-2.99 2.9785-2.99 1.648 0 2.978 1.3358 2.978 2.99 0 1.647-1.337 2.99-2.978 2.99z"/><ellipse id="social-insta-XMLID_143_" cy="4.1804" cx="13.727" rx="1.0687" ry="1.0728"/></g></g></g></g></g></g></g></svg><svg xmlns:xlink="http://www.w3.org/1999/xlink" height="21" width="21" version="1.1" viewBox="0 0 21 21" id="social-slideshare-hover" y="128"><title>1490801632_slideshare</title><desc>Created with Sketch.</desc><g id="social-slideshare-hover-Page-1" fill-rule="evenodd" fill="none"><g id="social-slideshare-hover-Artboard-4" fill="#007ECB" transform="translate(-43 -161)"><g id="social-slideshare-hover-social-icons-copy" transform="translate(43 37)"><g id="social-slideshare-hover-1490801632_slideshare" transform="translate(.81482 124.67)"><path id="social-slideshare-hover-Shape" d="m9.5224 8.0711c0 0.6035-0.235 1.1216-0.7051 1.5542-0.47 0.4327-1.0345 0.6487-1.6933 0.6487s-1.2233-0.216-1.6933-0.6487c-0.4701-0.4326-0.7051-0.9507-0.7051-1.5542 0-0.6108 0.235-1.1307 0.7051-1.5597 0.47-0.429 1.0345-0.6435 1.6933-0.6435s1.2233 0.2145 1.6933 0.6435c0.4701 0.429 0.7051 0.9489 0.7051 1.5597zm5.5736 0c0 0.6035-0.233 1.1216-0.699 1.5542-0.466 0.4327-1.033 0.6487-1.699 0.6487-0.659 0-1.223-0.216-1.693-0.6487-0.47-0.4326-0.705-0.9507-0.705-1.5542 0-0.6108 0.235-1.1307 0.705-1.5597s1.034-0.6435 1.693-0.6435c0.666 0 1.233 0.2145 1.699 0.6435s0.699 0.9489 0.699 1.5597zm2.499 1.9629v-7.2746c0-0.6326-0.119-1.0816-0.356-1.347-0.236-0.2654-0.647-0.3981-1.232-0.3981h-12.347c-0.6148 0-1.0312 0.1236-1.2495 0.3709-0.2184 0.2472-0.3276 0.7053-0.3276 1.3742v7.3406c0.3183 0.167 0.6459 0.312 0.9827 0.436s0.6366 0.225 0.8994 0.305 0.5626 0.148 0.8994 0.202c0.3368 0.055 0.5996 0.095 0.7884 0.12 0.1887 0.026 0.4478 0.04 0.7772 0.044 0.3294 0.003 0.5459 0.005 0.6496 0.005 0.1036 0 0.3127-0.007 0.6273-0.022 0.3146-0.014 0.4793-0.021 0.4942-0.021 0.5033-0.008 0.8549 0.09 1.0548 0.294 0.0444 0.044 0.0814 0.076 0.111 0.098 0.1925 0.182 0.4183 0.367 0.6771 0.557 0.052-0.662 0.489-0.978 1.311-0.949 0.037 0 0.172 0.005 0.405 0.016s0.392 0.018 0.477 0.022c0.085 0.003 0.254 0.007 0.505 0.011 0.252 0.003 0.448 0 0.589-0.011s0.342-0.027 0.605-0.049 0.489-0.053 0.677-0.093c0.189-0.04 0.419-0.089 0.689-0.147s0.518-0.129 0.744-0.213 0.475-0.182 0.749-0.294c0.274-0.113 0.541-0.239 0.8-0.377zm1.81-0.0542c-0.896 1.0832-2.273 1.9992-4.131 2.7482 0.622 2.073 0.537 3.763-0.255 5.072-0.489 0.822-1.166 1.36-2.032 1.614-0.77 0.233-1.444 0.178-2.021-0.163-0.637-0.371-0.94-0.967-0.911-1.789l-0.011-3.556c-0.059-0.025-0.1496-0.047-0.2718-0.076-0.1221-0.029-0.2091-0.047-0.2609-0.055l-0.0111 3.687c0.0296 0.829-0.2776 1.425-0.9216 1.789-0.5848 0.341-1.2621 0.396-2.032 0.163-0.8661-0.262-1.5397-0.807-2.0209-1.636-0.7772-1.309-0.8587-2.992-0.2443-5.05-1.858-0.749-3.2348-1.665-4.1305-2.7482-0.1851-0.2691-0.1999-0.4981-0.04445-0.6872 0.15545-0.189 0.37753-0.1854 0.66622 0.0109 0.02221 0.0146 0.06292 0.04 0.12214 0.0764 0.05922 0.0363 0.09994 0.0654 0.12219 0.0872v-7.5693c0-0.5235 0.1739-0.97072 0.5218-1.3416 0.3479-0.37078 0.7699-0.5562 1.2659-0.5562h13.957c0.496 0 0.918 0.18542 1.266 0.55625s0.522 0.81805 0.522 1.3416v7.5693l0.233-0.1636c0.289-0.1963 0.511-0.1999 0.666-0.0109 0.156 0.1891 0.141 0.4181-0.044 0.6872z"/></g></g></g></g></svg><svg xmlns:xlink="http://www.w3.org/1999/xlink" height="21" width="21" version="1.1" viewBox="0 0 21 21" id="social-slideshare" y="149"><title>1490801632_slideshare</title><desc>Created with Sketch.</desc><g id="social-slideshare-Page-1" fill-rule="evenodd" fill="none"><g id="social-slideshare-Home-Copy-2" fill="#212121" transform="translate(-1404 -420)"><g id="social-slideshare-hero" transform="translate(9 15)"><g id="social-slideshare-social-icons" transform="translate(1395 281)"><g id="social-slideshare-1490801632_slideshare" transform="translate(.81482 124.67)"><path id="social-slideshare-Shape" d="m9.5224 8.0711c0 0.6035-0.235 1.1216-0.7051 1.5542-0.47 0.4327-1.0345 0.6487-1.6933 0.6487s-1.2233-0.216-1.6933-0.6487c-0.4701-0.4326-0.7051-0.9507-0.7051-1.5542 0-0.6108 0.235-1.1307 0.7051-1.5597 0.47-0.429 1.0345-0.6435 1.6933-0.6435s1.2233 0.2145 1.6933 0.6435c0.4701 0.429 0.7051 0.9489 0.7051 1.5597zm5.5736 0c0 0.6035-0.233 1.1216-0.699 1.5542-0.466 0.4327-1.033 0.6487-1.699 0.6487-0.659 0-1.223-0.216-1.693-0.6487-0.47-0.4326-0.705-0.9507-0.705-1.5542 0-0.6108 0.235-1.1307 0.705-1.5597s1.034-0.6435 1.693-0.6435c0.666 0 1.233 0.2145 1.699 0.6435s0.699 0.9489 0.699 1.5597zm2.499 1.9629v-7.2746c0-0.6326-0.119-1.0816-0.356-1.347-0.236-0.2654-0.647-0.3981-1.232-0.3981h-12.347c-0.6148 0-1.0312 0.1236-1.2495 0.3709-0.2184 0.2472-0.3276 0.7053-0.3276 1.3742v7.3406c0.3183 0.167 0.6459 0.312 0.9827 0.436s0.6366 0.225 0.8994 0.305 0.5626 0.148 0.8994 0.202c0.3368 0.055 0.5996 0.095 0.7884 0.12 0.1887 0.026 0.4478 0.04 0.7772 0.044 0.3294 0.003 0.5459 0.005 0.6496 0.005 0.1036 0 0.3127-0.007 0.6273-0.022 0.3146-0.014 0.4793-0.021 0.4942-0.021 0.5033-0.008 0.8549 0.09 1.0548 0.294 0.0444 0.044 0.0814 0.076 0.111 0.098 0.1925 0.182 0.4183 0.367 0.6771 0.557 0.052-0.662 0.489-0.978 1.311-0.949 0.037 0 0.172 0.005 0.405 0.016s0.392 0.018 0.477 0.022c0.085 0.003 0.254 0.007 0.505 0.011 0.252 0.003 0.448 0 0.589-0.011s0.342-0.027 0.605-0.049 0.489-0.053 0.677-0.093c0.189-0.04 0.419-0.089 0.689-0.147s0.518-0.129 0.744-0.213 0.475-0.182 0.749-0.294c0.274-0.113 0.541-0.239 0.8-0.377zm1.81-0.0542c-0.896 1.0832-2.273 1.9992-4.131 2.7482 0.622 2.073 0.537 3.763-0.255 5.072-0.489 0.822-1.166 1.36-2.032 1.614-0.77 0.233-1.444 0.178-2.021-0.163-0.637-0.371-0.94-0.967-0.911-1.789l-0.011-3.556v-0.011c-0.059-0.014-0.1496-0.036-0.2718-0.065-0.1221-0.029-0.2091-0.047-0.2609-0.055l-0.0111 3.687c0.0296 0.829-0.2776 1.425-0.9216 1.789-0.5848 0.341-1.2621 0.396-2.032 0.163-0.8661-0.262-1.5397-0.807-2.0209-1.636-0.7772-1.309-0.8587-2.992-0.2443-5.05-1.858-0.749-3.2348-1.665-4.1305-2.7482-0.1851-0.2691-0.1999-0.4981-0.04445-0.6872 0.15545-0.189 0.37753-0.1854 0.66622 0.0109 0.02221 0.0146 0.06292 0.04 0.12214 0.0764 0.05922 0.0363 0.09994 0.0654 0.12219 0.0872v-7.5693c0-0.5235 0.1739-0.97072 0.5218-1.3416 0.3479-0.37078 0.7699-0.5562 1.2659-0.5562h13.957c0.496 0 0.918 0.18542 1.266 0.55625s0.522 0.81805 0.522 1.3416v7.5693l0.233-0.1636c0.289-0.1963 0.511-0.1999 0.666-0.0109 0.156 0.1891 0.141 0.4181-0.044 0.6872z"/></g></g></g></g></g></svg><svg xmlns:xlink="http://www.w3.org/1999/xlink" viewBox="0 0 17 12" width="17" height="12" id="social-yt-hover" y="170"><defs><polygon id="social-yt-hover-social-youtube-hover-a" points="0.006 11.904 0.006 0.004 16.896 0.004 16.896 11.904"/></defs><g fill-rule="evenodd"><mask id="social-yt-hover-social-youtube-hover-b" fill="#fff"><use xlink:href="#social-yt-hover-social-youtube-hover-a"/></mask><path mask="url(#social-yt-hover-social-youtube-hover-b)" d="m16.543 1.8588c-0.194-0.7317-0.767-1.3079-1.494-1.5034-1.317-0.3554-6.601-0.3554-6.601-0.3554s-5.2836 0-6.6012 0.35539c-0.7269 0.19555-1.2994 0.77171-1.4937 1.5034-0.3531 1.3262-0.3531 4.0932-0.3531 4.0932s0 2.7669 0.35309 4.093c0.1943 0.732 0.76681 1.308 1.4937 1.504 1.3176 0.355 6.6012 0.355 6.6012 0.355s5.284 0 6.601-0.355c0.727-0.196 1.3-0.772 1.494-1.504 0.353-1.3261 0.353-4.093 0.353-4.093s0-2.767-0.353-4.0932" fill="#F00000"/><polyline points="6.72 8.464 11.136 5.952 6.72 3.44 6.72 8.464" fill="#FFFFFE"/></g></svg><svg xmlns:xlink="http://www.w3.org/1999/xlink" viewBox="0 0 17 12" width="17" height="12" id="social-yt" y="182"><defs><polygon id="social-yt-social-youtube-a" points="0.006 11.904 0.006 0.004 16.896 0.004 16.896 11.904"/></defs><g fill-rule="evenodd"><mask id="social-yt-social-youtube-b" fill="#fff"><use xlink:href="#social-yt-social-youtube-a"/></mask><path mask="url(#social-yt-social-youtube-b)" d="m16.543 1.8588c-0.194-0.7317-0.767-1.3079-1.494-1.5034-1.317-0.3554-6.601-0.3554-6.601-0.3554s-5.2836 0-6.6012 0.35539c-0.7269 0.19555-1.2994 0.77171-1.4937 1.5034-0.3531 1.3262-0.3531 4.0932-0.3531 4.0932s0 2.7669 0.35309 4.093c0.1943 0.732 0.76681 1.308 1.4937 1.504 1.3176 0.355 6.6012 0.355 6.6012 0.355s5.284 0 6.601-0.355c0.727-0.196 1.3-0.772 1.494-1.504 0.353-1.3261 0.353-4.093 0.353-4.093s0-2.767-0.353-4.0932" fill="#282828"/><polyline points="6.72 8.464 11.136 5.952 6.72 3.44 6.72 8.464" fill="#FFFFFE"/></g></svg></svg>