<?xml version="1.0" encoding="UTF-8"?>
<!-- Generator: Adobe Illustrator 17.0.0, SVG Export Plug-In . SVG Version: 6.00 Build 0)  -->
<!DOCTYPE svg PUBLIC "-//W3C//DTD SVG 1.1//EN" "http://www.w3.org/Graphics/SVG/1.1/DTD/svg11.dtd">
<svg version="1.1" id="Layer_1" xmlns="http://www.w3.org/2000/svg" xmlns:xlink="http://www.w3.org/1999/xlink" x="0px" y="0px" width="1080px" height="1080px" viewBox="0 0 1080 1080" enable-background="new 0 0 1080 1080" xml:space="preserve"><script xmlns="" type="text/javascript" charset="utf-8" id="zm-extension"/>
<path d="M246.603,488.801c6.765,28.536,14.166,62.211,20.102,87.462c2.208,9.397,4.212,11.494,1.497,18.238l8.349,2.923  c6.298-4.234,12.399-6.826,16.191-9.871c1.181-0.959,1.515-0.873,2.585-1.77c0.679-0.571,4.349-2.765,4.884-3.178  c1.634-1.26,0.923-5.379-0.607-12.126c-8.324-36.695-16.238-70.19-24.748-108.092L246.603,488.801z"/>
<path d="M209.653,523.352c6.589,27.948,13.713,60.326,19.462,84.794c2.212,9.397,4.216,11.494,1.501,18.227l8.349,2.93  c6.298-4.23,12.399-6.826,16.191-9.878c1.181-0.955,1.515-0.865,2.585-1.763c0.679-0.567,4.349-2.768,4.887-3.181  c1.63-1.257,0.919-5.372-0.61-12.119c-8.122-35.826-15.864-68.6-24.141-105.398L209.653,523.352z"/>
<path d="M136.037,417.911c-27.617,25.556-52.674,49.162-81.239,75.48l37,11.257c21.33-20.119,46.796-43.37,65.698-61.134  c7.031-6.614,7.85-9.397,15.038-10.417l-1.637-8.693c-6.812-3.336-12.116-7.322-16.647-9.081c-1.418-0.546-1.512-0.88-2.822-1.357  c-0.833-0.305-4.571-2.381-5.2-2.639c-0.223-0.09-0.46-0.137-0.715-0.137C143.549,411.189,140.519,413.76,136.037,417.911"/>
<path d="M182.435,434.522c-26.96,24.949-51.471,48.038-79.203,73.605l36.968,11.247c20.906-19.678,45.388-42.038,63.698-59.249  c7.031-6.614,7.846-9.397,15.038-10.417l-1.637-8.694c-6.812-3.339-12.116-7.322-16.647-9.085c-1.422-0.542-1.512-0.876-2.822-1.354  c-0.833-0.305-4.575-2.384-5.2-2.639c-0.223-0.09-0.46-0.136-0.715-0.136C189.95,427.8,186.92,430.371,182.435,434.522"/>
<path stroke="#FFFFFF" stroke-width="3.5908" stroke-miterlimit="10" d="M157.974,445.578l21.247,91.315l33.319,10.144  l-23.351-101.115c-6.047-26.195-11.67-23.164-43.298-34.745C151.672,418.456,154.968,432.644,157.974,445.578"/>
<path stroke="#FFFFFF" stroke-width="3.5908" stroke-miterlimit="10" d="M204.561,462.258l20.626,88.629l33.316,10.144  l-22.73-98.425c-6.047-26.195-11.667-23.165-43.298-34.745C198.256,435.14,201.552,449.331,204.561,462.258"/>
<path d="M73.808,604.003c0.517,7.57-0.284,14.152,0.46,18.96c0.237,1.505-0.007,1.745,0.237,3.12  c0.154,0.873,0.223,5.156,0.312,5.821c0.273,2.047,4.194,3.487,10.801,5.537c35.941,11.139,68.912,21.035,105.987,32.616  l-8.755-37.675c-28.091-8.413-60.962-18.841-85.789-26.324c-9.246-2.79-12.065-2.104-16.543-7.821L73.808,604.003z"/>
<path d="M64.996,555.516c0.514,7.566-0.287,14.151,0.456,18.952c0.237,1.505-0.004,1.752,0.233,3.131  c0.158,0.872,0.226,5.146,0.316,5.821c0.269,2.04,4.194,3.483,10.801,5.533c35.086,10.873,67.339,20.554,103.348,31.79  l-8.744-37.643c-27.495-8.263-59.102-18.284-83.16-25.534c-9.246-2.783-12.062-2.101-16.547-7.817L64.996,555.516z"/>
<path stroke="#FFFFFF" stroke-width="3.5908" stroke-miterlimit="10" d="M83.299,577.405c-19.663,18.331-14.223,21.682-8.435,54.865  c3.404-8.643,14.047-18.59,23.743-27.66l68.459-64.061l-7.871-33.926L83.299,577.405z"/>
<path stroke="#FFFFFF" stroke-width="3.5908" stroke-miterlimit="10" d="M74.454,528.717c-19.663,18.331-14.227,21.685-8.442,54.868  c3.411-8.643,14.055-18.593,23.75-27.667l66.445-62.176l-7.878-33.923L74.454,528.717z"/>
<path stroke="#FFFFFF" stroke-width="3.5908" stroke-miterlimit="10" d="M149.524,572.17l99.244,30.335  c25.71,7.864,25.894,1.479,51.737-20.123c-9.189,1.368-23.125-2.869-35.829-6.733l-89.707-27.258L149.524,572.17z"/>
<path stroke="#FFFFFF" stroke-width="3.5908" stroke-miterlimit="10" d="M114.42,604.979l96.608,29.535  c25.714,7.857,25.897,1.472,51.737-20.13c-9.189,1.368-23.129-2.876-35.829-6.729l-87.071-26.457L114.42,604.979z"/>
<path d="M532.506,518.3c5.074-5.232,11.261-7.85,18.536-7.85c5.426,0,10.083,1.436,13.947,4.338c3.86,2.905,6.6,6.384,8.234,10.496  c1.594,4.115,2.485,8.841,2.611,14.137h-51.877C524.563,530.548,527.432,523.532,532.506,518.3 M519.36,513.097  c-8.295,9.254-12.41,21.376-12.41,36.4c0,14.712,3.989,26.615,11.965,35.679c7.979,9.06,18.41,13.588,31.301,13.588  c9.792,0,18.281-2.611,25.52-7.875c7.218-5.271,12.097-11.932,14.582-19.979l-13.656-2.805  c-4.912,12.406-13.398,18.601-25.427,18.601c-6.668,0-12.988-2.488-18.985-7.465c-5.968-4.977-8.966-14.615-8.966-28.874h68.632  c-0.19-17.039-4.05-29.804-11.552-38.354c-7.526-8.517-17.452-12.794-29.765-12.794C538.058,499.218,527.659,503.843,519.36,513.097   M632.149,518.3c5.074-5.232,11.261-7.85,18.536-7.85c5.429,0,10.087,1.436,13.947,4.338c3.857,2.905,6.604,6.384,8.23,10.496  c1.598,4.115,2.492,8.841,2.618,14.137h-51.877C624.206,530.548,627.075,523.532,632.149,518.3 M619.002,513.097  c-8.291,9.254-12.41,21.376-12.41,36.4c0,14.712,3.993,26.615,11.965,35.679c7.979,9.06,18.407,13.588,31.298,13.588  c9.796,0,18.288-2.611,25.527-7.875c7.21-5.271,12.094-11.932,14.582-19.979l-13.656-2.805  c-4.919,12.406-13.398,18.601-25.43,18.601c-6.668,0-12.984-2.488-18.985-7.465c-5.964-4.977-8.966-14.615-8.966-28.874h68.632  c-0.194-17.039-4.051-29.804-11.548-38.354c-7.534-8.517-17.452-12.794-29.772-12.794  C637.7,499.218,627.301,503.843,619.002,513.097 M901.627,518.3c5.077-5.232,11.268-7.85,18.536-7.85  c5.429,0,10.083,1.436,13.947,4.338c3.86,2.905,6.604,6.384,8.234,10.496c1.594,4.115,2.485,8.841,2.61,14.137h-51.873  C893.684,530.548,896.553,523.532,901.627,518.3 M888.485,513.097c-8.295,9.254-12.414,21.376-12.414,36.4  c0,14.712,3.99,26.615,11.968,35.679c7.975,9.06,18.41,13.588,31.301,13.588c9.792,0,18.277-2.611,25.517-7.875  c7.218-5.271,12.098-11.932,14.586-19.979l-13.656-2.805c-4.909,12.406-13.401,18.601-25.43,18.601  c-6.668,0-12.988-2.488-18.985-7.465c-5.964-4.977-8.966-14.615-8.966-28.874h68.632c-0.187-17.039-4.05-29.804-11.552-38.354  c-7.526-8.517-17.451-12.794-29.765-12.794C907.182,499.218,896.776,503.843,888.485,513.097 M461.321,478.097l-0.668,23.735  h-16.719v11.491h16.719v56.85c0,19.053,9.16,28.59,27.409,28.59c3.796,0,8.291-0.352,13.462-1.02v-11.577  c-4.241,0.664-8.04,1.016-11.419,1.016c-10.083,0-15.125-4.884-15.125-14.582v-59.278h21.121v-11.491h-21.121v-25.046  L461.321,478.097z M984.773,478.097l-0.664,23.735h-16.726v11.491h16.726v56.85c0,19.053,9.157,28.59,27.405,28.59  c3.792,0,8.295-0.352,13.466-1.02v-11.577c-4.244,0.664-8.04,1.016-11.422,1.016c-10.083,0-15.121-4.884-15.121-14.582v-59.278  h21.118v-11.491h-21.118v-25.046L984.773,478.097z M713.603,596.25h14.683V468.653h-14.683V596.25z M840.274,468.653v85.889  c0,2.682,0.065,5.771,0.194,9.254l0.19,8.902L778.95,468.653h-20.005V596.25h12.891v-94.798c0-2.169-0.097-4.851-0.291-8.04  l-0.158-8.392l65.982,111.23h15.509V468.653H840.274z M355.427,475.515c-8.04,6.345-12.062,14.834-12.062,25.491  c0,6.41,1.469,12.126,4.374,17.103c2.934,4.977,6.51,8.676,10.719,11.071c4.212,2.392,9.602,4.435,16.209,6.122l25.524,6.352  c5.106,1.242,9.606,3.508,13.498,6.826c3.893,3.286,5.839,7.659,5.839,13.085c0,7.178-2.553,12.891-7.656,17.164  c-5.106,4.244-12.701,6.377-22.816,6.377c-19.301,0-31.872-8.676-37.646-26.062l-14.392,3.282  c8.456,24.281,25.908,36.436,52.329,36.436c14.898,0,26.447-3.67,34.645-10.977c8.173-7.336,12.284-16.489,12.284-27.531  c0-18.252-10.909-29.994-32.734-35.226l-23.832-5.709c-13.818-3.318-20.741-9.67-20.741-19.082c0-6.729,2.715-11.929,8.169-15.602  c5.458-3.666,11.677-5.519,18.665-5.519c7.052,0,13.688,1.918,19.908,5.742c6.223,3.831,10.176,9.508,11.871,16.974l14.485-4.305  c-7.275-20.992-22.525-31.488-45.722-31.488C373.773,466.039,363.467,469.195,355.427,475.515"/>
</svg>