<?xml version="1.0" encoding="UTF-8"?>
<svg width="33px" height="33px" viewBox="0 0 33 33" version="1.1" xmlns="http://www.w3.org/2000/svg" xmlns:xlink="http://www.w3.org/1999/xlink"><script xmlns="" type="text/javascript" charset="utf-8" id="zm-extension"/>
    <!-- Generator: Sketch 43.1 (39012) - http://www.bohemiancoding.com/sketch -->
    <title>Group</title>
    <desc>Created with Sketch.</desc>
    <defs/>
    <g id="Page-1" stroke="none" stroke-width="1" fill="none" fill-rule="evenodd">
        <g id="Home-Copy" transform="translate(-149.000000, -487.000000)">
            <g id="hero" transform="translate(-113.000000, -404.000000)">
                <g id="Group-8">
                    <g id="cocaine">
                        <g id="Group-11" transform="translate(163.000000, 497.000000)">
                            <g id="Group-8-Copy">
                                <g id="Group-7" transform="translate(97.000000, 202.000000)">
                                    <g id="watch-video-copy" transform="translate(2.000000, 192.000000)">
                                        <g id="Group">
                                            <circle id="Oval" fill="#FFFFFF" opacity="0.900000036" cx="16.5" cy="16.5" r="16.5"/>
                                            <path d="M16.3999996,14.8371987 L9.88582574,8.32302482 C9.45924074,7.89643983 8.75708376,7.89397265 8.3255282,8.3255282 C7.89096392,8.76009249 7.89285185,9.45565276 8.32302482,9.88582574 L14.8371987,16.3999996 L8.32302482,22.9141735 C7.89643983,23.3407585 7.89397265,24.0429155 8.3255282,24.474471 C8.76009249,24.9090353 9.45565276,24.9071474 9.88582574,24.4769744 L16.3999996,17.9628005 L22.9141735,24.4769744 C23.3407585,24.9035594 24.0429155,24.9060266 24.474471,24.474471 C24.9090353,24.0399067 24.9071474,23.3443465 24.4769744,22.9141735 L17.9628005,16.3999996 L24.4769744,9.88582574 C24.9035594,9.45924074 24.9060266,8.75708376 24.474471,8.3255282 C24.0399067,7.89096392 23.3443465,7.89285185 22.9141735,8.32302482 L16.3999996,14.8371987 Z" id="Combined-Shape" fill="#212121"/>
                                        </g>
                                    </g>
                                </g>
                            </g>
                        </g>
                    </g>
                </g>
            </g>
        </g>
    </g>
</svg>