<?xml version="1.0" encoding="UTF-8"?>
<!-- Generator: Adobe Illustrator 17.0.0, SVG Export Plug-In . SVG Version: 6.00 Build 0)  -->
<!DOCTYPE svg PUBLIC "-//W3C//DTD SVG 1.1//EN" "http://www.w3.org/Graphics/SVG/1.1/DTD/svg11.dtd">
<svg version="1.1" id="Capa_1" xmlns="http://www.w3.org/2000/svg" xmlns:xlink="http://www.w3.org/1999/xlink" x="0px" y="0px" width="551.391px" height="551.391px" viewBox="0 0 551.391 551.391" enable-background="new 0 0 551.391 551.391" xml:space="preserve"><script xmlns="" type="text/javascript" charset="utf-8" id="zm-extension"/>
<g>
	<g>
		<g>
			<polygon fill="#FBBA00" points="481.234,211.057 449.812,296.898 375.888,296.898 360.561,340.491 99.614,340.491      114.94,296.898 86.742,296.898 118.349,211.057    "/>
		</g>
		<g>
			<polygon fill="#FBBA00" points="464.649,211.057 433.227,296.898 359.303,296.898 343.977,340.491 83.029,340.491      98.355,296.898 70.157,296.898 101.764,211.057    "/>
		</g>
	</g>
	<g>
		<polygon fill="#002337" points="472.941,210.9 441.52,296.74 367.595,296.74 352.269,340.334 91.321,340.334 106.648,296.74     78.45,296.74 110.056,210.9   "/>
	</g>
	<g>
		<g>
			<path fill="#FBBA00" d="M118.686,266.182l5.946-7.12c4.116,3.397,8.429,5.553,13.656,5.553c4.118,0,6.599-1.634,6.599-4.444     c0-2.548-1.567-3.855-9.213-5.816c-9.213-2.352-15.158-4.9-15.158-14.112c0-8.299,6.665-13.785,16.008-13.785     c6.665,0,12.35,2.089,16.99,5.813l-5.228,7.582c-4.05-2.81-8.037-4.509-11.892-4.509c-3.855,0-5.88,1.763-5.88,4.115     c0,3.006,1.96,3.986,9.866,6.011c9.277,2.419,14.505,5.752,14.505,13.853c0,9.081-6.926,14.179-16.793,14.179     C131.165,273.501,124.175,271.082,118.686,266.182z"/>
			<path fill="#FBBA00" d="M190.179,255.794c-3.071,1.503-7.449,3.397-12.089,3.397c-9.081,0-15.354-4.768-15.354-15.352v-16.727     h10.062v13.785c0,5.685,2.222,8.886,7.383,8.886c4.052,0,7.907-1.307,9.998-2.939v-19.733h10.062v45.737h-10.062V255.794z"/>
			<path fill="#FBBA00" d="M226.912,226.784h9.278l19.601,46.063h-10.519l-4.182-10.257H221.75l-4.182,10.257h-10.257     L226.912,226.784z M237.498,253.704l-6.077-14.833l-6.077,14.833H237.498z"/>
			<path fill="#FBBA00" d="M258.222,249.978c0-13,9.802-23.652,23.85-23.652c8.625,0,13.46,3.265,17.706,7.447l-6.011,6.928     c-3.528-3.201-6.534-5.098-11.76-5.098c-7.71,0-13.265,6.406-13.265,14.375c0,7.841,5.423,14.375,13.265,14.375     c5.226,0,8.429-2.089,12.023-5.358l6.402,6.861c-4.704,5.031-9.932,7.777-18.752,7.777     C268.219,273.632,258.222,263.244,258.222,249.978z"/>
			<path fill="#FBBA00" d="M319.132,236.388h-13.917v-9.277h37.897v9.277h-13.918v36.46h-10.062V236.388z"/>
			<path fill="#FBBA00" d="M350.833,227.111h10.062v15.551h9.735c10.586,0,16.727,5.88,16.727,14.83     c0,9.408-6.664,15.355-17.379,15.355h-19.145V227.111z M360.894,251.285v12.481h8.952c4.965,0,7.514-2.157,7.514-6.405     c0-3.855-2.549-6.076-7.58-6.076H360.894z"/>
			<path fill="#FBBA00" d="M395.078,227.111h37.627l-3.128,8.95h-24.503v9.28h18.435l-3.128,8.95h-15.307v9.604h24.829l-3.128,8.953     h-31.698V227.111z"/>
		</g>
		<g>
			<path fill="#FBBA00" d="M118.686,289.585h2.934l13.862,32.58l13.912-32.58h2.783l-15.582,35.669h-2.328L118.686,289.585z"/>
			<path fill="#FBBA00" d="M160.009,289.585h2.63V325h-2.63V289.585z"/>
			<path fill="#FBBA00" d="M173.513,289.585h2.63v32.987h20.794V325h-23.424V289.585z"/>
			<path fill="#FBBA00" d="M204.821,289.585h2.632v32.987h20.793V325h-23.424V289.585z"/>
			<path fill="#FBBA00" d="M249.585,289.331h2.529L268.607,325h-2.884l-4.503-9.915h-20.895L235.824,325h-2.731L249.585,289.331z      M260.108,312.705l-9.309-20.487l-9.359,20.487H260.108z"/>
			<path fill="#FBBA00" d="M272.494,307.292c0-9.561,6.931-18.312,17.504-18.312c5.769,0,9.411,1.72,12.952,4.652l-1.72,1.973     c-2.783-2.428-6.021-4.249-11.383-4.249c-8.6,0-14.621,7.285-14.621,15.936c0,9.158,5.717,15.988,15.177,15.988     c4.502,0,8.703-1.872,11.282-4.047v-10.169h-11.838v-2.428h14.369v13.66c-3.187,2.832-8.147,5.312-13.914,5.312     C279.123,325.608,272.494,317.36,272.494,307.292z"/>
			<path fill="#FBBA00" d="M313.716,289.585h25.194l-3.128,2.428h-19.436v13.914h20.289l-3.128,2.428h-17.161v14.216h22.818     L336.036,325h-22.32V289.585z"/>
		</g>
	</g>
</g>
</svg>