<?xml version="1.0" encoding="UTF-8" standalone="no"?>
<svg width="418px" height="203px" viewBox="0 0 418 203" version="1.1" xmlns="http://www.w3.org/2000/svg" xmlns:xlink="http://www.w3.org/1999/xlink"><script xmlns="" type="text/javascript" charset="utf-8" id="zm-extension"/>
    <!-- Generator: Sketch 43.1 (39012) - http://www.bohemiancoding.com/sketch -->
    <title>АГЕНТ СТВО</title>
    <desc>Created with Sketch.</desc>
    <defs/>
    <g id="Page-1" stroke="none" stroke-width="1" fill="none" fill-rule="evenodd">
        <g id="Home-fold-#3-–-menu" transform="translate(-148.000000, -170.000000)" fill="#FFD931">
            <g id="fixed-elements" transform="translate(0.000000, 93.000000)">
                <path d="M209.3,77 L183.56,77 L151.84,168 L173.94,168 L179.79,149.28 L212.94,149.28 L218.92,168 L241.02,168 L209.3,77 Z M196.43,96.5 L207.87,132.9 L184.99,132.9 L196.43,96.5 Z M252.98,168 L273.65,168 L273.65,94.03 L314.73,94.03 L314.73,77 L252.98,77 L252.98,168 Z M326.69,168 L388.7,168 L388.7,151.49 L347.36,151.49 L347.36,129.52 L382.98,129.52 L382.98,113.01 L347.36,113.01 L347.36,93.51 L387.53,93.51 L387.53,77 L326.69,77 L326.69,168 Z M403.65,168 L424.32,168 L424.32,128.61 L459.29,128.61 L459.29,168 L479.96,168 L479.96,77 L459.29,77 L459.29,111.58 L424.32,111.58 L424.32,77 L403.65,77 L403.65,168 Z M518.18,168 L538.85,168 L538.85,94.03 L565.11,94.03 L565.11,77 L491.92,77 L491.92,94.03 L518.18,94.03 L518.18,168 Z M148.83,232.5 C148.83,260.97 166.64,279.56 193.16,279.56 C210.32,279.56 224.23,271.76 231.77,258.5 L214.61,250.05 C209.8,257.98 202.91,262.27 193.94,262.27 C180.42,262.27 169.76,252 169.76,232.5 C169.76,213 180.42,202.73 193.94,202.73 C202.91,202.73 209.8,207.02 214.61,214.95 L231.77,206.5 C224.23,193.24 210.32,185.44 193.16,185.44 C166.64,185.44 148.83,204.03 148.83,232.5 Z M264.14,278 L284.81,278 L284.81,204.03 L311.07,204.03 L311.07,187 L237.88,187 L237.88,204.03 L264.14,204.03 L264.14,278 Z M323.03,278 L359.04,278 C383.61,278 393.88,267.08 393.88,251.22 C393.88,240.69 387.51,232.63 376.46,230.16 C384.91,227.56 389.33,220.15 389.33,211.83 C389.33,197.01 378.8,187 356.96,187 L323.03,187 L323.03,278 Z M373.08,250.57 C373.08,258.37 368.01,262.27 357.35,262.27 L343.44,262.27 L343.44,238.87 L357.35,238.87 C368.01,238.87 373.08,242.9 373.08,250.57 Z M369.7,213 C369.7,219.89 364.89,223.66 355.66,223.66 L343.44,223.66 L343.44,202.73 L355.66,202.73 C364.89,202.73 369.7,205.85 369.7,213 Z M490.08,232.5 C490.08,205.72 473.96,185.44 447.05,185.44 C420.14,185.44 404.02,205.72 404.02,232.5 C404.02,259.28 420.14,279.56 447.05,279.56 C473.96,279.56 490.08,259.28 490.08,232.5 Z M424.95,232.5 C424.95,214.17 433.53,202.73 447.05,202.73 C460.57,202.73 469.15,214.17 469.15,232.5 C469.15,250.83 460.57,262.27 447.05,262.27 C433.53,262.27 424.95,250.83 424.95,232.5 Z" id="АГЕНТ-СТВО"/>
            </g>
        </g>
    </g>
</svg>