<?xml version="1.0" encoding="UTF-8" standalone="no"?>
<svg xmlns:dc="http://purl.org/dc/elements/1.1/" xmlns:cc="http://creativecommons.org/ns#" xmlns:rdf="http://www.w3.org/1999/02/22-rdf-syntax-ns#" xmlns:svg="http://www.w3.org/2000/svg" xmlns="http://www.w3.org/2000/svg" viewBox="0 0 3937.3333 2362.6667" height="2362.6667" width="3937.3333" xml:space="preserve" id="svg2" version="1.1"><script xmlns="" type="text/javascript" charset="utf-8" id="zm-extension"/><metadata id="metadata8"><rdf:RDF><cc:Work rdf:about=""><dc:format>image/svg+xml</dc:format><dc:type rdf:resource="http://purl.org/dc/dcmitype/StillImage"/></cc:Work></rdf:RDF></metadata><defs id="defs6"/><g transform="matrix(1.3333333,0,0,-1.3333333,0,2362.6667)" id="g10"><g transform="scale(0.201295)" id="g12"><path id="path14" style="fill:#353e6e;fill-opacity:1;fill-rule:nonzero;stroke:none" d="m 6012.41,5045.97 c 61.01,50.67 134.14,89.32 213.07,101.55 111.14,17.73 229.82,-6.07 322.02,-71.69 111.43,-77.65 178.34,-208.2 194.29,-341.39 7.9,-72.53 4.37,-145.65 5.17,-218.48 -0.55,-143.53 1.14,-287.1 -0.85,-430.57 -83.26,0.5 -166.47,0.1 -249.73,0.2 -0.1,189.82 -0.05,379.59 -0.05,569.37 0.1,42.47 -8.24,85.64 -29.66,122.65 -43.12,74.07 -125.09,127.33 -212.37,124.75 -94.59,3.12 -185.05,-57.78 -222.51,-143.77 -13.61,-30.91 -19.82,-64.89 -19.42,-98.62 0.15,-191.41 0.04,-382.87 0.04,-574.28 -83.45,-0.15 -166.96,-0.15 -250.42,0 -0.1,345.91 -0.05,691.77 0,1037.68 83.46,0.1 166.97,0.1 250.47,0 -0.05,-25.78 -0.05,-51.57 -0.05,-77.4 m 1458.46,22.01 c 87.63,58.62 193.65,87.34 298.72,85.1 111.67,0.15 221.11,-41.13 308.7,-109.59 -0.1,27.42 -0.1,54.8 0.05,82.22 83.26,0.05 166.52,-0.1 249.78,0.1 0.25,-485.21 0.15,-970.42 0.05,-1455.63 -83.26,0.05 -166.57,-0.1 -249.83,0.05 -0.2,290.13 -0.05,580.2 -0.1,870.32 -0.35,47.93 2.93,96.97 -10.34,143.66 -23.1,90.02 -93.79,164.14 -179.44,198.17 -76.05,29.41 -164.58,26.73 -238.25,-8.49 -83.16,-41.14 -147.94,-121.46 -163.34,-213.82 -17.14,-92.55 10.28,-193.1 77.74,-259.82 80.23,-89.77 217.99,-114.21 328.18,-70.94 29.66,-74.36 59.36,-148.68 89.57,-222.75 -91.66,-45.06 -196.93,-55.15 -297.43,-43.52 -99.75,12.72 -194.93,56.63 -270.3,123 -129.81,114.07 -195.53,292.46 -180.97,463.6 10.13,165.53 97.52,327.03 237.21,418.34 m 2192.8,-166.07 c 78.24,132.84 218.93,226.93 372.23,246.1 95.7,12.77 196.3,2.69 284.3,-38.7 38.7,-17.68 75.7,-39.24 109,-65.87 0,27.42 -0.1,54.79 0,82.22 83.4,0.15 166.9,0.05 250.3,0.05 0,-346.71 0,-693.41 0,-1040.12 -83.5,0.05 -166.9,-0.05 -250.3,0.1 -0.1,176.41 0.2,352.87 -0.2,529.33 -1.2,77.99 -35.8,154.15 -93.3,206.71 -74.5,74.16 -190.5,98.36 -290.2,68.25 -80.68,-23.59 -149.54,-83.35 -185.3,-159.27 -41.73,-91.45 -35.57,-205.37 21.76,-288.92 33.93,-48.24 79.43,-90.37 135.14,-111.63 71.9,-28.17 154.7,-29.21 226.6,-0.75 29.6,-74.61 60.9,-148.63 89.1,-223.75 -93.3,-45.6 -200.4,-54.54 -302.4,-41.83 -144.86,19.87 -278.35,106.46 -356.89,229.62 -117.3,179.28 -120.67,425.39 -9.84,608.46 m 1588.03,240.94 c 95.6,20.76 198.7,10.43 287.1,-32.19 108.9,-51.32 189.7,-151.72 228,-264.69 21.1,-61.26 31.1,-126.24 30,-191.01 -0.1,-189.78 0.1,-379.55 0,-569.32 -83.5,-0.05 -166.9,-0.05 -250.3,0 -0.1,196.28 0.2,392.61 -0.1,588.89 -1.7,89.82 -63.5,170 -142.9,207.41 -81,35.86 -182.7,24.99 -251.1,-32.49 -55.6,-44.12 -89.7,-113.42 -89.5,-184.56 -0.2,-193.05 -0.1,-386.15 -0.1,-579.2 -83.3,-0.15 -166.5,-0.1 -249.7,-0.05 -0.1,345.91 0,691.82 -0.1,1037.73 83.3,0.1 166.5,0.15 249.8,0 -0.1,-25.68 -0.1,-51.37 0,-77.1 55.4,44.61 119,80.98 188.9,96.58 m -6596.55,-19.48 c 83.17,0.1 166.38,0.1 249.59,0 0.15,-194.24 -0.35,-388.53 0.24,-582.82 0.7,-87.24 56.74,-167.77 132.45,-208.21 83.21,-42.67 192.25,-32.58 263.74,28.82 52.01,42.32 86.04,106.96 87.38,174.42 0.15,195.93 0,391.86 0.06,587.79 83.5,0.1 166.96,0.15 250.47,0 0,-345.91 0,-691.77 0,-1037.68 -83.51,-0.15 -166.97,-0.1 -250.43,-0.05 -0.1,25.84 -0.04,51.62 0,77.4 -64.53,-53.5 -142.62,-93.89 -226.73,-103.33 -102.44,-12.62 -210.09,7.95 -296.68,65.38 -113.66,72.33 -184.5,199.61 -203.73,331.2 -8.54,52.61 -5.81,106.01 -6.36,159.07 0,169.35 0.1,338.71 0,508.01 m 2213.57,0 c 83.51,0.1 167.07,0.25 250.63,-0.1 0.04,-345.81 -0.15,-691.62 0.15,-1037.43 -83.61,-0.5 -167.17,-0.15 -250.73,-0.15 -0.1,345.91 0,691.77 -0.05,1037.68 m 1540.72,-0.05 c 91.71,0.3 183.46,0 275.22,0.15 114.86,-246.85 228.47,-494.35 343.97,-740.9 114.11,247.2 228.62,494.25 343.58,741.05 91.61,-0.49 183.21,0.1 274.87,-0.3 -160.51,-345.96 -320.72,-692.07 -481.63,-1037.87 -91.56,0.44 -183.17,-0.11 -274.72,0.29 -160.46,345.86 -320.98,691.67 -481.29,1037.58"/><path id="path16" style="fill:#80babc;fill-opacity:1;fill-rule:nonzero;stroke:none" d="m 3474,5116.71 c 342.29,0.15 684.52,0 1026.8,0.06 -0.05,-342.73 -0.05,-685.41 0,-1028.15 -415.55,0 -831.07,0 -1246.57,-0.05 0,19.93 -0.05,39.8 0.09,59.62 106.77,-0.35 213.57,-0.55 320.33,0.1 -0.2,27.87 -0.15,55.69 -0.05,83.51 -41.43,0 -82.86,0 -124.29,0 0,27.97 0.19,55.88 -0.1,83.8 64.28,0.2 128.56,0 192.9,0.1 -0.2,27.92 -0.2,55.84 -0.05,83.71 -196.83,0 -393.6,0.2 -590.43,-0.1 -0.1,27.97 -0.05,55.94 0,83.86 242.98,0 485.96,-0.45 728.93,0.15 -0.35,27.82 -0.15,55.69 -0.15,83.51 -146.8,0.3 -293.64,-0.6 -440.5,0.44 0.9,28.17 0.3,56.29 0.4,84.46 82.07,0 164.14,0.05 246.21,-0.05 0,27.92 -0.05,55.84 0.05,83.75 -227.93,-0.04 -455.85,0 -683.77,-0.14 -0.05,28.07 0,56.08 -0.05,84.1 265.68,0 531.36,-0.05 797.09,-0.2 -0.16,27.92 -0.16,55.84 -0.05,83.71 -83.16,-0.15 -166.33,0 -249.49,-0.1 0,28.02 0.05,56.04 -0.05,84.06 53.06,-0.1 106.11,-0.1 159.22,-0.06 -0.2,28.67 -0.15,57.34 -0.05,85.95 -45.51,0 -90.96,0 -136.42,-0.05 0.1,14.71 0.1,29.36 0,44.01 m -380.09,-129.75 c 97.47,0 194.89,-0.2 292.31,-0.16 -0.1,-27.91 -0.05,-55.88 0,-83.8 -97.47,-0.3 -194.89,-0.2 -292.31,-0.25 0,28.07 0,56.14 0,84.21 m 36.91,-335.33 c 48.39,0.19 96.78,0.1 145.16,0.1 -0.14,-27.92 -0.09,-55.84 -0.04,-83.81 -48.44,0.15 -96.83,-0.35 -145.26,0.3 0.45,27.82 0.2,55.64 0.14,83.41 m 125.79,-420.03 c -0.74,27.32 -0.15,54.69 -0.3,82.02 42.87,-0.05 85.8,0.04 128.72,-0.05 -0.15,-27.28 -0.1,-54.5 -0.05,-81.77 -42.77,-0.15 -85.6,0.24 -128.37,-0.2"/></g></g></svg>