<?xml version="1.0" encoding="UTF-8"?>
<!-- Generator: Adobe Illustrator 17.0.0, SVG Export Plug-In . SVG Version: 6.00 Build 0)  -->
<!DOCTYPE svg PUBLIC "-//W3C//DTD SVG 1.1//EN" "http://www.w3.org/Graphics/SVG/1.1/DTD/svg11.dtd">
<svg version="1.1" id="Layer_1" xmlns="http://www.w3.org/2000/svg" xmlns:xlink="http://www.w3.org/1999/xlink" x="0px" y="0px" width="1190.551px" height="314.286px" viewBox="0 0 1190.551 314.286" enable-background="new 0 0 1190.551 314.286" xml:space="preserve"><script xmlns="" type="text/javascript" charset="utf-8" id="zm-extension"/>
<g>
	<path fill="#DB1A15" d="M1075.953,123.603v18.215l-9.999,9.999l-15.556,15.556l15.556,15.556l9.999,9.999v18.216h-18.216   l-9.999-9.999l-15.557-15.556l-15.555,15.557l-9.999,9.999H988.41V192.93l10-9.999l15.557-15.557l-15.557-15.557l-10-9.999v-18.215   h18.216l9.999,9.999l15.555,15.556l15.557-15.556l9.999-9.999H1075.953 M1097.952,101.603h-49.328l-16.443,16.442l-16.442-16.442   h-49.329v49.328l16.443,16.443l-16.443,16.443v49.328h49.329l16.442-16.443l16.443,16.443h49.328v-49.328l-16.442-16.443   l16.442-16.443V101.603L1097.952,101.603z"/>
	<polygon fill="#DB1A15" points="161.725,233.145 227.496,233.145 227.496,101.603 95.954,101.603 95.954,167.374  "/>
	<polygon fill="#DB1A15" points="303.267,101.603 369.038,101.603 369.038,233.145 237.496,233.145 237.496,167.374  "/>
	<polygon fill="#DB1A15" points="667.124,101.603 732.895,101.603 732.895,233.145 601.353,233.145 601.353,167.374  "/>
	<polygon fill="#DB1A15" points="379.039,101.603 379.039,101.603 379.039,233.145 510.58,233.145  "/>
	<polygon fill="#DB1A15" points="743.071,233.145 743.071,233.145 743.071,101.603 808.842,101.603 874.613,167.374    874.607,233.145 874.613,233.145  "/>
	<polygon fill="#DB1A15" points="525.581,233.145 591.352,167.374 591.352,101.603 459.811,101.603 459.811,167.374  "/>
	<rect x="884.613" y="101.603" fill="#DB1A15" width="70.596" height="131.542"/>
</g>
</svg>