<?xml version="1.0" encoding="UTF-8"?>
<!-- Generator: Adobe Illustrator 17.0.0, SVG Export Plug-In . SVG Version: 6.00 Build 0)  -->
<!DOCTYPE svg PUBLIC "-//W3C//DTD SVG 1.1//EN" "http://www.w3.org/Graphics/SVG/1.1/DTD/svg11.dtd">
<svg version="1.1" xmlns="http://www.w3.org/2000/svg" xmlns:xlink="http://www.w3.org/1999/xlink" x="0px" y="0px" width="255.12px" height="255.12px" viewBox="0 0 255.12 255.12" enable-background="new 0 0 255.12 255.12" xml:space="preserve"><script xmlns="" type="text/javascript" charset="utf-8" id="zm-extension"/>
<g>
	<path fill="#414042" d="M65.588,147.585h-4.04c-0.044,0-0.087,0.015-0.121,0.042l-9.646,8.349v-8.195   c0-0.108-0.088-0.196-0.196-0.196h-4.146c-0.108,0-0.196,0.088-0.196,0.196v14.048c0,0.108,0.088,0.196,0.196,0.196h4.018   c0.044,0,0.086-0.015,0.121-0.042l9.669-8.35v8.195c0,0.108,0.088,0.196,0.196,0.196h4.146c0.108,0,0.196-0.088,0.196-0.196   v-14.048C65.784,147.673,65.696,147.585,65.588,147.585z"/>
	<path fill="#414042" d="M42.573,153.331c0.407-0.38,0.735-0.82,0.978-1.311c0.294-0.588,0.443-1.217,0.443-1.867   c0.025-1.267-0.471-2.364-1.472-3.259c-0.979-0.89-2.176-1.342-3.558-1.342H25.576c-0.111,0-0.202,0.091-0.202,0.202v16.057   c0,0.111,0.09,0.202,0.202,0.202h14.289c1.421,0,2.641-0.455,3.629-1.354c1-0.919,1.507-2.042,1.507-3.337   c0-0.873-0.248-1.687-0.737-2.421C43.832,154.252,43.263,153.725,42.573,153.331z M38.617,151.687   c-0.3,0.273-0.651,0.405-1.072,0.405h-7.383v-2.726h7.383c0.419,0,0.766,0.132,1.067,0.41c0.31,0.257,0.451,0.567,0.431,0.969   C39.063,151.114,38.925,151.421,38.617,151.687z M30.162,155.484h8.509c0.411,0,0.75,0.128,1.034,0.392   c0.288,0.267,0.428,0.583,0.428,0.965c0,0.383-0.14,0.699-0.428,0.965c-0.292,0.272-0.642,0.403-1.07,0.403h-8.473V155.484z"/>
	<path fill="#414042" d="M79.768,152.808c-0.799-0.436-1.707-0.657-2.698-0.657h-4.525v-0.745h7.959   c0.112,0,0.202-0.091,0.202-0.202v-3.41c0-0.111-0.09-0.202-0.202-0.202H68.252c-0.111,0-0.202,0.091-0.202,0.202v14.018   c0,0.111,0.09,0.202,0.202,0.202h8.817c0.002,0,0.003,0,0.005,0c0.988-0.024,1.893-0.245,2.689-0.655   c0.85-0.438,1.516-1.039,1.977-1.782c0.488-0.764,0.731-1.606,0.723-2.5c0-0.903-0.248-1.741-0.733-2.485   C81.268,153.837,80.606,153.236,79.768,152.808z M78.005,157.08c0.006,0.333-0.106,0.601-0.342,0.819   c-0.245,0.217-0.554,0.323-0.944,0.323h-4.173v-2.28h4.173c0.403,0,0.711,0.105,0.944,0.324   C77.899,156.476,78.011,156.74,78.005,157.08z"/>
	<path fill="#414042" d="M97.519,149.073c-1.088-0.983-2.411-1.481-3.932-1.481H84.91c-0.111,0-0.202,0.091-0.202,0.202v14.018   c0,0.111,0.09,0.202,0.202,0.202h4.126c0.111,0,0.202-0.091,0.202-0.202v-4.064h4.349c1.529,0,2.853-0.495,3.934-1.471   c1.085-0.996,1.636-2.206,1.636-3.595C99.156,151.276,98.606,150.062,97.519,149.073z M94.674,152.681   c0,0.375-0.128,0.675-0.383,0.911c-0.269,0.221-0.628,0.343-1.056,0.364h-3.997v-2.55h4.037c0.417,0,0.747,0.117,1.012,0.361   C94.547,151.993,94.674,152.293,94.674,152.681z"/>
	<path fill="#414042" d="M115.265,148.864c-0.925-0.844-2.063-1.272-3.382-1.272h-5.688c-1.311,0-2.449,0.428-3.382,1.271   c-0.939,0.849-1.414,1.893-1.414,3.103v5.685c0,1.202,0.472,2.243,1.403,3.092c0.94,0.842,2.082,1.27,3.393,1.27h5.688   c1.312,0,2.446-0.424,3.371-1.26c0.938-0.857,1.414-1.901,1.414-3.102v-5.681C116.691,150.757,116.219,149.711,115.265,148.864z    M112.126,152.61v4.388c0.006,0.326-0.118,0.602-0.372,0.836c-0.273,0.225-0.595,0.344-0.974,0.365h-3.485   c-0.382-0.021-0.701-0.14-0.965-0.357c-0.264-0.243-0.392-0.521-0.392-0.848v-4.388c-0.007-0.339,0.116-0.614,0.38-0.844   c0.261-0.24,0.565-0.357,0.93-0.357h3.566c0.364,0,0.664,0.116,0.922,0.361C111.999,151.994,112.126,152.27,112.126,152.61z"/>
	<path fill="#414042" d="M140.824,147.592h-4.102c-0.111,0-0.202,0.091-0.202,0.202v10.405h-4.309v-10.405   c0-0.111-0.091-0.202-0.202-0.202h-4.102c-0.111,0-0.202,0.091-0.202,0.202v10.405h-4.287v-10.405c0-0.111-0.09-0.202-0.202-0.202   h-4.102c-0.112,0-0.202,0.091-0.202,0.202v14.018c0,0.111,0.09,0.202,0.202,0.202h21.71c0.111,0,0.202-0.091,0.202-0.202v-14.018   C141.025,147.682,140.935,147.592,140.824,147.592z"/>
	<path fill="#414042" d="M156.766,147.592h-13.294c-0.111,0-0.202,0.091-0.202,0.202v3.41c0,0.111,0.091,0.202,0.202,0.202h4.383   v10.405c0,0.111,0.091,0.202,0.202,0.202h4.125c0.111,0,0.202-0.091,0.202-0.202v-10.405h4.383c0.111,0,0.202-0.091,0.202-0.202   v-3.41C156.968,147.682,156.877,147.592,156.766,147.592z"/>
	<path fill="#414042" d="M173.079,148.864c-0.925-0.844-2.063-1.272-3.383-1.272h-5.688c-1.31,0-2.448,0.428-3.382,1.271   c-0.938,0.849-1.414,1.893-1.414,3.103v5.685c0,1.202,0.471,2.242,1.403,3.092c0.94,0.843,2.082,1.27,3.393,1.27h5.688   c1.312,0,2.446-0.424,3.372-1.26c0.938-0.857,1.413-1.9,1.413-3.102v-5.681C174.506,150.758,174.034,149.711,173.079,148.864z    M169.94,152.61v4.388c0.007,0.325-0.117,0.601-0.372,0.836c-0.273,0.225-0.594,0.344-0.973,0.365h-3.484   c-0.382-0.021-0.701-0.14-0.965-0.357c-0.264-0.244-0.392-0.522-0.392-0.848v-4.388c-0.007-0.339,0.117-0.613,0.381-0.844   c0.26-0.24,0.564-0.357,0.93-0.357h3.565c0.365,0,0.664,0.116,0.923,0.361C169.813,151.993,169.94,152.27,169.94,152.61z"/>
	<path fill="#414042" d="M189.533,149.073c-1.088-0.983-2.411-1.481-3.933-1.481h-8.676c-0.111,0-0.202,0.091-0.202,0.202v14.018   c0,0.111,0.091,0.202,0.202,0.202h4.125c0.111,0,0.202-0.091,0.202-0.202v-4.064h4.349c1.529,0,2.853-0.495,3.934-1.471   c1.086-0.996,1.636-2.206,1.636-3.595C191.17,151.276,190.619,150.062,189.533,149.073z M181.252,151.406h4.037   c0.417,0,0.747,0.117,1.012,0.361c0.261,0.227,0.388,0.526,0.388,0.914c0,0.375-0.128,0.675-0.383,0.911   c-0.269,0.221-0.628,0.343-1.056,0.364h-3.997V151.406z"/>
	<path fill="#414042" d="M210.801,147.592h-4.196c-0.078,0-0.15,0.046-0.183,0.117l-4.214,9.021l-4.225-9.022   c-0.033-0.071-0.105-0.116-0.183-0.116h-4.184c-0.111,0-0.202,0.091-0.202,0.202v14.018c0,0.111,0.091,0.202,0.202,0.202h4.137   c0.111,0,0.202-0.091,0.202-0.202v-5.075l2.359,5.157c0.033,0.072,0.105,0.117,0.184,0.117h3.422c0.079,0,0.151-0.046,0.184-0.117   l2.359-5.157v5.075c0,0.111,0.091,0.202,0.202,0.202h4.137c0.111,0,0.202-0.091,0.202-0.202v-14.018   C211.002,147.682,210.912,147.592,210.801,147.592z"/>
	<path fill="#414042" d="M229.544,152.55h-3.614h-1.131v-1.131v-3.614c0-0.111-0.091-0.202-0.202-0.202h-4.125   c-0.111,0-0.202,0.091-0.202,0.202v3.614v1.131h-1.131h-3.614c-0.111,0-0.202,0.091-0.202,0.202v4.125   c0,0.111,0.091,0.202,0.202,0.202h3.614h1.131v1.132v3.614c0,0.111,0.091,0.202,0.202,0.202h4.125c0.111,0,0.202-0.091,0.202-0.202   v-3.614v-1.132h1.131h3.614c0.111,0,0.202-0.091,0.202-0.202v-4.125C229.745,152.64,229.655,152.55,229.544,152.55z"/>
	<g>
		<g>
			<path fill="#808285" d="M110.255,102.124l-3.287,1.837c-0.064,0.035-0.103,0.102-0.103,0.176v4.795     c0,0.065,0.031,0.125,0.083,0.163c0.035,0.025,0.076,0.039,0.119,0.039c0.021,0,0.042-0.003,0.062-0.01l3.287-1.068     c0.083-0.027,0.14-0.104,0.14-0.191v-5.564c0-0.072-0.038-0.138-0.1-0.174C110.394,102.09,110.317,102.088,110.255,102.124z"/>
			<path fill="#808285" d="M116.271,98.761l-4.986,2.787c-0.064,0.036-0.103,0.102-0.103,0.176v5.805     c0,0.065,0.031,0.125,0.083,0.163c0.035,0.025,0.076,0.039,0.119,0.039c0.021,0,0.042-0.003,0.062-0.01l4.986-1.62     c0.083-0.027,0.14-0.104,0.14-0.192v-6.972c0-0.072-0.038-0.138-0.1-0.174C116.41,98.727,116.334,98.725,116.271,98.761z"/>
			<path fill="#808285" d="M126.564,93.122c-0.062-0.035-0.138-0.037-0.201-0.002l-8.457,4.726     c-0.064,0.035-0.103,0.102-0.103,0.176v7.354c0,0.065,0.031,0.125,0.083,0.163c0.035,0.025,0.076,0.039,0.119,0.039     c0.021,0,0.042-0.003,0.062-0.01l8.457-2.748c0.083-0.027,0.139-0.104,0.139-0.191v-9.333     C126.664,93.224,126.626,93.158,126.564,93.122z"/>
			<path fill="#808285" d="M110.302,109.105l-3.287,0.87c-0.089,0.023-0.15,0.103-0.15,0.195v4.794c0,0.054,0.022,0.107,0.061,0.145     c0.037,0.036,0.088,0.057,0.14,0.057c0.002,0,0.004,0,0.006,0l3.287-0.1c0.109-0.003,0.195-0.093,0.195-0.202v-5.564     c0-0.062-0.029-0.121-0.079-0.16C110.426,109.101,110.361,109.087,110.302,109.105z"/>
			<path fill="#808285" d="M116.318,107.514l-4.986,1.318c-0.089,0.023-0.15,0.103-0.15,0.195v5.805     c0,0.054,0.022,0.107,0.061,0.145c0.037,0.036,0.088,0.057,0.14,0.057c0.002,0,0.004,0,0.006,0l4.986-0.152     c0.109-0.003,0.195-0.093,0.195-0.202v-6.971c0-0.062-0.029-0.121-0.079-0.16C116.443,107.51,116.377,107.496,116.318,107.514z"/>
			<path fill="#808285" d="M126.41,104.844l-8.457,2.237c-0.089,0.023-0.15,0.103-0.15,0.195v7.354c0,0.054,0.022,0.107,0.061,0.145     c0.037,0.036,0.088,0.057,0.14,0.057c0.002,0,0.004,0,0.006,0l8.457-0.258c0.109-0.003,0.195-0.093,0.195-0.202v-9.333     c0-0.062-0.029-0.121-0.079-0.16C126.535,104.84,126.47,104.827,126.41,104.844z"/>
			<path fill="#808285" d="M110.359,116.106l-3.287-0.099c-0.059-0.002-0.108,0.019-0.147,0.057     c-0.039,0.038-0.061,0.091-0.061,0.145v4.794c0,0.091,0.062,0.172,0.15,0.195l3.287,0.868c0.017,0.004,0.034,0.006,0.052,0.006     c0.044,0,0.087-0.014,0.123-0.042c0.05-0.039,0.079-0.098,0.079-0.16v-5.563C110.555,116.199,110.468,116.109,110.359,116.106z"/>
			<path fill="#808285" d="M116.375,116.287l-4.986-0.15c-0.058-0.001-0.108,0.019-0.147,0.057s-0.061,0.091-0.061,0.145v5.805     c0,0.091,0.062,0.172,0.15,0.195l4.986,1.318c0.017,0.004,0.034,0.006,0.052,0.006c0.044,0,0.087-0.014,0.123-0.042     c0.05-0.039,0.079-0.098,0.079-0.16v-6.972C116.571,116.38,116.485,116.29,116.375,116.287z"/>
			<path fill="#808285" d="M126.468,116.592l-8.457-0.255c-0.058-0.006-0.108,0.019-0.147,0.057     c-0.039,0.038-0.061,0.091-0.061,0.145v7.354c0,0.091,0.062,0.172,0.15,0.195l8.457,2.235c0.017,0.005,0.034,0.007,0.052,0.007     c0.044,0,0.087-0.014,0.123-0.042c0.05-0.039,0.079-0.098,0.079-0.16v-9.334C126.664,116.685,126.577,116.595,126.468,116.592z"/>
			<path fill="#808285" d="M110.415,123.124l-3.287-1.068c-0.061-0.02-0.129-0.009-0.181,0.028     c-0.052,0.038-0.083,0.098-0.083,0.163v4.794c0,0.073,0.039,0.14,0.103,0.176l3.287,1.838c0.031,0.017,0.065,0.026,0.098,0.026     c0.035,0,0.071-0.009,0.102-0.028c0.062-0.036,0.1-0.102,0.1-0.174v-5.564C110.555,123.228,110.499,123.151,110.415,123.124z"/>
			<path fill="#808285" d="M116.432,125.079l-4.986-1.62c-0.062-0.021-0.128-0.009-0.181,0.028     c-0.052,0.038-0.083,0.098-0.083,0.163v5.805c0,0.073,0.039,0.14,0.103,0.176l4.986,2.786c0.031,0.017,0.065,0.026,0.098,0.026     c0.035,0,0.071-0.009,0.102-0.028c0.062-0.036,0.1-0.102,0.1-0.174v-6.971C116.571,125.183,116.515,125.106,116.432,125.079z"/>
			<path fill="#808285" d="M126.524,128.358l-8.457-2.748c-0.062-0.022-0.128-0.01-0.181,0.028     c-0.052,0.038-0.083,0.099-0.083,0.163v7.354c0,0.073,0.039,0.14,0.103,0.176l8.457,4.727c0.031,0.017,0.065,0.026,0.098,0.026     c0.035,0,0.071-0.009,0.102-0.028c0.062-0.036,0.1-0.102,0.1-0.174v-9.334C126.664,128.462,126.607,128.384,126.524,128.358z"/>
		</g>
		<g>
			<path fill="#00654A" d="M148.152,103.961l-3.287-1.837c-0.063-0.035-0.139-0.034-0.201,0.002     c-0.061,0.036-0.099,0.102-0.099,0.174v5.564c0,0.087,0.056,0.165,0.139,0.191l3.287,1.068c0.02,0.007,0.041,0.01,0.062,0.01     c0.042,0,0.084-0.013,0.118-0.039c0.053-0.038,0.083-0.099,0.083-0.163v-4.795C148.256,104.063,148.216,103.996,148.152,103.961z     "/>
			<path fill="#00654A" d="M143.836,101.548l-4.986-2.787c-0.062-0.035-0.139-0.034-0.201,0.002     c-0.061,0.036-0.099,0.102-0.099,0.174v6.972c0,0.087,0.056,0.165,0.139,0.192l4.986,1.62c0.02,0.007,0.041,0.01,0.062,0.01     c0.042,0,0.084-0.013,0.118-0.039c0.053-0.038,0.083-0.099,0.083-0.163v-5.805C143.939,101.65,143.9,101.583,143.836,101.548z"/>
			<path fill="#00654A" d="M137.214,97.847l-8.457-4.726c-0.063-0.035-0.139-0.033-0.201,0.002     c-0.061,0.036-0.099,0.102-0.099,0.174v9.333c0,0.087,0.056,0.165,0.139,0.191l8.457,2.748c0.02,0.007,0.041,0.01,0.062,0.01     c0.042,0,0.084-0.013,0.118-0.039c0.053-0.038,0.084-0.098,0.084-0.163v-7.354C137.317,97.949,137.277,97.882,137.214,97.847z"/>
			<path fill="#00654A" d="M148.106,109.975l-3.287-0.87c-0.062-0.017-0.126-0.004-0.175,0.035c-0.05,0.039-0.079,0.098-0.079,0.16     v5.564c0,0.109,0.087,0.199,0.195,0.202l3.287,0.1c0.002,0,0.004,0,0.006,0c0.052,0,0.102-0.02,0.14-0.057     c0.039-0.038,0.061-0.091,0.061-0.145v-4.794C148.256,110.078,148.194,109.997,148.106,109.975z"/>
			<path fill="#00654A" d="M143.789,108.832l-4.986-1.318c-0.059-0.017-0.124-0.004-0.174,0.035c-0.05,0.039-0.079,0.098-0.079,0.16     v6.971c0,0.109,0.087,0.199,0.195,0.202l4.986,0.152c0.002,0,0.004,0,0.006,0c0.052,0,0.102-0.02,0.14-0.057     c0.039-0.038,0.061-0.091,0.061-0.145v-5.805C143.939,108.935,143.878,108.855,143.789,108.832z"/>
			<path fill="#00654A" d="M137.166,107.081l-8.457-2.237c-0.059-0.016-0.125-0.004-0.174,0.035c-0.05,0.039-0.079,0.098-0.079,0.16     v9.333c0,0.109,0.087,0.199,0.195,0.202l8.457,0.258c0.002,0,0.004,0,0.006,0c0.052,0,0.102-0.02,0.14-0.057     c0.039-0.038,0.061-0.091,0.061-0.145v-7.354C137.317,107.184,137.255,107.104,137.166,107.081z"/>
			<path fill="#00654A" d="M148.048,116.007l-3.287,0.099c-0.109,0.003-0.195,0.093-0.195,0.202v5.563     c0,0.062,0.029,0.121,0.079,0.16c0.035,0.028,0.079,0.042,0.123,0.042c0.017,0,0.035-0.002,0.051-0.006l3.287-0.868     c0.089-0.024,0.15-0.104,0.15-0.195v-4.794c0-0.054-0.022-0.107-0.061-0.145C148.155,116.026,148.104,116.003,148.048,116.007z"/>
			<path fill="#00654A" d="M143.731,116.137l-4.986,0.15c-0.109,0.003-0.195,0.093-0.195,0.202v6.972     c0,0.062,0.029,0.121,0.079,0.16c0.035,0.028,0.079,0.042,0.123,0.042c0.017,0,0.035-0.002,0.051-0.006l4.986-1.318     c0.089-0.024,0.15-0.104,0.15-0.195v-5.805c0-0.054-0.022-0.107-0.061-0.145S143.781,116.139,143.731,116.137z"/>
			<path fill="#00654A" d="M137.109,116.337l-8.457,0.255c-0.109,0.003-0.195,0.093-0.195,0.202v9.334     c0,0.062,0.029,0.121,0.079,0.16c0.036,0.028,0.079,0.042,0.123,0.042c0.017,0,0.035-0.002,0.051-0.007l8.457-2.235     c0.089-0.023,0.15-0.103,0.15-0.195v-7.354c0-0.054-0.022-0.107-0.061-0.145C137.216,116.356,137.165,116.338,137.109,116.337z"/>
			<path fill="#00654A" d="M147.992,122.056l-3.287,1.068c-0.083,0.027-0.139,0.104-0.139,0.191v5.564     c0,0.072,0.038,0.138,0.099,0.174c0.031,0.018,0.067,0.028,0.102,0.028c0.034,0,0.068-0.009,0.098-0.026l3.287-1.838     c0.064-0.035,0.103-0.102,0.103-0.176v-4.794c0-0.065-0.031-0.125-0.083-0.163C148.12,122.046,148.052,122.035,147.992,122.056z"/>
			<path fill="#00654A" d="M143.675,123.459l-4.986,1.62c-0.083,0.027-0.139,0.104-0.139,0.191v6.971     c0,0.072,0.038,0.138,0.099,0.174c0.031,0.018,0.067,0.028,0.102,0.028c0.034,0,0.068-0.009,0.098-0.026l4.986-2.786     c0.064-0.035,0.103-0.102,0.103-0.176v-5.805c0-0.065-0.031-0.125-0.083-0.163C143.803,123.448,143.735,123.437,143.675,123.459z     "/>
			<path fill="#00654A" d="M137.053,125.61l-8.457,2.748c-0.083,0.027-0.139,0.104-0.139,0.191v9.334     c0,0.072,0.038,0.138,0.099,0.174c0.032,0.018,0.067,0.028,0.102,0.028c0.034,0,0.068-0.009,0.099-0.026l8.457-4.727     c0.064-0.036,0.103-0.102,0.103-0.176v-7.354c0-0.065-0.031-0.125-0.084-0.163C137.18,125.6,137.113,125.588,137.053,125.61z"/>
		</g>
	</g>
</g>
</svg>