<?xml version="1.0" encoding="UTF-8"?>
<!-- Generator: Adobe Illustrator 17.0.0, SVG Export Plug-In . SVG Version: 6.00 Build 0)  -->
<!DOCTYPE svg PUBLIC "-//W3C//DTD SVG 1.1//EN" "http://www.w3.org/Graphics/SVG/1.1/DTD/svg11.dtd">
<svg version="1.1" id="Layer_1" xmlns="http://www.w3.org/2000/svg" xmlns:xlink="http://www.w3.org/1999/xlink" x="0px" y="0px" width="1000px" height="1000px" viewBox="0 0 1000 1000" enable-background="new 0 0 1000 1000" xml:space="preserve"><script xmlns="" type="text/javascript" charset="utf-8" id="zm-extension"/>
<g>
	<g>
		<path fill="#008ACC" d="M413.401,661.829c2.058,0,3.921,0.695,5.673,2.114c1.724,1.418,2.614,3.198,2.67,5.367    c0.028,2.141-0.779,3.977-2.475,5.479c-1.696,1.502-3.643,2.253-5.868,2.253h-55.316c-2.141,0-4.338-0.195-6.619-0.528    c-2.253-0.362-4.227-1.168-5.868-2.392c-1.641-1.224-2.503-3.004-2.586-5.34c-0.083-2.336,0.362-4.366,1.335-6.035    c0.973-1.669,2.392-3.476,4.255-5.423l45.749-47.974c0.695-0.695,1.224-1.363,1.585-1.975c0.362-0.612,0.473-1.085,0.334-1.391    c-0.139-0.306-0.306-0.556-0.528-0.723c-0.223-0.195-1.613-0.278-4.199-0.278h-41.605c-1.335,0-2.892-0.556-4.672-1.641    c-1.78-1.112-2.67-3.031-2.67-5.757c0-2.725,0.779-4.811,2.336-6.285c1.557-1.446,3.226-2.169,5.006-2.169h56.79    c3.754,0,6.786,0.389,9.15,1.196c2.336,0.779,3.977,1.863,4.867,3.226c0.89,1.363,1.279,2.92,1.196,4.7    c-0.083,1.669-0.473,3.115-1.14,4.283c-0.667,1.196-1.919,2.809-3.81,4.839l-45.582,49.948c-1.502,1.696-2.364,2.753-2.531,3.17    c-0.195,0.445-0.083,0.751,0.25,0.946c0.111,0.083,0.445,0.139,1.085,0.139l2.253,0.25H413.401z"/>
		<path fill="#008ACC" d="M446.221,639.756v16.13c0,1.585,0.195,2.698,0.612,3.31c0.389,0.612,0.946,1.057,1.641,1.307    c0.723,0.278,1.836,0.389,3.337,0.389h48.808c1.585,0,3.254,0.584,5.006,1.724c1.724,1.14,2.781,3.059,3.115,5.701    c0.362,2.642-0.445,4.644-2.447,6.007s-3.893,2.058-5.673,2.058h-54.787c-1.975,0-4.255-0.278-6.869-0.807    c-2.642-0.528-4.728-1.669-6.341-3.421c-1.585-1.78-2.559-3.56-2.865-5.367c-0.306-1.808-0.473-4.338-0.473-7.592v-53.814    c0-2.725,0.222-5.089,0.667-7.12c0.445-2.03,1.418-3.699,2.865-5.034c1.474-1.335,3.309-2.336,5.534-3.031    c2.225-0.723,4.617-1.057,7.203-1.057h53.591c1.78,0,3.504,0.64,5.201,1.975c1.696,1.307,2.559,3.337,2.614,6.091    c0.028,2.725-0.918,4.617-2.865,5.673c-1.975,1.057-3.615,1.585-4.95,1.585h-47.334c-2.114,0-3.476,0.25-4.06,0.723    c-0.584,0.501-0.973,1.001-1.196,1.53c-0.222,0.528-0.334,1.585-0.334,3.17v14.545h32.4c1.696,0,3.476,0.528,5.34,1.641    c1.863,1.112,2.809,3.031,2.865,5.757c0.028,2.725-0.862,4.728-2.753,6.007c-1.863,1.279-3.671,1.919-5.451,1.919H446.221z"/>
		<path fill="#008ACC" d="M565.165,651.784l14.267-46.805c1.251-4.116,2.586-7.12,4.005-8.983c1.418-1.836,3.337-3.393,5.785-4.7    c2.447-1.251,5.062-1.891,7.815-1.891c2.92,0.083,5.618,0.89,8.065,2.42c2.447,1.557,4.311,3.727,5.646,6.48    c1.335,2.781,2.002,6.285,2.002,10.513v60.155c0,1.947-0.667,3.643-2.002,5.145c-1.335,1.502-3.004,2.281-5.062,2.308    c-2.03,0.056-3.893-0.64-5.534-2.03c-1.641-1.418-2.447-3.226-2.447-5.423v-61.323c0-1.418-0.111-2.308-0.334-2.67    c-0.222-0.334-0.556-0.528-0.946-0.584s-0.779,0.25-1.14,0.862l-0.389,1.307l-18.661,60.683c-0.89,2.725-2.114,4.922-3.671,6.536    c-1.557,1.641-3.727,2.531-6.536,2.642c-2.809,0.139-5.145-0.528-7.064-1.975s-3.365-3.727-4.338-6.814l-20.135-60.405    c-0.528-1.391-0.973-2.197-1.307-2.364c-0.362-0.195-0.695-0.278-0.946-0.278c-0.528,0.195-0.862,0.473-1.001,0.862    c-0.139,0.389-0.195,1.029-0.195,1.919v62.518c0,1.502-0.64,3.004-1.947,4.505c-1.279,1.502-3.254,2.253-5.868,2.308    c-2.614,0.056-4.45-0.779-5.451-2.447c-1.029-1.669-1.53-3.115-1.53-4.366v-60.933c0-3.782,0.473-6.953,1.446-9.456    c0.973-2.503,2.586-4.7,4.811-6.536c2.225-1.863,4.978-3.004,8.26-3.448c3.198-0.334,6.174,0.195,8.927,1.585    c2.753,1.418,4.922,3.337,6.48,5.757c1.557,2.42,2.809,5.062,3.782,7.87L565.165,651.784z"/>
		<path fill="#008ACC" d="M641.444,597.325v70.973c0,2.03-0.834,3.949-2.475,5.757s-3.921,2.67-6.869,2.586    c-3.087,0-5.423-0.946-6.981-2.837c-1.557-1.919-2.336-3.727-2.336-5.507v-70.973c0-2.114,0.918-3.949,2.725-5.479    c1.836-1.557,4.005-2.336,6.536-2.392c2.531-0.028,4.728,0.751,6.591,2.392C640.498,593.459,641.444,595.295,641.444,597.325"/>
		<path fill="#008ACC" d="M725.991,641.605c3.282-0.083,5.701,0.695,7.259,2.392c1.557,1.669,2.42,3.365,2.531,5.062    c0.139,1.724-0.667,4.144-2.447,7.231c-3.31,5.534-6.647,9.873-10.068,13.015c-3.421,3.115-7.759,5.423-13.015,6.869    c-5.228,1.446-10.624,2.141-16.13,2.058c-6.396,0-11.653-0.751-15.796-2.197c-4.116-1.446-7.843-3.393-11.124-5.812    s-6.257-5.312-8.927-8.649c-2.67-3.365-4.672-7.398-6.007-12.098c-1.335-4.728-2.002-9.122-2.002-13.238    c0-4.088,0.306-7.898,0.946-11.43c0.89-4.478,2.447-8.788,4.728-12.932c2.253-4.144,5.451-8.009,9.595-11.569    c4.144-3.588,8.705-6.285,13.739-8.149c5.006-1.836,10.234-2.837,15.657-3.031c5.59-0.083,10.346,0.528,14.267,1.863    c3.921,1.307,8.009,3.254,12.32,5.812s7.425,5.117,9.344,7.731c1.919,2.586,2.892,4.95,2.92,7.064    c0.056,2.114-0.918,4.088-2.92,5.896c-2.002,1.808-4.144,2.559-6.48,2.308c-1.863-0.195-3.727-1.14-5.59-2.92l-5.201-5.534    c-1.696-1.585-4.338-3.254-7.926-4.978c-3.588-1.696-7.704-2.475-12.348-2.308c-5.952,0.362-10.791,2.169-14.517,5.423    s-6.508,6.953-8.343,11.041c-1.808,4.088-2.753,8.788-2.781,14.072c-0.056,5.284,0.806,9.928,2.586,13.878    c1.863,4.505,4.811,8.149,8.816,10.985c3.977,2.809,8.844,4.339,14.517,4.617c5.952,0.445,10.596-0.362,13.933-2.447    c3.337-2.058,5.701-4.06,7.147-5.951c1.418-1.891,2.364-3.31,2.865-4.283c0.473-0.973,1.168-2.447,2.058-4.422    c0.89-2.002,1.808-3.365,2.809-4.116C723.377,642.106,724.573,641.689,725.991,641.605"/>
	</g>
	<polygon fill="#008ACC" points="397.791,539.554 508.311,421.441 633.432,361.843 754.853,258.693 519.658,540.471  "/>
	<g>
		<path fill="#008ACC" d="M482.636,157.098c87.409,0,167.977,29.813,231.719,79.678c62.491-38.879,121.533-81.764,176.57-129.348    c-39.241,67.497-68.637,142.836-90.663,224.266c35.431,56.178,55.927,122.367,55.927,193.146    c0,202.546-167.81,367.741-373.554,367.741S109.082,727.385,109.082,524.839S276.892,157.098,482.636,157.098 M706.29,241.753    c-48.613-33.651-107.767-53.48-171.481-53.48c-164.723,0-299.021,132.24-299.021,294.377s134.298,294.377,299.021,294.377    c164.695,0,299.021-132.24,299.021-294.377c0-50.782-13.21-98.645-36.376-140.416c-19.44,74.505-32.9,153.96-42.217,237.031    l-200.07-60.878l238.366-295.962l-164.64,133.547l-125.037,60.377l-75.562,80.206l-187.722-49.03    C408.66,393.962,565.985,327.856,706.29,241.753"/>
	</g>
</g>
</svg>