<?xml version="1.0" encoding="UTF-8"?>
<!-- Generator: Adobe Illustrator 22.1.0, SVG Export Plug-In . SVG Version: 6.00 Build 0)  -->
<svg version="1.1" id="Capa_1" xmlns="http://www.w3.org/2000/svg" xmlns:xlink="http://www.w3.org/1999/xlink" x="0px" y="0px" viewBox="0 0 495.6 512" enable-background="new 0 0 495.6 512" xml:space="preserve">
<g>
	<g>
		<path fill="#FF1641" d="M490.5,244.2L251.4,5.1C248,1.7,244,0,239.6,0c-4.4,0-8.4,1.7-11.8,5.1l-25.7,25.7    c-3.4,3.4-5.1,7.3-5.1,11.8s1.7,8.4,5.1,11.8L403.8,256L202.1,457.6c-3.4,3.4-5.1,7.4-5.1,11.8c0,4.5,1.7,8.4,5.1,11.8l25.7,25.6    c3.4,3.4,7.3,5.1,11.8,5.1c4.5,0,8.4-1.7,11.8-5.1l239.1-239.1c3.4-3.4,5.1-7.4,5.1-11.8S493.9,247.6,490.5,244.2z"/>
		<path fill="#FF1641" d="M298.6,256c0-4.4-1.7-8.4-5.1-11.8L54.4,5.1C51,1.7,47,0,42.6,0s-8.4,1.7-11.8,5.1L5.1,30.8    C1.7,34.2,0,38.1,0,42.6S1.7,51,5.1,54.4L206.8,256L5.1,457.6C1.7,461,0,465,0,469.4c0,4.5,1.7,8.4,5.1,11.8l25.6,25.6    c3.4,3.4,7.4,5.1,11.8,5.1s8.4-1.7,11.8-5.1l239.1-239.1C296.9,264.4,298.6,260.5,298.6,256z"/>
	</g>
</g>
</svg>