<?xml version="1.0" encoding="UTF-8"?>
<!-- Generator: Adobe Illustrator 22.1.0, SVG Export Plug-In . SVG Version: 6.00 Build 0)  -->
<svg version="1.1" id="Capa_1" xmlns="http://www.w3.org/2000/svg" xmlns:xlink="http://www.w3.org/1999/xlink" x="0px" y="0px" viewBox="-49 177 512 440" enable-background="new -49 177 512 440" xml:space="preserve">
<path fill="#FFFFFF" d="M393,317c-5.5,0-10,4.5-10,10s4.5,10,10,10s10-4.5,10-10S398.5,317,393,317z"/>
<path fill="#FFFFFF" d="M433,177H147c-16.5,0-30,13.5-30,30v110H-19c-16.5,0-30,13.5-30,30v180c0,16.5,13.5,30,30,30h30v50  c0,3.8,2.2,7.3,5.6,9c3.4,1.7,7.5,1.3,10.5-1.1l75.2-57.9H267c16.5,0,30-13.5,30-30V417h136c16.5,0,30-13.5,30-30V207  C463,190.5,449.5,177,433,177z M277,527c0,5.5-4.5,10-10,10H98.9c-2.2,0-4.4,0.7-6.1,2.1L31,586.7V547c0-5.5-4.5-10-10-10h-40  c-5.5,0-10-4.5-10-10V347c0-5.5,4.5-10,10-10h286c5.5,0,10,4.5,10,10V527z M443,387c0,5.5-4.5,10-10,10H297v-50  c0-3.5-0.6-6.9-1.7-10H353c5.5,0,10-4.5,10-10s-4.5-10-10-10c-8,0-208,0-216,0V207c0-5.5,4.5-10,10-10h286c5.5,0,10,4.5,10,10V387z"/>
<path fill="#FFFFFF" d="M393,257H187c-5.5,0-10,4.5-10,10s4.5,10,10,10h206c5.5,0,10-4.5,10-10S398.5,257,393,257z"/>
<text transform="matrix(1 0 0 1 60.0625 502.3281)" fill="#FFFFFF" font-family="'ArialRoundedMTBold'" font-size="181.5612px">A</text>
</svg>