<?xml version="1.0" encoding="UTF-8"?>
<!-- Generator: Adobe Illustrator 21.1.0, SVG Export Plug-In . SVG Version: 6.00 Build 0)  -->
<svg version="1.1" id="Слой_1" xmlns="http://www.w3.org/2000/svg" xmlns:xlink="http://www.w3.org/1999/xlink" x="0px" y="0px" viewBox="0 0 3167 869" style="enable-background:new 0 0 3167 869;" xml:space="preserve">
<style type="text/css">
	.st0{fill:none;}
	.st1{fill:url(#SVGID_1_);stroke:url(#SVGID_2_);stroke-width:4.608;}
	.st2{fill:#5E1D34;stroke:#E00531;stroke-width:4.608;}
	.st3{fill:#CF052D;stroke:#E00531;stroke-width:4.608;}
	.st4{fill:#BE092E;stroke:#E00531;stroke-width:4.608;}
	.st5{fill:#A60E2F;stroke:#E00531;stroke-width:4.608;}
	.st6{fill:#7E1632;stroke:#E00531;stroke-width:4.608;}
	.st7{fill:#6F1A33;stroke:#E00531;stroke-width:4.608;}
	.st8{fill:#621C34;stroke:#E00531;stroke-width:4.608;}
	.st9{fill:#6A283E;stroke:#E00531;stroke-width:4.608;}
</style>
<path class="st0" d="M90.5,727.7l103.3-66.5l230.1,101.1l157.4-48.9l165.5,53.1l203.6-66.6l155.9-158.5l154.2,83.4l144-119.2  l150.8,23.1l137.9-121.1l153.9-19.8l148.2-112.7l148.5-64.9l155.3,815.1l-2359.4,89.3L-14.3,751L90.5,727.7z"/>
<linearGradient id="SVGID_1_" gradientUnits="userSpaceOnUse" x1="2592.3955" y1="915.673" x2="2593.8132" y2="915.673" gradientTransform="matrix(2341.0894 166.5764 75.1329 -1055.9283 -6137839 535501.75)">
	<stop offset="0" style="stop-color:#1E172B;stop-opacity:0"/>
	<stop offset="1" style="stop-color:#1E172B;stop-opacity:0.5"/>
</linearGradient>
<linearGradient id="SVGID_2_" gradientUnits="userSpaceOnUse" x1="2592.4905" y1="917.4325" x2="2593.5308" y2="917.4325" gradientTransform="matrix(2341.0894 166.5764 75.1329 -1055.9283 -6137839 535501.75)">
	<stop offset="0" style="stop-color:#FD5F42"/>
	<stop offset="1" style="stop-color:#DF0231"/>
</linearGradient>
<path class="st1" d="M-60.2,1114.3L-14.3,751l104.8-23.3l103.3-66.5l230.1,101.1l157.4-48.9l165.5,53.1l203.6-66.6l155.9-158.5  l154.2,83.4l144-119.2l150.8,23.1l137.9-121.1l153.9-19.8l148.2-112.7l148.5-64.9l172.2,25.3l84-74l152,14l130-50l134,18l146-48  l128,32l210-112l-14,956L-60.2,1114.3z"/>
<path class="st2" d="M87.4,714.4c7.2-0.7,13.5,4.6,14.2,11.8c0.7,7.2-4.6,13.5-11.8,14.2s-13.5-4.6-14.2-11.8  C74.9,721.4,80.2,715.1,87.4,714.4z"/>
<path class="st2" d="M192.1,650.6c7.2-0.7,13.5,4.6,14.2,11.8c0.7,7.2-4.6,13.5-11.8,14.2c-7.2,0.7-13.5-4.6-14.2-11.8  C179.7,657.6,185,651.3,192.1,650.6z"/>
<path class="st2" d="M423.9,747.3c7.2-0.7,13.5,4.6,14.2,11.8c0.7,7.2-4.6,13.5-11.8,14.2c-7.3,0.7-13.5-4.6-14.2-11.8  C411.3,754.2,416.7,748,423.9,747.3z"/>
<path class="st3" d="M1845.9,373.2c7.2-0.7,13.5,4.6,14.2,11.8c0.7,7.2-4.6,13.5-11.8,14.2c-7.3,0.7-13.5-4.6-14.2-11.8  C1833.5,380.3,1838.7,373.9,1845.9,373.2z"/>
<path class="st3" d="M1995.2,262.6c7.2-0.7,13.5,4.6,14.2,11.8c0.7,7.2-4.6,13.5-11.8,14.2c-7.3,0.7-13.5-4.6-14.2-11.8  C1982.8,269.6,1988.1,263.3,1995.2,262.6z"/>
<path class="st3" d="M2141.9,197c7.2-0.7,13.5,4.6,14.2,11.8c0.7,7.2-4.6,13.5-11.8,14.2c-7.3,0.7-13.5-4.6-14.2-11.8  C2129.5,204,2134.7,197.7,2141.9,197z"/>
<path class="st3" d="M2313.9,223.1c7.2-0.7,13.5,4.6,14.2,11.8c0.7,7.2-4.6,13.5-11.8,14.2c-7.3,0.7-13.5-4.6-14.2-11.8  C2301.5,230.2,2306.7,223.8,2313.9,223.1z"/>
<path class="st3" d="M2399.9,147.8c7.2-0.7,13.5,4.6,14.2,11.8c0.7,7.2-4.6,13.5-11.8,14.2s-13.5-4.6-14.2-11.8  C2387.5,154.8,2392.7,148.5,2399.9,147.8z"/>
<path class="st3" d="M2549.9,160.9c7.2-0.7,13.5,4.6,14.2,11.8c0.7,7.2-4.6,13.5-11.8,14.2c-7.3,0.7-13.5-4.6-14.2-11.8  C2537.5,167.9,2542.7,161.6,2549.9,160.9z"/>
<path class="st3" d="M2681.9,111.5c7.2-0.7,13.5,4.6,14.2,11.8c0.7,7.2-4.6,13.5-11.8,14.2c-7.3,0.7-13.5-4.6-14.2-11.8  C2669.5,118.6,2674.7,112.2,2681.9,111.5z"/>
<path class="st3" d="M2815.9,128.2c7.2-0.7,13.5,4.6,14.2,11.8c0.7,7.2-4.6,13.5-11.8,14.2s-13.5-4.6-14.2-11.8  C2803.5,135.2,2808.7,128.9,2815.9,128.2z"/>
<path class="st3" d="M2962.6,84.1c7.2-0.7,13.5,4.6,14.2,11.8c0.7,7.2-4.6,13.5-11.8,14.2c-7.3,0.7-13.5-4.6-14.2-11.8  C2950.1,91.1,2955.4,84.8,2962.6,84.1z"/>
<path class="st3" d="M3089.2,115.1c7.2-0.7,13.5,4.6,14.2,11.8c0.7,7.2-4.6,13.5-11.8,14.2c-7.3,0.7-13.5-4.6-14.2-11.8  C3076.8,122.2,3082.1,115.8,3089.2,115.1z"/>
<path class="st4" d="M1692.1,394.9c7.2-0.7,13.5,4.6,14.2,11.8c0.7,7.2-4.6,13.5-11.8,14.2c-7.2,0.7-13.5-4.6-14.2-11.8  C1679.6,401.9,1684.9,395.6,1692.1,394.9z"/>
<path class="st5" d="M1551.3,514.2c7.2-0.7,13.5,4.6,14.2,11.8c0.7,7.2-4.6,13.5-11.8,14.2s-13.5-4.6-14.2-11.8  C1538.8,521.2,1544.1,514.9,1551.3,514.2z"/>
<path class="st6" d="M1403.8,493.9c7.2-0.7,13.5,4.6,14.2,11.8c0.7,7.2-4.6,13.5-11.8,14.2c-7.3,0.7-13.5-4.6-14.2-11.8  C1391.3,500.8,1396.7,494.6,1403.8,493.9z"/>
<path class="st7" d="M1258.8,609.2c7.2-0.7,13.5,4.6,14.2,11.8c0.7,7.2-4.6,13.5-11.8,14.2c-7.2,0.7-13.5-4.6-14.2-11.8  C1246.3,616.2,1251.6,609.9,1258.8,609.2z"/>
<path class="st8" d="M1107,535.3c7.2-0.7,13.5,4.6,14.2,11.8c0.7,7.2-4.6,13.5-11.8,14.2c-7.2,0.7-13.5-4.6-14.2-11.8  C1094.6,542.3,1099.9,536,1107,535.3z"/>
<path class="st9" d="M949.4,688.1c7.2-0.7,13.5,4.6,14.2,11.8c0.7,7.2-4.6,13.5-11.8,14.2c-7.2,0.7-13.5-4.6-14.2-11.8  C936.9,695,942.2,688.8,949.4,688.1z"/>
<path class="st2" d="M746.5,753.9c7.2-0.7,13.5,4.6,14.2,11.8c0.7,7.2-4.6,13.5-11.8,14.2c-7.2,0.7-13.5-4.6-14.2-11.8  C734.1,760.9,739.3,754.6,746.5,753.9z"/>
<path class="st2" d="M580,702.2c7.2-0.7,13.5,4.6,14.2,11.8c0.7,7.2-4.6,13.5-11.8,14.2s-13.5-4.6-14.2-11.8S572.8,702.9,580,702.2z  "/>
</svg>