<?xml version="1.0" encoding="UTF-8"?>
<!-- Generator: Adobe Illustrator 22.1.0, SVG Export Plug-In . SVG Version: 6.00 Build 0)  -->
<svg version="1.1" id="Capa_1" xmlns="http://www.w3.org/2000/svg" xmlns:xlink="http://www.w3.org/1999/xlink" x="0px" y="0px" viewBox="39 206.7 279.8 317.4" enable-background="new 39 206.7 279.8 317.4" xml:space="preserve" fill="#fff">
<path d="M300.3,521l-39-38.1c-4.3-4.2-4.4-11.1-0.2-15.4c4.2-4.3,11.1-4.4,15.4-0.2l39,38.1c4.3,4.2,4.4,11.1,0.2,15.4  C311.5,525.1,304.6,525.2,300.3,521z"/>
<path d="M160.7,399.3c-3.9,3.9-3.9,10.2,0,14.1l28.3,28.3c1.9,1.9,4.4,2.9,7.1,2.9s5.2-1.1,7.1-2.9l56.1-56.1  c3.9-3.9,3.9-10.2,0-14.1c-3.9-3.9-10.2-3.9-14.1,0L196,420.6l-21.2-21.2C170.9,395.4,164.6,395.4,160.7,399.3z"/>
<path d="M310.4,406c0-0.7,0-1.4,0-2.1c0-0.2,0-0.4,0-0.7c0-0.1,0-0.1,0-0.1c0,0,0-0.1,0-0.1c0-0.2,0-0.4,0-0.7c0-0.7,0-1.4,0-2.1  c0-0.7,0-1.3-0.1-2c0-0.1,0-0.2,0-0.2c-1.9-37.6-24.8-71.3-59.4-86.8c-0.8-0.4-1.6-0.6-2.4-0.7c-11.8-4.9-24.8-7.6-38.4-7.6  c-13.8,0-26.9,2.8-38.9,7.8c-0.8,0.1-1.6,0.4-2.4,0.7c-34.4,15.5-57.1,49.1-59,86.6c0,0.1,0,0.2,0,0.3c0,0.7-0.1,1.3-0.1,2  c0,0.7,0,1.4,0,2.1c0,0.2,0,0.4,0,0.7c0,0.1,0,0.1,0,0.1c0,0,0,0.1,0,0.1c0,0.2,0,0.4,0,0.7c0,0.7,0,1.4,0,2.1c0,0.7,0,1.3,0.1,2  c0,0.1,0,0.2,0,0.2c1.9,37.6,24.8,71.3,59.4,86.8c0.8,0.4,1.6,0.6,2.4,0.7c11.8,4.9,24.8,7.6,38.4,7.6c13.8,0,26.9-2.8,38.9-7.8  c0.8-0.1,1.6-0.4,2.4-0.7c34.4-15.5,57.1-49.1,59-86.6c0-0.1,0-0.2,0-0.3C310.4,407.4,310.4,406.7,310.4,406z M129.5,403.1  c0.1-44.3,36.1-80.3,80.5-80.3c44.3,0,80.4,36,80.5,80.3c-0.1,44.3-36.1,80.3-80.5,80.3C165.6,483.4,129.6,447.4,129.5,403.1z"/>
<path d="M49.2,227.1h225.5c5.6,0,10.2-4.6,10.2-10.2s-4.6-10.2-10.2-10.2H49.2c-5.6,0-10.2,4.6-10.2,10.2S43.5,227.1,49.2,227.1z"/>
<path d="M49.2,277.3h225.5c5.6,0,10.2-4.6,10.2-10.2s-4.6-10.2-10.2-10.2H49.2c-5.6,0-10.2,4.6-10.2,10.2S43.5,277.3,49.2,277.3z"/>
<path d="M49.2,277.3h225.5c5.6,0,10.2-4.6,10.2-10.2s-4.6-10.2-10.2-10.2H49.2c-5.6,0-10.2,4.6-10.2,10.2S43.5,277.3,49.2,277.3z"/>
<path d="M49.2,327.9h55.4c5.6,0,10.2-4.6,10.2-10.2c0-5.6-4.6-10.2-10.2-10.2H49.2c-5.6,0-10.2,4.6-10.2,10.2  C39,323.3,43.5,327.9,49.2,327.9z"/>
</svg>