<?xml version="1.0" encoding="UTF-8"?>
<!-- Generator: Adobe Illustrator 22.1.0, SVG Export Plug-In . SVG Version: 6.00 Build 0)  -->
<svg version="1.1" id="Capa_1" xmlns="http://www.w3.org/2000/svg" xmlns:xlink="http://www.w3.org/1999/xlink" x="0px" y="0px" viewBox="47.1 222.6 319.8 264.9" enable-background="new 47.1 222.6 319.8 264.9" xml:space="preserve" fill="#fff">
<path d="M89.1,347c-5.5,0-10,4.5-10,10v47.7c-18.3,4.5-32,21.1-32,40.8c0,23.2,18.8,42,42,42s42-18.8,42-42  c0-19.7-13.7-36.3-32-40.8V367h98.1v37.7c-18.4,4.5-32.1,21.1-32.1,40.8c0,23.2,18.8,42,42,42s42-18.8,42-42  c0-19.7-13.6-36.2-31.9-40.8V367h97.8v37.7c-18.3,4.5-32,21.1-32,40.8c0,23.2,18.8,42,42,42s42-18.8,42-42c0-19.7-13.7-36.3-32-40.8  V357c0-5.5-4.5-10-10-10H217v-24.4h29.8c5.5,0,10-4.5,10-10v-80c0-5.5-4.5-10-10-10h-80c-5.5,0-10,4.5-10,10v80c0,5.5,4.5,10,10,10  H197V347H89.1z M111.1,445.5c0,12.1-9.9,22-22,22s-22-9.9-22-22s9.9-22,22-22S111.1,433.4,111.1,445.5z M346.9,445.5  c0,12.1-9.9,22-22,22s-22-9.9-22-22s9.9-22,22-22S346.9,433.4,346.9,445.5z M176.8,242.6h60v60h-60V242.6z M229,445.5  c0,12.1-9.9,22-22,22s-22-9.9-22-22s9.9-22,22-22S229,433.4,229,445.5z"/>
</svg>