<?xml version="1.0" encoding="UTF-8"?>
<!-- Generator: Adobe Illustrator 22.1.0, SVG Export Plug-In . SVG Version: 6.00 Build 0)  -->
<svg version="1.1" id="Capa_1" xmlns="http://www.w3.org/2000/svg" xmlns:xlink="http://www.w3.org/1999/xlink" x="0px" y="0px" viewBox="2.3 276.9 408.7 191.1" enable-background="new 2.3 276.9 408.7 191.1" xml:space="preserve" fill="#fff">
<path d="M375,348.9c19.9,0,36-16.1,36-36s-16.1-36-36-36s-36,16.1-36,36c0,7.9,2.6,15.2,6.9,21.1l-66.4,66.4  c-5.2-2.9-11.1-4.5-17.4-4.5c-5.7,0-11,1.3-15.8,3.7l-69.4-69.4c2.9-5.2,4.5-11.1,4.5-17.4c0-19.9-16.1-36-36-36s-36,16.1-36,36  c0,6.9,2,13.4,5.4,18.9l-59.1,59.1c-5.2-2.9-11.1-4.5-17.4-4.5c-19.9,0-36,16.1-36,36s16.1,36,36,36s36-16.1,36-36  c0-6.3-1.6-12.2-4.5-17.4l59.8-59.8c4.8,2.3,10.1,3.6,15.8,3.6c6.3,0,12.2-1.6,17.4-4.5l68.7,68.7c-3.4,5.5-5.4,12-5.4,18.9  c0,19.9,16.1,36,36,36s36-16.1,36-36c0-6.3-1.6-12.2-4.5-17.4l68.2-68.2C365.9,348,370.3,348.9,375,348.9z M375,296.9  c8.8,0,16,7.2,16,16s-7.2,16-16,16s-16-7.2-16-16S366.2,296.9,375,296.9z M38.3,438.4c-8.8,0-16-7.2-16-16s7.2-16,16-16  s16,7.2,16,16S47.2,438.4,38.3,438.4z M145.4,328.9c-8.8,0-16-7.2-16-16s7.2-16,16-16s16,7.2,16,16S154.2,328.9,145.4,328.9z   M262.1,448c-8.8,0-16-7.2-16-16s7.2-16,16-16s16,7.2,16,16S270.9,448,262.1,448z"/>
</svg>