<?xml version="1.0" encoding="UTF-8"?>
<!-- Generator: Adobe Illustrator 22.1.0, SVG Export Plug-In . SVG Version: 6.00 Build 0)  -->
<svg version="1.1" id="Capa_1" xmlns="http://www.w3.org/2000/svg" xmlns:xlink="http://www.w3.org/1999/xlink" x="0px" y="0px" viewBox="62.5 296.7 267.1 267.2" enable-background="new 62.5 296.7 267.1 267.2" xml:space="preserve" fill="#fff">
<path d="M311.3,315.1c-24.6-24.6-64.7-24.6-89.4,0l-44.7,44.7c-3.8,3.8-3.8,9.9,0,13.7c3.8,3.8,9.9,3.8,13.7,0l44.7-44.7  c8.2-8.2,19.2-12.7,30.9-12.7c11.7,0,22.7,4.5,30.9,12.8c8.2,8.2,12.7,19.2,12.7,30.9c0,11.7-4.5,22.7-12.7,30.9l-58.4,58.4  c-17.1,17.1-44.8,17.1-61.9,0c-3.8-3.8-9.9-3.8-13.7,0c-3.8,3.8-3.8,10,0,13.7c12.3,12.3,28.5,18.5,44.7,18.5  c16.2,0,32.4-6.2,44.7-18.5l58.4-58.4c11.9-11.9,18.4-27.8,18.4-44.7C329.7,342.9,323.1,327,311.3,315.1L311.3,315.1z M311.3,315.1"/>
<path d="M194.4,493.8l-37.8,37.8c-8.2,8.2-19.2,12.7-30.9,12.7c-11.7,0-22.7-4.5-30.9-12.7c-17-17.1-17-44.8,0-61.9l55-55  c8.2-8.2,19.2-12.7,30.9-12.7c11.7,0,22.7,4.5,30.9,12.7c3.8,3.8,9.9,3.8,13.7,0c3.8-3.8,3.8-10,0-13.7c-24.6-24.6-64.7-24.6-89.3,0  l-55,55c-11.9,11.9-18.4,27.7-18.4,44.7c0,16.9,6.5,32.8,18.4,44.7s27.8,18.4,44.7,18.4c16.9,0,32.8-6.5,44.7-18.4l37.8-37.8  c3.8-3.8,3.8-9.9,0-13.7C204.3,490,198.2,490,194.4,493.8L194.4,493.8z M194.4,493.8"/>
<path d="M227.8,510.5c-5.4,0-9.7,4.4-9.7,9.7v29.2c0,5.4,4.3,9.7,9.7,9.7c5.4,0,9.7-4.3,9.7-9.7v-29.2  C237.5,514.9,233.2,510.5,227.8,510.5L227.8,510.5z M227.8,510.5"/>
<path d="M262.7,503.7c-3.8-3.8-9.9-3.8-13.7,0c-3.8,3.8-3.8,9.9,0,13.7l20.6,20.6c1.9,1.9,4.4,2.8,6.9,2.8s5-0.9,6.9-2.8  c3.8-3.8,3.8-9.9,0-13.7L262.7,503.7z M262.7,503.7"/>
<path d="M286,471.7h-29.2c-5.4,0-9.7,4.4-9.7,9.7c0,5.4,4.4,9.7,9.7,9.7H286c5.4,0,9.7-4.3,9.7-9.7C295.7,476,291.3,471.7,286,471.7  L286,471.7z M286,471.7"/>
<path d="M150,359.9c5.4,0,9.7-4.4,9.7-9.7V321c0-5.4-4.4-9.7-9.7-9.7c-5.4,0-9.7,4.3-9.7,9.7v29.2  C140.3,355.5,144.7,359.9,150,359.9L150,359.9z M150,359.9"/>
<path d="M114,366.7c1.9,1.9,4.4,2.8,6.9,2.8c2.5,0,5-1,6.9-2.8c3.8-3.8,3.8-9.9,0-13.7l-20.6-20.6c-3.8-3.8-9.9-3.8-13.7,0  c-3.8,3.8-3.8,9.9,0,13.7L114,366.7z M114,366.7"/>
<path d="M91.5,398.7h29.1c5.4,0,9.7-4.3,9.7-9.7c0-5.4-4.3-9.7-9.7-9.7H91.5c-5.4,0-9.7,4.3-9.7,9.7  C81.8,394.4,86.2,398.7,91.5,398.7L91.5,398.7z M91.5,398.7"/>
</svg>