<?xml version="1.0" encoding="UTF-8" standalone="no"?>
<!DOCTYPE svg PUBLIC "-//W3C//DTD SVG 1.1//EN" "http://www.w3.org/Graphics/SVG/1.1/DTD/svg11.dtd">
<svg xmlns="http://www.w3.org/2000/svg">
<metadata/>
<defs>
<font id="epregularregular" horiz-adv-x="1323">
<font-face units-per-em="2048" ascent="1638" descent="-410"/>
<missing-glyph horiz-adv-x="500"/>
<glyph horiz-adv-x="0"/>
<glyph horiz-adv-x="682"/>
<glyph unicode="!" horiz-adv-x="731" d="M165 172q0 80 58 137q58 58 141 58t141 -57q59 -56 59 -136q0 -81 -59 -138q-58 -56 -141 -56q-81 0 -140 55q-59 57 -59 137zM192 485v965h344v-965h-344z"/>
<glyph unicode="&quot;" horiz-adv-x="1019" d="M176 895v555h268v-555h-268zM575 895v555h267v-555h-267z"/>
<glyph unicode="#" horiz-adv-x="1234" d="M94 410v213h203l30 204h-174v213h201l59 410h228l-60 -410h160l60 410h225l-58 -410h173v-213h-203l-29 -204h174v-213h-201l-61 -410h-225l59 410h-162l-59 -410h-225l59 410h-174zM524 623h160l28 204h-161z"/>
<glyph unicode="$" d="M71 168l215 225q127 -137 291 -141v358q-213 58 -312 135q-135 107 -135 293q0 189 148 312q132 110 309 118v142h150v-140q274 -7 458 -155q-99 -115 -198 -223q-107 107 -260 110v-328q214 -64 311 -137q153 -114 153 -309q0 -211 -146 -333q-130 -109 -327 -115v-150 h-151v150q-307 10 -506 188zM444 1061q0 -114 143 -152v297q-143 -16 -143 -145zM728 250q150 7 150 160q0 117 -150 163v-323z"/>
<glyph unicode="%" horiz-adv-x="1865" d="M59 1087q0 163 114 275q113 113 275 113t275 -113q114 -112 114 -275q0 -159 -114 -273t-275 -114t-275 114t-114 273zM288 1087q0 -65 47 -111t113 -46t113 46t47 111q0 67 -47 113q-47 47 -113 47t-113 -47q-47 -46 -47 -113zM424 20l845 1496l191 -93l-854 -1493z M1042 362q0 162 114 275t275 113q162 0 275 -113q114 -113 114 -275q0 -161 -114 -274q-113 -113 -275 -113q-161 0 -275 113t-114 274zM1271 362q0 -65 47 -111t113 -46q65 0 112 46q48 46 48 111q0 66 -48 113q-47 47 -112 47q-66 0 -113 -47q-47 -46 -47 -113z"/>
<glyph unicode="&amp;" horiz-adv-x="1599" d="M92 403q0 270 303 402q-149 146 -149 315q0 183 145 283q125 86 307 86q183 0 304 -88q139 -101 139 -281q0 -233 -291 -379l182 -186l145 223h373l-313 -420l360 -358h-424l-137 141q-159 -170 -424 -170q-215 0 -359 106q-161 118 -161 326zM428 418q0 -82 62 -134 q57 -48 134 -48q132 0 213 110l-256 266q-153 -61 -153 -194zM563 1110q0 -99 109 -188q168 67 168 188q0 57 -38 94q-38 39 -100 39q-59 0 -99 -38t-40 -95z"/>
<glyph unicode="'" horiz-adv-x="620" d="M176 895v555h266v-555h-266z"/>
<glyph unicode="(" horiz-adv-x="700" d="M59 590q0 513 301 930l229 -113q-266 -365 -266 -817q0 -453 266 -817l-229 -113q-301 416 -301 930z"/>
<glyph unicode=")" horiz-adv-x="700" d="M110 -227q266 364 266 817q0 452 -266 817l229 113q301 -417 301 -930q0 -514 -301 -930z"/>
<glyph unicode="*" horiz-adv-x="1001" d="M57 1069l72 205l260 -90v266h225v-266l260 82l70 -205l-262 -82l166 -219l-185 -129l-166 223l-161 -215l-181 129l166 213z"/>
<glyph unicode="+" horiz-adv-x="1363" d="M114 492v258h434v428h266v-428h437v-258h-435v-429h-266v429h-436z"/>
<glyph unicode="," horiz-adv-x="614" d="M40 -254l154 582h321l-199 -582h-276z"/>
<glyph unicode="-" horiz-adv-x="667" d="M73 403v267h520v-267h-520z"/>
<glyph unicode="." horiz-adv-x="614" d="M100 178q0 83 61 143q62 60 148 60q84 0 144 -58q61 -59 61 -143t-61 -142q-60 -58 -144 -58q-86 0 -147 57q-62 58 -62 141z"/>
<glyph unicode="/" horiz-adv-x="849" d="M-14 -31l633 1592l231 -80l-633 -1587z"/>
<glyph unicode="0" d="M94 729q0 335 130 534q149 226 439 226t437 -226q129 -199 129 -534q0 -337 -129 -538q-148 -230 -437 -230q-290 0 -439 230q-130 201 -130 538zM446 729q0 -473 217 -473q213 0 213 473q0 469 -213 469q-121 0 -177 -166q-40 -121 -40 -303z"/>
<glyph unicode="1" d="M131 1100l477 350h316v-1450h-344v1065l-271 -209z"/>
<glyph unicode="2" d="M108 1022q24 214 183 343q152 124 370 124q217 0 362 -109q162 -121 162 -336q0 -219 -254 -446l-336 -299h592v-299h-1048v287l565 512q119 112 119 223q0 77 -50 125q-50 49 -130 49q-85 0 -141 -61q-53 -59 -64 -158z"/>
<glyph unicode="3" d="M65 346l319 84q50 -180 246 -180q85 0 143 41q68 50 68 143q0 191 -295 191h-92v252h100q254 0 254 172q0 74 -55 119q-52 40 -127 40q-161 0 -199 -161l-319 73q50 176 206 276q145 93 335 93q209 0 351 -100q159 -113 159 -310q0 -117 -69 -203q-67 -84 -175 -112v-6 q123 -30 201 -122q77 -93 77 -214q0 -223 -173 -350q-153 -111 -373 -111q-211 0 -361 91q-165 101 -221 294z"/>
<glyph unicode="4" d="M51 283v288l590 879h411v-889h201v-278h-198v-283h-322v283h-682zM385 561h350v537h-6z"/>
<glyph unicode="5" d="M81 330l313 96q54 -174 234 -174q92 0 152 53q65 58 65 158q0 221 -297 221q-178 0 -354 -63l34 829h889v-295h-583l-13 -229q61 14 146 14q228 0 371 -116q153 -124 153 -345q0 -249 -173 -391q-155 -127 -386 -127q-200 0 -349 98q-152 100 -202 271z"/>
<glyph unicode="6" d="M88 479q0 208 162 449l350 522h416l-363 -506q43 17 103 17q195 0 332 -131q143 -136 143 -343q0 -240 -168 -386q-160 -140 -404 -140q-242 0 -404 140q-167 146 -167 378zM432 477q0 -96 62 -161q65 -68 165 -68q102 0 165 64t63 167q0 99 -62 163q-63 65 -164 65 t-165 -64t-64 -166z"/>
<glyph unicode="7" d="M129 1155v295h1053v-274l-555 -1176h-400l588 1155h-686z"/>
<glyph unicode="8" d="M116 412q0 126 77 222q71 88 183 124v4q-221 83 -221 313q0 193 152 308q141 106 354 106q212 0 353 -103q153 -113 153 -305q0 -243 -222 -317v-6q113 -32 185 -124q76 -96 76 -220q0 -218 -165 -341q-150 -112 -380 -112q-231 0 -380 111q-165 122 -165 340zM458 426 q0 -87 57 -140q56 -53 146 -53q89 0 145 53q55 53 55 140q0 84 -56 140q-57 57 -144 57q-89 0 -146 -56t-57 -141zM489 1057q0 -72 46 -121q48 -51 126 -51q74 0 124 51q50 50 50 121q0 70 -51 118t-123 48q-76 0 -125 -48q-47 -47 -47 -118z"/>
<glyph unicode="9" d="M90 963q0 240 168 386q160 140 403 140q244 0 405 -140q167 -145 167 -378q0 -208 -162 -449l-350 -522h-416l365 506q-46 -17 -103 -17q-196 0 -334 131q-143 136 -143 343zM434 973q0 -99 62 -163q63 -65 163 -65q102 0 166 64t64 166q0 96 -61 162q-64 69 -165 69 q-102 0 -166 -65q-63 -65 -63 -168z"/>
<glyph unicode=":" horiz-adv-x="679" d="M139 180q0 81 60 139t143 58q80 0 139 -57t59 -138q0 -80 -59 -138q-59 -56 -139 -56q-83 0 -142 55q-61 57 -61 137zM139 836q0 81 60 139q60 57 143 57q80 0 139 -56q59 -57 59 -136q0 -81 -59 -139t-139 -58q-83 0 -142 56q-61 56 -61 137z"/>
<glyph unicode=";" horiz-adv-x="679" d="M61 -254l154 582h327l-198 -582h-283zM141 838q0 81 59 139q59 57 142 57q80 0 139 -56q59 -58 59 -138q0 -81 -58 -138q-59 -57 -140 -57t-141 56t-60 137z"/>
<glyph unicode="&lt;" horiz-adv-x="1363" d="M161 514v211l1040 438v-278l-626 -269l626 -260v-280z"/>
<glyph unicode="=" horiz-adv-x="1363" d="M139 307v252h1085v-252h-1085zM139 686v252h1085v-252h-1085z"/>
<glyph unicode="&gt;" horiz-adv-x="1363" d="M161 76v280l627 260l-627 269v278l1040 -438v-211z"/>
<glyph unicode="?" horiz-adv-x="1118" d="M81 1044q22 215 170 334q138 111 344 111q200 0 333 -98q150 -111 150 -312q0 -124 -61 -213q-46 -66 -168 -159q-111 -88 -111 -191v-53h-319v78q0 164 162 307l67 63q84 73 84 146q0 143 -149 143q-80 0 -129 -58q-44 -53 -47 -132zM380 172q0 80 59 137q59 58 142 58 q81 0 140 -57q58 -56 58 -136q0 -81 -57 -138q-58 -56 -141 -56q-82 0 -141 55q-60 56 -60 137z"/>
<glyph unicode="@" horiz-adv-x="1638" d="M59 723q0 324 231 545q229 219 557 219q308 0 514 -168q224 -183 224 -498q0 -229 -121 -364q-116 -129 -299 -129q-177 0 -195 131h-8q-76 -131 -244 -131q-136 0 -216 97q-78 94 -78 249q0 182 107 317q114 144 286 144q160 0 194 -111h2l15 70h221l-64 -322 q-26 -122 -26 -170q0 -74 59 -74q66 0 110 71q48 78 48 214q0 234 -149 364q-141 123 -382 123q-248 0 -405 -165q-156 -162 -156 -412q0 -258 165 -414q162 -153 423 -153q279 0 471 176l129 -144q-231 -225 -622 -225q-349 0 -570 213t-221 547zM667 674q0 -144 113 -144 q83 0 131 85q41 71 41 161q0 160 -115 160q-73 0 -123 -86q-47 -79 -47 -176z"/>
<glyph unicode="A" horiz-adv-x="1492" d="M-28 0l608 1450h340l602 -1450h-389l-112 285h-562l-106 -285h-381zM560 565h364l-180 498z"/>
<glyph unicode="B" horiz-adv-x="1361" d="M149 0v1450h578q202 0 331 -77q162 -96 162 -296q0 -234 -237 -313v-4q130 -23 210 -108q86 -93 86 -230q0 -219 -172 -329q-146 -93 -380 -93h-578zM487 283h197q245 0 245 172q0 159 -248 159h-194v-331zM487 872h188q207 0 207 158q0 141 -223 141h-172v-299z"/>
<glyph unicode="C" horiz-adv-x="1425" d="M81 727q0 342 227 555q221 207 559 207q358 0 543 -213l-237 -238q-97 133 -293 133q-183 0 -301 -126q-117 -125 -117 -318q0 -198 115 -321t297 -123q201 0 307 147l243 -229q-206 -240 -563 -240q-338 0 -557 213q-223 215 -223 553z"/>
<glyph unicode="D" horiz-adv-x="1585" d="M149 0v1450h524q353 0 569 -155q261 -186 261 -566q0 -357 -257 -556q-224 -173 -556 -173h-541zM491 303h166q211 0 334 92q147 109 147 334q0 226 -146 333q-121 89 -327 89h-174v-848z"/>
<glyph unicode="E" horiz-adv-x="1243" d="M149 0v1450h975v-297h-637v-272h602v-281h-602v-301h674v-299h-1012z"/>
<glyph unicode="F" horiz-adv-x="1179" d="M149 0v1450h954v-299h-608v-299h561v-289h-561v-563h-346z"/>
<glyph unicode="G" horiz-adv-x="1574" d="M81 727q0 342 227 555q221 207 559 207q360 0 560 -193l-222 -252q-117 136 -325 136q-184 0 -305 -129t-121 -324q0 -205 114 -328q119 -129 328 -129q129 0 219 39v264h-276v283h598v-768q-240 -125 -559 -125q-350 0 -572 211q-225 213 -225 553z"/>
<glyph unicode="H" horiz-adv-x="1564" d="M149 0v1450h350v-549h565v549h351v-1450h-351v606h-565v-606h-350z"/>
<glyph unicode="I" horiz-adv-x="651" d="M149 0v1450h352v-1450h-352z"/>
<glyph unicode="J" horiz-adv-x="1083" d="M-6 301l309 105q31 -127 146 -127q141 0 141 215v956h352v-954q0 -218 -90 -354q-121 -181 -387 -181q-179 0 -307 96q-123 91 -164 244z"/>
<glyph unicode="K" horiz-adv-x="1456" d="M149 0v1450h344v-590h6l518 590h439l-625 -668l661 -782h-456l-539 668h-4v-668h-344z"/>
<glyph unicode="L" horiz-adv-x="1077" d="M149 0v1450h352v-1145h561v-305h-913z"/>
<glyph unicode="M" horiz-adv-x="1955" d="M149 0v1450h498l329 -930h9l315 930h506v-1450h-342l8 1026h-6l-377 -1026h-246l-366 1026h-6l8 -1026h-330z"/>
<glyph unicode="N" horiz-adv-x="1617" d="M149 0v1450h399l582 -946h6l-8 946h340v-1450h-397l-584 948h-6l8 -948h-340z"/>
<glyph unicode="O" horiz-adv-x="1742" d="M81 731q0 344 225 553q218 205 563 205q347 0 566 -205q225 -209 225 -553q0 -341 -225 -557q-222 -213 -566 -213q-342 0 -563 213q-225 216 -225 557zM456 731q0 -197 115 -323q116 -127 298 -127q183 0 300 127q116 126 116 323q0 192 -115 317q-117 126 -301 126 q-182 0 -299 -126q-114 -125 -114 -317z"/>
<glyph unicode="P" horiz-adv-x="1310" d="M149 0v1450h532q568 0 568 -446q0 -236 -174 -355q-151 -102 -402 -102h-174v-547h-350zM499 825h148q252 0 252 176q0 166 -246 166h-154v-342z"/>
<glyph unicode="Q" horiz-adv-x="1755" d="M73 743q0 328 225 538q222 208 561 208q340 0 560 -206q221 -208 221 -533q0 -307 -215 -471v-7l305 7v-279h-883q-352 0 -560 194q-214 199 -214 549zM450 739q0 -195 114 -317q113 -123 293 -123t295 123q117 123 117 317q0 190 -114 311q-115 121 -296 121 q-176 0 -292 -121q-117 -123 -117 -311z"/>
<glyph unicode="R" horiz-adv-x="1357" d="M149 0v1450h553q237 0 382 -95q173 -113 173 -343q0 -299 -301 -391l379 -621h-410l-313 575h-119v-575h-344zM491 829h166q254 0 254 177q0 161 -234 161h-186v-338z"/>
<glyph unicode="S" horiz-adv-x="1210" d="M30 172l229 234q122 -154 314 -154q200 0 200 158q0 75 -79 121q-50 30 -222 85q-170 55 -254 132q-116 107 -116 284q0 224 179 348q155 107 382 107q281 0 475 -178l-223 -236q-98 125 -258 125q-203 0 -203 -145q0 -66 60 -105q42 -27 163 -65q210 -68 299 -134 q152 -112 152 -303q0 -236 -170 -366q-152 -117 -385 -117q-344 0 -543 209z"/>
<glyph unicode="T" horiz-adv-x="1189" d="M10 1151v299h1169v-299h-409v-1151h-350v1151h-410z"/>
<glyph unicode="U" horiz-adv-x="1511" d="M135 547v903h348v-875q0 -128 63 -207q71 -92 210 -92t210 92q62 78 62 207v875h350v-903q0 -263 -170 -424q-172 -162 -455 -162t-452 162q-166 160 -166 424z"/>
<glyph unicode="V" horiz-adv-x="1396" d="M-30 1450h393l336 -1028h8l334 1028h387l-559 -1450h-350z"/>
<glyph unicode="W" horiz-adv-x="2099" d="M0 1450h377l229 -965h6l258 965h365l260 -965h6l234 965h364l-413 -1450h-347l-286 981h-6l-287 -981h-348z"/>
<glyph unicode="X" horiz-adv-x="1439" d="M-16 0l508 766l-467 684h422l270 -451l266 451h408l-459 -684l525 -766h-433l-317 512l-305 -512h-418z"/>
<glyph unicode="Y" horiz-adv-x="1370" d="M-40 1450h424l309 -537l309 537h410l-557 -836v-614h-350v614z"/>
<glyph unicode="Z" horiz-adv-x="1300" d="M79 0v303l690 850h-674v297h1112v-281l-706 -866h721v-303h-1143z"/>
<glyph unicode="[" horiz-adv-x="700" d="M108 -319v1818h442v-209h-182v-1401h182v-208h-442z"/>
<glyph unicode="\" horiz-adv-x="849" d="M2 1481l231 80l631 -1592l-231 -75z"/>
<glyph unicode="]" horiz-adv-x="700" d="M149 -111h182v1401h-182v209h442v-1818h-442v208z"/>
<glyph unicode="^" horiz-adv-x="1413" d="M149 702l436 748h242l434 -748h-303l-254 437l-252 -437h-303z"/>
<glyph unicode="_" horiz-adv-x="1024" d="M0 -154h1024v-182h-1024v182z"/>
<glyph unicode="`" horiz-adv-x="614" d="M-79 1466h340l213 -295h-254z"/>
<glyph unicode="a" horiz-adv-x="1159" d="M67 295q0 344 655 344v16q0 148 -184 148q-140 0 -252 -105l-170 183q182 172 455 172q253 0 363 -131q106 -126 106 -408v-514h-307v109h-7q-81 -134 -288 -134q-145 0 -246 70q-125 86 -125 250zM376 305q0 -104 146 -104q100 0 156 57q55 55 55 152v34h-43 q-314 0 -314 -139z"/>
<glyph unicode="b" horiz-adv-x="1349" d="M135 0v1548h336v-637h4q116 138 311 138q216 0 352 -161q130 -152 130 -374q0 -224 -128 -378q-136 -165 -358 -165q-230 0 -334 162h-4v-133h-309zM457 512q0 -105 66 -181q70 -81 179 -81q114 0 181 82q61 74 61 182q0 106 -61 179q-67 81 -181 81q-108 0 -179 -83 q-66 -76 -66 -179z"/>
<glyph unicode="c" horiz-adv-x="1030" d="M79 510q0 244 166 396q160 147 403 147q245 0 379 -138l-194 -225q-62 82 -179 82q-103 0 -170 -78q-65 -75 -65 -184t64 -183q68 -77 176 -77q119 0 182 76l186 -228q-134 -131 -377 -131q-247 0 -406 145q-165 150 -165 398z"/>
<glyph unicode="d" horiz-adv-x="1347" d="M79 514q0 222 129 374q136 161 352 161q195 0 312 -138h4v637h336v-1548h-310v133h-4q-103 -162 -334 -162q-221 0 -358 165q-127 154 -127 378zM403 514q0 -108 61 -182q67 -82 180 -82q109 0 180 81q66 76 66 181q0 103 -66 179q-71 83 -180 83q-113 0 -180 -81 q-61 -73 -61 -179z"/>
<glyph unicode="e" horiz-adv-x="1220" d="M79 506q0 246 159 398q155 149 392 149q229 0 369 -147q143 -151 143 -408q0 -56 -2 -80h-739q7 -83 80 -139q71 -54 163 -54q147 0 226 107l233 -148q-150 -217 -463 -217q-240 0 -396 141q-165 148 -165 398zM401 627h432q0 84 -51 137q-54 57 -150 57q-95 0 -161 -58 q-64 -56 -70 -136z"/>
<glyph unicode="f" horiz-adv-x="745" d="M0 768v252h186v98q0 469 439 469q97 0 161 -20l-22 -267q-43 15 -92 15q-150 0 -150 -193v-102h228v-252h-228v-768h-336v768h-186z"/>
<glyph unicode="g" horiz-adv-x="1347" d="M79 514q0 222 127 373q137 162 358 162t326 -160h4v131h318v-924q0 -291 -165 -443q-155 -145 -436 -145q-310 0 -524 160l168 240q148 -129 338 -129q289 0 289 284v62h-6q-105 -135 -310 -135q-224 0 -359 156q-128 147 -128 368zM405 516q0 -107 63 -181 q67 -79 176 -79q112 0 182 78q66 74 66 182t-67 181q-70 77 -181 77q-110 0 -176 -76q-63 -72 -63 -182z"/>
<glyph unicode="h" horiz-adv-x="1263" d="M135 0v1548h336v-657h4q87 158 293 158q192 0 290 -133q83 -111 83 -285v-631h-338v553q0 215 -150 215q-85 0 -135 -63q-47 -60 -47 -154v-551h-336z"/>
<glyph unicode="i" horiz-adv-x="606" d="M110 1346q0 74 56 129t137 55q79 0 136 -54q56 -54 56 -130q0 -78 -56 -132q-56 -53 -136 -53q-81 0 -137 55q-56 54 -56 130zM135 0v1020h335v-1020h-335z"/>
<glyph unicode="j" horiz-adv-x="612" d="M-75 -475l23 280q30 -10 71 -10q123 0 123 178v1047h336v-1047q0 -465 -408 -465q-86 0 -145 17zM118 1346q0 74 55 129q57 55 137 55t136 -54q57 -54 57 -130q0 -78 -57 -132q-56 -53 -136 -53q-81 0 -137 55q-55 54 -55 130z"/>
<glyph unicode="k" horiz-adv-x="1218" d="M133 0v1548h338v-942h6l326 414h407l-393 -461l410 -559h-416l-334 489h-6v-489h-338z"/>
<glyph unicode="l" horiz-adv-x="610" d="M135 0v1548h340v-1548h-340z"/>
<glyph unicode="m" horiz-adv-x="1892" d="M131 0v1020h326v-141h4q93 170 305 170q217 0 307 -175q111 175 326 175q190 0 289 -137q81 -113 81 -281v-631h-335v557q0 215 -146 215q-81 0 -128 -67q-42 -62 -42 -154v-551h-336v582q0 190 -145 190q-78 0 -124 -63q-44 -61 -44 -156v-553h-338z"/>
<glyph unicode="n" horiz-adv-x="1261" d="M131 0v1020h326v-141h4q89 170 305 170q191 0 289 -133q84 -111 84 -285v-631h-338v557q0 215 -152 215q-85 0 -135 -66q-45 -60 -45 -153v-553h-338z"/>
<glyph unicode="o" horiz-adv-x="1294" d="M79 514q0 243 167 395q160 144 398 144q240 0 400 -144q168 -151 168 -395t-168 -399q-161 -148 -400 -148q-237 0 -398 148q-167 155 -167 399zM405 514q0 -106 61 -181q68 -83 180 -83t180 83q62 75 62 181q0 105 -63 179q-68 81 -181 81q-112 0 -179 -81 q-60 -73 -60 -179z"/>
<glyph unicode="p" horiz-adv-x="1345" d="M131 -492v1512h319v-125h7q115 154 325 154q216 0 353 -161q131 -153 131 -374q0 -224 -128 -378q-136 -165 -358 -165q-207 0 -309 142h-4v-605h-336zM455 512q0 -105 66 -181q70 -81 179 -81q114 0 180 82q60 74 60 182q0 106 -60 179q-66 81 -180 81q-108 0 -179 -83 q-66 -76 -66 -179z"/>
<glyph unicode="q" horiz-adv-x="1345" d="M79 514q0 222 129 374q136 161 352 161q213 0 328 -154h6v125h318v-1512h-334v605h-4q-106 -142 -310 -142q-222 0 -358 165q-127 153 -127 378zM403 514q0 -108 61 -182q67 -82 180 -82q109 0 180 81q66 76 66 181q0 103 -66 179q-71 83 -180 83q-113 0 -180 -81 q-61 -73 -61 -179z"/>
<glyph unicode="r" horiz-adv-x="811" d="M131 0v1020h324v-148h4q88 177 276 177q50 0 72 -9l-14 -295q-39 11 -87 11q-120 0 -187 -85q-52 -66 -52 -147v-524h-336z"/>
<glyph unicode="s" horiz-adv-x="966" d="M22 125l188 199q104 -115 250 -115q121 0 121 88q0 45 -49 70q-38 20 -154 47q-297 69 -297 297q0 168 139 262q119 80 285 80q257 0 410 -144l-184 -190q-96 92 -213 92q-127 0 -127 -82q0 -40 44 -62q34 -17 142 -40q326 -73 326 -312q0 -178 -140 -270 q-117 -78 -297 -78q-280 0 -444 158z"/>
<glyph unicode="t" horiz-adv-x="761" d="M4 768v252h162v268h330v-268h239v-252h-239v-389q0 -143 126 -143q59 0 99 16l4 -246q-85 -31 -195 -31q-362 0 -362 363v430h-164z"/>
<glyph unicode="u" horiz-adv-x="1257" d="M120 389v631h338v-553q0 -217 151 -217q84 0 134 66q47 61 47 153v551h336v-1020h-324v141h-4q-89 -170 -307 -170q-191 0 -289 132q-82 112 -82 286z"/>
<glyph unicode="v" horiz-adv-x="1161" d="M-2 1020h371l215 -662h6l215 662h358l-401 -1020h-363z"/>
<glyph unicode="w" horiz-adv-x="1783" d="M0 1020h362l177 -645h6l182 645h338l188 -645h4l179 645h348l-354 -1020h-338l-201 635h-4l-197 -635h-338z"/>
<glyph unicode="x" horiz-adv-x="1216" d="M-6 0l408 535l-369 485h391l191 -272l192 272h379l-367 -485l404 -535h-395l-220 313l-225 -313h-389z"/>
<glyph unicode="y" horiz-adv-x="1161" d="M-2 1020h373l227 -655h6l203 655h356l-456 -1174q-67 -172 -159 -248q-108 -90 -290 -90q-94 0 -184 23l37 283q59 -19 108 -19q121 0 172 137l33 84z"/>
<glyph unicode="z" horiz-adv-x="1048" d="M69 0v262l479 500h-461v258h871v-252l-494 -508h514v-260h-909z"/>
<glyph unicode="{" horiz-adv-x="700" d="M12 477v225q137 0 137 144v350q0 138 77 221q76 82 204 82h168v-215h-97q-94 0 -94 -123v-342q0 -106 -70 -170q-54 -49 -120 -57v-4q68 -7 120 -53q70 -65 70 -183v-334q0 -122 94 -122h97v-215h-168q-128 0 -204 82q-77 82 -77 221v342q0 151 -137 151z"/>
<glyph unicode="|" horiz-adv-x="493" d="M112 1536h268v-2048h-266z"/>
<glyph unicode="}" horiz-adv-x="700" d="M102 -104h96q94 0 94 122v334q0 118 71 183q52 46 120 53v4q-66 8 -120 57q-71 64 -71 170v342q0 123 -94 123h-96v215h168q128 0 204 -82q77 -83 77 -221v-350q0 -144 137 -144v-225q-137 0 -137 -151v-342q0 -139 -77 -221q-76 -82 -204 -82h-168v215z"/>
<glyph unicode="~" horiz-adv-x="1363" d="M174 604q105 203 281 203q119 0 245 -76q142 -82 203 -82q81 0 178 146l133 -207v-4q-120 -205 -284 -205q-107 0 -230 78q-124 78 -219 78q-102 0 -172 -144z"/>
<glyph unicode="­" horiz-adv-x="667" d="M73 403v267h520v-267h-520z"/>
<glyph unicode="А" horiz-adv-x="1492" d="M-28 0l608 1450h340l602 -1450h-389l-112 285h-562l-106 -285h-381zM560 565h364l-180 498z"/>
<glyph unicode="Б" horiz-adv-x="1355" d="M149 0v1450h1020v-285h-670v-274h225q244 0 386 -100q163 -115 163 -345q0 -222 -162 -340q-146 -106 -384 -106h-578zM499 279h189q233 0 233 170q0 169 -233 169h-189v-339z"/>
<glyph unicode="В" horiz-adv-x="1361" d="M149 0v1450h578q202 0 331 -77q162 -96 162 -296q0 -234 -237 -313v-4q130 -23 210 -108q86 -93 86 -230q0 -219 -172 -329q-146 -93 -380 -93h-578zM487 283h197q245 0 245 172q0 159 -248 159h-194v-331zM487 872h188q207 0 207 158q0 141 -223 141h-172v-299z"/>
<glyph unicode="Г" horiz-adv-x="1071" d="M149 0v1450h911v-299h-561v-1151h-350z"/>
<glyph unicode="Д" horiz-adv-x="1646" d="M24 299h127q197 243 197 782v369h1097v-1151h160v-608h-307v309h-967v-309h-307v608zM530 299h565v854h-409v-117q0 -494 -156 -737z"/>
<glyph unicode="Е" horiz-adv-x="1243" d="M149 0v1450h975v-297h-637v-272h602v-281h-602v-301h674v-299h-1012z"/>
<glyph unicode="Ж" horiz-adv-x="2150" d="M-36 0l590 788l-557 662h420l483 -606v606h348v-606h4l481 606h422l-561 -662l594 -788h-440l-494 680h-4v-680h-350v680h-2l-498 -680h-436z"/>
<glyph unicode="З" horiz-adv-x="1251" d="M28 178l209 228q120 -154 328 -154q100 0 169 49q74 53 74 139q0 183 -288 183h-117v251h125q248 0 248 170q0 73 -67 117q-60 39 -140 39q-182 0 -293 -127l-203 215q197 201 526 201q241 0 383 -104q144 -105 144 -287q0 -126 -70 -218q-66 -85 -170 -114v-6 q283 -76 283 -352q0 -211 -177 -336q-156 -111 -374 -111q-376 0 -590 217z"/>
<glyph unicode="И" horiz-adv-x="1579" d="M149 0v1450h346v-954h8l557 954h369v-1450h-346v932h-6l-553 -932h-375z"/>
<glyph unicode="Й" horiz-adv-x="1579" d="M149 0v1450h346v-954h8l557 954h369v-1450h-346v932h-6l-553 -932h-375zM417 1851l174 35q20 -137 185 -137q162 0 182 137l176 -35q-47 -286 -358 -286q-314 0 -359 286z"/>
<glyph unicode="К" horiz-adv-x="1456" d="M149 0v1450h344v-590h6l518 590h439l-625 -668l661 -782h-456l-539 668h-4v-668h-344z"/>
<glyph unicode="Л" horiz-adv-x="1636" d="M14 8l29 291q40 -14 86 -14q126 0 184 129q68 151 68 524v512h1106v-1450h-351v1153h-420v-201q0 -523 -120 -748q-117 -218 -381 -218q-126 0 -201 22z"/>
<glyph unicode="М" horiz-adv-x="1955" d="M149 0v1450h498l329 -930h9l315 930h506v-1450h-342l8 1026h-6l-377 -1026h-246l-366 1026h-6l8 -1026h-330z"/>
<glyph unicode="Н" horiz-adv-x="1564" d="M149 0v1450h350v-549h565v549h351v-1450h-351v606h-565v-606h-350z"/>
<glyph unicode="О" horiz-adv-x="1742" d="M81 731q0 344 225 553q218 205 563 205q347 0 566 -205q225 -209 225 -553q0 -341 -225 -557q-222 -213 -566 -213q-342 0 -563 213q-225 216 -225 557zM456 731q0 -197 115 -323q116 -127 298 -127q183 0 300 127q116 126 116 323q0 192 -115 317q-117 126 -301 126 q-182 0 -299 -126q-114 -125 -114 -317z"/>
<glyph unicode="П" horiz-adv-x="1556" d="M149 0v1450h1257v-1450h-350v1153h-557v-1153h-350z"/>
<glyph unicode="Р" horiz-adv-x="1310" d="M149 0v1450h532q568 0 568 -446q0 -236 -174 -355q-151 -102 -402 -102h-174v-547h-350zM499 825h148q252 0 252 176q0 166 -246 166h-154v-342z"/>
<glyph unicode="С" horiz-adv-x="1425" d="M81 727q0 342 227 555q221 207 559 207q358 0 543 -213l-237 -238q-97 133 -293 133q-183 0 -301 -126q-117 -125 -117 -318q0 -198 115 -321t297 -123q201 0 307 147l243 -229q-206 -240 -563 -240q-338 0 -557 213q-223 215 -223 553z"/>
<glyph unicode="Т" horiz-adv-x="1189" d="M10 1151v299h1169v-299h-409v-1151h-350v1151h-410z"/>
<glyph unicode="У" horiz-adv-x="1394" d="M-30 1450h403l340 -662l320 662h393l-543 -1032q-122 -233 -208 -317q-129 -126 -332 -126q-137 0 -232 25l43 289q72 -23 131 -23q89 0 142 52q38 36 90 141l6 12z"/>
<glyph unicode="Ф" horiz-adv-x="1855" d="M71 748q0 284 183 444q177 155 497 166v131h350v-131q319 -11 498 -166q184 -159 184 -444q0 -268 -191 -438q-190 -170 -491 -173v-176h-350v176q-300 3 -489 171q-191 169 -191 440zM429 745q0 -276 322 -311v627q-322 -29 -322 -316zM1101 434q322 35 322 311 q0 287 -322 316v-627z"/>
<glyph unicode="Х" horiz-adv-x="1439" d="M-16 0l508 766l-467 684h422l270 -451l266 451h408l-459 -684l525 -766h-433l-317 512l-305 -512h-418z"/>
<glyph unicode="Ц" horiz-adv-x="1605" d="M149 0v1450h350v-1151h557v1151h350v-1151h158v-608h-307v309h-1108z"/>
<glyph unicode="Ч" horiz-adv-x="1437" d="M131 915v535h346v-446q0 -123 55 -175q54 -51 179 -51q150 0 227 37v635h350v-1450h-350v537q-162 -45 -324 -45q-248 0 -364 100q-119 103 -119 323z"/>
<glyph unicode="Ш" horiz-adv-x="2263" d="M149 0v1450h350v-1151h457v1151h350v-1151h457v1151h350v-1450h-1964z"/>
<glyph unicode="Щ" horiz-adv-x="2312" d="M149 0v1450h350v-1151h457v1151h350v-1151h457v1151h350v-1151h158v-608h-307v309h-1815z"/>
<glyph unicode="Ъ" horiz-adv-x="1478" d="M10 1153v297h651v-532h185q250 0 397 -103q168 -118 168 -354q0 -230 -168 -352q-150 -109 -395 -109h-537v1153h-301zM661 279h160q244 0 244 184q0 182 -244 182h-160v-366z"/>
<glyph unicode="Ы" horiz-adv-x="1916" d="M149 0v1450h350v-532h185q250 0 397 -104q168 -118 168 -353q0 -231 -169 -353q-150 -108 -394 -108h-537zM499 279h158q244 0 244 184q0 182 -244 182h-158v-366zM1419 0v1450h348v-1450h-348z"/>
<glyph unicode="Ь" horiz-adv-x="1310" d="M149 0v1450h350v-532h185q250 0 397 -104q168 -118 168 -353q0 -231 -169 -353q-150 -108 -394 -108h-537zM499 279h158q244 0 244 184q0 182 -244 182h-158v-366z"/>
<glyph unicode="Э" horiz-adv-x="1425" d="M10 197l213 235q113 -156 350 -156q149 0 256 94q105 91 125 230h-538v279h534q-28 126 -130 208q-107 87 -249 87q-227 0 -330 -146l-221 248q197 213 547 213q332 0 552 -212q224 -215 224 -552q0 -335 -223 -551q-221 -213 -553 -213q-357 0 -557 236z"/>
<glyph unicode="Ю" horiz-adv-x="2281" d="M149 0v1450h350v-553h230q50 265 241 426q198 166 486 166q333 0 540 -218q203 -213 203 -542q0 -330 -203 -546q-208 -222 -540 -222q-302 0 -504 184q-196 178 -232 465h-221v-610h-350zM1085 729q0 -191 97 -316q103 -132 274 -132q169 0 271 132q97 125 97 316 t-97 314q-101 131 -271 131q-172 0 -274 -131q-97 -123 -97 -314z"/>
<glyph unicode="Я" horiz-adv-x="1368" d="M36 0l365 592q-287 99 -287 412q0 233 170 347q146 99 401 99h533v-1450h-351v539h-122l-306 -539h-403zM458 991q0 -186 258 -186h151v366h-163q-246 0 -246 -180z"/>
<glyph unicode="а" horiz-adv-x="1159" d="M67 295q0 344 655 344v16q0 148 -184 148q-140 0 -252 -105l-170 183q182 172 455 172q253 0 363 -131q106 -126 106 -408v-514h-307v109h-7q-81 -134 -288 -134q-145 0 -246 70q-125 86 -125 250zM376 305q0 -104 146 -104q100 0 156 57q55 55 55 152v34h-43 q-314 0 -314 -139z"/>
<glyph unicode="б" horiz-adv-x="1318" d="M98 629q0 397 82 570q106 223 401 261l222 29q161 21 184 98l237 -67q-30 -147 -104 -217q-71 -65 -205 -82l-260 -35q-158 -22 -224 -80q-92 -82 -104 -289h4q121 209 402 209q208 0 351 -137q153 -147 153 -385q0 -244 -165 -393q-158 -144 -403 -144q-236 0 -397 148 q-174 160 -174 514zM430 514q0 -106 61 -181q68 -83 180 -83t180 83q62 75 62 181q0 105 -63 179q-68 81 -181 81q-112 0 -179 -81q-60 -73 -60 -179z"/>
<glyph unicode="в" horiz-adv-x="1198" d="M131 0v1020h565q375 0 375 -268q0 -167 -162 -215v-5q89 -16 145 -76q62 -66 62 -163q0 -145 -116 -223q-105 -70 -277 -70h-592zM459 207h166q155 0 155 115q0 112 -160 112h-161v-227zM459 608h164q129 0 129 107q0 100 -144 100h-149v-207z"/>
<glyph unicode="г" horiz-adv-x="919" d="M131 0v1020h748v-258h-410v-762h-338z"/>
<glyph unicode="д" horiz-adv-x="1341" d="M20 -256v516h96q125 157 125 500v260h928v-760h141v-516h-274v256h-742v-256h-274zM462 260h369v502h-274v-86q0 -260 -95 -416z"/>
<glyph unicode="е" horiz-adv-x="1220" d="M79 506q0 246 159 398q155 149 392 149q229 0 369 -147q143 -151 143 -408q0 -56 -2 -80h-739q7 -83 80 -139q71 -54 163 -54q147 0 226 107l233 -148q-150 -217 -463 -217q-240 0 -396 141q-165 148 -165 398zM401 627h432q0 84 -51 137q-54 57 -150 57q-95 0 -161 -58 q-64 -56 -70 -136z"/>
<glyph unicode="ж" horiz-adv-x="1755" d="M-8 0l373 539l-348 481h389l297 -453h6v453h338v-453h6l297 453h389l-348 -481l373 -539h-392l-319 477h-6v-477h-338v477h-6l-320 -477h-391z"/>
<glyph unicode="з" horiz-adv-x="1028" d="M20 135l168 184q101 -116 262 -116q170 0 170 106q0 109 -205 109h-88v209h92q176 0 176 100q0 86 -143 86q-145 0 -231 -92l-160 170q152 162 434 162q189 0 303 -74q117 -76 117 -207q0 -88 -53 -154q-51 -63 -131 -81v-7q215 -50 215 -249q0 -152 -140 -241 q-124 -79 -297 -79q-321 0 -489 174z"/>
<glyph unicode="и" horiz-adv-x="1308" d="M131 0v1020h332v-594h4l354 594h357v-1020h-328v580h-6l-348 -580h-365z"/>
<glyph unicode="й" horiz-adv-x="1308" d="M131 0v1020h332v-594h4l354 594h357v-1020h-328v580h-6l-348 -580h-365zM315 1440l164 33q18 -121 174 -121q158 0 172 121l164 -33q-41 -269 -336 -269q-293 0 -338 269z"/>
<glyph unicode="к" horiz-adv-x="1226" d="M131 0v1020h338v-432h6l334 432h407l-399 -477l418 -543h-412l-348 461h-6v-461h-338z"/>
<glyph unicode="л" horiz-adv-x="1310" d="M10 4l20 256q25 -8 64 -8q83 0 123 74q49 91 49 315v379h913v-1020h-338v762h-251v-182q0 -322 -102 -463q-94 -129 -294 -129q-131 0 -184 16z"/>
<glyph unicode="м" horiz-adv-x="1640" d="M131 0v1020h444l248 -608h4l234 608h448v-1020h-323v670h-6l-263 -670h-204l-260 672h-7v-672h-315z"/>
<glyph unicode="н" horiz-adv-x="1269" d="M131 0v1020h338v-361h332v361h338v-1020h-338v401h-332v-401h-338z"/>
<glyph unicode="о" horiz-adv-x="1294" d="M79 514q0 243 167 395q160 144 398 144q240 0 400 -144q168 -151 168 -395t-168 -399q-161 -148 -400 -148q-237 0 -398 148q-167 155 -167 399zM405 514q0 -106 61 -181q68 -83 180 -83t180 83q62 75 62 181q0 105 -63 179q-68 81 -181 81q-112 0 -179 -81 q-60 -73 -60 -179z"/>
<glyph unicode="п" horiz-adv-x="1269" d="M131 0v1020h1008v-1020h-338v762h-332v-762h-338z"/>
<glyph unicode="р" horiz-adv-x="1345" d="M131 -492v1512h319v-125h7q115 154 325 154q216 0 353 -161q131 -153 131 -374q0 -224 -128 -378q-136 -165 -358 -165q-207 0 -309 142h-4v-605h-336zM455 512q0 -105 66 -181q70 -81 179 -81q114 0 180 82q60 74 60 182q0 106 -60 179q-66 81 -180 81q-108 0 -179 -83 q-66 -76 -66 -179z"/>
<glyph unicode="с" horiz-adv-x="1030" d="M79 510q0 244 166 396q160 147 403 147q245 0 379 -138l-194 -225q-62 82 -179 82q-103 0 -170 -78q-65 -75 -65 -184t64 -183q68 -77 176 -77q119 0 182 76l186 -228q-134 -131 -377 -131q-247 0 -406 145q-165 150 -165 398z"/>
<glyph unicode="т" horiz-adv-x="1030" d="M40 762v258h948v-258h-305v-762h-338v762h-305z"/>
<glyph unicode="у" horiz-adv-x="1161" d="M-2 1020h373l227 -655h6l203 655h356l-456 -1174q-67 -172 -159 -248q-108 -90 -290 -90q-94 0 -184 23l37 283q59 -19 108 -19q121 0 172 137l33 84z"/>
<glyph unicode="ф" horiz-adv-x="1705" d="M79 508q0 247 162 391q161 143 442 150v499h338v-499q282 -7 443 -150q161 -144 161 -391q0 -248 -161 -393t-443 -150v-457h-338v457q-282 5 -443 150t-161 393zM419 510q0 -258 264 -266v530q-264 -9 -264 -264zM1021 244q264 8 264 266q0 255 -264 264v-530z"/>
<glyph unicode="х" horiz-adv-x="1216" d="M-6 0l408 535l-369 485h391l191 -272l192 272h379l-367 -485l404 -535h-395l-220 313l-225 -313h-389z"/>
<glyph unicode="ц" horiz-adv-x="1314" d="M131 0v1020h338v-760h336v760h338v-760h141v-516h-274v256h-879z"/>
<glyph unicode="ч" horiz-adv-x="1206" d="M106 641v379h330v-277q0 -98 42 -136q35 -32 122 -32q45 0 137 19v426h338v-1020h-338v350q-99 -26 -258 -26q-373 0 -373 317z"/>
<glyph unicode="ш" horiz-adv-x="1853" d="M131 0v1020h338v-760h289v760h338v-760h288v760h338v-1020h-1591z"/>
<glyph unicode="щ" horiz-adv-x="1894" d="M131 0v1020h338v-760h289v760h338v-760h288v760h338v-760h142v-516h-275v256h-1458z"/>
<glyph unicode="ъ" horiz-adv-x="1306" d="M40 762v258h580v-334h206q189 0 298 -77q124 -88 124 -263q0 -171 -124 -263q-112 -83 -298 -83h-544v762h-242zM620 221h143q154 0 154 127q0 121 -154 121h-143v-248z"/>
<glyph unicode="ы" horiz-adv-x="1705" d="M131 0v1020h338v-334h207q188 0 297 -77q125 -88 125 -263q0 -171 -125 -263q-112 -83 -297 -83h-545zM469 221h143q154 0 154 127q0 121 -154 121h-143v-248zM1237 0v1020h338v-1020h-338z"/>
<glyph unicode="ь" horiz-adv-x="1155" d="M131 0v1020h338v-334h207q188 0 297 -77q125 -88 125 -263q0 -171 -125 -263q-112 -83 -297 -83h-545zM469 221h143q154 0 154 127q0 121 -154 121h-143v-248z"/>
<glyph unicode="э" horiz-adv-x="1060" d="M2 102l168 215q76 -90 219 -90q218 0 256 191h-352v213h344q-44 168 -242 168q-144 0 -227 -94l-160 217q145 131 393 131q264 0 422 -151q158 -149 158 -394q0 -247 -155 -395q-157 -150 -423 -150q-248 0 -401 139z"/>
<glyph unicode="ю" horiz-adv-x="1789" d="M131 0v1020h338v-367h151q45 183 192 292q146 108 341 108q234 0 391 -147q164 -152 164 -396t-164 -398q-157 -147 -391 -147q-203 0 -352 118q-152 121 -187 320h-145v-403h-338zM924 510q0 -114 63 -186t166 -72q106 0 169 73q62 71 62 185t-62 186q-65 74 -169 74 q-103 0 -167 -74q-62 -72 -62 -186z"/>
<glyph unicode="я" horiz-adv-x="1230" d="M61 0l240 375q-207 74 -207 303q0 170 125 261q112 81 293 81h569v-1020h-338v338h-125l-174 -338h-383zM411 678q0 -129 170 -129h162v258h-162q-170 0 -170 -129z"/>
<glyph unicode=" " horiz-adv-x="943"/>
<glyph unicode=" " horiz-adv-x="1886"/>
<glyph unicode=" " horiz-adv-x="943"/>
<glyph unicode=" " horiz-adv-x="1886"/>
<glyph unicode=" " horiz-adv-x="628"/>
<glyph unicode=" " horiz-adv-x="471"/>
<glyph unicode=" " horiz-adv-x="314"/>
<glyph unicode=" " horiz-adv-x="314"/>
<glyph unicode=" " horiz-adv-x="235"/>
<glyph unicode=" " horiz-adv-x="377"/>
<glyph unicode=" " horiz-adv-x="104"/>
<glyph unicode="‐" horiz-adv-x="667" d="M73 403v267h520v-267h-520z"/>
<glyph unicode="‑" horiz-adv-x="667" d="M73 403v267h520v-267h-520z"/>
<glyph unicode="‒" horiz-adv-x="667" d="M73 403v267h520v-267h-520z"/>
<glyph unicode="–" horiz-adv-x="1171" d="M73 403v267h1024v-267h-1024z"/>
<glyph unicode="—" horiz-adv-x="2195" d="M73 403v267h2048v-267h-2048z"/>
<glyph unicode=" " horiz-adv-x="377"/>
<glyph unicode=" " horiz-adv-x="471"/>
<glyph unicode="◼" horiz-adv-x="1020" d="M0 0v1020h1020v-1020h-1020z"/>
</font>
</defs>
</svg>
