<svg id="Слой_1" data-name="Слой 1" xmlns="http://www.w3.org/2000/svg" viewBox="0 0 30 30"><defs><style>.cls-1{fill:#adadaf;}</style></defs><title>icon</title><polygon class="cls-1" points="4 10.35 4 21.23 10.54 15.79 4 10.35"/><path class="cls-1" d="M24.26,7H5.74A1.74,1.74,0,0,0,4,8.41l8.64,7.19,1.44,1.2a1.47,1.47,0,0,0,1.78,0l1.51-1.26L26,8.41A1.74,1.74,0,0,0,24.26,7Z"/><polygon class="cls-1" points="26 21.23 26 10.35 19.46 15.79 26 21.23"/><path class="cls-1" d="M17.06,17.79l-1.17,1a1.44,1.44,0,0,1-1.78,0L12.6,17.51l-.88-.74L4.65,22.65A1.74,1.74,0,0,0,5.74,23H24.26a1.74,1.74,0,0,0,1.09-.38l-7.07-5.88Z"/></svg>