<svg id="Слой_1" data-name="Слой 1" xmlns="http://www.w3.org/2000/svg" viewBox="0 0 30 30"><defs><style>.cls-1{fill:#adadaf;}</style></defs><title>icon</title><path class="cls-1" d="M18.11,10.72A3.11,3.11,0,1,0,15,13.84,3.11,3.11,0,0,0,18.11,10.72Z"/><path class="cls-1" d="M17.81,25.75c-.72.76-1.33,1.36-1.76,1.76a1.51,1.51,0,0,1-1,.43,1.58,1.58,0,0,1-1.1-.47c-.42-.4-1-1-1.72-1.72-1.48.31-2.47.86-2.47,1.49,0,1,2.36,1.76,5.28,1.76s5.28-.79,5.28-1.76C20.28,26.61,19.29,26.06,17.81,25.75Z"/><path class="cls-1" d="M13.28,25.58h0l.18.18,0,0a1.85,1.85,0,0,0,.14.14l0,.05.13.12,0,0,.3.29,0,0,.1.09s0,0,0,0l.08.08,0,0,.11.1.12.1,0,0,.08,0,.05,0,.07,0h.23l.07,0h0l.07,0,0,0,.1-.08.11-.11,0,0,.11-.1,0,0,.46-.45h0l.55-.55h0c2.76-2.85,7.87-8.89,7.87-14.64A9.91,9.91,0,0,0,15,1a9.91,9.91,0,0,0-9.59,9.94c0,5.74,5.11,11.79,7.87,14.64ZM9.84,10.72A5.16,5.16,0,1,1,15,15.89,5.16,5.16,0,0,1,9.84,10.72Z"/></svg>