<svg id="Слой_1" data-name="Слой 1" xmlns="http://www.w3.org/2000/svg" viewBox="0 0 30 30"><defs><style>.cls-1{fill:#adadaf;}</style></defs><title>icon</title><path class="cls-1" d="M12.12,11.63a3.47,3.47,0,0,0,.72-1c.58-1.44.32-1.71.32-1.71a12.08,12.08,0,0,0-2.29-3,12.08,12.08,0,0,0-3-2.29,2.48,2.48,0,0,0-2.35.6h0c-.14.14-.27.27-.39.41Z"/><path class="cls-1" d="M26.42,22.15a12.08,12.08,0,0,0-2.29-3,12.08,12.08,0,0,0-3-2.29s-.27-.26-1.71.32a3.47,3.47,0,0,0-1,.72l7,7c.14-.12.27-.25.42-.39h0A2.48,2.48,0,0,0,26.42,22.15Z"/><path class="cls-1" d="M17.62,18.89a1.15,1.15,0,0,1-1,.42,7.23,7.23,0,0,1-4-1.94c-1.07-1.07-2.73-4.09-1.53-5l.21-.13L4.49,5.42a5.3,5.3,0,0,0-1,2.81S3.32,13.9,9.71,20.29c6,6.05,11.46,6.21,12,6.21h.07a5.41,5.41,0,0,0,2.79-1l-6.83-6.83A2.39,2.39,0,0,0,17.62,18.89Z"/></svg>