<svg id="Слой_1" data-name="Слой 1" xmlns="http://www.w3.org/2000/svg" viewBox="0 0 30 30"><defs><style>.cls-1{fill:#adadaf;}</style></defs><title>icon</title><path class="cls-1" d="M3.5,16v-.15A1.18,1.18,0,0,1,4.09,15L6,14l3.61-2L13.5,10,17.06,8l3.5-1.89C21.62,5.55,22.68,5,23.75,4.4c.59-.31,1.2-.6,1.79-.9h.15a3,3,0,0,1,.32.12,1,1,0,0,1,.49.65v.15a2,2,0,0,1-.06.26l-1.17,4.7-1.62,6.48q-.7,2.81-1.4,5.61c-.34,1.36-.68,2.73-1,4.09a1.48,1.48,0,0,1-.3.63,1.89,1.89,0,0,1-.56.31h-.14a2.84,2.84,0,0,1-.59-.34c-.58-.55-1.12-1.11-1.68-1.67-.85-.85-1.71-1.7-2.56-2.56-.24-.24-.46-.49-.7-.74,0,0-.07,0-.08.07l-1.82,2.55c-.33.47-.66.94-1,1.4a.72.72,0,0,1-.72.35c-.31-.07-.39-.35-.43-.62-.09-.54-.15-1.08-.22-1.62-.2-1.56-.4-3.12-.59-4.68,0-.15-.06-.24-.22-.28l-2.95-.89-2.44-.73a1.33,1.33,0,0,1-.32-.15A1,1,0,0,1,3.5,16Zm20.77-9.8-.05,0L6.67,15.64l.15.06,3.74,1.13a.39.39,0,0,0,.39-.07l2.68-1.92,3.57-2.55L21.86,9A.39.39,0,0,1,22,8.91v0l-7.13,9.92,5,5Z"/></svg>