<svg id="Слой_1" data-name="Слой 1" xmlns="http://www.w3.org/2000/svg" viewBox="0 0 30 30"><defs><style>.cls-1{fill:#adadaf;}</style></defs><title>icon</title><path class="cls-1" d="M23.1,15a.82.82,0,0,1,.82-.81H25.5A10.54,10.54,0,0,0,15.81,4.5V6.08a.81.81,0,1,1-1.62,0V4.5A10.53,10.53,0,0,0,4.5,14.19H6.08a.81.81,0,1,1,0,1.62H4.5a7.35,7.35,0,0,0,.1.82,10.53,10.53,0,0,0,8.77,8.77,7.35,7.35,0,0,0,.82.1V23.92a.81.81,0,1,1,1.62,0V25.5a10.53,10.53,0,0,0,9.69-9.69H23.92A.82.82,0,0,1,23.1,15Zm-6.89.07a1.16,1.16,0,0,1-.14.49,1.19,1.19,0,0,1-.72.6,1,1,0,0,1-.35.06,1.22,1.22,0,0,1-1.19-1l-.6-.17-3.34-1a.41.41,0,1,1,.22-.78l3.83,1.1A1.21,1.21,0,0,1,15,13.78a1.22,1.22,0,0,1,1,.5l7-3.37a.41.41,0,0,1,.54.2.4.4,0,0,1-.19.54l-.61.29Z"/></svg>