<svg id="Слой_1" data-name="Слой 1" xmlns="http://www.w3.org/2000/svg" viewBox="0 0 30 30"><defs><style>.cls-1,.cls-2{fill:#adadaf;}.cls-2{fill-rule:evenodd;}</style></defs><title>icon</title><path class="cls-1" d="M15,2A13,13,0,1,1,5.81,5.81,13,13,0,0,1,15,2Zm8.47,4.53A12,12,0,1,0,27,15a11.92,11.92,0,0,0-3.52-8.47Z"/><path class="cls-2" d="M16.06,10.54c-.29,0-.65-.16-.72.22s.34.37.61.42c1.81.4,2.43,1.05,2.73,2.8a1.06,1.06,0,0,1,0,.25c0,.21.07.39.39.34a.22.22,0,0,0,.22-.23c0-.11,0-.25,0-.36a3.66,3.66,0,0,0-3.27-3.44Zm.17,1.39c-.19,0-.38,0-.45.22s.12.37.34.4a1.3,1.3,0,0,1,1.21,1.26.61.61,0,0,0,.08.25.29.29,0,0,0,.25.09.42.42,0,0,0,.16,0,.52.52,0,0,0,.13-.45,1.92,1.92,0,0,0-1.72-1.73ZM20,17.63c-.36-.29-.77-.55-1.14-.82-.77-.52-1.48-.56-2,.28a.91.91,0,0,1-1.25.29,5.38,5.38,0,0,1-2.89-2.76,1.42,1.42,0,0,1-.15-.57,1,1,0,0,1,.51-.91,1.07,1.07,0,0,0,.62-.93,6.27,6.27,0,0,0-2.15-2.87,1.11,1.11,0,0,0-.74,0,2,2,0,0,0-1.42,2.92,15.24,15.24,0,0,0,1.05,2.1,15.44,15.44,0,0,0,7.52,6.35,3.11,3.11,0,0,0,.62.17,2.78,2.78,0,0,0,2.28-1.71c.31-.82-.33-1.14-.82-1.54ZM15.49,9.75c2.92.44,4.27,1.81,4.64,4.69v.08c0,.26,0,.61.33.61s.32-.22.32-.45a1.55,1.55,0,0,1,0-.21,5.5,5.5,0,0,0-5.2-5.34c-.22,0-.65-.15-.69.32,0,.31.36.27.61.3Z"/></svg>