<svg id="Слой_1" data-name="Слой 1" xmlns="http://www.w3.org/2000/svg" viewBox="0 0 30 30"><defs><style>.cls-1,.cls-2{fill:#adadaf;}.cls-2{fill-rule:evenodd;}</style></defs><title>icon</title><path class="cls-1" d="M15,3a12,12,0,0,1,8.48,20.48A12,12,0,1,1,15,3Zm7.82,4.18A11.07,11.07,0,1,0,26.06,15a11,11,0,0,0-3.24-7.82Z"/><path class="cls-2" d="M21.12,14.69a6,6,0,0,0-12-.11,1.1,1.1,0,0,0,0,.26A5.91,5.91,0,0,0,10,17.92L8.87,21.13l3.33-1.06a6.1,6.1,0,0,0,2.91.74,6,6,0,0,0,6-6c0-.05,0-.09,0-.15Zm-3.26,1.36-1-.49c-.15,0-.24-.07-.34.08a6,6,0,0,1-.46.57c-.09.11-.18.11-.32.05a4,4,0,0,1-1.19-.73,4.61,4.61,0,0,1-.82-1c-.08-.16,0-.22.06-.31A3,3,0,0,0,14,14a.18.18,0,0,0,.05-.07,1.4,1.4,0,0,0,.09-.17.21.21,0,0,0,0-.25c0-.08-.33-.81-.45-1.09s-.25-.25-.33-.25h-.28a.53.53,0,0,0-.4.18,1.6,1.6,0,0,0-.52,1.22,1.43,1.43,0,0,0,.09.5,3.45,3.45,0,0,0,.51,1,6.08,6.08,0,0,0,2.52,2.21c1.51.58,1.51.38,1.78.36a1.45,1.45,0,0,0,1-.69,1.2,1.2,0,0,0,.08-.7c0-.05-.13-.09-.28-.16Zm-2.75,3.81A5,5,0,0,1,12.33,19l-1.94.62L11,17.78a5,5,0,0,1-1-2.94,3.75,3.75,0,0,1,0-.48,5.06,5.06,0,0,1,10.07.09c0,.13,0,.26,0,.39a5,5,0,0,1-5.05,5Z"/></svg>