<svg width="88" height="97" viewBox="0 0 88 97" fill="none" xmlns="http://www.w3.org/2000/svg"><script xmlns="" type="text/javascript" charset="utf-8" id="zm-extension"/>
<rect width="88" height="97" fill="black" fill-opacity="0"/>
<circle cx="44" cy="57" r="40" fill="#48B548"/>
<path d="M66.9575 93.6989C66.8262 93.2828 66.4402 93 66.004 93H21.996C21.5598 93 21.1738 93.2828 21.0425 93.6989L20.4109 95.6989C20.2073 96.3434 20.6886 97 21.3645 97H66.6355C67.3114 97 67.7926 96.3434 67.5891 95.6989L66.9575 93.6989Z" fill="#F2B19B"/>
<path d="M23.4285 86C23.4285 84.8954 24.3239 84 25.4285 84H62.5713C63.6759 84 64.5713 84.8954 64.5713 86V93H23.4285V86Z" fill="#FBCFC0"/>
<rect width="41.1429" height="9" fill="black" fill-opacity="0" transform="translate(23.4285 84)"/>
<mask id="mask0" mask-type="alpha" maskUnits="userSpaceOnUse" x="23" y="84" width="42" height="9">
<path d="M23.4285 86C23.4285 84.8954 24.3239 84 25.4285 84H62.5713C63.6759 84 64.5713 84.8954 64.5713 86V93H23.4285V86Z" fill="#FDDED4"/>
</mask>
<g mask="url(#mask0)">
<path d="M18.8572 86C18.8572 84.8954 19.7526 84 20.8572 84H67.1429C68.2475 84 69.1429 84.8954 69.1429 86V89H18.8572V86Z" fill="#FDDED4"/>
</g>
<path d="M30.2856 83C30.2856 81.8954 31.1811 81 32.2856 81H55.7142C56.8188 81 57.7142 81.8954 57.7142 83V84H30.2856V83Z" fill="#FBCFC0"/>
<path d="M42.0714 72.5789C42.0714 68.7895 39.9286 66.4386 38.8571 65.7368L44 61L49.1429 65.7368C48.0714 66.4386 45.9286 68.7895 45.9286 72.5789C45.9286 76.3684 50.6429 79.7719 53 81H44H35C37.3571 79.7719 42.0714 76.3684 42.0714 72.5789Z" fill="#FDDED4"/>
<rect width="18" height="20" fill="black" fill-opacity="0" transform="translate(35 61)"/>
<mask id="mask1" mask-type="alpha" maskUnits="userSpaceOnUse" x="35" y="61" width="18" height="20">
<path d="M42.0714 72.5789C42.0714 68.7895 39.9286 66.4386 38.8571 65.7368L44 61L49.1429 65.7368C48.0714 66.4386 45.9286 68.7895 45.9286 72.5789C45.9286 76.3684 50.6429 79.7719 53 81H44H35C37.3571 79.7719 42.0714 76.3684 42.0714 72.5789Z" fill="#FDDED4"/>
</mask>
<g mask="url(#mask1)">
<path d="M41.2161 9.93255C42.2238 7.42314 45.7762 7.42314 46.7839 9.93255L54.6777 29.5897C55.1068 30.6583 56.1097 31.3869 57.2586 31.4648L78.393 32.8979C81.0909 33.0808 82.1887 36.4594 80.1135 38.1932L63.8578 51.775C62.9741 52.5133 62.591 53.6923 62.872 54.8091L68.0399 75.3519C68.6997 77.9743 65.8257 80.0624 63.5355 78.6245L45.5951 67.3614C44.6198 66.7491 43.3802 66.7491 42.4049 67.3614L24.4645 78.6245C22.1743 80.0624 19.3003 77.9743 19.9601 75.3519L25.128 54.8091C25.409 53.6923 25.0259 52.5133 24.1422 51.775L7.88648 38.1932C5.81129 36.4594 6.90905 33.0808 9.60704 32.8979L30.7414 31.4648C31.8903 31.3869 32.8932 30.6583 33.3223 29.5897L41.2161 9.93255Z" fill="#F3C1B0"/>
</g>
<path d="M41.2161 6.93255C42.2238 4.42314 45.7762 4.42314 46.7839 6.93255L54.6777 26.5897C55.1068 27.6583 56.1097 28.3869 57.2586 28.4648L78.393 29.8979C81.0909 30.0808 82.1887 33.4594 80.1135 35.1932L63.8578 48.775C62.9741 49.5133 62.591 50.6923 62.872 51.8091L68.0399 72.3519C68.6997 74.9743 65.8257 77.0624 63.5355 75.6245L45.5951 64.3614C44.6198 63.7491 43.3802 63.7491 42.4049 64.3614L24.4645 75.6245C22.1743 77.0624 19.3003 74.9743 19.9601 72.3519L25.128 51.8091C25.409 50.6923 25.0259 49.5133 24.1422 48.775L7.88648 35.1932C5.81129 33.4594 6.90905 30.0808 9.60704 29.8979L30.7414 28.4648C31.8903 28.3869 32.8932 27.6583 33.3223 26.5897L41.2161 6.93255Z" fill="#FCB73F"/>
<path d="M42.1441 19.6217C42.8159 17.9488 45.1841 17.9488 45.8559 19.6217L51.0322 32.5118C51.3183 33.2242 51.9869 33.71 52.7529 33.7619L66.6116 34.7016C68.4103 34.8235 69.1421 37.0759 67.7587 38.2318L57.099 47.138C56.5099 47.6302 56.2545 48.4162 56.4418 49.1607L59.8307 62.6316C60.2705 64.3799 58.3545 65.7719 56.8277 64.8134L45.0634 57.4276C44.4132 57.0194 43.5868 57.0194 42.9366 57.4276L31.1723 64.8134C29.6455 65.7719 27.7295 64.3799 28.1693 62.6316L31.5582 49.1607C31.7455 48.4162 31.4901 47.6302 30.901 47.138L20.2413 38.2318C18.8579 37.0759 19.5897 34.8235 21.3884 34.7016L35.2471 33.7619C36.0131 33.71 36.6817 33.2242 36.9678 32.5118L42.1441 19.6217Z" fill="#FFDA9B"/>
<rect width="58" height="58" fill="black" fill-opacity="0" transform="translate(15 15)"/>
<mask id="mask2" mask-type="alpha" maskUnits="userSpaceOnUse" x="19" y="18" width="50" height="48">
<path d="M42.1441 19.6217C42.8159 17.9488 45.1841 17.9488 45.8559 19.6217L51.0322 32.5118C51.3183 33.2242 51.9869 33.71 52.7529 33.7619L66.6116 34.7016C68.4103 34.8235 69.1421 37.0759 67.7587 38.2318L57.099 47.138C56.5099 47.6302 56.2545 48.4162 56.4418 49.1607L59.8307 62.6316C60.2705 64.3799 58.3545 65.7719 56.8277 64.8134L45.0634 57.4276C44.4132 57.0194 43.5868 57.0194 42.9366 57.4276L31.1723 64.8134C29.6455 65.7719 27.7295 64.3799 28.1693 62.6316L31.5582 49.1607C31.7455 48.4162 31.4901 47.6302 30.901 47.138L20.2413 38.2318C18.8579 37.0759 19.5897 34.8235 21.3884 34.7016L35.2471 33.7619C36.0131 33.71 36.6817 33.2242 36.9678 32.5118L42.1441 19.6217Z" fill="#FFCB70"/>
</mask>
<g mask="url(#mask2)">
<path d="M45.269 21.2039C45.7314 20.0526 47.1194 19.5956 48.1752 20.2471L69.2328 33.2401C69.5095 33.4108 69.7403 33.6464 69.9054 33.9264L71.5077 36.6443C71.9772 37.4407 71.8397 38.455 71.1751 39.0977L60.389 49.5284C59.9274 49.9747 59.7082 50.6155 59.7997 51.251L61.8161 65.2597C62.0373 66.7967 60.4989 67.9885 59.066 67.3903L46.8882 62.3065C46.4167 62.1097 45.8878 62.1007 45.41 62.2816L30.2862 68.0041C28.9989 68.4912 27.6157 67.5626 27.5791 66.1868L27.1677 50.7522C27.1588 50.4156 27.065 50.0867 26.895 49.796L21.629 40.7885C20.8797 39.5067 21.739 37.8841 23.2203 37.7837L37.7891 36.7958C38.5551 36.7439 39.2237 36.2581 39.5098 35.5457L45.269 21.2039Z" fill="#FFCB70"/>
</g>
<rect width="58" height="58" fill="black" fill-opacity="0" transform="translate(15 15)"/>
<mask id="mask3" mask-type="alpha" maskUnits="userSpaceOnUse" x="19" y="18" width="50" height="48">
<path d="M42.1441 19.6217C42.8159 17.9488 45.1841 17.9488 45.8559 19.6217L51.0322 32.5118C51.3183 33.2242 51.9869 33.71 52.7529 33.7619L66.6116 34.7016C68.4103 34.8235 69.1421 37.0759 67.7587 38.2318L57.099 47.138C56.5099 47.6302 56.2545 48.4162 56.4418 49.1607L59.8307 62.6316C60.2705 64.3799 58.3545 65.7719 56.8277 64.8134L45.0634 57.4276C44.4132 57.0194 43.5868 57.0194 42.9366 57.4276L31.1723 64.8134C29.6455 65.7719 27.7295 64.3799 28.1693 62.6316L31.5582 49.1607C31.7455 48.4162 31.4901 47.6302 30.901 47.138L20.2413 38.2318C18.8579 37.0759 19.5897 34.8235 21.3884 34.7016L35.2471 33.7619C36.0131 33.71 36.6817 33.2242 36.9678 32.5118L42.1441 19.6217Z" fill="#FFCB70"/>
</mask>
<g mask="url(#mask3)">
<path opacity="0.15" d="M13 86.5L71 11L45 -1C31.6667 4.5 4.6 15.8 3 17C1.4 18.2 -7.66667 31.1667 -12 37.5L13 86.5Z" fill="white"/>
</g>
</svg>