<svg width="87" height="93" viewBox="0 0 87 93" fill="none" xmlns="http://www.w3.org/2000/svg"><script xmlns="" type="text/javascript" charset="utf-8" id="zm-extension"/>
<rect width="87" height="93" fill="black" fill-opacity="0"/>
<circle cx="44" cy="53" r="40" fill="#48B548"/>
<rect width="87" height="93" fill="black" fill-opacity="0"/>
<path d="M25.6611 36.3679L54.2643 56.3806L28.6032 93L18.0569 77.6348L3.52541e-05 72.9874L25.6611 36.3679Z" fill="#F2B19B"/>
<rect width="54.2643" height="56.6321" fill="black" fill-opacity="0" transform="translate(0 36.3679)"/>
<mask id="mask0" mask-type="alpha" maskUnits="userSpaceOnUse" x="0" y="36" width="55" height="58">
<path d="M25.6611 36.3679L54.2643 56.3806L28.6032 93L18.0569 77.6348L3.52541e-05 72.9874L25.6611 36.3679Z" fill="#E6A28B"/>
</mask>
<g mask="url(#mask0)">
<path d="M38.9706 -2.57474C40.8473 -3.67762 43.174 -3.67762 45.0507 -2.57474L48.4517 -0.576029C49.5645 0.0779744 50.8586 0.355664 52.1418 0.215809L56.0502 -0.210167C58.2068 -0.445214 60.3223 0.502165 61.583 2.26758L63.9182 5.53755C64.6633 6.58085 65.7229 7.35807 66.9418 7.75532L70.7326 8.99072C72.779 9.65763 74.3114 11.3695 74.7485 13.4769L75.5816 17.4939C75.8396 18.7379 76.4858 19.8679 77.4271 20.7211L80.4457 23.457C82.029 24.8921 82.7295 27.061 82.2849 29.1511L81.4231 33.2024C81.1601 34.4384 81.2942 35.7259 81.8061 36.8813L83.4811 40.6619C84.3452 42.6122 84.1088 44.8747 82.8602 46.6043L80.4539 49.9375C79.7128 50.964 79.3155 52.1987 79.3187 53.4648L79.3292 57.5952C79.3347 59.7388 78.1961 61.7225 76.3424 62.799L72.8573 64.8229C71.7538 65.4637 70.8834 66.4397 70.3725 67.609L68.7457 71.3319C67.8803 73.3125 66.0165 74.6745 63.8666 74.8975L59.9356 75.3052C58.6552 75.438 57.4515 75.9791 56.5022 76.8484L53.5698 79.5341C51.966 81.0029 49.6929 81.4889 47.6286 80.8042L43.8995 79.5674C42.6731 79.1607 41.3482 79.1607 40.1219 79.5674L36.3927 80.8042C34.3285 81.4889 32.0554 81.0029 30.4515 79.5341L27.5191 76.8484C26.5698 75.9791 25.3661 75.438 24.0857 75.3052L20.1547 74.8975C18.0048 74.6745 16.141 73.3125 15.2756 71.3319L13.6489 67.609C13.1379 66.4397 12.2675 65.4637 11.164 64.8229L7.67891 62.799C5.8252 61.7225 4.68663 59.7388 4.69209 57.5952L4.70261 53.4648C4.70583 52.1987 4.30848 50.964 3.56741 49.9375L1.16111 46.6043C-0.0875129 44.8747 -0.323912 42.6122 0.54021 40.6619L2.21524 36.8813C2.72714 35.7259 2.86117 34.4384 2.59824 33.2024L1.73643 29.1511C1.29181 27.061 1.99237 24.8921 3.57567 23.457L6.59421 20.7211C7.53553 19.8679 8.18174 18.7379 8.43974 17.4939L9.27287 13.4769C9.70996 11.3695 11.2423 9.65763 13.2887 8.99073L17.0795 7.75532C18.2984 7.35807 19.3581 6.58085 20.1031 5.53755L22.4383 2.26758C23.699 0.502167 25.8146 -0.445214 27.9712 -0.210167L31.8796 0.215809C33.1627 0.355663 34.4568 0.0779753 35.5697 -0.576028L38.9706 -2.57474Z" fill="#DD9881"/>
</g>
<path d="M32.7356 55.9941L61.3388 35.9815L86.9999 72.6009L68.943 77.2483L58.3967 92.6136L32.7356 55.9941Z" fill="#F2B19B"/>
<rect width="54.2643" height="56.6321" fill="black" fill-opacity="0" transform="translate(32.7356 35.9814)"/>
<mask id="mask1" mask-type="alpha" maskUnits="userSpaceOnUse" x="32" y="35" width="55" height="58">
<path d="M32.7356 55.9941L61.3388 35.9815L86.9999 72.6009L68.943 77.2483L58.3967 92.6136L32.7356 55.9941Z" fill="#E6A28B"/>
</mask>
<g mask="url(#mask1)">
<path d="M40.062 -2.57474C41.9386 -3.67762 44.2654 -3.67762 46.142 -2.57474L49.543 -0.576029C50.6558 0.0779744 51.9499 0.355664 53.2331 0.215809L57.1415 -0.210167C59.2981 -0.445214 61.4136 0.502165 62.6743 2.26758L65.0095 5.53755C65.7546 6.58085 66.8142 7.35807 68.0331 7.75532L71.8239 8.99072C73.8703 9.65763 75.4027 11.3695 75.8398 13.4769L76.6729 17.4939C76.9309 18.7379 77.5771 19.8679 78.5184 20.7211L81.537 23.457C83.1203 24.8921 83.8208 27.061 83.3762 29.1511L82.5144 33.2024C82.2515 34.4384 82.3855 35.7259 82.8974 36.8813L84.5724 40.6619C85.4365 42.6122 85.2001 44.8747 83.9515 46.6043L81.5452 49.9375C80.8042 50.964 80.4068 52.1987 80.41 53.4648L80.4205 57.5952C80.426 59.7388 79.2874 61.7225 77.4337 62.799L73.9486 64.8229C72.8451 65.4637 71.9747 66.4397 71.4638 67.609L69.837 71.3319C68.9716 73.3125 67.1078 74.6745 64.958 74.8975L61.0269 75.3052C59.7465 75.438 58.5428 75.9791 57.5936 76.8484L54.6611 79.5341C53.0573 81.0029 50.7842 81.4889 48.72 80.8042L44.9908 79.5674C43.7644 79.1607 42.4395 79.1607 41.2132 79.5674L37.484 80.8042C35.4198 81.4889 33.1467 81.0029 31.5428 79.5341L28.6104 76.8484C27.6611 75.9791 26.4574 75.438 25.177 75.3052L21.246 74.8975C19.0961 74.6745 17.2323 73.3125 16.3669 71.3319L14.7402 67.609C14.2292 66.4397 13.3588 65.4637 12.2553 64.8229L8.77022 62.799C6.91651 61.7225 5.77793 59.7388 5.78339 57.5952L5.79392 53.4648C5.79714 52.1987 5.39979 50.964 4.65872 49.9375L2.25242 46.6043C1.0038 44.8747 0.767396 42.6122 1.63152 40.6619L3.30655 36.8813C3.81844 35.7259 3.95248 34.4384 3.68954 33.2024L2.82774 29.1511C2.38311 27.061 3.08368 24.8921 4.66698 23.457L7.68552 20.7211C8.62684 19.8679 9.27305 18.7379 9.53105 17.4939L10.3642 13.4769C10.8013 11.3695 12.3337 9.65763 14.38 8.99073L18.1708 7.75532C19.3897 7.35807 20.4494 6.58085 21.1944 5.53755L23.5296 2.26758C24.7904 0.502167 26.9059 -0.445214 29.0625 -0.210167L32.9709 0.215809C34.2541 0.355663 35.5481 0.0779753 36.661 -0.576028L40.062 -2.57474Z" fill="#DD9881"/>
</g>
<path d="M40.6359 1.74778C42.4982 0.667002 44.7969 0.667002 46.6592 1.74778L49.3801 3.32684C50.4844 3.96771 51.7643 4.2396 53.0338 4.10298L56.1624 3.76626C58.3037 3.53579 60.4043 4.47067 61.6663 6.21583L63.5072 8.76136C64.2557 9.79642 65.315 10.5656 66.531 10.9569L69.5229 11.9198C71.5741 12.5799 73.1138 14.2892 73.5567 16.398L74.2013 19.4672C74.464 20.718 75.1193 21.8522 76.0716 22.7047L78.4095 24.7972C80.0159 26.235 80.7274 28.424 80.2734 30.5315L79.6135 33.5947C79.3443 34.8446 79.4814 36.1478 80.0047 37.3143L81.2876 40.1736C82.1702 42.1407 81.9295 44.4301 80.657 46.1707L78.8067 48.7018C78.0522 49.7338 77.6471 50.9798 77.6504 52.2582L77.6585 55.3925C77.664 57.5479 76.5131 59.5406 74.6433 60.6128L71.9192 62.1751C70.8108 62.8107 69.9342 63.7836 69.4172 64.9521L68.1472 67.8223C67.2755 69.7922 65.4146 71.1437 63.2716 71.3632L60.1427 71.6837C58.8723 71.8138 57.6766 72.3458 56.7295 73.2024L54.3976 75.3112C52.8006 76.7556 50.552 77.2334 48.5056 76.5632L45.5151 75.5837C44.3018 75.1863 42.9933 75.1863 41.7801 75.5837L38.7895 76.5632C36.7431 77.2334 34.4945 76.7556 32.8975 75.3112L30.5656 73.2024C29.6185 72.3458 28.4228 71.8138 27.1524 71.6837L24.0235 71.3632C21.8805 71.1437 20.0196 69.7922 19.148 67.8223L17.8779 64.9521C17.3609 63.7836 16.4844 62.8107 15.3759 62.1751L12.6518 60.6128C10.782 59.5406 9.63108 57.5479 9.63664 55.3925L9.64472 52.2582C9.64802 50.9798 9.24291 49.7338 8.48843 48.7018L6.63809 46.1707C5.36565 44.4301 5.12493 42.1407 6.00752 40.1736L7.29037 37.3143C7.81376 36.1478 7.95082 34.8446 7.68156 33.5947L7.02169 30.5315C6.5677 28.424 7.27923 26.235 8.88558 24.7972L11.2235 22.7047C12.1758 21.8522 12.8311 20.718 13.0938 19.4672L13.7384 16.398C14.1813 14.2892 15.721 12.5799 17.7722 11.9198L20.7642 10.9569C21.9801 10.5656 23.0394 9.79642 23.7879 8.76136L25.6288 6.21583C26.8909 4.47067 28.9914 3.53579 31.1327 3.76626L34.2613 4.10298C35.5308 4.2396 36.8107 3.96771 37.915 3.32684L40.6359 1.74778Z" fill="#FFE9E2"/>
<rect width="78.5656" height="78.5048" fill="black" fill-opacity="0" transform="translate(4.36475)"/>
<mask id="mask2" mask-type="alpha" maskUnits="userSpaceOnUse" x="5" y="0" width="77" height="77">
<path d="M40.6359 1.74778C42.4982 0.667002 44.7969 0.667002 46.6592 1.74778L49.3801 3.32684C50.4844 3.96771 51.7643 4.2396 53.0338 4.10298L56.1624 3.76626C58.3037 3.53579 60.4043 4.47067 61.6663 6.21583L63.5072 8.76136C64.2557 9.79642 65.315 10.5656 66.531 10.9569L69.5229 11.9198C71.5741 12.5799 73.1138 14.2892 73.5567 16.398L74.2013 19.4672C74.464 20.718 75.1193 21.8522 76.0716 22.7047L78.4095 24.7972C80.0159 26.235 80.7274 28.424 80.2734 30.5315L79.6135 33.5947C79.3443 34.8446 79.4814 36.1478 80.0047 37.3143L81.2876 40.1736C82.1702 42.1407 81.9295 44.4301 80.657 46.1707L78.8067 48.7018C78.0522 49.7338 77.6471 50.9798 77.6504 52.2582L77.6585 55.3925C77.664 57.5479 76.5131 59.5406 74.6433 60.6128L71.9192 62.1751C70.8108 62.8107 69.9342 63.7836 69.4172 64.9521L68.1472 67.8223C67.2755 69.7922 65.4146 71.1437 63.2716 71.3632L60.1427 71.6837C58.8723 71.8138 57.6766 72.3458 56.7295 73.2024L54.3976 75.3112C52.8006 76.7556 50.552 77.2334 48.5056 76.5632L45.5151 75.5837C44.3018 75.1863 42.9933 75.1863 41.7801 75.5837L38.7895 76.5632C36.7431 77.2334 34.4945 76.7556 32.8975 75.3112L30.5656 73.2024C29.6185 72.3458 28.4228 71.8138 27.1524 71.6837L24.0235 71.3632C21.8805 71.1437 20.0196 69.7922 19.148 67.8223L17.8779 64.9521C17.3609 63.7836 16.4844 62.8107 15.3759 62.1751L12.6518 60.6128C10.782 59.5406 9.63108 57.5479 9.63664 55.3925L9.64472 52.2582C9.64802 50.9798 9.24291 49.7338 8.48843 48.7018L6.63809 46.1707C5.36565 44.4301 5.12493 42.1407 6.00752 40.1736L7.29037 37.3143C7.81376 36.1478 7.95082 34.8446 7.68156 33.5947L7.02169 30.5315C6.5677 28.424 7.27923 26.235 8.88558 24.7972L11.2235 22.7047C12.1758 21.8522 12.8311 20.718 13.0938 19.4672L13.7384 16.398C14.1813 14.2892 15.721 12.5799 17.7722 11.9198L20.7642 10.9569C21.9801 10.5656 23.0394 9.79642 23.7879 8.76136L25.6288 6.21583C26.8909 4.47067 28.9914 3.53579 31.1327 3.76626L34.2613 4.10298C35.5308 4.2396 36.8107 3.96771 37.915 3.32684L40.6359 1.74778Z" fill="#FDDED4"/>
</mask>
<g mask="url(#mask2)">
<path d="M44.2711 4.74778C46.1334 3.667 48.432 3.667 50.2943 4.74778L53.0153 6.32684C54.1196 6.96771 55.3995 7.2396 56.669 7.10298L63.2605 6.39355H69.3517C72.088 6.39355 74.4777 8.2449 75.1614 10.8945L76.4755 15.9874L77.8364 22.4672C78.0991 23.718 78.7544 24.8522 79.7068 25.7047L82.0447 27.7972C83.651 29.235 84.3626 31.424 83.9086 33.5315L83.2487 36.5947C82.9794 37.8446 83.1165 39.1478 83.6399 40.3143L84.9227 43.1736C85.8053 45.1407 85.5646 47.4301 84.2922 49.1707L82.4418 51.7018C81.6874 52.7338 81.2822 53.9798 81.2855 55.2582L81.2936 58.3925C81.2992 60.5479 80.1482 62.5406 78.2785 63.6128L75.5543 65.1751C74.4459 65.8107 73.5694 66.7836 73.0523 67.9521L71.7823 70.8223C70.9106 72.7922 69.0498 74.1437 66.9068 74.3632L63.7778 74.6837C62.5075 74.8138 61.3117 75.3458 60.3646 76.2024L58.0328 78.3112C56.4357 79.7556 54.1871 80.2334 52.1407 79.5632L49.1502 78.5837C47.9369 78.1863 46.6285 78.1863 45.4152 78.5837L42.4247 79.5632C40.3783 80.2334 38.1297 79.7556 36.5326 78.3112L34.2008 76.2024C33.2537 75.3458 32.0579 74.8138 30.7876 74.6837L25.1867 74.11C24.5287 74.0426 23.8863 73.8669 23.2856 73.5899L16.5757 70.496C15.8654 70.1685 15.226 69.7053 14.6935 69.1324L12.2973 66.5546C10.8292 64.9753 10.3215 62.7296 10.9674 60.6723L12.3771 56.1819C12.948 54.3636 12.6211 52.3823 11.4963 50.8437L10.2732 49.1707C9.0008 47.4301 8.76008 45.1407 9.64267 43.1736L10.9255 40.3143C11.4489 39.1478 11.586 37.8446 11.3167 36.5947L10.6568 33.5315C10.2028 31.424 10.9144 29.235 12.5207 27.7972L14.8586 25.7047C15.811 24.8522 16.4663 23.718 16.729 22.4672L17.3736 19.398C17.8165 17.2892 19.3562 15.5799 21.4074 14.9198L24.3993 13.9569C25.6152 13.5656 26.6746 12.7964 27.4231 11.7614L29.264 9.21583C30.526 7.47067 32.6266 6.53579 34.7679 6.76626L37.8965 7.10298C39.1659 7.2396 40.4459 6.96771 41.5502 6.32684L44.2711 4.74778Z" fill="#FDDED4"/>
</g>
<path d="M40.4866 12.7502C42.3498 11.668 44.6502 11.668 46.5134 12.7501L47.1916 13.144C48.2964 13.7857 49.5772 14.058 50.8475 13.9211L51.6273 13.8371C53.7695 13.6064 55.871 14.542 57.133 16.2884L57.5924 16.9241C58.3407 17.9597 59.4 18.7294 60.6161 19.121L61.3627 19.3615C63.4136 20.022 64.9528 21.7315 65.3954 23.8402L65.5564 24.6078C65.8189 25.8582 66.4736 26.9922 67.4252 27.8447L68.0094 28.3679C69.6144 29.8056 70.3252 31.9933 69.8718 34.0997L69.7068 34.8665C69.4379 36.1155 69.5748 37.4177 70.0975 38.5836L70.4183 39.2992C71.2997 41.2653 71.0593 43.5531 69.7883 45.293L69.3257 45.9263C68.5721 46.958 68.1674 48.2033 68.1707 49.481L68.1727 50.2653C68.1783 52.4199 67.0281 54.4121 65.1594 55.4846L64.4791 55.875C63.371 56.511 62.4948 57.484 61.9782 58.6526L61.661 59.3699C60.7897 61.3405 58.9287 62.6926 56.7853 62.9123L56.0051 62.9923C54.7341 63.1226 53.5379 63.6551 52.5906 64.5125L52.0091 65.0388C50.4116 66.4846 48.1615 66.9629 46.1141 66.2918L45.3688 66.0475C44.1547 65.6496 42.8453 65.6496 41.6312 66.0475L40.8859 66.2918C38.8385 66.9629 36.5884 66.4846 34.9909 65.0388L34.4094 64.5125C33.4621 63.6551 32.2659 63.1226 30.9949 62.9923L30.2147 62.9123C28.0713 62.6926 26.2103 61.3405 25.339 59.3699L25.0218 58.6526C24.5052 57.484 23.629 56.511 22.5209 55.875L21.8406 55.4846C19.9719 54.4121 18.8217 52.4199 18.8273 50.2653L18.8293 49.481C18.8326 48.2033 18.4279 46.958 17.6743 45.9263L17.2117 45.293C15.9407 43.5531 15.7003 41.2653 16.5817 39.2992L16.9025 38.5836C17.4252 37.4178 17.5621 36.1155 17.2932 34.8665L17.1282 34.0997C16.6748 31.9933 17.3856 29.8056 18.9906 28.3679L19.5748 27.8447C20.5264 26.9922 21.1811 25.8582 21.4436 24.6078L21.6046 23.8402C22.0472 21.7315 23.5864 20.022 25.6373 19.3615L26.3839 19.121C27.6 18.7294 28.6593 17.9597 29.4076 16.9241L29.867 16.2884C31.129 14.542 33.2305 13.6064 35.3727 13.8371L36.1525 13.9211C37.4228 14.058 38.7036 13.7857 39.8084 13.144L40.4866 12.7502Z" fill="#FBAB20"/>
<rect width="57" height="57" fill="black" fill-opacity="0" transform="translate(15 11)"/>
<mask id="mask3" mask-type="alpha" maskUnits="userSpaceOnUse" x="16" y="11" width="55" height="56">
<path d="M40.4866 12.7502C42.3498 11.668 44.6502 11.668 46.5134 12.7501L47.1916 13.144C48.2964 13.7857 49.5772 14.058 50.8475 13.9211L51.6273 13.8371C53.7695 13.6064 55.871 14.542 57.133 16.2884L57.5924 16.9241C58.3407 17.9597 59.4 18.7294 60.6161 19.121L61.3627 19.3615C63.4136 20.022 64.9528 21.7315 65.3954 23.8402L65.5564 24.6078C65.8189 25.8582 66.4736 26.9922 67.4252 27.8447L68.0094 28.3679C69.6144 29.8056 70.3252 31.9933 69.8718 34.0997L69.7068 34.8665C69.4379 36.1155 69.5748 37.4177 70.0975 38.5836L70.4183 39.2992C71.2997 41.2653 71.0593 43.5531 69.7883 45.293L69.3257 45.9263C68.5721 46.958 68.1674 48.2033 68.1707 49.481L68.1727 50.2653C68.1783 52.4199 67.0281 54.4121 65.1594 55.4846L64.4791 55.875C63.371 56.511 62.4948 57.484 61.9782 58.6526L61.661 59.3699C60.7897 61.3405 58.9287 62.6926 56.7853 62.9123L56.0051 62.9923C54.7341 63.1226 53.5379 63.6551 52.5906 64.5125L52.0091 65.0388C50.4116 66.4846 48.1615 66.9629 46.1141 66.2918L45.3688 66.0475C44.1547 65.6496 42.8453 65.6496 41.6312 66.0475L40.8859 66.2918C38.8385 66.9629 36.5884 66.4846 34.9909 65.0388L34.4094 64.5125C33.4621 63.6551 32.2659 63.1226 30.9949 62.9923L30.2147 62.9123C28.0713 62.6926 26.2103 61.3405 25.339 59.3699L25.0218 58.6526C24.5052 57.484 23.629 56.511 22.5209 55.875L21.8406 55.4846C19.9719 54.4121 18.8217 52.4199 18.8273 50.2653L18.8293 49.481C18.8326 48.2033 18.4279 46.958 17.6743 45.9263L17.2117 45.293C15.9407 43.5531 15.7003 41.2653 16.5817 39.2992L16.9025 38.5836C17.4252 37.4178 17.5621 36.1155 17.2932 34.8665L17.1282 34.0997C16.6748 31.9933 17.3856 29.8056 18.9906 28.3679L19.5748 27.8447C20.5264 26.9922 21.1811 25.8582 21.4436 24.6078L21.6046 23.8402C22.0472 21.7315 23.5864 20.022 25.6373 19.3615L26.3839 19.121C27.6 18.7294 28.6593 17.9597 29.4076 16.9241L29.867 16.2884C31.129 14.542 33.2305 13.6064 35.3727 13.8371L36.1525 13.9211C37.4228 14.058 38.7036 13.7857 39.8084 13.144L40.4866 12.7502Z" fill="#FCB73F"/>
</mask>
<g mask="url(#mask3)">
<path d="M40.4867 15.8039C42.3499 14.7217 44.6503 14.7217 46.5135 15.8039L47.7694 16.5333C48.8742 17.175 50.1551 17.4472 51.4254 17.3104L52.8694 17.1548C55.0116 16.9241 57.1131 17.8598 58.3751 19.6062L59.2258 20.7834C59.9741 21.8189 61.0334 22.5886 62.2496 22.9803L63.632 23.4255C65.6829 24.0861 67.2222 25.7956 67.6647 27.9043L67.963 29.3257C68.2254 30.5761 68.8801 31.7101 69.8318 32.5626L70.9137 33.5316C72.5186 34.9692 73.2294 37.157 72.776 39.2634L72.4704 40.6833C72.2015 41.9323 72.3384 43.2346 72.8611 44.4004L73.4553 45.7257C74.3367 47.6918 74.0962 49.9796 72.8253 51.7195L71.9686 52.8923C71.2149 53.924 70.8103 55.1693 70.8136 56.4469L70.8173 57.8993C70.8229 60.054 69.6727 62.0461 67.8039 63.1187L66.5443 63.8416C65.4361 64.4776 64.56 65.4507 64.0433 66.6192L63.456 67.9475C62.5847 69.9182 60.7237 71.2703 58.5802 71.49L57.1354 71.6381C55.8644 71.7683 54.6682 72.3009 53.7209 73.1583L52.6441 74.1329C51.0466 75.5788 48.7965 76.057 46.7491 75.3859L45.3689 74.9336C44.1548 74.5356 42.8454 74.5356 41.6313 74.9336L40.2512 75.3859C38.2037 76.057 35.9536 75.5788 34.3561 74.1329L33.2793 73.1583C32.332 72.3009 31.1358 71.7683 29.8648 71.6381L28.42 71.49C26.2766 71.2703 24.4155 69.9182 23.5442 67.9475L22.9569 66.6192C22.4402 65.4507 21.5641 64.4776 20.456 63.8416L19.1963 63.1187C17.3275 62.0461 16.1773 60.054 16.1829 57.8993L16.1866 56.4469C16.1899 55.1693 15.7853 53.924 15.0317 52.8923L14.1749 51.7195C12.904 49.9796 12.6635 47.6918 13.545 45.7257L14.1391 44.4004C14.6618 43.2346 14.7987 41.9323 14.5298 40.6833L14.2242 39.2634C13.7708 37.157 14.4816 34.9692 16.0866 33.5316L17.1684 32.5626C18.1201 31.7101 18.7748 30.5761 19.0372 29.3257L19.3355 27.9043C19.778 25.7956 21.3173 24.0861 23.3682 23.4255L24.7507 22.9803C25.9668 22.5886 27.0261 21.8189 27.7744 20.7834L28.6251 19.6062C29.8871 17.8597 31.9886 16.9241 34.1308 17.1548L35.5749 17.3104C36.8452 17.4472 38.126 17.175 39.2308 16.5333L40.4867 15.8039Z" fill="#FCB73F"/>
</g>
<path d="M53.7392 31.5249L53.1549 31.0583C52.1849 30.2837 50.7273 30.37 49.8709 31.2526L40.0953 41.3259L37.1445 38.964C36.1755 38.1885 34.7177 38.2731 33.8603 39.1547L33.3436 39.686C32.9246 40.1167 32.707 40.6847 32.7386 41.265C32.7705 41.8449 33.0489 42.3893 33.513 42.7785L38.922 47.3818C39.3903 47.7905 40.0179 48.0036 40.6594 47.972C41.3009 47.9404 41.9006 47.6665 42.3197 47.214L53.9893 34.6128C54.397 34.1726 54.5997 33.5999 54.5527 33.0208C54.5058 32.4414 54.2132 31.9034 53.7392 31.5249Z" fill="#363434"/>
</svg>