<svg width="86" height="92" viewBox="0 0 86 92" fill="none" xmlns="http://www.w3.org/2000/svg"><script xmlns="" type="text/javascript" charset="utf-8" id="zm-extension"/>
<rect width="85.8597" height="91.9111" fill="black" fill-opacity="0" transform="translate(0 0.0888672)"/>
<path d="M82 52C82 74.0914 64.0914 92 42 92C19.9086 92 2 74.0914 2 52C2 29.9086 19.9086 12 42 12C64.0914 12 82 29.9086 82 52Z" fill="#48B548"/>
<path d="M69.5508 19.5716C69.5508 29.7494 61.2168 38.0001 50.9362 38.0001C40.6556 38.0001 32.3215 29.7494 32.3215 19.5716C32.3215 9.3938 40.6556 1.14307 50.9362 1.14307C61.2168 1.14307 69.5508 9.3938 69.5508 19.5716Z" fill="#FCB73F"/>
<rect width="37.2293" height="36.857" fill="black" fill-opacity="0" transform="translate(32.3215 1.14307)"/>
<mask id="mask0" mask-type="alpha" maskUnits="userSpaceOnUse" x="32" y="1" width="38" height="38">
<ellipse cx="50.9362" cy="19.5716" rx="18.6146" ry="18.4285" fill="#FCB73F"/>
</mask>
<g mask="url(#mask0)">
<path opacity="0.2" d="M84.6188 23.4317C78.4505 29.5384 68.4496 29.5384 62.2813 23.4317C56.1129 17.3251 56.1129 7.4242 62.2813 1.31754C68.4496 -4.78912 78.4505 -4.78912 84.6188 1.31754C90.7871 7.4242 90.7871 17.3251 84.6188 23.4317Z" fill="#E59100"/>
</g>
<path d="M64.5866 19.5714C64.5866 27.0351 58.475 33.0856 50.9359 33.0856C43.3968 33.0856 37.2852 27.0351 37.2852 19.5714C37.2852 12.1077 43.3968 6.05713 50.9359 6.05713C58.475 6.05713 64.5866 12.1077 64.5866 19.5714Z" fill="#FFCB70"/>
<rect width="27.3015" height="27.0285" fill="black" fill-opacity="0" transform="translate(37.2852 6.05713)"/>
<mask id="mask1" mask-type="alpha" maskUnits="userSpaceOnUse" x="37" y="6" width="28" height="28">
<ellipse cx="50.9359" cy="19.5714" rx="13.6507" ry="13.5142" fill="#FFCB70"/>
</mask>
<g mask="url(#mask1)">
<path opacity="0.2" d="M84.6188 23.4317C78.4505 29.5384 68.4496 29.5384 62.2813 23.4317C56.1129 17.3251 56.1129 7.4242 62.2813 1.31754C68.4496 -4.78912 78.4505 -4.78912 84.6188 1.31754C90.7871 7.4242 90.7871 17.3251 84.6188 23.4317Z" fill="#E59100"/>
</g>
<path d="M47.5001 24.8187L48.3872 24.5834L48.8252 26.2018C48.8465 26.2806 48.8886 26.3385 48.9518 26.3758C49.015 26.4134 49.085 26.4219 49.162 26.4015L50.5382 26.0365C50.6096 26.0175 50.6645 25.9758 50.703 25.9112C50.7416 25.847 50.7501 25.7756 50.7288 25.6969L50.2908 24.0784L54.4525 22.9744C54.5293 22.9541 54.5858 22.9123 54.6216 22.8484C54.6574 22.7846 54.6646 22.7136 54.6433 22.6348L54.3513 21.5559C54.3301 21.4777 54.2879 21.4193 54.2247 21.382C54.1616 21.3444 54.0914 21.3359 54.0145 21.3562L49.8527 22.4603L49.5835 21.4657L52.3855 20.7224C53.4842 20.4309 54.2883 19.8506 54.7979 18.9804C55.3074 18.111 55.4155 17.1339 55.1218 16.049C54.8284 14.9649 54.2413 14.1721 53.3607 13.6707C52.4803 13.17 51.4905 13.0648 50.3918 13.3562L45.95 14.5345C45.873 14.5549 45.8168 14.597 45.7809 14.6605C45.7452 14.7243 45.738 14.7958 45.7592 14.8741L47.1941 20.1757L46.3071 20.4109C46.2302 20.4314 46.1743 20.4747 46.1392 20.5412C46.1042 20.6077 46.0965 20.6775 46.1163 20.7505L46.4562 22.0062C46.4775 22.085 46.5196 22.1429 46.5829 22.1805C46.6461 22.218 46.7158 22.2264 46.7929 22.2059L47.68 21.9706L47.9492 22.9652L47.0621 23.2005C46.9852 23.2209 46.9289 23.263 46.8931 23.3269C46.8574 23.3903 46.8501 23.4617 46.8713 23.5401L47.1633 24.619C47.1846 24.6977 47.2267 24.7557 47.29 24.7932C47.3533 24.8308 47.4231 24.8391 47.5001 24.8187ZM48.0757 15.8949L50.7129 15.1954C51.2952 15.0409 51.812 15.0904 52.2635 15.344C52.7148 15.5977 53.0166 16.0056 53.1687 16.5673C53.3208 17.1292 53.2654 17.632 53.0025 18.0747C52.7397 18.5181 52.3171 18.8168 51.7349 18.9713L49.0977 19.6708L48.0757 15.8949Z" fill="white"/>
<path d="M16.0889 76.0322H33.2504V87C33.2504 89.7614 31.0118 92 28.2504 92H21.0889C18.3274 92 16.0889 89.7614 16.0889 87V76.0322Z" fill="#F2B19B"/>
<rect width="17.1615" height="15.9677" fill="black" fill-opacity="0" transform="translate(16.0889 76.0322)"/>
<mask id="mask2" mask-type="alpha" maskUnits="userSpaceOnUse" x="16" y="76" width="18" height="16">
<path d="M16.0889 76.0322H33.2504V87C33.2504 89.7614 31.0118 92 28.2504 92H21.0889C18.3274 92 16.0889 89.7614 16.0889 87V76.0322Z" fill="#F2B19B"/>
</mask>
<g mask="url(#mask2)">
<g opacity="0.6">
<path d="M80.126 45.5C80.126 50.6097 75.8357 53.3065 73.6905 54.0161V61.4677C82.2712 58.9129 81.5562 49.7581 80.126 45.5Z" fill="#DD9881"/>
<path d="M13.0889 51.3548V68.3871H5.58075C0.841733 68.3871 -3 64.5743 -3 59.871C-3 55.1676 0.841735 51.3548 5.58075 51.3548H13.0889Z" fill="#DD9881"/>
<path d="M75.2994 59.3387C75.2994 76.0943 58.972 89.6774 38.8312 89.6774C18.6903 89.6774 2.36297 76.0943 2.36297 59.3387C2.36297 42.5831 18.6903 29 38.8312 29C58.972 29 75.2994 42.5831 75.2994 59.3387Z" fill="#DD9881"/>
</g>
</g>
<path d="M51.4846 76.0322H68.6461V87C68.6461 89.7614 66.4075 92 63.6461 92H56.4846C53.7232 92 51.4846 89.7614 51.4846 87V76.0322Z" fill="#F2B19B"/>
<rect width="17.1615" height="15.9677" fill="black" fill-opacity="0" transform="translate(51.4846 76.0322)"/>
<mask id="mask3" mask-type="alpha" maskUnits="userSpaceOnUse" x="51" y="76" width="18" height="16">
<path d="M51.4846 76.0322H68.6461V87C68.6461 89.7614 66.4075 92 63.6461 92H56.4846C53.7232 92 51.4846 89.7614 51.4846 87V76.0322Z" fill="#F2B19B"/>
</mask>
<g mask="url(#mask3)">
<g opacity="0.6">
<path d="M85.126 45.5C85.126 50.6097 80.8357 53.3065 78.6905 54.0161V61.4677C87.2712 58.9129 86.5562 49.7581 85.126 45.5Z" fill="#DD9881"/>
<path d="M18.0889 51.3548V68.3871H10.5808C5.84173 68.3871 2 64.5743 2 59.871C2 55.1676 5.84173 51.3548 10.5808 51.3548H18.0889Z" fill="#DD9881"/>
<path d="M80.2994 59.3387C80.2994 76.0943 63.972 89.6774 43.8312 89.6774C23.6903 89.6774 7.36297 76.0943 7.36297 59.3387C7.36297 42.5831 23.6903 29 43.8312 29C63.972 29 80.2994 42.5831 80.2994 59.3387Z" fill="#DD9881"/>
</g>
</g>
<path d="M83.126 42.5C83.126 47.6097 78.8357 50.3065 76.6905 51.0161V58.4677C85.2712 55.9129 84.5562 46.7581 83.126 42.5Z" fill="#FBCFC0"/>
<path d="M16.0889 48.3548V65.3871H8.58075C3.84173 65.3871 -2.07149e-07 61.5743 0 56.871C2.07149e-07 52.1676 3.84173 48.3548 8.58075 48.3548H16.0889Z" fill="#FBCFC0"/>
<path d="M78.2994 56.3387C78.2994 73.0943 61.972 86.6774 41.8312 86.6774C21.6903 86.6774 5.36297 73.0943 5.36297 56.3387C5.36297 39.5831 21.6903 26 41.8312 26C61.972 26 78.2994 39.5831 78.2994 56.3387Z" fill="#FBCFC0"/>
<path d="M17.6977 27.0646C16.4106 28.7679 17.1614 33.8066 17.6977 36.113L27.3511 29.7259C25.2059 26.5324 19.3066 24.9356 17.6977 27.0646Z" fill="#FBCFC0"/>
<rect width="84" height="60.6774" fill="black" fill-opacity="0" transform="translate(0 26)"/>
<mask id="mask4" mask-type="alpha" maskUnits="userSpaceOnUse" x="0" y="26" width="84" height="61">
<path d="M83.126 42.5C83.126 47.6097 78.8357 50.3065 76.6905 51.0161V58.4677C85.2712 55.9129 84.5562 46.7581 83.126 42.5Z" fill="#FDDED4"/>
<path d="M16.0889 48.3548V65.3871H8.58075C3.84173 65.3871 -2.07149e-07 61.5743 0 56.871C2.07149e-07 52.1676 3.84173 48.3548 8.58075 48.3548H16.0889Z" fill="#FDDED4"/>
<path d="M78.2994 56.3387C78.2994 73.0943 61.972 86.6774 41.8312 86.6774C21.6903 86.6774 5.36297 73.0943 5.36297 56.3387C5.36297 39.5831 21.6903 26 41.8312 26C61.972 26 78.2994 39.5831 78.2994 56.3387Z" fill="#FDDED4"/>
<path d="M17.6977 27.0646C16.4106 28.7679 17.1614 33.8066 17.6977 36.113L27.3511 29.7259C25.2059 26.5324 19.3066 24.9356 17.6977 27.0646Z" fill="#FDDED4"/>
</mask>
<g mask="url(#mask4)">
<rect x="-1.07251" y="23.8708" width="86.8801" height="33" fill="#FDDED4"/>
<path d="M41.5 84C22.7 84 10.6667 71.6667 7 65.5V81.5C7 82.3 19.3333 86.5 25.5 88.5C38 90 63.2 93 64 93C64.8 93 75 81.6667 80 76L78 58.5C75 68 65 84 41.5 84Z" fill="#F4BBA8"/>
<path d="M31.7233 31.3979L28.96 25.0862C47.7504 18.9147 63.9617 26.7225 69.7185 31.3979C68.0606 31.3979 63.9617 35.6057 62.1195 37.7096C51.619 32.6602 37.4801 31.3979 31.7233 31.3979Z" fill="#F2B19B"/>
</g>
<path d="M18.2002 46.8778C17.3002 48.3987 15.7425 49.1489 14.7209 48.5534C13.6993 47.9579 13.6007 46.2423 14.5007 44.7214C15.4007 43.2006 16.9585 42.4504 17.9801 43.0459C19.0016 43.6414 19.1002 45.357 18.2002 46.8778Z" fill="#363434"/>
<rect width="42.0715" height="15.4359" fill="black" fill-opacity="0" transform="translate(29 22.564)"/>
<mask id="mask5" mask-type="alpha" maskUnits="userSpaceOnUse" x="29" y="22" width="43" height="16">
<path d="M31.8523 31.4625L29 24.9252C48.3957 18.5332 65.1292 26.6201 71.0715 31.4625C69.3601 31.4625 65.1292 35.8207 63.2277 37.9998C52.3889 32.77 37.7946 31.4625 31.8523 31.4625Z" fill="#F2B19B"/>
</mask>
<g mask="url(#mask5)">
<rect width="37.2293" height="36.857" fill="black" fill-opacity="0" transform="translate(32.3215 1.14307)"/>
<ellipse cx="50.9362" cy="19.5716" rx="18.6146" ry="18.4285" fill="#FCB73F"/>
<rect width="37.2293" height="36.857" fill="black" fill-opacity="0" transform="translate(32.3215 1.14307)"/>
<mask id="mask6" mask-type="alpha" maskUnits="userSpaceOnUse" x="32" y="1" width="38" height="38">
<ellipse cx="50.9362" cy="19.5716" rx="18.6146" ry="18.4285" fill="#FCB73F"/>
</mask>
<g mask="url(#mask6)">
<circle opacity="0.2" cx="15.7162" cy="15.7162" r="15.7162" transform="translate(73.45 -9.7395) scale(1.00501 0.994963) rotate(45 15.7162 15.7162)" fill="#E59100"/>
</g>
<ellipse cx="50.9359" cy="19.5714" rx="13.6507" ry="13.5142" fill="#FFCB70"/>
<rect width="27.3015" height="27.0285" fill="black" fill-opacity="0" transform="translate(37.2852 6.05713)"/>
<mask id="mask7" mask-type="alpha" maskUnits="userSpaceOnUse" x="37" y="6" width="28" height="28">
<ellipse cx="50.9359" cy="19.5714" rx="13.6507" ry="13.5142" fill="#FFCB70"/>
</mask>
<g mask="url(#mask7)">
<circle opacity="0.2" cx="15.7162" cy="15.7162" r="15.7162" transform="translate(73.45 -9.7395) scale(1.00501 0.994963) rotate(45 15.7162 15.7162)" fill="#E59100"/>
</g>
<path d="M47.5 24.8186L48.3871 24.5833L48.8252 26.2018C48.8465 26.2805 48.8885 26.3384 48.9517 26.3757C49.0149 26.4133 49.085 26.4219 49.1619 26.4015L50.5381 26.0364C50.6095 26.0175 50.6645 25.9757 50.7029 25.9111C50.7415 25.8469 50.7501 25.7755 50.7288 25.6968L50.2907 24.0784L54.4524 22.9744C54.5293 22.954 54.5857 22.9122 54.6215 22.8483C54.6574 22.7845 54.6645 22.7135 54.6432 22.6347L54.3512 21.5559C54.33 21.4776 54.2878 21.4192 54.2246 21.382C54.1615 21.3444 54.0913 21.3358 54.0145 21.3562L49.8526 22.4602L49.5834 21.4656L52.3854 20.7223C53.4841 20.4309 54.2882 19.8506 54.7978 18.9804C55.3073 18.111 55.4154 17.1338 55.1218 16.0489C54.8283 14.9648 54.2412 14.172 53.3607 13.6706C52.4802 13.1699 51.4904 13.0647 50.3917 13.3562L45.9499 14.5344C45.8729 14.5549 45.8167 14.5969 45.7808 14.6605C45.7451 14.7243 45.7379 14.7958 45.7591 14.8741L47.194 20.1756L46.3071 20.4109C46.2301 20.4313 46.1742 20.4747 46.1391 20.5412C46.1042 20.6077 46.0965 20.6774 46.1162 20.7505L46.4561 22.0061C46.4774 22.0849 46.5195 22.1429 46.5828 22.1804C46.6461 22.2179 46.7158 22.2263 46.7929 22.2058L47.6799 21.9705L47.9491 22.9651L47.0621 23.2004C46.9851 23.2208 46.9289 23.2629 46.8931 23.3268C46.8573 23.3903 46.85 23.4616 46.8713 23.5401L47.1633 24.6189C47.1846 24.6977 47.2267 24.7556 47.2899 24.7932C47.3532 24.8308 47.423 24.8391 47.5 24.8186ZM48.0757 15.8949L50.7128 15.1953C51.2951 15.0408 51.8119 15.0904 52.2634 15.344C52.7147 15.5976 53.0166 16.0055 53.1686 16.5672C53.3207 17.1291 53.2653 17.6319 53.0025 18.0746C52.7396 18.5181 52.3171 18.8168 51.7348 18.9712L49.0977 19.6708L48.0757 15.8949Z" fill="white"/>
</g>
<path d="M82.2251 21.0618C77.3788 25.8597 69.5213 25.8597 64.675 21.0618C59.8287 16.264 59.8287 8.48512 64.675 3.68726C69.5213 -1.1106 77.3788 -1.1106 82.2251 3.68726C87.0714 8.48512 87.0714 16.264 82.2251 21.0618Z" fill="#FCB73F"/>
<path d="M79.8849 18.7452C76.3309 22.2636 70.5688 22.2636 67.0148 18.7452C63.4609 15.2267 63.4609 9.52224 67.0148 6.00381C70.5688 2.48538 76.3309 2.48538 79.8849 6.00381C83.4388 9.52224 83.4388 15.2267 79.8849 18.7452Z" fill="#FFCB70"/>
<path d="M69.8568 12.119L70.2339 12.4923L69.5668 13.1526C69.5344 13.1848 69.5183 13.2214 69.5186 13.2628C69.5187 13.3043 69.5351 13.3413 69.5678 13.3737L70.1527 13.9527C70.1831 13.9828 70.2198 13.9984 70.2629 13.9997C70.3058 14.0011 70.3435 13.9858 70.3759 13.9536L71.0429 13.2933L72.8118 15.0444C72.8444 15.0767 72.8816 15.0931 72.9236 15.0933C72.9655 15.0935 73.0026 15.0775 73.035 15.0454L73.4797 14.6052C73.5119 14.5732 73.5282 14.5364 73.5279 14.495C73.5278 14.4535 73.5114 14.4165 73.4787 14.3842L71.7098 12.6329L72.1197 12.2271L73.3106 13.4061C73.7776 13.8685 74.2999 14.1061 74.878 14.1188C75.4557 14.1317 75.9682 13.9168 76.4153 13.4742C76.8622 13.0318 77.0792 12.5245 77.0664 11.9523C77.0534 11.3803 76.8136 10.8629 76.3466 10.4005L74.4587 8.53154C74.426 8.49914 74.3887 8.48294 74.3469 8.48267C74.305 8.48255 74.2677 8.49861 74.2355 8.53056L72.0504 10.6937L71.6735 10.3205C71.6408 10.2881 71.603 10.2725 71.5599 10.2734C71.5169 10.2744 71.4803 10.2897 71.4502 10.3195L70.9327 10.8319C70.9003 10.864 70.8841 10.9007 70.8843 10.9422C70.8845 10.9838 70.9009 11.0205 70.9337 11.0529L71.3107 11.4262L70.9008 11.832L70.5238 11.4587C70.4911 11.4263 70.4538 11.4102 70.4118 11.41C70.3701 11.4098 70.3328 11.4258 70.3005 11.4578L69.8559 11.898C69.8234 11.9301 69.8073 11.9668 69.8075 12.0083C69.8076 12.0499 69.8241 12.0866 69.8568 12.119ZM74.4157 9.95411L75.5366 11.0638C75.784 11.3088 75.9119 11.5774 75.9202 11.8699C75.9283 12.1623 75.8166 12.4232 75.5851 12.6524C75.3535 12.8817 75.0899 12.9923 74.7947 12.9841C74.4992 12.976 74.2278 12.8494 73.9803 12.6044L72.8595 11.4948L74.4157 9.95411Z" fill="white"/>
</svg>