<svg width="149" height="139" viewBox="0 0 149 139" fill="none" xmlns="http://www.w3.org/2000/svg"><script xmlns="" type="text/javascript" charset="utf-8" id="zm-extension"/>
<path opacity="0.2" d="M35.6 67.8C24.9333 67.8 16.3333 64.6 9.8 58.2C3.26667 51.8 2.83122e-07 43.8667 2.83122e-07 34.4C2.83122e-07 24.8 3.26667 16.8 9.8 10.4C16.3333 3.86666 24.9333 0.599991 35.6 0.599991C46.4 0.599991 55.0667 3.86666 61.6 10.4C68.2667 16.8 71.6 24.8 71.6 34.4C71.6 43.8667 68.2667 51.8 61.6 58.2C55.0667 64.6 46.4 67.8 35.6 67.8ZM41.6 136H22.2L107.4 2.59999H127L41.6 136ZM138.8 128.8C132.267 135.2 123.667 138.4 113 138.4C102.333 138.4 93.7333 135.2 87.2 128.8C80.6667 122.4 77.4 114.467 77.4 105C77.4 95.4 80.6667 87.4 87.2 81C93.7333 74.4667 102.333 71.2 113 71.2C123.667 71.2 132.267 74.4667 138.8 81C145.467 87.4 148.8 95.4 148.8 105C148.8 114.467 145.467 122.4 138.8 128.8ZM35.6 46.6C39.0667 46.6 41.8667 45.6 44 43.6C46.1333 41.6 47.2 38.5333 47.2 34.4C47.2 30.1333 46.1333 27 44 25C41.8667 22.8667 39.0667 21.8 35.6 21.8C32.2667 21.8 29.5333 22.8667 27.4 25C25.4 27 24.4 30.1333 24.4 34.4C24.4 38.5333 25.4 41.6 27.4 43.6C29.5333 45.6 32.2667 46.6 35.6 46.6ZM113 117.2C120.733 117.2 124.6 113.133 124.6 105C124.6 100.733 123.533 97.6 121.4 95.6C119.267 93.4667 116.467 92.4 113 92.4C105.4 92.4 101.6 96.6 101.6 105C101.6 113.133 105.4 117.2 113 117.2Z" fill="url(#paint0_linear)"/>
<defs>
<linearGradient id="paint0_linear" x1="111.957" y1="-2.94606" x2="32.668" y2="92.3829" gradientUnits="userSpaceOnUse">
<stop stop-color="#48B548"/>
<stop offset="1" stop-color="#48B548" stop-opacity="0"/>
</linearGradient>
</defs>
</svg>