<?xml version="1.0" encoding="UTF-8" standalone="no"?>
<!DOCTYPE svg PUBLIC "-//W3C//DTD SVG 20010904//EN" "http://www.w3.org/TR/2001/REC-SVG-20010904/DTD/svg10.dtd">
<svg version="1.0" xmlns="http://www.w3.org/2000/svg" width="500.000000pt" height="500.000000pt" viewBox="0 0 500.000000 500.000000" preserveAspectRatio="xMidYMid meet"><script xmlns="" type="text/javascript" charset="utf-8" id="zm-extension"/>
<metadata>
Created by potrace 1.11, written by Peter Selinger 2001-2013
</metadata>
<g transform="translate(0.000000,500.000000) scale(0.100000,-0.100000)" fill="#000000" stroke="none">
<path d="M0 2500 l0 -2500 66 0 c60 0 70 3 125 40 263 179 431 525 493 1016 14 112 20 179 46 534 30 404 84 647 186 840 25 47 60 103 78 124 l32 39 45 -35 c80 -60 143 -82 239 -82 103 1 157 22 230 90 92 86 150 220 150 348 0 41 -4 86 -9 99 -9 24 -6 27 62 57 213 96 567 180 756 180 l45 0 -45 -29 c-64 -41 -84 -67 -118 -151 -56 -141 -62 -254 -22 -373 89 -258 401 -425 699 -374 111 18 233 73 304 136 169 150 149 429 -43 623 l-66 66 66 -25 c95 -36 256 -115 326 -161 l60 -39 74 -189 c371 -948 471 -1217 482 -1292 13 -89 44 -177 90 -250 21 -35 39 -66 39 -70 1 -11 100 -88 150 -116 25 -14 41 -26 37 -26 -17 0 -69 32 -123 77 -36 29 -55 39 -50 27 39 -99 231 -686 281 -859 l63 -220 126 -3 126 -3 0 226 c0 214 -1 231 -26 316 -14 50 -24 92 -21 95 2 2 13 -28 25 -68 l20 -73 1 2253 1 2252 -2500 0 -2500 0 0 -2500z m3669 1551 c84 -43 157 -162 187 -302 32 -147 10 -316 -77 -592 l-40 -128 -42 26 c-88 55 -296 151 -397 184 -58 19 -109 38 -114 42 -5 4 1 21 13 38 39 54 98 192 161 376 88 253 120 316 185 356 38 24 76 24 124 0z m-790 -836 c130 -27 287 -84 351 -127 72 -48 138 -131 171 -216 30 -77 31 -197 1 -263 -60 -136 -213 -226 -402 -236 -274 -15 -522 151 -592 395 -55 192 38 395 204 447 58 18 181 18 267 0z m-2102 -213 c82 -141 162 -249 212 -286 30 -23 31 -23 11 -41 -28 -25 -113 -151 -145 -215 -16 -30 -40 -87 -54 -126 -14 -39 -30 -72 -36 -74 -28 -8 -114 204 -136 334 -17 102 -6 360 20 465 25 97 31 111 43 90 5 -8 43 -74 85 -147z m846 -57 c8 -81 -4 -149 -39 -217 -41 -80 -82 -126 -141 -154 -46 -23 -62 -26 -119 -21 -66 5 -160 43 -214 87 l-25 20 57 55 c70 66 251 187 373 249 50 25 93 46 96 46 3 0 9 -29 12 -65z m2247 -151 c148 -122 297 -293 426 -489 71 -108 171 -285 161 -285 -3 0 -28 43 -57 95 -154 287 -376 554 -602 727 -43 32 -78 61 -78 65 0 7 55 -34 150 -113z m604 -816 c-4 -6 -30 -44 -58 -83 -28 -40 -57 -81 -64 -91 -10 -16 -11 -15 -1 6 13 27 120 180 126 180 2 0 1 -5 -3 -12z m100 -180 c70 -162 171 -432 229 -616 53 -167 55 -162 -67 -144 -160 23 -279 111 -354 260 -72 144 -77 273 -15 397 49 97 138 243 145 237 4 -4 32 -64 62 -134z m-246 -43 c-6 -14 -13 -23 -15 -21 -5 5 15 46 22 46 3 0 -1 -11 -7 -25z m-34 -81 c-9 -21 -22 -66 -30 -99 -13 -54 -14 -56 -9 -14 4 46 43 164 51 156 2 -2 -3 -21 -12 -43z m331 -704 c13 -6 15 -9 5 -9 -8 0 -22 4 -30 9 -18 12 -2 12 25 0z m52 -16 c-3 -3 -12 -4 -19 -1 -8 3 -5 6 6 6 11 1 17 -2 13 -5z m202 -45 c7 -23 11 -43 8 -45 -2 -2 -9 14 -16 36 l-12 39 -87 4 -87 3 91 2 91 2 12 -41z m30 -109 c0 -9 -4 -8 -9 5 -5 11 -9 27 -9 35 0 9 4 8 9 -5 5 -11 9 -27 9 -35z m20 -70 c0 -9 -4 -8 -9 5 -5 11 -9 27 -9 35 0 9 4 8 9 -5 5 -11 9 -27 9 -35z m20 -70 c0 -9 -4 -8 -9 5 -5 11 -9 27 -9 35 0 9 4 8 9 -5 5 -11 9 -27 9 -35z"/>
<path d="M1212 2340 c-199 -94 -310 -353 -211 -491 48 -68 178 -77 294 -20 80 40 195 145 224 205 27 54 27 129 1 199 -48 129 -171 172 -308 107z m183 -69 c62 -21 85 -60 85 -142 0 -75 -41 -138 -128 -196 -119 -80 -227 -93 -286 -33 -29 28 -31 35 -30 99 1 85 36 164 97 217 85 73 162 90 262 55z"/>
<path d="M3396 2029 c-34 -27 -29 -43 13 -45 18 -1 34 -4 37 -7 9 -8 -49 -115 -123 -227 -176 -267 -402 -505 -718 -758 -139 -110 -218 -161 -299 -193 -347 -134 -816 10 -1167 360 -137 137 -187 204 -168 227 20 25 -3 40 -39 25 -74 -31 -139 -156 -99 -189 18 -15 60 7 67 36 4 20 11 15 57 -45 192 -252 491 -439 813 -509 130 -28 345 -26 475 4 113 27 171 48 200 73 11 9 36 25 55 34 103 52 537 468 651 625 115 157 273 397 299 454 l27 60 29 -45 c15 -24 29 -46 31 -48 7 -10 53 12 58 29 13 40 -49 116 -117 144 -48 20 -50 20 -82 -5z"/>
<path d="M2975 2000 c-52 -25 -148 -105 -180 -150 -79 -107 -70 -305 14 -340 135 -56 371 162 371 343 0 142 -88 205 -205 147z m126 -69 c25 -25 29 -37 29 -82 0 -76 -18 -125 -69 -181 -102 -114 -219 -145 -251 -67 -18 42 -8 154 18 205 11 22 40 56 64 76 106 86 159 99 209 49z"/>
<path d="M2293 1796 c-85 -27 -168 -99 -215 -188 -30 -57 -33 -204 -5 -255 51 -95 135 -153 230 -160 85 -7 136 9 194 61 62 56 100 125 119 218 26 125 -7 218 -101 282 -82 57 -139 67 -222 42z m87 -121 c0 -20 -27 -37 -50 -30 -25 8 -25 16 1 44 16 17 24 20 35 10 8 -6 14 -17 14 -24z m-118 -23 c-6 -66 17 -108 71 -133 23 -10 50 -19 60 -19 38 0 90 34 118 78 l28 44 11 -44 c16 -56 7 -144 -18 -194 -36 -71 -125 -134 -187 -134 -34 0 -92 26 -126 58 -90 80 -117 197 -67 284 26 43 90 108 107 108 4 0 6 -22 3 -48z"/>
<path d="M1413 1715 c-51 -22 -124 -95 -149 -150 -48 -101 -25 -239 50 -302 101 -85 212 -69 319 47 79 85 105 181 74 267 -21 55 -76 123 -112 139 -43 18 -140 18 -182 -1z m-3 -66 c-19 -34 -6 -97 26 -130 60 -63 193 -15 194 71 1 24 1 24 15 6 37 -48 25 -170 -22 -239 -57 -82 -169 -115 -244 -71 -112 65 -110 279 3 367 37 30 45 28 28 -4z m104 13 c15 -18 15 -20 -3 -36 -23 -21 -43 -17 -47 9 -3 19 12 45 26 45 4 0 14 -8 24 -18z"/>
<path d="M833 990 c-86 -44 -106 -160 -49 -298 32 -81 75 -143 155 -225 86 -89 127 -110 202 -105 68 5 116 37 159 105 55 87 65 225 22 309 -47 93 -74 71 -42 -33 71 -231 -51 -399 -225 -311 -125 64 -265 285 -265 419 0 42 5 55 28 79 36 35 94 46 149 27 40 -13 42 -13 47 7 8 30 -5 38 -76 43 -51 3 -71 0 -105 -17z"/>
<path d="M2531 329 c-50 -10 -158 -78 -213 -136 -37 -39 -81 -116 -93 -165 -7 -27 -5 -28 28 -28 32 0 37 4 61 54 14 29 53 83 87 119 49 54 70 70 112 82 65 19 110 19 178 -1 103 -30 216 -125 255 -215 15 -32 23 -39 47 -39 25 0 27 3 22 23 -17 55 -72 142 -116 181 -64 57 -155 104 -236 121 -76 16 -71 16 -132 4z"/>
</g>
</svg>