<svg xmlns="http://www.w3.org/2000/svg" width="670" height="502" viewBox="0 0 670 502">
    <defs>
        <filter id="a" width="135%" height="150.7%" x="-17.5%" y="-18.6%" filterUnits="objectBoundingBox">
            <feOffset dy="8" in="SourceAlpha" result="shadowOffsetOuter1"/>
            <feGaussianBlur in="shadowOffsetOuter1" result="shadowBlurOuter1" stdDeviation="15"/>
            <feColorMatrix in="shadowBlurOuter1" result="shadowMatrixOuter1" values="0 0 0 0 0 0 0 0 0 0 0 0 0 0 0 0 0 0 0.2 0"/>
            <feMorphology in="SourceAlpha" operator="dilate" radius="2.5" result="shadowSpreadOuter2"/>
            <feOffset dy="6" in="shadowSpreadOuter2" result="shadowOffsetOuter2"/>
            <feGaussianBlur in="shadowOffsetOuter2" result="shadowBlurOuter2" stdDeviation="15"/>
            <feColorMatrix in="shadowBlurOuter2" result="shadowMatrixOuter2" values="0 0 0 0 0 0 0 0 0 0 0 0 0 0 0 0 0 0 0.12 0"/>
            <feMorphology in="SourceAlpha" operator="dilate" radius="1" result="shadowSpreadOuter3"/>
            <feOffset dy="16" in="shadowSpreadOuter3" result="shadowOffsetOuter3"/>
            <feGaussianBlur in="shadowOffsetOuter3" result="shadowBlurOuter3" stdDeviation="12"/>
            <feColorMatrix in="shadowBlurOuter3" result="shadowMatrixOuter3" values="0 0 0 0 0 0 0 0 0 0 0 0 0 0 0 0 0 0 0.14 0"/>
            <feMerge>
                <feMergeNode in="shadowMatrixOuter1"/>
                <feMergeNode in="shadowMatrixOuter2"/>
                <feMergeNode in="shadowMatrixOuter3"/>
                <feMergeNode in="SourceGraphic"/>
            </feMerge>
        </filter>
        <linearGradient id="b" x1="24.343%" x2="0%" y1="-16.96%" y2="100%">
            <stop offset="0%" stop-color="#A18CD1"/>
            <stop offset="100%" stop-color="#FBC2EB"/>
        </linearGradient>
        <linearGradient id="c" x1="74.098%" y1="-7.993%" y2="100%">
            <stop offset="0%" stop-color="#84FAB0"/>
            <stop offset="100%" stop-color="#8FD3F4"/>
        </linearGradient>
        <filter id="d" width="114.2%" height="177.8%" x="-7.1%" y="-34.4%" filterUnits="objectBoundingBox">
            <feOffset dy="4" in="SourceAlpha" result="shadowOffsetOuter1"/>
            <feGaussianBlur in="shadowOffsetOuter1" result="shadowBlurOuter1" stdDeviation="11"/>
            <feColorMatrix in="shadowBlurOuter1" result="shadowMatrixOuter1" values="0 0 0 0 0 0 0 0 0 0 0 0 0 0 0 0 0 0 0.259963768 0"/>
            <feMerge>
                <feMergeNode in="shadowMatrixOuter1"/>
                <feMergeNode in="SourceGraphic"/>
            </feMerge>
        </filter>
        <linearGradient id="e" x1="37.754%" x2="59.672%" y1="-.017%" y2="100.009%">
            <stop offset="50%" stop-color="#FFF"/>
            <stop offset="100%" stop-color="#CCC"/>
        </linearGradient>
        <linearGradient id="f" x1="72951%" x2="72951%" y1="8885%" y2="20526%">
            <stop offset="50%" stop-color="#FFF"/>
            <stop offset="100%" stop-color="#CCC"/>
        </linearGradient>
        <linearGradient id="g" x1="88982%" x2="88982%" y1="8852%" y2="20559%">
            <stop offset="50%" stop-color="#FFF"/>
            <stop offset="100%" stop-color="#CCC"/>
        </linearGradient>
        <linearGradient id="h" x1="104712%" x2="104712%" y1="8969%" y2="20442%">
            <stop offset="50%" stop-color="#FFF"/>
            <stop offset="100%" stop-color="#CCC"/>
        </linearGradient>
        <linearGradient id="i" x1="119636%" x2="119636%" y1="8969%" y2="20442%">
            <stop offset="50%" stop-color="#FFF"/>
            <stop offset="100%" stop-color="#CCC"/>
        </linearGradient>
        <linearGradient id="j" x1="18947%" x2="18947%" y1="8962%" y2="20449%">
            <stop offset="50%" stop-color="#FFF"/>
            <stop offset="100%" stop-color="#CCC"/>
        </linearGradient>
        <linearGradient id="k" x1="29173%" x2="29173%" y1="8962%" y2="20449%">
            <stop offset="50%" stop-color="#FFF"/>
            <stop offset="100%" stop-color="#CCC"/>
        </linearGradient>
        <linearGradient id="l" x1="39398%" x2="39398%" y1="8962%" y2="20449%">
            <stop offset="50%" stop-color="#FFF"/>
            <stop offset="100%" stop-color="#CCC"/>
        </linearGradient>
    </defs>
    <g fill="none" fill-rule="evenodd">
        <g filter="url(#a)" transform="translate(0 22)">
            <path fill="url(#b)" d="M0 0h640L0 442z"/>
            <path fill="url(#c)" d="M640 0v442H0z"/>
        </g>
        <g fill-rule="nonzero" filter="url(#d)" transform="translate(74 198)">
            <path fill="#FFF" d="M0 0h491.446v89.249H0z"/>
            <path fill="#335066" d="M155.916 5.667h330.541v79.332H155.916z"/>
            <path fill="#E52E2E" d="M4.989 5.667h147.184v79.332H4.989z"/>
            <g fill="#000" opacity=".25">
                <path d="M167.635 55.836h13.858c-.01 1.042.103 2.081.335 3.091.304.992 1.028 1.754 1.936 2.037 1.24.37 2.52.549 3.803.53l5.468.188c.808.024 4.273-.027 10.395-.152 2.468-.051 4.2-.265 5.197-.642 1.856-.706 2.786-2.101 2.789-4.186 0-2.588-1.357-4.084-4.07-4.488-.668-.095-3.046-.143-7.133-.143h-12.771c-6.297 0-10.554-.377-12.771-1.131-2.808-.954-4.776-2.764-5.905-5.43-.86-2.037-1.286-4.928-1.28-8.673 0-5.983 1.26-10.107 3.782-12.372 2.085-1.908 5.992-3.153 11.72-3.733 2.263-.228 6.77-.34 13.519-.337 9.645 0 15.707.3 18.186.898 3.282.804 5.602 2.326 6.96 4.563 1.244 2.037 1.864 4.98 1.859 8.827v1.772H209.77c-.02-2.665-1.285-4.287-3.8-4.864-.538-.126-2.792-.189-6.76-.189-5.55 0-9.82.114-12.808.342-1.616.125-2.783.414-3.5.866-.997.652-1.496 1.782-1.5 3.392 0 2.163.996 3.533 2.987 4.11.86.251 2.762.377 5.707.377h13.147c.884 0 3.193.075 6.927.224 4.348.177 7.417.681 9.206 1.513 4.042 1.884 6.062 6.56 6.062 14.027 0 6.916-1.702 11.403-5.108 13.462-3.195 1.935-11.428 2.903-24.697 2.903-10.123 0-16.757-.365-19.904-1.095-3.056-.703-5.211-2.199-6.467-4.487-1.077-1.96-1.616-4.788-1.616-8.486-.033-.4-.037-1.306-.012-2.714zM273.791 52.856h13.656v2.356c0 4.804-.513 8.312-1.54 10.522-1.312 2.881-3.854 4.81-7.626 5.789-1.859.476-4.61.79-8.256.942-2.493.102-7.428.151-14.808.148-6.046 0-10.653-.226-13.822-.677-6.022-.856-9.813-3.822-11.373-8.898-1.077-3.518-1.616-9.427-1.616-17.725 0-6.435.345-10.935 1.034-13.502 1.226-4.601 3.845-7.742 7.857-9.423 3.171-1.332 9.558-1.997 19.16-1.997 12.125 0 19.534.449 22.229 1.346 3.214 1.08 5.442 3.024 6.684 5.833.97 2.214 1.454 5.355 1.451 9.424v1.794h-13.458c-.113-1.71-.35-2.918-.711-3.62-.7-1.359-2.738-2.164-6.111-2.415-.248-.024-2.5-.037-6.757-.04-6.736 0-10.722.127-11.959.381-3.26.676-5.029 3.089-5.306 7.238-.092 1.41-.14 3.653-.142 6.73 0 5.685.641 9.255 1.924 10.712 1.04 1.197 3.06 1.944 6.062 2.244 1.019.101 3.216.15 6.592.148 7.948 0 12.636-.34 14.064-1.019 1.8-.873 2.724-2.97 2.772-6.291zM320.858 20.234c11.798 0 19.011.263 21.638.79 5.909 1.196 9.573 4.578 10.993 10.145.52 2.037.834 4.79.941 8.257.065 2.013.096 4.49.093 7.43 0 6.486-.367 11.252-1.103 14.297-1.617 6.764-6.309 10.484-14.076 11.16-3.444.299-9.06.448-16.85.448-6.735 0-10.822-.037-12.26-.112-5.503-.278-9.488-1.07-11.956-2.378-3.464-1.81-5.647-5.443-6.547-10.9-.382-2.312-.57-6.662-.561-13.048 0-4.323.036-7.075.109-8.257.117-2.738.59-5.443 1.402-8.032 1.794-5.355 6.27-8.435 13.426-9.24 3.381-.373 8.298-.56 14.751-.56zm1.956 12.564c-7.495 0-12.115.402-13.858 1.207-1.63.754-2.685 2.538-3.164 5.353-.205 1.197-.31 3.46-.316 6.79 0 4.35.235 7.442.703 9.28.701 2.715 2.941 4.225 6.721 4.527 2.199.176 4.86.265 7.982.265 8.425 0 13.554-.328 15.386-.983 2.064-.727 3.368-2.625 3.912-5.694.205-1.158.31-3.735.315-7.732a59.148 59.148 0 0 0-.198-6.188c-.382-2.964-1.467-4.888-3.253-5.77-1.04-.53-3.225-.87-6.555-1.02-.542-.038-3.099-.057-7.67-.057l-.005.022zM358.65 72.263l.056-51.5h40.047c4.618 0 7.935.289 9.95.866 3.667 1.056 6.092 3.268 7.275 6.637.808 2.336 1.212 5.428 1.212 9.275 0 6.183-1.318 10.307-3.953 12.371-1.406 1.107-4.407 2.024-9.004 2.751.546.05 1.314.099 2.312.148 3.306.177 5.514.655 6.624 1.436 2.239 1.559 3.355 4.84 3.35 9.845v8.144H402.22V65.83c0-3.871-1.23-6.009-3.693-6.413a29.741 29.741 0 0 0-4.078-.188h-21.703V72.24l-14.096.022zm14.088-25.608h22.079c2.92 0 4.845-.214 5.775-.642 1.587-.73 2.381-2.453 2.384-5.17 0-3.266-.53-5.36-1.588-6.282-.905-.777-2.926-1.168-6.062-1.17h-22.572l-.016 13.264zM421.094 20.763h51.391v11.69h-37.464v8.786h35.362V51.42h-35.358v9.127h37.941v11.69h-51.929z"/>
            </g>
            <path fill="url(#e)" d="M.307 35.835h13.838c-.01 1.042.103 2.082.336 3.092.303.992 1.027 1.754 1.935 2.037 1.24.37 2.52.549 3.803.53l5.468.188c.809.024 4.274-.027 10.395-.153 2.468-.05 4.2-.264 5.197-.641 1.857-.706 2.786-2.102 2.789-4.187 0-2.587-1.357-4.083-4.07-4.487-.679-.102-3.056-.151-7.133-.148h-12.77c-6.297 0-10.554-.377-12.772-1.131-2.807-.954-4.776-2.764-5.904-5.43-.86-2.037-1.287-4.928-1.282-8.673 0-5.983 1.261-10.107 3.783-12.372C6.006 2.552 9.912 1.307 15.64.727 17.904.5 22.41.387 29.16.39c9.646 0 15.708.3 18.187.898 3.281.805 5.601 2.326 6.959 4.563 1.245 2.038 1.864 4.98 1.859 8.827v1.772h-13.74c-.02-2.665-1.286-4.287-3.8-4.864-.539-.126-2.793-.188-6.761-.188-5.55 0-9.82.113-12.808.34-1.616.126-2.783.415-3.5.867-.996.652-1.496 1.783-1.499 3.392 0 2.163.996 3.533 2.987 4.11.86.252 2.761.377 5.706.377h13.147c.884 0 3.193.075 6.927.225 4.349.176 7.418.68 9.207 1.512 4.041 1.884 6.062 6.56 6.062 14.027 0 6.916-1.703 11.404-5.109 13.462-3.195 1.935-11.427 2.903-24.697 2.903-10.122 0-16.757-.365-19.904-1.095-3.055-.703-5.21-2.199-6.466-4.487C.838 45.07.299 42.243.299 38.545c-.019-.4-.016-1.304.008-2.71z" transform="translate(168.758 18.416)"/>
            <path fill="url(#f)" d="M106.46 32.856h13.656v2.337c0 4.805-.513 8.312-1.54 10.523-1.317 2.893-3.855 4.828-7.614 5.807-1.86.475-4.611.79-8.257.942-2.492.102-7.428.15-14.808.148-6.046 0-10.653-.226-13.821-.678-6.022-.855-9.813-3.821-11.373-8.898-1.078-3.518-1.617-9.426-1.617-17.724 0-6.435.345-10.936 1.035-13.503 1.226-4.6 3.845-7.742 7.857-9.423C73.148 1.056 79.536.39 89.138.39c12.124 0 19.534.45 22.228 1.347 3.214 1.08 5.443 3.024 6.685 5.833.97 2.214 1.453 5.355 1.45 9.423v1.795h-13.466c-.113-1.711-.35-2.918-.71-3.621-.701-1.358-2.738-2.163-6.112-2.414-.247-.024-2.5-.038-6.757-.04-6.736 0-10.722.126-11.958.38-3.26.677-5.03 3.09-5.307 7.239-.091 1.409-.139 3.652-.141 6.73 0 5.684.64 9.255 1.923 10.712 1.04 1.196 3.061 1.944 6.063 2.243 1.018.102 3.215.151 6.591.148 7.948 0 12.636-.34 14.064-1.018 1.798-.877 2.72-2.974 2.769-6.291z" transform="translate(168.758 18.416)"/>
            <path fill="url(#g)" d="M153.53.233c11.799 0 19.011.264 21.638.79 5.909 1.197 9.573 4.579 10.993 10.146.52 2.037.834 4.79.942 8.256.064 2.014.095 4.49.093 7.431 0 6.486-.368 11.251-1.104 14.297-1.616 6.763-6.308 10.483-14.076 11.16-3.443.298-9.06.448-16.849.448-6.735 0-10.823-.037-12.261-.112-5.502-.278-9.487-1.071-11.955-2.378-3.465-1.81-5.647-5.443-6.547-10.9-.383-2.312-.57-6.662-.562-13.049 0-4.323.036-7.075.11-8.256.117-2.739.589-5.444 1.402-8.033 1.794-5.354 6.27-8.434 13.425-9.239 3.382-.374 8.299-.56 14.752-.56zm1.957 12.565c-7.496 0-12.115.402-13.859 1.207-1.63.754-2.684 2.538-3.164 5.353-.205 1.197-.31 3.46-.315 6.79 0 4.349.234 7.442.703 9.279.7 2.707 2.94 4.21 6.72 4.51 2.2.176 4.86.264 7.983.264 8.425 0 13.553-.327 15.386-.983 2.063-.726 3.367-2.625 3.912-5.694.204-1.158.31-3.735.315-7.731a59.148 59.148 0 0 0-.198-6.188c-.383-2.965-1.467-4.888-3.253-5.77-1.04-.53-3.226-.87-6.556-1.02-.544-.014-3.102-.023-7.674-.026v.009z" transform="translate(168.758 18.416)"/>
            <path fill="url(#h)" d="M191.322 52.24L191.38.763h40.046c4.618 0 7.935.289 9.95.866 3.667 1.056 6.092 3.268 7.275 6.637.808 2.336 1.212 5.428 1.212 9.275 0 6.183-1.317 10.307-3.952 12.371-1.406 1.107-4.408 2.024-9.004 2.75.545.05 1.313.1 2.311.149 3.306.176 5.514.655 6.624 1.436 2.24 1.558 3.356 4.84 3.35 9.845v8.144h-14.298v-6.408c0-3.87-1.231-6.008-3.694-6.412a29.741 29.741 0 0 0-4.078-.189H205.42V52.24h-14.097zm14.089-25.608h22.078c2.92 0 4.846-.214 5.775-.642 1.587-.73 2.382-2.453 2.385-5.17 0-3.266-.53-5.36-1.589-6.281-.905-.778-2.926-1.169-6.062-1.172h-22.575l-.012 13.265z" transform="translate(168.758 18.416)"/>
            <path fill="url(#i)" d="M253.762.758h51.391v11.69H267.69v8.786h35.363v10.181h-35.359v9.127h37.941v11.69H253.71z" transform="translate(168.758 18.416)"/>
            <g>
                <g fill="#000" opacity=".25">
                    <path d="M53.927 30.327l-14 41.922H26.528L39.967 32.01H27.014v3.054h-10.45V20.28h37.355zM95.314 30.327L81.317 72.25H67.919L81.357 32.01H68.405v3.054h-10.45V20.28H95.31zM136.705 30.327L122.708 72.25H109.31l13.438-40.239h-12.952v3.054H99.341V20.28h37.372z"/>
                </g>
                <path fill="url(#j)" d="M37.521 10.31L23.525 52.245H10.119l13.438-40.239H10.605v3.054H.158V.276h37.355z" transform="translate(17.834 18.416)"/>
                <path fill="url(#k)" d="M78.928 10.31L64.932 52.245H51.534l13.438-40.239H52.02v3.054H41.549V.276h37.38z" transform="translate(17.834 18.416)"/>
                <path fill="url(#l)" d="M120.3 10.31l-13.998 41.935H92.905l13.438-40.239H93.39v3.054H82.94V.276h37.355z" transform="translate(17.834 18.416)"/>
            </g>
        </g>
    </g>
</svg>