<?xml version="1.0" encoding="UTF-8"?>
<!DOCTYPE svg PUBLIC "-//W3C//DTD SVG 1.1//EN" "http://www.w3.org/Graphics/SVG/1.1/DTD/svg11.dtd">
<svg version="1.1" baseProfile="full" xmlns="http://www.w3.org/2000/svg" xmlns:xlink="http://www.w3.org/1999/xlink" xmlns:ev="http://www.w3.org/2001/xml-events" height="18px" width="18px">
<path fill="rgb( 255, 255, 255 )" d="M16.778,2.636 L10.409,9.005 L16.718,15.314 C17.105,15.702 17.105,16.33 16.718,16.718 C16.33,17.105 15.702,17.105 15.315,16.718 L9.005,10.408 L2.635,16.778 C2.245,17.169 1.612,17.169 1.221,16.778 C0.831,16.387 0.831,15.754 1.221,15.364 L7.591,8.994 L1.282,2.685 C0.894,2.298 0.894,1.669 1.282,1.282 C1.67,0.894 2.298,0.894 2.685,1.282 L8.994,7.591 L15.364,1.222 C15.754,0.831 16.387,0.831 16.778,1.222 C17.168,1.612 17.168,2.246 16.778,2.636 Z "/>
</svg>