<?xml version="1.0" encoding="UTF-8"?>
<!-- Generator: Adobe Illustrator 21.1.0, SVG Export Plug-In . SVG Version: 6.00 Build 0)  -->
<svg version="1.1" id="Слой_1" xmlns="http://www.w3.org/2000/svg" xmlns:xlink="http://www.w3.org/1999/xlink" x="0px" y="0px" viewBox="0 0 29 29" style="enable-background:new 0 0 29 29;" xml:space="preserve">
<style type="text/css">
	.st0{fill:#FFFFFF;}
</style>
<path class="st0" d="M27.4,0H1.6C0.7,0,0,0.7,0,1.6v25.8C0,28.3,0.7,29,1.6,29h13.9V17.8h-3.8v-4.4h3.8v-3.2c0-3.7,2.3-5.8,5.6-5.8  c1.6,0,3,0.1,3.4,0.2v3.9l-2.3,0c-1.8,0-2.2,0.9-2.2,2.1v2.8h4.3l-0.6,4.4H20V29h7.4c0.9,0,1.6-0.7,1.6-1.6V1.6  C29,0.7,28.3,0,27.4,0z"/>
</svg>