<?xml version="1.0" encoding="UTF-8" standalone="no"?>
<svg width="39px" height="30px" viewBox="0 0 39 30" version="1.1" xmlns="http://www.w3.org/2000/svg" xmlns:xlink="http://www.w3.org/1999/xlink">
    <!-- Generator: Sketch 48.2 (47327) - http://www.bohemiancoding.com/sketch -->
    <title>icon_app zena@2x</title>
    <desc>Created with Sketch.</desc>
    <defs/>
    <g id="icon/app-zena" stroke="none" stroke-width="1" fill="none" fill-rule="evenodd">
        <g id="Group" fill="#021a69" fill-rule="nonzero">
            <path d="M33,6 L28.3396885,6 L26.8349802,2.25444835 C26.5305264,1.49659555 25.7958582,1 24.9791373,1 L14.0200722,1 C13.2033513,1 12.4686831,1.49659555 12.1642293,2.25444835 L10.659521,6 L6,6 C3.23857625,6 1,8.23857625 1,11 L1,24 C1,26.7614237 3.23857625,29 6,29 L33,29 C35.7614237,29 38,26.7614237 38,24 L38,11 C38,8.23857625 35.7614237,6 33,6 Z M29.0156338,5 L33,5 C36.3137085,5 39,7.6862915 39,11 L39,24 C39,27.3137085 36.3137085,30 33,30 L6,30 C2.6862915,30 3.95852593e-15,27.3137085 3.55271368e-15,24 L3.55271368e-15,11 C3.14690143e-15,7.6862915 2.6862915,5 6,5 L9.98357565,5 L11.2363079,1.88167253 C11.6929886,0.744893328 12.7949909,1.1132222e-15 14.0200722,8.8817842e-16 L24.9791373,0 C26.2042186,8.63046992e-16 27.3062209,0.744893328 27.7629016,1.88167253 L29.0156338,5 Z" id="Combined-shape-391"/>
        </g>
    </g>
</svg>