<?xml version="1.0" encoding="UTF-8"?>
<!-- Generator: Adobe Illustrator 21.1.0, SVG Export Plug-In . SVG Version: 6.00 Build 0)  -->
<svg version="1.1" id="Слой_1" xmlns="http://www.w3.org/2000/svg" xmlns:xlink="http://www.w3.org/1999/xlink" x="0px" y="0px" viewBox="0 0 656 397" style="enable-background:new 0 0 656 397;" xml:space="preserve">
<style type="text/css">
	.st0{fill-rule:evenodd;clip-rule:evenodd;fill:url(#SVGID_1_);}
</style>
<linearGradient id="SVGID_1_" gradientUnits="userSpaceOnUse" x1="579.2957" y1="-3.5167" x2="129.1989" y2="401.7523">
	<stop offset="0" style="stop-color:#0F2671"/>
	<stop offset="1" style="stop-color:#0E2D92"/>
</linearGradient>
<path class="st0" d="M210.6,292c59.1,80.7,194,118.8,229.1,100.6c7.9-4.1,7.4-11.9,5.2-16.2c-5.1-9.8-76.3-57.4-99.1-117.3  c7.3-3.2,14.7-6.4,22-10.2c63.6-32.9,109.2-69.3,142.3-104c44.2-18.5,103.2-34.5,133.2-31.7c16.9,1.6,16.9-10.7-0.3-22.5  c-15.2-10.4-35.1-22.4-57.7-31c-18.9,24.2-33.8,37.6-33.8,37.6s13-21.1,22.9-41.7c0,0,0,0,0,0c0.3-0.7,0.6-1.2,0.9-1.9  c0.5-1.1,1.1-2.3,1.6-3.4c0.1-0.3,0.3-0.4,0.4-0.7c7.6-15.3,12.7-28.2,16.1-37.2C554.8-0.1,416.2-18.8,289,47  c-79.9,41.4-125.4,105.7-148.4,140.5c9.5,15.7,24.8,33.9,24.8,33.9s-23.2-13.9-36.4-20.3c-27.9-8.4-53.1-6.9-82.1,8  C24.3,220.8,6.7,242,0,258.3C16.2,266.8,103.7,299.4,210.6,292z M198,300.5c-14.8,2-56.5,1.2-65.5,0c10.3,32,57.4,81.1,64.8,77.3  C206.6,373,194.7,327.4,198,300.5z"/>
</svg>