<?xml version="1.0" encoding="UTF-8"?>
<!-- Generator: Adobe Illustrator 21.1.0, SVG Export Plug-In . SVG Version: 6.00 Build 0)  -->
<svg version="1.1" id="Слой_1" xmlns="http://www.w3.org/2000/svg" xmlns:xlink="http://www.w3.org/1999/xlink" x="0px" y="0px" viewBox="0 0 29 29" style="enable-background:new 0 0 29 29;" xml:space="preserve">
<style type="text/css">
	.st0{fill:#FFFFFF;}
</style>
<g>
	<g>
		<path class="st0" d="M21,0H8C3.6,0,0,3.6,0,8v13c0,4.4,3.6,8,8,8h13c4.4,0,8-3.6,8-8V8C29,3.6,25.4,0,21,0z M21,26.4H8    c-3,0-5.4-2.4-5.4-5.4V8C2.6,5,5,2.6,8,2.6h13c3,0,5.4,2.4,5.4,5.4v13h0C26.4,24,24,26.4,21,26.4z M14.5,7C10.4,7,7,10.4,7,14.5    c0,4.1,3.4,7.5,7.5,7.5c4.1,0,7.5-3.4,7.5-7.5C22,10.4,18.6,7,14.5,7z M14.5,19.4c-2.7,0-4.9-2.2-4.9-4.9c0-2.7,2.2-4.9,4.9-4.9    c2.7,0,4.9,2.2,4.9,4.9C19.4,17.2,17.2,19.4,14.5,19.4z M22.3,4.8c-0.5,0-1,0.2-1.3,0.6c-0.4,0.3-0.6,0.8-0.6,1.3    c0,0.5,0.2,1,0.6,1.3c0.3,0.4,0.8,0.6,1.3,0.6c0.5,0,1-0.2,1.3-0.6c0.4-0.4,0.6-0.8,0.6-1.3c0-0.5-0.2-1-0.6-1.3    C23.3,5,22.8,4.8,22.3,4.8z"/>
	</g>
</g>
</svg>