<?xml version="1.0" encoding="UTF-8"?>
<!DOCTYPE svg PUBLIC "-//W3C//DTD SVG 1.1//EN" "http://www.w3.org/Graphics/SVG/1.1/DTD/svg11.dtd">
<svg version="1.1" baseProfile="full" xmlns="http://www.w3.org/2000/svg" xmlns:xlink="http://www.w3.org/1999/xlink" xmlns:ev="http://www.w3.org/2001/xml-events" height="24px" width="136px">
<path fill="rgb( 255, 255, 255 )" d="M131.14,18.245 L131.14,12.065 C129.727,14.115 128.191,16.856 128.03,16.966 C127.869,16.856 126.333,14.115 124.92,12.065 L124.92,18.245 C124.92,18.245 121.059,18.171 121.059,16.434 L121.059,5.992 C121.059,5.992 124.283,5.948 124.92,7.27 L128.03,12.171 L131.14,7.27 C131.777,5.948 135.001,5.992 135.001,5.992 L135.001,16.434 C135.001,18.171 131.14,18.245 131.14,18.245 ZM113.658,23.999 C110.881,23.999 108.296,22.737 108.296,20.802 C108.296,19.873 108.404,19.661 108.832,19.204 C112.746,21.956 114.85,20.471 115.052,20.27 C115.443,19.893 115.589,19.614 115.589,18.032 L115.591,17.979 C114.924,18.115 114.262,18.287 113.569,18.287 C111.033,18.287 108.313,17.428 108.313,14.29 L108.313,5.963 C108.313,5.963 112.12,6.055 112.12,7.702 L112.12,13.311 C112.12,14.375 112.573,14.96 113.888,14.96 C114.658,14.96 115.589,14.734 115.589,14.734 L115.589,5.963 C115.589,5.963 119.342,5.957 119.342,7.696 L119.342,18.245 C119.342,22.72 117.353,23.999 113.658,23.999 ZM104.173,17.813 C103.015,17.813 101.953,18.287 100.796,18.287 C98.2569999999999,18.287 95.537,17.428 95.537,14.29 L95.537,5.963 C95.537,5.963 99.347,6.055 99.347,7.702 L99.347,13.311 C99.347,14.375 99.801,14.96 101.113,14.96 C101.884,14.96 102.812,14.734 102.812,14.734 L102.812,5.963 C102.812,5.963 106.687,5.957 106.687,7.696 L106.687,18.245 C106.687,18.245 105.598,17.813 104.173,17.813 ZM88.914,18.287 C87.554,18.287 86.421,17.589 86.421,17.589 C86.421,17.589 86.582,18.33 86.582,18.78 L86.582,23.912 C86.24,23.912 82.776,23.885 82.776,21.966 L82.776,5.784 C83.477,6.146 84.25,6.326 85.061,6.326 C86.4690000000001,6.326 87.669,5.851 88.982,5.851 C91.925,5.851 93.853,7.568 93.853,10.048 L93.853,14.111 C93.853,16.729 91.5410000000001,18.287 88.914,18.287 ZM90.047,10.386 C90.047,9.146 89.571,8.447 88.03,8.447 C87.2380000000001,8.447 86.582,8.604 86.582,8.604 L86.582,13.999 C86.582,14.969 87.602,15.644 88.62,15.644 C89.454,15.644 90.047,15.082 90.047,13.771 L90.047,10.386 ZM79.162,17.88 C77.9640000000001,17.88 76.697,18.287 75.36,18.287 C72.824,18.287 70.378,17.428 70.378,14.585 C70.378,10.455 76.268,11.222 77.308,9.71 C77.308,9.166 76.899,8.535 75.429,8.535 C73.681,8.535 72.103,8.949 71.078,10.254 C70.715,9.467 70.6950000000001,9.28 70.6950000000001,8.582 C70.6950000000001,6.303 73.915,5.851 75.473,5.851 C79.162,5.851 81.111,7.274 81.111,9.889 L81.111,18.287 C80.477,17.947 79.8,17.88 79.162,17.88 ZM77.376,12.418 C76.765,13.367 74.181,13.004 74.181,14.449 C74.181,15.508 74.954,15.736 75.723,15.736 C76.5359999999999,15.736 77.376,15.489 77.376,15.489 L77.376,12.418 ZM65.107,16.442 L65.107,13.49 C64.645,13.419 64.168,13.389 63.694,13.389 C62.972,13.389 62.297,13.561 61.633,13.7 L61.633,18.18 C61.633,18.18 57.827,18.18 57.827,16.442 L57.827,5.963 C57.827,5.963 61.633,5.963 61.633,7.702 L61.633,11.104 C62.297,10.965 62.972,10.794 63.694,10.794 C64.168,10.794 64.645,10.823 65.107,10.895 L65.107,5.963 C65.107,5.963 68.9160000000001,5.963 68.9160000000001,7.702 L68.9160000000001,18.18 C68.9160000000001,18.18 65.107,18.18 65.107,16.442 ZM54.172,17.88 C52.975,17.88 51.707,18.287 50.37,18.287 C47.8339999999999,18.287 45.388,17.428 45.388,14.585 C45.388,10.455 51.278,11.222 52.318,9.71 C52.318,9.166 51.909,8.535 50.439,8.535 C48.691,8.535 47.1130000000001,8.949 46.0890000000001,10.254 C45.725,9.467 45.705,9.28 45.705,8.582 C45.705,6.303 48.924,5.851 50.4829999999999,5.851 C54.172,5.851 56.12,7.274 56.12,9.889 L56.12,18.287 C55.486,17.947 54.8099999999999,17.88 54.172,17.88 ZM52.386,12.418 C51.775,13.367 49.1900000000001,13.004 49.1900000000001,14.449 C49.1900000000001,15.508 49.963,15.736 50.734,15.736 C51.546,15.736 52.386,15.489 52.386,15.489 L52.386,12.418 ZM39.378,15.702 C41.126,15.702 42.705,15.289 43.729,13.984 C44.092,14.77 44.112,14.957 44.112,15.655 C44.112,17.934 40.893,18.386 39.3339999999999,18.386 C34.224,18.386 33.218,14.146 33.218,12.385 C33.218,5.926 38.285,5.951 39.448,5.951 C41.9829999999999,5.951 44.4299999999999,6.811 44.4299999999999,9.653 C44.4299999999999,13.782 38.54,13.016 37.499,14.528 C37.499,15.071 37.908,15.702 39.378,15.702 ZM40.627,9.789 C40.627,8.73 39.854,8.503 39.0839999999999,8.503 C35.799,8.503 36.65,12.278 36.65,12.278 C37.261,11.329 40.627,11.234 40.627,9.789 ZM33.111,18.352 C33.111,18.352 31.375,17.837 28.606,17.605 C28.213,15.642 28.467,13.305 25.603,13.13 L25.603,17.605 C25.603,17.605 23.611,17.775 21.313,18.352 C22.835,11.002 21.742,5.992 21.742,5.992 C21.742,5.992 25.603,5.746 25.603,7.483 L25.603,10.467 C26.439,10.467 27.037,10.533 28.499,7.057 C29.221,5.632 32.468,6.312 32.467,6.311 C31.13,10.825 30.002,11.502 28.606,11.746 L28.499,11.746 C31.549,12.024 31.98,13.851 33.111,18.352 ZM11.7670000000001,14.835 C18.45,15.761 18.147,4.982 12.087,4.982 C5.18399999999997,4.982 5.49900000000002,19.016 18.739,18.778 C0.50199999999995,23.861 0.33699999999999,0.985 12.138,0.985 C21.623,0.985 22.63,14.835 16.165,17.073 C13.891,16.966 12.585,15.796 11.7670000000001,14.835 Z "/>
</svg>