<?xml version="1.0" encoding="UTF-8"?>
<!DOCTYPE svg PUBLIC "-//W3C//DTD SVG 1.1//EN" "http://www.w3.org/Graphics/SVG/1.1/DTD/svg11.dtd">
<svg version="1.1" baseProfile="full" xmlns="http://www.w3.org/2000/svg" xmlns:xlink="http://www.w3.org/1999/xlink" xmlns:ev="http://www.w3.org/2001/xml-events" height="624px" width="561px">
<path opacity="0.051" fill="rgb( 255, 255, 255 )" d="M555.871,222.035 C553.265,222.366 550.849,220.505 550.504,217.86 C550.127,215.21 551.968,212.786 554.608,212.43 C557.206,212.085 559.621,213.966 559.952,216.61 C560.329,219.26 558.512,221.679 555.871,222.035 ZM551.677,181.966 C550.114,181.743 548.987,180.295 549.21,178.729 C549.448,177.133 550.873,176.035 552.428,176.227 C554.014,176.432 555.125,177.885 554.899,179.487 C554.68,181.054 553.251,182.169 551.677,181.966 ZM539.771,158.019 C536.52,157.936 533.939,155.219 534.007,151.951 C534.077,148.68 536.768,146.042 540.02,146.121 C543.24,146.189 545.819,148.922 545.738,152.19 C545.659,155.479 542.994,158.084 539.771,158.019 ZM516.755,194.347 C508.68,193.222 503.04,185.673 504.178,177.477 C505.287,169.284 512.784,163.568 520.877,164.682 C528.983,165.81 534.626,173.378 533.494,181.565 C532.36,189.762 524.864,195.482 516.755,194.347 ZM527.5,116.812 C526.501,116.678 525.778,115.744 525.914,114.723 C526.058,113.683 527,112.978 528.001,113.115 C528.996,113.241 529.72,114.175 529.582,115.191 C529.44,116.22 528.502,116.957 527.5,116.812 ZM517.839,141.21 C516.142,141.253 514.729,139.867 514.704,138.145 C514.672,136.419 516.03,135.006 517.723,134.957 C519.419,134.923 520.839,136.302 520.877,138.024 C520.924,139.75 519.558,141.176 517.839,141.21 ZM517.425,157.189 C517.782,159.848 515.95,162.267 513.312,162.619 C510.704,162.958 508.287,161.084 507.955,158.441 C507.595,155.799 509.438,153.388 512.061,153.031 C514.672,152.682 517.072,154.555 517.425,157.189 ZM496.131,123.136 C482.745,122.824 472.141,111.628 472.444,98.097 C472.726,84.574 483.803,73.834 497.182,74.141 C510.532,74.431 521.157,85.627 520.867,99.166 C520.563,112.695 509.484,123.426 496.131,123.136 ZM469.674,118.861 C467.976,118.816 466.628,117.384 466.644,115.675 C466.671,113.962 468.089,112.573 469.784,112.6 C471.489,112.664 472.833,114.073 472.808,115.804 C472.762,117.507 471.364,118.884 469.674,118.861 ZM466.784,77.965 C465.089,77.998 463.669,76.479 463.648,74.529 C463.587,72.584 464.95,70.985 466.656,70.945 C468.367,70.906 469.752,72.433 469.807,74.392 C469.835,76.325 468.489,77.933 466.784,77.965 ZM451.462,109.981 C445.379,110.11 440.351,105.25 440.229,99.122 C440.102,92.967 444.906,87.907 450.97,87.766 C457.041,87.633 462.064,92.492 462.188,98.622 C462.329,104.768 457.51,109.844 451.462,109.981 ZM430.025,83.158 C421.947,84.272 414.48,78.558 413.342,70.401 C412.198,62.225 417.838,54.699 425.919,53.574 C433.997,52.448 441.462,58.161 442.571,66.313 C443.724,74.49 438.103,82.026 430.025,83.158 ZM417.975,133.469 C417.975,136.634 415.392,139.195 412.209,139.195 C409.026,139.195 406.448,136.634 406.448,133.469 C406.448,130.307 409.026,127.747 412.209,127.747 C415.392,127.747 417.975,130.307 417.975,133.469 ZM409.871,47.488 C408.843,47.343 408.148,46.424 408.263,45.4 C408.402,44.369 409.34,43.645 410.338,43.789 C411.342,43.925 412.067,44.853 411.926,45.878 C411.808,46.887 410.853,47.618 409.871,47.488 ZM400.695,111.857 C394.621,111.991 389.602,107.122 389.465,100.981 C389.352,94.839 394.153,89.778 400.207,89.632 C406.287,89.495 411.314,94.373 411.426,100.49 C411.564,106.637 406.744,111.727 400.695,111.857 ZM403.384,79.259 C401.69,79.199 400.347,77.609 400.386,75.681 C400.4,73.733 401.82,72.206 403.524,72.247 C405.217,72.284 406.569,73.88 406.519,75.827 C406.484,77.752 405.069,79.304 403.384,79.259 ZM391.521,74.327 C389.823,74.284 388.466,72.85 388.489,71.15 C388.52,69.414 389.934,68.056 391.63,68.078 C393.321,68.126 394.686,69.533 394.653,71.258 C394.6,72.986 393.215,74.348 391.521,74.327 ZM390.243,62.953 C388.313,62.922 386.799,61.312 386.842,59.365 C386.898,57.424 388.466,55.889 390.39,55.95 C392.296,55.992 393.811,57.598 393.766,59.52 C393.742,61.466 392.156,62.993 390.243,62.953 ZM374.891,46.35 C368.834,46.22 364.049,41.156 364.174,35.031 C364.314,28.922 369.311,24.074 375.36,24.209 C381.418,24.346 386.2,29.417 386.078,35.525 C385.938,41.641 380.924,46.496 374.891,46.35 ZM367.115,55.552 C375.203,56.685 380.857,64.241 379.721,72.436 C378.566,80.614 371.086,86.353 362.98,85.227 C354.868,84.096 349.249,76.54 350.4,68.337 C351.512,60.135 359.009,54.421 367.115,55.552 ZM345.685,13.963 C344.671,13.951 343.852,13.088 343.881,12.061 C343.889,11.049 344.741,10.229 345.766,10.237 C346.766,10.266 347.572,11.119 347.538,12.151 C347.532,13.174 346.68,13.994 345.685,13.963 ZM341.837,52.665 C340.822,52.643 340.002,51.798 340.048,50.775 C340.078,49.732 340.919,48.925 341.937,48.933 C342.949,48.97 343.75,49.826 343.711,50.844 C343.699,51.867 342.854,52.689 341.837,52.665 ZM321.751,58.318 C310.8,58.552 301.731,49.769 301.486,38.705 C301.261,27.617 309.953,18.436 320.874,18.211 C331.83,17.969 340.894,26.754 341.129,37.833 C341.38,48.904 332.706,58.074 321.751,58.318 ZM302.846,52.09 C303.068,53.801 301.888,55.37 300.209,55.591 C298.513,55.822 296.988,54.623 296.767,52.908 C296.51,51.199 297.713,49.642 299.403,49.432 C301.063,49.203 302.623,50.393 302.846,52.09 ZM295.694,23.66 C294.004,23.694 292.604,22.318 292.558,20.612 C292.518,18.894 293.88,17.468 295.555,17.414 C297.279,17.391 298.682,18.752 298.707,20.48 C298.749,22.189 297.404,23.61 295.694,23.66 ZM294.849,42.341 C294.986,43.349 294.294,44.307 293.293,44.421 C292.269,44.552 291.351,43.839 291.211,42.814 C291.086,41.802 291.795,40.873 292.794,40.727 C293.795,40.609 294.723,41.318 294.849,42.341 ZM297.404,83.951 C297.373,84.961 296.544,85.78 295.516,85.749 C294.505,85.726 293.688,84.878 293.738,83.85 C293.738,82.822 294.584,82.008 295.602,82.03 C296.61,82.054 297.404,82.906 297.404,83.951 ZM292.755,67.991 C292.794,66.052 294.373,64.51 296.293,64.57 C298.191,64.612 299.712,66.2 299.679,68.136 C299.626,70.089 298.043,71.604 296.134,71.561 C294.207,71.537 292.694,69.925 292.755,67.991 ZM300.446,115.82 C300.446,119.001 297.864,121.584 294.682,121.584 C291.497,121.584 288.917,119.001 288.917,115.82 C288.917,112.633 291.497,110.053 294.682,110.053 C297.864,110.053 300.446,112.633 300.446,115.82 ZM281.897,203.594 C271.45,203.927 258.852,196.275 256.827,181.23 C243.668,183.051 218.983,188.947 206.866,207.957 C204.114,212.273 201.883,216.301 199.991,220.146 C203.181,220.543 206.982,219.945 212.149,219.499 C208.928,226.549 200.952,231.484 194.534,233.096 C194.53,233.107 194.525,233.119 194.521,233.131 C194.77,233.06 195.03,232.999 195.264,232.915 C198.719,231.667 202.365,235.021 194.494,235.982 C194.152,236.024 193.834,236.04 193.512,236.06 C190.466,245.182 188.396,253.906 184.702,263.826 C189.017,266.911 194.92,267.253 203.709,268.673 C197.452,276.463 186.18,280.241 177.563,280.478 C177.692,280.479 177.82,280.481 177.957,280.476 C182.164,280.349 184.077,284.583 178.303,285.028 C177.115,285.12 175.984,285.025 174.881,284.846 C173.437,287.394 171.865,290.03 170.105,292.792 C152.087,321.059 131.454,329.055 124.783,326.517 C124.65,326.661 124.508,326.822 124.379,326.958 C121.115,330.412 114.011,325.228 118.236,323.883 C119.077,323.615 120.252,322.958 121.574,322.114 C118.105,311.399 118.494,281.051 143.692,236.507 C140.635,239.459 138.245,236.919 144.582,226.771 C145.464,225.359 146.394,224.027 147.338,222.779 C146.242,211.219 146.197,200.384 152.801,188.786 C157.043,195.236 162.902,198.789 172.14,198.405 C203.881,168.847 240.089,169.343 257.004,171.663 C260.062,153.647 279.876,148.945 287.734,150.39 C280.337,156.551 262.681,176.336 281.897,203.594 ZM281.637,85.878 C280.61,85.845 279.801,85.002 279.833,83.964 C279.856,82.937 280.694,82.133 281.721,82.153 C282.745,82.167 283.519,83.038 283.499,84.05 C283.499,85.081 282.645,85.893 281.637,85.878 ZM269.198,106.655 C265.337,106.587 262.284,103.342 262.371,99.445 C262.455,95.548 265.641,92.44 269.503,92.524 C273.363,92.618 276.415,95.845 276.344,99.758 C276.251,103.662 273.073,106.765 269.198,106.655 ZM270.725,5.20999999999999 C269.584,5.172 268.67,4.214 268.712,3.057 C268.727,1.895 269.698,0.97499999999999 270.809,1.01000000000001 C271.96,1.045 272.876,1.995 272.861,3.14700000000001 C272.808,4.31100000000001 271.878,5.22499999999999 270.725,5.20999999999999 ZM272.5,82.783 C272.439,84.706 271.046,86.236 269.368,86.204 C267.643,86.145 266.312,84.547 266.342,82.622 C266.362,80.684 267.794,79.15 269.475,79.184 C271.181,79.226 272.54,80.834 272.5,82.783 ZM262.922,70.308 C263.057,71.335 262.339,72.254 261.34,72.388 C260.327,72.545 259.412,71.807 259.255,70.779 C259.15,69.772 259.836,68.836 260.866,68.717 C261.855,68.582 262.781,69.281 262.922,70.308 ZM253.081,58.604 C245.013,59.733 237.546,54.017 236.411,45.845 C235.271,37.681 240.891,30.151 248.956,29.021 C257.065,27.895 264.532,33.607 265.641,41.771 C266.78,49.942 261.146,57.477 253.081,58.604 ZM239.572,88.123 C239.703,89.144 238.993,90.072 237.975,90.21 C236.98,90.344 236.047,89.614 235.911,88.622 C235.77,87.579 236.491,86.652 237.491,86.531 C238.491,86.379 239.408,87.105 239.572,88.123 ZM246.686,70.142 C244.991,70.353 243.451,69.163 243.227,67.437 C242.987,65.741 244.187,64.176 245.872,63.949 C247.542,63.73 249.101,64.946 249.332,66.637 C249.555,68.337 248.377,69.91 246.686,70.142 ZM246.345,115.086 C246.113,115.689 245.685,116.187 245.013,116.288 C244.378,116.364 243.861,116.05 243.486,115.605 L243.458,115.605 C239.131,115.511 235.686,111.876 235.77,107.468 C235.849,103.081 239.45,99.586 243.813,99.662 C248.17,99.78 251.623,103.418 251.517,107.818 C251.444,111.188 249.311,113.99 246.345,115.086 ZM251.792,77.25 C250.762,77.231 249.956,76.383 249.983,75.358 C250.012,74.33 250.847,73.512 251.877,73.526 C252.886,73.564 253.706,74.41 253.65,75.441 C253.641,76.457 252.82,77.282 251.792,77.25 ZM256.671,89.31 C256.913,91.025 255.73,92.577 254.038,92.793 C252.347,93.031 250.791,91.823 250.571,90.123 C250.35,88.417 251.539,86.853 253.22,86.625 C254.897,86.418 256.458,87.622 256.671,89.31 ZM230.263,64.37 C228.566,64.34 227.218,62.926 227.246,61.186 C227.277,59.47 228.691,58.106 230.384,58.137 C232.081,58.165 233.437,59.589 233.413,61.312 C233.384,63.044 231.963,64.405 230.263,64.37 ZM231.522,32.773 C230.539,32.913 229.609,32.186 229.468,31.173 C229.328,30.158 230.05,29.217 231.054,29.073 C232.064,28.965 232.98,29.672 233.133,30.681 C233.272,31.708 232.55,32.636 231.522,32.773 ZM217.616,57.064 C213.007,57.159 209.172,53.477 209.09,48.804 C208.984,44.157 212.615,40.306 217.224,40.206 C221.817,40.105 225.62,43.798 225.735,48.445 C225.835,53.095 222.194,56.944 217.616,57.064 ZM206.829,85.655 C206.947,79.526 211.979,74.684 218.006,74.812 C224.052,74.956 228.862,80.021 228.717,86.118 C228.583,92.251 223.583,97.096 217.544,96.97 C211.48,96.833 206.689,91.763 206.829,85.655 ZM220.032,103.869 C220.083,101.947 221.669,100.39 223.583,100.442 C225.513,100.496 227.013,102.094 226.971,104.032 C226.941,105.962 225.345,107.492 223.447,107.468 C221.518,107.41 219.999,105.806 220.032,103.869 ZM222.545,133.831 C220.644,133.831 219.105,132.288 219.105,130.389 C219.105,128.487 220.644,126.944 222.545,126.944 C224.448,126.944 225.989,128.487 225.989,130.389 C225.989,132.288 224.448,133.831 222.545,133.831 ZM204.993,73.312 C203.284,73.27 201.927,71.857 201.968,70.134 C201.999,68.418 203.404,67.037 205.109,67.101 C206.784,67.12 208.162,68.536 208.117,70.26 C208.094,71.979 206.673,73.332 204.993,73.312 ZM196.488,61.444 C194.574,61.392 193.045,59.791 193.074,57.846 C193.127,55.909 194.725,54.37 196.626,54.421 C198.559,54.476 200.065,56.068 200.012,58.01 C199.982,59.939 198.402,61.466 196.488,61.444 ZM195.068,103.249 C194.948,102.248 195.651,101.289 196.654,101.167 C197.667,101.03 198.595,101.743 198.734,102.762 C198.858,103.792 198.151,104.711 197.154,104.855 C196.144,104.979 195.211,104.274 195.068,103.249 ZM204.954,127.604 C205.039,131.515 201.986,134.748 198.114,134.847 C194.264,134.923 191.046,131.828 190.99,127.917 C190.906,124.014 193.96,120.791 197.823,120.695 C201.676,120.604 204.886,123.71 204.954,127.604 ZM194.264,84.141 C194.393,85.149 193.695,86.093 192.671,86.236 C191.685,86.371 190.739,85.635 190.63,84.634 C190.496,83.6 191.182,82.657 192.186,82.526 C193.184,82.402 194.113,83.121 194.264,84.141 ZM187.187,94.943 C185.018,95.244 183.079,93.736 182.797,91.599 C182.467,89.45 183.971,87.466 186.105,87.168 C188.216,86.87 190.155,88.377 190.496,90.525 C190.77,92.676 189.294,94.657 187.187,94.943 ZM177.944,56.541 C171.904,56.404 167.126,51.333 167.242,45.225 C167.378,39.099 172.397,34.259 178.442,34.379 C184.494,34.522 189.271,39.577 189.125,45.688 C189.018,51.818 183.994,56.67 177.944,56.541 ZM168.046,71.015 C168.271,72.715 167.086,74.263 165.409,74.513 C163.715,74.717 162.175,73.504 161.951,71.807 C161.728,70.109 162.922,68.536 164.577,68.323 C166.267,68.116 167.825,69.301 168.046,71.015 ZM152.21,61.846 C150.542,62.092 148.984,60.879 148.767,59.17 C148.529,57.466 149.707,55.889 151.401,55.663 C153.094,55.453 154.648,56.659 154.868,58.369 C155.092,60.068 153.895,61.641 152.21,61.846 ZM175.706,80.256 C175.761,78.33 177.36,76.793 179.246,76.832 C181.162,76.874 182.692,78.48 182.633,80.404 C182.602,82.353 180.995,83.888 179.109,83.837 C177.195,83.796 175.682,82.204 175.706,80.256 ZM161.755,134.868 C162.758,134.737 163.685,135.439 163.811,136.475 C163.948,137.483 163.24,138.418 162.229,138.543 C161.231,138.692 160.307,137.975 160.175,136.95 C160.033,135.941 160.756,135.006 161.755,134.868 ZM168.125,143.596 C167.989,142.57 168.681,141.652 169.71,141.513 C170.71,141.368 171.653,142.091 171.796,143.102 C171.904,144.125 171.208,145.076 170.197,145.2 C169.182,145.333 168.271,144.623 168.125,143.596 ZM166.465,177.627 C163.304,177.627 160.739,175.048 160.739,171.864 C160.739,168.68 163.304,166.099 166.465,166.099 C169.626,166.099 172.189,168.68 172.189,171.864 C172.189,175.048 169.626,177.627 166.465,177.627 ZM165.867,87.47 C176.817,87.231 185.854,96.018 186.105,107.084 C186.325,118.154 177.666,127.333 166.74,127.581 C155.815,127.835 146.737,119.033 146.49,107.955 C146.269,96.891 154.95,87.729 165.867,87.47 ZM152.313,145.169 C152.264,147.103 150.707,148.639 148.767,148.596 C146.862,148.54 145.344,146.945 145.387,145.017 C145.445,143.069 147.012,141.527 148.926,141.575 C150.842,141.621 152.374,143.22 152.313,145.169 ZM142.769,92.3 C141.073,92.524 139.523,91.311 139.299,89.605 C139.075,87.907 140.28,86.331 141.947,86.125 C143.653,85.883 145.208,87.096 145.418,88.798 C145.625,90.499 144.461,92.065 142.769,92.3 ZM144.068,126.481 C144.281,128.174 143.103,129.753 141.406,129.973 C139.747,130.198 138.188,128.983 137.964,127.275 C137.743,125.574 138.934,124.028 140.604,123.806 C142.28,123.578 143.837,124.793 144.068,126.481 ZM122.298,164.784 C117.211,164.887 112.966,160.806 112.85,155.645 C112.743,150.465 116.798,146.189 121.89,146.069 C126.998,145.973 131.221,150.08 131.326,155.23 C131.439,160.391 127.388,164.674 122.298,164.784 ZM128.246,121.949 C126.555,122.168 125,120.955 124.779,119.248 C124.556,117.566 125.748,115.988 127.414,115.765 C129.106,115.555 130.658,116.751 130.887,118.464 C131.105,120.158 129.915,121.72 128.246,121.949 ZM112.079,109.086 C108.496,108.578 106.037,105.25 106.507,101.641 C107.026,98.038 110.328,95.519 113.879,96.018 C117.447,96.522 119.935,99.825 119.43,103.444 C118.92,107.061 115.613,109.566 112.079,109.086 ZM108.742,123.682 C110.451,123.73 111.8,125.152 111.769,126.878 C111.717,128.602 110.314,129.956 108.605,129.912 C106.909,129.87 105.591,128.447 105.623,126.728 C105.65,125.014 107.049,123.66 108.742,123.682 ZM106.605,149.086 C106.746,150.118 106.064,151.032 105.064,151.178 C104.069,151.316 103.123,150.597 102.984,149.576 C102.873,148.563 103.567,147.619 104.564,147.486 C105.591,147.356 106.482,148.065 106.605,149.086 ZM115.264,182.191 C115.188,186.586 111.604,190.079 107.247,189.994 C102.896,189.899 99.457,186.247 99.542,181.86 C99.648,177.458 103.236,173.953 107.576,174.059 C111.939,174.148 115.38,177.809 115.264,182.191 ZM104.479,206.24 C104.538,209.428 102.063,212.058 98.926,212.144 C95.796,212.186 93.186,209.67 93.123,206.505 C93.039,203.309 95.542,200.693 98.683,200.617 C101.818,200.549 104.426,203.058 104.479,206.24 ZM95.043,177.663 C94.046,177.809 93.123,177.079 92.988,176.067 C92.848,175.04 93.573,174.1 94.574,173.983 C95.57,173.836 96.482,174.564 96.627,175.576 C96.79,176.598 96.07,177.528 95.043,177.663 ZM91.877,96.883 C90.881,97.02 89.949,96.299 89.811,95.272 C89.686,94.264 90.396,93.324 91.375,93.197 C92.404,93.057 93.319,93.766 93.46,94.798 C93.6,95.821 92.874,96.746 91.877,96.883 ZM93.073,126.481 C93.039,128.408 91.463,129.956 89.53,129.908 C87.616,129.852 86.12,128.248 86.157,126.311 C86.214,124.38 87.782,122.846 89.695,122.889 C91.614,122.924 93.123,124.529 93.073,126.481 ZM74.972,150.275 C68.904,150.391 63.908,145.542 63.767,139.439 C63.626,133.313 68.415,128.248 74.469,128.114 C80.524,127.97 85.518,132.823 85.659,138.941 C85.794,145.076 80.993,150.136 74.972,150.275 ZM78.055,113.706 C77.051,113.84 76.122,113.115 75.969,112.086 C75.831,111.066 76.551,110.136 77.581,110.01 C78.567,109.854 79.48,110.589 79.633,111.614 C79.772,112.626 79.067,113.562 78.055,113.706 ZM67.421,156.812 C67.363,158.537 65.973,159.913 64.285,159.863 C62.588,159.838 61.228,158.42 61.267,156.691 C61.295,154.971 62.714,153.615 64.395,153.633 C66.114,153.676 67.443,155.087 67.421,156.812 ZM72.055,167.489 C70.37,167.706 68.819,166.512 68.615,164.81 C68.365,163.09 69.554,161.542 71.251,161.314 C72.918,161.084 74.469,162.286 74.69,163.998 C74.928,165.709 73.749,167.255 72.055,167.489 ZM68.889,172.88 C73.234,172.974 76.686,176.624 76.584,181.026 C76.496,185.428 72.903,188.909 68.542,188.826 C64.201,188.727 60.757,185.072 60.853,180.676 C60.952,176.277 64.548,172.781 68.889,172.88 ZM62.975,248.378 C63.044,251.566 60.534,254.187 57.411,254.264 C54.274,254.339 51.677,251.813 51.596,248.635 C51.535,245.451 54.019,242.821 57.162,242.761 C60.286,242.678 62.924,245.185 62.975,248.378 ZM53.344,161.917 C52.341,162.046 51.431,161.332 51.29,160.314 C51.15,159.294 51.847,158.368 52.873,158.221 C53.868,158.084 54.787,158.818 54.954,159.838 C55.064,160.85 54.362,161.785 53.344,161.917 ZM49.096,224.334 C48.096,224.299 47.292,223.457 47.307,222.423 C47.322,221.405 48.18,220.58 49.179,220.606 C50.205,220.633 51.008,221.481 50.986,222.506 C50.956,223.555 50.122,224.36 49.096,224.334 ZM48.431,194.411 C47.414,194.389 46.626,193.537 46.626,192.512 C46.655,191.479 47.499,190.672 48.514,190.701 C49.515,190.724 50.345,191.564 50.317,192.591 C50.29,193.613 49.458,194.436 48.431,194.411 ZM47.903,172.428 C46.888,172.566 45.958,171.863 45.82,170.845 C45.713,169.809 46.403,168.87 47.403,168.727 C48.403,168.604 49.346,169.333 49.482,170.347 C49.599,171.365 48.901,172.299 47.903,172.428 ZM47.822,234.128 C47.785,236.07 46.198,237.589 44.295,237.553 C42.381,237.52 40.834,235.928 40.877,233.988 C40.917,232.045 42.498,230.503 44.435,230.547 C46.33,230.6 47.847,232.186 47.822,234.128 ZM38.825,219.654 C36.897,219.622 35.384,218.031 35.438,216.079 C35.462,214.146 37.061,212.614 38.966,212.662 C40.909,212.696 42.406,214.306 42.381,216.232 C42.325,218.161 40.737,219.7 38.825,219.654 ZM38.267,199.664 C36.556,199.889 35.021,198.69 34.797,196.972 C34.551,195.276 35.755,193.724 37.438,193.492 C39.129,193.273 40.653,194.479 40.909,196.164 C41.126,197.878 39.948,199.438 38.267,199.664 ZM35.648,246.868 C35.8,247.887 35.092,248.822 34.073,248.959 C33.08,249.087 32.161,248.355 32.008,247.354 C31.867,246.326 32.591,245.398 33.605,245.27 C34.605,245.127 35.519,245.852 35.648,246.868 ZM19.748,246.663 C13.673,246.518 8.896,241.46 9.042,235.322 C9.17400000000001,229.224 14.173,224.382 20.222,224.504 C26.275,224.644 31.051,229.709 30.923,235.823 C30.802,241.949 25.786,246.79 19.748,246.663 ZM21.501,217.913 C19.572,217.86 18.057,216.262 18.084,214.306 C18.141,212.378 19.725,210.827 21.641,210.887 C23.555,210.944 25.053,212.528 25.027,214.468 C24.969,216.398 23.417,217.941 21.501,217.913 ZM14.982,299.933 C15.059,303.827 12.007,307.077 8.14700000000001,307.157 C4.274,307.243 1.063,304.143 0.996,300.238 C0.90000000000001,296.332 3.96899999999999,293.098 7.84,293.012 C11.689,292.93 14.896,296.036 14.982,299.933 ZM10.728,320.275 C12.867,319.977 14.827,321.475 15.143,323.647 C15.449,325.774 13.965,327.772 11.813,328.052 C9.7,328.375 7.73099999999999,326.869 7.45,324.702 C7.148,322.571 8.616,320.569 10.728,320.275 ZM16.976,342.556 C18.89,342.612 20.388,344.206 20.362,346.152 C20.334,348.075 18.749,349.618 16.834,349.593 C14.903,349.527 13.394,347.935 13.448,345.991 C13.476,344.051 15.073,342.51 16.976,342.556 ZM19.913,391.973 C23.474,391.476 26.763,394.002 27.246,397.607 C27.774,401.203 25.276,404.507 21.722,405.006 C18.168,405.503 14.896,402.995 14.391,399.384 C13.894,395.804 16.366,392.488 19.913,391.973 ZM28.299,406.712 C31.859,406.203 35.156,408.711 35.648,412.315 C36.148,415.912 33.675,419.203 30.104,419.714 C26.57,420.2 23.276,417.704 22.775,414.108 C22.291,410.483 24.757,407.188 28.299,406.712 ZM35.132,437.379 C36.148,437.242 37.089,437.958 37.212,438.987 C37.323,440.014 36.634,440.93 35.629,441.057 C34.618,441.178 33.713,440.484 33.561,439.457 C33.409,438.456 34.13,437.503 35.132,437.379 ZM39.431,421.86 C41.145,421.64 42.681,422.834 42.906,424.556 C43.141,426.262 41.947,427.803 40.283,428.05 C38.575,428.262 37.033,427.052 36.798,425.362 C36.572,423.638 37.768,422.086 39.431,421.86 ZM40.653,442.521 C41.812,442.556 42.71,443.512 42.71,444.661 C42.654,445.816 41.709,446.758 40.576,446.7 C39.431,446.7 38.521,445.733 38.543,444.563 C38.575,443.426 39.515,442.512 40.653,442.521 ZM45.154,453.226 C46.848,453.001 48.388,454.194 48.595,455.887 C48.815,457.61 47.668,459.165 45.973,459.385 C44.295,459.62 42.739,458.411 42.498,456.72 C42.282,454.998 43.46,453.447 45.154,453.226 ZM52.788,468.46 C56.352,467.963 59.633,470.482 60.132,474.067 C60.646,477.66 58.147,480.974 54.593,481.474 C51.036,481.971 47.75,479.449 47.263,475.844 C46.753,472.274 49.236,468.96 52.788,468.46 ZM59.566,356.252 C59.59,357.965 58.256,359.396 56.55,359.424 C54.844,359.471 53.451,358.102 53.411,356.376 C53.368,354.659 54.703,353.225 56.427,353.206 C58.117,353.144 59.535,354.532 59.566,356.252 ZM52.318,264.641 C53.986,264.402 55.539,265.6 55.763,267.338 C55.997,269.025 54.816,270.581 53.139,270.799 C51.431,271.024 49.901,269.826 49.665,268.124 C49.43,266.425 50.624,264.849 52.318,264.641 ZM55.01,382.399 C54.995,383.541 54.036,384.459 52.897,384.426 C51.761,384.417 50.846,383.454 50.87,382.292 C50.901,381.126 51.847,380.207 52.985,380.248 C54.147,380.264 55.035,381.23 55.01,382.399 ZM48.975,296.684 C52.159,296.684 54.739,299.244 54.739,302.41 C54.739,305.573 52.159,308.132 48.975,308.132 C45.791,308.132 43.21,305.573 43.21,302.41 C43.21,299.244 45.791,296.684 48.975,296.684 ZM41.837,259.65 C42.839,259.523 43.763,260.234 43.901,261.27 C44.029,262.281 43.333,263.229 42.325,263.351 C41.308,263.474 40.374,262.76 40.266,261.74 C40.134,260.737 40.82,259.799 41.837,259.65 ZM43.295,279.353 C43.54,281.064 42.339,282.616 40.653,282.846 C38.966,283.068 37.425,281.866 37.203,280.156 C36.963,278.442 38.145,276.899 39.852,276.657 C41.517,276.449 43.073,277.643 43.295,279.353 ZM9.43600000000001,265.426 C8.31399999999999,257.252 13.922,249.73 22,248.595 C30.08,247.48 37.548,253.182 38.66,261.361 C39.807,269.524 34.189,277.067 26.108,278.18 C18.031,279.309 10.564,273.589 9.43600000000001,265.426 ZM18.252,287.048 C18.28,285.339 19.71,283.981 21.39,284.003 C23.08,284.038 24.442,285.465 24.399,287.192 C24.362,288.912 22.974,290.281 21.264,290.24 C19.572,290.19 18.222,288.776 18.252,287.048 ZM24.582,298.753 C26.719,298.462 28.691,299.961 28.985,302.108 C29.278,304.246 27.805,306.243 25.679,306.549 C23.555,306.827 21.585,305.331 21.28,303.175 C21.001,301.029 22.474,299.053 24.582,298.753 ZM42.546,355.078 C41.53,355.231 40.599,354.494 40.474,353.466 C40.357,352.451 41.042,351.528 42.06,351.4 C43.073,351.248 43.986,351.983 44.124,352.988 C44.253,354.02 43.571,354.95 42.546,355.078 ZM43.881,334.645 C43.822,336.586 42.239,338.111 40.326,338.093 C38.406,338.034 36.882,336.434 36.933,334.496 C36.963,332.564 38.56,331.025 40.474,331.058 C42.381,331.108 43.901,332.708 43.881,334.645 ZM36.129,350.485 C36.265,351.507 35.578,352.451 34.551,352.575 C33.552,352.714 32.619,351.999 32.497,350.988 C32.36,349.96 33.063,349.021 34.062,348.885 C35.063,348.757 36.005,349.485 36.129,350.485 ZM31.662,337.366 C31.608,339.085 30.219,340.447 28.493,340.406 C26.803,340.369 25.443,338.947 25.496,337.228 C25.527,335.515 26.941,334.137 28.66,334.188 C30.326,334.215 31.691,335.635 31.662,337.366 ZM22.442,322.924 C22.552,318.537 26.163,315.049 30.496,315.145 C34.858,315.239 38.301,318.884 38.183,323.285 C38.099,327.678 34.495,331.162 30.13,331.077 C25.802,330.972 22.361,327.329 22.442,322.924 ZM59.381,453.778 C59.507,454.809 58.812,455.72 57.785,455.871 C56.788,455.997 55.855,455.278 55.733,454.262 C55.593,453.256 56.286,452.307 57.316,452.17 C58.312,452.045 59.242,452.765 59.381,453.778 ZM46.15,434.366 C45.651,430.774 48.14,427.467 51.677,426.97 C55.258,426.457 58.538,428.983 59.004,432.576 C59.535,436.182 57.035,439.486 53.497,439.986 C49.927,440.484 46.655,437.971 46.15,434.366 ZM38.267,395.275 C38.396,396.306 37.684,397.218 36.688,397.353 C35.686,397.496 34.774,396.804 34.618,395.775 C34.482,394.751 35.187,393.808 36.198,393.682 C37.212,393.557 38.13,394.247 38.267,395.275 ZM18.391,374.13 C17.25,365.972 22.889,358.45 30.955,357.319 C39.018,356.202 46.484,361.906 47.624,370.065 C48.763,378.234 43.141,385.772 35.063,386.913 C26.998,388.033 19.53,382.3 18.391,374.13 ZM55.141,411.817 C51.956,411.817 49.377,409.237 49.377,406.052 C49.377,402.869 51.956,400.289 55.141,400.289 C58.323,400.289 60.905,402.869 60.905,406.052 C60.905,409.237 58.323,411.817 55.141,411.817 ZM62.812,445.312 C63.811,445.346 64.643,446.177 64.612,447.201 C64.587,448.257 63.755,449.065 62.728,449.034 C61.704,449.008 60.892,448.171 60.936,447.143 C60.952,446.091 61.797,445.286 62.812,445.312 ZM65.422,458.941 C67.115,458.917 68.529,460.271 68.556,461.996 C68.615,463.713 67.239,465.131 65.557,465.174 C63.864,465.2 62.453,463.839 62.41,462.103 C62.368,460.4 63.727,458.967 65.422,458.941 ZM68.639,500.958 C72.222,500.484 75.494,503.01 76.003,506.591 C76.496,510.195 73.997,513.516 70.449,514.001 C66.893,514.487 63.616,511.958 63.116,508.366 C62.633,504.758 65.117,501.454 68.639,500.958 ZM71.028,478.923 C71.071,476.981 72.665,475.451 74.553,475.494 C76.47,475.551 77.995,477.148 77.971,479.077 C77.911,481.03 76.313,482.555 74.414,482.503 C72.498,482.478 71.005,480.864 71.028,478.923 ZM71.153,460.119 C71.225,456.222 74.414,453.113 78.299,453.195 C82.16,453.306 85.216,456.527 85.132,460.441 C85.023,464.35 81.858,467.434 77.995,467.349 C74.139,467.269 71.055,464.034 71.153,460.119 ZM90.101,187.808 C91.099,187.672 92.046,188.396 92.184,189.408 C92.321,190.425 91.598,191.372 90.601,191.5 C89.589,191.62 88.659,190.913 88.533,189.89 C88.394,188.876 89.102,187.945 90.101,187.808 ZM89.379,228.768 C90.506,228.808 91.432,229.747 91.375,230.902 C91.361,232.054 90.434,232.983 89.269,232.943 C88.127,232.938 87.242,231.978 87.242,230.824 C87.272,229.654 88.226,228.741 89.379,228.768 ZM67.864,310.838 C67.725,309.819 68.415,308.891 69.419,308.752 C70.449,308.626 71.362,309.354 71.483,310.357 C71.639,311.385 70.919,312.314 69.916,312.449 C68.904,312.577 67.974,311.866 67.864,310.838 ZM66.669,331.191 C69.852,331.191 72.434,333.77 72.434,336.955 C72.434,340.142 69.852,342.722 66.669,342.722 C63.486,342.722 60.905,340.142 60.905,336.955 C60.905,333.77 63.486,331.191 66.669,331.191 ZM63.864,371.619 C62.728,371.594 61.797,370.617 61.84,369.47 C61.851,368.328 62.812,367.382 63.951,367.417 C65.1,367.442 66.002,368.397 65.973,369.566 C65.95,370.715 65.002,371.632 63.864,371.619 ZM65.727,432.469 C65.605,431.438 66.309,430.498 67.307,430.358 C68.309,430.23 69.239,430.967 69.394,431.96 C69.501,432.989 68.813,433.922 67.804,434.047 C66.792,434.186 65.864,433.477 65.727,432.469 ZM75.076,423.349 C73.174,423.349 71.633,421.806 71.633,419.904 C71.633,418.003 73.174,416.46 75.076,416.46 C76.977,416.46 78.518,418.003 78.518,419.904 C78.518,421.806 76.977,423.349 75.076,423.349 ZM75.233,296.821 C73.305,296.781 71.806,295.16 71.83,293.231 C71.892,291.297 73.472,289.765 75.386,289.796 C77.305,289.844 78.816,291.451 78.774,293.389 C78.732,295.335 77.149,296.855 75.233,296.821 ZM87.934,482.338 C88.108,483.358 87.38,484.283 86.35,484.418 C85.353,484.557 84.425,483.835 84.3,482.82 C84.16,481.796 84.858,480.852 85.881,480.726 C86.88,480.586 87.801,481.309 87.934,482.338 ZM76.276,387.636 C76.276,384.455 78.839,381.872 82,381.872 C85.162,381.872 87.724,384.455 87.724,387.636 C87.724,390.822 85.162,393.402 82,393.402 C78.839,393.402 76.276,390.822 76.276,387.636 ZM72.696,493.63 C72.918,495.322 71.74,496.879 70.047,497.101 C68.365,497.322 66.826,496.126 66.584,494.42 C66.364,492.729 67.561,491.148 69.227,490.926 C70.919,490.717 72.475,491.896 72.696,493.63 ZM69.893,439.457 C70.886,439.347 71.806,440.04 71.943,441.057 C72.084,442.065 71.379,443.005 70.364,443.152 C69.344,443.259 68.415,442.567 68.297,441.551 C68.141,440.526 68.866,439.596 69.893,439.457 ZM61.341,236.321 C61.171,235.315 61.897,234.368 62.924,234.239 C63.921,234.101 64.841,234.821 64.962,235.851 C65.117,236.877 64.395,237.793 63.397,237.924 C62.376,238.04 61.449,237.352 61.341,236.321 ZM65.467,214.097 C65.467,212.171 67.028,210.616 68.95,210.616 C70.873,210.616 72.434,212.171 72.434,214.097 C72.434,216.02 70.873,217.577 68.95,217.577 C67.028,217.577 65.467,216.02 65.467,214.097 ZM91.307,263.851 C92.46,272.032 86.826,279.558 78.745,280.68 C70.664,281.802 63.228,276.095 62.075,267.927 C60.919,259.756 66.569,252.23 74.637,251.097 C82.702,249.967 90.181,255.686 91.307,263.851 ZM77.082,241.417 C75.165,241.38 73.638,239.778 73.667,237.846 C73.721,235.905 75.316,234.368 77.235,234.421 C79.136,234.447 80.663,236.07 80.622,237.994 C80.579,239.928 79,241.468 77.082,241.417 ZM83.021,156.345 C84.938,156.377 86.463,157.983 86.425,159.92 C86.379,161.86 84.8,163.396 82.869,163.363 C80.968,163.31 79.442,161.709 79.494,159.769 C79.525,157.837 81.105,156.304 83.021,156.345 ZM87.38,490.03 C90.933,489.533 94.241,492.048 94.735,495.644 C95.24,499.247 92.765,502.566 89.201,503.068 C85.646,503.553 82.353,501.038 81.858,497.443 C81.358,493.848 83.826,490.536 87.38,490.03 ZM85.117,513.349 C86.245,513.391 87.164,514.335 87.129,515.501 C87.098,516.647 86.157,517.579 85.023,517.525 C83.88,517.525 82.969,516.55 82.994,515.387 C83.021,514.252 83.963,513.335 85.117,513.349 ZM94.651,523.187 C96.38,522.949 97.904,524.157 98.153,525.85 C98.373,527.572 97.183,529.124 95.486,529.347 C93.791,529.566 92.268,528.38 92.013,526.66 C91.791,524.965 92.988,523.404 94.651,523.187 ZM95.126,510.587 C95.013,509.56 95.735,508.618 96.706,508.492 C97.733,508.366 98.652,509.089 98.794,510.092 C98.902,511.114 98.208,512.057 97.211,512.179 C96.209,512.337 95.263,511.613 95.126,510.587 ZM102.147,531.595 C103.151,531.623 103.953,532.471 103.926,533.48 C103.926,534.522 103.067,535.34 102.063,535.325 C101.069,535.302 100.234,534.457 100.264,533.426 C100.287,532.403 101.117,531.571 102.147,531.595 ZM101.484,516.927 C101.342,515.916 102.043,514.973 103.067,514.832 C104.069,514.711 105.008,515.43 105.145,516.443 C105.263,517.473 104.564,518.385 103.567,518.539 C102.537,518.646 101.619,517.94 101.484,516.927 ZM108.217,200.643 C108.231,199.5 109.187,198.593 110.328,198.597 C111.48,198.62 112.382,199.588 112.355,200.742 C112.327,201.892 111.378,202.811 110.246,202.787 C109.091,202.764 108.188,201.817 108.217,200.643 ZM103.307,351.762 C115.032,358.527 124.431,362.609 131.989,362.021 C152.653,349.228 157.582,337.684 159.471,336.26 C161.212,334.95 162.494,335.828 163.222,336.787 C164.218,338.112 165.201,362.027 144.68,374.49 C142.418,385.262 142.226,402.259 155.482,419.839 C167.356,435.586 188.008,440.196 210.75,446.546 C207.586,443.68 205.176,440.599 198.781,438.38 C202.619,431.011 201.843,416.889 201.238,413.868 C200.687,411.108 202.616,410.1 204.038,410.916 C215.258,417.347 223.261,440.981 225.432,450.953 C246.036,457.724 267.167,467.973 284.229,490.601 C286.381,493.453 285.405,494.745 281.308,497.834 C273.032,504.076 263.697,509.003 253.859,512.397 C254.015,512.647 254.177,512.898 254.326,513.149 C258.453,520.108 253.399,516.366 253.399,516.366 C253.399,516.366 243.345,524.507 244.83,516.113 C244.896,515.741 244.908,515.379 244.926,515.015 C232.731,517.965 220.035,518.486 207.775,516.219 C202.576,522.265 191.77,529.794 173.789,525.205 C169.334,524.07 176.675,522.731 182.189,516.352 C184.443,513.747 185.614,511.091 186.224,508.88 C183.056,507.244 179.978,505.342 176.987,503.22 C168.003,505.453 153.295,505.217 139.409,489.794 C135.853,485.843 143.776,489.268 153.169,486.688 C155.127,486.151 156.812,485.414 158.272,484.597 C158.202,484.501 158.133,484.405 158.062,484.309 C156.78,485.045 155.527,485.635 154.377,486.134 C149.799,488.117 150.911,480.981 154.627,480.909 C154.941,480.903 155.243,480.871 155.541,480.828 C123.261,434.895 126.255,394.035 128.642,379.891 C116.639,380.009 109.038,369.356 106.572,366.082 C103.667,362.232 99.824,351.851 103.307,351.762 ZM110.451,549.772 C109.314,549.757 108.396,548.805 108.422,547.652 C108.441,546.5 109.392,545.554 110.535,545.58 C111.688,545.612 112.589,546.579 112.56,547.748 C112.545,548.884 111.604,549.817 110.451,549.772 ZM114.102,519.939 C115.102,519.915 115.967,520.729 115.988,521.755 C116.015,522.799 115.198,523.656 114.186,523.685 C113.158,523.696 112.327,522.886 112.297,521.855 C112.284,520.813 113.074,519.953 114.102,519.939 ZM116.184,559.084 C121.279,558.958 125.528,563.055 125.607,568.229 C125.748,573.391 121.698,577.664 116.599,577.771 C111.495,577.912 107.257,573.806 107.161,568.615 C107.049,563.468 111.076,559.177 116.184,559.084 ZM121.75,545.025 C121.614,546.039 120.67,546.759 119.699,546.633 C118.682,546.5 117.96,545.554 118.102,544.541 C118.22,543.515 119.152,542.79 120.177,542.921 C121.173,543.058 121.89,543.996 121.75,545.025 ZM116.168,531.553 C116.212,528.876 118.433,526.723 121.087,526.792 C123.719,526.85 125.829,529.084 125.775,531.761 C125.721,534.457 123.526,536.568 120.861,536.522 C118.211,536.482 116.099,534.217 116.168,531.553 ZM128.467,547.081 C129.493,546.956 130.413,547.66 130.555,548.688 C130.658,549.714 129.969,550.634 128.969,550.771 C127.967,550.91 127.049,550.191 126.914,549.166 C126.773,548.136 127.501,547.221 128.467,547.081 ZM134.44,539.519 C135.434,539.394 136.38,540.115 136.51,541.116 C136.646,542.141 135.939,543.088 134.908,543.222 C133.941,543.364 132.99,542.612 132.855,541.614 C132.744,540.586 133.41,539.639 134.44,539.519 ZM138.05,556.755 C139.172,556.793 140.105,557.737 140.071,558.92 C140.043,560.067 139.1,560.984 137.964,560.958 C136.797,560.935 135.894,559.971 135.939,558.807 C135.962,557.654 136.885,556.738 138.05,556.755 ZM147.973,570.321 C148.984,570.337 149.791,571.202 149.763,572.225 C149.734,573.253 148.904,574.068 147.874,574.029 C146.862,574.015 146.068,573.17 146.098,572.138 C146.098,571.117 146.958,570.28 147.973,570.321 ZM153.565,546.759 C156.23,546.805 158.314,549.051 158.286,551.735 C158.202,554.411 156.013,556.542 153.373,556.492 C150.707,556.433 148.613,554.202 148.669,551.518 C148.707,548.829 150.904,546.691 153.565,546.759 ZM154.118,560.239 C156.038,560.291 157.537,561.887 157.51,563.813 C157.451,565.758 155.874,567.284 153.957,567.256 C152.038,567.202 150.514,565.594 150.567,563.647 C150.622,561.736 152.18,560.181 154.118,560.239 ZM162.481,559.872 C162.623,558.86 163.547,558.153 164.549,558.297 C165.548,558.418 166.267,559.346 166.131,560.377 C166.003,561.399 165.058,562.098 164.041,561.986 C163.035,561.849 162.343,560.902 162.481,559.872 ZM165.071,574.029 C167.739,573.975 169.948,576.121 170,578.804 C170.07,581.505 167.964,583.744 165.296,583.795 C162.639,583.852 160.426,581.716 160.37,579.024 C160.307,576.316 162.427,574.099 165.071,574.029 ZM177.072,565.7 C178.08,565.842 178.777,566.785 178.664,567.797 C178.496,568.825 177.58,569.56 176.594,569.42 C175.582,569.283 174.863,568.339 174.982,567.315 C175.121,566.314 176.067,565.579 177.072,565.7 ZM180.581,581.143 C181.712,581.121 182.661,582.052 182.692,583.191 C182.718,584.383 181.798,585.32 180.664,585.351 C179.499,585.378 178.553,584.466 178.553,583.294 C178.496,582.146 179.415,581.16 180.581,581.143 ZM191.46,569.534 C192.461,569.659 193.157,570.586 193.011,571.6 C192.878,572.608 191.967,573.348 190.939,573.21 C189.935,573.084 189.247,572.154 189.379,571.117 C189.522,570.103 190.434,569.369 191.46,569.534 ZM198.348,576.472 C201.916,576.97 204.399,580.298 203.899,583.924 C203.404,587.519 200.11,590.045 196.539,589.545 C192.993,589.042 190.496,585.713 190.99,582.131 C191.49,578.507 194.792,575.997 198.348,576.472 ZM208.258,591.316 C209.936,591.543 211.119,593.116 210.896,594.801 C210.67,596.539 209.106,597.73 207.409,597.506 C205.733,597.286 204.565,595.728 204.758,594.011 C205.011,592.303 206.565,591.096 208.258,591.316 ZM216.728,576.36 C218.404,576.581 219.599,578.149 219.379,579.858 C219.17,581.58 217.616,582.771 215.895,582.549 C214.212,582.328 213.035,580.772 213.253,579.045 C213.476,577.347 215.032,576.137 216.728,576.36 ZM219.056,594.443 C220.199,594.4 221.141,595.314 221.17,596.481 C221.194,597.643 220.278,598.617 219.141,598.646 C217.975,598.672 217.061,597.73 217.033,596.561 C216.99,595.427 217.903,594.465 219.056,594.443 ZM230.413,594.423 C226.829,593.912 224.328,590.599 224.833,586.991 C225.345,583.408 228.637,580.856 232.187,581.356 C235.77,581.855 238.244,585.172 237.768,588.763 C237.269,592.372 233.992,594.899 230.413,594.423 ZM232.94,604.336 C238.033,604.458 242.072,608.719 241.965,613.851 C241.851,619.014 237.634,623.093 232.55,623.009 C227.472,622.873 223.416,618.598 223.543,613.468 C223.642,608.306 227.854,604.235 232.94,604.336 ZM249.137,593.731 C250.147,593.855 250.875,594.801 250.719,595.814 C250.583,596.838 249.653,597.56 248.656,597.42 C247.652,597.3 246.931,596.368 247.068,595.344 C247.209,594.314 248.123,593.596 249.137,593.731 ZM247.446,568.906 C247.446,565.724 250.024,563.138 253.209,563.138 C256.394,563.138 258.973,565.724 258.973,568.906 C258.973,572.087 256.394,574.669 253.209,574.669 C250.024,574.669 247.446,572.087 247.446,568.906 ZM259.888,598.808 C260.866,598.951 261.586,599.894 261.45,600.921 C261.31,601.918 260.398,602.668 259.397,602.502 C258.369,602.377 257.678,601.45 257.815,600.423 C257.923,599.396 258.87,598.686 259.888,598.808 ZM268.896,595.901 C269.889,595.883 270.753,596.677 270.776,597.714 C270.809,598.757 269.99,599.614 268.978,599.614 C267.964,599.646 267.1,598.838 267.09,597.815 C267.058,596.752 267.865,595.914 268.896,595.901 ZM277.123,610.857 C280.386,610.772 283.091,613.411 283.158,616.697 C283.224,619.997 280.635,622.716 277.386,622.79 C274.124,622.873 271.422,620.249 271.363,616.934 C271.278,613.655 273.858,610.937 277.123,610.857 ZM285.062,597.309 C286.217,597.3 287.16,598.2 287.188,599.364 C287.201,600.527 286.287,601.501 285.162,601.533 C283.996,601.557 283.051,600.613 283.022,599.465 C283.007,598.325 283.91,597.342 285.062,597.309 ZM278.998,596.453 C276.32,596.507 274.124,594.37 274.068,591.679 C274,588.986 276.122,586.74 278.775,586.685 C281.443,586.635 283.65,588.763 283.719,591.458 C283.758,594.161 281.666,596.393 278.998,596.453 ZM283.553,574.988 C283.553,573.089 285.114,571.547 287.035,571.547 C288.959,571.547 290.519,573.089 290.519,574.988 C290.519,576.893 288.959,578.433 287.035,578.433 C285.114,578.433 283.553,576.893 283.553,574.988 ZM300.738,591.096 C301.888,591.071 302.846,591.985 302.86,593.134 C302.901,594.314 301.975,595.26 300.821,595.288 C299.679,595.314 298.738,594.4 298.693,593.232 C298.682,592.099 299.582,591.11 300.738,591.096 ZM309.291,563.138 C312.453,563.138 315.015,565.724 315.015,568.906 C315.015,572.087 312.453,574.669 309.291,574.669 C306.131,574.669 303.565,572.087 303.565,568.906 C303.565,565.724 306.131,563.138 309.291,563.138 ZM311.743,604.336 C315.296,604.83 317.78,608.136 317.298,611.744 C316.809,615.35 313.506,617.873 309.953,617.404 C306.387,616.891 303.89,613.579 304.389,609.984 C304.86,606.361 308.162,603.832 311.743,604.336 ZM314.453,503.235 C308.155,498.71 296.47,495.519 301.758,493.838 C316.53,489.137 327.188,499.184 338.175,495.688 C345.727,493.286 351.053,473.573 363.198,459.362 C350.478,457.407 347.378,460.47 346.561,458.683 C345.654,456.701 351.884,451.021 368.56,445.714 C402.995,434.76 451.993,440.386 457.262,457.061 C457.685,458.402 458.029,459.734 458.297,461.059 C459.245,460.505 460.179,459.99 461.05,459.588 C466.26,457.185 467.012,470.039 462.284,468.154 C461.345,467.781 460.203,467.679 458.978,467.73 C459.542,505.74 399.334,535.368 364.515,543.294 C361.294,544.028 359.606,544.293 358.907,542.092 C357.852,538.771 365.853,535.389 374.902,524.316 C374.882,524.308 374.865,524.299 374.846,524.292 C374.21,524.955 373.507,525.67 372.621,526.534 C367.871,531.164 358.091,529.744 368.154,524.222 C369.327,523.578 370.276,523.05 371.085,522.592 C357.641,516.039 351.19,507.222 343.382,509.707 C334.637,512.489 330.946,525.608 322.431,528.315 C318.881,529.448 320.039,525.957 320.95,521.322 C322.629,512.793 322.883,509.291 314.453,503.235 ZM326.052,586.906 C327.057,587.041 327.774,587.989 327.625,589.016 C327.484,590.045 326.571,590.748 325.568,590.599 C324.556,590.482 323.836,589.545 324,588.544 C324.126,587.519 325.054,586.794 326.052,586.906 ZM336.968,602.448 C340.535,602.959 343.033,606.291 342.516,609.879 C342.034,613.506 338.746,616.018 335.158,615.531 C331.611,615.031 329.109,611.714 329.624,608.093 C330.138,604.484 333.411,601.972 336.968,602.448 ZM333.549,578.247 C333.47,574.335 336.546,571.087 340.409,571.024 C344.296,570.935 347.489,574.029 347.572,577.941 C347.655,581.872 344.588,585.115 340.727,585.212 C336.85,585.281 333.634,582.163 333.549,578.247 ZM349.14,594.813 C350.821,595.05 352.024,596.619 351.789,598.325 C351.569,600.029 350.017,601.228 348.32,601.031 C346.626,600.781 345.432,599.23 345.656,597.506 C345.877,595.814 347.43,594.59 349.14,594.813 ZM360.952,573.127 C362.867,573.084 364.451,574.643 364.477,576.581 C364.533,578.529 363.011,580.12 361.093,580.162 C359.176,580.216 357.583,578.663 357.524,576.721 C357.497,574.775 359.009,573.177 360.952,573.127 ZM378.137,576.694 C378.168,575.003 379.581,573.613 381.272,573.64 C382.995,573.691 384.326,575.126 384.301,576.834 C384.241,578.548 382.856,579.942 381.14,579.895 C379.444,579.858 378.096,578.425 378.137,576.694 ZM376.863,584.575 C384.954,585.713 390.602,593.26 389.465,601.459 C388.313,609.651 380.836,615.393 372.755,614.271 C364.639,613.134 359.009,605.567 360.136,597.396 C361.284,589.18 368.765,583.437 376.863,584.575 ZM393.541,566.811 C394.531,566.925 395.269,567.868 395.13,568.907 C394.992,569.895 394.072,570.647 393.044,570.504 C392.014,570.364 391.324,569.42 391.465,568.394 C391.604,567.366 392.532,566.675 393.541,566.811 ZM394.586,579.601 C395.613,579.601 396.463,580.412 396.486,581.464 C396.5,582.487 395.696,583.351 394.686,583.369 C393.658,583.408 392.824,582.574 392.793,581.535 C392.766,580.52 393.575,579.633 394.586,579.601 ZM399.904,590.208 C401.594,590.415 402.787,591.985 402.556,593.703 C402.325,595.409 400.764,596.619 399.073,596.393 C397.375,596.16 396.209,594.59 396.433,592.885 C396.656,591.181 398.21,589.964 399.904,590.208 ZM406.141,579.551 C407.15,579.69 407.857,580.632 407.73,581.648 C407.593,582.672 406.652,583.408 405.65,583.268 C404.637,583.131 403.912,582.187 404.069,581.16 C404.204,580.147 405.12,579.423 406.141,579.551 ZM404.855,561.455 C405.015,560.441 405.929,559.723 406.954,559.864 C407.954,559.985 408.675,560.935 408.538,561.956 C408.402,562.983 407.468,563.679 406.451,563.551 C405.44,563.43 404.722,562.485 404.855,561.455 ZM417.198,591.289 C418.349,591.264 419.311,592.175 419.328,593.343 C419.351,594.481 418.434,595.48 417.286,595.48 C416.143,595.507 415.181,594.59 415.172,593.425 C415.147,592.259 416.058,591.304 417.198,591.289 ZM417.305,572.475 C417.532,570.779 419.087,569.56 420.78,569.807 C422.475,570.032 423.67,571.589 423.418,573.307 C423.194,575.003 421.642,576.223 419.945,575.997 C418.263,575.765 417.075,574.194 417.305,572.475 ZM432.135,584.801 C433.275,584.766 434.218,585.683 434.246,586.852 C434.274,588.016 433.36,588.976 432.219,589.016 C431.05,589.016 430.109,588.098 430.095,586.929 C430.051,585.782 430.965,584.822 432.135,584.801 ZM438.708,548.127 C438.708,546.205 440.251,544.644 442.151,544.644 C444.052,544.644 445.594,546.205 445.594,548.127 C445.594,550.052 444.052,551.61 442.151,551.61 C440.251,551.61 438.708,550.052 438.708,548.127 ZM442.098,560.181 C445.656,560.682 448.154,563.996 447.626,567.607 C447.126,571.21 443.84,573.752 440.267,573.236 C436.716,572.726 434.218,569.42 434.736,565.815 C435.245,562.206 438.519,559.685 442.098,560.181 ZM461.699,537.728 C460.704,537.566 459.98,536.648 460.122,535.619 C460.26,534.593 461.19,533.884 462.198,534.037 C463.204,534.15 463.929,535.093 463.788,536.121 C463.648,537.117 462.704,537.837 461.699,537.728 ZM461.398,542.361 C463.09,542.42 464.448,543.85 464.408,545.571 C464.37,547.291 462.967,548.663 461.241,548.638 C459.54,548.592 458.209,547.165 458.232,545.442 C458.272,543.721 459.688,542.334 461.398,542.361 ZM480.14,521.667 C481.842,521.667 483.222,523.025 483.222,524.706 C483.222,526.388 481.842,527.75 480.14,527.75 C478.44,527.75 477.058,526.388 477.058,524.706 C477.058,523.025 478.44,521.667 480.14,521.667 ZM424.097,413.142 C423.795,385.412 463.741,361.989 463.303,322.025 C463.059,299.793 450.179,279.259 449.893,253.223 C449.731,238.481 455.689,238.418 455.85,253.156 C456.266,291.372 503.546,325.576 504.345,398.764 C504.555,417.996 496.784,435.229 485.342,431.199 C453.298,414.815 424.216,423.879 424.097,413.142 ZM490.353,140.674 C491.382,140.806 492.101,141.741 491.967,142.776 C491.8,143.794 490.874,144.504 489.88,144.373 C488.869,144.252 488.146,143.3 488.269,142.281 C488.428,141.271 489.353,140.544 490.353,140.674 ZM490.158,178.607 C490.022,179.631 489.107,180.337 488.085,180.189 C487.076,180.081 486.383,179.132 486.492,178.108 C486.633,177.084 487.579,176.375 488.579,176.501 C489.576,176.624 490.296,177.578 490.158,178.607 ZM482.717,153.275 C487.331,153.388 490.991,157.231 490.874,161.917 C490.773,166.573 486.969,170.272 482.329,170.188 C477.737,170.067 474.083,166.213 474.197,161.542 C474.278,156.861 478.114,153.167 482.717,153.275 ZM475.542,146.868 C475.415,147.913 474.491,148.627 473.474,148.501 C472.444,148.346 471.749,147.415 471.894,146.397 C472.007,145.385 472.945,144.649 473.962,144.803 C474.972,144.92 475.67,145.855 475.542,146.868 ZM471.56,125.005 C472.585,124.98 473.415,125.789 473.43,126.827 C473.474,127.842 472.659,128.706 471.64,128.733 C470.614,128.755 469.767,127.942 469.752,126.898 C469.728,125.879 470.545,125.028 471.56,125.005 ZM440.232,233.403 C437.54,241.739 425.227,254.541 423.303,253.548 C420.857,252.286 423.98,240.416 423.106,233.411 C426.969,233.926 437.867,233.709 440.232,233.403 ZM304.703,98.714 C304.471,97.02 305.649,95.443 307.342,95.228 C309.01,95.007 310.576,96.208 310.8,97.927 C311.034,99.62 309.844,101.177 308.147,101.417 C306.467,101.633 304.916,100.41 304.703,98.714 ZM313.157,73.88 C313.174,72.75 314.114,71.807 315.272,71.825 C316.423,71.857 317.314,72.826 317.298,73.986 C317.283,75.136 316.322,76.068 315.174,76.035 C314.031,76.009 313.121,75.041 313.157,73.88 ZM329.268,113.096 C327.367,113.096 325.825,111.554 325.825,109.653 C325.825,107.749 327.367,106.211 329.268,106.211 C331.17,106.211 332.708,107.749 332.708,109.653 C332.708,111.554 331.17,113.096 329.268,113.096 ZM338.492,73.612 C343.099,73.707 346.766,77.558 346.657,82.224 C346.543,86.903 342.74,90.6 338.129,90.499 C333.525,90.395 329.87,86.531 329.952,81.86 C330.053,77.205 333.885,73.504 338.492,73.612 ZM361.284,101.417 C361.246,99.476 362.754,97.873 364.689,97.82 C366.591,97.791 368.201,99.312 368.226,101.273 C368.265,103.214 366.751,104.818 364.825,104.874 C362.908,104.915 361.344,103.358 361.284,101.417 ZM379.205,103.657 C377.527,103.427 376.331,101.871 376.554,100.163 C376.801,98.44 378.335,97.228 380.03,97.461 C381.715,97.69 382.913,99.244 382.689,100.966 C382.453,102.674 380.9,103.881 379.205,103.657 ZM419.223,110.666 C419.186,108.938 420.53,107.516 422.235,107.492 C423.947,107.44 425.364,108.82 425.383,110.549 C425.43,112.263 424.07,113.683 422.363,113.729 C420.657,113.766 419.253,112.386 419.223,110.666 ZM474.87,222.389 C470.631,224.619 447.785,233.115 419.854,231.187 C404.4,252.225 369.1,262.135 359.905,257.391 C357.841,256.326 357.969,254.287 358.556,253.156 C359.875,250.606 378.495,238.242 384.473,222.655 C382.55,221.814 380.627,220.926 378.71,219.938 C362.08,211.359 350.139,201.86 341.498,192.815 C329.954,188 314.52,183.829 306.689,184.556 C302.265,184.968 302.265,181.768 306.766,178.703 C310.751,175.99 315.894,172.799 321.776,170.536 C321.281,169.901 320.789,169.27 320.277,168.58 C314.923,161.344 320.743,162.272 323.594,167.309 C321.799,163.609 320.56,160.483 319.712,158.266 C329.844,155.045 366.078,150.161 399.319,167.307 C420.224,178.089 432.101,194.881 438.124,203.947 C438.616,203.14 439.053,202.357 439.382,201.646 C440.837,198.506 444.732,205.784 441.289,207.423 C441.243,207.445 441.192,207.471 441.146,207.493 C448.456,205.291 455.038,205.676 462.609,209.58 C468.512,212.625 473.128,218.151 474.87,222.389 ZM324.414,168.97 C324.499,169.151 324.585,169.332 324.672,169.514 C324.675,169.513 324.678,169.512 324.681,169.511 C324.583,169.322 324.509,169.156 324.414,168.97 ZM463.77,169.631 C465.449,169.855 466.644,171.429 466.408,173.138 C466.203,174.848 464.629,176.053 462.949,175.823 C461.241,175.599 460.064,174.037 460.301,172.329 C460.503,170.627 462.077,169.419 463.77,169.631 ZM426.445,93.459 C426.583,92.44 427.499,91.712 428.531,91.85 C429.529,91.977 430.232,92.91 430.109,93.944 C429.969,94.971 429.04,95.671 428.026,95.543 C427.03,95.408 426.307,94.469 426.445,93.459 ZM467.535,145.876 C467.279,156.953 458.209,165.771 447.224,165.531 C436.242,165.281 427.525,156.089 427.764,144.993 C428.026,133.879 437.118,125.063 448.097,125.302 C459.067,125.559 467.778,134.748 467.535,145.876 ZM433.191,114.859 C433.162,113.844 433.966,112.983 434.98,112.955 C436.006,112.935 436.858,113.758 436.872,114.793 C436.892,115.804 436.077,116.681 435.076,116.696 C434.048,116.702 433.219,115.894 433.191,114.859 ZM439.394,124.71 C439.438,126.435 438.076,127.842 436.382,127.901 C434.664,127.942 433.246,126.576 433.219,124.852 C433.175,123.122 434.535,121.684 436.23,121.656 C437.934,121.622 439.323,122.98 439.394,124.71 ZM501.207,136.17 C499.513,135.947 498.337,134.389 498.574,132.67 C498.793,130.954 500.339,129.762 502.025,129.973 C503.717,130.198 504.904,131.775 504.68,133.484 C504.455,135.193 502.899,136.388 501.207,136.17 ZM500.551,152.067 C498.629,152.091 497.042,150.561 496.99,148.627 C496.958,146.667 498.477,145.076 500.404,145.026 C502.316,144.982 503.901,146.527 503.958,148.464 C503.999,150.412 502.469,152.016 500.551,152.067 ZM509.539,201.266 C509.564,199.692 510.882,198.415 512.451,198.434 C514.032,198.494 515.285,199.813 515.256,201.401 C515.202,203.001 513.896,204.265 512.342,204.231 C510.745,204.208 509.508,202.88 509.539,201.266 ZM523.852,207.656 C522.39,207.464 521.335,206.114 521.558,204.612 C521.748,203.115 523.101,202.062 524.586,202.263 C526.027,202.456 527.086,203.828 526.886,205.313 C526.663,206.796 525.336,207.849 523.852,207.656 ZM529.318,214.62 C531.098,214.665 532.492,216.155 532.454,217.947 C532.427,219.751 530.94,221.181 529.178,221.126 C527.4,221.1 525.976,219.606 526.027,217.803 C526.084,216.009 527.531,214.582 529.318,214.62 ZM480.972,303.844 C496.679,310.415 514.199,301.226 521.145,301.147 C528.094,301.07 534.572,303.496 534.66,311.494 C534.892,332.724 506.918,418.477 510.358,403.94 C510.481,358.538 496.842,330.831 480.972,303.844 ZM540.94,192.941 C542.478,192.72 543.934,193.85 544.142,195.42 C544.35,197.015 543.24,198.457 541.684,198.666 C540.13,198.878 538.687,197.774 538.465,196.164 C538.267,194.59 539.355,193.146 540.94,192.941 Z "/>
</svg>