<?xml version="1.0" encoding="UTF-8"?>
<!DOCTYPE svg PUBLIC "-//W3C//DTD SVG 1.1//EN" "http://www.w3.org/Graphics/SVG/1.1/DTD/svg11.dtd">
<svg version="1.1" baseProfile="full" xmlns="http://www.w3.org/2000/svg" xmlns:xlink="http://www.w3.org/1999/xlink" xmlns:ev="http://www.w3.org/2001/xml-events" height="30px" width="172px">
<path fill="rgb( 255, 255, 255 )" d="M166.126,22.184 L166.126,14.271 C164.339,16.897 162.398,20.405 162.196,20.546 C161.992,20.405 160.051,16.897 158.265,14.271 L158.265,22.184 C158.265,22.184 153.386,22.089 153.386,19.864 L153.386,6.49599999999998 C153.386,6.49599999999998 157.461,6.44 158.265,8.13200000000001 L162.196,14.408 L166.126,8.13200000000001 C166.93,6.44 171.004,6.49599999999998 171.004,6.49599999999998 L171.004,19.864 C171.004,22.089 166.126,22.184 166.126,22.184 ZM144.035,29.551 C140.526,29.551 137.259,27.935 137.259,25.458 C137.259,24.269 137.396,23.996 137.936,23.412 C142.882,26.935 145.541,25.033 145.797,24.776 C146.291,24.293 146.475,23.936 146.475,21.911 L146.478,21.843 C145.635,22.018 144.799,22.238 143.922,22.238 C140.719,22.238 137.281,21.138 137.281,17.12 L137.281,6.459 C137.281,6.459 142.091,6.577 142.091,8.68599999999998 L142.091,15.867 C142.091,17.229 142.664,17.979 144.325,17.979 C145.298,17.979 146.475,17.688 146.475,17.688 L146.475,6.459 C146.475,6.459 151.218,6.452 151.218,8.678 L151.218,22.184 C151.218,27.913 148.703,29.551 144.035,29.551 ZM132.05,21.631 C130.587,21.631 129.245,22.238 127.783,22.238 C124.575,22.238 121.137,21.138 121.137,17.12 L121.137,6.459 C121.137,6.459 125.952,6.577 125.952,8.68599999999998 L125.952,15.867 C125.952,17.229 126.525,17.979 128.183,17.979 C129.157,17.979 130.33,17.688 130.33,17.688 L130.33,6.459 C130.33,6.459 135.226,6.452 135.226,8.678 L135.226,22.184 C135.226,22.184 133.85,21.631 132.05,21.631 ZM112.769,22.238 C111.05,22.238 109.618,21.343 109.618,21.343 C109.618,21.343 109.821,22.293 109.821,22.869 L109.821,29.439 C109.39,29.439 105.012,29.405 105.012,26.947 L105.012,6.23000000000002 C105.898,6.69299999999998 106.875,6.923 107.9,6.923 C109.679,6.923 111.195,6.315 112.854,6.315 C116.574,6.315 119.009,8.51400000000001 119.009,11.689 L119.009,16.891 C119.009,20.243 116.089,22.238 112.769,22.238 ZM114.2,12.122 C114.2,10.534 113.598,9.63999999999999 111.651,9.63999999999999 C110.651,9.63999999999999 109.821,9.84100000000001 109.821,9.84100000000001 L109.821,16.747 C109.821,17.989 111.11,18.854 112.398,18.854 C113.451,18.854 114.2,18.134 114.2,16.455 L114.2,12.122 ZM100.446,21.716 C98.933,21.716 97.3310000000001,22.238 95.6419999999998,22.238 C92.4369999999999,22.238 89.346,21.138 89.346,17.498 C89.346,12.211 96.788,13.192 98.1030000000001,11.257 C98.1030000000001,10.56 97.587,9.75299999999999 95.7289999999998,9.75299999999999 C93.5210000000002,9.75299999999999 91.5259999999998,10.282 90.232,11.952 C89.7719999999999,10.946 89.7469999999998,10.706 89.7469999999998,9.81299999999999 C89.7469999999998,6.89400000000001 93.8159999999998,6.315 95.7840000000001,6.315 C100.446,6.315 102.908,8.13799999999998 102.908,11.486 L102.908,22.238 C102.108,21.802 101.253,21.716 100.446,21.716 ZM98.1880000000001,14.724 C97.4160000000002,15.939 94.1509999999998,15.475 94.1509999999998,17.323 C94.1509999999998,18.679 95.1289999999999,18.971 96.1010000000001,18.971 C97.127,18.971 98.1880000000001,18.655 98.1880000000001,18.655 L98.1880000000001,14.724 ZM82.6860000000001,19.875 L82.6860000000001,16.096 C82.1019999999999,16.006 81.5,15.967 80.9009999999998,15.967 C79.9879999999998,15.967 79.1350000000002,16.187 78.297,16.364 L78.297,22.1 C78.297,22.1 73.4870000000001,22.1 73.4870000000001,19.875 L73.4870000000001,6.459 C73.4870000000001,6.459 78.297,6.459 78.297,8.68599999999998 L78.297,13.04 C79.1350000000002,12.863 79.9879999999998,12.644 80.9009999999998,12.644 C81.5,12.644 82.1019999999999,12.682 82.6860000000001,12.773 L82.6860000000001,6.459 C82.6860000000001,6.459 87.5,6.459 87.5,8.68599999999998 L87.5,22.1 C87.5,22.1 82.6860000000001,22.1 82.6860000000001,19.875 ZM68.8690000000001,21.716 C67.3560000000002,21.716 65.7539999999999,22.238 64.0639999999999,22.238 C60.8600000000001,22.238 57.7689999999998,21.138 57.7689999999998,17.498 C57.7689999999998,12.211 65.2109999999998,13.192 66.5259999999998,11.257 C66.5259999999998,10.56 66.0100000000002,9.75299999999999 64.152,9.75299999999999 C61.944,9.75299999999999 59.9490000000001,10.282 58.654,11.952 C58.1950000000002,10.946 58.1709999999998,10.706 58.1709999999998,9.81299999999999 C58.1709999999998,6.89400000000001 62.2379999999998,6.315 64.2069999999999,6.315 C68.8690000000001,6.315 71.3299999999999,8.13799999999998 71.3299999999999,11.486 L71.3299999999999,22.238 C70.5300000000002,21.802 69.6750000000002,21.716 68.8690000000001,21.716 ZM66.6120000000001,14.724 C65.8400000000001,15.939 62.5740000000001,15.475 62.5740000000001,17.323 C62.5740000000001,18.679 63.5509999999999,18.971 64.5239999999999,18.971 C65.5500000000002,18.971 66.6120000000001,18.655 66.6120000000001,18.655 L66.6120000000001,14.724 ZM50.1750000000002,18.929 C52.3829999999998,18.929 54.3789999999999,18.399 55.6729999999998,16.729 C56.1320000000001,17.735 56.1570000000002,17.975 56.1570000000002,18.868 C56.1570000000002,21.786 52.0889999999999,22.364 50.1199999999999,22.364 C43.663,22.364 42.3910000000001,16.936 42.3910000000001,14.68 C42.3910000000001,6.41199999999998 48.7939999999999,6.44400000000002 50.2629999999999,6.44400000000002 C53.4679999999998,6.44400000000002 56.558,7.54500000000002 56.558,11.184 C56.558,16.47 49.116,15.489 47.8009999999999,17.425 C47.8009999999999,18.12 48.317,18.929 50.1750000000002,18.929 ZM51.7530000000002,11.358 C51.7530000000002,10.003 50.7759999999998,9.71100000000001 49.8029999999999,9.71100000000001 C45.652,9.71100000000001 46.7280000000001,14.544 46.7280000000001,14.544 C47.5,13.329 51.7530000000002,13.207 51.7530000000002,11.358 ZM42.2550000000001,22.32 C42.2550000000001,22.32 40.0630000000001,21.661 36.5639999999999,21.365 C36.067,18.851 36.3870000000002,15.86 32.7689999999998,15.636 L32.7689999999998,21.365 C32.7689999999998,21.365 30.252,21.582 27.348,22.32 C29.2710000000002,12.911 27.8899999999999,6.49599999999998 27.8899999999999,6.49599999999998 C27.8899999999999,6.49599999999998 32.7689999999998,6.18099999999998 32.7689999999998,8.40499999999997 L32.7689999999998,12.225 C33.8249999999998,12.225 34.5810000000001,12.31 36.4279999999999,7.86000000000001 C37.3409999999999,6.036 41.4430000000002,6.90499999999997 41.4430000000002,6.90499999999997 C39.7530000000002,12.684 38.328,13.551 36.5639999999999,13.862 L36.4279999999999,13.862 C40.2829999999999,14.219 40.826,16.559 42.2550000000001,22.32 ZM15.2860000000001,17.819 C23.7310000000002,19.004 23.3490000000002,5.20299999999997 15.6900000000001,5.202 C6.9670000000001,5.202 7.36499999999978,23.171 24.096,22.866 C1.05200000000013,29.374 0.84400000000005,0.08499999999998 15.7539999999999,0.08499999999998 C27.7399999999998,0.08499999999998 29.0129999999999,17.819 20.8429999999998,20.683 C17.9699999999998,20.546 16.3200000000002,19.048 15.2860000000001,17.819 Z "/>
</svg>