<svg xmlns="http://www.w3.org/2000/svg" width="220" height="193" viewBox="0 0 220 193">
    <g fill="#FFF" fill-rule="evenodd">
        <path d="M157.941 47.09a.637.637 0 0 1-.172 1.263.625.625 0 0 1-.536-.712.63.63 0 0 1 .708-.55zm6.34-4.748a.675.675 0 0 1-.578-.758.681.681 0 0 1 .753-.585.671.671 0 0 1 .578.763.676.676 0 0 1-.754.58zm-8.523 4.548a.677.677 0 0 1-.682.662.67.67 0 0 1-.656-.694.678.678 0 0 1 .681-.662c.37.013.664.322.657.694zm9.208 2.58c.608-.08 1.173.36 1.25.978a1.114 1.114 0 0 1-.954 1.27 1.128 1.128 0 0 1-1.256-.978 1.12 1.12 0 0 1 .96-1.27zm-8.7-12.925a1.123 1.123 0 0 1-.963 1.27 1.125 1.125 0 0 1-1.254-.977 1.122 1.122 0 0 1 .961-1.266 1.124 1.124 0 0 1 1.255.973zm6.251 8.946a.675.675 0 0 1-.575.759.674.674 0 0 1-.753-.586.67.67 0 0 1 1.328-.174zm-3.501 6.014a.754.754 0 0 1-.738-.778.76.76 0 0 1 .77-.744c.417.01.743.359.734.778a.751.751 0 0 1-.766.744zm2.478-14.767a1.388 1.388 0 0 1-1.348-1.42 1.387 1.387 0 0 1 1.407-1.363 1.382 1.382 0 0 1 1.338 1.42c-.019.77-.642 1.379-1.397 1.363zM37.096 71.635a1.642 1.642 0 0 1-1.673-1.62 1.644 1.644 0 0 1 1.601-1.69c.9-.02 1.651.707 1.67 1.62.02.91-.695 1.671-1.598 1.69zm49.015-58.518a1.96 1.96 0 0 1-1.995-1.932 1.957 1.957 0 0 1 1.903-2.013c1.075-.023 1.965.841 1.992 1.929a1.964 1.964 0 0 1-1.9 2.016zm-38.147 99.305a1.526 1.526 0 0 1-1.715-1.317 1.526 1.526 0 0 1 1.293-1.728 1.529 1.529 0 0 1 1.718 1.312 1.53 1.53 0 0 1-1.296 1.733zM37.7 74.704a.92.92 0 0 1 1.033.788.91.91 0 0 1-.78 1.032.9.9 0 0 1-1.02-.784.913.913 0 0 1 .767-1.036zm56.71-61.227c-1.888.264-3.636-1.073-3.901-2.985-.267-1.91 1.048-3.672 2.936-3.937 1.897-.263 3.644 1.073 3.904 2.983.266 1.913-1.052 3.676-2.94 3.939zM51.674 120.033a1.532 1.532 0 0 1-1.715-1.319 1.535 1.535 0 0 1 1.292-1.733c.838-.11 1.604.48 1.723 1.318.116.843-.47 1.62-1.3 1.734zm5.683-4.295a1.53 1.53 0 0 1-1.294 1.736 1.532 1.532 0 0 1-1.72-1.315 1.531 1.531 0 0 1 1.293-1.734 1.53 1.53 0 0 1 1.721 1.313zm21.38-95.577c.494-.07.948.283 1.028.786a.92.92 0 0 1-.774 1.034.906.906 0 0 1-1.028-.783.91.91 0 0 1 .774-1.037zM54.61 120.357a.49.49 0 0 1 .496-.476.49.49 0 0 1 .472.503.48.48 0 0 1-.493.474.484.484 0 0 1-.475-.5zm-1.176-8.496a.818.818 0 0 1-.832.802.814.814 0 0 1-.792-.838.816.816 0 0 1 .825-.802.827.827 0 0 1 .8.838zm1.147-73.872a.817.817 0 0 1-.79-.84.81.81 0 1 1 1.622.035.82.82 0 0 1-.832.805zm1.023 15.785a.49.49 0 0 1 .5-.481c.264.009.48.229.468.5a.478.478 0 0 1-.494.477.485.485 0 0 1-.474-.496zm-10.92 50.512a.484.484 0 0 1-.476-.5.493.493 0 0 1 .494-.478.498.498 0 0 1 .482.5c-.013.27-.235.49-.5.478zm5.45-17.568a.488.488 0 0 1-.474-.503.486.486 0 0 1 .494-.48c.269.005.48.23.474.503a.491.491 0 0 1-.494.48zm-.22-32.145a.425.425 0 0 1 .477.377.426.426 0 0 1-.367.485.426.426 0 0 1-.48-.374.425.425 0 0 1 .37-.488zm.655 46.382a.442.442 0 0 1 .37-.493.446.446 0 0 1 .488.375.437.437 0 0 1-.371.488.433.433 0 0 1-.487-.37zm41.59-74.14c-1.013-.022-1.82-.873-1.8-1.904a1.856 1.856 0 0 1 1.882-1.827 1.858 1.858 0 0 1 1.802 1.908 1.85 1.85 0 0 1-1.21 1.701c-.054.142-.154.258-.311.281-.149.018-.27-.055-.357-.16h-.007zm-15.855-8.272a.823.823 0 0 1 .829-.8c.448.009.806.385.792.835a.813.813 0 0 1-.825.804.82.82 0 0 1-.796-.839zm18.33 2.934a.72.72 0 0 1-.812-.625.73.73 0 0 1 .62-.818.729.729 0 0 1 .808.628.715.715 0 0 1-.617.815zM48.6 105.566a.437.437 0 0 1 .11.866.432.432 0 0 1-.48-.377.432.432 0 0 1 .37-.49zm14.923 17.46c.615.013 1.11.535 1.097 1.163a1.13 1.13 0 0 1-1.15 1.113 1.13 1.13 0 0 1-1.098-1.163 1.13 1.13 0 0 1 1.15-1.113zM83.157 16.92a.725.725 0 0 1-.708-.744.72.72 0 0 1 1.439.03.724.724 0 0 1-.73.714zm15.064 3.016c-.404-.013-.716-.387-.708-.837.004-.455.34-.813.733-.805.4.01.717.386.708.842-.015.45-.34.807-.733.8zm2.87-.076a.433.433 0 0 1-.421-.448.428.428 0 1 1 .858.02c0 .242-.2.432-.436.428zM55.11 107.5a1.644 1.644 0 0 1-1.67 1.616 1.644 1.644 0 0 1-1.6-1.692 1.643 1.643 0 0 1 1.671-1.62c.904.026 1.619.78 1.599 1.696zm41.473-84.467c.02-.912.766-1.64 1.67-1.62a1.65 1.65 0 0 1 1.6 1.693c-.022.914-.765 1.64-1.672 1.613a1.64 1.64 0 0 1-1.598-1.686zm-38.765 95.71c.24-.03.456.14.489.374a.438.438 0 0 1-.37.489.431.431 0 0 1-.488-.373.444.444 0 0 1 .37-.49zm-7.048-3.292a.731.731 0 0 1 .618-.819.727.727 0 0 1 .812.633.722.722 0 0 1-.62.813.727.727 0 0 1-.81-.627zm8.537 4.775a.44.44 0 0 1 .486.377.441.441 0 0 1-.37.49.44.44 0 0 1-.487-.377.434.434 0 0 1 .371-.49zm-7.39-47.844a.427.427 0 1 1-.847.113.43.43 0 0 1 .363-.488c.241-.03.455.141.484.375zm7.175 51.767a.431.431 0 0 1 .416.441.433.433 0 0 1-.436.432.435.435 0 0 1-.42-.445c.005-.24.199-.434.44-.428zM92.104 15.544a.722.722 0 0 1 .619-.815.73.73 0 0 1 .19 1.448.724.724 0 0 1-.809-.633zM56.76 44.084a.436.436 0 0 1-.37.489.434.434 0 0 1-.484-.377.432.432 0 0 1 .367-.487.438.438 0 0 1 .487.374zm-4.736 58.881a.436.436 0 0 1-.37.49.433.433 0 0 1-.483-.374.43.43 0 1 1 .853-.116zm.709-68.038a2.582 2.582 0 0 1-2.622-2.536c-.033-1.433 1.087-2.618 2.504-2.65 1.417-.033 2.585 1.102 2.618 2.534.032 1.436-1.091 2.62-2.5 2.652zm27.148-5.231a1.647 1.647 0 0 1 1.598-1.69 1.64 1.64 0 0 1 1.67 1.616 1.65 1.65 0 0 1-1.601 1.695 1.641 1.641 0 0 1-1.667-1.621zM50.53 108.608a.73.73 0 0 1-.737-.718.722.722 0 0 1 .705-.74.723.723 0 0 1 .733.715.723.723 0 0 1-.701.743zm-1.402-25.486a.725.725 0 0 1-.706.743.722.722 0 0 1-.734-.714.72.72 0 0 1 1.44-.029zm10.51-35.1a1.345 1.345 0 0 1-1.3 1.38 1.345 1.345 0 0 1-1.358-1.318 1.337 1.337 0 0 1 1.301-1.378 1.331 1.331 0 0 1 1.356 1.316zm-12.375 9.92a1.338 1.338 0 0 1 1.302-1.375c.731-.02 1.349.567 1.36 1.314a1.344 1.344 0 0 1-1.301 1.377 1.34 1.34 0 0 1-1.361-1.316zM40.519 96.66c-.113-.849.464-1.62 1.293-1.73a1.522 1.522 0 0 1 1.719 1.31 1.53 1.53 0 0 1-1.297 1.731 1.529 1.529 0 0 1-1.715-1.311zm-1.026-9.355c-.267-1.909 1.053-3.669 2.94-3.933 1.887-.261 3.634 1.073 3.9 2.982.267 1.912-1.049 3.676-2.939 3.942-1.887.263-3.634-1.078-3.901-2.99zm.78 7.224a1.525 1.525 0 0 1-1.716-1.315 1.536 1.536 0 0 1 1.292-1.734 1.526 1.526 0 0 1 1.716 1.319 1.522 1.522 0 0 1-1.292 1.73zm5.716 6.87a1.53 1.53 0 0 1 1.293-1.73 1.514 1.514 0 0 1 1.714 1.312 1.523 1.523 0 0 1-1.288 1.733c-.836.117-1.601-.47-1.72-1.315zm-4.017-30.946a.921.921 0 0 1-.774 1.04.922.922 0 0 1-.256-1.825.916.916 0 0 1 1.03.785zm-1.635-12.52c1.891-.262 3.639 1.072 3.899 2.986.268 1.91-1.046 3.675-2.937 3.936-1.89.263-3.638-1.075-3.901-2.984-.263-1.914 1.05-3.674 2.94-3.938zm9.378 4.522c-.27-1.911 1.052-3.672 2.94-3.938 1.887-.264 3.637 1.074 3.9 2.985.27 1.914-1.049 3.675-2.94 3.938-1.89.262-3.63-1.073-3.9-2.985zm-4.57 20.393a.429.429 0 0 1-.485-.377.43.43 0 0 1 .371-.484.428.428 0 0 1 .484.372.43.43 0 0 1-.37.49zm6.083-38.901c-1.016-.023-1.822-.878-1.799-1.906.023-1.03.865-1.848 1.88-1.825a1.855 1.855 0 0 1 1.801 1.906 1.852 1.852 0 0 1-1.882 1.825zm9.057.273c-1.018-.021-1.823-.876-1.803-1.903.025-1.03.865-1.85 1.88-1.825a1.847 1.847 0 0 1 1.8 1.903 1.847 1.847 0 0 1-1.877 1.825zm-17.96 29.283a1.847 1.847 0 0 1 1.8 1.906 1.853 1.853 0 0 1-1.885 1.823c-1.013-.025-1.818-.878-1.799-1.907.026-1.028.87-1.844 1.884-1.822zm10.102-18.086a.82.82 0 0 1 .835-.802.816.816 0 0 1 .793.837.812.812 0 0 1-.829.8.82.82 0 0 1-.799-.835zm3.712-25.256a.818.818 0 0 1-.789-.841.816.816 0 0 1 .828-.801.81.81 0 0 1 .79.84.812.812 0 0 1-.829.802zM40.221 50.754a.826.826 0 0 1-.8-.845.818.818 0 0 1 .833-.8.82.82 0 0 1 .792.838.822.822 0 0 1-.825.807zm3.26-.43a.809.809 0 0 1 .826-.8.817.817 0 0 1-.033 1.637.807.807 0 0 1-.792-.837zm1.145 28.549a.82.82 0 0 1-.794-.842.817.817 0 0 1 .828-.804.826.826 0 0 1 .798.84.827.827 0 0 1-.832.806zm.13-24.358a.815.815 0 0 1 .831-.805.82.82 0 0 1-.033 1.64.816.816 0 0 1-.799-.835zm8.038 14.7a.82.82 0 0 1 .036-1.642.818.818 0 0 1 .793.84.815.815 0 0 1-.83.803zM39.129 81.565a.818.818 0 0 1-.793-.843.811.811 0 0 1 .826-.803.82.82 0 0 1 .792.84.817.817 0 0 1-.825.806zm5.015-35.08a.723.723 0 0 1-.812-.63.72.72 0 0 1 .618-.815.731.731 0 0 1 .812.625.727.727 0 0 1-.618.82zM89.07 14.825a.724.724 0 0 1-.705-.744.725.725 0 0 1 .734-.714c.397.007.714.34.708.743a.725.725 0 0 1-.737.715zm-7.903-.684a.827.827 0 0 1-.799-.842.82.82 0 0 1 .832-.802.815.815 0 0 1 .792.84.815.815 0 0 1-.825.804zm5.51 9.926a.82.82 0 0 1 .83-.801.816.816 0 0 1 .793.84.817.817 0 0 1-.824.804.826.826 0 0 1-.8-.843zM70 34.534a.817.817 0 0 1-.791-.837.817.817 0 0 1 .828-.806c.448.011.807.385.792.841a.813.813 0 0 1-.83.802zm-8.995 11.7c.27.005.48.231.475.502a.484.484 0 1 1-.969-.024.49.49 0 0 1 .494-.479zM47.093 89.214a.483.483 0 0 1 .495-.478c.272.003.48.23.474.503a.486.486 0 0 1-.969-.025zm.58-51.564a.432.432 0 0 1-.482-.375.432.432 0 0 1 .37-.49.443.443 0 0 1 .488.378.44.44 0 0 1-.377.487zm43.202-16.779a.434.434 0 0 1-.113-.86.435.435 0 0 1 .487.373.434.434 0 0 1-.374.487zm-30.273 9.29a.722.722 0 0 1-.697-.745.721.721 0 0 1 .73-.713c.4.012.716.345.708.748a.725.725 0 0 1-.74.71zM46.26 51.81a.433.433 0 0 1 .438-.426c.24.007.428.205.423.445a.432.432 0 0 1-.442.427.437.437 0 0 1-.419-.446zm-.16-7a.433.433 0 1 1 .865.019.434.434 0 0 1-.442.426.439.439 0 0 1-.422-.444zm1.333 16.878a.717.717 0 0 1 .806.63.716.716 0 0 1-.614.81.724.724 0 0 1-.813-.625.72.72 0 0 1 .62-.815zm21.165-40.325a.727.727 0 0 1-.812-.631.724.724 0 0 1 .62-.814c.399-.057.763.227.812.626a.733.733 0 0 1-.62.819zm-25.07 81.603a.434.434 0 0 1-.484-.374.43.43 0 0 1 .367-.487.432.432 0 0 1 .487.377.433.433 0 0 1-.37.484zm24.751-72.788a.725.725 0 0 1-.805-.631.723.723 0 0 1 .618-.813.729.729 0 0 1 .187 1.444zm-17.033 8.151a.718.718 0 1 1 1.422-.19.72.72 0 0 1-.617.816.718.718 0 0 1-.805-.626zm22.96-8.71c-2.555.059-4.68-2.002-4.737-4.593-.052-2.589 1.98-4.733 4.534-4.793 2.562-.056 4.677 2 4.735 4.589.052 2.59-1.974 4.738-4.531 4.797zM43.16 81.398c.234-.03.454.14.484.375a.429.429 0 1 1-.85.118.435.435 0 0 1 .366-.492zm30.361-49.7a.429.429 0 0 1-.37.483.425.425 0 0 1-.481-.372.43.43 0 1 1 .851-.11zM46.4 40.11a.431.431 0 0 1-.488-.37.445.445 0 0 1 .371-.495.436.436 0 1 1 .117.866zm7.055-13.74a.44.44 0 0 1-.488-.378.432.432 0 0 1 .377-.487c.231-.036.445.136.48.376a.435.435 0 0 1-.369.49zm6.32 8.768a.436.436 0 0 1-.486-.375.44.44 0 0 1 .369-.489c.24-.03.45.136.478.374a.428.428 0 0 1-.36.49zM44.98 60.52c.235-.03.451.137.483.379a.429.429 0 1 1-.85.11.435.435 0 0 1 .367-.489zm31.85-47.524c-1.415-.032-2.533-1.219-2.506-2.648.033-1.433 1.207-2.566 2.621-2.538a2.573 2.573 0 0 1 2.5 2.647 2.574 2.574 0 0 1-2.616 2.539zm-11.63 15.304a.727.727 0 0 1-.811-.632.727.727 0 0 1 .616-.814.73.73 0 0 1 .195 1.446zm8.696-11.1a.732.732 0 0 1-.195-1.448.732.732 0 0 1 .195 1.448zm-18.98 95.538a.43.43 0 0 1 .85-.113c.042.24-.129.455-.37.487a.427.427 0 0 1-.48-.374zM75.39 33.25a.44.44 0 0 1-.374.49.433.433 0 0 1-.485-.375.43.43 0 0 1 .371-.487.436.436 0 0 1 .488.372zm-18.7-10.815a.434.434 0 0 1-.484-.377.43.43 0 0 1 .854-.11.433.433 0 0 1-.37.487zM41.155 78.67a.722.722 0 1 1 1.442.032.726.726 0 0 1-.741.711.72.72 0 0 1-.701-.743zm-.99-10.995a.73.73 0 0 1 .029-1.459.725.725 0 0 1 .704.746.72.72 0 0 1-.734.713zm9.282 36.713a.43.43 0 1 1 .86.014.43.43 0 1 1-.86-.014zm-4.833-4.467a.734.734 0 0 1-.815-.63.726.726 0 0 1 .616-.818.722.722 0 0 1 .813.63c.055.4-.224.76-.614.818zm26.191-85.685a.717.717 0 0 1-.805-.628.723.723 0 0 1 .616-.82.73.73 0 0 1 .19 1.448zm10.887 9.573a.438.438 0 0 1-.37.489.438.438 0 0 1-.488-.375.437.437 0 0 1 .371-.488.434.434 0 0 1 .487.374zm-1.42-3.868a.428.428 0 0 1-.477-.374.433.433 0 0 1 .365-.494.438.438 0 1 1 .113.868zM43.896 65.317a.723.723 0 0 1 .62-.82.728.728 0 0 1 .805.632.721.721 0 0 1-.618.817.722.722 0 0 1-.807-.63zm2.052 41.937a.727.727 0 0 1-.191-1.442.716.716 0 0 1 .805.623.72.72 0 0 1-.614.819zm-2.784-49.237a.441.441 0 0 1-.484-.375.432.432 0 0 1 .374-.488.426.426 0 0 1 .478.374.429.429 0 0 1-.368.49zm7.069-20.847a.72.72 0 0 1-.706-.742.727.727 0 0 1 .732-.716c.402.01.713.341.708.744a.724.724 0 0 1-.734.714zm-6.942 55.2a.432.432 0 0 1 .854-.117.434.434 0 0 1-.37.487.43.43 0 0 1-.484-.37zm13.659-51.408a.43.43 0 1 1 .851-.115.43.43 0 0 1-.851.115zm29.253-23.693a2.58 2.58 0 0 1 2.507 2.646c-.032 1.435-1.202 2.569-2.615 2.54-1.419-.033-2.54-1.218-2.507-2.648.028-1.434 1.205-2.567 2.615-2.538zM39.811 57.48a2.574 2.574 0 0 1-2.506-2.652c.031-1.427 1.201-2.56 2.616-2.532 1.417.033 2.534 1.218 2.504 2.649-.028 1.433-1.201 2.566-2.614 2.536zm21.243 69.943a.49.49 0 0 1 .474.507.485.485 0 0 1-.968-.022.49.49 0 0 1 .494-.485zm-3.716-5.24a.728.728 0 1 1 .195 1.441.728.728 0 0 1-.195-1.441zm7.549 6.079a.434.434 0 0 1 .363-.488.437.437 0 0 1 .489.376.44.44 0 0 1-.371.488.43.43 0 0 1-.481-.376zm38.932-118.102a.434.434 0 0 1-.487-.377.44.44 0 0 1 .37-.488.433.433 0 0 1 .481.378.427.427 0 0 1-.364.487zm1.495 5.549a.815.815 0 0 1-.83.8.804.804 0 0 1-.79-.834.808.808 0 0 1 .827-.8c.444.01.8.381.793.834zm-10.771 1.709a.423.423 0 0 1-.435.423.43.43 0 0 1-.423-.442.438.438 0 0 1 .443-.429.428.428 0 0 1 .415.448zm1.689-1.574a.43.43 0 0 1 .48.373.432.432 0 0 1-.37.487.435.435 0 0 1-.488-.377.435.435 0 0 1 .378-.483zM104.632 12.144a.713.713 0 0 1 .617-.813.72.72 0 0 1 .806.623.725.725 0 0 1-.617.818.715.715 0 0 1-.806-.628zM98.538.984a.488.488 0 0 1-.47-.504.485.485 0 0 1 .49-.479c.27.009.484.23.48.5a.498.498 0 0 1-.5.483zm9.929 16.068a.49.49 0 0 1 .495-.481.494.494 0 0 1-.023.985.487.487 0 0 1-.472-.504zM89.365 7.434a.434.434 0 0 1-.48-.375.44.44 0 0 1 .37-.492c.237-.025.451.14.487.377a.436.436 0 0 1-.377.49zm14.559 11.95c0-.24.197-.43.435-.425a.44.44 0 0 1 .422.449.432.432 0 0 1-.441.421.426.426 0 0 1-.416-.445zm.457-14.083a.732.732 0 0 1-.032-1.462.725.725 0 0 1 .737.718c.01.4-.305.732-.705.744zm31.083 15.956c.234.029.398.247.37.49a.434.434 0 0 1-.488.373.435.435 0 0 1-.37-.487.434.434 0 0 1 .488-.376zm10.686 16.306a1.959 1.959 0 0 1 1.994-1.934 1.963 1.963 0 0 1 1.909 2.022 1.968 1.968 0 0 1-2 1.935 1.965 1.965 0 0 1-1.903-2.023zM112.32 142.05a1.539 1.539 0 0 1 1.72-1.321c.834.12 1.418.899 1.297 1.74a1.53 1.53 0 0 1-1.722 1.321 1.534 1.534 0 0 1-1.294-1.74zm-5.904.442c.11-.847.883-1.439 1.72-1.322.832.117 1.413.89 1.3 1.734a1.539 1.539 0 0 1-1.718 1.324 1.539 1.539 0 0 1-1.302-1.736zm-45-117.202a1.545 1.545 0 0 1-1.304-1.742 1.538 1.538 0 0 1 1.725-1.315c.835.118 1.417.89 1.299 1.737a1.539 1.539 0 0 1-1.72 1.32zm43.667 113.283a.493.493 0 0 1 .478-.5.484.484 0 0 1 .497.477.486.486 0 0 1-.477.504.492.492 0 0 1-.498-.481zm14.569-4.705a.814.814 0 0 1 .824.809.81.81 0 0 1-.792.837.822.822 0 0 1-.032-1.646zm12.686 4.75a.487.487 0 0 1 .972-.02c.006.267-.208.5-.477.5a.484.484 0 0 1-.495-.48zm-1.552-7.363a.434.434 0 1 1-.37-.49c.234.028.402.25.37.49zm20.698-96.713a.822.822 0 0 1 .799-.842.822.822 0 0 1 .831.804.823.823 0 0 1-.797.843.824.824 0 0 1-.833-.805zM129.74 135.747a.435.435 0 0 1 .485-.376.439.439 0 0 1-.115.87.433.433 0 0 1-.37-.494zm-30.42 2.461a1.137 1.137 0 0 1 1.102-1.169c.625-.01 1.14.487 1.157 1.117a1.14 1.14 0 0 1-1.105 1.17 1.135 1.135 0 0 1-1.153-1.118zm57.015-106.865a.731.731 0 0 1 .738.717.725.725 0 0 1-.71.746.724.724 0 0 1-.735-.717.73.73 0 0 1 .707-.746zm-10.802-2.329a.426.426 0 0 1 .438.426.43.43 0 1 1-.861.017.434.434 0 0 1 .423-.443zm-29.012 105.98c.019.92-.699 1.679-1.602 1.702a1.66 1.66 0 0 1-1.68-1.63c-.019-.916.701-1.676 1.605-1.691.91-.02 1.657.703 1.677 1.619zm.175 5.403a.736.736 0 0 1-.624-.825.73.73 0 0 1 .815-.63.733.733 0 1 1-.192 1.456zm27.018-15.189a.447.447 0 0 1-.488.377.442.442 0 0 1-.37-.494.427.427 0 0 1 .487-.37.43.43 0 0 1 .371.487zm-46.026 14.436a.428.428 0 0 1 .422-.448.434.434 0 0 1 .44.424.427.427 0 0 1-.42.445.429.429 0 0 1-.442-.421zm55.595-108.646a.728.728 0 0 1-.813.629.721.721 0 0 1-.616-.82c.052-.4.413-.68.808-.63a.73.73 0 0 1 .621.821zM127.277 132.39a.434.434 0 0 1 .372.49.438.438 0 0 1-.488.375.434.434 0 0 1-.37-.494.43.43 0 0 1 .486-.37zm-2.162 2.346a.731.731 0 0 1-.74.717.727.727 0 0 1-.703-.75.73.73 0 0 1 .734-.714.733.733 0 0 1 .709.747zm18.04-8.066a.734.734 0 0 1-.037 1.468.735.735 0 0 1 .037-1.469zm-16.832 13.828c-.27 1.916-2.02 3.26-3.91 2.997-1.899-.266-3.216-2.036-2.953-3.948.269-1.922 2.02-3.267 3.914-3 1.894.266 3.215 2.032 2.95 3.95zm11.887-6.604a1.531 1.531 0 0 1-1.294-1.736 1.533 1.533 0 0 1 1.723-1.319 1.528 1.528 0 0 1 1.294 1.738 1.528 1.528 0 0 1-1.723 1.317zm-1.408 3.186a.494.494 0 0 1-.475.506.493.493 0 0 1-.497-.488.483.483 0 0 1 .478-.499.485.485 0 0 1 .494.48zm12.226-95.64a.44.44 0 0 1 .488-.376.435.435 0 0 1 .369.493.426.426 0 0 1-.485.37c-.236-.024-.398-.247-.372-.487zM136.56 28.98a.725.725 0 0 1 .705-.749c.399-.007.724.31.74.715a.73.73 0 0 1-.704.747.724.724 0 0 1-.74-.713zm6.337 11.107a.728.728 0 0 1 .812-.63.727.727 0 0 1 .618.82.72.72 0 1 1-1.43-.19zm8.385-11.51c-3.133-.072-5.614-2.692-5.543-5.858.066-3.164 2.658-5.677 5.789-5.606 3.123.069 5.61 2.688 5.542 5.857-.072 3.165-2.664 5.676-5.788 5.608zm-11.444 9.92c-2.57-.058-4.61-2.209-4.554-4.804.061-2.602 2.189-4.664 4.758-4.609 2.566.06 4.605 2.21 4.548 4.815-.06 2.592-2.182 4.654-4.752 4.598zm6.256-4.85c.237.028.4.247.37.484a.433.433 0 0 1-.484.382.434.434 0 0 1-.37-.492.425.425 0 0 1 .484-.373zM140.83 25.5a2.582 2.582 0 0 1-2.628-2.54c-.03-1.441 1.094-2.626 2.513-2.658 1.42-.031 2.596 1.106 2.625 2.54.033 1.438-1.094 2.626-2.51 2.658zM93.003 139.066a.432.432 0 0 1 .484-.377c.236.029.407.25.37.487a.431.431 0 1 1-.854-.11zm34.519-3.683c.24 0 .438.189.444.435a.436.436 0 0 1-.421.446.433.433 0 0 1-.443-.43.442.442 0 0 1 .42-.451zm1.05 3.929a.727.727 0 0 1-.618-.822.721.721 0 1 1 1.432.192.73.73 0 0 1-.815.63zM149.82 33.546a.44.44 0 0 1-.377-.49.443.443 0 0 1 .488-.376c.24.03.409.25.377.492a.442.442 0 0 1-.488.374zM134.268 133.91a.73.73 0 0 1-.813.63.73.73 0 0 1-.617-.825.721.721 0 1 1 1.43.195zm-32.375 5.616a.49.49 0 0 1 .498.48.498.498 0 0 1-.475.508.494.494 0 0 1-.023-.988zm-6.375.728a.432.432 0 0 1 .485-.378.441.441 0 0 1 .365.495.425.425 0 0 1-.48.37.426.426 0 0 1-.37-.487zm41.456-114.06c.24-.004.44.188.442.43a.436.436 0 0 1-.42.446.437.437 0 0 1-.441-.43.435.435 0 0 1 .419-.446zm-59.51 110.533a.478.478 0 0 1-.494-.48.483.483 0 0 1 .475-.504.492.492 0 0 1 .02.984zm33.54.748c.03-.24.247-.41.48-.384a.435.435 0 0 1 .369.494.425.425 0 0 1-.481.37.419.419 0 0 1-.367-.48zm-39.751-6.623a.82.82 0 0 1-.038 1.642.82.82 0 0 1-.793-.845.812.812 0 0 1 .83-.797zm-.13-3.154c.624.01 1.112.536 1.105 1.163a1.14 1.14 0 0 1-1.15 1.114 1.132 1.132 0 0 1-1.1-1.164 1.123 1.123 0 0 1 1.145-1.113zm-1.747 5.938c0-.24.201-.434.439-.425a.432.432 0 0 1 .419.446.427.427 0 0 1-.442.421.424.424 0 0 1-.416-.442zm-2.728-7.632a.438.438 0 0 1 .11.867.439.439 0 0 1-.48-.377c-.027-.24.13-.462.37-.49zm.825 5.016a.483.483 0 0 1-.474-.503.485.485 0 0 1 .494-.48.493.493 0 0 1-.02.983zm23.354 6.506a1.538 1.538 0 0 1-1.721 1.325 1.539 1.539 0 0 1-1.306-1.74c.12-.837.89-1.435 1.72-1.318a1.539 1.539 0 0 1 1.307 1.733zm-7.926-1.132a1.531 1.531 0 0 1-1.722 1.315 1.54 1.54 0 0 1-1.298-1.735 1.54 1.54 0 0 1 1.721-1.324 1.538 1.538 0 0 1 1.3 1.744zm-10.185-1.147a1.138 1.138 0 0 1 1.1-1.169 1.137 1.137 0 0 1 1.153 1.118 1.13 1.13 0 0 1-1.1 1.167 1.135 1.135 0 0 1-1.153-1.116zm13.808.195a.722.722 0 1 1-1.434-.19.727.727 0 0 1 .813-.628.73.73 0 0 1 .62.818zm-9.9-3.312c.236.033.399.254.373.49-.04.24-.254.413-.485.38a.444.444 0 0 1-.377-.492.445.445 0 0 1 .489-.378zm-2.56-1.246a.44.44 0 0 1-.49.377.434.434 0 0 1-.364-.494.43.43 0 1 1 .854.117zm12.404 8.954a.487.487 0 0 1-.494-.487.482.482 0 0 1 .474-.496.481.481 0 0 1 .495.476.494.494 0 0 1-.475.507zm-3.366-1.084c.06-.4.424-.682.82-.63.392.052.669.42.617.815a.728.728 0 0 1-.816.633.733.733 0 0 1-.62-.818zm-19.424-11.462a.437.437 0 0 1-.48.377.435.435 0 0 1-.373-.49.432.432 0 0 1 .486-.38c.233.033.4.253.367.493zm-1.77-4.993a.437.437 0 0 1-.441-.428.433.433 0 0 1 .422-.449.439.439 0 0 1 .02.876zm18.446 11.211a.429.429 0 0 1-.85-.114.426.426 0 0 1 .487-.37c.234.03.397.246.363.484zm55.46-114.287c-1.89.26-3.637-1.077-3.904-2.985-.267-1.913 1.053-3.675 2.943-3.938 1.89-.263 3.637 1.074 3.897 2.98.27 1.914-1.046 3.678-2.936 3.943zm-6.234-.912c-.396-.015-.71-.387-.701-.838.003-.455.335-.813.734-.804.396.01.712.383.701.838-.008.451-.34.814-.734.804zm-14.82-6.666a.439.439 0 0 1 .442-.43.432.432 0 0 1 .415.447.431.431 0 0 1-.439.426.426.426 0 0 1-.418-.443zm11.335 4.768a.727.727 0 0 1 .735-.719.73.73 0 1 1-.026 1.462.734.734 0 0 1-.71-.743zm.41-1.918a.814.814 0 0 1-.796-.84.812.812 0 0 1 .83-.8c.447.012.801.386.79.837a.81.81 0 0 1-.824.803zm-20.016 8.367a.72.72 0 0 1 .617-.815.727.727 0 0 1 .81.631.728.728 0 0 1-.621.818.726.726 0 0 1-.806-.634zm3.99-9.452c-2.563.056-4.685-2-4.743-4.589-.052-2.594 1.982-4.742 4.537-4.795 2.564-.057 4.685 1.999 4.74 4.591.059 2.591-1.971 4.737-4.535 4.793zm33.904 13.421a.73.73 0 0 1 .735-.72.732.732 0 1 1-.026 1.465.736.736 0 0 1-.71-.745zM116.079 3.032a.436.436 0 1 1 .02-.872.432.432 0 0 1 .414.448.427.427 0 0 1-.434.424zm.227 15.972c-.026 1.095-.916 1.96-1.995 1.936-1.077-.024-1.933-.928-1.914-2.02a1.964 1.964 0 0 1 1.999-1.93 1.96 1.96 0 0 1 1.91 2.014zm3.82.702c-1.898-.264-3.213-2.032-2.944-3.951.26-1.92 2.015-3.257 3.911-2.992 1.893.265 3.216 2.034 2.95 3.951-.27 1.913-2.02 3.257-3.917 2.992zm14.602 5.926a.726.726 0 0 1-.707.743.723.723 0 0 1-.734-.716.72.72 0 1 1 1.441-.027zm9.688-7.624c-.397.008-.73-.348-.734-.805-.014-.455.304-.828.704-.838.4-.009.724.348.737.807.007.452-.309.828-.707.836zm-19.678 5.382a.73.73 0 0 1-.816.629.728.728 0 0 1-.62-.817.728.728 0 0 1 .813-.633.73.73 0 0 1 .623.821zm-3.384.07a.823.823 0 0 1-.797.844.822.822 0 0 1-.828-.808.82.82 0 0 1 .797-.842.816.816 0 0 1 .828.807zm9.744-12.584a.439.439 0 0 1-.376-.488.433.433 0 0 1 .485-.377.433.433 0 0 1 .372.488.434.434 0 0 1-.48.377zm-4.775 12.517c-.026-1.437 1.097-2.621 2.514-2.655 1.422-.032 2.599 1.109 2.625 2.54.032 1.438-1.096 2.63-2.511 2.66-1.422.031-2.596-1.108-2.628-2.545zm32.3 3.704a.436.436 0 0 1 .117-.865.437.437 0 0 1-.117.865zm-35.71-16.487c-1.417-.03-2.537-1.215-2.508-2.649.033-1.428 1.202-2.563 2.618-2.53 1.417.03 2.537 1.217 2.507 2.646-.032 1.431-1.205 2.567-2.617 2.533zM89.605 145.54a2.18 2.18 0 0 1-2.107-2.234 2.165 2.165 0 0 1 2.199-2.137 2.175 2.175 0 0 1 2.112 2.228 2.18 2.18 0 0 1-2.204 2.142zm10.43-2.844a1.387 1.387 0 0 1 1.413 1.367 1.39 1.39 0 0 1-1.351 1.425 1.384 1.384 0 0 1-1.41-1.37 1.384 1.384 0 0 1 1.348-1.422zm-37.562-7.741c-1.194.032-2.186-.928-2.208-2.143-.026-1.205.916-2.208 2.111-2.23a2.163 2.163 0 0 1 2.205 2.14 2.165 2.165 0 0 1-2.108 2.233zm-.877-98.771c-.025-1.213.924-2.213 2.115-2.241a2.18 2.18 0 0 1 2.208 2.144c.027 1.207-.921 2.21-2.112 2.235a2.18 2.18 0 0 1-2.21-2.138zm91.57 5.108c.26-1.917 2.013-3.254 3.907-2.994 1.897.264 3.217 2.035 2.953 3.95-.266 1.918-2.02 3.256-3.917 2.99-1.89-.263-3.21-2.028-2.943-3.946zm-49.022-15.776a1.349 1.349 0 1 1 0 2.698 1.349 1.349 0 0 1 0-2.698zM74.142 38.63c.74 0 1.339.603 1.339 1.348 0 .745-.6 1.35-1.34 1.35-.739 0-1.34-.605-1.34-1.35 0-.745.601-1.348 1.34-1.348zM46.649 69.184c.746 0 1.35.6 1.35 1.34 0 .74-.604 1.34-1.35 1.34-.744 0-1.348-.6-1.348-1.34 0-.74.604-1.34 1.348-1.34zm4.141 8.074a1.349 1.349 0 1 1 0 2.698 1.349 1.349 0 0 1 0-2.698zm-2.698 16.168a1.349 1.349 0 1 1 0 2.698 1.349 1.349 0 0 1 0-2.698zm6.285-4.31c.74 0 1.34.605 1.34 1.35 0 .745-.6 1.349-1.34 1.349-.74 0-1.339-.604-1.339-1.35 0-.744.6-1.348 1.34-1.348zm53.186 42.414c.74 0 1.34.605 1.34 1.35 0 .744-.6 1.348-1.34 1.348-.74 0-1.34-.604-1.34-1.349 0-.744.6-1.349 1.34-1.349zm-13.123 0a1.349 1.349 0 1 1 0 2.698 1.349 1.349 0 0 1 0-2.698zm37.205-101.874c.745 0 1.35.6 1.35 1.34 0 .739-.605 1.338-1.35 1.338-.745 0-1.348-.6-1.348-1.339 0-.74.603-1.34 1.348-1.34zm-19.408-5.04a.805.805 0 1 1 0 1.61.805.805 0 0 1 0-1.61zm-24.973 4.852a.806.806 0 1 1 0 1.611.806.806 0 0 1 0-1.61zm-35.94 19.578a.815.815 0 1 1 0 1.63.815.815 0 0 1 0-1.63zm1.433 48.164a.806.806 0 1 1 0 1.612.806.806 0 0 1 0-1.612zm49.598 36.288c.45 0 .815.36.815.805a.81.81 0 0 1-.815.806.81.81 0 0 1-.815-.806.81.81 0 0 1 .815-.805zm36.297-6.295a.81.81 0 0 1 .805.815.81.81 0 0 1-.805.815.81.81 0 0 1-.806-.815c0-.45.36-.815.806-.815zm8.889-5.376c.398 0 .721.318.721.711a.717.717 0 0 1-.721.712.717.717 0 0 1-.721-.712c0-.393.323-.711.72-.711zM72.223 113.157a43.914 43.914 0 0 1-.051-.07c-.299.172-.59.31-.859.425-1.07.464-.81-1.205.059-1.222.073-.001.143-.007.213-.017-7.547-10.737-6.854-20.29-6.295-23.61-2.81.03-4.586-2.474-5.163-3.24-.68-.902-1.579-3.33-.764-3.352 2.744 1.584 4.943 2.538 6.712 2.401 4.835-2.994 5.988-5.694 6.43-6.028.408-.307.708-.101.878.124.233.31.467 5.912-4.341 8.827-.528 2.52-.569 6.496 2.53 10.606 2.778 3.683 7.608 4.761 12.929 6.247-.74-.67-1.302-1.39-2.797-1.91.898-1.724.716-5.028.575-5.735-.13-.645.322-.881.655-.69 2.621 1.502 4.495 7.025 5.007 9.365 4.82 1.584 9.765 3.985 13.757 9.28.504.667.275.97-.683 1.692a23.333 23.333 0 0 1-6.419 3.411c.036.058.071.115.105.173.966 1.627-.217.752-.217.752s-2.352 1.905-2.005-.06a2.04 2.04 0 0 0 .03-.253c-2.859.693-5.836.826-8.71.292-1.221 1.413-3.75 3.16-7.943 2.09-1.043-.266.675-.58 1.965-2.072.522-.603.798-1.22.942-1.735a17.814 17.814 0 0 1-2.18-1.332c-2.103.517-5.534.449-8.772-3.147-.832-.924 1.022-.123 3.22-.727a5.337 5.337 0 0 0 1.192-.485zm70.377-3.955c.138 8.897-13.966 15.83-22.115 17.685-.754.172-1.149.234-1.312-.281-.247-.777 1.625-1.569 3.742-4.16a15.403 15.403 0 0 1-.011-.004 22.31 22.31 0 0 1-.522.524c-1.112 1.083-3.4.75-1.046-.542.271-.148.495-.273.682-.379-3.146-1.533-4.651-3.598-6.478-3.016-2.046.65-2.91 3.72-4.903 4.353-.83.265-.56-.551-.346-1.636.392-1.996.452-2.815-1.52-4.232-1.474-1.059-4.208-1.806-2.971-2.2 3.457-1.1 5.95 1.252 8.522.434 1.767-.562 3.013-5.174 5.855-8.5-2.977-.457-3.702.26-3.893-.159-.213-.464 1.245-1.793 5.147-3.034 8.058-2.563 19.523-1.246 20.756 2.655a9.1 9.1 0 0 1 .242.931c.223-.13.44-.246.645-.34 1.219-.562 1.395 2.445.288 2.004-.217-.086-.48-.114-.762-.103zm-9.163-55.34c-3.617 4.922-11.88 7.238-14.03 6.128-.484-.249-.454-.726-.317-.99.309-.597 4.667-3.485 6.07-7.13a23.419 23.419 0 0 1-1.353-.643c-3.893-2.008-6.69-4.231-8.712-6.348-2.701-1.126-6.31-2.101-8.141-1.93-1.035.095-1.035-.654.018-1.37.932-.635 2.131-1.385 3.505-1.916a23.98 23.98 0 0 1-.343-.453c-1.227-1.657.053-1.486.734-.373a25.57 25.57 0 0 1-.867-2.04c2.371-.754 10.85-1.897 18.628 2.115 4.888 2.522 7.67 6.452 9.081 8.574.115-.19.216-.372.294-.54.34-.734 1.252.969.446 1.353a7.373 7.373 0 0 0-.01.005c1.701-.509 3.234-.41 4.999.5 1.38.712 2.461 2.005 2.869 2.997-.992.521-6.336 2.511-12.871 2.06zM111.14 39.385l.018.039h.001a22.695 22.695 0 0 1-.02-.039zM95.283 42.17c-3.081.427-8.854 1.809-11.687 6.253a29.609 29.609 0 0 0-1.612 2.852c.747.094 1.637-.047 2.848-.151-.754 1.65-2.62 2.805-4.122 3.182l-.005.013c.06-.017.12-.036.176-.056.808-.292 1.661.494-.18.718-.08.01-.156.017-.231.021-.712 2.136-1.194 4.176-2.06 6.5 1.01.719 2.393.797 4.447 1.128-1.424 1.773-3.962 2.663-5.956 2.761.935.019 1.33.964.011 1.066a3.374 3.374 0 0 1-.803-.034 41.596 41.596 0 0 1-1.115 1.851c-4.214 6.609-9.047 8.489-10.612 7.9l-.088.094c-.764.808-2.426-.405-1.438-.72.198-.063.471-.215.781-.412-.811-2.507-.727-9.6 5.161-20.016-.708.669-1.25.064.224-2.295.206-.33.423-.642.643-.933-.256-2.706-.266-5.24 1.28-7.954.991 1.508 2.36 2.342 4.52 2.254 7.416-6.91 15.883-6.805 19.85-6.264.712-4.22 5.364-5.313 7.203-4.974-1.73 1.441-5.862 6.071-1.365 12.448-2.445.078-5.398-1.71-5.87-5.232zm42.92 12.207c-.63 1.951-3.512 4.947-3.962 4.715-.572-.296.159-3.073-.046-4.713.904.121 3.454.07 4.008-.002zm-3.776 42.056c-.07-6.488 9.277-11.968 9.174-21.32-.057-5.201-3.071-10.005-3.138-16.098-.037-3.449 1.356-3.464 1.394-.016.098 8.942 11.16 16.945 11.348 34.07.049 4.5-1.77 8.532-4.447 7.59-7.498-3.834-14.303-1.713-14.33-4.226zm20.185-2.152c.028-10.624-3.163-17.106-6.876-23.422 3.675 1.538 7.774-.612 9.4-.63 1.626-.018 3.142.55 3.162 2.42.054 4.968-6.491 25.033-5.686 21.632zM41.171 171.771h-.18c5.111.47 5.832 3.552 7.727 11.14 0 0-2.908-.868-7.547-1.257-.658-3.312-.233-7.252-5.03-7.546v7.546s-3.338.285-7.188 1.258c2.55-12.394.72-20.843.72-20.843s6.467-.414 6.467 2.515v5.032c1.4 0 2.403.111 4.852-5.75 1.21-2.403 6.648-1.257 6.648-1.258-2.24 7.611-4.13 8.754-6.469 9.163zm36.65-9.94c6.181 0 9.444 2.401 9.444 6.811v14.161c-1.061-.573-2.195-.687-3.263-.687-2.006 0-4.13.687-6.37.687-4.25 0-8.347-1.45-8.347-6.243 0-6.964 9.867-5.67 11.61-8.22 0-.917-.684-1.981-3.147-1.981-2.928 0-5.573.697-7.289 2.897-.609-1.326-.642-1.64-.642-2.818 0-3.844 5.393-4.606 8.004-4.606zm3.188 16.254s-1.408.416-2.768.416c-1.29 0-2.586-.385-2.586-2.17 0-2.436 4.33-1.824 5.354-3.425v5.179zm61.308-16.253c4.932 0 8.161 2.895 8.161 7.077v6.851c0 4.416-3.872 7.043-8.274 7.043-2.278 0-4.177-1.179-4.177-1.179s.27 1.252.27 2.01v8.653c-.572 0-6.376-.044-6.376-3.282V161.72c1.174.61 2.469.914 3.828.914 2.36 0 4.37-.801 6.568-.801zm1.785 13.355c0 2.21-.993 3.159-2.39 3.159-1.706 0-3.415-1.14-3.415-2.775v-9.096s1.1-.264 2.425-.264c2.582 0 3.38 1.177 3.38 3.269v5.707zm21.384-13.166s6.492-.01 6.492 2.923v17.788s-1.823-.729-4.21-.729c-1.941 0-3.72.8-5.658.8-4.253 0-8.81-1.45-8.81-6.74V162.02s6.382.155 6.382 2.933v9.457c0 1.795.76 2.782 2.959 2.782 1.29 0 2.845-.382 2.845-.382v-14.79zm21.406 0s6.288-.01 6.288 2.923v17.788c0 7.545-3.334 9.702-9.523 9.702-4.652 0-8.984-2.128-8.984-5.39 0-1.567.183-1.926.898-2.695 6.558 4.64 10.083 2.136 10.422 1.797.655-.636.899-1.106.899-3.773l.004-.09c-1.117.23-2.226.52-3.388.52-4.247 0-8.806-1.45-8.806-6.74V162.02s6.378.155 6.378 2.933v9.457c0 1.795.76 2.782 2.962 2.782 1.29 0 2.85-.382 2.85-.382v-14.79zm-84.57 0s6.38 0 6.38 2.933v17.666s-6.38 0-6.38-2.93v-4.976c-.776-.12-1.574-.17-2.368-.17-1.21 0-2.341.29-3.453.523v7.553s-6.377 0-6.377-2.93v-17.669s6.377 0 6.377 2.933v5.735c1.112-.233 2.242-.522 3.453-.522.794 0 1.592.05 2.367.17v-8.316zm17.364-.19c6.181 0 9.445 2.401 9.445 6.811v14.161c-1.061-.573-2.195-.687-3.264-.687-2.006 0-4.13.687-6.37.687-4.249 0-8.346-1.45-8.346-6.243 0-6.964 9.867-5.67 11.61-8.22 0-.917-.685-1.981-3.148-1.981-2.928 0-5.573.697-7.289 2.897-.608-1.326-.642-1.64-.642-2.818 0-3.844 5.394-4.606 8.004-4.606zm3.188 16.254s-1.407.416-2.768.416c-1.29 0-2.585-.385-2.585-2.17 0-2.436 4.33-1.824 5.353-3.425v5.179zm-63.73 4.885c-8.56 0-10.246-7.15-10.246-10.12 0-10.89 8.488-10.848 10.436-10.848 4.248 0 8.346 1.45 8.346 6.242 0 6.963-9.867 5.67-11.61 8.22 0 .916.684 1.98 3.147 1.98 2.928 0 5.573-.698 7.29-2.897.608 1.325.641 1.64.641 2.818 0 3.843-5.393 4.605-8.004 4.605zm-.42-16.666c1.29 0 2.586.384 2.586 2.17 0 2.435-5.64 2.595-6.663 4.196 0 0-1.426-6.366 4.077-6.366zm154.221 16.428V172.31c-2.368 3.458-4.941 8.08-5.21 8.265-.27-.185-2.843-4.807-5.211-8.265v10.422s-6.469-.126-6.469-3.055V162.07s5.402-.073 6.469 2.156l5.21 8.265 5.211-8.265c1.066-2.23 6.469-2.156 6.469-2.156v17.608c0 2.93-6.469 3.055-6.469 3.055zM20.33 180.755c-3.81-.18-5.997-2.153-7.368-3.773 11.196 1.562 10.69-16.615.536-16.616-11.565 0-11.037 23.665 11.144 23.264-30.551 8.572-30.828-30.004-11.06-30.004 15.891 0 17.58 23.356 6.748 27.13z"/>
    </g>
</svg>