<?xml version="1.0" encoding="UTF-8"?>
<!-- Generator: Adobe Illustrator 21.1.0, SVG Export Plug-In . SVG Version: 6.00 Build 0)  -->
<svg version="1.1" id="Слой_1" xmlns="http://www.w3.org/2000/svg" xmlns:xlink="http://www.w3.org/1999/xlink" x="0px" y="0px" viewBox="0 0 29 23" style="enable-background:new 0 0 29 23;" xml:space="preserve">
<style type="text/css">
	.st0{fill:#FFFFFF;}
</style>
<path class="st0" d="M9.1,23C20.1,23,26,14.2,26,6.5c0-0.3,0-0.5,0-0.8c1.2-0.8,2.2-1.8,3-3c-1.1,0.5-2.2,0.8-3.4,0.9  c1.2-0.7,2.2-1.9,2.6-3.2c-1.1,0.7-2.4,1.1-3.8,1.4C23.3,0.7,21.8,0,20.1,0c-3.3,0-6,2.6-6,5.8c0,0.5,0.1,0.9,0.2,1.3  C9.3,6.9,5,4.6,2,1.1C1.5,1.9,1.2,2.9,1.2,4c0,2,1.1,3.8,2.6,4.8c-1,0-1.9-0.3-2.7-0.7c0,0,0,0,0,0.1c0,2.8,2.1,5.2,4.8,5.7  c-0.5,0.1-1,0.2-1.6,0.2c-0.4,0-0.8,0-1.1-0.1c0.8,2.3,3,4,5.6,4c-2,1.6-4.6,2.5-7.4,2.5c-0.5,0-1,0-1.4-0.1C2.6,22,5.8,23,9.1,23"/>
</svg>