<?xml version="1.0" encoding="UTF-8"?>
<!-- Generator: Adobe Illustrator 21.1.0, SVG Export Plug-In . SVG Version: 6.00 Build 0)  -->
<svg version="1.1" id="Слой_1" xmlns="http://www.w3.org/2000/svg" xmlns:xlink="http://www.w3.org/1999/xlink" x="0px" y="0px" viewBox="0 0 30 16" style="enable-background:new 0 0 30 16;" xml:space="preserve">
<style type="text/css">
	.st0{fill:#FFFFFF;}
</style>
<path class="st0" d="M28.8,13c-0.9-1-1.9-1.9-2.9-2.8c-0.9-0.8-1-1.3-0.2-2.3c0.8-1,1.6-2,2.4-3.1c0.7-1,1.5-1.9,1.9-3.1  c0.2-0.7,0-1.1-0.8-1.2c-0.1,0-0.3,0-0.4,0l-4.8,0c-0.6,0-0.9,0.2-1.1,0.7c-0.3,0.7-0.6,1.3-0.9,2c-0.8,1.4-1.6,2.8-2.8,4  c-0.3,0.3-0.5,0.6-1,0.5c-0.5-0.2-0.7-1-0.7-1.3l0-5.2c-0.1-0.7-0.3-1.1-1.1-1.2l-4.9,0c-0.7,0-1,0.2-1.3,0.6  C9.9,0.9,9.9,1,10.3,1.1c0.8,0.1,1.3,0.6,1.4,1.4c0.2,1.2,0.2,2.5,0.1,3.7c0,0.4-0.1,0.7-0.3,1.1c-0.2,0.5-0.6,0.6-1.1,0.3  C9.9,7.3,9.6,6.9,9.3,6.5C8.1,4.9,7.2,3.2,6.4,1.4C6.2,0.9,5.8,0.6,5.2,0.6c-1.4,0-2.9,0-4.3,0C0.1,0.6-0.2,1,0.2,1.7  C1.7,5,3.4,8.1,5.7,11c1.2,1.5,2.5,2.8,4.2,3.7c1.9,1,4,1.4,6.3,1.3c1,0,1.3-0.3,1.4-1.3c0-0.7,0.1-1.3,0.5-1.9  c0.3-0.6,0.9-0.7,1.5-0.3c0.3,0.2,0.5,0.4,0.8,0.7c0.6,0.6,1.1,1.2,1.7,1.8c0.8,0.7,1.7,1.2,2.8,1.1l4.4,0c0.7,0,1.1-0.9,0.7-1.6  C29.5,13.9,29.2,13.4,28.8,13z"/>
</svg>