<?xml version="1.0" encoding="UTF-8"?>
<!DOCTYPE svg PUBLIC "-//W3C//DTD SVG 1.1//EN" "http://www.w3.org/Graphics/SVG/1.1/DTD/svg11.dtd">
<svg version="1.1" baseProfile="full" xmlns="http://www.w3.org/2000/svg" xmlns:xlink="http://www.w3.org/1999/xlink" xmlns:ev="http://www.w3.org/2001/xml-events" height="110px" width="110px">
<path fill="rgb( 255, 255, 255 )" d="M55,109.999 C24.624,109.999 0,85.375 0,55 C0,24.624 24.624,0 55,0 C85.376,0 110,24.624 110,55 C110,85.375 85.376,109.999 55,109.999 ZM55,2 C25.729,2 2,25.729 2,55 C2,84.271 25.729,108 55,108 C84.271,108 108,84.271 108,55 C108,25.729 84.271,2 55,2 Z "/>
<path fill="rgb( 255, 255, 255 )" d="M51.895,58.429 L30.067,80.979 L43.973,80.979 L43.973,82.999 L26.996,82.999 L26.996,65.9829999999999 L28.987,65.9829999999999 L28.987,79.04 L50.509,57.001 L51.895,58.429 Z "/>
<path fill="rgb( 255, 255, 255 )" d="M83.9690000000001,41.9059999999999 L81.9459999999999,41.9059999999999 L81.9459999999999,28.915 L61.077,49.717 L59.6679999999999,48.303 L80.8800000000001,27 L66.9090000000001,27 L66.9090000000001,25 L83.9690000000001,25 L83.9690000000001,41.9059999999999 Z "/>
</svg>