<?xml version="1.0" encoding="UTF-8"?>
<!-- Generator: Adobe Illustrator 15.0.2, SVG Export Plug-In . SVG Version: 6.00 Build 0)  -->
<!DOCTYPE svg PUBLIC "-//W3C//DTD SVG 1.1//EN" "http://www.w3.org/Graphics/SVG/1.1/DTD/svg11.dtd">
<svg version="1.1" id="Capa_1" xmlns="http://www.w3.org/2000/svg" xmlns:xlink="http://www.w3.org/1999/xlink" x="0px" y="0px" width="150px" height="150px" viewBox="0 0 150 150" enable-background="new 0 0 150 150" xml:space="preserve"><script xmlns="" type="text/javascript" charset="utf-8" id="zm-extension"/>
<linearGradient id="SVGID_1_" gradientUnits="userSpaceOnUse" x1="9.3403" y1="66.8906" x2="141.9345" y2="85.2868">
	<stop offset="0" style="stop-color:#F17305"/>
	<stop offset="1" style="stop-color:#FAA017"/>
</linearGradient>
<circle fill="url(#SVGID_1_)" cx="75" cy="75.999" r="66.924"/>
<g>
	<path fill="#FFFFFF" d="M92.441,114.482l-1.3,5.315c-3.901,1.539-7.017,2.711-9.337,3.516c-2.322,0.809-5.021,1.212-8.097,1.212   c-4.723,0-8.396-1.158-11.015-3.455c-2.62-2.308-3.93-5.23-3.93-8.776c0-1.373,0.095-2.785,0.293-4.224   c0.199-1.44,0.516-3.063,0.95-4.876L64.88,85.94c0.434-1.651,0.802-3.218,1.098-4.698c0.299-1.471,0.444-2.824,0.444-4.043   c0-2.204-0.457-3.745-1.365-4.612c-0.908-0.863-2.641-1.302-5.214-1.302c-1.26,0-2.555,0.201-3.875,0.592   c-1.326,0.392-2.459,0.771-3.411,1.123l1.303-5.319c3.194-1.301,6.246-2.414,9.167-3.338c2.919-0.927,5.679-1.391,8.288-1.391   c4.69,0,8.309,1.134,10.85,3.399c2.541,2.27,3.811,5.21,3.811,8.834c0,0.75-0.083,2.07-0.263,3.959   c-0.175,1.893-0.5,3.627-0.976,5.204l-4.855,17.185c-0.396,1.38-0.754,2.959-1.065,4.733c-0.321,1.765-0.475,3.112-0.475,4.016   c0,2.282,0.509,3.84,1.528,4.669c1.027,0.828,2.797,1.24,5.312,1.24c1.18,0,2.522-0.209,4.015-0.621   C90.684,115.16,91.769,114.799,92.441,114.482z M93.673,42.334c0,2.994-1.129,5.552-3.396,7.654   c-2.264,2.11-4.988,3.166-8.177,3.166c-3.198,0-5.931-1.056-8.219-3.166c-2.283-2.104-3.428-4.66-3.428-7.654   c0-2.988,1.145-5.549,3.428-7.678c2.283-2.127,5.021-3.189,8.219-3.189c3.188,0,5.913,1.065,8.177,3.189   C92.547,36.785,93.673,39.347,93.673,42.334z"/>
</g>
</svg>