<svg enable-background="new 0 0 22 22" height="22" viewBox="0 0 22 22" width="22" xmlns="http://www.w3.org/2000/svg"><script xmlns="" type="text/javascript" charset="utf-8" id="zm-extension"/><g fill="#fff"><path d="m18.2011719 18.1992188h-14.4003906c-.9921875 0-1.8007813-.8076172-1.8007813-1.7998047v-8.3989258c0-.9931641.8085938-1.8012695 1.8007813-1.8012695h14.4003906c.9238281 0 1.7988281.8754882 1.7988281 1.8012695v8.3989258c0 .9921875-.8076172 1.7998047-1.7988281 1.7998047zm-14.4003906-10.7998047c-.2880859 0-.5986328.2299805-.5986328.6010742v8.3989258c-.0000001.3701172.3105468.6005859.5986328.6005859h14.4003906c.2880859 0 .6005859-.2304688.6005859-.6005859v-8.3989258c0-.2700195-.3330078-.6010742-.6005859-.6010742z"/><path d="m14.0009766 6.800293c-.3623047 0-.6005859-.237793-.6005859-.5991211v-1.2001953h-4.7998048v1.2001953c0 .3613281-.243164.5991211-.6005859.5991211-.3613281 0-.5996094-.237793-.5996094-.5991211v-1.8007813c0-.362793.2382813-.5996094.5996094-.5996094h6.0009766c.3564453 0 .5996094.2368164.5996094.5996094v1.8007813c-.0000001.3613281-.2431641.5991211-.5996094.5991211zm0 0"/><path d="m12.2001953 13.3994141h-2.399414c-.6953125 0-1.2001953-.5048828-1.2001953-1.2001953h-4.7998047c-1.0595704 0-1.8007813-.7392579-1.8007813-1.7998047h1.2021484c0 .3925781.2070313.6005859.5986329.6005859h4.7998047c0-.6962891.5048828-1.199707 1.2001953-1.199707h2.3994141c.6953125 0 1.2001953.503418 1.2001953 1.199707h4.8007813c.3867188 0 .6005859-.2143555.6005859-.6005859h1.1982421c0 1.0439453-.7558594 1.7998047-1.7988281 1.7998047h-4.8007813c0 .6953125-.5048828 1.2001953-1.2001953 1.2001953zm-2.399414-2.3994141v1.1992188h2.3994141v-1.1992188z"/></g></svg>