<svg enable-background="new 0 0 22 22" height="22" viewBox="0 0 22 22" width="22" xmlns="http://www.w3.org/2000/svg"><script xmlns="" type="text/javascript" charset="utf-8" id="zm-extension"/><path d="m10.9960938 19.5c-.4199219 0-.8378906-.1025391-1.2539063-.3085938l-4.4951172-2.3632812c-1.0058594-.5673828-1.5292969-1.4316406-1.5292969-2.5097656v-9.0727539c0-.5834961.2666016-1.1225586.7119141-1.4418945.4042969-.2905273.9023438-.3676758 1.3701172-.2094727.3359375.0810547.8710937.0810547 1.3896484.0810547 1.0683594 0 1.9873047-.2768555 3.0722656-.9296875.4941406-.3276367 1.1914063-.3300781 1.7158203.0112305 1.0751953.809082 2.828125 1.1811523 4.2617188.8242188.5224609-.0888672 1.0302734.0498047 1.4277344.3828125.390625.3295898.6152344.7963867.6152344 1.2817383v9.184082c0 1.1445313-.6044922 2.1152344-1.5761719 2.5332031l-4.453125 2.2275391c-.4160156.2060546-.8369141.3095702-1.2568359.3095702zm-6.1582032-6.7519531v1.5703125c0 .6679688.3095703 1.1669922.9453125 1.5253906l4.46875 2.3496094c.5039063.2480469.984375.2480469 1.5029297-.0058594l4.4785156-2.2402344c.5927734-.2548828.9287109-.8183594.9287109-1.5175781v-9.184082c0-.1542969-.0800781-.3081055-.2167969-.4238281-.1396483-.1176758-.3203124-.175293-.4746093-.1445313-1.8945313.4726563-3.8701172-.0498047-5.1367188-1.0043945-.1220703-.078125-.3310547-.0776367-.4736328.0195313-1.2949219.777832-2.3847656 1.1035156-3.6708984 1.1035156-.5849609 0-1.1904297 0-1.703125-.1274414-.2011718-.0649415-.3271484-.010254-.4042968.0439452-.1523438.1113282-.2441407.3095704-.2441407.5332032zm8.21875 1.836914c-.1162109 0-.2519531-.0273438-.4042969-.1015625l-1.5693359-.7841797c-.0664063-.03125-.1074219-.03125-.1708984 0l-1.5205078.7587891c-.2011719.1376953-.4599609.1650391-.6933594.0693359-.3037109-.1269531-.4990234-.4287109-.4990234-.7695313l.3408203-1.7783203c-.0029297.0078125-.0039063.0087891-.0078125-.0068359l-1.1298828-1.1289062c-.2607422-.1743164-.3857422-.4672852-.3173828-.7607422.0771484-.3447266.3984375-.5844727.7753906-.5844727l1.6074219-.2158203c.0517578-.0141602.1230469-.0708008.1757813-.1191406l.6943359-1.3989258c.0507813-.2373047.2041016-.4316406.4277344-.5239258.2792969-.1181641.6259766-.0463867.8525391.1811523l.1054688.1469727.78125 1.5693359 1.8134766.2539063h.0087891c.2353516 0 .4951172.1655273.6074219.4291992.1191406.2783203.0507813.6196289-.1679688.8515625l-1.2460938 1.2421875c-.020508.0205079-.0585939.0986329-.0585939.163086l.3271484 1.5693359c.0117188.4257813-.1201172.6865234-.3486328.8291016-.0791016.0498047-.2099609.1083984-.3837891.1083984zm-2.0605468-2.0292968c.1992188 0 .3964844.046875.5878906.1416016l.9755859.4863281-.2070313-.9941406c-.0107422-.4589844.1416016-.8359375.3759766-1.0683594l.7197266-.7158203-.9580078-.1230469c-.0039063 0-.0078125 0-.0107422 0-.3671875 0-.7675781-.2441406-.9716797-.6342773l-.4267578-.8579102-.5839844 1.1069336c-.1650391.1645508-.5048828.5004883-.9570313.5004883l-.8798828.1186523.5537109.5532227c.4384766.2783203.4384766.7666016.4384766 1.0087891l-.2119141 1.1035156.9716797-.484375c.1875001-.0947266.3867188-.1416016.5839845-.1416016z" fill="#fff"/></svg>