<svg enable-background="new 0 0 22 22" height="22" viewBox="0 0 22 22" width="22" xmlns="http://www.w3.org/2000/svg"><script xmlns="" type="text/javascript" charset="utf-8" id="zm-extension"/><path d="m17.0097656 4.9902344c-3.3183594-3.3203125-8.7011719-3.3203125-12.0195313 0-3.3203125 3.3183594-3.3203125 8.7011719 0 12.0195313 3.3183594 3.3203125 8.7011719 3.3203125 12.0195313 0 3.3203125-3.3183594 3.3203125-8.7011719 0-12.0195313zm1.4082032 5.8183594c-1.7197266.1708984-3.3974609.8632813-4.7763672 2.0820313l-1.8901368-1.8906251 4.8706055-4.8710938c1.1669922 1.3437501 1.7519531 3.006836 1.7958985 4.6796876zm-7.4179688-.5595704-1.890625-1.890625c1.2182617-1.3769531 1.9116211-3.0556641 2.0825195-4.7753906 1.6733398.0439453 3.3344727.6289063 4.6791992 1.7949219zm-.8818359-6.6191406c-.171875 1.4306641-.7592773 2.8212891-1.762207 3.9746094l-2.2265626-2.2265625c1.1582032-1.0039063 2.553711-1.5761719 3.9887696-1.7480469zm-4.7397461 2.4990235 2.2265625 2.2275391c-1.1538086 1.0019531-2.5444336 1.5908203-3.9750977 1.7617188.1708985-1.4345704.7441406-2.8310548 1.7485352-3.9892579zm-1.7949219 5.0625c1.7202148-.1708984 3.3979492-.8642578 4.7749023-2.0820313l1.8901368 1.890625-4.8701172 4.8710938c-1.1660157-1.34375-1.7519532-3.006836-1.7949219-4.6796875zm2.5458984 5.430664 4.8706055-4.8710937 1.890625 1.890625c-1.222168 1.3828125-1.9174805 3.0673828-2.0854492 4.7939453-1.6728516-.0449219-3.3330078-.6484375-4.6757813-1.8134766zm5.7524414 1.7480469c.171875-1.4296875.7597656-2.8212891 1.7626953-3.9746094l2.2265625 2.2265625c-1.1582031 1.0039063-2.5546874 1.5771485-3.9892578 1.7480469zm4.7402344-2.4990234-2.2265625-2.2275391c1.1582031-1.0058594 2.5546875-1.5957031 3.9912109-1.7646484-.1699218 1.4355468-.7578124 2.8320312-1.7646484 3.9921875z" fill="#fff"/></svg>