<svg enable-background="new 0 0 22 22" height="22" viewBox="0 0 22 22" width="22" xmlns="http://www.w3.org/2000/svg"><script xmlns="" type="text/javascript" charset="utf-8" id="zm-extension"/><g fill="#fff"><path d="m13.1533203 11.7099609c.4589844-.5029297.7207031-1.1806641.7207031-1.8798828v-1.6611328c0-1.5517578-1.2675781-2.7958984-2.7978516-2.7958984-1.5292969 0-2.7958984 1.2441406-2.7958984 2.7958984v1.6611328c0 .6787109.2402344 1.3105469.6757813 1.8144531-.3925781.1953125-.8525391.4794922-1.2890625.7421875-1.5947266 1.0048828-1.8144531 1.5087891-1.8144531 1.8798828v1.8134766c0 .3066406.2412109.546875.546875.546875h9.2236328c.3037109 0 .5449219-.2402344.5449219-.546875v-1.7919922c-.0214844-.8515625-1.8994141-1.9892578-3.0146485-2.578125zm1.9003906 3.8251954h-8.1298828v-1.2041016c.3056641-.5009766 2.6005859-1.8359375 3.1923828-2.0537109.1953125-.0644531.3486328-.2607422.3486328-.4580078s-.0888672-.4169922-.2636719-.5253906c-.5214844-.3056641-.8505859-.8730469-.8505859-1.4638672v-1.6611329c0-.9394531.765625-1.7041016 1.703125-1.7041016.9414063 0 1.7060547.7646484 1.7060547 1.7041016v1.6611328c0 .6113281-.3496094 1.2021484-.8955078 1.5087891-.1757813.109375-.2841797.3056641-.2841797.5009766 0 .1972656.1298828.3945313.328125.4814453.6552734.2841797 2.8183594 1.5527344 3.1035156 2.0332031v1.1806641zm0 0"/><path d="m6.6181641 12.5185547c.3291016-.2617188.7001953-.5019531 1.0488281-.6992188-.2617188-.1523438-.4804688-.2851563-.6328125-.3935547.4365234-.6328125.7197266-1.4648438.7197266-2.3164063 0-1.5957031-1.0263672-2.7753906-2.4472656-2.7753906s-2.4482423 1.1572266-2.4482423 2.7753907c0 .8300781.2617188 1.6386719.6777344 2.2509766-.3496094.1962891-.8505859.5019531-1.5732422.9609375-.6123047.3935547-.9628906 1.09375-.9628906 1.8349609v.5478516c0 .4814453.3730469.8525391.8544922.8525391h3.5625v-1.1367188h-3.3017578v-.2402344c0-.3720703.1748047-.7001953.4365234-.8740234.8095703-.5029297 1.7939453-1.0927734 2.0126953-1.203125.1962891-.0439453.3496094-.1962891.4140625-.3925781.0654297-.21875-.0214844-.4580078-.1962891-.5898438-.4814453-.3935547-.8300781-1.2021484-.8300781-1.9892578 0-.9833984.5244141-1.6171875 1.3105469-1.6171875s1.3095703.6552734 1.3095703 1.6171875c0 .8085938-.3466797 1.6171875-.8525391 2.0097656-.171875.1328125-.2607422.3505859-.2167969.5693359.0449219.1962891.1757813.3486328.3710938.4140625.1308594.0449219.3945313.1972657.7441407.3945313zm0 0"/><path d="m19.6650391 12.234375-.0429688-.0214844c.0878906-.0439453.1542969-.1103516.1962891-.1962891.1083984-.1767578.1083984-.3720703.0224609-.5458984 0 0-.3496094-.7021484-.4160156-1.3789063l-.0429688-1.1582031c0-1.3974609-1.1152344-2.5556641-2.4707031-2.578125h-.0214844c-1.3535156.0224609-2.4707031 1.1806641-2.4707031 2.578125l-.0410156 1.1582031c-.0664063.6767578-.4160156 1.3789063-.4160156 1.3789063-.0214844.0429688-.0214844.0859375-.0449219.1083984.5253906.3066406 1.2451172.7197266 1.7929688 1.2236328.3291016-.1533203.5917969-.4580078.6777344-.8076172l.0429688-.1328125c.0439453-.1748047 0-.3486328-.1103516-.5019531-.1054688-.1308594-.28125-.2197266-.4589844-.2197266h-.5664063c.0869141-.2841797.1767578-.6318359.1972656-.9824219v-.0205078l.0439453-1.1806641v-.0234373c0-.7861328.6103516-1.4199219 1.3320313-1.4423828.7431641.0224609 1.3339844.65625 1.3339844 1.4423828v.0234375l.0419922 1.1806641v.0205078c.0224609.3505859.1103516.6982422.2001953.9824219h-.569336c-.1767578 0-.3515625.0888672-.4599609.2197266-.1103516.1308594-.1523438.3271484-.1103516.5019531l.0439453.1328125c.1103516.3691406.3710938.6992188.7441406.8505859l1.0917969.4599609c.3730469.1533203.6337891.5019531.65625.8740234v.0644531.2197266h-3.2333984v1.1132813h3.5625c.4570312-.0000001.8300781-.3916016.8300781-.8515626v-.5019531c0-.0439453 0-.0878906 0-.1308594-.0419922-.8105468-.5683594-1.5517578-1.3349609-1.8583984zm0 0"/></g></svg>