<svg enable-background="new 0 0 22 22" height="22" viewBox="0 0 22 22" width="22" xmlns="http://www.w3.org/2000/svg"><script xmlns="" type="text/javascript" charset="utf-8" id="zm-extension"/><g fill="#fff"><path d="m15.6142578 16.625c-.2285156 0-.3388672 0-.5615234 0-1.7988281-.1132813-3.9394531-.7861328-6.0771484-1.8007813-4.4990235-2.2490234-7.2011719-5.7353515-6.0771485-7.8745117.5644531-1.1254883 1.9179688-1.5751953 3.9375-1.4643555 1.7988281.1113281 3.9384766.7910156 6.0761719 1.7988281 4.5019531 2.25 7.2011719 5.7421875 6.0761719 7.8759766-.4511719.9023438-1.6865235 1.4648438-3.3740235 1.4648438zm-9.2294922-10.125c-1.2363281 0-2.1318359.3383789-2.3603516.9008789-.6728516 1.3486328 1.4628906 4.2719727 5.6240234 6.2993164 1.9160156 1.0136719 3.9375 1.5761719 5.6269531 1.6875 1.4628906.1123047 2.4765625-.2275391 2.8125-.9023438.6728516-1.3486328-1.4589844-4.2714844-5.6259766-6.2978516-1.9101563-1.0146484-3.9375-1.5771484-5.6259766-1.6875-.222656.0000001-.3330076.0000001-.4511717.0000001zm0 0"/><path d="m11.0029297 20c-2.3681641 0-4.2763672-3.9375-4.2763672-9s1.9082031-9 4.2763672-9c2.3603516 0 4.2724609 3.9375 4.2724609 9s-1.9121093 9-4.2724609 9zm0-16.8754883c-1.4658203 0-3.1513672 3.2626953-3.1513672 7.8754883 0 4.6103516 1.5751953 7.875 3.1513672 7.875 1.5703125 0 3.1455078-3.2646484 3.1455078-7.875 0-4.612793-1.6865234-7.8754883-3.1455078-7.8754883zm0 0"/><path d="m6.3847656 16.625c-1.6875 0-2.921875-.5625-3.375-1.4648438-1.125-2.1337891 1.5771484-5.5087891 6.0771484-7.8759766 2.0263672-1.0078125 4.1669922-1.6875 6.0761719-1.7988281 2.0273438-.1108398 3.3740235.4521485 3.9384766 1.4643555 1.1240234 2.1391602-1.5771484 5.5141602-6.0771484 7.8745117-2.0214844 1.0146484-4.1591797 1.6875-6.0761719 1.8007813-.2216797 0-.4453125 0-.5634766 0zm9.2294922-10.125c-.1123047 0-.3388672 0-.4511719 0-1.6875.1103516-3.5986328.6728516-5.6259766 1.6875-4.1591797 2.137207-6.2998047 5.0634766-5.6220703 6.2978516.3378907.6748047 1.4628907 1.0146484 2.9208985.9023437 1.6884766-.1113281 3.6044922-.6738281 5.6259766-1.6875 4.1669922-2.1381836 6.2988281-5.0629883 5.6259766-6.2993164-.3359376-.5625-1.2373048-.9008789-2.4736329-.9008789zm0 0"/><path d="m11.0029297 12.6865234c-.9296875 0-1.6884766-.7568359-1.6884766-1.6870117s.7587891-1.6875 1.6884766-1.6875 1.6865234.7573242 1.6865234 1.6875-.7568359 1.6870117-1.6865234 1.6870117zm0-2.25c-.3105469 0-.5625.2524414-.5625.5629883 0 .309082.2519531.5620117.5625.5620117.3095703 0 .5615234-.2529297.5615234-.5620117 0-.3105469-.2519531-.5629883-.5615234-.5629883z"/></g></svg>