<svg enable-background="new 0 0 22 22" height="22" viewBox="0 0 22 22" width="22" xmlns="http://www.w3.org/2000/svg"><script xmlns="" type="text/javascript" charset="utf-8" id="zm-extension"/><path d="m10.8803711 5h1.1196289v.2539063l0 0-.4174805-.2539063h.6674805c.1992188 0 .3837891.0600586.4765625-.1088867.2451172-.4228516.609375-1.1137695.609375-1.5620117 0-.584961-.3359375-.9179688-1.3359375-1.038086v-.7402343c0-.3046875-.1962891-.5507813-.5009766-.5507813s-.4990234.2460938-.4990234.5507813v.7480469c-1 .1308594-1.2431641.5439453-1.2431641 1.1132813 0 .4726563.4516602 1.1420898.6479492 1.4790039.0986329.1699218.2783204.1088866.475586.1088866zm.6884766-1.6455078.0214844.0019531c.3642578 0 .5795898.0732422.6694336.1220703-.0458984.1552734-.1757813.4482422-.3364258.7509766h-.7177734c-.1582031-.2978516-.2900391-.59375-.3398438-.7509766.0917969-.0488281.3105469-.1220703.671875-.1220703l.0224609-.0009766.0039063-.0791016z" fill="#fff"/><path d="m19 15.5371094v-.4833984c0-.3046875-.6953125-.5517578-1-.5517578-.3027344 0-1 .2470703-1 .5517578v.4833984c0 .2304688-.7929688.8085938-.7929688 1.4570313 0 .0429688.1064453.0869141.1103516.1298828l-.6591797-.1601563-.2871094-.4541016c.1943359-.2080078.3203125-.4794922.3515625-.8076172.0683594-.7402344-.4189453-1.2460938-.8427734-1.6259766.4199219.2324219.9980469.5029297 1.6855469.5029297.4755859 0 .9570313-.1298828 1.4257813-.3876953 2.4306641-1.3349609 2.6279297-5.4931641 2.1669922-7.9638672-.2958984-1.5888672-.7578125-1.828125-1.0800781-1.8710938-.0234375-.0039063-.0546875-.0048828-.0898438-.0048828-.1767578 0-.5078125.0683594-.7294922.5302734-.3623047.7470703-1.2333984 1.9912109-2.1689453 3.0966797-1.2783203 1.5068359-1.9238281 1.8876953-2.0107422 1.9072266-.0146484 0-.0634766-.0371094-.1113281-.1289063-.2558594-.4472656-.2255859-1.3525391-.0166016-1.6757813.1621094-.2548828.2958984-.3535156.3671875-.3603516.0751953 0 .2421875.0917969.4736328.3457031.1142578.1259766.2792969.1933594.4501953.1787109.1669922-.0126953.3232422-.1044922.4199219-.2441406.3691406-.5576172.4716797-1.1689453.2890625-1.7246094-.0761719-.231445-.2001953-.4404294-.3613281-.6083981.1513672-.4414063.1357422-.8007813-.0449219-1.0947266-.21875-.3496094-.6259766-.5263672-1.2148438-.5263672-.4179688 0-.8417969.0419922-1.1074219.3486328-.2685547.3076172-.2275391.6855469-.1738281 1.0546875-.6191406.3320313-1.1186523.8037109-1.4848633 1.40625-.3652344-.6025391-.8652344-1.0742188-1.4833984-1.40625.0517578-.3691406.0908203-.7470703-.1738281-1.0546875-.2646485-.3066406-.6875-.3486328-1.1064453-.3486328-.5908203 0-.9970703.1767578-1.2158203.5263672-.1826172.2988281-.1972657.6582031-.0449219 1.0957031-.1621094.1660156-.2841797.375-.3603516.6064453-.1865234.5566407-.0830078 1.1679688.2919922 1.725586.09375.1425781.2470703.2314453.4169922.2441406.1689453.0126953.3339844-.0537109.4462891-.1787109.2324219-.2539063.4023438-.34375.4833984-.34375.0703125.0048828.2070313.1191406.359375.3583984.2089844.3222656.2402344 1.2275391-.0146484 1.6757813-.0625.1074219-.0966797.1259766-.0908203.1289063-.1347657-.0283204-.7822266-.4326173-2.0292969-1.9072267-.9296875-1.0957031-1.8027344-2.3398437-2.1728516-3.0957031-.2207031-.4628906-.5527344-.53125-.7294922-.53125-.0341797 0-.0634766.0009766-.0878906.0048828-.3232422.0419922-.7880859.2822266-1.0820313 1.8710938-.3447266 1.8515625-.3193359 4.6513672.7353516 6.5-.1914063-.1513672-.4912109-.1572266-.6855469.0019531-.1152344.0908203-.1875.2226563-.2041016.3681641-.0166016.1464844.0244141.2910156.1152344.4052734.0332031.0390625.0458984.0898438.0419922.1435547-.0058594.0537109-.03125.0996094-.0742188.1308594-.0410156.0341797-.0908203.046875-.1416016.0410156-.0527344-.0048828-.0996094-.03125-.1318359-.0712891-.1806641-.2294922-.5429688-.2734375-.7744141-.0878906-.1171875.0917969-.1894531.2236328-.2060547.3701172-.0166016.1455078.0263672.2900391.1191406.4052734.3105469.390625.8251953.5761719 1.3291016.4492188l2.2148438 2.6083984c-.171875.1308594-.2548828.3486328-.2060547.5625.0566406.2519531.2773438.4287109.5371094.4287109.046875 0 .0869141-.0048828.1210938-.0136719l.3154297-.0732422.3935547.4628906c.1054688.1220703.2578125.1933594.4208984.1933594.1308594 0 .2558594-.046875.3554688-.1298828.2304687-.1992187.258789-.5478515.0634765-.7783202l-.0185547-.0214844.5830078-.1318359c.1367188-.0332031.2539063-.0751953.3320313-.1884766l.5791016-.8027344h.0175781c.4013672 0 .7597656-.1484375.8945313-.1972656.1982422-.0683594.3359375-.2636719.3623047-.4765625.0078125-.0927734.0761719-.3007813.1552734-.3505859.0322266-.0205078.0957031-.0253906.1738281-.0048828-.0166016.1142578-.1035156.3349609-.2607422.5283203-.1289063.1533203-.3115234.3144531-.5029297.4873047-.5302734.4736328-1.1933594 1.0644531-1.078125 1.9023438.1201172.8720703.9853516 1.0947266 1.6816406 1.2744141.4970703.1269531.7607422.2255859.7861328.2880859.0000001.3027343.2470704.548828.5498047.548828.3056641 0 .5522461-.2460938.5522461-.5458984.0273438-.0654297.2910156-.1640625.7841797-.2910156.6972656-.1787109 1.5644531-.4013672 1.6855469-1.2753906.1113281-.8378906-.5488281-1.4287109-1.0820313-1.9023438l-.0175781-.0166016c-.1845703-.1660156-.3623047-.3232422-.4833984-.4716797-.1591797-.1933594-.2421875-.4160156-.2626953-.53125.0791016-.0205078.1416016-.0224609.1728516-.0009766.0830078.0517578.1494141.2539063.1601563.3427734.0224609.2099609.1630859.4257813.3583984.4951172.102539.0371095.4746093.1972657.9003906.1972657h.0126953l.5810547.8037109c.0791016.1152344.1953125.1738281.3339844.2060547l2.1074219.46875c.046875.0117188.1074219.0117188.1445313.0087891.1445313.046875.3007813.0683594.4648438.0683594.8603516 0 1.7978516-.7011719 1.7978516-1.5605469-.0039065-.6494141-.7744143-1.2285156-.7744143-1.4580078zm-1.0234375 1.9160156c-.2519531 0-.4580078-.2060547-.4580078-.4589844 0-.2519531.2060547-.4560547.4580078-.4560547.2529297 0 .4580078.2041016.4580078.4560547 0 .2529297-.2050781.4589844-.4580078.4589844zm-13.9780273-4.2753906c.3085938.4160156.6835938.7646484 1.1367188 1.0136719.4707031.2578125.9492188.3876953 1.4238281.3876953.6894531 0 1.265625-.2714844 1.6865234-.5039063-.4257813.3769531-.9228516.8837891-.8525391 1.6269531.0302734.3271484.1435547.5996094.3378906.8076172l-.3144531.4541016-.9316406.2099609-2.5361328-2.9863281c.0634766-.1347656.1044922-.2744141.1210938-.4160156.0224609-.2041016-.0029298-.40625-.0712891-.59375zm7.6777343 2.4277344c-.1474609.5244141.1347656 1.1796875.4770508 1.5947266.1777344.2167969.4013672.4150391.625.6123047.3496094.3154297.7470703.6728516.7099609.9267578-.015625.1367188-.5859375.2861328-.8642578.3574219-.3681641.09375-.7514648.2011719-1.0600586.3964844-.3291016-.2089844-.75-.3173828-1.0693359-.3984375-.2734375-.0712892-.8388672-.2197267-.8583984-.3554689-.0341797-.2558594.3662109-.6142578.7207031-.9316406.2041016-.1806641.4335938-.3857422.6191406-.6074219.34375-.4169922.6230469-1.0712891.4755859-1.59375-.0839844-.3154297-.3056641-.5507813-.6230469-.6611328-.1894531-.0644531-.3710938-.0996094-.546875-.0996094-.3017578 0-.5224609.1005859-.6533203.1855469-.3212891.203125-.4912109.5214844-.5751953.7685547-.2197266.0351563-.4169922.0263672-.4951172-.0205078-.0126953-.0107422-.0527344-.0400391-.0654297-.1806641-.0234375-.2363281.2490234-.4941406.6142578-.8125.3632813-.3193359.7392578-.6484375.7470703-1.1396484.0029297-.2851563-.1230469-.5458984-.3779297-.7753906-.1689453-.1542969-.3662109-.2333984-.5839844-.2333984-.3505859 0-.6914063.1953125-.9941406.3681641-.40625.2314453-.8251953.4716797-1.3300781.4716797-.296875 0-.5917969-.0830078-.8984375-.2529297-1.0644531-.5830078-1.4941406-2.0107422-1.6650391-3.1064453-.2666016-1.703125-.0625-3.3789063.1640625-4.2167969.4902345.8349608 1.2617189 1.8964843 2.0878908 2.8642577 1.8818359 2.203125 2.5224609 2.234375 2.765625 2.234375h.03125c.4414063 0 .8193359-.2519531 1.0683594-.6923828.4394531-.7744141.4316406-2.1210938-.0166016-2.8183594-.350586-.5429687-.7402344-.8261719-1.194336-.8642578-.2412109-.0175781-.4794922.0273438-.7148437.1523438.0048828-.0546875.0136719-.1069336.0273437-.1557618.046875-.1386719.1347656-.2250977.1826172-.2416992.1494141-.0546875.2666016-.1650391.3242188-.3134766.0615234-.1464843.0546875-.3105468-.0166016-.4501953-.1191406-.243164-.1572266-.3779296-.1679687-.4453125.0439453-.0117187.1230468-.0234375.2548828-.0234375.0888672 0 .1572266.0029297.2070313.0078125-.0078125.0644531-.0205078.140625-.0302734.2099609l-.0029298.0263673c-.0146484.0966797-.0273438.203125-.0439453.3193359-.0263672.2451172.1103515.4814453.3398437.5751953.9033203.3720703 1.4882813 1.1791992 1.7373047 2.190918.0615235.2451172.28125.5229492.53125.5229492h.0234375.0244141c.2519531 0 .4702148-.277832.534668-.5229492.2529297-1.0126953.8388672-1.7661133 1.7382813-2.137207.2275391-.09375.3681641-.3569336.3369141-.6147461-.015625-.1171875-.0302734-.2382813-.0429688-.3339844l-.0087891-.0629883c-.0068359-.0566406-.015625-.1176758-.0214844-.1704102.0576172-.0048828.1279297-.0087891.2070313-.0087891.1318359 0 .2099609.0112305.2539063.0229492-.0117188.0654297-.046875.1987305-.1689453.4448242-.0703125.140625-.0751953.3041992-.0166016.4477539.0566406.1455078.1757813.2597656.3251953.3154297.046875.0166016.1347656.1025391.1806641.2412109.0117188.0371094.0253906.0888672.0283203.1552734-.2304688-.1230469-.4726563-.1738281-.7119141-.1533203-.4570313.0380859-.8486328.3193359-1.1972656.8623047-.4482422.6962891-.4550781 2.0458984-.0166016 2.8222656.2490234.4404299.6269531.692383 1.0654296.692383h.0341797c.2421875 0 .8847656-.03125 2.7646484-2.234375.8300781-.9697266 1.5996094-2.0273438 2.0888672-2.8603516.2255859.8349609.4316406 2.5068359.1669922 4.2148438-.1728516 1.09375-.6025391 2.5205078-1.6650391 3.1054688-.3085938.1699219-.6005859.2529297-.8974609.2529297-.5058594 0-.9257813-.2412109-1.3330078-.4736328-.3017578-.1728516-.6445313-.3671875-.9951172-.3671875-.2177734 0-.4150391.0791016-.5849609.2333984-.2529297.2294922-.3798828.4892578-.3779297.7753906.0068359.4912109.3847656.8203125.7539063 1.1445313.359375.3125.6318359.5693359.609375.8095703-.0126953.1396484-.0527344.1679688-.0664063.1787109-.0791016.046875-.2773438.0556641-.4912109.0205078-.0898438-.2480469-.2578125-.5664063-.5761719-.7675781-.1318359-.0849609-.3544922-.1855469-.65625-.1855469-.1757813 0-.3583984.0341797-.5449219.0986328-.3149414.109375-.5375976.34375-.6254883.6601563zm-2.625-10.2026368-.0019531-.0004882.0019531-.0004883z" fill="#fff"/></svg>