<svg enable-background="new 0 0 22 22" height="22" viewBox="0 0 22 22" width="22" xmlns="http://www.w3.org/2000/svg"><script xmlns="" type="text/javascript" charset="utf-8" id="zm-extension"/><path d="m19.1123047 13.5146484c.0693359-.2333984.1318359-.4697266.1826172-.7109375.0253906-.1162109.0439453-.2353516.0644531-.3525391.0273438-.1679688.0585938-.3339844.0771484-.5039063.0351563-.3134766.0566406-.6298828.0566406-.9521484.0000001-4.6845702-3.8085937-8.4951171-8.4921874-8.4951171s-8.4941406 3.8105469-8.4941406 8.4951172c0 4.671875 3.7924805 8.4726563 8.4609375 8.4912109.0019531 0 .0039063.0019531.0058594.0019531.1523437.0078126.3017577.0117188.4492187.0117188 1.6806641 0 3.1425781-.4990234 4.5068359-1.5439453 1.5097656-1.0605469 2.6298828-2.6123047 3.1796875-4.4345703.0009766-.0019531.0019531-.0048828.0029297-.006836zm-.7851563-1.8740234c-.0263672.3261719-.0800781.6425781-.1464844.9541016-.0332031.1484375-.0712891.2939453-.1132813.4394531-.0380859.1347656-.0849609.265625-.1298828.3974609-.3144531.8935547-.7949219 1.7070313-1.40625 2.4052734l-4.1845703-4.2753906h5.9853516c-.0019531.0263672-.0019531.0527344-.0048828.0791016zm-1.6367187-1.2109375 1.4091797-1.3466797c.1171875.4345703.1962891.8842773.2324219 1.3466797zm-1.5703125 0h-1.6142578l3.6083984-3.5273438c.2304688.3427734.4277344.7075195.5986328 1.0874023zm-1.8701172 7.5722656c-.0742188.0234375-.1494141.0439453-.2255859.0644531-.1738281.0507813-.3496094.0996094-.5292969.1367188-.2744141.0546875-.5546875.0957031-.840332.1201172-.0288086.0029297-.059082.0019531-.0883789.0048828v-5.9453125l4.1591797 4.2490234c-.7216797.6064454-1.5595704 1.0751954-2.475586 1.3701172zm-1.6835937-12.0976562 1.9228516-1.8291016c.4804688.1733398.9375.3945313 1.3652344.659668l-3.2880859 2.8764648v-1.7070312zm0-1.5634766v-.6791992c.2617188.0200195.5195313.0522461.7724609.0991211zm4.8984375 1.7392578-4.5302734 4.3496094h-.3681641v-1.3540039l4.0976563-3.7714844c.2880858.2363281.5517577.4990235.8007812.7758789zm-12.8251954 4.9150391c0-3.8681641 2.9985352-7.0419922 6.7939453-7.3334961v14.6665039c-3.7954101-.2919922-6.7939453-3.4648437-6.7939453-7.3330078z" fill="#fff"/></svg>