<svg enable-background="new 0 0 22 22" height="22" viewBox="0 0 22 22" width="22" xmlns="http://www.w3.org/2000/svg"><script xmlns="" type="text/javascript" charset="utf-8" id="zm-extension"/><g fill="#fff"><path d="m15.2460938.5h-8.4975586c-1.3427734 0-2.4296875 1.0888672-2.4296875 2.4355469v16.1259766c0 1.3515624 1.086914 2.4384765 2.4296875 2.4384765h8.4975586c1.3417969 0 2.4355469-1.0869141 2.4355469-2.4384766v-16.1259765c-.0000001-1.3466797-1.0937501-2.4355469-2.4355469-2.4355469zm1.4785156 18.5615234c0 .8261719-.6640625 1.4833984-1.4785156 1.4833984h-8.4975586c-.8154297 0-1.4765625-.6572266-1.4765625-1.4833984v-16.1259765c0-.8193359.6611328-1.4824219 1.4765625-1.4824219h8.4975586c.8144531 0 1.4785156.6630859 1.4785156 1.4824219zm0 0"/><path d="m10.9985352 18.1582031c-.8496094 0-1.2773438 1.03125-.6748047 1.6318359.6035156.6005859 1.6289063.1728516 1.6289063-.6777344-.0000001-.5263671-.4277345-.9541015-.9541016-.9541015zm0 0"/><path d="m15.2949219 4.3183594h-8.5913086c-.2626953 0-.4765625.2119141-.4765625.4785156v12.40625c0 .2666016.2138672.4785156.4765625.4785156h8.5913086c.2617188 0 .4765625-.2119141.4765625-.4785156v-12.40625c0-.2666016-.2148438-.4785156-.4765625-.4785156zm-.4785156 12.4101562h-7.6362305v-11.4541015h7.6362305zm0 0"/><path d="m10.0454102 3.3632813h1.9072266c.637207 0 .637207-.9550781 0-.9550781h-1.9072266c-.6367188-.0000001-.6367188.9550781 0 .9550781zm0 0"/></g></svg>