<svg enable-background="new 0 0 22 22" height="22" viewBox="0 0 22 22" width="22" xmlns="http://www.w3.org/2000/svg"><script xmlns="" type="text/javascript" charset="utf-8" id="zm-extension"/><path d="m16.1679688 4.2431641c-.0175782-.0175782-.0429688-.0371094-.0996094-.0791016-1.3691406-1.015625-2.9960938-1.5898438-4.7104492-1.6630859l-.3574219-.0009766c-2.2695313 0-4.40625.8867188-6.0205078 2.5029297-.0175782.0185547-.0419922.0449219-.0683594.0869141-1.5625 1.5722656-2.421875 3.6660156-2.421875 5.9013672 0 4.6914063 3.8173828 8.5087891 8.5107422 8.5087891 3.8120117 0 7.175293-2.5625 8.1967773-6.2382813.0273438-.0517578.0351563-.1025391.0371094-.140625.1835938-.671875.2753906-1.3896484.2753906-2.1298828 0-2.6777344-1.2265625-5.1455079-3.3417968-6.7480469zm1.0800781 4.9882812-2.2050781-.5429688-.3632813-.7128906 1.0136719-1.5351563c.0507813-.0527344.0664063-.1005859.046875-.0888672l.2792969-.78125c1.5292969 1.3896484 2.3984375 3.3457031 2.3984375 5.4208984 0 .2070313-.0078125.40625-.0234375.6015625l-.1582031-.2333984-.5996094-1.7832031c-.0761719-.1923827-.2304688-.3222655-.3886719-.3447265zm-6.2885742-5.6582031.6845703 1.3720703-.375 1.9003906c-.2050781-.1162109-.4794922-.0810547-.6611328.0957031l-1.2314454 1.2324219c-.1425781.1425782-.1953125.3671875-.1318359.5605469l.4853516 1.4667969c-.0820313-.0380859-.1748047-.0595703-.2734375-.0595703l-3.1396484.2861328-1.4365234-1.4375.9345703-3.3066406c1.4111327-1.3525391 3.2343749-2.0996094 5.1445312-2.1103516zm-.678711 7.3642578 1.703125.2832031.7172852.5488281-.6503906 1.0859375c-.0195313.0253906-.0332031.0517578-.0429688.0722656l-.6030273 2.0976563-.7197266.8671875-.3701172-1.9707031c-.0244141-.0996094-.0839844-.2382813-.2001953-.3154297l-1.0039063-.7548828v-.4882813l.850586-1.3945312c.0263672-.046875.046875-.0966797.0585938-.1503906.071289.0605469.1621093.1015625.2607421.1191406zm-4.1503906.5888672h.0039063l2.2978516-.2128906-.3564453.5947266c-.0732422.1142578-.0732422.2275391-.0732422.2958984v.9169922c0 .1914063.0888672.3544922.2246094.4335938l1.0644531.7910156.5703125 2.84375c.0341797.1914063.1826172.3574219.4189453.4326172l.1132813.0224609c.1748047 0 .3359375-.0800781.4238281-.1982422l1.5258789-1.8349609.0390625-.0585938c.0195313-.03125.0585938-.0869141.0683594-.1630859l.5898438-2.0615234.8886719-1.4619141c.140625-.2460938.078125-.5644531-.1386719-.7197266l-1.2011719-.8925781c-.0761719-.0810547-.2109375-.1289063-.2636719-.1269531l-1.512207-.25-.4003906-1.2070313.6044922-.6054688.2363281.2373047c.1425781.1376953.3808594.1835938.5576172.1269531.1757813-.0576172.3110352-.1972656.3813477-.4238281l.5683594-3.0185547c.0292969-.1259766.0019531-.2255859-.0136719-.2998047l-.4941406-.9941406c1.03125.1777344 2.0136719.5722656 2.8691406 1.1494141l-.3378906 1.0087891-1.1855469 1.7841797c-.1015625.1806641-.109375.3740234-.0253906.5439453l.609375 1.2324219c.0761716.1513671.2128904.2607421.3613279.2910155l2.1464844.5195313.5019531 1.5195313c.0136719.0800781.0546875.1455078.0703125.1552734l.8222656 1.2304688c-.9238281 3.1152344-3.8222656 5.28125-7.0854492 5.28125-4.0917969 0-7.4189453-3.3271484-7.4189453-7.4169922 0-.5478516.0585938-1.0878906.1757813-1.6132813.0273437.0546875.064453.1044922.1083984.1494141l1.8349609 1.8339844c.0996094.1035156.2529297.165039.4296875.165039z" fill="#fff"/></svg>