<svg version="1" xmlns="http://www.w3.org/2000/svg" viewBox="0 0 22 22" enable-background="new 0 0 22 22"><script xmlns="" type="text/javascript" charset="utf-8" id="zm-extension"/><style type="text/css">.st0{fill:#FFFFFF;}</style><path class="st0" d="M15.651 7.944c-.673-3.502-2.474-5.955-4.651-5.955-1.474 0-2.803 1.105-3.729 3.061l-.696-1.529c-.115-.252-.413-.365-.662-.248-.251.115-.362.411-.248.662l1.171 2.572c.084.185.266.293.456.293l.207-.045 2.572-1.171c.251-.115.362-.411.248-.662-.115-.252-.413-.365-.662-.248l-1.392.634c.739-1.463 1.723-2.318 2.737-2.318 1.567 0 2.953 1.98 3.581 4.75-1.146-.186-2.372-.285-3.581-.285-4.368 0-9.011 1.243-9.011 3.546 0 1.462 1.874 2.495 4.359 3.056.673 3.503 2.474 5.955 4.652 5.955 2.77 0 4.938-3.958 4.938-9.011 0-.686-.043-1.349-.119-1.987 1.963.503 3.191 1.269 3.191 1.987 0 .576-.861 1.232-2.249 1.714-.261.091-.398.376-.309.637.091.261.375.397.637.309 1.884-.654 2.921-1.599 2.921-2.659 0-1.463-1.874-2.496-4.359-3.056l-.002-.002zm-.713 3.056c0 4.342-1.804 8.011-3.938 8.011-1.568 0-2.953-1.981-3.581-4.75 1.146.186 2.373.285 3.581.285l.508-.016-1.086 1.206c-.185.206-.168.521.037.706.096.087.215.129.334.129.137 0 .273-.056.372-.165l1.89-2.1c.186-.206.169-.521-.036-.706l-2.101-1.892c-.205-.185-.521-.169-.706.037-.185.205-.168.521.037.706l1.199 1.081-.448.014c-1.386 0-2.664-.124-3.776-.329-.104-.708-.163-1.451-.163-2.217 0-.267.007-.53.02-.79.014-.276-.199-.51-.475-.524-.277-.018-.511.199-.524.475-.014.276-.021.556-.021.839 0 .686.043 1.349.119 1.987-1.962-.503-3.191-1.269-3.191-1.987 0-1.202 3.426-2.546 8.011-2.546 1.386 0 2.664.124 3.775.329.104.708.163 1.451.163 2.217z"/></svg>