<svg version="1" xmlns="http://www.w3.org/2000/svg" viewBox="0 0 22 22" enable-background="new 0 0 22 22"><script xmlns="" type="text/javascript" charset="utf-8" id="zm-extension"/><style type="text/css">.st0{fill:#FFFFFF;}</style><path class="st0" d="M20.95 8.072v-.183c0-.387-.171-.614-.315-.736-.328-.279-.751-.228-.861-.208l-1.183.264-.124.014c-.698-1.508-1.348-2.845-1.353-2.855-.413-.797-.991-1.185-1.767-1.185l-.642-.033c-.955-.052-2.733-.15-3.707-.15s-2.802.098-3.784.15l-.658.033c-.778 0-1.356.388-1.783 1.219-.006.015-.581 1.362-1.26 2.782l-.046-.018-1.272-.318c-.078-.014-.479-.061-.805.217-.156.133-.342.384-.342.825l.003.126c-.006.052-.049.524.3.916.273.307.686.463 1.227.464-.374.873-.869 2.089-.869 2.335v3.019c0 .065.009.612.283 1.138v1.789c0 .532.36 1.323 1.351 1.323h1.89c.543 0 1.351-.353 1.351-1.323v-.663l2.997.156 2.767-.001 2.971-.155v.663c0 .971.808 1.323 1.351 1.323h1.89c.991 0 1.351-.791 1.351-1.323v-1.789c.275-.525.284-1.072.284-1.138v-3.019c0-.099 0-.345-.938-2.337.668-.046 1.151-.247 1.438-.596.291-.354.261-.72.256-.726h-.001zm-1.729.323h-1.552l.346.717c.8 1.66 1.15 2.523 1.179 2.618v3.016c0 .004-.007.42-.209.745l-.075.121v2.063c0 .147-.061.323-.351.323h-1.89c-.131 0-.351-.042-.351-.323v-1.716l-3.997.209-2.715.001-4.023-.21v1.716c0 .077 0 .313-.351.323h-1.89c-.093 0-.339 0-.351-.323v-2.063l-.075-.121c-.201-.324-.208-.74-.208-.742l-.009-2.93c.035-.146.447-1.277 1.099-2.718l.319-.706h-1.531c-.232 0-.409-.045-.485-.125-.06-.063-.057-.152-.055-.198l-.05-.246 1.088.263c.271.117.524.117.73.117h.313l.137-.281c.749-1.54 1.414-3.1 1.413-3.1.276-.535.551-.644.879-.644l.711-.035c.973-.052 2.784-.148 3.731-.148.946 0 2.706.097 3.652.148l.695.035c.337 0 .602.108.874.633 0 .001.754 1.551 1.507 3.191l.134.292h.32c.108 0 .204-.027.296-.053l.177-.039 1.294-.347.002.03.002.212c-.007.094-.22.257-.73.294v.001zm-12.643 4.047l-1.863-.565c-.079-.012-.773-.109-1.245.328-.198.185-.424.528-.375 1.08v.183c0 .616.48 1.781 2.296 1.781h2.363c.483 0 .973-.298.973-.866v-.366c0-.241-.157-1.068-2.149-1.575zm1.149 1.807h-2.335c-1.204 0-1.291-.658-1.296-.781l-.002-.226c-.007-.087-.01-.241.056-.304.086-.081.31-.088.339-.09l1.818.556c1.202.306 1.405.66 1.419.621v.224h.001zm9.455-2.356l-1.772.543c-2.016.513-2.172 1.34-2.172 1.581v.366c0 .568.489.866.972.866h2.363c1.816 0 2.296-1.165 2.296-1.781l-.002-.14c.052-.595-.174-.938-.372-1.123-.473-.438-1.168-.341-1.312-.313l-.001.001zm.632 1.046c.066.062.064.217.055.347v.174c-.005.132-.092.79-1.296.79l-2.341-.013-.005-.134c.002-.004.165-.376 1.452-.704l1.729-.534c.08-.01.316-.009.405.074h.001zm-.468-4.262c-.092-.261-.374-.396-.637-.308-.019.006-1.87.633-5.726.633-3.862 0-5.799-.629-5.818-.635-.258-.085-.544.054-.632.315-.087.262.053.544.314.632.083.028 2.088.688 6.137.688 4.052 0 5.977-.661 6.057-.689.26-.092.396-.376.306-.636h-.001z"/></svg>