<?xml version="1.0" encoding="UTF-8"?>
<svg version="1.1" id="Layer_1" xmlns="http://www.w3.org/2000/svg" xmlns:xlink="http://www.w3.org/1999/xlink" x="0px" y="0px" viewBox="0 0 22 22" style="enable-background:new 0 0 22 22;" xml:space="preserve"><script xmlns="" type="text/javascript" charset="utf-8" id="zm-extension"/>
<style type="text/css">
	.st0{fill:#FFFFFF;}
</style>
<path class="st0" d="M12.5,21.7c-0.3,0-0.6-0.2-0.7-0.6c-0.1-0.4,0.2-0.8,0.6-0.9c2.2-0.5,3.9-2.4,4.5-3.9c0.7-1.7,0.5-3.3,0.4-4.7  l0-0.3c-0.1-0.7,0-1.4,0.1-2c-0.2,0.2-0.4,0.5-0.6,0.8c-0.3,0.5-0.5,1.4-0.6,1.7c-0.1,0.4-0.4,0.7-0.8,0.6c-0.4-0.1-0.7-0.4-0.6-0.8  c0,0,0.1-0.9-0.5-2.5c-0.3-0.8-0.6-1.4-0.8-1.9c-0.3-0.6-0.6-1.2-0.8-1.9c-0.3-0.9-0.2-1.8,0-2.6c-1.3,0.5-3.1,1.6-4.1,3.6  c-1.5,2.8-1,4.6-1,4.6c0.1,0.3,0,0.7-0.3,0.9c-0.3,0.2-0.7,0.2-0.9-0.1c0,0-0.8-0.8-1.3-1.9c0,0,0,0,0,0C4.4,11,3.8,12.9,4.6,15  c0.9,2.6,2.5,4.4,4.7,5.1c0.4,0.1,0.6,0.6,0.5,1c-0.1,0.4-0.6,0.6-1,0.5c-2.6-0.9-4.5-3-5.6-6c-1.6-4.5,1.6-8,1.7-8.1  C5,7.1,5.4,7,5.7,7.1C6,7.3,6.2,7.6,6.1,7.9c0,0,0,0.1,0,0.2c0.2-0.7,0.5-1.5,1-2.4c2-3.9,6.4-4.8,6.6-4.8c0.3-0.1,0.6,0.1,0.8,0.3  c0.2,0.2,0.2,0.6,0,0.8c0,0-0.9,1.5-0.5,3c0.2,0.6,0.4,1.1,0.7,1.7c0.3,0.5,0.6,1.2,0.9,2.1c0.1,0.1,0.1,0.3,0.1,0.4  c1.2-1.6,2.6-2,2.6-2.1c0.3-0.1,0.6,0,0.8,0.2c0.2,0.2,0.2,0.5,0.1,0.8c0,0-0.6,1.4-0.5,3.3l0,0.3c0.1,1.5,0.3,3.3-0.5,5.4  c-0.8,1.9-2.8,4.1-5.5,4.8C12.6,21.7,12.6,21.7,12.5,21.7z"/>
</svg>