<?xml version="1.0" encoding="UTF-8"?>
<svg version="1.1" id="Layer_1" xmlns="http://www.w3.org/2000/svg" xmlns:xlink="http://www.w3.org/1999/xlink" x="0px" y="0px" viewBox="0 0 22 22" style="enable-background:new 0 0 22 22;" xml:space="preserve"><script xmlns="" type="text/javascript" charset="utf-8" id="zm-extension"/>
<style type="text/css">
	.st0{fill-rule:evenodd;clip-rule:evenodd;fill:#FFFFFF;}
</style>
<g>
	<g>
		<path class="st0" d="M21.2,6.5c-0.1-0.2-3-3.8-3.2-4s-0.3-0.2-0.5-0.2c-0.2,0-2.8-0.3-3.1-0.4c-0.2,0-0.4,0-0.6,0H8.2    c-0.3,0-0.3,0-0.5,0c-0.1,0-3.1,0.4-3.3,0.4C4.1,2.4,4.1,2.4,4,2.5s-3,3.7-3.2,4c-0.2,0.3-0.2,0.6,0,0.9C1,7.5,10.4,20,10.6,20.2    c0.2,0.3,0.6,0.2,0.8,0c0.1-0.1,9.5-12.6,9.8-12.9C21.4,7,21.3,6.7,21.2,6.5z M17.3,3.3l2.4,2.9h-4.6L14.3,3L17.3,3.3z M8.9,2.9    h4.3L14,6.3H8.1L8.9,2.9z M4.7,3.3L7.7,3L6.9,6.3H2.4L4.7,3.3z M2.2,7.3h4.9l2.6,10L2.2,7.3z M11,17.7L8.3,7.4h5.4L11,17.7z     M12.3,17.3l2.6-10h4.9L12.3,17.3z"/>
	</g>
</g>
</svg>