<svg enable-background="new 0 0 22 22" height="22" viewBox="0 0 22 22" width="22" xmlns="http://www.w3.org/2000/svg"><script xmlns="" type="text/javascript" charset="utf-8" id="zm-extension"/><path d="m17.2207031 3.6132813c-.1269531-.1025391-.2949218-.1367188-.4589843-.0976563l-8.5698243 2.1435547c-.2402343.0576172-.4072265.2734375-.4072265.5185547v3.7373047.0244141 4.5722656c-.3164063-.1845703-.6796875-.2978516-1.0712891-.2978516-1.1816406 0-2.1425781.9609375-2.1425781 2.1435547 0 1.1816406.9609375 2.1425781 2.1425781 2.1425781s2.1425781-.9609375 2.1425781-2.1425781v-6.0107422l7.4995117-1.875v3.8964844c-.3164063-.1845703-.6777344-.2978516-1.0703125-.2978516-1.1816406 0-2.1425781.9609375-2.1425781 2.1435547 0 1.1816406.9609375 2.1435547 2.1425781 2.1435547s2.1445313-.9619141 2.1445313-2.1435547v-6.4179688c0-.0068359 0-.0146484 0-.0224609v-3.7382812c0-.1640625-.0761719-.3212891-.2089844-.421875zm-10.5073242 13.8154296c-.5888672 0-1.0712891-.4814453-1.0712891-1.0712891 0-.5908203.4824219-1.0722656 1.0712891-1.0722656.5898438 0 1.0712891.4814453 1.0712891 1.0722656 0 .5898438-.4814453 1.0712891-1.0712891 1.0712891zm2.1425781-8.1875v-2.6445312l7.4995117-1.875v2.6445313zm6.4291993 6.0439454c-.5898438 0-1.0703125-.4804688-1.0703125-1.0712891s.4804688-1.0712891 1.0703125-1.0712891c.5917969 0 1.0703125.4804688 1.0703125 1.0712891s-.4785157 1.0712891-1.0703125 1.0712891z" fill="#fff"/></svg>