<svg enable-background="new 0 0 22 22" height="22" viewBox="0 0 22 22" width="22" xmlns="http://www.w3.org/2000/svg"><script xmlns="" type="text/javascript" charset="utf-8" id="zm-extension"/><path d="m21.8613281 10.6513672c-.1982422-.2099609-4.9160156-5.1396484-10.8613281-5.1396484-5.9462891 0-10.6640625 4.9296875-10.8613281 5.1396484-.1845703.1953125-.1845703.5009766 0 .6972656.1972656.209961 4.915039 5.1396485 10.8613281 5.1396485 5.9453125 0 10.6630859-4.9296875 10.8613281-5.1396484.1845703-.1962891.1845703-.5019532 0-.6972657zm-10.836914 4.7851562c-2.4453125 0-4.4355469-1.9902344-4.4355469-4.4365234 0-2.4472656 1.9902344-4.4375 4.4355469-4.4375 2.4462891 0 4.4365234 1.9902344 4.4365234 4.4375.0019531 2.4462891-1.9902344 4.4365234-4.4365234 4.4365234zm-3.9931641-8.133789c-.8984375.9716797-1.4511719 2.2714844-1.4511719 3.6972656s.5527344 2.7255859 1.4511719 3.6962891c-2.8007812-1.0615235-4.9736328-2.9248047-5.796875-3.6962891.8232422-.7714844 2.9960938-2.6357422 5.796875-3.6972656zm8.0146484 7.3652344c.8837891-.96875 1.4248047-2.2558594 1.4248047-3.6679688s-.5400391-2.7001953-1.4248047-3.6679688c2.7646485 1.0664063 4.9052735 2.9033204 5.7197266 3.6679688-.8144531.7646484-2.9550781 2.6005859-5.7197266 3.6679688zm0 0" fill="#fff"/><path d="m11.2041016 8.0380859c-1.7558594 0-3.1826172 1.4267578-3.1826172 3.1816406 0 .2802734.2285156.5078125.5087891.5078125s.5078124-.227539.5078124-.5078124c0-1.1943359.9716797-2.1660156 2.1660156-2.1660156.2802734 0 .5078125-.2265625.5078125-.5078125.0000001-.2802735-.227539-.5078126-.5078124-.5078126zm0 0" fill="#fff"/></svg>