<svg enable-background="new 0 0 29 21" height="21" viewBox="0 0 29 21" width="29" xmlns="http://www.w3.org/2000/svg"><script xmlns="" type="text/javascript" charset="utf-8" id="zm-extension"/><g fill="#fff"><path d="m24.3330078 8.378418c-.1660156-.0664063-.3662109 0-.4326172.2001953-.0673828.1665039 0 .3666992.1992188.4331055 2.7001953 1.0664063 4.2333984 2.5673828 4.2333984 4.0664063 0 2.7666016-5.0664063 5.2001953-11.7666016 5.6005859-.2001953 0-.3330078.1669922-.2998047.3662109 0 .1669922.1669922.3007813.3330078.3007813h.0332031c7.1669923-.4667969 12.3671876-3.100586 12.3671876-6.2675782 0-1.8330078-1.6337891-3.4995117-4.6669922-4.699707z"/><path d="m11.3334961 17.1455078c-.1333008-.1337891-.3666992-.1005859-.4667969.0332031-.1000977.1328125-.1000977.3662109.0332031.4667969l1.1669922 1c-6.4335938-.4667969-11.4003906-2.8671875-11.4003906-5.6005859 0-1.6328125 1.800293-3.2329102 4.9335938-4.3330078.1665039-.0664063.2666016-.2666016.199707-.4335938-.0664063-.1665039-.2666016-.2666016-.4331055-.199707-3.4331054 1.2333984-5.3666992 3.0336914-5.3666992 4.9663086 0 3.1669922 5.0668945 5.7666016 12.1333008 6.2666016l-1.2333984 1.0341797c-.1333008.1328125-.1665039.3330078-.0332031.4667969.0668945.0654297.1669922.1328125.2666016.1328125.0668945 0 .1665039-.0332031.2001953-.0673828l1.8999023-1.5996094c.0664063-.0664063.1333008-.1660156.1333008-.2666016 0-.0996094-.0336914-.2001953-.1333008-.2666016z"/><path d="m14.6411133 0-6.8901367 3.4453125 6.8320312 3.40625 6.788086-3.4868164z"/><path d="m6.9936523 13.375 7.0590821 3.5302734v-9.125l-7.0590821-3.5205078z"/><path d="m19.7080078 8.9707031-.234375.1147461.0146484 2.3686523.2431641-.1191406c.4453125-.21875.7412109-.609375.7353516-1.5678711-.0058594-.9677734-.3261719-1.008789-.7587891-.7963867z"/><path d="m15.1201172 7.7758789v9.184082l7.1679687-3.5849609v-9.2822266zm2.0263672 5.5385742c-.4599609.2255859-.8066406.1962891-1.046875-.0195313l.3789063-.6201172c.2041016.1347656.3847656.1513672.6240234.0341797.2783203-.1367188.4707031-.4189453.46875-.7412109-.0029297-.3701172-.1777344-.4208984-.4990234-.2636719l-.2509766.1230469.0732422-.6025391.1748047-.0859375c.2705078-.1328125.4365234-.3828125.4345703-.6738281-.0019531-.2548828-.1601563-.3291016-.4072266-.2070313-.2255859.1103516-.4140625.3076172-.59375.5986328l-.3525391-.2695313c.28125-.4511719.6181641-.7792969 1.0234375-.9780273.6572266-.3227539 1.015625-.0952148 1.0185547.3979492.0019531.4277344-.2177734.8222656-.5908203 1.1308594.3789063-.1396484.6953125-.0341797.6992188.5244141.0029296.5869141-.4033204 1.2832032-1.1542969 1.6523438zm2.5439453-1.3388672-.9365234.4589844-.022461-3.6064453.8691406-.4267578c.8320313-.4086914 1.6220703-.4980469 1.6318359.9897461.0087891 1.4526367-.7451171 2.1928711-1.5419921 2.5844726z"/></g></svg>