<svg enable-background="new 0 0 30 30" height="30" viewBox="0 0 30 30" width="30" xmlns="http://www.w3.org/2000/svg"><script xmlns="" type="text/javascript" charset="utf-8" id="zm-extension"/><circle cx="15" cy="15" fill="#231f20" r="15"/><path d="m15 27.5c-6.8925781 0-12.5-5.6074219-12.5-12.5s5.6074219-12.5 12.5-12.5 12.5 5.6074219 12.5 12.5-5.6074219 12.5-12.5 12.5zm0-23c-5.7895508 0-10.5 4.7104492-10.5 10.5s4.7104492 10.5 10.5 10.5 10.5-4.7104492 10.5-10.5-4.7104492-10.5-10.5-10.5z" fill="#fff"/><path d="m13.5 21c-.2558594 0-.5117188-.0976563-.7070313-.2929688-.390625-.390625-.390625-1.0234375 0-1.4140625l4.2934571-4.2929687-4.293457-4.2929688c-.390625-.390625-.390625-1.0234375 0-1.4140625s1.0234375-.390625 1.4140625 0l5.0004883 5c .1875.1875.2929688.4418945.2929688.7070313s-.1054688.5195313-.2929688.7070313l-5.0004883 5c-.1953125.1953125-.4511719.2929687-.7070313.2929687z" fill="#fff"/></svg>