<svg enable-background="new 0 0 27 27" height="27" viewBox="0 0 27 27" width="27" xmlns="http://www.w3.org/2000/svg"><script xmlns="" type="text/javascript" charset="utf-8" id="zm-extension"/><g fill="#a7a5a5"><path d="m8.6435547 6.5854492h2.7978516v13.8286133h-2.7978516z"/><path d="m15.5585938 6.5854492h2.7978516v13.8286133h-2.7978516z"/><path d="m13.5 27c-7.4433594 0-13.5-6.0566406-13.5-13.5 0-7.4443359 6.0566406-13.5 13.5-13.5s13.5 6.0556641 13.5 13.5c0 7.4433594-6.0566406 13.5-13.5 13.5zm0-26.012207c-6.8984375 0-12.5117188 5.612793-12.5117188 12.512207 0 6.8984375 5.6132813 12.5117188 12.5117188 12.5117188 6.8994141 0 12.5117188-5.6132813 12.5117188-12.5117188 0-6.8994141-5.6123047-12.512207-12.5117188-12.512207z"/></g></svg>