<?xml version="1.0" encoding="UTF-8"?>
<!-- Generator: Adobe Illustrator 16.0.3, SVG Export Plug-In . SVG Version: 6.00 Build 0)  -->
<!DOCTYPE svg PUBLIC "-//W3C//DTD SVG 1.0//EN" "http://www.w3.org/TR/2001/REC-SVG-20010904/DTD/svg10.dtd">
<svg version="1.0" id="Layer_1" xmlns:x="http://ns.adobe.com/Extensibility/1.0/" xmlns:i="http://ns.adobe.com/AdobeIllustrator/10.0/" xmlns:graph="http://ns.adobe.com/Graphs/1.0/" xmlns="http://www.w3.org/2000/svg" xmlns:xlink="http://www.w3.org/1999/xlink" xmlns:a="http://ns.adobe.com/AdobeSVGViewerExtensions/3.0/" x="0px" y="0px" width="48px" height="48px" viewBox="0 0 48 48" style="enable-background:new 0 0 48 48;" xml:space="preserve"><script xmlns="" type="text/javascript" charset="utf-8" id="zm-extension"/>
<path style="fill:#3B5998;" d="M21.1616211,17.4716797c0,0.5039063,0,2.7539063,0,2.7539063H19v3.3671875h2.1616211v10.0048828  h4.4399414V23.5927734h2.9785156c0,0,0.2792969-1.6152344,0.4160156-3.3798828c-0.3886719,0-3.3769531,0-3.3769531,0  s0-1.9589844,0-2.3027344s0.4824219-0.8066406,0.9609375-0.8066406s1.4863281,0,2.4199219,0c0-0.4580078,0-2.0419922,0-3.5048828  c-1.2460938,0-2.6640625,0-3.2890625,0C21.0517578,13.5986328,21.1616211,16.96875,21.1616211,17.4716797z"/>
</svg>