<?xml version="1.0" encoding="UTF-8"?>
<!-- Generator: Adobe Illustrator 16.0.3, SVG Export Plug-In . SVG Version: 6.00 Build 0)  -->
<!DOCTYPE svg PUBLIC "-//W3C//DTD SVG 1.0//EN" "http://www.w3.org/TR/2001/REC-SVG-20010904/DTD/svg10.dtd">
<svg version="1.0" id="Layer_1" xmlns:x="http://ns.adobe.com/Extensibility/1.0/" xmlns:i="http://ns.adobe.com/AdobeIllustrator/10.0/" xmlns:graph="http://ns.adobe.com/Graphs/1.0/" xmlns="http://www.w3.org/2000/svg" xmlns:xlink="http://www.w3.org/1999/xlink" xmlns:a="http://ns.adobe.com/AdobeSVGViewerExtensions/3.0/" x="0px" y="0px" width="48px" height="48px" viewBox="0 0 48 48" style="enable-background:new 0 0 48 48;" xml:space="preserve"><script xmlns="" type="text/javascript" charset="utf-8" id="zm-extension"/>
<path style="fill-rule:evenodd;clip-rule:evenodd;fill:#888888;" d="M23.9628906,23.7158203  c2.5605469,0.0078125,4.6523438-2.1210938,4.6660156-4.7470703c0.0117188-2.6884766-2.046875-4.8642578-4.6103516-4.8710938  c-2.5585938-0.0068359-4.637207,2.1367188-4.6513672,4.7988281C19.3525391,21.5283203,21.4301758,23.7070313,23.9628906,23.7158203z   M26.265625,18.9033203c0.0039063,1.3046875-0.9960938,2.3535156-2.2539063,2.3574219  c-1.2607422,0.0048828-2.2724609-1.0292969-2.2817383-2.3300781c-0.0092773-1.3193359,1.0024414-2.3779297,2.2709961-2.3759766  C25.2578125,16.5556641,26.2617188,17.5957031,26.265625,18.9033203z M23.0976563,27.4804688  c-0.1005859,0.1113281-0.1640625,0.1884766-0.2333984,0.2607422l-3.1259766,3.2470703  c-0.2163086,0.2236328-0.3710938,0.4726563-0.3857422,0.7998047c-0.0224609,0.4814453,0.265625,0.9619141,0.7192383,1.1884766  c0.4262695,0.2158203,0.8637695,0.1474609,1.230957-0.2285156c0.8188477-0.8369141,1.6328125-1.6796875,2.4335938-2.5341797  C23.9365234,30,24.0458984,29.953125,24.2724609,30.2001953c0.7802734,0.8466797,1.5908203,1.6621094,2.3876953,2.4921875  c0.2070313,0.2177734,0.4414063,0.3720703,0.7421875,0.3935547c0.4726563,0.0341797,0.9550781-0.28125,1.171875-0.7578125  c0.1953125-0.4375,0.1210938-0.9023438-0.2363281-1.2792969c-1.0507813-1.1025391-2.1113281-2.1962891-3.1660156-3.2958984  c-0.0742188-0.0761719-0.1289063-0.1416016-0.246582-0.2734375c0.777832-0.0966797,1.5629883-0.2421875,2.277832-0.5292969  c0.7578125-0.3056641,1.4414063-0.7421875,2.0078125-1.3457031c0.3691406-0.3935547,0.375-0.8896484,0.0742188-1.3964844  c-0.2636719-0.4443359-0.71875-0.6308594-1.2089844-0.5c-0.2519531,0.0664063-0.46875,0.1982422-0.671875,0.3603516  c-2.0507813,1.4306641-4.8574219,1.390625-6.9003906-0.0654297c-0.1005859-0.0722656-0.2050781-0.1386719-0.3154297-0.1933594  c-0.5664063-0.2763672-1.1113281-0.1474609-1.4365234,0.3349609c-0.3793945,0.5654297-0.3310547,1.1123047,0.1489258,1.5898438  c0.1235352,0.1230469,0.2641602,0.2304688,0.3999023,0.3417969C20.3974609,26.9648438,21.6787109,27.3261719,23.0976563,27.4804688z  "/>
</svg>