<svg enable-background="new 0 0 160 115" height="115" viewBox="0 0 160 115" width="160" xmlns="http://www.w3.org/2000/svg"><script xmlns="" type="text/javascript" charset="utf-8" id="zm-extension"/><g fill="#fff"><path d="m121.7050781 48.6191406c-.7050781-.2832031-1.5546875 0-1.8359375.8476563-.2832031.7070313 0 1.5546875.8476563 1.8378906 11.4511719 4.5234375 17.9550781 10.8847656 17.9550781 17.2460938 0 11.734375-21.4902344 22.0566406-49.90625 23.7519531-.8496094 0-1.4140625.7070313-1.2734375 1.5566406 0 .7050781.7070313 1.2714844 1.4140625 1.2714844h.140625c30.3984375-1.9785156 52.453125-13.1464844 52.453125-26.5800781 0-7.7753907-6.9296875-14.84375-19.7949219-19.9316407z"/><path d="m66.5683594 85.8007813c-.5644531-.5664063-1.5546875-.4238281-1.9785156.140625-.4257813.5644531-.4257813 1.5546875.140625 1.9785156l4.9492188 4.2421875c-27.2866211-1.9785156-48.3530273-12.1582031-48.3530273-23.7519531 0-6.9277344 7.6347656-13.7128906 20.9248047-18.3789063.7070313-.28125 1.1308594-1.1308594.8476563-1.8378906-.2822266-.7070313-1.1308594-1.1308594-1.8369141-.8476563-14.5625 5.2324219-22.7626953 12.8652344-22.7626953 21.0644531 0 13.4316406 21.4902344 24.4589844 51.4614258 26.5800781l-5.2304688 4.3828125c-.5664063.5644531-.7070313 1.4121094-.140625 1.9804688.2832031.2792969.7070313.5644531 1.1308594.5644531.2832031 0 .7050781-.140625.8476563-.2851563l8.0585938-6.7832031c.2832031-.2851563.5664063-.7089844.5664063-1.1328125s-.1425781-.8476563-.5664063-1.1289063z"/><path d="m80.5976563 13.081543-29.2241211 14.6123047 28.9780273 14.4482421 28.7890625-14.790039z"/><path d="m48.1616211 69.8105469 29.940918 14.9707031v-38.7011719l-29.940918-14.9311523z"/><path d="m102.0878906 51.1289063-.9921875.4863281.0625 10.0488281 1.0292969-.5058594c1.890625-.9277344 3.1464844-2.5878906 3.1210938-6.6523438-.0253907-4.1035155-1.3847657-4.2773437-3.2207032-3.376953z"/><path d="m82.6289063 46.0625v38.9511719l30.4042969-15.203125v-39.3706055zm8.5957031 23.4882813c-1.9492188.9570313-3.421875.8359375-4.4414063-.0820313l1.6074219-2.6269531c.8652344.5703125 1.6347656.6386719 2.6445313.1425781 1.1835938-.5820313 1.9980469-1.7792969 1.9902344-3.1445313-.0097656-1.5683594-.7539063-1.7851563-2.1152344-1.1171875l-1.0644531.5214844.3105468-2.5566406.7382813-.3632813c1.1503906-.5664063 1.8535156-1.6230469 1.8457031-2.859375-.0058594-1.078125-.6777344-1.3925781-1.7285156-.8769531-.9570313.4707031-1.7539063 1.3066406-2.515625 2.5371094l-1.4980469-1.140625c1.1933594-1.9121094 2.6230469-3.3046875 4.3417969-4.1484375 2.7871094-1.3671875 4.3066406-.4042969 4.3183594 1.6894531.0117188 1.8105469-.9199219 3.4863281-2.5019531 4.7929688 1.6074219-.5898438 2.9472656-.1445313 2.9628906 2.2246094.0136718 2.4902343-1.7109376 5.4453125-4.8945313 7.0078125zm10.7871094-5.6777344-3.9707031 1.9492188-.09375-15.296875 3.6875-1.8105469c3.5292969-1.7324219 6.8789063-2.1113281 6.9179688 4.1992188.0390624 6.158203-3.1562501 9.2968749-6.5410157 10.9589843z"/></g></svg>