<?xml version="1.0" encoding="UTF-8"?>
<!-- Generator: Adobe Illustrator 16.0.3, SVG Export Plug-In . SVG Version: 6.00 Build 0)  -->
<!DOCTYPE svg PUBLIC "-//W3C//DTD SVG 1.0//EN" "http://www.w3.org/TR/2001/REC-SVG-20010904/DTD/svg10.dtd">
<svg version="1.0" id="Layer_1" xmlns:x="http://ns.adobe.com/Extensibility/1.0/" xmlns:i="http://ns.adobe.com/AdobeIllustrator/10.0/" xmlns:graph="http://ns.adobe.com/Graphs/1.0/" xmlns="http://www.w3.org/2000/svg" xmlns:xlink="http://www.w3.org/1999/xlink" xmlns:a="http://ns.adobe.com/AdobeSVGViewerExtensions/3.0/" x="0px" y="0px" width="30px" height="30px" viewBox="0 0 30 30" style="enable-background:new 0 0 30 30;" xml:space="preserve"><script xmlns="" type="text/javascript" charset="utf-8" id="zm-extension"/>
<g>
	<path style="fill:#FFFFFF;" d="M12.5556641,15.1298828H7.8378906v4.375h5.2578125v1.3144531H6.2714844V8.6835938h6.5537109   v1.3144531H7.8378906v3.8349609h4.7177734V15.1298828z"/>
	<path style="fill:#FFFFFF;" d="M15.1269531,20.8193359V8.6835938h1.7109375l3.8886719,6.1401367   c0.9003906,1.4223633,1.6025391,2.7006836,2.1787109,3.9428711l0.0361328-0.0175781   c-0.1435547-1.6210938-0.1796875-3.0976563-0.1796875-4.987793V8.6835938h1.4765625v12.1357422h-1.5849609l-3.8535156-6.1577148   c-0.8457031-1.3505859-1.65625-2.7368164-2.2685547-4.0512695l-0.0537109,0.0180664   c0.0898438,1.5302734,0.1259766,2.9887695,0.1259766,5.0053711v5.1855469H15.1269531z"/>
</g>
</svg>