<?xml version="1.0" encoding="UTF-8"?>
<!-- Generator: Adobe Illustrator 16.0.3, SVG Export Plug-In . SVG Version: 6.00 Build 0)  -->
<!DOCTYPE svg PUBLIC "-//W3C//DTD SVG 1.0//EN" "http://www.w3.org/TR/2001/REC-SVG-20010904/DTD/svg10.dtd">
<svg version="1.0" id="Layer_1" xmlns:x="http://ns.adobe.com/Extensibility/1.0/" xmlns:i="http://ns.adobe.com/AdobeIllustrator/10.0/" xmlns:graph="http://ns.adobe.com/Graphs/1.0/" xmlns="http://www.w3.org/2000/svg" xmlns:xlink="http://www.w3.org/1999/xlink" xmlns:a="http://ns.adobe.com/AdobeSVGViewerExtensions/3.0/" x="0px" y="0px" width="48px" height="48px" viewBox="0 0 48 48" style="enable-background:new 0 0 48 48;" xml:space="preserve"><script xmlns="" type="text/javascript" charset="utf-8" id="zm-extension"/>
<path style="fill:#5B7AA8;" d="M30.2324219,25.0908203c0.6972656,0.6308594,1.4316406,1.2226563,2.0566406,1.9150391  c0.2773438,0.3076172,0.5371094,0.6259766,0.7382813,0.9833984c0.2832031,0.5078125,0.0253906,1.0673828-0.4667969,1.0976563  l-3.0585938-0.0009766c-0.7890625,0.0605469-1.4179688-0.234375-1.9472656-0.7333984  c-0.4238281-0.3994141-0.8164063-0.8242188-1.2226563-1.2373047c-0.1679688-0.1689453-0.3417969-0.3271484-0.5507813-0.4521484  C25.3632813,26.4111328,25,26.4882813,24.7612305,26.8916016c-0.2426758,0.4101563-0.2978516,0.8642578-0.3212891,1.3212891  c-0.0332031,0.6669922-0.2509766,0.8417969-0.9746094,0.8730469c-1.5463867,0.0664063-3.0136719-0.1494141-4.3774414-0.8720703  c-1.2021484-0.6367188-2.1342773-1.5351563-2.9458008-2.5527344c-1.5791016-1.9804688-2.7890625-4.1582031-3.8764648-6.3955078  c-0.2446289-0.5039063-0.065918-0.7753906,0.5351563-0.7851563c0.9980469-0.0175781,1.9960938-0.0166016,2.9951172-0.0009766  c0.4057617,0.0058594,0.6743164,0.2207031,0.8310547,0.5761719c0.5395508,1.2285156,1.2006836,2.3974609,2.0297852,3.4814453  c0.2207031,0.2880859,0.4462891,0.5771484,0.7666016,0.7802734c0.3554688,0.2255859,0.625,0.1503906,0.7919922-0.2158203  c0.105957-0.2314453,0.1523438-0.4814453,0.1767578-0.7294922c0.078125-0.8554688,0.0888672-1.7080078-0.0498047-2.5595703  c-0.0849609-0.5322266-0.4082031-0.8759766-0.9814453-0.9765625c-0.2924805-0.0517578-0.2490234-0.1523438-0.1074219-0.3066406  c0.2460938-0.2666016,0.4775391-0.4316406,0.9384766-0.4316406h3.4575195  c0.5444336,0.0986328,0.6650391,0.3251953,0.7397461,0.8320313l0.0029297,3.5546875  c-0.0058594,0.1962891,0.1054688,0.7792969,0.4882813,0.9091797c0.3051758,0.0927734,0.5063477-0.1337891,0.6899414-0.3134766  c0.828125-0.8134766,1.4179688-1.7744141,1.9472656-2.7695313c0.234375-0.4375,0.4355469-0.8925781,0.6308594-1.3466797  c0.1445313-0.3369141,0.3710938-0.5019531,0.78125-0.4951172l3.328125,0.0029297  c0.0976563,0,0.1972656,0.0009766,0.2929688,0.0166016c0.5605469,0.0878906,0.7148438,0.3115234,0.5410156,0.8183594  c-0.2714844,0.7949219-0.8027344,1.4580078-1.3222656,2.1240234c-0.5546875,0.7099609-1.1484375,1.3974609-1.6992188,2.1123047  C29.5644531,24.1953125,29.6054688,24.5244141,30.2324219,25.0908203L30.2324219,25.0908203z"/>
</svg>