<?xml version="1.0" encoding="UTF-8"?>
<!-- Generator: Adobe Illustrator 16.0.3, SVG Export Plug-In . SVG Version: 6.00 Build 0)  -->
<!DOCTYPE svg PUBLIC "-//W3C//DTD SVG 1.0//EN" "http://www.w3.org/TR/2001/REC-SVG-20010904/DTD/svg10.dtd">
<svg version="1.0" id="Layer_1" xmlns:x="http://ns.adobe.com/Extensibility/1.0/" xmlns:i="http://ns.adobe.com/AdobeIllustrator/10.0/" xmlns:graph="http://ns.adobe.com/Graphs/1.0/" xmlns="http://www.w3.org/2000/svg" xmlns:xlink="http://www.w3.org/1999/xlink" xmlns:a="http://ns.adobe.com/AdobeSVGViewerExtensions/3.0/" x="0px" y="0px" width="48px" height="48px" viewBox="0 0 48 48" style="enable-background:new 0 0 48 48;" xml:space="preserve"><script xmlns="" type="text/javascript" charset="utf-8" id="zm-extension"/>
<path style="fill-rule:evenodd;clip-rule:evenodd;fill:#DD4B39;" d="M34.0703125,22.5410156v-1.6796875  c0-0.2265625-0.1835938-0.4111328-0.4121094-0.4111328h-1.421875c-0.2285156,0-0.4121094,0.1845703-0.4121094,0.4111328v1.6796875  h-1.6894531c-0.2285156,0-0.4140625,0.1845703-0.4140625,0.4111328v1.4140625c0,0.2265625,0.1855469,0.4111328,0.4140625,0.4111328  h1.6894531v1.6787109c0,0.2275391,0.1835938,0.4111328,0.4121094,0.4111328h1.421875  c0.2285156,0,0.4121094-0.1835938,0.4121094-0.4111328v-1.6787109h1.6894531c0.2285156,0,0.4140625-0.1845703,0.4140625-0.4111328  v-1.4140625c0-0.2265625-0.1855469-0.4111328-0.4140625-0.4111328H34.0703125z M21.8920898,25.0419922h3.4379883  c-0.6040039,1.6962891-2.2387695,2.9130859-4.1513672,2.8994141c-2.3208008-0.0175781-4.2407227-1.8642578-4.3305664-4.1708984  c-0.0966797-2.4726563,1.8979492-4.515625,4.3632813-4.515625c1.1269531,0,2.1557617,0.4267578,2.9316406,1.1279297  c0.1835938,0.1650391,0.4628906,0.1660156,0.6435547-0.0029297l1.262207-1.1816406  c0.1972656-0.1845703,0.1992188-0.4970703,0.0019531-0.6816406c-1.2299805-1.1601563-2.8798828-1.8818359-4.6992188-1.9169922  c-3.8803711-0.0751953-7.1508789,3.0888672-7.1782227,6.9482422c-0.0273438,3.8886719,3.1342773,7.0498047,7.0380859,7.0498047  c3.7548828,0,6.8217773-2.9228516,7.0268555-6.6064453c0.0058594-0.0458984,0.0097656-1.6064453,0.0097656-1.6064453h-6.355957  c-0.2607422,0-0.4716797,0.2099609-0.4716797,0.4697266v1.71875C21.4204102,24.8320313,21.6313477,25.0419922,21.8920898,25.0419922  z"/>
</svg>