<?xml version="1.0" encoding="UTF-8"?>
<!-- Generator: Adobe Illustrator 16.0.3, SVG Export Plug-In . SVG Version: 6.00 Build 0)  -->
<!DOCTYPE svg PUBLIC "-//W3C//DTD SVG 1.0//EN" "http://www.w3.org/TR/2001/REC-SVG-20010904/DTD/svg10.dtd">
<svg version="1.0" id="Layer_1" xmlns:x="http://ns.adobe.com/Extensibility/1.0/" xmlns:i="http://ns.adobe.com/AdobeIllustrator/10.0/" xmlns:graph="http://ns.adobe.com/Graphs/1.0/" xmlns="http://www.w3.org/2000/svg" xmlns:xlink="http://www.w3.org/1999/xlink" xmlns:a="http://ns.adobe.com/AdobeSVGViewerExtensions/3.0/" x="0px" y="0px" width="48px" height="48px" viewBox="0 0 48 48" style="enable-background:new 0 0 48 48;" xml:space="preserve"><script xmlns="" type="text/javascript" charset="utf-8" id="zm-extension"/>
<path style="fill:#1DA1F2;" d="M32.9765625,15.8925781C32.2226563,16.3554688,31.3867188,16.6914063,30.5,16.8740234  c-0.7109375-0.7871094-1.7226563-1.2773438-2.8457031-1.2773438c-2.1523438,0-3.8979492,1.8095703-3.8979492,4.0400391  c0,0.3164063,0.034668,0.625,0.1010742,0.9199219c-3.2392578-0.1679688-6.1113281-1.7763672-8.0336914-4.2207031  C15.487793,16.9316406,15.296875,17.625,15.296875,18.3662109c0,1.4013672,0.9550781,2.9755859,2,3.6992188  c-0.6391602-0.0224609-1.5063477-0.5410156-2.0322266-0.8447266v0.0507813c0,1.9580078,1.34375,3.5898438,3.1259766,3.9619141  c-0.3261719,0.0917969-0.6708984,0.1425781-1.0263672,0.1425781c-0.2519531,0-0.4951172-0.0263672-0.734375-0.0732422  c0.496582,1.6044922,1.9355469,2.7734375,3.640625,2.8066406c-1.3334961,1.0830078-3.0151367,1.7275391-4.8408203,1.7275391  c-0.3144531,0-0.625-0.0185547-0.9296875-0.0546875c1.7255859,1.1455078,3.7734375,1.8154297,5.9750977,1.8154297  c7.1694336,0,11.0893555-6.1572266,11.0893555-11.4951172l-0.0117188-0.5244141  c0.7636719-0.5664063,1.4257813-1.2783203,1.9472656-2.0878906c-0.6992188,0.3212891-1.4492188,0.5390625-2.2382813,0.6367188  C32.0664063,17.6259766,32.6835938,16.8339844,32.9765625,15.8925781z"/>
</svg>