<svg enable-background="new 0 0 26 26" height="26" viewBox="0 0 26 26" width="26" xmlns="http://www.w3.org/2000/svg"><script xmlns="" type="text/javascript" charset="utf-8" id="zm-extension"/><g fill="#fff"><path d="m7 8h13v1h-13z"/><path d="m7 11h13v1h-13z"/><path d="m7 14h13v1h-13z"/><path d="m13.5 23.1572266-4.1582031-4.1572266h-3.8417969c-1.3789062 0-2.5-1.1210937-2.5-2.5v-10c0-1.378418 1.1210938-2.5 2.5-2.5h16c1.3789063 0 2.5 1.121582 2.5 2.5v10c0 1.3789063-1.1210938 2.5-2.5 2.5h-3.84375zm-8-18.1572266c-.8271484 0-1.5.6728516-1.5 1.5v10c0 .8271484.6728516 1.5 1.5 1.5h4.2558594l3.7441406 3.7431641 3.7421875-3.7431641h4.2578125c.8271484 0 1.5-.6728516 1.5-1.5v-10c0-.8271484-.6728516-1.5-1.5-1.5z"/></g></svg>