<svg enable-background="new 0 0 26 26" height="26" viewBox="0 0 26 26" width="26" xmlns="http://www.w3.org/2000/svg"><script xmlns="" type="text/javascript" charset="utf-8" id="zm-extension"/><path d="m13.0947266 12.7099609c2.3779297 0 4.3115234-2.3261719 4.3115234-5.1865234 0-2.7099609-1.7724609-4.6035156-4.3115234-4.6035156s-4.3125 1.8935547-4.3125 4.6035156c0 1.3798828.4462891 2.6787109 1.2568359 3.6582031.8164063.9863282 1.9013672 1.5283203 3.0556641 1.5283203zm0-8.7402343c1.9521484 0 3.2636719 1.4282227 3.2636719 3.5537109 0 2.28125-1.4648438 4.1367188-3.2636719 4.1367188-1.7998047 0-3.2636719-1.8554688-3.2636719-4.1367188 0-1.0473633.3125-1.9389648.9023438-2.5791016.5859374-.6376953 1.4023437-.9746093 2.3613281-.9746093z" fill="#fff"/><path d="m20.9931641 19.6914063c-.0097656-.6982422-.0146484-.8974609-.0224609-.9746094-.3554688-3.2597656-3.1152344-5.0546875-7.7724609-5.0546875l-.0957031.0029297-.0585938-.0019531c-.0195313-.0009766-.0380859-.0009766-.0576172-.0009766-4.6542969 0-7.4130859 1.7949219-7.7675781 5.0546875-.0087891.0751953-.0126953.2675781-.0224609.8896484l-.0068359.3867188c0 .0087891.0009766.0195313.0019531.0273438l.0009766.0019531c0 .0175781.0009766.0390625.0039063.0595703.0029297.0166016.0068359.0322266.0107422.0439453v.0039063c.0048828.0146484.0087891.0332031.0166016.0527344.0048828.0146484.0117188.0302734.0185547.0439453.0068359.0146484.0146484.0302734.0234375.0449219l.0019531.0029297c.0078125.0117188.0146484.0214844.0224609.0322266l.0107422.0126953c.0078125.0126953.015625.0224609.0263672.0341797.0146484.0166016.0302734.0302734.0439453.0419922.0068359.0078125.015625.0146484.0224609.0205078.0029297.0019531.0068359.0048828.0097656.0068359l.0058594.0058594c2.1621094 1.6523438 4.7470703 2.4912109 7.6835938 2.4912109h.0019531c2.859375 0 5.5126953-.8583984 7.6728516-2.4833984l.0214844-.015625c.0126953-.0097656.0224609-.0185547.0283203-.0253906l0 0c .0126953-.0117188.0273438-.0244141.0429688-.0400391.0126953-.0136719.0224609-.0273438.0302734-.0371094.0107422-.0136719.0205078-.0283203.03125-.0449219.0068359-.0117188.0146484-.0253906.0195313-.0380859l.0087891-.0166016c.0048828-.0107422.0107422-.0224609.0146484-.0332031l.0019531-.0029297c.0048828-.0136719.0087891-.0283203.0117188-.0419922l.0009766-.0039063c.0058594-.0195313.0097656-.0361328.0117188-.0517578.0029297-.0195313.0048828-.0371094.0058594-.0527344l.0009766-.0058594c.000976-.0087891.0019526-.0214844.0019526-.0351563zm-8.0078125-4.9794922.1181641.0019531.0976563-.0019531c2.8642578 0 6.3535156.7128906 6.7255859 4.109375.0029297.0517578.0107422.3847656.0185547.8867188v.0273438c-1.9404297 1.3974609-4.3095703 2.1347656-6.8525391 2.1347656-2.6083984 0-4.9140625-.7177734-6.8496094-2.1318359l.0029297-.1611328c.0048828-.2753906.0107422-.6914063.0146484-.7470703.3710937-3.4033205 3.8613281-4.1181642 6.7246094-4.1181642z" fill="#fff"/></svg>