<svg enable-background="new 0 0 24 24" height="24" viewBox="0 0 24 24" width="24" xmlns="http://www.w3.org/2000/svg"><script xmlns="" type="text/javascript" charset="utf-8" id="zm-extension"/><path d="m19.5332031 14.7597656c-1.0664063 0-1.4902344-.5839844-1.4902344-1.6816406 0-.8505859.234375-1.3867188.5957031-1.6855469v-2.1313476c-4.0527344 0-5.9667969 1.0693359-5.9667969 1.0693359v8.7045898c2.2226563-1.4765625 5.9667969-1.5273438 5.9667969-1.5273438v-1.9863281h1.4921875v2.7724609c0 .3369141-.2675781.6103516-.5976563.6103516-.6210938 0-5.2021484-.0390625-7.0117188 1.9628906-.1386719.1767578-.7207031.1777344-.8950195 0-2.0131836-1.7558594-6.5385742-1.9853516-7.1606445-1.9853516-.3291016 0-.5966797-.2734375-.5966797-.6103516v-2.75h1.4916992v1.9863281s3.7436523.0507813 5.9672852 1.5273438c0-3.5800781 0-8.7045898 0-8.7045898s-1.9140624-1.0693358-5.9672851-1.0693358v2.1313477c.3623047.2988281.5966797.8349609.5966797 1.6855469 0 1.0976563-.425293 1.6816406-1.4916992 1.6816406-.4418945 0-1.1933594-.1484375-1.1933594-.4589844s0-2.0556641 0-2.4433594c0-.2363281.2792969-.4677734.5966797-.6123047v-2.7475586c0-.3374023.2675781-.6108398.5966797-.6108398.6220703 0 4.3515625-.2802734 7.4589844 1.2216797 3.2568359-1.4882813 6.9716797-1.2216797 7.6083984-1.2216797.2929688 0 .5976563.3115234.5976563.6489258v2.7094727c.3164063.1445313.5966797.3759766.5966797.6123047v2.4433594c0 .3105467-.7509766.4589842-1.194336.4589842zm-7.6083984-6.262207c-1.0117188-.4887695-2.0908203-.7880859-3.105957-.9711914-.112793-.3427734-.1757813-.7084961-.1757813-1.090332 0-1.897461 1.5024414-3.4360352 3.3569336-3.4360352 1.8535156 0 3.3564453 1.5385742 3.3564453 3.4360352 0 .3808594-.0615234.7460938-.1748047 1.0874023-1.0498047.1816406-2.1777343.4814453-3.2568359.9741211z" fill="#fff"/></svg>