<svg enable-background="new 0 0 11 11" height="11" viewBox="0 0 11 11" width="11" xmlns="http://www.w3.org/2000/svg"><script xmlns="" type="text/javascript" charset="utf-8" id="zm-extension"/><path d="m6.2070313 5.5 4.6464844-4.6464844c.1953125-.1953125.1953125-.5117188 0-.7070313s-.5117188-.1953125-.7070313 0l-4.6464844 4.6464845-4.6464844-4.6464844c-.1953125-.1953125-.5117188-.1953125-.7070313 0s-.1953125.5117188 0 .7070313l4.6464845 4.6464843-4.6464844 4.6464844c-.1953125.1953125-.1953125.5117188 0 .7070313.0976562.0976562.2255859.1464843.3535156.1464843s.2558594-.0488281.3535156-.1464844l4.6464844-4.6464843 4.6464844 4.6464844c.0976562.0976562.2255859.1464843.3535156.1464843s.2558594-.0488281.3535156-.1464844c.1953125-.1953125.1953125-.5117188 0-.7070313z" fill="#999"/></svg>