<?xml version="1.0" encoding="UTF-8" standalone="no"?>
<svg xmlns="http://www.w3.org/2000/svg" viewBox="0 0 483.28 101.74347" height="101.74347" width="483.28" xml:space="preserve" id="svg2" version="1.1"><script xmlns="" type="text/javascript" charset="utf-8" id="zm-extension"/><defs id="defs6"><clipPath id="clipPath18" clipPathUnits="userSpaceOnUse"><path id="path16" d="M 0,76.308 H 362.46 V 0 H 0 Z"/></clipPath></defs><g transform="matrix(1.3333333,0,0,-1.3333333,0,101.74347)" id="g10"><g id="g12"><g clip-path="url(#clipPath18)" id="g14"><g transform="translate(25.8862,75.8506)" id="g20"><path id="path22" style="fill:#e4e4e3;fill-opacity:1;fill-rule:nonzero;stroke:none" d="m 0,0 h -6.211 c -0.666,0 -1.208,-0.542 -1.208,-1.208 v -5.974 l -9.837,-17.015 v 22.989 c 0,0.666 -0.54,1.208 -1.208,1.208 h -6.214 c -0.668,0 -1.208,-0.542 -1.208,-1.208 v -73.415 c 0,-0.666 0.54,-1.209 1.208,-1.209 h 6.214 c 0.668,0 1.208,0.543 1.208,1.209 v 27.176 l 9.837,17.044 v -44.22 c 0,-0.666 0.542,-1.209 1.208,-1.209 H 0 c 0.668,0 1.21,0.543 1.21,1.209 V -1.208 C 1.21,-0.542 0.668,0 0,0"/></g><g transform="translate(224.0039,76.3076)" id="g24"><path id="path26" style="fill:#e4e4e3;fill-opacity:1;fill-rule:nonzero;stroke:none" d="M 0,0 H -6.213 C -6.879,0 -7.421,-0.54 -7.421,-1.209 V -7.18 L -17.26,-24.198 V -1.209 C -17.26,-0.54 -17.8,0 -18.466,0 h -6.214 c -0.668,0 -1.211,-0.54 -1.211,-1.209 v -73.415 c 0,-0.666 0.543,-1.209 1.211,-1.209 h 6.214 c 0.666,0 1.206,0.543 1.206,1.209 v 27.176 l 9.839,17.044 v -44.22 c 0,-0.666 0.542,-1.209 1.208,-1.209 H 0 c 0.666,0 1.207,0.543 1.207,1.209 V -1.209 C 1.207,-0.54 0.666,0 0,0"/></g><g transform="translate(84.1411,40.9766)" id="g28"><path id="path30" style="fill:#e4e4e3;fill-opacity:1;fill-rule:nonzero;stroke:none" d="m 0,0 c 1.169,2.023 2.152,3.734 2.757,4.794 2.737,4.798 5.326,8.705 5.326,12.764 v 9.944 c -0.091,5.305 -5.274,7.654 -7.864,7.584 -0.491,0 -11.415,0.012 -15.109,0.015 -0.666,0.002 -1.204,-0.541 -1.204,-1.207 v -73.413 c 0,-0.669 0.538,-1.209 1.207,-1.209 4.035,0.01 16.866,0.034 17.67,0.034 2.587,-0.071 7.771,2.277 7.864,7.582 v 0.372 7.559 4.203 c 0,2.606 -1.062,4.376 -1.062,4.376 z M -1.052,19.559 C 1.104,19.54 1.258,17.384 0.875,16.494 0.641,15.949 -3.446,8.432 -7.466,1.161 v 17.536 c 0,0.475 0.387,0.862 0.862,0.862 z m 0.885,-46.785 h -6.437 c -0.475,0 -0.862,0.387 -0.862,0.862 v 13.439 c 1.039,1.795 2.252,3.892 3.484,6.02 l 4.856,-8.409 c 0,0 1.143,-1.689 1.143,-3.857 v -6.343 c -0.138,-0.608 -0.603,-1.712 -2.184,-1.712"/></g><g transform="translate(242.373,75.835)" id="g32"><path id="path34" style="fill:#e4e4e3;fill-opacity:1;fill-rule:nonzero;stroke:none" d="m 0,0 c -2.587,0.069 -7.771,-2.28 -7.862,-7.585 v -9.943 c 0,-4.06 2.59,-7.967 5.326,-12.764 0.471,-0.827 1.176,-2.054 2.015,-3.512 l -5.874,-10.175 c 0,0 -1.059,-1.767 -1.059,-4.375 0,-2.273 0.004,-21.028 0.007,-26.258 0,-0.669 0.54,-1.206 1.206,-1.206 h 6.213 c 0.666,0 1.206,0.54 1.206,1.206 0,5.328 -0.002,24.666 -0.002,25.024 0,2.166 1.143,3.854 1.143,3.854 l 2.024,3.505 c 2.07,-3.586 4.073,-7.042 5.265,-9.101 v -23.277 c 0,-0.666 0.54,-1.209 1.206,-1.209 h 6.558 c 0.475,0 0.862,0.386 0.862,0.864 v 74.104 c 0,0.478 -0.382,0.864 -0.859,0.862 C 13.847,0.014 0.62,0 0,0 m -0.657,-18.591 c -0.379,0.888 -0.228,3.044 1.928,3.063 h 7.126 c 0.671,0 1.211,-0.54 1.211,-1.208 v -20.65 c -4.527,8.128 -9.99,18.157 -10.265,18.795"/></g><g transform="translate(161.5015,12.5215)" id="g36"><path id="path38" style="fill:#e4e4e3;fill-opacity:1;fill-rule:nonzero;stroke:none" d="m 0,0 c 0.083,0.526 -0.321,1.001 -0.853,1.001 h -14.34 c -1.336,0 -2.417,1.081 -2.417,2.415 l -0.014,41.934 c 0,1.334 1.083,2.417 2.417,2.417 h 10.875 c 0.531,0 0.936,0.475 0.853,0.999 l -2.152,13.385 c -0.107,0.668 -0.684,1.162 -1.365,1.162 h -10.693 c -2.338,0.164 -8.593,-1.278 -8.537,-8.597 V -3.9 c -0.056,-7.371 6.294,-8.78 8.588,-8.593 v 0.007 h 14.452 c 0.68,0 1.258,0.493 1.365,1.162 z"/></g><g transform="translate(34.9819,13.5225)" id="g40"><path id="path42" style="fill:#e4e4e3;fill-opacity:1;fill-rule:nonzero;stroke:none" d="m 0,0 c -0.531,0 -0.936,-0.475 -0.85,-1.001 l 1.814,-11.294 c 0.107,-0.671 0.685,-1.165 1.365,-1.165 h 13.679 c 2.338,-0.16 8.59,1.281 8.537,8.598 V 5.925 h 0.004 v 13.05 c 0,9.966 -6.827,10.439 -6.827,10.439 h -0.016 c 1.049,1.819 2.009,3.475 2.456,4.262 2.736,4.8 4.359,7.049 4.359,11.108 v 9.944 c -0.093,5.304 -5.276,7.67 -7.866,7.6 H 3.477 c -0.678,0 -1.255,-0.491 -1.362,-1.162 L -0.037,47.783 C -0.121,47.26 0.284,46.784 0.815,46.784 h 12.967 c 0.854,0.029 1.916,-0.424 2.172,-1.802 l 0.003,-1.076 c 0,0 -0.122,-4.08 -2.031,-7.186 C 12.699,34.722 9.443,29.414 9.443,29.414 H 6.334 c -0.591,0 -1.097,-0.431 -1.192,-1.018 L 4.103,21.937 C 4.02,21.413 4.425,20.936 4.956,20.936 h 4.676 c 1.69,0 2.492,0.009 2.734,0 1.287,-0.044 3.6,-0.717 3.6,-4.089 V 13.176 H 15.961 C 15.954,9.902 15.95,6.144 15.947,2.413 15.947,1.078 14.862,0 13.53,0 Z"/></g><g transform="translate(127.2925,13.5225)" id="g44"><path id="path46" style="fill:#e4e4e3;fill-opacity:1;fill-rule:nonzero;stroke:none" d="m 0,0 h -15.034 v 21.013 h 7.037 c 0.531,0 0.936,0.474 0.852,1.001 l -1.038,6.466 c -0.109,0.671 -0.687,1.161 -1.365,1.161 h -5.486 V 46.784 H 0.167 c 0.532,0 0.937,0.476 0.853,0.999 l -2.147,13.369 c -0.107,0.671 -0.685,1.162 -1.362,1.162 l -20.309,0.014 c -0.478,0 -0.864,-0.386 -0.864,-0.863 V -12.64 c 0,-0.477 0.386,-0.862 0.864,-0.862 l 20.465,0.015 c 0.68,0 1.257,0.491 1.364,1.159 L 0.85,-1.001 C 0.936,-0.475 0.531,0 0,0"/></g><g transform="translate(191.8491,61.3408)" id="g48"><path id="path50" style="fill:#e4e4e3;fill-opacity:1;fill-rule:nonzero;stroke:none" d="m 0,0 -2.14,13.334 c -0.11,0.669 -0.687,1.16 -1.362,1.16 h -23.034 c -0.677,0 -1.255,-0.494 -1.362,-1.16 L -30.041,0 c -0.083,-0.521 0.322,-0.997 0.853,-0.997 l 9.827,-0.009 v -59.126 c 0,-0.669 0.54,-1.209 1.209,-1.209 h 6.213 c 0.668,0 1.209,0.54 1.209,1.209 0,0 0.001,41.584 0.004,59.135 h 9.876 c 0.531,0 0.936,0.476 0.85,0.997"/></g><g transform="translate(318.9321,10.7451)" id="g52"><path id="path54" style="fill:#e4e4e3;fill-opacity:1;fill-rule:nonzero;stroke:none" d="M 0,0 V 10.604 L 17.687,33.643 H 0 V 44.248 H 32.781 V 33.643 L 15.095,10.604 H 32.781 V 0 Z m -22.062,44.248 h 10.605 V 0 h -10.605 z m 65.59,21.315 h -54.986 v -10.71 h -10.604 v 10.71 h -10.717 v -76.308 h 76.307 z"/></g></g></g></g></svg>