<svg enable-background="new 0 0 32 32" height="32" viewBox="0 0 32 32" width="32" xmlns="http://www.w3.org/2000/svg"><script xmlns="" type="text/javascript" charset="utf-8" id="zm-extension"/><path d="m10.1748047 0-10.1748047 10.1762695v21.8237305h32v-32zm5.7226562 27.6679688c-4.4887695-.0917969-8.465332-1.8896484-9.1733398-6.8300781h6.3793945c.1655273 1.5761719 1.2241211 2.4609375 2.8242188 2.5029297 2.2910156 0 3.1992188-1.6601563 3.1992188-3.3525391 0-1.9443359-1.0664063-3.3554688-3.293457-3.3554688-1.7529297 0-2.2548828.8115234-2.6318359 1.3769531h-5.3720705v-8.6542968l3.659668-3.6689453h12.5439453v4.4897461l-10.7387695-.0024414-.0009766 3.0395508c1.2626953-.7197266 2.734375-.9169922 4.1713867-.940918 4.671875 0 8.2167969 2.9160156 8.2167969 7.2441406-.3242187 6.234375-4.5078125 8.321289-9.7841797 8.1513672z" fill="#ba0b34"/></svg>