<svg enable-background="new 0 0 55 55" height="55" viewBox="0 0 55 55" width="55" xmlns="http://www.w3.org/2000/svg"><script xmlns="" type="text/javascript" charset="utf-8" id="zm-extension"/><path d="m55 45c0 5.5224609-4.4775391 10-10 10h-35c-5.5229492 0-10-4.4775391-10-10v-35c0-5.5229492 4.4770508-10 10-10h35c5.5224609 0 10 4.4770508 10 10z" fill="#65319c"/><path d="m41.53125 13.2724609-31.5253906 12.1591797c-2.1518555.8632813-2.1386719 2.0634766-.3920898 2.5986328l7.8623047 2.4541016 3.0083008 9.2226563c.3657227 1.0097656.1855469 1.4091797 1.2456055 1.4091797.8178711 0 1.1811523-.3720703 1.6367188-.8173828.2895508-.2832031 2.0097656-1.9560547 3.9311523-3.8232422l8.1787109 6.0419922c1.5048828.8300781 2.5917969.4013672 2.9658203-1.3974609l5.3681641-25.2978516c.5507811-2.2041016-.8398439-3.2041016-2.279297-2.5498048zm-4.0683594 5.8095704-15.1757812 13.6914062-.5908203 6.3027344-2.9863281-9.15625 17.7216797-11.1816406c.8857421-.5361329 1.6972656-.2470704 1.0312499.34375z" fill="#fff"/></svg>