<svg enable-background="new 0 0 55 55" height="55" viewBox="0 0 55 55" width="55" xmlns="http://www.w3.org/2000/svg"><script xmlns="" type="text/javascript" charset="utf-8" id="zm-extension"/><path d="m55 45c0 5.5224609-4.4775391 10-10 10h-35c-5.5229492 0-10-4.4775391-10-10v-35c0-5.5229492 4.4770508-10 10-10h35c5.5224609 0 10 4.4770508 10 10z" fill="#452963"/><g fill="#fff"><path d="m27.7099609 16.8476563c-5.6455078 0-10.3222656 4.5976563-10.3222656 10.3222656 0 5.7265625 4.5957031 10.3222656 10.3222656 10.3222656 5.7246094 0 10.3212891-4.6777344 10.3212891-10.3222656s-4.6777344-10.3222656-10.3212891-10.3222656zm0 16.9355468c-3.6298828 0-6.6132813-2.9824219-6.6132813-6.6132813 0-3.6289063 2.9833984-6.6132813 6.6132813-6.6132813 3.6289063 0 6.6123047 2.984375 6.6123047 6.6132813 0 3.6308595-2.9833984 6.6132813-6.6123047 6.6132813z"/><circle cx="38.4355469" cy="16.6064453" r="2.3388672"/><path d="m44.4833984 10.5566406c-2.0957031-2.1777343-5.0800781-3.3066406-8.4667968-3.3066406h-16.6132813c-7.015625 0-11.6933594 4.6777344-11.6933594 11.6953125v16.53125c0 3.4667969 1.1289063 6.4511719 3.3867188 8.6289063 2.1777344 2.0976562 5.0810547 3.1445312 8.3876953 3.1445312h16.4511719c3.4677734 0 6.3710938-1.1289063 8.4667969-3.1445313 2.1777344-2.0976563 3.3076172-5.0800781 3.3076172-8.5488281v-16.6113281c-.0000001-3.3886719-1.1298829-6.2910156-3.2265626-8.3886719zm-.3222656 25c0 2.5-.8876953 4.5175781-2.3388672 5.8886719-1.4521484 1.3691406-3.4667969 2.0957031-5.8867188 2.0957031h-16.4511718c-2.4199219 0-4.4355469-.7265625-5.8876953-2.0957031-1.4511719-1.4511719-2.1767578-3.4707031-2.1767578-5.96875v-16.53125c0-2.4199219.7255859-4.4355469 2.1767578-5.8886719 1.3710938-1.3710938 3.4677734-2.0957031 5.8876953-2.0957031h16.6132813c2.4189453 0 4.4345703.7246094 5.8857422 2.1777344 1.3710938 1.4511719 2.1777344 3.4667969 2.1777344 5.8066406v16.6113281z"/></g></svg>