<svg enable-background="new 0 0 55 55" height="55" viewBox="0 0 55 55" width="55" xmlns="http://www.w3.org/2000/svg"><script xmlns="" type="text/javascript" charset="utf-8" id="zm-extension"/><path d="m55 45c0 5.5224609-4.4775391 10-10 10h-35c-5.5229492 0-10-4.4775391-10-10v-35c0-5.5229492 4.4770508-10 10-10h35c5.5224609 0 10 4.4770508 10 10z" fill="#452963"/><path d="m27.3579102 18.8759766v6.7246094h-5.2788086v8.2226563h5.2788086v21.1767577h10.8432617v-21.1767578h7.2753906s.6796875-3.9472656 1.0117188-8.2539063c-.9482422 0-8.2460938 0-8.2460938 0s0-4.7832031 0-5.6240234c0-.8388672 1.1796875-1.9726563 2.3496094-1.9726563h5.9082031c0-1.1142578 0-4.9853516 0-8.5556641-3.0449219 0-6.5078125 0-8.0332031 0-11.3764649.0000001-11.1088867 8.2294923-11.1088867 9.4589845z" fill="#fff"/></svg>