<?xml version="1.0" encoding="UTF-8"?>
<svg version="1.1" id="Layer_1" xmlns="http://www.w3.org/2000/svg" xmlns:xlink="http://www.w3.org/1999/xlink" x="0px" y="0px" viewBox="0 0 59.5639992 59.5639992" style="enable-background:new 0 0 59.5639992 59.5639992;" xml:space="preserve"><script xmlns="" type="text/javascript" charset="utf-8" id="zm-extension"/>
<style type="text/css">
	.st0{fill-rule:evenodd;clip-rule:evenodd;fill:#736262;}
	.st1{fill-rule:evenodd;clip-rule:evenodd;fill:#FFFFFF;}
</style>
<path class="st0" d="M42.1768341,45.4959145l5-22.9999981h4L42.1768341,45.4959145z"/>
<g>
	<g>
		<path class="st1" d="M25.1840382,24.6447926c0.0651855,0.0046997,0.1461182-0.0380859,0.2064209-0.0957642    c0.0521851-0.0498047,0.1086426-0.0718384,0.1278687-0.1567383c0.019104-0.0848999,0.1245117-0.5518188,0.1472168-0.652771    c0.0227661-0.1010132,0.0046997-0.2770386-0.0383301-0.444397c-0.045105-0.1757202-0.2250977-0.8427124-0.2250977-0.8427124    l-0.3948975,0.5241089c0,0-0.2650146,1.1726074-0.3067627,1.357605c-0.0418091,0.1849976-0.0169067,0.2749023,0.0747681,0.2814941    C24.8669605,24.6220875,25.1188526,24.6402149,25.1840382,24.6447926z M26.3724537,19.3805103    c-0.0494385-0.0031128-0.4069214-0.0253906-0.4541016-0.0283813c-0.0472412-0.0029297-0.1019897,0.0152588-0.1152344,0.1026001    c-0.0335083,0.1480713-0.3670044,1.6239624-0.3670044,1.6239624s0.9066162-1.2739868,1.0115356-1.4188843    C26.5505543,19.5177784,26.4217091,19.3836231,26.3724537,19.3805103z M16.3463306,14.0681324L9.869524,42.1252022    l32.3347168,3.3707275L48.6135445,15.82094L16.3463306,14.0681324z M38.2314034,18.1637745    c0.190918,0.0113525,0.6544189,0.0386963,0.835144,0.0494385c0.0460815,0.0026855,0.0407104,0.0808105,0.0407104,0.0808105    l-0.4899292,2.2999878l1.24823-1.5211182l0.1726685-0.7236938c0,0,0.0390015-0.0761719,0.0964966-0.0728149    c0.1845093,0.0109253,0.5947266,0.0352173,0.7731323,0.0458374c0.0531006,0.0030518,0.0641479,0.0823975,0.0641479,0.0823975    l-1.9489746,8.8913574c0,0-0.0490112,0.0928345-0.1021118,0.0889282    c-0.1785889-0.0133057-0.5891113-0.0438843-0.7738037-0.0576782c-0.057373-0.0043335-0.0586548-0.100708-0.0586548-0.100708    l1.1016846-5.0784912l-1.2799072,1.6594849c0,0-0.7199097,3.2714844-0.7337036,3.3341675    c-0.0137939,0.0627441-0.0593872,0.1087036-0.1160889,0.1044922c-0.1876831-0.0139771-0.6143799-0.0457764-0.8060303-0.0600586    c-0.0595093-0.0043945-0.0863647-0.0521851-0.0717773-0.1182861s1.9561768-8.8312378,1.9561768-8.8312378    S38.1790352,18.1607227,38.2314034,18.1637745z M34.7671089,17.9586964l2.5314331,0.1497803l-0.0839233,1.8933105    l-1.1292114-0.0703735l-1.5459595,7.0310669c0,0-0.0609131,0.0913086-0.1109009,0.0875244    c-0.1765137-0.0131226-0.5958252-0.0444336-0.7745972-0.0576782c-0.0516357-0.0039063-0.0751343-0.1013184-0.0751343-0.1013184    l1.5689087-7.0181274l-1.1212769-0.0698853L34.7671089,17.9586964z M32.4422188,17.8211231    c1.0046387,0.0594482,1.4858398,0.0879517,1.4858398,0.0879517l-0.0881348,1.8822021c0,0-1.1464844-0.0714722-1.2556763-0.0782471    c-0.1091919-0.0068359-0.2006226,0.0556641-0.234436,0.2072754c-0.0337524,0.1516113-1.0701923,4.7998047-1.1004047,4.9354248    c-0.0302734,0.1356812,0.0085449,0.223999,0.1365967,0.2331543c0.1282349,0.0092163,1.3568134,0.097229,1.442812,0.1033325    c0.0859375,0.0061646,0.1373901,0.1456909,0.0787354,0.2857666c-0.1936035,0.4620361-0.5986938,1.4140015-0.5986938,1.4140015    s-1.7203999-0.1281738-1.8597431-0.1386108c-0.1392822-0.010376-0.534668-0.3458862-0.3809814-1.0337524    c0.0664063-0.296936,1.4619751-6.5438232,1.5410767-6.8977051C31.6882496,18.4680958,32.0236397,17.7962818,32.4422188,17.8211231    z M28.8327198,17.6075001c0.385437,0.0228271,2.1771851,0.1288452,2.1771851,0.1288452L30.918108,19.609087l-1.6106567-0.1004028    l-0.4277954,1.9061279c0,0,0.3789673,0.0249023,0.5053711,0.0332031c0.1265259,0.0083008,0.1340942,0.1720581,0.1228027,0.2849731    c-0.0111694,0.112793-0.0792236,0.7706909-0.0792236,0.7706909l-0.7814941-0.0526733l-0.5391846,2.4031982    c0,0,1.3417969,0.0960693,1.4268188,0.1021729c0.0849609,0.0060425,0.135498,0.1447144,0.0770874,0.2839966    c-0.192688,0.4595337-0.5960083,1.40625-0.5960083,1.40625s-1.7805786-0.1327515-2.1744995-0.1621094    c-0.0491943-0.0037231-0.0568848-0.0988159-0.0568848-0.0988159l1.9575195-8.7064819    C28.7419605,17.6792164,28.78615,17.6046925,28.8327198,17.6075001z M25.5547047,17.3042164    c0.1000366,0.0059204,1.2677002,0.0748291,1.4058228,0.0828857c0.1381226,0.0082397,0.8270264,0.2196045,0.6331177,1.0800781    c-0.1940308,0.8612061-0.2067871,0.9182129-0.2443237,1.0842896c-0.0374146,0.1662598-0.5878906,1.3140259-1.2844849,2.0089111    c0.2282104,0.303894,0.6170044,1.9830322,0.4351196,2.7908936c-0.1421509,0.6312256-0.1575317,0.699646-0.2087402,0.9269409    c-0.0512085,0.227356-0.4793701,1.1295776-1.0786743,1.0848999c-0.5065918-0.0378418-1.4904175-0.111145-1.7791138-0.1326294    c-0.052124-0.0039063-0.0653076-0.098877-0.0653076-0.098877s1.9172363-8.4472656,1.9569092-8.6224976    C25.3646412,17.3340015,25.4547291,17.298296,25.5547047,17.3042164z M21.6866627,21.2704029    c0.03479-0.1530151,0.0701904-0.3233032,0.2079468-0.314209c0.1378174,0.0090332,0.3139038,0.0206299,0.3139038,0.0206299    s1.3651123-1.7711182,0.9102173-1.7994995c-0.4542236-0.0284424-1.3897705-0.086853-1.3897705-0.086853l0.6053467-1.7913818    c0,0,0.0292969-0.0744629,0.0776367-0.0715942c0.3103638,0.0183105,1.4735718,0.0872192,1.6292725,0.0964355    c0.1801147,0.0105591,0.4813232,0.293457,0.394104,0.6782837c-0.0872803,0.3847656-0.3175659,1.4002686-0.3546143,1.5634155    c-0.0369873,0.1630859-0.2610474,0.7106934-0.7893677,1.2631836c-0.1102295,0.1068726-0.1608887,0.3181152-0.0736084,0.3237915    c0.0874023,0.0057983,0.4118042,0.4030762,0.3364258,0.7352905c-0.0753174,0.3322144-0.7510986,3.3126831-0.7980957,3.5197144    c-0.0661011,0.2915039-0.5413208,0.7319946-0.8032227,0.7124634c-0.2266846-0.0168457-1.3419189-0.0999756-1.6350098-0.1217651    c-0.045105-0.003418-0.0592651-0.0980225-0.0592651-0.0980225l0.19104-1.5943604c0,0,1.1424561,0.0817871,1.2999268,0.0929565    c0.1575928,0.0112915,0.3425903-0.100708,0.4006958-0.3560791c0.0579834-0.2554321,0.2785034-1.2260742,0.3314819-1.4594116    c0.0530396-0.2332153,0.0502319-0.5448608-0.2367554-0.56427c-0.2868042-0.0193481-0.7177124-0.0484009-0.7177124-0.0484009    S21.6517506,21.4234791,21.6866627,21.2704029z M18.8051319,17.0897388c0,0,0.045105-0.0731201,0.0913086-0.0703125    c0.1768188,0.010376,0.6212769,0.0368042,0.7896729,0.0466919c0.0413208,0.0025024,0.0635376,0.0795898,0.0635376,0.0795898    l-0.5237427,2.2224121l1.1928101-1.4725952l0.1646118-0.7003174c0,0,0.0424194-0.0734863,0.0911255-0.0706177    c0.171875,0.0102539,0.5800781,0.0343018,0.7433472,0.0440063c0.0431519,0.0026245,0.0397339,0.0784912,0.0397339,0.0784912    l-1.961731,8.5964966c0,0-0.0562744,0.0892334-0.0970459,0.0862427c-0.1594238-0.0119019-0.5447998-0.0407104-0.72052-0.053833    c-0.0510254-0.0037842-0.0570068-0.0974121-0.0570068-0.0974121l1.1176758-4.9094849l-1.2245483,1.6065063    c0,0-0.7243042,3.1630859-0.7382202,3.2238159c-0.013916,0.0606079-0.057312,0.1051025-0.1102905,0.1011963    c-0.1757813-0.0131226-0.5750732-0.0429077-0.7545166-0.0562134c-0.055603-0.0042114-0.0800781-0.050293-0.0654907-0.1141968    C16.8605518,25.5663013,18.8051319,17.0897388,18.8051319,17.0897388z M25.3019581,40.1056099    c-0.0351563,0.1564941-0.1691284,0.2728882-0.2992554,0.2600098l-11.0177612-1.0856323    c-0.1253052-0.0122681-0.1981812-0.1466064-0.1630859-0.2998047l2.1339722-9.3027973    c0.0349121-0.1518555,0.1644897-0.2669067,0.2897339-0.2567749l11.0112915,0.8920898    c0.1300049,0.010498,0.2072754,0.1447754,0.1726074,0.2998047L25.3019581,40.1056099z M40.2235298,38.6076241    c0,0-0.0601807,0.0927734-0.1342773,0.0858765c-1.2056274-0.1124268-10.692934-0.9971924-11.8078022-1.1011963    c-0.0776367-0.0072021-0.0977173-0.1055908-0.0977173-0.1055908l0.310791-1.3934326c0,0,0.0588379-0.0910034,0.1300049-0.0844727    c1.0650024,0.0963745,10.4974995,0.9501953,11.7955341,1.0675659c0.0873413,0.0080566,0.1129761,0.1086426,0.1129761,0.1086426    L40.2235298,38.6076241z M40.8369331,35.7882271c0,0-0.0639038,0.0924683-0.1445923,0.0852661    c-1.2506104-0.1105957-10.6829243-0.9450684-11.7948017-1.043396c-0.0776367-0.006897-0.0977783-0.1047974-0.0977783-0.1047974    l0.3100586-1.3898926c0,0,0.0621948-0.0906982,0.1398315-0.0839844    c1.1117554,0.0952759,10.5427876,0.9038086,11.7932758,1.0109863c0.0806885,0.007019,0.1027222,0.1068115,0.1027222,0.1068115    L40.8369331,35.7882271z M41.4487495,32.9760323c0,0-0.0602417,0.0926514-0.1342163,0.0864868    c-1.2088013-0.1011353-10.7423115-0.8991089-11.8123798-0.9886475c-0.071228-0.0059814-0.0879517-0.1031513-0.0879517-0.1031513    l0.3041382-1.3630371c0,0,0.0620728-0.0905762,0.1397095-0.0842896c1.1143799,0.090332,10.5962543,0.8585205,11.8009052,0.9559937    c0.0740967,0.0060425,0.0924683,0.1051025,0.0924683,0.1051025L41.4487495,32.9760323z M42.517231,27.6529102    c-0.1497803-0.0111084-0.4713135-0.0350952-0.8255005-0.0615234c-0.0606079-0.0045166-0.0881958-0.0527954-0.0736694-0.1195068    c0.3004761-1.3781738,0.6593018-3.0239868,0.6593018-3.0239868l-0.2497559-0.8679199l-0.4099731,0.5388184    c0,0-0.706604,3.2363892-0.7203979,3.2994995c-0.0137939,0.0632324-0.0598145,0.109436-0.1171875,0.1051025    c-0.1901245-0.0140991-0.6221313-0.0462646-0.81604-0.060791c-0.0603027-0.0045166-0.0876465-0.0526123-0.0730591-0.1190796    c0.0144653-0.0665283,0.4573975-2.0903931,0.5986938-2.7363281c0.2033081-0.9293213,0.8820801-1.9064941,1.2536621-2.1782227    c-0.3959961-0.7854004-0.4678955-1.4127808-0.3157959-2.1080933c0.0372314-0.170105,0.0500488-0.2284546,0.243042-1.1105957    c0.1928101-0.8812866,1.1140747-0.8895874,1.2597656-0.8809814c0.145813,0.008606,1.3840942,0.0817261,1.4907227,0.0880127    c0.1065674,0.0062866,0.1837158,0.0532837,0.1444092,0.2341919c-0.2784424,1.2797241-1.9393921,8.9124146-1.9393921,8.9124146    S42.5737495,27.6571217,42.517231,27.6529102z M43.0412178,20.4217091    c-0.0584106-0.0036011-0.5471802-0.0341797-0.6079712-0.0380249c-0.0609131-0.0037842-0.2404175,0.1387939-0.1932983,0.322937    c0.0479126,0.1876831,0.4515991,1.8414917,0.4515991,1.8414917s0.3936768-1.8057861,0.4331665-1.9869995    C43.1558418,20.4552784,43.0996284,20.4253712,43.0412178,20.4217091z"/>
	</g>
</g>
</svg>