<svg enable-background="new 0 0 160 115" height="115" viewBox="0 0 160 115" width="160" xmlns="http://www.w3.org/2000/svg"><script xmlns="" type="text/javascript" charset="utf-8" id="zm-extension"/><g fill="#fff"><path d="m144.5605469 56.8789063-8.9765625-8.9785156c-.5859375-.5859375-1.5351563-.5859375-2.1210938 0s-.5859375 1.5351563 0 2.1210938l6.4160156 6.4179688h-13.28125c-.828125 0-1.5.6699219-1.5 1.5 0 .828125.671875 1.5 1.5 1.5h13.28125l-6.4160156 6.4179688c-.5859375.5859375-.5859375 1.5351563 0 2.1210938.2929688.2929688.6757813.4394531 1.0605469.4394531.3828125 0 .7675781-.1464844 1.0605469-.4394531l8.9765625-8.9785159c.5859375-.5859375.5859375-1.5351562 0-2.1210937z"/><path d="m33.4008789 56.4375h-13.2802734l6.4160156-6.4160156c.5859375-.5859375.5859375-1.5351563 0-2.1210938s-1.5351563-.5859375-2.1210938 0l-8.9765625 8.9765625c-.5859375.5859375-.5859375 1.5351563 0 2.1210938l8.9765625 8.9804688c.2929688.2929688.6767578.4394531 1.0605469.4394531s.7675781-.1464844 1.0605469-.4394531c.5859375-.5859375.5859375-1.5351563.0009766-2.1210938l-6.4169922-6.4199219h13.2802734c.8291016 0 1.5-.671875 1.5-1.5s-.6708984-1.5-1.5-1.5z"/><path d="m69.8222656 979.3621826-4.1894531 8.3828125h-15.0883789c-3.2509766 0-5.8671875 2.6171875-5.8671875 5.8691406v36.8808594c0 3.25 2.6162109 5.8671875 5.8671875 5.8671875h58.6743164c3.2519531 0 5.8671875-2.6171875 5.8671875-5.8671875v-36.8808594c0-3.2519531-2.6152344-5.8691406-5.8671875-5.8691406h-15.0878906l-4.1894531-8.3828125zm10.0585938 17.6054688c8.3339844 0 15.0878906 6.7539063 15.0878906 15.0859375 0 8.3339844-6.7539063 15.0878906-15.0878906 15.0878906-8.3320313 0-15.0878906-6.7539063-15.0878906-15.0878906 0-8.3320313 6.7558593-15.0859375 15.0878906-15.0859375z" transform="translate(0 -952.36218)"/><circle cx="79.8808594" cy="59.6914063" r="11.609375"/></g></svg>