<svg enable-background="new 0 0 27 27" height="27" viewBox="0 0 27 27" width="27" xmlns="http://www.w3.org/2000/svg"><script xmlns="" type="text/javascript" charset="utf-8" id="zm-extension"/><path d="m13.5004883 0c-7.4555664 0-13.5009766 6.043457-13.5009766 13.4990234 0 7.456543 6.0454102 13.5 13.5009766 13.5 7.4550781 0 13.4990234-6.043457 13.4990234-13.5 0-7.4555664-6.0439453-13.4990234-13.4990234-13.4990234" fill="#d3b37c"/><g fill="#fff"><path d="m14.1083984 15.9614258h.6621094l1.0527344-1.5678711h-.659668z"/><path d="m13.2021484 4.6689453c.203125 0 .3686523-.1660156.3686523-.3686523 0-.2036133-.1655273-.3671875-.3686523-.3671875-.2036133 0-.3676758.1635742-.3676758.3671875.0000001.2026367.1640626.3686523.3676758.3686523"/><path d="m12.9619141 5.199707v1.5615235h2.1967773l-.449707-.8017578.449707-.7597657z"/><path d="m15.7412109 13.171875c.2817383-.9130859.434082-1.8867188.434082-2.8969727 0-1.0117188-.1523438-1.9848633-.434082-2.8979492h-5.1005859c.2817383.9130859.4345703 1.8862305.4345703 2.8979492 0 1.0102539-.152832 1.9838867-.4345703 2.8969727z"/><path d="m18.4326172 7.6494141v1.5625h2.1962891l-.4487305-.8027344.4487305-.7597656z"/><path d="m16.1987305 15.9614258 1.0522461-1.5678711h-.6357422l-1.0527344 1.5678711z"/><path d="m21.027832 13.7666016c.137207-.6352539.2104492-1.2954102.2104492-1.9716797 0-.6767578-.0732422-1.3359375-.2104492-1.972168h-3.8735352c.1386719.6362305.2119141 1.2954102.2119141 1.972168 0 .6762695-.0742188 1.3364258-.2119141 1.9716797z"/><path d="m18.7333984 7.1342773c.2036133 0 .3681641-.1650391.3681641-.3671875 0-.2036133-.1645508-.3681641-.3681641-.3681641-.2041016 0-.3681641.1645508-.3681641.3681641.0000001.2021485.1640626.3671875.3681641.3671875"/><path d="m18.4399414 14.3867188h.5976563v1.5732422h-.5976563z"/><path d="m12.8974609 13.7866211h.6044922v2.1748047h-.6044922z"/><path d="m6.921875 15.1533203.4482422-.7597656h-2.1333008v1.5629883h2.1333008z"/><path d="m10.8637695 15.9555664 1.4458008-2.1757812h-.6645508l-1.4448242 2.1757812z"/><path d="m22.4604492 14.3935547h-2.1958008v1.5629883h2.1958008l-.4482422-.8032227z"/><path d="m9.2509766 13.7797852c.137207-.6381836.2104492-1.300293.2104492-1.9794922 0-.6806641-.0732422-1.34375-.2104492-1.9814453h-3.875c.1386719.6376953.2124023 1.3007813.2124023 1.9814453 0 .6791992-.0737305 1.3413086-.2124023 1.9794922z"/><path d="m7.0771484 7.1391602c.203125 0 .3681641-.1645508.3681641-.3676758 0-.2041016-.1650391-.3676758-.3681641-.3676758-.2021484 0-.3686523.1635742-.3686523.3676758 0 .203125.1665039.3676758.3686523.3676758"/><path d="m6.7651367 7.6494141v1.5625h2.1962891l-.4482422-.8027344.4482422-.7597656z"/><path d="m9.4848633 15.9555664 1.3847656-2.1757812h-.6586914l-1.3857422 2.1757812z"/><path d="m18.4375 20.5371094 3.0571289-3.9707031h-15.9648437l.5092773.9321289s1.1635742.7094727 1.3173828 1.3666992c.1103516.4355469-.2294922.6425781-.3442383.6928711l.390625.9790039h5.4946289v1.4160156c-.3066406.1074219-.5341797.4140625-.5341797.7729492 0 .4643555.3759766.8408203.8388672.8408203.4638672 0 .8393555-.3764648.8393555-.8408203 0-.3588867-.2124023-.6655273-.5234375-.7836914v-1.4052734zm-1.2509766-3.3447266h.6254883v.6118164h-.6254883zm-.6113281 1.2265625h.6181641v.6054688h-.6181641zm-.6074219-1.2265625h.6044922v.6118164h-.6044922zm-.6108398 1.2265625h.6181641v.6054688h-.6181641zm-.6088867-1.2265625h.6040039v.6118164h-.6040039zm-6.1469727.0063477h.6152344v.6054688h-.6152344zm1.2338867 1.8300781h-.6186523v-.6108398h.6186523zm.6040039-1.2246094h-.6040039v-.6054688h.6040039zm.619629 1.2246094h-.6054688v-.6108398h.6054688zm.6142578-1.2246094h-.6054688v-.6054688h.6054688z"/></g></svg>