<svg enable-background="new 0 0 18 18" height="18" viewBox="0 0 18 18" width="18" xmlns="http://www.w3.org/2000/svg"><script xmlns="" type="text/javascript" charset="utf-8" id="zm-extension"/><path d="m10.1572266 9 7.6035156-7.6035156c.3193359-.3193359.3193359-.8374023 0-1.1567383-.3203125-.3198242-.8378906-.3198242-1.1572266 0l-7.6035156 7.6040039-7.6035156-7.6040039c-.3193359-.3198242-.8374023-.3198242-1.1567383 0-.3198242.3193359-.3198242.8374023 0 1.1567383l7.6030273 7.6035156-7.6030273 7.6035156c-.3198242.3193359-.3198242.8369141 0 1.1572266.159668.1591797.3691406.2392578.5786133.2392578.2089844 0 .418457-.0800781.578125-.2392578l7.6035156-7.6035156 7.6035156 7.6035156c.1591797.1591797.3691407.2392578.578125.2392578.2099609 0 .4189453-.0800781.5791016-.2392578.3193359-.3203125.3193359-.8378906 0-1.1572266z" fill="#fff"/></svg>