<svg width="93" height="110" xmlns="http://www.w3.org/2000/svg"><script xmlns="" type="text/javascript" charset="utf-8" id="zm-extension"/><g stroke-width="1.5" stroke="#494949" fill="none" fill-rule="evenodd"><path d="M1 1.2v84.5l16.9 14.9h61.5V1.2z"/><path d="M29.8 108.5h61.6V9.2H85"/><path stroke-linejoin="round" d="M17.9 100.6L1 85.7h16.9z"/><path d="M27.9 57.9c0-6.7 5.4-12.1 12.1-12.1 6.7 0 12.1 5.4 12.1 12.1"/><path d="M60.5 60.5h3.9c1 0 1.7-.8 1.7-1.7v-4.7c0-1-.8-1.7-1.7-1.7h-3.9c-.5-2.7-1.6-5.3-3.1-7.5l2.8-2.8c.7-.7.7-1.8 0-2.4l-3.3-3.3c-.7-.7-1.8-.7-2.4 0l-2.8 2.7c-2.2-1.5-4.8-2.6-7.5-3.1v-3.9c0-1-.8-1.7-1.7-1.7h-4.7c-1 0-1.7.8-1.7 1.7V36c-2.7.5-5.3 1.6-7.5 3.1l-2.8-2.8c-.7-.7-1.8-.7-2.4 0l-3.3 3.3c-.7.7-.7 1.8 0 2.4l2.8 2.8c-1.5 2.2-2.6 4.8-3.1 7.5h-3.9c-1 0-1.7.8-1.7 1.7v4.7c0 1 .8 1.7 1.7 1.7h3.9"/></g></svg>