<svg width="98" height="97" xmlns="http://www.w3.org/2000/svg"><script xmlns="" type="text/javascript" charset="utf-8" id="zm-extension"/><g stroke-width="1.5" stroke="#494949" fill="none" fill-rule="evenodd"><path d="M90.4 75.4l6.2-5.4-6.2-5.3M57.1 20.5l-6.2 5.3 6.2 5.4"/><path d="M82.5 82.3C73.9 90.9 62.1 96.2 49 96.2 22.9 96.2 1.7 75 1.7 48.9 1.7 22.8 22.9 1.6 49 1.6c26.1 0 47.3 21.2 47.3 47.3 0 3.6-.4 7.1-1.2 10.5"/><path d="M51.9 25.9c11.9 0 21.5 9.9 21.5 22.2 0 12.3-9.6 22.2-21.5 22.2" stroke-linecap="square"/><path d="M7.4 70.4h40.2m-1.5 0c-11.9 0-21.5-9.9-21.5-22.2 0-12.3 9.6-22.2 21.5-22.2m0 44.4h49.8"/></g></svg>