<svg width="136" height="117" xmlns="http://www.w3.org/2000/svg"><script xmlns="" type="text/javascript" charset="utf-8" id="zm-extension"/><g stroke="#494949" stroke-width="1.5" fill="none" fill-rule="evenodd"><path d="M76.2 90.5H59.7c-9 0-16.2-7.3-16.2-16.2V37.8h49v36.5c-.1 9-7.3 16.2-16.3 16.2zm-14.1 0h11.7v13.2H62.1zm-11.2 13.2h34.5v11.8H50.9zm51 11.8h13.2m-74.8 0h57.1m-64.4 0h4.4"/><path d="M92.4 45.1h5.9v23.2h-5.9zm-54.8 0h5.9v23.2h-5.9zm30.6-24.3V.3M115 52.5h20.5M.8 52.5h20.5m-6.2-39l14.6 14.6m76.9 0l14.7-14.6m0 80l-14.7-14.7m-76.9 0L15.1 93.5"/></g></svg>