<svg width="466" height="466" xmlns="http://www.w3.org/2000/svg"><script xmlns="" type="text/javascript" charset="utf-8" id="zm-extension"/><defs><linearGradient x1="2.407%" y1="46.452%" x2="102.288%" y2="53.656%" id="a"><stop stop-color="#FEDC00" offset="0%"/><stop stop-color="#FEDD00" offset="100%"/></linearGradient></defs><g transform="translate(.626 .626)" fill="none" fill-rule="evenodd"><path d="M12.032 158.169c3.816-11.45 8.563-22.433 13.962-32.95" stroke="#DDD" stroke-width=".737" opacity=".8"/><path d="M388.637 60.806c46.354 42.445 75.488 103.506 75.488 171.269 0 128.172-103.878 232.05-232.05 232.05-128.172 0-232.05-103.878-232.05-232.05 0-17.5 1.954-34.533 5.584-50.915" stroke="#DDD" stroke-width=".737" opacity=".6"/><path d="M114.607 31.951C149.047 11.66 189.257.024 232.075.024c37.79 0 73.44 9.03 104.902 25.04M39.398 102.693A232.303 232.303 0 0 1 77.654 58.85" stroke="#DDD" stroke-width=".737" opacity=".8"/><g fill-rule="nonzero"><path d="M349.822 40.05l-1.582-6.796c-.186-.744.279-1.396 1.024-1.582l6.795-1.583c.744-.186 1.396.28 1.582 1.024l1.582 6.795c.186.745-.279 1.396-1.024 1.583l-6.795 1.582c-.651.093-1.396-.372-1.582-1.024z" fill="#FEDD00"/><path d="M17.919 27.453l-2.048-12.752c-.093-.745.373-1.396 1.117-1.49l12.752-2.047c.745-.093 1.396.372 1.49 1.117l2.047 12.752c.093.745-.372 1.396-1.117 1.49L19.408 28.57c-.651.093-1.303-.372-1.489-1.117z" fill="url(#a)" opacity=".497" transform="translate(348.192 29.537)"/></g><circle fill="#FEDD00" fill-rule="nonzero" cx="82.68" cy="409.766" r="2.886"/><circle fill="#FEDD00" fill-rule="nonzero" cx="96.27" cy="43.679" r="2.048"/></g></svg>