<svg id="Layer_1" xmlns="http://www.w3.org/2000/svg" viewBox="0 0 800 600"><script xmlns="" type="text/javascript" charset="utf-8" id="zm-extension"/><style>.st0,.st1{fill:#fff;stroke:#333;stroke-miterlimit:10}.st1{fill:none;stroke-dasharray:4,4}.st2{fill:#333}.st4{opacity:.15}.st4,.st5,.st6{fill:#ffde00}.st5{opacity:.61}.st6{opacity:.25}.st7{opacity:.12;fill:#333}.st8{fill:#ffde00}</style><circle class="st0" cx="400" cy="300" r="187.4"/><path class="st1" d="M132.2 289.2C137.9 146.2 255.6 32 400 32"/><path class="st2" d="M139.8 287.2L132 300l-7.1-13.1z"/><path class="st1" d="M667.8 310.8C662.1 453.8 544.4 568 400 568"/><path class="st2" d="M660.2 312.8L668 300l7.1 13.1z"/><circle cx="400" cy="300" r="227.3" fill="none" stroke="#333" stroke-miterlimit="10" stroke-dasharray="4"/><path class="st4" d="M595.3 242l19.1-19.1c1.4-1.4 3.7-1.4 5.1 0l19.1 19.1c1.4 1.4 1.4 3.7 0 5.1l-19.1 19.1c-1.4 1.4-3.7 1.4-5.1 0l-19.1-19.1c-1.5-1.4-1.5-3.7 0-5.1z"/><path class="st5" d="M605.2 244.1l11.2-11.2c.2-.2.6-.2.9 0l11.2 11.2c.2.2.2.6 0 .9l-11.2 11.2c-.2.2-.6.2-.9 0L605.2 245c-.2-.3-.2-.7 0-.9z"/><path class="st6" d="M616.2 244.3l15.4-15.4c.6-.6 1.7-.6 2.3 0l15.4 15.4c.6.6.6 1.7 0 2.3L633.9 262c-.6.6-1.7.6-2.3 0l-15.4-15.4c-.6-.6-.6-1.7 0-2.3z"/><path class="st4" d="M284 238.8l16.4-16.4c.5-.5 1.4-.5 2 0l16.4 16.4c.5.5.5 1.4 0 2l-16.4 16.4c-.5.5-1.4.5-2 0L284 240.8c-.5-.6-.5-1.5 0-2z"/><path class="st4" d="M307.4 238.8l10.6-10.6c.5-.5 1.4-.5 2 0l10.6 10.6c.5.5.5 1.4 0 2L320 251.4c-.5.5-1.4.5-2 0l-10.6-10.6c-.5-.6-.5-1.5 0-2zm155.7 113l16.4-16.4c.5-.5 1.4-.5 2 0l16.4 16.4c.5.5.5 1.4 0 2l-16.4 16.4c-.5.5-1.4.5-2 0l-16.4-16.4c-.6-.6-.6-1.4 0-2z"/><path class="st5" d="M256.3 116.7l9.3-9.3c.2-.2.6-.2.9 0l9.3 9.3c.2.2.2.6 0 .9l-9.3 9.3c-.2.2-.6.2-.9 0l-9.3-9.3c-.3-.3-.3-.7 0-.9zm247.4 274.5l9.3-9.3c.2-.2.6-.2.9 0l9.3 9.3c.2.2.2.6 0 .9l-9.3 9.3c-.2.2-.6.2-.9 0l-9.3-9.3c-.2-.2-.2-.6 0-.9zm-307.2-22.4l-16.4 16.4c-.2.2-.6.2-.9 0l-16.4-16.4c-.2-.2-.2-.6 0-.9l16.4-16.4c.2-.2.6-.2.9 0l16.4 16.4c.2.3.2.7 0 .9z"/><path class="st6" d="M182.2 369.5L159.7 392c-.6.6-1.7.6-2.3 0l-22.5-22.5c-.6-.6-.6-1.7 0-2.3l22.5-22.5c.6-.6 1.7-.6 2.3 0l22.5 22.5c.6.7.6 1.7 0 2.3z"/><path class="st5" d="M544.7 490.4l-10.2 10.2c-.2.2-.6.2-.9 0l-10.2-10.2c-.2-.2-.2-.6 0-.9l10.2-10.2c.2-.2.6-.2.9 0l10.2 10.2c.3.3.3.7 0 .9z"/><path class="st6" d="M535.3 491.1l-13.6 13.6c-.6.6-1.7.6-2.3 0l-13.6-13.6c-.6-.6-.6-1.7 0-2.3l13.6-13.6c.6-.6 1.7-.6 2.3 0l13.6 13.6c.6.7.6 1.7 0 2.3zM393 71.6l23.1-23.1c.6-.6 1.7-.6 2.3 0l23.1 23.1c.6.6.6 1.7 0 2.3L418.4 97c-.6.6-1.7.6-2.3 0L393 73.9c-.6-.6-.6-1.7 0-2.3z"/><path class="st4" d="M297.2 519l16.4-16.4c.5-.5 1.4-.5 2 0L332 519c.5.5.5 1.4 0 2l-16.4 16.4c-.5.5-1.4.5-2 0L297.2 521c-.5-.6-.5-1.4 0-2z"/><circle class="st0" cx="584.2" cy="116.3" r="54.7"/><circle class="st0" cx="212.6" cy="487.3" r="54.7"/><path class="st7" d="M190.6 524.5c-1.3 0-2.3-1-2.3-2.3 0-16.9 13.1-30.6 29.1-30.6s29.1 13.7 29.1 30.6c0 1.3-1 2.3-2.3 2.3h-53.6zm25.6-34.5c-9.8 0-17.9-8-17.9-17.9 0-9.8 8-17.9 17.9-17.9 9.8 0 17.9 8 17.9 17.9-.1 9.9-8.1 17.9-17.9 17.9zm346.4-336.3c-1.3 0-2.3-1-2.3-2.3 0-16.9 13.1-30.6 29.1-30.6s29.1 13.7 29.1 30.6c0 1.3-1 2.3-2.3 2.3h-53.6zm25.5-34.5c-9.8 0-17.9-8-17.9-17.9s8-17.9 17.9-17.9c9.8 0 17.9 8 17.9 17.9s-8 17.9-17.9 17.9z"/><path class="st0" d="M212.6 490c-16 0-29 13.7-29 30.6h58c.1-16.9-12.9-30.6-29-30.6z"/><circle class="st0" cx="212.6" cy="470.5" r="16.8"/><path class="st0" d="M584.2 120c-16 0-29 13.3-29 29.7h58c0-16.4-12.9-29.7-29-29.7z"/><circle class="st0" cx="584.2" cy="100.3" r="16.8"/><path class="st7" d="M508.4 312.7c-.7 0-1.3-.2-1.9-.6l-32.8-25.7-88.3-.5c-1.7 0-3-1.4-3-3l.4-79.8c0-.8.3-1.6.9-2.1.6-.6 1.3-.9 2.1-.9l136.8.7c.8 0 1.6.3 2.1.9.6.6.9 1.3.9 2.1l-.4 79.8c0 .8-.3 1.6-.9 2.1-.6.6-1.3.9-2.1.9l-13.4-.1 2.5 22.8c.1 1.2-.5 2.4-1.5 2.9-.4.4-.9.5-1.4.5z"/><path class="st0" d="M516.6 192.3l-.4 79.9-16.8-.1 2.9 26.1-33.6-26.3-89.3-.5.4-79.8z"/><ellipse transform="matrix(.00539 -1 1 .00539 213.694 678.622)" class="st8" cx="448" cy="231.9" rx="4.8" ry="4.8"/><ellipse transform="matrix(.00539 -1 1 .00539 242.831 708.234)" class="st8" cx="477.4" cy="232" rx="4.8" ry="4.8"/><ellipse transform="matrix(.00539 -1 1 .00539 183.617 648.055)" class="st8" cx="417.6" cy="231.7" rx="4.8" ry="4.8"/><path class="st7" d="M303.4 428.8c.7 0 1.3-.2 1.9-.6l32.8-25.7 88.3-.5c1.7 0 3-1.4 3-3l-.4-79.8c0-.8-.3-1.6-.9-2.1-.6-.6-1.3-.9-2.1-.9l-136.8.7c-.8 0-1.6.3-2.1.9-.6.6-.9 1.3-.9 2.1l.4 79.8c0 .8.3 1.6.9 2.1.6.6 1.3.9 2.1.9l13.4-.1-2.5 22.8c-.1 1.2.5 2.4 1.5 2.9.4.4.9.5 1.4.5z"/><path class="st0" d="M293.8 308.7l.5 79.8 16.8-.1-2.9 26.1 33.6-26.3 89.3-.5-.4-79.8z"/><ellipse transform="matrix(1 -.00539 .00539 1 -1.87 1.957)" class="st8" cx="362.5" cy="348.2" rx="4.8" ry="4.8"/><ellipse transform="matrix(1 -.00539 .00539 1 -1.871 1.798)" class="st8" cx="333" cy="348.4" rx="4.8" ry="4.8"/><ellipse transform="matrix(1 -.00539 .00539 1 -1.869 2.12)" class="st8" cx="392.9" cy="348" rx="4.8" ry="4.8"/></svg>