<svg width="83" height="94" xmlns="http://www.w3.org/2000/svg"><script xmlns="" type="text/javascript" charset="utf-8" id="zm-extension"/><defs><linearGradient x1=".176%" y1="50.111%" x2="100.114%" y2="50.111%" id="a"><stop stop-color="#FEDD00" offset="0%"/><stop stop-color="#FEEA65" stop-opacity=".931" offset="32.01%"/><stop stop-color="#FFF8CA" stop-opacity=".859" offset="65.68%"/><stop stop-color="#FFFDF2" stop-opacity=".827" offset="80.81%"/><stop stop-color="#FFFEFA" stop-opacity=".803" offset="89%"/><stop stop-color="#FFF" stop-opacity=".8" offset="100%"/></linearGradient><linearGradient x1="100.02%" y1="49.937%" x2=".082%" y2="49.937%" id="b"><stop stop-color="#FEDD00" offset="0%"/><stop stop-color="#FEEA65" stop-opacity=".931" offset="32.01%"/><stop stop-color="#FFF8CA" stop-opacity=".859" offset="65.68%"/><stop stop-color="#FFFDF2" stop-opacity=".827" offset="80.81%"/><stop stop-color="#FFFEFA" stop-opacity=".803" offset="89%"/><stop stop-color="#FFF" stop-opacity=".8" offset="100%"/></linearGradient></defs><g fill="none" fill-rule="evenodd"><path stroke="#FEDD00" d="M74.8 7.5h-66l6.3 70.7 26.6 7.3h.1l26.7-7.3z"/><path d="M42 38.2H28.5l-.9-10.4H42V17.7H16.5l.2 2.7 2.5 28H42V38.2zm-.2 26.3l-11.3-3.1-.7-8.1H19.7l1.3 16L41.8 75V64.5z" fill="#FEDD00" fill-rule="nonzero"/><path d="M41 38.2H27.5l-.9-10.4H41V17.7H15.5l.2 2.7 2.5 28H41V38.2zm-.2 26.3l-11.3-3.1-.7-8.1H18.7l1.3 16L40.8 75V64.5z" fill="url(#a)" fill-rule="nonzero" transform="translate(1)"/><path d="M41.8 38.2v10.2h12.6l-1.3 13.1-11.3 3.1v10.6l20.8-5.7.2-1.8L65.1 41l.4-2.7H41.8v-.1zm0-20.5v10.1h24.6l.2-2.2.5-5.2.2-2.7H41.8z" fill="#FEDD00" fill-rule="nonzero"/><path d="M40.8 38.2v10.2h12.6l-1.3 13.1-11.3 3.1v10.6l20.8-5.7.2-1.8L64.1 41l.4-2.7H40.8v-.1zm0-20.5v10.1h24.6l.2-2.2.5-5.2.2-2.7H40.8z" fill="url(#b)" fill-rule="nonzero" transform="translate(1)"/><path stroke="#FEDD00" d="M1.4.8l7.4 82.6 33 9.3L75 83.4 82.4.8z"/></g></svg>