<svg width="1326" height="371" xmlns="http://www.w3.org/2000/svg"><script xmlns="" type="text/javascript" charset="utf-8" id="zm-extension"/><g fill="none" fill-rule="evenodd"><path d="M1267.831 183.256h44.406c7.152 0 12.95 5.793 12.95 12.94v155.886c0 7.148-5.798 12.94-12.95 12.94h-63.914c-7.152 0-12.95-5.792-12.95-12.94V222.46" stroke="#FFF" stroke-width="1.2"/><path stroke="#FFF" stroke-width="1.2" d="M1271.5 201.634h49.406v145.21h-81.253V229.618M1269.77 355.328h21.02M1271.79 189.517h16.978"/><path d="M1253.758 191.158c0 8.03-6.516 14.541-14.553 14.541-8.036 0-14.55-6.51-14.55-14.54s6.514-14.54 14.55-14.54c8.037 0 14.553 6.51 14.553 14.54" fill-opacity=".35" fill="#FFF"/><path d="M1265.614 191.245c0 14.564-11.815 26.37-26.39 26.37-14.577 0-26.391-11.806-26.391-26.37 0-14.564 11.814-26.37 26.39-26.37s26.39 11.806 26.39 26.37zM1208.376 193.801c.294 2.35.809 4.7 1.619 6.976M1211.391 176.619c-1.913 3.89-3.016 8.15-3.162 12.41M1229.996 161.417c-6.251 1.91-11.987 5.728-16.031 10.869" stroke="#FFF" stroke-width="1.2"/><path d="M1239.223 176.79c7.99 0 14.466 6.47 14.466 14.455 0 7.983-6.476 14.454-14.466 14.454-7.988 0-14.466-6.471-14.466-14.454 0-7.984 6.478-14.454 14.466-14.454z" stroke="#FFF" stroke-width="1.2"/><path stroke="#FFF" stroke-width="1.2" d="M1232.767 192.714l4.331 3.594 9.562-9.717"/><path fill-opacity=".35" fill="#FFF" d="M1262.006 346.845h-21.318l80.218-124.701v33.14zM1291.076 346.845h-10.796l40.626-63.155v16.783z"/><path stroke="#FFF" stroke-width="1.2" d="M211.304 185.65h5.025v-13.39h-5.025zM220.517 185.65h5.024v-17.646h-5.024zM229.31 185.65h5.025V161.66h-5.025zM221.747 268.558h24.047v-16.672h-24.047z"/><path stroke="#FFF" stroke-width="1.2" d="M245.794 253.357l-12.023 6.866-12.024-6.866"/><path stroke="#FFF" stroke-width="1.2" stroke-linecap="round" stroke-linejoin="round" d="M135.875 190.87v-13.673l14.96-4.925v17.664M135.875 183.397l14.96-4.586"/><path d="M150.791 189.891c.674 1.388-.386 3.29-2.367 4.25-1.98.96-4.132.612-4.806-.777-.673-1.389.387-3.292 2.367-4.25 1.982-.959 4.132-.611 4.806.777zM136.001 191.188c.675 1.388-.386 3.291-2.366 4.25-1.981.96-4.133.612-4.806-.777-.673-1.388.386-3.291 2.367-4.25 1.98-.958 4.132-.61 4.805.777zM1142.303 151.632h17.3M1165.84 151.632a2.08 2.08 0 0 1-4.16 0 2.079 2.079 0 0 1 4.16 0zM1167.92 151.632h7.07M1174.99 158.593h-17.299M1151.453 158.593a2.08 2.08 0 0 1 4.16 0 2.079 2.079 0 0 1-4.16 0zM1149.373 158.593h-7.07" stroke="#FFF" stroke-width="1.2"/><path d="M255.2 266.699c34.057 1.682 68.224 6.81 101.355 13.663 88.747 18.356 175.644 48.241 266.073 54.234 119.557 7.925 237.258-26.26 354.809-49.45 65.782-12.977 134.444-22.239 201.216-19.061" stroke="#FFF" stroke-width=".5"/><path d="M1145.034 205.7a2.729 2.729 0 0 1-2.73 2.727 2.73 2.73 0 0 1-2.732-2.728 2.73 2.73 0 0 1 2.732-2.728c1.507 0 2.73 1.22 2.73 2.728z" stroke="#FFF" stroke-width=".6"/><path d="M1268.246 135.665a6.084 6.084 0 0 1-6.087 6.081 6.084 6.084 0 0 1-6.087-6.081 6.085 6.085 0 0 1 6.087-6.082 6.084 6.084 0 0 1 6.087 6.082z" stroke="#FFF" stroke-width=".9"/><path d="M1216.67 125.455a6.859 6.859 0 0 1-6.86 6.856 6.859 6.859 0 0 1-6.862-6.856 6.859 6.859 0 0 1 6.862-6.855c3.788 0 6.86 3.07 6.86 6.855z" stroke="#FFF" stroke-width="1.2"/><path d="M1216.67 125.455a6.859 6.859 0 0 1-6.86 6.856 6.859 6.859 0 0 1-6.862-6.856 6.859 6.859 0 0 1 6.862-6.855c3.788 0 6.86 3.07 6.86 6.855M179.154 265.215a2.729 2.729 0 0 1-2.73 2.727 2.728 2.728 0 1 1 0-5.455c1.508 0 2.73 1.22 2.73 2.728" fill-opacity=".35" fill="#FFF"/><path d="M223.055 360.852l-23.58-45.73.507-27.17H172.65l-.541 27.391-22.574 45.459c-2.38 5.012.214 9.112 5.766 9.112h62.093c5.553 0 8.099-4.078 5.66-9.062z" stroke="#FFF" stroke-width="1.2"/><path d="M206.013 284.275a3.678 3.678 0 0 1-3.68 3.676h-33.116a3.677 3.677 0 1 1 0-7.353h33.115a3.678 3.678 0 0 1 3.68 3.677z" stroke="#FFF" stroke-width="1.2"/><path d="M197.787 331.717c-2.07-1.993-4.025-3.874-7.984-3.874-3.955 0-5.912 1.88-7.981 3.874-2.113 2.033-4.302 4.139-8.67 4.139-4.37 0-6.556-2.106-8.67-4.14-.023-.022-.046-.042-.067-.065l-14.88 29.151c-2.486 4.537.783 9.11 4.456 9.11h63.402c5.799 0 8.207-4.547 5.662-9.06l-13.178-25.515c-.98.323-2.1.519-3.42.519-4.37 0-6.556-2.106-8.67-4.14" fill-opacity=".35" fill="#FFF"/><path d="M193.51 271.359a2.729 2.729 0 0 1-2.73 2.727 2.728 2.728 0 1 1 0-5.455c1.508 0 2.73 1.22 2.73 2.728zM179.154 265.215a2.729 2.729 0 0 1-2.73 2.727 2.728 2.728 0 1 1 0-5.455c1.508 0 2.73 1.22 2.73 2.728zM186.186 297.882a2.729 2.729 0 0 1-2.73 2.728 2.728 2.728 0 1 1 0-5.456c1.507 0 2.73 1.221 2.73 2.728zM192.69 315.341a2.729 2.729 0 0 1-2.73 2.727 2.728 2.728 0 1 1 0-5.455c1.507 0 2.73 1.22 2.73 2.728zM177.63 225.457a2.729 2.729 0 0 1-2.73 2.727 2.729 2.729 0 1 1 2.73-2.727z" stroke="#FFF" stroke-width=".6"/><path d="M196.813 238.694a6.86 6.86 0 0 1-6.86 6.856 6.86 6.86 0 0 1-6.862-6.856 6.86 6.86 0 0 1 6.861-6.856 6.86 6.86 0 0 1 6.86 6.856z" stroke="#FFF" stroke-width="1.2"/><path d="M196.813 238.694a6.86 6.86 0 0 1-6.86 6.856 6.86 6.86 0 0 1-6.862-6.856 6.86 6.86 0 0 1 6.861-6.856 6.86 6.86 0 0 1 6.86 6.856" fill-opacity=".35" fill="#FFF"/><g fill="#FFF" fill-opacity=".35"><path d="M24.04 262.187v68.374a6.617 6.617 0 0 0 6.616 6.618h11.939v23.1c0 5.32 4.31 9.634 9.632 9.634 5.339 0 9.657-4.317 9.657-9.634v-23.1H76.04v23.1c0 5.32 4.322 9.634 9.643 9.634 5.337 0 9.654-4.317 9.654-9.634v-23.1h11.91a6.61 6.61 0 0 0 6.613-6.618v-68.374c-22.908-.073-69.744-.073-89.82 0M127.6 260.222c-5.335 0-9.653 4.303-9.653 9.632v42.167c0 5.322 4.321 9.635 9.653 9.635 5.333 0 9.643-4.317 9.643-9.635v-42.167c0-5.327-4.314-9.632-9.643-9.632M10.25 260.222c-5.34 0-9.65 4.303-9.65 9.632v42.167c0 5.322 4.314 9.635 9.65 9.635 5.315 0 9.64-4.317 9.64-9.635v-42.167c0-5.327-4.325-9.632-9.64-9.632M89.497 241.846a3.767 3.767 0 0 1-3.775-3.765 3.765 3.765 0 0 1 3.775-3.757 3.755 3.755 0 0 1 3.768 3.757 3.756 3.756 0 0 1-3.768 3.765m-41.011 0a3.77 3.77 0 0 1-3.783-3.765c0-2.076 1.691-3.757 3.783-3.757a3.762 3.762 0 0 1 0 7.522m42.218-19.163l7.578-13.11a1.513 1.513 0 0 0-.563-2.073c-.72-.43-1.658-.17-2.078.556l-7.66 13.254a45.189 45.189 0 0 0-19.03-4.177 45.165 45.165 0 0 0-19.43 4.364l-6.783-13.22a1.526 1.526 0 1 0-2.718 1.387l6.794 13.233c-12.588 7.05-21.52 19.924-23.219 35.001h90.71a46.024 46.024 0 0 0-23.6-35.215"/></g><path d="M24.04 262.187v68.374a6.617 6.617 0 0 0 6.616 6.618h11.939v23.1c0 5.32 4.31 9.634 9.632 9.634 5.339 0 9.657-4.317 9.657-9.634v-23.1H76.04v23.1c0 5.32 4.322 9.634 9.643 9.634 5.337 0 9.654-4.317 9.654-9.634v-23.1h11.91a6.61 6.61 0 0 0 6.613-6.618v-68.374c-22.908-.073-69.744-.073-89.82 0zM127.6 260.222c-5.335 0-9.653 4.303-9.653 9.632v42.167c0 5.322 4.321 9.635 9.653 9.635 5.333 0 9.643-4.317 9.643-9.635v-42.167c0-5.327-4.314-9.632-9.643-9.632zM10.25 260.222c-5.34 0-9.65 4.303-9.65 9.632v42.167c0 5.322 4.314 9.635 9.65 9.635 5.315 0 9.64-4.317 9.64-9.635v-42.167c0-5.327-4.325-9.632-9.64-9.632zM89.497 241.846a3.767 3.767 0 0 1-3.775-3.765 3.765 3.765 0 0 1 3.775-3.757 3.755 3.755 0 0 1 3.768 3.757 3.756 3.756 0 0 1-3.768 3.765zm-41.011 0a3.77 3.77 0 0 1-3.783-3.765c0-2.076 1.691-3.757 3.783-3.757a3.762 3.762 0 0 1 0 7.522zm42.218-19.163l7.578-13.11a1.513 1.513 0 0 0-.563-2.073c-.72-.43-1.658-.17-2.078.556l-7.66 13.254a45.189 45.189 0 0 0-19.03-4.177 45.165 45.165 0 0 0-19.43 4.364l-6.783-13.22a1.526 1.526 0 1 0-2.718 1.387l6.794 13.233c-12.588 7.05-21.52 19.924-23.219 35.001h90.71a46.024 46.024 0 0 0-23.6-35.215zM1207.859 289.093c0 1.817-1.144 3.288-2.555 3.288h-22.99c-1.41 0-2.554-1.471-2.554-3.288 0-1.817 1.143-3.288 2.555-3.288h22.99c1.41 0 2.554 1.471 2.554 3.288z" stroke="#FFF" stroke-width="1.2"/><path d="M1191.842 324.306a2.44 2.44 0 1 1-4.881-.004 2.44 2.44 0 0 1 4.88.004zM1193.205 303.62a2.44 2.44 0 1 1-2.44-2.44 2.44 2.44 0 0 1 2.44 2.44zM1199.902 314.619a2.44 2.44 0 0 1-2.44 2.438 2.439 2.439 0 1 1 0-4.877 2.44 2.44 0 0 1 2.44 2.439z" stroke="#FFF" stroke-width=".6"/><path d="M1203.475 296.985v-4.604M1184.153 296.985v-4.604M1184.144 296.399V316.6c-9.07 3.783-15.444 12.728-15.444 23.161 0 13.858 11.241 25.092 25.11 25.092 13.867 0 25.11-11.234 25.11-25.092 0-10.433-6.375-19.378-15.446-23.16v-20.203" stroke="#FFF" stroke-width="1.2"/><path d="M1168.825 340.057c0 13.788 11.185 24.965 24.984 24.965 13.799 0 24.986-11.177 24.986-24.965h-49.97z" fill-opacity=".35" fill="#FFF"/><path d="M1189.948 269.477v-9.427M1197.672 269.477v-21.51M1209.225 250.95c7.554 0 13.677-6.12 13.677-13.666 0-7.548-6.123-13.667-13.677-13.667-1.998 0-3.89.438-5.601 1.207a10.85 10.85 0 0 0-9.989-6.61c-4.434 0-8.234 2.668-9.917 6.477a13.636 13.636 0 0 0-5.323-1.074c-7.554 0-13.679 6.119-13.679 13.667 0 7.547 6.125 13.667 13.679 13.667M256.59 260.222c0 12.593-10.217 22.801-22.82 22.801s-22.818-10.208-22.818-22.8c0-12.593 10.215-22.803 22.819-22.803 12.602 0 22.819 10.21 22.819 22.802zM1181.466 155.112c0 12.594-10.217 22.802-22.82 22.802s-22.818-10.208-22.818-22.802c0-12.593 10.215-22.801 22.819-22.801 12.602 0 22.819 10.208 22.819 22.8zM165.03 184.126c0 12.593-10.218 22.802-22.82 22.802s-22.82-10.209-22.82-22.802 10.218-22.802 22.82-22.802 22.82 10.21 22.82 22.802zM246.883 174.395c0 12.592-10.216 22.802-22.819 22.802s-22.819-10.21-22.819-22.802c0-12.592 10.216-22.801 22.82-22.801 12.602 0 22.818 10.209 22.818 22.801z" stroke="#FFF" stroke-width="1.2"/><path d="M275.052 231.135c125.358 16.218 234.442 95.288 358.119 121.392 86.252 18.206 178.014 9.394 259.218-24.892 83.016-35.05 154.467-95.539 240.52-122.296" stroke="#FFF" stroke-width=".5"/><g><path fill-opacity=".35" fill="#FFF" d="M906.271 145.42l11.19 11.189-11.19 11.19-11.189-11.19zM359.07 27.253l8.07 8.07-8.07 8.07-8.07-8.07zM635.908 255.198l11.19 11.188-11.19 11.19-11.188-11.19zM424.616 213.322l11.19 11.19-11.19 11.19-11.189-11.19z"/><path stroke="#FFF" stroke-width=".533" d="M812.475.377l7.946 7.947-7.946 7.947-7.947-7.947zM646.8 258.44l7.946 7.946-7.946 7.948-7.947-7.948zM887.136 278.15l7.946 7.945-7.946 7.947-7.947-7.947z"/></g></g></svg>