<svg width="84" height="83" xmlns="http://www.w3.org/2000/svg"><script xmlns="" type="text/javascript" charset="utf-8" id="zm-extension"/><defs><linearGradient x1="73.132%" y1="23.928%" x2="-42.368%" y2="153.976%" id="a"><stop stop-color="#FEDD00" offset="0%"/><stop stop-color="#FEEA65" stop-opacity=".931" offset="32.01%"/><stop stop-color="#FFF8CA" stop-opacity=".859" offset="65.68%"/><stop stop-color="#FFFDF2" stop-opacity=".827" offset="80.81%"/><stop stop-color="#FFFEFA" stop-opacity=".803" offset="89%"/><stop stop-color="#FFF" stop-opacity=".8" offset="100%"/></linearGradient></defs><g fill="none"><path d="M48.6 51.6H28.2c-3 0-4.7 1.8-4.7 4.5 0 2.4 1.6 4 3.9 4 2.7 0 4.2-1.8 4.3-4.5h5.9c-.3 6.4-4.3 9.9-10.3 9.9-5.6 0-9.8-3.8-9.8-9.5 0-5.9 4.4-10 11-10h20.2c6.8 0 12-5 12-11.8 0-6.8-4.6-11.6-11.2-11.6-6.5 0-11.8 4.8-11.8 13.6V42h-6v-5.8c0-11.7 7.5-19.3 17.9-19.3 9.9 0 17.2 7.1 17.2 17.2s-7.7 17.5-18.2 17.5zM41.7 83c23.2 0 41.5-18.4 41.5-41.5S64.9 0 41.7 0 .2 18.4.2 41.5 18.5 83 41.7 83z" fill="#FEDD00"/><path d="M48.6 51.6H28.2c-3 0-4.7 1.8-4.7 4.5 0 2.4 1.6 4 3.9 4 2.7 0 4.2-1.8 4.3-4.5h5.9c-.3 6.4-4.3 9.9-10.3 9.9-5.6 0-9.8-3.8-9.8-9.5 0-5.9 4.4-10 11-10h20.2c6.8 0 12-5 12-11.8 0-6.8-4.6-11.6-11.2-11.6-6.5 0-11.8 4.8-11.8 13.6V42h-6v-5.8c0-11.7 7.5-19.3 17.9-19.3 9.9 0 17.2 7.1 17.2 17.2s-7.7 17.5-18.2 17.5zM41.7 83c23.2 0 41.5-18.4 41.5-41.5S64.9 0 41.7 0 .2 18.4.2 41.5 18.5 83 41.7 83z" fill="url(#a)"/></g></svg>