<svg width="538" height="537" xmlns="http://www.w3.org/2000/svg"><script xmlns="" type="text/javascript" charset="utf-8" id="zm-extension"/><defs><linearGradient x1="10.585%" y1="77.05%" x2="80.385%" y2="28.974%" id="a"><stop stop-color="#FEDC00" offset="0%"/><stop stop-color="#FEDD00" offset="100%"/></linearGradient><linearGradient x1="4.643%" y1="60.189%" x2="99.676%" y2="38.397%" id="b"><stop stop-color="#FEDD00" offset="0%"/><stop stop-color="#FEDD00" offset="100%"/></linearGradient></defs><g transform="translate(.374 .374)" fill="none" fill-rule="evenodd"><path d="M154.412 509.256C63.407 466.776.254 374.366.254 267.238.254 119.773 119.761.254 267.212.254c147.451 0 266.958 119.519 266.958 266.984 0 33.256-6.054 65.115-17.232 94.46" stroke="#DDD" stroke-width=".737" opacity=".25"/><path d="M292.734 533.01c-8.383.839-16.952 1.211-25.522 1.211-32.601 0-63.805-5.868-92.68-16.488M497.75 401.94c-23.846 40.71-58.124 74.525-99.201 97.72" stroke="#DDD" stroke-width=".737" opacity=".3"/><g fill-rule="nonzero"><path d="M21.658 14.326L28.923 2.68c.932-1.49 2.795-1.863 4.285-1.024l11.643 7.266c1.49.931 1.863 2.794 1.025 4.285l-7.265 11.644c-.932 1.49-2.795 1.863-4.285 1.025L22.683 18.61c-1.49-.932-1.956-2.795-1.025-4.285z" fill="url(#a)" opacity=".402" transform="translate(325.38 500.706)"/><path d="M326.08 519.969l11.085-17.7a3.177 3.177 0 0 1 4.378-1.025l17.698 11.086a3.178 3.178 0 0 1 1.024 4.378l-11.084 17.7a3.177 3.177 0 0 1-4.378 1.024l-17.698-11.085a3.178 3.178 0 0 1-1.024-4.378z" fill="#FEDD00" opacity=".299"/><path d="M9.549 17.959l4.937-7.825c.652-1.025 1.956-1.304 2.98-.652l7.825 4.937c1.024.652 1.304 1.956.652 2.98l-4.937 7.826c-.652 1.025-1.956 1.304-2.98.652L10.2 20.94c-.932-.652-1.21-1.956-.652-2.981z" fill="url(#b)" transform="translate(325.38 500.706)"/></g><ellipse fill="#FEDD00" fill-rule="nonzero" cx="533.797" cy="250.656" rx="3.074" ry="3.074"/></g></svg>