<svg id="Layer_1" xmlns="http://www.w3.org/2000/svg" viewBox="0 0 800 600"><script xmlns="" type="text/javascript" charset="utf-8" id="zm-extension"/><style>.st1{fill:#fff;stroke:#333;stroke-miterlimit:10}.st2{opacity:5.000000e-02;fill:#333}.st3{fill:none;stroke:#333;stroke-miterlimit:10}.st5{opacity:.15}.st5,.st6,.st7{fill:#ffde00}.st6{opacity:.61}.st7{opacity:.25}.st8{opacity:.12;fill:#333}</style><circle cx="379.2" cy="306.7" r="241.8" fill="none" stroke="#333" stroke-miterlimit="10" stroke-dasharray="4"/><ellipse transform="rotate(-71.79 569.26 156.945)" class="st1" cx="569.2" cy="156.9" rx="93.3" ry="93.3"/><path class="st2" d="M569.6 51.6C511.3 51.6 464 98.8 464 157.1s47.3 105.5 105.5 105.5c58.3 0 105.5-47.3 105.5-105.5.1-58.3-47.1-105.5-105.4-105.5zm0 198.6c-51.4 0-93.1-41.7-93.1-93.1 0-51.4 41.7-93.1 93.1-93.1 51.4 0 93.1 41.7 93.1 93.1 0 51.4-41.7 93.1-93.1 93.1z"/><path class="st3" d="M536.4 136.4h20.7v50.1h-20.7z"/><path d="M614.8 143.8c-.3-2.9-2.9-5.1-5.9-5.1H578c5.6-3.7 8.5-15 8.5-15 1-6.3-1.4-9.2-3.9-10.6-2.2-1.2-4.9-.2-6 2-5.1 10.5-19.6 23.6-19.6 23.6v45.2h44.5c3 0 5.5-2.5 5.4-5.5 0-2.3-1.5-4.1-3.3-4.6-.4-.1-.2-.7.2-.7 2.4.3 5.7-1.4 6-4.2.4-4.4-1.1-7.3-5.1-7.3h1.2c3.2 0 5.8-2.6 5.8-5.8 0-3.2-1.9-5.9-5.1-5.9h2.5c3.4.1 6-2.7 5.7-6.1z" fill="none" stroke="#333" stroke-linejoin="round" stroke-miterlimit="10"/><path class="st5" d="M240.2 138.5l19.5-19.5c.5-.5 1.4-.5 2 0l19.5 19.5c.5.5.5 1.4 0 2L261.7 160c-.5.5-1.4.5-2 0l-19.5-19.5c-.5-.5-.5-1.4 0-2z"/><circle class="st1" cx="379.2" cy="306.7" r="200.4"/><path class="st5" d="M419.1 150.8l13.7-13.7c1.4-1.4 3.7-1.4 5.1 0l13.7 13.7c1.4 1.4 1.4 3.7 0 5.1l-13.7 13.7c-1.4 1.4-3.7 1.4-5.1 0l-13.7-13.7c-1.4-1.4-1.4-3.7 0-5.1z"/><path class="st6" d="M426.4 152.9l8.5-8.5c.2-.2.6-.2.9 0l8.5 8.5c.2.2.2.6 0 .9l-8.5 8.5c-.2.2-.6.2-.9 0l-8.5-8.5c-.3-.3-.3-.7 0-.9z"/><path class="st7" d="M435.1 152.9l11.5-11.5c.6-.6 1.7-.6 2.3 0l11.5 11.5c.6.6.6 1.7 0 2.3l-11.5 11.5c-.6.6-1.7.6-2.3 0l-11.5-11.5c-.7-.6-.7-1.7 0-2.3z"/><path class="st5" d="M206.6 243.6l-31.4 29.8c-1.4 1.4-3.7 1.3-5.1-.1l-29.8-31.4c-1.4-1.4-1.3-3.7.1-5.1l31.4-29.8c1.4-1.4 3.7-1.3 5.1.1l29.8 31.4c1.4 1.4 1.4 3.7-.1 5.1z"/><path class="st6" d="M191 241l-17.4 16.5c-.2.2-.6.2-.9 0l-16.5-17.4c-.2-.2-.2-.6 0-.9l17.4-16.5c.2-.2.6-.2.9 0l16.5 17.4c.2.3.2.7 0 .9z"/><path class="st7" d="M175.2 239.9l-24.4 23.2c-.6.6-1.7.6-2.3-.1l-23.2-24.4c-.6-.6-.6-1.7.1-2.3l24.4-23.2c.6-.6 1.7-.6 2.3.1l23.2 24.4c.6.7.5 1.7-.1 2.3zm52.1 90.2l14.8-14.8c.6-.6 1.7-.6 2.3 0l14.8 14.8c.6.6.6 1.7 0 2.3l-14.8 14.8c-.6.6-1.7.6-2.3 0l-14.8-14.8c-.6-.6-.6-1.7 0-2.3z"/><path class="st8" d="M332.2 423.6c-2.8 0-5-2.1-5-4.7v-3.2c0-.3-.3-.6-.6-.6h-3.3c-3.7 0-6.6-2.8-6.6-6.2V229.6c0-3.4 3-6.2 6.6-6.2h135.1c3.7 0 6.6 2.8 6.6 6.2v179.3c0 3.4-3 6.2-6.6 6.2-2.2 0-3.9 1.7-3.9 3.7v.1c0 2.6-2.3 4.8-5 4.8H332.2z"/><path class="st1" d="M453.8 412H305.6c-2.2 0-4-1.8-4-4V213.9c0-2.2 1.8-4 4-4h148.2c2.2 0 4 1.8 4 4V408c0 2.2-1.8 4-4 4z"/><path class="st3" d="M444.5 405.7H314.9c-2.2 0-4-1.8-4-4V220.2c0-2.2 1.8-4 4-4h129.5c2.2 0 4 1.8 4 4v181.5c.1 2.2-1.7 4-3.9 4z"/><path class="st8" d="M449.9 410.3H316.1c-2.2 0-4-1.8-4-4V220.2c0-2.2 1.8-4 4-4h133.8c2.2 0 4 1.8 4 4v186.1c0 2.2-1.8 4-4 4z"/><path class="st1" d="M320.9 405.7v6.1c0 1.7 1.4 3.1 3.1 3.1h111.5c1.7 0 3.1-1.4 3.1-3.1v-6.1H320.9z"/><path class="st8" d="M416.8 232.8h-67.5c-.6 0-1-.4-1-1v-22.4c0-.6.4-1 1-1h67.5c.6 0 1 .4 1 1v22.4c0 .6-.5 1-1 1zm-95.9 172.9h117.7v5.3H320.9z"/><ellipse transform="rotate(-71.79 199.491 455.873)" class="st1" cx="199.5" cy="455.9" rx="50.5" ry="50.5"/><path class="st5" d="M601.7 342.2l15.6-15.6c.5-.5 1.4-.5 2 0l15.6 15.6c.5.5.5 1.4 0 2l-15.6 15.6c-.5.5-1.4.5-2 0l-15.6-15.6c-.6-.6-.6-1.5 0-2zm-105.8-41.4l10.6-10.6c.5-.5 1.4-.5 2 0l10.6 10.6c.5.5.5 1.4 0 2l-10.6 10.6c-.5.5-1.4.5-2 0l-10.6-10.6c-.5-.6-.5-1.4 0-2z"/><path class="st6" d="M506.9 436.9l16.7-16.7c.2-.2.6-.2.9 0l16.7 16.7c.2.2.2.6 0 .9l-16.7 16.7c-.2.2-.6.2-.9 0l-16.7-16.7c-.3-.2-.3-.6 0-.9z"/><path class="st7" d="M521.5 436.2l23.1-23.1c.6-.6 1.7-.6 2.3 0l23.1 23.1c.6.6.6 1.7 0 2.3l-23.1 23.1c-.6.6-1.7.6-2.3 0l-23.1-23.1c-.6-.6-.6-1.7 0-2.3z"/><path class="st2" d="M199.5 398.2c-31.8 0-57.6 25.8-57.6 57.6s25.8 57.6 57.6 57.6 57.6-25.8 57.6-57.6-25.8-57.6-57.6-57.6zm0 108.5c-28.1 0-50.9-22.8-50.9-50.9 0-28.1 22.8-50.9 50.9-50.9 28.1 0 50.9 22.8 50.9 50.9-.1 28.1-22.8 50.9-50.9 50.9z"/><path d="M338.9 470.8l8.9-8.9c.2-.2.6-.2.9 0l8.9 8.9c.2.2.2.6 0 .9l-8.9 8.9c-.2.2-.6.2-.9 0l-8.9-8.9c-.2-.3-.2-.6 0-.9z" opacity=".65" fill="#ffde00"/><path d="M214.7 480.9c-1.2.9-2.6 1.4-4.2 1.4-3.8 0-6.8-3.1-6.8-6.8 0-3.8 3.1-6.8 6.8-6.8s6.8 3.1 6.8 6.8c0 .4 0 .7-.1 1.1M188 463.4c-3.8 0-6.8-3.1-6.8-6.8s3.1-6.8 6.8-6.8 6.8 3.1 6.8 6.8c0 2.1-1 4-2.4 5.2m16.1-19c-1.2 1-2.7 1.6-4.4 1.6-3.8 0-6.8-3.1-6.8-6.8 0-3.8 3.1-6.8 6.8-6.8s6.8 3.1 6.8 6.8c0 .4 0 .9-.1 1.3m-38.6 36.6h26.4m18.8 0h7.6m-52.4-19.2h8.5m17.1 0h6m4.2 0h16.2m-52.8-18.7h21.3m17.9 0h13.6" fill="none" stroke="#3f3f3f" stroke-linecap="square" stroke-linejoin="round" stroke-miterlimit="10"/><path class="st1" d="M444.5 405.7H314.9c-2.2 0-4-1.8-4-4V220.2c0-2.2 1.8-4 4-4h129.5c2.2 0 4 1.8 4 4v181.5c.1 2.2-1.7 4-3.9 4z"/><path class="st3" d="M332.6 333.9h94.6m-94.6 17.9h94.6m-94.6 18h84"/><circle class="st8" cx="382.1" cy="284.1" r="26"/><circle class="st1" cx="379.5" cy="281.6" r="24.7"/><path opacity=".61" fill="none" stroke="#ffde00" stroke-width="3" stroke-miterlimit="10" d="M368.3 284.2l6.9 5.7 15.6-15.5"/><path class="st1" d="M413.5 229.2H346c-.6 0-1-.4-1-1v-21c0-.6.4-1 1-1h67.5c.6 0 1 .4 1 1v21c0 .6-.5 1-1 1z"/><path class="st3" d="M355.4 198.3h48.5v8h-48.5zm1.5 15.7h45.6"/></svg>