<svg width="89" height="89" xmlns="http://www.w3.org/2000/svg"><script xmlns="" type="text/javascript" charset="utf-8" id="zm-extension"/><defs><linearGradient x1="91.517%" y1="17.822%" x2="-127.233%" y2="195.262%" id="a"><stop stop-color="#FEDD00" offset="0%"/><stop stop-color="#FEEA65" stop-opacity=".931" offset="32.01%"/><stop stop-color="#FFF8CA" stop-opacity=".859" offset="65.68%"/><stop stop-color="#FFFDF2" stop-opacity=".827" offset="80.81%"/><stop stop-color="#FFFEFA" stop-opacity=".803" offset="89%"/><stop stop-color="#FFF" stop-opacity=".8" offset="100%"/></linearGradient></defs><g fill="none" fill-rule="evenodd"><path stroke="#FEDD00" d="M7.1 7.1h75.3v75.3H7.1z"/><path stroke="#FEDD00" d="M1.2 1.2h87.2v87.2H1.2z"/><path d="M56.3 57.1c-2.3 0-5.3-1-6.8-1.9l-1.4 5.6c1.9 1 4.9 1.8 8.2 1.8 7.2 0 11-3.5 11-8.2-.1-3.7-2.1-6.2-6.9-7.8-3.1-1.1-4.1-1.7-4.1-2.9 0-1.3 1.1-2.1 3-2.1 2.2 0 4.3.8 5.5 1.5l1.4-5.4c-1.6-.8-4.2-1.4-7.1-1.4-6.3 0-10.3 3.6-10.3 8.3-.1 3 2 5.8 7.2 7.6 2.9 1 3.7 1.6 3.7 2.9 0 1.2-1 2-3.4 2zM30 49.6c.7.1 1.7.1 2.7.1 4.7 0 8.6-1.1 11.3-3.7 2.1-2 3.2-4.9 3.2-8.3 0-3.4-1.5-6.3-3.7-8.1-2.3-1.9-5.8-2.8-10.6-2.8s-8.2.3-10.6.7v34.4h7.8V49.6H30zm0-16.4c.6-.2 1.6-.3 3.2-.3 3.9 0 6.2 1.9 6.2 5.1 0 3.6-2.6 5.7-6.8 5.7-1.1 0-1.9 0-2.6-.2V33.2z" fill="#FEDD00" fill-rule="nonzero"/><path d="M55.3 56.1c-2.3 0-5.3-1-6.8-1.9l-1.4 5.6c1.9 1 4.9 1.8 8.2 1.8 7.2 0 11-3.5 11-8.2-.1-3.7-2.1-6.2-6.9-7.8-3.1-1.1-4.1-1.7-4.1-2.9 0-1.3 1.1-2.1 3-2.1 2.2 0 4.3.8 5.5 1.5l1.4-5.4c-1.6-.8-4.2-1.4-7.1-1.4-6.3 0-10.3 3.6-10.3 8.3-.1 3 2 5.8 7.2 7.6 2.9 1 3.7 1.6 3.7 2.9 0 1.2-1 2-3.4 2z" fill="url(#a)" fill-rule="nonzero" transform="translate(1 1)"/><path d="M30 49.6c.7.1 1.7.1 2.7.1 4.7 0 8.6-1.1 11.3-3.7 2.1-2 3.2-4.9 3.2-8.3 0-3.4-1.5-6.3-3.7-8.1-2.3-1.9-5.8-2.8-10.6-2.8s-8.2.3-10.6.7v34.4h7.8V49.6H30zm0-16.4c.6-.2 1.6-.3 3.2-.3 3.9 0 6.2 1.9 6.2 5.1 0 3.6-2.6 5.7-6.8 5.7-1.1 0-1.9 0-2.6-.2V33.2z" fill="#FDDF16" fill-rule="nonzero"/></g></svg>