<svg width="602" height="602" xmlns="http://www.w3.org/2000/svg"><script xmlns="" type="text/javascript" charset="utf-8" id="zm-extension"/><g transform="translate(1 1)" fill="none" fill-rule="evenodd" opacity=".3"><path d="M535.528 114.13C575.87 165.186 600 229.752 600 300c0 165.652-134.348 300-300 300S0 465.652 0 300c0-30.839 4.658-60.559 13.23-88.51M437.143 33.168c30.652 15.838 58.323 36.708 81.708 61.677M272.143 1.304C281.366.466 290.59 0 300 0c33.26 0 65.217 5.404 95.124 15.373M45 141.894c27.764-44.72 66.988-81.521 113.478-106.49" stroke="#DDD" stroke-width=".737" opacity=".4"/><circle fill="#FEDD00" fill-rule="nonzero" cx="21.522" cy="413.385" r="2.888"/><circle fill="#FEDD00" fill-rule="nonzero" cx="578.478" cy="413.385" r="2.888"/><circle fill="#FEDD00" fill-rule="nonzero" cx="208.975" cy="15.652" r="3.075"/><g fill-rule="nonzero" fill="#FEDD00"><path d="M24.34 183.077l-4.155-13.972c-.277-1.031.277-2.063 1.2-2.344l13.76-4.22c1.015-.281 2.031.281 2.308 1.22l4.156 13.971c.277 1.032-.277 2.063-1.2 2.345l-13.76 4.22c-1.016.375-2.032-.282-2.309-1.22z" opacity=".52"/><path d="M20.37 189.923l-2.77-9.471c-.186-.75.184-1.5.923-1.688l9.326-2.813c.74-.188 1.478.187 1.663.937l2.77 9.472c.185.75-.185 1.5-.924 1.687l-9.326 2.814c-.74.187-1.478-.282-1.663-.938z"/></g></g></svg>