<svg id="Layer_1" xmlns="http://www.w3.org/2000/svg" viewBox="0 0 800 600"><script xmlns="" type="text/javascript" charset="utf-8" id="zm-extension"/><style>.st0{opacity:.15}.st0,.st1,.st2{fill:#ffde00}.st1{opacity:.61}.st2{opacity:.25}.st3{fill:#fff;stroke:#333;stroke-miterlimit:10}.st5{opacity:8.000000e-02;fill:#333}.st6{fill:none;stroke:#333;stroke-miterlimit:10;stroke-dasharray:4,4}.st7{fill:#333}.st8{fill:none;stroke:#333;stroke-miterlimit:10}.st9{opacity:.17;fill:#333}</style><path class="st0" d="M516.6 86L538 64.6c1.4-1.4 3.7-1.4 5.1 0L564.6 86c1.4 1.4 1.4 3.7 0 5.1l-21.4 21.4c-1.4 1.4-3.7 1.4-5.1 0l-21.4-21.4c-1.5-1.4-1.5-3.7-.1-5.1z"/><path class="st1" d="M527.8 88.1l12.4-12.4c.2-.2.6-.2.9 0l12.4 12.4c.2.2.2.6 0 .9L541 101.4c-.2.2-.6.2-.9 0L527.8 89c-.3-.2-.3-.6 0-.9z"/><path class="st2" d="M539.7 88.4l17.1-17.1c.6-.6 1.7-.6 2.3 0l17.1 17.1c.6.6.6 1.7 0 2.3l-17.1 17.1c-.6.6-1.7.6-2.3 0l-17.1-17.1c-.6-.6-.6-1.6 0-2.3z"/><path class="st0" d="M165.2 265.2l31.6-31.6c1.4-1.4 3.7-1.4 5.1 0l31.6 31.6c1.4 1.4 1.4 3.7 0 5.1l-31.6 31.6c-1.4 1.4-3.7 1.4-5.1 0l-31.6-31.6c-1.4-1.4-1.4-3.7 0-5.1z"/><path class="st1" d="M181.4 267.3l17.5-17.5c.2-.2.6-.2.9 0l17.5 17.5c.2.2.2.6 0 .9l-17.5 17.5c-.2.2-.6.2-.9 0l-17.5-17.5c-.2-.3-.2-.7 0-.9z"/><path class="st2" d="M197.6 268l24.5-24.5c.6-.6 1.7-.6 2.3 0l24.5 24.5c.6.6.6 1.7 0 2.3l-24.5 24.5c-.6.6-1.7.6-2.3 0l-24.5-24.5c-.6-.7-.6-1.7 0-2.3z"/><circle class="st3" cx="412.3" cy="300" r="184.4"/><path d="M412.3 214.9c-52.2 0-94.5 42.3-94.5 94.5s42.3 94.5 94.5 94.5 94.5-42.3 94.5-94.5-42.3-94.5-94.5-94.5zm0 171.9c-42.7 0-77.3-34.6-77.3-77.3s34.6-77.3 77.3-77.3 77.3 34.6 77.3 77.3-34.6 77.3-77.3 77.3z" opacity=".05" fill="#333"/><path class="st5" d="M412.3 227.4c-45.3 0-82.1 36.7-82.1 82.1s36.7 82.1 82.1 82.1c45.3 0 82.1-36.7 82.1-82.1s-36.8-82.1-82.1-82.1zm0 159.4c-42.7 0-77.3-34.6-77.3-77.3s34.6-77.3 77.3-77.3 77.3 34.6 77.3 77.3-34.6 77.3-77.3 77.3z"/><path class="st5" d="M426.2 300.7l38.8-24.8c-11.1-17.4-30.5-28.9-52.7-28.9v46c5.8 0 10.9 3.1 13.9 7.7z"/><path class="st6" d="M479.3 538.5c-128.6 36.2-263.4-36.3-303.5-164.6"/><path class="st7" d="M476.5 534l9.7 2.5-7 7.1z"/><path class="st6" d="M345.3 61.5c128.6-36.2 263.4 36.3 303.5 164.6"/><path class="st7" d="M348.1 66l-9.7-2.5 6.9-7.1z"/><circle class="st3" cx="646.8" cy="466" r="71.3"/><circle class="st3" cx="153.2" cy="136.5" r="71.3"/><path class="st8" d="M668.2 463.5c-.1-9.9 8.1-14.7 8.5-14.9-4.6-6.7-11.8-7.7-14.3-7.8-6.1-.6-11.9 3.6-15 3.6-3.1 0-7.9-3.5-12.9-3.4-6.7.1-12.8 3.9-16.2 9.8-6.9 12-1.8 29.8 5 39.5 3.3 4.8 7.2 10.1 12.4 9.9 5-.2 6.8-3.2 12.8-3.2 6 0 7.7 3.2 12.9 3.1 5.3-.1 8.7-4.9 12-9.6 3.8-5.5 5.3-10.9 5.4-11.2-.2 0-10.5-3.9-10.6-15.8zm-9.9-29.1c2.7-3.3 4.6-7.9 4.1-12.5-3.9.2-8.7 2.6-11.5 5.9-2.5 2.9-4.8 7.6-4.2 12.1 4.4.4 8.9-2.2 11.6-5.5zM119.6 122.6h-.2c-2.8 0-5.1 2.3-5.1 5.1V150c0 2.8 2.3 5.1 5.1 5.1h.2c2.8 0 5.1-2.3 5.1-5.1v-22.3c0-2.7-2.3-5.1-5.1-5.1zm9.9 36.1c0 2.6 2.1 4.7 4.7 4.7h5v12.1c0 2.8 2.3 5.1 5.1 5.1h.2c2.8 0 5.1-2.3 5.1-5.1v-12.1h7.1v12.1c0 2.8 2.3 5.1 5.1 5.1h.2c2.8 0 5.1-2.3 5.1-5.1v-12.1h5c2.6 0 4.7-2.1 4.7-4.7v-35.3h-47.5v35.3zm57.6-36.1h-.2c-2.8 0-5.1 2.3-5.1 5.1V150c0 2.8 2.3 5.1 5.1 5.1h.2c2.8 0 5.1-2.3 5.1-5.1v-22.3c0-2.7-2.3-5.1-5.1-5.1zm-22-22.8l4-6.2c.2-.4.1-.9-.3-1.2-.4-.3-.9-.2-1.2.3l-4.2 6.4c-3.1-1.3-6.6-2-10.2-2-3.7 0-7.2.7-10.3 2l-4.1-6.4c-.2-.4-.8-.5-1.2-.3-.4.3-.5.8-.3 1.2l4 6.2c-7.2 3.5-12.1 10.2-12.1 17.9 0 .5 0 .9.1 1.4H177c0-.5.1-.9.1-1.4.1-7.7-4.8-14.4-12-17.9zm-22.9 11.1c-1.3 0-2.3-1-2.3-2.3 0-1.3 1-2.3 2.3-2.3s2.3 1 2.3 2.3c0 1.2-1.1 2.3-2.3 2.3zm22.1 0c-1.3 0-2.3-1-2.3-2.3 0-1.3 1-2.3 2.3-2.3 1.3 0 2.3 1 2.3 2.3 0 1.2-1 2.3-2.3 2.3z"/><circle class="st8" cx="412.3" cy="309.4" r="108.9"/><circle class="st8" cx="412.3" cy="309.4" r="16.4"/><path class="st9" d="M412.3 290.1c-10.7 0-19.4 8.7-19.4 19.4s8.7 19.4 19.4 19.4 19.4-8.7 19.4-19.4c-.1-10.8-8.7-19.4-19.4-19.4zm0 36.4c-9.4 0-17-7.6-17-17s7.6-17 17-17 17 7.6 17 17c0 9.3-7.6 17-17 17z"/><circle class="st7" cx="412.3" cy="309.4" r="7.9"/><path class="st8" d="M439.6 192.1h-54.7c-.6 0-1-.4-1-1v-15.5c0-.6.4-1 1-1h54.7c.6 0 1 .4 1 1v15.5c0 .5-.4 1-1 1zm-9.5-17.7h-35.6v-6.9c0-2.1 1.7-3.9 3.9-3.9h27.8c2.1 0 3.9 1.7 3.9 3.9v6.9z"/><circle class="st8" cx="412.3" cy="309.4" r="77.3"/><path class="st8" d="M412.3 222.6v9.5m61.4 15.9l-6.7 6.7m32.1 54.7h-9.5m-15.9 61.4l-6.7-6.7m-54.7 32.2v-9.5m-61.4-16l6.7-6.7m-32.1-54.7h9.4m16-61.4l6.7 6.7"/><ellipse transform="rotate(-67.846 412.238 309.423)" class="st8" cx="412.3" cy="309.4" rx="77.3" ry="77.3"/><path class="st8" d="M445 229l-3.6 8.8m50.9 37.9l-8.8 3.7m9.2 62.8l-8.8-3.6M446 389.4l-3.7-8.7m-62.8 9.1l3.6-8.7m-50.8-38l8.7-3.6m-9.1-62.8l8.8 3.6m37.9-50.9l3.7 8.8"/><ellipse transform="rotate(-56.267 412.295 309.445)" class="st8" cx="412.3" cy="309.4" rx="77.3" ry="77.3"/><path class="st8" d="M460.5 237.2l-5.3 7.9m42.2 47.4l-9.3 1.8m-3.6 63.3l-7.9-5.2m-47.4 42.2l-1.8-9.3m-63.3-3.7l5.2-7.9m-42.2-47.3l9.3-1.9m3.7-63.3l7.9 5.3m47.3-42.2l1.9 9.3"/><ellipse transform="rotate(-33.757 412.296 309.426)" class="st8" cx="412.3" cy="309.4" rx="77.3" ry="77.3"/><path class="st8" d="M484.5 261.2l-7.9 5.3m20.8 59.9l-9.3-1.9m-27.6 57.1l-5.3-7.9m-59.8 20.9l1.8-9.3m-57.1-27.6l7.9-5.3m-20.9-59.9l9.3 1.9m27.6-57.2l5.3 7.9m59.9-20.8l-1.9 9.3m-31.2 37l1.8 4.3m30.4-4.3l-1.8 4.2m24.6 18.5l-4.3 1.8m4.3 30.3l-4.2-1.7m-18.5 24.5l-1.7-4.2m-30.4 4.3l1.7-4.3m-24.5-18.4l4.2-1.8m-4.3-30.4l4.3 1.8"/><ellipse transform="rotate(-44.846 412.268 309.434)" class="st8" cx="412.3" cy="309.4" rx="42.2" ry="42.2"/><path class="st8" d="M382.6 279.6l3.3 3.3m26.5-15.5v4.6m29.7 7.8l-3.3 3.2m15.5 26.5h-4.6m-7.8 29.7l-3.2-3.2m-26.5 15.4v-4.5m-29.7-7.8l3.2-3.3m-15.4-26.5h4.6"/><circle class="st7" cx="412.3" cy="240.1" r="2"/><circle class="st7" cx="412.3" cy="254.4" r="1.6"/><ellipse transform="rotate(-45.001 461.302 260.41)" class="st7" cx="461.3" cy="260.4" rx="2" ry="2"/><ellipse transform="rotate(-45.001 451.166 270.546)" class="st7" cx="451.2" cy="270.5" rx="1.6" ry="1.6"/><circle class="st7" cx="481.6" cy="309.4" r="2"/><circle class="st7" cx="467.3" cy="309.4" r="1.6"/><ellipse transform="rotate(-45.001 461.301 358.467)" class="st7" cx="461.3" cy="358.5" rx="2" ry="2"/><ellipse transform="rotate(-45.001 451.165 348.331)" class="st7" cx="451.2" cy="348.3" rx="1.6" ry="1.6"/><circle class="st7" cx="412.3" cy="378.8" r="2"/><circle class="st7" cx="412.3" cy="364.4" r="1.6"/><ellipse transform="rotate(-45.001 363.244 358.466)" class="st7" cx="363.2" cy="358.5" rx="2" ry="2"/><ellipse transform="rotate(-45.001 373.38 348.33)" class="st7" cx="373.4" cy="348.3" rx="1.6" ry="1.6"/><circle class="st7" cx="342.9" cy="309.4" r="2"/><circle class="st7" cx="357.3" cy="309.4" r="1.6"/><ellipse transform="rotate(-45.001 363.245 260.409)" class="st7" cx="363.2" cy="260.4" rx="2" ry="2"/><ellipse transform="rotate(-45.001 373.381 270.545)" class="st7" cx="373.4" cy="270.5" rx="1.6" ry="1.6"/><path class="st8" d="M412.3 200.5c6 0 11.9.5 17.6 1.4V192h-35.2v9.9c5.7-.9 11.6-1.4 17.6-1.4z"/><path class="st5" d="M412.3 200.5c6 0 11.9.5 17.6 1.4V192h-35.2v9.9c5.7-.9 11.6-1.4 17.6-1.4z"/><path class="st9" d="M412.3 195.3c6 0 11.9.2 17.6.5v-3.7h-35.2v3.7c5.7-.4 11.6-.5 17.6-.5z"/><path d="M427.9 299.4c12-7.7 24-15.4 36.1-23m-79.1 50.5c3.9-2.5 7.9-5 11.8-7.5" fill="none" stroke="#333" stroke-width="3" stroke-linecap="square" stroke-miterlimit="10"/><path class="st8" d="M390.3 174.5v17.7m8.8-17.4v17.3m8.8-17.7v17.7m8.8-17.7v17.7m8.8-17.7v17.7m8.8-17.7v17.7"/><path class="st0" d="M292.6 213.9l16.1-16.1c.5-.5 1.4-.5 2 0l16.1 16.1c.5.5.5 1.4 0 2L310.6 232c-.5.5-1.4.5-2 0l-16.1-16.1c-.5-.5-.5-1.4.1-2z"/><path class="st1" d="M293.8 403.5l9.2-9.2c.2-.2.6-.2.9 0l9.2 9.2c.2.2.2.6 0 .9l-9.2 9.2c-.2.2-.6.2-.9 0l-9.2-9.2c-.2-.3-.2-.7 0-.9zm260.4-124.7l9.2-9.2c.2-.2.6-.2.9 0l9.2 9.2c.2.2.2.6 0 .9l-9.2 9.2c-.2.2-.6.2-.9 0l-9.2-9.2c-.3-.3-.3-.6 0-.9zm62.6-104.9l9.2-9.2c.2-.2.6-.2.9 0l9.2 9.2c.2.2.2.6 0 .9l-9.2 9.2c-.2.2-.6.2-.9 0l-9.2-9.2c-.2-.2-.2-.6 0-.9z"/><path class="st2" d="M197.6 469.8l24.5-24.5c.6-.6 1.7-.6 2.3 0l24.5 24.5c.6.6.6 1.7 0 2.3l-24.5 24.5c-.6.6-1.7.6-2.3 0l-24.5-24.5c-.6-.7-.6-1.7 0-2.3zm322.3-228.9l15.3-15.3c.6-.6 1.7-.6 2.3 0l15.3 15.3c.6.6.6 1.7 0 2.3l-15.3 15.3c-.6.6-1.7.6-2.3 0l-15.3-15.3c-.6-.6-.6-1.6 0-2.3z"/></svg>