<svg width="98" height="98" xmlns="http://www.w3.org/2000/svg"><script xmlns="" type="text/javascript" charset="utf-8" id="zm-extension"/><defs><linearGradient x1="127.827%" y1="-9.009%" x2="5.151%" y2="126.431%" id="a"><stop stop-color="#FEDD00" offset="0%"/><stop stop-color="#FEEA65" stop-opacity=".931" offset="32.01%"/><stop stop-color="#FFF8CA" stop-opacity=".859" offset="65.68%"/><stop stop-color="#FFFDF2" stop-opacity=".827" offset="80.81%"/><stop stop-color="#FFFEFA" stop-opacity=".803" offset="89%"/><stop stop-color="#FFF" stop-opacity=".8" offset="100%"/></linearGradient><linearGradient x1="91.857%" y1="10.64%" x2="-13.574%" y2="120.015%" id="b"><stop stop-color="#FEDD00" offset="0%"/><stop stop-color="#FEEA65" stop-opacity=".931" offset="32.01%"/><stop stop-color="#FFF8CA" stop-opacity=".859" offset="65.68%"/><stop stop-color="#FFFDF2" stop-opacity=".827" offset="80.81%"/><stop stop-color="#FFFEFA" stop-opacity=".803" offset="89%"/><stop stop-color="#FFF" stop-opacity=".8" offset="100%"/></linearGradient></defs><g fill="none" fill-rule="evenodd"><path stroke="#FEDD00" d="M.9.9h95.8v95.8H.9z"/><path d="M26.1 80.9l7.3-4.4c1.4 2.5 2.7 4.6 5.8 4.6 3 0 4.8-1.2 4.8-5.7V44.8h9v30.7c0 9.3-5.5 13.6-13.4 13.6-7.2 0-11.4-3.7-13.5-8.2m31.8-.9l7.3-4.2c1.9 3.2 4.4 5.5 8.9 5.5 3.7 0 6.1-1.9 6.1-4.4 0-3.1-2.4-4.2-6.6-6l-2.2-1c-6.5-2.8-10.8-6.2-10.8-13.6 0-6.7 5.1-11.9 13.2-11.9 5.7 0 9.8 2 12.8 7.2l-7 4.5c-1.5-2.8-3.2-3.9-5.8-3.9-2.6 0-4.3 1.7-4.3 3.9 0 2.7 1.7 3.8 5.5 5.5l2.2 1c7.6 3.3 12 6.6 12 14.1 0 8.1-6.4 12.5-14.9 12.5-8.3-.1-13.7-4-16.4-9.2" fill="#FEDD00" fill-rule="nonzero"/><path d="M26.1 80.9l7.3-4.4c1.4 2.5 2.7 4.6 5.8 4.6 3 0 4.8-1.2 4.8-5.7V44.8h9v30.7c0 9.3-5.5 13.6-13.4 13.6-7.2 0-11.4-3.7-13.5-8.2" fill="url(#a)" fill-rule="nonzero"/><path d="M57.9 80l7.3-4.2c1.9 3.2 4.4 5.5 8.9 5.5 3.7 0 6.1-1.9 6.1-4.4 0-3.1-2.4-4.2-6.6-6l-2.2-1c-6.5-2.8-10.8-6.2-10.8-13.6 0-6.7 5.1-11.9 13.2-11.9 5.7 0 9.8 2 12.8 7.2l-7 4.5c-1.5-2.8-3.2-3.9-5.8-3.9-2.6 0-4.3 1.7-4.3 3.9 0 2.7 1.7 3.8 5.5 5.5l2.2 1c7.6 3.3 12 6.6 12 14.1 0 8.1-6.4 12.5-14.9 12.5-8.3-.1-13.7-4-16.4-9.2" fill="url(#b)" fill-rule="nonzero"/></g></svg>