<svg id="Layer_1" xmlns="http://www.w3.org/2000/svg" viewBox="0 0 800 600"><script xmlns="" type="text/javascript" charset="utf-8" id="zm-extension"/><style>.st1{opacity:.15}.st1,.st2,.st3{fill:#ffde00}.st2{opacity:.61}.st3{opacity:.25}.st4,.st5{fill:#fff;stroke:#333;stroke-miterlimit:10}.st5{fill:none;stroke-dasharray:4,4}.st6,.st9{fill:#333}.st9{opacity:.12}.st10{fill:#fff;stroke:#000}</style><path d="M202.1 247.3l8.2-8.2c.2-.2.6-.2.9 0l8.2 8.2c.2.2.2.6 0 .9l-8.2 8.2c-.2.2-.6.2-.9 0l-8.2-8.2c-.2-.3-.2-.6 0-.9z" opacity=".65" fill="#ffde00"/><path class="st1" d="M539 136.6l14-14c1.4-1.4 3.7-1.4 5.1 0l14 14c1.4 1.4 1.4 3.7 0 5.1l-14 14c-1.4 1.4-3.7 1.4-5.1 0l-14-14c-1.4-1.4-1.4-3.7 0-5.1z"/><path class="st2" d="M546.5 138.7l8.7-8.7c.2-.2.6-.2.9 0l8.7 8.7c.2.2.2.6 0 .9l-8.7 8.7c-.2.2-.6.2-.9 0l-8.7-8.7c-.3-.2-.3-.6 0-.9z"/><path class="st3" d="M555.3 138.8l11.7-11.7c.6-.6 1.7-.6 2.3 0l11.7 11.7c.6.6.6 1.7 0 2.3l-11.7 11.7c-.6.6-1.7.6-2.3 0L555.3 141c-.7-.6-.7-1.6 0-2.2z"/><circle class="st4" cx="400.9" cy="300.7" r="166.2"/><circle class="st4" cx="400.9" cy="300.7" r="99.7"/><path class="st5" d="M457.1 516.9c-114.7 29.9-233.8-35.2-269.5-149.6"/><path class="st6" d="M453 510.2l14.5 3.7-10.4 10.7z"/><path class="st5" d="M344.6 84.5c114.7-29.9 233.8 35.2 269.5 149.6"/><path class="st6" d="M348.7 91.2l-14.5-3.7 10.5-10.7z"/><path class="st4" d="M525.2 422.5c.6 1.4 1.2 2.8 1.9 4.1l-8.4 6.3 7.7 10.3 8.4-6.3c4.5 4.4 10.1 7.8 16.4 9.7l-1.5 10.3 12.7 1.8 1.5-10.3c6.6-.1 12.9-1.8 18.5-4.7l6.3 8.4 10.3-7.7-6.3-8.4c4.4-4.5 7.8-10.1 9.7-16.4l10.3 1.5 1.8-12.7-10.3-1.5c-.1-6.6-1.8-12.9-4.8-18.5l8.4-6.3-7.7-10.3-8.4 6.3c-4.5-4.4-10.1-7.8-16.4-9.7l1.5-10.3-12.7-1.8"/><path class="st4" d="M568.3 386.8c10.6 2.5 17.7 12.8 16.2 23.8-1.7 11.7-12.5 19.8-24.2 18.2-6.1-.9-11.2-4.2-14.5-8.9m72.2-55.4l9.4-2.1-1.7-7.6c4.6-1.8 8.6-4.6 11.7-8.2l6.6 4.2 5.2-8.1-6.6-4.2c1.9-4.3 2.8-9.1 2.5-14.1l7.6-1.7-2.1-9.4-7.6 1.7c-1.8-4.6-4.6-8.6-8.2-11.7l4.2-6.6-8.1-5.2-4.2 6.6c-4.3-1.9-9.1-2.8-14-2.5L611 288l-9.4 2.1 1.7 7.6c-4.6 1.8-8.6 4.6-11.7 8.2l-6.6-4.2-5.2 8.1 6.6 4.2c-1.9 4.3-2.8 9.1-2.5 14l-7.6 1.7 2.1 9.4 7.6-1.7c1.8 4.6 4.6 8.6 8.1 11.7l-4.2 6.6 8.1 5.2 4.2-6.6c4.3 1.9 9.1 2.8 14 2.5l1.8 7.7z"/><ellipse transform="rotate(-12.366 614.677 326.353)" class="st4" cx="614.6" cy="326.3" rx="16" ry="16"/><path class="st1" d="M335 516.3l14.3-14.3c.5-.5 1.4-.5 2 0l14.3 14.3c.5.5.5 1.4 0 2l-14.3 14.3c-.5.5-1.4.5-2 0L335 518.3c-.5-.6-.5-1.4 0-2zm-44.5-393.8l9.7-9.7c.5-.5 1.4-.5 2 0l9.7 9.7c.5.5.5 1.4 0 2l-9.7 9.7c-.5.5-1.4.5-2 0l-9.7-9.7c-.5-.6-.5-1.5 0-2z"/><path class="st3" d="M427.7 79.7l12.2-12.2c.6-.6 1.7-.6 2.3 0l12.2 12.2c.6.6.6 1.7 0 2.3l-12.2 12.2c-.6.6-1.7.6-2.3 0L427.7 82c-.6-.7-.6-1.7 0-2.3z"/><path class="st2" d="M200.9 445.3l15.5-15.5c.2-.2.6-.2.9 0l15.5 15.5c.2.2.2.6 0 .9l-15.5 15.5c-.2.2-.6.2-.9 0l-15.5-15.5c-.2-.3-.2-.7 0-.9z"/><path class="st3" d="M214.5 444.6l21.2-21.2c.6-.6 1.7-.6 2.3 0l21.2 21.2c.6.6.6 1.7 0 2.3L238 468.1c-.6.6-1.7.6-2.3 0l-21.2-21.2c-.6-.7-.6-1.7 0-2.3z"/><path class="st2" d="M523.8 219.4l-7.3 7.3c-.2.2-.6.2-.9 0l-7.3-7.3c-.2-.2-.2-.6 0-.9l7.3-7.3c.2-.2.6-.2.9 0l7.3 7.3c.2.3.2.7 0 .9z"/><path class="st3" d="M516.6 220.1l-9.4 9.4c-.6.6-1.7.6-2.3 0l-9.4-9.4c-.6-.6-.6-1.7 0-2.3l9.4-9.4c.6-.6 1.7-.6 2.3 0l9.4 9.4c.7.7.7 1.7 0 2.3zm-368.9 68.2l20.2-20.2c.6-.6 1.7-.6 2.3 0l20.2 20.2c.6.6.6 1.7 0 2.3l-20.2 20.2c-.6.6-1.7.6-2.3 0l-20.2-20.2c-.6-.7-.6-1.7 0-2.3z"/><path d="M400.9 187.7c-62.4 0-113 50.6-113 113s50.6 113 113 113 113-50.6 113-113-50.6-113-113-113zm0 212.7c-55.1 0-99.7-44.6-99.7-99.7s44.6-99.7 99.7-99.7 99.7 44.6 99.7 99.7-44.7 99.7-99.7 99.7z" opacity=".05" fill="#333"/><path d="M400.9 195.5c-58.1 0-105.2 47.1-105.2 105.2s47.1 105.2 105.2 105.2 105.2-47.1 105.2-105.2S459 195.5 400.9 195.5zm0 204.4c-54.8 0-99.2-44.4-99.2-99.2s44.4-99.2 99.2-99.2 99.2 44.4 99.2 99.2-44.5 99.2-99.2 99.2z" opacity=".08" fill="#333"/><path class="st9" d="M447.9 347l-16.3-18.7c-2.7-3.1-7.1-3.9-10.7-1.9l-6.5 3.6c-2.6 1.4-5.8.8-7.6-1.5-7.9-9.8-14.1-20.8-18.6-33.2-1.1-3.1.2-6.6 3.1-8.2l5.3-2.9c3.6-2 5.3-6.2 4.1-10.1l-7.3-23.7c-1.4-4.5-6.5-6.5-10.6-4.2-8.5 4.1-14.9 10.2-19.2 18.1-7.6 20.3 2.1 43.5 11.1 60.1 9.5 17.6 27.2 38.3 46.1 41.3 8.5.2 16.9-1.7 25.2-7.3 4-2.4 5-7.9 1.9-11.4z"/><path class="st4" d="M445.5 340l-16.1-18.6c-2.7-3.1-7.1-3.8-10.6-1.9l-6.5 3.6c-2.5 1.4-5.7.8-7.5-1.4-7.9-9.7-14-20.6-18.4-32.9-1.1-3.1.2-6.6 3.1-8.2l5.2-2.9c3.5-2 5.2-6.1 4-10l-7.3-23.5c-1.4-4.4-6.4-6.5-10.5-4.2-8.4 4.1-14.7 10.1-19 17.9-7.5 20.1 2.1 43.1 11 59.5 9.4 17.5 27 37.9 45.7 40.9 8.4.2 16.7-1.7 24.9-7.3 4.1-2.1 5.1-7.5 2-11z"/><ellipse transform="rotate(-71.79 224.812 156.088)" class="st4" cx="224.8" cy="156.1" rx="70.8" ry="70.8"/><path class="st9" d="M184.7 188.7c-2 0-3.6-1.6-3.6-3.6v-7.7c0-1 .4-1.9 1-2.6l13.1-13.3c4.7-4.8 6.6-7 7.3-7.9 1-1.3 1.7-2.4 2.1-3.4.4-.9.5-1.8.5-2.7 0-.6-.1-1.6-.5-2-.2-.2-.7-.6-2.2-.6-1.5 0-2.9.3-4.3 1-1.6.8-3.4 2-5.2 3.5-.7.6-1.5.8-2.3.8-1 0-2.1-.4-2.8-1.3l-6-7.1c-1.3-1.5-1.1-3.8.4-5.1 2.8-2.4 5.1-4 7-5.1 2-1 4.1-1.9 6.4-2.4 2.3-.6 4.8-.8 7.6-.8 3.8 0 7.2.7 10.2 2.1 3.1 1.5 5.6 3.6 7.3 6.3 1.8 2.7 2.7 5.9 2.7 9.3 0 2.9-.5 5.6-1.5 8.1-1 2.4-2.5 4.9-4.5 7.4-1.9 2.4-5.1 5.6-9.8 9.9l-.6.5h14.2c2 0 3.6 1.6 3.6 3.6v9.3c0 2-1.6 3.6-3.6 3.6h-36.5z"/><path class="st10" d="M219 182h-36.5v-7.7l13.1-13.3c3.9-4 6.4-6.7 7.6-8.3 1.2-1.5 2-3 2.6-4.3.5-1.3.8-2.7.8-4.1 0-2.1-.6-3.7-1.7-4.7-1.2-1-2.7-1.5-4.6-1.5-2 0-4 .5-5.9 1.4-1.9.9-3.9 2.3-6 4l-6-7.1c2.6-2.2 4.7-3.7 6.4-4.6 1.7-.9 3.5-1.6 5.5-2.1s4.2-.7 6.7-.7c3.3 0 6.1.6 8.6 1.8 2.5 1.2 4.4 2.9 5.8 5 1.4 2.1 2.1 4.6 2.1 7.4 0 2.4-.4 4.7-1.3 6.8-.8 2.1-2.2 4.3-3.9 6.5-1.8 2.2-4.9 5.4-9.4 9.5l-6.7 6.3v.5H219v9.2z"/><path class="st9" d="M250.8 188.7c-2 0-3.6-1.6-3.6-3.6v-7.2h-18.7c-2 0-3.6-1.6-3.6-3.6v-7.7c0-.7.2-1.4.6-2l22.9-33.7c.7-1 1.8-1.6 3-1.6h10.2c2 0 3.6 1.6 3.6 3.6V162h2.7c2 0 3.6 1.6 3.6 3.6v8.6c0 2-1.6 3.6-3.6 3.6h-2.7v7.2c0 2-1.6 3.6-3.6 3.6h-10.8zm-3.6-26.7v-3.3L245 162h2.2z"/><path class="st10" d="M265.6 171.1h-6.3V182h-10.8v-10.8h-22.3v-7.7l22.9-33.7h10.2v32.8h6.3v8.5zm-17.1-8.5v-8.9c0-1.5.1-3.6.2-6.4.1-2.8.2-4.4.3-4.9h-.3c-.9 2-1.9 3.9-3.2 5.7l-9.6 14.5h12.6z"/></svg>