<svg width="105" height="82" xmlns="http://www.w3.org/2000/svg"><script xmlns="" type="text/javascript" charset="utf-8" id="zm-extension"/><defs><linearGradient x1="-.026%" y1="49.99%" x2="100.154%" y2="49.99%" id="a"><stop stop-color="#FEDD00" offset="0%"/><stop stop-color="#FEEA65" stop-opacity=".931" offset="32.01%"/><stop stop-color="#FFF8CA" stop-opacity=".859" offset="65.68%"/><stop stop-color="#FFFDF2" stop-opacity=".827" offset="80.81%"/><stop stop-color="#FFFEFA" stop-opacity=".803" offset="89%"/><stop stop-color="#FFF" stop-opacity=".8" offset="100%"/></linearGradient><linearGradient x1=".337%" y1="49.995%" x2="99.722%" y2="49.995%" id="b"><stop stop-color="#FEDD00" offset="0%"/><stop stop-color="#FEEA65" stop-opacity=".931" offset="32.01%"/><stop stop-color="#FFF8CA" stop-opacity=".859" offset="65.68%"/><stop stop-color="#FFFDF2" stop-opacity=".827" offset="80.81%"/><stop stop-color="#FFFEFA" stop-opacity=".803" offset="89%"/><stop stop-color="#FFF" stop-opacity=".8" offset="100%"/></linearGradient><linearGradient x1=".381%" y1="49.981%" x2="99.767%" y2="49.981%" id="c"><stop stop-color="#FEDD00" offset="0%"/><stop stop-color="#FEEA65" stop-opacity=".931" offset="32.01%"/><stop stop-color="#FFF8CA" stop-opacity=".859" offset="65.68%"/><stop stop-color="#FFFDF2" stop-opacity=".827" offset="80.81%"/><stop stop-color="#FFFEFA" stop-opacity=".803" offset="89%"/><stop stop-color="#FFF" stop-opacity=".8" offset="100%"/></linearGradient><linearGradient x1="-.206%" y1="50.071%" x2="99.974%" y2="50.071%" id="d"><stop stop-color="#FEDD00" offset="0%"/><stop stop-color="#FEEA65" stop-opacity=".931" offset="32.01%"/><stop stop-color="#FFF8CA" stop-opacity=".859" offset="65.68%"/><stop stop-color="#FFFDF2" stop-opacity=".827" offset="80.81%"/><stop stop-color="#FFFEFA" stop-opacity=".803" offset="89%"/><stop stop-color="#FFF" stop-opacity=".8" offset="100%"/></linearGradient><linearGradient x1=".427%" y1="49.812%" x2="100.442%" y2="49.812%" id="e"><stop stop-color="#FEDD00" offset="0%"/><stop stop-color="#FEEA65" stop-opacity=".931" offset="32.01%"/><stop stop-color="#FFF8CA" stop-opacity=".859" offset="65.68%"/><stop stop-color="#FFFDF2" stop-opacity=".827" offset="80.81%"/><stop stop-color="#FFFEFA" stop-opacity=".803" offset="89%"/><stop stop-color="#FFF" stop-opacity=".8" offset="100%"/></linearGradient></defs><g fill="none"><path d="M15.1 26.2l-9.5 4 8.7 3.8 10.2-3.8zm-.8 10.5L.8 31.3.5 49.7l13.9 6zm2.5-.6l12.5-4.8v17.6L16.8 54zm28.9-10.5l-9.5 4 8.8 3.8 10.2-3.8zM45 36.1l-13.6-5.4-.3 18.4 13.9 6zm2.5-.6L60 30.7v17.6l-12.6 5.1zM89.9.3l-9.5 4.1 8.8 3.8 10.2-3.8zm-.7 10.6L75.6 5.5l-.3 18.4 13.9 6zm2.5-.6l12.5-4.8v17.6l-12.6 5.1zm-61 42.1l-9.4 4 8.7 3.8 10.2-3.8zM30 62.9l-13.5-5.4-.3 18.4 13.8 6zm2.5-.6L45 57.5v17.6l-12.5 5.1zM60 .3l-9.5 4.1 8.8 3.7 10.1-3.7zm-1.1 10.5l-12.2-5v18.3l11.9 3.4zm3.2.8l11.1-4.8v17.7L62 29.6z" fill="#FEDD00"/><path fill="url(#a)" d="M16.8 36.1l12.5-4.8v17.6L16.8 54z"/><path fill="url(#b)" d="M47.5 35.5L60 30.7v17.6l-12.6 5.1z"/><path fill="url(#c)" d="M91.7 10.3l12.5-4.8v17.6l-12.6 5.1z"/><path fill="url(#d)" d="M32.5 62.3L45 57.5v17.6l-12.5 5.1z"/><path fill="url(#e)" d="M62.1 11.6l11.1-4.8v17.7L62 29.6z"/></g></svg>