<svg width="67" height="90" xmlns="http://www.w3.org/2000/svg"><script xmlns="" type="text/javascript" charset="utf-8" id="zm-extension"/><defs><linearGradient x1="61.255%" y1="91.156%" x2="31.044%" y2="2.13%" id="a"><stop stop-color="#FEDD00" offset="0%"/><stop stop-color="#FEEA65" stop-opacity=".931" offset="32.01%"/><stop stop-color="#FFF8CA" stop-opacity=".859" offset="65.68%"/><stop stop-color="#FFFDF2" stop-opacity=".827" offset="80.81%"/><stop stop-color="#FFFEFA" stop-opacity=".803" offset="89%"/><stop stop-color="#FFF" stop-opacity=".8" offset="100%"/></linearGradient></defs><g fill="none"><path d="M66.8 33.7C66.8 15.4 52 .6 33.7.6S.6 15.4.6 33.7v41.6c3.7 0 6.6 3 6.6 6.6 0 2.3-1.2 4.4-3 5.5C6 89 8.4 89.9 11 89.9c5.8 0 10.5-4.7 10.5-10.5V33.5c0-6.7 5.5-12.2 12.2-12.2 6.7 0 12.2 5.5 12.2 12.2 0 6.7-5.5 12.2-12.2 12.2-5.7.1-10.3 4.7-10.3 10.5 0 5.7 4.6 10.4 10.3 10.5 18.3.1 33.1-14.8 33.1-33zM33.7 63a6.7 6.7 0 1 1 0-13.4 6.7 6.7 0 0 1 0 13.4z" fill="#FEDD00"/><path d="M66.8 33.7C66.8 15.4 52 .6 33.7.6S.6 15.4.6 33.7v41.6c3.7 0 6.6 3 6.6 6.6 0 2.3-1.2 4.4-3 5.5C6 89 8.4 89.9 11 89.9c5.8 0 10.5-4.7 10.5-10.5V33.5c0-6.7 5.5-12.2 12.2-12.2 6.7 0 12.2 5.5 12.2 12.2 0 6.7-5.5 12.2-12.2 12.2-5.7.1-10.3 4.7-10.3 10.5 0 5.7 4.6 10.4 10.3 10.5 18.3.1 33.1-14.8 33.1-33zM33.7 63a6.7 6.7 0 1 1 0-13.4 6.7 6.7 0 0 1 0 13.4z" fill="url(#a)"/></g></svg>