<svg width="77" height="94" xmlns="http://www.w3.org/2000/svg"><script xmlns="" type="text/javascript" charset="utf-8" id="zm-extension"/><path d="M63.8 50.3c-.1-11.6 9.5-17.2 9.9-17.5-5.4-7.9-13.8-9-16.8-9.1-7.2-.7-14 4.2-17.6 4.2-3.6 0-9.2-4.1-15.2-4-7.8.1-15 4.5-19 11.5C-3 49.5 3 70.3 10.9 81.7c3.9 5.6 8.5 11.9 14.5 11.6 5.8-.2 8-3.8 15.1-3.8 7 0 9 3.8 15.2 3.7 6.3-.1 10.2-5.7 14.1-11.3 4.4-6.5 6.3-12.8 6.4-13.1-.2.1-12.3-4.6-12.4-18.5zM52.2 16.1c3.2-3.9 5.4-9.3 4.8-14.7-4.6.2-10.2 3.1-13.5 7-3 3.4-5.6 8.9-4.9 14.2 5.1.5 10.4-2.6 13.6-6.5z" stroke="#FEDD00" fill="none"/></svg>