<svg width="77" height="82" xmlns="http://www.w3.org/2000/svg"><script xmlns="" type="text/javascript" charset="utf-8" id="zm-extension"/><defs><linearGradient x1="61.236%" y1="3.042%" x2="29.476%" y2="96.908%" id="a"><stop stop-color="#FEDD00" offset="0%"/><stop stop-color="#FEE539" stop-opacity=".959" offset="17.19%"/><stop stop-color="#FFF2A0" stop-opacity=".882" offset="49.47%"/><stop stop-color="#FFFBE1" stop-opacity=".829" offset="71.91%"/><stop stop-color="#FFFEFA" stop-opacity=".803" offset="82.43%"/><stop stop-color="#FFF" stop-opacity=".8" offset="100%"/></linearGradient><linearGradient x1="15.852%" y1="106.148%" x2="100.318%" y2="8.734%" id="b"><stop stop-color="#FEDD00" offset="0%"/><stop stop-color="#FEDE0B" stop-opacity=".974" offset="8.567%"/><stop stop-color="#FEE227" stop-opacity=".93" offset="23.4%"/><stop stop-color="#FEE855" stop-opacity=".872" offset="42.71%"/><stop stop-color="#FFF194" stop-opacity=".803" offset="65.77%"/><stop stop-color="#FFFBE4" stop-opacity=".725" offset="91.72%"/><stop stop-color="#FFF" stop-opacity=".7" offset="100%"/></linearGradient><linearGradient x1="9.923%" y1="9.148%" x2="107.363%" y2="90.244%" id="c"><stop stop-color="#FEDD00" offset="0%"/><stop stop-color="#FEED76" stop-opacity=".776" offset="36.97%"/><stop stop-color="#FFF9D4" stop-opacity=".585" offset="68.39%"/><stop stop-color="#FFFEF9" stop-opacity=".5" offset="82.43%"/><stop stop-color="#FFF" offset="100%"/></linearGradient></defs><g fill="none" fill-rule="evenodd"><path d="M50.2 22.8C46.3 12 57.6.3 66.9 0 72.4 2.8 77.2 10.2 77 20.3c-.7 12.4-9.7 23.1-19.5 32.9-.6-12-3.2-19.6-7.3-30.4zM28.4 81.6c-1.5-12.1 3.5-22.4 8.5-28.7C47.8 39.4 47.1 31.3 46 24.3c5.7 8.9 9.3 19.6 10.1 29 .4 7.8-5.3 25.8-27.7 28.3z" fill="#FEDD00"/><path d="M20.6 35.6C4.2 31.1.1 17 .8 7.5c16-6.3 33.1.2 43 13.6 7 9.4 11.3 21.6 12.2 32.1-4.8-6.1-10.8-9.7-18.5-12.5-5.1-1.8-10-3.1-16.9-5.1z" fill="#FEDD00"/><path d="M50.2 22.8C46.3 12 57.6.3 66.9 0 72.4 2.8 77.2 10.2 77 20.3c-.7 12.4-9.7 23.1-19.5 32.9-.6-12-3.2-19.6-7.3-30.4z" fill="url(#a)"/><path d="M28.4 81.6c-1.5-12.1 3.5-22.4 8.5-28.7C47.8 39.4 47.1 31.3 46 24.3c5.7 8.9 9.3 19.6 10.1 29 .4 7.8-5.3 25.8-27.7 28.3z" fill="url(#b)"/><path d="M20.6 35.6C4.2 31.1.1 17 .8 7.5c16-6.3 33.1.2 43 13.6 7 9.4 11.3 21.6 12.2 32.1-4.8-6.1-10.8-9.7-18.5-12.5-5.1-1.8-10-3.1-16.9-5.1z" fill="url(#c)"/></g></svg>