<svg width="62" height="85" xmlns="http://www.w3.org/2000/svg"><script xmlns="" type="text/javascript" charset="utf-8" id="zm-extension"/><defs><linearGradient x1="-83.868%" y1="28.375%" x2="76.626%" y2="60.053%" id="a"><stop stop-color="#FEDD00" offset="0%"/><stop stop-color="#FEDD00" offset="54.59%"/><stop stop-color="#FEDE07" stop-opacity=".964" offset="58.63%"/><stop stop-color="#FEE01A" stop-opacity=".913" offset="64.42%"/><stop stop-color="#FEE539" stop-opacity=".853" offset="71.27%"/><stop stop-color="#FEEA64" stop-opacity=".786" offset="78.94%"/><stop stop-color="#FFF29C" stop-opacity=".712" offset="87.28%"/><stop stop-color="#FFFBDE" stop-opacity=".635" offset="96.05%"/><stop stop-color="#FFF" stop-opacity=".6" offset="100%"/></linearGradient><linearGradient x1=".075%" y1="49.908%" x2="100.132%" y2="49.908%" id="b"><stop stop-color="#FEDD00" offset="0%"/><stop stop-color="#FEDD00" offset="54.59%"/><stop stop-color="#FEDE07" stop-opacity=".964" offset="58.63%"/><stop stop-color="#FEE01A" stop-opacity=".913" offset="64.42%"/><stop stop-color="#FEE539" stop-opacity=".853" offset="71.27%"/><stop stop-color="#FEEA64" stop-opacity=".786" offset="78.94%"/><stop stop-color="#FFF29C" stop-opacity=".712" offset="87.28%"/><stop stop-color="#FFFBDE" stop-opacity=".635" offset="96.05%"/><stop stop-color="#FFF" stop-opacity=".6" offset="100%"/></linearGradient><linearGradient x1="101.53%" y1="90.536%" x2="28.999%" y2="25.737%" id="c"><stop stop-color="#FEDD00" offset="0%"/><stop stop-color="#FEDE0A" stop-opacity=".992" offset="59.65%"/><stop stop-color="#FEE53C" stop-opacity=".972" offset="63.97%"/><stop stop-color="#FEEC6F" stop-opacity=".948" offset="69.01%"/><stop stop-color="#FFF29B" stop-opacity=".923" offset="74.15%"/><stop stop-color="#FFF6BF" stop-opacity=".899" offset="79.3%"/><stop stop-color="#FFFADB" stop-opacity=".874" offset="84.44%"/><stop stop-color="#FFFDEF" stop-opacity=".85" offset="89.6%"/><stop stop-color="#FFFEFB" stop-opacity=".825" offset="94.78%"/><stop stop-color="#FFF" stop-opacity=".8" offset="100%"/></linearGradient><linearGradient x1="53.218%" y1="-42.967%" x2="47.751%" y2="121.144%" id="d"><stop stop-color="#FEDD00" offset="0%"/><stop stop-color="#FEED76" stop-opacity=".776" offset="36.97%"/><stop stop-color="#FFF9D4" stop-opacity=".585" offset="68.39%"/><stop stop-color="#FFFEF9" stop-opacity=".5" offset="82.43%"/><stop stop-color="#FFF" offset="100%"/></linearGradient></defs><g fill="none"><path d="M.1 68.6l.5-.7L24.8 22l.1-.5-10.7-20c-.9-1.7-3.4-1.3-3.7.6L.1 68.6z" fill="#FEDD00"/><g fill="url(#a)"><path d="M.4 68l.4-.8 23.9-45.4L14.1 1.7c-.9-1.7-3.1-1.2-3.4.6L.4 68z"/><path d="M.4 68l.4-.8 23.9-45.4L14.1 1.7c-.9-1.7-3.1-1.2-3.4.6L.4 68z"/></g><path d="M32.6 36.6l7.9-8.1-7.9-15.2c-.8-1.4-2.9-1.4-3.6 0l-4.2 8.1v.7l7.8 14.5z" fill="#FEDD00"/><path fill="url(#b)" d="M.1 68.6l.3-.3.8-.3 31-30.9.3-1-7.7-14.7z"/><path fill="#FEDD00" d="M.1 68.6l.3-.3.8-.3 31-30.9.3-1-7.7-14.7z"/><path d="M33.6 84.1l28-15.6-8-49.3c-.3-1.5-2.1-2.2-3.2-1L.1 68.6 28 84.2c1.7.9 3.9.9 5.6-.1" fill="#FEDD00"/><path d="M61.4 68.4l-7.9-48.9c-.2-1.5-1.8-2.2-2.9-1.1L.5 68.5 28 83.9c1.7 1 3.9 1 5.6 0l27.8-15.5z" fill="url(#c)"/><path d="M33.6 83.6c-1.8 1-3.9 1-5.7 0L.3 68.3l-.2.2L28 84.1c1.8 1 3.9 1 5.7 0l28-15.6-.1-.4-28 15.5z" fill="#FEDD00"/><g transform="translate(24 12)" fill="url(#d)"><path d="M8.5 24.3l7.7-7.9L8.5 1.7C7.8.3 6 .2 5.3 1.6L1 9.8l-.1.4 7.6 14.1z"/><path d="M8.5 24.3l7.7-7.9L8.5 1.7C7.8.3 6 .2 5.3 1.6L1 9.8l-.1.4 7.6 14.1z"/></g></g></svg>