<svg id="Layer_1" xmlns="http://www.w3.org/2000/svg" viewBox="0 0 32 32"><script xmlns="" type="text/javascript" charset="utf-8" id="zm-extension"/><style>.st0{enable-background:new}.st1{fill:#1f96be}</style><g class="st0"><path class="st1" d="M16 25.5c-7.7 0-16-1.6-16-4.5 0-1.4 2.1-2.7 5.6-3.5l.4-.1.2.7-.4.1c-3.5.8-5 2-5 2.8 0 1.8 6.1 3.8 15.2 3.8s15.2-1.9 15.2-3.8c0-1-1.9-2-5-2.8l-.4-.1.2-.7.4.1c2.6.6 5.6 1.7 5.6 3.5 0 2.9-8.2 4.5-16 4.5z"/></g><g class="st0"><path class="st1" d="M16 31.7c-7.9 0-16-1.9-16-5v-4h.8v4C.8 28.7 7 31 16 31c9.1 0 15.2-2.2 15.2-4.3v-4h.8v4c0 3.3-8.2 5-16 5z"/></g><g class="st0"><path class="st1" d="M23.6.8v20.4H8.5V.8h15.1m.7-.7H7.7V22h16.6V.1z"/></g><g class="st0"><path class="st1" d="M16.1 13.2l-3.2-3.4.5-.5 2.5 2.6 2.6-4.7.6.3z"/></g><g class="st0"><path class="st1" d="M15.9 15.8c-3.5 0-6.4-2.9-6.4-6.4S12.4 3 15.9 3s6.4 2.9 6.4 6.4-2.8 6.4-6.4 6.4zm0-12.1c-3.1 0-5.7 2.5-5.7 5.7s2.5 5.7 5.7 5.7 5.7-2.5 5.7-5.7-2.5-5.7-5.7-5.7z"/></g></svg>