<svg id="Layer_1" xmlns="http://www.w3.org/2000/svg" viewBox="0 0 32 31.2"><script xmlns="" type="text/javascript" charset="utf-8" id="zm-extension"/><style>.st0{enable-background:new}.st1{fill:#1f96be}</style><g class="st0"><path class="st1" d="M3.4 14.4h5.9v.8H3.4z"/></g><g class="st0"><path class="st1" d="M1.4 11.4h5.9v.8H1.4z"/></g><g class="st0"><path class="st1" d="M24.1 16.5H30v.8h-5.9z"/></g><g class="st0"><path class="st1" d="M26.1 19.5H32v.8h-5.9z"/></g><g class="st0"><path class="st1" d="M8.6 31.2L0 25.3l8.6-5.8v2.8h20.3v.8h-21v-2.2l-6.6 4.4 6.6 4.4v-2.2h4.3v.8H8.6z"/></g><g class="st0"><path class="st1" d="M32 28.3H18.4v-.8h12.8v-3.1h.8z"/></g><g class="st0"><path class="st1" d="M13.4 27.5H17v.8h-3.6z"/></g><g class="st0"><path class="st1" d="M23.3 11.8V8.9H3.1v-.7h21v2.2L30.6 6l-6.5-4.4v2.2h-4.3V3h3.5V.1L32 6z"/></g><g class="st0"><path class="st1" d="M.8 6.9H0V3h13.6v.8H.8z"/></g><g class="st0"><path class="st1" d="M14.9 3h3.6v.8h-3.6z"/></g></svg>