<svg id="Layer_1" xmlns="http://www.w3.org/2000/svg" viewBox="0 0 70.9 90"><script xmlns="" type="text/javascript" charset="utf-8" id="zm-extension"/><style>.st0{opacity:.2;enable-background:new}.st0,.st1{fill:#1f96be}</style><circle class="st0" cx="19" cy="49.9" r="3"/><circle class="st0" cx="3.6" cy="72" r="3"/><path class="st0" d="M70.4 27.8L60.2 42.3c.5.4.5.7.4 1.1-.3-1.4-1.5-2.4-2.9-2.4-1.7 0-3 1.3-3 3s1.3 3 3 3c.8 0 1.6-.3 2.1-.9-.5.6-1.3 1-2.1 1-.6 0-.6.1-1.1-.1L44.7 64c0 .1 0 .2-.1.4-.3-1.4-1.5-2.4-2.9-2.4-1.7 0-3 1.3-3 3s1.3 3 3 3c.8 0 1.5-.3 2.1-.8-.5.6-1.3.9-2.2.9-1.5 0-3-1.3-3-3 0-.6-.1-1 .1-1.4L22.2 51.9c-.6.7-2.4 1.3-3.2 1.3-.4 0-.8-.5-1.1-.5l-12.2 17c.6.6 1.2 1.8 1.2 2.5 0 1.6-1.1 2.7-2.5 3v14.5h66.2l-.2-61.9z"/><path class="st1" d="M69.9 14.5h1v9h-1zM7.1 72c0-.9-.4-1.8-1-2.4L7.9 67l-.8-.6L5.3 69c-.5-.3-1.1-.5-1.7-.5C1.7 68.5.1 70.1.1 72s1.6 3.5 3.5 3.5 3.5-1.6 3.5-3.5zm-3.5 2.6c-1.4 0-2.5-1.1-2.5-2.5s1.1-2.5 2.5-2.5 2.5 1.1 2.5 2.5-1.1 2.5-2.5 2.5zm12.3-19l1.8-2.7c.5.3 1.1.5 1.7.5 1.1 0 2-.5 2.7-1.3l2.6 1.8.6-.8-2.7-1.9c.2-.4.3-.9.3-1.3 0-1.9-1.6-3.5-3.5-3.5s-3.5 1.6-3.5 3.5c0 .9.4 1.8 1 2.4L15 55l.9.6zm3.5-8.1c1.4 0 2.5 1.1 2.5 2.5s-1.1 2.5-2.5 2.5-2.5-1.1-2.5-2.5 1.1-2.5 2.5-2.5zM8.2 64.8l.8.6 2.3-3.3-.8-.6zm4.2-4.3l2.3-3.3-.8-.6-2.3 3.3zm22.1.2l.6-.8-3.3-2.3-.6.8zm-4.9-3.4l.6-.8-3.3-2.3-.6.8zM53 50.5l-2.3 3.3.8.6 2.3-3.3zm-3.5 5l-2.3 3.3.8.6 2.3-3.3zm-3.4 4.9l-1.7 2.4c-.6-.8-1.6-1.3-2.7-1.3s-2 .5-2.6 1.3l-2.4-1.7-.6.8 2.4 1.7c-.2.4-.3.9-.3 1.4 0 1.9 1.6 3.5 3.5 3.5s3.5-1.6 3.5-3.5c0-.4-.1-.8-.2-1.2l1.9-2.8-.8-.6zm-4.4 7.1c-1.4 0-2.5-1.1-2.5-2.5s1.1-2.5 2.5-2.5c.8 0 1.6.5 2.1 1.2.2.4.4.8.4 1.3 0 1.4-1.1 2.5-2.5 2.5zm13.2-18l1.6-2.3c.4.2.8.3 1.3.3 2 0 3.5-1.6 3.5-3.5s-1.6-3.5-3.5-3.5-3.5 1.6-3.5 3.5c0 1.1.5 2.1 1.4 2.7l-1.6 2.2.8.6zm.3-5.6c0-1.4 1.1-2.5 2.5-2.5s2.5 1.1 2.5 2.5-1.1 2.5-2.5 2.5-2.5-1.1-2.5-2.5z"/><path class="st1" d="M69.9 89H5.3v-9.8h-1V90h66.6V27.3h-1zM4.3-.1v65.3h1V.9h64.6v9.9h1V-.1z"/><path class="st1" d="M10.6 9.9h32v1h-32zm0 8.8h32v1h-32z"/></svg>