<svg id="Layer_1" xmlns="http://www.w3.org/2000/svg" viewBox="0 0 90 90"><script xmlns="" type="text/javascript" charset="utf-8" id="zm-extension"/><style>.st1{fill:#1f96be}</style><path class="st1" d="M68.5 16C56 6.9 44.3 7.3 44.3 7.3v34.4c1.1.1 1.9.6 2.6 1.1L71 18.7c-.2-.5-1.4-1.3-2.5-2.7z" opacity=".2"/><path class="st1" d="M44.6 7.6C24.1 7.6 7.4 24.2 7.4 44.7S24 81.8 44.5 81.8s37.1-16.6 37.1-37.1-16.5-37.1-37-37.1zm.7 73.2v-5.6h-1v5.6C24.8 80.6 8.8 65 8.4 45.5h6.7v-1H8.4C8.5 24.8 24.5 8.8 44.3 8.6v6.9h1V8.6c19.5.4 35.3 16.3 35.4 35.9H74v1h6.7c-.4 19.3-16.1 34.9-35.4 35.3z"/><path class="st1" d="M75.7 12.6l-.4-.3-.7.7.4.3c8.5 8.2 13.4 19.7 13.4 31.5 0 24.2-19.7 43.8-43.8 43.8C20.5 88.6 1 69 1 44.9 1 20.7 20.5 1.1 44.6 1.1h.5v-1h-.5C20 .1 0 20.3 0 44.9c0 24.6 20 44.7 44.6 44.7 24.7 0 44.7-20.1 44.8-44.8 0-12.1-5-23.8-13.7-32.2zm-3.5-2.1l.4.3.7-.8-.4-.3c-.8-.6-1.5-1.2-2.3-1.7l-.4-.3-.6.8.4.3c.7.6 1.5 1.1 2.2 1.7zM52.1 1.6l.5.1.1-.9-.5-.1c-.9-.2-1.9-.3-2.8-.4h-.5l-.1 1h.5c1 0 1.9.2 2.8.3zm15.6 5.6l.4.3.5-.8-.4-.3c-.8-.5-1.7-1-2.5-1.4l-.3-.3-.5.9.4.2c.8.5 1.6.9 2.4 1.4zm-5-2.5l.5.2.4-.9-.5-.1c-.8-.4-1.7-.8-2.6-1.1l-.5-.2-.4.9.5.2c.9.3 1.8.6 2.6 1zm-5.2-1.9l.5.1.3-.9-.5-.2c-.9-.3-1.9-.5-2.8-.7l-.5-.1-.2 1 .5.1c.9.2 1.8.4 2.7.7z"/><path class="st1" d="M41.2 10.6l-.5.1c-10.2 1.1-19.4 6.9-25.1 16l-.3.4.8.5.3-.3c5.6-8.8 14.5-14.5 24.4-15.6l.5-.1-.1-1zM12.9 31.4c-1.4 3.3-2.2 6.3-2.5 9.4v.5l1 .1v-.5c.3-3 1-5.9 2.4-9.1l.2-.5-.9-.4-.2.5zm43.2 1l-9.5 9.5c-.4-.3-1-.5-1.5-.6V20.2h-1v21.1c-1.7.3-3 1.7-3 3.4 0 1.9 1.6 3.5 3.5 3.5s3.5-1.6 3.5-3.5c0-.8-.3-1.5-.8-2.1l9.5-9.5-.7-.7zM44.6 47.2c-1.4 0-2.5-1.1-2.5-2.5s1.1-2.5 2.5-2.5c1.3 0 2.5 1.1 2.5 2.5s-1.1 2.5-2.5 2.5z"/></svg>