<svg id="Layer_1" xmlns="http://www.w3.org/2000/svg" viewBox="0 0 32 32"><script xmlns="" type="text/javascript" charset="utf-8" id="zm-extension"/><style>.st1{fill:#1f96be}</style><path class="st1" d="M16.2 16h-1.9v.8h2.4V16h-.5zm4.4-.6c-.4.2-.9.3-1.4.4l-.4.1.1.7.4-.1c.5-.1 1.1-.2 1.5-.4l.4-.1-.3-.7-.3.1zm-10.2-.1l-.4-.1-.3.7.4.1c.5.2 1 .3 1.5.4l.4.1.2-.7-.4-.1c-.5-.1-1-.2-1.4-.4zm5.8 5.2h-1.9v.8h2.4v-.8h-.5zm4.4-.6c-.4.2-.9.3-1.4.4l-.4.1.1.7.4-.1c.5-.1 1.1-.2 1.5-.4l.4-.1-.3-.7-.3.1zm-10.2 0l-.4-.2-.3.7.4.1c.5.2 1 .3 1.5.4l.4.1.2-.7-.4-.1c-.5 0-1-.2-1.4-.3zm7.3 6.2h.8v5.8h-.8zm-4 0h.8v5.8h-.8zm1.9-17.4c1 0 1.9-.8 1.9-1.9s-.8-1.9-1.9-1.9-1.9.8-1.9 1.9.9 1.9 1.9 1.9zm0-3.1c.6 0 1.1.5 1.1 1.1s-.5 1.1-1.1 1.1c-.6 0-1.1-.5-1.1-1.1s.5-1.1 1.1-1.1z"/><path class="st1" d="M27.6 15.2l-5-6.1v-.5c-.3-1.5-3.3-5.2-5.9-8.1-.5-.6-1.5-.6-2.1 0C12 3.4 9 7.1 8.7 8.6v.6l-5 6.1v7.6h5v.1c.4 1.7 3.1 2.9 6.9 2.9 3.6 0 6.5-1.2 6.9-2.9v-.1h5v-7.7zM15.1 1c.1-.1.3-.2.5-.2s.4.1.5.2c3.5 3.9 5.7 7 5.7 7.8 0 .1 0 .3-.1.4h-.1c-.6 1.1-2.8 2.2-6 2.2s-5.5-1-6-2.2h-.1c0-.1-.1-.3-.1-.4 0-.8 2.3-3.9 5.7-7.8zM4.4 15.5l4.3-5.1V22H4.4v-6.5zm11.2 9.6c-3.4 0-6.2-1.1-6.2-2.5V10.3c1.1 1.1 3.4 1.9 6.2 1.9s5-.7 6.2-1.9v12.2c0 1.2-2.6 2.6-6.2 2.6zM26.8 22h-4.3V10.3l4.3 5.1V22z"/></svg>