<svg id="Layer_1" xmlns="http://www.w3.org/2000/svg" viewBox="0 0 32 32"><script xmlns="" type="text/javascript" charset="utf-8" id="zm-extension"/><style>.st1{fill:#1f96be}</style><path class="st1" d="M18.4 8.8l-2.2-4.4L14 8.8l-4.8.7 3.5 3.4-.8 4.9 4.4-2.3 4.4 2.3-.9-4.8 3.5-3.4-4.9-.8zm.6 4.3l.6 3.3-3-1.6-.4-.2-.4.2-3 1.6.6-3.3.1-.4-.3-.3-2.4-2.3 3.3-.5.4-.1.2-.4 1.5-3 1.5 3 .2.4.4.1 3.3.5-2.4 2.3-.3.3.1.4z"/><path class="st1" d="M30.6 0h-2.9v.7h2.9c.3 0 .6.4.6.8v20.3c0 .5-.3.8-.6.8H11.8v.7h18.8c.7 0 1.3-.7 1.3-1.6V1.6c0-.9-.6-1.6-1.3-1.6zM20.4 0h6.1v.7h-6.1zM6.2 29.6v-5.3c0-.9-.6-1.6-1.4-1.6H2c-.3 0-.6-.4-.6-.8V1.6c0-.5.3-.8.6-.8h17.2V0H2C1.2 0 .7.7.7 1.6v20.3c0 .9.6 1.6 1.3 1.6h2.9c.3 0 .6.4.6.8V32l4.9-7.1-.6-.4-3.6 5.1z"/></svg>