<svg id="Layer_1" xmlns="http://www.w3.org/2000/svg" viewBox="0 0 32 30.1"><script xmlns="" type="text/javascript" charset="utf-8" id="zm-extension"/><style>.st1{fill:#1f96be}</style><path class="st1" d="M27 15.8V4.4h-.1c-.6-2.7-7-4.3-13.3-4.3C7.3.1.8 1.7.3 4.4H.2v20.8c0 3.1 6.7 4.7 13.3 4.7 6.7 0 12.3-1.7 13.3-4l.1-.2h.1c2.7 0 4.9-2.2 4.9-4.9.1-2.8-2.1-5-4.9-5zM13.6.8c7.6 0 12.6 2 12.6 3.9s-5.1 3.9-12.6 3.9C6.1 8.7 1 6.7 1 4.8s5.1-4 12.6-4zM1 6.4c1.9 2 7.3 3.1 12.6 3.1s10.7-1.1 12.6-3.1v5.2c0 1.9-5.2 3.9-12.7 3.9C6.6 15.5 1 13.8 1 11.6V6.4zm0 6.9c1.9 2 7.3 3 12.6 3 6 0 10.9-1.3 12.7-3.1v2.7c-2.3.4-4.1 2.4-4.1 4.9v.5c-2.4.7-5.4 1.1-8.6 1.1-7-.1-12.6-1.8-12.6-4v-5.1zm25.1 12.4c-.7 1.7-5.6 3.5-12.6 3.5-6.9-.1-12.5-1.8-12.5-4v-5.1c1.9 2 7.3 3 12.6 3 3.2 0 6.3-.4 8.7-1.1.4 1.8 1.9 3.3 3.8 3.7zm.9-.7c-2.3 0-4.2-1.9-4.2-4.2s1.9-4.2 4.2-4.2c2.3 0 4.2 1.9 4.2 4.2S29.4 25 27 25z"/><path class="st1" d="M27.4 18.9h-.7v2.5H29v-.8h-1.6z"/></svg>