<svg id="Layer_1" xmlns="http://www.w3.org/2000/svg" viewBox="0 0 32 32"><script xmlns="" type="text/javascript" charset="utf-8" id="zm-extension"/><style>.st0{enable-background:new}.st1{fill:#1f96be}</style><g class="st0"><path class="st1" d="M16 15.6c-5.9 0-12.3-1.2-12.3-3.9 0-2.4 5.7-3.6 10.5-3.9h.4v.8h-.4c-6.4.3-9.8 1.8-9.8 3.1 0 1.5 4.4 3.1 11.6 3.1 6.9 0 11.7-1.6 11.7-3.1 0-.9-1.5-1.7-4.1-2.3l-.4-.1.2-.8.4.1c2.1.5 4.7 1.5 4.7 3.1-.1 2.6-6.5 3.9-12.5 3.9z"/></g><g class="st0"><path class="st1" d="M16 21.1c-5.9 0-12.3-1.2-12.3-3.9 0-.2.2-.4.4-.4s.4.2.4.4c0 1.5 4.4 3.1 11.6 3.1 6.9 0 11.7-1.6 11.7-3.1 0-.2.2-.4.4-.4s.4.2.4.4c-.2 2.5-6.6 3.9-12.6 3.9z"/></g><g class="st0"><path class="st1" d="M16 26.5c-5.9 0-12.3-1.2-12.3-3.9 0-.2.2-.4.4-.4s.4.2.4.4c0 1.5 4.4 3.1 11.6 3.1 6.9 0 11.7-1.6 11.7-3.1 0-.2.2-.4.4-.4s.4.2.4.4c-.2 2.6-6.6 3.9-12.6 3.9z"/></g><g class="st0"><path class="st1" d="M16 32c-6 0-12.4-1.2-12.4-3.9 0-.2.2-.4.4-.4s.4.2.4.4c0 1.5 4.4 3.1 11.6 3.1 6.9 0 11.7-1.6 11.7-3.1 0-.2.2-.4.4-.4s.4.2.4.4C28.4 30.6 22 32 16 32z"/></g><g class="st0"><path class="st1" d="M28.1 28.5c-.2 0-.4-.2-.4-.4V11.8c0-.2.2-.4.4-.4s.4.2.4.4v16.4c-.1.2-.2.3-.4.3z"/></g><g class="st0"><path class="st1" d="M4 28.5c-.2 0-.4-.2-.4-.4V11.8c0-.2.2-.4.4-.4s.4.2.4.4v16.4c0 .2-.1.3-.4.3z"/></g><g class="st0"><path class="st1" d="M25.4.1h.8v6h-.8z"/></g><g class="st0"><path class="st1" d="M23.3 2.2h.8v3.9h-.8z"/></g><g class="st0"><path class="st1" d="M21.7 4.5V10H16V4.5h5.7m.8-.8h-7.2v7.1h7.2V3.7z"/></g><g class="st0"><path class="st1" d="M12.3 1.4V5H8.7V1.4h3.6m.8-.8H7.9v5.2h5.2V.6z"/></g></svg>