<svg id="Layer_1" xmlns="http://www.w3.org/2000/svg" viewBox="0 0 32 27.5"><script xmlns="" type="text/javascript" charset="utf-8" id="zm-extension"/><style>.st0{enable-background:new}.st1{fill:#1f96be}</style><g class="st0"><path class="st1" d="M32 6.4h-.7v-4c0-.8-.7-1.5-1.5-1.5H2.3C1.5.9.8 1.6.8 2.4v4.1H.1V2.4C.1 1.1 1.1.1 2.3.1h27.4c1.2 0 2.2 1 2.2 2.3v4z"/></g><g class="st0"><path class="st1" d="M16 22.1c-5.9 0-10.6-4.7-10.8-4.9l-.3-.3.3-.3c.2-.2 4.9-4.9 10.8-4.9s10.6 4.7 10.8 4.9l.3.3-.3.3c-.2.2-4.9 4.9-10.8 4.9zM6 16.9c1.1 1 5.2 4.4 10 4.4s8.9-3.4 10-4.4c-1.1-1-5.2-4.4-10-4.4s-8.9 3.4-10 4.4z"/></g><g class="st0"><path class="st1" d="M16 19.1c-1.2 0-2.1-1-2.1-2.1s1-2.1 2.1-2.1 2.1 1 2.1 2.1-.9 2.1-2.1 2.1zm0-3.6c-.8 0-1.4.6-1.4 1.4s.6 1.4 1.4 1.4 1.4-.6 1.4-1.4-.6-1.4-1.4-1.4z"/></g><g class="st0"><path class="st1" d="M31.2 8.7v18H.9v-18h30.3M32 8H.1v19.5H32V8z"/></g><g class="st0"><path class="st1" d="M16 21.8c-2.7 0-4.9-2.2-4.9-4.9S13.3 12 16 12s4.9 2.2 4.9 4.9-2.2 4.9-4.9 4.9zm0-9c-2.3 0-4.1 1.9-4.1 4.1S13.8 21 16 21s4.1-1.9 4.1-4.1-1.8-4.1-4.1-4.1z"/></g></svg>