<svg id="Layer_1" xmlns="http://www.w3.org/2000/svg" viewBox="0 0 90 90"><script xmlns="" type="text/javascript" charset="utf-8" id="zm-extension"/><style>.st0{fill:#1f96be}.st1{opacity:.2;enable-background:new}</style><path class="st0" d="M66.4 49.8c-.2-10.9-5.9-20.5-14.2-24.1 3.5-2.5 5.7-6.6 5.7-10.7 0-7.2-5.8-13-13-13S31.8 7.8 31.8 15c0 4.3 2.1 8.2 5.7 10.7-8.4 3.7-14.1 13.4-14.1 24.1v.5h43v-.5zm-42-.5c.2-10.5 6-19.9 14.4-23l1-.4-.9-.5c-3.8-2.3-6.1-6.1-6.1-10.4 0-6.6 5.4-12 12.1-12 6.6 0 12 5.4 12 12 0 4.1-2.4 8.1-6.1 10.4l-.8.5 1 .4c8.3 3.1 14.1 12.4 14.5 23H24.4z"/><path class="st0" d="M29.8 18.3c.5 2 1.4 3.8 2.8 5.4l.3.4.8-.7-.3-.4c-1.3-1.5-2.1-3.1-2.6-5l-.1-.5-1 .2.1.6zm.6-3.6c0-7.4 6-13.4 13.4-13.4h.5v-1h-.5c-7.9 0-14.4 6.5-14.4 14.4v.5h1v-.5zM13.8 67.1H.4v-.4c0-3.1 1.6-6 4-7.3-1-.8-1.5-2-1.5-3.2 0-2.3 1.9-4.2 4.2-4.2 2.3 0 4.2 1.9 4.2 4.2 0 1.2-.6 2.4-1.5 3.2 2.4 1.2 4 4.1 4 7.3v.4zm-12.6-.8H13c-.1-3-1.8-5.6-4.1-6.5l-.7-.3.6-.4c1.1-.7 1.7-1.8 1.7-3 0-1.9-1.5-3.4-3.4-3.4s-3.4 1.5-3.4 3.4c0 1.2.6 2.3 1.7 3l.6.5-.7.3c-2.3.9-4 3.5-4.1 6.4z"/><g class="st1"><path class="st0" d="M9 59.5c1.1-.7 1.9-1.9 1.9-3.3 0-2.1-1.7-3.8-3.8-3.8s-3.8 1.7-3.8 3.8c0 1.4.8 2.6 1.9 3.3-2.5 1-4.4 3.9-4.4 7.2h12.6c0-3.4-1.9-6.3-4.4-7.2z"/></g><path class="st0" d="M30 81.5H16.6v-.4c0-3.1 1.6-6 4-7.3-1-.8-1.5-2-1.5-3.2 0-2.3 1.9-4.2 4.2-4.2 2.3 0 4.2 1.9 4.2 4.2 0 1.2-.6 2.4-1.5 3.2 2.4 1.2 4 4 4 7.3v.4zm-12.6-.8h11.8c-.1-3.1-1.8-5.6-4.1-6.5l-.8-.2.7-.4c1.1-.7 1.7-1.8 1.7-3 0-1.9-1.5-3.4-3.4-3.4s-3.4 1.5-3.4 3.4c0 1.2.6 2.3 1.7 3l.6.4-.7.3c-2.3.9-4 3.5-4.1 6.4z"/><g class="st1"><path class="st0" d="M25.2 73.9c1.1-.7 1.9-1.9 1.9-3.3 0-2.1-1.7-3.8-3.8-3.8s-3.8 1.7-3.8 3.8c0 1.4.8 2.6 1.9 3.3-2.5 1-4.4 3.9-4.4 7.2h12.6c0-3.4-1.8-6.3-4.4-7.2z"/></g><path class="st0" d="M89.3 67.1H75.9v-.4c0-3.2 1.6-6.1 4-7.3-1-.8-1.5-2-1.5-3.2 0-2.3 1.9-4.2 4.2-4.2 2.3 0 4.2 1.9 4.2 4.2 0 1.2-.6 2.4-1.5 3.2 2.4 1.3 4 4.2 4 7.3v.4zm-12.6-.8h11.8c-.1-2.9-1.8-5.5-4.2-6.5l-.7-.3.6-.4c1.1-.7 1.7-1.8 1.7-3 0-1.9-1.5-3.4-3.4-3.4s-3.4 1.5-3.4 3.4c0 1.2.6 2.3 1.7 3l.6.4-.7.3c-2.2.9-3.9 3.5-4 6.5z"/><g class="st1"><path class="st0" d="M80.7 59.5c-1.1-.7-1.9-1.9-1.9-3.3 0-2.1 1.7-3.8 3.8-3.8s3.8 1.7 3.8 3.8c0 1.4-.8 2.6-1.9 3.3 2.5 1 4.4 3.9 4.4 7.2H76.3c0-3.4 1.9-6.3 4.4-7.2z"/></g><path class="st0" d="M73.1 81.5H59.6v-.4c.1-3.3 1.7-6.1 4.1-7.3-1-.8-1.5-2-1.5-3.2 0-2.3 1.9-4.2 4.2-4.2 2.3 0 4.2 1.9 4.2 4.2 0 1.2-.6 2.4-1.5 3.2 2.4 1.3 4 4.2 4 7.3v.4zm-12.7-.8h11.9c-.1-2.9-1.8-5.5-4.2-6.5l-.6-.2.6-.4c1.1-.7 1.7-1.8 1.7-3 0-1.9-1.5-3.4-3.4-3.4S63 68.7 63 70.6c0 1.2.6 2.3 1.7 3l.7.4-.7.3c-2.4.8-4.1 3.3-4.3 6.4z"/><g class="st1"><path class="st0" d="M64.5 73.9c-1.1-.7-1.9-1.9-1.9-3.3 0-2.1 1.7-3.8 3.8-3.8s3.8 1.7 3.8 3.8c0 1.4-.8 2.6-1.9 3.3 2.5 1 4.4 3.9 4.4 7.2H60c.1-3.4 1.9-6.3 4.5-7.2z"/></g><path class="st0" d="M52 89.3H38.6v-.4c0-3.1 1.6-6 4-7.3-1-.8-1.5-2-1.5-3.2 0-2.3 1.9-4.2 4.2-4.2s4.2 1.9 4.2 4.2c0 1.2-.6 2.4-1.5 3.2 2.5 1.3 4 4 4 7.3v.4zm-12.6-.8h11.8c-.1-3-1.7-5.5-4.2-6.5l-.7-.3.6-.4c1.1-.7 1.7-1.8 1.7-3 0-1.9-1.5-3.4-3.4-3.4s-3.4 1.5-3.4 3.4c0 1.2.6 2.3 1.7 3l.6.4-.6.3c-2.3 1-4 3.6-4.1 6.5z"/><g class="st1"><path class="st0" d="M47.2 81.7c1.1-.7 1.9-1.9 1.9-3.3 0-2.1-1.7-3.8-3.8-3.8s-3.8 1.7-3.8 3.8c0 1.4.8 2.6 1.9 3.3-2.5 1-4.4 3.9-4.4 7.2h12.6c0-3.4-1.8-6.2-4.4-7.2z"/></g><path class="st0" d="M30.8 52.8h4v1h-4zm6 0h4v1h-4zm-12 0h4v1h-4z"/><path transform="rotate(-36.341 15.27 54.724)" class="st0" d="M13.3 54.2h4v1h-4z"/><path class="st0" d="M18.8 52.8h4v1h-4zm24 0h4v1h-4zm18 0h4v1h-4zm6 0h4v1h-4zm-18 0h4v1h-4z"/><path transform="rotate(-54.463 74.282 54.93)" class="st0" d="M73.8 52.9h1v4h-1z"/><path class="st0" d="M54.8 52.8h4v1h-4zm-10.5 15h1v4h-1zm0-12h1v4h-1zm0 6h1v4h-1zm22 0h1v4h-1zm0-6h1v4h-1zm-43 0h1v4h-1zm0 6h1v4h-1z"/></svg>