<svg id="Layer_1" xmlns="http://www.w3.org/2000/svg" viewBox="0 0 32 32"><script xmlns="" type="text/javascript" charset="utf-8" id="zm-extension"/><style>.st1{fill:#1f96be}</style><path class="st1" d="M13 12.5l5-4.9 4.9 4.9.5-.5L18 6.5 12.5 12zm7.7-10.9l.4.1.2-.7-.4-.1c-.5-.2-1-.3-1.5-.4L19 .4v.7l.4.1c.4.1.9.2 1.3.4zm10.1 10.8c.1.5.2.9.3 1.4l.1.4.7-.1-.1-.4-.3-1.5-.1-.4-.7.2.1.4zm-1.2-3.2c.2.4.4.9.6 1.3l.1.3.7-.3-.1-.3c-.2-.5-.4-.9-.6-1.4l-.2-.3-.7.3.2.4zm-1-1.6l.2.3.6-.4-.2-.3-.9-1.2-.2-.3-.6.5.2.3c.4.3.7.7.9 1.1zM26.5 5l.3.3.5-.5-.3-.4c-.4-.3-.8-.7-1.1-1l-.3-.2-.5.6.3.2c.3.3.7.7 1.1 1zm-2.7-2l.3.2.4-.6-.3-.2c-.4-.3-.9-.5-1.3-.7l-.3-.2-.3.7.3.2c.3.1.8.3 1.2.6z"/><path class="st1" d="M31.2 16c0 8.4-6.8 15.2-15.2 15.2C7.4 31.3.8 24.6.8 16 .8 7.6 7.6.8 16 .8h.4V.1H16C7.2.1 0 7.2 0 16c0 9 7 16 16 16 8.8 0 16-7.2 16-16h-.8z"/><path class="st1" d="M29 16.3v-.4c0-7.2-5.8-13-13-13h-.4v.7h.4c6.8 0 12.3 5.5 12.3 12.3v.4h.7z"/><path class="st1" d="M25.2 10c0-.8-.6-1.4-1.4-1.4h-2.3v.7h2.3c.4 0 .6.2.6.6v2.3h.7V10zM6.7 10v2.3h.7V10c0-.4.2-.6.6-.6h6.3v-.7H8.1c-.8 0-1.4.5-1.4 1.3zm-.1 15.1h18.5V12.7H6.6v12.4zm.7-11.6h17v10.9h-17V13.5z"/></svg>