<svg id="Layer_1" xmlns="http://www.w3.org/2000/svg" viewBox="0 0 32 25.3"><script xmlns="" type="text/javascript" charset="utf-8" id="zm-extension"/><style>.st1{fill:#1f96be}</style><path class="st1" d="M31.2 24.6H.8V8.9H0v16.4h31.9V8.9h-.7zM6 0H0v4.6h31.9V0H6zM.8 3.9V.8h4.5V4H.8zm30.4 0H6V.8h25.2v3.1z"/><path class="st1" d="M2.9 23h25.2v.7H2.9zM13.7 6.9H7.3v6.5h6.5V6.9zm-.7 5.7H8v-5h5v5zm11.5-5.7H18v6.5h6.5V6.9zm-.7 5.7h-5v-5h5v5zM7.3 21.2h6.5v-6.5H7.3v6.5zm.7-5.8h5v5H8v-5zm10 5.8h6.5v-6.5H18v6.5zm.7-5.8h5v5h-5v-5z"/></svg>