<svg id="Layer_1" xmlns="http://www.w3.org/2000/svg" viewBox="0 0 32 32"><script xmlns="" type="text/javascript" charset="utf-8" id="zm-extension"/><style>.st1{fill:#1f96be}</style><path class="st1" d="M26.2 6.3l.2.3.6-.4-.2-.3c-.2-.5-.5-.9-.8-1.3l-.2-.3-.6.5.2.3c.3.3.6.7.8 1.2zm.9 1.7c.2.4.3.9.4 1.4l.1.4.7-.2-.1-.4c-.1-.5-.3-1-.4-1.5l-.1-.3-.7.3.1.3zm-5.8-6.2l.4.2.3-.7-.3-.2c-.5-.2-.9-.4-1.4-.5l-.4-.1-.2.7.3.1c.4.2.9.3 1.3.5zm2.8 1.9l.3.3.5-.6-.3-.2c-.4-.3-.8-.7-1.2-1l-.3-.2-.4.6.3.2c.4.2.8.5 1.1.9zm-7.5 20.2c6.7 0 11.9-5.2 11.9-11.9v-.4h-.7v.4c0 6.3-4.9 11.2-11.2 11.2-6.2 0-11.2-5-11.2-11.2C5.4 5.7 10.3.8 16.6.8h.4V.1h-.4C10 .1 4.7 5.3 4.7 12c0 6.5 5.4 11.9 11.9 11.9z"/><path class="st1" d="M11 11.6l-1.9 1.9 6.6 6.6 8.8-11.8-2.2-1.6-6.9 9.3-4.4-4.4zm11.4-3.8l1 .7L15.6 19l-5.5-5.5.9-.9 4.4 4.4 7-9.2z"/><circle class="st1" cx=".9" cy="30.6" r=".8"/><circle class="st1" cx="31" cy="30.6" r=".8"/><path class="st1" d="M2.9 30.1h10.5v.7H2.9zm15.5 0h10.5v.7H18.4zm-.6-1.1l-.5-.5-1.2 1.2-1.2-1.1-.5.5 1.2 1.2-1.1 1.2.5.5 1.2-1.2 1.2 1.1.5-.5-1.2-1.2z"/></svg>