<svg id="Layer_1" xmlns="http://www.w3.org/2000/svg" viewBox="0 0 800 600"><script xmlns="" type="text/javascript" charset="utf-8" id="zm-extension"/><style>.st6{stroke-dasharray:4}.st6,.st7{fill:none;stroke:#333;stroke-miterlimit:10}.st8{fill:#ffde00}.st10,.st9{fill:#333}.st10{opacity:.12}.st11,.st12,.st13{fill:#fff;stroke:#333;stroke-miterlimit:10}.st12,.st13{fill:none;stroke:#ffde00}.st13{stroke:#333;stroke-dasharray:1.7143,1.7143}.st19{stroke-miterlimit:10;fill:#fff;stroke:#ffde00}</style><path opacity=".05" d="M144.5 210.3v-15.5l-13.3-7.7-13.4 7.7v15.5l13.4 7.7z"/><path d="M165.3 221.6v-15.7l-13.6-7.9-13.6 7.9v15.7l13.6 7.8zm429.9-28.5v-13.3l-11.5-6.6-11.5 6.6v13.3l11.5 6.6zM250.3 433.8v-13.3l-11.5-6.6-11.5 6.6v13.3l11.5 6.7z" opacity=".86" fill="none" stroke="#fedd00" stroke-miterlimit="10"/><path d="M580.3 520.4v-12.8l-11.2-6.5-11.1 6.5v12.8l11.1 6.5zm86.3-239v-13.6l-11.8-6.8-11.8 6.8v13.6l11.8 6.8z" opacity=".14" stroke="#000" fill="none" stroke-miterlimit="10"/><path d="M599.8 508.7v-15.2l-13.2-7.6-13.2 7.6v15.2l13.2 7.7zM269.1 87.2v-9.4l-8.2-4.7-8.1 4.7v9.4l8.1 4.7z" opacity=".42" fill="#fedd00"/><path opacity=".22" fill="#fedd00" d="M512.3 218v-9.5l-8.2-4.8-8.3 4.8v9.5l8.3 4.8z"/><path opacity=".92" fill="none" stroke="#fedd00" stroke-miterlimit="10" d="M390.3 108v-9.1l-7.9-4.5-7.8 4.5v9.1l7.8 4.5z"/><path class="st6" d="M247 457.8c-30.6-31.9 15.4-125.6 102.8-209.4s182.9-125.8 213.5-94"/><path class="st7" d="M563.3 154.5c30.6 31.9-15.4 125.6-102.8 209.4s-182.9 125.8-213.5 94"/><circle class="st8" cx="543.9" cy="261.1" r="3.2"/><circle class="st8" cx="330.3" cy="268.2" r="3.2"/><circle class="st9" cx="434.6" cy="181.2" r="2.7"/><circle class="st9" cx="489.7" cy="334.4" r="2.7"/><circle class="st9" cx="264.8" cy="467.6" r="2.7"/><circle class="st9" cx="372.3" cy="432.6" r="2.7"/><circle class="st9" cx="572.7" cy="177.4" r="2.7"/><path class="st6" d="M556.8 464.3c-31.9 30.6-125.6-15.4-209.4-102.8s-125.8-182.9-94-213.5"/><path class="st7" d="M253.5 148c31.9-30.6 125.6 15.4 209.4 102.8s125.8 182.9 94 213.5"/><circle class="st8" cx="341.2" cy="156" r="4.8"/><circle class="st8" cx="531.5" cy="336.5" r="3.2"/><circle class="st9" cx="372.3" cy="174.7" r="2.7"/><ellipse transform="rotate(-5.228 362.538 376.965) scale(.99996)" class="st9" cx="362.6" cy="377" rx="2.7" ry="2.7"/><circle class="st9" cx="277.4" cy="271.9" r="2.7"/><circle class="st8" cx="421.7" cy="426.7" r="3.2"/><circle class="st8" cx="440.5" cy="229.3" r="3.2"/><ellipse transform="rotate(-44.846 637.878 385.744)" class="st10" cx="637.9" cy="385.7" rx="38.1" ry="38.1"/><circle class="st11" cx="636" cy="383.9" r="36.2"/><circle class="st6" cx="636" cy="383.9" r="23.8"/><circle class="st12" cx="636" cy="383.9" r="12.3"/><circle class="st8" cx="636" cy="383.9" r="3.5"/><path class="st12" d="M637.1 337.4v17.5m-1.1 12.4v33.2m16.6-16.6h-33.1m-12.8-1.4H592m90.2 0h-16.6m-28.5 27.1v14.9"/><path class="st7" d="M462.2 307.3v-29.2l-25.3-14.6-25.3 14.6v29.2l25.3 14.6zm-58.3 0v-29.2l-25.3-14.6-25.3 14.6v29.2l25.3 14.6zm29.1 49.3v-29.2l-25.3-14.6-25.3 14.6v29.2l25.3 14.6zM407.7 372v1"/><path class="st13" d="M407.7 374.8v9.4"/><path class="st7" d="M407.7 385v1m55.6-108.6l.8-.5"/><path class="st13" d="M465.6 276.1l8.2-4.8"/><path class="st7" d="M474.5 270.9l.9-.5m-136 0l.8.5"/><path class="st13" d="M341.7 271.8l8.2 4.7"/><path class="st7" d="M350.6 276.9l.9.5"/><path opacity=".63" fill="#ffde00" d="M437.6 326.8v-34.6l-29.9-17.3-29.9 17.3v34.6l29.9 17.2z"/><path d="M437.6 292.2l-29.9 17.3m0 34.5v-34.5" stroke-miterlimit="10" fill="none" stroke="#f9f9f9" stroke-linecap="round"/><path fill="none" stroke="#f9f9f9" stroke-linecap="square" stroke-miterlimit="10" d="M377.8 292.2l21.8 12.3"/><ellipse transform="rotate(-44.846 340.643 473.785)" class="st10" cx="340.7" cy="473.8" rx="40.1" ry="40.1"/><circle class="st11" cx="339" cy="471.2" r="37.6"/><path class="st12" d="M332.1 482.4h13c1.2 0 2.3 1 2.3 2.3v1.7c0 1.2-1 2.3-2.3 2.3h-13c-1.2 0-2.3-1-2.3-2.3v-1.7c.1-1.3 1.1-2.3 2.3-2.3zm0 6.3h13c1.2 0 2.3 1 2.3 2.3v1.7c0 1.2-1 2.3-2.3 2.3h-13c-1.2 0-2.3-1-2.3-2.3V491c.1-1.3 1.1-2.3 2.3-2.3z"/><path class="st12" d="M333 494.9c.3 2.8 2.7 5 5.6 5 2.9 0 5.3-2.2 5.6-5H333z"/><path class="st12" d="M339.7 498.9c0-.6-.5-1.1-1.1-1.1s-1.1.5-1.1 1.1c0 .3.2.6.4.8.2 0 .5.1.7.1.2 0 .5 0 .7-.1.3-.2.4-.5.4-.8zm1-30.7v-.2c0-1.7 1.4-3.1 3.1-3.1s3.1 1.4 3.1 3.1-1.4 3.1-3.1 3.1h-.2m-10.1.1c-1.7 0-3.1-1.4-3.1-3.1s1.4-3.1 3.1-3.1c1.7 0 3.1 1.4 3.1 3.1v.1m4.1-.1v-.2m0 14.5v-14.3m-4.1 14.3v-14.3m-3.1 3.1H344m3.5 20.9h-11.2m-2.5 0H330m17.2-6.6h-6.9m-1.8 0h-1.3m-1.2 0h-6.3"/><path class="st12" d="M333 482.4h11.2c6.9-2.3 11.8-8.9 11.8-16.5 0-9.6-7.8-17.5-17.5-17.5-9.6 0-17.5 7.8-17.5 17.5.2 7.7 5.1 14.2 12 16.5z"/><ellipse transform="rotate(-44.846 563.286 261.53)" class="st10" cx="563.3" cy="261.5" rx="32.1" ry="32.1"/><ellipse class="st11" cx="561.8" cy="260.2" rx="30.1" ry="30.7"/><path d="M565.3 245.4l-8 32m-5.4-7.6l-4-4.4-4-4.4 4-4.4 4-4.4m19 18.8l4-4.4 4-4.4-4-4.4-4-4.4" stroke-width="2" fill="none" stroke="#fedd00" stroke-miterlimit="10"/><ellipse transform="rotate(-44.846 235.477 183.909)" class="st10" cx="235.5" cy="183.9" rx="32.1" ry="32.1"/><ellipse class="st11" cx="234" cy="182.6" rx="30.1" ry="30.7"/><path class="st12" d="M249.2 193.6l-5.5-4.5c-.9-.7-2.2-.8-3.1 0l-1.7 1.3c-.7.5-1.6.5-2.2 0-2.7-2.4-5-5.2-6.9-8.6-.5-.8-.3-1.9.5-2.5l1.4-1.1c.9-.7 1.2-2 .7-3.1l-3.2-6.4c-.6-1.2-2.2-1.5-3.2-.7-2.2 1.6-3.7 3.6-4.6 6.1-1.2 6.1 2.7 12.3 6 16.5 3.5 4.6 9.6 9.6 15.1 9.5 2.4-.3 4.7-1.3 6.8-3.3.9-.7.9-2.3-.1-3.2z"/><circle cx="493.9" cy="129.2" r="27.1" opacity=".23" fill="#fff"/><ellipse transform="rotate(-44.846 496.615 131.61)" class="st10" cx="496.6" cy="131.6" rx="37.3" ry="37.3"/><circle class="st11" cx="494" cy="129.3" r="34.9"/><path class="st12" d="M519.7 116.5l-48.9 10.8 27 20.9zm-39.2 18.4l3.1 16.2 9.4-6.5zm39.2-18.4l-31.3 24.2m-7.8-5.9l39.1-18.3m-31.3 24.2l-4.8 10.4"/><ellipse transform="rotate(-44.846 174.186 321.864)" class="st10" cx="174.2" cy="321.9" rx="39.6" ry="39.6"/><ellipse class="st11" cx="172.3" cy="320.2" rx="37.1" ry="37.8"/><path class="st12" d="M194.3 332.9v-25.3l-22-12.7-21.9 12.7v25.3l21.9 12.7z"/><ellipse transform="rotate(-7.987 172.308 294.86)" class="st19" cx="172.3" cy="294.9" rx="2.6" ry="2.6"/><ellipse transform="rotate(-7.987 194.26 307.58)" class="st19" cx="194.3" cy="307.6" rx="2.6" ry="2.6"/><ellipse transform="rotate(-7.987 150.358 307.581)" class="st19" cx="150.4" cy="307.6" rx="2.6" ry="2.6"/><ellipse transform="rotate(-7.987 194.26 333.233)" class="st19" cx="194.3" cy="333.3" rx="2.6" ry="2.6"/><ellipse transform="rotate(-7.987 150.36 333.234)" class="st19" cx="150.4" cy="333.3" rx="2.6" ry="2.6"/><ellipse transform="rotate(-7.987 172.311 345.553)" class="st19" cx="172.3" cy="345.6" rx="2.6" ry="2.6"/><path class="st12" d="M172.3 322.8V343m-.1-45.5v20.2m-19.8 14.1l39.6-22.6m.1 22.6L152.5 309"/><ellipse transform="rotate(-7.987 172.31 320.206)" class="st19" cx="172.3" cy="320.2" rx="2.6" ry="2.6"/></svg>