<svg id="Layer_1" xmlns="http://www.w3.org/2000/svg" viewBox="0 0 800 600"><script xmlns="" type="text/javascript" charset="utf-8" id="zm-extension"/><style>.st0{opacity:.12;fill:#333}.st1,.st2,.st4{stroke-miterlimit:10}.st1{opacity:.14;fill:none;stroke:#000}.st2{fill:#fff;stroke:#333}.st4{fill:none;stroke:#fedd00}.st5{stroke-dasharray:4}.st5,.st6{fill:none;stroke:#333;stroke-miterlimit:10}.st7{fill:#333}.st12{opacity:3.000000e-02;fill:#0c0c0c}.st14{fill:#fedd00}</style><path class="st0" d="M583.6 263.5h-19.4c-5 0-9-4-9-9V235c0-5 4-9 9-9h19.4c5 0 9 4 9 9v19.5c0 5-4 9-9 9zm72-68.6h-34.4c-3.9 0-7-3.1-7-7v-34.5c0-3.9 3.1-7 7-7h34.4c3.9 0 7 3.1 7 7v34.5c0 3.8-3.1 7-7 7zM282.9 217h-40.4c-7.1 0-12.9-5.8-12.9-12.9v-38.9c0-8 6.5-14.5 14.5-14.5h38.7c7.1 0 12.9 5.8 12.9 12.9v40.5c.1 7.2-5.7 12.9-12.8 12.9zm362.5 162.2H605c-7.1 0-12.9-5.8-12.9-12.9v-38.9c0-8 6.5-14.5 14.5-14.5h38.7c7.1 0 12.9 5.8 12.9 12.9v40.5c.1 7.1-5.7 12.9-12.8 12.9zm-340.1 20.4h-40.4c-7.1 0-12.9-5.8-12.9-12.9v-38.9c0-8 6.5-14.5 14.5-14.5h38.7c7.1 0 12.9 5.8 12.9 12.9v40.5c.1 7.1-5.7 12.9-12.8 12.9z"/><path class="st1" d="M119.6 340.3V329l-9.8-5.7-9.8 5.7v11.3l9.8 5.7zm214.9-230.4v-6.4l-5.6-3.2-5.5 3.2v6.4l5.5 3.2z"/><path class="st2" d="M579.8 259.9h-19.4c-5 0-9-4-9-9v-19.5c0-5 4-9 9-9h19.4c5 0 9 4 9 9v19.5c0 4.9-4 9-9 9zm71.5-69.3h-34.4c-3.9 0-7-3.1-7-7v-34.5c0-3.9 3.1-7 7-7h34.4c3.9 0 7 3.1 7 7v34.5c0 3.9-3.2 7-7 7z"/><path class="st0" d="M197.7 309h-36.3c-3.9 0-7-3.1-7-7v-36.5c0-3.9 3.1-7 7-7h36.3c3.9 0 7 3.1 7 7V302c0 3.8-3.1 7-7 7z"/><path class="st2" d="M190.5 303.9h-31.3c-5 0-9-4-9-9v-31.4c0-5 4-9 9-9h31.3c5 0 9 4 9 9v31.4c0 4.9-4 9-9 9zm86.6-92.8h-40.4c-7.1 0-12.9-5.8-12.9-12.9v-38.9c0-8 6.5-14.5 14.5-14.5H277c7.1 0 12.9 5.8 12.9 12.9v40.5c.1 7.1-5.7 12.9-12.8 12.9z"/><circle cx="256.9" cy="178" r="22.8" fill="none" stroke="#fedd00" stroke-miterlimit="10" stroke-dasharray="4"/><circle class="st4" cx="256.9" cy="178" r="17.9"/><path class="st4" d="M239 178h35.7m-31.8 11.2c9.4-3.6 18.7-3.6 27.9 0m-27.9-22.1c9.1 3.7 18.4 3.7 27.9 0"/><ellipse class="st4" cx="256.5" cy="178" rx="7" ry="17.9"/><path class="st4" d="M573.5 229.2l-5.9 23.9m-4-5.7l-3-3.3-3-3.3 3-3.2 3-3.3m14.1 13.9l3-3.2 2.9-3.3-2.9-3.3-3-3.3"/><path class="st5" d="M286.8 265.5h239.5V475H286.8z"/><path class="st6" d="M280 258.7h13.5v13.5H280zm239.6 0h13.5v13.5h-13.5zm0 209.5h13.5v13.5h-13.5z"/><path class="st7" d="M402.5 470.5h8.9v8.9h-8.9zm119.6-104.6h8.6v8.6h-8.6zm-239.6 0h8.6v8.6h-8.6z"/><path class="st6" d="M280 468.2h13.5v13.5H280z"/><path class="st5" d="M286.8 265.5h239.5V475H286.8z"/><path class="st6" d="M280 258.7h13.5v13.5H280zm239.6 0h13.5v13.5h-13.5zm0 209.5h13.5v13.5h-13.5z"/><path class="st7" d="M402.5 470.5h8.9v8.9h-8.9zm119.6-104.6h8.6v8.6h-8.6zm-239.6 0h8.6v8.6h-8.6z"/><path class="st6" d="M280 468.2h13.5v13.5H280z"/><path class="st2" d="M640.3 374.3h-40.4c-7.1 0-12.9-5.8-12.9-12.9v-38.9c0-8 6.5-14.5 14.5-14.5h38.7c7.1 0 12.9 5.8 12.9 12.9v40.5c.1 7.1-5.7 12.9-12.8 12.9z"/><path class="st4" d="M639.6 340.9c0-3.3-1.3-6.5-3.7-8.8-5-5-13.7-5.2-18.8-.2-1 .9-1.8 2-2.4 3.2 0 .1-.7 1.5-.7 1.5-1.1-.5-2.2-.7-3.4-.7-3.2 0-6.8 2-7.8 5.2l-.3.9c-1.8-.1-3.7.4-5.1 1.7-1.2 1.1-1.7 2.8-1.5 4.4.1 1.8 1.1 3.3 2.3 4.5.3.3.6.5 1 .8.2.1.7.6 1 .6H640c2.1-.6 4-2.2 4.4-5.6.6-5.5-4.8-7.5-4.8-7.5zm-5.4-5.9c1.3 1.5 2.3 3.4 2.9 5.4m-7.6-9c1.4.6 2.7 1.5 3.8 2.5m-30.7 11.3c-.3-.8-.4-1.9-.1-3.2m2.6 6s-.9-.3-1.7-1.3"/><path class="st2" d="M484.7 194.8c1-.3 2.1-.6 3.1-.9l3.6 6.4 7.9-4.4-3.6-6.4c3.5-2.8 6.4-6.3 8.3-10.5l7.1 2 2.5-8.7-7.1-2c.6-4.6 0-9.2-1.6-13.3l6.4-3.6-4.4-7.9-6.4 3.6c-2.8-3.5-6.3-6.4-10.6-8.3l2-7.1-8.7-2.5-2 7.1c-4.6-.5-9.2 0-13.4 1.6l-3.6-6.4-7.9 4.4 3.6 6.4c-3.5 2.8-6.4 6.3-8.3 10.5l-7.1-2-2.5 8.7"/><path class="st2" d="M463.8 161.4c2.8-7.2 10.6-11.2 18.1-9.1 8 2.3 12.7 10.6 10.4 18.6-1.2 4.2-4 7.5-7.6 9.3M299.9 394.5h-40.4c-7.1 0-12.9-5.8-12.9-12.9v-38.9c0-8 6.5-14.5 14.5-14.5h38.7c7.1 0 12.9 5.8 12.9 12.9v40.5c.1 7.1-5.6 12.9-12.8 12.9z"/><ellipse transform="rotate(-10.446 279.79 361.376)" class="st2" cx="279.8" cy="361.3" rx="21.9" ry="21.9"/><path fill="#fff" stroke="#fedd00" stroke-miterlimit="10" d="M289.3 334.4L266.6 366h11.3l-8.2 22.3 23.2-32.1h-11.2z"/><path class="st4" d="M183.9 280.1c0-4.2 3.4-6.2 3.6-6.3-1.9-2.9-5-3.2-6.1-3.3-2.6-.3-5 1.5-6.4 1.5-1.3 0-3.3-1.5-5.5-1.4-2.8 0-5.4 1.6-6.9 4.2-2.9 5.1-.7 12.6 2.1 16.7 1.4 2 3.1 4.3 5.2 4.2 2.1-.1 2.9-1.4 5.4-1.4 2.5 0 3.3 1.4 5.5 1.3 2.3 0 3.7-2.1 5.1-4.1 1.6-2.3 2.3-4.6 2.3-4.7.1 0-4.3-1.7-4.3-6.7zm-4.2-13.4c1.2-1.4 1.9-3.4 1.7-5.3-1.7.1-3.7 1.1-4.9 2.5-1.1 1.2-2 3.2-1.8 5.1 1.9.2 3.8-.9 5-2.3zm464.7-106.1h-20.7c0-5.4 4.4-9.8 9.8-9.8h1c5.5 0 9.9 4.4 9.9 9.8zm-16 18.2v6.7m11.7-7v6.8m-20-23.6V172m27.9-10.3V172m-21.2-24.8l2.6 4.1m11.4-4.1l-2.6 4.1"/><path class="st4" d="M623.7 160.4h20.7v18.1h-20.7z"/><path d="M168.6 426.3v-13.6l-11.8-6.8-11.8 6.8v13.6l11.8 6.8zM700 250.6v-13.7l-11.8-6.8-11.8 6.8v13.7l11.8 6.8z" opacity=".05"/><path d="M186.8 436.2v-13.8l-11.9-6.9-12 6.9v13.8l12 6.9zm496.4-176.7v-13.8l-11.9-6.9-12 6.9v13.8l12 6.9zm-103-135.3v-11.7l-10.1-5.8-10.1 5.8v11.7l10.1 5.8z" opacity=".86" fill="none" stroke="#fedd00" stroke-miterlimit="10"/><path class="st1" d="M472.9 494.1v-11.4l-9.8-5.6-9.8 5.6v11.4l9.8 5.6zm122.9-61.2v-8.1l-7-4.1-7 4.1v8.1l7 4zM166.5 201.7v-10.2l-8.9-5.2-8.8 5.2v10.2l8.8 5.1z"/><path d="M490 483.8v-13.4l-11.5-6.7-11.6 6.7v13.4l11.6 6.7zM482.7 330v-13.4l-11.6-6.7-11.5 6.7V330l11.5 6.7zM178.1 213.5v-13.3l-11.6-6.7-11.6 6.7v13.3l11.6 6.7z" opacity=".42" fill="#fedd00"/><path class="st2" d="M358.5 173c-10.1 0-18.4 8.2-18.4 18.4v228.1c0 10.1 8.2 18.4 18.4 18.4h91.9c10.1 0 18.4-8.2 18.4-18.4V191.4c0-10.1-8.2-18.4-18.4-18.4h-91.9z"/><path class="st2" d="M450.1 178.8h-13.3v1.3c0 4.8-3.9 8.6-8.6 8.6h-48.4c-4.8 0-8.6-3.9-8.6-8.6v-1.3h-12.6c-6.6 0-11.9 5.4-11.9 12v228.5c0 6.6 5.3 12 11.9 12h91.5c6.6 0 11.9-5.4 11.9-12V190.8c.1-6.6-5.3-12-11.9-12z"/><path class="st7" d="M415.1 179.4h.9c.4 0 .8.4.8.8v.9c0 .4-.4.8-.8.8h-.9c-.4 0-.8-.4-.8-.8v-.9c0-.4.4-.8.8-.8zm-24.9.2h17.2c.4 0 .6.3.6.6v.7c0 .4-.3.6-.6.6h-17.2c-.4 0-.6-.3-.6-.6v-.7c0-.3.3-.6.6-.6z"/><path class="st12" d="M391.3 430.7h21.4l49.4-89.5v-39z"/><circle class="st5" cx="404.6" cy="284.7" r="41.8"/><path class="st12" d="M460.4 185L425 248.2c12.8 7.2 21.4 20.8 21.4 36.5 0 23.1-18.7 41.8-41.8 41.8-7.4 0-14.4-1.9-20.4-5.3l-37 66.3v31.3c0 6.6 5.3 11.9 11.9 11.9H380l82.1-151.3v-88.3c0-2.2-.7-4.3-1.7-6.1z"/><g id="Fill-4-Copy" transform="translate(278 556)" opacity=".86"><path id="Fill-4" class="st14" d="M137.7-271.2l-.3-3.9c-.2-2.2-.4-4.4-.8-6.7-.1-.8-.5-1.5-.8-2.2-.3-.5-.9-.7-1.3-.5-.9.5-1.8 1.1-2.1 2.2-.4 1.7-1 3.4-1.3 5.1-.3 1.9-.5 3.9-.7 5.9 0 .3 0 .5.4.5.8 0 1.6.1 2.4.1 1.2.1 2.5.1 3.7.2.7 0 .8-.1.8-.7m-7.2 7.6c.1 2 .1 3.9.6 5.8.1.2.1.5 0 .8-.1.2-.3.5-.5.6-.7.3-1.5.4-2.3.3-1.2-.1-1.7-.6-1.8-1.7-.1-.8-.1-1.6-.1-2.4 0-3.3 0-6.6.2-9.9.1-2.2.5-4.5 1-6.7.4-2 .9-4 1.5-5.9.3-1 .8-1.9 1.3-2.8 1.1-1.7 2.8-2.4 4.9-2 .3.1.7.1 1 .2 1.7.3 2.5 1.4 3 2.8.9 2.1 1.2 4.2 1.4 6.4.2 1.9.2 3.7.3 5.6.1 2.1.2 4.2.2 6.3 0 3.3-.1 6.6-.1 9.9 0 1-.8 1.5-1.9 1.3-.8-.1-1.4-.4-1.8-1-.1-.2 0-.7 0-.7.1-1.1.3-2.3.3-3.4.1-2.1-.1-2.7 0-4.8 0-.5-2.8-.8-3.9-.9-1.2-.1-2.3 0-3.4 0 0 .1.1.9.1 2.2z"/><path id="Fill-7" class="st14" d="M102.1-261.3c-.2-5.5-.5-11.1-.7-16.6-.1-2 .1-4.1.1-6.1 0-.4-.1-.7-.2-1.1-.1-.4-.5-.4-1-.3-1.6.6-3 .1-3.4-1.1v-.1c-.4-1.7.5-2.3 2.9-2.4 1.9 0 3.8-.2 5.7-.3 1 0 2.1-.1 3.1 0 1 0 1.8.5 1.6 1.8-.3 1.3-1.6 1.7-1.9 1.7-.2 0-1.1 0-1.5.7-.4.7-.2 1.9-.2 2.1.1 4.2.1 7.6.2 11.8.1 3.6-.2 6.2 0 9.8.1 1.3-.1 2.7-.1 4 0 .2 0 .4.1.6.2 0 2.7-.1 3.9.7 1.2.8.6 1.8.3 2.1-.9.6-2 .9-3.4.7-1.4-.2-2.8-.1-4.3 0-.9 0-1.7.2-2.6.3-1.5.2-2.7-.5-2.7-1.6v-.4c0-.9.3-1.1 1.5-1.2.8-.1 1.6-.1 2.6-.2v-4.9z"/><path id="Fill-5" class="st14" d="M146.5-274.1s.4-.1.6-.1c.6-.3 1.2-.5 1.8-.8 3-1.5 4.8-5.2 4.1-8.5-.3-1.3-1-2.3-2.4-2.6-.9-.2-1.7-.1-2.6.1-.5.1-.8.4-.8.8-.1.5-.1.9-.2 1.4-.2 2.4-.4 4.7-.6 7.1 0 .7.1 1.6.1 2.6m5.3-14.9c1.7.3 4.4 2.5 4.7 5.1.1 1 .1 2.2-.1 3.5-.4 2.3-1.3 4.7-2.6 6.5-2 2.7-5 3.5-6.1 4.2s-.8 3.3-.8 6c0 2.6-.1 5.2 0 7.7s0 1 0 1.5c-.1.9-1.3 1.4-2.2 1.4-.4 0-.9 0-1.3-.1-.7-.2-.9-.6-.9-1.3v-2.8c-.1-4.2 0-8.3.3-12.5.2-2.4.3-4.8.4-7.2.2-1.9.6-7.2.7-7.9.1-.9 0-.7.2-1.6.1-1.1.4-2.4 1.6-2.6 1.1-.1 4.4-.2 6.1.1z"/><g id="Group" transform="translate(350.13 27.924)"><path id="Combined-Shape" class="st14" d="M-225.2-293.8c-.2 1.1-.5 2.2-.9 3.3-.1.2-.8 1.8-1.8 3s-2.2 1.9-2.8 2.4c-.9.6-1.8 1.2-3 1.4-1 .2-3.9.6-4.7-1.4-.8-2-.1-15.1 0-17.7.2-3.8 0-12.2.6-12.8.7-.6 1.1-.4 1.6-.4 1.5.1 3 .1 4.4.4 1.7.4 3 1.3 4.1 2.5 1.3 1.4 2.2 2.9 2.8 4.6.3.8 1.2 1.7.9 6.9s-1 6.7-1.2 7.8zm-3.2-6.5v-2.9c0-1.2-.1-2.4-.3-3.6-.2-1.3-.6-2.5-1.1-3.6-.4-.9-1-1.7-1.7-1.9-.6-.2-1.2-.3-1.8-.3-.2 0-.4.2-.6.3 0 0-.1.2-.1.3v.9c-.2 2.9-.1 5.9-.2 8.8v13.9c-.1.8.1 1.3.6 1.3.4 0 .8-.2 1.2-.3.5-.2.8-.6 1.2-1.1.5-.6 1-1.3 1.2-2.3.1-.3.2-.6.3-.8.1-.3.2-.6.3-1 .1-.9.3-1.7.3-2.6.4-1.8.6-3.4.7-5.1z"/></g></g></svg>