<svg width="1190" height="291" xmlns="http://www.w3.org/2000/svg"><script xmlns="" type="text/javascript" charset="utf-8" id="zm-extension"/><g fill="none" fill-rule="evenodd"><path stroke="#FEDD00" opacity=".5" d="M104 40.3V22.2l-15.7-9.1-15.7 9.1v18.1l15.7 9z"/><path stroke="#000" opacity=".1" d="M308.9 211.7v-29.2l-25.3-14.6-25.3 14.6v29.2l25.3 14.6zm-58.3 0v-29.2l-25.3-14.6-25.3 14.6v29.2l25.3 14.6z"/><path stroke="#000" opacity=".15" d="M1060.4 263.9v-16.4l-14.2-8.2-14.2 8.2v16.4l14.2 8.2z"/><path fill="#000" fill-rule="nonzero" opacity=".1" d="M284.3 231.2v-34.5l-29.9-17.3-29.9 17.3v34.5l29.9 17.3z"/><path fill="#000" fill-rule="nonzero" opacity=".05" d="M446.4 23.2V7.7L433 0l-13.4 7.7v15.5l13.4 7.7z"/><path stroke="#000" opacity=".08" d="M757.7 278.5v-12.9l-11.2-6.4-11.1 6.4v12.9l11.1 6.4z"/><path stroke="#FEDD00" opacity=".5" d="M467.1 34.4V18.7l-13.6-7.8-13.6 7.8v15.7l13.6 7.8z"/><path fill="#FEDD00" fill-rule="nonzero" opacity=".38" d="M777.2 266.8v-15.2L764 244l-13.2 7.6v15.2l13.2 7.6z"/><path fill="#000" fill-rule="nonzero" opacity=".08" d="M22.8 190.7v-12.9l-11.1-6.4-11.2 6.4v12.9l11.2 6.4z"/><path stroke="#FEDD00" opacity=".5" d="M279.7 261.1v-29.2l-25.3-14.6-25.3 14.6v29.2l25.3 14.5z"/><path d="M284.3 196.7l-29.9 17.2m0 34.6v-34.6m-29.9-17.2l21.8 12.3" stroke="#F9F9F9" stroke-linecap="square"/><g opacity=".5" stroke="#FEDD00"><path d="M254.4 276.5v1"/><path d="M254.4 279.2v9.4" stroke-dasharray="1.7143,1.7143"/><path d="M254.4 289.5v1"/></g><g opacity=".05" stroke="#000"><path d="M310 181.9l.8-.5"/><path d="M312.3 180.5l8.2-4.7" stroke-dasharray="1.7143,1.7143"/><path d="M321.2 175.4l.9-.5"/></g><g opacity=".05" stroke="#000"><path d="M186.1 174.9l.8.5"/><path d="M188.4 176.2l8.2 4.7" stroke-dasharray="1.7143,1.7143"/><path d="M197.3 181.4l.9.5"/></g><path stroke="#FEDD00" opacity=".5" d="M996.9 54.7V25.5l-25.3-14.6-25.2 14.6v29.2l25.2 14.6z"/><path fill="#000" fill-rule="nonzero" opacity=".1" d="M972.4 74.2V39.6l-29.9-17.3-30 17.3v34.6l30 17.2z"/><path d="M972.4 39.6l-29.9 17.3m0 34.5V56.9m-30-17.3l21.8 12.3" stroke="#F9F9F9" stroke-linecap="square"/><path d="M1060.4 247.5l-14.2 8.2m0 16.4v-16.4m-14.2-8.2l10.4 5.9" stroke="#000" opacity=".15" stroke-dasharray="2"/><g opacity=".5" stroke="#FEDD00"><path d="M998 24.8l.9-.5"/><path d="M1000.4 23.5l8.1-4.8" stroke-dasharray="1.7143,1.7143"/><path d="M1009.3 18.3l.8-.5"/></g><g opacity=".15" stroke="#000"><path d="M53.1 10.9l.9.5"/><path d="M55.5 12.3L67.2 19" stroke-dasharray="1.798,1.798"/><path d="M68 19.5l.8.5"/></g><g opacity=".15" stroke="#000"><path d="M107.1 42l.8.5"/><path d="M109.5 43.4l11.7 6.8" stroke-dasharray="1.798,1.798"/><path d="M121.9 50.6l.9.5"/></g><g opacity=".5" stroke="#FEDD00"><path d="M88.3 31.2v1"/><path d="M88.3 34v13.5" stroke-dasharray="1.798,1.798"/><path d="M88.3 48.4v1"/></g><path stroke="#FEDD00" opacity=".5" d="M1176 130.3v-18.1l-15.7-9.1-15.6 9.1v18.1l15.6 9z"/><g opacity=".15" stroke="#000"><path d="M1145.5 112.6l.8.5"/><path d="M1148.1 114.1l9.8 5.7" stroke-dasharray="2.0498,2.0498"/><path d="M1158.8 120.3l.8.5"/></g><g opacity=".5" stroke="#FEDD00"><path d="M1178.1 111.3l.9-.5"/><path d="M1181 109.6l7.1-4.1" stroke-dasharray="2.341,2.341"/><path d="M1189.1 104.9l.9-.5"/></g><g opacity=".15" stroke="#000"><path d="M1160.3 127v1"/><path d="M1160.3 129.9v6.4" stroke-dasharray="1.8441,1.8441"/><path d="M1160.3 137.3v1"/></g></g></svg>