<svg id="Layer_1" xmlns="http://www.w3.org/2000/svg" viewBox="0 0 800 600"><script xmlns="" type="text/javascript" charset="utf-8" id="zm-extension"/><style>.st0{opacity:5.000000e-02}.st1,.st4{fill:none;stroke-miterlimit:10}.st1{opacity:.86;stroke:#fedd00}.st4{stroke:#333;stroke-dasharray:4}.st5{opacity:.12;fill:#333}.st6{fill:#fff;stroke:#333;stroke-miterlimit:10}.st9{fill:#333}.st10{fill:#ffde00}.st12{fill:none;stroke:#ffde00;stroke-miterlimit:10}</style><path class="st0" d="M202.8 464.1V448l-14-8-13.9 8v16.1l13.9 8zM289 105V88.9l-14-8-13.9 8V105l13.9 8zm49.7 126.7v-11.6l-10-5.7-10 5.7v11.6l10 5.8z"/><path class="st1" d="M224.3 475.8v-16.3l-14.1-8.2-14.1 8.2v16.3l14.1 8.1z"/><path class="st0" d="M565.7 91.9v21.9l19 11 19-11V91.9l-19-11z"/><path class="st1" d="M549.3 83.1v16.3l14.1 8.2 14.1-8.2V83.1L563.4 75zm-12.9 192.7v-11.9l-10.4-6-10.3 6v11.9l10.3 6zM133.3 111.3v-7.5l-6.5-3.7-6.5 3.7v7.5l6.5 3.8z"/><path d="M142.3 361v-10.4l-9-5.2-9 5.2V361l9 5.2zm143.5-50.9v-12.5l-10.8-6.2-10.7 6.2v12.5l10.7 6.2zm391.4 155.8v-13.4l-11.6-6.7-11.5 6.7v13.4l11.5 6.7z" opacity=".14" stroke="#000" fill="none" stroke-miterlimit="10"/><path opacity=".42" fill="#fedd00" d="M697.5 453.8v-15.9l-13.7-7.9-13.7 7.9v15.9l13.7 7.9z"/><path class="st4" d="M627.2 245v150.4H195.5V245"/><path class="st5" d="M472.6 133.1l-22-3.7v-6.8c0-2.6-2.1-4.7-4.7-4.7h-64.4c-2.6 0-4.7 2.1-4.7 4.7v6.8l-19.4 3.4c-2.6.4-4.3 2.9-3.8 5.5l13.2 75.4c.4 2.6 2.9 4.3 5.5 3.8l4.7-.8c.3 2.3 2.3 4.2 4.7 4.2h64.4c2.6 0 4.7-2.1 4.7-4.7v-.5l7.7 1.3c2.6.4 5-1.3 5.4-3.9l12.7-74.6c.3-2.5-1.4-5-4-5.4z"/><path class="st6" d="M532.8 514.3h-243c-4.3 0-7.8-3.5-7.8-7.8v-3.7h258.7v3.7c0 4.3-3.5 7.8-7.9 7.8z"/><path class="st6" d="M526 502.8H296.6V356.4c0-3.3 2.7-6 6-6h217.6c3.2 0 5.8 2.6 5.8 5.8v146.6z"/><path class="st6" d="M515.9 494.6H306.7c-1.1 0-2-.9-2-2v-132c0-1.1.9-2 2-2h209.2c1.1 0 2 .9 2 2v132c0 1.1-.9 2-2 2z"/><path class="st5" d="M501 474.1H353.9c-1.1 0-2-.9-2-2v-89.9c0-1.1.9-2 2-2H501c1.1 0 2 .9 2 2v89.9c0 1.1-.9 2-2 2z"/><path class="st6" d="M495.9 469H348.8c-1.1 0-2-.9-2-2v-89.9c0-1.1.9-2 2-2h147.1c1.1 0 2 .9 2 2V467c0 1.1-.9 2-2 2z"/><path class="st5" d="M490.9 436.7H330.7c-1.1 0-2-.9-2-2v-92.1c0-1.1.9-2 2-2h160.2c1.1 0 2 .9 2 2v92.1c0 1.1-.9 2-2 2z"/><path class="st6" d="M485.7 430H325.5c-1.1 0-2-.9-2-2V322.2c0-1.1.9-2 2-2h160.2c1.1 0 2 .9 2 2V428c0 1.1-.9 2-2 2zm-162.2-94.8h164.2"/><path d="M384.5 365.4h-13.9c-.6 0-1-.4-1-1v-13.9c0-.6.4-1 1-1h13.9c.6 0 1 .4 1 1v13.9c0 .6-.4 1-1 1zm0 25.6h-13.9c-.6 0-1-.4-1-1v-13.9c0-.6.4-1 1-1h13.9c.6 0 1 .4 1 1V390c0 .5-.4 1-1 1zm0 25.5h-13.9c-.6 0-1-.4-1-1v-13.9c0-.6.4-1 1-1h13.9c.6 0 1 .4 1 1v13.9c0 .6-.4 1-1 1zm29.3-51.1h-13.9c-.6 0-1-.4-1-1v-13.9c0-.6.4-1 1-1h13.9c.6 0 1 .4 1 1v13.9c0 .6-.5 1-1 1zm0 25.6h-13.9c-.6 0-1-.4-1-1v-13.9c0-.6.4-1 1-1h13.9c.6 0 1 .4 1 1V390c0 .5-.5 1-1 1zm0 25.5h-13.9c-.6 0-1-.4-1-1v-13.9c0-.6.4-1 1-1h13.9c.6 0 1 .4 1 1v13.9c0 .6-.5 1-1 1zm29.2-51.1h-13.9c-.6 0-1-.4-1-1v-13.9c0-.6.4-1 1-1H443c.6 0 1 .4 1 1v13.9c0 .6-.4 1-1 1zm0 25.6h-13.9c-.6 0-1-.4-1-1v-13.9c0-.6.4-1 1-1H443c.6 0 1 .4 1 1V390c0 .5-.4 1-1 1zm0 25.5h-13.9c-.6 0-1-.4-1-1v-13.9c0-.6.4-1 1-1H443c.6 0 1 .4 1 1v13.9c0 .6-.4 1-1 1zm29.3-51.1h-13.9c-.6 0-1-.4-1-1v-13.9c0-.6.4-1 1-1h13.9c.6 0 1 .4 1 1v13.9c0 .6-.5 1-1 1zm0 25.6h-13.9c-.6 0-1-.4-1-1v-13.9c0-.6.4-1 1-1h13.9c.6 0 1 .4 1 1V390c0 .5-.5 1-1 1zm0 25.5h-13.9c-.6 0-1-.4-1-1v-13.9c0-.6.4-1 1-1h13.9c.6 0 1 .4 1 1v13.9c0 .6-.5 1-1 1z" opacity=".1" fill="#333" stroke="#fff" stroke-miterlimit="10"/><path d="M354.5 335.2v94.6m-31-66.3h31" fill="none" stroke="#333" stroke-miterlimit="10"/><circle class="st9" cx="330.5" cy="327.9" r="1.4"/><circle class="st9" cx="336.8" cy="327.9" r="1.4"/><circle class="st9" cx="343.3" cy="327.9" r="1.4"/><path class="st6" d="M331.6 374.7h14.6m-11.5 4.3h8.8m-11.7 10.2h14.6m-11.4 4.3h8.7m-8.7 9.9h8.7m-11 9.8H346"/><circle class="st10" cx="627.2" cy="395.4" r="7.6"/><circle class="st10" cx="195.5" cy="395.4" r="7.6"/><circle class="st9" cx="627.2" cy="312.9" r="4.3"/><circle class="st9" cx="255.7" cy="395.4" r="4.3"/><circle class="st9" cx="195.5" cy="332.2" r="4.3"/><circle class="st9" cx="195.5" cy="286.1" r="4.3"/><circle class="st9" cx="273" cy="181.8" r="4.3"/><circle class="st9" cx="496.7" cy="174.7" r="4.3"/><path class="st4" d="M183.4 218.4c61.8-34 136.2-53.9 216.2-53.9 83.7 0 161.2 21.7 224.6 58.6"/><path class="st6" d="M434.5 199.7l-68 11.9c-2.2.4-4.2-1.1-4.6-3.3l-13.4-76.8c-.4-2.2 1.1-4.2 3.3-4.6l68-11.9c2.2-.4 4.2 1.1 4.6 3.3l13.4 76.8c.3 2.1-1.2 4.2-3.3 4.6z"/><path class="st6" d="M454.6 211l-68-11.6c-2.2-.4-3.6-2.4-3.3-4.6l12.9-76c.4-2.2 2.4-3.6 4.6-3.3l68 11.6c2.2.4 3.6 2.4 3.3 4.6l-12.9 76c-.3 2.2-2.4 3.7-4.6 3.3z"/><path class="st6" d="M442.9 216H377c-2.2 0-4-1.8-4-4v-95c0-2.2 1.8-4 4-4h65.9c2.2 0 4 1.8 4 4v95c0 2.2-1.8 4-4 4z"/><circle class="st6" cx="410" cy="142.8" r="17.7"/><path opacity=".61" fill="none" stroke="#ffde00" stroke-width="2" stroke-miterlimit="10" d="M402.1 144.6l5.3 4.4 11.7-11.9"/><path class="st12" d="M399.5 179.1h35.2m-35.2 17.1h35.2"/><path class="st6" d="M391 182.4h-4.7c-.6 0-1-.4-1-1v-4.7c0-.6.4-1 1-1h4.7c.6 0 1 .4 1 1v4.7c0 .6-.4 1-1 1zm0 17.1h-4.7c-.6 0-1-.4-1-1v-4.7c0-.6.4-1 1-1h4.7c.6 0 1 .4 1 1v4.7c0 .6-.4 1-1 1z"/><circle class="st10" cx="551.7" cy="189.6" r="7.6"/><path class="st5" d="M704.9 231.9L667 205.5l1.8-2.6c1.3-1.9.9-4.5-1-5.8l-35.9-25c-1.9-1.3-4.5-.9-5.8 1l-3.9 5.6c-.1.1-.2.2-.3.4l-4.9 7c-2.1-1.1-4.7-.5-6.1 1.4l-37.1 53.3c-1.5 2.1-1 5.1 1.2 6.6l83.2 58c2.1 1.5 5.1 1 6.6-1.2l37.1-53.3c1.4-2 1-4.6-.8-6.2l4.9-7c1.3-1.9.8-4.5-1.1-5.8zM257.5 236c-.5-1.3-1.9-1.9-3.2-1.4l-.7.3-25.3-66.1.5-.2c1.3-.5 1.9-1.9 1.4-3.2-.5-1.3-1.9-1.9-3.2-1.4l-98.5 37.8c-1.3.5-1.9 1.9-1.4 3.2.5 1.3 1.9 1.9 3.2 1.4l.5-.2 25.4 66.2-.3.2c-1.3.5-1.9 1.9-1.4 3.2.5 1.3 1.9 1.9 3.2 1.4l98.5-38.1c1.1-.4 1.8-1.8 1.3-3.1z"/><path class="st6" d="M702.8 222l-37.9-26.4 1.8-2.6c1.3-1.9.9-4.5-1-5.8l-35.9-25c-1.9-1.3-4.5-.9-5.8 1l-3.9 5.6c-.1.1-.2.2-.3.4L582 223.3c-1.3 1.9-.9 4.5 1 5.8l77.2 53.8c1.9 1.3 4.5.9 5.8-1l37.8-54.2c1.3-1.8.9-4.4-1-5.7z"/><path fill="#e6e6e6" stroke="#333" stroke-miterlimit="10" d="M694.3 234.2l-72.5-50.3 8.7-12.5 69 57.1z"/><path class="st6" d="M695.6 219.4l-4.3 9.9-61.9-43.1zm-39 76.4L572.2 237c-1.8-1.3-2.3-3.8-1-5.6l37.9-54.4c1.3-1.8 3.8-2.3 5.6-1l84.4 58.8c1.8 1.3 2.3 3.8 1 5.6l-37.9 54.4c-1.3 1.8-3.8 2.3-5.6 1z"/><path class="st12" d="M650.3 234.6l-.8-4.4-3.6.7c-.8-2.2-2-4.1-3.6-5.6l2.1-3-3.7-2.6-2.1 3c-2-1-4.2-1.5-6.5-1.4l-.7-3.6-4.4.8.7 3.6c-2.2.8-4.1 2-5.6 3.6l-3-2.1-2.6 3.7 3 2.1c-1 2-1.5 4.2-1.4 6.5l-3.6.7.8 4.4 3.6-.7c.8 2.2 2 4.1 3.6 5.6l-2.1 3 3.7 2.6 2.1-3c2 1 4.2 1.5 6.5 1.4l.7 3.6 4.4-.8-.7-3.6c2.2-.8 4.1-2 5.6-3.6l3 2.1 2.6-3.7-3-2.1c1-2 1.5-4.2 1.4-6.5l3.6-.7z"/><ellipse transform="rotate(-10.446 632.4 235.613)" class="st12" cx="632.3" cy="235.6" rx="7.5" ry="7.5"/><path class="st6" d="M247.7 235l-99.3 38c-1.1.4-2.3-.1-2.7-1.2l-.3-.7c-.4-1.1.1-2.3 1.2-2.7l99.2-38.1c1.1-.4 2.3.1 2.7 1.2l.3.7c.5 1.1 0 2.3-1.1 2.8zm-27.3-71l-99.2 38.1c-1.1.4-2.3-.1-2.7-1.2l-.3-.7c-.4-1.1.1-2.3 1.2-2.7l99.2-38.1c1.1-.4 2.3.1 2.7 1.2l.3.7c.4 1.1-.2 2.3-1.2 2.7z"/><path transform="rotate(-20.981 183.436 216.187)" class="st6" d="M131.2 180.7h104.5v70.9H131.2z"/><path d="M165.7 247.5l53.1-21.2m-55.9 12.5l3.4 8.8" opacity=".6" fill="none" stroke="#ffde00" stroke-miterlimit="10"/><g opacity=".6"><ellipse transform="rotate(-20.981 161.02 233.954)" class="st12" cx="161" cy="233.9" rx="5.3" ry="5.3"/><ellipse transform="rotate(-20.981 173.004 207.288)" class="st12" cx="173" cy="207.3" rx="5.3" ry="5.3"/><ellipse transform="rotate(-20.981 192.779 216.13)" class="st12" cx="192.8" cy="216.1" rx="5.3" ry="5.3"/><ellipse transform="rotate(-20.981 204.446 189.584)" class="st12" cx="204.4" cy="189.6" rx="5.3" ry="5.3"/><path class="st12" d="M163.3 229.2l7.5-17.2m6.6-1.9l10.4 4.1m6.8-3l7.9-16.7m-27.6 17.7l10.6 27.5m9.2-18.7l5 13m6.6-39.5l12.3 31.9"/></g></svg>