<svg width="1220" height="410" xmlns="http://www.w3.org/2000/svg"><script xmlns="" type="text/javascript" charset="utf-8" id="zm-extension"/><g fill="none" fill-rule="evenodd"><g opacity=".65" fill-rule="nonzero" fill="#474747"><path d="M286.958 305.247h-35.897c-.163 0-.244-.161-.244-.242v-13.361c0-.161.163-.242.244-.242h35.897c.163 0 .245.161.245.242v13.361c0 .08-.082.242-.245.242zm-35.571-.564h35.327v-12.798h-35.327v12.798z"/><path d="M305.11 318.608h-35.897c-.163 0-.244-.161-.244-.241v-13.362c0-.16.163-.241.244-.241h35.898c.162 0 .244.16.244.241v13.362c.081.08-.082.241-.244.241zm-35.571-.563h35.327v-12.798H269.54v12.798zm-21.246-26.723h4.151v1h-4.15z"/><path d="M301.855 318.045h6.512v1h-6.512z"/></g><g opacity=".65" fill-rule="nonzero" fill="#474747"><path d="M1109.915 69.833h-35.98c-.164 0-.245-.166-.245-.25V55.75c0-.167.163-.25.245-.25h35.98c.163 0 .245.167.245.25v13.833c0 .167-.082.25-.245.25zm-35.654-.5h35.41v-13.25h-35.41v13.25z"/><path d="M1128.11 84h-35.9c-.163 0-.244-.167-.244-.25V69.917c0-.167.163-.25.244-.25h35.981c.163 0 .245.166.245.25V83.75c-.082.083-.163.25-.327.25zm-35.655-.583h35.41v-13.25h-35.41v13.25z"/><path d="M1092.21 84h-35.98c-.163 0-.245-.167-.245-.25V69.917c0-.167.163-.25.245-.25h35.98c.164 0 .245.166.245.25V83.75c0 .083-.081.25-.245.25zm-35.654-.583h35.41v-13.25h-35.41v13.25zM1071.16 55.5h4.161v1h-4.16z"/><path d="M1054.027 83.416h4.16v1h-4.16z"/></g><g opacity=".65" fill-rule="nonzero" fill="#474747"><path d="M1214.917 245.492h-36.254c-.165 0-.247-.167-.247-.25v-13.819c0-.166.164-.25.247-.25h36.254c.165 0 .247.167.247.25v13.82c.082.082-.082.249-.247.249zm-35.926-.583h35.68v-13.236h-35.68v13.236z"/><path d="M1175.456 231.09h6.577v1h-6.577zm37.324 13.819h6.577v1h-6.577z"/></g><g opacity=".65" fill-rule="nonzero" fill="#474747"><path d="M205.213 98.75h-36.255c-.164 0-.247-.167-.247-.25V84.667c0-.167.165-.25.247-.25h36.255c.164 0 .246.166.246.25V98.5c0 .083-.082.25-.246.25zm-35.926-.583h35.68v-13.25h-35.68v13.25z"/><path d="M165.751 84.333h6.577v1h-6.577zm37.242 13.834h6.577v1h-6.577z"/></g><path d="M93.829 83H57.295c-.165 0-.248-.163-.248-.244V69.244c0-.163.165-.244.248-.244H93.83c.165 0 .248.163.248.244v13.43c0 .163-.083.326-.248.326zm-36.202-.57H93.58V69.488H57.627V82.43zM109.842 69H73.308c-.165 0-.248-.163-.248-.244V55.244c0-.163.166-.244.248-.244h36.534c.165 0 .248.163.248.244v13.512c0 .163-.165.244-.248.244zm-36.285-.488h35.953V55.57H73.557v12.942z" fill="#474747" fill-rule="nonzero"/><path fill="#474747" fill-rule="nonzero" d="M53.043 69h7.006v1h-7.006zm54.045 0h7.006v1h-7.006z"/><g fill-rule="nonzero" fill="#474747"><path d="M37.306 281.417H.748c-.166 0-.25-.167-.25-.25v-13.834c0-.166.167-.25.25-.25h36.641c.166 0 .25.167.25.25v13.834c0 .083-.167.25-.333.25zm-36.309-.584h36.06v-13.25H.997v13.25z"/><path d="M36.808 280.833h6.647v1h-6.647z"/></g><g fill-rule="nonzero"><path fill="#FEDD00" d="M968.069 140.822h126.13v177.901h-126.13z"/><path d="M1094.529 319.052h-126.79V140.493h126.707v178.559h.083zm-126.13-.658h125.47V141.151h-125.47v177.243z" fill="#474747"/><path fill="#FEDD00" d="M963.614 318.723h134.38v6.495h-134.38z"/><path d="M1098.323 325.464H963.284v-7.07h135.04v7.07zm-134.379-.575h133.802v-5.837H963.944v5.837z" fill="#474747"/><path fill="#474747" d="M1030.515 325.135h1v83.442h-1z"/><path fill="#474747" d="M1030.57 325.329l.851-.526 51.549 83.433-.851.526z"/><path fill="#474747" d="M978.85 408.546l51.716-83.73.85.526-51.715 83.73z"/><path d="M1056.912 167.047h-44.628c-.247 0-.412-.165-.412-.411v-2.055c0-.247.165-.411.412-.411h44.628c.248 0 .413.164.413.41v2.056c.082.246-.165.41-.413.41zm1.485 18.415h-44.628c-.247 0-.412-.165-.412-.411v-2.056c0-.246.165-.41.412-.41h44.628c.248 0 .413.164.413.41v2.056c0 .164-.165.41-.413.41zm-7.919 18.004h-44.628c-.248 0-.413-.165-.413-.411v-2.056c0-.246.165-.41.413-.41h44.628c.247 0 .412.164.412.41v2.056c0 .164-.165.41-.412.41zm0 21.456h-44.628c-.248 0-.413-.164-.413-.41v-2.056c0-.247.165-.411.413-.411h44.628c.247 0 .412.164.412.411v2.055c0 .247-.165.411-.412.411zm11.302 7.235h-55.93c-.248 0-.413-.165-.413-.411v-2.056c0-.246.165-.41.413-.41h55.93c.247 0 .412.164.412.41v2.056c.082.246-.165.41-.413.41zm-7.177 16.03h-48.753c-.248 0-.413-.164-.413-.41v-2.056c0-.246.165-.41.413-.41h48.753c.247 0 .412.164.412.41v2.055c0 .247-.165.411-.412.411zm-37.534 5.509h-11.22c-.247 0-.412-.165-.412-.412v-2.055c0-.246.165-.41.413-.41h11.219c.247 0 .412.164.412.41v2.055c.083.247-.165.412-.412.412zm17.158 5.425h-28.377c-.248 0-.413-.164-.413-.41v-2.056c0-.247.165-.411.413-.411h28.377c.248 0 .413.164.413.411v2.055c0 .165-.165.411-.413.411zm10.064 16.196h-38.441c-.248 0-.413-.165-.413-.411v-2.056c0-.246.165-.41.413-.41h38.441c.248 0 .413.164.413.41v2.056c0 .246-.165.41-.413.41zm18.149 7.398h-33.657c-.248 0-.413-.164-.413-.41v-2.056c0-.246.165-.41.413-.41h33.656c.248 0 .413.164.413.41v2.055c0 .165-.165.411-.413.411z" opacity=".1" fill="#11172D"/><path fill="#FEDD00" d="M977.555 171.733h13.94v13.893h-13.94z"/><path d="M991.826 185.955h-14.6v-14.551h14.6v14.551zm-13.94-.575h13.28v-13.318h-13.28v13.318z" fill="#474747"/><path fill="#FEDD00" d="M977.555 195.655h13.94v13.893h-13.94z"/><path d="M991.826 209.796h-14.6v-14.551h14.6v14.55zm-13.94-.576h13.28v-13.318h-13.28v13.318z" fill="#474747"/><path d="M977.885 195.902h13.364v13.318h-13.364z" opacity=".23" fill="#FFF"/><path fill="#FEDD00" d="M977.555 219.496h13.94v13.893h-13.94z"/><path d="M991.826 233.719h-14.6v-14.551h14.6v14.55zm-13.94-.658h13.28v-13.318h-13.28v13.318z" fill="#474747"/><path fill="#FEDD00" d="M977.555 243.337h13.94v13.893h-13.94z"/><path d="M991.826 257.56h-14.6v-14.552h14.6v14.551zm-13.94-.658h13.28v-13.236h-13.28v13.236z" fill="#474747"/><path d="M977.885 243.666h13.28v13.236h-13.28z" opacity=".23" fill="#FFF"/><path fill="#FEDD00" d="M977.555 267.177h13.94v13.893h-13.94z"/><path d="M991.826 281.4h-14.6v-14.55h14.6v14.55zm-13.94-.658h13.28v-13.235h-13.28v13.235zm6.681-97.418l-4.537-3.617.825-.986 3.63 2.96 8.496-8.468.908.904zm0 71.111l-4.537-3.617.825-.986 3.63 2.877 8.496-8.385.908.904z" fill="#474747"/></g><g fill-rule="nonzero"><path d="M943.671 279.05h-679.66V.102h679.66v278.95zm-678.937-.54h678.305V.642H264.734V278.51z" fill="#474747"/><path d="M943.4 7.948V278.78H273.854v7.576h678.938V7.948z" opacity=".1" fill="#666"/><path d="M932.565 271.565H275.208V7.587h657.357v263.978zm-656.725-.54h656.003V8.127H275.84v262.896z" fill="#474747"/></g><g fill-rule="nonzero"><path d="M483.304 49.562h19.594v19.302h-19.594z" opacity=".19" fill="#666"/><path fill="#FEDD00" d="M481.644 47.845h19.594v19.302h-19.594z"/><path d="M501.486 67.392h-20.091V47.599h20.091v19.793zm-19.593-.49h19.095V48.09h-19.095V66.9z" fill="#474747"/><path d="M494.18 58.967h19.594V78.27H494.18z" opacity=".19" fill="#666"/><path fill="#FEDD00" d="M492.603 57.169h19.594V76.47h-19.594z"/><path d="M512.446 76.716h-20.092V56.923h20.092v19.793zm-19.594-.49h19.096V57.413h-19.096v18.811z" fill="#474747"/><path fill="#FEDD00" d="M490.029 44.327h2.657v5.398h-2.657z"/><path d="M492.935 49.97h-3.155v-5.888h3.155v5.889zm-2.657-.408h2.159v-4.99h-2.159v4.99z" fill="#474747"/><path fill="#FEDD00" d="M507.049 54.633h2.657v5.398h-2.657z"/><path d="M509.955 60.358H506.8v-5.889h3.155v5.889zm-2.657-.49h2.159v-4.99h-2.159v4.99z" fill="#474747"/><path fill="#FEDD00" d="M495.26 54.224h2.656v5.398h-2.657z"/><path d="M498.165 59.867h-3.154v-5.889h3.154v5.89zm-2.656-.409h2.158V54.47h-2.158v4.99z" fill="#474747"/></g><g fill-rule="nonzero"><path d="M367.845 36.07h49.858v38.62h-49.858z" opacity=".19" fill="#666"/><path fill="#FEDD00" d="M363.704 32.581h49.858v38.621h-49.858z"/><path d="M413.724 71.368H363.46V32.332h50.264v39.036zm-49.777-.415H413.4V32.747h-49.452v38.206z" fill="#474747"/><g transform="translate(386.034 35.322)"><ellipse fill="#FEDD00" cx="1.949" cy="1.827" rx="1.462" ry="1.495"/><path d="M1.949 3.488c-.893 0-1.705-.747-1.705-1.744C.244.831.974 0 1.949 0c.893 0 1.705.747 1.705 1.744S2.842 3.488 1.95 3.488zm0-2.99c-.731 0-1.3.582-1.3 1.33 0 .747.569 1.328 1.3 1.328.73 0 1.3-.581 1.3-1.329 0-.747-.57-1.329-1.3-1.329z" fill="#474747"/></g><path d="M387.983 36.651c.65 0 1.137.415 1.38.997.082-.166.082-.332.082-.416 0-.83-.65-1.495-1.462-1.495-.812 0-1.462.665-1.462 1.495 0 .167 0 .416.082.582.162-.748.73-1.163 1.38-1.163z" opacity=".19" fill="#666"/><path d="M378.076 47.2h-9.013v-4.818h9.013v4.817zm-8.607-.416h8.201v-3.987h-8.2v3.987zm8.607 20.846h-9.013v-4.816h9.013v4.817zm-8.607-.331h8.201v-3.987h-8.2v3.987z" fill="#474747"/><path fill="#474747" d="M373.367 47.033h1V62.98h-1zm21.923 1.661h1v7.392h-1z"/><path fill="#FEDD00" d="M369.307 52.847h8.607v4.402h-8.607z"/><path d="M378.076 57.415h-9.013v-4.817h9.013v4.817zm-8.607-.332h8.201v-3.987h-8.2v3.987z" fill="#474747"/><path fill="#474747" d="M377.914 54.84h6.659v1h-6.66zm7.552 0h6.659v1h-6.66zm12.749 0h6.659v1h-6.66z"/><g transform="translate(381.802 51.933)"><ellipse fill="#FEDD00" cx="2.608" cy="3.156" rx="2.355" ry="2.409"/><path d="M2.608 5.73C1.228 5.73.091 4.569.091 3.157S1.228.581 2.608.581s2.517 1.163 2.517 2.575c0 1.412-1.137 2.575-2.517 2.575zm0-4.816C1.39.914.497 1.91.497 3.073c0 1.246.974 2.16 2.111 2.16 1.218 0 2.111-.997 2.111-2.16C4.8 1.91 3.826.913 2.608.913z" fill="#474747"/></g><path d="M395.454 49.11c-1.38 0-2.518-1.163-2.518-2.575 0-1.412 1.137-2.575 2.518-2.575 1.38 0 2.517 1.163 2.517 2.575 0 1.412-1.137 2.574-2.517 2.574zm0-4.818c-1.218 0-2.112.997-2.112 2.16 0 1.245.975 2.16 2.112 2.16 1.218 0 2.11-.998 2.11-2.16.082-1.163-.892-2.16-2.11-2.16z" fill="#474747"/><g transform="translate(403.727 51.933)"><ellipse fill="#FEDD00" cx="2.608" cy="3.156" rx="2.355" ry="2.409"/><path d="M2.608 5.73C1.228 5.73.091 4.569.091 3.157S1.228.581 2.608.581s2.517 1.163 2.517 2.575c.081 1.412-1.055 2.575-2.517 2.575zm0-4.816C1.39.914.497 1.91.497 3.073c0 1.246.974 2.16 2.111 2.16 1.218 0 2.111-.997 2.111-2.16C4.8 1.91 3.826.913 2.608.913z" fill="#474747"/></g><path fill="#FEDD00" d="M390.987 52.847h8.607v4.402h-8.607z"/><path d="M399.838 57.415h-9.013v-4.817h9.013v4.817zm-8.607-.332h8.201v-3.987h-8.2v3.987z" fill="#474747"/></g><g fill-rule="nonzero"><path d="M864.933 125.306h25.295v33.552h-25.295z" opacity=".19" fill="#666"/><path fill="#FEDD00" d="M862.84 122.331h25.294v33.552H862.84z"/><path d="M888.375 156.13h-25.697v-34.047h25.697v34.048zm-25.294-.495h24.811v-33.14h-24.811v33.14z" fill="#474747"/><g transform="translate(873.311 124.305)"><ellipse fill="#FEDD00" cx="2.175" cy="1.827" rx="1.531" ry="1.57"/><path d="M2.175 3.562c-.967 0-1.692-.826-1.692-1.735C.483.835 1.29.09 2.175.09c.886 0 1.692.827 1.692 1.736 0 .991-.725 1.735-1.692 1.735zm0-3.057C1.45.505.886 1.083.886 1.827c0 .744.564 1.322 1.289 1.322s1.289-.578 1.289-1.322c0-.744-.564-1.322-1.289-1.322z" fill="#474747"/></g><g transform="translate(873.311 124.305)"><ellipse fill="#FEDD00" cx="2.175" cy="1.827" rx="1.531" ry="1.57"/><path d="M2.175 3.562c-.967 0-1.692-.826-1.692-1.735C.483.835 1.29.09 2.175.09c.886 0 1.692.827 1.692 1.736 0 .991-.725 1.735-1.692 1.735zm0-3.057C1.45.505.886 1.083.886 1.827c0 .744.564 1.322 1.289 1.322s1.289-.578 1.289-1.322c0-.744-.564-1.322-1.289-1.322z" fill="#474747"/></g><path d="M875.486 125.554c.645 0 1.209.413 1.45 1.074 0-.083.08-.248.08-.413 0-.827-.644-1.57-1.53-1.57a1.55 1.55 0 0 0-1.53 1.57c0 .165 0 .33.08.496.161-.662.806-1.157 1.45-1.157zm-8.78 4.958h17.883v15.95h-17.883zm-.242 17.685h18.447v3.47h-18.447z" opacity=".19" fill="#666"/></g><g fill-rule="nonzero"><path d="M774.94 32.904h33.664v41.965H774.94z" opacity=".19" fill="#666"/><path fill="#FEDD00" d="M772.128 29.163h33.663v41.965h-33.663z"/><path d="M806.04 71.371h-34.077V29h34.076v42.371zm-33.663-.406h33.249V29.407h-33.25v41.558z" fill="#474747"/><g transform="translate(785.693 32.084)"><ellipse fill="#FEDD00" cx="1.82" cy="1.633" rx="1.571" ry="1.545"/><path d="M1.82 3.422A1.732 1.732 0 0 1 .083 1.715C.083.82.91.007 1.82.007c.91 0 1.736.813 1.736 1.708 0 .894-.744 1.707-1.736 1.707zm0-3.09C1.075.332.496.902.496 1.633c0 .732.58 1.302 1.324 1.302.744 0 1.323-.57 1.323-1.302 0-.732-.579-1.3-1.323-1.3z" fill="#474747"/></g><g fill="#474747"><path d="M777.011 60.428l23.572-.07.003 1-23.572.07z"/><path d="M777.046 60.775l.023-3.887 1 .006-.023 3.887z"/><path d="M777.257 57.22c-.662 0-1.24-.244-1.737-.732-.414-.406-.662-1.057-.662-1.626 0-.65.248-1.22.745-1.627.413-.406 1.075-.65 1.654-.65 1.323 0 2.398 1.057 2.398 2.358 0 .65-.248 1.22-.744 1.627-.414.406-.993.65-1.654.65zm0-4.31c-.497 0-.993.163-1.406.57-.414.325-.58.813-.58 1.382 0 1.057.828 1.952 1.986 1.952.496 0 .992-.163 1.406-.57.413-.325.579-.813.579-1.382 0-1.057-.827-1.952-1.985-1.952.082 0 0 0 0 0zm8.684-3.985c-1.323 0-2.398-1.057-2.398-2.358 0-.651.248-1.22.744-1.627.413-.407 1.075-.65 1.654-.65 1.323 0 2.399 1.057 2.399 2.358 0 .65-.248 1.22-.745 1.626-.413.407-.992.651-1.654.651zm0-4.31c-.496 0-.992.162-1.406.569-.413.325-.579.813-.579 1.383 0 1.057.827 1.951 1.985 1.951 1.075 0 1.985-.813 1.985-1.951 0-1.058-.91-1.952-1.985-1.952zm6.286 10.572s-.083 0 0 0c-.662 0-1.24-.244-1.737-.732-.413-.406-.662-1.057-.662-1.626 0-.65.249-1.22.745-1.627.413-.406 1.075-.65 1.654-.65.662 0 1.24.244 1.654.731.414.407.662 1.058.662 1.627h-.166.166c0 1.22-1.075 2.277-2.316 2.277zm0-4.31c-.496 0-.993.163-1.406.57-.414.324-.579.812-.579 1.382 0 .488.165.976.579 1.382.33.407.827.57 1.406.57 1.075 0 1.985-.814 1.985-1.952 0-.488-.165-.976-.579-1.383-.414-.325-.91-.57-1.406-.57zm8.519-3.985c-.083 0-.083 0 0 0-1.323 0-2.399-1.057-2.399-2.359 0-1.3 1.076-2.358 2.399-2.358s2.399 1.057 2.399 2.358c0 .651-.249 1.22-.745 1.627-.496.488-1.075.732-1.654.732zm0-4.31c-1.075 0-1.985.894-1.985 1.951 0 1.058.827 1.952 1.985 1.952 1.075 0 1.985-.813 1.985-1.952 0-1.057-.91-1.87-1.985-1.951z"/><path d="M778.718 53.28l5.46-5.418.705.71-5.46 5.418zm8.32-4.862l.686-.727 3.312 3.125-.686.728zm6.525 2.727l5.552-5.203.684.73-5.552 5.203zm-7.963 9.548l.106-12.158 1 .009-.107 12.158zm6.355.007l.039-5.707 1 .007-.04 5.706zm8.439.002l.124-14.144 1 .009-.125 14.143z"/></g></g><g fill-rule="nonzero"><path d="M165.414 352.989c-11.528 0-33.268-.576-33.268-2.879s21.74-2.879 33.268-2.879c11.529 0 33.268.576 33.268 2.88 0 2.22-21.74 2.878-33.268 2.878zm0-5.264c-20.504 0-32.197 1.398-32.691 2.303.494.905 12.187 2.303 32.691 2.303 20.34 0 31.95-1.316 32.691-2.303-.74-.987-12.351-2.303-32.69-2.303z" fill="#474747"/><ellipse cx="33.268" cy="2.714" rx="33.021" ry="2.632" opacity=".19" transform="translate(132.146 347.314)" fill="#666"/><path d="M165.414 367.464c-8.317 0-16.057-.164-21.74-.41-10.21-.494-10.21-1.234-10.21-1.646h.576v-.082c.659.74 11.858 1.563 31.374 1.563 19.434 0 30.715-.823 31.374-1.563v.082h.576c0 .412 0 1.152-10.21 1.645-5.765.247-13.505.411-21.74.411zm-5.105-14.804c0-.33-.33-30.926-7.082-62.674-3.953-18.588-9.305-33.968-15.893-45.648-8.152-14.475-18.28-23.276-30.139-26.155-8.399.823-17.54 8.225-17.622 8.308-15.81 11.597-26.515 11.35-30.303 10.774-1.317-.247-2.306-1.398-2.223-2.714.247-9.047 16.222-16.614 16.88-16.943h33.433c12.023 2.878 22.234 11.761 30.55 26.401 6.588 11.68 11.94 27.142 15.893 45.813 6.753 31.83 7.082 62.509 7.082 62.756l-.576.082zM74.175 218.183c-1.07.494-16.305 7.896-16.47 16.368 0 .987.742 1.892 1.73 2.056 3.788.576 14.246.823 29.891-10.61.083-.082 7.164-5.84 14.74-7.814H74.175z" fill="#474747"/><path d="M169.86 352.66h-.576c2.635-62.18-2.964-97.63-8.152-116.382-5.435-19.657-11.446-25.58-11.94-25.99-4.611-2.221-9.964-3.044-15.07-3.784-5.517-.74-11.528-1.316-19.021-1.645-6.67-.247-12.517-.411-17.87-.329-7.658.165-15.645 1.645-25.115 4.688-13.834 4.524-27.01 1.974-27.174 1.892l-.247-.082v-.33c-.412-5.263 6.588-7.32 11.281-8.635 1.07-.33 1.894-.576 2.635-.823 1.483-.576 3.047-1.151 4.53-1.891 3.376-1.645 6.916-3.702 10.622-6.334.988-.658 1.976-1.48 2.882-2.138 2.059-1.563 4.2-3.208 6.588-4.441 5.846-3.126 12.928-4.853 22.316-5.511 7.328-.576 15.151-.905 21.904 1.151 5.764 1.728 11.034 5.429 15.151 10.528 2.8 3.537 4.941 7.65 6.176 11.926a26.03 26.03 0 0 1 .824 3.948v.411c0 .247 0 .74.082.905.576.494 6.67 6.58 12.105 26.237 5.105 18.753 10.705 54.284 8.07 116.629zM45.19 210.699c1.812.329 13.916 2.138 26.598-1.974 9.552-3.126 17.622-4.606 25.28-4.77 5.352-.083 11.199 0 17.869.328 7.493.33 13.587.823 19.104 1.645 4.941.74 10.211 1.563 14.74 3.62v-.906a25.112 25.112 0 0 0-.823-3.865c-1.153-4.195-3.294-8.225-6.012-11.68-4.117-5.099-9.222-8.635-14.904-10.363-6.67-2.056-14.41-1.645-21.657-1.151-9.305.658-16.305 2.385-22.069 5.428-2.306 1.234-4.447 2.879-6.505 4.442-.988.74-1.977 1.48-2.965 2.138-3.705 2.632-7.246 4.77-10.705 6.333a70.578 70.578 0 0 1-4.611 1.974c-.741.247-1.647.494-2.635.823-4.282 1.316-10.952 3.29-10.705 7.978z" fill="#474747"/><path d="M169.86 352.66h-.576c5.518-109.226 15.81-129.377 20.01-132.996.824-.74 1.318-.658 1.4-.658l-.082.576c-.082 0-14.081 1.316-20.751 133.078zm-8.893 0h-.576c.659-20.974-7-33.393-13.505-40.138-6.917-7.073-13.999-9.458-14.493-9.623-.411-.082-5.846-.822-12.846-1.974-7.905-1.316-12.846.576-13.34.823-13.34 11.268-27.668 8.225-27.833 8.143l-.494-.083.33-.411c9.47-10.939 19.598-16.614 30.056-16.86 13.752-.33 23.469 9.046 24.292 9.869.823.247 7.905 2.796 14.658 9.787 6.67 6.663 14.41 19.247 13.751 40.467zm-82.016-43.263c2.635.411 15.151 1.727 26.845-8.143l.082-.082c.247-.082 5.27-2.303 13.67-.905 5.517.905 10.046 1.563 11.94 1.81-2.47-2.22-11.282-9.376-23.222-9.047-10.129.329-20.01 5.757-29.315 16.367zm127.389 29.939c-6.588 0-12.352-1.234-17.128-3.784-2.14-1.151-3.953-2.467-5.517-3.948 0 0-1.73-1.81-1.73-2.138 0-.083.083-.165.165-.247 2.141-1.152 4.365-1.974 6.506-2.385 2.388-.494 6.01-.905 8.893.411 1.4.658 2.8 1.645 4.364 3.125l.165.165c3.87 3.619 8.317 7.731 13.999 7.238.165 0 .33.082.33.247 0 .164-.083.329-.165.329-2.47.74-4.612.822-6.835.822h-1.318c-.576.165-1.153.165-1.729.165zm-23.633-9.706a48.72 48.72 0 0 0 1.4 1.563c1.482 1.48 3.293 2.714 5.352 3.866 5.106 2.714 11.364 3.948 18.61 3.7h1.318c1.482 0 2.964-.081 4.447-.328-4.859-.576-8.647-4.195-12.105-7.403l-.165-.164c-1.565-1.398-2.882-2.385-4.2-3.043-2.717-1.316-6.176-.823-8.564-.412-2.14.412-4.117 1.152-6.093 2.221z" fill="#474747"/><path d="M169.86 352.66h-.576c.66-18.753 12.764-23.359 12.846-23.441l.247.576c-.164.082-11.857 4.606-12.516 22.865zm-41.666-117.204c-3.212 0-8.07-.658-11.611-3.866-5.517-5.017-22.645-7.567-25.774-6.004l-.33-.494c.412-.329 9.8-7.484 16.716-7.484.824-.412 7.823-3.866 15.07-2.221 4.611.987 7.74 3.043 9.47 5.922 1.894 3.29 1.894 7.896.082 13.653l-.082.165h-.165c0 .082-1.4.329-3.376.329zm-33.927-10.94c6.34 0 18.116 2.386 22.728 6.58 5.105 4.606 13.01 3.702 14.328 3.455 1.73-5.51 1.73-9.87-.083-12.995-1.564-2.797-4.61-4.689-9.058-5.676-7.41-1.644-14.657 2.221-14.74 2.221h-.164c-5.353-.082-12.352 4.442-15.152 6.416.659.082 1.318 0 2.141 0zm54.843-14.311c-.247-.246-25.692-26.32-59.619-25.743v-.576c34.174-.576 59.783 25.661 60.03 25.908l-.411.411zm68.017 34.298h-.329c-9.14 0-20.34-11.268-22.728-20.233-2.305-8.472-10.375-16.697-10.457-16.779l-.495-.493h.66c.246 0 27.256-1.316 37.96 1.233 4.447 1.645 5.93 15.628 3.871 25.333-1.482 7.073-4.447 10.939-8.482 10.939zm-32.691-36.93c1.73 1.892 8.07 9.13 10.129 16.615 2.388 8.718 13.34 19.74 22.233 19.74 5.188.328 7.411-6.416 8.235-10.446 2.14-10.117.247-23.194-3.459-24.593-9.634-2.385-32.856-1.48-37.138-1.316z" fill="#474747"/><path d="M185.506 239.568c-2.14 0-3.705-.493-3.787-.493l-.083-.083c-10.622-8.225-6.67-20.315-5.188-23.852 2.06-4.852 5.27-8.471 7.412-8.142h.082l.082.082c.083.082 8.235 8.39 10.623 17.025.494 1.974 1.482 4.03 2.964 6.251l.083.082v.165c-3.212 7.567-8.564 8.965-12.188 8.965zm-3.54-1.07c.823.248 10.458 3.044 14.987-7.895-1.4-2.22-2.388-4.36-2.965-6.333-2.223-8.06-9.552-15.874-10.375-16.697-1.647-.082-4.612 2.797-6.67 7.814-1.4 3.454-5.27 15.216 5.023 23.112zm.329-53.954l-.247-.082c-.659-.247-15.316-6.992-16.222-16.944-.494-5.1 2.882-10.116 9.881-14.969 25.445-17.437 33.845-20.727 40.432-20.727 1.73 0 3.623-.082 5.682-.164 5.682-.247 12.187-.576 16.552 1.151l.576.247-.576.33c-.083.081-11.858 7.073-14.576 17.436-1.647 6.25-6.999 10.116-11.199 12.173-1.482.74-3.046 1.398-4.529 2.056-1.317.576-2.635 1.151-3.952 1.81-2.882 1.398-5.682 3.207-8.153 4.934-4.364 3.043-9.881 7.156-13.504 12.584l-.165.165zm46.278-52.475a88.72 88.72 0 0 0-6.67.247c-2.058.082-3.952.164-5.681.164-6.506 0-14.823 3.29-40.02 20.563-6.835 4.688-10.047 9.54-9.553 14.393.824 8.965 13.752 15.463 15.646 16.368 3.623-5.347 9.14-9.459 13.505-12.502 2.552-1.727 5.352-3.537 8.234-5.017 1.318-.658 2.635-1.234 3.953-1.81 1.482-.658 3.047-1.316 4.529-2.056 4.117-2.056 9.305-5.757 10.87-11.844 2.388-9.294 11.94-15.956 14.245-17.437-2.635-.822-5.764-1.069-9.058-1.069z" fill="#474747"/><path d="M180.072 210.04h-.577c.824-13.57 2.47-25.743 2.47-25.907 7.659-26.155 22.563-38.74 33.762-44.661 12.105-6.416 22.48-6.663 22.646-6.663v.576c-.083 0-10.376.247-22.399 6.662-11.034 5.922-25.774 18.342-33.432 44.25 0 0-1.647 12.173-2.47 25.744zm9.14 194.93h-47.76l-.083-.165c-5.352-12.172-7.905-36.354-9.14-54.53l-.083-.74.577.493c1.153 1.151 13.999 2.303 32.691 2.303 18.693 0 31.456-1.234 32.691-2.303l.577-.494-.083.74c-1.152 18.177-3.705 42.359-9.14 54.531l-.082.165h-.165zm-47.431-.576h47.184c5.188-12.008 7.74-35.614 8.976-53.544-3.376 1.399-18.775 2.139-32.527 2.139-13.752 0-29.15-.74-32.527-2.139 1.153 17.93 3.706 41.536 8.894 53.544z" fill="#474747"/><path d="M148.368 351.92c-6.752-.412-11.363-.247-12.104-.987.329 14.064 3.952 40.713 7.905 53.872h10.787c-3.211-15.051-5.352-35.038-6.588-52.885zm10.129.329c-4.117-.412-5.188.74-5.6 0 .824 17.6 3.87 38.492 5.93 52.145h4.528c-2.305-12.502-3.87-32.982-4.858-52.145z" opacity=".06" fill="#666"/><path d="M187.483 408.671H143.18c-1.07 0-1.977-.905-1.977-1.974v-2.303h48.255v2.303c0 1.07-.906 1.974-1.976 1.974zm-45.62-3.701v1.727a1.3 1.3 0 0 0 1.318 1.316h44.302a1.3 1.3 0 0 0 1.317-1.316v-1.727h-46.937z" fill="#474747"/><path d="M141.451 404.723h47.431v1.48h-47.43z" opacity=".19" fill="#666"/><path d="M91.88 224.928s8.069-6.91 15.81-6.91c0 0 5.6-4.276 14.822-2.22 0 0-6.753-.164-9.964 3.784 0 0-9.552 1.974-14.164 5.593-.082-.083-5.434-.576-6.505-.247zm91.65-17.684s8.811 8.554 10.458 16.368c0 0 1.235 3.948 3.376 6.991 0 0-1.976 3.948-3.046 4.853 0 0-3.953-2.057-5.188-7.65a11.539 11.539 0 0 0-1.07-2.796c-1.895-3.454-6.26-10.61-10.953-10.692-.082.082 2.635-6.087 6.423-7.074z" opacity=".22" fill="#666"/></g><g transform="translate(298.277 123)" fill-rule="nonzero"><path fill="#FEDD00" d="M.4.719h26.662v17.169H.4z"/><path d="M27.142 18.127H.48c-.16 0-.24-.16-.24-.24V.72C.24.56.32.48.48.48h26.662c.16 0 .24.16.24.24v17.169c0 .08-.16.24-.24.24zM.641 17.568h26.181V.958H.641v16.61z" fill="#474747"/><path fill="#FEDD00" d="M13.771 17.888H.401l6.725-6.389 4.323-4.072 2.322 1.357 2.322-1.357 4.324 4.072 6.725 6.389z"/><path d="M27.142 18.127H.48c-.08 0-.16-.08-.24-.16 0-.08 0-.24.08-.319L11.37 7.187c.08-.08.16-.08.32 0l2.161 1.357 2.162-1.357c.08-.08.24-.08.32 0l11.05 10.461c.08.08.08.16.08.32-.16.08-.24.16-.32.16zm-26.021-.559h25.3L16.014 7.746l-2.162 1.278c-.08.08-.16.08-.24 0L11.45 7.746 1.121 17.568z" fill="#474747"/><path fill="#FEDD00" d="M13.771.719h13.371L20.417 4.71 13.77 8.784 7.126 4.711.4.72z"/><path d="M13.771 9.103h-.16L.241 1.038C.16.958.08.878.08.718.08.56.24.48.32.48h26.661c.08 0 .24.08.24.24 0 .16 0 .24-.16.32l-13.37 8.064c.16-.08.08 0 .08 0zM1.361.958l12.41 7.507L26.181.958H1.361z" fill="#474747"/><ellipse fill="#474747" cx="14.092" cy="3.114" rx="1.201" ry="1.278"/></g><g fill-rule="nonzero"><path d="M839.36 321.69H363.544v-8.524h475.814v8.524zm-475.322-.497h474.827v-7.53H364.038v7.53z" fill="#474747"/><path d="M363.463 313.083h475.65v2.814h-475.65zm438.953 14.234H397.032l1.48-6.124h403.164z" opacity=".19" fill="#666"/><path d="M391.601 408.503H387.9l9.873-87.062h8.064L391.6 408.503zm-3.208-.496h2.715l14.152-86.07h-7.076l-9.791 86.07zm423.403.248h-3.703l-14.316-87.062h8.063v.248l9.956 86.814zm-3.291-.496h2.715l-9.791-86.07h-7.076l14.152 86.07z" fill="#474747"/></g><g fill-rule="nonzero"><path d="M489.813 302.662h-84.975c-3.215 0-5.77-2.546-5.77-5.75v-57.669c0-3.203 2.555-5.75 5.77-5.75h84.975c3.215 0 5.77 2.547 5.77 5.75v57.669c0 3.122-2.638 5.75-5.77 5.75z" fill="#FEDD00"/><path d="M492.203 302.909h-89.755c-1.979 0-3.627-1.643-3.627-3.615v-62.433c0-1.972 1.648-3.615 3.627-3.615h89.755c1.979 0 3.627 1.643 3.627 3.615v62.433c0 1.972-1.648 3.615-3.627 3.615zm-89.755-69.17a3.125 3.125 0 0 0-3.132 3.122v62.433a3.125 3.125 0 0 0 3.132 3.122h89.755a3.125 3.125 0 0 0 3.132-3.122v-62.433a3.125 3.125 0 0 0-3.132-3.122h-89.755z" fill="#474747"/></g><g fill-rule="nonzero"><path d="M459.337 314.42h-26.262c-.24 0-.4-.248-.4-.413l5.684-46.759h15.613l5.765 46.759c.08.165-.16.414-.4.414z" fill="#FEDD00"/><path d="M459.337 314.669h-26.262c-.16 0-.4-.083-.48-.248-.08-.166-.16-.331-.16-.497L438.118 267h16.093l5.845 46.924c0 .166 0 .331-.16.497a.716.716 0 0 1-.56.248zm-20.818-47.255l-5.604 46.51v.083s.08.083.16.083h26.262c.08 0 .08 0 .16-.083 0 0 .08-.083 0-.083l-5.765-46.51h-15.213z" fill="#474747"/></g><path d="M447.367 297c-2.753 0-5.004-2.25-5.004-5s2.251-5 5.004-5c2.752 0 5.004 2.25 5.004 5s-2.252 5-5.004 5zm0-9.583c-2.502 0-4.504 2-4.504 4.5s2.002 4.5 4.504 4.5 4.503-2 4.503-4.5-2.001-4.5-4.503-4.5z" fill="#474747" fill-rule="nonzero"/><path d="M447.367 297c-2.753 0-5.004-2.25-5.004-5s2.251-5 5.004-5c2.752 0 5.004 2.25 5.004 5s-2.252 5-5.004 5zm0-9.583c-2.502 0-4.504 2-4.504 4.5s2.002 4.5 4.504 4.5 4.503-2 4.503-4.5-2.001-4.5-4.503-4.5z" fill="#474747" fill-rule="nonzero"/><path d="M447.7 289.1c2.336 0 4.254 1.75 4.67 4.025v-.612c0-2.8-2.168-4.988-4.753-4.988-2.586 0-4.754 2.275-4.754 4.987 0 .35 0 .7.083 1.05.334-2.537 2.336-4.462 4.754-4.462z" opacity=".19" fill-rule="nonzero" fill="#666"/><path fill="#474747" fill-rule="nonzero" d="M409.336 236h75.062v1h-75.062z"/><path d="M451.254 249.971c0-.942.424-1.8 1.101-2.4-1.016-1.285-2.54-2.142-4.319-2.142-3.048 0-5.504 2.485-5.504 5.571s2.456 5.571 5.504 5.571c2.372 0 4.489-1.542 5.166-3.771-1.1-.343-1.948-1.457-1.948-2.829z" opacity=".3" fill-rule="nonzero" fill="#FFF"/><ellipse fill="#666" fill-rule="nonzero" cx="446.866" cy="294.5" rx="1" ry="1"/><path d="M446.366 291.75c1.585 0 2.919-1.333 2.919-2.917v-.333c-.834-.667-1.835-1.083-3.003-1.083-1.084 0-2.001.333-2.835.916 0 .167-.084.334-.084.5.084 1.667 1.418 2.917 3.003 2.917zM468.64 260h17.244v16.897H468.64z" opacity=".19" fill-rule="nonzero" fill="#666"/><g fill-rule="nonzero"><path fill="#FEDD00" d="M467.898 258.352h17.243v17.055h-17.243z"/><path d="M485.398 275.66H467.64v-17.563h17.758v17.564zm-17.243-.508h16.728v-16.546h-16.728v16.546z" fill="#474747"/></g><g fill-rule="nonzero"><path fill="#FEDD00" d="M474.653 255.514h1.946v4.8h-1.946z"/><path d="M476.815 260.571h-2.378v-5.314h2.378v5.314zm-1.946-.514h1.513v-4.371h-1.513v4.371z" fill="#474747"/></g><path fill="#474747" fill-rule="nonzero" d="M469.385 262h11.009v1h-11.009zm0 5h7.006v1h-7.006z"/><g fill-rule="nonzero" fill="#474747"><path d="M714.856 312.677h-48.58v-4.596h48.58v4.596zm-48.08-.483h47.664v-3.71h-47.665v3.71zm55.816-8.388h-55.484v-4.516h55.484v4.516zm-54.985-.483h54.486v-3.549h-54.486v3.549z"/><path d="M716.77 299.774h-55.485v-4.677h55.484v4.677zm-55.07-.484h54.487v-3.71h-54.486v3.71z"/><path d="M720.346 295.58h-55.484v-7.257h55.484v7.258zm-54.985-.483h54.486v-6.29h-54.486v6.29zm47.665 13.387h-54.32v-5.161h54.32v5.16zM659.122 308h53.322v-4.194h-53.322V308z"/></g><path d="M409.5 236.1h74.403v1.4H409.5z" opacity=".19" fill-rule="nonzero" fill="#666"/><g fill-rule="nonzero"><path d="M639.277 302.662h-84.904a5.72 5.72 0 0 1-5.759-5.75v-57.669a5.72 5.72 0 0 1 5.759-5.75h84.821a5.72 5.72 0 0 1 5.76 5.75v57.669c.081 3.204-2.551 5.75-5.677 5.75z" fill="#FEDD00"/><path d="M641.662 302.909H552.07c-1.974 0-3.62-1.643-3.62-3.615v-62.433c0-1.972 1.646-3.615 3.62-3.615h89.593c1.975 0 3.62 1.643 3.62 3.615v62.433c0 1.972-1.645 3.615-3.62 3.615zm-89.593-69.17a3.123 3.123 0 0 0-3.126 3.122v62.433a3.123 3.123 0 0 0 3.126 3.122h89.593a3.123 3.123 0 0 0 3.127-3.122v-62.433a3.123 3.123 0 0 0-3.127-3.122H552.07z" fill="#474747"/></g><path d="M599.83 295.975c0-.525.262-1.05.7-1.4-.613-.787-1.489-1.225-2.54-1.225-1.751 0-3.24 1.488-3.24 3.237 0 1.75 1.489 3.238 3.24 3.238a3.209 3.209 0 0 0 3.065-2.187c-.788-.263-1.226-.875-1.226-1.663z" opacity=".19" fill-rule="nonzero" fill="#666"/><path fill="#474747" fill-rule="nonzero" d="M548.45 291h96.079v1H548.45zm61.803 23h-26.527c-.082 0-.165-.086-.248-.171 0-.086 0-.172.083-.258l.578-.514c.744-.686 1.488-1.886 1.57-2.914l.662-7.886c0-.171.082-.257.247-.257h20.742c.165 0 .248.086.248.257l.661 7.886c.083 1.028.827 2.228 1.57 2.914l.579.514c.082.086.082.172.082.258-.082.085-.165.171-.247.171zm-25.948-.514h25.286l-.082-.086c-.744-.686-1.653-2.057-1.736-3.257l-.66-7.629h-20.33l-.66 7.629c-.083 1.286-.992 2.571-1.818 3.343z"/><g fill-rule="nonzero"><path fill="#FEDD00" d="M543.765 255.56h7.366v2.8h-7.366z"/><path d="M551.372 258.6h-7.846v-3.28h7.846v3.28zm-7.366-.48h6.886v-2.32h-6.886v2.32z" fill="#474747"/></g><g fill-rule="nonzero"><path fill="#FEDD00" d="M543.715 263.462l7.003-1.06.421 2.78-7.003 1.06z"/><path d="M543.984 266.598l-.462-3.294 7.468-1.206.462 3.295-7.468 1.205zm.077-2.893l.308 2.33 6.544-1.044-.308-2.33-6.544 1.044z" fill="#474747"/></g><path d="M613.197 238.082l-28.139 49.836h13.987l28.304-49.836zm21.413 0l-27.546 49.836h5.996l27.14-49.836z" opacity=".23" fill-rule="nonzero" fill="#FFF"/><path d="M639.784 286.99h-86.097a.734.734 0 0 1-.74-.733v-48.514c0-.407.329-.733.74-.733h86.097c.412 0 .741.326.741.733v48.514c0 .407-.33.733-.74.733zm-86.097-49.491c-.164 0-.246.081-.246.244v48.514c0 .163.082.244.246.244h86.097c.165 0 .247-.081.247-.244v-48.514c0-.163-.082-.244-.247-.244h-86.097z" opacity=".29" fill-rule="nonzero" fill="#666"/><path d="M786.304 313h-23.503c-9.861-4.568-16.189-14.437-16.189-25.204 0-10.604 5.917-20.065 15.45-24.796h25.146c9.533 4.73 15.45 14.274 15.45 24.796-.082 10.767-6.41 20.636-16.354 25.204z" fill="#474747" fill-rule="nonzero"/><path d="M762.966 312.51h23.256c9.615-4.486 15.86-14.192 15.86-24.714 0-10.359-5.752-19.657-15.12-24.388h-24.736c-9.368 4.65-15.12 14.03-15.12 24.388 0 10.522 6.245 20.228 15.86 24.715z" fill="#FEDD00"/><path fill="#474747" fill-rule="nonzero" d="M751.616 272h45.037v1h-45.037zm6.505 8a1.51 1.51 0 0 1-1.5-1.5c0-.786.643-1.5 1.5-1.5a1.51 1.51 0 0 1 1.502 1.5c0 .857-.715 1.5-1.502 1.5zm0-2.571c-.571 0-1.072.5-1.072 1.071s.5 1.071 1.072 1.071c.572 0 1.073-.5 1.073-1.071s-.5-1.071-1.073-1.071zM761.124 288c-.858 0-1.501-.643-1.501-1.5s.643-1.5 1.5-1.5c.859 0 1.502.643 1.502 1.5s-.643 1.5-1.501 1.5zm0-2.464a.845.845 0 0 0-.858.857c0 .536.429.857.858.857s.858-.429.858-.857c.107-.429-.322-.857-.858-.857zM758.622 292c-.5 0-1.001-.417-1.001-1s.417-1 1-1c.501 0 1.002.417 1.002 1s-.5 1-1.001 1zm0-1.417c-.25 0-.5.25-.5.5s.25.5.5.5.5-.25.5-.5-.25-.5-.5-.5zM789.147 287a1.5 1.5 0 1 1 0-3c.79 0 1.501.71 1.501 1.5 0 .868-.632 1.5-1.501 1.5zm0-2.526c-.553 0-1.027.473-1.027 1.026s.474 1.026 1.027 1.026c.553 0 1.027-.473 1.027-1.026s-.474-1.026-1.027-1.026z"/><ellipse cx="1.651" cy="1.575" rx="1.126" ry="1.125" opacity=".41" transform="translate(756.62 277)" fill-rule="nonzero" fill="#FFF"/><ellipse cx="1.001" cy="1.067" rx="1" ry="1" opacity=".45" transform="translate(759.623 285)" fill-rule="nonzero" fill="#FFF"/><ellipse cx=".901" cy=".9" rx="1" ry="1" opacity=".53" transform="translate(757.621 291)" fill-rule="nonzero" fill="#FFF"/><ellipse cx="1.501" cy="1.5" rx="1.051" ry="1.4" opacity=".57" transform="translate(787.646 285)" fill-rule="nonzero" fill="#FFF"/><path d="M786.378 309l-.073-.392c-.073-.235-1.022-5.012-.51-6.578.218-.548.583-1.175.948-1.801.657-1.096 1.46-2.271 1.533-3.68V296l.365.47c.073.078 1.532 1.958.802 3.524-.656 1.488-.875 2.114-.583 2.898.438 1.018-.95 4.385-2.263 5.795l-.219.313zm2.263-11.825c-.22 1.253-.95 2.35-1.533 3.367-.365.627-.73 1.175-.876 1.645-.365 1.174.22 4.62.438 5.873 1.24-1.566 2.19-4.307 1.898-5.012-.438-.94-.073-1.801.584-3.289.364-.861-.146-1.958-.511-2.584z" fill="#474747" fill-rule="nonzero"/><g fill-rule="nonzero"><path d="M783.88 291.258s3.853 1.956 3.503 5.869c-.35 3.912-1.664 2.608-.526 5.38 1.139 2.771 0 5.298-.7 6.113-.526.652-2.102 2.446-2.627 4.402-.088.489-.876.489-1.051.081-.526-1.222-1.226-2.527-1.226-3.912 0-1.386.963-2.609 1.576-3.831.876-1.712 1.401-3.832.35-5.625-.525-.896-.875-1.549-.7-2.608.087-.734.438-1.386.788-2.038.088-.163.175-.326.35-.49-.087 0 .788-1.14.263-3.341z" fill="#FEDD00"/><path d="M782.917 313.674a.936.936 0 0 1-.788-.408l-.088-.163c-.525-1.222-1.138-2.445-1.138-3.83 0-1.142.525-2.12 1.05-3.017.176-.326.35-.57.526-.896.613-1.223 1.489-3.505.35-5.38-.525-.897-.876-1.63-.788-2.69a4.1 4.1 0 0 1 .876-2.12c.087-.163.262-.326.35-.489 0 0 .788-1.14.263-3.179l-.175-.489.525.245s3.94 2.038 3.678 6.113c-.088 1.794-.525 2.609-.788 3.098-.263.57-.438.815.175 2.2 1.226 3.017-.088 5.625-.7 6.359l-.088.081c-.613.734-2.014 2.364-2.452 4.157 0 .163-.35.408-.788.408.087 0 .087 0 0 0zm1.313-21.927c.35 1.875-.438 2.934-.438 3.016a1.701 1.701 0 0 0-.35.489c-.438.652-.7 1.304-.788 1.956-.175.978.263 1.63.7 2.446 1.139 1.956.438 4.32-.35 5.869-.175.326-.35.652-.525.896-.526.897-1.051 1.794-1.051 2.772 0 1.222.613 2.445 1.138 3.668l.088.163c.088.163.175.163.35.163.088 0 .263-.082.263-.163.525-1.956 1.927-3.668 2.54-4.402l.087-.081c.526-.653 1.84-3.098.7-5.87-.612-1.548-.525-1.874-.174-2.608.262-.489.613-1.141.7-2.934.175-2.853-1.926-4.647-2.89-5.38z" fill="#474747"/></g><g fill-rule="nonzero"><path d="M774.885 313.44c-.083-1.76-2.001-3.12-4.42-3.12-2.335 0-4.254 1.36-4.42 3.12h8.84z" fill="#FEDD00"/><path d="M775.135 313.68h-9.257v-.24c.083-1.92 2.168-3.36 4.587-3.36 2.502 0 4.504 1.44 4.587 3.36l.083.24zm-8.757-.48h8.257c-.25-1.52-2.002-2.64-4.087-2.64-2.168 0-3.92 1.12-4.17 2.64z" fill="#474747"/></g><path d="M768.084 313.36c.082-1.44 1.31-2.56 2.948-2.96-.246 0-.41-.08-.655-.08-2.293 0-4.176 1.36-4.34 3.12h8.598v-.08h-6.55z" opacity=".1" fill-rule="nonzero" fill="#666"/><g fill-rule="nonzero"><path d="M784.743 297c-.375 1.2-.3 2.657-.15 3.943.225 2.057.6 4.2-.15 6.171-.9 2.229-1.877 4.8-1.351 7.286" fill="#FEDD00"/><path d="M782.942 314.486c-.6-2.486.375-5.057 1.2-7.2l.076-.257c.6-1.629.375-3.429.225-5.143 0-.257-.075-.6-.075-.857-.15-1.286-.225-2.743.15-4.029l.45.171c-.375 1.2-.225 2.572-.15 3.858 0 .257.075.6.075.857.226 1.8.45 3.685-.225 5.4l-.075.257c-.826 2.143-1.726 4.543-1.2 6.857l-.451.086z" fill="#474747"/></g><g fill-rule="nonzero"><path d="M769.59 297.255l6.166 3.6c-.96-2.291-.88-4.746 0-7.282l-6.165 3.682z" fill="#FEDD00"/><path d="M776.236 301.427l-7.126-4.172 7.046-4.173-.24.654c-.96 2.619-.96 4.91 0 7.119l.32.572zm-6.245-4.172l5.204 3.109c-.64-1.882-.64-4.01 0-6.219l-5.204 3.11z" fill="#474747"/></g><g fill-rule="nonzero"><path d="M763.764 295.68l4.203 1.44c0-1.92.438-3.84 1.226-5.76l-5.43 4.32z" fill="#FEDD00"/><path d="M768.142 297.44l-4.991-1.68 6.48-5.28-.35.88c-.789 1.84-1.139 3.76-1.226 5.68l.087.4zm-3.94-1.84l3.502 1.2c.088-1.6.35-3.12.876-4.72l-4.379 3.52z" fill="#474747"/></g><g fill-rule="nonzero"><path d="M773.134 297.822c0 1.778-3.17 3.2-7.09 3.2s-8.09-1.333-8.09-3.11c0-1.779 4.17-3.29 8.09-3.29s7.09 1.422 7.09 3.2z" fill="#FEDD00"/><path d="M766.045 301.289c-3.92 0-8.34-1.422-8.34-3.378 0-2.044 4.42-3.555 8.34-3.555 4.086 0 7.339 1.51 7.339 3.466 0 1.956-3.253 3.467-7.34 3.467zm0-6.489c-3.92 0-7.84 1.511-7.84 3.022s3.836 2.845 7.84 2.845c3.67 0 6.839-1.334 6.839-2.934s-3.086-2.933-6.84-2.933z" fill="#474747"/></g><g fill-rule="nonzero"><path d="M762.525 295.257s3.002 2.486 0 5.143" fill="#FEDD00"/><path d="M762.725 300.571l-.4-.342c2.702-2.486.1-4.715 0-4.8l.4-.343c.1 0 3.203 2.657 0 5.485z" fill="#474747"/></g><g fill-rule="nonzero"><path d="M473.145 408.504H470.9l-11.557-60.3h.25c1.413-.083 2.826-.166 4.073-.248h.25l9.229 60.548zm-1.913-.497h1.33l-9.062-59.472a743.44 743.44 0 0 1-3.575.248l11.307 59.224z" fill="#474747"/><path d="M459.592 348.452l11.474 59.804h.832l-10.643-60.052c.665.082-.166.165-1.663.248z" opacity=".19" fill="#666"/><path d="M462.835 408.504h-2.245l-8.564-60.052h.25c1.413 0 2.743 0 4.073-.083h.25l6.236 60.135zm-1.913-.497h1.33l-6.152-59.059c-1.164 0-2.411.083-3.575.083l8.397 58.976z" fill="#474747"/><path d="M452.192 348.7l8.481 59.556h.831l-7.15-59.639c-1.33.083-.748.083-2.162.083z" opacity=".19" fill="#666"/><path d="M436.145 408.504H433.9l6.236-60.218h.25c1.33.083 2.66.083 4.074.083h.25l-8.565 60.135zm-1.746-.497h1.33l8.481-59.059c-1.247 0-2.41-.083-3.575-.083l-6.236 59.142z" fill="#474747"/><path d="M440.386 348.535l-6.236 59.638h.831l7.067-59.556c-1.413 0-.332 0-1.662-.082z" opacity=".19" fill="#666"/><path d="M425.336 408.504h-2.328l9.728-60.714h.25c1.247.083 2.66.248 4.074.331h.25l-11.974 60.383zm-1.746-.497h1.33l11.89-59.39a342.445 342.445 0 0 1-3.575-.248l-9.645 59.638z" fill="#474747"/><path d="M432.986 348.038l-9.645 60.218h1.33l10.476-59.887c-1.496-.165-.914-.248-2.161-.33z" opacity=".19" fill="#666"/><path fill="#FEDD00" d="M421.844 342.414h52.714v6.038h-52.714z"/><path d="M474.808 348.7h-53.213v-6.535h53.213v6.535zm-52.714-.496h52.215v-5.542h-52.215v5.542z" fill="#474747"/><path d="M421.844 342.414h52.714v2.151h-52.714z" opacity=".19" fill="#666"/></g><path d="M619.665 220.252h17.31v16.729h-17.31z" opacity=".19" fill-rule="nonzero" fill="#666"/><g fill-rule="nonzero"><path fill="#FEDD00" d="M617.898 220.355h17.31v16.057h-17.31z"/><path d="M635.443 236.664h-17.78v-16.561h17.78v16.56zm-17.31-.42h16.84V220.69h-16.84v15.552z" fill="#474747"/></g><path d="M632.739 232.7h-11.623c-.174 0-.347-.2-.347-.4v-.3c0-.2.173-.4.347-.4h11.623c.173 0 .347.2.347.4v.4c0 .1-.174.3-.347.3zm.347-7.3h-12.144c-.173 0-.347-.2-.347-.4v-.4c0-.2.174-.4.347-.4h12.144c.173 0 .347.2.347.4v.4c0 .2-.174.4-.347.4zm-3.007 3.6h-9.08c-.163 0-.327-.3-.327-.6v-.6c0-.3.164-.6.327-.6h9.08c.164 0 .327.3.327.6v.6c0 .3-.163.6-.327.6z" opacity=".1" fill-rule="nonzero" fill="#11172D"/><path d="M77 409h1063.017" stroke="#474747" stroke-width=".574"/><g fill-rule="nonzero"><path d="M692 262.2c-.1 0-.2-.1-.3-.2-.2-.5-.3-1.1-.2-1.7.1-.4.3-.7.5-1 .2-.2.3-.4.4-.7.2-.7-.2-1.4-.6-1.8-1.8-2.1 0-4.4 0-4.4.1-.1.3-.1.4 0 .1.1.1.3 0 .4-.1.1-1.5 1.9 0 3.6.7.8.9 1.6.8 2.4-.1.4-.3.6-.5.9-.2.3-.4.5-.4.7-.1.4 0 .9.2 1.3.1.1 0 .3-.1.4-.1.1-.1.1-.2.1zm3.2-.9c-.1 0-.2-.1-.3-.2-.3-1 .2-1.9.3-2 0-.1.9-1.3 0-2.2-1.1-1.2-.6-2.3-.5-2.4.1-.1.3-.2.4-.1.1.1.2.3.1.4 0 0-.4.8.5 1.7.9 1 .4 2.3 0 2.9 0 0-.4.8-.2 1.5 0 .2-.1.3-.3.4.1 0 0 0 0 0zm-6.5 0c-.1 0-.2-.1-.3-.2-.3-1 .2-1.9.3-2 0-.1.9-1.3 0-2.2-1.1-1.2-.6-2.3-.5-2.4.1-.1.3-.2.4-.1.1.1.2.3.1.4 0 0-.4.8.5 1.7.9 1 .4 2.3 0 2.9 0 0-.4.8-.2 1.5 0 .2-.1.3-.3.4zm12.3 25.3h-17.1c-1.1 0-2.1-.9-2.1-2.1v-20.4c0-.5.4-.9.9-.9h19.5c.5 0 .9.4.9.9v20.4c0 1.2-.9 2.1-2.1 2.1zm-18.3-22.8c-.2 0-.3.1-.3.3v20.4c0 .8.7 1.5 1.5 1.5H701c.8 0 1.5-.7 1.5-1.5v-20.4c0-.2-.1-.3-.3-.3h-19.5z" fill="#3F3F3F"/><path d="M700.3 268.2c-.2 0-.3-.1-.3-.3v-2.4c0-.2.1-.3.3-.3.2 0 .3.1.3.3v2.4c0 .2-.1.3-.3.3zm0 10.6c-.2 0-.3-.1-.3-.3v-8.9c0-.2.1-.3.3-.3.2 0 .3.1.3.3v8.9c0 .2-.1.3-.3.3zm7.5 3.3h-4.4c-.5 0-.9-.4-.9-.9v-14c0-.5.4-.9.9-.9h4.4c1.8 0 3.2 1.5 3.2 3.2v9.3c0 1.9-1.4 3.3-3.2 3.3zm-4.4-15.1c-.2 0-.3.1-.3.3v14c0 .2.1.3.3.3h4.4c1.5 0 2.6-1.2 2.6-2.6v-9.3c0-1.5-1.2-2.6-2.6-2.6h-4.4v-.1z" fill="#3F3F3F"/><path d="M700.7 286.2H684c-1 0-1.8-.8-1.8-1.8V264c0-.2.1-.3.3-.3h19.7c.2 0 .3.1.3.3v20.4c.1.9-.8 1.8-1.8 1.8zm7.2-4.3h-5.1v-15.1h5.1c1.5 0 2.8 1.2 2.8 2.8v9.5c0 1.6-1.2 2.8-2.8 2.8z" fill="#FEDD00"/><path d="M707.3 279.7H704c-.8 0-1.5-.7-1.5-1.5v-7.7c0-.8.7-1.5 1.5-1.5h3.3c.8 0 1.5.7 1.5 1.5v7.7c0 .8-.7 1.5-1.5 1.5zm-3.3-10.1c-.5 0-.9.4-.9.9v7.7c0 .5.4.9.9.9h3.3c.5 0 .9-.4.9-.9v-7.7c0-.5-.4-.9-.9-.9H704z" fill="#3F3F3F"/><path d="M698.9 288.7h-13.1c-.7 0-1.3-.6-1.3-1.3v-1.2h15.7v1.2c0 .7-.6 1.3-1.3 1.3z" fill="#FEDD00"/><path d="M699.2 288.9h-13.4c-.8 0-1.5-.7-1.5-1.5v-1.1c0-.2.1-.3.3-.3h15.8c.2 0 .3.1.3.3v1.1c-.1.9-.7 1.5-1.5 1.5zm-14.4-2.3v.8c0 .5.4.9.9.9h13.4c.5 0 .9-.4.9-.9v-.8h-15.2z" fill="#3F3F3F"/></g></g></svg>