<svg width="1250" height="587" xmlns="http://www.w3.org/2000/svg"><script xmlns="" type="text/javascript" charset="utf-8" id="zm-extension"/><g transform="translate(0 1)" fill="none" fill-rule="evenodd"><path d="M1181.063 206.702h43.105v16.438h-43.105zm21.784 16.438h43.105v16.438h-43.105zm-25.161-16.438h5.032m59.327 32.875h7.813M3.697 35.474h42.98v16.438H3.697zm21.721 16.438h42.98V68.35h-42.98zM.33 35.475h5.018M64.502 68.35h7.79" opacity=".65" stroke="#474747" stroke-width=".574" stroke-linejoin="round"/><path d="M200.147 78.748h43.508v16.438h-43.508zM178.76 95.32h43.509v16.438H178.76zm18.046-16.572h5.079m-25.797 33.01h5.079" stroke="#474747" stroke-width=".574" stroke-linejoin="round"/><path d="M1054.866 108.852h43.19v16.33h-43.19zm-3.848 0h7.829m36.623 16.331h7.828M81.592 208.769h43.191V225.1h-43.19zm-3.914 0h7.83M122.13 225.1h7.828" opacity=".65" stroke-width=".574" stroke="#474747" stroke-linejoin="round"/><path stroke="#474747" stroke-width=".574" d="M288.05.199h669.432v359.515H288.05z"/><path fill="#666" fill-rule="nonzero" opacity=".1" d="M957.482 9.959v349.755H297.341v9.76h669.431V9.958z"/><path stroke="#474747" stroke-width=".574" d="M299 9.892h647.466V350.02H299z"/><path stroke="#474747" stroke-width=".574" fill="#FEDD00" fill-rule="nonzero" d="M1016.529 301.785h132.231V488.85h-132.231zm-5.165 187.065h140.496v7.235h-140.496z"/><path d="M1081.612 496.085v87.848m0-87.848l53.719 87.848m-53.719-87.848l-53.72 87.848M318.58 455.343h651.88v10.974H318.58z" stroke="#474747" stroke-width=".574"/><path fill="#666" fill-rule="nonzero" opacity=".19" d="M318.182 454.944h652.277v3.857H318.182zm601.862 19.42h-555.83l2.058-8.38h552.842z"/><path stroke="#474747" stroke-width=".574" d="M356.375 584.83h-4.384l13.484-118.181h10.429zm571.839-.265h4.384l-13.484-118.249h-10.362zm-807.346.401h1063.016"/><path d="M494.316 440.275h-122.93a4.624 4.624 0 0 1-4.65-4.654v-85.774a4.624 4.624 0 0 1 4.65-4.655h122.93a4.624 4.624 0 0 1 4.65 4.655v85.774c0 2.593-2.125 4.654-4.65 4.654z" stroke="#474747" stroke-width=".574" fill="#FEDD00" fill-rule="nonzero"/><path d="M450.904 454.744h-37.083a.594.594 0 0 1-.598-.595l7.975-63.482h22.064l8.174 63.482c.066.265-.2.595-.532.595z" stroke="#474747" stroke-width=".574" fill="#FEDD00" fill-rule="nonzero"/><ellipse stroke="#474747" stroke-width=".574" cx="431.818" cy="425.806" rx="6.198" ry="6.201"/><ellipse stroke="#474747" stroke-width=".574" cx="431.818" cy="425.806" rx="6.198" ry="6.201"/><path d="M431.882 421.866c3.003 0 5.496 2.332 6.07 5.442 0-.283.065-.566.065-.848 0-3.816-2.748-6.855-6.199-6.855-3.45 0-6.198 3.039-6.198 6.855 0 .494.064.918.128 1.413.383-3.392 3.003-6.007 6.134-6.007z" fill="#666" fill-rule="nonzero" opacity=".19"/><path d="M381.198 348.293h102.273" stroke="#474747" stroke-width=".574"/><path d="M437.392 366.56c0-1.238.605-2.346 1.547-3.063-1.345-1.694-3.498-2.802-5.852-2.802-4.104 0-7.467 3.259-7.467 7.234 0 3.976 3.363 7.235 7.467 7.235 3.229 0 5.987-2.02 6.996-4.823-1.615-.587-2.691-2.086-2.691-3.78z" fill="#FFF" fill-rule="nonzero" opacity=".3"/><ellipse fill="#666" fill-rule="nonzero" cx="432.257" cy="429.346" rx="1" ry="1"/><path d="M432.817 425.806c2.292 0 4.166-1.881 4.166-4.18v-.488c-1.18-.906-2.638-1.533-4.235-1.533a6.597 6.597 0 0 0-3.958 1.324c-.07.209-.07.418-.07.697-.069 2.299 1.806 4.18 4.097 4.18zm29.993-44.441h22.727v22.737H462.81z" fill="#666" fill-rule="nonzero" opacity=".19"/><path stroke="#474747" stroke-width=".574" fill="#FEDD00" fill-rule="nonzero" d="M460.744 379.298h22.727v22.737h-22.727z"/><path fill="#666" fill-rule="nonzero" opacity=".19" d="M873.967 275.947h38.223v48.575h-38.223z"/><path stroke="#474747" stroke-width=".574" fill="#FEDD00" fill-rule="nonzero" d="M870.868 271.813h38.223v48.575h-38.223z"/><path fill="#666" fill-rule="nonzero" opacity=".19" d="M368.802 237.707h85.744v65.111h-85.744z"/><path stroke="#474747" stroke-width=".574" fill="#FEDD00" fill-rule="nonzero" d="M361.57 231.506h85.744v65.111H361.57zm109.504 143.658h3.099v6.201h-3.099z"/><path d="M463.843 385.5h15.496m-15.496 5.167h10.33" stroke="#474747" stroke-width=".574"/><path fill="#666" fill-rule="nonzero" opacity=".19" d="M756.198 263.545h27.893v27.905h-27.893z"/><path stroke="#474747" stroke-width=".574" fill="#FEDD00" fill-rule="nonzero" d="M753.099 261.478h27.893v27.905h-27.893z"/><path fill="#666" fill-rule="nonzero" opacity=".19" d="M770.661 276.981h27.893v27.905h-27.893z"/><path stroke="#474747" stroke-width=".574" fill="#FEDD00" fill-rule="nonzero" d="M768.595 274.914h27.893v27.905h-27.893zm-3.099-18.604h4.132v8.268h-4.132z"/><path stroke="#474747" stroke-width=".574" fill="#FEDD00" fill-rule="nonzero" d="M789.256 270.78h4.132v8.268h-4.132zm-16.529 0h4.132v8.268h-4.132z"/><path d="M732.833 449.717h65.486v5.904h-65.486zm1.132-12.278h74.813v5.636h-74.813zm-7.994-5.971h74.813v5.904h-74.813zm4.863-9.528h74.813v9.527h-74.813zm-8.394 21.135h73.28v6.642h-73.28z" stroke="#474747" stroke-width=".574"/><path d="M1109.04 329.69h-46.593a.457.457 0 0 1-.464-.472v-2.157c0-.27.2-.472.464-.472h46.593c.265 0 .464.202.464.472v2.157c0 .202-.199.472-.464.472zm1.033 19.636h-46.593a.457.457 0 0 1-.463-.472v-2.156c0-.27.198-.472.463-.472h46.593c.265 0 .464.202.464.472v2.156c0 .27-.199.472-.464.472zm-8.264 18.604h-46.593a.457.457 0 0 1-.464-.472V365.3c0-.27.199-.472.464-.472h46.593c.265 0 .464.202.464.472v2.157c0 .27-.2.471-.464.471zm0 22.737h-46.593a.457.457 0 0 1-.464-.472v-2.157c0-.27.199-.472.464-.472h46.593c.265 0 .464.202.464.472v2.157c0 .27-.2.472-.464.472zm12.393 7.234h-58.982a.459.459 0 0 1-.468-.472v-2.156c0-.27.2-.472.468-.472h58.982c.267 0 .467.202.467.472v2.156c0 .27-.2.472-.467.472zm-8.259 17.569h-50.729a.456.456 0 0 1-.462-.47v-2.158c0-.27.198-.472.462-.472h50.729c.264 0 .462.203.462.472V415c0 .27-.198.472-.462.472zm-39.249 5.168h-11.488c-.26 0-.454-.202-.454-.471v-2.157c0-.27.195-.472.454-.472h11.488c.26 0 .455.202.455.472v2.157c0 .27-.195.471-.455.471zm18.579 6.202h-30.05a.46.46 0 0 1-.47-.472v-2.157a.46.46 0 0 1 .47-.472h30.05a.46.46 0 0 1 .47.472v2.157a.46.46 0 0 1-.47.472zm10.335 16.536h-40.39a.458.458 0 0 1-.466-.472v-2.157c0-.27.2-.472.467-.472h40.389c.266 0 .466.202.466.472v2.157c0 .27-.2.472-.466.472zm19.63 8.268h-35.228a.457.457 0 0 1-.465-.472v-2.157c0-.27.2-.472.465-.472h35.228c.265 0 .464.202.464.472v2.157c0 .27-.199.472-.464.472z" fill="#11172D" fill-rule="nonzero" opacity=".1"/><path stroke="#474747" stroke-width=".574" fill="#FEDD00" fill-rule="nonzero" d="M1025.826 334.857h14.463v14.469h-14.463zm0 24.804h14.463v14.469h-14.463z"/><path fill="#FFF" fill-rule="nonzero" opacity=".23" d="M1025.826 359.661h13.43v13.436h-13.43z"/><path stroke="#474747" stroke-width=".574" fill="#FEDD00" fill-rule="nonzero" d="M1025.826 384.466h14.463v14.469h-14.463zm0 25.837h14.463v14.469h-14.463z"/><path fill="#FFF" fill-rule="nonzero" opacity=".23" d="M1025.826 410.303h13.43v13.436h-13.43z"/><path stroke="#474747" stroke-width=".574" fill="#FEDD00" fill-rule="nonzero" d="M1025.826 435.108h14.463v14.469h-14.463z"/><path stroke="#474747" stroke-width="1.097" d="M1028.926 342.77l4.192 3.456 9.237-9.302"/><g stroke="#3F3F3F" stroke-width=".574" stroke-linecap="round" stroke-linejoin="round"><path d="M780.191 419.492h-19.513c-1.14 0-2.011-.865-2.011-1.997v-23.088c0-.4.268-.666.67-.666h22.195c.403 0 .67.266.67.666v23.088c0 1.132-.871 1.997-2.01 1.997zm-.737-23.555v2.728m0 2.063v9.98"/><path d="M778.112 422.087h-15.288a1.34 1.34 0 0 1-1.34-1.331v-1.264h17.97v1.264a1.34 1.34 0 0 1-1.342 1.33zm9.79-7.652h-5.029c-.402 0-.67-.266-.67-.666V398c0-.399.268-.665.67-.665h5.03c1.877 0 3.352 1.464 3.352 3.327v10.513c0 1.797-1.475 3.26-3.353 3.26z"/><path d="M787.366 411.64h-3.755a1.34 1.34 0 0 1-1.341-1.33v-8.784c0-.732.603-1.33 1.34-1.33h3.756a1.34 1.34 0 0 1 1.341 1.33v8.783a1.34 1.34 0 0 1-1.341 1.331zm-17.367-30.208s-1.878 2.328 0 4.524c.536.666 1.006 1.53.805 2.396-.202.732-.872 1.13-1.006 1.863a3.74 3.74 0 0 0 .2 1.73m3.287-8.185s-.604 1.065.603 2.33c1.14 1.264 0 2.86 0 2.86s-.603.999-.268 1.93m-7.778-7.12s-.604 1.065.603 2.33c1.14 1.264 0 2.86 0 2.86s-.603.999-.268 1.93"/></g><g transform="translate(76.446 279.048)"><ellipse stroke="#474747" stroke-width=".574" cx="132.825" cy="241.011" rx="36.328" ry="2.852"/><ellipse fill="#666" fill-rule="nonzero" opacity=".19" cx="132.825" cy="241.011" rx="36.328" ry="2.852"/><path d="M167.625 257.857c0 2.653-69.733 2.653-69.733 0m29.686-13.994s-1.262-134.765-58.775-148.427H32.21s-18.197 8.423-18.396 18.371c0 1.327.93 2.454 2.191 2.653 4.384.73 15.94.796 33.14-11.805 0 0 10.228-8.357 19.658-9.219" stroke="#474747" stroke-width=".574"/><path d="M137.407 243.863c5.579-132.908-22.248-157.049-22.248-157.115-.133-.133-.133-1.393-.133-1.592-.2-1.459-.531-2.918-.863-4.31-1.328-4.71-3.653-9.153-6.708-13-4.317-5.305-9.962-9.55-16.537-11.54-7.504-2.32-16.27-1.856-24.04-1.26-8.369.597-16.936 2.057-24.44 6.036-3.786 1.99-6.974 4.841-10.427 7.295-3.72 2.653-7.638 5.04-11.755 6.964-1.66.796-3.32 1.525-5.048 2.122C10.825 79.055-.398 80.846.133 87.478v.199s14.411 2.851 29.753-2.123c8.965-2.918 18.263-5.04 27.76-5.173 6.575-.132 13.15.067 19.724.332 7.04.331 14.08.796 21.053 1.79 5.645.796 11.556 1.791 16.736 4.245m22.248 157.115c7.505-148.493 23.244-146.901 23.244-146.901" stroke="#474747" stroke-width=".574"/><path d="M127.578 243.863c1.461-44.966-31.147-55.18-31.147-55.18s-27.76-28.849-59.506 7.694c0 0 15.674 3.515 30.417-8.953 0 0 5.579-2.52 14.876-.929 8.103 1.393 14.146 2.189 14.146 2.189" stroke="#474747" stroke-width=".574"/><path d="M188.677 227.88c-6.508.53-11.555-4.245-15.872-8.29-1.461-1.327-2.989-2.587-4.782-3.383-2.922-1.393-6.508-1.061-9.63-.464-2.523.464-4.848 1.393-7.106 2.653-.066 0 1.727 1.99 1.793 2.056 1.727 1.724 3.786 3.117 5.977 4.31 6.31 3.317 13.549 4.311 20.655 4.112 3.055-.132 5.844 0 8.965-.994z" stroke="#474747" stroke-width=".574" stroke-linejoin="round"/><path d="M151.354 218.396s-13.216 4.841-13.947 25.467M68.803 95.436s8.102-4.377 16.47-2.454c8.368 1.924 14.744 7.23 10.228 21.157 0 0-9.962 1.857-16.271-3.913-6.31-5.704-25.237-8.423-28.757-6.632.067 0 10.693-8.29 18.33-8.158zm46.356-8.688S87.266 57.633 49.278 58.296M153.08 83.764s29.886-1.46 41.707 1.392c7.372 2.72 7.571 39.992-5.38 39.263-9.96 0-22.18-12.403-24.77-22.02-2.591-9.616-11.557-18.635-11.557-18.635z" stroke="#474747" stroke-width=".574"/><path d="M164.636 102.4c-2.59-9.55-11.556-18.636-11.556-18.636-5.18-.664-18.33 22.217-2.191 34.686 0 0 11.755 3.979 17.068-9.02-1.528-2.388-2.657-4.775-3.32-7.03zm-13.282-44.104s-34.734-15.519-6.974-34.553S181.372.995 188.677.995c7.306 0 17.932-1.46 24.374.995 0 0-13.15 7.693-16.205 19.365-1.594 6.168-6.708 10.48-12.153 13.265-3.055 1.525-6.243 2.785-9.365 4.244-3.187 1.526-6.176 3.449-9.032 5.505-5.512 3.78-11.157 8.224-14.942 13.927z" stroke="#474747" stroke-width=".574"/><path d="M213.05 1.99s-45.425.795-61.763 56.306c0 0-1.793 13.397-2.723 28.452m-15.739 157.115c-19.06 0-34.668-1.127-36.195-2.653 1.527 23.213 4.516 47.486 10.028 59.955h52.4c5.512-12.469 8.5-36.742 10.028-59.955-1.66 1.46-17.267 2.653-36.261 2.653z" stroke="#474747" stroke-width=".574"/><path d="M114.096 243.067c-7.438-.464-12.485-.265-13.282-1.127.398 15.519 4.383 44.9 8.766 59.357h11.888c-3.719-16.58-6.043-38.599-7.372-58.23zm11.158.332c-4.516-.464-5.645.796-6.177-.067.864 19.366 4.25 42.38 6.509 57.435h5.047c-2.59-13.729-4.317-36.212-5.38-57.368z" fill="#666" fill-rule="nonzero" opacity=".06"/><path d="M157.198 305.21h-48.813a1.784 1.784 0 0 1-1.793-1.79v-2.19h52.465v2.19c-.066.928-.863 1.79-1.86 1.79z" stroke="#474747" stroke-width=".574"/><path fill="#666" fill-rule="nonzero" opacity=".19" d="M106.393 301.165h52.266v1.592h-52.266z"/></g><path fill="#666" fill-rule="nonzero" opacity=".19" d="M381.198 349.326h101.24v1.034h-101.24z"/><path d="M699.894 440.275H576.965a4.624 4.624 0 0 1-4.651-4.654v-85.774a4.624 4.624 0 0 1 4.651-4.655h122.93a4.624 4.624 0 0 1 4.65 4.655v85.774a4.624 4.624 0 0 1-4.65 4.654z" stroke="#474747" stroke-width=".574" fill="#FEDD00" fill-rule="nonzero"/><path d="M641.072 431.22c0-.722.338-1.378.88-1.772-.813-.984-1.964-1.575-3.387-1.575-2.37 0-4.267 1.837-4.267 4.134 0 2.297 1.896 4.134 4.267 4.134 1.897 0 3.455-1.181 3.997-2.756a2.304 2.304 0 0 1-1.49-2.165z" fill="#666" fill-rule="nonzero" opacity=".19"/><path d="M572.314 424.772h132.231" stroke="#474747" stroke-width=".574"/><path d="M655.992 455.778l-.731-.683c-1.13-1.025-2.194-2.732-2.26-4.166l-.93-10.654h-28.315l-.93 10.654c-.133 1.434-1.197 3.141-2.26 4.166l-.731.683h36.157z" stroke="#474747" stroke-width=".574" stroke-linejoin="round"/><path stroke="#474747" stroke-width=".574" fill="#FEDD00" fill-rule="nonzero" d="M564.05 375.164h10.331v4.134H564.05zm.782 11.132l10.214-1.548.62 4.088-10.215 1.547z"/><path fill="#666" fill-rule="nonzero" opacity=".19" d="M669.421 327.623h24.793v22.737h-24.793z"/><path stroke="#474747" stroke-width=".574" fill="#FEDD00" fill-rule="nonzero" d="M667.355 326.589h24.793v21.704h-24.793z"/><path d="M683.405 335.89h-12.47c-.275 0-.48-.154-.48-.361v-.31c0-.207.205-.362.48-.362h12.47c.274 0 .48.155.48.362v.31c0 .207-.206.362-.48.362zm3.1 6.202h-15.572c-.274 0-.478-.155-.478-.362v-.31c0-.207.204-.362.478-.362h15.572c.274 0 .478.155.478.362v.31c0 .207-.204.362-.478.362zm0-10.335h-15.572c-.274 0-.478-.155-.478-.362v-.31c0-.207.204-.362.478-.362h15.572c.274 0 .478.155.478.362v.31c0 .207-.204.362-.478.362z" fill="#11172D" fill-rule="nonzero" opacity=".1"/><path fill="#FFF" fill-rule="nonzero" opacity=".23" d="M659.324 351.393l-38.456 68.212h19.128l38.723-68.212zm31.186 0l-38.65 68.212h8.373l38.114-68.212z"/><path d="M696.71 419.605H579.174c-.396 0-.66-.264-.66-.66v-66.891c0-.397.264-.66.66-.66h117.471c.397 0 .662.263.662.66v66.89c.066.33-.265.66-.595.66z" stroke="#666" stroke-width=".574" opacity=".29"/><path stroke="#474747" stroke-width="1.097" d="M1028.926 417.184l4.192 3.454 9.237-9.301"/><path d="M449.38 507.783l15.203 76.15h2.36l-12.124-76.48c-1.638.132-3.473.264-5.439.33z" stroke="#474747" stroke-width=".574"/><path d="M449.38 507.783l15.463 76.15h1.066l-14.33-76.48c1 .132-.2.264-2.199.33z" fill="#666" fill-rule="nonzero" opacity=".19"/><path d="M439.05 508.62l11.116 76.346h2.313l-8.096-76.48c-1.67.067-3.47.134-5.333.134z" stroke="#474747" stroke-width=".574"/><path d="M439.05 508.62l11.347 76.346h1.05l-9.577-76.48c-1.705.067-.918.134-2.82.134z" fill="#666" fill-rule="nonzero" opacity=".19"/><path d="M422.353 508.487l-8.097 76.48h2.313l11.117-76.281a1319.85 1319.85 0 0 1-5.333-.2z" stroke="#474747" stroke-width=".574"/><path d="M422.443 508.487l-8.187 76.48h1.04l9.29-76.281c-1.818-.067-.454-.133-2.143-.2z" fill="#666" fill-rule="nonzero" opacity=".19"/><path d="M412.857 507.453l-13.064 77.513h2.4l16.195-77.18c-1.932-.066-3.799-.2-5.531-.333z" stroke="#474747" stroke-width=".574"/><path d="M412.501 507.453l-12.708 77.513h1.686l13.81-77.18c-1.88-.066-1.102-.2-2.788-.333z" fill="#666" fill-rule="nonzero" opacity=".19"/><ellipse stroke="#474747" stroke-width=".574" fill="#FEDD00" fill-rule="nonzero" cx="403.409" cy="239.257" rx="2.583" ry="2.584"/><path d="M403.41 238.164c1.087 0 2.038.597 2.446 1.431.068-.238.136-.417.136-.656 0-1.252-1.156-2.265-2.583-2.265-1.427 0-2.583 1.013-2.583 2.265 0 .299.068.597.204.835.204-.954 1.156-1.61 2.38-1.61zM881.198 47.541h54.752v69.245h-54.752z" fill="#666" fill-rule="nonzero" opacity=".19"/><path stroke="#474747" stroke-width=".574" fill="#FEDD00" fill-rule="nonzero" d="M877.066 41.34h54.752v69.245h-54.752z"/><ellipse stroke="#474747" stroke-width=".574" fill="#FEDD00" fill-rule="nonzero" cx="901.343" cy="49.092" rx="2.583" ry="2.584"/><ellipse stroke="#474747" stroke-width=".574" fill="#FEDD00" fill-rule="nonzero" cx="889.463" cy="276.981" rx="2.066" ry="2.067"/><ellipse stroke="#474747" stroke-width=".574" fill="#FEDD00" fill-rule="nonzero" cx="889.463" cy="276.981" rx="2.066" ry="2.067"/><path d="M889.524 276.223c.911 0 1.64.689 1.944 1.584.06-.206.06-.344.06-.55 0-1.31-.91-2.343-2.065-2.343-1.155 0-2.066 1.033-2.066 2.342 0 .276.06.483.121.758.243-1.033 1.094-1.791 2.006-1.791z" fill="#666" fill-rule="nonzero" opacity=".19"/><path d="M899.327 386.533h-34.258c-12.53 6.207-21.06 19.017-21.06 33.874 0 15.188 9.064 28.328 22.127 34.337h32.191c13.063-6.009 22.128-19.15 22.128-34.337-.067-14.857-8.665-27.667-21.128-33.874zm-49.12 12.402h61.983" stroke="#474747" stroke-width=".574"/><ellipse stroke="#474747" stroke-width=".574" cx="858.471" cy="407.203" rx="2.066" ry="2.067"/><ellipse stroke="#474747" stroke-width=".574" cx="862.603" cy="417.538" rx="1.033" ry="1.034"/><ellipse stroke="#474747" stroke-width=".574" cx="858.471" cy="423.739" rx="1.033" ry="1.034"/><ellipse stroke="#474747" stroke-width=".574" cx="901.86" cy="417.538" rx="2.066" ry="2.067"/><ellipse fill="#FFF" fill-rule="nonzero" opacity=".41" cx="858.988" cy="407.72" rx="1.55" ry="1.55"/><ellipse fill="#FFF" fill-rule="nonzero" opacity=".45" cx="862.603" cy="417.538" rx="1.033" ry="1.034"/><ellipse fill="#FFF" fill-rule="nonzero" opacity=".53" cx="857.955" cy="423.222" rx="1" ry="1"/><ellipse fill="#FFF" fill-rule="nonzero" opacity=".57" cx="901.343" cy="417.021" rx="1.55" ry="1.55"/><path d="M899.477 430.974s2.032 2.703 1.109 4.865c-.924 2.162-1.355 3.244-.8 4.528.492 1.216-1.232 6.081-3.203 8.176 0 0-1.416-7.298-.738-9.393.677-2.095 3.448-4.798 3.632-8.176z" stroke="#474747" stroke-width=".574"/><path d="M894.067 424.772s5.082 2.678 4.67 8.234c-.344 5.556-2.267 3.682-.756 7.565 1.511 3.882 0 7.363-.961 8.568-.687.87-2.816 3.347-3.434 6.092-.137.67-1.167.736-1.442.134-.755-1.74-1.58-3.548-1.648-5.49 0-2.008 1.236-3.614 2.06-5.355 1.167-2.41 1.854-5.355.48-7.832-.617-1.205-1.167-2.209-.96-3.615.137-1.004.549-2.008 1.098-2.878.137-.201.275-.469.48-.67 0-.067 1.168-1.74.413-4.753zm-13.902 29.972c-.127-2.283-2.617-4.134-5.682-4.134-3.064 0-5.554 1.851-5.681 4.134h11.363z" stroke="#474747" stroke-width=".574" fill="#FEDD00" fill-rule="nonzero"/><path d="M871.355 454.56c.064-1.852 1.724-3.394 3.958-3.888-.255-.062-.574-.062-.83-.062-3.064 0-5.554 1.851-5.681 4.134h11.363v-.185h-8.81z" fill="#666" fill-rule="nonzero" opacity=".1"/><path d="M895.385 432.007c-.568 1.582-.426 3.493-.213 5.14.355 2.637.993 5.47-.213 8.041-1.419 2.966-3.05 6.261-2.128 9.556M875 433.075l8.264 5.133c-1.324-3.285-1.198-6.776 0-10.335L875 433.075zm-9.298-3.085l5.648 2.017c0-2.756.55-5.512 1.584-8.268l-7.232 6.251z" stroke="#474747" stroke-width=".574" fill="#FEDD00" fill-rule="nonzero"/><path d="M879.132 434.108c0 2.285-4.346 4.1-9.628 4.1-5.35 0-11.033-1.748-11.033-4.033 0-2.286 5.684-4.235 11.033-4.235 5.349.067 9.628 1.882 9.628 4.168zm-15.496-4.168s2.325 3.405 0 7.235" stroke="#474747" stroke-width=".574" fill="#FEDD00" fill-rule="nonzero"/><path stroke="#474747" stroke-width=".574" d="M370.868 249.076h14.463v7.235h-14.463zm0 34.106h14.463v7.235h-14.463zm7.232-26.872v26.872m38.222-23.772v12.403"/><path stroke="#474747" stroke-width=".574" fill="#FEDD00" fill-rule="nonzero" d="M370.868 265.612h14.463v7.235h-14.463z"/><path d="M397.727 269.746h-11.363m23.76 0H398.76m33.058 0h-11.363" stroke="#474747" stroke-width=".574"/><ellipse stroke="#474747" stroke-width=".574" fill="#FEDD00" fill-rule="nonzero" cx="397.727" cy="269.746" rx="4.132" ry="4.134"/><ellipse stroke="#474747" stroke-width=".574" cx="416.322" cy="255.277" rx="4.132" ry="4.134"/><ellipse stroke="#474747" stroke-width=".574" fill="#FEDD00" fill-rule="nonzero" cx="434.917" cy="269.746" rx="4.132" ry="4.134"/><path stroke="#474747" stroke-width=".574" fill="#FEDD00" fill-rule="nonzero" d="M409.091 265.612h14.463v7.235h-14.463z"/><g stroke="#474747" fill-rule="nonzero" stroke-width=".574" fill="#FEDD00" stroke-linejoin="round"><path d="M801.15 353.867h35.292v21.09H801.15z"/><path d="M818.828 374.956H801.15l8.872-7.73 5.76-5.086 3.046 1.695 3.046-1.695 5.76 5.086 8.873 7.73z"/><path d="M818.828 353.867h17.68l-8.873 5.018-8.807 4.95-8.806-4.95-8.872-5.018z"/></g><ellipse fill="#474747" fill-rule="nonzero" cx="818.698" cy="356.044" rx="1.55" ry="1.55"/><path fill="#666" fill-rule="nonzero" opacity=".19" d="M876.033 283.182h26.86v22.737h-26.86zm0 25.837h27.893v5.168h-27.893z"/><path stroke="#474747" stroke-width=".574" fill="#FEDD00" fill-rule="nonzero" d="M397.727 500.219h71.281v8.268h-71.281z"/><path fill="#666" fill-rule="nonzero" opacity=".19" d="M397.727 500.219h71.281v3.101h-71.281z"/><g stroke="#474747" stroke-width=".574"><path d="M884.468 93.082l38.767-.066m-38.367-5.928l-.067 6.258"/><g transform="translate(881.198 63.01)"><ellipse transform="rotate(-89.424 3.662 20.571)" cx="3.662" cy="20.571" rx="3.603" ry="3.557"/><ellipse transform="rotate(-89.424 17.894 6.906)" cx="17.894" cy="6.906" rx="3.603" ry="3.557"/><ellipse transform="rotate(-89.424 28.136 17.274)" cx="28.136" cy="17.274" rx="3.603" ry="3.557"/><ellipse transform="rotate(-89.424 42.14 3.642)" cx="42.14" cy="3.642" rx="3.603" ry="3.557"/><path d="M6.272 18.149l9.008-8.827m4.737.395l5.472 5.138m5.071-.264L39.7 6.16m-21.885 4.216l-.133 19.762m10.409-9.354l-.067 9.288m14.079-22.99l-.2 22.99"/></g></g><path d="M128.1 383.088s8.925-7.84 17.581-7.908c0 0 6.242-4.814 16.51-2.476 0 0-7.584-.206-11.074 4.333 0 0-10.67 2.269-15.77 6.395 0-.069-6.04-.688-7.248-.344zm101.313-20.326s9.943 9.387 11.701 17.982c0 0 1.353 4.363 3.72 7.668 0 0-2.231 4.364-3.449 5.355 0 0-4.464-2.248-5.817-8.396-.203-1.057-.676-2.05-1.218-3.04-2.096-3.835-6.967-11.702-12.243-11.702.068 0 3.112-6.81 7.306-7.867z" fill="#666" fill-rule="nonzero" opacity=".22"/></g></svg>