<svg width="225" height="60" xmlns="http://www.w3.org/2000/svg"><script xmlns="" type="text/javascript" charset="utf-8" id="zm-extension"/><defs><radialGradient cx="104.153%" cy="-27.49%" fx="104.153%" fy="-27.49%" r="221.255%" gradientTransform="matrix(1 0 0 .82822 0 -.047)" id="a"><stop stop-color="#FFF" offset="0%"/><stop stop-color="#FFF7E5" offset="1.708%"/><stop stop-color="#FEE6B2" offset="5.426%"/><stop stop-color="#FED887" offset="9.223%"/><stop stop-color="#FECD63" offset="13.03%"/><stop stop-color="#FDC447" offset="16.84%"/><stop stop-color="#FDBE34" offset="20.68%"/><stop stop-color="#FDBA28" offset="24.54%"/><stop stop-color="#FDB924" offset="28.48%"/><stop stop-color="#DC5D20" offset="47.88%"/><stop stop-color="#D0581D" offset="51.76%"/><stop stop-color="#803808" offset="78.18%"/><stop stop-color="#853A09" offset="82.29%"/><stop stop-color="#933F0D" offset="87.07%"/><stop stop-color="#AA4913" offset="92.19%"/><stop stop-color="#CB561B" offset="97.51%"/><stop stop-color="#DC5D20" offset="100%"/></radialGradient><radialGradient cx="58.669%" cy="46.915%" fx="58.669%" fy="46.915%" r="44.233%" gradientTransform="matrix(.70273 0 0 1 .174 0)" id="b"><stop stop-color="#FFF" offset="0%"/><stop stop-color="#FBFEFF" offset="3.367%"/><stop stop-color="#F0FBFE" offset="6.413%"/><stop stop-color="#DEF5FD" offset="9.337%"/><stop stop-color="#C4EDFB" offset="12.19%"/><stop stop-color="#A3E3FA" offset="14.98%"/><stop stop-color="#7AD7F7" offset="17.73%"/><stop stop-color="#4AC8F4" offset="20.4%"/><stop stop-color="#46C7F4" offset="20.61%"/><stop stop-color="#45A3DB" offset="27.66%"/><stop stop-color="#4470B9" offset="38.61%"/><stop stop-color="#4351A3" offset="46.91%"/><stop stop-color="#43459B" offset="51.52%"/><stop stop-color="#3F4194" offset="54.39%"/><stop stop-color="#2A296E" offset="71.58%"/><stop stop-color="#22205F" offset="80.61%"/><stop stop-color="#242365" offset="84.29%"/><stop stop-color="#282D75" offset="89.04%"/><stop stop-color="#303E8F" offset="94.33%"/><stop stop-color="#34459B" offset="96.36%"/></radialGradient><linearGradient x1="84.314%" y1="49.895%" x2="-74.535%" y2="49.895%" id="c"><stop stop-color="#FFF" offset="0%"/><stop stop-color="#FBFEFF" offset="3.367%"/><stop stop-color="#F0FBFE" offset="6.413%"/><stop stop-color="#DEF5FD" offset="9.337%"/><stop stop-color="#C4EDFB" offset="12.19%"/><stop stop-color="#A3E3FA" offset="14.98%"/><stop stop-color="#7AD7F7" offset="17.73%"/><stop stop-color="#4AC8F4" offset="20.4%"/><stop stop-color="#46C7F4" offset="20.61%"/><stop stop-color="#45A3DB" offset="27.66%"/><stop stop-color="#4470B9" offset="38.61%"/><stop stop-color="#4351A3" offset="46.91%"/><stop stop-color="#43459B" offset="51.52%"/><stop stop-color="#3F4194" offset="54.39%"/><stop stop-color="#2A296E" offset="71.58%"/><stop stop-color="#22205F" offset="80.61%"/><stop stop-color="#242365" offset="84.29%"/><stop stop-color="#282D75" offset="89.04%"/><stop stop-color="#303E8F" offset="94.33%"/><stop stop-color="#34459B" offset="96.36%"/></linearGradient><linearGradient x1="81.673%" y1="23.59%" x2="-70.54%" y2="23.59%" id="d"><stop stop-color="#FFF" offset="0%"/><stop stop-color="#FBFEFF" offset="3.367%"/><stop stop-color="#F0FBFE" offset="6.413%"/><stop stop-color="#DEF5FD" offset="9.337%"/><stop stop-color="#C4EDFB" offset="12.19%"/><stop stop-color="#A3E3FA" offset="14.98%"/><stop stop-color="#7AD7F7" offset="17.73%"/><stop stop-color="#4AC8F4" offset="20.4%"/><stop stop-color="#46C7F4" offset="20.61%"/><stop stop-color="#45A3DB" offset="27.66%"/><stop stop-color="#4470B9" offset="38.61%"/><stop stop-color="#4351A3" offset="46.91%"/><stop stop-color="#43459B" offset="51.52%"/><stop stop-color="#3F4194" offset="54.39%"/><stop stop-color="#2A296E" offset="71.58%"/><stop stop-color="#22205F" offset="80.61%"/><stop stop-color="#242365" offset="84.29%"/><stop stop-color="#282D75" offset="89.04%"/><stop stop-color="#303E8F" offset="94.33%"/><stop stop-color="#34459B" offset="96.36%"/></linearGradient><linearGradient x1="110.273%" y1="-28.843%" x2="-1.385%" y2="99.639%" id="e"><stop stop-color="#FFF" offset="0%"/><stop stop-color="#FFF7E5" offset="1.708%"/><stop stop-color="#FEE6B2" offset="5.426%"/><stop stop-color="#FED887" offset="9.223%"/><stop stop-color="#FECD63" offset="13.03%"/><stop stop-color="#FDC447" offset="16.84%"/><stop stop-color="#FDBE34" offset="20.68%"/><stop stop-color="#FDBA28" offset="24.54%"/><stop stop-color="#FDB924" offset="28.48%"/><stop stop-color="#DC5D20" offset="47.88%"/><stop stop-color="#D0581D" offset="51.76%"/><stop stop-color="#803808" offset="78.18%"/><stop stop-color="#853A09" offset="82.29%"/><stop stop-color="#933F0D" offset="87.07%"/><stop stop-color="#AA4913" offset="92.19%"/><stop stop-color="#CB561B" offset="97.51%"/><stop stop-color="#DC5D20" offset="100%"/></linearGradient><linearGradient x1="50.142%" y1="26.864%" x2="50.142%" y2="113.815%" id="f"><stop stop-color="#FCFDFF" stop-opacity="0" offset="0%"/><stop stop-color="#FFF" offset="70.3%"/></linearGradient><linearGradient x1="49.878%" y1="4.109%" x2="49.878%" y2="99.785%" id="g"><stop stop-color="#FFF" offset="0%"/><stop stop-color="#FFF" stop-opacity=".09" offset="91.04%"/><stop stop-color="#FFF" stop-opacity="0" offset="100%"/></linearGradient></defs><g fill="none" fill-rule="evenodd"><g transform="translate(-.68)"><path d="M38.398 33.652c.173-.174 0 .087 0 0zm6.863-6.087c2.953 2.696.347 6.87-5.039 10.696-7.384 5.217-19.98 9.913-30.753 9.13 8.687 3.044 23.456-2.174 31.014-7.565 5.56-3.739 11.206-9.739 4.778-12.26zM8.948 44.695s-.087 0 0 0c-.087 0-.087 0-.087-.086v-.174C7.819 36.87 12.075 30 16.245 24.087a179.086 179.086 0 0 0 3.562-5.044c3.562-5.39 6.342-11.739 6.255-18.347 3.3 4.174 6.255 10.695 4.604 19.826 2.693-2.261 2.52-7.218 1.39-9.74 1.564 2.175 6.69 11.566 2.52 18.522-.609 1.566-2.173 3.305-4.17 4.957a61.15 61.15 0 0 1-4.952 3.652c5.125-2.696 9.73-5.478 10.772-8.783.434-.87 1.39-3.826 1.042-8.087.87 2.61 4.17 8.61 1.217 12.174-.174.261-.174.348-.174.348l-.26.261c-1.043 1.217-2.52 2.435-4.258 3.652 1.912-.87 3.65-2.087 5.126-3.391 3.735-3.304 5.212-7.391.695-8.783 3.475.435 5.3 1.566 5.733 3.305.695 3.13-2.171 6.174-5.386 8.608-.173.087-.26.174-.434.348-7.992 5.74-23.108 10.957-30.58 7.13zm10.859-25.217c.347-.521.695-1.043.956-1.565-.261.522-.609 1.044-.956 1.565zm-1.043 1.652c.261-.347.522-.782.782-1.13-.347.348-.608.783-.782 1.13zm-1.39 1.913zm-1.303 1.827c-.26.434-.608.782-.868 1.217.347-.435.608-.783.868-1.217.435-.61.782-1.13 1.217-1.74a12.426 12.426 0 0 1-1.217 1.74zm-2.345 3.39c0-.086.087-.086.087-.173 0 0 0 .087-.087.174zM8.948 38.958c0 .26-.087.521-.087.695 0-.174.087-.435.087-.695zm2.172-6.261c.087-.261.26-.435.347-.696-.174.174-.26.435-.347.696zm-.435.956c0-.087.087-.174.087-.26-.087.086-.087.173-.087.26zm-1.477 4.261c0-.087 0-.087 0 0 0-.087 0-.087 0 0zm2.954-7.13c.087-.174.174-.261.26-.435-.173.26-.26.435-.434.695 0-.086.087-.086.087-.173s0-.087.087-.087zm.956-1.653c0-.087.087-.087.087-.173-.261.347-.435.695-.695 1.043 0-.087.087-.087.087-.174.26-.26.434-.522.52-.696zm1.216-1.739c0-.087.087-.087.087-.174 0 .087-.087.174-.087.174z" fill="url(#a)" fill-rule="nonzero"/><path d="M39.788 24.174c11.727 2.174 12.857 8.956.868 16.783-.087 0-.087.086-.173.086-8.688 5.74-18.678 9.044-29.103 8.522-.434 0-.868-.087-1.303-.087-7.905-.695-9.382-4.435-2.085-9.565-10.077 4.348-10.164 11.391 3.301 12 .609.87 1.217 1.74 1.912 2.522 2.606 2.695 6.168 5.13 11.293 5.13 5.126 0 8.687-2.26 11.294-5.043 2.432-2.522 3.996-5.74 4.517-9.913 1.303-.87 2.52-1.74 3.822-2.783 10.512-8.783 9.296-16.696-4.343-17.652z" fill="url(#b)" fill-rule="nonzero"/><path d="M24.846 58.87h-.174c-4.17 0-7.732-1.566-10.86-4.87-1.215-1.304-2.258-2.783-2.953-4.435h1.129A16.622 16.622 0 0 0 14.768 54c2.867 3.217 6.168 4.87 10.078 4.87z" fill="url(#c)" fill-rule="nonzero"/><path d="M11.207 47.478h-1.13c0 .087 0 .087.087.174.348.087.782.174 1.216.261-.087-.174-.173-.26-.173-.435z" fill="url(#d)" fill-rule="nonzero"/><path d="M9.295 42.696c.087.782.087 1.565.261 2.26.347.174.782.261 1.216.435-.174-.87-.26-1.739-.26-2.695V42c.347-7.043 3.474-11.652 6.515-16.087.174-.26.348-.435.434-.696 2.954-4.347 5.473-8.695 7.298-14.174-1.998 5.566-4.952 9.914-8.08 14.174-.173.261-.347.435-.52.696C12.943 30.348 9.642 34.87 9.294 42v.696z" fill="url(#e)" fill-rule="nonzero"/><ellipse fill="url(#f)" fill-rule="nonzero" opacity=".64" cx="24.672" cy="47.13" rx="10.598" ry="9.304"/><ellipse fill="url(#f)" fill-rule="nonzero" opacity=".64" cx="24.672" cy="47.13" rx="10.598" ry="9.304"/><path d="M16.593 44.174c-.435-1.565-.695-3.304-.782-5.391v-.61c.26-6.347 2.258-10.26 4.17-14.173 1.91-3.913 3.648-7.913 4.778-13.217-1.564 5.739-4.083 10-6.863 14.26-2.693 4.261-5.647 8.522-5.994 15.392v.695c.086 1.044.173 2 .347 2.87 1.043.26 2.606.435 4.344.174z" fill="url(#g)" opacity=".73"/><path d="M27.973 36.609c1.042-.609 2.085-1.218 3.04-1.826a1.891 1.891 0 0 0-.694-.435c-.87.695-1.738 1.391-2.78 2.087.26.087.347.087.434.174zm.087 7.739c.26-.348.521-.783.695-1.218-2.172.87-4.518 1.479-6.69 2l.782.783c3.736-.956 7.385-2.26 10.599-3.826.087-.348.174-.696.174-1.044a36.885 36.885 0 0 1-4.257 1.827c-.348.608-.869 1.13-1.303 1.478zm2.085 2.522c1.216-.61 1.998-1.566 2.606-2.783-2.606 1.13-5.386 2.087-8.166 2.87 1.911.695 4.17.608 5.56-.087z"/></g><path d="M67.689 19.217h2.258L74.9 33.043h-3.04l-.956-2.87h-5.386l-.869 2.87h-3.04l4.604-12.87c.347-.608.782-.956 1.477-.956zM68.297 22l-1.911 5.826h3.822L68.297 22zm16.679 11.043h-2.78v-6.782c0-.609-.173-1.13-.608-1.391a2.133 2.133 0 0 0-1.303-.435c-.521 0-.868.174-1.303.435-.347.26-.521.782-.521 1.39v6.783h-2.78v-6.26c0-1.826.434-3.044 1.39-3.653a6.692 6.692 0 0 1 3.127-1.043c.608 0 1.217.087 1.825.174a4.417 4.417 0 0 1 1.563.782c.435-.347.87-.608 1.39-.782A5.596 5.596 0 0 1 86.714 22c1.216 0 2.259.348 3.214.957.956.608 1.477 1.826 1.477 3.739v6.26h-1.39c-.434 0-.695-.086-.956-.347-.26-.261-.347-.609-.347-.957v-5.478c0-.609-.174-1.13-.608-1.391a2.133 2.133 0 0 0-1.303-.435c-.522 0-.956.174-1.303.435-.348.26-.609.782-.609 1.39v6.87h.087zm15.029-3.303h1.998c-.26 1.13-.868 2-1.65 2.52-.869.61-1.911.957-3.128.957-1.476 0-2.693-.521-3.561-1.478-.87-.956-1.303-2.348-1.303-4.087 0-1.739.434-3.043 1.216-4 .868-.956 1.998-1.478 3.562-1.478 1.563 0 2.866.522 3.735 1.478.869.957 1.303 2.348 1.303 4.087v.695h-6.95c0 .87.261 1.479.608 1.827.348.435.87.609 1.564.609.435 0 .869-.087 1.13-.261.086 0 .173-.087.26-.174l.26-.261c0-.087.088-.174.261-.348.174 0 .435-.087.695-.087zm-4.778-3.131h4.083c-.087-.696-.26-1.218-.52-1.566-.348-.347-.87-.521-1.478-.521s-1.042.174-1.477.521c-.347.348-.608.87-.608 1.566zm7.819 6.434v-5.217c0-1.043.174-1.913.434-2.609.348-.695.695-1.304 1.303-1.739.522-.435 1.13-.695 1.738-.87a8.56 8.56 0 0 1 2.085-.26h.347v2.87h-.955c-.782 0-1.39.173-1.738.521-.347.348-.521.957-.521 1.74v5.478h-2.693v.086zm6.602-13.826h1.477c.348 0 .695.174.956.435.26.261.434.609.434.957v.87h-2.867v-2.262zm0 3.13h1.477c.348 0 .695.175.956.436.26.26.434.608.434.956v9.304h-2.867V22.348zm11.12 7.393h1.998c-.26 1.13-.869 2-1.65 2.52-.87.61-1.912.957-3.128.957-1.564 0-2.693-.521-3.562-1.478-.869-.956-1.303-2.348-1.303-4.087 0-1.739.434-3.043 1.216-4 .869-.956 2.085-1.478 3.562-1.478 1.564 0 2.867.522 3.736 1.478.52.609.781 1.305 1.042 2h-2.78c-.174-.26-.26-.435-.434-.609-.348-.347-.869-.521-1.477-.521-.608 0-1.043.174-1.477.521-.521.522-.695 1.392-.695 2.61 0 1.217.26 2.086.695 2.608.348.435.869.609 1.564.609.434 0 .869-.087 1.13-.261.086 0 .173-.087.26-.174l.26-.261.348-.348c.174 0 .347-.087.695-.087zm9.556 2.869a5.79 5.79 0 0 1-1.738.521c-.608.087-1.216.087-1.65.087-.956 0-1.824-.26-2.52-.782-.694-.522-1.042-1.392-1.042-2.609 0-1.13.348-1.913.956-2.435.695-.521 1.476-.782 2.519-.956.174 0 .26 0 .521-.087.174 0 .435-.087.608-.087 1.217-.174 1.738-.522 1.738-1.044 0-.434-.174-.695-.608-.782-.435-.087-.782-.174-1.13-.174-.347 0-.695.087-1.042.174a1.05 1.05 0 0 0-.608.608h-2.78c.087-.87.521-1.478 1.13-2 .694-.608 1.737-.956 3.04-.956 1.477 0 2.606.26 3.388.783.782.521 1.13 1.304 1.13 2.26v3.653c0 1.043-.175 1.913-.609 2.521-.26.609-.782 1.044-1.303 1.305zm-.608-4.957c-.348.174-.869.348-1.564.522l-.956.174c-.52.174-.868.348-1.042.522-.174.26-.26.608-.26.87 0 .434.086.695.347.956.26.174.608.347 1.042.347.782 0 1.303-.173 1.738-.608.434-.435.608-1.044.608-1.74v-1.043h.087zm12.857 5.391h-1.39c-.434 0-.695-.086-.956-.347-.26-.261-.347-.609-.347-.957v-5.478c0-.609-.174-1.13-.608-1.391a2.133 2.133 0 0 0-1.303-.435c-.522 0-.87.174-1.303.435-.348.26-.522.782-.522 1.39v6.783h-2.78v-6.26c0-1.826.435-3.044 1.39-3.653a6.692 6.692 0 0 1 3.128-1.043c1.216 0 2.258.348 3.214.956.956.61 1.477 1.827 1.477 3.74v6.26zm5.82 0V20.696c0-.435.174-.783.435-1.044a1.44 1.44 0 0 1 1.042-.435h5.039c1.39 0 2.52.261 3.214.87.782.609 1.13 1.478 1.13 2.609 0 .695-.174 1.304-.435 1.739-.26.435-.695.782-1.216 1.043a3.198 3.198 0 0 1 1.564 1.218c.347.521.52 1.217.52 2 0 1.304-.434 2.347-1.302 3.13-.869.696-2.085 1.044-3.736 1.044h-6.255v.173zm2.78-8.434h3.215c.695 0 1.216-.087 1.563-.348.348-.261.522-.609.522-1.13 0-.522-.174-.87-.522-1.131-.26-.174-.782-.348-1.563-.348h-3.215v2.957zm0 5.913h3.388c.782 0 1.303-.174 1.738-.435.347-.26.521-.696.521-1.391 0-.609-.174-1.13-.521-1.392-.348-.26-.956-.434-1.738-.434h-3.3v3.652h-.088zm16.245 2.087c-.52.26-1.129.434-1.737.521-.608.087-1.216.087-1.65.087-.956 0-1.825-.26-2.52-.782-.695-.522-1.042-1.392-1.042-2.609 0-1.13.347-1.913.955-2.435.695-.521 1.477-.782 2.52-.956.173 0 .26 0 .52-.087.175 0 .435-.087.609-.087 1.216-.174 1.737-.522 1.737-1.044 0-.434-.173-.695-.608-.782-.434-.087-.782-.174-1.13-.174-.347 0-.694.087-1.042.174a1.05 1.05 0 0 0-.608.608h-2.693c.087-.87.522-1.478 1.13-2 .695-.608 1.737-.956 3.04-.956 1.477 0 2.606.26 3.388.783.782.521 1.13 1.304 1.13 2.26v3.653c0 1.043-.174 1.913-.609 2.521a3.315 3.315 0 0 1-1.39 1.305zm-.608-4.957c-.347.174-.868.348-1.563.522l-.956.174c-.521.174-.869.348-1.042.522-.174.26-.261.608-.261.87 0 .434.087.695.347.956.261.174.609.347 1.043.347.782 0 1.303-.173 1.737-.608.435-.435.608-1.044.608-1.74v-1.043h.087zm10.86 2.088h1.997c-.26 1.13-.868 2-1.65 2.52-.869.61-1.824.957-3.128.957-1.563 0-2.693-.521-3.561-1.478-.869-.956-1.303-2.348-1.303-4.087 0-1.739.434-3.043 1.216-4 .869-.956 1.998-1.478 3.562-1.478 1.563 0 2.866.522 3.735 1.478a4.93 4.93 0 0 1 1.043 2h-2.78c-.174-.26-.26-.435-.435-.609-.347-.347-.868-.521-1.477-.521-.608 0-1.042.174-1.476.521-.522.522-.695 1.392-.695 2.61 0 1.217.26 2.086.695 2.608.347.435.868.609 1.563.609.435 0 .87-.087 1.13-.261.087 0 .173-.087.26-.174l.26-.261.348-.348c.174 0 .435-.087.695-.087zm5.646-7.392v3.913l3.388-3.913h3.388l-3.822 4.087 3.822 6.608h-3.388l-1.998-3.565c-.434-.695-.782-1.043-1.042-.956-.261.087-.435.26-.435.521v4.087h-2.78V19.391h1.477c.348 0 .695.174.956.435.26.261.434.609.434.957v1.565zm7.471 10.695V22.087c0-.957.26-1.652.782-2.174.521-.435 1.303-.696 2.346-.696h1.303v2.174h-.695c-.348 0-.608.087-.782.174-.174.087-.174.348-.174.609v.696h1.738v.608c0 .435-.174.696-.435.957-.26.26-.608.348-.955.348h-.435v8.087h-2.693v.173zm4.952-13.826h1.477c.347 0 .695.087.955.348.261.261.435.609.435.957v12.521h-2.78V19.217h-.087zm5.299 12.87c-.521-.522-.955-1.13-1.216-1.913-.26-.783-.348-1.652-.348-2.522 0-.695.087-1.478.261-2.174.174-.695.521-1.304.956-1.826.695-.782 1.563-1.304 2.693-1.391 1.13-.174 2.085-.087 2.953.26 1.043.436 1.738 1.131 2.26 2.088.433.87.694 1.913.694 3.043 0 .87-.087 1.565-.26 2.174a6.528 6.528 0 0 1-.696 1.565c-.608.87-1.476 1.392-2.432 1.652-.869.261-1.737.261-2.693.087-.956-.26-1.65-.608-2.172-1.043zm1.911-7.044c-.52.61-.782 1.566-.782 2.783.087 1.217.261 2.087.695 2.522.174.174.435.435.87.522.434.173.781.173 1.215 0 .435-.087.782-.435 1.13-.87.347-.522.521-1.217.521-2.348 0-.956-.174-1.652-.434-2.174-.348-.521-.695-.782-1.043-.956-.434-.174-.782-.174-1.216 0-.521.174-.782.348-.956.521zm18.244 8h-2.78l-1.65-7.652-1.651 7.652h-2.78l-2.954-10.695h2.693l1.65 7.391 1.477-7.391h2.867l1.477 7.391 1.477-6.435c.174-.608.608-.956 1.303-.956h1.737l-2.866 10.695zM64.127 41.826l-.521-.696c-.26-.347-.522-.695-.608-1.043-.174-.348-.174-.696-.174-1.044 0-1.043.347-1.826 1.042-2.347.608-.609 1.477-.957 2.607-.957 1.042 0 1.824.261 2.519.87.608.521.955 1.304.955 2.174 0 .695-.173 1.39-.52 1.913a7.828 7.828 0 0 1-1.738 1.565l1.998 2.435c.174-.261.347-.609.434-1.044.087-.522.174-.956.174-1.304h1.477c.434 0 .695.087.782.348.086.26.086.434.086.695-.086.348-.173.783-.347 1.218-.348.695-.695 1.391-1.13 1.913l2.52 3.043h-3.214l-.956-1.13c-.26.26-.608.522-.869.695a3.21 3.21 0 0 1-.955.435c-.869.174-1.825.261-2.78.174-.956-.087-1.738-.348-2.433-.956-.781-.696-1.129-1.653-1.129-2.87 0-.87.174-1.652.608-2.26.434-.696 1.13-1.305 2.172-1.827zm1.39 1.652l-.695.522a2 2 0 0 0-.608.696c-.174.26-.26.608-.26.956 0 .522.173.957.52 1.305.348.347.87.521 1.39.521.348 0 .782-.087 1.13-.26.347-.175.695-.348.955-.696l-2.432-3.044zm.695-2.956l.347-.261c.261-.174.522-.435.608-.696.174-.26.261-.522.261-.87 0-.347-.087-.608-.347-.782-.174-.174-.435-.26-.782-.26-.348 0-.608.086-.782.26a1.103 1.103 0 0 0-.348.783c0 .087.087.26.174.521 0 .174.087.261.174.348.087.087.174.174.26.348l.435.609zm15.637 9.043V37.217c0-.434.174-.782.434-1.043.26-.261.608-.435 1.043-.435h8.6v2.348h-7.21v2.956h5.386V42c0 .435-.174.783-.435 1.043-.26.261-.608.435-1.042.435h-3.91v6.087H81.85zM93.75 35.74h1.477c.348 0 .695.173.956.434.26.26.434.609.434.956V38h-2.78v-2.26h-.086zm0 3.13h1.477c.348 0 .695.173.956.434.26.261.434.609.434.957v9.304h-2.78V38.87h-.086zm4.952 10.695v-5.217c0-1.044.174-1.913.435-2.609.347-.696.695-1.304 1.303-1.739.52-.435 1.129-.696 1.737-.87a8.56 8.56 0 0 1 2.085-.26h.348v2.87h-.956c-.782 0-1.39.173-1.737.52-.348.349-.522.957-.522 1.74v5.478h-2.693v.087zm15.029-3.305h1.998c-.26 1.131-.868 2-1.65 2.523-.869.608-1.912.956-3.128.956-1.563 0-2.693-.522-3.562-1.478-.868-.957-1.303-2.348-1.303-4.087 0-1.74.435-3.044 1.217-4 .868-.957 1.998-1.478 3.561-1.478 1.564 0 2.867.521 3.736 1.478.869.956 1.303 2.348 1.303 4.087v.695h-6.95c0 .87.26 1.479.608 1.827.348.434.869.608 1.564.608.434 0 .869-.087 1.13-.26.086 0 .173-.088.26-.174l.26-.261c0-.087.087-.174.261-.348.174 0 .435-.087.695-.087zm-4.778-3.13h4.083c-.087-.695-.26-1.217-.521-1.565-.348-.348-.869-.522-1.477-.522-.608 0-1.042.174-1.477.522-.347.348-.608.87-.608 1.565zm17.896 1.479v4.956h-2.867V37.217c0-.434.174-.782.435-1.043.26-.261.608-.435 1.042-.435h4.691c1.477 0 2.52.348 3.301 1.13.782.783 1.13 1.827 1.13 3.305 0 1.391-.348 2.522-1.043 3.304-.695.783-1.737 1.13-3.127 1.13h-3.562zm0-2.522h2.78c.782 0 1.303-.174 1.564-.522.347-.26.52-.782.52-1.478 0-.609-.173-1.13-.52-1.478-.348-.348-.87-.522-1.477-.522h-2.954v4h.087zm9.295 7.478v-5.217c0-1.044.174-1.913.435-2.609.347-.696.695-1.304 1.303-1.739.521-.435 1.13-.696 1.737-.87a8.56 8.56 0 0 1 2.085-.26h.348v2.87h-.956c-.782 0-1.39.173-1.737.52-.348.349-.522.957-.522 1.74v5.478h-2.693v.087zm15.116-3.305h1.998c-.26 1.131-.869 2-1.65 2.523-.87.608-1.912.956-3.128.956-1.563 0-2.693-.522-3.562-1.478-.868-.957-1.303-2.348-1.303-4.087 0-1.74.435-3.044 1.217-4 .868-.957 2.085-1.478 3.561-1.478 1.564 0 2.867.521 3.736 1.478.869.956 1.303 2.348 1.303 4.087v.695h-6.95c0 .87.26 1.479.608 1.827.348.434.869.608 1.564.608.434 0 .869-.087 1.13-.26.086 0 .173-.088.26-.174l.26-.261c0-.087.087-.174.261-.348.087 0 .348-.087.695-.087zm-4.865-3.13h4.083c-.087-.695-.26-1.217-.52-1.565-.348-.348-.87-.522-1.478-.522s-1.042.174-1.477.522c-.347.348-.52.87-.608 1.565zm14.682 6.435h-2.867l-3.736-10.695h2.954l2.085 7.478 1.911-6.522c.174-.609.608-.956 1.303-.956h2.085l-3.735 10.695zM173.5 46.26h1.998c-.261 1.131-.87 2-1.651 2.523-.869.608-1.911.956-3.127.956-1.564 0-2.693-.522-3.562-1.478-.869-.957-1.303-2.348-1.303-4.087 0-1.74.434-3.044 1.216-4 .869-.957 2.085-1.478 3.562-1.478 1.563 0 2.867.521 3.735 1.478.869.956 1.303 2.348 1.303 4.087v.695h-6.95c0 .87.261 1.479.609 1.827.347.434.868.608 1.563.608.435 0 .87-.087 1.13-.26.087 0 .173-.088.26-.174.087-.087.174-.174.174-.261 0-.087.174-.174.26-.348.261 0 .522-.087.783-.087zm-4.778-3.13h4.083c-.087-.695-.261-1.217-.522-1.565-.347-.348-.868-.522-1.477-.522-.608 0-1.042.174-1.476.522-.348.348-.608.87-.608 1.565zm18.243 6.435h-1.39c-.435 0-.695-.087-.956-.348-.26-.26-.347-.608-.347-.956v-5.478c0-.61-.174-1.13-.608-1.392a2.133 2.133 0 0 0-1.303-.434c-.522 0-.87.173-1.304.434-.347.261-.52.783-.52 1.392v6.782h-2.78v-6.26c0-1.827.434-3.044 1.39-3.653a6.692 6.692 0 0 1 3.127-1.043c1.129 0 2.258.348 3.214.956.956.609 1.477 1.826 1.477 3.74v6.26zm6.775 0c-.868.087-1.823 0-2.866 0-1.042-.087-1.564-.695-1.564-2V35.826h1.477c.348 0 .695.174.956.435.26.26.434.609.434.956v1.826h1.65v.522c0 .435-.173.696-.434.957-.26.26-.608.348-.955.348h-.26v5.913c0 .434.26.695.781.695h.869v2.087h-.087zm2.086-13.825h1.477c.347 0 .695.173.955.434.26.26.435.609.435.956V38h-2.78v-2.26h-.087zm0 3.13h1.477c.347 0 .695.173.955.434s.435.609.435.957v9.304h-2.78V38.87h-.087zm6.168 9.652c-.521-.522-.956-1.13-1.216-1.913-.261-.783-.348-1.652-.348-2.522 0-.696.087-1.478.26-2.174.174-.696.522-1.304.956-1.826.695-.783 1.564-1.304 2.693-1.391 1.13-.174 2.085-.087 2.954.26 1.042.435 1.737 1.131 2.259 2.087.434.87.695 1.914.695 3.044 0 .87-.087 1.565-.261 2.174a6.528 6.528 0 0 1-.695 1.565c-.608.87-1.477 1.391-2.432 1.652-.87.261-1.738.261-2.693.087-.956-.174-1.651-.522-2.172-1.043zm1.91-7.044c-.52.609-.78 1.565-.78 2.783.086 1.217.26 2.087.694 2.522.174.174.434.434.869.521.434.174.782.174 1.216 0 .434-.087.782-.434 1.13-.87.347-.521.52-1.217.52-2.347 0-.957-.173-1.652-.434-2.174-.347-.522-.695-.783-1.042-.956-.435-.174-.782-.174-1.216 0-.522.173-.782.347-.956.521zm17.549 8.087h-1.39c-.434 0-.695-.087-.955-.348-.261-.26-.348-.608-.348-.956v-5.478c0-.61-.174-1.13-.608-1.392a2.133 2.133 0 0 0-1.303-.434c-.521 0-.869.173-1.303.434-.348.261-.521.783-.521 1.392v6.782h-2.867v-6.26c0-1.827.434-3.044 1.39-3.653a6.692 6.692 0 0 1 3.127-1.043c1.216 0 2.259.348 3.214.956.956.609 1.477 1.826 1.477 3.74v6.26h.087z" fill-rule="nonzero" fill="#58595B"/></g></svg>