<svg xmlns="http://www.w3.org/2000/svg" viewBox="0 0 150.78 174.55"><script xmlns="" type="text/javascript" charset="utf-8" id="zm-extension"/><defs><style>.cls-1{fill:#7236d6;}.cls-2{fill:#fff;}.cls-3{fill:#99cc32;}.cls-4{fill:#1a1a1a;}</style></defs><title>Asset 2</title><g id="Layer_2" data-name="Layer 2"><g id="OBJECTS"><path class="cls-1" d="M150.06,44.93a2.19,2.19,0,0,0-2.95-3.24l-4.88,4.46a41.44,41.44,0,0,0-6.55-8.84l5.56-5.08a2.91,2.91,0,1,0-3.92-4.3l-5.93,5.41A62.72,62.72,0,0,0,122,26.92l2.66-9.25a3.77,3.77,0,1,0-7.24-2.08l-2.27,7.91a89.11,89.11,0,0,0-14.48-4.83l2.62-9.13a3.77,3.77,0,1,0-7.24-2.08l-2.78,9.69a106.51,106.51,0,0,0-15.19-1.39V4.35a4.35,4.35,0,1,0-8.69,0V15.92a104.68,104.68,0,0,0-11.85,1.35L54.73,7.46a3.77,3.77,0,1,0-7.24,2.08l2.67,9.29a88.58,88.58,0,0,0-14.45,5l-2.36-8.2a3.77,3.77,0,1,0-7.24,2.08l2.76,9.59a62.45,62.45,0,0,0-9.16,6.38l-6.25-5.71a2.91,2.91,0,1,0-3.93,4.3l5.93,5.41A41,41,0,0,0,9,46.58L3.67,41.69a2.19,2.19,0,0,0-3,3.24l5.41,4.94a2.13,2.13,0,0,0,1.16.55,30.43,30.43,0,0,0-2,10.84C5.25,78.19,19.56,93,40.78,100.8a26.29,26.29,0,0,0-4.33,39.83A49.94,49.94,0,0,0,41.33,145c1.29,1,2.5,2,3.58,3.08,2.27,2.24,3.47,4.64,3.3,6.58-.27,3.13-3.88,5.47-6.89,6.53a51,51,0,0,1-5.68,1.51,45,45,0,0,0-8.64,2.6,4,4,0,0,0,1.63,7.65,3.92,3.92,0,0,0,1.63-.35,39.16,39.16,0,0,1,7.15-2.1A58.89,58.89,0,0,0,44,168.72c5.5-1.94,11.6-6.47,12.2-13.38.39-4.39-1.62-9-5.66-13-1.35-1.33-2.77-2.48-4.15-3.6a41,41,0,0,1-4.1-3.62,18.4,18.4,0,0,1,8-30.2,3.83,3.83,0,0,0,1.48-.85,105.72,105.72,0,0,0,24,2.71c1.65,0,3.28,0,4.9-.12a22,22,0,0,0,8.68,29.41,39.66,39.66,0,0,0,10.75,3.7c1,.24,2,.48,3,.75,4.58,1.22,7.53,2.9,9,5.14,2.33,3.52,1.09,8.55-1.05,11.73-2.82,4.17-7.58,7.19-11.82,9.69a4,4,0,1,0,4.06,6.89c5-2.94,10.65-6.55,14.39-12.11s5.47-14,1.08-20.63c-3.48-5.24-9.44-7.32-13.62-8.44-1.07-.29-2.16-.54-3.24-.8a33.43,33.43,0,0,1-8.65-2.88,14.12,14.12,0,0,1-2.36-22.89,3.81,3.81,0,0,0,.55-.59c31.36-4.62,54.76-22.73,54.76-44.39a30.61,30.61,0,0,0-2.09-11,2.21,2.21,0,0,0,.53-.35Z"/><ellipse class="cls-2" cx="74.18" cy="60.72" rx="66.38" ry="31.75"/><path class="cls-3" d="M73.12,32.35a29.19,29.19,0,0,0-14.48,3.83A11.62,11.62,0,1,1,45.17,52.8a29.32,29.32,0,1,0,28-20.45Z"/><path class="cls-4" d="M72.93,44.72a16.31,16.31,0,0,0-6,1.14,10.42,10.42,0,0,1,.11,1.48A11.62,11.62,0,0,1,56.72,58.89a17.66,17.66,0,0,0-.16,2.2A16.38,16.38,0,1,0,72.93,44.72Z"/></g></g></svg>