<svg xmlns="http://www.w3.org/2000/svg" xmlns:xlink="http://www.w3.org/1999/xlink" viewBox="0 0 111.05 115.41"><script xmlns="" type="text/javascript" charset="utf-8" id="zm-extension"/><defs><style>.cls-1{fill:url(#linear-gradient);}.cls-2{fill:#fff;}.cls-3{fill:#1a1a1a;}</style><linearGradient id="linear-gradient" x1="55.52" x2="55.52" y2="115.41" gradientUnits="userSpaceOnUse"><stop offset="0" stop-color="#ff2b63"/><stop offset="1" stop-color="#ff1c1c"/></linearGradient></defs><title>Asset 1</title><g id="Layer_2" data-name="Layer 2"><g id="OBJECTS"><path class="cls-1" d="M99.17,5.45C90.89.6,81.28-2.73,67.66,3.1a26,26,0,0,0-10.42,7.8,2.2,2.2,0,0,1-3.43,0A26,26,0,0,0,43.39,3.1C29.77-2.73,20.16.6,11.88,5.45S-6.8,23.85,6,47.1a63.67,63.67,0,0,0,5.59,8.35,11.85,11.85,0,0,0-6,5.71,8.69,8.69,0,0,0,.19,8.47,9.9,9.9,0,0,0,5.58,3.72,20.06,20.06,0,0,0,5.85.86,20.53,20.53,0,0,0,9.73-2.44A287.36,287.36,0,0,0,50,90.78a12.2,12.2,0,0,1,1,3.79A4,4,0,0,1,49.58,98a7,7,0,0,1-3.12.85L41,99.53c-1.05.12-3.84.46-4.73,2.75-.56,1.42-.14,3.09,1.17,4.7a13.63,13.63,0,0,0,6.79,4.44,1.39,1.39,0,0,0,.4.06,1.5,1.5,0,0,0,.41-3,10.52,10.52,0,0,1-5.27-3.45c-.57-.69-.84-1.36-.71-1.71s.6-.66,2.3-.87l5.43-.65a9.53,9.53,0,0,0,4.5-1.38,6.9,6.9,0,0,0,2.63-6c0-.29,0-.56-.07-.84,3.37,2.43,5.46,3.83,5.46,3.83s3-2.5,7.58-6.61c1.5,1,3.06,2.5,3.32,4.35a6.35,6.35,0,0,1-1.92,4.88,25.59,25.59,0,0,1-3.17,2.81c-.6.47-1.2.95-1.77,1.45A7.31,7.31,0,0,0,60.76,108c-.69,2.89,1.47,5.66,4,6.67a10.9,10.9,0,0,0,4.1.7c1,0,2-.09,2.84-.17a1.5,1.5,0,1,0-.27-3,12.46,12.46,0,0,1-5.55-.33c-1.29-.52-2.47-1.93-2.17-3.19a4.77,4.77,0,0,1,1.67-2.15c.54-.47,1.11-.93,1.68-1.38a28.67,28.67,0,0,0,3.53-3.14c1.19-1.33,3.12-4,2.66-7.3a9.3,9.3,0,0,0-4-6c4.37-4,9.73-9.16,15.12-14.86a33.43,33.43,0,0,0,6.91.9h.06a13.6,13.6,0,0,0,8.19-2.48A8.79,8.79,0,0,0,103,64.16c-.48-3-2.73-5.26-4.63-6.88A94.2,94.2,0,0,0,105,47.1C117.85,23.85,107.45,10.3,99.17,5.45Zm-87,65a7,7,0,0,1-4-2.5,5.76,5.76,0,0,1,0-5.52,8.94,8.94,0,0,1,5.32-4.54,140.24,140.24,0,0,0,11,11.65A17.45,17.45,0,0,1,12.21,70.48Zm87.86-5.84A5.83,5.83,0,0,1,97.65,70a10.62,10.62,0,0,1-6.38,1.87,26.72,26.72,0,0,1-4.55-.49c3.42-3.74,6.79-7.67,9.87-11.64C98.33,61.2,99.77,62.76,100.07,64.64Z"/><ellipse class="cls-2" cx="79.73" cy="37.44" rx="11.77" ry="4.83"/><path class="cls-3" d="M83.62,37.16a4.56,4.56,0,1,1-4.56-4.56A4.56,4.56,0,0,1,83.62,37.16Z"/><path class="cls-2" d="M51,38c0,2.67-5.27,4.83-11.77,4.83S27.42,40.71,27.42,38s5.27-4.83,11.77-4.83S51,35.37,51,38Z"/><path class="cls-3" d="M43.08,37.77a4.56,4.56,0,1,1-4.56-4.56A4.56,4.56,0,0,1,43.08,37.77Z"/><path class="cls-3" d="M79.06,60.13A5.09,5.09,0,1,1,74,55,5.08,5.08,0,0,1,79.06,60.13Z"/></g></g></svg>