<?xml version="1.0" encoding="UTF-8"?>
<svg width="145px" height="142px" viewBox="0 0 145 142" version="1.1" xmlns="http://www.w3.org/2000/svg" xmlns:xlink="http://www.w3.org/1999/xlink"><script xmlns="" type="text/javascript" charset="utf-8" id="zm-extension"/>
    <!-- Generator: Sketch 49 (51002) - http://www.bohemiancoding.com/sketch -->
    <title>Page 1</title>
    <desc>Created with Sketch.</desc>
    <defs>
        <linearGradient x1="50%" y1="0%" x2="50%" y2="87.0845376%" id="linearGradient-1">
            <stop stop-color="#FFE889" offset="0%"/>
            <stop stop-color="#FFCC99" offset="100%"/>
        </linearGradient>
    </defs>
    <g id="Page-1" stroke="none" stroke-width="1" fill="none" fill-rule="evenodd">
        <g id="Artboard-6-Copy-2" transform="translate(-535.000000, -5558.000000)">
            <g id="Page-1" transform="translate(535.000000, 5558.000000)">
                <path d="M83.5,72.1196 C83.5,72.1196 85.949,58.7766 71.75,54.1196 C56.125,48.9946 34.25,58.4946 31.75,73.1666 C30.341,81.4346 32.25,81.6196 32.25,81.6196 C32.25,81.6196 40.5,62.8696 55.75,62.1196 C71,61.3696 78.25,64.3696 77,77.8696 C75.817,90.6406 41.99,115.7036 35.162,123.0316 C35.137,123.0016 35.128,122.9646 35.101,122.9356 C32.863,120.6216 30.473,118.4106 27.995,116.3616 C26.155,114.8406 24.117,113.4556 21.673,113.5756 C18.091,113.7596 15.853,117.0626 15.024,119.8356 C14.653,121.0776 14.453,122.3326 14.26,123.5456 C14.038,124.9386 13.829,126.2536 13.384,127.4706 C13.171,128.0526 12.706,129.0726 11.978,129.3536 C11.405,129.5756 10.548,129.3916 9.429,128.8086 C7.105,127.5996 5.097,125.8166 3.621,123.6526 C3.154,122.9676 2.221,122.7916 1.536,123.2586 C0.852,123.7256 0.676,124.6596 1.143,125.3436 C2.896,127.9146 5.283,130.0336 8.044,131.4706 C9.297,132.1226 10.423,132.4466 11.449,132.4466 C12.015,132.4466 12.549,132.3486 13.058,132.1526 C14.437,131.6196 15.524,130.3566 16.202,128.4986 C16.746,127.0116 16.988,125.4896 17.223,124.0176 C17.409,122.8486 17.584,121.7456 17.898,120.6946 C18.49,118.7126 19.935,116.6686 21.827,116.5716 C23.163,116.5046 24.497,117.3626 26.083,118.6746 C28.476,120.6516 30.784,122.7866 32.944,125.0206 C33.077,125.1586 33.233,125.2576 33.397,125.3336 C30.127,129.8746 28,131.3696 28,131.3696 L30.25,134.1196 C30.25,134.1196 73.25,110.7636 83.5,98.0666 C93.75,85.3696 94.882,75.7636 94.882,75.7636 C94.882,75.7636 91.5,71.1196 83.5,72.1196" id="Fill-1" fill="#F9DB2C"/>
                <path d="M80.989,1.624 C98.689,9.641 121.383,27.325 120,65.12 L83.5,72.12 C83.5,72.12 85.111,45.237 81.25,34.62 C79.041,28.543 74.781,20.172 70.714,12.722 C67.048,6.006 74.019,-1.533 80.989,1.624 Z" id="Stroke-3" fill="url(#linearGradient-1)"/>
                <path d="M83.5,72.1196 C83.5,72.1196 101,60.8696 120,65.1196 C139,69.3696 136.196,79.2476 135.25,84.8696 C133.5,95.2676 111.643,133.0376 99.75,125.8696 C95.188,123.1196 107,97.8696 99.5,82.1196 C93.798,70.1456 83.5,72.1196 83.5,72.1196 Z" id="Stroke-5" fill="#FFEB92"/>
                <path d="M120,65.1196 C120,65.1196 129.75,55.6196 140.25,56.8696 C140.25,56.8696 135.75,48.6196 120,50.8696 L120,65.1196 Z" id="Stroke-7" fill="#FFEB92"/>
                <path d="M140.25,56.8696 C140.25,56.8696 153.417,70.6556 135.833,81.2216 C135.833,81.2216 137.761,75.6086 132.672,70.9476 C132.672,70.9476 137.75,68.5366 137.833,64.7026 C137.917,60.8696 134.35,57.1956 134.35,57.1956 L140.25,56.8696 Z" id="Stroke-9" fill="#EDCA05"/>
                <path d="M114.5,52.873 C114.5,56.047 108.664,58.62 101.466,58.62 C94.267,58.62 88.432,56.047 88.432,52.873 C88.432,49.699 94.267,47.126 101.466,47.126 C108.664,47.126 114.5,49.699 114.5,52.873 Z" id="Stroke-11" fill="#FFFFFF"/>
                <path d="M106.6057,52.6606 C106.6057,55.4986 104.3047,57.8006 101.4657,57.8006 C98.6267,57.8006 96.3257,55.4986 96.3257,52.6606 C96.3257,49.8216 98.6267,47.5206 101.4657,47.5206 C104.3047,47.5206 106.6057,49.8216 106.6057,52.6606 Z" id="Stroke-13" fill="#1A1A1A"/>
                <path d="M101.5835,89.0361 C99.5835,81.0361 96.7635,76.8241 94.8815,75.7631 C94.8815,75.7631 90.8595,95.5871 72.2465,108.0351 C63.4345,113.9281 53.5555,120.0851 45.5925,124.9381 C45.7895,124.4231 45.7075,123.8221 45.3085,123.3891 C42.8985,120.7761 40.0725,118.6291 36.9085,117.0081 C35.3875,116.2301 33.1125,115.3011 30.9235,116.2161 C28.3115,117.3081 27.5335,120.1401 27.1175,122.7651 L25.2715,134.4081 C25.0855,135.5821 24.8265,136.8751 24.0975,137.3561 C23.2885,137.8891 21.9045,137.3691 20.9555,136.5801 C20.4585,136.1681 19.9965,135.6821 19.5055,135.1661 C18.7235,134.3441 17.9145,133.4941 16.8645,132.8291 C16.1645,132.3871 15.2375,132.5941 14.7945,133.2941 C14.3515,133.9941 14.5595,134.9211 15.2595,135.3641 C15.9965,135.8311 16.6455,136.5131 17.3325,137.2341 C17.8605,137.7891 18.4075,138.3641 19.0375,138.8881 C20.2045,139.8571 21.7775,140.5691 23.3215,140.5691 C24.1635,140.5691 24.9975,140.3571 25.7495,139.8601 C27.4965,138.7061 27.9485,136.6831 28.2345,134.8781 L30.0805,123.2351 C30.3675,121.4271 30.8285,119.5071 32.0805,118.9841 C32.8705,118.6531 33.9695,118.8751 35.5405,119.6791 C38.3885,121.1381 40.9335,123.0701 43.1035,125.4231 C43.3585,125.7001 43.6965,125.8431 44.0425,125.8811 C35.9905,130.7711 30.2495,134.1191 30.2495,134.1191 L33.5835,139.8691 C33.5835,139.8691 38.3335,139.2861 40.9165,140.7861 C43.5005,142.2861 62.0835,143.2031 77.0005,134.1191 C91.9165,125.0361 98.9895,118.9401 98.9895,118.9401 C98.9895,118.9401 103.5835,97.0361 101.5835,89.0361" id="Fill-15" fill="#EDCA05"/>
            </g>
        </g>
    </g>
</svg>