<svg xmlns="http://www.w3.org/2000/svg" width="286.3" height="286.3"><script xmlns="" type="text/javascript" charset="utf-8" id="zm-extension"/><linearGradient id="a" gradientUnits="userSpaceOnUse" x1="241.925" y1="46.075" x2="42.675" y2="245.325" gradientTransform="matrix(1 0 0 -1 0 288)"><stop offset="0" stop-color="#0095d8"/><stop offset=".496" stop-color="#f5faf9"/><stop offset="1" stop-color="#6ab023"/></linearGradient><path d="M142.3 1.4C64.5 1.4 1.4 64.5 1.4 142.3s63.1 140.9 140.9 140.9 140.9-63.1 140.9-140.9S220.1 1.4 142.3 1.4zm0 265.8c-69 0-124.9-55.9-124.9-124.9S73.3 17.4 142.3 17.4s124.9 55.9 124.9 124.9-55.9 124.9-124.9 124.9z" fill="url(#a)" stroke="#000" stroke-width="1.714"/><path d="M155.7 123h10.5l-19.1 24.6v13.2h-9v-13.2L119 123h10.6l13 17.5 13.1-17.5zm50.6 0v7.7H181v7.2h24.3v7.4H181v7.7h25.3v7.8h-34.1V123h34.1zm-46.7 47.3v7.7h-25.3v7.2h24.3v7.4h-24.3v7.7h25.3v7.7h-34.1v-37.7h34.1zm76.1-23.9h-7.2v14.4h-8.8V123h22.9c6.4 0 11.7 5.2 11.7 11.7 0 5.3-3.5 9.8-8.4 11.2l11.1 14.8h-10.5l-10.8-14.3zm6.1-15.7h-13.3v8.2h13.3c2.3 0 4.1-2 4.1-4.1 0-2-1.8-4.1-4.1-4.1zm-87.8 100c0-2.1-1.7-4.2-4.1-4.2h-15.5v8.3h15.5c2.3 0 4.1-2.1 4.1-4.1zm-28.5 25.9v-37.7h25.2c6.4 0 11.6 5.3 11.6 11.7 0 4.9-3 9.1-7.3 10.8l11.3 15.2h-10.5L145 242.2h-10.8v14.4h-8.7zm-3.9-95.9h-9.5l-3.1-6.5H87.7l-3.1 6.5h-9.4L94 123h8.7l18.9 37.7zM98.4 132l-7.5 14.9h14.8L98.4 132zm67.4-19.3h-9.5l-3.1-6.5h-21.3l-3.1 6.5h-9.4L138.2 75h8.7l18.9 37.7zm-23.2-28.8l-7.5 14.9h14.8l-7.3-14.9zM38.9 138h16c1.8 0 3.6-1.6 3.6-3.7 0-2-1.6-3.7-3.6-3.7h-16v7.4zm0 15.3h16.7c2.4 0 4.3-2 4.3-4.1s-2-4.3-4.3-4.3H38.9v8.4zm25.5-12.2c2.2 2.1 4 4.6 4 8.2 0 6.3-5 11.5-12.2 11.5h-26V123H56c6.1 0 11 4.9 11 11 0 2.7-1 5.2-2.6 7.1zm69.9-97.3h15.9c1.8 0 3.6-1.6 3.6-3.6s-1.6-3.7-3.6-3.7h-15.9v7.3zm0 15.2H151c2.4 0 4.3-2 4.3-4.1s-2-4.3-4.3-4.3h-16.6l-.1 8.4zm25.4-12.1c2.2 2.1 4 4.6 4 8.2 0 6.3-5 11.5-12.2 11.5h-26.1V28.8h25.8c6.1 0 11 4.9 11 11 .1 2.7-.8 5.2-2.5 7.1z" fill="#4d4d4d" stroke="#000" stroke-width="1.028"/></svg>