<?xml version="1.0" encoding="UTF-8"?>
<svg width="1920px" height="595px" viewBox="0 0 1920 595" version="1.1" xmlns="http://www.w3.org/2000/svg" xmlns:xlink="http://www.w3.org/1999/xlink"><script xmlns="" type="text/javascript" charset="utf-8" id="zm-extension"/>
    <!-- Generator: Sketch 49 (51002) - http://www.bohemiancoding.com/sketch -->
    <title>Bg</title>
    <desc>Created with Sketch.</desc>
    <defs>
        <linearGradient x1="50%" y1="0%" x2="50%" y2="100%" id="linearGradient-1">
            <stop stop-color="#9174EC" offset="0%"/>
            <stop stop-color="#BF51C2" offset="100%"/>
        </linearGradient>
    </defs>
    <g id="Page-1" stroke="none" stroke-width="1" fill="none" fill-rule="evenodd">
        <g id="Artboard-6-Copy-2" transform="translate(0.000000, -3928.000000)" fill="url(#linearGradient-1)">
            <g id="Messenger-Copy" transform="translate(-39.000000, 3684.000000)">
                <path d="M1991.34546,865.593128 C1945.65146,865.593128 1939.95059,530.359338 1612.39605,682.535938 C1377.5608,791.636635 1208.49838,690.565594 1077.1166,658.365181 C945.734825,626.164768 795.568258,520.645606 694.918158,524.160385 C662.038788,525.308558 632.285305,529.619183 584.510121,555.111445 C536.734936,580.603708 434.984088,687.654182 325.97903,687.911294 C296.482319,687.980869 265.820013,678.343217 240.712794,665.221374 C215.605575,652.099531 177.13408,621.463711 141.973493,585.223107 C132.00488,574.948291 86.4812382,535.353633 78.754211,528.479231 C-1.03263128,457.496327 -44.8771834,409.986961 145.090722,578.97267 C191.176789,619.968472 217.923661,645.210481 244.66168,657.382255 C267.424702,667.744517 277.96969,674.875695 325.643849,678.312955 C356.538869,680.540455 406.846436,661.448128 455.665635,633.592079 C507.266248,604.148965 555.924278,559.679842 580.167659,546.203244 C625.240466,521.147823 660.14411,513.901133 694.517979,512.700771 C790.506868,509.348766 907.073782,609.893686 1075.12597,601.361007 C1243.17816,592.828329 1468.33446,345.916921 1646.29089,294.360862 C1824.24733,242.804802 1909.21478,206.280012 2081.8976,356.395883 C2254.58042,506.511753 2037.03946,865.593128 1991.34546,865.593128 Z" id="Bg" transform="translate(1079.053016, 557.518173) scale(1, -1) rotate(2.000000) translate(-1079.053016, -557.518173) "/>
            </g>
        </g>
    </g>
</svg>