<svg width="1440" height="938" version="1" xmlns="http://www.w3.org/2000/svg"><script xmlns="" type="text/javascript" charset="utf-8" id="zm-extension"/><defs><linearGradient x1="50%" y1="100%" x2="50%" y2="0%" id="a"><stop stop-color="#FFE35B" offset="0%"/><stop stop-color="#FFB163" offset="100%"/></linearGradient><linearGradient x1="50%" y1="0%" x2="50%" y2="97%" id="b"><stop stop-color="#FFE35A" offset="0%"/><stop stop-color="#FFB064" offset="100%"/></linearGradient></defs><g fill="none" fill-rule="evenodd"><path d="M177 873c478-79 326 56 829 64 403 7 794-244 1136-81 229 109 177-177-154-856H69C-51 614-14 905 177 873z" style="mix-blend-mode:multiply" fill="url(#a)" transform="translate(-421)"/><path d="M112 652c36 0 198 168 612-20 414-187 655 77 890 77s324-156 555-57" stroke="url(#b)" stroke-width="2" transform="translate(-421)"/><path d="M112 686c36 0 178 102 592-85 414-188 675 142 910 142s324-156 555-57" stroke="url(#b)" stroke-width="2" transform="matrix(-1 0 0 1 1860 0)"/></g></svg>