<?xml version="1.0" encoding="UTF-8"?>
<svg width="153px" height="115px" viewBox="0 0 153 115" version="1.1" xmlns="http://www.w3.org/2000/svg" xmlns:xlink="http://www.w3.org/1999/xlink"><script xmlns="" type="text/javascript" charset="utf-8" id="zm-extension"/>
    <!-- Generator: Sketch 49 (51002) - http://www.bohemiancoding.com/sketch -->
    <title>Bird</title>
    <desc>Created with Sketch.</desc>
    <defs>
        <linearGradient x1="58.5073964%" y1="88.5006697%" x2="24.4142012%" y2="-35.9685448%" id="linearGradient-1">
            <stop stop-color="#06A6FA" offset="0%"/>
            <stop stop-color="#F179FC" offset="100%"/>
        </linearGradient>
        <linearGradient x1="-39.8120881%" y1="-55.0112165%" x2="100%" y2="78.0533335%" id="linearGradient-2">
            <stop stop-color="#24A0FF" offset="0%"/>
            <stop stop-color="#C182FF" offset="100%"/>
        </linearGradient>
    </defs>
    <g id="Page-1" stroke="none" stroke-width="1" fill="none" fill-rule="evenodd">
        <g id="Artboard-6-Copy-2" transform="translate(-572.000000, -2820.000000)">
            <g id="4-copy" transform="translate(337.000000, 2820.000000)">
                <g id="Bird" transform="translate(224.000000, 0.000000)">
                    <g id="Bird-Svg" transform="translate(60.500000, 68.000000) scale(-1, 1) rotate(14.000000) translate(-60.500000, -68.000000) translate(11.000000, 20.000000)">
                        <path d="M69.16513,33.8754138 C70.7999174,47.9446381 82.7883583,49.0373934 99,44.8029667 C76.9303702,85.2349122 21.6200633,93.0207936 8.26929957,40.2953511 C7.72437044,38.929407 7.45190588,37.4268685 7.17944131,35.92433 C7.04320903,34.4217915 6.90697674,32.7826585 6.90697674,31.28012 C6.90697674,13.9326299 20.8026696,0 38.1041695,0 C55.2694372,0 69.16513,13.9326299 69.16513,31.28012 C69.16513,32.0996865 69.16513,32.919253 69.16513,33.8754138 Z" id="Shape" fill="url(#linearGradient-1)"/>
                        <ellipse id="Oval" fill="#E89853" cx="10.3604651" cy="40.4819277" rx="10.3604651" ry="8.09638554"/>
                        <path d="M53.5434593,75.370395 C54.1909884,75.0441865 54.9680233,75.1529227 55.3565407,75.5878674 C55.874564,76.1315484 55.7450581,76.7839656 55.0975291,77.1101742 L53.5434593,75.370395 Z M49.3992733,86.5980235 L48.88125,86.0543425 L48.4927326,85.5106616 L48.1042151,84.9669806 L47.8452035,84.5320358 L47.5861919,83.9883548 L47.456686,83.4446738 L47.3271802,83.009729 L47.1976744,82.4660481 L47.1976744,82.0311033 L47.1976744,81.5961585 L47.3271802,81.0524775 L47.456686,80.6175327 L47.5861919,80.2913241 L47.8452035,79.8563793 L48.1042151,79.4214346 L48.3632267,79.095226 L48.6222384,78.7690174 L48.88125,78.4428088 L49.2697674,78.1166002 L49.5287791,77.7903916 L49.9172965,77.5729192 L50.305814,77.2467106 L50.5648256,77.0292382 L50.953343,76.8117658 L51.3418605,76.5942934 L51.7303779,76.3768211 L51.9893895,76.1593487 L52.377907,75.9418763 L52.7664244,75.7244039 L53.025436,75.5069315 L53.2844477,75.3981953 L53.5434593,75.1807229 L55.0975291,76.920502 L54.8385174,77.1379744 L54.5795058,77.3554468 L54.1909884,77.464183 L53.9319767,77.6816554 L53.5434593,77.8991278 L53.2844477,78.1166002 L52.8959302,78.3340726 L52.6369186,78.4428088 L52.2484012,78.6602812 L51.9893895,78.8777536 L51.7303779,79.095226 L51.3418605,79.3126984 L51.0828488,79.638907 L50.953343,79.8563793 L50.6943314,80.0738517 L50.4353198,80.2913241 L50.305814,80.5087965 L50.1763081,80.7262689 L50.0468023,81.0524775 L49.9172965,81.2699499 L49.9172965,81.4874223 L49.7877907,81.8136309 L49.7877907,82.0311033 L49.7877907,82.3573119 L49.7877907,82.5747843 L49.9172965,82.9009928 L50.0468023,83.2272014 L50.1763081,83.6621462 L50.4353198,83.9883548 L50.6943314,84.4232996 L51.0828488,84.8582444 L51.4713663,85.2931892 L49.3992733,86.5980235 Z M53.9967297,90.1890643 L53.737718,90.0803281 L53.6082122,89.8628557 L53.4787064,89.7541195 L53.2196948,89.6453833 L53.090189,89.5366471 L52.9606831,89.4279109 L52.8311773,89.3191747 L52.5721657,89.2104385 L52.4426599,89.1017023 L52.3131541,88.9929661 L52.1836483,88.8842299 L52.0541424,88.7754937 L51.9246366,88.6667575 L51.7951308,88.5580213 L51.665625,88.4492851 L51.5361192,88.3405489 L51.4066134,88.3405489 L51.2771076,88.2318127 L51.1476017,88.1230765 L51.0180959,88.0143403 L50.8885901,87.9056041 L50.7590843,87.7968679 L50.6295785,87.6881317 L50.5000727,87.5793955 L50.3705669,87.4706593 L50.241061,87.3619231 L50.1115552,87.2531869 L49.9820494,87.1444508 L49.8525436,87.0357146 L49.7230378,86.9269784 L49.593532,86.709506 L49.4640262,86.6007698 L51.5361192,85.2959354 L51.665625,85.4046716 L51.665625,85.5134078 L51.7951308,85.622144 L51.9246366,85.7308802 L52.0541424,85.8396164 L52.1836483,85.9483526 L52.3131541,86.0570888 L52.4426599,86.165825 L52.5721657,86.2745612 L52.5721657,86.3832974 L52.7016715,86.3832974 L52.8311773,86.4920336 L52.9606831,86.6007698 L53.090189,86.709506 L53.2196948,86.8182422 L53.3492006,86.8182422 L53.4787064,86.9269784 L53.6082122,87.0357146 L53.737718,87.1444508 L53.8672238,87.2531869 L53.9967297,87.3619231 L54.1262355,87.4706593 L54.2557413,87.5793955 L54.3852471,87.6881317 L54.6442587,87.7968679 L54.7737645,87.9056041 L54.9032703,88.0143403 L55.162282,88.1230765 L55.2917878,88.2318127 L55.4212936,88.3405489 L55.6803052,88.5580213 L53.9967297,90.1890643 Z M50.953343,95.9529981 L49.9172965,93.9957465 L50.1763081,93.8870104 L50.4353198,93.8870104 L50.5648256,93.7782742 L50.8238372,93.669538 L51.2123547,93.5608018 L51.4713663,93.4520656 L51.7303779,93.3433294 L51.9893895,93.2345932 L52.2484012,93.0171208 L52.6369186,92.9083846 L52.8959302,92.7996484 L53.1549419,92.6909122 L53.4139535,92.4734398 L53.6729651,92.3647036 L53.9319767,92.2559674 L54.1909884,92.038495 L54.3204942,91.9297588 L54.45,91.8210226 L54.7090116,91.6035502 L54.7090116,91.494814 L54.8385174,91.3860778 L54.9680233,91.2773416 L54.9680233,91.1686054 L54.9680233,91.0598692 L54.9680233,90.951133 L54.8385174,90.8423968 L54.8385174,90.7336607 L54.7090116,90.6249245 L54.5795058,90.4074521 L54.0597153,90.1179068 L55.6056121,88.5679431 L56.3925872,88.9938815 L56.6515988,89.2113539 L57.0401163,89.6462987 L57.2991279,89.9725073 L57.4286337,90.2987159 L57.5581395,90.7336607 L57.5581395,91.0598692 L57.5581395,91.494814 L57.4286337,91.8210226 L57.2991279,92.1472312 L57.1696221,92.4734398 L56.9106105,92.7996484 L56.6515988,93.0171208 L56.3925872,93.2345932 L56.1335756,93.5608018 L55.7450581,93.7782742 L55.4860465,93.8870104 L55.2270349,94.1044827 L54.8385174,94.3219551 L54.5795058,94.5394275 L54.1909884,94.6481637 L53.8024709,94.8656361 L53.5434593,94.9743723 L53.1549419,95.0831085 L52.8959302,95.3005809 L52.5074128,95.4093171 L52.2484012,95.5180533 L51.9893895,95.6267895 L51.7303779,95.7355257 L51.4713663,95.8442619 L51.2123547,95.9529981 L50.953343,95.9529981 Z M50.7935855,95.8698495 C50.1460565,96.1960581 49.3690216,95.8698495 49.11001,95.3261685 C48.8509983,94.7824875 49.11001,94.1300703 49.757539,93.9125979 L50.7935855,95.8698495 Z" id="Shape" fill="#06A6FA" fill-rule="nonzero"/>
                        <path d="M55.3443649,71.0303471 C55.8756708,70.4933174 56.6726297,70.35906 57.2039356,70.8960897 C57.7352415,71.2988619 57.868068,72.2386639 57.3367621,72.7756935 L55.3443649,71.0303471 Z M56.1413238,80.8311386 L54.0161002,82.4422277 L53.8832737,82.1737128 L53.6176208,81.7709406 L53.4847943,81.3681683 L53.2191413,80.9653961 L53.0863148,80.5626238 L53.0863148,80.1598515 L52.9534884,79.7570793 L52.9534884,79.354307 L52.9534884,78.9515348 L52.9534884,78.5487625 L52.9534884,78.1459903 L52.9534884,77.743218 L52.9534884,77.2061883 L53.0863148,76.8034161 L53.0863148,76.4006438 L53.2191413,75.9978716 L53.2191413,75.5950993 L53.3519678,75.1923271 L53.4847943,74.9238122 L53.6176208,74.52104 L53.7504472,74.1182677 L53.8832737,73.7154955 L54.0161002,73.4469806 L54.1489267,73.0442084 L54.2817531,72.7756935 L54.4145796,72.5071787 L54.5474061,72.2386639 L54.6802326,71.970149 L54.813059,71.7016342 L55.078712,71.4331193 L55.2115385,71.1646045 L55.3443649,71.0303471 L57.3367621,72.7756935 L57.2039356,72.9099509 L57.0711091,73.0442084 L56.9382826,73.3127232 L56.9382826,73.4469806 L56.8054562,73.7154955 L56.6726297,73.8497529 L56.5398032,74.1182677 L56.4069767,74.3867825 L56.2741503,74.6552974 L56.2741503,75.0580696 L56.1413238,75.3265845 L56.0084973,75.5950993 L55.8756708,75.9978716 L55.8756708,76.2663864 L55.7428444,76.5349012 L55.7428444,76.9376735 L55.6100179,77.2061883 L55.6100179,77.6089606 L55.6100179,77.8774754 L55.6100179,78.1459903 L55.6100179,78.5487625 L55.6100179,78.8172774 L55.6100179,79.0857922 L55.6100179,79.354307 L55.6100179,79.6228219 L55.7428444,79.8913367 L55.7428444,80.1598515 L55.8756708,80.294109 L56.0084973,80.5626238 L56.0084973,80.6968812 L56.1413238,80.8311386 Z M66.7674419,85.5301483 L64.1109123,85.6644057 L64.1109123,85.7986631 L64.2437388,85.7986631 L64.1109123,85.7986631 L63.9780859,85.7986631 L63.8452594,85.6644057 L63.7124329,85.6644057 L63.44678,85.6644057 L63.181127,85.5301483 L62.7826476,85.5301483 L62.5169946,85.5301483 L62.1185152,85.5301483 L61.7200358,85.5301483 L61.3215564,85.3958909 L60.9230769,85.3958909 L60.391771,85.3958909 L59.9932916,85.2616334 L59.4619857,85.2616334 L59.0635063,85.127376 L58.5322004,85.127376 L58.1337209,84.9931186 L57.602415,84.8588612 L57.0711091,84.7246038 L56.6726297,84.4560889 L56.1413238,84.3218315 L55.7428444,84.0533167 L55.3443649,83.6505444 L54.813059,83.3820296 L54.4145796,82.9792573 L54.0161002,82.4422277 L56.1413238,80.8311386 L56.4069767,81.0996535 L56.6726297,81.3681683 L56.8054562,81.5024257 L57.2039356,81.7709406 L57.4695886,81.905198 L57.7352415,82.0394554 L58.0008945,82.1737128 L58.3993739,82.3079702 L58.7978533,82.4422277 L59.0635063,82.4422277 L59.4619857,82.5764851 L59.8604651,82.5764851 L60.2589445,82.7107425 L60.657424,82.7107425 L61.0559034,82.7107425 L61.4543828,82.7107425 L61.8528623,82.8449999 L62.2513417,82.8449999 L62.6498211,82.8449999 L63.0483005,82.8449999 L63.44678,82.9792573 L63.8452594,82.9792573 L64.1109123,82.9792573 L64.5093918,83.1135148 L64.9078712,83.2477722 L65.3063506,83.3820296 L65.5720036,83.516287 L65.970483,83.7848018 L66.236136,84.1875741 L66.5017889,84.5903464 L66.6346154,84.9931186 L66.7674419,85.5301483 Z M62.2513417,92.2430192 L60.5245975,90.2291579 L60.657424,90.0949005 L60.7902504,89.9606431 L60.9230769,89.8263857 L61.0559034,89.6921283 L61.1887299,89.5578708 L61.3215564,89.4236134 L61.4543828,89.289356 L61.5872093,89.1550986 L61.7200358,89.0208412 L61.9856887,88.8865838 L62.1185152,88.7523263 L62.2513417,88.4838115 L62.3841682,88.3495541 L62.5169946,88.2152967 L62.7826476,88.0810392 L62.9154741,87.8125244 L63.0483005,87.678267 L63.181127,87.5440096 L63.3139535,87.2754947 L63.44678,87.1412373 L63.5796064,87.0069799 L63.7124329,86.8727225 L63.7124329,86.7384651 L63.8452594,86.4699502 L63.8452594,86.3356928 L63.9780859,86.2014354 L63.9780859,86.067178 L64.1109123,85.9329205 L64.1109123,85.7986631 L64.1109123,85.6644057 L66.7674419,85.5301483 L66.7674419,85.7986631 L66.7674419,86.2014354 L66.6346154,86.4699502 L66.6346154,86.7384651 L66.5017889,87.0069799 L66.3689624,87.2754947 L66.3689624,87.5440096 L66.236136,87.8125244 L66.1033095,88.0810392 L65.8376565,88.2152967 L65.7048301,88.4838115 L65.5720036,88.7523263 L65.4391771,88.8865838 L65.3063506,89.1550986 L65.0406977,89.4236134 L64.9078712,89.5578708 L64.7750447,89.8263857 L64.5093918,89.9606431 L64.3765653,90.2291579 L64.1109123,90.3634154 L63.9780859,90.6319302 L63.8452594,90.7661876 L63.5796064,90.900445 L63.44678,91.1689599 L63.3139535,91.3032173 L63.0483005,91.4374747 L62.9154741,91.5717321 L62.7826476,91.7059895 L62.6498211,91.840247 L62.5169946,91.9745044 L62.3841682,92.1087618 L62.2513417,92.2430192 Z M62.2513417,92.2430192 C61.7200358,92.6457915 60.9230769,92.6457915 60.391771,92.1087618 C59.8604651,91.5717321 59.9932916,90.7661876 60.5245975,90.2291579 L62.2513417,92.2430192 Z" id="Shape" fill="#06A6FA" fill-rule="nonzero"/>
                        <ellipse id="Oval" fill="#FFFFFF" cx="39.7151163" cy="34.1204819" rx="9.78488372" ry="4.04819277"/>
                        <ellipse id="Oval" fill="#1A1A1A" cx="38.5639535" cy="34.1204819" rx="4.02906977" ry="4.04819277"/>
                        <ellipse id="Oval" fill="#E89853" transform="translate(11.511628, 45.108434) rotate(-46.008388) translate(-11.511628, -45.108434) " cx="11.5116279" cy="45.1084337" rx="10.3604651" ry="5.78313253"/>
                    </g>
                    <circle id="Oval-10" fill="url(#linearGradient-2)" cx="137" cy="42" r="12"/>
                    <circle id="Oval-10-Copy" fill="url(#linearGradient-2)" cx="157.5" cy="23.5" r="6.5"/>
                    <circle id="Oval-10-Copy-2" fill="url(#linearGradient-2)" cx="151.5" cy="4.5" r="4.5"/>
                </g>
            </g>
        </g>
    </g>
</svg>