<svg width="61" height="60" xmlns="http://www.w3.org/2000/svg"><script xmlns="" type="text/javascript" charset="utf-8" id="zm-extension"/><g transform="translate(.16)" fill="none" fill-rule="evenodd"><circle fill="#FDE100" fill-rule="nonzero" cx="30" cy="30" r="30"/><circle stroke="#000" stroke-width="1.4" cx="29.559" cy="29.559" r="27.794"/><path d="M20.103 7.059L27.4 29.9h3.146l7.199-22.842h-4.4l-4.388 15.25L24.6 7.058h-4.497zM8.823 18.304v22.537h6.989c5.664 0 8.528-6.936 4.594-11.214v-.043c0-.022.032-.033.032-.033 3.275-3.73 1.892-10.317-4.183-11.247H8.824zm28.92 0v22.537h7.027c5.653 0 8.518-6.936 4.594-11.214v-.043c0-.022.032-.033.032-.033 3.265-3.73 1.892-10.317-4.194-11.247h-7.458zm-24.828 4.212h3.437c2.238 0 2.692 4.333.14 5.022h-3.577v-5.022zm28.98 0h3.415c2.227 0 2.692 4.333.13 5.022h-3.545v-5.022zm-28.98 9.059h3.037c2.519 0 3.448 4.639.173 5.295h-3.21v-5.295zm28.98 0H44.9c2.518 0 3.448 4.639.173 5.295h-3.178v-5.295zM24.6 41.312c-1.805 0-3.275 1.498-3.275 3.326v4.988c0 1.827 1.47 3.315 3.275 3.315h.065c1.805 0 3.275-1.488 3.275-3.315v-4.988c0-1.828-1.47-3.326-3.275-3.326H24.6zm8.68 0c-1.806 0-3.34 1.422-3.34 3.249v.82c0 1.827 1.643 3.304 3.34 3.36 0 0 .691-.012 1.048-.209l.033 1.127c0 .569-.454 1.072-1.017 1.061-.453-.022-1.08-.251-1.08-.82 0 0 .108-.755-.433-.755H29.94c-.022.186 0 .295 0 .547 0 1.728 1.459 3.25 3.437 3.25 1.87-.023 3.178-1.467 3.178-3.349v-5c0-1.826-1.405-3.281-3.21-3.281h-.065zm.032 2.363c.595 0 1.049.46 1.049 1.028v.646a1.02 1.02 0 0 1-1.017 1.028c-.594 0-1.08-.46-1.08-1.028v-.646c0-.569.486-1.028 1.048-1.028zm-8.712.033c.594 0 1.08.46 1.08 1.028v4.956c0 .569-.486 1.028-1.048 1.028-.594 0-1.048-.46-1.048-1.028v-4.956a1.02 1.02 0 0 1 1.016-1.028z" fill="#000" fill-rule="nonzero"/></g></svg>