<?xml version="1.0" encoding="UTF-8"?>
<svg width="430px" height="472px" viewBox="0 0 430 472" version="1.1" xmlns="http://www.w3.org/2000/svg" xmlns:xlink="http://www.w3.org/1999/xlink"><script xmlns="" type="text/javascript" charset="utf-8" id="zm-extension"/>
    <!-- Generator: Sketch 49 (51002) - http://www.bohemiancoding.com/sketch -->
    <title>Group 18</title>
    <desc>Created with Sketch.</desc>
    <defs>
        <linearGradient x1="100%" y1="100%" x2="14.1444694%" y2="15.3544877%" id="linearGradient-1">
            <stop stop-color="#FF007C" offset="0%"/>
            <stop stop-color="#FF76A4" offset="100%"/>
        </linearGradient>
        <linearGradient x1="77.983154%" y1="79.3287702%" x2="0%" y2="37.6477832%" id="linearGradient-2">
            <stop stop-color="#FFE915" offset="0%"/>
            <stop stop-color="#FFB343" offset="100%"/>
        </linearGradient>
        <polygon id="path-3" points="0.0004 0.3222 161.3864 0.3222 161.3864 84 0.0004 84"/>
        <linearGradient x1="50%" y1="0%" x2="50%" y2="98.0446171%" id="linearGradient-5">
            <stop stop-color="#FFFFFF" offset="0%"/>
            <stop stop-color="#FFCACA" offset="100%"/>
        </linearGradient>
        <path d="M55.585,0.056 C52.508,0.058 50.073,0.622 48.622,1.069 C47.809,1.32 47.37,2.198 47.652,3.001 C53.505,19.635 42.034,20.109 42.034,20.109 C28.559,20.109 17.637,31.033 17.637,44.507 L17.637,50.608 L19.611,50.608 C9.217,50.608 0.791,59.034 0.791,69.428 L0.791,75.289 C0.791,85.683 9.217,94.109 19.611,94.109 L110.317,94.109 C120.711,94.109 129.137,85.683 129.137,75.289 L129.137,69.428 C129.137,59.034 120.711,50.608 110.317,50.608 L115.137,50.608 C115.137,33.764 101.482,20.109 84.637,20.109 C74.521,3.448 63.165,0.065 55.627,0.056 L55.585,0.056 Z" id="path-6"/>
    </defs>
    <g id="Page-1" stroke="none" stroke-width="1" fill="none" fill-rule="evenodd">
        <g id="Artboard-6-Copy-2" transform="translate(-1490.000000, -3330.000000)">
            <g id="Group-18" transform="translate(1490.000000, 3329.000000)">
                <path d="M3.11675751,295.831088 C13.3652564,367.430351 97.7604946,454.229409 179.005072,436.719105 C260.249648,419.2088 256.849588,294.625686 349.831087,335.189437 C442.812587,375.753187 510.851113,290.749735 465.688686,223.010175 C420.526259,155.270614 401.958599,118.877863 297.668175,180.146224 C193.37775,241.414585 212.140115,140 107.628436,140 C3.11675751,140 -7.13174141,224.231824 3.11675751,295.831088 Z" id="Path-10-Copy" fill="url(#linearGradient-1)"/>
                <path d="M413.431104,473 C377.029975,473 231.411754,359.05554 260.919145,266.135079 C290.426536,173.214618 461.824322,310.13418 444.816113,391.56709 C427.807905,473 449.832233,473 413.431104,473 Z" id="Path-11-Copy" fill="url(#linearGradient-2)" style="mix-blend-mode: multiply;"/>
                <g id="Page-1" transform="translate(220.000000, 0.000000)">
                    <g id="Group-3" transform="translate(0.000000, 93.943000)">
                        <mask id="mask-4" fill="white">
                            <use xlink:href="#path-3"/>
                        </mask>
                        <g id="Clip-2"/>
                        <path d="M155.5304,23.1572 C153.6534,17.5742 149.8394,12.6332 144.8664,9.4752 C139.6774,6.1822 133.2684,4.8432 127.1914,5.7362 L128.1364,1.1092 L36.3864,1.1092 L41.4614,23.6462 C41.3464,23.6912 41.2354,23.7462 41.1324,23.8222 C35.5304,27.8972 27.7224,28.9502 21.2414,26.5012 C15.3824,24.2882 10.6114,19.2092 8.6334,13.2602 C11.3094,12.4092 13.2504,9.9062 13.2504,6.9472 C13.2504,3.2882 10.2834,0.3222 6.6254,0.3222 C2.9664,0.3222 0.0004,3.2882 0.0004,6.9472 C0.0004,10.2382 2.4024,12.9612 5.5484,13.4762 C7.6524,20.5762 13.2574,26.6922 20.1804,29.3082 C22.8354,30.3102 25.6814,30.7992 28.5394,30.7992 C33.3534,30.7992 38.1814,29.3942 42.1574,26.7402 L46.1374,44.4202 C46.7374,47.0852 48.9404,49.0902 51.6494,49.4372 C51.6494,49.4372 55.2924,50.6532 61.7744,51.7302 C60.6574,54.4932 60.9274,57.8452 62.5754,60.8552 C64.1794,63.7862 66.7354,65.9052 68.7814,67.4242 L69.4414,67.9072 C70.4884,68.6722 71.4764,69.3942 72.2514,70.2492 C73.1244,71.2132 73.5994,72.2882 73.5544,73.1972 C73.4734,74.8702 71.7004,76.3032 70.0684,77.0882 C69.2814,77.4662 68.4434,77.7822 67.5574,78.1172 C65.9884,78.7102 64.3674,79.3232 62.8634,80.3472 C61.9504,80.9692 61.7154,82.2132 62.3364,83.1262 C62.7234,83.6942 63.3514,84.0002 63.9914,84.0002 C64.3794,84.0002 64.7704,83.8872 65.1154,83.6532 C66.2254,82.8962 67.5594,82.3922 68.9704,81.8592 C69.8984,81.5092 70.8574,81.1462 71.8014,80.6932 C75.2594,79.0322 77.4084,76.3032 77.5514,73.3912 C77.6474,71.4032 76.8184,69.3332 75.2164,67.5642 C74.1674,66.4052 72.9644,65.5272 71.8004,64.6772 L71.1654,64.2122 C69.4464,62.9362 67.3154,61.1832 66.0844,58.9342 C64.9564,56.8732 64.7784,54.5532 65.6194,52.8792 C65.7104,52.6992 65.7604,52.5112 65.7934,52.3232 C70.3564,52.9132 75.9024,53.3592 82.2614,53.3592 C82.9194,53.3592 83.5684,53.3522 84.2134,53.3422 C84.1014,53.7512 84.1114,54.1962 84.2844,54.6192 C85.4424,57.4582 87.8794,59.9172 90.9704,61.3642 C93.4934,62.5452 96.4654,63.1172 99.8654,63.0712 L100.2114,63.0652 C101.4644,63.0392 102.7594,63.0192 103.3464,63.5502 C103.9034,64.0532 103.8364,65.3572 103.2044,66.2842 C102.4264,67.4242 101.0774,68.2462 99.6474,69.1162 L99.2994,69.3292 C97.3334,70.5322 95.3744,71.9472 94.3524,74.1452 C93.8874,75.1472 94.3234,76.3362 95.3254,76.8022 C95.5974,76.9282 95.8844,76.9882 96.1664,76.9882 C96.9204,76.9882 97.6424,76.5592 97.9814,75.8302 C98.5834,74.5342 100.0544,73.5562 101.3864,72.7402 L101.7274,72.5332 C103.3774,71.5292 105.2454,70.3902 106.5094,68.5372 C108.0674,66.2502 108.3144,62.6502 106.0304,60.5832 C104.2694,58.9912 101.9784,59.0322 100.1394,59.0652 L99.8064,59.0712 C97.0434,59.1172 94.6364,58.6642 92.6664,57.7412 C90.5194,56.7362 88.8444,55.0932 88.0414,53.2222 C102.9894,52.5342 113.7584,49.4352 113.7584,49.4352 C116.5244,49.0912 118.7614,47.0202 119.3204,44.2892 L126.5764,8.7512 C126.7534,8.7882 126.9384,8.7962 127.1264,8.7632 C132.6504,7.8242 138.5284,9.0062 143.2594,12.0082 C147.4804,14.6892 150.7684,18.8212 152.4944,23.5162 C149.9534,24.4432 148.1364,26.8732 148.1364,29.7342 C148.1364,33.3932 151.1024,36.3592 154.7614,36.3592 C158.4214,36.3592 161.3864,33.3932 161.3864,29.7342 C161.3864,26.3352 158.8264,23.5382 155.5304,23.1572" id="Fill-1" fill="#996633" mask="url(#mask-4)"/>
                    </g>
                    <g id="Group-6" transform="translate(20.000000, 0.943000)">
                        <mask id="mask-7" fill="white">
                            <use xlink:href="#path-6"/>
                        </mask>
                        <use id="Clip-5" fill="url(#linearGradient-5)" xlink:href="#path-6"/>
                        <path d="M55.585,0.056 C52.508,0.058 50.073,0.622 48.622,1.069 C47.809,1.32 47.37,2.198 47.652,3.001 C53.505,19.635 42.034,20.109 42.034,20.109 C28.559,20.109 17.637,31.033 17.637,44.507 L17.637,50.608 L19.611,50.608 C9.217,50.608 0.791,59.034 0.791,69.428 L0.791,75.289 C0.791,85.683 9.217,94.109 19.611,94.109 L110.317,94.109 C120.711,94.109 129.137,85.683 129.137,75.289 L129.137,69.428 C129.137,59.034 120.711,50.608 110.317,50.608 L115.137,50.608 C115.137,33.764 101.482,20.109 84.637,20.109 C74.521,3.448 63.165,0.065 55.627,0.056 L55.585,0.056 Z" id="Fill-4" mask="url(#mask-7)"/>
                    </g>
                    <g id="Group-17" transform="translate(41.000000, 98.943000)">
                        <path d="M81.8868,7.4248 C81.8868,11.2548 74.5558,14.3588 65.5118,14.3588 C56.4678,14.3588 49.1368,11.2548 49.1368,7.4248 C49.1368,3.5948 56.4678,0.4908 65.5118,0.4908 C74.5558,0.4908 81.8868,3.5948 81.8868,7.4248" id="Fill-7" fill="#FFFFFF"/>
                        <path d="M72.5704,7.3047 C72.5704,10.8257 69.7164,13.6797 66.1954,13.6797 C62.6744,13.6797 59.8204,10.8257 59.8204,7.3047 C59.8204,3.7837 62.6744,0.9297 66.1954,0.9297 C69.7164,0.9297 72.5704,3.7837 72.5704,7.3047" id="Fill-9" fill="#1A1A1A"/>
                        <path d="M32.9347,7.3047 C32.9347,11.1347 25.6037,14.2387 16.5597,14.2387 C7.5167,14.2387 0.1847,11.1347 0.1847,7.3047 C0.1847,3.4747 7.5167,0.3707 16.5597,0.3707 C25.6037,0.3707 32.9347,3.4747 32.9347,7.3047" id="Fill-11" fill="#FFFFFF"/>
                        <path d="M23.6183,7.1846 C23.6183,10.7056 20.7643,13.5596 17.2433,13.5596 C13.7223,13.5596 10.8683,10.7056 10.8683,7.1846 C10.8683,3.6636 13.7223,0.8096 17.2433,0.8096 C20.7643,0.8096 23.6183,3.6636 23.6183,7.1846" id="Fill-13" fill="#1A1A1A"/>
                        <path d="M23.84,20.8589 C23.84,30.3559 31.539,38.0549 41.036,38.0549 C50.533,38.0549 58.232,30.3559 58.232,20.8589 L23.84,20.8589 Z" id="Fill-15" fill="#333333"/>
                    </g>
                </g>
            </g>
        </g>
    </g>
</svg>