<?xml version="1.0" encoding="UTF-8"?>
<svg width="133px" height="85px" viewBox="0 0 133 85" version="1.1" xmlns="http://www.w3.org/2000/svg" xmlns:xlink="http://www.w3.org/1999/xlink"><script xmlns="" type="text/javascript" charset="utf-8" id="zm-extension"/>
    <!-- Generator: Sketch 49 (51002) - http://www.bohemiancoding.com/sketch -->
    <title>Page 1</title>
    <desc>Created with Sketch.</desc>
    <defs>
        <linearGradient x1="-10.362842%" y1="39.4447625%" x2="108.81833%" y2="39.4447625%" id="linearGradient-1">
            <stop stop-color="#33CC93" offset="0%"/>
            <stop stop-color="#3AC955" offset="100%"/>
        </linearGradient>
        <path d="M25.367,0.922 C11.416,0.922 0,12.338 0,26.29 L0,31.844 L0,31.531 C0,45.484 11.416,56.898 25.367,56.898 L35.816,56.898 C35.797,57.13 57.383,56.957 56.823,56.625 C69.043,54.824 78.5,44.23 78.5,31.531 L78.5,26.91 L78.5,26.29 C78.5,12.338 67.085,0.922 53.132,0.922 L25.367,0.922 Z" id="path-2"/>
        <path d="M25.367,0.922 C11.416,0.922 0,12.338 0,26.29 L0,31.844 L0,31.531 C0,45.484 11.416,56.898 25.367,56.898 L35.816,56.898 C35.797,57.13 57.383,56.957 56.823,56.625 C69.043,54.824 78.5,44.23 78.5,31.531 L78.5,26.91 L78.5,26.29 C78.5,12.338 67.085,0.922 53.132,0.922 L25.367,0.922 Z" id="path-4"/>
        <path d="M25.367,0.922 C11.416,0.922 0,12.338 0,26.29 L0,31.844 L0,31.531 C0,45.484 11.416,56.898 25.367,56.898 L35.816,56.898 C35.797,57.13 57.383,56.957 56.823,56.625 C69.043,54.824 78.5,44.23 78.5,31.531 L78.5,26.91 L78.5,26.29 C78.5,12.338 67.085,0.922 53.132,0.922 L25.367,0.922 Z" id="path-6"/>
    </defs>
    <g id="Page-1" stroke="none" stroke-width="1" fill="none" fill-rule="evenodd">
        <g id="Artboard-6-Copy-2" transform="translate(-1405.000000, -3854.000000)">
            <g id="Messenger-Copy" transform="translate(-39.000000, 3684.000000)">
                <g id="Page-1" transform="translate(1444.000000, 169.000000)">
                    <g id="Group-3" transform="translate(0.000000, 1.395300)" fill="url(#linearGradient-1)">
                        <path d="M52.367,0.11 C38.416,0.11 27,11.526 27,25.477 L27,26.098 C27,26.098 19.25,14.098 3.5,12.848 C3.5,12.848 -0.562,17.91 4.75,21.848 C4.75,21.848 0,24.348 0,28.848 C0,33.348 5.25,34.598 5.25,34.598 C5.25,34.598 -0.625,37.348 2.25,43.348 C2.25,43.348 17.25,43.716 27,31.031 L27,30.719 C27,44.671 38.416,56.087 52.367,56.087 L62.816,56.087 C62.797,56.318 62.825,56.556 62.921,56.785 C63.715,58.687 62.624,60.99 61.194,62.19 C59.689,63.454 57.485,64.186 54.644,64.366 L53.972,64.402 C52.845,64.457 51.682,64.515 50.503,64.912 C48.597,65.554 47.248,67.002 46.984,68.689 C46.722,70.352 47.539,71.819 48.176,72.779 C49.532,74.818 51.336,76.6 53.394,77.931 C53.646,78.094 53.928,78.172 54.208,78.172 C54.699,78.172 55.182,77.93 55.469,77.486 C55.919,76.79 55.719,75.862 55.023,75.411 C53.309,74.303 51.805,72.818 50.674,71.117 C50.111,70.27 49.873,69.627 49.947,69.154 C50.035,68.602 50.656,68.026 51.461,67.754 C52.245,67.49 53.156,67.445 54.12,67.398 L54.833,67.359 C58.327,67.139 61.117,66.173 63.123,64.487 C65.673,62.346 66.749,58.891 65.831,56.087 L79.984,56.087 C79.909,56.702 80.217,57.324 80.805,57.613 C81.739,58.072 82.704,58.547 83.406,59.196 C84.032,59.775 84.39,60.483 84.365,61.09 C84.326,62.018 83.471,62.933 82.523,63.867 L77.018,69.286 C75.919,70.368 73.876,72.38 74.074,74.987 C74.236,77.133 75.827,78.675 77.195,79.777 C79.07,81.289 81.093,82.646 83.202,83.813 C83.432,83.94 83.681,84 83.926,84 C84.454,84 84.967,83.72 85.241,83.225 C85.641,82.5 85.379,81.587 84.653,81.187 C82.695,80.105 80.818,78.844 79.078,77.442 C78.18,76.718 77.141,75.76 77.065,74.762 C76.98,73.636 78.082,72.449 79.124,71.423 L84.627,66.005 C85.964,64.689 87.277,63.234 87.362,61.216 C87.425,59.718 86.726,58.179 85.441,56.993 C84.937,56.526 84.383,56.144 83.823,55.813 C96.043,54.011 105.5,43.417 105.5,30.719 L105.5,31.031 C115.25,43.716 130.25,43.348 130.25,43.348 C133.125,37.348 127.25,34.598 127.25,34.598 C127.25,34.598 132.5,33.348 132.5,28.848 C132.5,24.348 127.75,21.848 127.75,21.848 C133.062,17.91 129,12.848 129,12.848 C113.25,14.098 105.5,26.098 105.5,26.098 L105.5,25.477 C105.5,11.526 94.085,0.11 80.132,0.11 L52.367,0.11 Z" id="Clip-2"/>
                    </g>
                    <g id="Group-13" transform="translate(27.000000, 0.395300)">
                        <g id="Group-6">
                            <mask id="mask-3" fill="white">
                                <use xlink:href="#path-2"/>
                            </mask>
                            <g id="Clip-5"/>
                            <polygon id="Fill-4" fill="#CC4BAF" mask="url(#mask-3)" points="72.7007 51.9536 67.9297 56.9296 12.1587 3.4546 16.9297 -1.5204"/>
                        </g>
                        <g id="Group-9">
                            <mask id="mask-5" fill="white">
                                <use xlink:href="#path-4"/>
                            </mask>
                            <g id="Clip-8"/>
                            <polygon id="Fill-7" fill="#CC4BAF" mask="url(#mask-5)" points="89.4658 40.3369 84.6948 45.3129 31.7838 -5.4201 36.5548 -10.3951"/>
                        </g>
                        <g id="Group-12">
                            <mask id="mask-7" fill="white">
                                <use xlink:href="#path-6"/>
                            </mask>
                            <g id="Clip-11"/>
                            <polygon id="Fill-10" fill="#CC4BAF" mask="url(#mask-7)" points="52.2158 59.8369 47.4448 64.8129 -5.4662 14.0799 -0.6952 9.1049"/>
                        </g>
                    </g>
                    <g id="Group-22" transform="translate(32.000000, 23.395300)">
                        <path d="M70.2656,6.5571 C70.2656,9.6291 64.5856,12.1191 57.5776,12.1191 C50.5706,12.1191 44.8906,9.6291 44.8906,6.5571 C44.8906,3.4851 50.5706,0.9951 57.5776,0.9951 C64.5856,0.9951 70.2656,3.4851 70.2656,6.5571" id="Fill-14" fill="#FFFFFF"/>
                        <path d="M62.5469,5.9634 C62.5469,8.7074 60.3219,10.9324 57.5779,10.9324 C54.8339,10.9324 52.6089,8.7074 52.6089,5.9634 C52.6089,3.2194 54.8339,0.9944 57.5779,0.9944 C60.3219,0.9944 62.5469,3.2194 62.5469,5.9634" id="Fill-16" fill="#1A1A1A"/>
                        <path d="M25.459,6.5571 C25.459,9.6291 19.778,12.1191 12.771,12.1191 C5.764,12.1191 0.084,9.6291 0.084,6.5571 C0.084,3.4851 5.764,0.9951 12.771,0.9951 C19.778,0.9951 25.459,3.4851 25.459,6.5571" id="Fill-18" fill="#FFFFFF"/>
                        <path d="M17.7402,5.9634 C17.7402,8.7074 15.5152,10.9324 12.7712,10.9324 C10.0272,10.9324 7.8022,8.7074 7.8022,5.9634 C7.8022,3.2194 10.0272,0.9944 12.7712,0.9944 C15.5152,0.9944 17.7402,3.2194 17.7402,5.9634" id="Fill-20" fill="#1A1A1A"/>
                    </g>
                </g>
            </g>
        </g>
    </g>
</svg>