<svg width="24" height="24" xmlns="http://www.w3.org/2000/svg" xmlns:xlink="http://www.w3.org/1999/xlink"><script xmlns="" type="text/javascript" charset="utf-8" id="zm-extension"/><defs><path d="M12 22c5.523 0 10-4.477 10-10S17.523 2 12 2 2 6.477 2 12s4.477 10 10 10zm0 2C5.373 24 0 18.627 0 12S5.373 0 12 0s12 5.373 12 12-5.373 12-12 12zm-2.41-8.42l-3.465-3.465a1 1 0 0 0-1.412-.003l-.003.003a.997.997 0 0 0-.002 1.413L9.59 18.41l8.925-9.024a1 1 0 0 0-.004-1.41l-.001-.002a.991.991 0 0 0-1.406.004L9.59 15.58z" id="a"/></defs><use fill="#272727" fill-rule="nonzero" xlink:href="#a"/></svg>