<svg width="1260" height="414" xmlns="http://www.w3.org/2000/svg"><script xmlns="" type="text/javascript" charset="utf-8" id="zm-extension"/><defs><linearGradient x1="85.299%" y1="15.121%" x2="14.941%" y2="85.478%" id="a"><stop stop-color="#5A7FFF" offset="0%"/><stop stop-color="#6A64FE" offset="51.62%"/><stop stop-color="#8C64FE" offset="98.65%"/></linearGradient><linearGradient x1="85.972%" y1="15.412%" x2="15.614%" y2="85.77%" id="b"><stop stop-color="#5A7FFF" offset="0%"/><stop stop-color="#6A64FE" offset="51.62%"/><stop stop-color="#8C64FE" offset="98.65%"/></linearGradient><linearGradient x1="85.712%" y1="15.47%" x2="15.354%" y2="85.828%" id="c"><stop stop-color="#5A7FFF" offset="0%"/><stop stop-color="#6A64FE" offset="51.62%"/><stop stop-color="#8C64FE" offset="98.65%"/></linearGradient><linearGradient x1=".072%" y1="50.198%" x2="99.965%" y2="50.198%" id="d"><stop stop-color="#5A7FFF" offset="0%"/><stop stop-color="#6A64FE" offset="51.62%"/><stop stop-color="#8C64FE" offset="98.65%"/></linearGradient><linearGradient x1="-.186%" y1="50.155%" x2="99.993%" y2="50.155%" id="e"><stop stop-color="#5A7FFF" offset="0%"/><stop stop-color="#6A64FE" offset="51.62%"/><stop stop-color="#8C64FE" offset="98.65%"/></linearGradient><linearGradient x1=".169%" y1="50.015%" x2="99.927%" y2="50.015%" id="f"><stop stop-color="#5A7FFF" offset="0%"/><stop stop-color="#6A64FE" offset="51.62%"/><stop stop-color="#8C64FE" offset="98.65%"/></linearGradient></defs><g transform="translate(0 -7)" fill="none" fill-rule="evenodd"><ellipse fill="url(#a)" fill-rule="nonzero" opacity=".52" cx="1222.405" cy="271.637" rx="5.908" ry="5.908"/><ellipse fill="url(#b)" fill-rule="nonzero" opacity=".52" cx="6.671" cy="90.297" rx="5.908" ry="5.908"/><ellipse fill="url(#c)" fill-rule="nonzero" opacity=".52" cx="347.429" cy="283.353" rx="5.908" ry="5.908"/><ellipse fill="#8F8FF9" fill-rule="nonzero" opacity=".21" transform="rotate(-45 417.372 114.394)" cx="417.372" cy="114.394" rx="12.316" ry="12.316"/><ellipse fill="url(#d)" fill-rule="nonzero" opacity=".48" cx="256.807" cy="26.412" rx="12.617" ry="12.617"/><ellipse stroke="#7D5AC0" stroke-width="1.001" transform="rotate(-45 1240.852 26.42)" cx="1240.852" cy="26.419" rx="18.625" ry="18.625"/><ellipse stroke="#7D5AC0" stroke-width="1.001" transform="rotate(-45 881.914 393.128)" cx="881.914" cy="393.128" rx="10.214" ry="10.213"/><ellipse stroke="#7D5AC0" stroke-width="1.001" transform="rotate(-45 173.348 403.323)" cx="173.348" cy="403.323" rx="10.214" ry="10.213"/><ellipse stroke="#7D5AC0" stroke-width="1.001" transform="rotate(-45 1228.15 349.525)" cx="1228.15" cy="349.525" rx="10.214" ry="10.213"/><ellipse fill="#8F8FF9" fill-rule="nonzero" opacity=".21" cx="1017.93" cy="149.075" rx="15.721" ry="15.721"/><ellipse fill="#8F8FF9" fill-rule="nonzero" opacity=".21" cx="359.045" cy="403.412" rx="17.524" ry="17.523"/><ellipse fill="#8F8FF9" fill-rule="nonzero" opacity=".21" cx="613.186" cy="349.541" rx="12.417" ry="12.416"/><ellipse stroke="#7D5AC0" stroke-width="1.001" cx="1054.68" cy="106.518" rx="7.911" ry="7.91"/><ellipse fill="#8F8FF9" fill-rule="nonzero" opacity=".21" cx="683.581" cy="98.608" rx="8.311" ry="8.311"/><ellipse stroke="#7D5AC0" stroke-width="1.001" cx="634.515" cy="66.866" rx="12.016" ry="12.016"/><ellipse stroke="#7D5AC0" stroke-width="1.001" cx="213.048" cy="201.544" rx="12.016" ry="12.016"/><ellipse fill="url(#e)" fill-rule="nonzero" opacity=".48" cx="64.949" cy="300.275" rx="9.513" ry="9.513"/><ellipse fill="url(#f)" fill-rule="nonzero" opacity=".48" cx="1076.309" cy="323.706" rx="19.126" ry="19.125"/></g></svg>