<?xml version="1.0" encoding="UTF-8"?>
<svg width="102px" height="121px" viewBox="0 0 102 121" version="1.1" xmlns="http://www.w3.org/2000/svg" xmlns:xlink="http://www.w3.org/1999/xlink"><script xmlns="" type="text/javascript" charset="utf-8" id="zm-extension"/>
    <!-- Generator: Sketch 49 (51002) - http://www.bohemiancoding.com/sketch -->
    <title>Group 10</title>
    <desc>Created with Sketch.</desc>
    <defs>
        <linearGradient x1="42.6152557%" y1="105.573463%" x2="42.6152559%" y2="8.25397768%" id="linearGradient-1">
            <stop stop-color="#6DEAC7" offset="0%"/>
            <stop stop-color="#FFFFFF" stop-opacity="0.544270833" offset="100%"/>
        </linearGradient>
        <linearGradient x1="47.3077863%" y1="122.82118%" x2="47.3077863%" y2="-3.07712253%" id="linearGradient-2">
            <stop stop-color="#2BD7A7" offset="0%"/>
            <stop stop-color="#FFFFFF" offset="100%"/>
        </linearGradient>
    </defs>
    <g id="Page-1" stroke="none" stroke-width="1" fill="none" fill-rule="evenodd">
        <g id="Artboard-4" transform="translate(-106.000000, -48.000000)">
            <g id="Group-3-Copy" transform="translate(77.000000, 48.000000)">
                <g id="Group-10" transform="translate(29.000000, 0.000000)">
                    <g id="Group-4">
                        <g id="Polygon">
                            <g id="Group">
                                <path d="M52.3911519,0.409865662 L100.463274,29.0376049 C101.328453,29.5528333 101.85853,30.4854539 101.85853,31.4924271 L101.85853,88.903008 C101.85853,89.9099812 101.328453,90.8426019 100.463274,91.3578302 L52.3911519,119.985569 C51.4903747,120.521997 50.3681551,120.521997 49.4673779,119.985569 L1.39525589,91.3578302 C0.530076868,90.8426019 3.55271368e-15,89.9099812 -1.77635684e-15,88.903008 L-2.66453526e-14,31.4924271 C-2.84217094e-14,30.4854539 0.530076868,29.5528333 1.39525589,29.0376049 L49.4673779,0.409865662 C50.3681551,-0.126561941 51.4903747,-0.126561941 52.3911519,0.409865662 Z" id="Polygon-Copy-4" fill="url(#linearGradient-1)"/>
                                <path d="M52.8107468,11.4069453 L92.394658,34.8748092 C93.2625641,35.3893592 93.7947295,36.3235216 93.7947295,37.3324927 L93.7947295,84.400749 C93.7947295,85.4097201 93.2625641,86.3438825 92.394658,86.8584325 L52.8107468,110.326296 C51.9123743,110.858909 50.7949766,110.858909 49.8966041,110.326296 L10.3126929,86.8584325 C9.44478679,86.3438825 8.91262136,85.4097201 8.91262136,84.400749 L8.91262136,37.3324927 C8.91262136,36.3235216 9.44478679,35.3893592 10.3126929,34.8748092 L49.8966041,11.4069453 C50.7949766,10.8743329 51.9123743,10.8743329 52.8107468,11.4069453 Z" id="Polygon-Copy-5" fill="url(#linearGradient-2)"/>
                            </g>
                        </g>
                    </g>
                    <g id="logo" transform="translate(31.000000, 33.000000)" fill="#2BD7A7">
                        <g id="Group">
                            <path d="M37.2857143,35.1931217 C37.6857163,34.6322723 38.2571391,33.6508007 39,32.2486772 C40.8285806,29.0518359 41.9285696,27.4534392 42.3,27.4534392 C42.6714304,27.4534392 42.8571429,27.6777755 42.8571429,28.126455 C42.8571429,30.8746169 41.4000146,34.3518308 38.4857143,38.5582011 C33.2285451,46.1296675 26.2286151,49.9153439 17.4857143,49.9153439 C15.0285591,49.9153439 12.7714389,49.354503 10.7142857,48.2328042 C8.65713257,47.1111055 7.02857743,45.6809611 5.82857143,43.942328 C3.37141629,40.408977 2.14285714,36.7074268 2.14285714,32.8375661 C2.14285714,23.0787872 4.72854557,15.2129928 9.9,9.23994709 C15.0714544,3.26690135 21.1999646,0.28042328 28.2857143,0.28042328 C30.971442,0.28042328 33.17142,1.05157959 34.8857143,2.59391534 C36.6000086,4.1362511 37.4571429,6.08517341 37.4571429,8.44074074 C37.4571429,10.7963081 36.8571489,12.9835878 35.6571429,15.0026455 C34.4571369,17.0217032 33.0142941,18.0312169 31.3285714,18.0312169 C29.6428487,18.0312169 28.8,17.5825442 28.8,16.6851852 C28.8,15.6756563 29.3571373,14.5259324 30.4714286,13.2359788 C31.5857199,11.9460253 32.1428571,10.6560911 32.1428571,9.36613757 C32.1428571,5.38410707 29.9857359,3.39312169 25.6714286,3.39312169 C21.3571213,3.39312169 17.4571603,6.2253685 13.9714286,11.8899471 C10.4856969,17.5545257 8.74285714,23.3872716 8.74285714,29.3883598 C8.74285714,33.5386451 9.94284514,37.2261744 12.3428571,40.4510582 C14.7428691,43.6759421 18.114264,45.2883598 22.4571429,45.2883598 C27.6000257,45.2883598 32.5428334,41.9233141 37.2857143,35.1931217 Z" id="C"/>
                            <path d="M35.1428571,37.2962963 C35.5428591,36.7354469 36.114282,35.7539753 36.8571429,34.3518519 C38.6857234,31.1550105 39.7857124,29.5566138 40.1571429,29.5566138 C40.5285733,29.5566138 40.7142857,29.7809501 40.7142857,30.2296296 C40.7142857,32.9777915 39.2571574,36.4550054 36.3428571,40.6613757 C31.085688,48.2328421 24.085758,52.0185185 15.3428571,52.0185185 C12.885702,52.0185185 10.6285817,51.4576776 8.57142857,50.3359788 C6.51427543,49.2142801 4.88572029,47.7841357 3.68571429,46.0455026 C1.22855914,42.5121516 0,38.8106014 0,34.9407407 C0,25.1819618 2.58568843,17.3161674 7.75714286,11.3431217 C12.9285973,5.37007596 19.0571074,2.38359788 26.1428571,2.38359788 C28.8285849,2.38359788 31.0285629,3.15475419 32.7428571,4.69708995 C34.4571514,6.2394257 35.3142857,8.18834801 35.3142857,10.5439153 C35.3142857,12.8994827 34.7142917,15.0867624 33.5142857,17.1058201 C32.3142797,19.1248778 30.871437,20.1343915 29.1857143,20.1343915 C27.4999916,20.1343915 26.6571429,19.6857188 26.6571429,18.7883598 C26.6571429,17.7788309 27.2142801,16.629107 28.3285714,15.3391534 C29.4428627,14.0491999 30,12.7592657 30,11.4693122 C30,7.48728168 27.8428787,5.4962963 23.5285714,5.4962963 C19.2142641,5.4962963 15.3143031,8.32854311 11.8285714,13.9931217 C8.34283971,19.6577003 6.6,25.4904462 6.6,31.4915344 C6.6,35.6418197 7.799988,39.329349 10.2,42.5542328 C12.600012,45.7791167 15.9714069,47.3915344 20.3142857,47.3915344 C25.4571686,47.3915344 30.3999763,44.0264887 35.1428571,37.2962963 Z" id="C-Copy" opacity="0.52564538"/>
                        </g>
                    </g>
                </g>
            </g>
        </g>
    </g>
</svg>