<?xml version="1.0" encoding="UTF-8"?>
<svg width="1920px" height="277px" viewBox="0 0 1920 277" version="1.1" xmlns="http://www.w3.org/2000/svg" xmlns:xlink="http://www.w3.org/1999/xlink"><script xmlns="" type="text/javascript" charset="utf-8" id="zm-extension"/>
    <!-- Generator: Sketch 49 (51002) - http://www.bohemiancoding.com/sketch -->
    <title>Group 21 Copy 5</title>
    <desc>Created with Sketch.</desc>
    <defs/>
    <g id="Page-1" stroke="none" stroke-width="1" fill="none" fill-rule="evenodd">
        <g id="Artboard-Copy" transform="translate(0.000000, -2142.000000)">
            <g id="Group-21-Copy-5" transform="translate(0.000000, 2141.720001)">
                <path d="M0,209.387794 C48.6289077,196.44901 101.073166,76.3059044 182.48334,76.3059044 C263.893513,76.3059044 295.743158,209.387794 400.439466,209.387794 C505.135775,209.387794 497.822955,166.781174 565.032228,166.781174 C632.241501,166.781174 613.460373,209.387794 697.786383,209.387794 C745.992431,209.387794 892.270763,260.054832 1019.2847,226.839889 C1114.45406,201.952503 1220.21544,93.2317514 1271.5688,90.7459636 C1361.78188,86.3791498 1385.38616,218.662157 1550.53223,218.662157 C1715.67831,218.662157 1712.32146,90.7459636 1824.76361,90.7459636" id="Path-3" stroke="#E2E2E2"/>
                <path d="M172.346094,20.728776 C239.543539,20.728776 275.678241,260.454453 336.208983,260.454453 C396.739725,260.454453 406.506728,164.524544 473.723108,164.524544 C540.939488,164.524544 548.850685,250.113597 702.296523,250.113597 C855.742361,250.113597 969.887025,78.3974072 1106.48896,78.3974072 C1243.0909,78.3974072 1347.53039,268.386285 1474.05128,268.386285 C1600.57216,268.386285 1785.13941,11.8614051 1930.01313,0" id="Path-3-Copy" stroke="#71E6C5"/>
                <circle id="Oval-6" stroke="#6DEAC7" fill="#FFFFFF" cx="1110.38247" cy="76.3059044" r="7.89371425"/>
                <circle id="Oval-6-Copy" stroke="#6DEAC7" fill="#FFFFFF" cx="1485.3339" cy="268.386285" r="7.89371425"/>
                <circle id="Oval-6-Copy-5" stroke="#E2E2E2" fill="#FFFFFF" cx="1824.76361" cy="92.0933329" r="7.89371425"/>
                <circle id="Oval-6-Copy-6" stroke="#E2E2E2" fill="#FFFFFF" cx="1516.90876" cy="215.761523" r="7.89371425"/>
                <circle id="Oval-6-Copy-8" stroke="#E2E2E2" fill="#FFFFFF" cx="1280.09733" cy="90.7777139" r="7.89371425"/>
                <circle id="Oval-6-Copy-7" stroke="#E2E2E2" fill="#FFFFFF" cx="176.292952" cy="77.6215235" r="7.89371425"/>
                <circle id="Oval-6-Copy-2" stroke="#6DEAC7" fill="#FFFFFF" cx="465.729141" cy="167.083618" r="7.89371425"/>
                <circle id="Oval-6-Copy-3" stroke="#6DEAC7" fill="#FFFFFF" cx="176.292952" cy="21.0499047" r="7.89371425"/>
                <circle id="Oval-6-Copy-4" stroke="#6DEAC7" fill="#FFFFFF" cx="340.745332" cy="260.49257" r="7.89371425"/>
                <polygon id="Triangle-2" stroke="#7BE8C9" transform="translate(353.901522, 71.043428) rotate(-46.000000) translate(-353.901522, -71.043428) " points="353.901522 59.2028569 371.00457 82.8839996 336.798475 82.8839996"/>
                <polygon id="Triangle-2-Copy" stroke="#7BE8C9" transform="translate(373.635808, 80.252762) rotate(66.000000) translate(-373.635808, -80.252762) " points="373.635808 68.4121902 390.738855 92.0933329 356.53276 92.0933329"/>
                <polygon id="Triangle-2-Copy-2" stroke="#7BE8C9" transform="translate(1770.823230, 238.127047) rotate(19.000000) translate(-1770.823230, -238.127047) " points="1770.82323 226.286475 1787.92628 249.967618 1753.72018 249.967618"/>
                <path d="M1496.20311,93.9890992 L1506.70149,100.067109 C1507.31913,100.424687 1507.69942,101.084286 1507.69942,101.797962 L1507.69942,113.963561 C1507.69942,114.677237 1507.31913,115.336836 1506.70149,115.694414 L1496.20311,121.772424 C1495.58326,122.131287 1494.81882,122.131287 1494.19897,121.772424 L1483.70059,115.694414 C1483.08295,115.336836 1482.70266,114.677237 1482.70266,113.963561 L1482.70266,101.797962 C1482.70266,101.084286 1483.08295,100.424687 1483.70059,100.067109 L1494.19897,93.9890992 C1494.81882,93.630236 1495.58326,93.630236 1496.20311,93.9890992 Z" id="Polygon-2" stroke="#94EDD3"/>
            </g>
        </g>
    </g>
</svg>