<svg width="1440" height="507" xmlns="http://www.w3.org/2000/svg"><script xmlns="" type="text/javascript" charset="utf-8" id="zm-extension"/><g fill="none" fill-rule="evenodd"><path d="M354 383.33V280.41h-3v-24.74l34-12.58v-12.34l30.67-10.15v116.07l18.67 7.67-.34-151.49c0 2.72 43-29.46 91 0l.33 54.15 37.33-11.9L595 248.33v38l7-2 26.33 14.33V325l14.67 7v64.33s115.33 5 148.33-9V423h-312L354 383.33z" fill="#ED3333" fill-rule="nonzero"/><path d="M438 403l-1.25-208s15-11 18.5-7.5v218.75L438 403z" fill="#FFF" fill-rule="nonzero"/><path d="M458.5 406.25V185s6.75-2.75 8.25 0v223.25l-8.25-2z" fill="#FFF" fill-rule="nonzero" opacity=".6"/><path fill="#FFF" fill-rule="nonzero" opacity=".3" d="M473.75 408.25V183.78h3V412.5"/><path fill="#FFF" fill-rule="nonzero" opacity=".15" d="M521 195.5h1.5l1.25 222.25h-1.37M482 183.78h1.5v198.47H482z"/><path fill="#FFF" fill-rule="nonzero" opacity=".5" d="M525.25 251.5l7.25-1.75v10l-7.25 2.5m32.25-21v11.5l-9.5 2V244.5m-3 1V256l-9.25 2.75V248"/><path d="M532.5 305.25c-2.45.4-4.87.96-7.25 1.67v12c2.43-1 4.86-2 7.25-2.88v-10.79zm0 24.92v-10.42l-7.25 1.13v10.37" fill="#FFF" fill-rule="nonzero" opacity=".39"/><path fill="#ED3333" fill-rule="nonzero" d="M525.25 334.83v10.92l7.25-1.25v-11.25"/><path d="M532.5 291.41c-2.44.507-4.857 1.02-7.25 1.54v11.63c2.37-.81 4.8-1.56 7.25-2.26v-10.91zm0-3.66V277l-7.25 1.75v11.18c2.413-.667 4.83-1.383 7.25-2.15v-.03zm13.33 73.75l-10.5.45v9.93l10.5-.13m-10.5 32.44v10.64l10.5 2.92v-13.56c-3.5.25-7-.19-10.5 0zm10.5-15.06s-7-.51-10.5.38v11.2l10.5-1v-10.58zm0-43.38l-10.5.92v11.21l10.5-1.08m-20.58 47.27v9.76l7.25 3.92v-13.62m0-13.63l-7.25.54v9.67h7.25m-7.25-24.88h7.25v11.29h-7.25z" fill="#FFF" fill-rule="nonzero" opacity=".39"/><path fill="#FFF" fill-rule="nonzero" d="M549 383l33.83 6.83v-2H585v2l5.67 1.17v-4h2.5v4H597v-4h2v4h1.5V285.67l-50.67 12.47m14-59.81V293l29.67-7.33v-35.92"/><path d="M791.33 423L793 314l18.67-14 48 21.67v-83.34s.09-4.52 15.42-2.86l.62-22.7 38.62-15.45 50.33 18v46L998.38 244l6.18 3.39.06-41.68 22.38-9.46.16-39.44 10.17-5.81v-24.67l23.67-11.66 4.33 2.67v104.33l4.33-1.33V183l53-19v-18.67l47.34-14.66V307l4.33 2v-5h4.33v7.67l8.67 4V306l4.33-.33v13l4.33 1 1.33-227.33s67-48 137 0V171l57.68-17.33 51 20.67-1.67 251.33-650-2.67z" fill="#ED3333" fill-rule="nonzero"/><path fill="#FFF" fill-rule="nonzero" d="M812.83 386v-83.67l45.67 21 1.17 50.17m1.66-.17L860 237.47a22.152 22.152 0 0 1 10.83-1.47v137.33h-9.5zm12.84 0V235.82l2 1.01v136.5m8 0l-.33-134s-1.5-1.7-6.17-3.51v-21.15L912.5 200v166.5l-28.33 6.83zm48.33 0c-.79-11.73 3.95-19.92 13-15.5-7.28-.67-10.08 4.57-9.33 14.5l16.33-5.17c.23-13.6 7.83-23 15.33-16.33-9.3-2.89-11.68 4.41-11.83 15l17.67-4.67c-1.19-13.95 4.52-22.47 14.83-17-6.15-2.8-13.81 1.33-11.17 16l16.67-4.5c0-14.52 3.13-23.32 13.17-19.33-7.92-.38-11.5 5-9.5 17.83l16.5-4.5c.72-20.06 6.21-25.33 15.33-19.33-9.5-3.74-12.68 4-12 18.67l15-2.33v-25.34l19 8.33V145l-22.33 12.67.39 40.59-22.56 8.41.14 43.5 4 2.67-1 20.66.63 55-13.27 3.5.83-85.83-37.17 18L962 289l-11.5 4.83-.33 54.33-21.17 7.17v18h3.5zm133-148.66l9.5-2.67v123.33l-9.5 1.67m136.25-16.25l-.25-238s15-13 26-13.25v251.25h-25.75zm31.75-1.75l-1.75-249.5s5-5 14-3.5v253h-12.25zm25-4.75v-53h-2.25l-.75-197h6l.67 196.83-1.93.17 1.26 54m6.75-251h3.75v195h-3.75zm61 17.75l2.5 2.75v222.5h-2.5"/><path fill="#FFF" fill-rule="nonzero" opacity=".5" d="M1351 172.39v17.16l14-4.34V167.7m20-6.7l-15 5v17.63l15-4.66m-50.75-.97v16.75l12.75-4v-17.02m-.25 43.02l-12.5 3.25v16.63l12.5-2.49m0 4.48l-12.5 2.13v16.88l12.5-1.75m0 3.09l-12.5 2.45v16.83l12.5-2.25m0 5.63l-12.5 2.11v16.08c4-.57 8.33-.85 12.5-1.91v-16.28zm-12.5 21.75v13.87h12.5V302"/><path fill="#FFF" fill-rule="nonzero" d="M1393 158.75l45.25 16.75v55.25l-45.25 10"/><path fill="#FFF" fill-rule="nonzero" opacity=".5" d="M1373 249.5l-1.5 63.25h2.75V299l2.5-1.75v15.69l6.75-.19v-17h2.75v17.19l8.75-1.44v-19l2.5.5v19.11l7.25-1.11v-20.25l2 .25v20.89l7.5-.64v-21.5l1.38-.25v22.32l8.37-.32v-24h2.25V310l9.5-.5V234"/><path d="M-10 219.5c241 145.72 540.6 259.58 950.08 153.08 106.49-36 445.48-66 493.92-60l67.05 193.49H-61.87L-10 219.5z" fill="#ED3333" fill-rule="nonzero"/><path d="M354.5 257.69v4.19" stroke="#FFF" stroke-width="3" fill="#FFF" fill-rule="nonzero"/><path d="M362.75 255v4.78m8.25-7.15v4.93m7.5-2.56v-4.94M388 252v-4.75m0-15.56v4.81m8.13-3.12v-4.07m16.37-.93v-3.25m-8.62 17v5.12m8.62-7.81v5.25m-8.62 13v5.06m8.62-6.75v4.78m-33.5 4.35v5m-8.62 2.37v-5.37m-7.63 7.5v-4.82m-8.25 6.57v-4.16m58 0v5.41m-8.62 1.62v-5.87m-8.25 1.54V281m-7.63-3.37v5.62m-9.5-2.81v5.19m-8.12-4v6.78m17.62 3.96v5.77m7.63-2.89v-4.81m8.25-1.27V294m8.62-1.63v-4.87m0 15.75v5.25m-8.62 1v-4.75m8.62 14.31v5.69m-8.62.63v-5m-8.25 1.25v5.62m-7.63-4.37v6m-9-4.13v5.13m0 9.75v5.75m9-7.25v6.37m7.63-7.62v6.87m8.25-7.5v6.25m8.62-6.87v5.05M379 354.75v5.5m9-6.25v5.25m7.63-5.25v5.25m8.25-7.62v5.87m8.62-6.5v6.5m0 7v5.75m-8.62-5.25v5.88m-8.25-5.38v6.75m-7.63-6v6.5m-9-5.37v4.87m33.5 8.38v5.75m-8.62-5.75v6.5m-8.25-6.5v6.5m-7.63-5.5v5.5" stroke="#FFF" stroke-width="3"/><path d="M421.5 223.25v6.06" stroke="#FF0008" stroke-width="2" fill="#FF0008" fill-rule="nonzero"/><path d="M421.5 239.44v5.25m8.5-2.63V248m-8.5 7.09v6.41m8.5 11.88v5.87m-8.5 7.5v6.1m0 10.4v5.25m0 10.4v6.6m8.5-5.12v5.5m747.5-191.3v10.55m-.29 14.5v8.91m12.79-5.25v8.96m-12.54 12.13v8.58m12.62 17.58v9.63m-12.83 11.62v9.09m0 15.5V265m0 15.29v9.63" stroke="#FF0008" stroke-width="2"/><path d="M1189.88 282.58v8.59" stroke="#ED3333" fill="#ED3333" fill-rule="nonzero" opacity=".78"/><path d="M920.75 335.75v-9.25" stroke="#F69494" stroke-width="3" fill="#F69494" fill-rule="nonzero" opacity=".33"/><path d="M930.17 327.33v9.5m9.33-7.16V338m-18.75-30.83V317m9.42-8v9m9.33-7.5v9.67M920.75 288v9.33m9.42-7.66v9.16m9.33-7.16v8.83m-18.75 26v9.25m0 10.08v10m0-90v10.34m9.42-7.5v9.16m9.33-7.83v9.5m9.17-6.25v8.08m-27.92-33.83v8.17m9.42-7.34v10.84m9.33-7.59v9.25m9.17-7.08v8.58m9.16-6.12V265m0-27.17v9.67m-9.16-11.68v8.01m-9.17-11.5V242m-9.33-12v9.83m-9.42-13v8.99m37.08-16.65v9m-9.16-3.17v-9m-9.17 6v-8.5m-9.33 5.67v-8.67m-9.42 6.5v-9.67" stroke="#F69494" stroke-width="3"/><path d="M917.5 220.5l42.67 13.33m-42 7l41.66 10.75m-42.16 7.59L957.83 270m-40.33 9.5l38.33 8.5m-38.5 13.33l30.5 5.84m10-31.84v8.42m-10.33 8.92v9.66m0 9.75v8.09m0 10.16V340m0 4.17l-30-4.17m30-13.5l-30.17-5.5" stroke="#F69494" stroke-width="2"/><path d="M1163.17 134.58v9.59m0 15.46v8.91m0 15.84v8.58m0 15.37v10m-12.5-7.79v9.63m0-23.5V187m0-14.75v-9.92m-12.5-18.16V152m-12.34-3.92V156m0 15.75v7.75m-13.33-3.87v8.75m-12.33-4.88v7.5m-12-2.62v7.45m-12.5-4.83v8.67m0 13.5v8.16m12.5-12.2V214m12-11.64v7.2m12.33-10.89V207m25.67 8.35v7.48m-12.34-5.5v9.17m-13.33-5.5v8.83m-12.33-4.41v8.08m63-1.71v9.09m-12.5-6.71v9.33m-12.5-6.17v8m-12.34-5.5v8.5m37.34 8.05V266m-12.5-8.17v9.84m12.5 13.33v8.92m-12.5-7.92v9.17m-12.5-6.67v9m-12.34-6.92v8.59m-13.33-5.25v7.75m0 14.83v8.33m13.33-1.5v-9.5m12.34 6.84V308m12.5 7.83v-9.16m12.5 7.91V305m-50.67 32.67v-3m13.33 1.5v-2.84m12.34 1.42v-3.08m12.5 1.54v-2.46m12.5 1.23V329" stroke="#F69494" stroke-width="3"/><path d="M1376.33 251.83v27" stroke="#ED3333" stroke-width="2" fill="#ED3333" fill-rule="nonzero" opacity=".78"/><path d="M1385.33 250.83v26.34m10.67-2.67v-26.17m9.83-2.16v27.3m9.8-28.97v27.17m9.37-30.92v28.5" stroke="#ED3333" stroke-width="2"/><path d="M1047.17 152v13m-4.92 2.29v-13.66m-5.37 2.37v12.54m-5.13-10.04v12.38m0 9.75v12.33m5.13-14.21v12.58m5.37-15.08v12.42m4.92-13.79v13.22m-36.79 22.44v12.29m5.25-14.5v13.59m5.5-15.96v13.13m5.12-14.59v12.19m5.5-1.56v-12.3m5.13-2.33v12.83m5.37-1.58v-13.08m4.92 11.92v-13.92m-36.79 35.91v12.3m5.25-14.5v13.58m5.5-15.96v13.14m5.12-14.6v12.19m5.5-1.56v-12.29m5.13-2.34v12.84m5.37-1.59v-13.08m4.92 11.93v-13.93m-31.54 33.71V266m5.5-15.96v13.14m5.12-14.6v12.19m5.5-1.56v-12.29m5.13-2.34v12.84m5.37-1.59v-13.08m4.92 11.93v-13.93m-31.54 34.67V289m5.5-15.96v13.14m5.12-14.6v12.19m5.5-1.56v-12.29m5.13-2.34v12.84m5.37-1.59v-13.08m4.92 11.93v-13.93m-31.54 33.67V311m5.5-15.96v13.14m5.12-14.6v12.19m5.5-1.56v-12.29m5.13-2.34v12.84m5.37-1.59v-13.08m4.92 11.93v-13.93m-31.54 33.87V327m5.5-9.75v7.37m5.12-8.83v7.52m5.5-1.42v-7.77m5.13-2.33v12.83m5.37-1.58v-13.08" stroke="#ED3333" stroke-linecap="round"/><path d="M936.17 372.33c-4.85-10.32 12.4-25.83 12.4-3.92l-12.4 3.92zm19.83-6.5c-3.56-15 14.56-25.27 16-4.22l-16 4.22zm21.33-5.66c-6.46-13.92 13.29-28.08 16-4.33l-16 4.33zm20.34-6c-6.54-13.17 12.58-31.17 15.11-4.17l-15.11 4.17zm19.83-5.17c-6.87-18.67 18.14-32.87 15-2.33l-15 2.33z" fill="#FFD2DA" fill-rule="nonzero"/><path fill="#FFD2DA" fill-rule="nonzero" opacity=".5" d="M1397.17 163.67V182l17 5v-17.17m-17 17.17v16l17 5.67v-17.84m2.83-18.5v15.84l17.5 5.16v-15.5"/><path d="M796.25 354.38h4.13v-12.3s-1-3.08-4.12.54l-.01 11.76zm7.13 1.45l4.5.67v-14.42s-.87-5.67-4.5 0v13.75z" fill="#FFF" fill-rule="nonzero"/><path d="M1047.17 152v13" stroke="#ED3333" stroke-linecap="round"/><path d="M116.67 119.33l72 25.34v200c-25.776-20.623-46.776-36.18-63-46.67-16.224-10.49-35.78-21.157-58.67-32l-4.33-126.67 54-20z" stroke="#ED3333" stroke-width="2" fill="#FFF" fill-rule="nonzero"/><path fill="#ED3333" fill-rule="nonzero" d="M116 294.67V119.33l72.67 25.34v208H116"/><path fill="#FF8D9C" fill-rule="nonzero" d="M104.5 146.88l-4.25 2v-15.13l4.25-1.62m-12.87 20l-4.25 2V139l4.25-1.62m-12.88 19.75l-4.25 2V144l4.25-1.62m25.75 32.31l-4.25 2v-15.13l4.25-1.62m-12.87 19.19l-4.25 2V166l4.25-1.62m-12.88 19.75l-4.25 2V171l4.25-1.62m25.75 32.5l-4.25 2v-15.13l4.25-1.62m-12.87 19l-4.25 2V193l4.25-1.62m-12.88 18.87l-4.25 2v-15.12l4.25-1.63m25.75 34.38l-4.25 2v-15.13l4.25-1.62m-12.87 19l-4.25 2V221l4.25-1.62m-12.88 17.75l-4.25 2V224l4.25-1.62m25.75 37.5l-4.25 2v-15.13l4.25-1.62m-12.87 18l-4.25 2V250l4.25-1.62m-12.88 17.87l-4.25 2v-15.12l4.25-1.63m50.34-103.98l-4.09-1.27V130.5l4.36 1.42m13.45 4.37l-4.92-1.6v15.55l5 1.54h.14v-15.43m20.8 21.93l.17.05v-15.15h-.05m.05 0v15.15l5 1.55v-15.07m0 0v15.07l.19.06m7.87-12.51H177v14.94l4.45 1.38v-14.87m-25.7-8.38l-4.61-1.5H151v15.3l4.93 1.53h.07v-15.25m-17.81-5.79l.98.32M125 158.33v15.84l5 1.46v-15.81m8 2.38V178l5 1.46v-15.77m8 2.38v15.68l5 1.46v-15.65m26.08 7.77l-5.08-1.51v15.53l5.08 1.48M164 169.95v15.61l5 1.46v-15.58m751.45 35.43v11l3.47 1v-11m5.55 1.69v10.94l3.47 1v-10.91m5.55 1.66v10.88l3.47 1v-10.85m18.11 5.39l-3.53-1.05v10.78l3.53 1m-12.55-14.47v10.83l3.47 1V216m-31.54 9.87v11l3.47 1v-11m5.55 1.69v10.94l3.47 1v-10.91m5.55 1.66v10.88l3.47 1v-10.85m18.11 5.39l-3.53-1.05v10.78l3.53 1m-12.55-14.47v10.83l3.47 1V235m-30.54 9.87v11l3.47 1v-11m5.55 1.69v10.94l3.47 1v-10.91m5.55 1.66v10.88l3.47 1v-10.85m18.11 5.39l-3.53-1.05v10.78l3.53 1m-12.55-14.47v10.83l3.47 1V254m-30.54 9.87v11l3.47 1v-11m5.55 1.69v10.94l3.47 1v-10.91m5.55 1.66v10.88l3.47 1v-10.85m18.11 4.39l-3.53-1.05v10.78l3.53 1m-12.55-14.47v10.83l3.47 1V272m-30.54 13.87v11l3.47 1v-11m5.55.69v10.94l3.47 1v-10.91m5.55 1.66v10.88l3.47 1v-10.85m5.56.65v10.83l3.47 1V293m-30.54 12.87v11l3.47 1v-11m5.55.69v10.94l3.47 1v-10.91m5.55.66v10.88l3.47 1v-10.85m5.56.65v10.83l3.47 1V312m-30.54 12.87v11l3.47 1v-11m5.55.69v10.94l3.47 1v-10.91m-12.49 17.28v11l3.47 1v-11m5.55.69v10.94l3.47-3.16v-7.78m5.55-19.31v10.88l3.47 1v-10.85m5.56.65v10.83l3.47 1V330M138 189.16v16l5 1.26v-15.88m8 2.22v15.67l5 1.26v-15.54m8 2.21v15.35l5 1.26v-15.22m13.08 3.63L177 200v15l4.5 1.13M125 185.55v16.32l5 1.26v-16.2m-5 57.32v16.5l4 .82v-16.43m9 2.01v16.27l4 .82V248m24.5 5.5l-2.5-.56v15.8l2.5.51M151 250v16l4 .82v-16m-30 22.31v14.63l4 .83v-14.72m8 1.5v14.88l5 1v-15m24.5 4.63l-2.5-.47v15.45l2.5.52M151 278v15.17l4 .83v-15.27"/><path d="M108.5 151.53l-39.33 14.54" stroke="#FF8D9C" stroke-width="2" stroke-linecap="round"/><path fill="#FF8D9C" fill-rule="nonzero" d="M905.56 217.51l-2.94 1.29v-9.75l2.94-1.05m-8.91 12.89l-2.94 1.29v-9.75l2.94-1.05m-8.92 12.74l-2.94 1.29v-9.76l2.94-1.04m17.83 22.4l-2.94 1.29v-9.75l2.94-1.05m-8.91 12.89l-2.94 1.29v-9.75l2.94-1.05m-8.92 12.74l-2.94 1.29v-9.76l2.94-1.04"/><path d="M908.33 220.51l-27.23 9.38" stroke="#FF8D9C" stroke-width="2" stroke-linecap="round"/><path fill="#FF8D9C" fill-rule="nonzero" d="M905.56 256.01l-2.94 1.29v-9.75l2.94-1.05m-8.91 12.89l-2.94 1.29v-9.75l2.94-1.05m-8.92 11.74l-2.94 1.29v-9.76l2.94-1.04m17.83 22.9l-2.94 1.29v-9.75l2.94-1.05m-8.91 12.89l-2.94 1.29v-9.75l2.94-1.05m-8.92 11.74l-2.94 1.29v-9.76l2.94-1.04m17.83 24.9l-2.94 1.29v-9.75l2.94-1.05m-8.91 12.89l-2.94 1.29v-9.75l2.94-1.05m-8.92 11.74l-2.94 1.29v-9.76l2.94-1.04m17.83 23.9l-2.94 1.29v-9.75l2.94-1.05m-8.91 10.89l-2.94 1.29v-9.75l2.94-1.05m-8.92 11.74l-2.94 1.29v-9.76l2.94-1.04m17.83 24.9l-2.94 1.29v-9.75l2.94-1.05m-8.91 10.89l-2.94 1.29v-9.75l2.94-1.05m-8.92 11.74l-2.94 1.29v-9.76l2.94-1.04m17.83 24.9l-2.94 1.29v-9.75l2.94-1.05m-8.91 10.89l-2.94 1.29v-9.75l2.94-1.05m-8.92 11.74l-2.94 1.29v-9.76l2.94-1.04"/><path d="M908.33 240.51l-22.72 7.21m-776.53-68.3l-33 11.41M109 207.17l-32.37 9.66m32.29 18.09l-31.67 8.25M108.92 266l-25.17 5.08m36.67-5.95l45.5 8.74M177 247.15l-56-12.32m-.25-28.42l59.42 14.51m4.41-24.56l-63.25-17.14m.34-28.05l63.41 18.78" stroke="#FF8D9C" stroke-width="2" stroke-linecap="round"/><path fill="#FF8D9C" fill-rule="nonzero" d="M125 214.08v15.83l5 1.18v-15.75m8 2V233l5 1.18V218.6m8 2V236l5 1.18v-15.32m25.17 6.31l-4.17-1v15.06l3.83.9M164 223.86v15.25l5 1.18v-15.17"/><path d="M908.33 260.68l-22.72 6.15m22.72 12.85l-22.07 5.49m22.07 16.16l-22.72 5.17m22.72 14.41l-22.07 3.92m22.07 15.08L886.26 343m22.07 17l-20.6 2m29.35-21.92l31.17 4.09m0-18.67L917 320.58m-.17-19.9l30.59 5.82m-30.17-26.98l38.67 8.04m2.5-18.31l-40.75-9.74m43.66-6.93l-43.66-12.07m.08-20l43.08 13.42" stroke="#FF8D9C" stroke-width="2" stroke-linecap="round"/><path d="M73 277.44v-98.817c-2.542-3.324-6.046-5.418-9.83-5.873v104.69H73zm-21-14.183v-97.95s3.283-1.3 9.83 1.457V269.69M169 316.5v-61.22l14.25-8.13v-34.18l53.5-26.84 10.5 5.25V130.5l32-12.5V59l14-7.75v-34.5L323.75.5l24.75 10.72 2.07 386.94" fill-rule="nonzero" fill="#ED3333"/><path d="M169 313.5v-58.22l15-8.13V213l52-25.18V310.5l19.75-6.25v-15.67H254l-.5-10.6h2.25v-19.51l-2.25-1.72v-9.6h2.25v-19.4l-1.75-.63v-11h1.75v-18.33l-6.75-6.41-.19-59.7 31.94-12.8V59.5L311 44.25l2.5 263.25-25-13.5h-1.25l.25 37-23 3.75c-1.24-17 1.72-27.83 11.25-29-7.21-3.6-12 2.95-15.5 14.5-1.74 9.82-1.48 14.8-1.48 14.8l-23.14 5.63c-2.08-15 1.93-23.74 12.62-25.68-4.45-1.37-11.47 1.11-13.75 6-2.54 5.84-4.4 12.76-3.49 19.68l-8.27-4.68-12.93-5.42a8 8 0 0 1 7.23-5.87c-3.34-1.78-6.92.12-10.67 4.39L169 313.5z" fill="#FFF" fill-rule="nonzero"/><path d="M294.41 49.18l18.09-9.85 35.69 16.36v-2.94s-15.1-9-24.44-51.12l-29.31 16.13-.03 31.42z" fill="#FFF" fill-rule="nonzero"/><path d="M307 52.25V71.5" stroke="#FF8D9C" stroke-width="2" fill="#FF8D9C" fill-rule="nonzero" stroke-linecap="round"/><path d="M299.75 55.83v18.42M291.88 59v17.63m-7.25-14.75v17.25M307 85v18.5m-7.25-16.12v19m-7.87-15.5v17.87m-7.25-15.12v17.75M307 117.5V136m-7.25-16.12v18.37m-7.87-15.62v18.62M284.63 125v18.88m-8.38-14.82v16.82m-7-14.88v17.5m-8-14.87v17.62m-6.87 2.25V136M307 149.88V168m-7.25-16v18.38m-7.87-15.63v18m-7.25-15.37v17.12m-7.75-14.87v18m-7.63-15.5v17.62m-8-15.12v17.87m-6.87-15.75V184m52.62-2.25v19.13M300.38 185v17.75m-8.5 2.25v-18.19m-7.25 1.69v18.63m-7.75-15.82V209m-7.63-15.87v18m-8-15.22v17.59m45.75.75v19.13m-6.62-16.88v18.88m-8.5 1.12v-18.19m-7.25 1.69v18.63m-7.75-15.82v17.69m-7.63-15.87v18m-8-15.22V245m45.75 1v19.13m-6.62-16.88v18.88m-8.5 1.12v-18.19m-7.25 1.69v18.63m-7.75-15.82v17.69m-7.63-15.87v18m-8-15.22v17.59m45.75 3v19.13M300.38 281v18.88m-8.5-4.36v-12.71m-7.25 1.18v10.14m-7.76-8.82v12.74m-7.62-11.43v12.96m-8-10.96v12.67M317 52.25v17.63m6.88-14.05v17.3M331.94 59v17.13m7-14.25v17.25m8.12-13v16.68M317 85.31v17.63m6.88-14.88v17.88m8.06-15.06v18.31m7-14.69v16.06m7.12-12.37V114m0 15.06v17m-7.12-3.12V126m-7-2.75v17.5m-8.06-20.87v18.06M317 117.06v18m0 15v17.63m6.88-15.31v17m8.06-13.94v16m7-13.81v16.31m7.12-13.63v17.07m.88 14.37v15.94m-8-18.63v17.13m-7-19.38v16.88M323.88 185v16.75m-6.88-19.5v17.47m29.94 23.53v16.19m-6.88-18v15.75m-7.18-18.56v16.75m-8-18.88v17.25M317 215.13v16.56m.88 15.56v17.5m7-16.5v18.63m8-16.07v16.88m7.18-15.06v16.31m.57 15.05v16.76m-7.75-17.5v17.5M325.25 281v17.31m-7.37-18.56v17.31m22.75 19.44v5.13m-6.88-6.63v.75m219-15.25v16.75m6.13-17.75v17.75m6.75-2.25v-17.01m6.37-1.98V314m6.67-1.93v-17.19m6.21-1.88v18m6.87-1.5v-18.09m6.13-.66v17.63m0 13.56v18.75m-6.13 1.19v-18.5m-6.87 1v18.5m-6.75-17.38v18.44M572 326.63v18.5m-6.37-17.32v17.94m-7.38-16.5V348m-5.87-17.62v17.25m45.5 6.62v19.81m-6.13 1.19v-19.37m-7.37.43v19.44m-6.25-18.62v18.62m-6.63-17.87v18.81m-5.87.87v-18.37m-7.38.69V378m-6.19-17.5v18.38m52.38-89.19v18.19m5-15.57v18.13m5.94 2.69v-17.12m4.81 1.55v17.63m5.25-15v17.5m-21 4.25v19.25m5-17.31v18.62m5.62-16.19v18m5.13 1.32v-17.5m5.25 1.62v17.81m4.75-16v17.5m5.87-14.75v16.13m5.07-14V352m-37.19 3.13v19.18m5.06.94v-18.94m6.06 1.13v18.31m4.82-16.94v18.32m5-17.25v18m5.31-16.5v17.25m5.37-15.88v17.13m5.25-15.16v15.72m-36.87 7.87V407m4.75-18.31v19.37m5.81-19.37v18.94m4.75-18.07v18.82m5.19-17.82v18.38m5.06-17.31v17.75m6.06-16.94V410" stroke="#FF8D9C" stroke-width="2" stroke-linecap="round"/><path fill="#FFF0F3" fill-rule="nonzero" d="M205 208.51v12.37l5-2.21v-12.51m12-5.63v12.83l4-1.77v-12.94m5.83-2.74l-3.83 1.8v13l3.83-1.7M211 205.69v12.53l5-2.21v-12.67m-22 10.34v12.08l4-1.77V211.8m-10 4.7v11.92l4-1.77v-12m-4 17.01v12.18l4-1.65v-12.35m2-.91c.167 4.087.27 8.183.31 12.29l3.68-1.52v-12.57l-3.99 1.8zm11-4.93v12.87l5-2.06v-13.12m5-2.26l-4 1.81v13.11l4-1.65m11.25-18.37l-4.25 1.94c0 4.547-.037 9.08-.11 13.6l4.37-1.8c.02-4.58.017-9.16-.01-13.74zm5.58-2.53l-4.22 1.91c-.04 4.6-.067 9.207-.08 13.82l4.3-1.78V211.8zM192 249.93l-4 1.66v11.49l4-1.56m-19.83-3.35v11.08l3.83-1.49v-11.19m7-2.9l-4 1.65c.13 3.75.17 7.48.16 11.2L183 265v-11.33zm11.37-4.73c0 3.893-.03 7.79-.09 11.69l3.72-1.45v-11.75l-3.63 1.51zm10.63-4.42v11.93l5-1.95v-12.05m1-.45v12.09l4-1.56v-12.16m6.75-2.8c-.067 4.153-.143 8.303-.23 12.45l4.34-1.69c.107-4.193.197-8.387.27-12.58l-4.38 1.82z"/><path d="M225.86 248.33l1.64-.64v-12.52l-1.38.57m5.71-2.36l-4.33 1.8v12.52l4.33-1.69v-12.63zm-59.66 39.45v12.08l3.83-1.45v-12.1m7-2.66l-3.82 1.46c0 4.08-.14 8.14-.25 12.2l4.07-1.54V268.7zm9-3.44l-4 1.53v12.13l4-1.51m2.23-13c-.067 4.08-.137 8.157-.21 12.23l4-1.51V263l-3.79 1.41zM205 260.3v12.19l5-1.89v-12.2m1-.4v12.21l4-1.51v-12.21m6.44-2.49c-.093 4.113-.193 8.23-.3 12.35l4.22-1.6c.14-4.133.27-8.267.39-12.4l-4.31 1.65zm10.39-3.94l-4.34 1.65v12.26l4.35-1.65-.01-12.26zm-59.66 41.27v12l3.83-1.26V290m7-2.54l-4.27 1.54c-.12 4.1-.25 8.2-.33 12.3l4.6-1.51v-12.33zm9-3.21l-4 1.43v12.46l4-1.31m1.91-13.26c-.06 4.233-.097 8.457-.11 12.67l4.21-1.38V282.1l-4.1 1.47zm17.09-6.11v13.12l4-1.31V276m15.83-5.62l-3.38 1.21c0 4.553-.037 9.1-.11 13.64l3.74-1.23-.25-13.62zm-9.89 3.53c-.127 4.507-.257 9.02-.39 13.54l4.06-1.33c.16-4.567.323-9.13.49-13.69l-4.16 1.48zM205 279.6v13l5-1.64v-13.1" fill="#FFF0F3" fill-rule="nonzero"/><path fill="#FFF0F3" fill-rule="nonzero" opacity=".3" d="M172.17 306.42v6.67l3.83 3.28V305.2"/><path d="M183 303l-4.65 1.47c-.06 4-.08 8 0 12.08l4.66-1.35L183 303zm9-2.87l-4 1.27v12.35l4-1.16m1.79-13.03c0 4.167.06 8.317.18 12.45l4-1.16v-12.62l-4.18 1.33zm17.21-5.45v13l4-1.16v-13.1m5.45-1.73l-.4 13.36 4-1.16c.133-4.493.277-8.987.43-13.48l-4.03 1.28zm10.63-3.37l-3.78 1.2c-.06 4.513-.147 9.017-.26 13.51l4-1.17.04-13.54zM205 296v12.82l5-1.45v-13" fill="#FFF0F3" fill-rule="nonzero"/><path fill="#FF8D9C" fill-rule="nonzero" d="M956.27 325.92l-2.5.89v7.78l2.5-.82m1.19-8.28c-.04 2.667-.063 5.303-.07 7.91l2.63-.86v-8l-2.56.95zm32.81-8.57l-2.5.89v7.78l2.5-.82m1.19-8.28c-.04 2.667-.063 5.303-.07 7.91l2.63-.86v-8l-2.56.95zm-1.19 10.43l-2.5.89v7.78l2.5-.82m1.19-8.28c-.04 2.667-.063 5.303-.07 7.91l2.63-.86v-8l-2.56.95zm-23.33-4.81v8.2l2.5-.82v-8.27m11.89-2.54l-2.11.75c0 2.847-.023 5.687-.07 8.52l2.33-.77-.15-8.5zm-6.18 2.21l-.24 8.46 3.16-.81-.14-8.48-2.78.83zM964.39 323v8.09l3.12-1v-8.19m-11.24-5.98l-2.5.89v7.78l2.5-.82m1.19-8.28c-.04 2.667-.063 5.303-.07 7.91l2.63-.86v-8l-2.56.95zm10.67-3.81v8.2l2.5-.82v-8.27m-6.24 2.21v8.09l3.12-1v-8.19m12.62-4.22v8.2l2.5-.82v-8.27m-6.24 2.21v8.09l3.12-1v-8.19m-23.24 27.94l-2.5.79v7.71l2.5-.72m1.12-8.13c0 2.6.04 5.193.12 7.78l2.51-.73v-7.89l-2.63.84zm10.74-3.41v8.11l2.5-.72v-8.18m5.37-1.08c-.08 2.773-.163 5.557-.25 8.35l2.5-.72c.08-2.807.17-5.613.27-8.42l-2.52.79zm6.68-2.1l-2.36.75c-.04 2.82-.093 5.633-.16 8.44l2.52-.73v-8.46zm-18.29 5.16v8l3.12-.9v-8.09m-11.24-28.44l-2.5.79v7.71l2.5-.72m1.12-8.13c0 2.6.04 5.193.12 7.78l2.51-.73v-7.89l-2.63.84zm21.88-18.65l-2.5.79v7.71l2.5-.72m1.12-8.13c0 2.6.04 5.193.12 7.78l2.51-.73v-7.89l-2.63.84zm9.88-3.65l-2.5.79v7.71l2.5-.72m1.12-8.13c0 2.6.04 5.193.12 7.78l2.51-.73v-7.89l-2.63.84zm-12.12-9.65l-2.5.79v7.71l2.5-.72m1.12-8.13c0 2.6.04 5.193.12 7.78l2.51-.73v-7.89l-2.63.84zm9.88-3.65l-2.5.79v7.71l2.5-.72m1.12-8.13c0 2.6.04 5.193.12 7.78l2.51-.73v-7.89l-2.63.84zm-12.12-7.65l-2.5.79v7.71l2.5-.72m1.12-8.13c0 2.6.04 5.193.12 7.78l2.51-.73v-7.89l-2.63.84zm-13.12 16.35l-2.5.79v7.71l2.5-.72m1.12-8.13c0 2.6.04 5.193.12 7.78l2.51-.73v-7.89l-2.63.84zm-1.12-9.65l-2.5.79v7.71l2.5-.72m1.12-8.13c0 2.6.04 5.193.12 7.78l2.51-.73v-7.89l-2.63.84zm21.88-9.65l-2.5.79v7.71l2.5-.72m1.12-8.13c0 2.6.04 5.193.12 7.78l2.51-.73v-7.89l-2.63.84zm-23 35c0 2.6.04 5.193.12 7.78l2.51-.73v-7.89l-2.63.84zm-12.12 4.35l-2.5.79v7.71l2.5-.72m1.12-8.13c0 2.6.04 5.193.12 7.78l2.51-.73v-7.89l-2.63.84zm7-3c0 2.6.04 5.193.12 7.78l2.51-.73v-7.89l-2.63.84zm24.88 16.35l-2.5.79v7.71l2.5-.72m1.12-8.13c0 2.6.04 5.193.12 7.78l2.51-.73v-7.89l-2.63.84zm-22.26-6.41v8.11l2.5-.72v-8.18m-6.24 1.98v8l3.12-.9v-8.09m11.76-3.44l-2.5.79v7.71l2.5-.72m1.12-8.13c0 2.6.04 5.193.12 7.78l2.51-.73v-7.89l-2.63.84zm10.74-3.41v8.11l2.5-.72v-8.18m-6.24 1.98v8l3.12-.9v-8.09"/><path d="M235.67 341c-6-23.17 20.17-43.17 19.67-4.83L235.67 341zm29.16-6c-7.33-26.17 17.83-48.38 19.79-3.53L264.83 335zM210 330.68c-1.42 0 8.83-16.93 12.27 5.14L210 330.68z" fill="#FFD2DA" fill-rule="nonzero"/><path fill="#FF97A4" fill-rule="nonzero" opacity=".5" d="M565.63 242.17v11.5L577 257v-11.17m2.83 1.5v11l11 4.17v-11.17M566.5 257v10.83l10.5 3.67v-11"/><path d="M438 383.67c30.5-1.69 59.85-2.09 87 0m-90.72-66.04c33.107-8.933 62.93-8.83 89.47.31m0-58.69c-29.807-11.247-59.613-11.247-89.42 0m767.17 14.46c43.22-4.2 87.26-4.13 127.75 1M1201.6 187c45.487-11.167 88.87-11.167 130.15 0" stroke="#FFF"/></g></svg>