<svg width="25" height="40" xmlns="http://www.w3.org/2000/svg"><script xmlns="" type="text/javascript" charset="utf-8" id="zm-extension"/><path d="M23.054 37.92l1.312-1.94c.27-.4.49-1.118.49-1.598V13.474c-2.335 2.034-5.52 4.32-9.868 6.784C7.172 24.69 2.845 29.308.592 32.398c-.2.274-.384.54-.56.798v1.186c0 .48.222 1.2.49 1.597l1.313 1.94v1.294a.79.79 0 0 0 .788.786h19.643a.79.79 0 0 0 .788-.786V37.92zM9.543 19.247C20.58 11.077 23.428 5.102 24.088 3.245l-1.034-1.293V.786A.79.79 0 0 0 22.266 0H2.623a.79.79 0 0 0-.788.786v1.166L.58 3.522C.28 3.9.032 4.6.032 5.08v19.733c2.398-.936 5.526-2.618 9.51-5.566z" fill="#EF2424"/></svg>