<svg width="180" height="60" xmlns="http://www.w3.org/2000/svg"><script xmlns="" type="text/javascript" charset="utf-8" id="zm-extension"/><path d="M149.66 50.894c-.003 0-.554.492-.554.492-.788.704-1.598 1.458-2.577 1.08-.27-.098-.46-.458-.506-.737-.044-2.015.863-3.883 1.744-5.701l.225-.476c2.532-4.227 5.475-9.207 9.796-12.664.729-.526 1.519-.967 2.353-.623.192.18.415.492.415.803 0 .098-.087.36-.138.442-1.207 1.95-2.356 3.998-3.474 5.964-2.185 3.884-4.451 7.897-7.284 11.42zm-23.417-9.961c-.166.115-3.085-.869-3.65-3.572-.478-2.327 1.124-4.146 2.675-5.063.666-.524 1.668-.704 2.404-.443.682.46.867 1.28.867 2.163 0 .541-.072 1.098-.135 1.606l-.014.115a21.817 21.817 0 0 1-2.147 5.194zM115.09 51.927c-.298-.443-.397-.926-.406-1.45-.058-3.212 3.399-8.965 5.839-12.1h.005c1.023 2.24 3.338 3.678 4.736 4.285-1.736 3.867-7.69 12.148-10.173 9.265h-.001zm42.138.57c-.578.393-1.39.091-1.086-.81.756-2.294 3.762-6.968 3.762-6.968l8.372-14.85h-5.735c-.273.448-.856 1.476-.856 1.476-.265-.442-1.058-1.425-1.385-1.637-1.401-.885-3.457-.467-4.875.336-6.165 3.605-10.664 10.728-14.212 16.282 0 0-3.734 6.175-5.807 6.634-1.619.131-1.452-2.049-1.382-2.557.626-3.67 2.08-7.16 3.544-10.322a79.305 79.305 0 0 0 9.464-7.734c6.703-6.407 12.353-13.665 13.179-15.287 0 0-.894.18-1.95.213-5.156 7.193-15.708 17.647-18.907 19.203 1.417-3.409 10.574-19.679 18.365-27.46l1.227-1.18c1.895-1.852 3.86-3.753 5.39-4.064.162-.017.37 0 .55.377.069 1.442-.468 2.507-1.084 3.72l-.862 1.77s1.222-.23 2.024-.493c.932-1.753 1.963-3.72 1.583-6.062-.127-.754-.673-1.327-1.386-1.458-2.324-.443-4.857 1.277-6.895 2.67l-.083.05c-10.477 8.208-19.325 20.038-27.06 36.194-.561.425-2.727.933-3.096.687.764-1.572 1.726-3.686 2.207-5.98.084-.656.161-1.327.161-1.982 0-1.41-.338-2.737-1.602-3.655-1.48-.737-3.312-.393-4.546.164-5.53 2.294-9.662 7.964-12.644 12.632-1.604 2.967-3.203 6.144-3.646 9.782-.311 2.85.324 4.686 1.944 5.604 1.667.851 3.765-.034 4.589-.46 5.602-2.949 9.516-8.863 12.6-14.27.123-.017 1.808-.066 3.082-.394.017 0 .024 0 .052.017a237.59 237.59 0 0 1-.731 2.212c-1.955 5.734-2.86 9.634-1.013 11.944 2.64 3.261 7.01-.114 10.564-4.571-.763 5.341 2.005 6.177 4.115 5.768 2.424-.655 5.125-3.245 6.379-4.571-.403 1.556-.293 4.342 1.912 4.62 1.511.28 2.642-.543 3.951-1.248 4.695-2.556 10.315-11.074 11.774-13.536h-1.913c-2.074 3.134-4.714 7.244-8.034 9.195zM84.904 20.69h5.373l3.033-4.925h-5.374l-3.032 4.925zm85.828-13.084c-4.097 2.327-8.343 3.834-13.485 3.31-1.424 1.606-2.811 3.26-4.09 4.964 7.215 1.835 14.865-2.245 19.13-6.127 4.514-3.916 6.828-8.848 6.828-8.848s-3.383 3.867-8.383 6.7zM125.553 6.36c-.854 9.798-8.47 15.55-10.355 16.007-1.142.23-3.09-.278-1.351-4.39 2.562-5.539 6.936-10.24 11.628-12.65.115.41.112.672.078 1.033zm-14.84 24.691c-.546-1.18-1.841-1.933-3.222-1.851-4.483.41-8.867 4.096-11.17 9.388-1.208 2.72-1.867 4.965-2.3 8.537 1.394-1.606 4.238-4.243 7.464-5.685 0 0 .44-3.425 2.678-6.472.847-1.262 2.543-3.294 4.446-2.753 1.664.557 1.08 5.161-1.132 9.617-1.635 3.277-4.138 6.555-6.67 8.816-2.24 1.9-5.553 4.194-8.45 2.425-1.826-1.081-2.757-3.343-2.56-6.26.872-8.273 4.638-15.32 10.027-23.347 5.558-7.456 11.684-15.107 19.937-19.188 1.684-.852 3.243-1.048 4.59-.524 0 0-7.747 4.26-11.44 12.141-.94 2-2.246 4.702-.93 7.095.687 1.245 1.908 1.343 2.89 1.278 4.527-1.05 7.452-5.276 9.842-9.143 1.385-2.933 2.616-5.85 2.616-9.094 0-.393-.02-.917-.053-1.31 2.162-1.147 6.597.884 6.597.884 3.465 1.148 10.845 6.8 13.333 7.882 1.214-1.41 3.21-3.54 4.333-4.604l-1.626-1c-2.604-1.59-5.356-3.097-8.065-4.588-6.152-3.358-11.16-2.179-13.709-1.261-1.001.36-1.917.672-1.917.672-1.891-2.065-4.993-1.869-7.279-1.311-8.22 2.36-15.85 8.11-24.032 18.088-6.015 7.816-9.747 14.567-11.735 21.235-1.533 4.49-1.999 11.092 1.743 15.008 3.18 3.325 7.4 2.605 10.378 1.41 6.454-3.18 12.254-10.029 15.145-17.91.697-2.342 1.472-5.652.27-8.175zm-71.54-7.602c-.01.033-1.095 2.523-1.095 2.523-.157.131-.405.066-.69 0l-.487-.082c-1.53-.475-2.684-1.491-3.04-2.703-.49-2.36 1.526-4.211 2.414-4.883.852-.59 2.177-.901 2.946-.295.474.557.654 1.278.654 2.065 0 1.065-.328 2.26-.701 3.375zm-2.33 4.735s-.05.148-.074.196c-.007 0-2.468 4.014-2.468 4.014-1.485 1.983-3.34 4.474-5.657 5.67-.687.23-1.637.377-2.121-.229-1.026-1.23-.497-2.933-.068-4.31l.152-.49c1.232-3.343 3.187-6.293 5.089-9.03a.25.25 0 0 1 .096-.032c.005.016.012.016.016.05 1.193 2.293 3.432 3.357 5.106 3.85.01 0 .02.016.02.049 0 .049-.027.115-.092.262zm30.784-2.638c1.1-1.523 4.304-5.603 5.086-6.291 2.627-2.311 3.677-1.295 3.767-.574a518.26 518.26 0 0 1-8.065 13.943 183.03 183.03 0 0 0-.852 1.294c-1.202 1.835-2.411 3.408-4.385 4.506-.281.082-.745.115-1.054-.115-.372-.246-.518-.656-.476-1.082.118-1.409 1.552-5.717 5.979-11.681zm-27.282-9.962c-3.397-2.228-10.223 2.032-15.69 9.339-5 6.554-7.159 14.172-4.81 17.695 3.496 4.146 9.984-1.884 12.743-5.111l.356-.377c1.877-2.016 3.326-4.44 4.73-6.768 0 0 1.289-2.13 1.35-2.228a30.439 30.439 0 0 0 2.84-.688c-.016.049-4.14 6.98-3.719 10.42.131 1.05.031 4.884 3.774 6.047 4.99.836 8.973-3.031 12.487-6.472 0 0 .6-.573.938-.9-.086.343-.197.801-.197.801-1.461 5.08.508 6.145 1.74 6.539 3.721 1.082 8.168-4.326 8.182-4.326-.115 1.703-.452 3.113 1.343 4.243 1.695.607 3.41-.318 4.714-1.186 4.696-3.31 8.479-8.49 11.534-12.968h-1.949c-.023 0-4.81 6.938-7.918 8.446-.004 0-.57.29-.896.06-.403-.344-.244-1.06.004-1.566.016-.033 12.001-20.82 12.001-20.82h-5.658s-.619 1-.669 1.065c-.038-.032-.129-.204-.192-.287-3.506-4.85-11.445 2.61-17.423 11.26-2.301 3.327-5.231 7.073-8.27 9.776 0 0-4.5 4.126-6.423 1.162-.703-1.246-.487-3.066-.09-4.262 2.239-6.374 6.097-12.158 10.487-15.649 1.24-.966 2.587-1.245 3.255-.835.637.377.74 1.31.337 1.95-1.022-.033-1.842.278-2.508.966-1.311 1.376-1.767 2.703-1.35 3.949 2.026 2.884 6.067-2.818 5.872-6.292-.07-1.245-.734-2.425-1.726-2.999-1.478-.884-3.732-.655-5.191.05-1.953.737-5.045 3.309-6.85 5.308-2.272 2.508-6.168 5.293-7.387 4.98.4-1.065 3.69-7.799.228-10.321zM68.788 52.04c-6.664-4.293-15.709-5.046-30.295-1-15.55 3.655-20.735 5.997-27.544 1.295-2.616-2.31-3.554-6.03-2.853-11.387 1.624-8.733 6.013-17.138 13.81-26.46 4.353-4.85 8.39-9.012 13.72-10.683 4.085-1.049 3.703 2.162 3.209 2.621-.522 0-1.398.082-2.075.524-.55.426-2.058 1.803-2.14 3.654-.116 2.835 2.817 2.245 4.082.689 1.364-1.754 3.38-5.112 1.794-8.242-.665-1.114-1.813-1.884-3.238-2.146-4.881-.28-9.427 2.047-13.623 4.62C14.462 11.899 7.123 20.73 2.97 30.398.576 36.231-1.59 44.586 1.656 51.386c2.511 4.719 7.724 7.225 13.943 6.701 4.362-.458 9.636-1.868 13.184-2.719 3.548-.853 21.706-7.095 27.673 3.77 0 0 1.984-3.852 6.942-3.934 4.077-.376 9.957 1.18 14.24 4.325-1.427-2.146-5.472-5.308-8.847-7.487h-.003z" fill="#F40009"/></svg>