<svg width="40" height="35" xmlns="http://www.w3.org/2000/svg"><script xmlns="" type="text/javascript" charset="utf-8" id="zm-extension"/><g fill="#EF2424"><path d="M36.404.62a.528.528 0 0 0-.527-.527h-7.135a.527.527 0 0 0-.526.527v12.705l8.188-9.607V.62zm-8.188 27.863v5.14c0 .29.236.527.526.527h7.135c.29 0 .527-.236.527-.527V9.13l-8.188 9.608v9.745zM15.468 26.62v7.002c0 .29.235.527.526.527h7.135c.29 0 .525-.237.525-.528V20.728l-3.53-1.033-4.657 6.925zm4.41-10.657l3.777 1.105V8.873a.527.527 0 0 0-.526-.527h-7.136a.527.527 0 0 0-.526.527V20.33l2.463-3.663a1.75 1.75 0 0 1 1.948-.704zM8.733 19.984l2.875 2.775v-7.74a.527.527 0 0 0-.526-.527H3.947a.527.527 0 0 0-.526.527v7.323L6.4 19.89a1.756 1.756 0 0 1 2.333.094zM3.42 26.888v6.735c0 .29.236.527.527.527h7.135c.29 0 .526-.236.526-.527V27.64L7.42 23.596l-4 3.29z"/><path d="M39.517 3.015a.879.879 0 0 0-1.237.098l-13.14 15.42-5.42-1.586a.875.875 0 0 0-.974.353l-5.557 8.263-4.98-4.805a.874.874 0 0 0-1.165-.046L.32 26.242A.881.881 0 0 0 .878 27.8a.873.873 0 0 0 .556-.2l6.122-5.035 5.17 4.99a.874.874 0 0 0 1.335-.143l5.783-8.598 5.35 1.565a.88.88 0 0 0 .913-.274l13.51-15.852a.881.881 0 0 0-.1-1.24z"/></g></svg>