<?xml version="1.0" encoding="UTF-8"?>
<svg width="60px" height="50px" viewBox="0 0 60 50" version="1.1" xmlns="http://www.w3.org/2000/svg" xmlns:xlink="http://www.w3.org/1999/xlink"><script xmlns="" type="text/javascript" charset="utf-8" id="zm-extension"/>
    <!-- Generator: Sketch 49 (51002) - http://www.bohemiancoding.com/sketch -->
    <title>Shape</title>
    <desc>Created with Sketch.</desc>
    <defs>
        <linearGradient x1="135.914608%" y1="128.246923%" x2="41.9571006%" y2="29.353963%" id="linearGradient-1">
            <stop stop-color="#E76562" offset="0%"/>
            <stop stop-color="#FFFFFF" offset="100%"/>
        </linearGradient>
        <path d="M45.7052836,27.4256585 L51.8526085,9.08071368 C52.1610825,8.19881054 51.9275966,7.66864911 51.6787723,7.31860663 C51.0413729,6.4231096 49.7307844,6.41461342 49.4768472,6.41461342 L14.7351735,6.40781648 L13.8080471,2.02209006 C13.5575185,0.987255735 12.8178626,0 11.3266207,0 L1.56282143,0 C0.550481267,0 0,0.472387426 0,1.41546304 L0,3.9473237 C0,4.85981308 0.54877699,5.09770603 1.59861123,5.09770603 L9.84219602,5.09770603 L16.1514271,31.8045879 C15.1493126,32.8632116 14.6039442,34.4061172 14.6039442,35.8453696 C14.6039442,39.0127443 17.1330903,41.9320306 20.3643983,41.9320306 C23.415053,41.9320306 25.7021919,39.0824129 26.0737241,37.3831776 L38.3615567,37.3831776 C38.733089,39.0824129 40.5856374,42 44.0691783,42 C47.2442452,42 49.8262239,39.2574342 49.8262239,36.0951572 C49.8262239,32.9498726 47.908913,30.1614274 44.1015596,30.1614274 C42.5182868,30.1614274 40.6401743,31.011045 39.7675848,32.2854715 L24.6694004,32.2854715 C23.5735507,30.5862362 22.0771961,30.0594732 20.5637986,30 L20.3541727,28.8870008 L43.3261138,28.8870008 C45.0576586,28.8870008 45.3985139,28.2582838 45.7052836,27.4256585 Z M44.1117852,33.8674596 C45.3064829,33.8674596 46.2762162,34.8343246 46.2762162,36.0254885 C46.2762162,37.2166525 45.3064829,38.1835174 44.1117852,38.1835174 C42.9170875,38.1835174 41.9456499,37.2183517 41.9456499,36.0254885 C41.9473542,34.8343246 42.9170875,33.8674596 44.1117852,33.8674596 Z M22.5049694,36.0254885 C22.5049694,37.2302464 21.5233062,38.2107052 20.3183828,38.2107052 C19.1100509,38.2073067 18.1266834,37.2302464 18.1266834,36.0254885 C18.1266834,34.8207307 19.1100509,33.8402719 20.3183828,33.8402719 C21.5233062,33.8402719 22.5049694,34.8207307 22.5049694,36.0254885 Z" id="path-2"/>
        <filter x="-13.5%" y="-11.9%" width="126.9%" height="133.3%" filterUnits="objectBoundingBox" id="filter-3">
            <feOffset dx="0" dy="2" in="SourceAlpha" result="shadowOffsetOuter1"/>
            <feGaussianBlur stdDeviation="2" in="shadowOffsetOuter1" result="shadowBlurOuter1"/>
            <feColorMatrix values="0 0 0 0 0   0 0 0 0 0   0 0 0 0 0  0 0 0 0.147107111 0" type="matrix" in="shadowBlurOuter1"/>
        </filter>
    </defs>
    <g id="Symbols" stroke="none" stroke-width="1" fill="none" fill-rule="evenodd">
        <g id="Shape" transform="translate(4.000000, 2.000000)" fill-rule="nonzero">
            <g>
                <use fill="black" fill-opacity="1" filter="url(#filter-3)" xlink:href="#path-2"/>
                <use fill="url(#linearGradient-1)" fill-rule="evenodd" xlink:href="#path-2"/>
            </g>
        </g>
    </g>
</svg>