<svg xmlns="http://www.w3.org/2000/svg" xmlns:xlink="http://www.w3.org/1999/xlink" viewBox="0 0 600 400"><script xmlns="" type="text/javascript" charset="utf-8" id="zm-extension"/><defs><style>.cls-1{fill:url(#linear-gradient);}.cls-18,.cls-2{fill:#abcef4;}.cls-3{fill:#e9f6ff;}.cls-4{fill:url(#linear-gradient-2);}.cls-5{fill:#32bd8f;}.cls-6{fill:url(#linear-gradient-3);}.cls-7{fill:url(#linear-gradient-4);}.cls-8{fill:#fff;}.cls-9{fill:#084d7c;}.cls-10,.cls-23,.cls-25,.cls-26,.cls-27,.cls-28,.cls-34,.cls-39,.cls-44,.cls-51{fill:none;stroke-miterlimit:10;}.cls-10{stroke:#abcef4;}.cls-10,.cls-25,.cls-26,.cls-27,.cls-28{stroke-linecap:round;}.cls-11{fill:url(#linear-gradient-5);}.cls-12{fill:#18629e;}.cls-13{opacity:0.58;fill:url(#linear-gradient-6);}.cls-14{fill:#08a069;}.cls-15{fill:#ffccca;}.cls-16{fill:#ff9797;}.cls-17{fill:#ffb8b8;}.cls-18{opacity:0.62;}.cls-19{fill:url(#linear-gradient-7);}.cls-20{fill:url(#linear-gradient-8);}.cls-21{fill:url(#linear-gradient-9);}.cls-22{fill:url(#linear-gradient-11);}.cls-23{stroke:url(#linear-gradient-12);}.cls-24{fill:url(#linear-gradient-14);}.cls-25{stroke-width:0.84px;stroke:url(#linear-gradient-15);}.cls-26,.cls-27,.cls-28{stroke-width:0.8px;}.cls-26{stroke:url(#linear-gradient-17);}.cls-27{stroke:url(#linear-gradient-18);}.cls-28{stroke:url(#linear-gradient-19);}.cls-29{fill:url(#linear-gradient-20);}.cls-30{fill:#461f9b;}.cls-31{fill:url(#linear-gradient-21);}.cls-32{fill:url(#linear-gradient-22);}.cls-33{fill:url(#linear-gradient-23);}.cls-34,.cls-39,.cls-44{stroke:#ffe89f;}.cls-34{stroke-width:0.38px;}.cls-35{fill:url(#linear-gradient-24);}.cls-36{fill:url(#linear-gradient-25);}.cls-37{fill:url(#linear-gradient-26);}.cls-38{fill:url(#linear-gradient-27);}.cls-39{stroke-width:0.35px;}.cls-40{fill:url(#linear-gradient-28);}.cls-41{fill:url(#linear-gradient-29);}.cls-42{fill:url(#linear-gradient-30);}.cls-43{fill:url(#linear-gradient-31);}.cls-44{stroke-width:0.79px;}.cls-45{fill:url(#linear-gradient-32);}.cls-46{fill:#bdddf9;}.cls-47{fill:#7eb1e8;}.cls-48{fill:#d6eafc;}.cls-49{fill:#ffbc00;}.cls-50{fill:url(#linear-gradient-33);}.cls-51{stroke:url(#linear-gradient-34);}</style><linearGradient id="linear-gradient" x1="104.01" y1="325.2" x2="548.16" y2="325.2" gradientUnits="userSpaceOnUse"><stop offset="0" stop-color="#abb9d3" stop-opacity="0.1"/><stop offset="0.57" stop-color="#abc8ea" stop-opacity="0.17"/><stop offset="1" stop-color="#abcef4" stop-opacity="0.2"/></linearGradient><linearGradient id="linear-gradient-2" x1="135.22" y1="307.31" x2="645.22" y2="189.31" gradientUnits="userSpaceOnUse"><stop offset="0.01" stop-color="#fff"/><stop offset="0.22" stop-color="#e6eaf2"/><stop offset="0.54" stop-color="#c6cfe1"/><stop offset="0.82" stop-color="#b2bfd7"/><stop offset="1" stop-color="#abb9d3"/></linearGradient><linearGradient id="linear-gradient-3" x1="48" y1="204.4" x2="200" y2="204.4" gradientUnits="userSpaceOnUse"><stop offset="0" stop-color="#57e594"/><stop offset="1" stop-color="#57e594"/></linearGradient><linearGradient id="linear-gradient-4" x1="53.88" y1="182.72" x2="163.84" y2="219.14" gradientUnits="userSpaceOnUse"><stop offset="0" stop-color="#57e594" stop-opacity="0"/><stop offset="0.08" stop-color="#4fdc93" stop-opacity="0.22"/><stop offset="0.17" stop-color="#47d492" stop-opacity="0.42"/><stop offset="0.28" stop-color="#41cd91" stop-opacity="0.6"/><stop offset="0.38" stop-color="#3bc790" stop-opacity="0.75"/><stop offset="0.5" stop-color="#37c390" stop-opacity="0.86"/><stop offset="0.62" stop-color="#34bf8f" stop-opacity="0.94"/><stop offset="0.77" stop-color="#33be8f" stop-opacity="0.99"/><stop offset="1" stop-color="#32bd8f"/></linearGradient><linearGradient id="linear-gradient-5" x1="55.19" y1="106.97" x2="326.67" y2="176.98" gradientUnits="userSpaceOnUse"><stop offset="0.02" stop-color="#57e594" stop-opacity="0.3"/><stop offset="0.05" stop-color="#57e594" stop-opacity="0.26"/><stop offset="0.13" stop-color="#57e594" stop-opacity="0.16"/><stop offset="0.23" stop-color="#57e594" stop-opacity="0.09"/><stop offset="0.35" stop-color="#57e594" stop-opacity="0.04"/><stop offset="0.52" stop-color="#57e594" stop-opacity="0.01"/><stop offset="1" stop-color="#57e594" stop-opacity="0"/></linearGradient><linearGradient id="linear-gradient-6" x1="406.84" y1="379.56" x2="380.22" y2="83.79" gradientUnits="userSpaceOnUse"><stop offset="0.33" stop-color="#ffbc00" stop-opacity="0"/><stop offset="1" stop-color="#ffbc00"/></linearGradient><linearGradient id="linear-gradient-7" x1="319.19" y1="26.35" x2="494.95" y2="174.72" gradientUnits="userSpaceOnUse"><stop offset="0" stop-color="#57e594"/><stop offset="0.22" stop-color="#57e594" stop-opacity="0.73"/><stop offset="0.5" stop-color="#57e594" stop-opacity="0.42"/><stop offset="0.73" stop-color="#57e594" stop-opacity="0.19"/><stop offset="0.9" stop-color="#57e594" stop-opacity="0.05"/><stop offset="1" stop-color="#57e594" stop-opacity="0"/></linearGradient><linearGradient id="linear-gradient-8" x1="320.72" y1="27.64" x2="494.83" y2="174.62" xlink:href="#linear-gradient-7"/><linearGradient id="linear-gradient-9" x1="313.26" y1="33.86" x2="487.37" y2="180.84" xlink:href="#linear-gradient-7"/><linearGradient id="linear-gradient-11" x1="302.67" y1="39.53" x2="477.47" y2="187.1" xlink:href="#linear-gradient-7"/><linearGradient id="linear-gradient-12" x1="389.35" y1="138.7" x2="384.78" y2="87.89" gradientUnits="userSpaceOnUse"><stop offset="0.01" stop-color="#ffbc00"/><stop offset="0.15" stop-color="#ffbc00"/><stop offset="1" stop-color="#ffbc00"/></linearGradient><linearGradient id="linear-gradient-14" x1="358.58" y1="96.14" x2="426.84" y2="136.65" gradientUnits="userSpaceOnUse"><stop offset="0.01" stop-color="#fff" stop-opacity="0.7"/><stop offset="0.18" stop-color="#fff0c6" stop-opacity="0.77"/><stop offset="0.46" stop-color="#ffda72" stop-opacity="0.87"/><stop offset="0.7" stop-color="#ffca34" stop-opacity="0.94"/><stop offset="0.89" stop-color="#ffc00e" stop-opacity="0.98"/><stop offset="1" stop-color="#ffbc00"/></linearGradient><linearGradient id="linear-gradient-15" x1="312.9" y1="120.3" x2="311.22" y2="101.64" gradientTransform="translate(214.73 442.32) rotate(-91.49)" xlink:href="#linear-gradient-12"/><linearGradient id="linear-gradient-17" x1="378.2" y1="118.86" x2="376.47" y2="99.61" gradientTransform="matrix(0.93, 0.05, -0.05, 0.96, -29.96, -61.98)" xlink:href="#linear-gradient-12"/><linearGradient id="linear-gradient-18" x1="522.63" y1="144.66" x2="520.89" y2="125.41" gradientTransform="matrix(-0.93, 0.05, 0.05, 0.96, 936.72, -61.98)" xlink:href="#linear-gradient-12"/><linearGradient id="linear-gradient-19" x1="536.94" y1="209.26" x2="535.21" y2="190.02" gradientTransform="matrix(-0.05, -0.93, -0.96, 0.05, 674.65, 653.05)" xlink:href="#linear-gradient-12"/><linearGradient id="linear-gradient-20" x1="456.31" y1="336.68" x2="585.86" y2="336.68" xlink:href="#linear-gradient"/><linearGradient id="linear-gradient-21" x1="250.03" y1="-25.67" x2="270.95" y2="-25.67" gradientTransform="matrix(1, 0, 0, -1, 0, 152)" gradientUnits="userSpaceOnUse"><stop offset="0.37" stop-color="#ddaa0b"/><stop offset="0.75" stop-color="#ffdb5a"/><stop offset="0.94" stop-color="#ddb433"/></linearGradient><linearGradient id="linear-gradient-22" x1="239.2" y1="-3.84" x2="277.69" y2="-46.7" gradientTransform="matrix(1, 0, 0, -1, 0, 152)" gradientUnits="userSpaceOnUse"><stop offset="0" stop-color="#ffeca8"/><stop offset="0.64" stop-color="#ffdb5a"/></linearGradient><linearGradient id="linear-gradient-23" x1="250.55" y1="-20.76" x2="266.16" y2="-31.64" gradientTransform="matrix(1, 0, 0, -1, 0, 152)" gradientUnits="userSpaceOnUse"><stop offset="0.25" stop-color="#ffeca8"/><stop offset="0.64" stop-color="#ffdb5a"/></linearGradient><linearGradient id="linear-gradient-24" x1="255.83" y1="-24" x2="263" y2="-31.04" xlink:href="#linear-gradient-21"/><linearGradient id="linear-gradient-25" x1="507.34" y1="36.57" x2="527" y2="36.57" xlink:href="#linear-gradient-21"/><linearGradient id="linear-gradient-26" x1="497.15" y1="57.09" x2="533.34" y2="16.79" xlink:href="#linear-gradient-22"/><linearGradient id="linear-gradient-27" x1="507.82" y1="41.18" x2="522.5" y2="30.95" xlink:href="#linear-gradient-23"/><linearGradient id="linear-gradient-28" x1="512.79" y1="38.13" x2="519.53" y2="31.52" xlink:href="#linear-gradient-21"/><linearGradient id="linear-gradient-29" x1="229.34" y1="99.8" x2="273" y2="99.8" xlink:href="#linear-gradient-21"/><linearGradient id="linear-gradient-30" x1="206.71" y1="145.39" x2="287.08" y2="55.89" xlink:href="#linear-gradient-22"/><linearGradient id="linear-gradient-31" x1="230.42" y1="110.05" x2="263.01" y2="87.35" xlink:href="#linear-gradient-23"/><linearGradient id="linear-gradient-32" x1="241.44" y1="103.28" x2="256.41" y2="88.6" xlink:href="#linear-gradient-21"/><linearGradient id="linear-gradient-33" x1="277.92" y1="249.4" x2="391.09" y2="249.4" gradientTransform="matrix(1, 0, 0, 1, 0, 0)" xlink:href="#linear-gradient-23"/><linearGradient id="linear-gradient-34" x1="310.95" y1="247.56" x2="358.5" y2="247.56" xlink:href="#linear-gradient-3"/></defs><title>cover_27_12</title><g id="Layer_2" data-name="Layer 2"><path class="cls-1" d="M109,343l158.59,43.57A37.09,37.09,0,0,0,291.87,385L546,276c10-4-14-25-88-5L169,323C120,322,92,338,109,343Z"/><path class="cls-2" d="M115,321l158.59,43.57A37.09,37.09,0,0,0,297.87,363L552,254c13-6,13-31,6-32L396.22,203.49a7.9,7.9,0,0,0-4.36.28L112,289C103,286,101,313,115,321Z"/><path class="cls-3" d="M112.28,301.26l163.88,45.3a26.46,26.46,0,0,0,17.29-1.12L547,239c16-7,20-16,7.27-19.45l-158.84-35a8.61,8.61,0,0,0-4.77.3l-279,100C104,288,105,299,112.28,301.26Z"/><path class="cls-4" d="M163,276l149,43c-.36.73,220-91,220-91L389,196Z"/><path class="cls-5" d="M199.94,215.63V203.51s-45.83.93-72.71.93c-25.39,0-79.23-.93-79.23-.93v14.92C48,227.75,82.49,238,121.64,238,167.31,238,199.94,225.88,199.94,215.63Z"/><path class="cls-6" d="M199.94,202.58c1.86,9.32-37.29,23.3-77.37,23.3C83.42,225.88,48,213.76,48,204.44c0-10.81,35.5-21.52,77.49-21.52S197.93,192.53,199.94,202.58Z"/><path class="cls-7" d="M75,198.85S78.9,204,99.8,205.16s42.34.22,42.34.22.94-6.53-21.43-9.33c-13.08-1.63-16.68-2.5-20.51-2.79C76,191.39,74.1,197,75,198.85Z"/><path class="cls-8" d="M111.38,190.46l3.73-.93s0,5.59.93,6.52c.66.66,1.87,4.67,0,5.6s-12,3.73-14.91,3.73c-2.8,0-2.8-4.66.93-5.6,4.52-1.13,6.53-1.86,8.39-3.73C111.38,195.12,111.38,190.46,111.38,190.46Z"/><path class="cls-9" d="M116,199.78c-1.86.94-9.17,3.73-12.11,3.73-.84,0-3.73,0-4.66-.93-.94,1.86.93,2.8,1.86,2.8a28.3,28.3,0,0,0,6.53-.94,58.16,58.16,0,0,0,8.38-2.79c1-.5,1.12-1.89.91-3.17A1.79,1.79,0,0,1,116,199.78Z"/><path class="cls-8" d="M131.49,189.53l-3.73-.93s0,5.59-.93,6.52c-.66.66-1.87,4.66,0,5.6s12,3.72,14.91,3.72c2.8,0,3.2-3.72-.93-4.66-2.51-.56-7.58-.93-8.92-4.66C131.45,193.88,131.49,189.53,131.49,189.53Z"/><path class="cls-9" d="M141.74,203.51c-3,0-13.05-2.79-14.91-3.73-.51-.25-1-.94-1-.75-.1,1.1.11,2.19,1,2.62,1.86.93,8.72,3.73,14.91,3.73,2.27,0,2-1.74,2.21-2.48,0-.2,0-.23-.08-.19A2.59,2.59,0,0,1,141.74,203.51Z"/><path class="cls-10" d="M41.5,154.5s2-94,35-100c38.48-7,45.79,87.21,64,86,15-1,15.95-43.42,31-45,19-2,24,45,24,45"/><path class="cls-11" d="M42,164s-.78-33.81,6-64c5.18-23,15.39-44,30-46,37-5,44.79,88.21,63,87,15-1,15.95-43.42,31-45,19-2,24,47,24,47"/><path class="cls-10" d="M35.5,38.5c0,5,0,127,.19,126.77l163-23"/><path class="cls-12" d="M107.66,133.6c-.94,2.8,0,14.89,0,33.56,0,23.3,3.72,28.89,3.72,28.89s3.64.34,3.73-.93c.3-3.83,2.8-18.64,1.87-25.16s1.86-23.31,1.86-23.31,6.53,18.64,6.53,22.37c0,2.69-.75,4.76-.94,7.46-.56,8.09,2.8,18.64,2.8,18.64s4.66.93,4.66-.93c0-7.39,2.51-22.73,2.51-25.47,0-5.73-9-37-9-37S118.84,134.53,107.66,133.6Z"/><path class="cls-12" d="M106.06,199.21a3,3,0,0,1,1.33,1.28c.22.4.82,0,.61-.35a3.65,3.65,0,0,0-1.58-1.53c-.4-.2-.76.4-.36.6Z"/><path class="cls-13" d="M308,134l5,89,131.24,41.49L468,254.66V173s-48.44.31-93.72-22.84S308,134,308,134Z"/><path class="cls-12" d="M108,198.13a2.35,2.35,0,0,1,1.27,1.44c.14.42.82.24.68-.19a3.11,3.11,0,0,0-1.6-1.86c-.4-.19-.75.41-.35.61Z"/><path class="cls-8" d="M109.52,197s-.57-2.67,0-3.73c.17-.31,3.73-.39,3.73.93,0,2.8-1.4,3.26-1.4,3.26Z"/><path class="cls-8" d="M128.16,193.26c0,.93,1.87,3.73,1.87,3.73h2.79s.66-4,0-4.66C131.89,191.39,128.16,192.33,128.16,193.26Z"/><path class="cls-12" d="M132.86,199a1.67,1.67,0,0,1,1-.84.35.35,0,0,0-.19-.68,2.38,2.38,0,0,0-1.43,1.17c-.22.39.39.74.6.35Z"/><path class="cls-12" d="M134.52,199.49c.17-.31.55-.41.83-.6s0-.85-.35-.6-.84.4-1.08.85.39.75.6.35Z"/><path class="cls-5" d="M99.27,103.77s5.59,13,6.52,16.78a20.17,20.17,0,0,1,.93,6.53,42.46,42.46,0,0,0,0,4.66c0,1,3.68,2.6,11.19,2.79,3,.08,8-.59,7.93-2-.22-7.12,1.39-29.68-1.41-32.47-.78-.79-5.2-2.67-8.39-3.73-2.79-.93-4.16-.66-7.45,0C99.27,98.18,98.33,102.84,99.27,103.77Z"/><path class="cls-14" d="M125.83,132.24a1.56,1.56,0,0,0-.41-1,1.46,1.46,0,0,0-1.28-.43,40.57,40.57,0,0,1-7.19.38,30.68,30.68,0,0,1-8.64-1.4,1.48,1.48,0,0,0-1.91,1.51c.06.88.14,1.69.21,2.27a1.45,1.45,0,0,0,1,1.25,41.7,41.7,0,0,0,9.51,1.12,25.43,25.43,0,0,0,6.36-.46,3,3,0,0,0,2.31-3Z"/><path class="cls-5" d="M99.27,101c-3.32,3.27-3.74,7-6.53,11.18-1.86,2.8-4.66,8.39-3.73,10.26,2.95,5.89,17.71,10.64,17.71,9.32a9.39,9.39,0,0,1,.94-2.8l-12.12-8.39s9.32-13,9.32-16.78C104.86,101.91,102.24,98.05,99.27,101Z"/><path class="cls-5" d="M124.43,100.05l8.39,4.66s-8.39-8.39-8.39-9.32S126.81,93,126.81,93a.66.66,0,0,1,.89,0c2,1.62,9.52,8.16,11.65,14.53,1.86,5.6-1.95,5.23-3.73,4.66-6.44-2.06-14.91-8.39-14.91-8.39Z"/><path class="cls-15" d="M110.06,89.22l-2,7.23a8.2,8.2,0,0,0,5.25,2.68c2.77.42,3-1.43,3-1.43l-.73-7.65Z"/><path class="cls-16" d="M115.88,93.17l-.29-3.12-5.53-.83-.54,1.5s2.8,3.73,4.66,3.73S115.88,93.17,115.88,93.17Z"/><path class="cls-15" d="M105.92,79.17s1.29,8.09,3.6,11.55c1.86,2.8,6.91,3.17,7.63,1.45,1.48-3.54.95-12.38.24-14.1C115.32,73,105.69,74.42,105.92,79.17Z"/><path class="cls-17" d="M126.9,93.25l-4.25-3.4a.36.36,0,0,0-.18-.07l-5.14-.86a.39.39,0,0,0-.44.28l-.8,3.22a.37.37,0,0,0,0,.31l1.33,2a.39.39,0,0,0,.69-.09l.68-2h2.67a.4.4,0,0,1,.23.08l3.36,2.52a.39.39,0,0,0,.5,0l1.33-1.33A.39.39,0,0,0,126.9,93.25Z"/><path class="cls-15" d="M107.66,84.2s-2.8-1.86-2.8,0,3.73,2.8,3.73,2.8h.93Z"/><path class="cls-12" d="M107.66,85.13c-.94-1.86-4.66-3.73-3.73-6.52.29-.89,0-2.8,2.79-3.73s4.66-2.8,7.46-1.87,3-.83,4.66,0c1.87.94.16,1.48,2.8,2.8,1.86.93-.93,2.8-2.8,2.8s-.93,1.86-3.73,1.86a11.85,11.85,0,0,1-5.59-1.86s-1.86.93,0,5.59C110,85.42,107.66,85.13,107.66,85.13Z"/><path class="cls-15" d="M105.79,128c-.93,0,0,2.8,0,2.8s.93,4.66,1.87,5.59,3.72,2.8,4.66,1.86-.94-4.66-.94-4.66l-1.86-3.73a4.63,4.63,0,0,0,2.8-.93c.66-.66-1.87-.93-1.87-.93Z"/><path class="cls-16" d="M116,84.2v3.73s2.8,0,2.8-.93Z"/><path class="cls-18" d="M225.92,312.11c-7.66,4.34-20.81,5.8-29.23,3.25l-2.38-.72c-8.42-2.55-8.91-7.94-1.09-12l2.56-1.32c7.82-4,21.15-5.39,29.62-3l1.2.34c8.47,2.38,9.14,7.88,1.48,12.22Z"/><path class="cls-19" d="M319.92,41.05l5,84.55S354.74,116.9,402,143c42.92,23.72,83.3,17.41,83.3,17.41V72.13s-32,3.69-77.09-13.67C343.55,33.59,319.92,41.05,319.92,41.05Z"/><path class="cls-20" d="M322.41,41.05l2.48,84.55S354.74,116.9,402,143c42.92,23.72,83.3,17.41,83.3,17.41V72.13s-32,3.69-77.09-13.67C343.55,33.59,322.41,41.05,322.41,41.05Z"/><path class="cls-21" d="M315,47.27l2.48,84.55s29.85-8.71,77.1,17.41c42.92,23.72,83.3,17.4,83.3,17.4V78.35S445.88,82,400.74,64.67C336.09,39.81,315,47.27,315,47.27Z"/><path class="cls-21" d="M315,47.27l2.48,84.55s29.85-8.71,77.1,17.41c42.92,23.72,83.3,17.4,83.3,17.4V78.35S445.88,82,400.74,64.67C336.09,39.81,315,47.27,315,47.27Z"/><path class="cls-22" d="M305,52.24l2.49,85.8s29.84-8.71,77.09,17.4c42.93,23.73,83.31,17.41,83.31,17.41V84.57s-31.95,3.68-77.09-13.68C326.14,46,305,52.24,305,52.24Z"/><path class="cls-5" d="M384.58,143C337.33,116.9,307,126,307,126l.49,12s29.84-8.71,77.09,17.4c42.93,23.73,83.31,17.41,83.31,17.41V160.42S427.51,166.73,384.58,143Z"/><path class="cls-5" d="M389.75,85.81c39.67,14.59,69.59,14.32,78.14,13.86V84.57s-31.95,3.68-77.09-13.68C326.14,46,305,52.24,305,52.24l.41,14.29C315.43,66.08,340.51,67.7,389.75,85.81Z"/><path class="cls-23" d="M386.5,90c-12.38-3.85-22.05,2.9-21.5,15s10.67,26.05,22.5,31,21.5-1.8,21.5-15S398.88,93.85,386.5,90Z"/><path class="cls-23" d="M386.5,90c-12.38-3.85-22.05,2.9-21.5,15s10.67,26.05,22.5,31,21.5-1.8,21.5-15S398.88,93.85,386.5,90Z"/><path class="cls-24" d="M386.08,93.57C375.67,90.33,367.53,96,368,106.19s9,21.91,18.92,26.07S405,130.74,405,119.64,396.48,96.81,386.08,93.57Z"/><path class="cls-25" d="M327.5,136.5a17.1,17.1,0,0,0-6-13c-7.68-6.4-14-5-14-5"/><path class="cls-25" d="M327.5,136.5a17.1,17.1,0,0,0-6-13c-7.68-6.4-14-5-14-5"/><path class="cls-26" d="M306,71a20.13,20.13,0,0,0,13.5-5.49c7-7,5-13,5-13"/><path class="cls-27" d="M467.76,103a20.15,20.15,0,0,1-13.5-5.49c-7-7-5-13-5-13"/><path class="cls-28" d="M449,173.17a20.23,20.23,0,0,1,5.55-13.48c7-7,13-4.95,13-4.95"/><path class="cls-29" d="M457.62,343.49a2.21,2.21,0,0,0,.31,4.14c15.22,4.17,42.2,12.73,43.07,12.37.7-.29,9.11-3,12-4.8a5.08,5.08,0,0,1,4.15-.53l16.73,5.09a10.4,10.4,0,0,0,7.85-.72l42.06-21.81a3.74,3.74,0,0,0-.64-6.9l-56.41-17.09a2.21,2.21,0,0,0-1.54.09Z"/><g id="wallet"><path class="cls-30" d="M225.5,203.6l-.61-.23a.87.87,0,0,1,.61.23Z"/><path class="cls-30" d="M222.17,202.62h0a1,1,0,0,1,.45.07A1.2,1.2,0,0,1,222.17,202.62Z"/><path class="cls-31" d="M271,182.5c0-6-4.25-13.32-9.44-16.36a7.36,7.36,0,0,0-5-1.2,13.71,13.71,0,0,0-4.4,2.3,7.8,7.8,0,0,0-2,5.67c.1,6.07,4.35,13.41,9.43,16.35a7,7,0,0,0,6.76.63A7.78,7.78,0,0,0,271,182.5Z"/><path class="cls-32" d="M268.75,183.75c0,6-4.2,8.44-9.28,5.51s-9.33-10.33-9.43-16.35,4.08-8.55,9.27-5.51S268.75,177.78,268.75,183.75Z"/><path class="cls-33" d="M266.07,182.76c0,4.51-3.14,6.39-7,4.14s-7.08-7.81-7.13-12.37,3.09-6.45,7-4.14A15.92,15.92,0,0,1,266.07,182.76Z"/><path class="cls-34" d="M266.07,182.76c0,4.51-3.14,6.39-7,4.14s-7.08-7.81-7.13-12.37,3.09-6.45,7-4.14A15.92,15.92,0,0,1,266.07,182.76Z"/><path class="cls-35" d="M258.74,182.92l-.48-.32a1.16,1.16,0,0,1-.47-1V175a.52.52,0,0,1,.84-.42l.16.16a1.15,1.15,0,0,1,.47,1v7C259.31,182.92,259,183.07,258.74,182.92Z"/><path class="cls-36" d="M527,120c0-5.61-4-12.51-8.87-15.37a6.94,6.94,0,0,0-4.73-1.14,12.81,12.81,0,0,0-4.14,2.17,7.38,7.38,0,0,0-1.92,5.33c.1,5.71,4.09,12.61,8.87,15.37a6.56,6.56,0,0,0,6.35.59A7.3,7.3,0,0,0,527,120Z"/><path class="cls-37" d="M524.93,121.16c0,5.61-3.94,7.93-8.72,5.17s-8.77-9.71-8.87-15.37,3.84-8,8.72-5.18S524.93,115.54,524.93,121.16Z"/><path class="cls-38" d="M522.42,120.22c0,4.24-3,6-6.61,3.89s-6.65-7.34-6.7-11.63,2.91-6.06,6.6-3.89A15,15,0,0,1,522.42,120.22Z"/><path class="cls-39" d="M522.42,120.22c0,4.24-3,6-6.61,3.89s-6.65-7.34-6.7-11.63,2.91-6.06,6.6-3.89A15,15,0,0,1,522.42,120.22Z"/><path class="cls-40" d="M515.52,120.37l-.45-.3a1.08,1.08,0,0,1-.44-.93v-6.26a.5.5,0,0,1,.79-.4l.15.15a1.1,1.1,0,0,1,.44.94v6.55C516.06,120.37,515.71,120.52,515.52,120.37Z"/><path class="cls-41" d="M273,62.28c0-12.48-8.86-27.8-19.7-34.14-3.83-2.3-7.44-3.07-10.5-2.52-2.08.33-7.77,3.39-9.19,4.82,0,0-4.38,4-4.27,11.81.22,12.7,9.08,28,19.7,34.14,6.45,3.72,10.83,2.63,14.11,1.32C268.4,75.74,273,69.94,273,62.28Z"/><path class="cls-42" d="M268.4,64.9c0,12.48-8.75,17.62-19.36,11.49s-19.48-21.55-19.7-34.14,8.53-17.83,19.37-11.49S268.4,52.43,268.4,64.9Z"/><path class="cls-43" d="M262.82,62.83c0,9.41-6.56,13.35-14.66,8.64s-14.77-16.3-14.88-25.82,6.45-13.46,14.66-8.65S262.82,53.41,262.82,62.83Z"/><path class="cls-44" d="M262.82,62.83c0,9.41-6.56,13.35-14.66,8.64s-14.77-16.3-14.88-25.82,6.45-13.46,14.66-8.65S262.82,53.41,262.82,62.83Z"/><path class="cls-45" d="M247.5,63.15l-1-.65a2.41,2.41,0,0,1-1-2.08V46.52a1.09,1.09,0,0,1,1.75-.87l.33.32a2.41,2.41,0,0,1,1,2.08V62.61C248.71,63.15,247.94,63.48,247.5,63.15Z"/></g><circle class="cls-2" cx="41.75" cy="156.5" r="2.25"/><circle class="cls-2" cx="78.75" cy="54.5" r="2.25"/><circle class="cls-2" cx="172.75" cy="95.5" r="2.25"/><circle class="cls-2" cx="195.75" cy="140.5" r="2.25"/><polygon class="cls-46" points="536 344 518 339 518 285 536 288.74 536 344"/><polygon class="cls-47" points="551 336 536 344 536 288.74 551 282 551 336"/><polygon class="cls-48" points="518 285 536 289 551 282 534 278 518 285"/><polygon class="cls-46" points="470 351 452 346 452 273 470 276.74 470 351"/><polygon class="cls-47" points="485 343 470 351 470 276.74 485 270 485 343"/><polygon class="cls-48" points="452 273 470 277 485 270 468 266 452 273"/><polygon class="cls-46" points="503 348 485 343 485 238 503 241.74 503 348"/><polygon class="cls-47" points="518 340 503 348 503 241.74 518 235 518 340"/><polygon class="cls-48" points="485 238 503 242 518 235 501 231 485 238"/><path class="cls-18" d="M280.73,264.94c-3.7-1.07-3.76-3-.12-4.25L334,243c3.63-1.27,6-1.16,9.75-.14l44.5,12.28c3.71,1,3.8,3,.19,4.29l-48.88,18.14a25,25,0,0,1-13.29.49Z"/><path class="cls-49" d="M388.25,244.14l-44.5-12.28c-3.71-1-6.12-1.13-9.75.14l-53.39,17.69c-3.64,1.27-3.58,8.18.12,9.25l45.54,13.12a25,25,0,0,0,13.29-.49l48.88-18.14C392.05,252.1,392,245.16,388.25,244.14Z"/><path class="cls-50" d="M280.73,253.94c-3.7-1.07-3.76-3-.12-4.25L334,232c3.63-1.27,6-1.16,9.75-.14l44.5,12.28c3.71,1,3.8,3,.19,4.29l-48.88,18.14a25,25,0,0,1-13.29.49Z"/><path class="cls-51" d="M318.51,254c-9.26-2.77-9.43-7.83-.38-11.26l.27-.1c9.05-3.43,23.8-4.2,32.79-1.71s9.09,7.58.25,11.31S327.78,256.76,318.51,254Z"/></g></svg>