<svg id="Layer_1" xmlns="http://www.w3.org/2000/svg" viewBox="0 0 800 600"><script xmlns="" type="text/javascript" charset="utf-8" id="zm-extension"/><style>.st0{opacity:.1;fill:#11172d}.st1,.st3{fill:#fff;stroke:#333;stroke-miterlimit:10}.st3{fill:none;stroke:#ffde00}.st8{opacity:.43}.st10,.st8{fill:#ffde00}.st11{fill:#333}</style><ellipse class="st0" cx="435.7" cy="397.6" rx="61.1" ry="17.9"/><ellipse class="st0" cx="591.7" cy="269.3" rx="61.1" ry="17.9"/><ellipse class="st0" cx="224.1" cy="299.9" rx="61.1" ry="17.9"/><ellipse class="st1" cx="583" cy="260.7" rx="61.1" ry="17.9"/><path class="st1" d="M609.6 212c0-14.4-11.7-26.1-26.1-26.1-14.4 0-26.1 11.7-26.1 26.1 0 5.2 1.5 10 4.1 14l22 32.1 22-32.1c2.6-4.1 4.1-8.9 4.1-14z"/><circle class="st1" cx="583.5" cy="211.8" r="17.9"/><ellipse class="st1" cx="213" cy="291.8" rx="61.1" ry="17.9"/><path class="st1" d="M239.6 243.1c0-14.4-11.7-26.1-26.1-26.1-14.4 0-26.1 11.7-26.1 26.1 0 5.2 1.5 10 4.1 14l22 32.1 22-32.1c2.6-4 4.1-8.8 4.1-14z"/><circle class="st1" cx="213.5" cy="243" r="17.9"/><radialGradient id="SVGID_1_" cx="-2649.891" cy="635.063" r="8.565" gradientTransform="scale(-1 1) rotate(7.99 .094 15374.155)" gradientUnits="userSpaceOnUse"><stop offset="0" stop-color="#2e2e2e" stop-opacity=".04"/><stop offset=".312" stop-color="#252525" stop-opacity=".09"/><stop offset=".825" stop-color="#0c0c0c" stop-opacity=".172"/><stop offset="1" stop-color="#020202" stop-opacity=".2"/></radialGradient><circle cx="575.4" cy="409.8" r="8.6" opacity=".5" fill="url(#SVGID_1_)"/><circle class="st3" cx="564" cy="401.3" r="11.5"/><radialGradient id="SVGID_2_" cx="-2228.885" cy="546.223" r="12.21" gradientTransform="scale(-1 1) rotate(7.99 .094 15374.155)" gradientUnits="userSpaceOnUse"><stop offset="0" stop-color="#2e2e2e" stop-opacity=".04"/><stop offset=".312" stop-color="#252525" stop-opacity=".09"/><stop offset=".825" stop-color="#0c0c0c" stop-opacity=".172"/><stop offset="1" stop-color="#020202" stop-opacity=".2"/></radialGradient><circle cx="146.2" cy="380.4" r="12.2" opacity=".5" fill="url(#SVGID_2_)"/><radialGradient id="SVGID_3_" cx="-2466.073" cy="433.981" r="15.703" gradientTransform="scale(-1 1) rotate(7.99 .094 15374.155)" gradientUnits="userSpaceOnUse"><stop offset="0" stop-color="#2e2e2e" stop-opacity=".04"/><stop offset=".312" stop-color="#252525" stop-opacity=".09"/><stop offset=".825" stop-color="#0c0c0c" stop-opacity=".172"/><stop offset="1" stop-color="#020202" stop-opacity=".2"/></radialGradient><circle cx="365.4" cy="236.2" r="15.7" opacity=".5" fill="url(#SVGID_3_)"/><circle cx="354.1" cy="154.2" r="11.5" opacity=".43" fill="none" stroke="#ffde00" stroke-miterlimit="10"/><circle class="st3" cx="292.8" cy="407" r="8.1"/><circle class="st3" cx="458" cy="204" r="8.1"/><path class="st0" d="M583.5 203.2c8.4 0 15.4 5.7 17.3 13.5.4-1.4.6-2.9.6-4.4 0-9.9-8-17.9-17.9-17.9s-17.9 8-17.9 17.9c0 1.5.2 3 .6 4.4 1.9-7.7 8.9-13.5 17.3-13.5zm-369.6 30.7c8.4 0 15.4 5.7 17.3 13.5.4-1.4.6-2.9.6-4.4 0-9.9-8-17.9-17.9-17.9-9.9 0-17.9 8-17.9 17.9 0 1.5.2 3 .6 4.4 2-7.8 9-13.5 17.3-13.5z"/><ellipse class="st1" cx="426.7" cy="389.8" rx="61.1" ry="17.9"/><path class="st1" d="M453.3 341.1c0-14.4-11.7-26.1-26.1-26.1-14.4 0-26.1 11.7-26.1 26.1 0 5.2 1.5 10 4.1 14l22 32.1 22-32.1c2.6-4 4.1-8.8 4.1-14z"/><circle class="st1" cx="427.2" cy="341" r="17.9"/><path class="st0" d="M427.2 331.9c8.4 0 15.4 5.7 17.3 13.5.4-1.4.6-2.9.6-4.4 0-9.9-8-17.9-17.9-17.9s-17.9 8-17.9 17.9c0 1.5.2 3 .6 4.4 1.9-7.8 8.9-13.5 17.3-13.5z"/><ellipse transform="rotate(-67.728 677.621 188.63)" class="st3" cx="677.6" cy="188.6" rx="9.2" ry="9.2"/><radialGradient id="SVGID_4_" cx="-2367.578" cy="353.816" r="9.326" gradientTransform="scale(-1 1) rotate(7.99 .094 15374.155)" gradientUnits="userSpaceOnUse"><stop offset="0" stop-color="#2e2e2e" stop-opacity=".04"/><stop offset=".312" stop-color="#252525" stop-opacity=".09"/><stop offset=".825" stop-color="#0c0c0c" stop-opacity=".172"/><stop offset="1" stop-color="#020202" stop-opacity=".2"/></radialGradient><circle cx="256.8" cy="170.6" r="9.3" opacity=".25" fill="url(#SVGID_4_)"/><ellipse transform="rotate(-67.728 592.04 333.24)" class="st8" cx="592" cy="333.2" rx="3.6" ry="3.6"/><path d="M427.1 432.8v33.8H210.5V331.8M583.4 163v-33.8H425.1v165.6" fill="none" stroke="#333" stroke-miterlimit="10" stroke-dasharray="4"/><circle class="st10" cx="211.9" cy="337.4" r="8.9"/><circle class="st10" cx="426.9" cy="434.8" r="8.9"/><circle class="st10" cx="584.4" cy="163.6" r="8.9"/><circle class="st11" cx="210.8" cy="466.4" r="5.2"/><circle class="st11" cx="425.4" cy="129.6" r="5.2"/><circle class="st11" cx="363.4" cy="466.9" r="3.5"/><circle class="st11" cx="512" cy="129.8" r="3.5"/><circle class="st11" cx="210.6" cy="413.2" r="2.5"/><circle class="st11" cx="292.2" cy="467.1" r="2.5"/><circle class="st11" cx="425.7" cy="225.2" r="2.5"/><radialGradient id="SVGID_5_" cx="-3300.469" cy="-3001.856" r="15.475" gradientTransform="scale(-1 1) rotate(75.718 -3800.583 641.189)" gradientUnits="userSpaceOnUse"><stop offset="0" stop-color="#2e2e2e" stop-opacity=".04"/><stop offset=".312" stop-color="#252525" stop-opacity=".09"/><stop offset=".825" stop-color="#0c0c0c" stop-opacity=".172"/><stop offset="1" stop-color="#020202" stop-opacity=".2"/></radialGradient><circle cx="146.6" cy="227.2" r="15.5" opacity=".5" fill="url(#SVGID_5_)"/><ellipse transform="rotate(-67.728 171.713 134.439)" class="st8" cx="171.7" cy="134.4" rx="3.6" ry="3.6"/><circle class="st10" cx="425.4" cy="290.2" r="8.9"/></svg>