<svg id="Layer_1" xmlns="http://www.w3.org/2000/svg" viewBox="0 0 800 600"><script xmlns="" type="text/javascript" charset="utf-8" id="zm-extension"/><style>.st0,.st1{stroke:#333}.st0,.st1,.st2{stroke-miterlimit:10}.st0{stroke-dasharray:4;fill:none}.st1{fill:#fff}.st2{fill:none;stroke:#3f3f3f;stroke-linecap:square;stroke-linejoin:round}.st6{fill:#333}.st7{fill:#ffde00}.st14{fill:none;stroke:#ffde00;stroke-miterlimit:10}</style><circle class="st0" cx="407.2" cy="329.2" r="149"/><circle class="st0" cx="407.2" cy="329.2" r="174.8"/><path class="st1" d="M365.5 164.4c-7.9 38.9 3.2 80.9 33.3 111.1 2 2 4.1 3.9 6.2 5.8 2.1-1.8 4.2-3.7 6.2-5.7 48.1-47.9 48.4-125.7.5-173.8-2-2-4.1-3.9-6.2-5.8-2.1 1.8-4.2 3.7-6.2 5.7-12.3 12.2-21.4 26.3-27.5 41.4"/><path class="st2" d="M369.2 150.4c-.9 2.6-1.6 5.2-2.3 7.9"/><path fill="none" stroke="#3f3f3f" stroke-linecap="round" stroke-linejoin="round" stroke-miterlimit="10" d="M383.4 123.1l43.5-1.6"/><path class="st2" d="M405.2 296.4l-.7-52.6"/><ellipse transform="rotate(-.725 405.18 170.27) scale(.99998)" cx="405.2" cy="170.3" rx="14.6" ry="14.6" fill="#fedd00"/><path class="st1" d="M363.7 201.1l-13.4 16.7.5 42.5 34.8-.4v-.1c-12.5-17.7-19.8-38-21.9-58.7zm83.6-4l13.8 16.4.5 42.5-34.8.4v-.1c12.2-18 18.9-38.4 20.5-59.2z"/><path class="st2" d="M379.1 297.9l.5 41m50.7-40.2l.6 41M405.4 314l.3 23.4m1.2 24l.2 11.7"/><ellipse transform="rotate(-.725 405.29 170.27) scale(.99998)" class="st2" cx="405.3" cy="170.3" rx="14.6" ry="14.6"/><path class="st1" d="M587.9 382.4c2.4-2 4.4-4.3 6.1-7.1l6.6 2.6 3.3-8.1-6.6-2.6c1-4.4.9-8.8-.1-13l6.5-2.8-3.4-8-6.5 2.8c-2.3-3.6-5.4-6.8-9.2-9.1l2.6-6.6-8.1-3.3-2.6 6.6c-4.4-1-8.8-.9-12.9.1l-2.8-6.5-8 3.4 2.8 6.5c-2.5 1.5-4.7 3.5-6.6 5.8"/><path class="st1" d="M568.7 348.1c2.3-.7 4.9-.6 7.3.4 5.7 2.3 8.5 8.8 6.2 14.5-.4.9-.8 1.7-1.4 2.5m-73.3 59l9.1 6.7 5.4-7.4c5.1 2.7 10.7 4 16.3 4l1.4 9.1 11.2-1.7-1.4-9.1c5.3-1.7 10.2-4.6 14.4-8.6l7.4 5.4 6.7-9.1-7.4-5.4c2.7-5.1 4-10.7 4-16.3l9.1-1.4-1.7-11.2-9.1 1.4c-1.7-5.3-4.6-10.2-8.6-14.3l5.4-7.4-9.1-6.7-5.4 7.4c-5.1-2.7-10.7-4-16.3-4l-1.4-9.1-11.2 1.7 1.4 9.1c-5.3 1.7-10.2 4.6-14.3 8.6l-7.4-5.5-6.7 9.1 7.4 5.5c-2.7 5.1-4 10.7-4 16.2l-9.1 1.4 1.7 11.2 9.1-1.4c1.7 5.3 4.6 10.2 8.6 14.4l-5.5 7.4z"/><ellipse transform="rotate(-53.564 538.58 391.882)" class="st1" cx="538.6" cy="391.9" rx="18.8" ry="18.8"/><ellipse cx="294.3" cy="439.6" rx="46.1" ry="45.6" fill="#fff" stroke="#333" stroke-miterlimit="10" stroke-dasharray="4"/><ellipse class="st1" cx="294.3" cy="439.6" rx="37.2" ry="36.8"/><path class="st1" d="M296 418.5l3.9 12c.2.7.9 1.2 1.7 1.2h12.8c1.7 0 2.4 2.2 1 3.2l-10.3 7.4c-.6.4-.9 1.2-.6 2l3.9 12c.5 1.6-1.3 3-2.7 2l-10.3-7.4c-.6-.4-1.5-.4-2.1 0l-10.3 7.4c-1.4 1-3.3-.3-2.7-2l3.9-12c.2-.7 0-1.5-.6-2l-10.3-7.4c-1.4-1-.7-3.2 1-3.2H287c.8 0 1.5-.5 1.7-1.2l3.9-12c.5-1.6 2.9-1.6 3.4 0z"/><circle class="st6" cx="497.5" cy="479.8" r="4"/><circle class="st6" cx="381.9" cy="475.8" r="4"/><circle class="st6" cx="266.4" cy="377" r="4"/><ellipse transform="rotate(-54.528 233.152 342.875)" class="st6" cx="233.2" cy="342.9" rx="4" ry="4"/><ellipse transform="rotate(-54.528 287.164 241.037)" class="st6" cx="287.2" cy="241" rx="4" ry="4"/><ellipse transform="rotate(-54.528 493.53 207.692)" class="st6" cx="493.6" cy="207.7" rx="4" ry="4"/><ellipse transform="rotate(-54.528 576.264 283.35)" class="st6" cx="576.3" cy="283.3" rx="4" ry="4"/><circle class="st7" cx="452.2" cy="471.8" r="6.8"/><circle class="st7" cx="556.2" cy="234.2" r="6.8"/><circle class="st7" cx="245.3" cy="264.6" r="6.9"/><radialGradient id="SVGID_1_" cx="-2751.522" cy="526.703" r="8.686" gradientTransform="scale(-1 1) rotate(7.99 .094 15374.155)" gradientUnits="userSpaceOnUse"><stop offset="0" stop-color="#2e2e2e" stop-opacity=".04"/><stop offset=".312" stop-color="#252525" stop-opacity=".09"/><stop offset=".825" stop-color="#0c0c0c" stop-opacity=".172"/><stop offset="1" stop-color="#020202" stop-opacity=".2"/></radialGradient><circle cx="661" cy="288.4" r="8.7" opacity=".5" fill="url(#SVGID_1_)"/><radialGradient id="SVGID_2_" cx="-2534.495" cy="619.7" r="8.686" gradientTransform="scale(-1 1) rotate(7.99 .094 15374.155)" gradientUnits="userSpaceOnUse"><stop offset="0" stop-color="#2e2e2e" stop-opacity=".04"/><stop offset=".312" stop-color="#252525" stop-opacity=".09"/><stop offset=".825" stop-color="#0c0c0c" stop-opacity=".172"/><stop offset="1" stop-color="#020202" stop-opacity=".2"/></radialGradient><circle cx="459" cy="410.7" r="8.7" opacity=".5" fill="url(#SVGID_2_)"/><circle cx="614.7" cy="238.3" r="10.9" opacity=".4" fill="#ffde00"/><radialGradient id="SVGID_3_" cx="-2293.337" cy="374.249" r="7.02" gradientTransform="scale(-1 1) rotate(7.99 .094 15374.155)" gradientUnits="userSpaceOnUse"><stop offset="0" stop-color="#2e2e2e" stop-opacity=".04"/><stop offset=".312" stop-color="#252525" stop-opacity=".09"/><stop offset=".825" stop-color="#0c0c0c" stop-opacity=".172"/><stop offset="1" stop-color="#020202" stop-opacity=".2"/></radialGradient><circle cx="186.1" cy="201.1" r="7" opacity=".5" fill="url(#SVGID_3_)"/><radialGradient id="SVGID_4_" cx="-2407.735" cy="545.627" r="7.02" gradientTransform="scale(-1 1) rotate(7.99 .094 15374.155)" gradientUnits="userSpaceOnUse"><stop offset="0" stop-color="#2e2e2e" stop-opacity=".04"/><stop offset=".312" stop-color="#252525" stop-opacity=".09"/><stop offset=".825" stop-color="#0c0c0c" stop-opacity=".172"/><stop offset="1" stop-color="#020202" stop-opacity=".2"/></radialGradient><circle cx="323.2" cy="354.9" r="7" opacity=".5" fill="url(#SVGID_4_)"/><radialGradient id="SVGID_5_" cx="-2679.269" cy="377.224" r="12.509" gradientTransform="scale(-1 1) rotate(7.99 .094 15374.155)" gradientUnits="userSpaceOnUse"><stop offset="0" stop-color="#2e2e2e" stop-opacity=".04"/><stop offset=".312" stop-color="#252525" stop-opacity=".09"/><stop offset=".825" stop-color="#0c0c0c" stop-opacity=".172"/><stop offset="1" stop-color="#020202" stop-opacity=".2"/></radialGradient><circle cx="568.7" cy="150.4" r="12.5" opacity=".5" fill="url(#SVGID_5_)"/><circle class="st14" cx="303.7" cy="137.9" r="9.4"/><circle class="st14" cx="216.3" cy="117.2" r="5.1"/><circle class="st14" cx="630.8" cy="175.4" r="5.1"/><circle class="st7" cx="135.4" cy="288.4" r="5.1"/><circle class="st14" cx="176.7" cy="391.9" r="9.4"/></svg>