<svg width="1412" height="440" xmlns="http://www.w3.org/2000/svg"><script xmlns="" type="text/javascript" charset="utf-8" id="zm-extension"/><g fill="none" fill-rule="evenodd"><path d="M939.5 81l-4.4-4.4c-.2-.2-.2-.6 0-.9l4.4-4.4c.2-.2.6-.2.9 0l4.4 4.4c.2.2.2.6 0 .9l-4.4 4.4c-.3.2-.7.2-.9 0z" fill="#FFDE00" fill-rule="nonzero"/><g fill-rule="nonzero" fill="#FFDE00"><path d="M995.5 278l-5.1-5.1c-1.4-1.4-1.4-3.7 0-5.1l5.1-5.1c1.4-1.4 3.7-1.4 5.1 0l5.1 5.1c1.4 1.4 1.4 3.7 0 5.1l-5.1 5.1c-1.4 1.4-3.7 1.4-5.1 0z" opacity=".15"/><path d="M997.6 282.2l-4.3-4.3c-.2-.2-.2-.6 0-.9l4.3-4.3c.2-.2.6-.2.9 0l4.3 4.3c.2.2.2.6 0 .9l-4.3 4.3c-.3.3-.7.3-.9 0z"/><path d="M997.3 266.1l-5.2-5.2c-.6-.6-.6-1.7 0-2.3l5.2-5.2c.6-.6 1.7-.6 2.3 0l5.2 5.2c.6.6.6 1.7 0 2.3l-5.2 5.2c-.7.7-1.7.7-2.3 0z" opacity=".25"/></g><path d="M487.4 106.7l-10-10c-.2-.2-.2-.6 0-.9l10-10c.2-.2.6-.2.9 0l10 10c.2.2.2.6 0 .9l-10 10c-.2.2-.6.2-.9 0zM824 38.5l-9-9c-.2-.2-.2-.6 0-.9l9-9c.2-.2.6-.2.9 0l9 9c.2.2.2.6 0 .9l-9 9c-.2.3-.6.3-.9 0zM10.4 71.7l-8.8-8.8c-.2-.2-.2-.6 0-.9l8.8-8.8c.2-.2.6-.2.9 0l8.8 8.8c.2.2.2.6 0 .9l-8.8 8.8c-.3.2-.7.2-.9 0z" stroke="#FFDE00" opacity=".25"/><g opacity=".25" stroke="#FFDE00"><path d="M1396.4 222.4l-13.1-13.1c-.2-.2-.2-.6 0-.9l13.1-13.1c.2-.2.6-.2.9 0l13.1 13.1c.2.2.2.6 0 .9l-13.1 13.1c-.3.3-.6.3-.9 0z"/><path d="M1395.6 234.4l-9.3-9.3c-.2-.2-.2-.6 0-.9l9.3-9.3c.2-.2.6-.2.9 0l9.3 9.3c.2.2.2.6 0 .9l-9.3 9.3c-.2.3-.6.3-.9 0z"/></g><path d="M1304.5 49.2l-7.7-7.7c-.2-.2-.2-.6 0-.9l7.7-7.7c.2-.2.6-.2.9 0l7.7 7.7c.2.2.2.6 0 .9l-7.7 7.7c-.2.3-.6.3-.9 0z" stroke="#FFDE00" opacity=".25"/><path d="M419.9 45.3l-11.2-11.2c-.2-.2-.2-.6 0-.9L419.9 22c.2-.2.6-.2.9 0L432 33.2c.2.2.2.6 0 .9l-11.2 11.2c-.3.2-.6.2-.9 0zm118.3 289.3l-8.8-8.8c-.2-.2-.2-.6 0-.9l8.8-8.8c.2-.2.6-.2.9 0l8.8 8.8c.2.2.2.6 0 .9l-8.8 8.8c-.3.2-.6.2-.9 0zm813.9-234.8l-7.7-7.7c-.2-.2-.2-.6 0-.9l7.7-7.7c.2-.2.6-.2.9 0l7.7 7.7c.2.2.2.6 0 .9l-7.7 7.7c-.3.2-.7.2-.9 0z" fill="#FFDE00" fill-rule="nonzero" opacity=".15"/><g fill-rule="nonzero" fill="#FFDE00"><path d="M1108.8 23.7l-5.9-5.9c-.2-.2-.2-.6 0-.9l5.9-5.9c.2-.2.6-.2.9 0l5.9 5.9c.2.2.2.6 0 .9l-5.9 5.9c-.3.2-.7.2-.9 0z"/><path d="M1108.1 18.9l-7.6-7.6c-.6-.6-.6-1.7 0-2.3l7.6-7.6c.6-.6 1.7-.6 2.3 0L1118 9c.6.6.6 1.7 0 2.3l-7.6 7.6c-.6.6-1.7.6-2.3 0z" opacity=".25"/></g><g fill-rule="nonzero" fill="#FFDE00"><path d="M354.1 378.4l-9.6-9.6c-.2-.2-.2-.6 0-.9l9.6-9.6c.2-.2.6-.2.9 0l9.6 9.6c.2.2.2.6 0 .9l-9.6 9.6c-.3.2-.7.2-.9 0z"/><path d="M353.4 371.4l-13.1-13.1c-.6-.6-.6-1.7 0-2.3l13.1-13.1c.6-.6 1.7-.6 2.3 0l13.1 13.1c.6.6.6 1.7 0 2.3l-13.1 13.1c-.7.6-1.7.6-2.3 0z" opacity=".25"/></g><g fill-rule="nonzero" fill="#FFDE00"><path d="M1148.6 438.9l-5.8-5.8c-.2-.2-.2-.6 0-.9l5.8-5.8c.2-.2.6-.2.9 0l5.8 5.8c.2.2.2.6 0 .9l-5.8 5.8c-.3.2-.7.2-.9 0z"/><path d="M1147.9 434.2l-7.5-7.5c-.6-.6-.6-1.7 0-2.3l7.5-7.5c.6-.6 1.7-.6 2.3 0l7.5 7.5c.6.6.6 1.7 0 2.3l-7.5 7.5c-.7.6-1.7.6-2.3 0z" opacity=".25"/></g><g transform="translate(7 24)"><path d="M192.6 24.3v13" stroke="#DDD"/><circle stroke="#DDD" cx="192.6" cy="21.3" r="3"/><circle stroke="#DDD" cx="204.3" cy="9.6" r="3"/><circle stroke="#DDD" cx="213" cy="18.3" r="3"/><circle stroke="#DDD" cx="224.6" cy="6.6" r="3"/><circle stroke="#DDD" cx="233.3" cy="15.3" r="3"/><circle stroke="#DDD" cx="244.8" cy="3.7" r="3"/><circle fill="#CCC" fill-rule="nonzero" opacity=".29" cx="192.6" cy="21.3" r="3"/><circle fill="#CCC" fill-rule="nonzero" opacity=".29" cx="204.3" cy="9.6" r="3"/><circle fill="#CCC" fill-rule="nonzero" opacity=".29" cx="213" cy="18.3" r="3"/><circle fill="#CCC" fill-rule="nonzero" opacity=".29" cx="224.6" cy="6.6" r="3"/><circle fill="#CCC" fill-rule="nonzero" opacity=".29" cx="233.3" cy="15.3" r="3"/><circle fill="#CCC" fill-rule="nonzero" opacity=".29" cx="244.8" cy="3.7" r="3"/><path d="M194.8 19.2l7.4-7.5m4.3.6l4.3 4m4.2-.2l7.5-7.3m4 .1l4.7 4.2m4.3.2l7.3-7.4m-38.5 6.7l.1 24.7m8.6-16v15.6m11.6-27.3v27.3m8.7-18.6v18.6m11.5-30.3l.1 30.3m-52.3.4h52.3" stroke="#DDD"/><g transform="translate(76 257)" stroke="#DDD"><circle transform="rotate(-.564 10.508 6.019)" cx="10.508" cy="6.019" r="5.1"/><path d="M10.6 14.3C5 14.4.4 19 .5 24.6l20.4-.2c-.1-5.6-4.7-10.1-10.3-10.1z"/><path d="M27.2 10.1c10.6-.1 19.3 8.4 19.4 19 .1 10.6-8.4 19.3-19 19.4-10.6.1-19.3-8.4-19.4-19M21.7 11c.7-.2 1.5-.4 2.3-.6m3.3 14.4l.1 8.5m4.3-4.3l-8.6.1"/></g><path stroke="#FFF" d="M309.6 136.7l-55.3-34.1 55.3-34.1 55.2 34.1zm82.5 77.3l-52.9 33.8v-61.4l53-34zm-164.2 0l52.9 33.8v-61.4l-53-34z"/><path stroke="#FFF" d="M309.6 169.6l-55.3-34.1 55.3-34.1 55.2 34.1zm55.2 31.4l-52.9 33.9v-61.5l53.1-33.9zm-110.2 0l52.9 33.9v-61.5l-53-33.9zM110.9 35.6s-9.9-19.4-29-19.1c-7.1 17.8 7.5 33.9 7.5 33.9-3.2 8-.7 13 .4 14.6.2.4.7.4 1.1.2l11-7.6c2.3 2.3 6.1 2.8 8.9.8 2.8-1.9 3.7-5.6 2.4-8.6l11-7.6c.4-.2.4-.7.2-1.1-1.1-1.5-4.9-5.6-13.5-5.5z"/><circle stroke="#FFF" transform="rotate(-34.57 95.773 36.727)" cx="95.773" cy="36.727" r="3.7"/><circle fill="#CCC" fill-rule="nonzero" opacity=".29" transform="rotate(-34.57 95.773 36.727)" cx="95.773" cy="36.727" r="3.7"/><path d="M124.5 76.6l-10-7.7c-1.4-1.1-2-2.8-1.8-4.5l.5-3.1c.1-.4.5-.7.9-.6l3.1.6c1.7.3 3.1 1.6 3.6 3.2l3.7 12.1z" stroke="#FFF"/><path d="M124.5 76.6l-10-7.7c-1.4-1.1-2-2.8-1.8-4.5l.5-3.1c.1-.4.5-.7.9-.6l3.1.6c1.7.3 3.1 1.6 3.6 3.2l3.7 12.1z" fill="#CCC" fill-rule="nonzero" opacity=".29"/><g transform="translate(202 276)" stroke="#DDD"><circle stroke-dasharray="4" cx="24.3" cy="24.3" r="23.7"/><g transform="translate(5 5)" opacity=".8"><circle cx="19.3" cy="19.3" r="18.6"/><path d="M.7 19.3h37M4.7 31c9.7-3.7 19.4-3.7 28.9 0M4.7 8.1c9.5 3.8 19.1 3.8 28.9 0"/><ellipse cx="18.8" cy="19.3" rx="7.3" ry="18.6"/></g></g><path d="M244.8 29c19.7 9.1 37.1 22.5 50.9 38.9M112 34.2c21.2-11.9 45.6-18.7 71.6-18.7 4.8 0 9.5.2 14.1.7M40.2 132.4c6.6-32.2 23.7-60.5 47.6-81.2m-8 213.9C59 244.2 44.5 217 39.3 186.6m164.2 120.3c-6.5.9-13.2 1.3-19.9 1.3-22.4 0-43.7-5-62.6-14m185.2-52.4c-14.1 21.6-33.8 39.2-57 50.9M232.1 52.5c16.2 7.5 30.5 18.5 41.9 32M122.8 56.9c17.4-9.8 37.5-15.4 58.9-15.4 3.9 0 7.8.2 11.6.6M63.7 137.6c5.4-26.5 19.5-49.8 39.2-66.8m-6.6 176c-17.1-17.2-29.1-39.6-33.3-64.6m135.1 99c-5.4.7-10.8 1.1-16.4 1.1-18.4 0-35.9-4.1-51.5-11.6m139.9-27.1c-9.8 10.6-21.4 19.4-34.4 25.9" opacity=".64" stroke="#DDD" stroke-dasharray="4"/><path stroke="#DDD" d="M29 132.4h45.3v54.1H3V152"/><path d="M3 152c2.9 4.4 7.9 7.3 13.6 7.3 9 0 16.3-7.3 16.3-16.3 0-4-1.5-7.8-3.9-10.6" stroke="#DDD"/><circle stroke="#DDD" cx="16.6" cy="143" r="16.3"/><path fill="#FFF" fill-rule="nonzero" opacity=".15" d="M15.899 169.135v11h-3.1v-11zm6.399.001v11h-3.1v-11z"/><g opacity=".2"><path d="M67.9 180.4H34.5" stroke="#FFF" opacity=".4"/><path fill="#FFF" fill-rule="nonzero" opacity=".4" d="M41.07 180.112h-6.5v-18.8h6.5zm8.899-.041h-6.5v-14.4h6.5zm9 .029h-6.5v-9.4h6.5zm8.899.014h-6.5v-4.3h6.5z"/></g><path d="M16.6 159.3C7.6 159.3.3 152 .3 143l16.4-.1-.1 16.4z" fill="#FFF" fill-rule="nonzero" opacity=".15"/><path d="M16.6 159.3l.1-16.3 11.5 11.5c-3.1 3-7.1 4.8-11.6 4.8z" fill="#FFF" fill-rule="nonzero" opacity=".04"/></g><g transform="translate(1063 67)"><path d="M165 19.7c-33-9-69.8-2.5-98.4 20.7-7.9 6.4-14.7 13.7-20.3 21.6m190.3 19.2c-3.8-8.6-8.9-16.9-15.1-24.6-13.9-17.1-31.9-29-51.4-35.4M228.4 186c15.5-23.9 21-52.8 15.9-80.3M120.6 235.1c29.2 4.1 60-3.5 84.7-23.5 3.8-3.1 7.3-6.4 10.6-9.8M27.1 108.5c-4.8 29.8 2.7 61.5 23.2 86.8 10 12.3 22 21.9 35.3 28.7" stroke="#DDD" stroke-dasharray="4" opacity=".25"/><path d="M160.2 37.1c-27.6-7.5-58.3-2.1-82.3 17.3-6.6 5.4-12.3 11.4-17 18m159.2 16.1c-3.2-7.2-7.4-14.1-12.6-20.5-11.6-14.3-26.6-24.3-43-29.6m48.7 137.8c13-20 17.6-44.1 13.3-67.2M123.1 217.2c24.4 3.4 50.1-2.9 70.8-19.6 3.2-2.6 6.1-5.3 8.9-8.2M45 111.4c-4 24.9 2.2 51.4 19.4 72.6 8.3 10.3 18.4 18.3 29.5 24" stroke="#DDD" stroke-dasharray="4" opacity=".25"/><path d="M168.9 39.7v-4.9c-2.8 0-5.7-.9-7.4-2.1l1.1-3.2c1.7 1.2 4.3 2.1 7 2 3.4 0 5.7-2 5.7-4.8 0-2.7-1.9-4.3-5.5-5.7-4.9-1.9-8-4.1-8-8.3 0-4 2.8-7.1 7.3-7.8V0h3v4.7c2.9.1 4.9.8 6.3 1.7l-1.2 3.2c-1-.6-3-1.6-6.1-1.6-3.7 0-5.1 2.3-5.1 4.2 0 2.5 1.8 3.8 6 5.5 5 2 7.5 4.5 7.5 8.8 0 3.8-2.6 7.4-7.6 8.3v5l-3-.1zm54.6 53c.1-3.3 1.4-6.3 3.7-8.6 5-4.9 13.5-5 18.5 0 .9.9 1.7 2 2.3 3.2 0 .1.6 1.5.6 1.5 1-.4 2.2-.7 3.4-.7 3.1 0 6.7 2.1 7.6 5.2 0 0 .2.8.3.8 1.8-.1 3.7.5 5 1.8 1.1 1.1 1.6 2.8 1.5 4.4-.2 1.7-1.1 3.2-2.3 4.3-.3.3-.6.5-1 .8-.2.1-.7.6-1 .6l-39.1-.4c-2-.7-3.9-2.2-4.3-5.5-.5-5.5 4.8-7.4 4.8-7.4zm5.3-5.8c-1.3 1.5-2.3 3.3-2.9 5.3m7.6-8.7c-1.4.6-2.6 1.4-3.7 2.4m30 11.4c.3-.8.4-1.9.1-3.2m-2.6 5.9s.9-.3 1.7-1.2" opacity=".8" stroke="#FFF"/><path stroke="#FFF" d="M200.5 183.6l39.9 4.8-19.9 18.8z"/><path fill="#CCC" fill-rule="nonzero" opacity=".29" d="M200.5 183.6l32.5 11.6-5.7 5.3z"/><path stroke="#FFF" d="M233.2 195.3l-1.2 13.1-8-4.5z"/><path fill="#CCC" fill-rule="nonzero" opacity=".29" d="M233.2 195.3l-1.2 13.1-8-4.5z"/><path d="M200.5 183.6l26.8 16.9m5.8-5.3l-32.6-11.6m26.8 16.9l4.7 7.9" stroke="#FFF"/><g opacity=".8" stroke="#FFF"><path d="M102.2 237.8c-.2.4-.3.7-.5 1l2.1 1.7-2.1 2.6-2.1-1.7a9.8 9.8 0 0 1-4.4 2.3l.3 2.7-3.3.3-.3-2.7c-1.7-.1-3.3-.6-4.7-1.5l-1.7 2.1-2.6-2.1 1.7-2.1a9.8 9.8 0 0 1-2.3-4.4l-2.7.3-.3-3.3 2.7-.3c.1-1.7.6-3.3 1.5-4.7l-2.1-1.7 2.1-2.6 2.1 1.7a9.8 9.8 0 0 1 4.4-2.3l-.3-2.7 3.3-.3"/><path d="M91.5 228c-2.8.5-4.8 3.1-4.5 6 .3 3.1 3 5.3 6 5 1.6-.1 3-1 3.9-2.1"/><g transform="translate(93 208)"><path d="M1.1 19.1l-.4-3.7 3-.3c.1-1.9.7-3.7 1.6-5.3L3 7.9 5.4 5l2.3 1.9c1.4-1.2 3-2.1 4.9-2.6l-.3-3L16 .9l.3 3c1.9.1 3.7.7 5.3 1.6l1.9-2.3 2.9 2.4L24.5 8c1.2 1.4 2.1 3 2.6 4.9l3-.3.4 3.7-3 .3c-.1 1.9-.7 3.7-1.6 5.3l2.4 1.9-2.4 2.9-2.4-1.9c-1.4 1.2-3 2.1-4.9 2.6l.3 3-3.7.4-.3-3c-1.9-.1-3.7-.7-5.3-1.6l-1.9 2.3-2.9-2.4 1.9-2.3c-1.2-1.4-2.1-3-2.6-4.9l-3 .2z"/><circle transform="rotate(-5.71 15.55 15.689)" cx="15.551" cy="15.689" r="6.2"/></g></g><circle stroke="#FFF" opacity=".8" transform="rotate(-20.432 33.22 84.851)" cx="33.221" cy="84.851" r="15.8"/><path d="M64.5 72.6l-12.9 4.8c-4-10-15.2-15-25.4-11.2C15.9 70 10.7 81.5 14.5 91.8c3.8 10.3 15.3 15.5 25.6 11.7.2-.1.5-.2.7-.3l4.5 12.1c-.1 0-.1 0-.2.1C28 121.8 9 113.1 2.6 96-3.8 78.9 4.9 59.9 22 53.5c17.1-6.5 36.1 2.1 42.5 19.1z" stroke="#FFF" opacity=".8"/><path d="M40.9 103.2c9.9-4.1 14.8-15.3 11-25.4-.1-.2-.1-.3-.2-.5 2.3-.8 4.5-1.7 6.8-2.5.1.2.1.3.2.5 5.2 13.9-1.7 29.2-15.3 34.7-.8-2.2-1.6-4.4-2.5-6.8z" stroke="#FFF" opacity=".8"/></g></g></svg>