<svg id="Layer_1" xmlns="http://www.w3.org/2000/svg" viewBox="0 0 800 600"><script xmlns="" type="text/javascript" charset="utf-8" id="zm-extension"/><style>.st0,.st1{fill:#fff;stroke:#333;stroke-miterlimit:10}.st1{fill:none;stroke-dasharray:4}.st2{opacity:.1;fill:#11172d}.st3{fill:#fedd00}.st4{fill:none;stroke:#333;stroke-miterlimit:10}.st5{fill:#333}.st12,.st6,.st7{fill:none;stroke-miterlimit:10}.st6{stroke-linecap:round;stroke:#333}.st7{stroke:#fedd00}.st12{stroke:#ffde00}</style><path class="st0" d="M300.1 347.8H315v10.6h-14.9z"/><path class="st1" d="M371.6 297.2h200.1v66.3H371.6z"/><path class="st1" d="M250.2 361.6h211.1v69.7H250.2z"/><path class="st2" d="M414.4 514.4l-123.2-71.3 119.1-67.4 115.4 69.4z"/><path class="st0" d="M414.4 502.5l-123.2-71.4 119.1-67.3 115.4 69.3z"/><path class="st2" d="M414.4 444.8l-123.2-71.4 119.1-67.3 115.4 69.3z"/><path class="st0" d="M414.4 433.1l-123.2-71.3 119.1-67.3 115.4 69.3z"/><path class="st0" d="M413.4 416.5l-94-54.5 90.5-51.1 88.4 53.1z"/><path class="st1" d="M349 464.6v61.5"/><circle class="st3" cx="250.2" cy="431.3" r="5"/><circle class="st3" cx="349" cy="526.1" r="5"/><path class="st4" d="M473.6 348.9l-85.2 52.9m39.9-79.2l-84.8 52.8m106.6-39.7l-85 52.8"/><path class="st1" d="M263.9 225.7h182.9V297H263.9z"/><path class="st2" d="M414.4 378.5l-123.2-71.4 119.1-67.3 115.4 69.4z"/><path class="st0" d="M412.3 368.5l-123.2-71.4 119.1-67.3 115.5 69.3z"/><path class="st0" d="M344.9 296.8l-15.4-8.9 45-27.2 14.3 8.7z"/><circle class="st5" cx="571.7" cy="363.6" r="3.6"/><circle class="st5" cx="250.5" cy="361.6" r="3.6"/><circle class="st3" cx="571.7" cy="297.4" r="5"/><circle class="st3" cx="263.9" cy="296.8" r="5"/><path class="st4" d="M400.9 304.4L365.3 284"/><path class="st6" d="M469.2 298.5L433.6 278"/><path class="st4" d="M398.7 338.3l-44-25.2m36.5-29.3L349 310.9"/><path class="st6" d="M426 295.4L384.6 321m84.6-22.4l-62.6 38.7"/><path class="st0" d="M386.8 291.3l-9.1 5.7-6.6-3.8 9.1-5.7zm10.3 26l-9.1 5.6-6.6-3.8 9.1-5.7zm12.8 21.9l-9.2 5.7-6.6-3.8 9.2-5.7zm49-30.4l-9.1 5.7-6.6-3.8 9.1-5.7z"/><path class="st3" d="M346.1 306.6h9.1v6.5h-9.1zm54.8-2.2h9.1v6.5h-9.1zm22.8 16.2h9.1v6.5h-9.1z"/><path class="st0" d="M448.2 285.8h9.1v6.5h-9.1z"/><path class="st6" d="M426 295.4L390.3 275"/><path class="st2" d="M414.4 309.4L291.2 238l119.1-67.3L525.7 240z"/><path class="st1" d="M401 158.6h165.3v69.2H401z"/><path class="st0" d="M414.4 297.2l-123.2-71.3 119.1-67.3 115.4 69.3z"/><path class="st0" d="M453.2 258.4l-55-32.9 52.1-30.9 53.6 33.1zm-41 24.7l-55-32.9 36.1-21.6 53.5 33.2z"/><path class="st7" d="M349.6 245.6l-36.7-21.3 35.5-20 34.3 20.6z"/><path class="st4" d="M374.5 260.7l35.7-21.6m-17.7 32.2l35.1-21.4"/><path class="st3" d="M458 249.5l-6.2 3.5-6.6-3.8 6.2-3.5zm-12.1-7.3l-6.2 3.5-6.6-3.8 6.2-3.5zm-12.2-7.3l-6.2 3.5-6.6-3.8 6.2-3.5zm-12.8-7.3l-6.2 3.5-6.6-3.8 6.2-3.5z"/><path class="st4" d="M455.4 243.1l31.6-19.5m-26.9 21.1l14.1-8.8m-31.5-.3l31.7-19.6m-27.3 21.3l25.1-15.5m-103.3-14l31.6-19.6m-26.6 22.3l25.2-15.6m-39.3 7.1l31.7-19.5m-27.6 22.6l25.1-15.5m42 39.8l31.6-19.6m-27.2 21.3l17.3-10.7m-26.2 3.4l17.4-10.7"/><path class="st7" d="M348.4 204.3l1.2 41.3m-36.7-21.3l69.8.6"/><circle class="st5" cx="263.9" cy="224.9" r="3.6"/><circle class="st5" cx="566.3" cy="227.4" r="3.6"/><circle class="st5" cx="451.6" cy="51.9" r="3.6"/><circle class="st3" cx="566.3" cy="158.6" r="5"/><path class="st0" d="M343.5 362.7h7.1v-11.2"/><path class="st7" d="M385.7 389.7h7.1v-11.2m17.1 26.7h7.1V394"/><ellipse class="st3" cx="393.8" cy="462.4" rx="9.9" ry="7.2"/><ellipse class="st4" cx="479.9" cy="421.6" rx="5.7" ry="4.2"/><ellipse class="st4" cx="411.2" cy="484.8" rx="4.5" ry="3.3"/><ellipse class="st4" cx="489.7" cy="436.8" rx="5.7" ry="4.2"/><ellipse transform="rotate(-21.813 354.465 431.17)" class="st4" cx="354.4" cy="431.1" rx="13.3" ry="6.8"/><path class="st4" d="M426.1 434.7l20.7-12.9 19 11.2-20.5 12.9zm33.1-5.6l14.9-7.5m-8.3 11.4l18.2 2.8m-90.2 22.8v6.1m-4.4-4.2l8.7 2.5m-21.3-6.1c-19.6-.1-20.3-15.6-20.3-15.6"/><path class="st4" d="M373.6 452.6l3.8 4.3-3.2 3.5m20.5-29.3l-.9 18.6m-3.2-14.5l4.1-4.6 2.8 5.3m13 32.1s20.9 5.9 27.8-18.3"/><path class="st4" d="M433.1 451.6l5.2-2.4 2.3 4.6m33.5-5.8l-9.7 6.1m-45.6-9.9l-12.7 7.9m15-3.8l-11.4 6.9m-7.9 16.3l5.7 7.9"/><path class="st2" d="M414.4 240l-123.2-71.3 119.1-67.4 115.4 69.4z"/><path class="st0" d="M414.4 227.9l-123.2-71.4 119.1-67.3 115.4 69.4z"/><path class="st4" d="M334.4 132.1l121.1 70.2m-6.2-19.8l-7.8 4.4-8.3-4.8 7.8-4.4zm-15.2-9.2l-7.9 4.4-8.3-4.8 7.9-4.4zm-15.4-9.2l-7.8 4.4-8.3-4.8 7.8-4.4zm-16.1-9.2l-7.9 4.4-8.3-4.8 7.9-4.4zm43.4 19.6l39.9-24.6m-34 26.6l17.8-11M358.9 183l25.4-15.8m45.7-2.1l39.9-24.7m-34.3 26.8l31.7-19.6m-52 9.6l39.9-24.7m-34.4 26.8l21.9-13.5m-74.2 41.1l21.9-13.5m-11.6 22.5l25.4-15.7m-15.8 19.7l21.8-13.6m-11.3 22l25.5-15.7m-15.8 19.7l21.8-13.5m-31-50.8l39.9-24.7m-34.4 26.8l23.5-14.5"/><path class="st3" d="M414.7 104.3l-52.9 31.6-3.7-2 53.1-31.7zm-4.9 16.4l-35.2 21.1-4-1.8 35-21z"/><path class="st4" d="M373.8 155.1l-43.5 24.2"/><path class="st1" d="M451.4 113.9v-62"/><ellipse class="st4" cx="330.6" cy="154.7" rx="8" ry="5.8"/><path class="st4" d="M337.2 175.5l23-12.9c-2.5-3.3-7.5-5.2-12.9-5.2-8.1 0-15 4.9-14.6 11 .3 2.8 1.9 5.1 4.5 7.1z"/><radialGradient id="SVGID_1_" cx="-2697.77" cy="491.845" r="7.813" gradientTransform="scale(-1 1) rotate(7.99 .094 15374.155)" gradientUnits="userSpaceOnUse"><stop offset="0" stop-color="#2e2e2e" stop-opacity=".04"/><stop offset=".312" stop-color="#252525" stop-opacity=".09"/><stop offset=".825" stop-color="#0c0c0c" stop-opacity=".172"/><stop offset="1" stop-color="#020202" stop-opacity=".2"/></radialGradient><circle cx="602.9" cy="261.3" r="7.8" opacity=".5" fill="url(#SVGID_1_)"/><radialGradient id="SVGID_2_" cx="-2292.931" cy="498.173" r="7.813" gradientTransform="scale(-1 1) rotate(7.99 .094 15374.155)" gradientUnits="userSpaceOnUse"><stop offset="0" stop-color="#2e2e2e" stop-opacity=".04"/><stop offset=".312" stop-color="#252525" stop-opacity=".09"/><stop offset=".825" stop-color="#0c0c0c" stop-opacity=".172"/><stop offset="1" stop-color="#020202" stop-opacity=".2"/></radialGradient><circle cx="202.9" cy="323.9" r="7.8" opacity=".5" fill="url(#SVGID_2_)"/><radialGradient id="SVGID_3_" cx="-2392.548" cy="272.686" r="7.813" gradientTransform="scale(-1 1) rotate(7.99 .094 15374.155)" gradientUnits="userSpaceOnUse"><stop offset="0" stop-color="#2e2e2e" stop-opacity=".04"/><stop offset=".312" stop-color="#252525" stop-opacity=".09"/><stop offset=".825" stop-color="#0c0c0c" stop-opacity=".172"/><stop offset="1" stop-color="#020202" stop-opacity=".2"/></radialGradient><circle cx="270.2" cy="86.7" r="7.8" opacity=".5" fill="url(#SVGID_3_)"/><radialGradient id="SVGID_4_" cx="-2624.41" cy="714.819" r="6.314" gradientTransform="scale(-1 1) rotate(7.99 .094 15374.155)" gradientUnits="userSpaceOnUse"><stop offset="0" stop-color="#2e2e2e" stop-opacity=".04"/><stop offset=".312" stop-color="#252525" stop-opacity=".09"/><stop offset=".825" stop-color="#0c0c0c" stop-opacity=".172"/><stop offset="1" stop-color="#020202" stop-opacity=".2"/></radialGradient><circle cx="561.3" cy="492.4" r="6.3" opacity=".5" fill="url(#SVGID_4_)"/><circle class="st12" cx="638.9" cy="468.7" r="8.5"/><circle class="st12" cx="534.1" cy="89.2" r="8.5"/><circle class="st12" cx="268.9" cy="499.6" r="8.5"/><circle cx="178.8" cy="283.1" r="9.8" opacity=".4" fill="#ffde00"/><circle class="st12" cx="582.3" cy="419.8" r="4.6"/><circle cx="234.2" cy="124.1" r="4.6" fill="#ffde00"/></svg>