<svg id="Layer_1" xmlns="http://www.w3.org/2000/svg" viewBox="0 0 1974 600"><script xmlns="" type="text/javascript" charset="utf-8" id="zm-extension"/><style>.st0{stroke:#fff}.st0,.st1,.st3{fill:none;stroke-miterlimit:10}.st1{stroke:#fedd00}.st3,.st4{stroke:#fff}.st3{opacity:.8}.st4{stroke-linejoin:round;fill:none;stroke-miterlimit:10}.st6{stroke-linecap:round}.st6,.st7{opacity:.8;fill:none;stroke:#ddd;stroke-miterlimit:10}.st8{fill:#fedd00}</style><path class="st0" d="M1774.7 205.3h-63.4c-7.1 0-12.9-5.8-12.9-12.9v-62c0-8 6.5-14.5 14.5-14.5h61.7c7.1 0 12.9 5.8 12.9 12.9v63.6c.1 7.1-5.7 12.9-12.8 12.9z"/><path class="st0" d="M1769.2 160.3c-.1-4.5-1.8-8.7-5-11.9-6.8-6.7-18.5-7-25.4-.2-1.3 1.3-2.4 2.7-3.2 4.3-.1.1-.9 2-.9 2-1.4-.6-3-1-4.6-1-4.3 0-9.2 2.7-10.5 7 0 .1-.4 1.2-.4 1.2-2.5-.1-5 .6-6.8 2.3-1.6 1.5-2.2 3.8-2.1 6 .2 2.4 1.4 4.4 3.2 6 .4.4.9.7 1.3 1.1.3.2 1 .9 1.3.9h53.6c2.8-.9 5.4-3 5.9-7.5.9-7.5-6.4-10.2-6.4-10.2zm-7.2-8c1.8 2.1 3.2 4.6 3.9 7.3m-10.3-12.1c1.9.8 3.6 2 5.1 3.4m-41.4 15.2c-.4-1.1-.5-2.6-.1-4.4m3.6 8.1s-1.3-.5-2.3-1.7M393.2 456.3h-63.4c-7.1 0-12.9-5.8-12.9-12.9v-62c0-8 6.5-14.5 14.5-14.5h61.7c7.1 0 12.9 5.8 12.9 12.9v63.6c.1 7.1-5.7 12.9-12.8 12.9zm1472.7 64.2h-63.4c-7.1 0-12.9-5.8-12.9-12.9v-62c0-8 6.5-14.5 14.5-14.5h61.7c7.1 0 12.9 5.8 12.9 12.9v63.6c.1 7.1-5.7 12.9-12.8 12.9zm-305.6-86.6h-63.4c-7.1 0-12.9-5.8-12.9-12.9v-62c0-8 6.5-14.5 14.5-14.5h61.7c7.1 0 12.9 5.8 12.9 12.9V421c.1 7.1-5.7 12.9-12.8 12.9zM196.1 217.2h-42.3c-3.6 0-6.4-2.9-6.4-6.4V170c0-4.5 3.6-8.1 8.1-8.1h40.6c3.6 0 6.4 2.9 6.4 6.4v42.4c.1 3.6-2.8 6.5-6.4 6.5zm354.1-10.4h-42.7c-3.6 0-6.4-2.9-6.4-6.4v-41.2c0-4.5 3.6-8.1 8.1-8.1h41.1c3.6 0 6.4 2.9 6.4 6.4v42.9c0 3.5-2.9 6.4-6.5 6.4z"/><path class="st1" d="M1832 503v-6.7c-3.9-.1-7.8-1.3-10.2-2.9l1.6-4.4c2.4 1.6 5.8 2.9 9.6 2.9 4.7 0 7.9-2.7 7.9-6.5 0-3.7-2.6-5.9-7.5-7.9-6.8-2.7-11-5.7-11-11.5 0-5.5 3.9-9.7 10-10.7v-6.7h4.1v6.4c4 .1 6.7 1.2 8.6 2.3l-1.7 4.4c-1.4-.8-4.1-2.3-8.4-2.3-5.1 0-7 3.1-7 5.7 0 3.5 2.5 5.2 8.2 7.6 6.8 2.8 10.3 6.2 10.3 12.2 0 5.2-3.7 10.2-10.5 11.3v6.9h-4z"/><circle cx="1528.6" cy="389.2" r="30.8" fill="none" stroke="#fff" stroke-miterlimit="10" stroke-dasharray="4.0254,4.0254"/><circle class="st3" cx="1528.6" cy="389.2" r="24.2"/><path class="st3" d="M1504.5 389.2h48.1m-42.8 15.1c12.6-4.8 25.2-4.8 37.6 0m-37.6-29.6c12.3 5 24.8 5 37.6 0"/><ellipse class="st3" cx="1528" cy="389.2" rx="9.5" ry="24.2"/><path class="st4" d="M156.3 178.6h37.4v21.8h-37.4z"/><path class="st4" d="M175 200.4h-18.7l9.4-8 6.1-5.2 3.2 1.7 3.3-1.7 6.1 5.2 9.3 8z"/><path class="st4" d="M175 178.6h18.7l-9.3 5.2-9.4 5.1-9.3-5.1-9.4-5.2z"/><ellipse transform="rotate(-45.001 528.88 178.174)" class="st0" cx="528.9" cy="178.2" rx="18.6" ry="18.6"/><path d="M528.9 167.2v11m8.4 0h-8.4" stroke-linecap="round" fill="none" stroke="#fff" stroke-miterlimit="10"/><path class="st0" d="M528.9 192.9v1.6m10.4-5.9l1.1 1.1m3.2-11.5h1.6m-5.9-10.5l1.1-1.1m-11.5-3.2v-1.6m-10.5 5.9l-1.1-1.1m-3.2 11.6h-1.6m5.9 10.4l-1.1 1.1"/><path class="st6" d="M1347.3 163.3h-35.5c-2.8 0-5-2.2-5-5v-35.7c0-2.8 2.2-5 5-5h35.5c2.8 0 5 2.2 5 5v35.7c0 2.8-2.3 5-5 5z"/><path class="st1" d="M1307 130h45"/><path class="st7" d="M1307 138.2h45m-45 8h45m-45 8.1h45m-40.2-22.4v.8m11.9-.8v.8m12.6-.8v.8m10.9-.8v.8"/><path class="st6" d="M1199.8 514.5h-43.5c-2.8 0-5-2.2-5-5v-43.7c0-2.8 2.2-5 5-5h43.5c2.8 0 5 2.2 5 5v43.7c0 2.7-2.2 5-5 5z"/><path class="st7" d="M1178 469.4h26.2m-26.2 12.7h26.2m-26.2 11.8h26.2m-26.2 12.7h26.2"/><circle class="st8" cx="1166.8" cy="475.2" r="1.4"/><circle class="st1" cx="1166.8" cy="475.2" r="3.5"/><circle class="st8" cx="1166.8" cy="487.7" r="1.4"/><circle class="st1" cx="1166.8" cy="487.7" r="3.5"/><circle class="st8" cx="1166.8" cy="500.1" r="1.4"/><circle class="st1" cx="1166.8" cy="500.1" r="3.5"/><path class="st6" d="M760 113.7h-35.5c-2.8 0-5-2.2-5-5V73.1c0-2.8 2.2-5 5-5H760c2.8 0 5 2.2 5 5v35.7c0 2.7-2.2 4.9-5 4.9z"/><path class="st1" d="M742.5 76.9l3.1 9.6h10.1c.2 0 .3.2.1.3l-8.2 5.9 3.1 9.6c.1.2-.1.3-.3.2l-8.2-5.9-8.2 5.9c-.2.1-.4 0-.3-.2l3.1-9.6-8.2-5.9c-.2-.1-.1-.3.1-.3H739l3.1-9.6c0-.1.3-.1.4 0zM337 390.2h47.6v42.6H337zm0 10.4h48m-39.5-13.2v6.1m32.4-6.1v6.1m-16.7-6.1v6.1M337 411.6h47.3M337 422.1h47.3m-35.8-21.3v32.1m12.7-32.1v32.1m12.4-32.1v32.1"/><path class="st0" d="M716.1 517.4h-63.4c-7.1 0-12.9-5.8-12.9-12.9v-62c0-8 6.5-14.5 14.5-14.5H716c7.1 0 12.9 5.8 12.9 12.9v63.6c.1 7.2-5.6 12.9-12.8 12.9z"/><path class="st0" d="M714.9 454.6L654 470.8l35 24.8zm-48.2 25.3l4.6 20.1 11.5-8.7zm48.2-25.3l-38 32.1m-10.1-7l48.1-25.1m-38 32.1l-5.6 13.3"/></svg>