<svg id="Layer_1" xmlns="http://www.w3.org/2000/svg" viewBox="0 0 800 600"><script xmlns="" type="text/javascript" charset="utf-8" id="zm-extension"/><style>.st1{opacity:.12;fill:#333}.st2,.st4{fill:#fff;stroke:#333;stroke-miterlimit:10}.st4{fill:none;stroke-dasharray:4}.st10{fill:#333}.st12,.st13{fill:none;stroke:#333;stroke-linejoin:round;stroke-miterlimit:10}.st13{fill:#fff}.st14{stroke:#394566}.st14,.st15,.st16{fill:none;stroke-miterlimit:10}.st15{stroke:#333}.st16{opacity:.61;stroke:#ffde00}.st17,.st19{fill:#ffde00}.st19{opacity:.69}.st22,.st27{fill:none;stroke:#ffde00;stroke-miterlimit:10}.st27{stroke:#333;stroke-width:2;stroke-linecap:square}</style><circle cx="404.3" cy="172.5" r="70" fill="none" stroke="#333" stroke-miterlimit="10" stroke-dasharray="3.9964,3.9964"/><ellipse transform="rotate(-44.846 404.265 173.72)" class="st1" cx="404.3" cy="173.7" rx="59" ry="59"/><ellipse transform="rotate(-44.846 404.265 173.72)" class="st2" cx="404.3" cy="173.7" rx="53.1" ry="53.1"/><linearGradient id="SVGID_1_" gradientUnits="userSpaceOnUse" x1="486.581" y1="97.271" x2="348.115" y2="221.412"><stop offset=".302" stop-color="#fedd00"/><stop offset=".536" stop-color="#feed76" stop-opacity=".776"/><stop offset=".735" stop-color="#fff9d4" stop-opacity=".585"/><stop offset=".824" stop-color="#fffef9" stop-opacity=".5"/><stop offset="1" stop-color="#fff"/></linearGradient><path d="M453.6 171.2c-.3-11.7-4.9-23.4-13.8-32.3-9.3-9.3-21.5-14-33.7-14v46.3h47.5z" fill="url(#SVGID_1_)"/><path class="st4" d="M519.7 420.9v67.6H253v-95.8"/><path class="st2" d="M362.1 282.2c-9.3 0-16.8 7.6-16.8 16.8v209.2c0 9.3 7.6 16.8 16.8 16.8h84.2c9.3 0 16.8-7.6 16.8-16.8V299c0-9.3-7.6-16.8-16.8-16.8h-84.2z"/><radialGradient id="SVGID_2_" cx="-2689.624" cy="391.268" r="9.326" gradientTransform="scale(-1 1) rotate(7.99 .094 15374.155)" gradientUnits="userSpaceOnUse"><stop offset="0" stop-color="#2e2e2e" stop-opacity=".04"/><stop offset=".312" stop-color="#252525" stop-opacity=".09"/><stop offset=".825" stop-color="#0c0c0c" stop-opacity=".172"/><stop offset="1" stop-color="#020202" stop-opacity=".2"/></radialGradient><circle cx="580.9" cy="162.9" r="9.3" opacity=".5" fill="url(#SVGID_2_)"/><radialGradient id="SVGID_3_" cx="-2228.137" cy="391.06" r="9.326" gradientTransform="scale(-1 1) rotate(7.99 .094 15374.155)" gradientUnits="userSpaceOnUse"><stop offset="0" stop-color="#2e2e2e" stop-opacity=".04"/><stop offset=".312" stop-color="#252525" stop-opacity=".09"/><stop offset=".825" stop-color="#0c0c0c" stop-opacity=".172"/><stop offset="1" stop-color="#020202" stop-opacity=".2"/></radialGradient><circle cx="123.9" cy="226.8" r="9.3" opacity=".25" fill="url(#SVGID_3_)"/><radialGradient id="SVGID_4_" cx="-2444.082" cy="272.079" r="9.326" gradientTransform="scale(-1 1) rotate(7.99 .094 15374.155)" gradientUnits="userSpaceOnUse"><stop offset="0" stop-color="#2e2e2e" stop-opacity=".04"/><stop offset=".312" stop-color="#252525" stop-opacity=".09"/><stop offset=".825" stop-color="#0c0c0c" stop-opacity=".172"/><stop offset="1" stop-color="#020202" stop-opacity=".2"/></radialGradient><circle cx="321.2" cy="79" r="9.3" opacity=".5" fill="url(#SVGID_4_)"/><radialGradient id="SVGID_5_" cx="-2768.38" cy="637.697" r="8.245" gradientTransform="scale(-1 1) rotate(7.99 .094 15374.155)" gradientUnits="userSpaceOnUse"><stop offset="0" stop-color="#2e2e2e" stop-opacity=".04"/><stop offset=".312" stop-color="#252525" stop-opacity=".09"/><stop offset=".825" stop-color="#0c0c0c" stop-opacity=".172"/><stop offset="1" stop-color="#020202" stop-opacity=".2"/></radialGradient><circle cx="693.1" cy="396" r="8.2" opacity=".5" fill="url(#SVGID_5_)"/><radialGradient id="SVGID_6_" cx="-2755.953" cy="626.242" r="13.896" gradientTransform="scale(-1 1) rotate(7.99 .094 15374.155)" gradientUnits="userSpaceOnUse"><stop offset="0" stop-color="#2e2e2e" stop-opacity=".04"/><stop offset=".312" stop-color="#252525" stop-opacity=".09"/><stop offset=".825" stop-color="#0c0c0c" stop-opacity=".172"/><stop offset="1" stop-color="#020202" stop-opacity=".2"/></radialGradient><circle cx="679.2" cy="386.4" r="13.9" opacity=".32" fill="url(#SVGID_6_)"/><path class="st2" d="M446.2 287.5H434v1.2c0 4.4-3.5 7.9-7.9 7.9h-44.4c-4.4 0-7.9-3.5-7.9-7.9v-1.2h-11.5c-6 0-10.9 4.9-10.9 11v209.6c0 6.1 4.9 11 10.9 11h83.9c6 0 10.9-4.9 10.9-11V298.5c.1-6.1-4.8-11-10.9-11z"/><path class="st10" d="M414.3 288.1h.4c.5 0 .9.4.9.9v.4c0 .5-.4.9-.9.9h-.4c-.5 0-.9-.4-.9-.9v-.4c0-.5.4-.9.9-.9zm-22.9.1h15.5c.4 0 .7.3.7.7v.3c0 .4-.3.7-.7.7h-15.5c-.4 0-.7-.3-.7-.7v-.3c0-.3.3-.7.7-.7z"/><path d="M457.2 298.8c0-2.1-.6-4-1.6-5.6L351.8 478.9v28.7c0 6 4.9 10.9 10.9 10.9h19.1l75.3-138.8v-80.9zm-65 219.7h19.7l45.3-82v-35.8z" opacity=".03" fill="#0c0c0c"/><path class="st12" d="M605.2 322.6l-24.3 12.8c.7.7 1.3 1.5 1.8 2.4m1.5 4.9l24.7-13c-1.1-.9-2-2.1-2.6-3.3"/><path class="st12" d="M582.8 337.8c-1.3-2.3-3.4-4.1-6.1-4.9-5.6-1.7-11.5 1.4-13.2 7-.6 1.9-.6 3.8-.2 5.6l8.4-4.4 2.8 1.7-.2 3.3-8.2 4.3c1.2 1.2 2.7 2.1 4.4 2.7 5.6 1.7 11.5-1.4 13.2-7 .4-1.2.5-2.3.5-3.5m22-16.2c1.2 2.5 3.5 4.5 6.3 5.4 5.6 1.7 11.5-1.4 13.2-7 .5-1.7.6-3.5.3-5.2l-8.2 4.3-2.8-1.7.2-3.3 8.3-4.4c-1.2-1.4-2.8-2.4-4.7-3-5.6-1.7-11.5 1.4-13.2 7-.4 1.3-.6 2.7-.4 4"/><path class="st13" d="M496 372.9h50.7v29.6H496z"/><path class="st13" d="M521.3 402.5H496l12.6-10.9 8.3-7.1 4.4 2.4 4.4-2.4 8.3 7.1 12.7 10.9z"/><path class="st13" d="M521.3 372.9h25.4l-12.7 7-12.7 7-12.7-7-12.6-7z"/><ellipse transform="matrix(1 -.00985 .00985 1 -4.045 1.728)" class="st14" cx="173.4" cy="411.5" rx="4.6" ry="4.6"/><path class="st14" d="M173.4 418.9c-5 0-9.1 4.2-9 9.2l18.2-.2c0-5-4.1-9-9.2-9z"/><path class="st14" d="M188.3 415.2c9.5-.1 17.2 7.5 17.3 17 .1 9.5-7.5 17.2-17 17.3-9.5.1-17.2-7.5-17.3-17m12.1-16.6c.7-.2 1.3-.4 2-.5m3 12.8l.1 7.7m3.8-3.9l-7.7.1"/><path class="st4" d="M598.1 361v83.4h-78.4"/><path class="st15" d="M504.1 299.8l4.6 2.7 2.2-3.7c2.6 1 5.2 1.3 7.9 1.1l1.1 4.2 5.2-1.4-1.1-4.2c2.4-1.1 4.6-2.7 6.3-4.8l3.7 2.2 2.7-4.6-3.7-2.2c1-2.6 1.3-5.3 1.1-7.9l4.2-1.1-1.4-5.2-4.2 1.1c-1.1-2.4-2.7-4.6-4.8-6.3l2.2-3.7-4.6-2.7-2.2 3.7c-2.6-1-5.2-1.3-7.9-1.1l-1.1-4.2-5.2 1.4 1.1 4.2c-2.4 1.1-4.6 2.7-6.3 4.8l-3.8-2.2-2.7 4.6 3.8 2.2c-1 2.5-1.3 5.2-1.1 7.8l-4.2 1.1 1.4 5.2 4.2-1.1c1.1 2.4 2.7 4.6 4.8 6.3l-2.2 3.8z"/><ellipse transform="rotate(-59.681 517.097 282.936)" class="st15" cx="517.1" cy="282.9" rx="8.9" ry="8.9"/><path class="st16" d="M539.8 276c1-1 1.9-2.3 2.5-3.6l3.2.9 1.1-4-3.2-.9c.3-2.1 0-4.2-.7-6.1l2.9-1.6-2-3.6-2.9 1.6c-1.3-1.6-2.9-2.9-4.8-3.8l.9-3.2-4-1.1-.9 3.2c-2.1-.3-4.2 0-6.1.7l-1.6-2.9-3.6 2 1.6 2.9c-1.1.9-2 1.9-2.8 3"/><path class="st16" d="M529.1 260.8c1.1-.4 2.3-.5 3.4-.2 2.8.8 4.4 3.7 3.6 6.5-.1.4-.3.8-.5 1.2"/><path class="st15" d="M343.4 413.3c-2.2-.3-4.5-.2-6.7.4l-1.9-4.7-5.8 2.3 1.9 4.7c-2.8 1.6-5 3.9-6.7 6.5l-4.7-2-2.5 5.7 4.7 2c-.8 3-.8 6.2-.1 9.3l-4.7 1.9 2.3 5.8 4.7-1.9c1.6 2.8 3.9 5 6.5 6.7l-2 4.7 5.7 2.5 2-4.7c2 .5 4.1.7 6.3.6"/><path class="st15" d="M335.1 440.3c-1.5-.9-2.7-2.2-3.4-4-1.6-4.1.4-8.8 4.5-10.4.6-.3 1.3-.4 2-.5"/><circle class="st17" cx="501.4" cy="488.5" r="5.2"/><circle class="st17" cx="253" cy="488.5" r="5.2"/><circle class="st10" cx="519.7" cy="414.9" r="3.5"/><circle class="st10" cx="598.1" cy="357.6" r="3.5"/><circle class="st10" cx="253" cy="389.8" r="3.5"/><circle class="st10" cx="217.2" cy="430.9" r="3.5"/><circle class="st17" cx="598.1" cy="444.4" r="4.6"/><radialGradient id="SVGID_7_" cx="-2268.716" cy="668.727" r="7.537" gradientTransform="scale(-1 1) rotate(7.99 .094 15374.155)" gradientUnits="userSpaceOnUse"><stop offset="0" stop-color="#2e2e2e" stop-opacity=".04"/><stop offset=".312" stop-color="#252525" stop-opacity=".09"/><stop offset=".825" stop-color="#0c0c0c" stop-opacity=".172"/><stop offset="1" stop-color="#020202" stop-opacity=".2"/></radialGradient><circle cx="202.6" cy="496.1" r="7.5" opacity=".5" fill="url(#SVGID_7_)"/><circle class="st19" cx="667.9" cy="225.2" r="4.7"/><circle class="st19" cx="174.2" cy="102.5" r="3.4"/><circle cx="657.4" cy="217" r="11.9" opacity=".39" fill="none" stroke="#ffde00" stroke-miterlimit="10"/><radialGradient id="SVGID_8_" cx="-2313.924" cy="372.484" r="14.551" gradientTransform="scale(-1 1) rotate(7.99 .094 15374.155)" gradientUnits="userSpaceOnUse"><stop offset="0" stop-color="#2e2e2e" stop-opacity=".04"/><stop offset=".312" stop-color="#252525" stop-opacity=".09"/><stop offset=".825" stop-color="#0c0c0c" stop-opacity=".172"/><stop offset="1" stop-color="#020202" stop-opacity=".2"/></radialGradient><circle cx="206.2" cy="196.5" r="14.6" opacity=".5" fill="url(#SVGID_8_)"/><circle class="st22" cx="538.2" cy="102.5" r="5.5"/><circle cx="240.9" cy="120.6" r="4.9" opacity=".69" fill="none" stroke="#ffde00" stroke-miterlimit="10"/><circle cx="165.5" cy="290.2" r="5.5" opacity=".5" fill="none" stroke="#ffde00" stroke-miterlimit="10"/><circle class="st22" cx="283" cy="226.8" r="10.9"/><circle class="st22" cx="123.9" cy="298.1" r="11.8"/><ellipse transform="rotate(-60.058 240.467 326.347)" class="st2" cx="240.5" cy="326.3" rx="20.1" ry="19.7"/><path class="st4" d="M246.4 303.6c2 .5 3.9 1.3 5.8 2.3 4.8 2.7 8.1 6.9 9.9 11.7m-33.4 29.1c-11-6.4-14.7-20.6-8.3-31.9 5.4-9.3 16.1-13.7 25.9-11.2"/><ellipse class="st2" cx="262.5" cy="345.9" rx="26.1" ry="26.6"/><path opacity=".61" fill="none" stroke="#ffde00" stroke-width="3" stroke-miterlimit="10" d="M253 348.3l6.7 5.7 15-15.3"/><circle class="st2" cx="404.9" cy="380" r="32.4"/><path class="st1" d="M425.8 393.7l-7.2-5.9c-1.2-1-2.9-1-4.1 0l-2.2 1.8c-.9.7-2.1.7-2.9-.1-3.6-3.1-6.5-6.8-9-11.2-.6-1.1-.3-2.5.6-3.2l1.8-1.4c1.2-1 1.6-2.6.9-4l-4.2-8.3c-.8-1.6-2.8-2-4.2-.9-2.9 2.1-4.9 4.7-6 7.9-1.5 8 3.5 16 7.9 21.6 4.6 5.9 12.5 12.5 19.7 12.4 3.2-.5 6.2-1.7 8.9-4.3 1.3-1.2 1.3-3.3 0-4.4z"/><path d="M424.4 391.3l-7.1-5.9c-1.2-1-2.9-1-4 0l-2.2 1.7c-.8.7-2.1.7-2.9-.1-3.5-3.1-6.5-6.8-8.9-11.1-.6-1.1-.3-2.4.6-3.2l1.8-1.4c1.2-.9 1.5-2.6.9-4l-4.2-8.2c-.8-1.5-2.8-2-4.1-.9-2.9 2-4.8 4.7-5.9 7.8-1.5 7.9 3.5 15.8 7.8 21.4 4.6 5.9 12.4 12.4 19.5 12.3 3.1-.5 6.1-1.7 8.8-4.3 1.2-1 1.3-3-.1-4.1z" fill="#fff" stroke="#ffde00" stroke-miterlimit="10"/><ellipse transform="rotate(-45.001 436.595 141.399)" class="st10" cx="436.6" cy="141.4" rx="1.3" ry="1.3"/><ellipse transform="rotate(-45.001 429.912 148.081)" class="st10" cx="429.9" cy="148.1" rx="1.1" ry="1.1"/><ellipse transform="rotate(-45.001 436.594 206.048)" class="st10" cx="436.6" cy="206" rx="1.3" ry="1.3"/><ellipse transform="rotate(-45.001 429.911 199.365)" class="st10" cx="429.9" cy="199.4" rx="1.1" ry="1.1"/><circle class="st10" cx="404.3" cy="219.4" r="1.3"/><circle class="st10" cx="404.3" cy="210" r="1.1"/><ellipse transform="rotate(-45.001 371.945 206.047)" class="st10" cx="371.9" cy="206" rx="1.3" ry="1.3"/><ellipse transform="rotate(-45.001 378.628 199.365)" class="st10" cx="378.6" cy="199.4" rx="1.1" ry="1.1"/><circle class="st10" cx="358.6" cy="173.7" r="1.3"/><circle class="st10" cx="368" cy="173.7" r="1.1"/><ellipse transform="rotate(-45.001 371.945 141.398)" class="st10" cx="371.9" cy="141.4" rx="1.3" ry="1.3"/><ellipse transform="rotate(-45.001 378.628 148.08)" class="st10" cx="378.6" cy="148.1" rx="1.1" ry="1.1"/><path class="st27" d="M396.2 181.8L385 193"/><circle class="st2" cx="404.3" cy="173.7" r="10.8"/><circle cx="404.3" cy="173.7" r="5.2" fill="#333" stroke="#fff" stroke-miterlimit="10"/><circle class="st10" cx="404.3" cy="128" r="1.3"/><circle class="st10" cx="404.3" cy="137.5" r="1.1"/><circle class="st10" cx="450" cy="173.7" r="1.3"/><circle class="st10" cx="440.5" cy="173.7" r="1.1"/><path class="st27" d="M443.9 173.7h-27.8"/><path class="st4" d="M253 430.9h-35.8"/></svg>