<svg width="1439" height="436" xmlns="http://www.w3.org/2000/svg"><script xmlns="" type="text/javascript" charset="utf-8" id="zm-extension"/><g fill="none" fill-rule="evenodd"><g opacity=".65" fill-rule="nonzero" fill="#474747"><path d="M43.31 221.598H3.766a.368.368 0 0 1-.342-.343v-14.909c0-.171.17-.342.342-.342H43.31c.17 0 .342.171.342.342v14.909c-.086.171-.171.343-.342.343zm-39.287-.686h38.944v-14.309H4.023v14.31z"/><path d="M63.338 236.506H23.795a.368.368 0 0 1-.343-.343v-14.908c0-.171.171-.343.343-.343h39.543c.171 0 .342.172.342.343v14.908c-.085.172-.17.343-.342.343zm-39.287-.685h38.945v-14.223H24.05v14.223zM.685 206.003h4.622v1H.685z"/><path d="M59.743 235.82h7.19v1h-7.19z"/></g><g opacity=".65" fill-rule="nonzero" fill="#474747"><path d="M459.03 43.81h-39.544a.368.368 0 0 1-.342-.343V28.558c0-.171.171-.343.342-.343h39.544c.17 0 .342.172.342.343v14.909c0 .257-.171.342-.342.342zm-39.201-.6h38.944V28.9h-38.944v14.31z"/><path d="M479.144 59.06H439.6a.368.368 0 0 1-.342-.342V43.809c0-.171.171-.342.342-.342h39.544c.171 0 .342.17.342.342v14.909c-.085.171-.171.342-.342.342zm-39.287-.6h38.944V44.153h-38.944v14.309z"/><path d="M439.6 59.06h-39.543a.368.368 0 0 1-.343-.342V43.809c0-.171.172-.342.343-.342H439.6c.172 0 .343.17.343.342v14.909a.368.368 0 0 1-.343.342zm-39.2-.6h38.944V44.153h-38.945v14.309zm16.005-30.159h4.622v1h-4.622z"/><path d="M397.575 58.46h4.622v1h-4.622z"/></g><g opacity=".65" fill-rule="nonzero" fill="#474747"><path d="M1262.995 388.076h-39.543a.368.368 0 0 1-.343-.343v-14.908c0-.172.171-.343.343-.343h39.543c.171 0 .342.171.342.343v14.994c-.085.171-.17.257-.342.257zm-39.287-.6h38.945v-14.308h-38.945v14.308z"/><path d="M1219.857 372.567h7.19v1h-7.19zm40.742 14.909h7.19v1h-7.19z"/></g><g opacity=".65" fill-rule="nonzero" fill="#474747"><path d="M398.003 214.829h-39.544a.368.368 0 0 1-.342-.343v-14.908c0-.172.171-.343.342-.343h39.544c.17 0 .342.171.342.343v14.908a.368.368 0 0 1-.342.343zm-39.201-.6h38.944V199.92h-38.944v14.309z"/><path d="M354.95 199.32h7.19v1h-7.19zm40.656 14.91h7.19v1h-7.19z"/></g><g opacity=".65" fill-rule="nonzero" fill="#474747"><path d="M1091.04 54.091h-39.543a.368.368 0 0 1-.342-.343V38.84c0-.172.171-.343.342-.343h39.544c.171 0 .342.171.342.343v14.908c-.085.172-.257.343-.342.343zm-39.286-.6h38.944V39.182h-38.944v14.31z"/><path d="M1087.36 53.491h7.19v1h-7.19zm-40.741-14.908h7.19v1h-7.19z"/></g><g opacity=".65" fill-rule="nonzero" fill="#474747"><path d="M1363.908 316.018h-39.543a.368.368 0 0 1-.343-.342v-14.909c0-.171.171-.343.343-.343h39.543c.171 0 .342.172.342.343v14.909c-.085.17-.17.342-.342.342zm-39.287-.6h38.945V301.11h-38.945v14.308z"/><path d="M1343.794 330.927h-39.544a.368.368 0 0 1-.342-.343v-14.908c0-.172.171-.343.342-.343h39.544c.171 0 .342.171.342.343v14.908a.368.368 0 0 1-.342.343zm-39.201-.6h38.944v-14.309h-38.944v14.309z"/><path d="M1298.858 330.327h7.19v1h-7.19z"/></g><path d="M1051.583 283.716h-39.544a.368.368 0 0 1-.342-.342v-14.909c0-.171.171-.343.342-.343h39.544c.171 0 .342.172.342.343v14.909c0 .257-.17.342-.342.342zm-39.201-.6h38.944v-14.308h-38.944v14.309z" fill="#474747" fill-rule="nonzero"/><path d="M1068.616 268.55h-39.544a.368.368 0 0 1-.342-.342V253.3c0-.172.171-.343.342-.343h39.544c.17 0 .342.171.342.343v14.908c-.085.172-.171.343-.342.343zm-39.287-.599h38.944v-14.309h-38.944v14.31zm-22.083.257h7.19v1h-7.19z" fill="#474747" fill-rule="nonzero"/><path fill="#474747" fill-rule="nonzero" d="M1066.818 267.951h7.19v1h-7.19z"/><g fill-rule="nonzero" fill="#474747"><path d="M1071.012 298.968h-39.543a.368.368 0 0 1-.343-.343v-14.909c0-.17.172-.342.343-.342h39.543c.171 0 .343.171.343.342v14.909a.368.368 0 0 1-.343.343zm-39.2-.6h38.944v-14.309h-38.945v14.309z"/><path d="M1070.413 298.368h7.19v1h-7.19zm0-14.909h7.19v1h-7.19z"/></g><path d="M172.211 254.5c-11.897 0-21.57-9.683-21.57-21.592 0-11.91 9.673-21.592 21.57-21.592s21.57 9.682 21.57 21.592c0 11.91-9.673 21.591-21.57 21.591zm0-42.499c-11.555 0-20.97 9.425-20.97 20.992s9.415 20.992 20.97 20.992 20.97-9.425 20.97-20.992-9.415-20.992-20.97-20.992zm-50.671-35.129c-11.897 0-21.569-9.682-21.569-21.592 0-11.91 9.672-21.591 21.57-21.591 11.897 0 21.569 9.682 21.569 21.591 0 11.91-9.758 21.592-21.57 21.592zm0-42.583c-11.554 0-20.97 9.424-20.97 20.991s9.416 20.992 20.97 20.992c11.556 0 20.97-9.425 20.97-20.992s-9.414-20.991-20.97-20.991z" fill="#474747" fill-rule="nonzero"/><ellipse cx="16.006" cy="15.423" rx="15.235" ry="15.251" transform="translate(106.134 136.773)" opacity=".23" fill-rule="nonzero" fill="#FFF"/><ellipse cx="16.69" cy="16.965" rx="16.519" ry="16.536" transform="translate(89.016 20.247)" opacity=".23" fill-rule="nonzero" fill="#FFF"/><ellipse cx="15.321" cy="15.937" rx="15.235" ry="15.251" transform="translate(244.793 101.644)" opacity=".23" fill-rule="nonzero" fill="#FFF"/><ellipse cx="16.177" cy="16.194" rx="15.92" ry="15.937" transform="translate(155.777 213.886)" opacity=".23" fill-rule="nonzero" fill="#FFF"/><path d="M96.719 136.688l-.514-.343c3.938-5.055 9.415-8.997 15.578-11.053l.171.6c-5.991 1.97-11.383 5.826-15.235 10.796zm-5.221 10.367l-.6-.171a35.262 35.262 0 0 1 3.253-7.626l.514.343c-1.37 2.313-2.397 4.884-3.167 7.454zm-1.541 12.595c-.428-2.999-.342-6.083.086-9.082l.599.086c-.428 2.998-.514 5.997-.086 8.91l-.599.086zm2.483 8.568c-.685-1.542-1.285-3.17-1.713-4.798l.6-.171c.428 1.628.941 3.17 1.626 4.712l-.514.257zm4.193-21.848l-.599-.172c2.482-6.94 8.217-12.852 15.407-15.765l.257.6c-7.019 2.827-12.668 8.568-15.065 15.337zm-1.455 14.822c-.856-3.684-.856-7.54-.085-11.224l.599.086c-.685 3.598-.685 7.368.085 10.967l-.599.171zm165.45-18.678c-11.898 0-21.57-9.682-21.57-21.592 0-11.91 9.672-21.591 21.57-21.591 11.897 0 21.569 9.682 21.569 21.591-.086 11.91-9.758 21.592-21.57 21.592zm0-42.498c-11.555 0-20.97 9.425-20.97 20.992S249.073 142 260.628 142c11.554 0 20.97-9.425 20.97-20.992-.086-11.567-9.501-20.992-20.97-20.992zm25.249 16.108c-.342-1.542-.77-3.084-1.37-4.627l.6-.257c.599 1.543 1.027 3.085 1.37 4.713l-.6.171zm-2.91-7.797c-.77-1.37-1.626-2.656-2.653-3.856l.428-.428a24.936 24.936 0 0 1 2.739 3.941l-.514.343z" fill="#474747" fill-rule="nonzero"/><path d="M277.66 101.901c-8.73-7.454-21.911-8.397-31.412-2.228l-.342-.514c9.672-6.34 23.195-5.398 32.097 2.314l-.343.428zM105.792 58.89c-11.898 0-21.57-9.683-21.57-21.593s9.672-21.591 21.57-21.591c11.897 0 21.569 9.682 21.569 21.591-.086 11.91-9.758 21.592-21.57 21.592zm0-42.499c-11.555 0-20.97 9.425-20.97 20.992s9.415 20.992 20.97 20.992 20.97-9.425 20.97-20.992c-.086-11.652-9.501-20.992-20.97-20.992z" fill="#474747" fill-rule="nonzero"/><path d="M80.37 45.866c-11.896 0-21.568-9.682-21.568-21.592 0-11.91 9.672-21.592 21.569-21.592 8.901 0 17.033 5.57 20.114 13.966v.257a.184.184 0 0 1-.171.172c-9.159 2.399-15.492 10.796-15.492 20.22 0 2.57.428 5.056 1.37 7.37v.256a.184.184 0 0 1-.172.171 21.366 21.366 0 0 1-5.65.772zm0-42.498c-11.554 0-20.97 9.425-20.97 20.992s9.416 20.992 20.97 20.992c1.713 0 3.425-.172 5.05-.6a21.053 21.053 0 0 1-1.283-7.283c0-9.682 6.42-18.165 15.663-20.735C96.72 8.68 88.93 3.368 80.37 3.368z" fill="#474747" fill-rule="nonzero"/><path d="M85.849 44.837a21.831 21.831 0 0 1-1.37-7.54c0-9.853 6.676-18.164 15.75-20.563-.942-2.57-2.397-4.798-4.195-6.769-1.883-.514-3.937-.857-5.991-.857-11.726 0-21.227 9.511-21.227 21.25 0 5.483 2.14 10.538 5.563 14.308 1.883.514 3.938.857 5.992.857a22.3 22.3 0 0 0 5.478-.686z" opacity=".19" fill-rule="nonzero" fill="#666"/><path d="M56.405 33.1c-.685-1.886-1.113-3.857-1.37-5.827l.6-.086c.257 1.97.685 3.856 1.37 5.655l-.6.257zm-.855-9.854h-.6c.171-3.599 1.027-7.197 2.653-10.453l.514.257c-1.54 3.256-2.482 6.769-2.568 10.196zm74.036-13.624l-.513-.342c3.338-4.284 8.13-7.54 13.438-9.168l.17.6c-5.22 1.542-9.842 4.712-13.095 8.91zM238.63 174.816c-11.897 0-21.569-9.682-21.569-21.592 0-11.91 9.672-21.592 21.57-21.592 1.369 0 2.653.086 4.022.343.086 0 .171.086.171.172 3.082 4.883 8.132 8.31 13.78 9.424.086 0 .172.086.172.172 2.14 3.427 3.338 7.454 3.338 11.481.086 11.91-9.586 21.592-21.484 21.592zm0-42.584c-11.555 0-20.97 9.425-20.97 20.992s9.415 20.992 20.97 20.992 20.97-9.425 20.97-20.992c0-3.941-1.112-7.711-3.166-11.053-5.735-1.114-10.785-4.627-13.952-9.51-1.284-.257-2.568-.429-3.852-.429zm896.32-17.821h38.431v1h-38.431zM423.937 434.258h10.357v1h-10.357zM1330.185 106.1h-38.517c-.856 0-1.54-.686-1.54-1.543V66.001c0-.857.684-1.543 1.54-1.543h38.517c.856 0 1.54.686 1.54 1.543v38.556c0 .857-.684 1.542-1.54 1.542zm-38.602-40.956a.95.95 0 0 0-.942.942v38.557a.95.95 0 0 0 .942.942h38.516a.95.95 0 0 0 .942-.942V66.086a.95.95 0 0 0-.942-.942h-38.516zM618.145 434.6h-51.098c-.856 0-1.54-.685-1.54-1.541v-37.786h54.179v37.786c0 .856-.685 1.542-1.54 1.542zm-52.04-38.641v37.185a.95.95 0 0 0 .942.943h51.098a.95.95 0 0 0 .942-.943V395.96h-52.982zm758.773-147.372h-38.516a1.535 1.535 0 0 1-1.541-1.542v-38.557c0-.856.685-1.542 1.54-1.542h38.517c.856 0 1.54.686 1.54 1.542v38.557c0 .857-.684 1.542-1.54 1.542zm-38.516-41.041a.95.95 0 0 0-.942.942v38.557a.95.95 0 0 0 .942.942h38.516a.95.95 0 0 0 .942-.942v-38.557a.95.95 0 0 0-.942-.942h-38.516z" fill="#474747" fill-rule="nonzero"/><path d="M1362.539 248.33c-.257 0-.428-.086-.685-.171l-34.75-16.794a1.47 1.47 0 0 1-.685-2.056l16.776-34.787a1.466 1.466 0 0 1 2.054-.685l34.75 16.793c.343.172.6.515.77.857.172.343.086.771-.085 1.2l-16.776 34.786c-.171.343-.514.6-.856.771-.171 0-.342.086-.513.086zm-17.975-53.979a.941.941 0 0 0-.856.514l-16.776 34.787a.947.947 0 0 0 0 .685.877.877 0 0 0 .428.514l34.75 16.794a.944.944 0 0 0 .685 0 .877.877 0 0 0 .514-.429l16.776-34.786a.947.947 0 0 0 0-.686.877.877 0 0 0-.428-.514l-34.75-16.793c-.086-.086-.172-.086-.343-.086z" fill="#474747" fill-rule="nonzero"/><path d="M1300.313 207.546c-.342 0-.685-.086-.941-.343-.343-.257-.514-.6-.6-1.028l-4.707-38.3c-.086-.428.086-.77.342-1.113.257-.343.6-.514 1.027-.6l38.26-4.713c.428-.085.77.086 1.113.343.342.257.513.6.599 1.028l4.707 38.3c.086.857-.513 1.628-1.283 1.713l-38.26 4.713h-.257zm33.638-45.411h-.086l-38.26 4.712c-.256 0-.427.172-.599.343a.667.667 0 0 0-.17.686l4.707 38.299c0 .257.171.428.342.6a.665.665 0 0 0 .685.171l38.26-4.712c.513-.086.856-.514.77-1.028l-4.708-38.3c0-.257-.17-.428-.342-.6-.257-.085-.428-.171-.6-.171zM215.863 328.185H125.99v-6.426h89.872v6.426zm-89.272-.6h88.587v-5.14h-88.587v5.14z" fill="#474747" fill-rule="nonzero"/><path d="M176.405 322.444h-12.154v-7.197h12.154v7.197zm-11.555-.685h10.956v-5.998H164.85v5.998z" fill="#474747" fill-rule="nonzero"/><path d="M176.405 315.761h-11.812l-19.515-22.106h51.784l-20.457 22.106zm-11.555-.6h11.298l19.258-20.906h-49.044l18.488 20.906z" fill="#474747" fill-rule="nonzero"/><path d="M202.596 294.255h-63.423v-5.57h63.423v5.57zm-62.739-.6h62.14v-4.37h-62.14v4.37z" fill="#474747" fill-rule="nonzero"/><path d="M205.678 317.989c-.428-3.256-3.167-5.826-6.591-5.826-3.338 0-6.163 2.484-6.59 5.826h13.18z" opacity=".23" fill-rule="nonzero" fill="#FFF"/><path d="M142.51 420.206h24.823v1H142.51zm32.269 0H199.6v1h-24.822zm-32.011 6.598h24.822v1h-24.822zm32.182 0h24.822v1H174.95zm27.304-81.226a4.423 4.423 0 0 1-4.451-4.455 4.423 4.423 0 0 1 4.45-4.456 4.423 4.423 0 0 1 4.452 4.456c0 2.485-2.055 4.455-4.451 4.455zm0-8.31a3.838 3.838 0 0 0-3.852 3.855 3.838 3.838 0 0 0 3.852 3.855 3.838 3.838 0 0 0 3.851-3.855c-.085-2.142-1.797-3.856-3.851-3.856zm-45.45 64.517a4.423 4.423 0 0 1-4.45-4.455 4.423 4.423 0 0 1 4.45-4.456 4.422 4.422 0 0 1 4.451 4.456c0 2.484-2.054 4.455-4.45 4.455zm0-8.225a3.838 3.838 0 0 0-3.851 3.855 3.838 3.838 0 0 0 3.851 3.856 3.838 3.838 0 0 0 3.852-3.856 3.838 3.838 0 0 0-3.852-3.855zm14.123 8.225a4.423 4.423 0 0 1-4.45-4.455 4.423 4.423 0 0 1 4.45-4.456c2.482 0 4.45 1.97 4.45 4.456 0 2.484-2.053 4.455-4.45 4.455zm0-8.225a3.838 3.838 0 0 0-3.851 3.855 3.838 3.838 0 0 0 3.851 3.856 3.838 3.838 0 0 0 3.852-3.856c0-2.142-1.798-3.855-3.852-3.855z" fill-rule="nonzero" fill="#474747"/><path d="M154.75 402.128c1.712.6 3.595-.086 4.622-1.457a4.217 4.217 0 0 1-2.91.086c-2.14-.686-3.338-3.085-2.653-5.227.171-.428.342-.856.599-1.2-1.027.43-1.969 1.372-2.311 2.486-.685 2.313.513 4.626 2.653 5.312zm14.037 0c1.712.6 3.595-.086 4.622-1.457a4.217 4.217 0 0 1-2.91.086c-2.14-.686-3.338-3.085-2.653-5.227.171-.428.342-.856.599-1.2-1.027.43-1.969 1.372-2.311 2.486-.685 2.313.428 4.626 2.653 5.312zm14.037.085c1.712.515 3.595-.17 4.537-1.627-.856.428-1.883.514-2.91.17-2.226-.685-3.424-2.998-2.74-5.14.172-.428.343-.857.6-1.2-1.027.515-1.883 1.371-2.225 2.57-.685 2.229.599 4.542 2.738 5.227z" opacity=".19" fill-rule="nonzero" fill="#666"/><path d="M184.879 401.785a4.423 4.423 0 0 1-4.451-4.455 4.423 4.423 0 0 1 4.45-4.456 4.422 4.422 0 0 1 4.451 4.456 4.423 4.423 0 0 1-4.45 4.455zm0-8.225a3.838 3.838 0 0 0-3.852 3.855 3.838 3.838 0 0 0 3.852 3.856 3.838 3.838 0 0 0 3.851-3.856 3.838 3.838 0 0 0-3.851-3.855z" fill="#474747" fill-rule="nonzero"/><path d="M143.538 334.954a5.373 5.373 0 0 0-5.393 5.398 5.373 5.373 0 0 0 5.393 5.398c2.995 0 5.392-2.4 5.392-5.398a5.373 5.373 0 0 0-5.392-5.398zm0 8.054a2.668 2.668 0 0 1-2.654-2.656 2.668 2.668 0 0 1 2.654-2.656c1.455 0 2.653 1.2 2.653 2.656 0 1.456-1.113 2.656-2.653 2.656z" opacity=".19" fill-rule="nonzero" fill="#666"/><path d="M143.538 346.95c-3.68 0-6.59-3-6.59-6.598 0-.857.17-1.628.427-2.314-.685 1.028-1.027 2.228-1.027 3.513 0 3.684 2.996 6.598 6.59 6.598 2.825 0 5.222-1.8 6.163-4.284a6.55 6.55 0 0 1-5.563 3.084z" opacity=".19" fill-rule="nonzero" fill="#666"/><path fill="#474747" fill-rule="nonzero" d="M168.99 347.5l10.712-10.713.708.707-10.713 10.713zm.806-4.901l4.115-4.115.707.707-4.115 4.115zm339.305 60.814H210.984v-32.045h298.117c8.816 0 16.006 7.197 16.006 16.023a15.99 15.99 0 0 1-16.006 16.022zm-297.518-.6h297.518c8.474 0 15.407-6.94 15.407-15.422 0-8.483-6.933-15.423-15.407-15.423H211.583v30.845z"/><path d="M508.416 398.53H210.984v-22.107h297.432c6.077 0 11.042 4.97 11.042 11.053 0 6.084-4.965 11.053-11.042 11.053zm-296.833-.686h296.833c5.735 0 10.443-4.713 10.443-10.453 0-5.741-4.708-10.453-10.443-10.453H211.583v20.906zm-80.884.686H66.762c-6.077 0-11.042-4.97-11.042-11.054 0-6.083 4.965-11.053 11.042-11.053h63.937v22.106zm-63.937-21.507c-5.735 0-10.442 4.713-10.442 10.453 0 5.74 4.707 10.453 10.442 10.453H130.1v-20.906H66.762z" fill="#474747" fill-rule="nonzero"/><path d="M130.699 402.642h-65.65c-8.387 0-15.149-6.855-15.149-15.166 0-8.396 6.847-15.165 15.15-15.165h65.563v30.33h.086zm-65.65-29.817c-8.045 0-14.55 6.512-14.55 14.566 0 8.054 6.505 14.565 14.55 14.565h64.965v-29.131H65.05zm385.593 55.435H210.984v-25.447h239.658v25.448zm-239.059-.6h238.46V403.5h-238.46v24.162z" fill="#474747" fill-rule="nonzero"/><path d="M459.629 434.858H210.984v-7.197h243.51c2.824 0 5.135 2.313 5.135 5.14v2.057zm-248.046-.6H459.03v-1.456c0-2.485-2.054-4.541-4.537-4.541h-242.91v5.997zm-80.884-5.141H69.757v-27.075H130.7v27.075zm-60.342-.6h59.657v-25.875H70.357v25.876z" fill="#474747" fill-rule="nonzero"/><path d="M130.699 434.858H63.937v-1.8c0-2.484 2.054-4.54 4.537-4.54h62.14v6.34h.085zm-66.163-.6h65.478v-5.14H68.56c-2.14 0-3.937 1.799-3.937 3.94v1.2h-.086zM245.761 423.6l12.407-12.406.707.707-12.407 12.407zm-.419-4.53l5.386-5.387.707.707-5.386 5.387zm139.413 3.852l12.407-12.407.707.707-12.407 12.407zm11.104-5.273l5.387-5.387.707.707-5.387 5.387zm30.354 3.459l5.386-5.387.708.707-5.387 5.387zm-113.086-1.233l6.173-6.173.707.707-6.173 6.173zm4.535.416l4.962-4.962.707.707-4.962 4.962zm-226.729 2.876l11.983-11.983.707.707-11.983 11.983zm-2.153-2.875l6.596-6.597.708.707L89.487 421zM75.32 398.53h-5.563v-22.107h5.564v22.106zm-4.963-.686h4.365v-20.906h-4.365v20.906zm52.04.686h-5.564v-22.107h5.564v22.106zm-4.965-.686h4.365v-20.906h-4.365v20.906zm108.274.686h-5.563v-22.107h5.563v22.106zm-4.964-.686h4.365v-20.906h-4.365v20.906zm51.184.686h-5.564v-22.107h5.564v22.106zm-4.965-.686h4.366v-20.906h-4.366v20.906zm51.269.686h-5.563v-22.107h5.564v22.106zm-4.963-.686h4.365v-20.906h-4.365v20.906zm51.183.686h-5.563v-22.107h5.564v22.106zm-4.964-.686h4.365v-20.906h-4.365v20.906zm-263.794.686c-6.077 0-11.042-4.97-11.042-11.054 0-6.083 4.965-11.053 11.042-11.053s11.041 4.97 11.041 11.053c0 6.084-4.964 11.053-11.041 11.053zm0-21.507c-5.735 0-10.442 4.713-10.442 10.453 0 5.74 4.707 10.453 10.442 10.453 5.734 0 10.442-4.712 10.442-10.453a10.434 10.434 0 0 0-10.442-10.453z" fill="#474747" fill-rule="nonzero"/><path d="M95.692 393.56c-2.482 0-4.793-1.543-5.735-3.942-.599-1.542-.513-3.17.171-4.626.685-1.457 1.883-2.57 3.424-3.17 3.167-1.2 6.676.428 7.874 3.598 1.199 3.17-.427 6.683-3.594 7.883-.77.085-1.455.257-2.14.257zm0-11.567c-.6 0-1.284.085-1.883.342a5.557 5.557 0 0 0-3.082 2.828c-.599 1.37-.684 2.827-.17 4.198 1.026 2.828 4.193 4.284 7.018 3.17 2.824-1.028 4.28-4.198 3.167-7.025-.77-2.228-2.91-3.513-5.05-3.513z" fill="#474747" fill-rule="nonzero"/><path d="M95.093 393.474h-.257a6.015 6.015 0 0 1-3.167-1.457l-.171-.171 4.793-10.539h.257a6.015 6.015 0 0 1 3.167 1.457l.17.171-4.792 10.539zm-2.825-1.8c.685.6 1.54.943 2.482 1.115l4.366-9.682c-.685-.6-1.541-.943-2.483-1.114l-4.365 9.682zm153.723 6.769a11.02 11.02 0 0 1-7.789-3.255c-4.28-4.284-4.28-11.31 0-15.594 4.28-4.284 11.299-4.284 15.578 0 4.28 4.284 4.28 11.31 0 15.594-2.14 2.227-4.964 3.255-7.789 3.255zm0-21.42c-2.653 0-5.306 1.028-7.36 3.085-4.109 4.112-4.109 10.71 0 14.737 4.108 4.113 10.698 4.113 14.721 0 4.109-4.113 4.109-10.71 0-14.737-1.968-2.057-4.707-3.085-7.36-3.085z" fill="#474747" fill-rule="nonzero"/><path d="M245.991 393.56a6.134 6.134 0 0 1-2.482-.514c-1.455-.686-2.568-1.885-3.167-3.428-.599-1.542-.513-3.17.171-4.626.685-1.457 1.883-2.57 3.424-3.17 1.54-.6 3.167-.515 4.622.17 1.455.686 2.568 1.886 3.167 3.428.6 1.542.514 3.17-.171 4.627-1.027 2.142-3.253 3.513-5.564 3.513zm0-11.653a5.3 5.3 0 0 0-1.968.343 5.557 5.557 0 0 0-3.082 2.827c-.599 1.371-.684 2.828-.17 4.199a5.559 5.559 0 0 0 2.824 3.084c2.739 1.285 5.991 0 7.275-2.742.6-1.37.685-2.827.171-4.198a5.559 5.559 0 0 0-2.824-3.085c-.685-.257-1.455-.428-2.226-.428z" fill="#474747" fill-rule="nonzero"/><path d="M241.284 391.332l-.171-.171a6.284 6.284 0 0 1-1.199-3.256v-.257l10.785-4.027.171.171a6.284 6.284 0 0 1 1.198 3.256v.257l-10.784 4.027zm-.685-3.256c.086.943.428 1.8.942 2.57l9.928-3.77a4.88 4.88 0 0 0-.941-2.484l-9.929 3.684zm51.698 10.454c-1.712 0-3.339-.43-4.965-1.2-2.653-1.286-4.622-3.599-5.563-6.426-1.969-5.741 1.198-12.081 7.018-13.966 5.735-1.885 12.069 1.2 13.952 7.025.941 2.828.685 5.827-.6 8.483-1.283 2.656-3.594 4.627-6.419 5.57-1.112.256-2.31.513-3.423.513zm0-21.507c-1.113 0-2.226.172-3.253.514-5.478 1.8-8.388 7.712-6.59 13.195a10.065 10.065 0 0 0 5.22 5.998c2.483 1.285 5.307 1.456 7.96.6 5.479-1.8 8.389-7.712 6.591-13.195-1.54-4.37-5.563-7.112-9.928-7.112z" fill="#474747" fill-rule="nonzero"/><path d="M292.297 393.56h-.685c-1.626-.172-3.081-.943-4.109-2.228-2.14-2.57-1.711-6.426.942-8.568 1.284-1.028 2.824-1.457 4.45-1.285 1.627.171 3.082.942 4.11 2.227 1.026 1.286 1.454 2.828 1.283 4.456-.171 1.628-.942 3.084-2.225 4.112-1.027.772-2.397 1.286-3.766 1.286zm0-11.567a5.373 5.373 0 0 0-3.424 1.2c-2.311 1.884-2.739 5.397-.77 7.71.941 1.114 2.225 1.886 3.68 1.971a5.26 5.26 0 0 0 4.023-1.2c1.113-.942 1.883-2.227 1.968-3.684a5.272 5.272 0 0 0-1.198-4.027c-.941-1.113-2.225-1.885-3.68-1.97h-.6z" fill="#474747" fill-rule="nonzero"/><path d="M297.774 389.961l-11.469-1.2v-.257c-.257-1.2-.085-2.399.343-3.427l.085-.171 11.47 1.2v.256c.256 1.2.085 2.4-.343 3.428l-.086.171zm-10.955-1.714l10.527 1.114a4.734 4.734 0 0 0 .257-2.656l-10.528-1.114c-.256.771-.342 1.714-.256 2.656zm51.697 10.283c-1.626 0-3.167-.344-4.622-1.029-2.653-1.285-4.707-3.427-5.734-6.255-1.027-2.742-.856-5.74.342-8.482 2.568-5.57 9.158-7.969 14.636-5.398 2.654 1.285 4.708 3.427 5.735 6.255 1.027 2.741.856 5.74-.343 8.482-1.283 2.656-3.423 4.713-6.248 5.74-1.198.43-2.482.686-3.766.686zm0-21.507a10.462 10.462 0 0 0-9.5 6.084 10.319 10.319 0 0 0-.343 7.968c.942 2.656 2.91 4.712 5.392 5.912a10.288 10.288 0 0 0 7.96.343c2.654-.943 4.708-2.914 5.906-5.398a10.319 10.319 0 0 0 .343-7.969c-.942-2.656-2.91-4.712-5.393-5.912-1.369-.77-2.824-1.028-4.365-1.028z" fill="#474747" fill-rule="nonzero"/><path d="M338.516 393.56h-.428c-3.338-.257-5.82-3.17-5.649-6.512.086-1.628.856-3.085 2.14-4.198 1.198-1.029 2.825-1.543 4.45-1.457 1.627.086 3.082.857 4.195 2.142 1.112 1.285 1.54 2.827 1.455 4.455-.343 3.085-2.996 5.57-6.163 5.57zm-.428-.686c2.996.257 5.65-2.056 5.906-5.055.086-1.457-.342-2.913-1.284-4.027a5.36 5.36 0 0 0-3.766-1.885c-1.455-.086-2.91.343-4.023 1.285a5.37 5.37 0 0 0-1.883 3.77c-.17 3.085 2.055 5.74 5.05 5.912z" fill="#474747" fill-rule="nonzero"/><path d="M340.827 393.131l-7.532-8.74.086-.17c.684-1.029 1.54-1.8 2.653-2.228l.171-.086 7.532 8.74-.085.17c-.685 1.029-1.54 1.8-2.654 2.229l-.17.085zm-6.762-8.825l6.933 8.054a5.233 5.233 0 0 0 2.055-1.8l-6.933-8.053a5.233 5.233 0 0 0-2.055 1.8zm30.043 14.224h-5.563v-22.107h5.563v22.106zm-4.964-.686h4.365v-20.906h-4.365v20.906zm51.184.686h-5.564v-22.107h5.564v22.106zm-4.964-.686h4.365v-20.906h-4.365v20.906zm-20.884.686h-.6c-2.91-.172-5.65-1.457-7.618-3.685-1.968-2.228-2.995-5.055-2.824-7.968.17-2.914 1.455-5.655 3.68-7.626 2.226-1.97 5.05-2.999 7.96-2.828 2.91.172 5.65 1.457 7.618 3.685 1.969 2.227 2.996 5.055 2.824 7.968-.17 2.913-1.455 5.655-3.68 7.626-2.054 1.799-4.708 2.827-7.36 2.827zm-.086-21.507c-2.568 0-5.05.943-6.933 2.656-2.055 1.885-3.339 4.456-3.424 7.198-.171 2.827.77 5.483 2.653 7.54 1.883 2.056 4.451 3.341 7.19 3.427 2.825.171 5.478-.771 7.532-2.656 2.054-1.885 3.338-4.456 3.424-7.198.17-2.827-.77-5.483-2.654-7.54-1.883-2.056-4.45-3.341-7.19-3.427h-.598z" fill="#474747" fill-rule="nonzero"/><path d="M384.394 393.56c-.942 0-1.883-.257-2.825-.686-2.996-1.542-4.108-5.226-2.568-8.225 1.54-2.999 5.221-4.113 8.217-2.57 2.996 1.542 4.108 5.226 2.568 8.225-1.027 2.056-3.167 3.256-5.392 3.256zm-2.483-1.286c2.654 1.371 5.992.343 7.361-2.313 1.37-2.656.343-5.998-2.31-7.369-2.654-1.37-5.992-.342-7.362 2.314a5.354 5.354 0 0 0 2.311 7.368z" fill="#474747" fill-rule="nonzero"/><path d="M384.308 393.56l-3.424-11.053.171-.086c1.028-.685 2.14-1.028 3.339-1.028h.256l3.424 11.053-.171.085c-.942.686-2.14 1.029-3.338 1.029h-.257zm-2.739-10.796l3.167 10.11a6.416 6.416 0 0 0 2.568-.77l-3.167-10.111c-.942 0-1.798.257-2.568.77zm28.417 15.766h-5.564v-22.107h5.564v22.106zm-4.965-.686h4.365v-20.906h-4.365v20.906zm51.184.686h-5.563v-22.107h5.563v22.106zm-4.964-.686h4.365v-20.906h-4.365v20.906zm-20.971.686c-2.139 0-4.193-.6-6.076-1.8-2.482-1.628-4.194-4.113-4.793-7.026-.6-2.913 0-5.826 1.54-8.311 1.627-2.485 4.109-4.198 7.019-4.798 5.991-1.2 11.812 2.57 13.095 8.568 1.199 5.998-2.567 11.824-8.559 13.11a9.32 9.32 0 0 1-2.225.256zm.086-21.507c-.684 0-1.37.086-2.14.257-2.738.6-5.05 2.142-6.59 4.456-1.54 2.313-2.054 5.14-1.455 7.882.6 2.742 2.14 5.056 4.45 6.598 2.312 1.542 5.136 2.056 7.875 1.456 2.74-.6 5.05-2.142 6.59-4.455 1.541-2.313 2.055-5.14 1.456-7.883-1.027-4.97-5.392-8.31-10.186-8.31z" fill="#474747" fill-rule="nonzero"/><path d="M430.356 393.56c-2.054 0-4.022-1.029-5.135-2.828-1.798-2.827-.942-6.597 1.883-8.397 1.37-.856 2.996-1.113 4.622-.77 1.626.342 2.91 1.285 3.766 2.655 1.797 2.828.941 6.598-1.883 8.397-1.027.6-2.14.943-3.253.943zm-.085-11.653c-1.027 0-2.054.257-2.91.857-2.568 1.628-3.338 4.97-1.712 7.54 1.626 2.57 4.964 3.341 7.532 1.713 1.198-.77 2.054-1.97 2.397-3.427.342-1.456.085-2.913-.685-4.113-.77-1.2-1.969-2.056-3.424-2.399a5.047 5.047 0 0 0-1.198-.171z" fill="#474747" fill-rule="nonzero"/><path d="M435.492 390.647l-11.298-2.57v-.258a5.957 5.957 0 0 1 .77-3.427l.086-.172 11.298 2.57v.258c.085 1.2-.171 2.399-.77 3.427l-.086.172zm-10.7-3.085l10.358 2.313c.428-.856.599-1.713.599-2.656l-10.357-2.313c-.342.857-.6 1.8-.6 2.656zm31.071 10.968h-5.564v-22.107h5.564v22.106zm-4.965-.686h4.366v-20.906h-4.366v20.906zm51.184.686h-5.563v-22.107h5.563v22.106zm-4.964-.686h4.365v-20.906h-4.365v20.906zm-20.97.686c-1.626 0-3.167-.344-4.622-1.029-2.653-1.285-4.707-3.427-5.735-6.255-1.027-2.742-.855-5.74.343-8.482 2.568-5.57 9.158-7.969 14.636-5.398 2.653 1.285 4.708 3.427 5.735 6.255 1.027 2.741.856 5.74-.343 8.482-1.283 2.656-3.423 4.713-6.248 5.74-1.198.43-2.482.686-3.766.686zm.086-21.507a10.462 10.462 0 0 0-9.501 6.084 10.319 10.319 0 0 0-.342 7.968c.941 2.656 2.91 4.712 5.392 5.912a10.288 10.288 0 0 0 7.96.343c2.653-.943 4.708-2.914 5.906-5.398a10.319 10.319 0 0 0 .342-7.969c-.941-2.656-2.91-4.712-5.392-5.912-1.455-.77-2.91-1.028-4.365-1.028z" fill="#474747" fill-rule="nonzero"/><path d="M476.234 393.56h-.428c-1.626-.086-3.082-.857-4.194-2.142-1.027-1.2-1.54-2.828-1.455-4.456.085-1.628.856-3.084 2.14-4.198 1.198-1.028 2.824-1.542 4.45-1.457 1.627.086 3.082.857 4.194 2.142 1.113 1.286 1.54 2.828 1.455 4.456-.342 3.17-3.081 5.655-6.162 5.655zm-.428-.686c2.995.257 5.649-2.056 5.906-5.055.256-2.999-2.055-5.655-5.05-5.912-1.455-.086-2.91.343-4.023 1.285a5.37 5.37 0 0 0-1.883 3.77c-.086 1.457.342 2.913 1.284 4.027a5.36 5.36 0 0 0 3.766 1.885z" fill="#474747" fill-rule="nonzero"/><path d="M478.46 393.131l-7.533-8.74.086-.17c.684-1.029 1.54-1.8 2.653-2.228l.171-.086 7.532 8.74-.085.17c-.685 1.029-1.541 1.8-2.654 2.229l-.17.085zm-6.763-8.825l6.933 8.054a5.233 5.233 0 0 0 2.054-1.8l-6.932-8.053c-.77.428-1.541 1.028-2.055 1.8z" fill="#474747" fill-rule="nonzero"/><path d="M96.462 381.736l-4.622 10.11c.856.771 1.883 1.2 2.996 1.37l4.622-10.11c-.856-.77-1.883-1.285-2.996-1.37zm154.151 2.227l-10.356 3.856a5.724 5.724 0 0 0 1.198 3.085l10.357-3.856a5.724 5.724 0 0 0-1.199-3.085zm47.333 2.399l-11.042-1.2c-.428 1.03-.513 2.143-.342 3.257l11.041 1.2c.428-1.029.6-2.143.343-3.257zm45.449 4.198l-7.19-8.396c-1.027.428-1.883 1.2-2.482 2.142l7.19 8.397c1.027-.429 1.883-1.2 2.482-2.142zm44.251 1.714l-3.338-10.624a5.375 5.375 0 0 0-3.167 1.028l3.338 10.625c1.113-.086 2.226-.429 3.167-1.029zm48.445-5.226l-10.785-2.485c-.513.943-.77 2.142-.77 3.256l10.785 2.485c.599-1.028.856-2.142.77-3.256zm44.936 3.512l-7.19-8.396c-1.027.428-1.883 1.2-2.482 2.142l7.19 8.397c1.027-.429 1.883-1.2 2.482-2.142z" opacity=".19" fill-rule="nonzero" fill="#666"/><path fill="#474747" fill-rule="nonzero" d="M176.397 304.536l5.803-6.638.752.658-5.802 6.638zm4.116.017l5.803-6.638.753.658-5.803 6.638zm18.146-.616h1v4.113h-1zm7.513 7.226l2.48-2.48.708.706-2.481 2.482zm-17.368-2.04l.707-.707 2.484 2.484-.707.707zM127.018 325.1h6.591v1h-6.591zm8.303 0h1.626v1h-1.626zm-69.653 51.351l4.116-4.115.707.707-4.116 4.115zm20.636.019l4.115-4.116.707.708-4.115 4.115zm20.695-.043l4.115-4.115.707.707-4.115 4.115zm17.688.021l4.572-4.133.67.742-4.571 4.133zm.296 25.887l4.297-4.297.707.707-4.297 4.297zm-19.473-.444l3.934-3.933.707.707-3.934 3.933zm-19.946.223l4.116-4.115.707.707-4.116 4.115zm-19.848.022l4.115-4.115.708.707-4.116 4.115zM53.014 378.43l.95-.31 2.712 8.307-.95.31zm-.999 16.996l.1-.995 8.27.827-.1.995zm172.102-18.756l4.963-4.963.707.707-4.963 4.963zm20.055-.178l4.963-4.963.707.707-4.963 4.963zm19.848-.022l4.963-4.962.707.707-4.962 4.963zm19.788.04l4.963-4.963.707.707-4.963 4.963zm21.482-.003l4.963-4.963.707.708-4.963 4.962zm19.848-.021l4.963-4.962.707.707-4.962 4.962zm19.849-.021l4.963-4.963.707.707-4.962 4.963zm171.225 3.681l.188-.982 7.489 1.435-.188.982zm1.948 10.807l.941-.339 2.437 6.772-.94.339zm-152.858-14.501l5.222-4.942.688.726-5.223 4.942zm-1.366 26.423l4.963-4.962.707.707-4.963 4.963zm-39.697.043l4.962-4.963.708.707-4.963 4.963zm19.848-.021l4.963-4.963.707.708-4.963 4.962zm-40.483.003l4.963-4.963.707.707-4.963 4.963zm-20.634-.018l4.962-4.963.707.707-4.962 4.963zm-19.002 0l4.963-4.963.707.707-4.963 4.963zm-20.696.042l4.963-4.962.707.707-4.963 4.962zm241.438-.037l4.962-4.962.707.707-4.963 4.962zm-39.697.043l4.963-4.963.707.707-4.963 4.963zm19.848-.022l4.962-4.963.708.708-4.963 4.962zm-40.483.002l4.962-4.962.707.707-4.962 4.963zm-20.635-.017l4.963-4.963.707.707-4.963 4.963zm-19.002 0l4.963-4.962.707.707-4.963 4.962z"/><path fill="#474747" fill-rule="nonzero" d="M364.106 402.875l4.963-4.962.707.707-4.963 4.962zm122.616-26.264l4.963-4.962.707.707-4.963 4.962zm20.274-.029l4.962-4.963.707.708-4.962 4.962zm-1.994 26.323l4.963-4.963.707.707-4.963 4.963zm-57.916-26.312l4.963-4.962.707.707-4.963 4.962zm19.849-.021l4.963-4.963.707.707-4.963 4.963zm-40.483.003l4.962-4.963.707.708-4.962 4.962zm-20.696.042l4.963-4.963.707.707-4.963 4.963zm-19.001 0l4.962-4.963.708.707-4.963 4.963zm-163.271 26.268l4.963-4.963.707.708-4.962 4.962z"/><path d="M171.697 358.516c-14.636 0-26.447 11.824-26.447 26.476h52.895c-.085-14.652-11.897-26.476-26.448-26.476zm4.109 24.762c-.856-1.628-3.338-3.342-4.109-3.342l12.411-9.082-8.302 12.424z" opacity=".23" fill-rule="nonzero" fill="#FFF"/><path d="M109.814 342.494c-1.626 0-2.995-1.371-2.995-3 0-1.627 1.37-2.998 2.995-2.998 1.627 0 2.996 1.37 2.996 2.999 0 1.628-1.37 2.999-2.996 2.999zm0-5.398c-1.283 0-2.396 1.114-2.396 2.399s1.113 2.399 2.396 2.399c1.284 0 2.397-1.114 2.397-2.4 0-1.284-1.113-2.398-2.397-2.398z" fill="#474747" fill-rule="nonzero"/><path d="M109.814 336.839c-.17 0-.427 0-.599.085 1.199.257 2.055 1.371 2.055 2.657 0 1.285-.856 2.313-2.055 2.656.172.085.428.085.6.085 1.455 0 2.738-1.2 2.738-2.741-.085-1.543-1.283-2.742-2.739-2.742z" opacity=".19" fill-rule="nonzero" fill="#666"/><path fill="#474747" fill-rule="nonzero" d="M111.656 341.075l.625-.78 13.515 10.811-.624.781zm1325.69-226.065h-259.258v-.6h258.916v-7.882h-377.975v7.883h74.465v.6h-74.807a.368.368 0 0 1-.342-.343v-8.483c0-.171.17-.343.342-.343h378.659c.171 0 .342.172.342.343v8.483c0 .257-.17.342-.342.342z"/><path d="M1099.086 135.916h-10.442a.368.368 0 0 1-.342-.342v-20.906c0-.172.171-.343.342-.343h10.442c.172 0 .343.171.343.343v20.906c0 .257-.171.342-.343.342zm-10.1-.6h9.844V115.01h-9.843v20.307z" fill="#474747" fill-rule="nonzero"/><path d="M1093.865 131.375c-.941 0-1.883-.342-2.482-1.028-.599-.685-1.027-1.542-1.027-2.485 0-.942.342-1.885 1.027-2.484 1.37-1.371 3.68-1.371 5.05 0 1.37 1.37 1.37 3.684 0 5.055-.685.6-1.626.942-2.568.942zm0-6.511c-.77 0-1.54.342-2.054.856-.599.6-.856 1.286-.856 2.057 0 .77.343 1.542.856 2.056.6.6 1.284.857 2.054.857.77 0 1.541-.343 2.055-.857.599-.6.855-1.285.855-2.056 0-.771-.342-1.542-.855-2.057-.514-.6-1.199-.856-2.055-.856z" fill="#474747" fill-rule="nonzero"/><path fill="#474747" fill-rule="nonzero" d="M1091.37 129.928l4.6-4.6.707.708-4.6 4.6zm346.917 127.399h-198.23c-.257 0-.429-.172-.429-.343V248.5c0-.17.172-.342.428-.342h198.231c.257 0 .428.171.428.342v8.483c-.085.171-.256.343-.428.343zm-197.888-.6h197.46v-7.883H1240.4v7.883z"/><path d="M1274.464 278.147h-10.442a.368.368 0 0 1-.342-.343v-20.906c0-.171.171-.342.342-.342h10.442c.172 0 .343.17.343.342v20.906c-.086.257-.171.343-.343.343zm-10.1-.6h9.844v-20.306h-9.843v20.306z" fill="#474747" fill-rule="nonzero"/><path d="M1269.243 273.606a3.426 3.426 0 0 1-2.482-1.028 3.433 3.433 0 0 1-1.027-2.485c0-.942.342-1.885 1.027-2.485a3.426 3.426 0 0 1 2.482-1.028c.942 0 1.883.343 2.482 1.028a3.433 3.433 0 0 1 1.028 2.485c0 .943-.343 1.885-1.028 2.485a3.426 3.426 0 0 1-2.482 1.028zm0-6.512c-.77 0-1.54.343-2.054.857-.599.6-.856 1.285-.856 2.056 0 .772.343 1.543.856 2.057 1.113 1.114 2.996 1.114 4.194 0 .6-.6.856-1.285.856-2.057 0-.77-.342-1.542-.856-2.056-.599-.6-1.37-.857-2.14-.857z" fill="#474747" fill-rule="nonzero"/><path fill="#474747" fill-rule="nonzero" d="M1266.725 272.136l4.6-4.6.707.707-4.6 4.6zM133.866 250.815c-2.568 0-4.45-.429-4.964-1.714-1.541-4.112 14.978-12.51 20.028-14.908l.257.514c-12.925 6.255-20.628 11.824-19.772 14.223.6 1.542 5.735 2.142 18.317-.857l.17.6c-4.022.942-9.928 2.142-14.036 2.142zm24.308-3.855l-.171-.6c2.054-.686 4.194-1.371 6.334-2.228l.17.6c-2.139.77-4.279 1.542-6.333 2.227zm24.736-9.597l-.257-.6c4.708-2.056 9.073-4.113 12.925-6.169l.256.514c-3.766 2.057-8.13 4.113-12.924 6.255zm22.34-11.224l-.343-.514c9.159-5.484 9.5-7.797 9.244-8.568-.856-2.314-9.929-1.457-23.11 2.056l-.17-.6c6.675-1.8 22.339-5.57 23.794-1.714 1.027 2.485-4.537 6.427-9.415 9.34z"/><path d="M200.2 243.018c-8.303 0-18.574-.771-29.358-2.313-22.34-3.17-45.022-9.254-44.337-14.138.6-4.37 19.173-3.77 24.907-3.513v.6c-14.38-.685-23.88.428-24.222 2.999-.514 3.427 17.032 9.682 43.823 13.452 12.068 1.713 23.452 2.484 32.182 2.313 8.303-.171 13.438-1.37 13.695-3.17.342-2.485-8.217-6.17-21.911-9.425l.17-.6c5.393 1.285 22.94 5.74 22.34 10.11-.428 2.742-7.96 3.514-14.208 3.685H200.2zm705.214 76l.875-.483 44.51 80.733-.875.483z" fill="#474747" fill-rule="nonzero"/><path d="M900.513 327.242c-3.252 0-5.991-2.656-5.991-5.997 0-3.256 2.653-5.998 5.991-5.998 3.253 0 5.992 2.656 5.992 5.998a5.958 5.958 0 0 1-5.992 5.997zm0-11.31c-2.91 0-5.307 2.4-5.307 5.313s2.397 5.312 5.307 5.312c2.91 0 5.307-2.4 5.307-5.312 0-2.913-2.311-5.312-5.307-5.312z" fill="#474747" fill-rule="nonzero"/><path d="M900.513 325.615c-2.396 0-4.365-1.971-4.365-4.37 0-2.4 1.969-4.37 4.365-4.37 2.397 0 4.365 1.97 4.365 4.37 0 2.399-1.883 4.37-4.365 4.37zm0-8.055c-2.054 0-3.766 1.714-3.766 3.77 0 2.057 1.712 3.77 3.766 3.77 2.054 0 3.766-1.713 3.766-3.77 0-2.142-1.626-3.77-3.766-3.77z" fill="#474747" fill-rule="nonzero"/><path d="M900.513 317.218a3.935 3.935 0 0 0-3.081 1.456c.428-.085.856-.171 1.284-.171a4.02 4.02 0 0 1 4.022 4.027c0 1.028-.342 1.97-1.027 2.656a4.064 4.064 0 0 0 2.825-3.856c.086-2.313-1.712-4.112-4.023-4.112z" opacity=".39" fill-rule="nonzero" fill="#666"/><path d="M912.325 415.494h-21.912a2.668 2.668 0 0 1-2.653-2.656v-5.57a2.668 2.668 0 0 1 2.653-2.655h23.367l-.171.428c-1.027 2.485-1.455 5.14-1.455 7.797 0 .771 0 1.456.085 2.228l.086.428zm-21.912-10.196c-1.112 0-2.054.942-2.054 2.056v5.57c0 1.113.942 2.056 2.054 2.056h21.227c-.086-.686-.086-1.285-.086-1.97 0-2.657.428-5.142 1.37-7.626h-22.51v-.086zm64.365 7.454h37.746v1h-37.746zm56.234-4.541h-50.071c-.856 0-1.54-.685-1.54-1.542v-50.124c0-.856.684-1.542 1.54-1.542h50.071c.856 0 1.541.686 1.541 1.542v50.124c0 .857-.685 1.542-1.54 1.542zm-50.071-52.608a.95.95 0 0 0-.941.942v50.124a.95.95 0 0 0 .941.942h50.071a.95.95 0 0 0 .942-.942v-50.124a.95.95 0 0 0-.942-.942h-50.071z" fill="#474747" fill-rule="nonzero"/><path fill="#474747" fill-rule="nonzero" d="M980.497 402.062l27.659-27.659.707.707-27.659 27.659zm-11.177-.142l12.105-12.104.707.707-12.105 12.105zm265.788-303.611l9.441-9.441.707.707-9.44 9.441zm-12.22 1.757l8.455-8.248.698.715-8.455 8.249zM177.347 240.79H166.22a1.17 1.17 0 0 1-1.199-1.2v-.256c0-.686.514-1.2 1.199-1.2h11.127a1.17 1.17 0 0 1 1.198 1.2v.257c.085.6-.514 1.2-1.198 1.2zm-11.127-2.142c-.343 0-.6.257-.6.6v.257c0 .343.257.6.6.6h11.127a.585.585 0 0 0 .599-.6v-.257c0-.343-.257-.6-.6-.6H166.22z"/><path d="M175.977 238.648h-8.302l-.086-.086c-2.91-1.799-4.879-5.483-5.307-9.853-.342-3.17.6-6.083 2.483-8.14 1.797-1.97 4.28-2.998 7.104-2.998 2.739 0 5.22 1.113 7.018 3.084 1.883 2.056 2.825 4.884 2.568 8.054-.428 4.456-2.397 8.14-5.478 9.94zm-8.131-.6h7.96c2.824-1.713 4.622-5.226 4.964-9.339.257-2.999-.599-5.655-2.396-7.625-1.627-1.8-4.023-2.828-6.59-2.828-2.569 0-4.965.943-6.677 2.828-1.798 1.97-2.568 4.626-2.311 7.625.428 4.199 2.31 7.626 5.05 9.34zm9.501 4.799H166.22a1.17 1.17 0 0 1-1.199-1.2v-.257c0-.685.514-1.2 1.199-1.2h11.127a1.17 1.17 0 0 1 1.198 1.2v.257c.085.685-.514 1.2-1.198 1.2zm-11.127-2.057c-.343 0-.6.257-.6.6v.257c0 .343.257.6.6.6h11.127a.585.585 0 0 0 .599-.6v-.257c0-.343-.257-.6-.6-.6H166.22z" fill="#474747" fill-rule="nonzero"/><path d="M174.265 248.159h-4.878a1.718 1.718 0 0 1-1.712-1.714v-4.284h8.216v4.284c0 1.028-.684 1.714-1.626 1.714zm-5.991-5.312v3.684c0 .6.513 1.028 1.027 1.028h4.879c.599 0 1.027-.514 1.027-1.028v-3.684h-6.933z" fill="#474747" fill-rule="nonzero"/><path d="M171.783 250.3c-1.455 0-2.653-1.113-2.653-2.398v-.343h5.22v.343c.086 1.285-1.112 2.399-2.567 2.399zm-1.969-2.141c.172.857 1.028 1.456 1.97 1.456.94 0 1.797-.6 1.968-1.456h-3.938zm-1.797-4.627h3.509v1h-3.509zm0 1.542h3.509v1h-3.509zm3.766-12.852c-1.198 0-2.14-1.8-2.14-4.027 0-2.228.942-4.027 2.14-4.027 1.198 0 2.14 1.8 2.14 4.027 0 2.228-.942 4.027-2.14 4.027zm0-7.454c-.77 0-1.54 1.37-1.54 3.427 0 1.97.855 3.427 1.54 3.427.77 0 1.54-1.37 1.54-3.427 0-2.056-.77-3.427-1.54-3.427zm-3.509 9.853c-.685 0-1.455-.514-1.712-1.285-.171-.428-.171-.943 0-1.457.171-.428.514-.856.941-.942.856-.343 1.884.171 2.311 1.2.172.428.172.942 0 1.456-.17.428-.513.857-.941.942-.257 0-.428.086-.6.086zm-.257-3.17c-.086 0-.257 0-.342.086-.257.085-.428.342-.6.6a2.09 2.09 0 0 0 0 1.028c.257.685.942 1.028 1.456.856.256-.085.428-.342.599-.6a2.09 2.09 0 0 0 0-1.028c-.171-.6-.685-.942-1.113-.942zm7.618 3.17c-.171 0-.343 0-.514-.086a1.696 1.696 0 0 1-.941-.942c-.172-.428-.172-.943 0-1.457.428-1.028 1.37-1.542 2.31-1.2.429.172.771.515.942.943.171.429.171.943 0 1.457-.428.771-1.113 1.285-1.797 1.285zm.256-3.17c-.427 0-.941.343-1.198.857a1.093 1.093 0 0 0 0 1.028c.086.257.343.514.6.6.598.257 1.198-.172 1.454-.857a1.093 1.093 0 0 0 0-1.028 1.034 1.034 0 0 0-.599-.6h-.257z" fill="#474747" fill-rule="nonzero"/><path d="M170.242 238.391l-.599-.086c.171-1.542.257-5.655-1.027-6.683l.428-.428c1.798 1.456 1.198 7.026 1.198 7.197z" fill="#474747" fill-rule="nonzero"/><path d="M169.387 235.05c-1.199 0-2.14-.772-2.226-.857l.428-.429s1.113.943 2.397.6c1.112-.257 1.968-1.37 2.739-3.256l.599.172c-.77 2.142-1.883 3.341-3.167 3.684-.343 0-.6.086-.77.086zm4.108 3.341c0-.257-.342-5.74 1.37-7.197l.427.428c-1.284 1.028-1.284 5.227-1.198 6.683l-.6.086z" fill="#474747" fill-rule="nonzero"/><path d="M174.35 235.05c-.256 0-.513 0-.77-.086-1.283-.343-2.396-1.542-3.166-3.599l.599-.171c.684 1.885 1.626 2.999 2.739 3.256 1.37.343 2.567-.6 2.567-.6l.343.514c-.086-.086-1.027.686-2.311.686z" fill="#474747" fill-rule="nonzero"/><g fill-rule="nonzero" fill="#474747"><path d="M108.103 49.207l-17.204-13.28 31.155-6.94-13.951 20.22zM92.353 36.27l15.664 12.081L120.77 29.93l-28.416 6.34z"/><path d="M99.201 51.092l-2.054-11.138 8.56 6.597-6.506 4.541zm-1.198-9.682l1.626 8.568 5.05-3.513-6.676-5.055z"/><path d="M102.2 43.954l19.02-14.722.612.79-19.02 14.723z"/><path d="M97.48 40.35l23.788-11.162.425.906-23.789 11.162zm1.639 10.082l2.967-6.36.906.423-2.967 6.36z"/></g><g fill-rule="nonzero" fill="#474747"><path d="M263.966 131.204h-7.19a1.718 1.718 0 0 1-1.712-1.714v-.77c0-.943.77-1.714 1.712-1.714h7.104c.942 0 1.712.77 1.712 1.713v.771c0 .943-.685 1.714-1.626 1.714zm-7.19-3.599c-.6 0-1.027.514-1.027 1.029v.77c0 .6.513 1.029 1.027 1.029h7.104c.6 0 1.027-.514 1.027-1.028v-.771c0-.6-.513-1.029-1.027-1.029h-7.104z"/><path d="M263.966 134.717h-7.19a1.718 1.718 0 0 1-1.712-1.714v-.77c0-.943.77-1.714 1.712-1.714h7.104c.942 0 1.712.77 1.712 1.713v.771c0 .943-.685 1.714-1.626 1.714zm-7.19-3.513c-.6 0-1.027.514-1.027 1.028v.771c0 .6.513 1.028 1.027 1.028h7.104c.6 0 1.027-.514 1.027-1.028v-.77c0-.6-.513-1.029-1.027-1.029h-7.104z"/><path d="M260.37 137.544a3.44 3.44 0 0 1-3.423-3.084v-.343h7.019v.343c-.343 1.714-1.798 3.084-3.595 3.084zm-2.824-2.827c.257 1.285 1.455 2.228 2.825 2.228s2.482-.943 2.824-2.228h-5.649z"/><path d="M260.37 137.459c-.17 0-.342 0-.427-.086h-.086l-.085-.086c-.172-.171-.343-.428-.343-.685a.95.95 0 0 1 .942-.943.95.95 0 0 1 .941.943c0 .257-.085.514-.342.685l-.086.086h-.085c-.086.086-.257.086-.428.086zm-.256-.6h.514c0-.086.085-.086.085-.171a.368.368 0 0 0-.342-.343.368.368 0 0 0-.343.343c0 .085.086.085.086.171zm3.166-15.594h-.085v-.6h.086c.77 0 1.455-.685 1.455-1.456 0-.771-.685-1.457-1.455-1.457s-1.455.686-1.455 1.457v.085h-.6v-.085c0-1.114.942-2.057 2.055-2.057 1.113 0 2.054.943 2.054 2.057 0 1.114-.941 2.056-2.054 2.056zm-5.82 0c-1.112 0-2.054-.942-2.054-2.056s.942-2.057 2.055-2.057c1.112 0 2.054.943 2.054 2.057v.085h-.6c0-.856-.684-1.542-1.454-1.542-.77 0-1.455.686-1.455 1.457 0 .77.684 1.456 1.455 1.456v.6z"/><path d="M261.227 119.123h1v1h-1z"/><path d="M261.227 119.209h1v8.14h-1zm-2.311 0h1v8.14h-1z"/><path d="M257.46 120.666h5.907v1h-5.906zm1.627 11.824h6.334v1h-6.334zm-3.595 0h2.14v1h-2.14zm5.821-3.685h3.852v1h-3.852zm-1.713 0h1v1h-1zm-4.28 0h3.51v1h-3.51z"/><path d="M263.623 127.605h-6.505c-4.108-1.37-6.933-5.312-6.933-9.682a10.16 10.16 0 0 1 10.186-10.196 10.16 10.16 0 0 1 10.185 10.196c0 4.456-2.739 8.312-6.933 9.682zm-3.252-19.192a9.576 9.576 0 0 0-9.587 9.596 9.608 9.608 0 0 0 6.42 9.082h6.248a9.608 9.608 0 0 0 6.42-9.082c.085-5.312-4.195-9.596-9.501-9.596z"/></g><path d="M125.991 168.647h-7.275c-.6 0-1.027-.429-1.027-1.029 0-.6.428-1.028 1.027-1.028h7.275c.6 0 1.027.429 1.027 1.028 0 .515-.513 1.029-1.027 1.029zm-7.275-1.457c-.257 0-.428.171-.428.428 0 .258.171.429.428.429h7.275c.257 0 .428-.171.428-.429 0-.257-.17-.428-.428-.428h-7.275z" fill="#474747" fill-rule="nonzero"/><path d="M126.077 167.19h-7.532l-.086-.086c-2.567-2.57-4.194-7.625-4.194-13.109 0-6.854 2.568-12.252 6.848-14.394.856-.429 1.797-.343 2.653.085 3.252 1.8 6.676 7.112 6.676 14.31 0 5.483-1.626 10.452-4.194 13.108l-.171.086zm-7.275-.6h7.018c2.397-2.484 3.937-7.283 3.937-12.595 0-6.94-3.338-11.995-6.333-13.794-.685-.343-1.455-.429-2.055-.086-4.022 2.056-6.505 7.197-6.505 13.88 0 5.227 1.541 10.025 3.938 12.595zm7.189 3.77h-7.275c-.6 0-1.027-.428-1.027-1.028 0-.6.428-1.028 1.027-1.028h7.275c.6 0 1.027.428 1.027 1.028 0 .514-.513 1.028-1.027 1.028zm-7.275-1.456c-.257 0-.428.171-.428.428s.171.429.428.429h7.275c.257 0 .428-.172.428-.429s-.17-.428-.428-.428h-7.275z" fill="#474747" fill-rule="nonzero"/><path d="M125.991 171.817h-7.275c-.6 0-1.027-.429-1.027-1.028 0-.6.428-1.028 1.027-1.028h7.275c.6 0 1.027.428 1.027 1.028 0 .6-.513 1.028-1.027 1.028zm-7.275-1.457c-.257 0-.428.172-.428.429s.171.428.428.428h7.275c.257 0 .428-.171.428-.428s-.17-.429-.428-.429h-7.275z" fill="#474747" fill-rule="nonzero"/><path d="M122.31 173.273c-1.112 0-1.968-.77-1.968-1.799v-.343h3.852v.343c.086 1.028-.77 1.8-1.883 1.8zm-1.283-1.456c.171.514.685.857 1.284.857.6 0 1.113-.343 1.284-.857h-2.568zm-1.712-16.622c-.599 0-1.112-.686-1.112-1.457 0-.857.513-1.456 1.112-1.456.6 0 1.113.685 1.113 1.456 0 .857-.428 1.457-1.113 1.457zm0-2.314c-.257 0-.513.343-.513.857s.256.857.513.857.514-.343.514-.857-.257-.857-.514-.857zm3.167 2.314c-.599 0-1.113-.686-1.113-1.457 0-.857.514-1.456 1.113-1.456.6 0 1.113.685 1.113 1.456 0 .857-.514 1.457-1.113 1.457zm0-2.314c-.257 0-.513.343-.513.857s.256.857.513.857.514-.343.514-.857-.257-.857-.514-.857zm3.167 2.314c-.6 0-1.113-.686-1.113-1.457 0-.857.514-1.456 1.113-1.456.6 0 1.113.685 1.113 1.456 0 .857-.514 1.457-1.113 1.457zm0-2.314c-.257 0-.514.343-.514.857s.257.857.514.857.514-.343.514-.857-.257-.857-.514-.857z" fill="#474747" fill-rule="nonzero"/><path d="M120.685 167.104c-.172 0-.257-.085-.257-.257-.086-.428-1.798-10.367-1.798-12.252 0-.171.172-.343.343-.343.171 0 .342.172.342.343 0 1.8 1.798 11.995 1.798 12.081-.086.257-.172.428-.428.428zm2.995 0c-.256-.085-.342-.257-.256-.342 1.797-7.198 2.396-11.996 2.396-12.081 0-.172.171-.257.343-.257.17 0 .256.171.256.342 0 .086-.599 4.884-2.396 12.167 0 .086-.171.171-.343.171zm-1.198-11.909c-1.712 0-2.824-2.057-2.824-2.142-.086-.172 0-.343.17-.429.172-.085.343 0 .429.172 0 0 .941 1.885 2.31 1.885.172 0 .343.171.343.342 0 .172-.257.172-.428.172z" fill="#474747" fill-rule="nonzero"/><path d="M125.649 155.195c-.856 0-2.482-1.8-2.825-2.228-.085-.171-.085-.343 0-.428.086-.086.343-.086.428 0 .77.942 1.883 1.97 2.311 1.97.172 0 .343.172.343.343 0 .171-.086.343-.257.343zm1182.795 72.915h-4.878a.368.368 0 0 1-.343-.343v-20.65c0-.17.172-.342.343-.342h4.878c.172 0 .343.171.343.343v20.649c-.086.171-.171.342-.343.342zm-4.622-.6h4.28v-20.05h-4.28v20.05zm10.699-41.813c-.17 0-.256-.085-.342-.257l-2.482-20.563c0-.086 0-.172.086-.257.085-.086.085-.086.17-.086l4.794-.6c.171 0 .342.086.342.257l2.482 20.564c0 .085 0 .171-.085.257-.086.085-.086.085-.171.085l-4.794.6c.086 0 .086 0 0 0zm-2.14-20.563l2.397 19.963 4.194-.514-2.396-19.963-4.194.514zm43.567 57.492h-.171l-4.365-2.142c-.172-.086-.257-.257-.172-.429l8.988-18.592c.085-.172.256-.172.428-.172l4.365 2.142c.085 0 .085.086.17.172v.257l-8.986 18.592c0 .086-.086.086-.171.172h-.086zm-3.937-2.57l3.851 1.884 8.73-18.078-3.85-1.885-8.731 18.078zm-38.945-134.349h-4.878a.368.368 0 0 1-.343-.342v-20.65c0-.17.171-.342.343-.342h4.878c.172 0 .343.171.343.342v20.65c-.086.171-.171.342-.343.342zm-4.536-.6h4.28V65.059h-4.28v20.05zm-56.148 20.993h-38.517c-.856 0-1.54-.686-1.54-1.543V66.001c0-.857.684-1.543 1.54-1.543h38.517c.856 0 1.54.686 1.54 1.543v38.556c0 .857-.684 1.542-1.54 1.542zm-38.602-40.956a.95.95 0 0 0-.942.942v38.557a.95.95 0 0 0 .942.942h38.516a.95.95 0 0 0 .942-.942V66.086a.95.95 0 0 0-.942-.942h-38.516z" fill="#474747" fill-rule="nonzero"/><path d="M1235.263 85.707h-4.878a.368.368 0 0 1-.343-.342v-20.65c0-.17.171-.342.343-.342h4.878c.171 0 .343.171.343.342v20.65c-.086.171-.172.342-.343.342zm-4.536-.6h4.28V65.059h-4.28v20.05zM989.358 382.078h-6.249a.368.368 0 0 1-.342-.342V355.26c0-.171.171-.343.342-.343h6.249c.17 0 .342.172.342.343v26.476c-.086.171-.171.342-.342.342zm-5.906-.6h5.649v-25.875h-5.65v25.876z" fill="#474747" fill-rule="nonzero"/><path d="M1303.566 207.118h4.879v20.649h-4.88zm8.487-42.207l4.843-.591 2.502 20.496-4.843.592zm48.543 36.741l4.393 2.123-8.984 18.592-4.393-2.123zm-52.409-136.937h4.88v20.65h-4.88zm-77.802 0h4.879v20.65h-4.88zM983.11 355.26h6.248v26.475h-6.248z" opacity=".19" fill-rule="nonzero" fill="#666"/><path d="M624.393 395.959h-63.509l4.965-15.68h53.58l4.964 15.68zm-62.653-.6h61.883l-4.536-14.48h-52.725l-4.622 14.48z" fill="#474747" fill-rule="nonzero"/><path fill="#474747" fill-rule="nonzero" d="M561.312 395.359h62.653v1h-62.653z"/><path d="M619.087 398.358v-2.999h4.536l-3.51-11.31.6-.257 6.933 14.137-8.56.429zm.599-2.4v1.8l7.018-.343-4.793-9.767 2.568 8.396h-4.793v-.085z" fill="#474747" fill-rule="nonzero"/><path d="M620.456 383.963l3.595 11.653h-4.622v2.4l7.703-.344z" opacity=".19" fill-rule="nonzero" fill="#666"/><path d="M566.19 398.358l-8.558-.429 6.933-14.137.599.257-3.51 11.31h4.537v2.999zm-7.531-.943l7.018.343v-1.8h-4.793l2.568-8.396-4.793 9.853z" fill="#474747" fill-rule="nonzero"/><path d="M564.821 383.963l-3.594 11.653h4.707v2.4l-7.789-.344z" opacity=".19" fill-rule="nonzero" fill="#666"/><path d="M427.617 338.638H413.58l-8.987 11.91 9.159 20.735 20.884-20.735zm-141.74 0H271.84l-.171.257 14.208 11.481zm21.056 11.91l-7.019-11.91h-14.037v32.902z" opacity=".23" fill-rule="nonzero" fill="#FFF"/><path d="M393.295 350.462h41.341M399.2 338.638l14.295 11.824m-16.005-7.626l7.617 7.626m25.249-7.626l-8.388 7.626" fill="#FFF" fill-rule="nonzero"/><path fill="#474747" fill-rule="nonzero" d="M285.706 321.33h1v9.768h-1zm23.11 33.159h9.757v1h-9.757zm-55.293 0h9.757v1h-9.757zm14.262-29.334l.808-.588 5.744 7.901-.81.588zm-13.19 13.535l.382-.924 9.028 3.73-.382.925zm43.035-6.283l5.542-8.03.823.569-5.543 8.03zm10.625 9.839l9.094-3.536.363.932-9.094 3.536zm104.469-20.916h1v9.768h-1zm23.11 33.159h9.757v1h-9.757zm-55.292 0h9.757v1h-9.757zm14.263-29.336l.809-.588 5.743 7.901-.809.588zm-13.187 13.544l.382-.924 9.028 3.73-.382.924zm43.026-6.28l5.544-8.03.822.569-5.543 8.03zm168.08 23.871h1v12.681h-1zm-23.408 4.985l.809-.588 7.456 10.257-.81.588zm39.009 9.513l7.196-10.424.823.568-7.196 10.424zm-172.972-28.563l9.094-3.536.362.932-9.093 3.536z"/><path d="M142.853 426.976h24.907v1.542h-24.907zm32.269 0h24.907v1.542h-24.907zm-32.269-6.684h24.907v1.542h-24.907zm32.269 0h24.907v1.542h-24.907z" opacity=".39" fill-rule="nonzero" fill="#666"/><path d="M211.583 431.773h247.96v3.085h-247.96z" opacity=".19" fill-rule="nonzero" fill="#666"/><path d="M211.583 402.985H450.47v2.57H211.583z" opacity=".39" fill-rule="nonzero" fill="#666"/><path d="M63.852 431.773H130.1v3.085H63.852z" opacity=".19" fill-rule="nonzero" fill="#666"/><path d="M69.928 401.956H130.1v2.57H69.93z" opacity=".39" fill-rule="nonzero" fill="#666"/><path d="M130.1 376.766l-65.906-.086c-2.054.429-3.852 1.286-5.221 2.485H130.1v-2.399zm-3.68-51.494h88.758v2.399H126.42z" opacity=".19" fill-rule="nonzero" fill="#666"/><ellipse cx="1.455" cy="1.285" rx="1.198" ry="1.2" transform="translate(137.803 415.237)" opacity=".39" fill-rule="nonzero" fill="#666"/><ellipse cx="1.455" cy="1.971" rx="1.198" ry="1.2" transform="translate(137.803 429.803)" opacity=".39" fill-rule="nonzero" fill="#666"/><ellipse cx="1.883" cy="1.971" rx="1.198" ry="1.2" transform="translate(201.141 429.803)" opacity=".39" fill-rule="nonzero" fill="#666"/><ellipse cx="1.883" cy="1.285" rx="1.198" ry="1.2" transform="translate(201.141 415.237)" opacity=".39" fill-rule="nonzero" fill="#666"/><path d="M139.258 291.856h63.167v2.4h-63.167z" opacity=".19" fill-rule="nonzero" fill="#666"/><path d="M193.951 296.055h-46.22l-1.797-1.8h49.815zm-63.252 31.701h80.799v1.8h-80.8z" opacity=".39" fill-rule="nonzero" fill="#666"/><ellipse cx="1.455" cy="1.2" rx="1.198" ry="1.2" transform="translate(156.633 394.674)" opacity=".51" fill-rule="nonzero" fill="#FFF"/><ellipse cx="1.712" cy="1.2" rx="1.198" ry="1.2" transform="translate(170.328 394.674)" opacity=".51" fill-rule="nonzero" fill="#FFF"/><ellipse cx="1.969" cy="1.2" rx="1.198" ry="1.2" transform="translate(184.023 394.674)" opacity=".51" fill-rule="nonzero" fill="#FFF"/><path d="M143.538 347.206a6.908 6.908 0 0 1-6.933-6.94 6.908 6.908 0 0 1 6.933-6.94 6.908 6.908 0 0 1 6.933 6.94 6.908 6.908 0 0 1-6.933 6.94zm0-13.195a6.323 6.323 0 0 0-6.334 6.34 6.323 6.323 0 0 0 6.334 6.341 6.323 6.323 0 0 0 6.334-6.34 6.323 6.323 0 0 0-6.334-6.34z" fill="#474747" fill-rule="nonzero"/><path d="M143.538 343.95c-1.969 0-3.595-1.628-3.595-3.598 0-1.971 1.626-3.599 3.595-3.599 1.968 0 3.595 1.628 3.595 3.599 0 1.97-1.541 3.598-3.595 3.598zm0-6.683c-1.627 0-2.996 1.371-2.996 2.999 0 1.628 1.37 2.999 2.996 2.999s2.995-1.371 2.995-2.999a2.979 2.979 0 0 0-2.995-2.999z" fill="#474747" fill-rule="nonzero"/><ellipse cx="3.167" cy="2.999" rx="2.825" ry="2.827" transform="translate(140.37 337.267)" opacity=".23" fill-rule="nonzero" fill="#FFF"/><path d="M141.312 340.866c0-1.542 1.284-2.828 2.825-2.828.599 0 1.198.172 1.712.514-.514-.685-1.37-1.2-2.311-1.2-1.54 0-2.825 1.286-2.825 2.828 0 .943.428 1.8 1.198 2.314-.342-.429-.599-.943-.599-1.628z" opacity=".29" fill-rule="nonzero" fill="#FFF"/><path d="M200.456 342.836c-.085-1.542 1.113-2.913 2.654-2.998.599 0 1.112.085 1.626.342-.342-1.285-1.54-2.227-2.91-2.142-1.54.086-2.74 1.457-2.653 3 .085 1.027.599 1.798 1.369 2.313-.086-.172-.086-.343-.086-.515z" opacity=".51" fill-rule="nonzero" fill="#FFF"/><path d="M565.934 395.873h53.495v4.884h-53.495zm-354.351-16.708h304.708c-1.37-1.2-3.167-2.056-5.221-2.485H211.583v2.485z" opacity=".19" fill-rule="nonzero" fill="#666"/><path d="M205.934 434.858H135.92v-21.249h70.014v21.249zm-69.415-.6h68.816v-20.05H136.52v20.05z" fill="#474747" fill-rule="nonzero"/><path d="M135.406 411.724v22.791h.77V413.61h69.416v20.906h.77v-22.79z" opacity=".19" fill-rule="nonzero" fill="#666"/><path d="M205.592 352.69v52.865h-69.415V352.69h-.77v54.75h70.955v-54.75z" opacity=".39" fill-rule="nonzero" fill="#666"/><path d="M211.669 434.858h-81.57V327.585h81.57v107.273zm-80.97-.6h80.37V328.185H130.7v106.073z" fill="#474747" fill-rule="nonzero"/><path d="M205.934 405.898H135.92v-53.551h70.014v53.55zm-69.415-.6h68.816v-52.351H136.52v52.351z" fill="#474747" fill-rule="nonzero"/><path d="M176.148 385.249H165.62v-.343c0-2.913 2.397-5.227 5.222-5.227 2.824 0 5.22 2.4 5.22 5.227v.343h.086zm-9.843-.6h9.244c-.171-2.4-2.14-4.37-4.622-4.37-2.482 0-4.536 1.97-4.622 4.37z" fill="#474747" fill-rule="nonzero"/><path d="M173.324 384.906h2.31c0-2.57-2.14-4.713-4.707-4.713a5 5 0 0 0-2.225.514c2.396.086 4.365 1.885 4.622 4.199z" opacity=".19" fill-rule="nonzero" fill="#666"/><path d="M175.806 383.62c-.086 0-.257-.085-.257-.17-.856-1.629-3.252-3.17-3.852-3.17-.17 0-.256-.087-.256-.172 0-.086 0-.257.085-.343l12.411-9.082c.086-.086.257-.086.428 0 .086.085.086.257 0 .428l-8.302 12.424c-.086 0-.172.086-.257.086zm-3.424-3.77c1.027.43 2.654 1.629 3.424 2.828l7.018-10.539-10.442 7.712zm-1.883-18.078h1v4.113h-1zm-12.697 5.61l.707-.707 2.909 2.909-.707.707zm22.731 2.383l2.905-2.905.707.707-2.905 2.905zm4.431 9.829h4.108v1h-4.108z" fill="#474747" fill-rule="nonzero"/><path d="M170.157 381.907c-1.027.428-1.798 1.2-2.311 2.313l-.514-.514c.428-1.028 1.199-1.799 2.311-2.313l.514.514z" opacity=".51" fill-rule="nonzero" fill="#FFF"/><path d="M162.111 367.084c-4.622 1.885-8.045 5.398-10.356 10.368l-2.397-2.4c1.797-4.54 5.221-8.053 10.357-10.367l2.396 2.4z" opacity=".24" fill-rule="nonzero" fill="#FFF"/><path d="M198.402 385.249h-53.495v-.343c0-14.737 11.983-26.733 26.705-26.733 14.722 0 26.705 11.996 26.705 26.733v.343h.085zm-52.896-.6h52.297c-.171-14.309-11.812-25.876-26.106-25.876-14.379 0-26.02 11.567-26.19 25.876z" fill="#474747" fill-rule="nonzero"/><path fill="#474747" fill-rule="nonzero" d="M152.696 379.765h4.108v1h-4.108z"/><path d="M198.745 386.448h-53.41l-.685-1.456h53.495z" opacity=".39" fill-rule="nonzero" fill="#666"/><path d="M202.254 345.235c-2.311 0-4.109-1.884-4.109-4.112 0-.429.086-.857.172-1.2-.514.686-.77 1.543-.77 2.4a4.111 4.111 0 0 0 4.108 4.112c1.883 0 3.423-1.2 3.937-2.913-.77 1.028-1.969 1.713-3.338 1.713z" opacity=".19" fill-rule="nonzero" fill="#666"/><path d="M164.423 315.847h11.555v1.2h-11.555z" opacity=".39" fill-rule="nonzero" fill="#666"/><path d="M207.304 322.444H191.04v-4.712h16.263v4.712zm-15.75-.685h15.065v-3.513h-15.064v3.513z" fill="#474747" fill-rule="nonzero"/><path d="M206.02 318.246h-13.78v-.343c.428-3.427 3.338-6.083 6.847-6.083 3.51 0 6.42 2.57 6.847 6.083l.086.343zm-13.096-.6h12.411c-.513-2.999-3.167-5.14-6.162-5.14-2.996 0-5.735 2.141-6.249 5.14z" fill="#474747" fill-rule="nonzero"/><path d="M190.87 317.988h15.835v1.2H190.87zm-60.856 28.962c-.428 0-.856-.43-1.198 0v9.938c.342.429.77 0 1.198 0v-9.939z" opacity=".19" fill-rule="nonzero" fill="#666"/><path d="M130.357 357.145h-.343c-2.91 0-5.22-2.399-5.22-5.226 0-2.914 2.396-5.227 5.22-5.227h.343v10.453zm-.6-9.939c-2.396.172-4.365 2.142-4.365 4.627s1.883 4.455 4.365 4.627v-9.254zm1005.193 87.566h-5.222a.368.368 0 0 1-.342-.342V112.183c0-.172.171-.343.342-.343h5.222c.17 0 .342.171.342.343v322.332c0 .086-.171.257-.342.257zm-4.88-.6h4.623V112.527h-4.622v321.647zm48.531.6h-5.22a.368.368 0 0 1-.343-.342V112.183c0-.172.171-.343.342-.343h5.221c.172 0 .343.171.343.343v322.332c0 .086-.171.257-.343.257zm-4.878-.6h4.622V112.527h-4.622v321.647z" fill="#474747" fill-rule="nonzero"/><path d="M1173.38 112.354h1.369v322.075h-1.369z" opacity=".39" fill-rule="nonzero" fill="#666"/><path d="M1129.643 112.183h1.37v322.932h-1.37z" opacity=".19" fill-rule="nonzero" fill="#666"/><path d="M1133.923 112.183h1.369v322.932h-1.37z" opacity=".39" fill-rule="nonzero" fill="#666"/><path d="M1173.38 151.596h-38.43a.368.368 0 0 1-.343-.343v-3.94c0-.172.171-.344.343-.344h38.43c.171 0 .343.172.343.343v3.941c0 .257-.172.343-.343.343zm-38.088-.6h37.832v-3.341h-37.832v3.341zm38.088 20.307h-38.43a.368.368 0 0 1-.343-.343v-3.941c0-.172.171-.343.343-.343h38.43c.171 0 .343.171.343.343v3.941a.368.368 0 0 1-.343.343zm-38.088-.6h37.832v-3.342h-37.832v3.342zm38.088 20.221h-38.43a.368.368 0 0 1-.343-.343v-3.941c0-.172.171-.343.343-.343h38.43c.171 0 .343.171.343.343v3.941c0 .257-.172.343-.343.343zm-38.088-.6h37.832v-3.342h-37.832v3.342zm38.088 20.306h-38.43a.368.368 0 0 1-.343-.342v-3.942c0-.171.171-.342.343-.342h38.43c.171 0 .343.171.343.342v3.942a.368.368 0 0 1-.343.342zm-38.088-.6h37.832v-3.34h-37.832v3.34zm38.088 20.221h-38.43a.368.368 0 0 1-.343-.342v-3.942c0-.171.171-.342.343-.342h38.43c.171 0 .343.171.343.342v3.942c0 .257-.172.342-.343.342zm-38.088-.6h37.832v-3.34h-37.832v3.34zm38.088 20.307h-38.43a.368.368 0 0 1-.343-.343v-3.941c0-.171.171-.343.343-.343h38.43c.171 0 .343.172.343.343v3.941a.368.368 0 0 1-.343.343zm-38.088-.6h37.832v-3.341h-37.832v3.341zm38.088 20.222h-38.43a.368.368 0 0 1-.343-.344v-3.941c0-.171.171-.343.343-.343h38.43c.171 0 .343.172.343.343v3.941c0 .257-.172.343-.343.343zm-38.088-.6h37.832v-3.342h-37.832v3.341zm38.088 20.306h-38.43a.368.368 0 0 1-.343-.343v-3.941c0-.172.171-.343.343-.343h38.43c.171 0 .343.171.343.343v3.941a.368.368 0 0 1-.343.343zm-38.088-.6h37.832v-3.342h-37.832v3.342zm38.088 20.221h-38.43a.368.368 0 0 1-.343-.343v-3.856c0-.171.171-.342.343-.342h38.43c.171 0 .343.171.343.342v3.942c0 .171-.172.257-.343.257zm-38.088-.6h37.832v-3.342h-37.832v3.342zm38.088 20.306h-38.43a.368.368 0 0 1-.343-.342v-3.942c0-.171.171-.342.343-.342h38.43c.171 0 .343.17.343.342v3.942a.368.368 0 0 1-.343.342zm-38.088-.6h37.832v-3.341h-37.832v3.342zm38.088 20.221h-38.43a.368.368 0 0 1-.343-.342v-3.942c0-.171.171-.342.343-.342h38.43c.171 0 .343.17.343.342v3.942c0 .257-.172.342-.343.342zm-38.088-.6h37.832v-3.341h-37.832v3.342zm38.088 20.307h-38.43a.368.368 0 0 1-.343-.343v-3.941c0-.171.171-.343.343-.343h38.43c.171 0 .343.172.343.343v3.941a.368.368 0 0 1-.343.343zm-38.088-.6h37.832V364h-37.832v3.341zm38.088 20.221h-38.43a.368.368 0 0 1-.343-.343v-3.941c0-.171.171-.343.343-.343h38.43c.171 0 .343.172.343.343v3.941c0 .257-.172.343-.343.343zm-38.088-.6h37.832v-3.341h-37.832v3.341zm38.088 20.307h-38.43a.368.368 0 0 1-.343-.343v-3.941c0-.172.171-.343.343-.343h38.43c.171 0 .343.171.343.343v3.94a.368.368 0 0 1-.343.344zm-38.088-.6h37.832v-3.342h-37.832v3.342z" fill="#474747" fill-rule="nonzero"/><path d="M1134.693 149.625h38.859v1.8h-38.86zm0 19.45h38.859v1.8h-38.86zm0 20.05h38.859v1.799h-38.86zm0 19.449h38.859v1.799h-38.86zm0 19.536h38.859v1.798h-38.86zm0 19.449h38.859v1.799h-38.86zm0 20.05h38.859v1.799h-38.86zm0 19.449h38.859v1.8h-38.86zm0 19.535h38.859v1.799h-38.86zm0 20.05h38.859v1.799h-38.86zm0 19.449h38.859v1.8h-38.86zm0 19.45h38.859v1.799h-38.86zm0 20.135h38.859v1.799h-38.86zm0 19.449h38.859v1.8h-38.86zm10.613-253.53l-5.221-.171v15.765l5.221-.171z" opacity=".19" fill-rule="nonzero" fill="#666"/><path d="M1145.306 190.752l-5.221.086v15.68h5.221zm0 39.328l-5.221.171v15.68h5.221zm0 19.707l-5.221.085v15.509h5.221zm0 19.535l-5.221.086v15.68h5.221zm0 19.535l-5.221.172v15.936l5.221-.085zm-5.221 39.585h5.221v15.765h-5.221zm5.221 19.707h-5.221v15.594l5.221.171zm0 19.621l-5.221-.086v15.765h5.221zm0 19.792l-5.221-.171v15.765l5.221.171zm-5.221 19.535h5.221v27.932h-5.221zm5.221-98.19h-5.221v15.508l5.221.086zm0-98.447l-5.221.085v15.594h5.221zm0-39.586l-5.221.086v15.851h5.221zm0-55.692h-5.221v32.13l5.221.086zm38.431-.001h5.22V435.03h-5.22zm-38.431 38.899v3.942h28.16v-3.941z" opacity=".19" fill-rule="nonzero" fill="#666"/><path d="M1178.858 154.08h4.88v3.942h-4.88zm-33.552 19.708v3.855h28.074v-3.855zm38.431 0h-5.05l-.086 3.855h5.136zm-38.431 19.621v3.94h27.989v-3.94zm38.431 0h-5.05v3.94h5.05zm-38.431 19.706v3.856h28.245l-.085-3.856zm33.466 0h4.964v3.941h-4.964zm-33.466 19.621v3.941h28.074v-3.94zm33.295 0h5.136v3.941h-5.136zm5.136 19.707h-4.964v3.855h4.964zm-38.43 0h28.33v3.94h-28.33zm-.001 19.621v3.941h28.245l-.085-3.941zm38.431 0h-4.964v3.941h4.964zm-38.431 19.621v3.941h28.074l-.085-3.941zm38.431 0h-4.964v3.941h4.964zm0 19.706h-4.879l-.171 3.942h5.05zm-38.431 0v3.942h28.245l-.085-3.942zm0 19.621v3.942h28.074l.086-3.942zm38.431 0h-4.964l-.172 3.942h5.136zm-38.431 19.708v3.94h28.16l-.086-3.94zm38.431 0h-5.05l-.086 3.94h5.136zm-38.431 19.62v3.941h28.331l-.171-3.94zm38.431 0h-5.05l-.171 3.941h5.22zm-38.43 19.707h28.33v3.94h-28.33zm38.43 0h-5.05l-.086 3.941h5.136zm-38.431 19.621v3.941h28.074v-3.941zm38.431 0h-5.05l-.171 3.941h5.22zM1058.43 114.582l2.397 6.426h69.415c0-2.142-.6-4.284-.514-6.426h-71.298zm76.947 0c0 2.142-.513 4.284-.513 6.426h38.602l-.086-6.426h-38.003zm303.253 0h-259.686l.257 6.426h259.429zm0 148.914h-195.407l-3.338-6.255h198.745z" opacity=".19" fill-rule="nonzero" fill="#666"/><path d="M1274.464 257.327v20.392h-10.613v.857h11.555v-21.25zm-175.035-142.745v20.992h-10.614v.942h11.555v-21.934z" opacity=".19" fill-rule="nonzero" fill="#666"/><path d="M171.013 360.572c13.866 0 25.25 10.71 26.362 24.334h.685c0-14.652-11.812-26.476-26.448-26.476-12.41 0-22.853 8.569-25.678 20.135 3.595-10.453 13.438-17.993 25.079-17.993z" opacity=".39" fill-rule="nonzero" fill="#666"/><path d="M256.262 150.74a22.19 22.19 0 0 0 3.424-.258c-.428-3.17-1.455-6.083-3.081-8.568-5.906-1.114-10.87-4.627-13.952-9.51-1.284-.257-2.653-.343-3.937-.343a22.19 22.19 0 0 0-3.424.257c1.284 10.367 10.186 18.421 20.97 18.421z" opacity=".19" fill-rule="nonzero" fill="#666"/><ellipse cx="1.027" cy="1.371" rx="1" ry="1" transform="translate(107.846 337.267)" opacity=".57" fill-rule="nonzero" fill="#FFF"/><path d="M912.41 407.526c.257-.857.6-1.714.942-2.57h-22.939c-1.284 0-2.31.856-2.31 1.884v.686h24.307zm-.256 1.884h-14.979v-.6h15.15zm-.086 1.8h-19.772v-.6h20.029zm.086 1.8h-12.582v-.6h12.753zm-17.461-.6h1.883v1h-1.883zm60.171.6h37.66v1.799h-37.66z" opacity=".19" fill-rule="nonzero" fill="#666"/><path d="M933.38 415.494c-1.455 0-2.567-1.114-2.567-2.57 0-1.457 1.112-2.57 2.567-2.57s2.568 1.113 2.568 2.57c-.085 1.456-1.198 2.57-2.568 2.57zm0-4.541a1.938 1.938 0 0 0-1.968 1.97c0 1.114.856 1.971 1.968 1.971a1.938 1.938 0 0 0 1.969-1.97c0-1.114-.941-1.971-1.969-1.971z" fill="#474747" fill-rule="nonzero"/><path d="M935.691 413.01a2.303 2.303 0 0 1-2.31 2.313 2.303 2.303 0 0 1-2.312-2.314 2.303 2.303 0 0 1 2.311-2.313c-.17 0-.342-.086-.599-.086-1.626 0-2.995 1.371-2.995 2.999 0 1.628 1.369 2.999 2.995 2.999 1.627 0 2.996-1.371 2.996-2.999 0-.257-.086-.428-.086-.6z" opacity=".19" fill-rule="nonzero" fill="#666"/><path d="M913.609 405.298h-2.996v-14.052c0-10.11 8.217-18.335 18.317-18.335h6.933l14.55 26.475-.513.343a21.092 21.092 0 0 0-16.52-7.969c-8.73 0-16.433 5.227-19.686 13.367l-.085.171zm-2.397-.6h1.969c3.338-8.225 11.212-13.537 20.2-13.537 5.734 0 11.212 2.227 15.235 6.254l-13.096-23.819h-6.59c-9.758 0-17.718 7.968-17.718 17.736v13.366z" fill="#474747" fill-rule="nonzero"/><path d="M928.844 373.253c-9.929 0-17.974 8.054-17.974 17.993v13.795h2.482c3.167-7.968 10.87-13.538 19.943-13.538 6.762 0 12.839 3.17 16.776 8.14l-14.465-26.304h-6.762v-.086z" opacity=".07" fill-rule="nonzero" fill="#666"/><path d="M933.38 398.443c-8.045 0-14.465 6.512-14.465 14.48 0 7.969 6.505 14.48 14.465 14.48s14.465-6.511 14.465-14.48c0-7.968-6.505-14.48-14.465-14.48zm0 27.247a12.646 12.646 0 0 1-12.667-12.68 12.646 12.646 0 0 1 12.667-12.682 12.646 12.646 0 0 1 12.668 12.681c0 7.026-5.735 12.681-12.668 12.681z" opacity=".39" fill-rule="nonzero" fill="#666"/><path d="M933.38 434.772c-11.982 0-21.826-9.767-21.826-21.848 0-11.996 9.758-21.85 21.826-21.85 11.983 0 21.826 9.769 21.826 21.85-.085 12.08-9.843 21.848-21.826 21.848zm0-43.012c-11.64 0-21.14 9.511-21.14 21.164 0 11.652 9.5 21.163 21.14 21.163s21.142-9.51 21.142-21.163-9.501-21.164-21.142-21.164z" fill="#474747" fill-rule="nonzero"/><path d="M933.38 391.418c6.42 0 12.24 2.827 16.177 7.283l-3.252-6.34c-3.766-2.314-8.131-3.685-12.839-3.685-10.613 0-19.686 6.854-22.939 16.365l2.91.086c2.91-8.054 10.785-13.71 19.943-13.71z" opacity=".19" fill-rule="nonzero" fill="#666"/><path d="M933.38 425.69c-7.018 0-12.753-5.74-12.753-12.766s5.735-12.767 12.753-12.767c7.019 0 12.754 5.74 12.754 12.767-.086 7.025-5.735 12.766-12.754 12.766zm0-24.847c-6.676 0-12.154 5.483-12.154 12.166 0 6.683 5.478 12.167 12.154 12.167 6.677 0 12.154-5.484 12.154-12.167-.085-6.769-5.477-12.166-12.154-12.166z" fill="#474747" fill-rule="nonzero"/><path d="M934.75 404.613l-.342-2.314c-7.019-.171-11.898 4.713-11.727 11.653l2.74.428c-.086-5.483 3.851-9.682 9.329-9.767z" opacity=".24" fill-rule="nonzero" fill="#FFF"/><path d="M946.134 395.188L905.99 322.7l.514-1.628 41.768 75.828z" opacity=".19" fill-rule="nonzero" fill="#666"/><ellipse cx=".942" cy=".6" rx="1" ry="1" transform="translate(932.097 411.81)" opacity=".35" fill-rule="nonzero" fill="#FFF"/><path d="M269.871 342.922l-4.194 7.54h11.812z" opacity=".23" fill-rule="nonzero" fill="#666"/><path d="M277.66 350.548l8.046 19.192v-19.535l-8.56.257zm-3.509-9.425l3.68 9.082h7.875z" opacity=".15" fill-rule="nonzero" fill="#666"/><path d="M285.706 370.94l-7.874-20.735-11.898.428z" opacity=".23" fill-rule="nonzero" fill="#666"/><path d="M271.755 339.324l-1.884 3.598 7.96 7.883-4.28-10.282z" opacity=".23" fill-rule="nonzero" fill="#666"/><g fill-rule="nonzero" fill="#474747"><path d="M285.877 371.968l-20.627-21.42 6.333-12.253h28.502l7.19 12.253-21.398 21.42zm-19.857-21.506l19.857 20.65 20.713-20.65-6.761-11.567H272.01l-5.991 11.567z"/><path d="M265.677 350.205h41.341v1h-41.34z"/><path d="M285.535 338.638h1v11.824h-1z"/><path d="M271.368 338.896l.636-.772 14.352 11.82-.636.771z"/><path d="M285.665 350.275l14.333-11.81.636.771-14.333 11.81z"/><path d="M285.877 371.283l-12.496-30.846.513-.171 11.983 29.389 12.411-29.646.514.171z"/><path d="M269.657 343.048l.707-.707 7.574 7.573-.708.707zm24.451 7.14l8.46-7.616.67.743-8.461 7.616z"/></g><path d="M399.287 339.066l-5.992 11.139h10.956zm14.037 31.874l-6.077-14.652-4.28 4.284zm-13.952-32.302l5.136 11.567 8.816-11.567z" opacity=".23" fill-rule="nonzero" fill="#666"/><path d="M404.25 350.205h-10.955l9.672 10.367 4.28-3.598z" opacity=".23" fill-rule="nonzero" fill="#666"/><g fill-rule="nonzero" fill="#474747"><path d="M413.495 371.968l-20.628-21.42 6.334-12.253h28.502l7.19 12.253-21.398 21.42zm-19.858-21.506l19.858 20.65 20.713-20.65-6.762-11.567H399.63l-5.992 11.567z"/><path d="M393.295 350.205h41.341v1h-41.34z"/><path d="M413.495 371.197l-14.294-31.96.513-.256 13.78 30.76 13.61-31.017.6.257z"/><path d="M413.36 338.803l.813-.583 8.494 11.831-.812.583z"/><path d="M404.246 350.336l9.127-11.876.793.609-9.127 11.876zm14.93 6.473l.682-.732 4.573 4.268-.682.731zm-16.419 3.846l4.236-4.236.707.707-4.236 4.236z"/></g><path d="M77 435h1286" stroke="#474747" stroke-width=".717"/></g></svg>