<svg id="Layer_1" xmlns="http://www.w3.org/2000/svg" viewBox="0 0 800 600"><script xmlns="" type="text/javascript" charset="utf-8" id="zm-extension"/><style>.st1{opacity:.1;fill:#11172d}.st2{fill:#fff;stroke:#333;stroke-miterlimit:10}.st4{opacity:.29;fill:#11172d}.st11{fill:#333}.st12{fill:#fff}.st13,.st15,.st19{fill:none;stroke:#333;stroke-miterlimit:10}.st15,.st19{stroke:#ffde00}.st19{opacity:.43}.st24{opacity:.69}.st24,.st27{fill:#ffde00}</style><path fill="none" stroke="#333" stroke-miterlimit="10" stroke-dasharray="4" d="M111.1 198.2h449v321.2h-449z"/><path class="st1" d="M493.5 353.8H351.3c-1.1 0-2-.9-2-2V154.5c0-1.1.9-2 2-2h142.2c1.1 0 2 .9 2 2v197.4c0 1-.9 1.9-2 1.9z"/><path class="st2" d="M485.6 346H343.4c-1.1 0-2-.9-2-2V146.7c0-1.1.9-2 2-2h142.2c1.1 0 2 .9 2 2V344c0 1.1-.9 2-2 2z"/><path fill="#fff" stroke="#333" stroke-miterlimit="10" stroke-dasharray="4" d="M357.9 230.4H471v37.4H357.9z"/><path class="st4" d="M357.6 288.5h116.3v2.3H357.6zm0-71.4h85.8v2.3h-85.8zm0-9.3h68.8v2.3h-68.8zm0 94.4h116.3v2.3H357.6zm0 13.7h116.3v2.3H357.6z"/><g opacity=".58"><linearGradient id="SVGID_1_" gradientUnits="userSpaceOnUse" x1="370.085" y1="157.073" x2="347.007" y2="240.73"><stop offset=".302" stop-color="#fedd00"/><stop offset=".536" stop-color="#feed76" stop-opacity=".776"/><stop offset=".735" stop-color="#fff9d4" stop-opacity=".585"/><stop offset=".824" stop-color="#fffef9" stop-opacity=".5"/><stop offset="1" stop-color="#fff"/></linearGradient><path fill="url(#SVGID_1_)" d="M357.6 198h12v-34.7h-12z"/><linearGradient id="SVGID_2_" gradientUnits="userSpaceOnUse" x1="386.506" y1="161.603" x2="363.428" y2="245.259"><stop offset=".302" stop-color="#fedd00"/><stop offset=".536" stop-color="#feed76" stop-opacity=".776"/><stop offset=".735" stop-color="#fff9d4" stop-opacity=".585"/><stop offset=".824" stop-color="#fffef9" stop-opacity=".5"/><stop offset="1" stop-color="#fff"/></linearGradient><path fill="url(#SVGID_2_)" d="M374.1 198h12v-26.6h-12z"/><linearGradient id="SVGID_3_" gradientUnits="userSpaceOnUse" x1="403.086" y1="166.177" x2="380.008" y2="249.833"><stop offset=".302" stop-color="#fedd00"/><stop offset=".536" stop-color="#feed76" stop-opacity=".776"/><stop offset=".735" stop-color="#fff9d4" stop-opacity=".585"/><stop offset=".824" stop-color="#fffef9" stop-opacity=".5"/><stop offset="1" stop-color="#fff"/></linearGradient><path fill="url(#SVGID_3_)" d="M390.7 198h12v-17.3h-12z"/><linearGradient id="SVGID_4_" gradientUnits="userSpaceOnUse" x1="419.587" y1="170.728" x2="396.509" y2="254.385"><stop offset=".302" stop-color="#fedd00"/><stop offset=".536" stop-color="#feed76" stop-opacity=".776"/><stop offset=".735" stop-color="#fff9d4" stop-opacity=".585"/><stop offset=".824" stop-color="#fffef9" stop-opacity=".5"/><stop offset="1" stop-color="#fff"/></linearGradient><path fill="url(#SVGID_4_)" d="M407.3 198h11.9v-8.6h-11.9z"/><linearGradient id="SVGID_5_" gradientUnits="userSpaceOnUse" x1="397.634" y1="164.673" x2="374.557" y2="248.329"><stop offset=".302" stop-color="#fedd00"/><stop offset=".536" stop-color="#feed76" stop-opacity=".776"/><stop offset=".735" stop-color="#fff9d4" stop-opacity=".585"/><stop offset=".824" stop-color="#fffef9" stop-opacity=".5"/><stop offset="1" stop-color="#fff"/></linearGradient><path fill="url(#SVGID_5_)" d="M357.6 197.7h61.7v.8h-61.7z"/></g><path class="st1" d="M361.8 264v180.1c0 1.1-.9 2-2 2H191.9c-1.1 0-2-.9-2-2V264c0-1.1.9-2 2-2h167.9c1.1 0 2 .9 2 2z"/><path class="st2" d="M353.8 256v180.1c0 1.1-.9 2-2 2h-168c-1.1 0-2-.9-2-2V256c0-1.1.9-2 2-2h167.9c1.2 0 2.1.9 2.1 2z"/><path class="st11" d="M209.6 339.3h116.3v3.7H209.6zm0 17.8h116.3v3.7H209.6zm0 17.8h56.9v3.7h-56.9z"/><circle class="st12" cx="207.1" cy="272.8" r="38.5"/><ellipse transform="rotate(-48.279 296.409 417.12)" class="st2" cx="296.4" cy="417.1" rx="36.7" ry="36.7"/><path class="st13" d="M287 446.1c-4-1.3-7.7-3.4-10.9-6.2m23.2 7.5c-2.6.2-5.2.2-7.8-.2m25.1-52.8c17.8 15.9 10.1 46.8-13.1 52.3"/><path transform="rotate(41.721 269.186 446.47)" class="st2" d="M265.8 443.1h6.9v6.7h-6.9z"/><path class="st2" d="M233.3 491.6l-4.8-4.3c-1.6-1.5-1.8-4-.3-5.6l31.2-35c1.5-1.6 4-1.8 5.6-.3l4.8 4.3c1.6 1.5 1.8 4 .3 5.6l-31.2 35c-1.4 1.6-4 1.7-5.6.3z"/><path class="st13" d="M245.6 478.1c-1.4 1.5-2.7 3.1-4.1 4.6m22-24.6c-4.6 5.2-9.3 10.4-13.9 15.6"/><radialGradient id="SVGID_6_" cx="-2723.871" cy="345.856" r="6.905" gradientTransform="scale(-1 1) rotate(10.987 -1142.252 11173.174)" gradientUnits="userSpaceOnUse"><stop offset="0" stop-color="#2e2e2e" stop-opacity=".04"/><stop offset=".312" stop-color="#252525" stop-opacity=".09"/><stop offset=".825" stop-color="#0c0c0c" stop-opacity=".172"/><stop offset="1" stop-color="#020202" stop-opacity=".2"/></radialGradient><circle cx="631.2" cy="242.8" r="6.9" opacity=".5" fill="url(#SVGID_6_)"/><ellipse transform="rotate(-3 621.57 236.337) scale(.99997)" class="st15" cx="621.6" cy="236.4" rx="9.2" ry="9.2"/><radialGradient id="SVGID_7_" cx="-4331.81" cy="1891.725" r="9.844" gradientTransform="scale(-1 1) rotate(-37.013 -5084.417 -4557.022)" gradientUnits="userSpaceOnUse"><stop offset="0" stop-color="#2e2e2e" stop-opacity=".04"/><stop offset=".312" stop-color="#252525" stop-opacity=".09"/><stop offset=".825" stop-color="#0c0c0c" stop-opacity=".172"/><stop offset="1" stop-color="#020202" stop-opacity=".2"/></radialGradient><circle cx="601.5" cy="139.1" r="9.8" opacity=".5" fill="url(#SVGID_7_)"/><radialGradient id="SVGID_8_" cx="-4357.706" cy="2283.446" r="9.844" gradientTransform="scale(-1 1) rotate(-37.013 -5084.417 -4557.022)" gradientUnits="userSpaceOnUse"><stop offset="0" stop-color="#2e2e2e" stop-opacity=".04"/><stop offset=".312" stop-color="#252525" stop-opacity=".09"/><stop offset=".825" stop-color="#0c0c0c" stop-opacity=".172"/><stop offset="1" stop-color="#020202" stop-opacity=".2"/></radialGradient><circle cx="386.4" cy="467.5" r="9.8" opacity=".5" fill="url(#SVGID_8_)"/><radialGradient id="SVGID_9_" cx="-4468.871" cy="1873.699" r="12.66" gradientTransform="scale(-1 1) rotate(-37.013 -5084.417 -4557.022)" gradientUnits="userSpaceOnUse"><stop offset="0" stop-color="#2e2e2e" stop-opacity=".04"/><stop offset=".312" stop-color="#252525" stop-opacity=".09"/><stop offset=".825" stop-color="#0c0c0c" stop-opacity=".172"/><stop offset="1" stop-color="#020202" stop-opacity=".2"/></radialGradient><circle cx="721.8" cy="207.2" r="12.7" opacity=".5" fill="url(#SVGID_9_)"/><ellipse transform="rotate(-45.001 531.609 242.3)" class="st19" cx="531.6" cy="242.3" rx="9.2" ry="9.2"/><ellipse transform="rotate(-45.001 678.693 318.222)" class="st15" cx="678.7" cy="318.2" rx="6.5" ry="6.5"/><ellipse transform="rotate(-45.001 489.452 122.733)" class="st15" cx="489.5" cy="122.7" rx="6.5" ry="6.5"/><path class="st1" d="M645.4 319.8V462c0 1.1-.9 2-2 2H446.1c-1.1 0-2-.9-2-2V319.8c0-1.1.9-2 2-2h197.4c1.1 0 1.9.9 1.9 2z"/><path class="st2" d="M637.6 311.5v142.2c0 1.1-.9 2-2 2H438.3c-1.1 0-2-.9-2-2V311.5c0-1.1.9-2 2-2h197.4c1 0 1.9.8 1.9 2z"/><path class="st4" d="M461.2 410h116.3v2.3H461.2zm0 13.7h116.3v2.3H461.2zm0 13.7h116.3v2.3H461.2z"/><path class="st15" d="M614.7 368.4l4.8 6 7.6-9.4m-12.4 27.7l4.8 6 7.6-9.4M614.7 417l4.8 6 7.6-9.4"/><path class="st13" d="M612.9 324.4l4.8 6 7.6-9.4m-158.9 59.4l.1 13.5"/><circle class="st13" cx="466.4" cy="375.3" r="5.2"/><circle class="st13" cx="486.7" cy="355.1" r="5.2"/><circle class="st13" cx="501.7" cy="370.1" r="5.2"/><circle class="st13" cx="521.6" cy="350" r="5.2"/><circle class="st13" cx="536.7" cy="364.9" r="5.2"/><circle class="st13" cx="556.7" cy="344.8" r="5.2"/><path class="st13" d="M470.2 371.7l12.8-13m7.4 1.1l7.4 6.9m7.3-.5l13-12.5m7 .1l8 7.4m7.4.3l12.7-12.9m-66.5 11.7l.1 33.6m14.9-18.6v17.9m19.9-38.1l.1 38.1m15-23.1v23.1m20-43.2v43.2m-90.2.7h90.2m46-83.7v146.2m0-116.3h34.9"/><radialGradient id="SVGID_10_" cx="-3154.126" cy="-2510.582" r="6.905" gradientTransform="scale(-1 1) rotate(75.718 -3800.583 641.189)" gradientUnits="userSpaceOnUse"><stop offset="0" stop-color="#2e2e2e" stop-opacity=".04"/><stop offset=".312" stop-color="#252525" stop-opacity=".09"/><stop offset=".825" stop-color="#0c0c0c" stop-opacity=".172"/><stop offset="1" stop-color="#020202" stop-opacity=".2"/></radialGradient><circle cx="586.6" cy="490.2" r="6.9" opacity=".5" fill="url(#SVGID_10_)"/><radialGradient id="SVGID_11_" cx="-3235.922" cy="-2342.526" r="15.475" gradientTransform="scale(-1 1) rotate(75.718 -3800.583 641.189)" gradientUnits="userSpaceOnUse"><stop offset="0" stop-color="#2e2e2e" stop-opacity=".04"/><stop offset=".312" stop-color="#252525" stop-opacity=".09"/><stop offset=".825" stop-color="#0c0c0c" stop-opacity=".172"/><stop offset="1" stop-color="#020202" stop-opacity=".2"/></radialGradient><circle cx="769.7" cy="452.4" r="15.5" opacity=".5" fill="url(#SVGID_11_)"/><ellipse transform="rotate(-67.728 700.133 480.429)" class="st15" cx="700.1" cy="480.4" rx="9.2" ry="9.2"/><ellipse transform="rotate(-67.728 675.122 420.819)" cx="675.1" cy="420.8" rx="3.6" ry="3.6" opacity=".43" fill="#ffde00"/><ellipse transform="rotate(-67.728 765.68 350.437)" class="st19" cx="765.6" cy="350.4" rx="8.3" ry="8.3"/><ellipse transform="rotate(-45.001 24.54 226.617)" class="st15" cx="24.5" cy="226.6" rx="6.5" ry="6.5"/><ellipse transform="rotate(-67.728 91.072 129.268)" class="st19" cx="91.1" cy="129.3" rx="8.3" ry="8.3"/><radialGradient id="SVGID_12_" cx="-2482.821" cy="296.219" r="9.326" gradientTransform="scale(-1 1) rotate(7.99 .094 15374.155)" gradientUnits="userSpaceOnUse"><stop offset="0" stop-color="#2e2e2e" stop-opacity=".04"/><stop offset=".312" stop-color="#252525" stop-opacity=".09"/><stop offset=".825" stop-color="#0c0c0c" stop-opacity=".172"/><stop offset="1" stop-color="#020202" stop-opacity=".2"/></radialGradient><circle cx="362.9" cy="97.5" r="9.3" opacity=".5" fill="url(#SVGID_12_)"/><circle class="st24" cx="204.6" cy="97.5" r="3.4"/><circle class="st24" cx="413.7" cy="407.1" r="3.4"/><radialGradient id="SVGID_13_" cx="-2297.958" cy="342.736" r="14.551" gradientTransform="scale(-1 1) rotate(7.99 .094 15374.155)" gradientUnits="userSpaceOnUse"><stop offset="0" stop-color="#2e2e2e" stop-opacity=".04"/><stop offset=".312" stop-color="#252525" stop-opacity=".09"/><stop offset=".825" stop-color="#0c0c0c" stop-opacity=".172"/><stop offset="1" stop-color="#020202" stop-opacity=".2"/></radialGradient><circle cx="186.3" cy="169.3" r="14.6" opacity=".5" fill="url(#SVGID_13_)"/><circle cx="278" cy="128.3" r="4.9" opacity=".69" fill="none" stroke="#ffde00" stroke-miterlimit="10"/><circle class="st15" cx="298.5" cy="218.5" r="10.9"/><circle class="st27" cx="111.1" cy="519.4" r="5.2"/><circle class="st27" cx="111.1" cy="198.2" r="8.9"/><circle class="st27" cx="560.1" cy="519.4" r="5.2"/><circle class="st11" cx="111.1" cy="407.1" r="3.5"/><circle class="st11" cx="423.5" cy="519.4" r="5.2"/><circle class="st11" cx="560.1" cy="198.2" r="5.2"/><circle class="st11" cx="367.6" cy="519.4" r="3.5"/><path class="st13" d="M353.8 290.8h-172"/><circle class="st1" cx="210.3" cy="276" r="41.7"/><circle class="st12" cx="207.1" cy="272.8" r="38.5"/><path d="M207.1 272.8l28.1 27.9c7.2-7.2 11.8-17 12.2-27.9h-40.3z" opacity=".03" fill="#11172d"/><path class="st27" d="M252.5 272.7c0-25-20.2-45.2-45.2-45.3l-.2 45.5h.1v-.1.1l45.3-.2z"/><path d="M317.5 267.8h17.7V278h-17.7zm-34 0h17.7V278h-17.7z" fill="none" stroke="#11172d" stroke-miterlimit="10"/></svg>