<svg width="1440" height="513" xmlns="http://www.w3.org/2000/svg"><script xmlns="" type="text/javascript" charset="utf-8" id="zm-extension"/><g transform="translate(0 1)" fill="none" fill-rule="evenodd"><path d="M3.658 242.381H50.35v17.543H3.658zm23.597 17.543h46.692v17.543H27.255zM0 242.381h5.451m64.264 35.086h8.464" opacity=".65" stroke="#474747" stroke-width=".717" stroke-linejoin="round"/><g opacity=".65" stroke="#474747" stroke-width=".717" stroke-linejoin="round"><path d="M385.226 26.852h46.692v17.543h-46.692zm23.669 17.901h46.692v17.543h-46.692z"/><path d="M362.275 44.753h46.692v17.543h-46.692zm19.294-17.901h5.45m-27.685 35.444h5.451"/></g><path d="M1202.801 438.22h46.692v17.542h-46.692zm-4.159 0h8.463m39.591 17.542h8.464m-867.854-224.48h46.692v17.543h-46.692zm-4.16 0h8.464m39.591 17.544h8.464M999.824 45.11h46.692v17.544h-46.692zm50.924 17.544h-8.463m-39.592-17.544h-8.463m327.705 308.258h46.692v17.543h-46.692zm-23.669 17.543h46.692v17.543h-46.692zm-6.384 17.543h8.464" opacity=".65" stroke-width=".717" stroke="#474747" stroke-linejoin="round"/><g opacity=".65" stroke="#474747" stroke-width=".717" stroke-linejoin="round"><path d="M966.903 315.418h46.692v17.543h-46.692zm-23.668 17.901h46.692v17.543h-46.692zm43.751-35.802h46.692v17.543h-46.692zm-25.749 17.901h8.464m61.825-.358h8.464"/><path d="M989.855 333.319h46.692v17.543h-46.692zm45.975 17.543h8.463m-8.463-17.543h8.463"/></g><ellipse stroke="#474747" stroke-width=".717" cx="202.475" cy="273.672" rx="25.031" ry="24.99"/><ellipse stroke="#474747" stroke-width=".717" cx="142.658" cy="182.305" rx="25.031" ry="24.99"/><ellipse fill="#FFF" fill-rule="nonzero" opacity=".23" cx="143.375" cy="178.725" rx="18.003" ry="17.973"/><ellipse fill="#FFF" fill-rule="nonzero" opacity=".23" cx="124.01" cy="43.392" rx="19.437" ry="19.405"/><ellipse fill="#FFF" fill-rule="nonzero" opacity=".23" cx="306.187" cy="137.91" rx="18.003" ry="17.973"/><ellipse fill="#FFF" fill-rule="nonzero" opacity=".23" cx="202.188" cy="270.378" rx="18.72" ry="18.689"/><path d="M113.108 160.18c4.59-5.944 11.045-10.527 18.218-12.89m-24.458 25.205a34.791 34.791 0 0 1 3.873-8.879m-4.949 23.773c-.502-3.509-.43-7.089.143-10.598m2.726 20.551a36.69 36.69 0 0 1-1.937-5.585m6.24-20.049c3.013-8.307 9.826-15.037 17.931-18.403m-19.006 35.802c-.933-4.296-1.005-8.735-.144-13.032" stroke="#474747" stroke-width=".717"/><ellipse stroke="#474747" stroke-width=".717" cx="306.761" cy="141.92" rx="25.031" ry="24.99"/><path d="M335.307 130.678a29.4 29.4 0 0 1 1.578 5.442m-6.599-13.891a29.3 29.3 0 0 1 3.228 4.583M289.69 116.5c11.405-7.375 27.184-6.086 37.44 2.65" stroke="#474747" stroke-width=".717"/><ellipse stroke="#474747" stroke-width=".717" cx="124.01" cy="43.464" rx="25.031" ry="24.99"/><path d="M98.978 43.464c0-11.6 7.89-21.338 18.577-24.202C113.969 9.81 104.86 3.079 94.1 3.079c-13.842 0-25.031 11.17-25.031 24.99 0 13.82 11.189 24.99 25.031 24.99a24.2 24.2 0 0 0 6.455-.86c-1.004-2.649-1.578-5.656-1.578-8.735z" stroke="#474747" stroke-width=".717" stroke-linejoin="round"/><path d="M100.628 52.271c-1.076-2.72-1.65-5.728-1.65-8.807 0-11.6 7.89-21.338 18.577-24.202a25.038 25.038 0 0 0-4.95-8.02 25.262 25.262 0 0 0-7.028-1.003c-13.843 0-25.032 11.17-25.032 24.99 0 6.516 2.51 12.388 6.527 16.827a25.262 25.262 0 0 0 7.03 1.003 21.765 21.765 0 0 0 6.526-.788z" fill="#666" fill-rule="nonzero" opacity=".19"/><path d="M64.551 31.578c.287 2.29.789 4.582 1.578 6.802m1.363-23.558c-1.865 3.795-2.94 7.948-3.084 12.101M85.638 0C79.54 1.862 73.947 5.585 70.002 10.597M285.53 155.238a25.093 25.093 0 0 0-4.661-.43c-13.843 0-25.032 11.171-25.032 24.99 0 13.82 11.19 24.99 25.032 24.99 13.843 0 25.031-11.17 25.031-24.99a25.01 25.01 0 0 0-3.873-13.39c-6.885-1.216-12.838-5.37-16.496-11.17zm858.315-20.836h-45.4" stroke="#474747" stroke-width=".717" stroke-linejoin="round"/><path d="M499.554 510.97h12.264m-478.825 0h1286m-1308.952 0h16.497M1328.82 123.947h-45.473a1.438 1.438 0 0 1-1.434-1.432V77.118c0-.788.645-1.432 1.434-1.432h45.473c.789 0 1.434.644 1.434 1.432v45.397c0 .788-.645 1.432-1.434 1.432zM721.466 510.683h-60.248a1.437 1.437 0 0 1-1.434-1.432v-44.108H722.9v44.108c0 .788-.645 1.432-1.434 1.432zm561.379-219.11h-45.473a1.438 1.438 0 0 1-1.434-1.432v-45.397c0-.788.645-1.432 1.434-1.432h45.473c.789 0 1.435.644 1.435 1.432v45.397c0 .788-.646 1.432-1.435 1.432zm43.751-.501l-40.954-19.763a1.434 1.434 0 0 1-.645-1.933l19.795-40.886a1.439 1.439 0 0 1 1.937-.645l40.954 19.763a1.434 1.434 0 0 1 .646 1.934l-19.796 40.886a1.439 1.439 0 0 1-1.937.644z" stroke="#474747" stroke-width=".717"/><path d="M1299.198 237.798l-45.186 5.514c-.789.072-1.506-.43-1.578-1.217l-5.522-45.111c-.072-.788.43-1.504 1.219-1.575l45.186-5.514c.789-.072 1.506.43 1.578 1.217l5.522 45.111c.072.716-.43 1.432-1.219 1.575zM148.252 378.644h105.29v6.802h-105.29z" stroke="#474747" stroke-width=".717"/><path stroke="#474747" stroke-width=".717" d="M193.366 370.84h13.627v7.805h-13.627zm13.914 0h-13.698l-22.378-25.348h59.459z"/><path stroke="#474747" stroke-width=".717" d="M163.888 339.692h74.09v5.872h-74.09z"/><path d="M241.995 373.775c-.502-3.866-3.73-6.802-7.746-6.802-4.017 0-7.244 3.007-7.746 6.802h15.492z" fill="#FFF" fill-rule="nonzero" opacity=".23"/><path d="M167.474 494.429h29.192m8.822 0h29.263m-67.061 7.805h29.263m8.75 0h29.263" stroke="#474747" stroke-width=".717"/><ellipse stroke="#474747" stroke-width=".717" cx="237.907" cy="400.985" rx="4.877" ry="4.869"/><ellipse stroke="#474747" stroke-width=".717" cx="184.257" cy="467.148" rx="4.877" ry="4.869"/><ellipse stroke="#474747" stroke-width=".717" cx="200.897" cy="467.148" rx="4.877" ry="4.869"/><path d="M181.89 472.804c2.08.645 4.232-.071 5.452-1.718-1.076.43-2.224.501-3.443.143a4.83 4.83 0 0 1-3.084-6.158c.143-.501.43-.93.717-1.36a4.629 4.629 0 0 0-2.726 2.935c-.86 2.578.503 5.37 3.085 6.158zm16.497 0c2.08.645 4.232-.071 5.451-1.718-1.076.43-2.223.501-3.443.143a4.83 4.83 0 0 1-3.084-6.158c.144-.501.43-.93.717-1.36a4.629 4.629 0 0 0-2.725 2.935c-.86 2.578.502 5.37 3.084 6.158zm16.64.072c2.08.644 4.231-.215 5.38-1.862-1.005.43-2.224.573-3.372.215a4.86 4.86 0 0 1-3.227-6.086c.143-.502.358-1.003.645-1.36a5.027 5.027 0 0 0-2.654 3.007c-.86 2.577.646 5.298 3.228 6.086z" fill="#666" fill-rule="nonzero" opacity=".19"/><ellipse stroke="#474747" stroke-width=".717" cx="217.394" cy="467.148" rx="4.877" ry="4.869"/><path d="M168.693 393.681c-3.514 0-6.311 2.865-6.311 6.302 0 3.437 2.869 6.3 6.311 6.3 3.515 0 6.312-2.863 6.312-6.3s-2.869-6.302-6.312-6.302zm0 9.524c-1.72 0-3.155-1.432-3.155-3.15 0-1.72 1.434-3.151 3.155-3.151 1.722 0 3.156 1.432 3.156 3.15 0 1.719-1.434 3.15-3.156 3.15z" fill="#666" fill-rule="nonzero" opacity=".19"/><path d="M168.693 407.787c-4.303 0-7.817-3.508-7.817-7.804 0-1.003.215-1.862.502-2.721a7.611 7.611 0 0 0-1.22 4.153c0 4.296 3.515 7.805 7.818 7.805 3.371 0 6.168-2.077 7.316-5.013-1.434 2.148-3.873 3.58-6.599 3.58z" fill="#666" fill-rule="nonzero" opacity=".19"/><path d="M211.584 396.116L198.89 408.79m5.88-10.74l-4.877 4.868m400.145 71.104H248.593v-37.02h351.373c10.257 0 18.505 8.306 18.505 18.474.072 10.24-8.248 18.546-18.433 18.546z" stroke="#474747" stroke-width=".717"/><path d="M599.25 468.15H248.592v-25.276H599.25c7.029 0 12.695 5.656 12.695 12.674 0 6.945-5.738 12.602-12.695 12.602zM78.035 442.874h75.094v25.276H78.035c-7.029 0-12.695-5.657-12.695-12.674 0-6.946 5.666-12.602 12.695-12.602z" stroke="#474747" stroke-width=".717"/><path d="M76.027 438.005h77.03v35.014h-77.03c-9.683 0-17.572-7.876-17.572-17.543.071-9.667 7.89-17.471 17.572-17.471zm172.566 36.017h282.088v29.215H248.593z" stroke="#474747" stroke-width=".717"/><path d="M541.297 510.97H248.593v-7.805H535.56c3.156 0 5.738 2.577 5.738 5.728v2.076zM81.908 473.019h71.15v31.148h-71.15z" stroke="#474747" stroke-width=".717"/><path d="M153.058 510.97H75.094v-1.79a4.986 4.986 0 0 1 5.021-5.013h72.943v6.802zm151.121-27.21l-14.632 14.535m5.882-11.671l-6.384 6.373M468.21 482.9l-14.631 14.608m19.437-12.459l-6.383 6.3m42.173-2.29l-6.312 6.3m-126.161-8.735l-7.316 7.304m11.189-5.299l-5.81 5.8m-253.47-10.669l-14.13 14.106m5.308-11.242l-7.746 7.805m-22.45-51.555h5.881v25.276h-5.881zm55.586 0h5.881v25.276h-5.881zm121.858 0h5.881v25.276h-5.881zm54.581 0h5.881v25.276h-5.881zm54.582 0h5.881v25.276h-5.881zm54.581 0h5.881v25.276h-5.881z" stroke="#474747" stroke-width=".717"/><ellipse stroke="#474747" stroke-width=".717" cx="112.104" cy="455.476" rx="12.695" ry="12.674"/><ellipse stroke="#474747" stroke-width=".717" transform="rotate(-20.555 112.092 455.448)" cx="112.092" cy="455.448" rx="6.813" ry="6.802"/><path d="M113.036 448.745l-5.38 11.887c1.005.859 2.224 1.432 3.515 1.575l5.38-11.887c-.933-.859-2.152-1.36-3.515-1.575z" stroke="#474747" stroke-width=".717"/><ellipse stroke="#474747" stroke-width=".717" transform="rotate(-45 289.526 455.462)" cx="289.526" cy="455.462" rx="12.695" ry="12.674"/><ellipse stroke="#474747" stroke-width=".717" transform="rotate(-65.557 289.556 455.483)" cx="289.556" cy="455.483" rx="6.814" ry="6.803"/><path d="M294.998 451.395l-12.264 4.582c.071 1.29.573 2.578 1.362 3.652l12.265-4.583c-.072-1.36-.574-2.577-1.363-3.651z" stroke="#474747" stroke-width=".717"/><ellipse stroke="#474747" stroke-width=".717" transform="rotate(-18.433 344.123 455.475)" cx="344.123" cy="455.475" rx="12.695" ry="12.674"/><ellipse stroke="#474747" stroke-width=".717" transform="rotate(-38.993 344.105 455.45)" cx="344.105" cy="455.45" rx="6.813" ry="6.802"/><path d="M350.871 454.259l-12.982-1.36a7.135 7.135 0 0 0-.43 3.866l12.982 1.36a7.135 7.135 0 0 0 .43-3.866z" stroke="#474747" stroke-width=".717"/><ellipse stroke="#474747" stroke-width=".717" transform="rotate(-65.108 398.685 455.443)" cx="398.685" cy="455.443" rx="12.695" ry="12.674"/><ellipse stroke="#474747" stroke-width=".717" transform="rotate(-85.662 398.676 455.488)" cx="398.676" cy="455.488" rx="6.813" ry="6.802"/><path d="M404.52 459.2l-8.535-9.882a7.169 7.169 0 0 0-2.94 2.506l8.534 9.882c1.148-.502 2.224-1.432 2.941-2.507zm18.146-16.326h5.881v25.276h-5.881zm54.582 0h5.881v25.276h-5.881z" stroke="#474747" stroke-width=".717"/><ellipse stroke="#474747" stroke-width=".717" transform="rotate(-41.867 452.857 455.475)" cx="452.857" cy="455.475" rx="12.695" ry="12.674"/><ellipse stroke="#474747" stroke-width=".717" transform="rotate(-62.42 452.923 455.551)" cx="452.923" cy="455.551" rx="6.814" ry="6.803"/><path d="M456.735 461.133l-3.945-12.46c-1.291 0-2.654.43-3.73 1.146l3.945 12.46a6.53 6.53 0 0 0 3.73-1.146zm20.082-18.259h5.881v25.276h-5.881zm54.582 0h5.881v25.276h-5.881z" stroke="#474747" stroke-width=".717"/><ellipse stroke="#474747" stroke-width=".717" transform="rotate(-11.725 506.99 455.452)" cx="506.99" cy="455.452" rx="12.695" ry="12.674"/><ellipse stroke="#474747" stroke-width=".717" transform="rotate(-32.284 507.005 455.462)" cx="507.005" cy="455.462" rx="6.814" ry="6.802"/><path d="M513.827 455.046l-12.767-2.864c-.646 1.146-.933 2.506-.86 3.795l12.766 2.864c.645-1.145 1.004-2.506.86-3.795zm17.141-12.172h5.881v25.276h-5.881zm54.582 0h5.881v25.276h-5.881z" stroke="#474747" stroke-width=".717"/><ellipse stroke="#474747" stroke-width=".717" transform="rotate(-65.108 561.128 455.472)" cx="561.128" cy="455.472" rx="12.695" ry="12.674"/><ellipse stroke="#474747" stroke-width=".717" transform="rotate(-85.662 561.12 455.55)" cx="561.12" cy="455.55" rx="6.813" ry="6.802"/><path d="M566.902 459.2l-8.535-9.882a7.169 7.169 0 0 0-2.94 2.506l8.534 9.882c1.22-.502 2.224-1.432 2.94-2.507z" stroke="#474747" stroke-width=".717"/><path d="M113.036 448.745l-5.38 11.887c1.005.859 2.224 1.432 3.515 1.575l5.38-11.887c-.933-.859-2.152-1.36-3.515-1.575zm181.962 2.65l-12.264 4.582c.071 1.29.573 2.578 1.362 3.652l12.265-4.583c-.072-1.36-.574-2.577-1.363-3.651zm55.873 2.864l-12.982-1.36a7.135 7.135 0 0 0-.43 3.866l12.982 1.36a7.135 7.135 0 0 0 .43-3.866zm53.649 4.941l-8.535-9.882a7.169 7.169 0 0 0-2.94 2.506l8.534 9.882c1.148-.502 2.224-1.432 2.941-2.507zm52.215 1.933l-3.945-12.46c-1.291 0-2.654.43-3.73 1.146l3.945 12.46a6.53 6.53 0 0 0 3.73-1.146zm57.092-6.087l-12.767-2.864c-.646 1.146-.933 2.506-.86 3.795l12.766 2.864c.645-1.145 1.004-2.506.86-3.795zm53.075 4.154l-8.535-9.882a7.169 7.169 0 0 0-2.94 2.506l8.534 9.882c1.22-.502 2.224-1.432 2.94-2.507z" fill="#666" fill-rule="nonzero" opacity=".19"/><path d="M214.525 350.36l-6.886 7.806m11.691-7.806l-6.814 7.806m21.446-.931v4.797m11.691 1.003l-2.87 2.935m-20.513-2.935l2.942 2.935m-76.027 16.541h7.818m1.937 0h1.936m-78.968 55.494l-4.877 4.869m29.263-4.869l-4.877 4.869m29.263-4.869l-4.877 4.869m26.322-4.869l-5.45 4.869m5.45 25.276l-5.164 5.084m-18.289-5.084l-4.59 4.654m-18.792-4.654l-4.877 4.87m-18.505-4.87l-4.877 4.87m-14.919-28.213l3.228 9.738m-4.662 9.953l9.754 1.003m199.391-28.213l-5.81 5.8m29.479-6.086l-5.881 5.872m29.263-5.872l-5.881 5.872m29.263-5.872l-5.881 5.872m31.199-5.872l-5.81 5.872m29.264-5.872l-5.882 5.872m29.264-5.872l-5.882 5.872m201.973 3.723l8.822 1.647m-6.239 11.242l2.868 8.02m-177.156-30.504l-6.169 5.8m4.16 25.348l-5.81 5.872m-40.953-5.872l-5.882 5.872m29.264-5.872l-5.81 5.872m-41.958-5.872l-5.81 5.872m-18.576-5.872l-5.81 5.872m-16.568-5.872l-5.881 5.872m-18.505-5.872l-5.881 5.872m290.767-5.872l-5.882 5.872m-40.954-5.872l-5.81 5.872m29.264-5.872l-5.882 5.872m-41.886-5.872l-5.881 5.872m-18.505-5.872l-5.881 5.872m-16.569-5.872l-5.81 5.872m-18.575-5.872l-5.81 5.872m150.547-36.877l-5.81 5.872m29.694-5.872l-5.81 5.872m3.516 25.133l-5.882 5.872m-62.471-36.877l-5.882 5.872m29.264-5.872l-5.882 5.872m-41.887-5.872l-5.88 5.872m-18.505-5.872l-5.882 5.872m-16.568-5.872l-5.81 5.872M269.106 468.15l-5.881 5.872" stroke="#474747" stroke-width=".717"/><path d="M201.83 421.464c-17.214 0-31.2 13.963-31.2 31.148h62.4c0-17.257-13.987-31.148-31.2-31.148zm4.877 29.143c-1.004-1.933-3.873-3.867-4.877-3.867L216.46 436l-9.754 14.607z" fill="#FFF" fill-rule="nonzero" opacity=".23"/><ellipse stroke="#474747" stroke-width=".717" cx="128.815" cy="399.123" rx="3.156" ry="3.151"/><path d="M128.815 395.901c-.215 0-.502 0-.717.072 1.434.358 2.439 1.575 2.439 3.079 0 1.503-1.076 2.792-2.439 3.079.215.071.502.071.717.071a3.135 3.135 0 0 0 3.156-3.15 3.135 3.135 0 0 0-3.156-3.15z" fill="#666" fill-rule="nonzero" opacity=".19"/><path d="M147.105 413.373l-15.923-12.674" stroke="#474747" stroke-width=".717"/><g transform="translate(1008.431 123.876)" stroke="#474747" stroke-linejoin="round" stroke-width=".717"><path d="M83.845 10.526H0V.573h424.603v9.953H141.51m-106.15 0h12.336v24.56H35.36z"/><ellipse transform="rotate(-45 41.518 25.935)" cx="41.518" cy="25.935" rx="3.873" ry="3.867"/><path d="M44.253 23.2l-5.45 5.442"/></g><g transform="translate(1222.167 291.43)" stroke="#474747" stroke-linejoin="round" stroke-width=".717"><path d="M.072.43h216.567v9.953H.072zm28.474 9.953h12.336v24.56H28.546z"/><ellipse transform="rotate(-45 34.704 25.789)" cx="34.704" cy="25.789" rx="3.873" ry="3.867"/><path d="M37.44 23.057l-5.451 5.442"/></g><path d="M173.714 291.86c-12.48 2.936-21.015 3.437-22.019.787-1.22-3.15 8.392-9.881 23.454-17.113m18.074 11.672c-2.582.93-5.092 1.79-7.46 2.577m44.469-18.545c-4.447 2.363-9.61 4.797-15.277 7.232m9.683-21.482c15.492-4.153 26.537-5.298 27.685-2.22.789 2.149-3.443 6.015-11.045 10.527" stroke="#474747" stroke-width=".717" stroke-linejoin="round"/><path d="M229.228 269.662c15.994 3.795 26.538 8.163 26.107 11.457-.645 4.87-25.103 5.442-54.51 1.36-29.406-4.08-52.716-11.384-51.999-16.254.502-3.365 12.193-4.654 28.976-3.866" stroke="#474747" stroke-width=".717" stroke-linejoin="round"/><path d="M890.231 469.654l-52.43-95.02" stroke="#474747" stroke-width=".717"/><ellipse stroke="#474747" stroke-width=".717" cx="831.705" cy="377.499" rx="6.67" ry="6.659"/><ellipse stroke="#474747" stroke-width=".717" cx="831.705" cy="377.499" rx="4.805" ry="4.797"/><path d="M831.705 372.701c-1.435 0-2.726.645-3.658 1.647a5.105 5.105 0 0 1 1.506-.215 4.802 4.802 0 0 1 4.806 4.798c0 1.217-.43 2.291-1.148 3.15a4.797 4.797 0 0 0 3.3-4.582 4.802 4.802 0 0 0-4.806-4.798z" fill="#666" fill-rule="nonzero" opacity=".39"/><path d="M845.045 485.407c0-3.294.646-6.445 1.793-9.309h-27.04a2.722 2.722 0 0 0-2.725 2.721v6.516a2.722 2.722 0 0 0 2.726 2.721h25.39c-.072-.93-.144-1.79-.144-2.65zm50.709.143h44.54m21.804-6.158h-59.1a1.437 1.437 0 0 1-1.435-1.432v-59.002c0-.788.646-1.432 1.435-1.432h59.1c.789 0 1.434.644 1.434 1.432v59.002c0 .787-.645 1.432-1.434 1.432z" stroke="#474747" stroke-width=".717"/><path d="M958.942 440.224l-32.634 32.58m1.076-14.464l-14.273 14.321m314.866-368.477l-11.118 11.17m-4.375-7.589l-9.97 9.738" stroke="#474747" stroke-width=".717" stroke-linejoin="round"/><path d="M208.572 282.551h-13.126a1.102 1.102 0 0 1-1.076-1.074v-.286c0-.573.503-1.074 1.076-1.074h13.126c.573 0 1.076.5 1.076 1.074v.286c0 .573-.503 1.074-1.076 1.074zm-6.599-26.493c-6.383-.072-11.69 5.012-10.902 12.674.502 4.94 2.726 9.237 6.168 11.313h9.611c3.443-2.076 5.738-6.373 6.097-11.313.574-7.447-4.519-12.603-10.974-12.674zm6.599 28.928h-13.126a1.102 1.102 0 0 1-1.076-1.074v-.287c0-.573.503-1.074 1.076-1.074h13.126c.573 0 1.076.501 1.076 1.074v.287c0 .573-.503 1.074-1.076 1.074zm-3.73 6.301h-5.81c-.86 0-1.65-.716-1.65-1.647v-4.654h9.038v4.654c.072.93-.646 1.647-1.578 1.647zm-2.869 2.435c1.506 0 2.726-1.075 2.726-2.435h-5.451c0 1.36 1.219 2.435 2.725 2.435zm-4.447-7.232h4.089m-4.089 1.79h4.089" stroke="#474747" stroke-width=".717"/><ellipse stroke="#474747" stroke-width=".717" cx="201.973" cy="268.087" rx="2.152" ry="4.368"/><ellipse stroke="#474747" stroke-width=".717" transform="rotate(-21.328 197.674 273.378)" cx="197.674" cy="273.378" rx="1.65" ry="1.933"/><ellipse stroke="#474747" stroke-width=".717" transform="rotate(-68.672 206.65 273.434)" cx="206.649" cy="273.434" rx="1.937" ry="1.647"/><path d="M199.821 280.117s.646-6.516-1.29-8.163m-1.794 2.936s4.017 3.437 6.527-3.294m1.076 8.521s-.43-6.516 1.506-8.163m1.65 2.936s-4.304 3.508-6.814-3.294M142.514 34.227l-35.144 7.805 19.365 14.894zm-28.115 13.247l2.152 11.6 6.813-4.726zm28.115-13.247l-22.449 17.328m-5.595-4.153l28.044-13.175m-22.449 17.328l-3.514 7.519" stroke="#474747" stroke-width=".717"/><g stroke="#474747" stroke-width=".717"><path d="M302.314 149.367h8.392c.86 0 1.65.716 1.65 1.647v.93c0 .86-.718 1.648-1.65 1.648h-8.392c-.86 0-1.65-.716-1.65-1.647v-.931c0-.931.718-1.647 1.65-1.647z"/><path d="M302.314 153.52h8.392c.86 0 1.65.716 1.65 1.647v.93c0 .86-.718 1.648-1.65 1.648h-8.392c-.86 0-1.65-.716-1.65-1.647v-.931c0-.931.718-1.647 1.65-1.647z"/><path d="M302.816 157.673a3.73 3.73 0 0 0 3.73 3.294 3.73 3.73 0 0 0 3.73-3.294h-7.46z"/><path d="M307.263 160.322a.718.718 0 0 0-.717-.716c-.359 0-.717.358-.717.716 0 .215.071.43.287.573.143 0 .286.072.502.072.143 0 .286 0 .502-.072 0-.143.143-.286.143-.573zm.574-20.407v-.143a2.08 2.08 0 0 1 4.16 0 2.08 2.08 0 0 1-2.08 2.076h-.144m-6.67.072a2.08 2.08 0 0 1-2.08-2.076 2.08 2.08 0 0 1 4.16 0v.071m2.654-.071v-.144m0 9.667v-9.523m-2.654 9.523v-9.523m-2.08 2.076h6.957m2.367 13.891h-7.459m-1.721 0h-2.439m11.404-4.368h-4.59m-1.22 0h-.86m-.789 0h-4.16"/><path d="M302.745 149.367h7.53c4.59-1.575 7.89-5.872 7.89-11.027 0-6.445-5.236-11.6-11.62-11.6-6.383 0-11.618 5.227-11.618 11.6-.072 5.155 3.227 9.452 7.818 11.027z"/></g><path d="M147.894 197.628h-8.607c-.502 0-.86-.358-.86-.859s.358-.86.86-.86h8.607c.502 0 .86.359.86.86s-.358.86-.86.86z" stroke="#474747" stroke-width=".717"/><path d="M139.287 195.91h8.607c2.869-2.864 4.877-8.593 4.877-15.18 0-8.378-4.017-14.393-7.675-16.541-.86-.501-1.864-.501-2.797-.072-4.518 2.22-7.818 7.949-7.818 16.613-.071 6.587 1.937 12.316 4.806 15.18zm8.607 3.723h-8.607c-.502 0-.86-.358-.86-.859s.358-.86.86-.86h8.607c.502 0 .86.359.86.86s-.358.86-.86.86z" stroke="#474747" stroke-width=".717"/><path d="M147.894 201.352h-8.607c-.502 0-.86-.358-.86-.86 0-.5.358-.859.86-.859h8.607c.502 0 .86.358.86.86 0 .5-.358.859-.86.859zm-4.304 1.718c1.076 0 1.937-.787 1.937-1.718h-3.873c0 .93.86 1.718 1.936 1.718z" stroke="#474747" stroke-width=".717"/><ellipse stroke="#474747" stroke-width=".717" stroke-linecap="round" stroke-linejoin="round" cx="140.076" cy="180.443" rx="1" ry="1.432"/><ellipse stroke="#474747" stroke-width=".717" stroke-linecap="round" stroke-linejoin="round" cx="143.805" cy="180.443" rx="1" ry="1.432"/><ellipse stroke="#474747" stroke-width=".717" stroke-linecap="round" stroke-linejoin="round" cx="147.535" cy="180.443" rx="1" ry="1.432"/><path d="M141.654 195.838s-2.152-12.173-2.152-14.32m8.607.071s-.717 5.657-2.87 14.25m-4.518-16.399s1.22 2.364 3.084 2.364m.718-2.434s2.08 2.505 3.012 2.505m1110.135 61.222h5.738v24.346h-5.738zm9.913-49.687l5.695-.695 2.951 24.165-5.696.696zm46.74 65.15l10.61-21.956 5.157 2.492-10.61 21.957zm-11.467-183.017h5.738v24.346h-5.738z" stroke="#474747" stroke-width=".717" stroke-linecap="round" stroke-linejoin="round"/><path d="M1237.014 123.947h-45.473a1.437 1.437 0 0 1-1.434-1.432V77.118c0-.788.645-1.432 1.434-1.432h45.473c.789 0 1.434.644 1.434 1.432v45.397c0 .788-.645 1.432-1.434 1.432z" stroke="#474747" stroke-width=".717"/><path stroke="#474747" stroke-width=".717" stroke-linecap="round" stroke-linejoin="round" d="M1211.05 75.543h5.738v24.346h-5.738zM929.177 417.454h7.388v31.22h-7.388z"/><path fill="#666" fill-rule="nonzero" opacity=".19" d="M1257.67 243.097h5.738v24.346h-5.738zm9.913-49.687l5.695-.695 2.951 24.165-5.696.696zm46.74 65.15l10.61-21.956 5.157 2.492-10.61 21.957zm-11.467-183.017h5.738v24.346h-5.738zm-91.806 0h5.738v24.346h-5.738zM929.177 417.454h7.388v31.22h-7.388z"/><path stroke="#474747" stroke-width=".717" d="M728.423 465.143h-74.019l5.667-17.758h62.686zm0 0h-74.019"/><path stroke="#474747" stroke-width=".717" d="M724.191 451.395l4.304 13.748h-5.523v2.792l9.18-.43z"/><path fill="#666" fill-rule="nonzero" opacity=".19" d="M724.191 451.395l4.304 13.748h-5.523v2.792l9.18-.43z"/><path stroke="#474747" stroke-width=".717" d="M658.636 451.395l-4.303 13.748h5.522v2.792l-9.18-.43z"/><path fill="#666" fill-rule="nonzero" opacity=".19" d="M658.636 451.395l-4.303 13.748h5.522v2.792l-9.18-.43z"/><path fill="#FFF" fill-rule="nonzero" opacity=".23" d="M503.857 398.12h-16.568l-10.615 13.964 10.83 24.417 24.601-24.417zm-167.259 0h-16.64l-.072.216 16.712 13.533zm24.888 13.964l-8.248-13.963h-16.64v38.738z"/><path d="M463.333 412.012h48.772M470.29 398.05l16.927 13.962m-18.935-8.95l8.966 8.95m29.908-8.95l-9.97 8.95"/><path d="M336.741 389.17v-11.456m26.897 39.382h11.475m-76.743 0h11.475m12.408-25.849l-6.742-9.237m-5.092 20.192l-10.543-4.368m50.924-6.874l6.526-9.451m5.881 21.123l10.687-4.153m112.749-9.309v-11.456m26.897 39.382h11.475m-76.744 0h11.476m12.408-25.849l-6.742-9.237m-5.093 20.192l-10.542-4.368m50.923-6.874l6.527-9.451m184.688 52.342v-14.965m-19.006 17.686l-8.751-12.1m46.118 11.671l8.463-12.316m-205.63-21.195l10.686-4.153" stroke="#474747" stroke-width=".717"/><path fill="#666" fill-rule="nonzero" opacity=".39" d="M167.833 502.019h29.407v1.79h-29.407zm38.013 0h29.407v1.79h-29.407zm-38.013-7.877h29.407v1.79h-29.407zm38.013 0h29.407v1.79h-29.407z"/><path fill="#666" fill-rule="nonzero" opacity=".19" d="M248.88 507.676h292.632v3.58H248.88z"/><path fill="#666" fill-rule="nonzero" opacity=".39" d="M248.88 473.807h281.873v3.079H248.88z"/><path fill="#666" fill-rule="nonzero" opacity=".19" d="M74.592 507.676h78.179v3.58H74.592z"/><path fill="#666" fill-rule="nonzero" opacity=".39" d="M81.765 472.589h71.006v3.079H81.765z"/><path d="M152.77 443.232c-.07 0 0 .071 0 0z" fill="#666" fill-rule="nonzero" opacity=".19"/><path d="M152.77 442.945s-.07 0 0 0l-77.819-.071c-2.367.5-4.519 1.503-6.168 2.935h83.988v-2.864zm-4.303-60.577h104.716v2.864H148.467z" fill="#666" fill-rule="nonzero" opacity=".19"/><ellipse fill="#666" fill-rule="nonzero" opacity=".39" cx="163.529" cy="489.775" rx="1.434" ry="1.432"/><ellipse fill="#666" fill-rule="nonzero" opacity=".39" cx="163.529" cy="507.676" rx="1.434" ry="1.432"/><ellipse fill="#666" fill-rule="nonzero" opacity=".39" cx="238.839" cy="507.676" rx="1.434" ry="1.432"/><ellipse fill="#666" fill-rule="nonzero" opacity=".39" cx="238.839" cy="489.775" rx="1.434" ry="1.432"/><path fill="#666" fill-rule="nonzero" opacity=".19" d="M163.529 342.985h74.592v2.864h-74.592z"/><path fill="#666" fill-rule="nonzero" opacity=".39" d="M228.08 347.998h-54.51l-2.151-2.148h58.813zm-74.592 37.234h95.392v2.148h-95.392z"/><ellipse fill="#FFF" fill-rule="nonzero" opacity=".51" cx="185.764" cy="465.429" rx="1.434" ry="1.432"/><ellipse fill="#FFF" fill-rule="nonzero" opacity=".51" cx="202.26" cy="465.429" rx="1.434" ry="1.432"/><ellipse fill="#FFF" fill-rule="nonzero" opacity=".51" cx="218.756" cy="465.429" rx="1.434" ry="1.432"/><ellipse stroke="#474747" stroke-width=".717" cx="168.693" cy="400.054" rx="7.818" ry="7.805"/><ellipse stroke="#474747" stroke-width=".717" cx="168.693" cy="400.054" rx="3.873" ry="3.867"/><ellipse fill="#FFF" fill-rule="nonzero" opacity=".23" cx="168.693" cy="400.054" rx="3.371" ry="3.365"/><path d="M166.04 400.77a3.364 3.364 0 0 1 3.37-3.365c.718 0 1.435.215 1.937.644-.574-.859-1.578-1.36-2.654-1.36a3.364 3.364 0 0 0-3.37 3.365c0 1.074.573 2.077 1.362 2.65-.358-.573-.645-1.218-.645-1.934z" fill="#FFF" fill-rule="nonzero" opacity=".29"/><path d="M235.755 402.99c-.072-1.862 1.29-3.437 3.156-3.509.645-.071 1.29.144 1.865.43-.36-1.504-1.794-2.578-3.443-2.506-1.865.071-3.228 1.718-3.156 3.508a3.46 3.46 0 0 0 1.65 2.721c0-.214-.072-.43-.072-.644z" fill="#FFF" fill-rule="nonzero" opacity=".51"/><path fill="#666" fill-rule="nonzero" opacity=".19" d="M659.855 465.429h63.117v5.728h-63.117zM248.88 445.81h359.55c-1.65-1.433-3.73-2.435-6.168-2.936H248.88v2.935zm-96.11 22.412s-.07.071 0 0l-77.819.071c-2.367-.573-4.519-1.861-6.168-3.58h83.988v3.509zm96.11-3.509h359.55c-1.65 1.719-3.73 3.007-6.168 3.58H248.88v-3.58z"/><path stroke="#474747" stroke-width=".717" d="M159.943 486.624h81.908v24.346h-81.908z"/><path fill="#666" fill-rule="nonzero" opacity=".19" d="M159.083 484.046v26.852h.86v-24.56h81.908v24.56h.933v-26.852z"/><path fill="#666" fill-rule="nonzero" opacity=".39" d="M241.851 414.59v62.224h-81.908V414.59h-.86v64.444h83.7V414.59z"/><path stroke="#474747" stroke-width=".717" d="M153.129 385.447h95.536V510.97h-95.536z"/><path stroke="#474747" stroke-width=".717" d="M159.943 414.59h81.908v62.296h-81.908z"/><path d="M200.897 446.74c-3.227 0-5.881 2.65-5.881 5.872h11.69c.073-3.222-2.581-5.872-5.809-5.872z" stroke="#474747" stroke-width=".717"/><path d="M203.766 452.54h2.797c0-3.079-2.51-5.585-5.594-5.585a5.31 5.31 0 0 0-2.582.645c2.797.071 5.092 2.22 5.38 4.94z" fill="#666" fill-rule="nonzero" opacity=".19"/><path d="M201.83 446.74c1.004 0 3.873 1.934 4.877 3.867L216.46 436l-14.631 10.74z" stroke="#474747" stroke-width=".717" stroke-linejoin="round"/><path d="M200.826 425.33v4.87m-15.134 1.432l3.443 3.437m26.895-3.509l-3.442 3.437m9.755 11.672h-4.878" stroke="#474747" stroke-width=".717"/><path d="M200.037 449.032c-1.22.5-2.152 1.432-2.798 2.792l-.645-.644c.502-1.218 1.363-2.148 2.797-2.793l.646.645z" fill="#FFF" fill-rule="nonzero" opacity=".51"/><path d="M190.57 431.56c-5.452 2.22-9.468 6.301-12.194 12.173l-2.869-2.864c2.08-5.299 6.097-9.452 12.193-12.173l2.87 2.864z" fill="#FFF" fill-rule="nonzero" opacity=".24"/><path d="M201.83 421.464c-17.214 0-31.2 13.963-31.2 31.148h62.4c0-17.257-13.987-31.148-31.2-31.148zm-22.378 25.348h4.877" stroke="#474747" stroke-width=".717"/><path fill="#666" fill-rule="nonzero" opacity=".39" d="M233.818 454.402h-63.116l-.718-1.79h63.117z"/><path d="M237.907 405.854c-2.726 0-4.878-2.148-4.878-4.869 0-.501.072-1.002.216-1.432a4.885 4.885 0 0 0-.933 2.864c0 2.721 2.152 4.87 4.877 4.87 2.224 0 4.089-1.433 4.662-3.438-.932 1.217-2.367 2.005-3.944 2.005z" fill="#666" fill-rule="nonzero" opacity=".19"/><path fill="#666" fill-rule="nonzero" opacity=".39" d="M193.295 371.269h13.627v1.432h-13.627z"/><path stroke="#474747" stroke-width=".717" d="M224.996 373.775h18.505v4.869h-18.505zm16.999 0c-.502-3.866-3.73-6.802-7.746-6.802-4.017 0-7.244 3.007-7.746 6.802h15.492z"/><path fill="#666" fill-rule="nonzero" opacity=".19" d="M224.494 373.775h18.648v1.432h-18.648zM152.7 407.859c-.503 0-.933-.43-1.364 0v11.672c.43.43.861 0 1.363 0v-11.672z"/><path d="M146.89 413.659c0 3.222 2.653 5.872 5.88 5.872v-11.672c-3.298 0-5.88 2.578-5.88 5.8z" stroke="#474747" stroke-width=".717"/><path stroke="#474747" stroke-width=".717" stroke-linejoin="round" d="M1092.276 131.394h6.168v379.289h-6.168zm51.569 0h6.168v379.289h-6.168z"/><path fill="#666" fill-rule="nonzero" opacity=".39" d="M1143.845 132.11h1.578v378.573h-1.578z"/><path fill="#666" fill-rule="nonzero" opacity=".19" d="M1092.204 132.826h1.578v378.573h-1.578z"/><path fill="#666" fill-rule="nonzero" opacity=".39" d="M1097.225 132.826h1.578v378.573h-1.578z"/><path stroke="#474747" stroke-width=".717" stroke-linejoin="round" d="M1098.444 172.853h45.401v4.654h-45.401zm0 23.128h45.401v4.654h-45.401zm0 23.129h45.401v4.654h-45.401zm0 23.128h45.401v4.654h-45.401zm0 23.2h45.401v4.654h-45.401zm0 23.128h45.401v4.654h-45.401zm0 23.128h45.401v4.654h-45.401zm0 23.128h45.401v4.654h-45.401zm0 23.129h45.401v4.654h-45.401zm0 23.128h45.401v4.654h-45.401zm0 23.2h45.401v4.654h-45.401zm0 23.128h45.401v4.654h-45.401zm0 23.128h45.401v4.654h-45.401zm0 23.129h45.401v4.654h-45.401z"/><path fill="#666" fill-rule="nonzero" opacity=".19" d="M1098.086 175.431h45.903v2.148h-45.903zm0 22.913h45.903v2.148h-45.903zm0 23.63h45.903v2.148h-45.903zm0 22.913h45.903v2.148h-45.903zm0 22.914h45.903v2.148h-45.903zm0 22.913h45.903v2.148h-45.903zm0 23.63h45.903v2.148h-45.903zm0 22.913h45.903v2.148h-45.903zm0 22.913h45.903v2.148h-45.903zm0 23.63h45.903v2.148h-45.903zm0 22.913h45.903v2.148h-45.903zm0 22.914h45.903v2.148h-45.903zm0 23.629h45.903v2.148h-45.903zm0 22.914h45.903v2.148h-45.903zm12.551-298.376l-6.168-.215v18.546l6.168-.215z"/><path fill="#666" fill-rule="nonzero" opacity=".19" d="M1110.637 223.836l-6.168.143v18.402l6.168.072zm0 46.328l-6.168.214v18.474h6.168zm0 23.128l-6.168.072v18.33h6.168zm0 23.057l-6.168.143v18.474h6.168zm0 22.985l-6.168.143v18.832l6.168-.072zm-6.168 46.614h6.168v18.546h-6.168zm6.168 23.2h-6.168v18.33l6.168.144zm0 23.057l-6.168-.144v18.618h6.168zm0 23.271l-6.168-.215v18.617l6.168.144zm-6.168 22.985h6.168v32.938h-6.168zm6.168-115.498h-6.168v18.26l6.168.07zm0-115.928l-6.168.144v18.402h6.168zm0-46.542l-6.168.071v18.617h6.168zm0-65.519h-6.168v37.808l6.168.071zm45.401 0h6.168v376.425h-6.168zm-45.401 45.756v4.582h33.28l-.072-4.582zm39.663 0h5.738v4.654h-5.738zm-39.663 23.128v4.654h33.065l.071-4.654zm45.401 0h-6.025l-.143 4.654h6.168zm-45.401 23.128v4.654h33.065l-.072-4.654zm45.401 0h-6.025l.072 4.654h5.953zm-45.401 23.128v4.655h33.351l-.071-4.655zm39.52 0h5.81v4.654h-5.81zm-39.52 23.2v4.583h33.136l-.071-4.583zm39.233 0h6.096v4.654h-6.096zm6.168 23.128h-5.953l.072 4.583h5.881zm-45.401 0h33.423v4.654h-33.423zm0 23.128v4.655h33.351l-.071-4.654zm45.401 0h-5.881l-.072 4.655h5.953zm-45.401 23.129v4.654h33.136l-.143-4.654zm45.401 0h-5.881l-.072 4.654h5.953zm0 23.128h-5.81l-.143 4.655h5.953zm-45.401 0v4.655h33.351l-.143-4.655zm0 23.128v4.655h33.136l.072-4.655zm45.401 0h-5.881l-.215 4.655h6.096zm-45.401 23.2v4.583h33.28l-.072-4.583zm45.401 0h-6.025l-.071 4.583h6.096zm-45.401 23.129v4.582h33.423l-.143-4.582zm45.401 0h-5.953l-.215 4.582h6.168zm-45.401 23.128h33.423v4.654h-33.423zm45.401 0h-6.025l-.071 4.654h6.096zm-45.401 23.128v4.654h33.136l-.071-4.654zm45.401 0h-6.025l-.215 4.654h6.24zm-147.965-347.282l2.869 7.519h81.908c0-2.506-.646-5.012-.646-7.519h-84.131z"/><path d="M1098.946 134.258c-.072 2.578-.574 5.013-.645 7.519h45.544l-.072-7.519h-44.827zm334.131 0h-283.064l.292 7.519h282.772zm6.035 175.217h-213.31l-3.635-7.376h216.945z" fill="#666" fill-rule="nonzero" opacity=".19"/><path fill="#666" fill-rule="nonzero" opacity=".19" d="M1263.05 302.17v23.988h-12.552v1.074h13.627v-25.061zm-206.564-167.912v24.704h-12.552v1.074h13.628v-25.778z"/><path d="M201.112 423.898c16.425 0 29.837 12.603 31.057 28.714h.789c0-17.185-13.986-31.148-31.2-31.148-14.632 0-26.968 10.096-30.267 23.701 4.16-12.388 15.85-21.267 29.621-21.267z" fill="#666" fill-rule="nonzero" opacity=".39"/><path d="M301.669 176.935c1.362 0 2.725-.144 4.016-.358-.502-3.652-1.721-7.09-3.658-10.097-6.957-1.288-12.838-5.442-16.496-11.242a25.093 25.093 0 0 0-4.662-.43c-1.363 0-2.726.144-4.017.359 1.578 12.244 12.122 21.768 24.817 21.768z" fill="#666" fill-rule="nonzero" opacity=".19"/><ellipse fill="#FFF" fill-rule="nonzero" opacity=".57" cx="127.668" cy="398.121" rx="1" ry="1"/><path d="M845.69 479.034a17.213 17.213 0 0 1 1.148-3.007h-27.04c-1.506 0-2.725 1.002-2.725 2.22v.787h28.618zm-.286 2.148h-17.716v-.716h17.931zm-.072 2.148H821.95v-.716h23.67zm.072 2.148h-14.847v-.716h15.062zm-20.585-.716h2.152v1h-2.152zm71.006.716h44.469v2.148h-44.469z" fill="#666" fill-rule="nonzero" opacity=".19"/><ellipse stroke="#474747" stroke-width=".717" cx="870.435" cy="485.407" rx="2.654" ry="2.649"/><path d="M873.16 485.407a2.722 2.722 0 0 1-2.725 2.72c-1.506 0-2.797-1.217-2.797-2.792a2.722 2.722 0 0 1 2.726-2.72c-.216-.072-.43-.072-.718-.072a3.517 3.517 0 0 0-3.514 3.508 3.517 3.517 0 0 0 3.514 3.509 3.517 3.517 0 0 0 3.515-3.509.992.992 0 0 0 0-.644z" fill="#666" fill-rule="nonzero" opacity=".19"/><path d="M865.128 438.649c-11.763 0-21.23 9.523-21.23 21.195v16.254h2.94c3.73-9.38 12.839-15.968 23.597-15.968 8.033 0 15.134 3.724 19.796 9.524l-17.142-31.005h-7.961z" stroke="#474747" stroke-width=".717"/><path d="M865.128 438.649c-11.763 0-21.23 9.523-21.23 21.195v16.254h2.94c3.73-9.38 12.839-15.968 23.597-15.968 8.033 0 15.134 3.724 19.796 9.524l-17.142-31.005h-7.961z" fill="#666" fill-rule="nonzero" opacity=".07"/><path d="M870.435 468.293c-9.467 0-17.142 7.662-17.142 17.114 0 9.451 7.675 17.113 17.142 17.113 9.468 0 17.142-7.662 17.142-17.113-.071-9.452-7.746-17.114-17.142-17.114zm0 32.079c-8.248 0-14.99-6.73-14.99-14.965s6.742-14.966 14.99-14.966c8.249 0 14.99 6.731 14.99 14.966 0 8.234-6.741 14.965-14.99 14.965z" fill="#666" fill-rule="nonzero" opacity=".39"/><ellipse stroke="#474747" stroke-width=".717" cx="870.435" cy="485.407" rx="25.318" ry="25.276"/><path d="M870.435 459.987c7.603 0 14.417 3.294 19.079 8.593l-3.873-7.447c-4.375-2.793-9.611-4.368-15.206-4.368-12.551 0-23.238 8.091-27.111 19.333l3.37.143a25.398 25.398 0 0 1 23.741-16.254z" fill="#666" fill-rule="nonzero" opacity=".19"/><ellipse stroke="#474747" stroke-width=".717" cx="870.435" cy="485.407" rx="14.703" ry="14.679"/><path d="M872.085 475.597l-.359-2.721c-8.32-.143-13.986 5.513-13.842 13.676l3.227.502c-.143-6.516 4.447-11.386 10.974-11.457z" fill="#FFF" fill-rule="nonzero" opacity=".24"/><path fill="#666" fill-rule="nonzero" opacity=".19" d="M885.497 464.498l-47.337-85.352.574-1.934 49.274 89.291z"/><ellipse fill="#FFF" fill-rule="nonzero" opacity=".35" cx="870.005" cy="484.762" rx="1" ry="1"/><path fill="#666" fill-rule="nonzero" opacity=".23" d="M317.735 403.133l-5.02 8.808H326.7z"/><path fill="#666" fill-rule="nonzero" opacity=".15" d="M326.844 412.084l9.539 22.555v-22.913l-10.041.215zm-4.089-11.099l4.304 10.74h9.324z"/><path fill="#666" fill-rule="nonzero" opacity=".23" d="M336.383 436.071l-9.324-24.345-14.058.43z"/><path fill="#666" fill-rule="nonzero" opacity=".23" d="M319.886 398.837l-2.151 4.296 9.324 9.309-5.02-12.173z"/><g stroke-width=".717" stroke="#474747"><path d="M336.598 436.787l24.888-24.703-8.248-14.035h-33.28l-7.244 14.035zm-23.884-24.775h48.772m-24.888-13.962v13.962m-16.927-13.962l16.927 13.962m16.927-13.962l-16.927 13.962"/><path d="M322.182 400.054l14.416 35.516 14.918-35.802m-24.888 12.244l-8.965-8.95m38.874 0l-9.97 8.95"/></g><path fill="#666" fill-rule="nonzero" opacity=".23" d="M470.434 398.55l-7.1 13.176h12.91zm16.568 37.521l-7.172-17.185-5.021 5.012zm-16.496-37.951l6.024 13.606 10.472-13.605z"/><path fill="#666" fill-rule="nonzero" opacity=".23" d="M476.243 411.726h-12.91l11.476 12.172 5.02-4.296z"/><g stroke-width=".717" stroke="#474747"><path d="M487.217 436.787l24.888-24.703-8.248-14.035h-33.28l-7.244 14.035zm-23.884-24.775h48.772"/><path d="M470.65 398.622l16.567 36.948 16.353-37.234m-16.21-.216l10.042 13.964m-20.8 0l10.759-13.963m6.813 21.123l5.38 5.012m-19.724-5.012l-5.021 5.012"/></g></g></svg>