<svg id="Layer_1" xmlns="http://www.w3.org/2000/svg" viewBox="0 0 800 600"><script xmlns="" type="text/javascript" charset="utf-8" id="zm-extension"/><style>.st0{fill:#333}.st1,.st5{fill:none;stroke:#333;stroke-miterlimit:10}.st5{fill:#fff}.st6{opacity:3.000000e-02;fill:#0c0c0c}.st8,.st9{fill:none;stroke-miterlimit:10}.st8{stroke-dasharray:4;stroke:#333}.st9{stroke:#fedd00}.st11{fill:#fedd00}.st14{fill:none;stroke:#fedd00;stroke-miterlimit:10;stroke-linecap:round;stroke-linejoin:round}.st15{fill:#ffde00}.st19{fill:none;stroke:#ffde00;stroke-miterlimit:10}.st20{opacity:.4;fill:#ffde00}</style><circle class="st0" cx="215.1" cy="408.3" r="3.2"/><circle class="st0" cx="215.1" cy="310.9" r="3.2"/><circle class="st0" cx="177.8" cy="288.4" r="3.2"/><circle class="st0" cx="215.1" cy="256.7" r="2.7"/><circle class="st0" cx="177.8" cy="367.7" r="3.2"/><circle class="st0" cx="282" cy="477.4" r="3.2"/><circle class="st0" cx="177.6" cy="520.1" r="3.2"/><path class="st1" d="M418.7 207.7v-41.6h13.2l-29.5-32.8-29.6 32.8h13.3v72.7"/><linearGradient id="SVGID_1_" gradientUnits="userSpaceOnUse" x1="403.703" y1="118.609" x2="400.37" y2="228.609"><stop offset=".302" stop-color="#fedd00"/><stop offset=".536" stop-color="#feed76" stop-opacity=".776"/><stop offset=".735" stop-color="#fff9d4" stop-opacity=".585"/><stop offset=".824" stop-color="#fffef9" stop-opacity=".5"/><stop offset="1" stop-color="#fff"/></linearGradient><path opacity=".58" fill="url(#SVGID_1_)" d="M413.4 222.7v-60.5h8.9l-19.9-22.1-20 22.1h9v60.5"/><linearGradient id="SVGID_2_" gradientUnits="userSpaceOnUse" x1="310.517" y1="172.599" x2="307.184" y2="282.599"><stop offset=".302" stop-color="#fedd00"/><stop offset=".536" stop-color="#feed76" stop-opacity=".776"/><stop offset=".735" stop-color="#fff9d4" stop-opacity=".585"/><stop offset=".824" stop-color="#fffef9" stop-opacity=".5"/><stop offset="1" stop-color="#fff"/></linearGradient><path opacity=".58" fill="url(#SVGID_2_)" d="M320.2 276.7v-60.5h8.9l-19.9-22.1-19.9 22.1h8.9v60.5"/><linearGradient id="SVGID_3_" gradientUnits="userSpaceOnUse" x1="499.926" y1="173.49" x2="496.593" y2="283.49"><stop offset=".302" stop-color="#fedd00"/><stop offset=".536" stop-color="#feed76" stop-opacity=".776"/><stop offset=".735" stop-color="#fff9d4" stop-opacity=".585"/><stop offset=".824" stop-color="#fffef9" stop-opacity=".5"/><stop offset="1" stop-color="#fff"/></linearGradient><path opacity=".58" fill="url(#SVGID_3_)" d="M509.6 277.5v-60.4h8.9L498.6 195l-19.9 22.1h8.9v60.4"/><path class="st5" d="M418.7 220v-8"/><path class="st1" d="M482.3 277.6v9.4m32.6-23.1v-44h13.3l-29.6-32.8-29.6 32.8h13.3v50.4m32.6 16.7v-13.9m-222-7.4v21.9m32.6-12.8v-54.9h13.3l-29.6-32.8-29.6 32.8h13.3v34.7m32.6 34.2v-7.7"/><path class="st5" d="M364 222.7c-8.5 0-15.3 6.9-15.3 15.3v190.5c0 8.5 6.9 15.3 15.3 15.3h76.7c8.5 0 15.3-6.9 15.3-15.3V238c0-8.5-6.9-15.3-15.3-15.3H364z"/><path class="st5" d="M440.6 227.5h-11.1v1.1c0 4-3.2 7.2-7.2 7.2h-40.4c-4 0-7.2-3.2-7.2-7.2v-1.1h-10.5c-5.5 0-10 4.5-10 10v190.9c0 5.5 4.5 10 10 10h76.4c5.5 0 10-4.5 10-10V237.5c0-5.5-4.5-10-10-10z"/><path class="st0" d="M411.5 228h.5c.4 0 .8.4.8.8v.5c0 .4-.4.8-.8.8h-.5c-.4 0-.8-.4-.8-.8v-.5c0-.4.3-.8.8-.8zm-20.8.1h14.2c.4 0 .6.3.6.6v.4c0 .4-.3.6-.6.6h-14.2c-.4 0-.6-.3-.6-.6v-.4c-.1-.3.2-.6.6-.6z"/><path class="st6" d="M391.4 437.9h17.9l41.3-74.7v-32.6z"/><path class="st5" d="M416.4 320.6l2.8 14.9c.2.9-.7 1.6-1.5 1.2l-13.5-6.8c-.3-.2-.7-.2-1 0l-13.3 7.3c-.8.4-1.7-.2-1.6-1.1l2.3-14.9c.1-.4-.1-.7-.3-.9l-11-10.4c-.6-.6-.3-1.7.6-1.8l14.9-2.4c.3-.1.6-.3.8-.6l6.5-13.7c.4-.8 1.5-.8 1.9 0l6.9 13.4c.2.3.5.5.8.6l15 1.9c.9.1 1.3 1.2.6 1.8l-10.6 10.7c-.3.1-.4.5-.3.8z"/><linearGradient id="SVGID_4_" gradientUnits="userSpaceOnUse" x1="412.924" y1="300.997" x2="373.162" y2="358.168"><stop offset=".302" stop-color="#fedd00"/><stop offset=".536" stop-color="#feed76" stop-opacity=".776"/><stop offset=".735" stop-color="#fff9d4" stop-opacity=".585"/><stop offset=".824" stop-color="#fffef9" stop-opacity=".5"/><stop offset="1" stop-color="#fff"/></linearGradient><path d="M410.8 318.7l1.8 9.4c.1.6-.5 1-1 .7l-8.5-4.3c-.2-.1-.4-.1-.6 0l-8.4 4.6c-.5.3-1.1-.1-1-.7l1.4-9.4c0-.2 0-.4-.2-.6l-6.9-6.5c-.4-.4-.2-1.1.4-1.2l9.4-1.5c.2 0 .4-.2.5-.4l4.1-8.6c.2-.5 1-.5 1.2 0l4.4 8.5c.1.2.3.3.5.4l9.5 1.2c.6.1.8.8.4 1.2l-6.7 6.8c-.3 0-.4.2-.3.4z" opacity=".58" fill="url(#SVGID_4_)"/><circle class="st8" cx="402.6" cy="316" r="34.9"/><path class="st6" d="M449.1 232.7l-29.5 52.8c10.7 6 17.9 17.4 17.9 30.5 0 19.3-15.6 34.9-34.9 34.9-6.2 0-12-1.6-17-4.4l-30.9 55.4V428c0 5.5 4.4 10 9.9 10H382l68.6-126.4v-73.7c0-2-.6-3.7-1.5-5.2z"/><path class="st8" d="M307.7 477.4h-92.6V225.9"/><path class="st8" d="M307.6 520.1H177.7V223.7"/><path class="st5" d="M188.9 277.6h-22.4c-2.8 0-5-2.2-5-5v-22.5c0-2.8 2.2-5 5-5h22.4c2.8 0 5 2.2 5 5v22.5c0 2.8-2.2 5-5 5z"/><path class="st9" d="M168.1 256.6v7.8c0 1.4 1.2 2.6 2.6 2.6h.9l-.1 3.5 4.4-3.5 9-.1c1.4 0 2.6-1.2 2.5-2.6v-7.8c0-1.4-1.2-2.6-2.6-2.6l-14.2.1c-1.3 0-2.5 1.2-2.5 2.6z"/><path class="st5" d="M188.9 493.7h-22.4c-2.8 0-5-2.2-5-5v-22.5c0-2.8 2.2-5 5-5h22.4c2.8 0 5 2.2 5 5v22.5c0 2.7-2.2 5-5 5z"/><path class="st9" d="M186.5 482.3c-2.6-2.1-3.3-1.4-4.6-.1l-.2.2c-.6.6-1.5.5-2.8-.4-.9-.6-2-1.5-3.3-2.8-3.1-3.1-4.1-5.1-3.2-6.1l.2-.2c1.2-1.2 2-1.9-.1-4.6-.7-.9-1.4-1.3-2-1.4h-.1c-.9 0-1.7.8-2.4 1.6-.1.2-.3.3-.4.4-.7.7-.6 2.5.2 4.6 1 2.6 2.9 5.4 5.4 7.9 2.5 2.5 5.4 4.5 7.9 5.4 2.1.8 3.9.9 4.6.2l.4-.4c.8-.7 1.6-1.5 1.6-2.5.1-.4-.3-1.1-1.2-1.8z"/><path class="st5" d="M197.2 429.8H158c-2.8 0-5-2.2-5-5v-39.4c0-2.8 2.2-5 5-5h39.2c2.8 0 5 2.2 5 5v39.4c0 2.7-2.3 5-5 5z"/><path d="M175.6 388.3h24.2M175.6 400h24.2m-24.2 10.9h24.2m-24.2 11.6h24.2" opacity=".8" stroke="#ddd" fill="none" stroke-miterlimit="10"/><circle class="st11" cx="165.3" cy="393.7" r="1.3"/><circle class="st9" cx="165.3" cy="393.7" r="3.2"/><circle class="st11" cx="165.3" cy="405.1" r="1.3"/><circle class="st9" cx="165.3" cy="405.1" r="3.2"/><circle class="st11" cx="165.3" cy="416.5" r="1.3"/><circle class="st9" cx="165.3" cy="416.5" r="3.2"/><path class="st5" d="M188.8 346.5h-22.4c-2.8 0-5-2.2-5-5V319c0-2.8 2.2-5 5-5h22.4c2.8 0 5 2.2 5 5v22.5c0 2.8-2.3 5-5 5z"/><circle class="st11" cx="182.2" cy="335.5" r="2.6"/><circle class="st11" cx="171.5" cy="337.9" r="2.6"/><path class="st11" d="M173.4 321.6h11.3v2.5h-11.3z"/><path transform="rotate(-90 173.758 329.89)" class="st11" d="M165.9 329.6h15.6v.7h-15.6z"/><path transform="rotate(-90 184.383 329.136)" class="st11" d="M177.9 328.8h13v.7h-13z"/><path class="st5" d="M267.4 544.7h-39.2c-2.8 0-5-2.2-5-5v-39.4c0-2.8 2.2-5 5-5h39.2c2.8 0 5 2.2 5 5v39.4c0 2.8-2.2 5-5 5z"/><path class="st9" d="M246.5 533.4c-3.6-5.9-8.9-6.7-16-2.5v-21.2c6.5-4.1 12.1-4.3 16 2v21.7zm2.6 0c3.6-5.9 8.9-6.7 16-2.5v-21.2c-6.5-4.1-12.1-4.3-16 2v21.7z"/><circle class="st0" cx="584.9" cy="284.2" r="3.2"/><circle class="st0" cx="622.7" cy="212" r="3.2"/><circle class="st0" cx="512.8" cy="124" r="3.2"/><circle class="st0" cx="584.9" cy="124" r="3.2"/><path class="st8" d="M486.5 124h98.4v276.8"/><path class="st8" d="M486.5 81.4h135.7v317.2"/><path class="st5" d="M633.3 364.7h-22.4c-2.8 0-5-2.2-5-5v-22.5c0-2.8 2.2-5 5-5h22.4c2.8 0 5 2.2 5 5v22.5c0 2.8-2.2 5-5 5z"/><ellipse transform="rotate(-45.001 622.395 348.468)" class="st9" cx="622.4" cy="348.5" rx="11.3" ry="11.3"/><path class="st9" d="M628 342.8l-7 4.3-4.2 7 6.9-4.3zm-7 4.3l2.7 2.7"/><path class="st5" d="M641.8 178.2h-39.2c-2.8 0-5-2.2-5-5v-39.4c0-2.8 2.2-5 5-5h39.2c2.8 0 5 2.2 5 5v39.4c0 2.7-2.3 5-5 5z"/><ellipse transform="rotate(-45.001 622.129 153.489)" class="st9" cx="622.1" cy="153.5" rx="15.2" ry="15.2"/><path d="M622.1 144.5v9m7 0h-7" fill="none" stroke="#fedd00" stroke-linecap="square" stroke-miterlimit="10"/><path class="st9" d="M622.1 165.6v1.3m8.6-4.9l.9 1m2.6-9.5h1.3m-4.8-8.6l.9-.9m-9.5-2.6v-1.3m-8.5 4.8l-.9-.9m-2.7 9.5h-1.3m4.9 8.5l-.9 1"/><path class="st5" d="M642.1 279.9h-39.2c-2.8 0-5-2.2-5-5v-39.4c0-2.8 2.2-5 5-5h39.2c2.8 0 5 2.2 5 5v39.4c0 2.7-2.3 5-5 5z"/><path class="st9" d="M607.3 243.8h30.2v27.1h-30.2zm0 6.6h30.5m-25.1-8.4v3.9m20.6-3.9v3.9m-10.6-3.9v3.9m-15.4 11.5h30.1m-30.1 6.6h30.1m-22.8-13.5v20.4m8.1-20.4v20.4m7.9-20.4v20.4"/><path class="st5" d="M564.4 105.4h-40c-2.8 0-5-2.2-5-5V60.3c0-2.8 2.2-5 5-5h40c2.8 0 5 2.2 5 5v40.1c0 2.7-2.2 5-5 5z"/><path fill="none" stroke="#fedd00" stroke-linecap="round" stroke-miterlimit="10" d="M527.3 71.7h34.2v19.9h-34.2z"/><path class="st14" d="M544.4 91.6h-17.1l8.6-7.4 5.6-4.8 2.9 1.7 3-1.7 5.6 4.8 8.5 7.4z"/><path class="st14" d="M544.4 71.7h17.1l-8.5 4.7-8.6 4.7-8.5-4.7-8.6-4.7z"/><circle class="st15" cx="622.1" cy="81.6" r="4.4"/><ellipse transform="rotate(-71.143 584.875 194.973)" class="st15" cx="584.9" cy="195" rx="4.4" ry="4.4"/><ellipse transform="rotate(-71.143 584.873 332.252)" class="st15" cx="584.9" cy="332.2" rx="4.4" ry="4.4"/><ellipse transform="rotate(-71.143 215.079 477.418)" class="st15" cx="215.1" cy="477.4" rx="4.4" ry="4.4"/><ellipse transform="rotate(-71.143 215.08 367.68)" class="st15" cx="215.1" cy="367.7" rx="4.4" ry="4.4"/><radialGradient id="SVGID_5_" cx="-2539.771" cy="723.446" r="7.813" gradientTransform="scale(-1 1) rotate(7.99 .094 15374.155)" gradientUnits="userSpaceOnUse"><stop offset="0" stop-color="#2e2e2e" stop-opacity=".04"/><stop offset=".312" stop-color="#252525" stop-opacity=".09"/><stop offset=".825" stop-color="#0c0c0c" stop-opacity=".172"/><stop offset="1" stop-color="#020202" stop-opacity=".2"/></radialGradient><circle cx="478.7" cy="512.7" r="7.8" opacity=".5" fill="url(#SVGID_5_)"/><radialGradient id="SVGID_6_" cx="-2595.765" cy="689.302" r="6.314" gradientTransform="scale(-1 1) rotate(7.99 .094 15374.155)" gradientUnits="userSpaceOnUse"><stop offset="0" stop-color="#2e2e2e" stop-opacity=".04"/><stop offset=".312" stop-color="#252525" stop-opacity=".09"/><stop offset=".825" stop-color="#0c0c0c" stop-opacity=".172"/><stop offset="1" stop-color="#020202" stop-opacity=".2"/></radialGradient><circle cx="529.4" cy="471.1" r="6.3" opacity=".5" fill="url(#SVGID_6_)"/><radialGradient id="SVGID_7_" cx="-2496.254" cy="272.007" r="6.314" gradientTransform="scale(-1 1) rotate(7.99 .094 15374.155)" gradientUnits="userSpaceOnUse"><stop offset="0" stop-color="#2e2e2e" stop-opacity=".04"/><stop offset=".312" stop-color="#252525" stop-opacity=".09"/><stop offset=".825" stop-color="#0c0c0c" stop-opacity=".172"/><stop offset="1" stop-color="#020202" stop-opacity=".2"/></radialGradient><circle cx="372.8" cy="71.7" r="6.3" opacity=".5" fill="url(#SVGID_7_)"/><circle class="st19" cx="551.6" cy="429.8" r="8.5"/><circle class="st20" cx="208.2" cy="140.7" r="6.8"/><circle class="st19" cx="437.5" cy="487.7" r="4.6"/><circle class="st20" cx="296.8" cy="415.3" r="4.6"/><circle class="st19" cx="272.4" cy="385" r="6.4"/><radialGradient id="SVGID_8_" cx="-3683.221" cy="-1969.731" r="11.38" gradientTransform="scale(-1 1) rotate(-10.871 9052.447 -18621.507)" gradientUnits="userSpaceOnUse"><stop offset="0" stop-color="#2e2e2e" stop-opacity=".04"/><stop offset=".312" stop-color="#252525" stop-opacity=".09"/><stop offset=".825" stop-color="#0c0c0c" stop-opacity=".172"/><stop offset="1" stop-color="#020202" stop-opacity=".2"/></radialGradient><circle cx="314.1" cy="133.3" r="11.4" opacity=".5" fill="url(#SVGID_8_)"/><circle class="st19" cx="257.1" cy="96.2" r="4.6"/></svg>