<svg width="1346" height="604" xmlns="http://www.w3.org/2000/svg"><script xmlns="" type="text/javascript" charset="utf-8" id="zm-extension"/><g transform="translate(0 .096)" fill="none" fill-rule="evenodd"><path d="M27.35 64.39l-5.925-5.929c-.15-.15-.15-.45 0-.675l5.925-5.93c.15-.15.45-.15.675 0l5.925 5.93c.15.15.15.45 0 .675l-5.925 5.929c-.225.15-.525.15-.675 0zM1292 423.861l-6.6-6.604c-.15-.15-.15-.45 0-.675l6.6-6.605c.15-.15.45-.15.675 0l6.6 6.605c.15.15.15.45 0 .675l-6.6 6.604c-.225.15-.525.15-.675 0zm-617.25 7.279l-5.925-5.928c-.15-.15-.15-.45 0-.676l5.925-5.928c.15-.15.45-.15.675 0l5.925 5.928c.15.15.15.45 0 .676l-5.925 5.928c-.15.226-.45.226-.675 0zM6.65 475.043l-5.925-5.93c-.15-.15-.15-.45 0-.675l5.925-5.928c.15-.15.45-.15.675 0l5.925 5.928c.15.15.15.45 0 .676l-6 5.929c-.15.15-.45.15-.6 0zm1081.2-403.749l-5.925-5.929c-.15-.15-.15-.45 0-.675l5.925-5.929c.15-.15.45-.15.675 0l5.925 5.929c.15.15.15.45 0 .675l-5.925 5.929c-.15.15-.45.15-.675 0z" fill="#FFDE00" fill-rule="nonzero"/><g fill-rule="nonzero" fill="#FFDE00"><path d="M836 494.404l-11.325-11.332a2.719 2.719 0 0 1 0-3.827L836 467.913a2.715 2.715 0 0 1 3.825 0l11.325 11.332a2.719 2.719 0 0 1 0 3.827l-11.325 11.332a2.715 2.715 0 0 1-3.825 0z" opacity=".15"/><path d="M837.575 499.057l-6.9-6.904c-.15-.15-.15-.45 0-.675l6.9-6.905c.15-.15.45-.15.675 0l6.9 6.905c.15.15.15.45 0 .675l-6.9 6.904c-.225.225-.45.225-.675 0z"/><path d="M837.65 475.793l-9.375-9.38c-.45-.451-.45-1.277 0-1.727l9.375-9.38c.45-.45 1.275-.45 1.725 0l9.375 9.38c.45.45.45 1.276 0 1.726l-9.375 9.381c-.525.525-1.275.525-1.725 0z" opacity=".25"/></g><path d="M431 82.851l-12.675-12.683c-.15-.15-.15-.45 0-.675L431 56.81c.15-.15.45-.15.675 0l12.675 12.683c.15.15.15.45 0 .675l-12.675 12.683c-.225.15-.525.15-.675 0zM843.425 268.89l-8.775-8.78c-.15-.15-.15-.45 0-.675l8.775-8.78c.15-.15.45-.15.675 0l8.775 8.78c.15.15.15.45 0 .675l-8.775 8.78c-.225.226-.525.226-.675 0zM89.9 492.303l-8.55-8.555c-.15-.15-.15-.45 0-.676l8.55-8.555c.15-.15.45-.15.675 0l8.55 8.555c.15.15.15.45 0 .676l-8.55 8.555c-.15.15-.45.15-.675 0z" stroke="#FFDE00" stroke-width=".75" opacity=".25"/><g opacity=".25" stroke="#FFDE00" stroke-width=".75"><path d="M930.125 365.4l-12.6-12.608c-.15-.15-.15-.45 0-.675l12.6-12.608c.15-.15.45-.15.675 0l12.6 12.608c.15.15.15.45 0 .675L930.8 365.4c-.225.15-.525.15-.675 0z"/><path d="M929.375 376.807l-9-9.006c-.15-.15-.15-.45 0-.675l9-9.005c.15-.15.45-.15.675 0l9 9.005c.15.15.15.45 0 .675l-9 9.006c-.225.15-.525.15-.675 0z"/></g><path d="M1298.45 63.189l-11.25-11.257c-.15-.15-.15-.45 0-.675L1298.45 40c.15-.15.45-.15.675 0l11.25 11.257c.15.15.15.45 0 .675l-11.25 11.257c-.225.225-.525.225-.675 0z" stroke="#FFDE00" stroke-width=".75" opacity=".25"/><path d="M382.625 29.643L368.45 15.46c-.15-.15-.15-.45 0-.676L382.625.6c.15-.15.45-.15.675 0l14.175 14.184c.15.15.15.45 0 .676L383.3 29.643c-.15.15-.45.15-.675 0zm190.65 346.414L559.1 361.873c-.15-.15-.15-.45 0-.676l14.175-14.183c.15-.15.45-.15.675 0l14.175 14.183c.15.15.15.45 0 .676l-14.175 14.184c-.15.225-.45.225-.675 0zM1333.85 138.01l-11.25-11.257c-.15-.15-.15-.45 0-.675l11.25-11.257c.15-.15.45-.15.675 0l11.25 11.257c.15.15.15.45 0 .675l-11.25 11.257c-.15.225-.45.225-.675 0z" fill="#FFDE00" fill-rule="nonzero" opacity=".15"/><g fill-rule="nonzero" fill="#FFDE00"><path d="M920.675 49.005l-8.175-8.18c-.15-.15-.15-.45 0-.675l8.175-8.18c.15-.15.45-.15.675 0l8.175 8.18c.15.15.15.45 0 .675l-8.175 8.18c-.225.225-.525.225-.675 0z"/><path d="M920.075 43.227l-11.1-11.107c-.45-.45-.45-1.276 0-1.726l11.1-11.107c.45-.45 1.275-.45 1.725 0l11.1 11.107c.45.45.45 1.276 0 1.726l-11.1 11.107c-.45.45-1.2.45-1.725 0z" opacity=".25"/></g><g fill-rule="nonzero" fill="#FFDE00"><path d="M367.85 568.775l-12.375-12.382c-.15-.15-.15-.45 0-.676l12.375-12.382c.15-.15.45-.15.675 0l12.375 12.382c.15.15.15.45 0 .676l-12.375 12.382c-.15.15-.45.15-.675 0z"/><path d="M367.325 560.445L350 543.11c-.45-.45-.45-1.275 0-1.726l17.325-17.335c.45-.45 1.275-.45 1.725 0l17.325 17.335c.45.45.45 1.276 0 1.726l-17.325 17.336c-.45.45-1.2.45-1.725 0z" opacity=".25"/></g><g fill-rule="nonzero" fill="#FFDE00"><path d="M1067.9 602.921l-8.175-8.18c-.15-.15-.15-.45 0-.675l8.175-8.18c.15-.15.45-.15.675 0l8.175 8.18c.15.15.15.45 0 .675l-8.175 8.18c-.225.15-.525.15-.675 0z"/><path d="M1067.375 597.068l-11.1-11.107c-.45-.45-.45-1.276 0-1.726l11.1-11.107c.45-.45 1.275-.45 1.725 0l11.1 11.107c.45.45.45 1.276 0 1.726l-11.1 11.107c-.525.525-1.275.525-1.725 0z" opacity=".25"/></g><path d="M237.875 102.888v15.085" stroke="#DDD" stroke-width=".75"/><ellipse stroke="#DDD" stroke-width=".75" cx="237.875" cy="99.436" rx="3.45" ry="3.452"/><ellipse stroke="#DDD" stroke-width=".75" cx="251.45" cy="85.928" rx="3.45" ry="3.452"/><ellipse stroke="#DDD" stroke-width=".75" cx="261.425" cy="95.984" rx="3.45" ry="3.452"/><ellipse stroke="#DDD" stroke-width=".75" cx="274.775" cy="82.476" rx="3.45" ry="3.452"/><ellipse stroke="#DDD" stroke-width=".75" cx="284.825" cy="92.532" rx="3.45" ry="3.452"/><ellipse stroke="#DDD" stroke-width=".75" cx="298.25" cy="79.024" rx="3.45" ry="3.452"/><ellipse fill="#CCC" fill-rule="nonzero" opacity=".29" cx="237.875" cy="99.436" rx="3.45" ry="3.452"/><ellipse fill="#CCC" fill-rule="nonzero" opacity=".29" cx="251.45" cy="85.928" rx="3.45" ry="3.452"/><ellipse fill="#CCC" fill-rule="nonzero" opacity=".29" cx="261.425" cy="95.984" rx="3.45" ry="3.452"/><ellipse fill="#CCC" fill-rule="nonzero" opacity=".29" cx="274.775" cy="82.476" rx="3.45" ry="3.452"/><ellipse fill="#CCC" fill-rule="nonzero" opacity=".29" cx="284.825" cy="92.532" rx="3.45" ry="3.452"/><ellipse fill="#CCC" fill-rule="nonzero" opacity=".29" cx="298.25" cy="79.024" rx="3.45" ry="3.452"/><path d="M240.35 97.035l8.625-8.706m4.875.751l5.025 4.578m4.8-.301l8.775-8.33m4.65 0l5.4 4.953m4.875.226l8.55-8.63M251.45 89.38v28.593m9.975-18.537v18.011m13.35-31.519v31.52m10.05-21.464l.075 21.463m13.35-34.971v34.971m-60.375.526h60.375" stroke="#DDD" stroke-width=".75"/><g transform="translate(103.25 372.98)" stroke="#DDD" stroke-width=".75"><ellipse transform="rotate(-.564 11.933 6.03)" cx="11.933" cy="6.029" rx="5.925" ry="5.929"/><path d="M12 15.61C5.475 15.685.225 21.013.3 27.542l23.55-.225c0-6.53-5.325-11.707-11.85-11.707z"/><path d="M31.2 10.807c12.3-.15 22.35 9.756 22.425 22.063.075 12.308-9.75 22.364-22.05 22.44-12.3.15-22.35-9.757-22.425-22.065m15.675-21.463c.825-.3 1.725-.45 2.625-.6m3.975 16.51l.075 9.906m4.875-4.953l-9.9.075"/></g><path stroke="#FFF" stroke-width=".75" d="M373.1 232.943l-63.9-39.474 63.9-39.4 63.825 39.4zm95.4 89.38l-61.125 39.175v-71.07l61.275-39.323zm-189.825 0l61.125 39.175v-71.07l-61.275-39.323z"/><path stroke="#FFF" stroke-width=".75" d="M373.1 270.992l-63.9-39.474 63.9-39.475 63.825 39.475zm63.825 36.322L375.8 346.488V275.42l61.275-39.325zm-127.35 0l61.125 39.174V275.42l-61.275-39.325zM143.45 116.021s-11.4-22.438-33.6-22.138c-8.175 20.638 8.7 39.249 8.7 39.249-3.75 9.23-.825 15.01.525 16.885.3.45.825.526 1.275.226l12.75-8.78c2.7 2.7 6.975 3.226 10.275.975 3.225-2.252 4.35-6.454 2.775-9.906l12.75-8.78c.375-.301.525-.826.225-1.277-1.425-1.876-5.775-6.679-15.675-6.454z"/><ellipse stroke="#FFF" stroke-width=".75" transform="rotate(-34.57 125.97 117.288)" cx="125.97" cy="117.288" rx="4.275" ry="4.277"/><ellipse fill="#CCC" fill-rule="nonzero" opacity=".29" transform="rotate(-34.57 125.97 117.288)" cx="125.97" cy="117.288" rx="4.275" ry="4.277"/><path d="M159.125 163.376l-11.55-8.93c-1.575-1.202-2.4-3.228-2.025-5.18l.6-3.526c.075-.526.6-.826 1.05-.75l3.525.675c1.95.375 3.525 1.8 4.125 3.752l4.275 13.959z" stroke="#FFF" stroke-width=".75"/><path d="M159.125 163.376l-11.55-8.93c-1.575-1.202-2.4-3.228-2.025-5.18l.6-3.526c.075-.526.6-.826 1.05-.75l3.525.675c1.95.375 3.525 1.8 4.125 3.752l4.275 13.959z" fill="#CCC" fill-rule="nonzero" opacity=".29"/><g transform="translate(248.75 394.743)" stroke="#DDD" stroke-width=".75"><ellipse stroke-dasharray="3" cx="27.975" cy="27.467" rx="27.375" ry="27.392"/><g transform="translate(6 6.004)" opacity=".8"><ellipse cx="21.975" cy="21.463" rx="21.45" ry="21.463"/><path d="M.525 21.463H43.35M5.175 34.896c11.25-4.277 22.425-4.277 33.45 0M5.175 8.48c10.95 4.428 22.125 4.428 33.45 0"/><ellipse cx="21.45" cy="21.463" rx="8.4" ry="21.463"/></g></g><path d="M298.25 108.292a168.458 168.458 0 0 1 58.8 45.027m-212.4-38.949c24.45-13.733 52.65-21.613 82.725-21.613 5.475 0 10.95.3 16.35.75M61.7 227.99c7.575-37.223 27.45-69.943 55.05-93.882m-9.3 247.277c-24.075-24.24-40.875-55.684-46.8-90.881M250.475 429.79c-7.5 1.05-15.225 1.576-23.025 1.576-25.95 0-50.475-5.854-72.45-16.285m214.125-60.563c-16.35 24.99-39.075 45.403-65.85 58.912m-19.8-277.897c18.75 8.63 35.25 21.389 48.375 37.073M157.1 140.562c20.1-11.332 43.35-17.786 68.1-17.786 4.5 0 9 .225 13.425.675M88.85 233.994c6.225-30.619 22.575-57.56 45.3-77.298m-7.65 203.526c-19.8-19.962-33.6-45.853-38.475-74.746m156.15 114.595a143.89 143.89 0 0 1-18.975 1.276c-21.3 0-41.55-4.803-59.55-13.358m161.775-31.369c-11.325 12.232-24.75 22.438-39.75 29.943" opacity=".64" stroke="#DDD" stroke-width=".75" stroke-dasharray="3"/><path stroke="#DDD" stroke-width=".75" d="M48.65 227.915h52.425v62.664h-82.5v-39.925"/><path d="M18.575 250.654a18.735 18.735 0 0 0 15.675 8.406c10.425 0 18.9-8.48 18.9-18.912 0-4.653-1.725-8.93-4.5-12.233" stroke="#DDD" stroke-width=".75"/><ellipse stroke="#DDD" stroke-width=".75" cx="34.325" cy="240.148" rx="18.9" ry="18.912"/><path fill="#FFF" fill-rule="nonzero" opacity=".15" d="M33.606 270.438v12.675h-3.602v-12.675zm7.398.028v12.675h-3.602v-12.675z"/><g opacity=".2"><path d="M93.65 283.525H55.1" stroke="#FFF" stroke-width=".75" opacity=".4"/><path fill="#FFF" fill-rule="nonzero" opacity=".4" d="M62.622 283.105h-7.5v-21.688h7.5zm10.342.014h-7.5v-16.66h7.5zm10.343-.036h-7.5v-10.882h7.5zm10.343-.013h-7.5v-4.953h7.5z"/></g><path d="M34.325 259.06c-10.425 0-18.825-8.406-18.9-18.837l18.975-.075-.075 18.912z" fill="#FFF" fill-rule="nonzero" opacity=".15"/><path d="M34.325 259.06l.075-18.837 13.275 13.283c-3.45 3.452-8.175 5.554-13.35 5.554z" fill="#FFF" fill-rule="nonzero" opacity=".04"/><path d="M1158.125 113.095c-45.825-12.533-96.825-3.528-136.575 28.742-10.95 8.856-20.4 18.987-28.2 29.944m264.225 26.716c-5.325-11.932-12.3-23.414-20.925-34.07-19.275-23.79-44.25-40.3-71.325-49.156m80.775 228.816c21.525-33.17 29.175-73.32 22.05-111.594m-171.6 179.736c40.5 5.703 83.25-4.803 117.525-32.645 5.25-4.278 10.2-8.856 14.7-13.584M966.8 236.47c-6.6 41.426 3.675 85.403 32.175 120.525 13.8 17.11 30.6 30.394 48.9 39.85" stroke="#DDD" stroke-width=".75" stroke-dasharray="3" opacity=".25"/><path d="M1151.525 137.26c-38.325-10.432-80.925-2.927-114.225 24.014-9.15 7.43-17.025 15.91-23.625 25.066m221.025 22.364c-4.425-9.982-10.275-19.588-17.475-28.518-16.125-19.887-36.975-33.696-59.625-41.125m67.5 191.292c18-27.692 24.375-61.237 18.45-93.282M1100 387.389c33.9 4.727 69.6-4.053 98.25-27.317a127.213 127.213 0 0 0 12.3-11.407m-219-108.217c-5.55 34.596 3.075 71.369 26.925 100.787 11.55 14.259 25.575 25.44 40.875 33.32" stroke="#DDD" stroke-width=".75" stroke-dasharray="3" opacity=".25"/><path d="M1163.525 140.937v-6.754c-3.9-.075-7.95-1.276-10.275-2.927l1.575-4.503c2.4 1.576 5.925 2.852 9.675 2.852 4.8 0 7.95-2.777 7.95-6.604 0-3.678-2.625-6.004-7.65-7.955-6.9-2.627-11.1-5.704-11.1-11.557 0-5.554 3.9-9.831 10.05-10.882v-6.754h4.2v6.529c4.05.15 6.825 1.2 8.775 2.326l-1.65 4.428c-1.425-.825-4.2-2.251-8.475-2.251-5.175 0-7.125 3.152-7.125 5.778 0 3.527 2.475 5.253 8.4 7.655 6.9 2.777 10.425 6.304 10.5 12.232 0 5.329-3.675 10.282-10.575 11.483v6.979l-4.275-.075zm75.9 73.545c.075-4.503 1.875-8.78 5.175-11.932 6.9-6.754 18.75-6.905 25.65 0 1.275 1.276 2.4 2.776 3.225 4.427.075.075.9 2.027.9 2.027 1.425-.6 3-.976 4.725-.976 4.35.075 9.225 2.852 10.575 7.205 0 .075.375 1.2.375 1.2 2.475-.075 5.1.676 6.9 2.402 1.575 1.576 2.25 3.902 2.025 6.078-.225 2.402-1.5 4.428-3.225 6.004-.45.375-.9.75-1.35 1.05-.3.226-.975.901-1.35.826l-54.225-.525c-2.775-.9-5.4-3.077-5.925-7.655-.9-7.43 6.525-10.13 6.525-10.13zm7.35-8.03c-1.875 2.101-3.225 4.578-4.05 7.355m10.575-12.083c-1.875.826-3.675 1.951-5.175 3.377m41.625 15.76c.375-1.126.525-2.552.15-4.428m-3.675 8.18s1.275-.45 2.4-1.726" opacity=".8" stroke="#FFF" stroke-width=".75"/><path stroke="#FFF" stroke-width=".75" d="M1207.4 340.71l55.35 6.754-27.6 25.966z"/><path fill="#CCC" fill-rule="nonzero" opacity=".29" d="M1207.4 340.71l45.075 16.06-7.95 7.43z"/><path stroke="#FFF" stroke-width=".75" d="M1252.775 356.92l-1.575 18.236-11.175-6.229z"/><path fill="#CCC" fill-rule="nonzero" opacity=".29" d="M1252.775 356.92l-1.575 18.236-11.175-6.229z"/><path d="M1207.4 340.71l37.275 23.414m7.95-7.354l-45.225-16.06m37.275 23.414l6.525 11.032" stroke="#FFF" stroke-width=".75"/><g opacity=".8" stroke="#FFF" stroke-width=".75"><path d="M1070.975 415.981a8.56 8.56 0 0 1-.75 1.426l2.925 2.402-2.925 3.527-2.925-2.402c-1.725 1.501-3.75 2.627-6.075 3.227l.375 3.752-4.575.45-.375-3.752c-2.4-.15-4.575-.9-6.6-2.026l-2.4 2.927-3.525-2.927 2.4-2.927c-1.5-1.726-2.625-3.752-3.225-6.078l-3.75.375-.45-4.578 3.75-.375c.15-2.402.9-4.578 2.025-6.604l-2.925-2.402 2.925-3.527 2.925 2.402c1.725-1.501 3.75-2.627 6.075-3.227l-.375-3.753 4.575-.45"/><path d="M1056.125 402.323c-3.825.75-6.6 4.277-6.225 8.255.375 4.202 4.125 7.354 8.4 6.98a8.08 8.08 0 0 0 5.4-2.928"/><g transform="translate(1058.75 375.231)"><path d="M1.05 25.816l-.525-5.178 4.2-.45c.15-2.627.975-5.179 2.25-7.355L3.75 10.13l3.3-3.977 3.225 2.701a16.045 16.045 0 0 1 6.75-3.677l-.45-4.202L21.75.45l.45 4.203c2.625.15 5.175.975 7.35 2.251l2.7-3.227 3.975 3.302-2.7 3.227c1.725 1.876 2.925 4.203 3.6 6.754l4.2-.45.525 5.178-4.2.45c-.15 2.627-.975 5.179-2.25 7.355l3.225 2.702-3.3 3.977-3.3-2.701c-1.875 1.726-4.2 2.926-6.75 3.602l.45 4.202-5.175.526-.45-4.203c-2.625-.15-5.175-.9-7.35-2.251l-2.7 3.227-3.975-3.302 2.7-3.227A16.06 16.06 0 0 1 5.1 25.29l-4.05.525z"/><ellipse transform="rotate(-5.71 21.11 21.22)" cx="21.109" cy="21.221" rx="8.625" ry="8.63"/></g></g><ellipse stroke="#FFF" stroke-width=".75" opacity=".8" transform="rotate(-20.432 975.287 203.565)" cx="975.287" cy="203.565" rx="21.9" ry="21.914"/><path d="M1018.7 186.565c-6 2.251-11.925 4.428-17.925 6.679-5.55-13.884-21.15-20.863-35.25-15.61-14.25 5.329-21.525 21.238-16.2 35.497 5.325 14.259 21.225 21.539 35.475 16.21.3-.15.6-.3.975-.375 2.25 5.929 4.05 10.882 6.225 16.81-.075 0-.15.075-.225.075-23.775 8.856-50.175-3.227-59.025-27.016-8.85-23.79 3.225-50.206 27-59.062 23.775-8.705 50.025 3.227 58.95 26.792z" stroke="#FFF" stroke-width=".75" opacity=".8"/><path d="M985.85 229.041c13.65-5.703 20.55-21.238 15.3-35.197-.075-.225-.15-.45-.3-.6 3.15-1.2 6.3-2.326 9.45-3.527l.225.675c7.125 19.212-2.325 40.6-21.225 48.255-1.05-3.152-2.175-6.229-3.45-9.606z" stroke="#FFF" stroke-width=".75" opacity=".8"/></g></svg>