<svg id="Layer_1" xmlns="http://www.w3.org/2000/svg" viewBox="0 0 800 600"><script xmlns="" type="text/javascript" charset="utf-8" id="zm-extension"/><style>.st0{fill:none;stroke:#333;stroke-miterlimit:10;stroke-dasharray:4}.st1{fill:#333}.st2{fill:#ffde00}.st3{opacity:.12;fill:#333}.st4,.st7{fill:#fff;stroke:#333;stroke-miterlimit:10}.st7{fill:none;stroke:#ffde00}.st8{opacity:.4;fill:#ffde00}.st15{fill:none;stroke:#333;stroke-miterlimit:10}</style><path class="st0" d="M539.9 242.5v223.1h-270"/><circle class="st1" cx="489.5" cy="465.6" r="3.4"/><circle class="st1" cx="539.9" cy="325.1" r="3.4"/><circle class="st1" cx="337.4" cy="465.6" r="2.7"/><circle class="st1" cx="539.9" cy="236.1" r="2.9"/><circle class="st1" cx="269.9" cy="465.6" r="2.9"/><circle class="st2" cx="539.9" cy="379.9" r="4.1"/><path class="st0" d="M246.5 172.1h250.3v250.3H246.5z"/><circle class="st1" cx="382.6" cy="172.1" r="4"/><circle class="st1" cx="246.5" cy="213" r="4"/><circle class="st1" cx="246.5" cy="345.7" r="3.3"/><circle class="st1" cx="331.4" cy="422.4" r="2.8"/><circle class="st1" cx="455.9" cy="422.4" r="2.8"/><circle class="st1" cx="496.7" cy="315.7" r="4"/><circle class="st2" cx="246.5" cy="283.2" r="5.6"/><circle class="st2" cx="409.5" cy="422.4" r="4.5"/><circle class="st2" cx="377.2" cy="465.6" r="4.6"/><path class="st3" d="M526.7 212.2c-.3 0-.7-.1-1-.3l-17-13.3-45.7-.2c-.9 0-1.6-.7-1.5-1.6l.2-41.3c0-.4.2-.8.5-1.1.3-.3.7-.4 1.1-.4l70.9.4c.4 0 .8.2 1.1.5.3.3.5.7.4 1.1l-.2 41.3c0 .4-.2.8-.5 1.1-.3.3-.7.4-1.1.4h-7l1.3 11.8c.1.6-.2 1.2-.8 1.5-.2 0-.5.1-.7.1z"/><path class="st4" d="M530.9 149.9l-.2 41.3-8.7-.1 1.5 13.6-17.4-13.6-46.3-.3.3-41.3z"/><ellipse transform="matrix(.00539 -1 1 .00539 322.38 664.784)" class="st2" cx="495.4" cy="170.3" rx="2.5" ry="2.5"/><ellipse transform="matrix(.00539 -1 1 .00539 337.473 680.121)" class="st2" cx="510.6" cy="170.4" rx="2.5" ry="2.5"/><ellipse transform="matrix(.00539 -1 1 .00539 306.802 648.951)" class="st2" cx="479.6" cy="170.2" rx="2.5" ry="2.5"/><path class="st3" d="M556.1 194.1c.4 0 .8-.1 1.1-.4l19-14.9 51.1-.3c1 0 1.7-.8 1.7-1.7l-.2-46.2c0-.5-.2-.9-.5-1.2-.3-.3-.8-.5-1.2-.5l-79.2.4c-.5 0-.9.2-1.2.5-.3.3-.5.8-.5 1.2l.2 46.2c0 .5.2.9.5 1.2.3.3.8.5 1.2.5h7.8l-1.4 13.2c-.1.7.3 1.4.9 1.7.1.3.4.3.7.3z"/><path class="st4" d="M550.5 124.6l.3 46.2 9.7-.1-1.7 15.2 19.5-15.3 51.7-.2-.3-46.2z"/><ellipse transform="matrix(1 -.00539 .00539 1 -.786 3.181)" class="st2" cx="590.2" cy="147.5" rx="2.7" ry="2.7"/><ellipse transform="matrix(1 -.00539 .00539 1 -.786 3.09)" class="st2" cx="573.2" cy="147.6" rx="2.7" ry="2.7"/><ellipse transform="matrix(1 -.00539 .00539 1 -.785 3.276)" class="st2" cx="607.8" cy="147.4" rx="2.7" ry="2.7"/><ellipse transform="matrix(1 -.00985 .00985 1 -4.218 1.933)" class="st4" cx="194.2" cy="429.1" rx="6.9" ry="6.9"/><path class="st4" d="M194.3 440.3c-7.6.1-13.7 6.3-13.6 13.9l27.5-.3c-.1-7.5-6.3-13.6-13.9-13.6z"/><path class="st4" d="M216.7 434.7c14.3-.1 26 11.3 26.2 25.6.1 14.3-11.3 26-25.6 26.2-14.3.1-26-11.3-26.2-25.6m18.2-25c1-.3 2-.6 3-.7m4.6 19.2l.1 11.5m5.7-5.8l-11.5.1"/><radialGradient id="SVGID_1_" cx="8843.366" cy="-7926.618" r="7.813" gradientTransform="scale(1 -1) rotate(7.99 -51584.103 -65623.777)" gradientUnits="userSpaceOnUse"><stop offset="0" stop-color="#2e2e2e" stop-opacity=".04"/><stop offset=".312" stop-color="#252525" stop-opacity=".09"/><stop offset=".825" stop-color="#0c0c0c" stop-opacity=".172"/><stop offset="1" stop-color="#020202" stop-opacity=".2"/></radialGradient><circle cx="236.8" cy="87.4" r="7.8" opacity=".5" fill="url(#SVGID_1_)"/><radialGradient id="SVGID_2_" cx="8798.583" cy="-7988.58" r="6.314" gradientTransform="scale(1 -1) rotate(7.99 -51584.103 -65623.777)" gradientUnits="userSpaceOnUse"><stop offset="0" stop-color="#2e2e2e" stop-opacity=".04"/><stop offset=".312" stop-color="#252525" stop-opacity=".09"/><stop offset=".825" stop-color="#0c0c0c" stop-opacity=".172"/><stop offset="1" stop-color="#020202" stop-opacity=".2"/></radialGradient><circle cx="201" cy="155" r="6.3" opacity=".5" fill="url(#SVGID_2_)"/><circle class="st7" cx="148.5" cy="194.1" r="8.5"/><circle class="st7" cx="283.8" cy="128" r="4.6"/><circle class="st8" cx="634.6" cy="323.2" r="4.6"/><circle cx="135.5" cy="386.5" r="9.2" opacity=".22" fill="#ffde00"/><circle class="st7" cx="599.3" cy="268.5" r="6.4"/><radialGradient id="SVGID_3_" cx="-2746.911" cy="605.801" r="6.314" gradientTransform="scale(-1 1) rotate(7.99 .094 15374.155)" gradientUnits="userSpaceOnUse"><stop offset="0" stop-color="#2e2e2e" stop-opacity=".04"/><stop offset=".312" stop-color="#252525" stop-opacity=".09"/><stop offset=".825" stop-color="#0c0c0c" stop-opacity=".172"/><stop offset="1" stop-color="#020202" stop-opacity=".2"/></radialGradient><circle cx="667.4" cy="367.4" r="6.3" opacity=".5" fill="url(#SVGID_3_)"/><radialGradient id="SVGID_4_" cx="-2574.957" cy="461.997" r="6.314" gradientTransform="scale(-1 1) rotate(7.99 .094 15374.155)" gradientUnits="userSpaceOnUse"><stop offset="0" stop-color="#2e2e2e" stop-opacity=".04"/><stop offset=".312" stop-color="#252525" stop-opacity=".09"/><stop offset=".825" stop-color="#0c0c0c" stop-opacity=".172"/><stop offset="1" stop-color="#020202" stop-opacity=".2"/></radialGradient><circle cx="477.2" cy="248.9" r="6.3" opacity=".5" fill="url(#SVGID_4_)"/><circle class="st8" cx="535.9" cy="513.5" r="6.8"/><radialGradient id="SVGID_5_" cx="-4049.471" cy="-1680.382" r="11.38" gradientTransform="scale(-1 1) rotate(-10.871 9052.447 -18621.507)" gradientUnits="userSpaceOnUse"><stop offset="0" stop-color="#2e2e2e" stop-opacity=".04"/><stop offset=".312" stop-color="#252525" stop-opacity=".09"/><stop offset=".825" stop-color="#0c0c0c" stop-opacity=".172"/><stop offset="1" stop-color="#020202" stop-opacity=".2"/></radialGradient><circle cx="619.2" cy="486.5" r="11.4" opacity=".5" fill="url(#SVGID_5_)"/><radialGradient id="SVGID_6_" cx="-3724.133" cy="-1722.328" r="11.38" gradientTransform="scale(-1 1) rotate(-10.871 9052.447 -18621.507)" gradientUnits="userSpaceOnUse"><stop offset="0" stop-color="#2e2e2e" stop-opacity=".04"/><stop offset=".312" stop-color="#252525" stop-opacity=".09"/><stop offset=".825" stop-color="#0c0c0c" stop-opacity=".172"/><stop offset="1" stop-color="#020202" stop-opacity=".2"/></radialGradient><circle cx="307.6" cy="384" r="11.4" opacity=".5" fill="url(#SVGID_6_)"/><radialGradient id="SVGID_7_" cx="-3589.01" cy="-1765.327" r="11.38" gradientTransform="scale(-1 1) rotate(-10.871 9052.447 -18621.507)" gradientUnits="userSpaceOnUse"><stop offset="0" stop-color="#2e2e2e" stop-opacity=".04"/><stop offset=".312" stop-color="#252525" stop-opacity=".09"/><stop offset=".825" stop-color="#0c0c0c" stop-opacity=".172"/><stop offset="1" stop-color="#020202" stop-opacity=".2"/></radialGradient><circle cx="183" cy="316.2" r="11.4" opacity=".5" fill="url(#SVGID_7_)"/><circle class="st7" cx="610.6" cy="406.6" r="4.6"/><circle class="st7" cx="207.3" cy="377.3" r="4.6"/><path class="st4" d="M449.7 377.3h-156c-1.1 0-2-.9-2-2v-156c0-1.1.9-2 2-2h156c1.1 0 2 .9 2 2v156c0 1.1-.9 2-2 2z"/><path class="st15" d="M351.6 297.4L381 268l9.4 9.3 2.3-44.1-44.1 2.3 9.4 9.4-51.4 51.4"/><linearGradient id="SVGID_8_" gradientUnits="userSpaceOnUse" x1="948.63" y1="-5129.047" x2="945.297" y2="-5019.047" gradientTransform="rotate(45.001 -5785.213 -3110.01)"><stop offset=".302" stop-color="#fedd00"/><stop offset=".536" stop-color="#feed76" stop-opacity=".776"/><stop offset=".735" stop-color="#fff9d4" stop-opacity=".585"/><stop offset=".824" stop-color="#fffef9" stop-opacity=".5"/><stop offset="1" stop-color="#fff"/></linearGradient><path opacity=".58" fill="url(#SVGID_8_)" d="M337.3 304.2l42.7-42.7 6.3 6.3 1.6-29.7-29.8 1.5 6.4 6.3-42.8 42.8"/><path class="st4" d="M342.9 306.1l5.7-5.7"/><path class="st15" d="M406.1 288.3l13.4-13.3m-23.4 23.3l6.2-6.2m25.1 21l-36.3 36.3 9.4 9.4-44.1 2.3 2.3-44.1 9.4 9.4 24.6-24.7"/><linearGradient id="SVGID_9_" gradientUnits="userSpaceOnUse" x1="1021.469" y1="-1300.953" x2="1018.135" y2="-1190.953" gradientTransform="scale(1 -1) rotate(-45 1805.135 -22.424)"><stop offset=".302" stop-color="#fedd00"/><stop offset=".536" stop-color="#feed76" stop-opacity=".776"/><stop offset=".735" stop-color="#fff9d4" stop-opacity=".585"/><stop offset=".824" stop-color="#fffef9" stop-opacity=".5"/><stop offset="1" stop-color="#fff"/></linearGradient><path opacity=".58" fill="url(#SVGID_9_)" d="M427.4 305.6l-42.8 42.8 6.3 6.3-29.7 1.5 1.5-29.7 6.4 6.3 42.7-42.7"/></svg>