<svg id="Layer_1" xmlns="http://www.w3.org/2000/svg" viewBox="0 0 800 600"><script xmlns="" type="text/javascript" charset="utf-8" id="zm-extension"/><style>.st5,.st9{fill:none;stroke:#ffde00;stroke-miterlimit:10}.st10,.st9{opacity:.43}.st10{fill:#ffde00}.st11{fill:none;stroke:#333;stroke-miterlimit:10}.st12{fill:#ffde00}.st13{opacity:.1}.st13,.st14,.st15{fill:#11172d}.st14{opacity:4.000000e-02}.st15{opacity:.29}.st25,.st28{fill:#333}.st28{opacity:.12}.st29{fill:#fff;stroke:#333;stroke-miterlimit:10}</style><radialGradient id="SVGID_1_" cx="-2355.413" cy="376.9" r="8.565" gradientTransform="scale(-1 1) rotate(7.99 .094 15374.155)" gradientUnits="userSpaceOnUse"><stop offset="0" stop-color="#2e2e2e" stop-opacity=".04"/><stop offset=".312" stop-color="#252525" stop-opacity=".09"/><stop offset=".825" stop-color="#0c0c0c" stop-opacity=".172"/><stop offset="1" stop-color="#020202" stop-opacity=".2"/></radialGradient><circle cx="247.9" cy="195.1" r="8.6" opacity=".5" fill="url(#SVGID_1_)"/><radialGradient id="SVGID_2_" cx="-2683.06" cy="349.508" r="8.565" gradientTransform="scale(-1 1) rotate(7.99 .094 15374.155)" gradientUnits="userSpaceOnUse"><stop offset="0" stop-color="#2e2e2e" stop-opacity=".04"/><stop offset=".312" stop-color="#252525" stop-opacity=".09"/><stop offset=".825" stop-color="#0c0c0c" stop-opacity=".172"/><stop offset="1" stop-color="#020202" stop-opacity=".2"/></radialGradient><circle cx="568.6" cy="122.4" r="8.6" opacity=".5" fill="url(#SVGID_2_)"/><radialGradient id="SVGID_3_" cx="-2849.558" cy="638.581" r="4.624" gradientTransform="scale(-1 1) rotate(7.99 .094 15374.155)" gradientUnits="userSpaceOnUse"><stop offset="0" stop-color="#2e2e2e" stop-opacity=".04"/><stop offset=".312" stop-color="#252525" stop-opacity=".09"/><stop offset=".825" stop-color="#0c0c0c" stop-opacity=".172"/><stop offset="1" stop-color="#020202" stop-opacity=".2"/></radialGradient><circle cx="773.6" cy="385.6" r="4.6" opacity=".5" fill="url(#SVGID_3_)"/><radialGradient id="SVGID_4_" cx="-2837.684" cy="723.182" r="5.88" gradientTransform="scale(-1 1) rotate(7.99 .094 15374.155)" gradientUnits="userSpaceOnUse"><stop offset="0" stop-color="#2e2e2e" stop-opacity=".04"/><stop offset=".312" stop-color="#252525" stop-opacity=".09"/><stop offset=".825" stop-color="#0c0c0c" stop-opacity=".172"/><stop offset="1" stop-color="#020202" stop-opacity=".2"/></radialGradient><circle cx="773.6" cy="471" r="5.9" opacity=".5" fill="url(#SVGID_4_)"/><radialGradient id="SVGID_5_" cx="-2769.58" cy="696.126" r="5.88" gradientTransform="scale(-1 1) rotate(7.99 .094 15374.155)" gradientUnits="userSpaceOnUse"><stop offset="0" stop-color="#2e2e2e" stop-opacity=".04"/><stop offset=".312" stop-color="#252525" stop-opacity=".09"/><stop offset=".825" stop-color="#0c0c0c" stop-opacity=".172"/><stop offset="1" stop-color="#020202" stop-opacity=".2"/></radialGradient><circle cx="702.4" cy="453.7" r="5.9" opacity=".5" fill="url(#SVGID_5_)"/><circle class="st5" cx="236.5" cy="186.5" r="11.5"/><radialGradient id="SVGID_6_" cx="-2761.73" cy="523.227" r="19.195" gradientTransform="scale(-1 1) rotate(7.99 .094 15374.155)" gradientUnits="userSpaceOnUse"><stop offset="0" stop-color="#2e2e2e" stop-opacity=".04"/><stop offset=".312" stop-color="#252525" stop-opacity=".09"/><stop offset=".825" stop-color="#0c0c0c" stop-opacity=".172"/><stop offset="1" stop-color="#020202" stop-opacity=".2"/></radialGradient><circle cx="670.6" cy="283.5" r="19.2" opacity=".5" fill="url(#SVGID_6_)"/><radialGradient id="SVGID_7_" cx="-2265.306" cy="304.061" r="12.21" gradientTransform="scale(-1 1) rotate(7.99 .094 15374.155)" gradientUnits="userSpaceOnUse"><stop offset="0" stop-color="#2e2e2e" stop-opacity=".04"/><stop offset=".312" stop-color="#252525" stop-opacity=".09"/><stop offset=".825" stop-color="#0c0c0c" stop-opacity=".172"/><stop offset="1" stop-color="#020202" stop-opacity=".2"/></radialGradient><circle cx="148.6" cy="135.5" r="12.2" opacity=".5" fill="url(#SVGID_7_)"/><radialGradient id="SVGID_8_" cx="-2424.924" cy="279.912" r="15.703" gradientTransform="scale(-1 1) rotate(7.99 .094 15374.155)" gradientUnits="userSpaceOnUse"><stop offset="0" stop-color="#2e2e2e" stop-opacity=".04"/><stop offset=".312" stop-color="#252525" stop-opacity=".09"/><stop offset=".825" stop-color="#0c0c0c" stop-opacity=".172"/><stop offset="1" stop-color="#020202" stop-opacity=".2"/></radialGradient><circle cx="303.3" cy="89.4" r="15.7" opacity=".5" fill="url(#SVGID_8_)"/><circle class="st5" cx="605.8" cy="216.9" r="11.5"/><circle class="st9" cx="155.3" cy="268.2" r="11.5"/><circle class="st10" cx="689.8" cy="191.4" r="4.5"/><circle class="st10" cx="69.9" cy="292.9" r="3.4"/><circle class="st9" cx="777.8" cy="234.4" r="10.3"/><circle class="st5" cx="367.1" cy="190.5" r="8.1"/><circle class="st5" cx="25.4" cy="219.1" r="8.1"/><circle class="st5" cx="214.4" cy="473.4" r="8.1"/><path class="st11" d="M296.4 275H536"/><circle class="st12" cx="308.5" cy="265.7" r="2.5"/><circle class="st12" cx="319.2" cy="265.7" r="2.5"/><circle class="st12" cx="329.8" cy="265.7" r="2.5"/><path class="st11" d="M534 418.3H298.4c-1.1 0-2-.9-2-2V258.2c0-1.1.9-2 2-2H534c1.1 0 2 .9 2 2v158.1c0 1.1-.9 2-2 2z"/><path class="st13" d="M526 418.3H301c-2.5 0-4.5-2-4.5-4.5v-148l-.1-.1h-5.7c-2.1 0-3.7 1.7-3.7 3.7V424c0 2.1 1.7 3.7 3.7 3.7h232.2c2.1 0 3.7-1.7 3.7-3.7v-5.7l-.1-.1c-.2.1-.4.1-.5.1z"/><path class="st14" d="M410.2 294.2h110.5v105.5H410.2z"/><path class="st15" d="M422.1 309.3h65.5v1.8h-65.5zm0 10.8h65.5v1.8h-65.5zm0 10.8h65.5v1.8h-65.5z"/><path class="st5" d="M500.9 314.3l3.9 4.7 5.9-7.4m-9.8 21.8l3.9 4.8 5.9-7.5m-9.8 21.9l3.9 4.7 5.9-7.4"/><path class="st13" d="M520.3 297.9v101.8H415.1v4.1h109.8V297.9zm-123.4 0v101.8h-75.6v4.1h79.8V297.9z"/><path class="st14" d="M346 294.1c6.5 4.3 10.8 11.7 10.8 20.1 0 13.3-10.8 24.2-24.2 24.2-6 0-11.5-2.2-15.7-5.8v67.1H397V294.1h-51z"/><circle class="st13" cx="333.5" cy="315.4" r="25"/><path class="st13" d="M367.1 309.3h21.4v4.6h-21.4zm0 9.4h21.4v4.6h-21.4z"/><circle cx="332.6" cy="314.3" r="24.2" fill="#fff"/><circle class="st14" cx="332.6" cy="314.3" r="24.2"/><path d="M359.3 315.1c0-14.3-11.6-25.9-25.9-26l-.1 26.1 26-.1c0 .1 0 0 0 0z" opacity=".63" fill="#fff"/><path d="M547.2 438.9v33.5c0 1.2-1.1 2.1-2.4 2.1H372.5c-1.3 0-2.4-.9-2.4-2.1v-54.1" fill="none" stroke="#394566" stroke-miterlimit="10"/><path class="st13" d="M372.3 474.5c-1.3 0-2.4-.9-2.4-2.1v-53.8h-7.4v60.3c0 1.2 1.1 2.1 2.4 2.1h174.4c1.3 0 2.4-.9 2.4-2.1v-4.4H372.3z"/><path class="st13" d="M435.3 441v17c0 .6-.4 1-1 1h-17c-.6 0-1-.4-1-1v-17c0-.6.4-1 1-1h17c.6 0 1 .4 1 1zm-32.1 0v17c0 .6-.4 1-1 1h-17c-.6 0-1-.4-1-1v-17c0-.6.4-1 1-1h17c.6 0 1 .4 1 1zm64.2 0v17c0 .6-.4 1-1 1h-17c-.6 0-1-.4-1-1v-17c0-.6.4-1 1-1h17c.6 0 1 .4 1 1zm32.1 0v17c0 .6-.4 1-1 1h-17c-.6 0-1-.4-1-1v-17c0-.6.4-1 1-1h17c.6 0 1 .4 1 1zm32.1 0v17c0 .6-.4 1-1 1h-17c-.6 0-1-.4-1-1v-17c0-.6.4-1 1-1h17c.6 0 1 .4 1 1z"/><path class="st11" d="M536 339.8h9.1c1.2 0 2.1 1 2.1 2.3v130c0 1.3-.9 2.3-2.1 2.3H372.2c-1.2 0-2.1-1-2.1-2.3v-32.4m227.8 88.2H247c-4.3 0-7.8-3.5-7.8-7.8v-8.6h366.6v8.6c0 4.3-3.5 7.8-7.9 7.8z"/><path class="st11" d="M535.6 295.6h42.7c3.7 0 6.7 3 6.7 6.7v209.1H259.9V302.6c0-3.9 3.1-7 7-7h28.7"/><path class="st11" d="M536 310.3h30.3c1.2 0 2.2 1 2.2 2.2v181.9c0 1.2-1 2.2-2.2 2.2H278.6c-1.2 0-2.2-1-2.2-2.2V312.6c0-1.2 1-2.2 2.2-2.2h17.9"/><path class="st15" d="M330.3 362h53.4v1.8h-53.4zm0 10.8h53.4v1.8h-53.4zm0 10.8h53.4v1.8h-53.4z"/><g opacity=".79"><linearGradient id="SVGID_9_" gradientUnits="userSpaceOnUse" x1="436.96" y1="343.664" x2="420.941" y2="429.51"><stop offset=".302" stop-color="#fedd00"/><stop offset=".536" stop-color="#feed76" stop-opacity=".776"/><stop offset=".735" stop-color="#fff9d4" stop-opacity=".585"/><stop offset=".824" stop-color="#fffef9" stop-opacity=".5"/><stop offset="1" stop-color="#fff"/></linearGradient><path fill="url(#SVGID_9_)" d="M425.8 387.9h12.5v-36.1h-12.5z"/><linearGradient id="SVGID_10_" gradientUnits="userSpaceOnUse" x1="454.377" y1="346.914" x2="438.358" y2="432.76"><stop offset=".302" stop-color="#fedd00"/><stop offset=".536" stop-color="#feed76" stop-opacity=".776"/><stop offset=".735" stop-color="#fff9d4" stop-opacity=".585"/><stop offset=".824" stop-color="#fffef9" stop-opacity=".5"/><stop offset="1" stop-color="#fff"/></linearGradient><path fill="url(#SVGID_10_)" d="M443.1 387.9h12.5v-27.7h-12.5z"/><linearGradient id="SVGID_11_" gradientUnits="userSpaceOnUse" x1="471.911" y1="350.186" x2="455.892" y2="436.032"><stop offset=".302" stop-color="#fedd00"/><stop offset=".536" stop-color="#feed76" stop-opacity=".776"/><stop offset=".735" stop-color="#fff9d4" stop-opacity=".585"/><stop offset=".824" stop-color="#fffef9" stop-opacity=".5"/><stop offset="1" stop-color="#fff"/></linearGradient><path fill="url(#SVGID_11_)" d="M460.3 387.9h12.5v-18h-12.5z"/><linearGradient id="SVGID_12_" gradientUnits="userSpaceOnUse" x1="489.387" y1="353.447" x2="473.368" y2="439.293"><stop offset=".302" stop-color="#fedd00"/><stop offset=".536" stop-color="#feed76" stop-opacity=".776"/><stop offset=".735" stop-color="#fff9d4" stop-opacity=".585"/><stop offset=".824" stop-color="#fffef9" stop-opacity=".5"/><stop offset="1" stop-color="#fff"/></linearGradient><path fill="url(#SVGID_12_)" d="M477.6 387.9H490v-9h-12.4z"/><linearGradient id="SVGID_13_" gradientUnits="userSpaceOnUse" x1="465.223" y1="348.938" x2="449.204" y2="434.784"><stop offset=".302" stop-color="#fedd00"/><stop offset=".536" stop-color="#feed76" stop-opacity=".776"/><stop offset=".735" stop-color="#fff9d4" stop-opacity=".585"/><stop offset=".824" stop-color="#fffef9" stop-opacity=".5"/><stop offset="1" stop-color="#fff"/></linearGradient><path fill="url(#SVGID_13_)" d="M425.8 387.6H490v.8h-64.2z"/></g><circle class="st25" cx="69.7" cy="475.9" r="3.9"/><circle class="st25" cx="743.5" cy="326" r="3.9"/><path d="M740.1 329.6L621.4 447.3 585 410.9M73.6 472l121.2-121.2 65.1 65.2" fill="none" stroke="#333" stroke-miterlimit="10" stroke-dasharray="4"/><circle class="st12" cx="195.2" cy="350.8" r="5.9"/><circle class="st12" cx="622.5" cy="447.3" r="5.9"/><path class="st13" d="M333.6 315.3l16.1 16.1c4.2-4.1 6.8-9.8 7-16.1h-23.1z"/><linearGradient id="SVGID_14_" gradientUnits="userSpaceOnUse" x1="355.605" y1="293.199" x2="312.836" y2="334.413"><stop offset=".302" stop-color="#fedd00"/><stop offset=".536" stop-color="#feed76" stop-opacity=".776"/><stop offset=".735" stop-color="#fff9d4" stop-opacity=".585"/><stop offset=".824" stop-color="#fffef9" stop-opacity=".5"/><stop offset="1" stop-color="#fff"/></linearGradient><path d="M359.2 315.1c0-14.3-11.6-25.9-25.9-26l-.1 26.1 26-.1c0 .1 0 0 0 0z" fill="url(#SVGID_14_)"/><ellipse transform="rotate(-44.846 467.989 215.246)" class="st28" cx="468" cy="215.2" rx="53.3" ry="53.3"/><ellipse class="st29" cx="465.5" cy="213.1" rx="50" ry="50.9"/><path class="st11" d="M495 230.1V196l-29.5-17-29.6 17v34.1l29.6 17.1z"/><path class="st11" d="M465.5 179l-29.6 51.6H495z"/><ellipse transform="rotate(-7.987 465.43 178.916)" class="st29" cx="465.5" cy="179" rx="3.4" ry="3.4"/><ellipse transform="rotate(-7.987 494.967 196.03)" class="st29" cx="495" cy="196.1" rx="3.4" ry="3.4"/><ellipse transform="rotate(-7.987 435.895 196.033)" class="st29" cx="435.9" cy="196.1" rx="3.4" ry="3.4"/><ellipse transform="rotate(-7.987 494.968 230.548)" class="st29" cx="495" cy="230.6" rx="3.4" ry="3.4"/><ellipse transform="rotate(-7.987 435.896 230.55)" class="st29" cx="435.9" cy="230.6" rx="3.4" ry="3.4"/><ellipse transform="rotate(-7.987 465.433 247.126)" class="st29" cx="465.5" cy="247.2" rx="3.4" ry="3.4"/><path class="st11" d="M465.5 216.5v27.2m-.2-61.3v27.3m-26.6 18.9l53.2-30.5m.3 30.6l-53.4-30.8"/><ellipse transform="rotate(-7.987 465.432 213.02)" class="st29" cx="465.5" cy="213.1" rx="3.4" ry="3.4"/><path transform="rotate(44.316 745.34 435.927)" class="st28" d="M722 412.6h46.7v46.7H722z"/><path transform="rotate(44.316 744.892 427.947)" class="st29" d="M721.5 404.6h46.7v46.7h-46.7z"/><ellipse transform="rotate(-53.674 779.779 446.879)" class="st25" cx="779.8" cy="446.9" rx="1.6" ry="1.6"/><ellipse transform="rotate(-53.674 783.854 407.289)" class="st25" cx="783.9" cy="407.3" rx="1.6" ry="1.6"/><ellipse transform="rotate(-53.674 745.303 417.617)" class="st11" cx="745.3" cy="417.6" rx="1.9" ry="1.9"/><ellipse transform="rotate(-53.674 753.94 423.127)" class="st11" cx="754" cy="423.1" rx="1.9" ry="1.9"/><ellipse transform="rotate(-53.674 734.821 432.959)" class="st11" cx="734.9" cy="433" rx="1.9" ry="1.9"/><ellipse transform="rotate(-53.674 744.885 437.773)" class="st11" cx="744.9" cy="437.8" rx="1.9" ry="1.9"/><ellipse transform="rotate(-53.674 735.29 423.126)" class="st11" cx="735.3" cy="423.1" rx="1.9" ry="1.9"/><ellipse transform="rotate(-53.674 744.854 427.94)" class="st11" cx="744.9" cy="428" rx="1.9" ry="1.9"/><ellipse transform="rotate(-53.674 753.94 433.504)" class="st11" cx="754" cy="433.5" rx="1.9" ry="1.9"/><ellipse transform="rotate(-53.674 716.281 390.938)" class="st25" cx="716.3" cy="391" rx="1.6" ry="1.6"/><ellipse transform="rotate(-53.674 709.286 411.39)" class="st25" cx="709.3" cy="411.4" rx="1.4" ry="1.4"/><ellipse transform="rotate(-53.674 718.786 462.899)" class="st25" cx="718.8" cy="462.9" rx="1.6" ry="1.6"/><path transform="rotate(44.316 744.892 427.947)" class="st11" d="M726.5 409.6h36.8v36.8h-36.8z"/><path transform="rotate(44.316 744.892 427.947)" class="st11" d="M721.5 404.6h46.7v46.7h-46.7z"/><path class="st11" d="M773.2 399l-12 12.2"/><path d="M773 388.4l.2 10.6m-5.9 18.1l5.9-6.1m9.1-3.1l-9.1 3.1m-54.8-8.9l9.8 9.5m-11.6-18.9l1.8 9.4m10.2 42.6l-7.7 7.8m-1.9 9.4l1.9-9.4m3.1-12.3l-9.8 10.1m-7.2 1.1l7.2-1.1m46.5-5.1l10.1 9.8m.7 9.6l-.7-9.6m-6.2-13.8l7.5 7.2m6.2-1.1l-6.2 1.1M716.7 414l4.7 4.6m-10.7-6.7l6 2.1" fill="none" stroke-linecap="round" stroke="#333" stroke-miterlimit="10"/><radialGradient id="SVGID_15_" cx="-2196.287" cy="542.92" r="6.996" gradientTransform="scale(-1 1) rotate(7.99 .094 15374.155)" gradientUnits="userSpaceOnUse"><stop offset="0" stop-color="#2e2e2e" stop-opacity=".04"/><stop offset=".312" stop-color="#252525" stop-opacity=".09"/><stop offset=".825" stop-color="#0c0c0c" stop-opacity=".172"/><stop offset="1" stop-color="#020202" stop-opacity=".2"/></radialGradient><circle cx="113.4" cy="381.6" r="7" opacity=".5" fill="url(#SVGID_15_)"/><radialGradient id="SVGID_16_" cx="-2162.369" cy="470.013" r="5.017" gradientTransform="scale(-1 1) rotate(7.99 .094 15374.155)" gradientUnits="userSpaceOnUse"><stop offset="0" stop-color="#2e2e2e" stop-opacity=".04"/><stop offset=".312" stop-color="#252525" stop-opacity=".09"/><stop offset=".825" stop-color="#0c0c0c" stop-opacity=".172"/><stop offset="1" stop-color="#020202" stop-opacity=".2"/></radialGradient><circle cx="69.7" cy="314.1" r="5" opacity=".5" fill="url(#SVGID_16_)"/><radialGradient id="SVGID_17_" cx="-2106.376" cy="531.627" r="6.212" gradientTransform="scale(-1 1) rotate(7.99 .094 15374.155)" gradientUnits="userSpaceOnUse"><stop offset="0" stop-color="#2e2e2e" stop-opacity=".04"/><stop offset=".312" stop-color="#252525" stop-opacity=".09"/><stop offset=".825" stop-color="#0c0c0c" stop-opacity=".172"/><stop offset="1" stop-color="#020202" stop-opacity=".2"/></radialGradient><circle cx="22.8" cy="382.9" r="6.2" opacity=".5" fill="url(#SVGID_17_)"/><path class="st28" d="M94.9 371.7V344l-24-13.9-24 13.9v27.7l24 13.9z"/><path class="st29" d="M91 366.3v-26.2l-22.7-13.2-22.8 13.2v26.2l22.8 13.2z"/><ellipse transform="rotate(-7.987 68.288 393.927)" class="st11" cx="68.3" cy="394" rx="2.7" ry="2.7"/><ellipse transform="rotate(-7.987 90.67 320.766)" class="st11" cx="90.7" cy="320.8" rx="2.7" ry="2.7"/><ellipse transform="rotate(-7.987 34.917 372.883)" class="st25" cx="34.9" cy="372.9" rx="1.7" ry="1.7"/><ellipse transform="rotate(-7.987 108.907 328.397)" class="st25" cx="108.9" cy="328.4" rx="1.7" ry="1.7"/><ellipse transform="rotate(-7.987 103.069 347.22)" class="st25" cx="103.1" cy="347.3" rx="1.7" ry="1.7"/><ellipse transform="rotate(-7.987 113.428 361.538)" class="st25" cx="113.4" cy="361.6" rx="1.7" ry="1.7"/><ellipse transform="rotate(-7.987 50.655 380.887)" class="st25" cx="50.6" cy="380.9" rx="1.7" ry="1.7"/><ellipse transform="rotate(-7.987 45.514 312.4)" class="st25" cx="45.5" cy="312.4" rx="1.7" ry="1.7"/><ellipse transform="rotate(-7.987 34.915 333.611)" class="st25" cx="34.9" cy="333.6" rx="1.7" ry="1.7"/><ellipse transform="rotate(-7.987 110.773 379.452)" class="st29" cx="110.8" cy="379.5" rx="2.7" ry="2.7"/><ellipse transform="rotate(-7.987 24.662 350.951)" class="st11" cx="24.6" cy="351" rx="2.7" ry="2.7"/><ellipse transform="rotate(-7.987 88.017 385.557)" class="st11" cx="88" cy="385.6" rx="2.7" ry="2.7"/><path class="st11" d="M68.3 353.8v25.7m-22.8-39.4l22.8 13.7M91 340.1l-22.7 13.7m0-26.9v-12.2m-22.8 51.6l-21.2 13.2m44 0v11.7M91 366.3l17.5 12M91 340.1l17.1-11.2m-62.6 11.2l-10.8-6.6"/><ellipse transform="rotate(-7.987 22.007 380.889)" class="st29" cx="22" cy="380.9" rx="2.7" ry="2.7"/><ellipse transform="rotate(-7.987 68.284 312.398)" class="st29" cx="68.3" cy="312.4" rx="2.7" ry="2.7"/><ellipse transform="rotate(-53.674 771.855 469.754)" class="st29" cx="771.9" cy="469.8" rx="4" ry="4"/><ellipse transform="rotate(-53.674 772.855 384.384)" class="st29" cx="772.9" cy="384.4" rx="3.2" ry="3.2"/><ellipse transform="rotate(-53.674 702.41 452.12)" class="st29" cx="702.4" cy="452.1" rx="4" ry="4"/></svg>