<?xml version="1.0" encoding="UTF-8"?>
<svg width="481px" height="357px" viewBox="0 0 481 357" version="1.1" xmlns="http://www.w3.org/2000/svg" xmlns:xlink="http://www.w3.org/1999/xlink"><script xmlns="" type="text/javascript" charset="utf-8" id="zm-extension"/>
    <!-- Generator: Sketch 49 (51002) - http://www.bohemiancoding.com/sketch -->
    <title>Ghost</title>
    <desc>Created with Sketch.</desc>
    <defs>
        <linearGradient x1="85.3553391%" y1="85.3553391%" x2="14.6446609%" y2="14.6446609%" id="linearGradient-1">
            <stop stop-color="#9174EC" offset="0%"/>
            <stop stop-color="#BF51C2" offset="100%"/>
        </linearGradient>
        <linearGradient x1="50%" y1="-6.68528089%" x2="50%" y2="108.801448%" id="linearGradient-2">
            <stop stop-color="#BD44AE" offset="0%"/>
            <stop stop-color="#7237D6" offset="100%"/>
        </linearGradient>
        <polygon id="path-3" points="0.04202506 0.10682992 60.2818428 0.10682992 60.2818428 41.3594869 0.04202506 41.3594869"/>
        <linearGradient x1="44.1165996%" y1="0%" x2="70.5260159%" y2="113.582715%" id="linearGradient-5">
            <stop stop-color="#FFE800" offset="0%"/>
            <stop stop-color="#FF1E97" offset="100%"/>
        </linearGradient>
    </defs>
    <g id="Page-1" stroke="none" stroke-width="1" fill="none" fill-rule="evenodd">
        <g id="Artboard-6-Copy-2" transform="translate(-1439.000000, -2569.000000)">
            <g id="3-copy" transform="translate(370.000000, 2569.000000)">
                <g id="Ghost" transform="translate(1069.000000, 0.000000)">
                    <path d="M63.2688726,162.668693 C163.779067,106.866187 276.89927,208.038548 338.882299,208.038548 C445.584062,208.038548 430.408042,142.392251 446.997114,107.541562 C463.586186,72.6908725 522.670965,66.4107483 541.1406,107.541562 C557.092385,143.065268 545.031072,181.23221 506.949459,208.038548 C474.618822,230.796671 402.624154,239.502858 389.231237,240.829197 C285.755144,251.076727 361.496966,329.989972 293.547664,352.572788 C256.668362,364.829551 231.213805,350.846372 225.587161,320.39077 C220.224819,291.36577 257.249512,258.357321 219.122176,230.796671 C179.905974,202.448924 257.537717,370.510947 133.787635,342.720833 C10.8033046,315.102682 -48.5567273,224.753428 63.2688726,162.668693 Z" id="Oval-7" fill="url(#linearGradient-1)" transform="translate(276.000000, 218.000000) scale(-1, 1) translate(-276.000000, -218.000000) "/>
                    <g id="Page-1" transform="translate(144.000000, 0.000000)">
                        <g id="Group-3" transform="translate(47.128021, 0.000000)" fill="url(#linearGradient-2)">
                            <path d="M55.7617291,0.0957213743 C25.1801196,0.0957213743 0.531294084,24.11927 0.531294084,53.4295543 C0.531294084,55.855233 0.756691574,58.2809117 0.990138974,60.6988158 C1.21553646,63.793111 1.44093395,66.654168 1.89977884,69.5152249 C8.51680516,124.170742 37.9553273,166.480176 110.750667,153.70649 C123.984719,151.063122 121.473147,142.682091 115.540363,141.360407 C90.6661404,136.081446 110.750667,76.3491081 110.750667,53.4295543 C110.750667,24.11927 86.1018412,0.0957213743 55.7617291,0.0957213743 Z" id="Fill-1"/>
                        </g>
                        <g id="Group-15" transform="translate(0.000000, 25.235294)">
                            <path d="M104.562989,29.151781 L118.446652,29.3840661 C118.225398,37.3813106 112.180434,43.7276716 104.562989,43.7276716 C96.7242903,43.7276716 90.4501706,37.1490255 90.4501706,29.151781 L104.562989,29.151781 Z" id="Fill-4" fill="#333333"/>
                            <path d="M102.294836,0 C115.972596,0 127.060954,4.66224617 127.060954,10.4113504 C127.060954,16.1604546 115.972596,20.8227007 102.294836,20.8227007 C88.6091329,20.8227007 77.5287176,16.1604546 77.5287176,10.4113504 C77.5287176,4.66224617 88.6091329,0 102.294836,0" id="Fill-6" fill="#FFFFFF"/>
                            <path d="M103.375664,0 C109.315169,0 114.139501,4.6645975 114.139501,10.4074437 C114.139501,16.1581032 109.315169,20.8227007 103.375664,20.8227007 C97.4280784,20.8227007 92.603746,16.1581032 92.603746,10.4074437 C92.603746,4.6645975 97.4280784,0 103.375664,0" id="Fill-8" fill="#1A1A1A"/>
                            <path d="M11.7408733,76.852787 C12.1948962,79.7150968 10.1637411,82.5696497 7.2245401,83.2289894 C4.06231031,83.6711348 1.13107463,81.6931158 0.677051718,78.8385629 L11.7408733,76.852787 Z M11.7408733,76.852787 L0.677051718,78.8385629 L0.454022917,77.5198836 L0.230994116,76.4106416 L0.230994116,75.3169134 L0,74.2154283 L0,73.1217002 L0,72.0202151 L0.230994116,71.1436812 L0.230994116,70.0421961 L0.454022917,69.1656622 L0.454022917,68.0564202 L0.908045834,67.1798863 L1.13107463,66.3033524 L1.35410344,65.4190615 L1.80812635,64.5425276 L2.03115515,63.6659937 L2.48517807,63.0066541 L2.93920099,62.1301202 L3.60828739,61.4707805 L4.06231031,60.8036839 L4.51633323,60.1443443 L5.19338494,59.4850046 L5.87043666,58.8256649 L6.31649426,58.3835195 L6.99354598,57.9413741 L7.6705977,57.2897914 L8.34764942,56.8476459 L9.03266645,56.4055005 L9.48668937,55.971112 L10.1637411,55.7461609 L10.8407928,55.3117724 L11.5178445,55.0868212 L12.1948962,54.6524327 L16.9342583,64.5425276 L16.7032642,64.7597219 L16.2492412,64.9846731 L15.8031836,65.2018673 L15.3491607,65.4190615 L15.1261319,65.6440127 L14.672109,65.861207 L14.4490802,66.0784012 L14.2260514,66.3033524 L13.7720285,66.5205466 L13.5489997,66.7377409 L13.3180056,66.962692 L13.0949768,67.3970805 L12.871948,67.6220317 L12.6409538,67.839226 L12.6409538,68.0564202 L12.417925,68.4985656 L12.1948962,68.7157599 L11.9639021,68.9329541 L11.9639021,69.3828565 L11.7408733,69.8250019 L11.7408733,70.0421961 L11.5178445,70.4843415 L11.5178445,70.91873 L11.2868504,71.3608754 L11.2868504,72.0202151 L11.2868504,72.4623605 L11.2868504,73.1217002 L11.2868504,73.7810398 L11.2868504,74.4326226 L11.5178445,75.0919622 L11.5178445,75.9762531 L11.7408733,76.852787 Z M16.9342583,64.5425276 L12.1948962,54.6524327 L13.5489997,54.2102873 L14.672109,53.7681419 L16.0262124,53.5509476 L17.3882812,53.5509476 L18.7423846,53.5509476 L19.8734593,53.5509476 L20.9965686,53.9930931 L22.1276432,54.2102873 L23.0277237,54.6524327 L23.9278042,55.0868212 L24.8358501,55.5289666 L25.5129018,55.971112 L26.1899535,56.4055005 L26.8670052,56.8476459 L27.544057,57.2897914 L27.9980799,57.7241798 L28.6751316,57.9413741 L29.1291545,58.3835195 L29.5752121,58.6007137 L30.029235,58.8256649 L30.2522638,59.0428592 L30.7062867,59.2600534 L30.9293155,59.2600534 L31.1603097,59.2600534 L31.3833385,59.4850046 L31.6063673,59.4850046 L31.8293961,59.4850046 L32.0603902,59.4850046 L32.283419,59.4850046 L32.7374419,59.2600534 L33.1834995,59.0428592 L33.6375224,58.8256649 L38.8309074,68.7157599 L37.4768039,69.1656622 L36.1306658,69.8250019 L34.7765624,70.0421961 L33.4144936,70.2593904 L32.0603902,70.4843415 L30.9293155,70.4843415 L29.5752121,70.2593904 L28.4521028,70.0421961 L27.3210282,69.6000507 L26.4209476,69.3828565 L25.289873,68.9329541 L24.3818272,68.4985656 L23.7047754,68.0564202 L23.0277237,67.3970805 L22.350672,66.962692 L21.6736203,66.5205466 L20.9965686,66.3033524 L20.5425457,65.861207 L20.0964881,65.4190615 L19.4194363,65.2018673 L19.1964075,64.9846731 L18.7423846,64.7597219 L18.5193558,64.5425276 L18.2883617,64.5425276 L18.0653329,64.5425276 L17.8423041,64.5425276 L17.8423041,64.3253334 L17.61131,64.3253334 L17.61131,64.5425276 L17.3882812,64.5425276 L16.9342583,64.5425276 Z M38.8309074,68.7157599 L33.6375224,58.8256649 L34.5455683,58.3835195 L35.22262,57.9413741 L35.8996717,57.5069856 L36.3536946,57.2897914 L36.5767234,56.8476459 L36.7997522,56.6304517 L37.0307463,56.4055005 L37.0307463,56.1883063 L37.2537751,55.7461609 L37.2537751,55.5289666 L37.4768039,55.0868212 L37.4768039,54.6524327 L37.4768039,54.2102873 L37.707798,53.7681419 L37.707798,53.1088022 L37.707798,52.2245114 L37.707798,51.3479775 L37.9308268,50.4714436 L38.1538556,49.5871527 L38.3848498,48.4934246 L38.6078786,47.3919395 L39.0619015,46.2982113 L39.5079591,45.1967263 L40.1850108,44.0874842 L40.8620625,42.7688049 L41.7701084,41.6750768 L42.901183,40.5735917 L44.0322576,39.6970578 L45.3863611,38.5955727 L46.7404645,37.7190388 L48.3175967,36.8425049 L49.894729,35.9582141 L55.0881139,45.8560659 L53.7340105,46.5154056 L52.83393,46.957551 L51.9338494,47.6091337 L51.2567977,48.0512792 L50.8027748,48.4934246 L50.3487519,48.9278131 L50.1177578,49.3699585 L49.894729,49.8121039 L49.6717002,50.0292981 L49.4407061,50.4714436 L49.4407061,50.6886378 L49.2176772,51.1307832 L49.2176772,51.5651717 L48.9946484,52.0073171 L48.9946484,52.6666568 L48.9946484,53.3337534 L48.9946484,53.9930931 L48.7636543,54.6524327 L48.7636543,55.5289666 L48.5406255,56.6304517 L48.3175967,57.5069856 L48.0866026,58.6007137 L47.8635738,59.7021988 L47.1865221,60.8036839 L46.7404645,61.905169 L45.8324187,63.0066541 L44.9323381,64.1003822 L44.0322576,65.2018673 L42.901183,66.0784012 L41.5391142,66.962692 L40.1850108,67.839226 L38.8309074,68.7157599 Z M49.894729,35.9582141 C52.83393,34.6395347 56.2191885,35.7332629 57.573292,38.3783785 C58.9273954,41.2329314 57.7963208,44.5373866 55.0881139,45.8560659 L49.894729,35.9582141 Z" id="Fill-10" fill="#AB44BD"/>
                            <g id="Group-14" transform="translate(145.278760, 41.645401)">
                                <mask id="mask-4" fill="white">
                                    <use xlink:href="#path-3"/>
                                </mask>
                                <g id="Clip-13"/>
                                <path d="M53.2163095,29.9194951 C56.173003,29.2597941 59.3707313,31.0215838 60.0536632,33.8777012 C60.9615609,36.7415797 59.137731,39.8150104 55.9480372,40.4747114 L53.2163095,29.9194951 Z M53.2163095,29.9194951 L55.9480372,40.4747114 L55.2651053,40.6997859 L54.8071391,40.9170991 L54.1242072,40.9170991 L53.4412753,41.1344124 L52.7583434,41.1344124 L52.0754115,41.1344124 L51.3924795,41.3594869 L50.7095476,41.3594869 L50.0346502,41.3594869 L49.3436838,41.3594869 L48.6607519,41.3594869 L47.9778199,41.3594869 L47.294888,41.3594869 L46.6119561,41.1344124 L45.6960239,41.1344124 L45.013092,41.1344124 L44.3381945,40.9170991 L43.6552626,40.6997859 L42.7393304,40.6997859 L42.0563985,40.4747114 L41.3654321,40.2573981 L40.6825001,40.0400848 L39.7746024,39.5976971 L39.0916705,39.3803838 L38.4087386,39.1553094 L37.7258067,38.7206828 L37.0428747,38.2782951 L36.3599428,37.8436685 L35.6770109,37.4012808 L34.994079,36.958893 L34.3111471,36.5242665 L33.6282151,35.8568043 L41.3654321,27.940392 L41.8314327,28.1577053 L42.0563985,28.3827798 L42.2893988,28.600093 L42.5143646,28.600093 L42.9723307,28.8174063 L43.1972965,29.0424808 L43.4222623,29.2597941 L43.8802284,29.2597941 L44.1051942,29.4771073 L44.5631603,29.7021818 L45.013092,29.7021818 L45.2460923,29.9194951 L45.6960239,29.9194951 L46.15399,30.1368084 L46.3789558,30.1368084 L46.8369219,30.1368084 L47.294888,30.3618828 L47.7448196,30.3618828 L48.2027858,30.3618828 L48.6607519,30.3618828 L48.8857177,30.3618828 L49.3436838,30.3618828 L49.7936154,30.3618828 L50.259616,30.3618828 L50.7095476,30.3618828 L50.9425479,30.3618828 L51.3924795,30.3618828 L51.8504457,30.1368084 L52.0754115,30.1368084 L52.5333776,30.1368084 L52.9913437,29.9194951 L53.2163095,29.9194951 Z M41.3654321,27.940392 L33.6282151,35.8568043 L32.7122829,34.9720288 L32.029351,34.0950145 L31.3464191,33.2180002 L30.8964875,32.3409859 L30.4385214,31.2388971 L29.9805552,30.3618828 L29.7555894,29.2597941 L29.5306236,28.3827798 L29.5306236,27.4980043 L29.2976233,26.6132288 L29.2976233,25.7362145 L29.2976233,25.0765135 L29.2976233,24.1994992 L29.5306236,23.5397982 L29.5306236,22.8800972 L29.5306236,22.4377094 L29.5306236,21.7780084 L29.5306236,21.3433818 L29.5306236,20.9009941 L29.5306236,20.2412931 L29.5306236,20.0239798 L29.5306236,19.5738309 L29.5306236,19.1314431 L29.2976233,18.9141299 L29.2976233,18.4717421 L29.0726575,18.2544288 L29.0726575,17.8120411 L28.8476917,17.5947278 L28.6146914,17.1523401 L28.1647598,16.7177135 L27.7067937,16.2753258 L27.2568621,15.8406992 L35.4520451,7.91652581 L36.3599428,8.7935401 L37.0428747,9.89562886 L37.958807,10.7726432 L38.6417389,11.8824931 L39.0916705,12.9768207 L39.5496366,13.8615962 L39.9995682,14.9559237 L40.2325685,16.0580125 L40.4575343,16.9350268 L40.6825001,18.0371156 L40.9155004,18.9141299 L40.9155004,19.7989053 L40.9155004,20.6836808 L40.9155004,21.5606951 L40.9155004,22.2203961 L40.9155004,22.8800972 L40.6825001,23.5397982 L40.6825001,24.1994992 L40.6825001,24.8592002 L40.6825001,25.2938268 L40.6825001,25.7362145 L40.6825001,25.9535278 L40.6825001,26.3959155 L40.6825001,26.6132288 L40.6825001,26.8383033 L40.9155004,27.0556165 L40.9155004,27.2729298 L41.1404663,27.4980043 L41.1404663,27.7153176 L41.3654321,27.940392 Z M35.4520451,7.91652581 L27.2568621,15.8406992 L26.5739301,15.1809982 L25.8909982,14.5212972 L25.2080663,14.0789094 L24.7501002,13.8615962 L24.2840996,13.6365217 L23.834168,13.4192084 L23.3762019,13.2018951 L23.151236,13.2018951 L22.9182357,13.2018951 L22.4683041,13.2018951 L22.010338,13.2018951 L21.7853722,13.2018951 L21.3274061,13.2018951 L20.6444742,13.4192084 L20.1945426,13.4192084 L19.5116106,13.6365217 L18.8286787,13.8615962 L17.9127465,14.0789094 L17.0048488,14.2962227 L16.096951,14.2962227 L15.1810188,14.5212972 L14.0401208,14.5212972 L12.8992228,14.5212972 L11.7663592,14.5212972 L10.4004954,14.2962227 L9.03463154,14.0789094 L7.89373351,13.6365217 L6.51983518,12.9768207 L5.38697164,12.3171197 L4.0211078,11.4323442 L2.88020977,10.5553299 L1.74734624,9.45324112 L9.71756346,1.75414217 L10.4004954,2.19652991 L10.8584615,2.63115647 L11.5413934,3.07354421 L11.7663592,3.29861867 L12.2162908,3.52369314 L12.4492911,3.52369314 L12.6742569,3.52369314 L12.8992228,3.74100642 L13.3571889,3.74100642 L13.5821547,3.74100642 L13.815155,3.52369314 L14.2650866,3.52369314 L14.9480185,3.52369314 L15.4059846,3.29861867 L16.096951,3.29861867 L16.779883,3.07354421 L17.4628149,2.85623093 L18.3707126,2.63115647 L19.2786103,2.41384319 L20.4195084,2.41384319 L21.3274061,2.19652991 L22.4683041,2.19652991 L23.834168,2.19652991 L24.975066,2.41384319 L26.3409298,2.63115647 L27.7067937,3.07354421 L29.0726575,3.52369314 L30.2135555,4.18339416 L31.5794194,4.84309518 L32.9452832,5.72010947 L34.0861813,6.81443704 L35.4520451,7.91652581 Z M1.74734624,9.45324112 C-0.526415332,7.47413806 -0.526415332,3.95831969 1.74734624,1.75414217 C3.79614199,-0.442274164 7.4357674,-0.442274164 9.71756346,1.75414217 L1.74734624,9.45324112 Z" id="Fill-12" fill="#983FC5" mask="url(#mask-4)"/>
                            </g>
                        </g>
                    </g>
                    <path d="M148.433223,193.206256 C183.060653,188.612373 215.154807,262.077137 278.771131,281.894904 C299.606441,288.385523 284.685773,319.961587 238.841301,319.961587 C201.141056,319.961587 188.488991,295.974161 167.77201,295.974161 C132.4661,295.974161 122.637228,324.634033 80.3573191,334.545994 C43.4419684,343.200307 5.25985505e-14,310.890486 0,299.077338 C-4.91169605e-14,287.264189 23.6516535,317.30611 77.2163565,302.677956 C156.568413,281.007453 113.805794,197.800138 148.433223,193.206256 Z" id="Path-15" fill-opacity="0.889999986" fill="url(#linearGradient-5)"/>
                </g>
            </g>
        </g>
    </g>
</svg>