<?xml version="1.0" encoding="UTF-8"?>
<svg width="473px" height="288px" viewBox="0 0 473 288" version="1.1" xmlns="http://www.w3.org/2000/svg" xmlns:xlink="http://www.w3.org/1999/xlink"><script xmlns="" type="text/javascript" charset="utf-8" id="zm-extension"/>
    <!-- Generator: Sketch 49 (51002) - http://www.bohemiancoding.com/sketch -->
    <title>Group 20 Copy 2</title>
    <desc>Created with Sketch.</desc>
    <defs/>
    <g id="Page-1" stroke="none" stroke-width="1" fill="none" fill-rule="evenodd">
        <g id="Artboard-Copy" transform="translate(-825.000000, -7140.000000)" stroke="#37D9AE">
            <g id="Group-16" transform="translate(826.000000, 7141.000000)">
                <g id="Group-20-Copy-2">
                    <path d="M466,280 C466,257.051294 456.434789,235.433997 454.623483,215.050978 C453.241257,199.496496 460.739485,184.821087 454.623483,169.87281 C449.023336,156.185348 435.608534,140.539349 427.398201,128.088605 C419.375838,115.922911 407.104445,104.194207 392.366919,96.7832188 C358.395325,79.7000871 366.044697,68.146749 344.594928,57.3585159 C334.786867,52.4255187 337.113687,42.4399761 323.455782,37.9465565 C286.656325,25.8396187 277.976147,8.24612649 252.302465,2.06365673 C233.020729,-2.57957091 209.764011,2.06365673 188.362737,2.06365673 C175.190538,2.06365673 164.152023,14.5258922 151.468717,16.302021 C134.549492,18.671334 116.199559,11.0232145 100.401159,16.302021 C86.3945259,20.9821342 77.6099563,35.6857352 64.6969324,42.4399761 C50.2456018,49.9988383 29.9187608,44.4067308 19,59.7486599" id="Oval-5"/>
                    <path d="M447,287 C447,264.051294 437.434789,242.433997 435.623483,222.050978 C434.241257,206.496496 441.739485,191.821087 435.623483,176.87281 C430.023336,163.185348 416.608534,147.539349 408.398201,135.088605 C400.375838,122.922911 388.104445,111.194207 373.366919,103.783219 C339.395325,86.7000871 347.044697,75.146749 325.594928,64.3585159 C315.786867,59.4255187 318.113687,49.4399761 304.455782,44.9465565 C267.656325,32.8396187 258.976147,15.2461265 233.302465,9.06365673 C214.020729,4.42042909 190.764011,9.06365673 169.362737,9.06365673 C156.190538,9.06365673 145.152023,21.5258922 132.468717,23.302021 C115.549492,25.671334 97.1995594,18.0232145 81.4011586,23.302021 C67.3945259,27.9821342 58.6099563,42.6857352 45.6969324,49.4399761 C31.2456018,56.9988383 10.9187608,51.4067308 0,66.7486599" id="Oval-5-Copy" stroke-width="0.5"/>
                    <circle id="Oval-9" fill="#FFFFFF" cx="103" cy="16" r="5"/>
                    <circle id="Oval-9-Copy-4" fill="#FFFFFF" cx="330" cy="41" r="5"/>
                    <circle id="Oval-9-Copy-5" fill="#FFFFFF" cx="466" cy="275" r="5"/>
                    <circle id="Oval-9-Copy" stroke-width="0.5" fill="#FFFFFF" cx="289" cy="39" r="3"/>
                    <circle id="Oval-9-Copy-2" stroke-width="0.5" fill="#FFFFFF" cx="322" cy="61" r="3"/>
                    <circle id="Oval-9-Copy-3" stroke-width="0.5" fill="#FFFFFF" cx="437" cy="183" r="3"/>
                </g>
            </g>
        </g>
    </g>
</svg>