<?xml version="1.0" encoding="UTF-8"?>
<svg width="1440px" height="446px" viewBox="0 0 1440 446" version="1.1" xmlns="http://www.w3.org/2000/svg" xmlns:xlink="http://www.w3.org/1999/xlink"><script xmlns="" type="text/javascript" charset="utf-8" id="zm-extension"/>
    <!-- Generator: sketchtool 50.2 (55047) - http://www.bohemiancoding.com/sketch -->
    <title>6C5E1CD7-5F8E-432A-8B5E-0D896F294455</title>
    <desc>Created with sketchtool.</desc>
    <defs>
        <linearGradient x1="50%" y1="0%" x2="50%" y2="100%" id="linearGradient-1">
            <stop stop-color="#036F88" offset="0%"/>
            <stop stop-color="#0F334C" offset="100%"/>
        </linearGradient>
    </defs>
    <g id="Page-1" stroke="none" stroke-width="1" fill="none" fill-rule="evenodd" opacity="0.630264946">
        <g id="CRM" transform="translate(0.000000, -616.000000)" fill="url(#linearGradient-1)">
            <g id="1" transform="translate(0.000000, 148.000000)">
                <path d="M0.748440748,603 C0.748440748,603 95.8004158,468.294118 148.939709,468.294118 C202.079002,468.294118 178.877339,598.210458 246.985447,598.210458 C267.417879,598.210458 290.320166,593.121569 295.858628,575.310458 C296.756757,572.316993 296.831601,552.634967 303.118503,553.308497 C313.596674,554.505882 303.866944,573.664052 327.817048,573.065359 C342.935551,572.691176 346.22869,550.838889 348.099792,542.307516 C350.494802,531.680719 352.740125,521.053922 355.209979,510.427124 C356.407484,505.413072 357.455301,500.39902 358.952183,495.384967 C359.850312,492.316667 361.122661,488.125817 365.837838,487.751634 C374.070686,487.078105 373.471933,499.575817 373.546778,503.542157 C373.77131,514.243791 374.444906,525.020261 376.316008,535.572222 C377.738046,543.504902 379.758836,552.560131 388.889813,557.2 C398.39501,562.139216 411.043659,560.49281 421.297297,558.397386 C445.022869,553.607843 473.912682,543.055882 496.889813,555.403922 C499.659044,556.900654 502.203742,558.621895 504.523909,560.49281 C535.209979,585.039216 529.970894,592.223529 558.411642,592.223529 C586.852391,592.223529 576.37422,559.894118 598.827443,559.894118 C621.280665,559.894118 613.796258,590.128105 636.623701,590.128105 C659.451143,590.128105 662.444906,534.74902 705.85447,534.74902 C749.264033,534.74902 750.760915,597.013072 783.692308,597.013072 C816.623701,597.013072 826.35343,550.015686 842.444906,550.015686 C858.536383,550.015686 858.536383,587.733333 889.596674,587.733333 C920.656965,587.733333 916.765073,565.432026 944.607069,587.733333 C972.449064,610.034641 972.299376,571.867974 990.261954,571.867974 C1008.22453,571.867974 1002.98545,591.624837 1033.67152,591.624837 C1064.35759,591.624837 1113.23077,531.00719 1190.84407,535.347712 C1206.48649,536.245752 1218.01247,529.884641 1223.17672,518.210131 C1225.19751,513.645098 1226.46985,508.930392 1228.56549,504.440196 C1230.9605,499.276471 1236.72349,495.98366 1243.23493,499.575817 C1251.69231,504.14085 1255.13514,514.318627 1259.17672,521.353268 C1264.49064,530.707843 1270.32848,539.613399 1281.70478,545.001634 C1289.56341,548.743464 1298.02079,549.866013 1307.07692,549.791176 C1312.09148,549.791176 1317.25572,551.063399 1321.2973,553.45817 C1327.95842,557.42451 1329.97921,564.010131 1332.14969,570.071895 C1333.79626,574.711765 1335.59252,579.576144 1339.85863,583.243137 C1345.54678,588.107516 1354.15385,589.230065 1362.16216,589.230065 C1408.56549,589.230065 1382.37006,553.90719 1406.32017,553.90719 C1430.27027,553.90719 1437.75468,484.458824 1437.75468,484.458824 L1437.75468,603 L1440,603 L1440,914 L0,914 L0,603 L0.748440748,603 Z" id="Combined-Shape"/>
            </g>
        </g>
    </g>
</svg>