<svg width="1428" height="414" xmlns="http://www.w3.org/2000/svg"><script xmlns="" type="text/javascript" charset="utf-8" id="zm-extension"/><g transform="translate(1)" fill="none" fill-rule="evenodd"><g fill-rule="nonzero" fill="#FFDE00"><path d="M1035 79.5l-7.8-7.8c-.2-.2-.6-.2-.9 0l-7.8 7.8c-.2.2-.2.6 0 .9l7.8 7.8c.2.2.6.2.9 0l7.8-7.8c.2-.3.2-.7 0-.9z"/><path d="M1038 87.9l-10.4-10.4c-.6-.6-1.7-.6-2.3 0l-10.4 10.4c-.6.6-.6 1.7 0 2.3l10.4 10.4c.6.6 1.7.6 2.3 0l10.4-10.4c.7-.6.7-1.6 0-2.3z" opacity=".25"/></g><path d="M35.7 68.9l10.5-10.5c.2-.2.6-.2.9 0l10.5 10.5c.2.2.2.6 0 .9L47.1 80.3c-.2.2-.6.2-.9 0L35.7 69.8c-.2-.3-.2-.7 0-.9zM.5 295.1l8.4-8.4c.2-.2.6-.2.9 0l8.4 8.4c.2.2.2.6 0 .9l-8.4 8.4c-.2.2-.6.2-.9 0L.5 296c-.2-.2-.2-.6 0-.9z" stroke="#FFDE00"/><path d="M888.7 23.6l5.9-5.9c.6-.6 1.7-.6 2.3 0l5.9 5.9c.6.6.6 1.7 0 2.3l-5.9 5.9c-.6.6-1.7.6-2.3 0l-5.9-5.9c-.6-.7-.6-1.7 0-2.3z" fill="#FFDE00" fill-rule="nonzero" opacity=".25"/><path d="M470.2 14.3l5.1-5.1c.3-.3.7-.3.9 0l5.1 5.1c.3.3.3.7 0 .9l-5.1 5.1c-.3.3-.7.3-.9 0l-5.1-5.1c-.3-.3-.3-.7 0-.9z" fill="#FFDE00" fill-rule="nonzero"/><path d="M2.3 91.8L8 86c.6-.6 1.7-.6 2.3 0l5.7 5.7c.6.6.6 1.7 0 2.3l-5.7 5.7c-.6.6-1.7.6-2.3 0L2.3 94c-.7-.6-.7-1.6 0-2.2zM1413.9 5.4l4.9-4.9c.6-.6 1.7-.6 2.3 0l4.9 4.9c.6.6.6 1.7 0 2.3l-4.9 4.9c-.6.6-1.7.6-2.3 0l-4.9-4.9c-.7-.7-.7-1.7 0-2.3zM224.1 330.9l12.1-12.1c.6-.6 1.7-.6 2.3 0l12.1 12.1c.6.6.6 1.7 0 2.3l-12.1 12.1c-.6.6-1.7.6-2.3 0l-12.1-12.1c-.6-.7-.6-1.7 0-2.3z" fill="#FFDE00" fill-rule="nonzero" opacity=".25"/><g stroke="#FFF"><path d="M212.9 153.3c.8-.2 1.5-.4 2.3-.7l2.7 4.8 5.9-3.3-2.7-4.8c2.6-2.1 4.8-4.7 6.2-7.9l5.3 1.5 1.8-6.5-5.3-1.5c.4-3.4 0-6.8-1.2-9.9l4.8-2.7-3.3-5.9-4.8 2.7c-2.1-2.6-4.7-4.8-7.9-6.2l1.5-5.3-6.5-1.8-1.5 5.3c-3.4-.4-6.8 0-10 1.2l-2.7-4.8-5.9 3.3 2.7 4.8c-2.6 2.1-4.8 4.7-6.2 7.9l-5.3-1.5-1.8 6.5"/><path d="M197.2 128.4c2.1-5.3 7.9-8.3 13.5-6.8 6 1.7 9.4 7.9 7.8 13.9-.9 3.1-3 5.6-5.7 6.9"/><g transform="translate(149 86)"><path d="M36.2 16.7l-.8-4.4-3.6.7c-.8-2.2-2-4-3.6-5.5l2-3L26.5 2l-2 3c-2-.9-4.2-1.4-6.5-1.4L17.3.1l-4.4.8.7 3.5c-2.2.8-4 2-5.5 3.6l-3-2.1-2.5 3.7 3 2.1c-.9 2-1.4 4.2-1.4 6.5l-3.6.7.8 4.4 3.6-.7c.8 2.2 2 4 3.6 5.5l-2.1 3 3.7 2.5 2.1-3c2 .9 4.2 1.4 6.5 1.4l.7 3.6 4.4-.8-.7-3.6c2.1-.8 4-2 5.5-3.6l3 2.1 2.5-3.7-3-2c.9-2 1.4-4.2 1.4-6.5l3.6-.8z"/><circle transform="rotate(-10.446 18.494 17.69)" cx="18.494" cy="17.691" r="7.4"/></g><path d="M205.1 217.6H94.7c-1.1 0-2-.9-2-2v-79.4c0-1.1.9-2 2-2h110.5c1.1 0 2 .9 2 2v79.4c-.1 1.1-1 2-2.1 2z"/><path d="M197.9 217.8v6.9c0 1.2-1 2.1-2.1 2.1H85.6c-1.2 0-2.1-1-2.1-2.1v-79.1c0-1.2 1-2.1 2.1-2.1h7m9.5 62.7h96.8"/><path d="M114.7 159.2h74.8M109.3 182h87.3" stroke-dasharray="4"/><path d="M112.5 206.2s3-23.6 16.9-24.2c3.2-.1 6.1 1.7 8.3 3.9 2.4 2.4 3.7 5.8 6.5 7.9.7.5 1.9 1 2.7 1.2 4.7 1 8.4-1.3 11.3-4.1 1.7-1.7 3.6-2.9 6.1-2.9 5.5 0 9.2 5.9 11.2 10.2"/><path d="M110.5 195.3s3.5-45.4 21.9-45.4c6.1 0 9.8 4.5 11.9 8.6.9 1.9 1.6 3.8 2.2 5.8 1.3 4.8 2.1 12.2 10.1 12.2 9.9 0 7.8-11.8 16.6-13.4 10.3-1.9 12.9 9.9 14.7 15.6.1.2.1.3.2.5"/></g><path d="M1329.8 45.5h-39.5c-1.1 0-2-.9-2-2V16.1c0-1.1.9-2 2-2h39.5c1.1 0 2 .9 2 2v27.4c0 1.1-.9 2-2 2zm-33.7-19.7h25m-25 9.1h25.8M1310 45.3l.1 18" stroke="#FFF"/><path d="M1278.6 52.8h62.7" stroke="#FFF" stroke-linecap="square" stroke-linejoin="round"/><path d="M1320.3 87.7h-20.2c-1.1 0-2-.9-2-2V65.5c0-1.1.9-2 2-2h20.2c1.1 0 2 .9 2 2v20.2c0 1.1-.9 2-2 2zm34.4 0h-20.2c-1.1 0-2-.9-2-2V65.5c0-1.1.9-2 2-2h20.2c1.1 0 2 .9 2 2v20.2c0 1.1-.9 2-2 2zm-68.7 0h-20.2c-1.1 0-2-.9-2-2V65.5c0-1.1.9-2 2-2h20.2c1.1 0 2 .9 2 2v20.2c0 1.1-.9 2-2 2z" stroke="#FFF"/><path d="M1320.3 87.7h-20.2c-1.1 0-2-.9-2-2V65.5c0-1.1.9-2 2-2h20.2c1.1 0 2 .9 2 2v20.2c0 1.1-.9 2-2 2zm34.4 0h-20.2c-1.1 0-2-.9-2-2V65.5c0-1.1.9-2 2-2h20.2c1.1 0 2 .9 2 2v20.2c0 1.1-.9 2-2 2zm-68.7 0h-20.2c-1.1 0-2-.9-2-2V65.5c0-1.1.9-2 2-2h20.2c1.1 0 2 .9 2 2v20.2c0 1.1-.9 2-2 2z" fill="#FFF" fill-rule="nonzero" opacity=".06"/><path d="M1341.3 63.7V52.6" stroke="#FFF"/><path d="M1278.4 63.5V52.8" stroke="#FFF" stroke-linecap="square" stroke-linejoin="round"/><path d="M1195.7 154.5l7.9-7.9c.2-.2.6-.2.9 0l7.9 7.9c.2.2.2.6 0 .9l-7.9 7.9c-.2.2-.6.2-.9 0l-7.9-7.9c-.3-.2-.3-.6 0-.9z" fill="#FFDE00" fill-rule="nonzero"/><path d="M1109.4 270.8l7.1-7.1c.2-.2.6-.2.9 0l7.1 7.1c.2.2.2.6 0 .9l-7.1 7.1c-.2.2-.6.2-.9 0l-7.1-7.1c-.2-.3-.2-.6 0-.9z" stroke="#FFDE00"/><path d="M1229.3 141.5l3-3c.6-.6 1.7-.6 2.3 0l3 3c.6.6.6 1.7 0 2.3l-3 3c-.6.6-1.7.6-2.3 0l-3-3c-.7-.7-.7-1.7 0-2.3z" fill="#FFDE00" fill-rule="nonzero" opacity=".25"/><path d="M1379.7 181.3c-.1-7.3-2.9-14.3-8.1-19.4-11-11-30.3-11.5-41.5-.4-2.1 2.1-3.9 4.5-5.2 7.1-.1.2-1.4 3.3-1.4 3.3-2.3-1-4.9-1.6-7.6-1.6-7 0-15 4.5-17.2 11.5 0 .1-.6 1.9-.6 1.9-4.1-.2-8.2 1-11.2 3.8-2.6 2.5-3.7 6.2-3.4 9.8.3 3.9 2.3 7.2 5.2 9.8l2.1 1.8c.4.3 1.6 1.4 2.2 1.4h87.8c4.5-1.4 8.8-4.9 9.7-12.3 1.1-12.3-10.8-16.7-10.8-16.7zm-11.8-13.1c3 3.4 5.2 7.5 6.4 11.9m-16.9-19.7c3.1 1.4 5.9 3.2 8.3 5.5m-67.7 24.9c-.6-1.8-.8-4.2-.2-7.1m5.9 13.2s-2.1-.7-3.8-2.8" stroke="#FFF"/><path d="M1350.9 307.1h-169.1c-3.9 0-7-3.1-7-7V190.5c0-3.9 3.1-7 7-7h169.1c3.9 0 7 3.1 7 7V300c0 3.9-3.1 7.1-7 7.1z" stroke="#FFF" fill="#272727" fill-rule="nonzero"/><path d="M1174.8 291.2h183.1" stroke="#FFF"/><path fill="#FFF" fill-rule="nonzero" opacity=".02" d="M1295.7 190l-53.1 94.9h26.3l53.5-94.9zm42.2 0l-53.1 94.9h11.5l52.4-94.9z"/><path d="M1350.8 285h-168.9c-.6 0-1-.4-1-1v-93c0-.6.4-1 1-1h168.9c.6 0 1 .4 1 1v93c0 .5-.4 1-1 1z" stroke="#FFF"/><circle stroke="#FFF" cx="1266.4" cy="298.5" r="3.1"/><path d="M1288.4 321.9l-1.4-14.6h-41.1l-1.4 14.6c-.2 1.7-.9 3.4-2 4.9l-4.8 6.2c-.3.4 0 .9.6.9h56.6c.5 0 .9-.5.6-.9l-4.8-6.2c-1.4-1.5-2.1-3.2-2.3-4.9z" stroke="#FFF" fill="#272727" fill-rule="nonzero"/><path d="M1243.8 323.4h25.2m5 0h7.4" stroke="#FFF"/><path fill="#FFF" fill-rule="nonzero" opacity=".02" d="M1287.8 317.7H1244l1.3-10.5h40.8z"/><g fill-rule="nonzero" fill="#FFDE00"><path d="M345.9 67.1l12.9 12.8c1.4 1.4 3.7 1.4 5.1 0L376.7 67c1.4-1.4 1.4-3.7 0-5.1l-12.9-12.8c-1.4-1.4-3.7-1.4-5.1 0L345.9 62c-1.4 1.4-1.4 3.7 0 5.1z" opacity=".15"/><path d="M352.8 64.9l8.1 8.1c.2.2.6.2.9 0l8.1-8.1c.2-.2.2-.6 0-.9l-8.1-8.1c-.2-.2-.6-.2-.9 0l-8.1 8.1c-.2.3-.2.7 0 .9z"/><path d="M361.1 65L372 75.8c.6.6 1.7.6 2.3 0l10.8-10.9c.6-.6.6-1.7 0-2.3l-10.9-10.8c-.6-.6-1.7-.6-2.3 0l-10.8 10.9c-.6.6-.6 1.6 0 2.3z" opacity=".25"/></g><path d="M704.3 295.1l8.6-8.6c.2-.2.6-.2.9 0l8.6 8.6c.2.2.2.6 0 .9l-8.6 8.6c-.2.2-.6.2-.9 0l-8.6-8.6c-.3-.2-.3-.6 0-.9z" stroke="#FFDE00"/><path stroke="#FFF" fill="#272727" fill-rule="nonzero" d="M876.814 315.298l54.958 28.913-36.224 68.853-54.958-28.914z"/><path fill="#FFF" fill-rule="nonzero" opacity=".06" d="M876.219 315.71l54.958 28.914-36.223 68.853-54.959-28.914z"/><path stroke="#FFF" fill="#272727" fill-rule="nonzero" d="M814.158 325.538l60.013-15.966 20.002 75.185-60.013 15.966z"/><path stroke="#FFF" fill="#272727" fill-rule="nonzero" d="M904.2 387.1v-63h-62.1v79.3h45.7z"/><path stroke="#FFF" d="M904.2 387.1h-16.5v16.3"/><path fill="#CCC" fill-rule="nonzero" opacity=".43" d="M854 336.1h41.4v2.1H854zm-.2 6h41.4v2.1h-41.4zm6.3 12h35.2v2.1h-35.2zm-5.9 6h41.4v2.1h-41.4zm0 6.1h41.4v2.1h-41.4zm-.7-18.1h17.7v2.1h-17.7zm10 43.4h19.2v2.1h-19.2z"/><g fill-rule="nonzero" fill="#CCC"><path d="M849.47 388.54l7.212 7.212-1.132 1.131-7.212-7.212z"/><path d="M848.295 395.737l7.213-7.212 1.131 1.131-7.212 7.213z"/></g><path d="M449.8 372.4h-36.4c-1.1 0-2-.9-2-2v-78c0-1.1.9-2 2-2h36.4c1.1 0 2 .9 2 2v78c0 1.1-.9 2-2 2z" stroke="#FFF" fill="#272727" fill-rule="nonzero"/><path d="M449.9 372.6h-36.4c-1.1 0-2-.9-2-2v-78c0-1.1.9-2 2-2h36.4c1.1 0 2 .9 2 2v78c0 1.1-.8 2-2 2z" fill="#FFF" fill-rule="nonzero" opacity=".06"/><path d="M462.3 316.4h-26.9c-1.1 0-2-.9-2-2v-9.9c0-1.1.9-2 2-2h26.9c1.1 0 2 .9 2 2v9.9c0 1.1-.9 2-2 2zm0 22.1h-26.9c-1.1 0-2-.9-2-2v-9.9c0-1.1.9-2 2-2h26.9c1.1 0 2 .9 2 2v9.9c0 1.1-.9 2-2 2zm0 22.2h-26.9c-1.1 0-2-.9-2-2v-9.9c0-1.1.9-2 2-2h26.9c1.1 0 2 .9 2 2v9.9c0 1.1-.9 2-2 2z" stroke="#FFF" fill="#272727" fill-rule="nonzero"/><path fill="#CCC" fill-rule="nonzero" opacity=".43" d="M436.7 306.2h18.8v1.8h-18.8zm4.6 4.5h18.8v1.8h-18.8zm-5.4 17.7h9.8v1.8h-9.8zm.1 4h19.8v1.8H436zm-.1 17.3h15.6v1.8h-15.6zm0 3.7h5.2v1.8h-5.2zm7.5 0h18.4v1.8h-18.4z"/></g></svg>