<?xml version="1.0" encoding="UTF-8"?>
<svg width="1440px" height="479px" viewBox="0 0 1440 479" version="1.1" xmlns="http://www.w3.org/2000/svg" xmlns:xlink="http://www.w3.org/1999/xlink"><script xmlns="" type="text/javascript" charset="utf-8" id="zm-extension"/>
    <!-- Generator: sketchtool 50.2 (55047) - http://www.bohemiancoding.com/sketch -->
    <title>2814770E-BFD5-463E-A6D2-EA5C5B116520</title>
    <desc>Created with sketchtool.</desc>
    <defs/>
    <g id="Page-1" stroke="none" stroke-width="1" fill="none" fill-rule="evenodd" fill-opacity="0.804602582">
        <g id="CRM" transform="translate(0.000000, -583.000000)" fill="#0B2E44">
            <g id="1" transform="translate(0.000000, 148.000000)">
                <path d="M1,602 L1,530.381949 C1.14968815,530.381949 126.139293,453.749269 292.293139,509.4277 C292.293139,509.4277 409.798337,550.737504 497.365904,550.737504 C584.933472,550.737504 577.449064,520.204171 626.846154,520.204171 C676.243243,520.204171 696.451143,576.481295 732.376299,576.481295 C768.301455,576.481295 765.307692,566.303517 793,566.303517 C820.692308,566.303517 831.170478,588.455151 853.623701,588.455151 C876.076923,588.455151 879.070686,526.789792 912.75052,526.789792 C946.430353,526.789792 948.75052,583.366262 985.349272,584.862994 C992.83368,585.162341 1000.61746,583.590772 1005.2578,578.501883 C1008.55094,574.909726 1009.59875,570.344694 1010.64657,565.929334 C1014.76299,548.043387 1017.8316,529.932929 1023.96881,512.421164 C1028.5343,499.549269 1035.27027,479.567896 1056.15177,479.343387 C1093.94802,478.894367 1087.88565,529.783256 1128.00208,530.830968 C1170.13929,531.953517 1162.43035,466.995347 1203.37006,467.968223 C1213.92308,468.192733 1221.40748,475.377047 1231.2869,477.322798 C1241.69023,479.418223 1249.6237,475.227374 1255.98545,468.866262 C1266.0894,458.838158 1272.30146,440.578027 1288.91684,436.012994 C1292.73389,434.965282 1297,434.591099 1300.81705,435.563975 C1312.71726,438.632276 1315.56133,449.558419 1317.05821,458.314302 C1320.80042,479.418223 1321.32432,501.120838 1322.82121,522.449269 C1323.27027,528.58587 1323.79418,534.946981 1327.9106,540.185543 C1331.57796,544.825413 1338.23909,548.043387 1345.12474,548.19306 C1355.15385,548.41757 1361.96466,542.280968 1365.18295,535.246328 C1368.85031,527.313648 1366.97921,515.190119 1377.75676,510.475413 C1387.56133,506.13489 1399.98545,510.699923 1409.04158,514.217243 C1415.77755,516.836524 1422.43867,519.455805 1429.17464,522.075086 C1432.09356,523.197635 1435.23701,524.469857 1436.95842,526.714955 C1438.60499,528.885217 1440.07484,532.701883 1440,535.246328 C1439.77547,558.296001 1440.22453,580.297962 1440,603.422472 L1440,914 L0,914 L0,602 L1,602 Z" id="Combined-Shape"/>
            </g>
        </g>
    </g>
</svg>