<?xml version="1.0" encoding="UTF-8"?>
<svg width="1761px" height="472px" viewBox="0 0 1761 472" version="1.1" xmlns="http://www.w3.org/2000/svg" xmlns:xlink="http://www.w3.org/1999/xlink"><script xmlns="" type="text/javascript" charset="utf-8" id="zm-extension"/>
    <!-- Generator: Sketch 50.2 (55047) - http://www.bohemiancoding.com/sketch -->
    <title>Group 26</title>
    <desc>Created with Sketch.</desc>
    <defs/>
    <g id="Page-1" stroke="none" stroke-width="1" fill="none" fill-rule="evenodd">
        <g id="Mobile_1920" transform="translate(-139.000000, -212.000000)">
            <g id="Group-26" transform="translate(139.000000, 211.000000)">
                <g id="Group-24" transform="translate(915.000000, 451.000000)" stroke="#FFFFFF" stroke-linecap="round" stroke-linejoin="round">
                    <path d="M0.1084,4.101 L65.7414,4.101" id="Stroke-1"/>
                    <path d="M79.4033,4.101 L100.0143,4.101" id="Stroke-2"/>
                    <path d="M76.3105,4.101 C76.3105,5.972 74.7945,7.488 72.9245,7.488 C71.0535,7.488 69.5385,5.972 69.5385,4.101 C69.5385,2.231 71.0535,0.715 72.9245,0.715 C74.7945,0.715 76.3105,2.231 76.3105,4.101 Z" id="Stroke-3"/>
                    <path d="M99.9834,17.1215 L34.3504,17.1215" id="Stroke-5"/>
                    <path d="M20.6884,17.1215 L0.0784,17.1215" id="Stroke-7"/>
                    <path d="M23.7812,17.1215 C23.7812,15.2515 25.2972,13.7345 27.1682,13.7345 C29.0382,13.7345 30.5532,15.2515 30.5532,17.1215 C30.5532,18.9915 29.0382,20.5085 27.1682,20.5085 C25.2972,20.5085 23.7812,18.9915 23.7812,17.1215 Z" id="Stroke-9"/>
                </g>
                <g id="Group-13" transform="translate(557.000000, 243.000000)" stroke="#FFFFFF" stroke-linecap="round" stroke-linejoin="round">
                    <path d="M75.2685,52.0012 C75.2685,61.8972 67.2475,69.9182 57.3515,69.9182 C47.4565,69.9182 39.4345,61.8972 39.4345,52.0012 C39.4345,42.1052 47.4565,34.0842 57.3515,34.0842 C67.2475,34.0842 75.2685,42.1052 75.2685,52.0012 Z" id="Stroke-11"/>
                    <path d="M64.4863,53.0549 C63.9763,56.5379 60.9763,59.2119 57.3513,59.2119 C53.3693,59.2119 50.1403,55.9839 50.1403,52.0009 C50.1403,48.0189 53.3693,44.7899 57.3513,44.7899 C58.4533,44.7899 59.4963,45.0369 60.4293,45.4789" id="Stroke-13"/>
                    <path d="M62.7881,47.2629 C63.4811,48.0589 64.0041,49.0079 64.2971,50.0529" id="Stroke-15"/>
                    <polygon id="Stroke-17" points="53.842 34.359 60.86 34.359 60.86 0.964 53.842 0.964"/>
                    <polygon id="Stroke-19" points="16.6133 151.2824 8.7663 148.2204 42.2753 62.3304 48.7793 68.8344"/>
                    <polygon id="Stroke-20" stroke-width="0.75" points="15.3486 154.5266 7.5006 151.4636 8.7666 148.2206 16.6136 151.2826"/>
                    <polygon id="Stroke-21" stroke-width="0.75" points="16.2207 158.6037 4.0967 153.8747 5.3627 150.6297 17.4867 155.3607"/>
                    <polygon id="Stroke-22" stroke-width="0.75" points="0.375 181.3176 13.302 158.0066 6.649 155.4116"/>
                    <path d="M18.3545,123.6447 L9.2115,120.0777" id="Stroke-23"/>
                    <path d="M5.7793,128.8762 L12.6443,111.2792" id="Stroke-24"/>
                    <polyline id="Stroke-25" points="62.4091 158.5988 62.4091 69.6438 70.8331 64.6238 70.8331 158.5988"/>
                    <path d="M72.8652,162.7658 C72.8652,166.2138 70.0692,169.0098 66.6212,169.0098 C63.1732,169.0098 60.3772,166.2138 60.3772,162.7658 C60.3772,159.3178 63.1732,156.5218 66.6212,156.5218 C70.0692,156.5218 72.8652,159.3178 72.8652,162.7658 Z" id="Stroke-26"/>
                    <path d="M66.6211,169.0099 L66.6211,198.3249" id="Stroke-27"/>
                    <path d="M20.9492,84.1711 L33.4202,84.1711" id="Stroke-28"/>
                    <path d="M70.8662,84.1711 L83.3372,84.1711" id="Stroke-29"/>
                    <path d="M42.7451,84.1711 L62.4091,84.1711" id="Stroke-30"/>
                    <path d="M52.5771,79.1828 L52.5771,89.1598" id="Stroke-31"/>
                    <path d="M83.3369,81.5236 L83.3369,87.0216" id="Stroke-32"/>
                    <path d="M20.9492,81.4221 L20.9492,86.9191" id="Stroke-33"/>
                    <path d="M53.8427,7.0441 L57.3517,7.0441" id="Stroke-34"/>
                    <path d="M53.8427,13.758 L60.8607,13.758" id="Stroke-35"/>
                </g>
                <g id="Group-18" transform="translate(1018.000000, 179.000000)" stroke="#FFFFFF" stroke-linecap="round" stroke-linejoin="round">
                    <path d="M9.6152,0.9808 L0.7022,9.8938" id="Stroke-36"/>
                    <path d="M9.6152,9.8939 L0.7022,0.9809" id="Stroke-37"/>
                </g>
                <path d="M1183,139.5 C1183,141.984669 1180.98548,144 1178.49948,144 C1176.01452,144 1174,141.984669 1174,139.5 C1174,137.015331 1176.01452,135 1178.49948,135 C1180.98548,135 1183,137.015331 1183,139.5 Z" id="Stroke-40" stroke="#FFFFFF"/>
                <path d="M1354,433.5 C1354,435.984669 1351.98548,438 1349.49948,438 C1347.01452,438 1345,435.984669 1345,433.5 C1345,431.015331 1347.01452,429 1349.49948,429 C1351.98548,429 1354,431.015331 1354,433.5 Z" id="Stroke-40-Copy-2" stroke="#FFFFFF"/>
                <path d="M466,418.5 C466,420.984669 463.98548,423 461.499477,423 C459.01452,423 457,420.984669 457,418.5 C457,416.015331 459.01452,414 461.499477,414 C463.98548,414 466,416.015331 466,418.5 Z" id="Stroke-40-Copy" stroke="#FFFFFF"/>
                <path d="M654,194.5 C654,196.984669 651.984435,199 649.499477,199 C647.013474,199 645,196.984669 645,194.5 C645,192.014286 647.013474,190 649.499477,190 C651.984435,190 654,192.014286 654,194.5 Z" id="Stroke-41" stroke="#FFFFFF"/>
                <g id="Group-27" transform="translate(677.000000, 199.000000)" stroke="#FFFFFF" stroke-linecap="round" stroke-linejoin="round">
                    <path d="M66.8122234,13 L3.18678357,13 C1.42605834,13 0,14.4511965 0,16.2407025 L0,37.1179363 C0,38.9074424 1.42605834,40.3586389 3.18678357,40.3586389 L28.0534275,40.3586389 L35,59 L41.9465725,40.3586389 L66.8122234,40.3586389 C68.5719555,40.3586389 70,38.9074424 70,37.1179363 L70,16.2407025 C70,14.4511965 68.5719555,13 66.8122234,13 Z" id="Stroke-42"/>
                    <path d="M73.4696686,41.8947507 L75,46 L81.9465725,27.3582296 L106.812223,27.3582296 C108.572949,27.3582296 110,25.9080112 110,24.1174559 L110,3.24077367 C110,1.45021845 108.572949,0 106.812223,0 L43.1867836,0 C41.4260583,0 40,1.45021845 40,3.24077367 L40,8.37612242" id="Stroke-43"/>
                    <path d="M6,22 L32,22" id="Stroke-44"/>
                    <path d="M6,28 L48,28" id="Stroke-45"/>
                    <path d="M38,22 L47,22" id="Stroke-46"/>
                    <path d="M53,22 L66,22" id="Stroke-47"/>
                    <path d="M53,28 L66,28" id="Stroke-48"/>
                </g>
                <g id="Group-17" transform="translate(1031.000000, 221.000000)" stroke="#FFFFFF" stroke-linecap="round" stroke-linejoin="round">
                    <polyline id="Stroke-49" points="16 16 8 22.5 16 29"/>
                    <polyline id="Stroke-50" points="31 16 39 22.5 31 29"/>
                    <path d="M27,11 L20,35" id="Stroke-51"/>
                    <path d="M44,34.2955755 C39.9651921,41.2833139 32.3028706,46 23.5132437,46 C10.5286368,46 0,35.7011807 0,23 C0,10.2973271 10.5286368,0 23.5132437,0 C29.4853696,0 34.937318,2.17704684 39.0834836,5.76417542" id="Stroke-52"/>
                    <path d="M43,10 C44.9011704,13.548808 46,17.7375157 46,22.2198243 C46,24.2148055 45.7828349,26.1540778 45.373212,28" id="Stroke-53"/>
                </g>
                <g id="Group-21" transform="translate(1097.000000, 379.000000)" stroke="#FFFFFF" stroke-linecap="round" stroke-linejoin="round">
                    <path d="M88.9983607,36.0162276 L88.9983607,27.9821291 L82.4380411,27.9821291 C81.7921725,23.9774046 80.2348753,20.1731628 77.8874545,16.8701279 L82.5724604,12.1834335 L76.8153783,6.42530684 L72.1287332,11.1120012 C68.915783,8.83602937 65.1667947,7.09413033 61.017827,6.56005752 L61.017827,0 L52.9838123,0 L52.9838123,6.56005752 C48.9807387,7.2042315 45.1792941,8.76208083 41.8712668,11.1120012 L37.1862609,6.42530684 L31.4275396,12.1834335 L36.1141847,16.8701279 C33.8388915,20.0844246 32.097997,23.8327941 31.5619589,27.9821291 L25,27.9821291 L25,36.0162276 L31.5619589,36.0162276 C32.2061882,40.0225954 33.7651247,43.8251939 36.1141847,47.1315154 L31.4275396,51.8165665 L37.1862609,57.5746932 L41.8712668,52.8879988 C45.084217,55.1639706 48.8332053,56.9042264 52.9838123,57.4399425 L52.9838123,64 L61.017827,64 L61.017827,57.4399425 C65.0209006,56.7957685 68.8223452,55.2379192 72.1287332,52.8879988 L76.8153783,57.5746932 L82.5724604,51.8165665 L77.8874545,47.1315154 C80.1627478,43.9172187 81.9036422,40.1672059 82.4380411,36.0162276 L89,36.0162276 L88.9983607,36.0162276 Z" id="Stroke-54"/>
                    <path d="M57.5,19 C64.9561765,19 71,25.0437477 71,32.5 C71,39.9546117 64.9561765,46 57.5,46 C50.0438235,46 44,39.9546117 44,32.5 C44,25.0437477 50.0438235,19 57.5,19 Z" id="Stroke-55"/>
                    <path d="M30,7.51320132 C27.8293629,6.97524752 25.5224377,6.84158416 23.2138504,6.97524752 L21.9922438,2 L15.8825485,3.61386139 L17.1041551,8.58745875 C14.1174515,9.93234323 11.5396122,11.8135314 9.6398892,14.2343234 L5.15734072,11.679868 L1.90138504,17.0577558 L6.38060942,19.6138614 C5.29529086,22.4372937 4.75180055,25.6633663 5.02437673,28.8910891 L0,30.1006601 L1.63047091,36.150165 L6.65152355,34.9405941 C8.01108033,37.8993399 9.90914127,40.4537954 12.3523546,42.3366337 L9.77451524,46.7739274 L15.2044321,50 L17.7822715,45.5643564 C19.6836565,46.369637 21.8576177,46.7739274 24.0265928,46.9075908" id="Stroke-56"/>
                    <path d="M19.1862299,34 C17.7682962,32.8306818 16.7384114,31.2284091 16.2439357,29.4181818 C15.1747548,24.9727273 17.7159015,20.5289773 21.9942624,19.2778409 C22.6639332,19.1397727 23.3319666,19 24,19" id="Stroke-57"/>
                </g>
                <g id="Group-20" transform="translate(528.000000, 215.000000)" stroke="#FFFFFF" stroke-linecap="round" stroke-linejoin="round">
                    <path d="M6,3 L8,3" id="Stroke-74" stroke-width="0.75"/>
                    <path d="M47,3 L49,3" id="Stroke-76" stroke-width="0.75"/>
                    <path d="M3,48 L3,46" id="Stroke-77" stroke-width="0.75"/>
                    <path d="M3,8 L3,6" id="Stroke-79" stroke-width="0.75"/>
                    <path d="M49,52 L47,52" id="Stroke-80" stroke-width="0.75"/>
                    <path d="M8,52 L6,52" id="Stroke-82" stroke-width="0.75"/>
                    <path d="M52,6 L52,8" id="Stroke-83" stroke-width="0.75"/>
                    <path d="M52,46 L52,48" id="Stroke-85" stroke-width="0.75"/>
                    <g id="Group-19">
                        <path d="M37.1297763,40.5198026 L18.5774079,40.5198026 C16.4845132,40.5198026 14.7896447,38.8249342 14.7896447,36.7349342 L14.7896447,18.1811184 C14.7896447,16.0896711 16.4845132,14.3948026 18.5774079,14.3948026 L37.1297763,14.3948026 C39.2197763,14.3948026 40.9146447,16.0896711 40.9146447,18.1811184 L40.9146447,36.7349342 C40.9146447,38.8249342 39.2197763,40.5198026 37.1297763,40.5198026 Z" id="Stroke-73"/>
                        <path d="M12.7238158,2.92643421 L44.5109211,2.92643421" id="Stroke-75" stroke-width="0.75" stroke-dasharray="2.928,2.928"/>
                        <path d="M3.32156579,42.2343553 L3.32156579,10.2721184" id="Stroke-78" stroke-width="0.75" stroke-dasharray="2.944,2.944"/>
                        <path d="M42.3906711,51.9884605 L10.6035658,51.9884605" id="Stroke-81" stroke-width="0.75" stroke-dasharray="2.928,2.928"/>
                        <path d="M52.3837368,12.4035132 L52.3837368,44.36575" id="Stroke-84" stroke-width="0.75" stroke-dasharray="2.944,2.944"/>
                        <polygon id="Stroke-86" points="49.5969737 5.48697368 54.5426316 5.48697368 54.5426316 0.542763158 49.5969737 0.542763158"/>
                        <polygon id="Stroke-87" points="0.849605263 5.40013158 5.79526316 5.40013158 5.79526316 0.454473684 0.849605263 0.454473684"/>
                        <polygon id="Stroke-88" points="49.5969737 54.0953947 54.5426316 54.0953947 54.5426316 49.1497368 49.5969737 49.1497368"/>
                        <polygon id="Stroke-89" points="0.849605263 54.0953947 5.79526316 54.0953947 5.79526316 49.1497368 0.849605263 49.1497368"/>
                    </g>
                </g>
                <g id="Group-16" transform="translate(770.000000, 424.000000) rotate(90.000000) translate(-770.000000, -424.000000) translate(752.000000, 299.000000)" stroke="#FFFFFF" stroke-linecap="round" stroke-linejoin="round">
                    <polygon id="Stroke-90" points="35.3672 17.6693 35.3672 0.1953 0.4892 0.1953 0.4892 249.3213 35.3672 249.3213 35.3672 244.0363"/>
                    <path d="M0.4892,9.0326 L15.3262,9.0326" id="Stroke-91"/>
                    <path d="M0.4892,15.8441 L7.9932,15.8441" id="Stroke-92"/>
                    <path d="M0.4892,22.6566 L7.9932,22.6566" id="Stroke-93"/>
                    <path d="M0.4892,29.4681 L7.9932,29.4681" id="Stroke-94"/>
                    <path d="M0.4892,43.0922 L10.8682,43.0922" id="Stroke-95"/>
                    <path d="M0.4892,36.2806 L7.9082,36.2806" id="Stroke-96"/>
                    <path d="M0.4892,83.9642 L7.9932,83.9642" id="Stroke-97"/>
                    <path d="M0.4892,90.7767 L7.9932,90.7767" id="Stroke-98"/>
                    <path d="M0.4892,97.5883 L7.9932,97.5883" id="Stroke-99"/>
                    <path d="M0.4892,111.2133 L10.8682,111.2133" id="Stroke-100"/>
                    <path d="M0.4892,104.4008 L7.9082,104.4008" id="Stroke-101"/>
                    <path d="M0.4892,138.4613 L7.9932,138.4613" id="Stroke-102"/>
                    <path d="M0.4892,131.6488 L7.9932,131.6488" id="Stroke-103"/>
                    <path d="M0.4892,124.8373 L7.9932,124.8373" id="Stroke-104"/>
                    <path d="M0.4892,118.0248 L7.9082,118.0248" id="Stroke-105"/>
                    <path d="M0.4892,77.1527 L15.3262,77.1527" id="Stroke-106"/>
                    <path d="M0.4892,152.0853 L7.9932,152.0853" id="Stroke-107"/>
                    <path d="M0.4892,158.8969 L7.9932,158.8969" id="Stroke-108"/>
                    <path d="M0.4892,165.7094 L7.9932,165.7094" id="Stroke-109"/>
                    <path d="M0.4892,179.3334 L10.8682,179.3334" id="Stroke-110"/>
                    <path d="M0.4892,172.5209 L7.9082,172.5209" id="Stroke-111"/>
                    <path d="M0.4892,206.5814 L7.9932,206.5814" id="Stroke-112"/>
                    <path d="M0.4892,199.7689 L7.9932,199.7689" id="Stroke-113"/>
                    <path d="M0.4892,192.9574 L7.9932,192.9574" id="Stroke-114"/>
                    <path d="M0.4892,186.1449 L7.9082,186.1449" id="Stroke-115"/>
                    <path d="M0.4892,145.2728 L15.3262,145.2728" id="Stroke-116"/>
                    <path d="M0.4892,220.2054 L7.9932,220.2054" id="Stroke-117"/>
                    <path d="M0.4892,227.017 L7.9932,227.017" id="Stroke-118"/>
                    <path d="M0.4892,233.8295 L7.9932,233.8295" id="Stroke-119"/>
                    <path d="M0.4892,240.641 L7.9082,240.641" id="Stroke-120"/>
                    <path d="M0.4892,213.3929 L15.3262,213.3929" id="Stroke-121"/>
                    <path d="M0.4892,70.3402 L7.9932,70.3402" id="Stroke-122"/>
                    <path d="M0.4892,63.5287 L7.9932,63.5287" id="Stroke-123"/>
                    <path d="M0.4892,56.7162 L7.9932,56.7162" id="Stroke-124"/>
                    <path d="M0.4892,49.9047 L7.9082,49.9047" id="Stroke-125"/>
                </g>
                <g id="Group-22" transform="translate(1032.000000, 286.000000)" stroke="#FFFFFF" stroke-linecap="round" stroke-linejoin="round">
                    <path d="M16,46.008 L16.95,109.398 C19.34,108.634 21.52,108.1 23.718,108.005" id="Stroke-141"/>
                    <path d="M34.604,110.277 L33.616,46.008 C30.595,47.461 27.307,47.822 24,47.745" id="Stroke-142"/>
                    <path d="M23.2313514,108.008 C17.0753514,108.274 11.4543514,110.719 6.80535139,115.323 C-2.47164861,124.975 -2.25264861,140.382 7.39335139,149.656 C10.8323514,152.812 14.4433514,154.859 18.6683514,155.778 L18.3953514,133.986 L25.0503514,129.954 L31.6043514,133.856 L32.0863514,155.419 C35.7773514,154.158 39.2193514,152.248 42.1653514,149.037 C51.4433514,139.387 51.2243514,123.98 41.5773514,114.705 C39.5143514,112.812 37.2403514,111.148 34.7753514,110.153" id="Stroke-143"/>
                    <path d="M24.7703514,47.762 C31.1553514,47.707 37.6563514,45.224 42.5153514,40.389 C51.7923514,30.739 51.5743514,15.331 41.9263514,6.056 C38.9473514,3.322 35.3353514,1.275 31.7613514,0.108 L32.2443514,21.671 L25.5883514,25.702 L19.0353514,21.8 L18.7633514,0.008 C14.8433514,1.058 10.9803514,3.427 7.80535139,6.427 C-1.47164861,16.077 -1.25264861,31.486 8.39335139,40.76 C10.6853514,42.864 13.3993514,44.508 16.3233514,45.924" id="Stroke-144"/>
                </g>
                <g id="Group-15" transform="translate(906.000000, 212.000000)">
                    <path d="M84.041,181.029 C84.041,181.593 83.584,182.05 83.02,182.05 C82.457,182.05 82,181.593 82,181.029 C82,180.466 82.457,180.008 83.02,180.008 C83.584,180.008 84.041,180.466 84.041,181.029 Z" id="Stroke-138" stroke="#FFFFFF" stroke-width="0.5"/>
                    <path d="M59,177.007416 C59,178.66428 57.6574489,180.008 56.0005842,180.008 C54.3437196,180.008 53,178.66428 53,177.007416 C53,175.350551 54.3437196,174.008 56.0005842,174.008 C57.6574489,174.008 59,175.350551 59,177.007416 Z" id="Stroke-140" stroke="#FFFFFF" stroke-width="0.75" stroke-linecap="round" stroke-linejoin="round"/>
                    <g id="Group-14" transform="translate(0.000000, 0.008000)">
                        <path d="M34.292,54.5197 L18.82,54.5197 C17.077,54.5197 15.663,53.1067 15.663,51.3627 L15.663,35.8907 C15.663,34.1467 17.077,32.7337 18.82,32.7337 L34.292,32.7337 C36.036,32.7337 37.45,34.1467 37.45,35.8907 L37.45,51.3627 C37.45,53.1067 36.036,54.5197 34.292,54.5197 Z" id="Stroke-58" stroke="#FFFFFF" stroke-width="0.75" stroke-dasharray="2.918,2.918"/>
                        <path d="M64.4863,54.5197 L49.0143,54.5197 C47.2703,54.5197 45.8563,53.1067 45.8563,51.3627 L45.8563,35.8907 C45.8563,34.1467 47.2703,32.7337 49.0143,32.7337 L64.4863,32.7337 C66.2303,32.7337 67.6433,34.1467 67.6433,35.8907 L67.6433,51.3627 C67.6433,53.1067 66.2303,54.5197 64.4863,54.5197 Z" id="Stroke-59" stroke="#FFFFFF" stroke-width="0.75" stroke-dasharray="2.918,2.918"/>
                        <path d="M94.6797,54.5197 L79.2077,54.5197 C77.4637,54.5197 76.0507,53.1067 76.0507,51.3627 L76.0507,35.8907 C76.0507,34.1467 77.4637,32.7337 79.2077,32.7337 L94.6797,32.7337 C96.4237,32.7337 97.8377,34.1467 97.8377,35.8907 L97.8377,51.3627 C97.8377,53.1067 96.4237,54.5197 94.6797,54.5197 Z" id="Stroke-60" stroke="#FFFFFF" stroke-width="0.75"/>
                        <path d="M34.2929,88.9465 L18.8199,88.9465 C17.0769,88.9465 15.6629,87.5325 15.6629,85.7885 L15.6629,70.3165 C15.6629,68.5725 17.0769,67.1595 18.8199,67.1595 L34.2929,67.1595 C36.0359,67.1595 37.4499,68.5725 37.4499,70.3165 L37.4499,85.7885 C37.4499,87.5325 36.0359,88.9465 34.2929,88.9465 Z" id="Stroke-61" stroke="#FFFFFF" stroke-width="0.75"/>
                        <path d="M64.4863,88.9465 L49.0143,88.9465 C47.2703,88.9465 45.8563,87.5325 45.8563,85.7885 L45.8563,70.3165 C45.8563,68.5725 47.2703,67.1595 49.0143,67.1595 L64.4863,67.1595 C66.2303,67.1595 67.6433,68.5725 67.6433,70.3165 L67.6433,85.7885 C67.6433,87.5325 66.2303,88.9465 64.4863,88.9465 Z" id="Stroke-62" stroke="#FFFFFF" stroke-width="0.75" stroke-dasharray="2.918,2.918"/>
                        <path d="M94.6797,88.9465 L79.2077,88.9465 C77.4637,88.9465 76.0507,87.5325 76.0507,85.7885 L76.0507,70.3165 C76.0507,68.5725 77.4637,67.1595 79.2077,67.1595 L94.6797,67.1595 C96.4237,67.1595 97.8367,68.5725 97.8367,70.3165 L97.8367,85.7885 C97.8367,87.5325 96.4237,88.9465 94.6797,88.9465 Z" id="Stroke-63" stroke="#FFFFFF" stroke-width="0.75" stroke-dasharray="2.918,2.918"/>
                        <path d="M34.292,123.3723 L18.82,123.3723 C17.077,123.3723 15.663,121.9583 15.663,120.2153 L15.663,104.7423 C15.663,102.9993 17.077,101.5853 18.82,101.5853 L34.292,101.5853 C36.036,101.5853 37.45,102.9993 37.45,104.7423 L37.45,120.2153 C37.45,121.9583 36.036,123.3723 34.292,123.3723 Z" id="Stroke-64" stroke="#FFFFFF" stroke-width="0.75" stroke-dasharray="2.918,2.918"/>
                        <path d="M64.4863,123.3723 L49.0143,123.3723 C47.2703,123.3723 45.8563,121.9583 45.8563,120.2153 L45.8563,104.7423 C45.8563,102.9993 47.2703,101.5853 49.0143,101.5853 L64.4863,101.5853 C66.2303,101.5853 67.6433,102.9993 67.6433,104.7423 L67.6433,120.2153 C67.6433,121.9583 66.2303,123.3723 64.4863,123.3723 Z" id="Stroke-65" stroke="#FFFFFF" stroke-width="0.75" stroke-dasharray="2.918,2.918"/>
                        <path d="M94.6797,123.3723 L79.2077,123.3723 C77.4637,123.3723 76.0507,121.9583 76.0507,120.2153 L76.0507,104.7423 C76.0507,102.9993 77.4637,101.5853 79.2077,101.5853 L94.6797,101.5853 C96.4237,101.5853 97.8367,102.9993 97.8367,104.7423 L97.8367,120.2153 C97.8367,121.9583 96.4237,123.3723 94.6797,123.3723 Z" id="Stroke-66" stroke="#FFFFFF" stroke-width="0.75" stroke-dasharray="2.918,2.918"/>
                        <path d="M34.2929,157.798 L18.8199,157.798 C17.0769,157.798 15.6629,156.385 15.6629,154.641 L15.6629,139.169 C15.6629,137.425 17.0769,136.011 18.8199,136.011 L34.2929,136.011 C36.0359,136.011 37.4499,137.425 37.4499,139.169 L37.4499,154.641 C37.4499,156.385 36.0359,157.798 34.2929,157.798 Z" id="Stroke-67" stroke="#FFFFFF" stroke-width="0.75"/>
                        <path d="M64.4863,157.798 L49.0143,157.798 C47.2703,157.798 45.8563,156.385 45.8563,154.641 L45.8563,139.169 C45.8563,137.425 47.2703,136.011 49.0143,136.011 L64.4863,136.011 C66.2303,136.011 67.6433,137.425 67.6433,139.169 L67.6433,154.641 C67.6433,156.385 66.2303,157.798 64.4863,157.798 Z" id="Stroke-68" stroke="#FFFFFF" stroke-width="0.75" stroke-dasharray="2.918,2.918"/>
                        <path d="M94.6797,157.798 L79.2077,157.798 C77.4637,157.798 76.0507,156.385 76.0507,154.641 L76.0507,139.169 C76.0507,137.425 77.4637,136.011 79.2077,136.011 L94.6797,136.011 C96.4237,136.011 97.8367,137.425 97.8367,139.169 L97.8367,154.641 C97.8367,156.385 96.4237,157.798 94.6797,157.798 Z" id="Stroke-69" stroke="#FFFFFF" stroke-width="0.75" stroke-dasharray="2.918,2.918"/>
                        <path d="M34.0195,190.9328 L18.5475,190.9328 C16.8035,190.9328 15.3905,189.5198 15.3905,187.7758 L15.3905,172.3038 C15.3905,170.5598 16.8035,169.1458 18.5475,169.1458 L34.0195,169.1458 C35.7635,169.1458 37.1775,170.5598 37.1775,172.3038 L37.1775,187.7758 C37.1775,189.5198 35.7635,190.9328 34.0195,190.9328 Z" id="Stroke-70" stroke="#FFFFFF" stroke-width="0.75" stroke-dasharray="2.918,2.918"/>
                        <path d="M64.2138,190.9328 L48.7418,190.9328 C46.9978,190.9328 45.5838,189.5198 45.5838,187.7758 L45.5838,172.3038 C45.5838,170.5598 46.9978,169.1458 48.7418,169.1458 L64.2138,169.1458 C65.9568,169.1458 67.3708,170.5598 67.3708,172.3038 L67.3708,187.7758 C67.3708,189.5198 65.9568,190.9328 64.2138,190.9328 Z" id="Stroke-71" stroke="#FFFFFF" stroke-width="0.75"/>
                        <path d="M94.4072,190.9328 L78.9352,190.9328 C77.1912,190.9328 75.7782,189.5198 75.7782,187.7758 L75.7782,172.3038 C75.7782,170.5598 77.1912,169.1458 78.9352,169.1458 L94.4072,169.1458 C96.1512,169.1458 97.5642,170.5598 97.5642,172.3038 L97.5642,187.7758 C97.5642,189.5198 96.1512,190.9328 94.4072,190.9328 Z" id="Stroke-72" stroke="#FFFFFF" stroke-width="0.75"/>
                        <path d="M94.1425,43.6262 C94.1425,47.6032 90.9195,50.8252 86.9445,50.8252 C82.9685,50.8252 79.7455,47.6032 79.7455,43.6262 C79.7455,39.6502 82.9685,36.4282 86.9445,36.4282 C90.9195,36.4282 94.1425,39.6502 94.1425,43.6262 Z" id="Stroke-126" stroke="#FFFFFF" stroke-width="0.5"/>
                        <path d="M90.0088,43.6262 C90.0088,47.6032 88.6368,50.8252 86.9448,50.8252 C85.2508,50.8252 83.8788,47.6032 83.8788,43.6262 C83.8788,39.6502 85.2508,36.4282 86.9448,36.4282 C88.6368,36.4282 90.0088,39.6502 90.0088,43.6262 Z" id="Stroke-127" stroke="#FFFFFF" stroke-width="0.5"/>
                        <path d="M92.3242,48.4055 C91.0062,47.7745 89.0842,47.3775 86.9442,47.3775 C84.8042,47.3775 82.8832,47.7745 81.5632,48.4055" id="Stroke-128" stroke="#FFFFFF" stroke-width="0.5"/>
                        <path d="M81.5644,38.8488 C82.8834,39.4788 84.8044,39.8758 86.9444,39.8758 C89.0834,39.8758 91.0034,39.4798 92.3234,38.8488" id="Stroke-129" stroke="#FFFFFF" stroke-width="0.5"/>
                        <path d="M94.1425,43.6262 L79.7455,43.6262" id="Stroke-130" stroke="#FFFFFF" stroke-width="0.5"/>
                        <polygon id="Stroke-131" stroke="#FFFFFF" stroke-width="0.75" stroke-linecap="round" stroke-linejoin="round" points="18.605 151.303 33.964 151.303 33.964 141.572 18.605 141.572"/>
                        <polyline id="Stroke-132" stroke="#FFFFFF" stroke-width="0.75" stroke-linecap="round" stroke-linejoin="round" points="33.9638 141.5715 26.5568 147.9275 18.6048 141.5715"/>
                        <path d="M18.6045,151.3029 L21.9525,146.7819" id="Stroke-133" stroke="#FFFFFF" stroke-width="0.75" stroke-linecap="round" stroke-linejoin="round"/>
                        <path d="M33.9638,151.3029 L30.6148,146.7819" id="Stroke-134" stroke="#FFFFFF" stroke-width="0.75" stroke-linecap="round" stroke-linejoin="round"/>
                        <path d="M26.2324,83.8752 C26.2324,83.8752 20.1394,80.5942 19.3284,77.3852 C18.8844,75.6322 19.3284,73.2302 21.7354,73.2302 C24.7114,73.2302 26.2324,76.4252 26.2324,76.4252 C26.2324,76.4252 27.7534,73.2302 30.7294,73.2302 C33.1364,73.2302 33.5804,75.6322 33.1364,77.3852 C32.3254,80.5942 26.2324,83.8752 26.2324,83.8752 Z" id="Stroke-135" stroke="#FFFFFF" stroke-width="0.75" stroke-linecap="round" stroke-linejoin="round"/>
                        <polygon id="Stroke-136" stroke="#FFFFFF" stroke-width="0.75" stroke-linecap="round" stroke-linejoin="round" points="79.859 185.533 93.484 185.533 93.484 175.783 79.859 175.783"/>
                        <polyline id="Stroke-137" stroke="#FFFFFF" stroke-width="0.75" points="85.7998 175.7834 89.5948 171.9884 93.4848 175.8784"/>
                        <path d="M61.3427,177.0314 C61.3427,174.0674 58.9397,171.6644 55.9747,171.6644 C53.0097,171.6644 50.6067,174.0674 50.6067,177.0314 C50.6067,178.7924 51.3677,180.1094 52.1937,181.5204 C53.1557,183.1684 55.9747,188.4154 55.9747,188.4154 C55.9747,188.4154 58.7037,183.2184 59.6937,181.5204 C60.5157,180.1074 61.3427,178.7924 61.3427,177.0314 Z" id="Stroke-139" stroke="#FFFFFF" stroke-width="0.75" stroke-linecap="round" stroke-linejoin="round"/>
                        <path d="M95.5976,4.9543 L84.1166,4.9543 L84.1166,6.0803 C84.1166,10.2413 80.7386,13.5023 76.6866,13.5023 L34.8116,13.5023 C30.7146,13.5093 27.3886,10.1923 27.3826,6.0953 L27.3826,6.0803 L27.3826,4.9543 L16.4636,4.9543 C10.7616,4.9373 6.1246,9.5463 6.1086,15.2483 L6.1086,15.3023 L6.1086,212.7933 C6.0956,218.4953 10.7076,223.1283 16.4096,223.1413 L16.4636,223.1413 L95.5976,223.1413 C101.3386,223.1413 105.9526,218.5303 105.9526,212.7933 L105.9526,15.1893 C105.8406,9.5663 101.2256,4.9543 95.5976,4.9543 Z" id="Stroke-145" stroke="#FFFFFF" stroke-width="0.75"/>
                        <path d="M43.8183,5.6301 L58.5633,5.6301 C58.8993,5.6301 59.2393,5.9661 59.2393,6.3041 L59.2393,6.7541 C59.2393,7.0921 58.9013,7.4291 58.5633,7.4291 L43.8183,7.4291 C43.4803,7.4291 43.1423,7.0921 43.1423,6.7541 L43.1423,6.3061 C43.1423,5.8551 43.4783,5.6301 43.8183,5.6301 Z M65.3163,5.4041 L65.8803,5.4041 C66.3313,5.4041 66.6693,5.7401 66.6693,6.1921 L66.6693,6.7541 C66.6783,7.1791 66.3423,7.5311 65.9183,7.5411 C65.9053,7.5421 65.8923,7.5421 65.8803,7.5411 L65.3173,7.5411 C64.8923,7.5521 64.5403,7.2171 64.5293,6.7921 C64.5283,6.7791 64.5283,6.7671 64.5283,6.7541 L64.5283,6.1921 C64.5193,5.7671 64.8563,5.4141 65.2823,5.4041 L65.3173,5.4041 L65.3163,5.4041 Z" id="Fill-146" fill="#FFFFFF"/>
                        <path d="M96.3857,228.3137 L15.5647,228.3137 C7.2097,228.3527 0.4067,221.6117 0.3667,213.2567 L0.3667,213.1307 L0.3667,15.6397 C0.3667,7.2037 7.1207,0.4567 15.5647,0.4567 L96.3857,0.4567 C104.7397,0.4177 111.5427,7.1587 111.5817,15.5127 L111.5817,15.6397 L111.5817,213.1307 C111.5817,221.5667 104.7157,228.3137 96.3857,228.3137 Z" id="Stroke-147" stroke="#FFFFFF" stroke-width="0.75"/>
                        <path d="M9.7861,220.1037 C11.6981,221.9037 14.1761,223.1407 16.9881,223.1407 L35.1121,223.1407 L106.4791,91.7797 L106.4791,42.0687 L9.7861,220.1037 Z" id="Fill-148" fill="#FFFFFF" opacity="0.15"/>
                        <polygon id="Fill-149" fill="#FFFFFF" opacity="0.15" points="45.0195 223.0285 65.8425 223.0285 106.4795 150.2625 106.4795 111.5735"/>
                    </g>
                </g>
                <g id="Group-29" transform="translate(681.000000, 274.000000)" stroke="#FFFFFF" stroke-linecap="round" stroke-linejoin="round">
                    <g id="Group-23" transform="translate(173.000000, 1.000000)">
                        <path d="M14.23965,0.1094 L0.87015,13.4789" id="Stroke-38"/>
                        <path d="M14.23965,13.47905 L0.87015,0.10955" id="Stroke-39"/>
                    </g>
                    <g id="Group-25" transform="translate(48.000000, 29.000000)">
                        <path d="M66.9982839,37.7044883 L66.9982839,29.2937914 L60.1304493,29.2937914 C59.4543056,25.1013455 57.82401,21.1187798 55.366554,17.6609151 L60.2711695,12.7545319 L54.2442242,6.72649309 L49.3378925,11.6328763 C45.9743353,9.25021825 42.0496132,7.42666769 37.7061626,6.86756021 L37.7061626,0 L29.2955535,0 L29.2955535,6.86756021 C25.1048358,7.54192985 21.1251985,9.17280337 17.6621075,11.6328763 L12.7574919,6.72649309 L6.72883049,12.7545319 L11.6351621,17.6609151 C9.25321449,21.025882 7.43071564,24.9499563 6.86955074,29.2937914 L0,29.2937914 L0,37.7044883 L6.86955074,37.7044883 C7.54397828,41.8986545 9.17598996,45.8794998 11.6351621,49.3408052 L6.72883049,54.2454681 L12.7574919,60.2735069 L17.6621075,55.3671237 C21.0256647,57.7497817 24.9503868,59.571612 29.2955535,60.1324398 L29.2955535,67 L37.7061626,67 L37.7061626,60.1324398 C41.8968803,59.4580701 45.8765176,57.8271966 49.3378925,55.3671237 L54.2442242,60.2735069 L60.2711695,54.2454681 L55.366554,49.3408052 C57.7485016,45.9758383 59.5710005,42.0500437 60.1304493,37.7044883 L67,37.7044883 L66.9982839,37.7044883 Z" id="Stroke-54"/>
                        <path d="M47.5671642,22.9856093 C50.1127949,26.0178108 51.6458333,29.9287202 51.6458333,34.1979167 C51.6458333,36.9927293 50.9885429,39.6342832 49.8200728,41.9763194 C46.9604477,47.7080414 41.0391652,51.6458333 34.1979167,51.6458333 C24.5612688,51.6458333 16.75,43.8325422 16.75,34.1979167 C16.75,24.5611709 24.5612688,16.75 34.1979167,16.75" id="Stroke-55"/>
                        <path d="M34.1979167,25.125 C39.2089736,25.125 43.2708333,29.1868088 43.2708333,34.1979167 C43.2708333,39.2079219 39.2089736,43.2708333 34.1979167,43.2708333 C29.1868598,43.2708333 25.125,39.2079219 25.125,34.1979167 C25.125,29.1868088 29.1868598,25.125 34.1979167,25.125 Z" id="Stroke-55"/>
                    </g>
                    <polyline id="Stroke-1" points="161 83.0032693 161 0 0 0 0 105 139.383088 105"/>
                    <path d="M0,17 L106,17" id="Stroke-3"/>
                    <path d="M144,17 L161,17" id="Stroke-4"/>
                    <path d="M115,17 L132,17" id="Stroke-6"/>
                    <polygon id="Stroke-7" transform="translate(159.000000, 98.000000) rotate(-32.000000) translate(-159.000000, -98.000000) " points="159 85 148 111 159 104.066667 170 111"/>
                </g>
                <rect id="Rectangle-11" stroke="#FFFFFF" transform="translate(307.000000, 8.000000) rotate(45.000000) translate(-307.000000, -8.000000) " x="302.5" y="3.5" width="9" height="9"/>
                <rect id="Rectangle-11-Copy" stroke="#FFFFFF" transform="translate(1280.000000, 247.000000) rotate(45.000000) translate(-1280.000000, -247.000000) " x="1275.5" y="242.5" width="9" height="9"/>
                <rect id="Rectangle-11-Copy-15" stroke="#FFFFFF" transform="translate(1574.000000, 356.000000) rotate(45.000000) translate(-1574.000000, -356.000000) " x="1569.5" y="351.5" width="9" height="9"/>
                <rect id="Rectangle-11-Copy-2" stroke="#FFFFFF" transform="translate(431.000000, 271.000000) rotate(45.000000) translate(-431.000000, -271.000000) " x="426.5" y="266.5" width="9" height="9"/>
                <rect id="Rectangle-11-Copy-26" stroke="#FFFFFF" transform="translate(874.000000, 169.000000) rotate(45.000000) translate(-874.000000, -169.000000) " x="869.5" y="164.5" width="9" height="9"/>
                <rect id="Rectangle-11-Copy-14" stroke="#FFFFFF" transform="translate(19.000000, 151.000000) rotate(45.000000) translate(-19.000000, -151.000000) " x="14.5" y="146.5" width="9" height="9"/>
                <rect id="Rectangle-11-Copy-3" stroke="#FFFFFF" fill-opacity="0.25" fill="#FFFFFF" transform="translate(328.500000, 144.500000) rotate(45.000000) translate(-328.500000, -144.500000) " x="320.5" y="136.5" width="16" height="16"/>
                <rect id="Rectangle-11-Copy-6" stroke="#FFFFFF" transform="translate(211.500000, 396.500000) rotate(45.000000) translate(-211.500000, -396.500000) " x="203.5" y="388.5" width="16" height="16"/>
                <rect id="Rectangle-11-Copy-7" fill-opacity="0.25" fill="#FFFFFF" transform="translate(129.500000, 222.500000) rotate(45.000000) translate(-129.500000, -222.500000) " x="125" y="218" width="9" height="9"/>
                <rect id="Rectangle-11-Copy-8" stroke="#FFFFFF" transform="translate(1466.000000, 282.000000) rotate(45.000000) translate(-1466.000000, -282.000000) " x="1458.5" y="274.5" width="15" height="15"/>
                <rect id="Rectangle-11-Copy-13" stroke="#FFFFFF" transform="translate(12.000000, 416.000000) rotate(45.000000) translate(-12.000000, -416.000000) " x="4.5" y="408.5" width="15" height="15"/>
                <rect id="Rectangle-11-Copy-9" fill-opacity="0.25" fill="#FFFFFF" transform="translate(1363.000000, 45.000000) rotate(45.000000) translate(-1363.000000, -45.000000) " x="1355" y="37" width="16" height="16"/>
                <rect id="Rectangle-11-Copy-27" fill-opacity="0.25" fill="#FFFFFF" transform="translate(1749.000000, 132.000000) rotate(45.000000) translate(-1749.000000, -132.000000) " x="1741" y="124" width="16" height="16"/>
                <rect id="Rectangle-11-Copy-11" fill-opacity="0.25" fill="#FFFFFF" transform="translate(1157.000000, 267.000000) rotate(45.000000) translate(-1157.000000, -267.000000) " x="1144" y="254" width="26" height="26"/>
                <rect id="Rectangle-11-Copy-10" fill-opacity="0.25" fill="#FFFFFF" transform="translate(1495.000000, 414.000000) rotate(45.000000) translate(-1495.000000, -414.000000) " x="1491" y="410" width="8" height="8"/>
                <rect id="Rectangle-11-Copy-12" fill-opacity="0.25" fill="#FFFFFF" transform="translate(1520.000000, 130.000000) rotate(45.000000) translate(-1520.000000, -130.000000) " x="1516" y="126" width="8" height="8"/>
                <rect id="Rectangle-11-Copy-4" stroke="#FFFFFF" fill-opacity="0.25" fill="#FFFFFF" transform="translate(1234.500000, 430.500000) rotate(45.000000) translate(-1234.500000, -430.500000) " x="1226.5" y="422.5" width="16" height="16"/>
                <rect id="Rectangle-11-Copy-5" stroke="#FFFFFF" transform="translate(1233.500000, 443.500000) rotate(45.000000) translate(-1233.500000, -443.500000) " x="1227.5" y="437.5" width="12" height="12"/>
            </g>
        </g>
    </g>
</svg>