<svg width="1122" height="484" xmlns="http://www.w3.org/2000/svg"><script xmlns="" type="text/javascript" charset="utf-8" id="zm-extension"/><g fill="none" fill-rule="evenodd"><path d="M932.804 273.187h51.112c8.232 0 14.906 6.674 14.906 14.906v179.572c0 8.233-6.674 14.907-14.906 14.907H910.35c-8.232 0-14.906-6.674-14.906-14.907v-149.32" stroke="#FFF"/><path stroke="#FFF" d="M937.028 294.358h56.868v167.274H900.37v-135.04M935.035 471.403h24.195M937.361 280.399h19.543"/><path d="M916.606 282.29c0 9.251-7.5 16.75-16.75 16.75s-16.75-7.499-16.75-16.75c0-9.25 7.5-16.75 16.75-16.75s16.75 7.5 16.75 16.75" fill-opacity=".35" fill="#FFF"/><path d="M930.253 282.39c0 16.776-13.6 30.377-30.377 30.377s-30.377-13.601-30.377-30.377c0-16.777 13.6-30.377 30.377-30.377s30.377 13.6 30.377 30.377zM864.37 285.334c.338 2.707.93 5.414 1.862 8.036M867.84 265.54c-2.201 4.483-3.47 9.39-3.64 14.296M889.254 248.03c-7.194 2.2-13.796 6.6-18.452 12.52" stroke="#FFF"/><path d="M899.876 265.738c9.196 0 16.65 7.455 16.65 16.651s-7.454 16.651-16.65 16.651c-9.196 0-16.65-7.455-16.65-16.65 0-9.197 7.454-16.652 16.65-16.652z" stroke="#FFF"/><path stroke="#FFF" d="M892.444 284.083l4.986 4.14 11.006-11.196"/><path fill-opacity=".35" fill="#FFF" d="M926.099 461.633H901.56l92.335-143.65v38.174zM959.56 461.633h-12.427l46.763-72.752v19.334z"/><path d="M0 482.523h1121.944" stroke="#FFF" stroke-width="1.2"/><path d="M737.572 397.528a2.275 2.275 0 1 1 0-4.55 2.275 2.275 0 0 1 0 4.55z" fill-opacity=".35" fill="#FFF"/><path d="M776.43 475.014l-19.649-38.14.422-22.658h-22.777l-.45 22.844-18.812 37.912c-1.984 4.18.178 7.6 4.805 7.6h51.744c4.627 0 6.75-3.402 4.717-7.558zM762.23 411.149a3.067 3.067 0 0 1-3.068 3.066h-27.597a3.067 3.067 0 0 1 0-6.132h27.597a3.067 3.067 0 0 1 3.067 3.065z" stroke="#FFF"/><path d="M755.374 450.715c-1.725-1.662-3.354-3.231-6.652-3.231-3.297 0-4.927 1.569-6.652 3.231-1.761 1.697-3.584 3.452-7.225 3.452-3.64 0-5.463-1.755-7.224-3.452-.02-.019-.04-.036-.057-.055l-12.4 24.312c-2.071 3.784.653 7.599 3.714 7.599h52.836c4.832 0 6.839-3.794 4.717-7.557l-10.982-21.28c-.816.27-1.75.433-2.85.433-3.641 0-5.463-1.755-7.225-3.452" fill-opacity=".35" fill="#FFF"/><path d="M751.81 400.377a2.276 2.276 0 1 1-4.55-.001 2.276 2.276 0 0 1 4.55.001zM739.847 395.253a2.276 2.276 0 1 1-4.551-.001 2.276 2.276 0 0 1 4.55.001zM745.707 422.497a2.275 2.275 0 1 1-4.55 0 2.275 2.275 0 0 1 4.55 0zM751.126 437.058a2.275 2.275 0 1 1-4.55-.002 2.275 2.275 0 0 1 4.55.002zM738.577 362.095a2.275 2.275 0 1 1-4.55 0 2.275 2.275 0 0 1 4.55 0z" stroke="#FFF" stroke-width=".5"/><path d="M754.563 373.135a5.718 5.718 0 1 1-11.436 0 5.718 5.718 0 0 1 11.436 0z" stroke="#FFF"/><path d="M754.563 373.135a5.718 5.718 0 1 1-11.436 0 5.718 5.718 0 0 1 11.436 0" fill-opacity=".35" fill="#FFF"/><g fill="#FFF" fill-opacity=".35"><path d="M173.07 396.348v28.054c0 1.5 1.214 2.716 2.713 2.716h4.895v9.477a3.955 3.955 0 0 0 7.908 0v-9.477h5.804v9.477a3.954 3.954 0 0 0 3.953 3.953 3.955 3.955 0 0 0 3.958-3.953v-9.477h4.883a2.711 2.711 0 0 0 2.71-2.716v-28.054c-9.39-.03-28.592-.03-36.823 0M215.529 395.542a3.951 3.951 0 0 0-3.958 3.951v17.302a3.955 3.955 0 0 0 3.958 3.953 3.952 3.952 0 0 0 3.953-3.953v-17.302a3.949 3.949 0 0 0-3.953-3.95M167.418 395.542a3.95 3.95 0 0 0-3.957 3.951v17.302a3.956 3.956 0 0 0 7.909 0v-17.302a3.952 3.952 0 0 0-3.952-3.95M199.907 388.002a1.545 1.545 0 0 1-1.548-1.545c0-.85.693-1.542 1.548-1.542a1.54 1.54 0 0 1 1.545 1.542 1.54 1.54 0 0 1-1.545 1.545m-16.813 0a1.545 1.545 0 0 1-1.551-1.545 1.546 1.546 0 0 1 3.093 0c0 .856-.693 1.545-1.542 1.545m17.308-7.862l3.107-5.379a.621.621 0 0 0-.231-.85.62.62 0 0 0-.852.227l-3.141 5.438a18.52 18.52 0 0 0-7.801-1.714c-2.85 0-5.55.642-7.966 1.791l-2.781-5.424a.626.626 0 0 0-1.115.57l2.786 5.43a18.89 18.89 0 0 0-9.52 14.36h37.189a18.881 18.881 0 0 0-9.675-14.449"/></g><path d="M173.07 396.348v28.054c0 1.5 1.214 2.716 2.713 2.716h4.895v9.477a3.955 3.955 0 0 0 7.908 0v-9.477h5.804v9.477a3.954 3.954 0 0 0 3.953 3.953 3.955 3.955 0 0 0 3.958-3.953v-9.477h4.883a2.711 2.711 0 0 0 2.71-2.716v-28.054c-9.39-.03-28.592-.03-36.823 0zM215.529 395.542a3.951 3.951 0 0 0-3.958 3.951v17.302a3.955 3.955 0 0 0 3.958 3.953 3.952 3.952 0 0 0 3.953-3.953v-17.302a3.949 3.949 0 0 0-3.953-3.95zM167.418 395.542a3.95 3.95 0 0 0-3.957 3.951v17.302a3.956 3.956 0 0 0 7.909 0v-17.302a3.952 3.952 0 0 0-3.952-3.95zM199.907 388.002a1.545 1.545 0 0 1-1.548-1.545c0-.85.693-1.542 1.548-1.542a1.54 1.54 0 0 1 1.545 1.542 1.54 1.54 0 0 1-1.545 1.545zm-16.813 0a1.545 1.545 0 0 1-1.551-1.545 1.546 1.546 0 0 1 3.093 0c0 .856-.693 1.545-1.542 1.545zm17.308-7.862l3.107-5.379a.621.621 0 0 0-.231-.85.62.62 0 0 0-.852.227l-3.141 5.438a18.52 18.52 0 0 0-7.801-1.714 18.487 18.487 0 0 0-7.966 1.791l-2.781-5.424a.626.626 0 0 0-1.115.57l2.786 5.43a18.89 18.89 0 0 0-9.52 14.36h37.189a18.881 18.881 0 0 0-9.675-14.449z" stroke="#FFF" stroke-width=".5"/><path stroke="#FFF" d="M104.188 482.571h174.567V286.529H104.188z"/><path d="M118.648 258.85a8.544 8.544 0 0 1 8.544 8.545v19.135h-17.088v-19.135a8.544 8.544 0 0 1 8.544-8.544z" stroke="#FFF"/><path d="M108.487 269.242h20.322M108.487 274.438h20.322" stroke="#FFF" stroke-width=".75"/><path d="M152.44 258.85a8.544 8.544 0 0 1 8.544 8.545v19.135h-17.088v-19.135a8.544 8.544 0 0 1 8.544-8.544z" stroke="#FFF"/><path d="M142.279 269.242h20.32M142.279 274.438h20.32" stroke="#FFF" stroke-width=".75"/><path d="M142.756 239.503a16.893 16.893 0 0 1 9.69 15.281v4.067M118.654 258.85v-4.065c0-6.54 3.774-12.493 9.69-15.282" stroke="#FFF"/><path d="M142.94 237.889a7.39 7.39 0 1 1-7.39-7.39 7.39 7.39 0 0 1 7.39 7.39z" stroke="#FFF"/><path d="M142.94 237.889a7.39 7.39 0 1 1-7.39-7.39 7.39 7.39 0 0 1 7.39 7.39" fill-opacity=".35" fill="#FFF"/><path d="M136.129 237.085l-.58-4.01-.577 4.01a1.275 1.275 0 0 0-.702 1.137 1.28 1.28 0 1 0 2.562 0c0-.498-.287-.926-.703-1.137" fill="#FFF"/><path d="M278.755 347.804c9.948 0 18.012 8.064 18.012 18.012v74.24c0 11.415 9.253 20.668 20.667 20.668 11.414 0 20.667-9.253 20.667-20.667V248.822a9.32 9.32 0 0 1 9.319-9.32h52.111a9.318 9.318 0 0 1 9.318 9.32v11.685M270.661 303.77l-10.606-10.606M270.423 312.224l-19.606-19.604M254.421 286.53h18.334v-3.346h-18.334zM256.005 283.184a7.584 7.584 0 0 1 15.167 0" stroke="#FFF"/><path d="M256.005 283.184a7.584 7.584 0 0 1 15.167 0" fill-opacity=".35" fill="#FFF"/><path d="M263.588 273.476v-4.625M268.427 274.486l3.27-3.271M271.171 278.267l4.605-.445M255.422 278.267l-4.605-.445M258.75 274.486l-3.271-3.271" stroke="#FFF" stroke-width=".75"/><path d="M143.805 310.208a6.022 6.022 0 1 1-12.044 0 6.022 6.022 0 0 1 12.044 0" fill-opacity=".35" fill="#FFF"/><path d="M143.805 310.208a6.022 6.022 0 1 1-12.044 0 6.022 6.022 0 0 1 12.044 0z" stroke="#FFF" stroke-width=".75"/><path d="M146.46 310.208a8.676 8.676 0 1 1-8.677-8.676 8.676 8.676 0 0 1 8.676 8.676zM158.35 310.208a2.952 2.952 0 1 1-5.903 0 2.952 2.952 0 0 1 5.903 0zM169.934 310.208a2.952 2.952 0 1 1-5.904 0 2.952 2.952 0 0 1 5.904 0z" stroke="#FFF" stroke-width=".75"/><path stroke="#FFF" d="M118.648 450.351h146.71v-85.115h-146.71z"/><path d="M127.128 370.979a1.896 1.896 0 1 1-3.791 0 1.896 1.896 0 0 1 3.79 0zM259.837 370.979a1.896 1.896 0 1 1-3.791 0 1.896 1.896 0 0 1 3.79 0zM127.128 442.487a1.896 1.896 0 1 1-3.793 0 1.896 1.896 0 0 1 3.793 0zM259.837 442.487a1.896 1.896 0 1 1-3.793 0 1.896 1.896 0 0 1 3.793 0z" stroke="#FFF" stroke-width=".5"/><path d="M110.104 473.457h162.958M333.822 283.184v16.48M333.822 302.422v6.184" stroke="#FFF"/><path d="M859.06 454.861l-3.347 5.798c-1.488 2.576.372 5.798 3.347 5.798 2.976 0 4.835-3.222 3.347-5.798l-3.347-5.798z" fill-opacity=".35" fill="#FFF"/><path stroke="#FFF" d="M848.641 396.08h18.993v-7.342h-18.993zM848.762 392.664l-64.16-.017M784.602 384.722v15.886M868.709 382.79c0 1.368-.861 2.477-1.922 2.477h-17.3c-1.061 0-1.922-1.109-1.922-2.477 0-1.367.86-2.475 1.923-2.475h17.299c1.06 0 1.922 1.108 1.922 2.475z"/><path d="M856.656 417.308a1.837 1.837 0 1 1-3.674 0 1.837 1.837 0 0 1 3.674 0zM857.682 401.73a1.837 1.837 0 1 1-3.674 0 1.837 1.837 0 0 1 3.674 0zM862.72 410.013a1.836 1.836 0 1 1-3.672.001 1.836 1.836 0 0 1 3.673-.001z" stroke="#FFF" stroke-width=".5"/><path d="M865.41 388.735v-3.468M850.87 388.735v-3.468M850.864 396.292v15.214c-6.824 2.85-11.621 9.585-11.621 17.442 0 10.435 8.459 18.895 18.894 18.895 10.435 0 18.894-8.46 18.894-18.895 0-7.857-4.796-14.593-11.621-17.442v-15.214M800.822 482.571V377.743" stroke="#FFF"/><path stroke="#FFF" stroke-width=".75" d="M848.487 475.571h21.146v-8.834h-21.146zM859.06 454.861l-3.347 5.798c-1.488 2.576.372 5.798 3.347 5.798 2.976 0 4.835-3.222 3.347-5.798l-3.347-5.798z"/><path d="M839.337 429.17c0 10.383 8.417 18.8 18.8 18.8 10.383 0 18.8-8.417 18.8-18.8h-37.6z" fill-opacity=".35" fill="#FFF"/><path stroke="#FFF" stroke-width=".75" d="M848.488 482.571h5.001v-7h-5.001zM864.613 482.571h5.002v-7h-5.002z"/><path d="M855.231 376.019v-7.1M861.043 376.019V359.82M869.736 362.067c5.684 0 10.293-4.608 10.293-10.292s-4.609-10.291-10.293-10.291c-1.502 0-2.927.33-4.215.91a8.162 8.162 0 0 0-7.515-4.977c-3.337 0-6.197 2.007-7.462 4.877a10.255 10.255 0 0 0-4.006-.81c-5.684 0-10.293 4.608-10.293 10.292s4.609 10.292 10.293 10.292" stroke="#FFF"/><path d="M600.083 262.944a2.275 2.275 0 1 1-4.55 0 2.275 2.275 0 0 1 4.55 0zM594.23 269.683a2.275 2.275 0 1 1-4.55 0 2.275 2.275 0 0 1 4.55 0zM587.723 250.002a2.276 2.276 0 1 1-4.55-.001 2.276 2.276 0 0 1 4.55.001z" stroke="#FFF" stroke-width=".5"/><path d="M646.626 311.507c0 1.693-1.066 3.066-2.38 3.066h-21.427c-1.315 0-2.38-1.373-2.38-3.066 0-1.693 1.065-3.066 2.38-3.066h21.426c1.315 0 2.381 1.373 2.381 3.066zM563.519 311.396c0 1.694-1.066 3.067-2.381 3.067h-21.426c-1.315 0-2.38-1.373-2.38-3.067 0-1.693 1.065-3.065 2.38-3.065h21.426c1.315 0 2.38 1.372 2.38 3.065zM557.374 321.977v32.134a7.06 7.06 0 0 1-14.118 0v-32.134" stroke="#FFF"/><path d="M551.237 361.17h-1.844a6.138 6.138 0 0 1-6.137-6.138v-18.47h14.118v18.47a6.138 6.138 0 0 1-6.137 6.138" fill-opacity=".35" fill="#FFF"/><path stroke="#FFF" d="M540.928 321.946h18.993v-7.342h-18.993zM640.591 321.977v32.134a7.06 7.06 0 0 1-14.118 0v-32.134"/><path d="M634.4 361.17h-1.844a6.138 6.138 0 0 1-6.138-6.138l.11-10.378h14.118l-.11 10.378a6.138 6.138 0 0 1-6.136 6.138" fill-opacity=".35" fill="#FFF"/><path stroke="#FFF" d="M624.036 321.946h18.993v-7.342h-18.993zM591.871 318.532l-.04 123.621M624.158 318.53l-64.16-.018M669.732 392.186c0 1.694-1.065 3.067-2.38 3.067h-21.426c-1.316 0-2.38-1.373-2.38-3.067 0-1.693 1.064-3.065 2.38-3.065h21.425c1.316 0 2.381 1.372 2.381 3.065zM663.698 402.655v32.135a7.058 7.058 0 0 1-7.06 7.058 7.058 7.058 0 0 1-7.058-7.058v-32.135"/><path d="M657.506 441.849h-1.844a6.137 6.137 0 0 1-6.137-6.137l.11-21.378h14.118l-.11 21.378a6.137 6.137 0 0 1-6.137 6.137" fill-opacity=".35" fill="#FFF"/><path stroke="#FFF" d="M647.143 402.625h18.993v-7.342h-18.993zM647.264 399.21l-64.16-.018"/><path d="M551.457 300.8c0-13.625 11.045-24.67 24.669-24.67 13.625 0 24.67 11.045 24.67 24.67 0 8.287-4.105 15.005-9.168 15.005-5.063 0-9.167-6.718-9.167-15.005 0-13.625 11.045-24.67 24.669-24.67 13.625 0 24.67 11.045 24.67 24.67" stroke="#FFF" stroke-width=".75"/><path d="M368.783 313.504v32.135a7.058 7.058 0 0 1-7.059 7.058 7.058 7.058 0 0 1-7.059-7.058v-32.135" stroke="#FFF"/><path d="M362.647 352.697h-1.844a6.137 6.137 0 0 1-6.137-6.137v-30.416h14.118v30.416a6.137 6.137 0 0 1-6.137 6.137" fill-opacity=".35" fill="#FFF"/><path d="M497.798 361.02c0 1.695-1.065 3.068-2.38 3.068H473.99c-1.315 0-2.38-1.373-2.38-3.067 0-1.693 1.065-3.065 2.38-3.065h21.427c1.315 0 2.38 1.372 2.38 3.065zM374.818 303.065c0 1.693-1.066 3.066-2.381 3.066h-21.426c-1.315 0-2.38-1.373-2.38-3.066 0-1.693 1.065-3.066 2.38-3.066h21.426c1.315 0 2.381 1.373 2.381 3.066z" stroke="#FFF"/><path d="M482.87 406.048a2.275 2.275 0 1 1-4.55-.001 2.275 2.275 0 0 1 4.55.001zM495.11 415.638a2.275 2.275 0 1 1-4.55-.002 2.275 2.275 0 0 1 4.55.002zM486.98 391.75a2.275 2.275 0 1 1-4.55-.002 2.275 2.275 0 0 1 4.55.001z" stroke="#FFF" stroke-width=".5"/><path d="M408.85 275.232v166.952M695.038 442.188l-313.539-.004a4.415 4.415 0 0 0-4.415 4.415v.003a4.414 4.414 0 0 0 4.415 4.415h313.54a4.415 4.415 0 1 0 0-8.83zM695.038 473.741l-313.539-.004a4.415 4.415 0 0 0-4.415 4.415v4.42h322.37v-4.416a4.415 4.415 0 0 0-4.416-4.415zM395.904 373.06h76.682M395.6 365.116v15.886M583.104 391.266v15.887M472.586 377.743h24.237v-9.368h-24.237zM421.76 309.39h-50.51M422.066 301.447v15.886M352.228 313.474h18.993v-7.342h-18.993zM493.713 368.383v-4.295M475.705 368.383v-4.295M475.697 377.743v18.844c-8.453 3.528-14.394 11.871-14.394 21.602 0 12.925 10.477 23.403 23.402 23.403s23.402-10.478 23.402-23.403c0-9.73-5.942-18.074-14.394-21.602v-18.844" stroke="#FFF"/><path d="M461.546 418.432c0 12.79 10.369 23.16 23.159 23.16s23.16-10.37 23.16-23.16l-5.077 2.359a20.454 20.454 0 0 1-18.943-.888 25.013 25.013 0 0 0-22.3-1.471" fill-opacity=".35" fill="#FFF"/><path d="M361.927 294.668v-18.16a9 9 0 0 1 9-9h64.266a9 9 0 0 1 9 9v47.913a9 9 0 0 0 9 9.001h22.51a9 9 0 0 1 9.002 9.001v12.16M389.913 473.457h296.711v-22.44H389.913z" stroke="#FFF"/><path d="M677.487 454.532l-9.723 9.723M680.386 457.516l-9.723 9.723" stroke="#FFF" stroke-width=".75"/><path d="M633.532 361.17v11.673a3.508 3.508 0 0 0 3.507 3.508h16.092a3.507 3.507 0 0 1 3.507 3.506v5.244" stroke="#FFF"/><path d="M652.504 376.35h56.174a4.16 4.16 0 0 1 4.16 4.16v1.822a2.875 2.875 0 0 0 5.75 0v-3.106a2.875 2.875 0 0 1 5.75 0v3.106a2.875 2.875 0 0 0 2.875 2.875h.25a2.875 2.875 0 0 0 2.875-2.875v-3.106a2.875 2.875 0 0 1 2.875-2.875h.25a2.875 2.875 0 0 1 2.875 2.875v3.106a2.875 2.875 0 0 0 2.875 2.875h2.218a3.408 3.408 0 0 1 3.407 3.409v6.34M651.739 372.404h15.417M413.572 369.083h19.625M438.197 369.083h6.75M670.656 372.404h5.167" stroke="#FFF"/><path d="M354.666 320.273h3.24M354.666 324.4h3.24M354.666 328.53h3.24M354.666 332.657h3.24M354.666 336.785h3.24M354.666 340.914h3.24M354.666 345.042h3.24M626.473 329.143h3.241M626.473 333.27h3.241M626.473 337.4h3.241M626.473 341.528h3.241M626.473 345.655h3.241M626.473 349.784h3.241M626.473 353.912h3.241M682.781 349.284a3.628 3.628 0 1 1-7.256 0 3.628 3.628 0 0 1 7.256 0zM696.2 337.944a3.63 3.63 0 1 1-7.257 0 3.63 3.63 0 0 1 7.258 0z" stroke="#FFF" stroke-width=".75"/><path d="M703.446 349.524a2.388 2.388 0 1 1-4.777-.001 2.388 2.388 0 0 1 4.777 0zM709.697 341.573a2.387 2.387 0 1 1-4.774 0 2.387 2.387 0 0 1 4.774 0zM681.672 346.676l8.252-6.257M696.2 337.944l9.033 2.475M700.055 347.365l-4.83-6.946" stroke="#FFF" stroke-width=".5"/><g><path fill-opacity=".35" fill="#FFF" d="M744.437 279.782l11.189 11.189-11.189 11.189-11.189-11.19zM316.03 67.134l11.19 11.19-11.19 11.19-11.189-11.19z"/><path stroke="#FFF" stroke-width=".75" d="M617.645 175.368l11.189 11.189-11.189 11.19-11.189-11.19z"/><path stroke="#FFF" stroke-width=".533" d="M244.323 211.119l7.947 7.947-7.947 7.947-7.946-7.947zM821.545.377l7.946 7.947-7.946 7.947-7.947-7.947z"/><path fill-opacity=".35" fill="#FFF" d="M606.214 161l7.214 7.214-7.214 7.214-7.214-7.214zM868.5 90l10.5 10.5-10.5 10.5-10.5-10.5z"/></g></g></svg>