<svg width="1238" height="596" xmlns="http://www.w3.org/2000/svg"><script xmlns="" type="text/javascript" charset="utf-8" id="zm-extension"/><g transform="translate(0 .414)" fill="none" fill-rule="evenodd"><g fill-rule="nonzero" fill="#FFDE00"><path d="M1007.881 448.224l18.656 18.663a2.712 2.712 0 0 0 3.821 0l18.656-18.663a2.715 2.715 0 0 0 0-3.823l-18.656-18.663a2.712 2.712 0 0 0-3.821 0L1007.88 444.4a2.715 2.715 0 0 0 0 3.823z" opacity=".15"/><path d="M1017.546 446.575l10.564 10.568c.15.15.45.15.675 0l10.564-10.568c.15-.15.15-.45 0-.675l-10.564-10.568c-.15-.15-.45-.15-.675 0l-10.564 10.568c-.224.225-.224.525 0 .675z"/><path d="M1027.586 446.275l14.685 14.69c.45.45 1.273.45 1.723 0l14.684-14.69c.45-.45.45-1.274 0-1.724l-14.684-14.691c-.45-.45-1.274-.45-1.723 0l-14.685 14.69c-.45.45-.45 1.275 0 1.725z" opacity=".25"/></g><g fill-rule="nonzero" fill="#FFDE00"><path d="M166.208 550.16l-9.29-9.293c-.15-.15-.45-.15-.675 0l-9.29 9.294c-.15.15-.15.45 0 .674l9.29 9.295c.15.15.45.15.675 0l9.29-9.295c.225-.15.225-.45 0-.674z"/><path d="M170.03 560.13l-12.813-12.817c-.449-.45-1.273-.45-1.723 0l-12.811 12.817c-.45.45-.45 1.274 0 1.724l12.811 12.817c.45.45 1.274.45 1.723 0l12.812-12.817c.45-.45.45-1.275 0-1.724z" opacity=".25"/></g><g fill-rule="nonzero" fill="#FFDE00"><path d="M1141.992 91.893l-8.467-8.47c-.15-.15-.449-.15-.674 0l-8.466 8.47c-.15.15-.15.45 0 .675l8.466 8.47c.15.15.45.15.674 0l8.467-8.47c.224-.225.224-.525 0-.675z"/><path d="M1145.438 100.963l-11.613-11.618c-.45-.45-1.273-.45-1.723 0l-11.613 11.618c-.45.45-.45 1.274 0 1.724l11.613 11.618c.45.45 1.274.45 1.723 0l11.613-11.618c.45-.525.45-1.275 0-1.724z" opacity=".25"/></g><path d="M289.38 62.511l5.17-5.171c.15-.15.449-.15.674 0l5.17 5.171c.15.15.15.45 0 .675l-5.17 5.172c-.15.15-.45.15-.675 0l-5.17-5.172c-.224-.225-.224-.525 0-.675zm222.293 289.172l7.942-7.945c.15-.15.45-.15.674 0l7.942 7.945c.15.15.15.45 0 .675l-7.942 7.945c-.15.15-.45.15-.674 0l-7.942-7.945c-.225-.225-.225-.45 0-.675z" fill="#FFDE00" fill-rule="nonzero"/><path d="M46.033 196.829l12.063-12.068c.15-.15.45-.15.674 0l12.062 12.068c.15.15.15.45 0 .674L58.77 209.571c-.15.15-.45.15-.674 0l-12.063-12.068c-.15-.15-.15-.45 0-.674zm829.686 81.325l8.84-8.845c.15-.15.45-.15.675 0l8.84 8.845c.15.15.15.45 0 .674l-8.84 8.845c-.15.15-.45.15-.674 0l-8.841-8.845c-.15-.15-.15-.45 0-.674zM394.645 509.236l7.043-7.046c.15-.15.45-.15.674 0l7.043 7.046c.15.15.15.45 0 .675l-7.043 7.045c-.15.15-.45.15-.674 0l-7.043-7.045c-.15-.225-.15-.525 0-.675zm418.365 70.906l8.316-8.32c.15-.15.45-.15.674 0l8.316 8.32c.15.15.15.45 0 .675l-8.316 8.32c-.15.15-.45.15-.674 0l-8.317-8.32c-.224-.15-.224-.45 0-.675z" stroke="#FFDE00" stroke-width=".749"/><path d="M888.53 9.444l8.617-8.62c.45-.45 1.273-.45 1.723 0l8.616 8.62c.45.45.45 1.274 0 1.724l-8.616 8.62c-.45.45-1.274.45-1.723 0l-8.616-8.62c-.45-.45-.45-1.2 0-1.724zm-333.702 325l4.046-4.048c.45-.45 1.274-.45 1.723 0l4.046 4.048c.45.45.45 1.274 0 1.724l-4.046 4.047c-.45.45-1.273.45-1.723 0l-4.046-4.047c-.524-.525-.524-1.274 0-1.724zM1.305 229.583l7.492-7.495c.45-.45 1.274-.45 1.723 0l7.492 7.495c.45.45.45 1.275 0 1.724l-7.492 7.496c-.45.45-1.273.45-1.723 0l-7.492-7.496c-.525-.45-.525-1.199 0-1.724zm1219.355 70.082l7.492-7.495c.45-.45 1.274-.45 1.723 0l7.492 7.495c.45.45.45 1.274 0 1.724l-7.492 7.496c-.45.45-1.274.45-1.723 0l-7.492-7.496c-.45-.524-.45-1.274 0-1.724z" fill="#FFDE00" fill-rule="nonzero" opacity=".25"/><path d="M757.792 387.661c-.15-9.969-3.971-19.338-11.014-26.309-14.984-14.916-41.057-15.59-56.191-.524-2.847 2.848-5.245 6.07-7.118 9.669-.15.224-1.948 4.497-1.948 4.497h-.075c-3.146-1.424-6.593-2.174-10.264-2.174-9.515 0-20.304 6.071-23.3 15.516-.076.15-.75 2.548-.825 2.548-5.47-.225-11.163 1.35-15.209 5.172-3.521 3.373-4.945 8.47-4.57 13.192.45 5.321 3.147 9.744 7.042 13.267.9.824 1.874 1.648 2.922 2.398.6.45 2.173 1.949 2.922 1.949h118.902c6.143-1.949 11.987-6.671 13.11-16.64 1.799-16.49-14.384-22.561-14.384-22.561zm-15.958-17.764c3.97 4.572 7.042 10.119 8.616 16.19m-22.852-26.684c4.196 1.874 7.942 4.423 11.239 7.496m-91.555 33.579c-.824-2.473-1.049-5.696-.225-9.669m7.942 18.064s-2.772-.974-5.17-3.823" stroke="#FFF" stroke-width=".749"/><path d="M723.103 558.106H485.6a5.213 5.213 0 0 1-5.244-5.247V395.906a5.213 5.213 0 0 1 5.244-5.247h237.503a5.213 5.213 0 0 1 5.245 5.247v156.878c0 2.923-2.323 5.322-5.245 5.322z" stroke="#FFF" stroke-width=".749" fill="#272727" fill-rule="nonzero"/><path d="M480.356 536.594h247.992" stroke="#FFF" stroke-width=".749"/><path d="M719.282 528.124H489.347c-.45 0-.75-.3-.75-.75v-127.27c0-.45.3-.75.75-.75h229.935c.45 0 .75.3.75.75v127.27c0 .45-.3.75-.75.75z" stroke="#FFF" stroke-width=".749" fill="#232323"/><path fill="#FFF" fill-rule="nonzero" opacity=".02" d="M701.226 399.429L629.3 528.124h15.583l70.952-128.695zm-57.166 0l-71.925 128.695h35.738l72.45-128.695z"/><ellipse stroke="#FFF" stroke-width=".749" cx="604.352" cy="546.488" rx="4.196" ry="4.197"/><path d="M634.17 578.194l-1.947-19.863H576.48l-1.948 19.788c-.3 2.398-1.274 4.647-2.772 6.596l-6.519 8.394c-.374.525 0 1.2.75 1.2h76.57c.75 0 1.199-.675.75-1.2l-6.444-8.394c-1.424-1.95-2.398-4.198-2.697-6.521z" stroke="#FFF" stroke-width=".749" fill="#272727" fill-rule="nonzero"/><path d="M573.858 580.217h34.09m6.742 0h10.04" stroke="#FFF" stroke-width=".749"/><path fill="#FFF" fill-rule="nonzero" opacity=".02" d="M633.421 572.497h-59.338l1.798-14.166h55.143z"/><g stroke="#FFF" stroke-width=".749"><path d="M191.382 318.104c.75-.15 1.498-.375 2.173-.675l2.622 4.647 5.694-3.223-2.622-4.647c2.547-2.023 4.645-4.572 5.993-7.645l5.095 1.424 1.798-6.296-5.094-1.424c.374-3.298 0-6.596-1.124-9.67l4.645-2.623-3.222-5.696-4.645 2.623c-2.023-2.548-4.57-4.572-7.642-5.996l1.424-5.097-6.294-1.799-1.423 5.097c-3.297-.375-6.594 0-9.665 1.124l-2.623-4.647-5.694 3.223 2.623 4.647c-2.548 2.024-4.57 4.573-5.994 7.646l-5.095-1.424-1.798 6.296"/><path d="M176.248 293.969c2.023-5.172 7.642-8.095 13.111-6.521 5.769 1.649 9.14 7.645 7.492 13.417-.824 2.998-2.922 5.396-5.47 6.745"/><g transform="translate(130.246 252.594)"><path d="M34.314 16.49l-.749-4.198-3.446.6c-.75-2.099-1.948-3.898-3.447-5.397l1.948-2.848-3.52-2.473-1.95 2.848c-1.873-.9-4.046-1.424-6.219-1.35L16.333.226l-4.196.75.6 3.447c-2.098.75-3.896 1.95-5.395 3.448l-2.847-1.95-2.472 3.523 2.847 2.024c-.9 1.874-1.424 4.047-1.349 6.221l-3.446.6.75 4.197 3.446-.6c.749 2.1 1.948 3.898 3.446 5.397l-2.023 2.848 3.521 2.474 2.023-2.923c1.873.9 4.046 1.424 6.219 1.349l.6 3.448 4.195-.75-.6-3.448a13.634 13.634 0 0 0 5.32-3.448l2.847 1.95 2.472-3.524-2.847-1.948c.9-1.874 1.424-4.048 1.349-6.222l3.521-.6z"/><ellipse transform="rotate(-10.446 17.149 17.458)" cx="17.149" cy="17.458" rx="7.192" ry="7.195"/></g></g><path d="M184.34 380.39H76.526a1.503 1.503 0 0 1-1.499-1.499v-77.727c0-.824.674-1.499 1.499-1.499h107.737c.824 0 1.499.675 1.499 1.5v77.726c.075.825-.6 1.5-1.424 1.5z" stroke="#FFF" stroke-width=".749" fill="#272727"/><path d="M84.169 369.297h93.727" stroke="#FFF" stroke-width=".749"/><path d="M96.306 323.8h72.45m-77.62 22.112h84.512" stroke="#FFF" stroke-width=".749" stroke-dasharray="2.997"/><path d="M94.283 369.297s2.847-22.786 16.333-23.385c3.147-.15 5.919 1.649 8.017 3.822 2.322 2.399 3.521 5.697 6.293 7.72.6.45 1.798.975 2.547 1.125 4.496.974 8.092-1.2 10.864-3.973 1.648-1.649 3.521-2.773 5.919-2.773 5.245 0 8.916 5.697 10.864 9.894" stroke="#FFF" stroke-width=".749"/><path d="M92.26 358.729s3.447-43.923 21.203-43.923c5.919 0 9.515 4.347 11.538 8.395.9 1.799 1.573 3.672 2.098 5.621 1.274 4.572 2.023 11.768 9.74 11.768 9.59 0 7.567-11.393 16.033-12.967 9.965-1.874 12.512 9.594 14.235 15.066.075.15.075.3.15.45" stroke="#FFF" stroke-width=".749"/><path stroke="#FFF" stroke-width=".749" fill="#272727" fill-rule="nonzero" opacity=".27" d="M875.366 501.663l45.314-86.131 68.788 36.189-45.314 86.131z"/><path fill="#333332" fill-rule="nonzero" d="M875.366 501.663l45.314-86.131 68.788 36.189-45.314 86.131z"/><path stroke="#FFF" stroke-width=".749" fill="#2A2A2A" fill-rule="nonzero" d="M842.267 428.368l75.084-19.975 25.032 94.093L867.3 522.46z"/><path stroke="#FFF" stroke-width=".749" fill="#272727" fill-rule="nonzero" d="M954.837 505.413v-78.851h-77.694v99.239h57.315z"/><path stroke="#FFF" stroke-width=".749" d="M954.837 505.413h-20.604v20.388"/><path fill="#CCC" fill-rule="nonzero" opacity=".43" d="M892.052 441.478h51.771v2.623h-51.771zm-.225 7.57h51.771v2.623h-51.771zm7.867 15.066h43.979v2.623h-43.979zm-7.417 7.57h51.771v2.623h-51.771zm0 7.496h51.771v2.623h-51.771zm-.824-22.562h22.102v2.623h-22.102zm12.512 54.342h24.05v2.623h-24.05z"/><g fill-rule="nonzero" fill="#CCC"><path d="M885.002 508.593l1.43-1.43 9.064 9.062-1.43 1.431z"/><path d="M884.971 516.225l9.06-9.06 1.431 1.432-9.06 9.06z"/></g><path d="M321.97 500.916h-58.064a1.503 1.503 0 0 1-1.498-1.499V378.292c0-.825.674-1.5 1.498-1.5h58.065c.824 0 1.498.675 1.498 1.5v121.05c0 .9-.674 1.574-1.498 1.574z" stroke="#FFF" stroke-width=".749" fill="#272727" fill-rule="nonzero"/><path d="M340.776 416.143h-43.754a1.503 1.503 0 0 1-1.499-1.499V396.58c0-.824.675-1.499 1.499-1.499h43.754c.824 0 1.499.675 1.499 1.5v18.063c0 .825-.675 1.5-1.499 1.5zm0 33.43h-43.754a1.503 1.503 0 0 1-1.499-1.5V430.01c0-.825.675-1.5 1.499-1.5h43.754c.824 0 1.499.675 1.499 1.5v18.064c0 .824-.675 1.499-1.499 1.499zm0 33.504h-43.754a1.503 1.503 0 0 1-1.499-1.499v-18.064c0-.824.675-1.499 1.499-1.499h43.754c.824 0 1.499.675 1.499 1.5v18.063c0 .825-.675 1.5-1.499 1.5z" stroke="#FFF" stroke-width=".749" fill="#272727" fill-rule="nonzero"/><path fill="#CCC" fill-rule="nonzero" opacity=".43" d="M300.543 400.628h28.395v2.773h-28.395zm7.043 6.896h28.395v2.773h-28.395zm-8.167 26.758h14.909v2.773h-14.909zm.15 5.997h30.044v2.773h-30.044zm-.225 26.233h23.525v2.773h-23.525zm0 5.622h7.867v2.773h-7.867zm11.314 0h27.871v2.773h-27.871z"/><path d="M1071.64 291.645h-52.296a1.503 1.503 0 0 1-1.498-1.499v-36.952c0-.825.674-1.5 1.498-1.5h52.296c.824 0 1.498.675 1.498 1.5v36.952c0 .825-.674 1.5-1.498 1.5zm-43.904-25.109h31.767m-31.767 11.468h32.74m-14.984 13.341v22.786" stroke="#FFF" stroke-width=".749"/><path d="M1005.559 300.865h79.642" stroke="#FFF" stroke-width=".749" stroke-linecap="square" stroke-linejoin="round"/><path d="M1059.652 345.237h-27.72a1.503 1.503 0 0 1-1.5-1.499v-27.733c0-.824.675-1.499 1.5-1.499h27.72c.825 0 1.499.675 1.499 1.5v27.732c0 .825-.674 1.5-1.499 1.5zm43.605 0h-27.721a1.503 1.503 0 0 1-1.499-1.499v-27.733c0-.824.675-1.499 1.499-1.499h27.721c.824 0 1.498.675 1.498 1.5v27.732c0 .825-.674 1.5-1.498 1.5zm-87.284 0h-27.721a1.503 1.503 0 0 1-1.499-1.499v-27.733c0-.824.675-1.499 1.499-1.499h27.72c.825 0 1.5.675 1.5 1.5v27.732c0 .825-.675 1.5-1.5 1.5z" stroke="#FFF" stroke-width=".749"/><path d="M1059.652 345.237h-27.72a1.503 1.503 0 0 1-1.5-1.499v-27.733c0-.824.675-1.499 1.5-1.499h27.72c.825 0 1.499.675 1.499 1.5v27.732c0 .825-.674 1.5-1.499 1.5zm43.605 0h-27.721a1.503 1.503 0 0 1-1.499-1.499v-27.733c0-.824.675-1.499 1.499-1.499h27.721c.824 0 1.498.675 1.498 1.5v27.732c0 .825-.674 1.5-1.498 1.5zm-87.284 0h-27.721a1.503 1.503 0 0 1-1.499-1.499v-27.733c0-.824.675-1.499 1.499-1.499h27.72c.825 0 1.5.675 1.5 1.5v27.732c0 .825-.675 1.5-1.5 1.5z" fill="#FFF" fill-rule="nonzero" opacity=".06"/><path d="M1085.2 314.731V300.64" stroke="#FFF" stroke-width=".749"/><path d="M1005.334 314.506V300.79" stroke="#FFF" stroke-width=".749" stroke-linecap="square" stroke-linejoin="round"/></g></svg>