<svg width="41" height="34" xmlns="http://www.w3.org/2000/svg"><script xmlns="" type="text/javascript" charset="utf-8" id="zm-extension"/><g transform="translate(1 1)" fill="none" fill-rule="evenodd"><g fill-rule="nonzero"><path d="M37.98 32.1854H3.57c-.682 0-1.24-.5562-1.24-1.236V3.573c0-.6797.558-1.236 1.24-1.236h34.41c.682 0 1.24.5563 1.24 1.236v27.3146c0 .7416-.558 1.2978-1.24 1.2978z" fill="#FAE950"/><path d="M35.5 30.2079H2.33c-1.054 0-1.86-.8034-1.86-1.854V2.2135c0-1.0506.806-1.854 1.86-1.854H35.5c1.054 0 1.86.8034 1.86 1.854V28.292c0 1.0506-.868 1.9158-1.86 1.9158z" stroke="#FFB363" fill="#FFF"/></g><path d="M13.18 22.5866V9.6493c0-.6908.5511-1.256 1.2247-1.256h17.3906c.6736 0 1.2247.5652 1.2247 1.256v12.9373c0 .6909-.5511 1.2561-1.2247 1.2561H14.4047c-.6736 0-1.2247-.5652-1.2247-1.256z" fill="#FAE950" fill-rule="nonzero"/><path d="M11.32 20.7327V7.7954c0-.6909.5511-1.256 1.2247-1.256h17.3906c.6736 0 1.2247.5651 1.2247 1.256v12.9373c0 .6908-.5511 1.256-1.2247 1.256H12.5447c-.6736 0-1.2247-.5652-1.2247-1.256z" stroke="#FFB363" fill="#FFF" fill-rule="nonzero"/><path d="M6.36 24.4243v-6.107c0-.6998.5615-1.2724 1.2478-1.2724h7.4244c.6863 0 1.2478.5726 1.2478 1.2724v6.107c0 .6998-.5615 1.2723-1.2478 1.2723H7.6078c-.6863 0-1.2478-.5725-1.2478-1.2723z" fill="#FAE950" fill-rule="nonzero"/><path d="M5.12 23.1884v-6.1071c0-.6998.5615-1.2723 1.2478-1.2723h7.4244c.6863 0 1.2478.5725 1.2478 1.2723v6.107c0 .6998-.5615 1.2724-1.2478 1.2724H6.3678c-.6863 0-1.2478-.509-1.2478-1.2723z" stroke="#FFB363" fill="#FFF" fill-rule="nonzero"/><ellipse stroke="#FFB363" stroke-width=".7" cx="24.65" cy="11.7921" rx="2.79" ry="2.7809"/><ellipse fill="#FAE950" fill-rule="nonzero" cx="24.65" cy="11.7921" rx="1.55" ry="1.5449"/><ellipse stroke="#FFB363" stroke-width=".7" cx="10.08" cy="18.8989" rx="1.24" ry="1.236"/><ellipse fill="#FAE950" fill-rule="nonzero" cx="10.08" cy="18.8989" rx="1" ry="1"/><path d="M24.34 15.191v3.7079" stroke="#FFB363" stroke-width=".5" stroke-linecap="round"/><path d="M24.34 18.8989H11.32" stroke="#FFB363" stroke-width=".7" stroke-linecap="round"/></g></svg>