<svg width="40" height="40" xmlns="http://www.w3.org/2000/svg"><script xmlns="" type="text/javascript" charset="utf-8" id="zm-extension"/><g fill="none" fill-rule="evenodd"><ellipse fill="#FAE950" fill-rule="nonzero" cx="20.4921" cy="20.5082" rx="18.6984" ry="18.6885"/><ellipse stroke="#FFB363" fill="#FFF" fill-rule="nonzero" cx="19.5079" cy="19.5246" rx="18.6984" ry="18.6885"/><path d="M20.492 14.6066c-5.0521 0-9.4728 2.5573-11.8095 6.3934 2.3367 3.836 6.7574 6.3934 11.8096 6.3934S29.9649 24.8361 32.3016 21c-2.3998-3.836-6.7573-6.3934-11.8095-6.3934z" fill="#FAE950" fill-rule="nonzero"/><path d="M19.508 12.6393c-5.0523 0-9.473 2.5574-11.8096 6.3935 2.3367 3.836 6.7573 6.3934 11.8095 6.3934s9.473-2.5573 11.8096-6.3934c-2.3998-3.836-6.7574-6.3935-11.8096-6.3935z" stroke="#FFB363" fill="#FFF" fill-rule="nonzero"/><ellipse fill="#FAE950" fill-rule="nonzero" cx="19.5079" cy="19.5246" rx="4.9206" ry="4.918"/><path d="M19.508 8.705v3.9343M19.508 26.4098v1.9672M16.5556 25.4262l-.9842 1.9672M12.619 24.4426l-.984 1.9672M22.4603 25.4262l.7873 1.9672M25.4127 24.4426l.9841 1.9672M23.4444 9.6721l-.984 2.9509M26.3968 11.6393l-.9841 1.9673M29.3492 13.6066l-.9841 1.9672M15.5714 9.6721l.9842 2.9509M11.635 11.6393l.984 1.9673M8.6825 15.6066l.9842.9836" stroke="#FFB363"/><ellipse stroke="#FFB363" stroke-width=".9841" fill="#FFF27E" fill-rule="nonzero" cx="19.5079" cy="19.5246" rx="4.9206" ry="4.918"/><path d="M22.4603 19.4036c0-1.0444-.6025-1.9046-1.6268-1.8431-.7833 0-1.1448.43-1.3256.7372-.1807-.3072-.5422-.7372-1.3255-.7372-1.0243 0-1.6268.86-1.6268 1.843 0 .6144.6025 1.3517 1.0243 1.6589l1.8678 1.413 1.9883-1.413c.482-.3072 1.0243-1.0445 1.0243-1.6588z" fill="#FFB363" fill-rule="nonzero"/></g></svg>