<svg width="399" height="336" xmlns="http://www.w3.org/2000/svg"><script xmlns="" type="text/javascript" charset="utf-8" id="zm-extension"/><defs><linearGradient x1="46.4335%" y1="100%" x2="46.4335%" y2="0%" id="a"><stop stop-color="#FFB164" offset="0%"/><stop stop-color="#FEDD00" offset="100%"/></linearGradient><linearGradient x1="50%" y1="0%" x2="50%" y2="100%" id="b"><stop stop-color="#FFE35A" offset="0%"/><stop stop-color="#FFB064" offset="100%"/></linearGradient></defs><g fill="none" fill-rule="evenodd"><path d="M347.563 146h-87.126c-1.8904 0-3.437-1.5452-3.437-3.4338V55.4338C257 53.5452 258.5466 52 260.437 52h87.126c1.8904 0 3.437 1.5452 3.437 3.4338v87.0466c0 1.9744-1.5466 3.5196-3.437 3.5196z" fill="#FAE950" fill-rule="nonzero" opacity=".16"/><path d="M341.6457 141h-87.2089c-1.8902 0-3.4368-1.5466-3.4368-3.437V50.437c0-1.8904 1.5466-3.437 3.4368-3.437h87.123c1.8902 0 3.4368 1.5466 3.4368 3.437v87.126c.086 1.8904-1.4607 3.437-3.3509 3.437z" stroke="url(#a)"/><circle fill="#FAE950" fill-rule="nonzero" opacity=".22" cx="55.5" cy="25.5" r="12.5"/><circle fill="#FFB363" fill-rule="nonzero" opacity=".51" cx="384" cy="118" r="15"/><circle fill="#FFB363" fill-rule="nonzero" opacity=".22" transform="rotate(-86.654 364.5 260.5)" cx="364.5" cy="260.5" r="19.5"/><circle fill="#FFC07D" fill-rule="nonzero" opacity=".51" cx="172.5" cy="127.5" r="12.5"/><circle fill="#FFFF68" fill-rule="nonzero" opacity=".51" cx="97.5" cy="306.5" r="9.5"/><circle fill="url(#b)" fill-rule="nonzero" transform="rotate(-86.654 341.5 208.5)" cx="341.5" cy="208.5" r="9.5"/><circle fill="#FAE950" fill-rule="nonzero" opacity=".3" transform="rotate(-86.654 313 323)" cx="313" cy="323" r="13"/><circle fill="#FFB363" fill-rule="nonzero" opacity=".83" cx="74.5" cy="53.5" r="5.5"/><circle fill="#FAE950" fill-rule="nonzero" opacity=".83" cx="376.5" cy="295.5" r="5.5"/><circle fill="url(#b)" fill-rule="nonzero" cx="122" cy="255" r="4"/><circle fill="#FAE950" fill-rule="nonzero" opacity=".46" cx="323.5" cy="21.5" r="13.5"/><circle fill="url(#b)" fill-rule="nonzero" cx="237" cy="94" r="4"/><circle fill="#FAE950" fill-rule="nonzero" opacity=".6" cx="74.5" cy="295.5" r="2.5"/><circle fill="#FAE950" fill-rule="nonzero" opacity=".6" cx="2.5" cy="156.5" r="2.5"/><circle fill="#FAE950" fill-rule="nonzero" cx="386.5" cy="235.5" r="2.5"/><circle fill="#FAE950" fill-rule="nonzero" opacity=".8" cx="213.5" cy="2.5" r="2.5"/><circle fill="#FAE950" fill-rule="nonzero" cx="353.5" cy="37.5" r="2.5"/><circle fill="#FAE950" fill-rule="nonzero" opacity=".8" cx="40.5" cy="59.5" r="2.5"/><circle fill="url(#b)" fill-rule="nonzero" cx="141.5" cy="110.5" r="2.5"/><circle fill="#FAE950" fill-rule="nonzero" opacity=".8" cx="219.5" cy="150.5" r="2.5"/><circle fill="url(#b)" fill-rule="nonzero" cx="261.5" cy="306.5" r="2.5"/><circle fill="#FAE950" fill-rule="nonzero" cx="226.5" cy="60.5" r="2.5"/><circle fill="#FAE950" fill-rule="nonzero" opacity=".8" cx="368.5" cy="89.5" r="2.5"/><circle fill="#FFC07D" fill-rule="nonzero" opacity=".72" cx="259.5" cy="14.5" r="8.5"/><path d="M301 78c-10.4896 0-19 8.5104-19 19s8.5104 19 19 19 19-8.5104 19-19-8.5104-19-19-19zm1.8802 21.573v5.9374c0 1.0886-.8906 1.8802-1.8802 1.8802-1.0885 0-1.8802-.8906-1.8802-1.8802V99.573c-.5938-.4948-.9896-1.2864-.9896-2.0781 0-1.5833 1.2865-2.8698 2.8698-2.8698 1.5833 0 2.8698 1.2865 2.8698 2.8698 0 .8906-.3958 1.5833-.9896 2.0781z" fill="#8DA057" fill-rule="nonzero" opacity=".29"/><path d="M308.6164 68H293.565C291.5844 68 290 69.6457 290 71.7029V86h3.0697V73.2457c0-1.0286.7922-1.8514 1.7825-1.8514h12.2789c.9902 0 1.7824.8228 1.7824 1.8514V86h3.0697V71.7029C312.1814 69.6457 310.597 68 308.6164 68z" fill="#8DA057" fill-rule="nonzero" opacity=".29"/><path d="M306.6269 65h-15.06C289.5853 65 288 66.6457 288 68.7029V83h3.0715V70.2457c0-1.0286.7926-1.8514 1.7834-1.8514h12.2858c.9908 0 1.7834.8228 1.7834 1.8514V83h3.0715V68.7029c.099-2.0572-1.4862-3.7029-3.3687-3.7029z" stroke="#FFB064" fill="#FFF" fill-rule="nonzero"/><path d="M299 77.5c-10.2134 0-18.5 8.2866-18.5 18.5s8.2866 18.5 18.5 18.5 18.5-8.2866 18.5-18.5-8.2866-18.5-18.5-18.5zm2.3802 21.2947v5.7157c0 1.3353-1.0836 2.3802-2.3802 2.3802-1.3353 0-2.3802-1.0836-2.3802-2.3802v-5.7157c-.6124-.5973-.9896-1.452-.9896-2.3 0-1.8594 1.5103-3.3697 3.3698-3.3697 1.8595 0 3.3698 1.5103 3.3698 3.3698 0 .848-.3772 1.7026-.9896 2.2999z" stroke="#FFB064" fill="url(#b)" fill-rule="nonzero"/><path d="M152.0146 239H50.9854C48.7934 239 47 237.1918 47 234.9817V133.0183c0-2.21 1.7934-4.0183 3.9854-4.0183h101.0292c2.192 0 3.9854 1.8082 3.9854 4.0183v101.863c0 2.3105-1.7934 4.1187-3.9854 4.1187z" fill="#FAE950" fill-rule="nonzero" opacity=".16"/><path d="M146.1104 232H44.9852C42.7934 232 41 230.2066 41 228.0146V126.9854c0-2.192 1.7934-3.9854 3.9852-3.9854h101.0256c2.1919 0 3.9852 1.7934 3.9852 3.9854v101.0292c.0997 2.192-1.6937 3.9854-3.8856 3.9854z" stroke="url(#a)"/><path d="M290.0146 286H188.9854c-2.192 0-3.9854-1.8082-3.9854-4.0183V180.0183c0-2.21 1.7934-4.0183 3.9854-4.0183h101.0292c2.192 0 3.9854 1.8082 3.9854 4.0183v101.863c0 2.3105-1.7934 4.1187-3.9854 4.1187z" fill="#FAE950" fill-rule="nonzero" opacity=".16"/><path d="M284.1104 279H182.9852c-2.1918 0-3.9852-1.7934-3.9852-3.9854V173.9854c0-2.192 1.7934-3.9854 3.9852-3.9854h101.0256c2.1919 0 3.9852 1.7934 3.9852 3.9854v101.0292c.0997 2.192-1.6937 3.9854-3.8856 3.9854z" stroke="url(#a)"/><path d="M190.819 106h-80.638c-1.7496 0-3.181-1.5945-3.181-3.5434V12.5434C107 10.5945 108.4314 9 110.181 9h80.638c1.7496 0 3.181 1.5945 3.181 3.5434v89.8246c0 2.0375-1.4314 3.632-3.181 3.632z" fill="#FAE950" fill-rule="nonzero" opacity=".16"/><path d="M185.8955 101h-80.7146C103.4314 101 102 99.404 102 97.4534V7.5466C102 5.596 103.4314 4 105.1809 4h80.635c1.7495 0 3.181 1.596 3.181 3.5466v89.9068c.0795 1.9506-1.352 3.5466-3.1014 3.5466z" stroke="url(#a)"/><circle fill="#8DA057" fill-rule="nonzero" opacity=".29" cx="75.5" cy="179.5" r="16.5"/><circle stroke="#FFB164" fill="url(#b)" fill-rule="nonzero" cx="74.5" cy="178.5" r="15"/><circle fill="#8DA057" fill-rule="nonzero" opacity=".29" cx="113.5" cy="159.5" r="7.5"/><circle stroke="#FFB063" fill="#FFF" fill-rule="nonzero" cx="112.5" cy="158.5" r="7.5"/><circle fill="#8DA057" fill-rule="nonzero" opacity=".29" cx="113.5" cy="197.5" r="7.5"/><circle stroke="#FFB063" fill="#FFF" fill-rule="nonzero" cx="112.5" cy="196.5" r="7.5"/><path d="M89 172l17-10M89 184l16 10" stroke="#FFB063"/><g fill-rule="nonzero"><path d="M147.5495 20c-14.5626 0-26.4504 11.8109-26.4504 26.5 0 6.9476 2.6747 13.2996 7.1327 18.0637-.6935 4.367-7.2318 6.749-7.2318 6.749 8.0243 2.1836 13.0766-.5955 14.2654-1.3895C138.9308 71.9082 143.0916 73 147.5495 73 162.1121 73 174 61.1891 174 46.5S162.1121 20 147.5495 20z" fill="#8DA057" opacity=".29"/><path d="M146.5495 17c-14.5626 0-26.4504 11.8109-26.4504 26.5 0 6.9476 2.6747 13.2996 7.1327 18.0637-.6935 4.367-7.2318 6.749-7.2318 6.749 8.0243 2.1836 13.0766-.5955 14.2654-1.3895C137.9308 68.9082 142.0916 70 146.5495 70 161.1121 70 173 58.1891 173 43.5S161.1121 17 146.5495 17z" stroke="#FFB164" fill="#FFF"/><path d="M159.9167 47.1618c.0985-.0995.197-.199.197-.3979 1.1818-2.0888 1.1818-4.8738 0-6.9626-2.4622-4.476-8.8637-4.9733-12.0152-.9947l-.0985.0995c-1.4773-1.8899-3.9394-3.0835-6.303-2.8845-2.3637.199-4.6288 1.6909-5.8106 3.7797-1.1819 2.0888-1.1819 4.8738 0 6.9626 1.2803 2.2877 3.3484 3.8792 5.2197 5.6696.7878.7957 1.5757 1.5914 2.3636 2.2877.2955.2984 4.4318 4.3765 4.5303 4.277 3.1515-2.984 6.2045-5.968 9.356-9.0514.985-.7957 1.8713-1.691 2.5607-2.785z" fill="#8DA057" opacity=".29"/><path d="M37.6136 27.762v-.1297l.0649-.1146c1.0953-1.936 1.0953-4.5342-.003-6.4754-2.2833-4.151-8.2472-4.6342-11.2217-.8839l-.0493.0498-.0492.0497-.3995.4035-.3497-.4474c-1.4056-1.798-3.72-2.8749-5.8672-2.6942-2.1856.184-4.3102 1.5708-5.4174 3.5277-1.0953 1.936-1.0953 4.5342.0012 6.4722.7986 1.427 1.7085 2.4086 3.8549 4.3708l.1273.1164c.5414.495.8271.7594 1.1565 1.0748.589.5949.8504.8568 1.1762 1.1755.4277.4185.8044.7723 1.1874 1.1122.2677.2703 1.4583 1.4384 2.3307 2.2795.5995.578 1.1033 1.0557 1.4746 1.3966.1283.1179.2395.2181.3321.2995 2.5202-2.39 4.7257-4.5304 9.0794-8.7871 1.0434-.843 1.8436-1.6974 2.4518-2.6627l.0678-.0852c.0387-.0392.0496-.0474.0522-.048z" stroke="#FFB063" fill="url(#b)" transform="translate(120 17)"/></g><path d="M258.9915 268h-42.983c-1.1047 0-2.0085-.9043-2.0085-2.0096v-79.9808c0-1.1053.9038-2.0096 2.0085-2.0096h42.983c1.1047 0 2.0085.9043 2.0085 2.0096v79.9808c0 1.1053-.9038 2.0096-2.0085 2.0096z" fill="#8DA057" fill-rule="nonzero" opacity=".29"/><path d="M255.9915 264h-42.983c-1.1047 0-2.0085-.9045-2.0085-2.01v-76.98c0-1.1055.9038-2.01 2.0085-2.01h42.983c1.1047 0 2.0085.9045 2.0085 2.01v76.98c0 1.1055-.9038 2.01-2.0085 2.01z" stroke="#FFB264" fill="#FFF" fill-rule="nonzero"/><path d="M253 254h-36c-1.1 0-2-.896-2-1.9912v-64.0176c0-1.0952.9-1.9912 2-1.9912h36c1.1 0 2 .896 2 1.9912v64.0176c0 1.0952-.9 1.9912-2 1.9912z" fill="url(#b)" fill-rule="nonzero"/><circle stroke="#FFB56D" fill="#FFF" fill-rule="nonzero" cx="235" cy="259" r="3"/><circle stroke="#FFB164" fill="#FFF" fill-rule="nonzero" transform="rotate(-86.654 234.5 215.5)" cx="234.5" cy="215.5" r="15.5"/><path d="M236.3676 207.8413l1.2156 3.7731c.2026.51.6078.9178 1.2156.9178h3.9507c1.2156 0 1.722 1.5297.709 2.2435l-3.2415 2.3455c-.4052.3059-.6078.9177-.5065 1.4276l1.2156 3.7732c.4052 1.1217-.9117 2.1415-1.9247 1.4276l-3.2416-2.3454c-.4052-.306-1.013-.306-1.5196 0l-3.2416 2.3454c-1.013.7139-2.3299-.204-1.9247-1.4276l1.2156-3.7732c.2026-.5099 0-1.1217-.5065-1.4276l-3.2416-2.3455c-1.013-.7138-.5065-2.2435.7091-2.2435h3.9507c.5065 0 1.013-.306 1.2156-.9178l1.2156-3.773c.7091-1.1218 2.4313-1.1218 2.7352 0z" fill="url(#b)" fill-rule="nonzero"/></g></svg>