<svg width="40" height="34" xmlns="http://www.w3.org/2000/svg"><script xmlns="" type="text/javascript" charset="utf-8" id="zm-extension"/><g transform="translate(0 1)" fill="none" fill-rule="evenodd"><path d="M38.444 32.8387H3.6c-.682 0-1.24-.5613-1.24-1.2473V3.6516c0-.686.558-1.2473 1.24-1.2473h34.782c.682 0 1.24.5613 1.24 1.2473v27.9398c.062.686-.496 1.2473-1.178 1.2473z" fill="#FAE950" fill-rule="nonzero" opacity=".16"/><path d="M35.964 30.843H2.36c-1.054 0-1.86-.8107-1.86-1.871V2.2796c0-1.0602.806-1.871 1.86-1.871h33.542c1.054 0 1.86.8108 1.86 1.871V28.972c.062.9979-.806 1.871-1.798 1.871z" stroke="#CFF17E" stroke-width=".62" fill="#FFF" fill-rule="nonzero"/><path d="M35.964 30.843H2.36c-1.054 0-1.86-.8107-1.86-1.871V2.2796c0-1.0602.806-1.871 1.86-1.871h33.542c1.054 0 1.86.8108 1.86 1.871V28.972c.062.9979-.806 1.871-1.798 1.871zM.624 5.3978h36.89" stroke="#FFB363"/><ellipse fill="#FAE950" fill-rule="nonzero" opacity=".16" cx="19.72" cy="17.871" rx="8.928" ry="8.9806"/><path d="M32.81 2.4043c-.372 0-.62.3118-.62.6237 0 .3118.31.6236.62.6236s.62-.3118.62-.6236c0-.3119-.248-.6237-.62-.6237z" fill="#FFB363" fill-rule="nonzero"/><path d="M30.81 2.4043c-.372 0-.62.3118-.62.6237 0 .3118.31.6236.62.6236s.62-.3118.62-.6236c0-.3119-.248-.6237-.62-.6237z" fill="#FAE950" fill-rule="nonzero"/><ellipse fill="#FFB363" fill-rule="nonzero" cx="34.848" cy="3.028" rx="1" ry="1"/><ellipse stroke="#FFB363" fill="#FFF27E" fill-rule="nonzero" cx="19.1" cy="17.3097" rx="8.37" ry="8.4194"/><path d="M19.968 13.942l.62 1.8709c.062.2495.31.4366.62.4366h1.984c.62 0 .868.8107.372 1.1225l-1.612 1.185c-.248.187-.31.4365-.248.686l.62 1.871c.186.5613-.496 1.0602-.992.686l-1.612-1.185c-.248-.187-.496-.187-.744 0l-1.55 1.3097c-.496.3742-1.178-.1247-.992-.686l.62-1.871c.062-.2494 0-.5612-.248-.686l-1.612-1.185c-.496-.3741-.248-1.1225.372-1.1225h1.984c.248 0 .496-.1871.62-.4366l.62-1.871c.186-.686.992-.686 1.178-.1247z" fill="#FFB363" fill-rule="nonzero" opacity=".16"/><path d="M19.72 13.1935l.62 1.9334c.062.2494.31.4365.62.4365h2.046c.62 0 .868.8108.372 1.185l-1.674 1.185c-.248.187-.31.4365-.248.7483l.62 1.9334c.186.6236-.496 1.1225-.992.7483l-1.674-1.185c-.248-.187-.558-.187-.744 0l-1.674 1.185c-.496.3742-1.178-.1247-.992-.7483l.62-1.9334c.062-.2494 0-.5613-.248-.7484l-1.674-1.185c-.496-.3741-.248-1.1849.372-1.1849h2.17c.248 0 .496-.187.62-.4365l.62-1.9334c.186-.5612 1.054-.5612 1.24 0z" fill="#FFB363" fill-rule="nonzero"/></g></svg>