<svg width="39" height="39" xmlns="http://www.w3.org/2000/svg"><script xmlns="" type="text/javascript" charset="utf-8" id="zm-extension"/><g transform="translate(1 1)" fill="none" fill-rule="evenodd"><path d="M35.3818 38H4.6182C3.1782 38 2 36.8218 2 35.3818V4.6182C2 3.1782 3.1782 2 4.6182 2h30.7636C36.8218 2 38 3.1782 38 4.6182v30.7636C38 36.8218 36.8218 38 35.3818 38z" fill="#FAE950" fill-rule="nonzero"/><path d="M33.3818 36H2.6182C1.1782 36 0 34.8218 0 33.3818V2.6182C0 1.1782 1.1782 0 2.6182 0h30.7636C34.8218 0 36 1.1782 36 2.6182v30.7636C36 34.8218 34.8218 36 33.3818 36z" stroke="#FFB363" fill="#FFF" fill-rule="nonzero"/><circle fill="#FAE950" fill-rule="nonzero" opacity=".16" cx="14.5" cy="25.5" r="8.5"/><ellipse stroke="#FFB363" fill="#FFF27E" fill-rule="nonzero" cx="13.5" cy="25" rx="7.5" ry="8"/><circle fill="#FAE950" fill-rule="nonzero" opacity=".16" cx="28.5" cy="19.5" r="2.5"/><circle fill="#FAE950" fill-rule="nonzero" opacity=".16" cx="11" cy="10" r="3"/><circle fill="#FFEC3E" fill-rule="nonzero" opacity=".16" cx="25.5" cy="9.5" r="3.5"/><path d="M24 12l-6 6M11 12l1 5M20 20l6-1" stroke="#FFB363"/><circle stroke="#FFB363" fill="#FFFAD2" fill-rule="nonzero" opacity=".77" cx="10.5" cy="9.5" r="2.5"/><circle stroke="#FFB363" fill="#FFFAD2" fill-rule="nonzero" opacity=".77" cx="25" cy="9" r="3"/><g opacity=".16" fill-rule="nonzero"><path d="M9.8765 23c-1.3589.6667-1.9412 2.4-1.2294 3.8.7117 1.4 2.3294 2 3.6882 1.2667 1.3588-.6667 1.9412-2.4 1.2294-3.8-.647-1.4-2.3294-1.9334-3.6882-1.2667zm.7764 3.7333c-.4529.2-.9058 0-1.1647-.4-.194-.4666 0-.9333.3883-1.2.453-.2.9059 0 1.1647.4.194.4667 0 1-.3883 1.2z" fill="#FAE950"/><path fill="#8DA057" d="M12.115 24.6119l5.598-2.6922.6646 1.3818-5.5981 2.6922z"/><path fill="#8DA057" d="M13.9115 22.9452l1.2829-.617.4911 1.0213-1.2828.617zM15.6445 22.0624l1.1079-.5328.4912 1.0213-1.108.5328z"/></g><g fill="#FFB363" fill-rule="nonzero"><path d="M9.5 22.4636c-1.3125.6364-1.875 2.291-1.1875 3.6273C9 27.4273 10.5625 28 11.875 27.3c1.3125-.6364 1.875-2.291 1.1875-3.6273s-2.25-1.909-3.5625-1.209zm.6875 3.5637c-.4375.1909-.875 0-1.125-.3818-.1875-.4455 0-.891.375-1.1455.4375-.191.875 0 1.125.3818.25.4455.0625.9546-.375 1.1455z"/><path d="M11.5876 23.9664l5.4072-2.6004.6343 1.319-5.4072 2.6004z"/><path d="M13.2373 22.255l1.2392-.5959.5516 1.147-1.2392.5959zM15.0228 21.5779l1.0702-.5147.4689.975-1.0702.5146z"/></g><circle stroke="#FFB363" fill="#FFFAD2" fill-rule="nonzero" opacity=".77" cx="28" cy="19" r="2"/></g></svg>