<?xml version="1.0" encoding="UTF-8"?>
<svg width="97px" height="164px" viewBox="0 0 97 164" version="1.1" xmlns="http://www.w3.org/2000/svg" xmlns:xlink="http://www.w3.org/1999/xlink"><script xmlns="" type="text/javascript" charset="utf-8" id="zm-extension"/>
    <!-- Generator: Sketch 49 (51002) - http://www.bohemiancoding.com/sketch -->
    <title>Icecreams</title>
    <desc>Created with Sketch.</desc>
    <defs>
        <linearGradient x1="43.1793906%" y1="8.6802974%" x2="50.0821086%" y2="100.156134%" id="linearGradient-1">
            <stop stop-color="#CC9933" offset="0%"/>
            <stop stop-color="#FFEC5E" offset="100%"/>
        </linearGradient>
        <linearGradient x1="47.1032258%" y1="109.531073%" x2="70.1806452%" y2="-12.3573446%" id="linearGradient-2">
            <stop stop-color="#F24680" offset="0%"/>
            <stop stop-color="#FF7EB7" offset="100%"/>
        </linearGradient>
    </defs>
    <g id="Page-1" stroke="none" stroke-width="1" fill="none" fill-rule="evenodd">
        <g id="Artboard-6-Copy-2" transform="translate(-1099.000000, -6117.000000)">
            <g id="AD-Copy" transform="translate(-81.000000, 6097.000000)">
                <g id="Group-10">
                    <g id="Icecreams" transform="translate(1230.489732, 106.622812) scale(-1, 1) rotate(19.000000) translate(-1230.489732, -106.622812) translate(1163.989732, 17.622812)">
                        <g id="icecream-copy" transform="translate(66.329285, 99.523320) rotate(-23.000000) translate(-66.329285, -99.523320) translate(23.329285, 32.523320)">
                            <path d="M43.7303072,91.4872969 C49.9826698,91.4872969 49.7987768,96.2272938 50.9021349,101.59929 L54.9477813,124.351276 C55.8672464,129.565272 49.9826698,133.989269 43.7303072,133.989269 C37.4779446,133.989269 31.7772611,129.723272 32.3289401,124.351276 L35.0873354,101.59929 C35.6390144,96.2272938 37.4779446,91.4872969 43.7303072,91.4872969 Z" id="Shape" fill="url(#linearGradient-1)"/>
                            <path d="M27.5215287,0.473889058 C38.1631865,-0.157963019 48.6213674,-0.157963019 59.0795483,0.473889058 C72.2898821,1.26370415 82.748063,10.7414853 83.1150168,23.3785268 L85.3167391,107.730779 C85.3167391,109.784298 83.6654473,111.205966 81.463725,111.363929 C55.7769649,111.995781 29.723251,111.995781 3.66953716,111.363929 C1.65129172,111.363929 0,109.784298 0,107.888742 L3.48606031,23.3785268 C4.03649088,10.7414853 14.3111949,1.26370415 27.5215287,0.473889058 Z" id="Shape" fill="url(#linearGradient-2)"/>
                            <ellipse id="Oval" fill="#FFFFFF" cx="23.4850378" cy="70.0562175" rx="10.8251346" ry="4.14214139"/>
                            <ellipse id="Oval" fill="#FFFFFF" cx="62.5656086" cy="70.0562175" rx="10.8251346" ry="4.14214139"/>
                            <ellipse id="Oval" fill="#1A1A1A" cx="23.6685147" cy="69.8761244" rx="4.58692145" ry="3.96204829"/>
                            <ellipse id="Oval" fill="#1A1A1A" cx="62.5656086" cy="69.8761244" rx="4.58692145" ry="3.96204829"/>
                            <path d="M36.7635937,89.713173 C37.3140243,93.9518487 39.6992235,97.2485965 43.3687606,97.0916085 C46.8548209,97.0916085 50.1574044,95.9926926 51.2582655,90.027149" id="Shape" stroke="#000000" stroke-width="2.2" stroke-linecap="round" stroke-linejoin="round"/>
                            <path d="M64.4003772,75.4590106 C69.1707755,75.4590106 73.0237896,76.5713504 73.0237896,78.1604072 C73.0237896,79.5905583 69.1707755,80.8618037 64.4003772,80.8618037 C59.8134558,80.8618037 55.9604417,79.5905583 55.9604417,78.1604072 C55.9604417,76.5713504 59.8134558,75.4590106 64.4003772,75.4590106 Z" id="Shape" fill-opacity="0.290196" fill="#FF99CC"/>
                            <path d="M21.8337461,75.4590106 C26.6041444,75.4590106 30.2736816,76.5713504 30.2736816,78.1604072 C30.2736816,79.5905583 26.6041444,80.8618037 21.8337461,80.8618037 C17.0633478,80.8618037 13.2103338,79.5905583 13.2103338,78.1604072 C13.2103338,76.5713504 17.0633478,75.4590106 21.8337461,75.4590106 Z" id="Shape" fill-opacity="0.290196" fill="#FF99CC"/>
                            <path d="M6.85094129,39.7996558 C3.73540055,39.9575808 7.5840097,19.7431807 10.1497491,14.3737306 C12.3489544,9.95183061 18.3967687,5.84578059 24.6278502,4.10860558 C36.7234789,0.792180561 52.3011826,2.84520557 61.2812706,4.58238058 C35.6238763,5.21408058 10.3330162,-1.57669445 6.85094129,39.7996558 Z" id="Shape" fill="#FFACD0"/>
                        </g>
                        <path d="M94.5473355,34.212735 C96.0841951,31.7085245 97.7350213,31.3372864 99.4998141,33.0990206 C101.271532,34.867668 99.620706,37.6515665 94.5473355,41.450716 L94.5473355,41.4655093 C94.5440657,41.4630246 94.5407974,41.4605404 94.5375304,41.4580565 C94.5321458,41.4620866 94.5267573,41.4661179 94.521365,41.4701503 L94.521365,41.4457606 C89.5331139,37.6498635 87.9248217,34.8676168 89.6964884,33.0990206 C91.4712261,31.3273587 93.0881751,31.6976852 94.5473355,34.2100002 L94.5473355,34.212735 Z" id="Combined-Shape" fill="#FA69A3"/>
                        <path d="M68.7481238,5.48388578 C72.5569679,-0.722372286 76.6482588,-1.64242259 81.0219963,2.72373485 C85.4128969,7.10702556 81.3216061,14.0064425 68.7481238,23.4219857 L68.7481238,23.4586484 C68.7400202,23.4524906 68.73192,23.4463337 68.7238235,23.440178 C68.7104787,23.4501659 68.6971243,23.4601567 68.6837604,23.4701503 L68.6837604,23.4097047 C56.3212318,14.0022218 52.3353542,7.10689849 56.7261275,2.72373485 C61.1245118,-1.66702661 65.1318439,-0.749235497 68.7481238,5.47710818 L68.7481238,5.48388578 Z" id="Combined-Shape-Copy-2" fill="#FA69A3"/>
                    </g>
                </g>
            </g>
        </g>
    </g>
</svg>