<svg width="38" height="38" xmlns="http://www.w3.org/2000/svg" xmlns:xlink="http://www.w3.org/1999/xlink"><script xmlns="" type="text/javascript" charset="utf-8" id="zm-extension"/><defs><path id="a" d="M38.008 38.048V.045H0v38.003z"/></defs><g fill="none" fill-rule="evenodd"><g transform="translate(0 -.093)"><mask id="b" fill="#fff"><use xlink:href="#a"/></mask><path d="M15.368 1.358l-.19-.932a19.149 19.149 0 0 1 3.806-.382l.068.952c-1.284 0-2.5.121-3.684.362zm10.884 1.159a17.938 17.938 0 0 0-3.522-1.133l.196-.93a18.84 18.84 0 0 1 3.708 1.191l-.382.872zM8.609 4.269l-.546-.78a19.107 19.107 0 0 1 3.399-1.899l.376.873a18.132 18.132 0 0 0-3.23 1.806zM32.246 6.79a18.146 18.146 0 0 0-2.778-2.444l.553-.775a19.18 19.18 0 0 1 2.923 2.573l-.698.646zM3.566 9.633l-.81-.498A19.15 19.15 0 0 1 5.121 6.04l.693.652a18.184 18.184 0 0 0-2.248 2.94zm32.48 3.461a18.095 18.095 0 0 0-1.575-3.347l.814-.49a18.904 18.904 0 0 1 1.659 3.523l-.897.314zM1.084 16.56l-.942-.129c.179-1.289.49-2.562.93-3.784l.895.322a18.066 18.066 0 0 0-.883 3.591zm36.53 6.382l-.93-.193a18.225 18.225 0 0 0 .219-6.055l.943-.123a19.182 19.182 0 0 1-.231 6.371zM.648 24.162A19.096 19.096 0 0 1 0 20.32l.95-.062a18.09 18.09 0 0 0 .615 3.648l-.917.255zm33.874 5.886l-.776-.55a18.064 18.064 0 0 0 1.817-3.223l.872.38a19.031 19.031 0 0 1-1.913 3.393zm-30.32 1a19.127 19.127 0 0 1-2.132-3.26l.846-.437a18.1 18.1 0 0 0 2.025 3.096l-.738.6zm24.654 4.287l-.494-.813a18.265 18.265 0 0 0 2.949-2.235l.648.694a19.128 19.128 0 0 1-3.103 2.354zm-18.654.615c-1.15-.6-2.244-1.32-3.252-2.145l.602-.735a18.218 18.218 0 0 0 3.09 2.036l-.44.844zm11.351 1.97l-.127-.943a17.982 17.982 0 0 0 3.594-.869l.318.898c-1.222.433-2.496.74-3.785.914zm-3.892.128a18.96 18.96 0 0 1-3.838-.663l.257-.916c1.186.334 2.413.546 3.646.63l-.065.95z" fill="#FEDD00" mask="url(#b)"/></g><path d="M18.983 4.47c-7.998 0-14.506 6.507-14.506 14.506 0 7.998 6.508 14.506 14.506 14.506 8 0 14.507-6.508 14.507-14.506 0-8-6.508-14.506-14.507-14.506m0 29.963c-8.522 0-15.457-6.934-15.457-15.457S10.461 3.518 18.983 3.518c8.523 0 15.458 6.935 15.458 15.458s-6.935 15.457-15.458 15.457" fill="#FEDD00"/><path d="M10.903 16.227a.231.231 0 0 0-.23.167.232.232 0 0 0 .089.27l4.15 3.016c.42.305.593.842.433 1.333l-1.585 4.88a.23.23 0 0 0 .087.27.23.23 0 0 0 .285 0l4.15-3.016c.42-.304.982-.303 1.402-.001l4.151 3.016c.13.093.242.03.285 0a.23.23 0 0 0 .087-.27l-1.586-4.879a1.192 1.192 0 0 1 .433-1.333l4.151-3.016a.232.232 0 0 0 .089-.27.231.231 0 0 0-.23-.167h-5.13a1.19 1.19 0 0 1-1.135-.824l-1.586-4.88a.232.232 0 0 0-.23-.167.233.233 0 0 0-.23.167l-1.585 4.88a1.19 1.19 0 0 1-1.134.824h-5.13zm3.087 10.937a1.19 1.19 0 0 1-.701-.231 1.175 1.175 0 0 1-.434-1.334l1.586-4.879a.243.243 0 0 0-.089-.272l-4.15-3.014a1.175 1.175 0 0 1-.433-1.335c.163-.5.608-.823 1.134-.823h5.131a.24.24 0 0 0 .23-.167l1.585-4.88a1.175 1.175 0 0 1 1.135-.824c.526 0 .971.323 1.135.824l1.584 4.88a.24.24 0 0 0 .23.167h5.13c.527 0 .973.323 1.135.823a1.176 1.176 0 0 1-.433 1.335l-4.15 3.014a.241.241 0 0 0-.088.272l1.585 4.88c.162.5-.008 1.024-.434 1.333a1.176 1.176 0 0 1-1.402-.001l-4.15-3.015a.24.24 0 0 0-.286 0l-4.149 3.015a1.189 1.189 0 0 1-.701.232z" fill="#FEDD00"/></g></svg>