<svg width="61" height="61" xmlns="http://www.w3.org/2000/svg"><script xmlns="" type="text/javascript" charset="utf-8" id="zm-extension"/><g fill="#FFF"><path d="M30.5 0C13.682 0 0 13.682 0 30.5 0 47.318 13.682 61 30.5 61 47.318 61 61 47.318 61 30.5 61 13.682 47.318 0 30.5 0zm0 54.51c-13.24 0-24.01-10.77-24.01-24.01 0-13.24 10.77-24.01 24.01-24.01 13.24 0 24.01 10.77 24.01 24.01 0 13.24-10.77 24.01-24.01 24.01z"/><path d="M43.635 30.817H30.73V17.092c0-1.156-1.059-2.092-2.364-2.092-1.306 0-2.365.936-2.365 2.092v15.816C26 34.064 27.059 35 28.365 35h15.27C44.941 35 46 34.064 46 32.908c0-1.155-1.059-2.091-2.365-2.091z"/></g></svg>