<svg width="140" height="140" xmlns="http://www.w3.org/2000/svg" xmlns:xlink="http://www.w3.org/1999/xlink"><script xmlns="" type="text/javascript" charset="utf-8" id="zm-extension"/><defs><circle id="b" cx="40" cy="40" r="40"/><filter x="-59.4%" y="-56.9%" width="218.8%" height="218.8%" filterUnits="objectBoundingBox" id="a"><feOffset dy="2" in="SourceAlpha" result="shadowOffsetOuter1"/><feGaussianBlur stdDeviation="15.5" in="shadowOffsetOuter1" result="shadowBlurOuter1"/><feColorMatrix values="0 0 0 0 0.670758929 0 0 0 0 0.670758929 0 0 0 0 0.670758929 0 0 0 0.5 0" in="shadowBlurOuter1"/></filter></defs><g fill="none" fill-rule="evenodd"><g transform="translate(30 28)"><use fill="#000" filter="url(#a)" xlink:href="#b"/><use fill="#FFF" xlink:href="#b"/></g><g fill="#0097A7"><path d="M80.61 61c-.767 0-1.388.626-1.388 1.397v8.38c0 5.391-4.361 9.777-9.722 9.777s-9.722-4.386-9.722-9.777v-8.38c0-.772-.623-1.397-1.39-1.397-.766 0-1.388.626-1.388 1.397v8.38c0 6.46 4.87 11.794 11.11 12.491V91h2.78v-7.732C77.13 82.571 82 77.236 82 70.778v-8.381c0-.771-.622-1.397-1.39-1.397z"/><path d="M70 79c4.41 0 8-3.639 8-8.11V54.11c0-4.47-3.59-8.11-8-8.11s-8 3.638-8 8.11v16.78c0 4.472 3.59 8.11 8 8.11z"/></g></g></svg>