<svg width="48" height="39" xmlns="http://www.w3.org/2000/svg"><script xmlns="" type="text/javascript" charset="utf-8" id="zm-extension"/><g fill="#FEDD00" fill-rule="evenodd"><path d="M45.604 38.012h-2.318v-.927h1.39v-1.39h.928zm-9.347 0h3.514v-.927h-3.514v.927zm-7.03 0h3.516v-.927h-3.515v.927zm-7.027 0h3.515v-.927H22.2v.927zm-7.03 0h3.515v-.927h-3.514v.927zm-7.028 0h3.515v-.927H8.142v.927zm-3.514 0H2.311v-2.317h.927v1.39h1.39zM2.31 11.177h.928V7.675H2.31v3.502zm0 7.005h.928v-3.501H2.31v3.501zm0 7.005h.928v-3.502H2.31v3.502zm0 7.006h.928v-3.502H2.31v3.502zm.928-28.021H2.31V1.854h2.317v.927h-1.39zM36.257 2.78h3.515v-.926h-3.515v.927zm-7.028 0h3.515v-.926h-3.515v.927zm-7.029 0h3.515v-.926H22.2v.927zm-7.028 0h3.514v-.926h-3.514v.927zm-7.029 0h3.514v-.926H8.143v.927zm37.461 1.392h-.927v-1.39h-1.391v-.928h2.318zm-.927 7.004h.927V7.674h-.927v3.502zm0 7.006h.927V14.68h-.927v3.502zm0 7.004h.927v-3.502h-.927v3.502zm0 7.006h.927v-3.501h-.927v3.501z"/><path d="M0 4.694h4.693V0H0zm42.648 0h4.693V0h-4.693zm0 34.303h4.693v-4.693h-4.693zm-41.721 0H5.62v-4.693H.927zm23.706-20.586a2.24 2.24 0 0 0-1.592.659 2.253 2.253 0 1 0 3.184 0 2.24 2.24 0 0 0-1.592-.659m0 5.428c-.814 0-1.628-.31-2.247-.93a3.182 3.182 0 0 1 0-4.495 3.183 3.183 0 0 1 4.494 0 3.182 3.182 0 0 1 0 4.496 3.17 3.17 0 0 1-2.247.929"/><path d="M22.257 18.941l-7.17-7.169.656-.655 7.17 7.169z"/><path d="M26.64 26.11l2.09 2.09 3.44-3.442-2.088-2.089 1.659-5.637-16.108-5.37 5.37 16.107 5.638-1.658zm2.09 3.4l-2.356-2.354-5.968 1.756-6.24-18.714 18.716 6.236-1.755 5.97 2.355 2.354-4.753 4.753z"/></g></svg>