<svg width="103" height="103" xmlns="http://www.w3.org/2000/svg" xmlns:xlink="http://www.w3.org/1999/xlink"><script xmlns="" type="text/javascript" charset="utf-8" id="zm-extension"/><defs><circle id="b" cx="21.5" cy="21.5" r="21.5"/><filter x="-110.5%" y="-105.8%" width="320.9%" height="320.9%" filterUnits="objectBoundingBox" id="a"><feOffset dy="2" in="SourceAlpha" result="shadowOffsetOuter1"/><feGaussianBlur stdDeviation="15.5" in="shadowOffsetOuter1" result="shadowBlurOuter1"/><feColorMatrix values="0 0 0 0 0.670758929 0 0 0 0 0.670758929 0 0 0 0 0.670758929 0 0 0 0.5 0" in="shadowBlurOuter1"/></filter></defs><g fill="none" fill-rule="evenodd"><g transform="translate(30 28)"><use fill="#000" filter="url(#a)" xlink:href="#b"/><use fill="#FFF" xlink:href="#b"/></g><path d="M51.95 40.287l2.416 5.498 6.187.511c.43.036.604.55.278.822l-4.693 3.908 1.407 5.814c.097.404-.358.722-.727.508L51.5 54.265l-5.318 3.083c-.37.213-.824-.105-.726-.508l1.406-5.814-4.694-3.91c-.326-.27-.152-.785.278-.82l6.187-.512 2.417-5.497c.168-.383.73-.383.898 0z" fill-rule="nonzero" fill="#0097A7"/></g></svg>