<svg width="58" height="51" xmlns="http://www.w3.org/2000/svg"><script xmlns="" type="text/javascript" charset="utf-8" id="zm-extension"/><path d="M52.55 4.774C49.386 1.673 45.13-.044 40.633.001 36.12.023 31.876 1.757 28.69 4.882l-14.716 14.43-10.197 9.996c-4.957 4.862-5.046 12.684-.2 17.435 2.388 2.342 5.535 3.507 8.706 3.507a12.95 12.95 0 0 0 9.073-3.702l18.6-18.237c.003-.002.003-.005.006-.006l6.41-6.285c1.668-1.635 2.604-3.801 2.634-6.1a8.293 8.293 0 0 0-2.501-6.092c-3.39-3.326-8.968-3.27-12.436.127l-22.477 22.04a1.664 1.664 0 0 0 0 2.39c.336.328.776.493 1.218.493.441 0 .882-.165 1.218-.494l22.477-22.04c2.121-2.082 5.515-2.14 7.564-.13a4.977 4.977 0 0 1 1.492 3.66 5.337 5.337 0 0 1-1.624 3.755l-6.64 6.512c-.002.002-.002.004-.005.006L18.92 44.159c-3.613 3.543-9.404 3.63-12.908.196-3.504-3.436-3.415-9.115.2-12.66l1.146-1.123c0-.003.004-.003.006-.005L31.126 7.27c2.54-2.492 5.924-3.875 9.525-3.892 3.587.024 6.956 1.326 9.464 3.785 5.204 5.104 5.155 13.458-.112 18.621L30.46 44.945a1.663 1.663 0 0 0 0 2.387c.336.33.777.495 1.218.495.441 0 .881-.165 1.218-.495L52.439 28.17c6.61-6.479 6.659-16.975.11-23.396z" fill="#FFF" fill-rule="evenodd"/></svg>