<svg width="132" height="132" xmlns="http://www.w3.org/2000/svg" xmlns:xlink="http://www.w3.org/1999/xlink"><script xmlns="" type="text/javascript" charset="utf-8" id="zm-extension"/><defs><circle id="b" cx="36" cy="36" r="36"/><filter x="-66%" y="-63.2%" width="231.9%" height="231.9%" filterUnits="objectBoundingBox" id="a"><feOffset dy="2" in="SourceAlpha" result="shadowOffsetOuter1"/><feGaussianBlur stdDeviation="15.5" in="shadowOffsetOuter1" result="shadowBlurOuter1"/><feColorMatrix values="0 0 0 0 0.670758929 0 0 0 0 0.670758929 0 0 0 0 0.670758929 0 0 0 0.5 0" in="shadowBlurOuter1"/></filter></defs><g fill="none" fill-rule="evenodd"><g transform="translate(30 28)"><use fill="#000" filter="url(#a)" xlink:href="#b"/><use fill="#FFF" xlink:href="#b"/></g><path d="M80.35 73.938l-4.479-4.49c-.892-.89-2.369-.863-3.292.062l-2.257 2.261c-.142-.078-.29-.16-.445-.248-1.425-.791-3.375-1.876-5.427-3.934-2.058-2.063-3.141-4.02-3.933-5.45-.084-.15-.164-.297-.243-.435l1.515-1.516.744-.747c.925-.927.95-2.407.06-3.3l-4.478-4.49c-.89-.891-2.368-.864-3.293.062l-1.262 1.273.034.034a7.32 7.32 0 0 0-1.04 1.839 7.638 7.638 0 0 0-.462 1.865c-.592 4.914 1.648 9.404 7.728 15.498 8.405 8.423 15.178 7.787 15.47 7.756a7.553 7.553 0 0 0 1.866-.47 7.27 7.27 0 0 0 1.828-1.038l.028.024 1.278-1.254c.923-.927.95-2.408.06-3.302z" fill="#0097A7" fill-rule="nonzero"/></g></svg>