<svg width="47" height="39" xmlns="http://www.w3.org/2000/svg" xmlns:xlink="http://www.w3.org/1999/xlink"><script xmlns="" type="text/javascript" charset="utf-8" id="zm-extension"/><defs><path id="a" d="M0 39h46.696V0H0z"/></defs><g fill="none" fill-rule="evenodd"><path d="M0 39h46.696V0H0v39zm1-1h44.696V1H1v37z" fill="#FEDD00"/><path fill="#FEDD00" d="M.595 8h45.506V6.999H.595zm22.319 23.5c-6.812 0-12.668-6.815-13.622-15.854l.994-.105c.9 8.528 6.33 14.959 12.628 14.959 6.3 0 11.728-6.431 12.628-14.959l.994.105c-.954 9.039-6.81 15.854-13.622 15.854z"/><mask id="b" fill="#fff"><use xlink:href="#a"/></mask><path fill="#FEDD00" mask="url(#b)" d="M21.039 32.281h3.75v-3.75h-3.75zm13.125-13.875h3.75v-3.75h-3.75zm-26.25-.937h3.75v-3.75h-3.75z"/></g></svg>