<svg id="idap_x5F_line" xmlns="http://www.w3.org/2000/svg" viewBox="0 0 68 68"><script xmlns="" type="text/javascript" charset="utf-8" id="zm-extension"/><style>.st2{fill:#262626}</style><path fill="#fff0d9" d="M0 0h68v68H0z" id="bg"/><g id="icon_x5F_idap_x5F_line"><circle cx="34.2" cy="34.2" r="21.8" fill="none" stroke="#fbd900" stroke-miterlimit="10"/><path class="st2" d="M40.7 34.2c-.1-.7-.1-1.3-.2-2-.1-1.1-.2-2.3-.4-3.4-.1-.4-.2-.8-.4-1.2-.1-.3-.4-.4-.6-.2-.5.3-.9.6-1.1 1.1-.2.9-.5 1.7-.6 2.6-.2 1-.2 2-.3 3 0 .2 0 .3.2.3.4 0 .8 0 1.2.1.6 0 1.2 0 1.9.1.2 0 .3-.1.3-.4zM37 38.1c.1 1 0 2 .3 3v.4c0 .1-.1.3-.2.3-.4.1-.8.2-1.2.2-.6-.1-.9-.3-.9-.9 0-.4-.1-.8-.1-1.2 0-1.7 0-3.4.1-5.1.1-1.2.3-2.3.5-3.4.2-1 .4-2 .7-3 .1-.5.4-1 .7-1.4.5-.9 1.4-1.2 2.5-1 .2 0 .3.1.5.1.8.2 1.2.7 1.5 1.4.4 1.1.6 2.2.7 3.3.1 1 .1 1.9.2 2.9 0 1.1.1 2.2.1 3.2 0 1.7 0 3.4-.1 5.1 0 .5-.4.8-.9.7-.4 0-.7-.2-.9-.5-.1-.1 0-.4 0-.4.1-.6.1-1.2.2-1.7v-2.5c0-.3-1.4-.4-2-.4H37c-.1-.1 0 .3 0 .9zM22.6 39.3c-.1-3.3-.3-6.6-.4-9.9 0-.2.1-1.5.1-1.8 0-.2-.1-.4-.1-.5-.1-.2-.2-.2-.5-.1-.8.3-1.5 0-1.7-.6v-.1c-.2-.9.2-1.2 1.5-1.2 1 0 1.9-.1 2.9-.1H26c.5 0 .9.3.8.9-.1.7-.8.9-1 .9-.1 0-.6 0-.8.4-.2.4-.1 1-.1 1.1 0 2.2 0 3.9.1 6.1.1 1.9-.1 3.2 0 5.1 0 .7-.1 1.4 0 2v.3c.1 0 1.4-.1 2 .3.6.4.3 1 .1 1.1-.4.3-1 .5-1.7.4s-1.4 0-2.1 0c-.4 0-.9.1-1.3.1-.8.1-1.3-.3-1.4-.8v-.2c0-.4.1-.6.8-.6.4 0 .8-.1 1.3-.1 0-1 0-1.8-.1-2.7zM45.1 32.7s.2 0 .3-.1c.3-.1.6-.3.9-.4 1.5-.8 2.4-2.7 2.1-4.4-.1-.7-.5-1.2-1.2-1.4-.4-.1-.9-.1-1.3 0-.3.1-.4.2-.4.4s-.1.5-.1.7l-.3 3.6c-.1.7 0 1.1 0 1.6zm2.7-7.6c.8.2 2.2 1.3 2.4 2.6.1.5.1 1.1 0 1.8-.2 1.2-.7 2.4-1.3 3.4-1 1.4-2.5 1.8-3.1 2.2s-.4 1.7-.4 3V43c0 .5-.6.7-1.1.7-.2 0-.4 0-.7-.1-.4-.1-.5-.3-.4-.7v-1.4c-.1-2.1 0-4.3.2-6.4.1-1.2.1-2.5.2-3.7.1-1 .3-3.7.3-4.1 0-.5 0-.4.1-.8.1-.6.2-1.2.8-1.3.5-.2 2.1-.3 3-.1zM34.2 37c-.1.6-.3 1.1-.4 1.7 0 .1-.4.9-.9 1.5s-1.1 1-1.4 1.2c-.5.3-.9.6-1.5.7-.5.1-2 .3-2.4-.7s-.1-7.8 0-9.1c.1-1.9 0-6.3.3-6.6.3-.3.5-.2.8-.2.7 0 1.5.1 2.2.2.9.2 1.5.7 2.1 1.3.6.7 1.1 1.5 1.4 2.4.1.4.6.9.5 3.6-.2 2.7-.6 3.4-.7 4zm-1.6-3.4v-.7-.8c0-.6 0-1.2-.1-1.8-.1-.7-.3-1.3-.6-1.9-.2-.5-.5-.9-.8-1s-.6-.1-.9-.2c-.1 0-.2.1-.3.2v.5c-.1 1.5 0 3-.1 4.5V39.5c0 .4.1.7.3.7.2 0 .4-.1.6-.2.2-.1.4-.3.6-.6s.5-.7.6-1.2c0-.2.1-.3.2-.4.1-.2.1-.3.1-.5.1-.4.1-.9.2-1.3 0-.6.1-1.5.2-2.4z"/></g></svg>