<?xml version="1.0" encoding="UTF-8"?>
<!-- Generator: Adobe Illustrator 22.1.0, SVG Export Plug-In . SVG Version: 6.00 Build 0)  -->
<svg version="1.1" id="Layer_1" xmlns="http://www.w3.org/2000/svg" xmlns:xlink="http://www.w3.org/1999/xlink" x="0px" y="0px" viewBox="0 0 600 400" style="enable-background:new 0 0 600 400;" xml:space="preserve"><script xmlns="" type="text/javascript" charset="utf-8" id="zm-extension"/>
<style type="text/css">
	.st0{fill:#FFC0D4;}
	.st1{fill:url(#SVGID_1_);}
	.st2{fill:url(#SVGID_2_);}
	.st3{fill:url(#SVGID_3_);}
	.st4{fill:#FFDB5A;}
	.st5{fill:#1A96EF;}
	.st6{fill:url(#SVGID_4_);}
	.st7{fill:url(#SVGID_5_);}
	.st8{fill:#FFDCE9;}
	.st9{fill:#1F489B;}
	.st10{fill:#FFFFFF;stroke:#1A96EF;stroke-width:4.64;stroke-miterlimit:10;}
	.st11{enable-background:new    ;}
	.st12{fill:#FFFFFF;stroke:#1A96EF;stroke-width:4.01;stroke-miterlimit:10;}
</style>
<title>IT Outsourcing Trends</title>
<g id="Layer_4">
	<path class="st0" d="M145,173.2c9.6-3.9,32.8,22.2,39.2,48.6c0.3,1.4-5.4,2.9-5.2,4.3s5.9,0.7,6,2c0.5,12.5-4.9,24.9-17.8,24.1   c-12.4-0.9-39.3-24.3-41.8-43.8C123.4,192.8,128.6,179.8,145,173.2z"/>
	
		<linearGradient id="SVGID_1_" gradientUnits="userSpaceOnUse" x1="-27.6856" y1="288.798" x2="133.0745" y2="199.788" gradientTransform="matrix(1 0 0 -1 0 400)">
		<stop offset="0" style="stop-color:#DFB5FF"/>
		<stop offset="8.000000e-02" style="stop-color:#D2AEF8"/>
		<stop offset="0.22" style="stop-color:#B19BE7"/>
		<stop offset="0.42" style="stop-color:#7B7CCB"/>
		<stop offset="0.65" style="stop-color:#3152A5"/>
		<stop offset="0.7" style="stop-color:#1F489B"/>
	</linearGradient>
	<path class="st1" d="M37.8,177.6c-16.3-5-55.9,1.1-21.5-25c30.5-23,44.3,10.4,67.4,19.8s78.9-9,82.5,5.8   c1.4,5.8-5.8,14.1-16.6,21.6c-14.5,10-6.7,37.9-6.7,37.9c-29.9,4.8-40-58.1-56.1-50.3C45.3,207.5,61.7,185,37.8,177.6z"/>
	
		<linearGradient id="SVGID_2_" gradientUnits="userSpaceOnUse" x1="226.8594" y1="191.7484" x2="743.1294" y2="-2.0516" gradientTransform="matrix(1 0 0 -1 0 400)">
		<stop offset="0" style="stop-color:#DFB5FF"/>
		<stop offset="0.13" style="stop-color:#DFC2FF"/>
		<stop offset="0.38" style="stop-color:#E0E3FF"/>
		<stop offset="0.53" style="stop-color:#E1FAFF"/>
	</linearGradient>
	<path class="st2" d="M352,355c-8-4.1-5.6-44.8,22-53c16-4.8,33.3-3,48,5c0,0-7-34,21-49c30.8-16.5,55,15,55,15s8-51,63-39   c42.9,9.4,34,110-1,120S383,371,352,355z"/>
	
		<linearGradient id="SVGID_3_" gradientUnits="userSpaceOnUse" x1="53.7206" y1="384.4509" x2="199.9506" y2="286.4608" gradientTransform="matrix(1 0 0 -1 0 400)">
		<stop offset="0" style="stop-color:#DFB5FF"/>
		<stop offset="0.13" style="stop-color:#DFC2FF"/>
		<stop offset="0.38" style="stop-color:#E0E3FF"/>
		<stop offset="0.53" style="stop-color:#E1FAFF"/>
	</linearGradient>
	<path class="st3" d="M42,69c-4.7,22.9,142,6,146-3s0.6-22.8-10-32c-15-13-27.1-0.8-29-2c-3-2-5-19-27-19c-33,0-37,33-37,33   S49,35,42,69z"/>
	<path class="st0" d="M173,196c0,0,7.1,6.4,12,7c8,1,9,2,8,5c-1.3,3.9-12,7-12,7L173,196z"/>
	<path class="st0" d="M142.3,223.5l9.4,15.1c0,0-4.1,2.6-10.9,1.6C129,238.4,122.9,217.2,142.3,223.5z"/>
	<path class="st4" d="M87.4,173.5c-1.2-1.9,14.7,2,14.7,2c0.6,3,0.7,6,0.2,9c-0.8,6-4.4,8-4.4,8l-10.2-5   C87.8,187.5,91.2,179.4,87.4,173.5z"/>
	<path class="st5" d="M74,335c18-18,26-37,51-49c15.7-7.6,52,0,83-8c19.1-4.9,63.2,51.6,85.5,78.6c4.3,5.2,3.5,12.8-1.6,17.1   c-2.1,1.8-4.8,2.7-7.6,2.8C220.8,377.3,57,378.7,61,369C66,357,74,335,74,335z"/>
	
		<linearGradient id="SVGID_4_" gradientUnits="userSpaceOnUse" x1="19.0295" y1="118.8694" x2="186.8395" y2="-19.5106" gradientTransform="matrix(1 0 0 -1 0 400)">
		<stop offset="0" style="stop-color:#DFB5FF"/>
		<stop offset="0.13" style="stop-color:#DFC2FF"/>
		<stop offset="0.38" style="stop-color:#E0E3FF"/>
		<stop offset="0.53" style="stop-color:#E1FAFF"/>
	</linearGradient>
	<path class="st6" d="M35.5,338.5c2.4-0.4,4.1-2.4,4-4.8C39.3,324.6,42.3,304,74,297c39-8.6,54.4,24.2,59.2,38.5   c0.8,2.5,3.5,3.8,6,3c0.4-0.1,0.8-0.3,1.2-0.6c10.3-7.2,33.8-20.2,55.7-8.9c24.7,12.8,37.5,36.7,42.4,48.3c1,2.4-0.1,5.2-2.5,6.2   c-0.6,0.3-1.3,0.4-1.9,0.4l-209.9-2.7c-8.6-0.1-15.5-7.2-15.4-15.8c0-1,0.1-2,0.3-3C11.2,352.3,17.8,341.3,35.5,338.5z"/>
	<path class="st0" d="M163.5,243.1c0,0-2.5,40.9-2.5,42.9s5.2,8.3,19,6c12-2,13-7,13-7l-16.8-45.9L163.5,243.1z"/>
	
		<linearGradient id="SVGID_5_" gradientUnits="userSpaceOnUse" x1="207.8504" y1="74.6984" x2="294.4104" y2="93.1384" gradientTransform="matrix(1 0 0 -1 0 400)">
		<stop offset="0.46" style="stop-color:#4FB5FF"/>
		<stop offset="0.8" style="stop-color:#1A96EF"/>
		<stop offset="0.81" style="stop-color:#1A96EF"/>
	</linearGradient>
	<path class="st7" d="M200.8,262.6c-1.8,1-2.8,5.4,0.2,8.4c4.1,4,10.8,7.7,12.2,14.9c2,10.1,25.2,88.3,44.9,91.2   c22.5,3.4,50.9-0.9,44.9-19.4c-17.7-54.4-70.9-84.7-70.9-84.7L218,258c-3-3-5.6-2.1-6.7-1.4L200.8,262.6z"/>
	<path class="st8" d="M213.2,257.4c-2.4-3.3-8.2-15.6-10-22.2c-1-3.7-6.9-2.6-11-1.8c-5,0.9-11.4,3.6-13,9.2c-1,3.7,5,10.1,7,9.2   s4.7,2.8,7,5.5c4.1,5.1,6.8,7.1,8.1,7.9c2.3,1.8,5.5,1.7,7.7-0.2C214.1,261.2,213.6,258,213.2,257.4z"/>
	<path class="st8" d="M197.2,233.3c0,0-17,0-23-3.7c-3.7-2.3-4.9,1.9,0,5.5s21,2.8,21,2.8L197.2,233.3z"/>
	<path class="st5" d="M130.8,224.3c3.4-6.1,8-7.1,14.5-8c4.3-0.5,8.3-2.5,11.3-5.7c1.3-1.4-0.8-3.5-2.1-2.1   c-4.9,5.2-10.8,3.9-17,6.1c-4.2,1.4-7.1,4.4-9.2,8.2C127.3,224.5,129.9,226,130.8,224.3L130.8,224.3z"/>
	<path class="st5" d="M161.6,199.8c-2.3,1.6-7.9,5-7,8.5s6.1,5.6,9.2,5.7c3.7,0.3,7.2-1.8,8.7-5.2c1.1-2.7,0.9-9.3-2.3-10.6   c-1.8-0.8-3.3,1.8-1.5,2.6c1.5,0.6,1.6,5.2,1.3,6.4c-0.8,2.8-3.7,4.1-6.4,3.8c-1.8-0.2-5.7-1.6-5.5-3.6c0.2-1.9,3.6-4,5-4.9   C164.6,201.3,163.1,198.7,161.6,199.8L161.6,199.8z"/>
	<path class="st5" d="M170.6,200.6c1.3-1.5,2.9-2.8,4.7-3.8c1.6-1,0.1-3.6-1.5-2.6c-2,1.1-3.8,2.5-5.3,4.2c-0.6,0.6-0.6,1.5,0,2.1   C169,201.1,170,201.1,170.6,200.6L170.6,200.6z"/>
	<path class="st5" d="M173.2,196.3c3,5,14.1,7.8,15-0.3c0.2-3-1-6-3.3-7.9c-3.5-3-7.3-1.5-10.6,1c-1.5,1.1,0,3.8,1.5,2.6   c2.1-1.6,4.6-3.4,7.1-1.3c1.5,1.2,2.3,3,2.3,4.9c-0.2,5.4-7.8,2.4-9.5-0.4c-0.5-0.7-1.4-0.9-2.1-0.4   C173.1,194.8,172.8,195.6,173.2,196.3L173.2,196.3z"/>
	<circle class="st9" cx="164.8" cy="205.2" r="2.2"/>
	<circle class="st9" cx="181" cy="195" r="2"/>
	<path class="st10" d="M267.6,65.9c-8.3,8.3-27.2,36.6-23.8,63.4s34.1,37.2,103.7,36.3s131,1.7,155.6-12.7s30.1-49.5,1.5-74.2   C461.2,41,320.2,12.9,267.6,65.9z"/>
	<path class="st10" d="M267.6,65.9c-8.3,8.3-27.2,36.6-23.8,63.4s34.1,37.2,103.7,36.3s131,1.7,155.6-12.7s30.1-49.5,1.5-74.2   C461.2,41,320.2,12.9,267.6,65.9z"/>
	<g class="st11">
		<path class="st9" d="M304.4,105.2h-6.9v-9.8h26.2v9.8h-6.9v27.7h-12.4V105.2z M311.4,128.3v-27.1h8v-1.3h-17.5v1.3h8v27.1H311.4z"/>
		<path class="st9" d="M325.7,95.3h12.9c2.4,0,4.6,0.3,6.7,1c2,0.6,3.8,1.6,5.3,2.8c1.5,1.2,2.7,2.8,3.5,4.6    c0.8,1.8,1.3,3.9,1.3,6.3c0,1.9-0.3,3.5-0.8,4.8c-0.5,1.3-1.1,2.4-1.7,3.3c-0.8,1-1.6,1.8-2.5,2.5l7,12.4h-14.1l-5.6-9.5v9.5h-12    V95.3z M337.4,119.8c1.5,0,2.9-0.1,4.3-0.4l5.3,9h1.7l-5.6-9.4c2-0.7,3.6-1.8,4.8-3.3c1.2-1.5,1.8-3.4,1.8-5.8    c0-1.6-0.3-3.1-1-4.3c-0.6-1.2-1.5-2.3-2.6-3.1c-1.1-0.8-2.4-1.5-3.9-1.9s-3.1-0.6-4.9-0.6h-6.1v28.5h1.5v-8.5H337.4z     M332.8,118.5v-17.3h4.6c3.4,0,6.1,0.8,8,2.2c1.9,1.5,2.9,3.6,2.9,6.4c0,2.8-1,4.9-2.9,6.4c-1.9,1.5-4.6,2.2-8,2.2H332.8z     M337.7,113.8h0.6c1.4,0,2.6-0.3,3.6-1c1-0.6,1.5-1.7,1.5-3.2c0-1.5-0.5-2.6-1.5-3.2c-1-0.6-2.2-1-3.6-1h-0.6V113.8z"/>
		<path class="st9" d="M358.5,95.3h22.1v9.8h-10.1v4.2h9.9v9.3h-9.9v4.3h10.5v9.8h-22.5V95.3z M376.8,128.3V127h-11.2v-12.3h10.7    v-1.3h-10.7v-12.1h11.2v-1.3h-12.7v28.5H376.8z"/>
		<path class="st9" d="M384.3,95.3h9.8l10.3,14.4V95.3h11.7v37.5h-9.9l-10.3-14.4v14.4h-11.7V95.3z M391,128.3v-26l18.5,26h1.5V99.8    h-1.5v26l-18.5-26h-1.5v28.5H391z"/>
	</g>
	<g class="st11">
		<path class="st9" d="M420.2,132.8V95.3h10.4c3.5,0,6.7,0.4,9.4,1.2c2.8,0.8,5.1,2,7,3.5c1.9,1.6,3.3,3.5,4.3,5.9    c1,2.3,1.5,5,1.5,8.1c0,3.1-0.5,5.8-1.5,8.1c-1,2.3-2.4,4.3-4.3,5.9c-1.9,1.6-4.2,2.8-7,3.6c-2.8,0.8-5.9,1.2-9.4,1.2H420.2z     M425.8,128.3h4.8c5.5,0,9.6-1.2,12.4-3.7c2.8-2.5,4.2-6,4.2-10.5c0-4.5-1.4-8-4.2-10.5c-2.8-2.5-6.9-3.7-12.4-3.7h-4.8V128.3z     M427.3,127v-25.8h3.3c4.8,0,8.5,1.1,11.1,3.2c2.6,2.2,4,5.4,4,9.6c0,4.3-1.3,7.5-4,9.7c-2.6,2.2-6.3,3.3-11.1,3.3H427.3z     M432.2,122.2c2.8,0,5-0.7,6.5-2c1.5-1.3,2.3-3.4,2.3-6.1c0-2.7-0.8-4.8-2.3-6.1c-1.5-1.3-3.7-2-6.5-2V122.2z"/>
	</g>
	<g class="st11">
		<path class="st9" d="M454,121.2c0.8,0.3,1.7,0.5,2.6,0.6c0.7,0.2,1.6,0.3,2.6,0.5c1,0.1,1.9,0.2,2.9,0.2c1.7,0,2.6-0.6,2.6-1.9    c0-0.5-0.3-1-0.8-1.5c-0.5-0.5-1.2-1.1-2-1.7c-0.8-0.6-1.7-1.3-2.6-2.1c-0.9-0.8-1.8-1.6-2.6-2.6s-1.5-2.1-2-3.3    c-0.5-1.2-0.8-2.6-0.8-4.2c0-1.8,0.3-3.3,1-4.7c0.6-1.3,1.5-2.5,2.6-3.4s2.4-1.6,4-2.1s3.1-0.7,4.9-0.7c0.9,0,1.8,0,2.7,0.1    c0.9,0.1,1.7,0.2,2.4,0.3c0.8,0.1,1.6,0.2,2.4,0.3v10.5c-0.3,0-0.6-0.1-1-0.1c-0.3,0-0.6-0.1-1-0.1s-0.8-0.1-1.2-0.1    c-0.2,0-0.5,0-0.8,0c-0.3,0-0.7,0.1-1,0.1c-0.3,0.1-0.6,0.2-0.8,0.4s-0.3,0.4-0.3,0.8c0,0.3,0.3,0.7,0.8,1.1    c0.5,0.4,1.1,1,1.9,1.6c0.7,0.6,1.5,1.3,2.4,2.1c0.9,0.8,1.7,1.7,2.4,2.7c0.7,1,1.3,2.2,1.9,3.4c0.5,1.3,0.8,2.7,0.8,4.3    c0,1.6-0.3,3.2-0.8,4.6c-0.5,1.4-1.3,2.7-2.4,3.8c-1.1,1.1-2.5,1.9-4.2,2.5s-3.8,0.9-6.1,0.9c-1.4,0-2.7-0.1-4-0.2    c-1.2-0.1-2.3-0.3-3.2-0.5c-1.1-0.2-2.1-0.4-3-0.7V121.2z M458.7,127.9c0.5,0.1,1.1,0.2,1.7,0.3c0.5,0.1,1.1,0.1,1.7,0.2    c0.6,0.1,1.2,0.1,1.8,0.1c1,0,2.1-0.1,3.1-0.4c1-0.2,1.9-0.6,2.7-1.2c0.8-0.6,1.4-1.3,1.9-2.2c0.5-0.9,0.7-2,0.7-3.2    c0-1.1-0.3-2.1-0.8-3.1s-1.2-1.9-2.1-2.8c-0.8-0.9-1.7-1.8-2.7-2.6c-1-0.8-1.9-1.7-2.7-2.5c-0.8-0.8-1.5-1.7-2.1-2.5    c-0.5-0.8-0.8-1.7-0.8-2.6c0-1.3,0.4-2.4,1.3-3.1c0.9-0.7,2.2-1.1,4.2-1.1c0.3,0,0.6,0,0.9,0c0.3,0,0.6,0,0.9,0.1    c0.3,0,0.6,0.1,0.9,0.1v-1.5c-0.3,0-0.5,0-0.8-0.1c-0.3,0-0.6-0.1-0.9-0.1c-0.3,0-0.6,0-1,0c-2,0-3.7,0.5-5,1.4    c-1.3,0.9-2,2.4-2,4.3c0,1,0.3,2,0.8,3c0.5,0.9,1.2,1.8,2.1,2.7c0.8,0.9,1.7,1.7,2.7,2.6c1,0.8,1.9,1.7,2.7,2.5    c0.8,0.8,1.5,1.7,2.1,2.6c0.5,0.9,0.8,1.8,0.8,2.8c0,1.8-0.6,3.2-1.8,4.1c-1.2,0.9-2.9,1.4-5,1.4c-1.3,0-2.4-0.1-3.5-0.3    c-0.6-0.1-1.1-0.2-1.6-0.3V127.9z"/>
	</g>
	<ellipse transform="matrix(0.8913 -0.4534 0.4534 0.8913 -46.378 118.508)" class="st12" cx="224" cy="156" rx="8" ry="7.1"/>
</g>
</svg>