<?xml version="1.0" encoding="UTF-8"?>
<svg width="217px" height="96px" viewBox="0 0 217 96" version="1.1" xmlns="http://www.w3.org/2000/svg" xmlns:xlink="http://www.w3.org/1999/xlink"><script xmlns="" type="text/javascript" charset="utf-8" id="zm-extension"/>
    <!-- Generator: Sketch 49 (51002) - http://www.bohemiancoding.com/sketch -->
    <title>Page 1</title>
    <desc>Created with Sketch.</desc>
    <defs>
        <polygon id="path-1" points="0 0.0408188976 117.676375 0.0408188976 117.676375 95.9998958 0 95.9998958"/>
        <polygon id="path-3" points="0.327845996 0.722308302 58.7776154 0.722308302 58.7776154 67.4875046 0.327845996 67.4875046"/>
    </defs>
    <g id="Page-1" stroke="none" stroke-width="1" fill="none" fill-rule="evenodd">
        <g id="Artboard-6-Copy-3" transform="translate(-847.000000, -454.000000)">
            <g id="Page-1" transform="translate(847.000000, 454.000000)">
                <g id="Group-3">
                    <mask id="mask-2" fill="white">
                        <use xlink:href="#path-1"/>
                    </mask>
                    <g id="Clip-2"/>
                    <path d="M60.7805819,95.2183181 C53.6716529,95.2183181 47.333911,95.3377512 41.009111,95.1117354 C39.8283497,95.0694047 38.3544916,93.8841449 37.5970077,92.819074 C31.6026077,84.3877039 25.7528529,75.8557984 19.8467626,67.3624441 C19.1707368,66.3911055 18.4246723,65.4681449 16.9218852,64.755326 L16.9218852,94.9673575 L-7.61290322e-05,94.9673575 L-7.61290322e-05,0.0407433071 L16.8145432,0.0407433071 L16.8145432,54.6133417 C17.1167755,54.707074 17.4182465,54.8008063 17.7197174,54.8945386 C19.7280013,52.3947591 21.75684,49.9108535 23.7407626,47.3921764 C27.8806594,42.1363654 31.9619368,36.8336882 36.1589303,31.6232315 C36.8783497,30.7297512 38.0446465,29.5966488 39.0160529,29.5860661 C51.8057303,29.4500031 64.5976916,29.4961134 77.7809561,30.3979087 C77.1627884,30.8106331 76.5918206,31.4743181 75.9196013,31.5975307 C70.6476658,32.5681134 69.4349303,33.6475465 69.399911,38.5760504 C69.3077948,51.4226646 69.1623884,64.2738142 69.4250335,77.115137 C69.64124,87.6804283 75.4986077,93.2620346 86.0828271,93.7616882 C98.168311,94.3323969 105.675395,89.4235465 106.359034,78.8408693 C107.242892,65.1718299 106.91173,51.4219087 106.964259,37.7060031 C106.978724,33.8584441 104.322582,32.2687748 100.803137,31.7827276 C99.5759368,31.6126488 98.3593948,31.3760504 97.1375239,31.1696882 C97.1999497,30.7826646 97.2616142,30.3956409 97.3232787,30.0078614 L117.676375,30.0078614 C117.406879,30.7667906 117.376427,31.155326 117.238634,31.1976567 C110.007137,33.4064126 109.554169,34.0224756 109.552646,41.8105701 C109.549601,51.8860346 109.599846,61.963011 109.514582,72.0377197 C109.490982,74.7907276 109.24204,77.5694362 108.78755,80.2854047 C107.595369,87.4037669 103.439485,92.1523654 96.4965174,94.2416882 C89.0503368,96.4821921 81.4823497,96.6182551 73.9973432,94.4374677 C65.0202077,91.8212787 60.1182594,85.3522394 60.0383239,76.0304126 C59.9401174,64.443137 60.01244,52.8551055 60.0055884,41.2678299 C60.0048271,40.0084913 60.2385432,38.6697827 59.8883497,37.5094677 C59.3425045,35.7028535 58.3886077,34.0171843 57.6075239,32.2808693 C56.1702077,33.2597669 54.44284,33.9907276 53.3435368,35.259137 C47.3887239,42.1288063 41.6691497,49.2003024 35.6884529,56.0472945 C33.8963755,58.099578 33.60404,59.4231685 35.4326594,61.7430425 C43.2465432,71.6559874 50.8160529,81.7586646 58.4616916,91.8016252 C59.1308658,92.6807433 59.7064013,93.6286488 60.7805819,95.2183181" id="Fill-1" fill="#93070C" mask="url(#mask-2)"/>
                </g>
                <path d="M114.131013,73.9751201 C114.511826,75.5947115 114.852273,77.2248441 115.281068,78.8323883 C118.43115,90.6521675 129.761848,96.3278903 140.292841,91.3667153 C145.453613,88.9346929 147.614344,84.610512 147.732396,79.2261801 C147.84664,74.0285794 144.813087,70.8451149 140.172504,69.0674044 C136.042972,67.4847075 131.792341,66.2107193 127.656716,64.6430814 C116.428075,60.3866658 112.242945,52.5740764 115.201097,41.5953402 C117.699989,32.3212785 127.729071,26.3812709 138.247115,28.3908894 C142.262404,29.1588965 146.075861,30.9584424 150.747671,32.5479158 C150.999769,32.3980792 152.149061,31.7151552 153.735526,30.7724642 L153.735526,49.7158854 C153.430115,49.794192 153.123941,49.8724986 152.81853,49.9515581 C152.412583,48.909478 152.011207,47.865139 151.598406,46.8260706 C150.26023,43.4611456 149.321146,39.8628066 147.489438,36.7840018 C144.052223,31.0066311 137.566222,28.7748929 131.394773,30.6519925 C125.623177,32.4071145 122.074003,37.5776091 122.099137,44.2600235 C122.115893,48.6534756 123.907235,52.0982132 128.067994,53.9022768 C131.187611,55.2538186 134.493065,56.1761801 137.659141,57.4298386 C140.938699,58.7286741 144.296705,59.9386617 147.361485,61.6433362 C153.890136,65.2740519 156.516982,71.0634698 155.916821,78.3550192 C155.278579,86.104361 151.053082,91.0873715 143.672172,93.4282871 C136.4215,95.7292965 129.186821,95.519977 122.090759,92.6934098 C117.217119,90.7515567 117.228543,90.7236976 113,93.5449941 L113,74.1189332 C113.377004,74.0714975 113.754009,74.0233088 114.131013,73.9751201" id="Fill-4" fill="#93070C"/>
                <g id="Group-8" transform="translate(158.000000, 28.000000)">
                    <mask id="mask-4" fill="white">
                        <use xlink:href="#path-3"/>
                    </mask>
                    <g id="Clip-7"/>
                    <path d="M58.7779936,44.8051244 L58.7779936,65.1129467 C58.5223269,65.2655689 58.2666603,65.4174356 58.01175,65.5693022 C56.7803141,64.2100578 55.5496346,62.8508133 54.3227372,61.4953467 C33.9495833,70.9050356 17.0967628,69.1816133 7.19232692,56.6839689 C-2.00864744,45.0748578 -1.94964744,25.2007244 7.30654487,13.2886356 C12.9501218,6.02472444 20.5096859,2.32250222 29.498109,1.03428 C38.6030192,-0.269808889 46.5816346,2.64663556 54.0307628,7.31974667 C55.4800449,5.93556889 56.7409808,4.73121333 58.5730064,2.98059111 L58.5730064,25.3722356 C58.2749808,25.4515689 57.9777115,25.5316578 57.6796859,25.6117467 C57.3052628,24.4512133 56.8597372,23.3088133 56.5670064,22.1286356 C53.3840321,9.30534667 43.9137756,1.68934667 32.3270833,2.94356889 C24.2554295,3.81774667 18.3758526,8.48783556 15.1005962,15.5288578 C9.23766026,28.1307689 8.83071154,41.0477467 15.4818269,53.6375689 C19.763109,61.7409022 26.2410064,66.5515244 35.8678397,65.7128578 C45.3517115,64.8870356 51.538391,59.54148 55.2470705,51.0497911 C56.1744295,48.9259244 56.9028526,46.7151689 57.7220449,44.5437022 C58.0745321,44.6313467 58.4262628,44.7182356 58.7779936,44.8051244" id="Fill-6" fill="#93070C" mask="url(#mask-4)"/>
                </g>
            </g>
        </g>
    </g>
</svg>