<svg xmlns="http://www.w3.org/2000/svg" viewBox="0 0 320 20"><script xmlns="" type="text/javascript" charset="utf-8" id="zm-extension"/><linearGradient id="a" gradientUnits="userSpaceOnUse" x1="-135.9221" y1="210.0842" x2="-136.5066" y2="210.0196" gradientTransform="matrix(320 0 0 -16 43702 3371.1497)"><stop offset="0" stop-color="#ffb363"/><stop offset="1" stop-color="#fae950"/></linearGradient><path d="M319 18c-10.8-1.2-14-16-25.3-16-11.7 0-15 16-26.8 16-11.9 0-17.4-16-28-16S225 18 213 18c-13.8 0-15-16-26.8-16-11.9 0-13.9 16-25.8 16S144.2 2 132.1 2c-11.4 0-14.4 16-26.1 16C92.5 18 90.2 2 78.8 2 66.5 2 62.9 17.9 51 17.9S34.2 2 23.6 2 8.6 18-1 18" fill="none" stroke="url(#a)" stroke-linecap="round" stroke-linejoin="round"/></svg>