<svg version="1" xmlns="http://www.w3.org/2000/svg" width="180" height="168" viewBox="0 0 135 126"><script xmlns="" type="text/javascript" charset="utf-8" id="zm-extension"/><path d="M54.4 7.5c-2.9 3-7 5.4-14.3 8.5-5.6 2.4-11.9 5.8-14 7.7-2.2 1.8-6.6 4.2-9.8 5.1-5 1.6-5.5 1.9-3.5 2.6 3.7 1.2 2 3-3.9 4.2l-5.4 1.1 3.8.8 3.8.7L8.2 40C5.5 41.6 1 46.9 1 48.4c0 .3 2.6-.8 5.7-2.6l5.7-3.2L9.8 46c-2.9 3.9-5.2 8.2-6.3 12-.8 2.5-.8 2.5 1.4.6L7 56.7l-1.5 3c-.8 1.6-1.9 5.2-2.4 7.9-1.1 5.6-.3 14.4 1 12.2.6-.8.9.4.9 3.2.1 5.4 3.4 14 8 20.4 2.8 3.9 3.5 4.4 4.1 2.9.6-1.7.7-1.6 1.3.3.8 2.5 7.6 9.3 7.6 7.5 0-.7 1.6.1 3.5 1.8 4.1 3.5 5 3.8 4 1.4-.4-1.3.2-1 2.2.8 1.5 1.5 4.2 3.5 5.8 4.5 2.7 1.7 2.8 1.7 1.6.1-1.3-1.6-1.1-1.6 2.3-.2 6.3 2.7 12.2 2.8 16.9.3 3.2-1.6 3.9-1.7 2.8-.4-1.9 2.3-.5 2 4.8-1l4.6-2.5-3.3 3L68 125h3.8c5.7 0 14.2-1.8 18.4-3.9 2.1-1 3.9-1.4 4.1-.8.4 1.3 5.9-1.5 12.6-6.5 4.5-3.4 5.2-3.7 4.6-1.8-.6 1.9-.4 2 1.2 1.2 1-.6 3.9-2.9 6.5-5.1 6.3-5.6 10-13.2 10.2-21.1.1-5.8.1-5.9 1.8-3.7s1.8 2.1 1.8-3.3c0-3.4-.8-7.2-2.1-10l-2-4.5 3 2.9 3.1 3-1.6-5.5c-.9-3-3.3-8.7-5.5-12.8-3.7-7.3-3.8-7.5-1.9-8.8 2.8-2 2.5-3.3-.7-3.3l-2.8-.1 2.8-1.5c3.9-2.1 3.3-3.3-1.5-2.7-4.2.5-4.3.5-2-1.2 3.1-2.3 2.8-3.2-1.2-2.7-5.1.6-7.7-1.2-7-4.7.6-2.8.4-2.9-2.7-2.8-2.7.2-3.4-.2-3.3-1.6.1-1.1-.5-1.7-2-1.7-1.2 0-5-2-8.4-4.4-3.4-2.4-8.3-4.9-10.8-5.6-3.3-.9-4.3-1.7-3.9-2.8.5-1.4.2-1.4-7 .4-1.8.5-1.8.3.3-1.5C77.1 7 77.6 5.9 77 5.5c-1.4-.9-8.1.5-10.8 2.3-2.3 1.5-2.3 1.4-1.6-1.4l.7-2.9-2.2 2.7c-2.9 3.6-3.9 3.5-3.3-.2.6-3.9-.4-3.6-5.4 1.5zm-14 31.4c1 1.6-.6 4.1-3 4.7l-2.4.6V91h2.3c3.1 0 5.1 1.5 4.4 3.3-.4 1-2.9 1.6-9.3 2-9.9.6-11.4.3-11.4-2.4 0-1.3 1-2 3.6-2.5l3.6-.7-.6-9.6c-.5-7.5-1.1-21.9-1.6-36.5 0-.4-.8-.6-1.9-.3-4.1 1-6.9-3.2-3.3-5.2 2.1-1.3 18.9-1.4 19.6-.2zm72.7 2.9c6.2 6.9 1.7 21.2-8 26.2-2.1 1-4.1 2.6-4.5 3.5-.3.9-.6 6.8-.6 13.1 0 11.2 0 11.4-2.4 12-4.8 1.2-5 .4-4.2-19 .9-23.3 2.1-36.3 3.7-38.3 1-1.1 2.7-1.4 7.3-1.1 5.1.4 6.3.9 8.7 3.6zm-54.3.9c1.5 1.1 4 4.4 5.6 7.4 2.6 5 2.8 6 2.3 13.5-.3 4.4-1.6 11.2-2.9 15-1.9 5.7-3 7.4-6.6 10.1-4.6 3.5-10.6 4.5-13 2.1-1.3-1.3-1.7-28.1-.5-42.7l.6-8.3 5.9.4c3.8.3 6.8 1.1 8.6 2.5zm26.1-.7c4.2 2.2 5.3 8.3 5.9 30.1.4 19 .3 20.6-1.3 21.3-3.3 1.2-4.5-1.2-4.3-8.5 0-3.8-.2-7.2-.5-7.6-.4-.3-3-.8-5.8-1.1l-5.2-.5.5 7.7c.5 7.4.4 7.7-1.9 8.2-1.3.4-3 0-4-.7-3.1-2.6-.4-33.5 3.9-44.2 2-5 8-7.3 12.7-4.7z"/><path d="M100.6 46.7c-.7 4.7-.8 15.3-.1 15.3 1.8 0 6.5-3.3 8-5.6 2.1-3.3 2.5-9.5.6-11.8-.7-.9-2.8-1.6-4.6-1.6-3 0-3.3.3-3.9 3.7zm-50 1.4c-.9 4.8-.7 37.7.3 38.3 2 1.3 5.9-3.5 7.1-8.5 2-8.4 1.8-22.8-.4-27.7-1.1-2.3-2.2-4.2-2.7-4.2-.4 0-1.4-.2-2.2-.6-1-.3-1.6.4-2.1 2.7zm27.6-.8C76.8 49 74 60.5 74 64.7V68h11.3l-.6-9.1c-.4-4.9-1.2-9.9-1.7-11-1.2-2.2-3.3-2.5-4.8-.6z"/></svg>