<svg width="1987" height="1851" xmlns="http://www.w3.org/2000/svg"><script xmlns="" type="text/javascript" charset="utf-8" id="zm-extension"/><path d="M1599.863 317.782c-26.673 21.323-34.289 60.963 8.397 63.619 42.685 2.655 69.359-18.668 69.359-18.668-5.35 26.674 10.661 47.997-21.363 80.021 18.668 23.98 104.039 87.989 170.703 21.324 13.356 8.006-18.668 93.339-109.35 61.354 77.365 23.979 157.386 23.979 184.02-13.357-10.661 50.692-77.326 90.683-112.005 88.028 39.99 16.012 106.694 2.655 106.694 2.655s-45.341 69.36-77.365 66.704c26.674 26.674 146.724 229.364 168.047 392.063 0 0-66.664-82.677-98.688-98.69 64.009 98.69 90.682 189.373 58.658 298.724-10.661-21.323-47.996-93.339-47.996-93.339s90.682 322.703-280.053 520.081c18.668-29.33 34.68-82.677 34.68-82.677s-117.356 125.363-285.364 184.022c23.98-5.311 26.674-53.347 26.674-53.347s-74.71 106.695-421.426 109.39c58.658-24.019 85.332-45.342 133.368-117.357 0 0-101.344 87.988-181.365 109.35 50.653-42.685 64.009-77.365 64.009-77.365S936.15 1819.015 810.788 1851c34.68-31.985 39.991-45.342 39.991-45.342l-47.996 32.025s-112.006-10.662-205.383-66.705c13.357 21.363 42.686 42.686 72.015 58.699-93.338-26.674-173.358-98.69-216.005-173.36 34.64 72.015 66.665 106.655 66.665 106.655s-85.371-31.985-165.353-133.33c31.985 56.004 45.341 80.022 45.341 80.022s-101.382-61.354-152.035-178.71c-8.006 42.685 16.012 77.326 16.012 77.326S-2.695 1349.587 93.338 1098.86c-21.363 29.33-42.686 104.04-42.686 104.04s-72.014-250.726 98.688-424.087C125.322 800.137 39.99 896.17 39.99 896.17s39.991-181.366 154.691-272.05C176.014 621.427 0 730.778 0 738.784c50.652-95.994 64.009-138.68 184.02-181.366-40.03 10.7-149.38-18.668-165.352-39.991 66.664 21.323 162.696 10.661 205.343-24.019-13.318-45.341-90.683-31.985-90.683-31.985s93.377-45.341 189.37-58.698c0 0 45.38-69.516 173.359-125.363 128.017-55.808 224.05-93.339 261.384-125.324C794.777 120.013 882.803 77.327 858.785 0c21.362 34.68 53.347 136.025-34.64 178.71 47.996-34.68 125.322-88.027 128.017-130.713 13.317 34.68-26.674 122.708-26.674 122.708S976.141 47.997 1160.2 85.333c-34.68 16.012-82.716 69.36-82.716 69.36s82.716-37.336 152.035-34.68c-29.329 16.012-31.984 37.335-31.984 37.335s147.856 18.16 264.04 125.363c68.617 63.346 138.288 35.07 138.288 35.07zm-341.75 671.943c.345 14.728-2.724 17.725-15.974 17.054-29.376-1.459-58.75-2.405-88.126-3.706-19.475-.868-38.93-2.011-58.383-2.958-9.597-.473-10.44-5.835-9.64-13.012 5.274-46.884 8.105-94.084 16.103-140.574 7.025-40.85 19.562-80.933 30.002-121.291 6.528-25.276 27.884-39.333 49.91-52.306 9.165-5.402 23.755-1.203 29.959 10.922 8.71 17.035 17.292 35.134 19.994 53.51 7.76 52.837 12.84 106.03 18.351 159.145 3.22 31.013 5.231 62.144 7.803 93.216zm-172.015 181.997c-1.708-29.87-3.48-50.5-3.48-50.5 27.71 0 54.72-1.38 82.43 0 25.031 1.222 93.28 8 92.848 20.5-1.664 49.526 1.859 65.035 0 114.56-1.016 26.972-4.971 53.864-7.63 80.796-.13 1.144-2.507 13.111.54 17.468 10.095 14.412 23.366 21.688 43.23 23.797 25.377 2.701 44.636-8.596 44.917-32.196.952-79.139 2.421-158.298 2.378-237.437-.043-49.88-1.88-99.782-3.89-149.623-1.773-44.44-3.783-88.899-7.674-133.2-4.582-52.07-12.17-103.863-33.158-153.054-13.488-31.604-32.682-58.418-72.584-66.067-7.933-1.518-15.844-3.174-23.82-4.555-50.083-8.714-92.362 7.571-117.587 48.107-12.97 20.82-24.923 43.04-31.732 65.989-13.812 46.51-25.851 93.63-34.865 141.106-10.051 52.936-19.584 106.366-22.74 159.895-4.625 78.646-3.63 157.588-4.495 236.392-.195 19.085.994 38.249 2.745 57.274 2.42 26.301 14.569 37.874 42.712 41.226 19 2.248 37.48-1.755 54.816-8.28 5.144-1.933 9.446-8.814 11.24-14.235 1.88-5.659 1.621-12.619-.022-18.474-12.818-45.84-11.52-92.861-14.18-139.49zm-680.195 54.392c1.628 38.597.257 77.234.257 116.484-23.395 1.66-43.135 2.55-62.588 4.565-29.48 3.043-35.908 8.715-35.937 29.25 0 3.517-.114 7.035.029 10.553.971 25.494 28.652 41.996 64.617 38.32 20.653-2.114 41.107-5.87 61.817-6.66 33.908-1.284 69.159-4.703 101.61.06C568.531 1423.508 595 1415.034 616 1401c7.331-4.9 21.35-29.943-7-49s-88.064-16.339-93.288-16.043c-.629-5.77-1.457-10.356-1.6-14.94-1.057-31.286 3.6-63.658 1.6-94.903-5.542-87.096 3.37-148.08 0-235.215-3.914-101.088-4.314-181.138-5.856-282.246-.101-5.989-3.433-33.633 5.856-50.649 9.288-17.016 30.331-16.268 36.022-17.016 8.783-1.161 39.992-9.209 46.266-40.988 6.274-31.78-14.444-42.53-37.896-43.5-24.71-1.007-49.677-.355-74.415.732-45.42 1.957-90.727 6.008-136.204 6.917-58.19 1.166-78.9 17.115-69.187 56.957.285 1.147.857 2.273 1.17 3.42 8.228 29.249 42.679 40.909 80.586 27.114 11.598-4.21 19.825-2.964 22.767 6.364 2.628 8.34 5.97 16.858 5.885 25.297-.486 48.459-4.342 96.958-2.571 145.357 4.828 132.512 12.255 264.964 17.768 397.456zM1467.034 920.27c0-22.84-1.249-44.464.246-65.912 3.912-56.453 8.908-112.828 13.72-169.203.943-11.166 2.724-22.272 4.424-33.359 1.74-11.204 8.253-17.11 20.274-19.838 20.396-4.63 40.793-7.162 61.107-2.139 33.728 8.32 50.623 32.24 57.074 62.949 16.854 80.099-26.909 169.047-98.89 204.25-14.356 7.024-28.978 13.617-43.681 19.995-4.198 1.805-14.274 3.257-14.274 3.257zM1594 565.536c-40-7.463-118.057-4.729-147.505 0-28.2 4.533-35.3 35.778-38.495 62.464-2.621 21.938-1.93 16.791-3.711 38.808-1.536 18.916-12.43 145.52-16.056 189.925-4.607 56.865-6.245 113.986-10.75 170.871-7.885 99.211-10.158 198.5-7.352 297.947.614 22.094 1.228 44.287.122 66.343-.86 17.189 3.338 26.098 20.97 30.532 10.055 2.512 20.806 3.513 31.21 3.356 23.427-.334 52.066-11.46 53.664-33.888.983-13.932 1.228 24.82 0-36.873-1.23-61.693-.676-123.466 0-185.14.675-62.457-7.941-125.672 19.48-142.277 27.423-16.604 97.797-36.048 146.11-101.326 31.463-42.511 53.745-100.906 62.73-155.897 4.811-29.45 5.808-57.925 2.358-82.46C1698.011 625.463 1634 573 1594 565.536zm-642.177 551.849c4.78-25.312 24.183-60.592 31.838-186.523 7.656-125.93-15.235-147.66-21.833-165.638-14.697-40.128-35.79-77.517-66.18-110.455-26.23-28.43-58.39-51.303-98.784-59.737-34.13-7.132-70.142-8.298-105.468-9.716-12.704-.505-22.396-4.316-38.535 9.502-16.138 13.819-11.354 215.53-15.36 305.756-2.834 63.622-19.5 375.259 0 423.342C657 1372 726.7 1361.694 750.516 1357.186c26.981-5.131 49.668-18.734 71.094-33.27 14.555-9.87 44.064-28.016 67.636-56.264 23.572-28.247 40.263-65.562 41.882-70.807 8.145-26.214 15.649-52.701 20.695-79.46zM875.97 962.302c-3.402 39.845-6.486 79.78-10.33 119.504-2.015 20.846-5.011 41.48-8.263 61.902-1.282 8.1-4.295 15.472-6.787 22.92-2.316 6.918-5.577 13.05-7.388 20.286-6.142 24.524-17.825 40.268-29.552 55.785-8.554 11.324-17.612 21.921-28.385 25.918-9.509 3.512-19.159 6.842-28.836 7.75-11.55 1.106-16.128-10.854-14.502-30.382 1.052-12.61.23-25.69.168-38.559-.23-48.504-.388-97.008-.768-145.497-.39-49.685-2.316-99.46-1.185-149.025 1.6-70.288-1.352-140.82 3.853-210.896.504-6.737-.114-13.715.168-20.543.098-2.407 1.043-6.086 2.112-6.752 5.038-3.088 10.313-7.796 15.386-7.403 14.104 1.106 28.482 2.014 42.11 7.57 16.127 6.57 28.968 24.388 39.44 46.536 12.133 25.66 20.555 54.787 26.423 86.048 5.231 27.81 6.884 56.543 6.575 85.684-.124 11.612.362 23.238.265 34.85-.106 11.369-.601 22.723-.928 34.077l.424.227z" fill="#FEDD00"/></svg>