<svg version="1.1" id="idapik" xmlns="http://www.w3.org/2000/svg" x="0" y="0" viewBox="0 0 2834.6 2551.2" xml:space="preserve"><script xmlns="" type="text/javascript" charset="utf-8" id="zm-extension"/><style type="text/css">.st0{fill:#fff}.st1{fill:#fedd00}</style><g id="r_x5F_hand"><path d="M2533.3 298.7c59.6-12.1 98.1-70.3 86-129.9l-5.1-24.9c-1.8-9-10.6-14.8-19.5-12.9l-161.8 32.9c-21.8 4.4-35.9 25.7-31.5 47.6 12.3 60.4 71.4 99.5 131.9 87.2z"/><path d="M2503.4 266.5c3.4 12.4 6.1 25 8.5 37.7 1.3 6.9 2.4 13.8 3.5 20.7.6 3.7 1.1 7.4 1.6 11.1.6 4-.8-6.3 0-.1.3 2.1.5 4.3.8 6.4 4 32.9 6.2 66 7.3 99.1 2.4 71.9-.3 144.2-8.4 215.7-.5 4.2-1 8.5-1.5 12.7-.3 2.2-.6 4.4-.8 6.7-.1 1-.3 2-.4 2.9-.7 5.4.8-5.9.1-.5-1.2 8.4-2.4 16.9-3.7 25.3-2.6 16.4-5.6 32.7-9.1 48.9-7.6 35.4-18 70-31.2 103.7-1.7 4.4-3.5 8.7-5.2 13.1-.4 1-.8 2-1.3 3.1-1.6 3.9.3-.6.5-1.1-1 2.6-2.2 5.1-3.3 7.6-4 9.1-8.1 18.2-12.4 27.2-8.3 17.3-17.1 34.4-26.4 51.2-17.9 32.3-37.5 63.7-58.6 94-4.9 7.1-10 14.2-15.1 21.1-2.2 3-4.4 6-6.7 9-1.2 1.6-2.5 3.3-3.7 4.9-.5.7-1.1 1.4-1.6 2.2-.5.7-3.6 4.7-1 1.3 2.7-3.4-1.7 2.1-2.2 2.8-1.1 1.4-2.2 2.8-3.2 4.1l-7.2 9c-4.6 5.7-9.3 11.3-14.1 16.9-14.8 17.3-30.3 34.2-47.5 49.1-1.5 1.3-3.1 2.6-4.6 3.9-.7.6-1.4 1.1-2.1 1.7-3.6 3 5.5-4.2 1.9-1.5-5.2 3.9-9.2 7.8-11 14.3-1.6 5.7-.9 13.4 2.4 18.5 6.4 9.9 22.1 16.7 32.8 8.6 17.8-13.4 33.6-29 48.6-45.5 21.2-23.3 40.8-48.1 59.5-73.4 44.7-60.7 83.6-126.1 113.7-195.2 16.2-37.1 30.1-75.2 39.9-114.5 8-32.3 13.8-65.2 18.3-98.2 10.1-74.2 14.5-149.2 13.3-224.1-1-65-5.3-131.2-19.5-194.8-1.4-6.2-2.9-12.3-4.5-18.4-3.3-12.1-17.2-20.7-29.5-16.8-12.6 4.1-20.4 16.7-16.9 29.6zm96.3-90.6c11.1-2.8 18-14.2 15.2-25.3l-22-88.2c-2.8-11.1-14.2-18-25.3-15.2-11.1 2.8-18 14.2-15.2 25.3l22 88.2c2.8 11.1 14.2 18 25.3 15.2zm-60.9-9.1c11.2-2.3 18.6-13.4 16.3-24.6l-18.1-89c-2.3-11.2-13.4-18.6-24.6-16.3-11.2 2.3-18.6 13.4-16.3 24.6l18.1 89c2.3 11.3 13.4 18.6 24.6 16.3zm-55.9 9.7c11.2-2.3 18.6-13.4 16.3-24.6l-18.1-89c-2.3-11.2-13.4-18.6-24.6-16.3-11.2 2.3-18.6 13.4-16.3 24.6l18.1 89c2.3 11.3 13.4 18.6 24.6 16.3zm-46.5 68l4.6-1.8c10.6-4.3 15.9-16.5 11.6-27.1l-32.6-81.1c-4.3-10.6-16.5-15.9-27.1-11.6l-4.6 1.8c-10.6 4.3-15.9 16.5-11.6 27.1l32.6 81.1c4.3 10.6 16.5 15.8 27.1 11.6z"/></g><g id="l_x5F_hand"><path d="M538.6 1171.9c-40.1 37.1-75.3 79.3-106.9 123.8-33 46.4-61.8 95.7-87.1 146.6-26.6 53.6-49.5 109.1-68.7 165.8-18.2 53.8-32.9 108.8-43.4 164.6-10 52.9-16.6 106.6-17.5 160.5-.1 6.2-.1 12.3-.1 18.5.1 12.6 11 24.6 24 24 12.9-.6 24.1-10.5 24-24-.2-24.9.9-49.7 3.1-74.5 1.1-13 2.5-25.9 4.2-38.8.2-1.8 1-7.4 0 .2.2-1.4.4-2.8.6-4.1.5-3.5 1-6.9 1.5-10.4 1-6.8 2.1-13.5 3.3-20.2 9.4-54.9 23-109.1 39.9-162.1 8.8-27.5 18.4-54.7 29-81.5 2.6-6.6 5.3-13.2 8-19.8.7-1.6 1.4-3.3 2-4.9.4-.9.8-1.9 1.2-2.8 0-.1-2 4.7-.9 2.2l4.5-10.5c5.8-13.3 11.7-26.4 17.9-39.5 24.3-51 51.9-100.4 83.6-147.2 7.7-11.3 15.6-22.5 23.8-33.5 2-2.7 4-5.3 6-8 1-1.3 2-2.6 3-4 .1-.2-3.2 4.1-1.6 2.1.7-.9 1.4-1.9 2.2-2.8 4.1-5.2 8.2-10.3 12.3-15.4 16.5-20.1 34-39.4 52.6-57.6 4.4-4.3 8.9-8.6 13.5-12.8 9.2-8.5 9.3-25.4 0-33.9-9.9-9.1-24.1-9.1-34 0z"/><path d="M244.9 2106.7l-143.5-27.6 12.9-66.9c8.8-45.6 52.8-75.4 98.4-66.6l60.5 11.6c41.4 8 68.5 48 60.5 89.4-7.9 41.1-47.6 68-88.8 60.1z"/><path d="M111.6 2165.2c-14.2-2.7-23.5-16.5-20.8-30.7l15.1-78.3c1.2-6.5 7.6-10.8 14.1-9.5l20.7 4c6.5 1.2 10.8 7.6 9.5 14.1l-16.5 85.6c-2.1 10.1-12 16.8-22.1 14.8zm57.7 30.1c-14.2-2.7-23.5-16.5-20.8-30.7l16.3-84.7c1.2-6.5 7.6-10.8 14.1-9.5l20.7 4c6.5 1.2 10.8 7.6 9.5 14.1l-17.7 92c-2 10.1-11.9 16.8-22.1 14.8zm60.2 17.7c-14.2-2.7-23.5-16.5-20.8-30.7l16.2-84.2c1.2-6.5 7.6-10.8 14.1-9.5l20.7 4c6.5 1.2 10.8 7.6 9.5 14.1l-17.6 91.5c-2 10.1-11.9 16.8-22.1 14.8zm103.8-67.2c-14.4.4-26.6-11-27-25.4l-3.3-108.1 12-.4c18.2-.6 33.5 13.9 34 32l2.5 82.5c.3 10.4-7.9 19.1-18.2 19.4z"/></g><g id="body"><g id="main_logo_1-copy_14_"><g id="Group-3_14_"><g id="Group-2_14_"><path id="Fill-272_14_" d="M817.5 573.6c26.7 21.3 34.3 61-8.4 63.6-42.7 2.7-69.4-18.7-69.4-18.7 5.4 26.7-10.7 48 21.4 80-18.7 24-104 88-170.7 21.3-13.4 8 18.7 93.3 109.3 61.4-77.4 24-157.4 24-184-13.4 10.7 50.7 77.3 90.7 112 88-40 16-106.7 2.7-106.7 2.7s45.3 69.4 77.4 66.7c-26.7 26.7-146.7 229.4-168 392.1 0 0 66.7-82.7 98.7-98.7-64 98.7-90.7 189.4-58.7 298.7 10.7-21.3 48-93.3 48-93.3s-90.7 322.7 280.1 520.1c-18.7-29.3-34.7-82.7-34.7-82.7s117.4 125.4 285.4 184c-24-5.3-26.7-53.3-26.7-53.3s74.7 106.7 421.4 109.4c-58.7-24-85.3-45.3-133.4-117.4 0 0 101.3 88 181.4 109.4-50.7-42.7-64-77.4-64-77.4s53.3 58.7 178.7 90.7c-34.7-32-40-45.3-40-45.3l48 32s112-10.7 205.4-66.7c-13.4 21.4-42.7 42.7-72 58.7 93.3-26.7 173.4-98.7 216-173.4-34.6 72-66.7 106.7-66.7 106.7s85.4-32 165.4-133.3c-32 56-45.3 80-45.3 80s101.4-61.4 152-178.7c8 42.7-16 77.3-16 77.3s266.7-258.7 170.7-509.4c21.4 29.3 42.7 104 42.7 104s72-250.7-98.7-424.1c24 21.3 109.3 117.4 109.3 117.4s-40-181.4-154.7-272c18.7-2.7 194.7 106.7 194.7 114.7-50.7-96-64-138.7-184-181.4 40 10.7 149.4-18.7 165.4-40-66.7 21.3-162.7 10.7-205.3-24 13.3-45.3 90.7-32 90.7-32s-93.4-45.3-189.4-58.7c0 0-45.4-69.5-173.4-125.4-128-55.8-224-93.3-261.4-125.3-37.3-32-125.4-74.7-101.3-152-21.4 34.7-53.3 136 34.6 178.7-48-34.7-125.3-88-128-130.7-13.3 34.7 26.7 122.7 26.7 122.7s-50.7-122.7-234.7-85.4c34.7 16 82.7 69.4 82.7 69.4s-82.7-37.3-152-34.7c29.3 16 32 37.3 32 37.3s-147.9 18.2-264 125.4c-68.8 63.2-138.5 35-138.5 35"/></g></g></g></g><g id="r_x5F_eye"><path class="st0" d="M1703.9 945.5c-31 104.1 8.6 225.6 131.7 235.5 91.5 7.4 160.4-57.5 172.2-151.3 10.6-84.1-27.4-187.1-134.6-197.3-89.6-8.5-146.2 35.8-169.3 113.1z"/><ellipse cx="1843" cy="1033.7" rx="82.9" ry="90.8"/><path class="st0" d="M1776.8 979.1c2.9 7.3 9.5 12.5 17.3 12.5 10.4 0 18.8-9.2 18.8-20.6 0-7.4-3.5-13.8-8.8-17.4-10.8 6.2-20.1 14.9-27.3 25.5z"/></g><path class="st1" d="M1776.8 725.9c46-2.6 92.2-3.4 138.3-4.5 11.3-.3 22.6-.5 33.9-.7 9.4-.2 18.4-8.2 18-18-.4-9.6-7.9-18.2-18-18-47.7.8-95.4 2.2-143.1 4-9.7.4-19.4.7-29.1 1.3-9.4.5-18.5 7.9-18 18 .4 9.2 7.9 18.5 18 17.9z" id="r_x5F_eyebrow"/><path class="st1" d="M960.6 757.5c46-2.6 92.2-3.4 138.3-4.5 11.3-.3 22.6-.5 33.9-.7 9.4-.2 18.4-8.2 18-18-.4-9.6-7.9-18.2-18-18-47.7.8-95.4 2.2-143.1 4-9.7.4-19.4.7-29.1 1.3-9.4.5-18.5 7.9-18 18 .4 9.2 7.9 18.5 18 17.9z" id="l_x5F_eyebrow"/><path class="st1" d="M932.9 1040.5c16.9-3.4 33.9-6.4 51-8.8 1-.1 7-1 3.1-.4 2.1-.3 4.2-.6 6.4-.8 4.8-.6 9.7-1.2 14.5-1.7 9.3-1 18.6-1.8 28-2.3 19-1.2 38.1-1.5 57.2-.7 9.3.4 18.6 1.1 27.9 2.1 2.5.3 5 .6 7.6.9.6.1 3.5.5.2 0 1.1.2 2.2.3 3.3.5 4.7.7 9.5 1.5 14.2 2.4 21.2 4 42 9.9 62 18.1 8.7 3.6 20.2-3.9 22.1-12.6 2.4-10.5-3.2-18.3-12.6-22.1-72.9-30-155.4-29.7-232.4-19.5-20.8 2.8-41.5 6.2-62 10.3-9.2 1.8-15.4 13.4-12.6 22.1 3.1 9.7 12.2 14.5 22.1 12.5z" id="l_x5F_eye"/><g id="smile"><path d="M1009.1 1337.5c-67.7 56.1 23.3 313.1 422.3 370.7 441.2 63.8 620.7-311.5 472.7-304.8-697.3 31.6-790.6-152.4-895-65.9z" fill="#302e28"/><path class="st0" d="M1009.1 1337.5c-67.7 56.1 23.3 313.1 422.3 370.7 441.2 63.8 620.7-311.5 472.7-304.8-697.3 31.6-790.6-152.4-895-65.9z"/><path class="st1" d="M1906.2 1403.4l-4.3 49.2c-3.8 43.4-30.5 62.3-85.9 72 0 0-82.2 19.9-368.4-9.7-286.3-29.6-343.6-71-343.6-71-54.7-29.9-70.1-41.4-66.4-67.8l4.4-50.2c.2-2.5.6-5 1-7.4-11.7 3.7-22.7 9.8-33.9 19.1-67.7 56.1 23.3 313.1 422.3 370.7 439.1 63.4 619-308 474.8-304.9z"/></g></svg>