<svg width="1987" height="1851" xmlns="http://www.w3.org/2000/svg"><script xmlns="" type="text/javascript" charset="utf-8" id="zm-extension"/><g fill="none" fill-rule="evenodd"><path d="M1599.863 317.782c-26.673 21.323-34.289 60.963 8.397 63.619 42.685 2.655 69.359-18.668 69.359-18.668-5.35 26.674 10.661 47.997-21.363 80.021 18.668 23.98 104.039 87.989 170.703 21.324 13.356 8.006-18.668 93.339-109.35 61.354 77.365 23.979 157.386 23.979 184.02-13.357-10.661 50.692-77.326 90.683-112.005 88.028 39.99 16.012 106.694 2.655 106.694 2.655s-45.341 69.36-77.365 66.704c26.674 26.674 146.724 229.364 168.047 392.063 0 0-66.664-82.677-98.688-98.69 64.009 98.69 90.682 189.373 58.658 298.724-10.661-21.323-47.996-93.339-47.996-93.339s90.682 322.703-280.053 520.081c18.668-29.33 34.68-82.677 34.68-82.677s-117.356 125.363-285.364 184.022c23.98-5.311 26.674-53.347 26.674-53.347s-74.71 106.695-421.426 109.39c58.658-24.019 85.332-45.342 133.368-117.357 0 0-101.344 87.988-181.365 109.35 50.653-42.685 64.009-77.365 64.009-77.365S936.15 1819.015 810.788 1851c34.68-31.985 39.991-45.342 39.991-45.342l-47.996 32.025s-112.006-10.662-205.383-66.705c13.357 21.363 42.686 42.686 72.015 58.699-93.338-26.674-173.358-98.69-216.005-173.36 34.64 72.015 66.665 106.655 66.665 106.655s-85.371-31.985-165.353-133.33c31.985 56.004 45.341 80.022 45.341 80.022s-101.382-61.354-152.035-178.71c-8.006 42.685 16.012 77.326 16.012 77.326S-2.695 1349.587 93.338 1098.86c-21.363 29.33-42.686 104.04-42.686 104.04s-72.014-250.726 98.688-424.087C125.322 800.137 39.99 896.17 39.99 896.17s39.991-181.366 154.691-272.05C176.014 621.427 0 730.778 0 738.784c50.652-95.994 64.009-138.68 184.02-181.366-40.03 10.7-149.38-18.668-165.352-39.991 66.664 21.323 162.696 10.661 205.343-24.019-13.318-45.341-90.683-31.985-90.683-31.985s93.377-45.341 189.37-58.698c0 0 45.38-69.516 173.359-125.363 128.017-55.808 224.05-93.339 261.384-125.324C794.777 120.013 882.803 77.327 858.785 0c21.362 34.68 53.347 136.025-34.64 178.71 47.996-34.68 125.322-88.027 128.017-130.713 13.317 34.68-26.674 122.708-26.674 122.708S976.141 47.997 1160.2 85.333c-34.68 16.012-82.716 69.36-82.716 69.36s82.716-37.336 152.035-34.68c-29.329 16.012-31.984 37.335-31.984 37.335s147.856 18.16 264.04 125.363c68.617 63.346 138.288 35.07 138.288 35.07" fill="#000"/><path d="M1258.112 989.725c-2.572-31.072-4.582-62.203-7.803-93.216-5.512-53.114-10.591-106.308-18.351-159.146-2.702-18.375-11.283-36.474-19.994-53.509-6.204-12.125-20.794-16.324-29.96-10.922-22.025 12.973-43.381 27.03-49.909 52.306-10.44 40.358-22.977 80.44-30.002 121.291-7.998 46.49-10.83 93.69-16.103 140.574-.8 7.177.043 12.54 9.64 13.012 19.454.947 38.908 2.09 58.383 2.958 29.375 1.301 58.75 2.247 88.126 3.706 13.25.67 16.32-2.326 15.973-17.054m-172.014 181.997c2.658 46.628 1.361 93.65 14.18 139.489 1.642 5.855 1.902 12.815.021 18.474-1.794 5.421-6.096 12.302-11.24 14.234-17.335 6.526-35.817 10.529-54.816 8.281-28.143-3.352-40.291-14.925-42.712-41.226-1.751-19.025-2.94-38.19-2.745-57.274.864-78.804-.13-157.746 4.496-236.392 3.155-53.529 12.688-106.959 22.739-159.895 9.014-47.476 21.053-94.597 34.865-141.106 6.81-22.95 18.762-45.17 31.732-65.99 25.225-40.535 67.504-56.82 117.587-48.106 7.976 1.38 15.887 3.037 23.82 4.555 39.902 7.65 59.096 34.463 72.584 66.067 20.989 49.191 28.576 100.985 33.158 153.054 3.89 44.301 5.9 88.76 7.673 133.2 2.01 49.841 3.848 99.742 3.891 149.623.043 79.14-1.426 158.298-2.378 237.437-.28 23.6-19.54 34.897-44.916 32.196-19.865-2.11-33.136-9.385-43.23-23.797-3.048-4.357-.67-16.324-.541-17.468 2.659-26.932 6.614-53.824 7.63-80.795 1.859-49.526-1.664-65.035 0-114.56.432-12.5-67.817-19.279-92.848-20.501-27.71-1.38-54.72 0-82.43 0 0 0 1.772 20.63 3.48 50.5zm-680.195 54.392c-5.513-132.492-12.94-264.944-17.768-397.456-1.771-48.4 2.085-96.898 2.571-145.357.086-8.439-3.257-16.957-5.885-25.297-2.942-9.328-11.17-10.573-22.767-6.364-37.907 13.795-72.358 2.135-80.585-27.115-.314-1.146-.886-2.272-1.171-3.419-9.713-39.842 10.998-55.79 69.187-56.957 45.477-.909 90.783-4.96 136.204-6.917 24.738-1.087 49.705-1.74 74.415-.731 23.452.968 44.17 11.72 37.896 43.499-6.274 31.78-37.483 39.827-46.266 40.988-5.69.748-26.734 0-36.022 17.016-9.289 17.016-5.957 44.66-5.856 50.65 1.542 101.107 1.942 181.157 5.856 282.245 3.37 87.135-5.542 148.119 0 235.215 2 31.245-2.657 63.617-1.6 94.902.143 4.585.971 9.17 1.6 14.941 5.224-.296 64.938-3.014 93.288 16.043 28.35 19.057 14.331 44.1 7 49-21 14.034-47.47 22.508-80.292 17.686-32.451-4.763-67.702-1.344-101.61-.06-20.71.79-41.164 4.546-61.817 6.66-35.965 3.676-63.646-12.826-64.617-38.32-.143-3.518-.029-7.036-.029-10.554.029-20.534 6.456-26.206 35.937-29.25 19.453-2.015 39.193-2.904 62.588-4.564 0-39.25 1.371-77.887-.257-116.484zM1467.034 920.27s10.076-1.452 14.274-3.257c14.703-6.378 29.325-12.97 43.68-19.996 71.982-35.202 115.745-124.15 98.89-204.249-6.45-30.709-23.345-54.629-57.073-62.949-20.314-5.023-40.71-2.492-61.107 2.14-12.021 2.727-18.533 8.633-20.274 19.837-1.7 11.087-3.481 22.193-4.423 33.359-4.813 56.375-9.81 112.75-13.72 169.203-1.496 21.448-.247 43.071-.247 65.912M1594 565.536c40 7.464 104.01 59.927 112.775 122.385 3.45 24.535 2.453 53.01-2.358 82.46-8.985 54.99-31.267 113.386-62.73 155.897-48.313 65.278-118.687 84.722-146.11 101.326-27.421 16.605-18.805 79.82-19.48 142.278-.676 61.673-1.23 123.446 0 185.139 1.228 61.692.983 22.94 0 36.873-1.598 22.428-30.237 33.554-53.665 33.888-10.403.157-21.154-.844-31.209-3.356-17.632-4.434-21.83-13.343-20.97-30.532 1.106-22.056.492-44.249-.122-66.343-2.806-99.447-.533-198.736 7.351-297.947 4.506-56.885 6.144-114.006 10.751-170.871 3.625-44.406 14.52-171.01 16.056-189.925 1.781-22.017 1.09-16.87 3.711-38.808 3.195-26.686 10.296-57.93 38.495-62.464 29.448-4.729 107.505-7.463 147.505 0zm-642.177 551.849c-5.046 26.759-12.55 53.246-20.695 79.46-1.62 5.245-18.31 42.56-41.882 70.807-23.572 28.248-53.081 46.394-67.636 56.264-21.426 14.536-44.113 28.139-71.094 33.27C726.7 1361.693 657 1372 637.5 1323.915c-19.5-48.083-2.834-359.72 0-423.342 4.006-90.227-.778-291.937 15.36-305.756 16.139-13.818 25.83-10.007 38.535-9.502 35.326 1.418 71.338 2.584 105.468 9.716 40.394 8.434 72.555 31.306 98.783 59.737 30.39 32.938 51.484 70.327 66.18 110.455 6.6 17.978 29.49 39.708 21.834 165.638-7.655 125.93-27.059 161.211-31.838 186.523zM875.97 962.302l-.424-.227c.327-11.354.822-22.708.928-34.077.097-11.612-.389-23.238-.265-34.85.31-29.141-1.344-57.874-6.575-85.684-5.868-31.261-14.29-60.388-26.423-86.048-10.472-22.148-23.313-39.966-39.44-46.536-13.628-5.556-28.006-6.464-42.11-7.57-5.073-.393-10.348 4.315-15.386 7.403-1.069.666-2.014 4.345-2.112 6.752-.282 6.828.336 13.806-.168 20.543-5.205 70.077-2.253 140.608-3.853 210.896-1.13 49.564.796 99.34 1.185 149.025.38 48.49.539 96.993.768 145.497.062 12.868.884 25.948-.168 38.559-1.626 19.528 2.952 31.488 14.502 30.383 9.677-.909 19.327-4.239 28.836-7.751 10.773-3.997 19.83-14.594 28.385-25.918 11.727-15.517 23.41-31.26 29.552-55.785 1.811-7.237 5.072-13.368 7.388-20.286 2.492-7.448 5.505-14.82 6.787-22.92 3.252-20.422 6.248-41.056 8.262-61.902 3.845-39.724 6.929-79.66 10.331-119.504z" fill="#FFF"/></g></svg>