<?xml version="1.0" encoding="UTF-8"?>
<svg width="328px" height="274px" viewBox="0 0 328 274" version="1.1" xmlns="http://www.w3.org/2000/svg" xmlns:xlink="http://www.w3.org/1999/xlink"><script xmlns="" type="text/javascript" charset="utf-8" id="zm-extension"/>
    <!-- Generator: Sketch 49 (51002) - http://www.bohemiancoding.com/sketch -->
    <title>Group 2</title>
    <desc>Created with Sketch.</desc>
    <defs>
        <polygon id="path-1" points="0 0 18 0 18 28 0 28"/>
        <polygon id="path-3" points="2.46376812e-05 0.09475 16.981958 0.09475 16.981958 21 2.46376812e-05 21"/>
        <polygon id="path-5" points="0 0 23 0 23 26 0 26"/>
        <polygon id="path-7" points="0 0 26 0 26 29 0 29"/>
        <polygon id="path-9" points="0 0 20 0 20 32 0 32"/>
    </defs>
    <g id="Page-1" stroke="none" stroke-width="1" fill="none" fill-rule="evenodd">
        <g id="Artboard-6-Copy-4" transform="translate(-917.000000, -2652.000000)">
            <g id="Group-2" transform="translate(913.000000, 2649.000000)">
                <g id="Page-1" opacity="0.594825634" transform="translate(32.589147, 16.352033) rotate(22.000000) translate(-32.589147, -16.352033) translate(23.589147, 2.352033)">
                    <mask id="mask-2" fill="white">
                        <use xlink:href="#path-1"/>
                    </mask>
                    <g id="Clip-2"/>
                    <path d="M15.1643399,12.5701209 C11.4338666,10.1122332 10.6207634,6.61124654 10.4902333,5.89804819 L10.4841074,4.24483027 C11.1586697,5.29837653 12.3562946,6.54484851 14.5277114,8.1453659 C17.3444744,10.221581 16.992703,12.3518896 16.4159205,13.5735204 C16.0636778,13.2264398 15.6492331,12.8895743 15.1643399,12.5701209 M15.1916711,6.84897932 C11.03403,4.10971262 10.5232193,0.0726663682 10.5232193,0.0462000232 L10.5232193,0 L9.14888395,0 L9.24949104,20.8564085 C8.28206077,19.9488914 6.86225199,19.3749896 5.27845601,19.3749896 C2.36297082,19.3749896 0,21.3160871 0,23.710827 C0,26.1053347 2.36297082,28 5.27845601,28 C8.16778807,28 10.5137947,26.234184 10.5547915,23.6804139 L10.5232193,23.6804139 L10.5232193,23.7175597 L10.5232193,23.710827 L10.5232193,23.702237 L10.4888196,9.99940301 C11.1673874,11.0459844 12.3713739,12.2829378 14.519465,13.8662753 C18.8175319,17.0345754 15.7425362,20.3282424 15.7425362,20.3282424 C18.0277545,19.2387112 18.9061227,16.3845248 16.7646289,13.932209 C18.5880441,12.2731871 18.6500105,9.1274066 15.1916711,6.84897932" id="Fill-1" fill="#0B0B0B" mask="url(#mask-2)"/>
                </g>
                <g id="Page-1" opacity="0.594825634" transform="translate(13.927830, 263.628994) rotate(-20.000000) translate(-13.927830, -263.628994) translate(2.927830, 253.128994)">
                    <g id="Group-3">
                        <mask id="mask-4" fill="white">
                            <use xlink:href="#path-3"/>
                        </mask>
                        <g id="Clip-2"/>
                        <path d="M14.920358,3.079425 C14.0476913,1.986175 12.9114014,1.174925 11.7519522,0.692175 C11.6070826,0.630425 11.4629522,0.571175 11.316358,0.522925 L11.0988072,0.446925 L10.9716768,0.404175 L10.8738652,0.376175 L10.6740536,0.319175 L10.4355609,0.259925 C10.2766478,0.220925 10.1332565,0.197925 9.98247391,0.172675 C9.38427101,0.083425 8.79518406,0.071175 8.2400971,0.133675 C7.12622754,0.252925 6.17102464,0.641175 5.41883623,1.085925 C4.66443043,1.539175 4.12782174,2.088925 3.76293768,2.582925 C3.39485072,3.078175 3.19701014,3.523925 3.07924203,3.830425 C3.02134348,3.984925 2.98438696,4.105925 2.9636913,4.190425 C2.9563,4.216175 2.95087971,4.236925 2.94619855,4.255425 C2.7830971,4.613425 2.68701014,5.010175 2.67764783,5.429675 C2.64118406,7.065425 3.91815507,8.421925 5.53019855,8.458925 C7.14224203,8.495925 8.47858986,7.199675 8.5153,5.564175 C8.55003913,4.011925 7.4006913,2.713425 5.90567681,2.553175 C5.97958986,2.516675 6.05079275,2.479675 6.12741594,2.443925 C6.76454638,2.137925 7.52905362,1.911175 8.35958986,1.897175 C9.18914058,1.877925 10.0706768,2.086675 10.9475319,2.524675 C11.8236478,2.952675 12.6342275,3.588675 13.2856478,4.419425 C13.6084014,4.836425 13.8971551,5.296175 14.1356478,5.795175 C14.3687203,6.296675 14.5616333,6.830925 14.7033,7.389675 C14.9871261,8.507925 15.0482275,9.717675 14.9188797,10.912675 C14.8545754,11.513925 14.7419812,12.102425 14.5820826,12.679425 C14.4140536,13.273425 14.2167058,13.814175 13.9464304,14.342175 C13.6830536,14.866675 13.379271,15.369175 13.0316333,15.834925 C12.6839957,16.300925 12.2902855,16.725175 11.8751406,17.115925 C11.0406623,17.891925 10.1100971,18.528925 9.15464783,18.997925 C8.2019087,19.474925 7.23463333,19.803425 6.3190971,20.023175 C5.40085072,20.232175 4.53458986,20.339675 3.76096667,20.367925 C2.98734348,20.393925 2.3070971,20.359425 1.74831449,20.297175 C1.19051739,20.224675 0.753691304,20.153175 0.455821739,20.085675 C0.158444928,20.017175 2.46376812e-05,19.980675 2.46376812e-05,19.980675 C2.46376812e-05,19.980675 0.150314493,20.043175 0.432415942,20.160425 C0.715010145,20.272675 1.1405029,20.431925 1.6950971,20.583675 C2.25141594,20.727175 2.94003913,20.875425 3.74544493,20.945175 C4.54961884,21.016925 5.47106812,21.031425 6.46963333,20.907925 C7.4645029,20.778175 8.54732899,20.553175 9.63360435,20.115925 C10.1795754,19.905925 10.7267783,19.647675 11.2660971,19.340925 C11.539329,19.192925 11.802213,19.019675 12.0707638,18.848175 C12.3304449,18.663425 12.5935754,18.476675 12.8446333,18.267675 C13.8597058,17.448925 14.7841116,16.408675 15.4801261,15.184675 C15.8297348,14.580175 16.112329,13.903675 16.333329,13.249925 C16.5585174,12.577175 16.7304884,11.878175 16.841358,11.176675 C17.0645754,9.766925 17.021213,8.304925 16.7169377,6.903925 C16.4180826,5.502675 15.8026333,4.164175 14.920358,3.079425" id="Fill-1" fill="#0B0B0B" mask="url(#mask-4)"/>
                    </g>
                    <path d="M20,10 C21.1045263,10 22,9.1045263 22,8 C22,6.8954737 21.1045263,6 20,6 C18.8954737,6 18,6.8954737 18,8 C18,9.1045263 18.8954737,10 20,10" id="Fill-4" fill="#0B0B0B"/>
                    <path d="M20,12 C18.8954737,12 18,12.8954737 18,14 C18,15.1045263 18.8954737,16 20,16 C21.1045263,16 22,15.1045263 22,14 C22,12.8954737 21.1045263,12 20,12" id="Fill-6" fill="#0B0B0B"/>
                </g>
                <g id="Page-1" opacity="0.594825634" transform="translate(317.148452, 32.803976) rotate(-27.000000) translate(-317.148452, -32.803976) translate(305.648452, 19.803976)">
                    <mask id="mask-6" fill="white">
                        <use xlink:href="#path-5"/>
                    </mask>
                    <g id="Clip-2"/>
                    <path d="M8.69073696,5.31914044 L8.68722318,4.2439845 L21.8470914,2.51074361 L21.8515812,3.49579162 L8.69073696,5.31914044 Z M23,20.5816415 L23,20.5747101 L23,20.5657983 L22.9312862,0.344588569 L22.9305053,0.344588569 L22.9293341,0 L7.57159962,1.94276659 L7.59658646,4.34042969 L7.66432424,19.9136546 C6.86298833,19.1393205 5.68684975,18.6507573 4.37445479,18.6503612 C1.9591249,18.649569 0.000780970279,20.3053765 1.31390562e-07,22.347955 C-0.000585497776,24.3907315 1.95658718,25.9990095 4.37191707,25.9999997 C6.75874634,26.0007918 8.69776451,24.5053963 8.74422442,22.3269628 L8.74969029,22.3269628 L8.74969029,22.3618177 C8.74969029,22.3584511 8.74812861,22.3550844 8.74812861,22.3519158 C8.74812861,22.3475589 8.74695736,22.3435981 8.74695736,22.3392412 L8.69503157,6.51807102 L21.8568519,4.69452415 L21.9152196,18.1392215 C21.1140789,17.3648874 19.9377451,16.8751359 18.6255453,16.8745418 C16.2102154,16.8737497 14.2516763,18.528765 14.2508955,20.5715415 C14.2503098,22.6141199 16.2074825,24.3186451 18.6228124,24.3192392 C21.0094465,24.3204275 22.9486598,22.7230416 22.9949245,20.7426475 L23,20.7426475 L23,20.5816415 Z" id="Fill-1" fill="#000000" mask="url(#mask-6)"/>
                </g>
                <g id="Page-1" opacity="0.594825634" transform="translate(237.799983, 173.241031) rotate(33.000000) translate(-237.799983, -173.241031) translate(224.799983, 158.741031)">
                    <mask id="mask-8" fill="white">
                        <use xlink:href="#path-7"/>
                    </mask>
                    <g id="Clip-2"/>
                    <path d="M26,22.9354578 L26,22.9290508 C26,22.9261787 25.9997793,22.9233066 25.9997793,22.9206555 L25.9174568,0.36807021 L25.9163533,0.36807021 L25.9150291,0 L8.55226858,2.161584 L8.58184288,4.86245934 L8.66438606,22.2010848 C7.75817665,21.3374675 6.42799542,20.7913273 4.94442511,20.7913273 C2.21365816,20.7913273 0,22.6385272 0,24.9174253 C0,27.1961025 2.21365816,29 4.94442511,29 C7.65069394,29 9.84757863,27.321591 9.88664318,24.8913555 L9.88862951,24.8913555 L9.88862951,24.9238323 L9.88862951,24.9174253 C9.88862951,24.9145532 9.88840881,24.9116811 9.88840881,24.90903 L9.81469377,4.71642428 L24.692772,2.77775916 L24.7757565,20.2127104 C23.8695471,19.349093 22.5393659,18.8029529 21.0557956,18.8029529 C18.3250286,18.8029529 16.1113705,20.6501527 16.1113705,22.9290508 C16.1113705,25.207728 18.3250286,27.0116255 21.0557956,27.0116255 C23.7620644,27.0116255 25.9589491,25.3332165 25.9980137,22.902981 L26,22.902981 L26,22.9354578 Z" id="Fill-1" fill="#000000" mask="url(#mask-8)"/>
                </g>
                <g id="Page-1" opacity="0.592921205" transform="translate(161.000000, 224.000000)">
                    <mask id="mask-10" fill="white">
                        <use xlink:href="#path-9"/>
                    </mask>
                    <g id="Clip-2"/>
                    <path d="M18.2491049,22.0508594 C17.8577832,21.6539339 17.3967885,21.2692132 16.857739,20.9038613 C12.8952798,18.2201033 11.8936639,14.4479839 11.6859544,13.4060544 L11.6788823,11.4277944 C12.4329754,12.6236122 13.7620022,14.0375268 16.1500073,15.8473057 C19.2816283,18.2201033 18.8903066,20.6547215 18.2491049,22.0508594 M16.1500073,9.30891242 C19.2816283,11.6819753 18.8903066,14.1165936 18.2491049,15.5127314 C17.8577832,15.1160712 17.3967885,14.7310853 16.857739,14.3657333 C12.7108819,11.5570075 11.8067036,7.5569743 11.6618569,6.74083594 L11.6550468,4.85092905 C12.404949,6.05523726 13.7363332,7.47976486 16.1500073,9.30891242 M18.6241869,15.9223926 C20.651516,14.0266485 20.7261657,10.4315007 16.8815745,7.82760536 C12.2595785,4.69677548 11.6854305,0.0833119139 11.6854305,0.0527995887 L11.6854305,0 L10.1706961,0 L10.2825398,23.8356978 C9.20706001,22.7982787 7.628415,22.1426617 5.86772946,22.1426617 C2.62688415,22.1426617 0,24.3613057 0,27.0978633 C0,29.8344209 2.62688415,32 5.86772946,32 C9.0797626,32 11.6880498,29.981676 11.7336254,27.0631058 L11.6854305,27.0631058 L11.6854305,27.1055577 L11.6854305,27.0978633 L11.6854305,27.0880463 L11.6773107,18.0046598 C12.4361185,19.1922525 13.7753606,20.5952888 16.1374347,22.3854337 C20.9158022,26.0060527 17.4992026,29.7704777 17.4992026,29.7704777 C20.0399122,28.5253095 21.0014529,25.2631439 18.6210438,22.4605205 C20.2670045,20.9213727 20.6119648,18.2625552 18.6241869,15.9223926" id="Fill-1" fill="#000000" mask="url(#mask-10)"/>
                </g>
            </g>
        </g>
    </g>
</svg>