<?xml version="1.0" encoding="UTF-8"?>
<svg width="436px" height="244px" viewBox="0 0 436 244" version="1.1" xmlns="http://www.w3.org/2000/svg" xmlns:xlink="http://www.w3.org/1999/xlink"><script xmlns="" type="text/javascript" charset="utf-8" id="zm-extension"/>
    <!-- Generator: Sketch 49 (51002) - http://www.bohemiancoding.com/sketch -->
    <title>Group</title>
    <desc>Created with Sketch.</desc>
    <defs>
        <polygon id="path-1" points="0 0 19 0 19 28 0 28"/>
        <polygon id="path-3" points="0 0 17 0 17 27 0 27"/>
        <polygon id="path-5" points="0 0 17.3545387 0 17.3545387 27.1887773 0 27.1887773"/>
        <polygon id="path-7" points="0 0 9 0 9 25 0 25"/>
        <polygon id="path-9" points="0 0 24 0 24 67 0 67"/>
    </defs>
    <g id="Page-1" stroke="none" stroke-width="1" fill="none" fill-rule="evenodd">
        <g id="Artboard-6-Copy-4" transform="translate(-61.000000, -2691.000000)">
            <g id="Group" transform="translate(61.000000, 2691.000000)">
                <g id="Page-1" opacity="0.594825634" transform="translate(417.000000, 0.000000)">
                    <mask id="mask-2" fill="white">
                        <use xlink:href="#path-1"/>
                    </mask>
                    <g id="Clip-2"/>
                    <path d="M15.3988382,3.58298908 C15.3679499,3.61349103 12.9014176,6.01839172 8.86617245,7.3886028 C9.01567174,6.95523739 9.09927602,6.49335069 9.09927602,6.01205365 C9.09927602,3.59526908 7.06270863,1.63601381 4.54963801,1.63601381 C2.03697923,1.63601381 0,3.59526908 0,6.01205365 C0,6.17882406 0.011943469,6.34282157 0.030888282,6.50444231 C0.0317119695,7.16756267 0.18409416,7.82592949 0.49956648,8.41933111 C0.913469459,9.1993096 2.24454849,10.9656499 5.65132007,10.5588252 C9.1235748,10.141305 11.9595309,8.85507328 13.9499718,7.65123649 L7.62487536,27.2968706 L9.98556379,28 L19,0 L15.3988382,3.58298908 Z" id="Fill-1" fill="#000000" mask="url(#mask-2)"/>
                </g>
                <g id="Page-1" opacity="0.594825634" transform="translate(366.000000, 217.000000)">
                    <mask id="mask-4" fill="white">
                        <use xlink:href="#path-3"/>
                    </mask>
                    <g id="Clip-2"/>
                    <path d="M14.3218766,12.121188 C10.7986518,9.75108204 10.030721,6.37513059 9.90744258,5.68740361 L9.90165696,4.09322919 C10.5387436,5.1091488 11.6698338,6.31110393 13.7206164,7.85445998 C16.3808925,9.85652455 16.048664,11.9107507 15.5039249,13.0887518 C15.1712513,12.754067 14.7798313,12.4292324 14.3218766,12.121188 M14.3476894,6.60437292 C10.4210283,3.96293717 9.93859596,0.0700711407 9.93859596,0.0445500224 L9.93859596,0 L8.64061262,0 L8.73563043,20.1115367 C7.82194628,19.236431 6.48101577,18.6830257 4.98520846,18.6830257 C2.23169467,18.6830257 0,20.5547983 0,22.8640117 C0,25.1730013 2.23169467,27 4.98520846,27 C7.71402207,27 9.929695,25.2972489 9.9684142,22.8346848 L9.93859596,22.8346848 L9.93859596,22.870504 L9.93859596,22.8640117 L9.93859596,22.8557286 L9.90610744,9.64228148 C10.546977,10.651485 11.6840754,11.8442615 13.712828,13.3710512 C17.7721135,16.4261977 14.8679509,19.6022337 14.8679509,19.6022337 C17.0262126,18.5516143 17.8557826,15.7993632 15.8332606,13.4346301 C17.555375,11.834859 17.6138988,8.80142779 14.3476894,6.60437292" id="Fill-1" fill="#000000" mask="url(#mask-4)"/>
                </g>
                <g id="Page-1" opacity="0.594825634" transform="translate(119.711357, 16.573104) rotate(-38.000000) translate(-119.711357, -16.573104) translate(110.711357, 2.573104)">
                    <mask id="mask-6" fill="white">
                        <use xlink:href="#path-5"/>
                    </mask>
                    <g id="Clip-2"/>
                    <path d="M14.6179633,6.65054904 C10.6004933,3.9904196 10.0473172,0.0705610606 10.0473172,0.0446360703 L10.0473172,0 L8.83943554,0 L8.93663974,20.2519261 C8.00193147,19.3707019 6.63014577,18.8134273 5.09969186,18.8134273 C2.28304659,18.8134273 0,20.6985123 0,23.0236458 C0,25.3487792 2.28304659,27.1887773 5.09969186,27.1887773 C7.89175153,27.1887773 10.1581801,25.4741209 10.1975626,22.9943392 L10.2749617,22.9943392 L10.2749617,23.0301834 L10.2749617,23.0236458 L10.2749617,23.0155301 L10.1675135,4.12184803 C10.8192597,5.14487069 11.9574821,6.35522959 14.0552261,7.90915096 C18.2079169,10.9856583 15.2066519,14.1841258 15.2066519,14.1841258 C17.8416369,12.9214661 18.4954319,9.21802482 14.6179633,6.65054904" id="Fill-1" fill="#000000" mask="url(#mask-6)"/>
                </g>
                <g id="Page-1" opacity="0.594825634" transform="translate(224.324436, 98.284039) rotate(19.000000) translate(-224.324436, -98.284039) translate(219.824436, 85.784039)">
                    <mask id="mask-8" fill="white">
                        <use xlink:href="#path-7"/>
                    </mask>
                    <g id="Clip-2"/>
                    <path d="M9,21.176217 L9,21.1702057 L9,21.1627435 L8.8862,0 L7.766,0 L7.8514,18.6216389 C7.0302,17.8113625 5.825,17.2989545 4.4804,17.2989545 C2.006,17.2989545 0,19.0322701 0,21.1702057 C0,23.3081413 2.006,25 4.4804,25 C6.9334,25 8.9246,23.4231844 8.9592,21.1430514 L9,21.1430514 L9,21.176217 Z" id="Fill-1" fill="#000000" mask="url(#mask-8)"/>
                </g>
                <path d="M41.5689655,209 L41.5689655,213.571429 L37.4310345,213.571429 L37.4310345,210.269841 L35.8793103,210.269841 L35.8793103,213.571429 L32,213.571429 L32,215.095238 L35.8793103,215.095238 L35.8793103,218.904762 L32,218.904762 L32,220.428571 L35.8793103,220.428571 L35.8793103,225 L37.4310345,225 L37.4310345,220.428571 L41.5689655,220.428571 L41.5689655,223.730159 L43.1206897,223.730159 L43.1206897,220.428571 L47,220.428571 L47,218.904762 L43.1206897,218.904762 L43.1206897,215.095238 L47,215.095238 L47,213.571429 L43.1206897,213.571429 L43.1206897,209 L41.5689655,209 Z M37,219 L41,219 L41,215 L37,215 L37,219 Z" id="Page-1" fill="#000000" opacity="0.594825634"/>
                <g id="Page-1" opacity="0.593580163" transform="translate(0.000000, 43.000000)">
                    <mask id="mask-10" fill="white">
                        <use xlink:href="#path-9"/>
                    </mask>
                    <g id="Clip-2"/>
                    <path d="M20.8440171,42.8491444 C20.8133493,44.630834 19.9514515,46.6720517 18.2791245,48.1226192 C17.3953593,48.9112057 16.2993198,49.5234394 15.0958097,49.9106259 C14.6195258,46.4317381 14.1115075,42.7643897 13.6568244,38.9312171 C13.5125526,37.6954315 13.3714808,36.4420106 13.2354759,35.1733234 C13.2429428,35.1725337 13.2490764,35.1714809 13.2565433,35.1706912 C13.4082821,35.1548985 13.5578875,35.1267347 13.7120264,35.1262082 C14.3235151,35.0875159 14.9526045,35.1846415 15.5907609,35.3852099 C16.8569399,35.8089831 18.1537867,36.7375989 19.161023,38.0465578 C19.6607744,38.7009056 20.0933233,39.4426402 20.3957342,40.2483355 C20.5480064,40.6513148 20.6690774,41.0692973 20.7440134,41.4980714 C20.7901484,41.7131165 20.805349,41.9300042 20.8293499,42.1489975 L20.8402836,42.3135057 L20.8461505,42.3961546 L20.8490839,42.4377423 C20.8461505,42.4980181 20.8570842,42.4011556 20.8552175,42.4311619 L20.8440171,42.8491444 Z M11.7951573,50.3723017 C11.1836685,50.3533504 10.5684463,50.284915 9.9604244,50.1577831 C9.3497357,50.0438118 8.7491807,49.8608787 8.16142616,49.6387268 L7.72114361,49.4684279 L7.28966138,49.2720709 L7.07472029,49.1720499 L6.87817987,49.0654486 L6.43789731,48.8259247 C5.93787927,48.5103321 5.42212733,48.1576266 4.98237814,47.7217456 C4.53916215,47.2956036 4.13354751,46.8289267 3.81566938,46.3046062 C3.49139101,45.7866028 3.21084756,45.2401723 3.01750725,44.6571553 C2.81509994,44.0794025 2.68122845,43.4758548 2.61855952,42.8601993 C2.57162449,42.5564514 2.57482461,42.2416485 2.55455721,41.9344788 C2.56522426,41.6215184 2.55215713,41.3125062 2.58869178,40.9995458 C2.78256544,38.4942833 3.84047027,36.0527184 5.29732283,33.8701552 C6.03174933,32.7757151 6.87951325,31.7418139 7.80007979,30.7608186 C8.26089642,30.2707158 8.73958035,29.7919311 9.24199848,29.3334139 C9.77615109,28.8372572 10.3116371,28.3400476 10.8481898,27.8415219 C10.9159255,27.7767715 10.9828613,27.7112314 11.0503304,27.646481 C11.1943356,29.1152102 11.3508746,30.5657777 11.5199473,31.9987099 C11.4762124,32.0173981 11.4348776,32.035823 11.3874092,32.0550375 L11.0375299,32.2029633 C10.8196554,32.3129864 10.6017809,32.4122178 10.39404,32.5304004 C8.72571319,33.472177 7.50326908,34.8400956 6.84351195,36.2290712 C6.16375409,37.6167308 5.98054748,38.9883343 6.05975034,40.1338378 C6.14722016,41.285132 6.50003289,42.2250661 6.94218217,42.8738864 C7.37206435,43.5348145 7.87448248,43.8846248 8.21342804,44.0675579 C8.29956448,44.1112513 8.37530055,44.1494172 8.44036956,44.1820556 C8.50730531,44.2057448 8.56330733,44.2254858 8.60810894,44.2407521 C8.69824553,44.2720745 8.74384718,44.2881305 8.74384718,44.2881305 C8.74384718,44.2881305 8.71077932,44.2531231 8.64624365,44.1838981 C8.57957458,44.1167787 8.48223774,44.0099142 8.38063407,43.8701481 C8.1744933,43.5864043 7.91768404,43.130256 7.78914606,42.5061777 C7.65580792,41.8868372 7.64007402,41.0993035 7.84488141,40.2333324 C8.03902175,39.3692037 8.45957025,38.4295329 9.12972776,37.5796177 C9.80548548,36.7336507 10.7404525,35.9984965 11.9159616,35.5384 C11.9319622,35.53103 11.9492962,35.5257657 11.9658301,35.5191854 C12.129836,36.7233854 12.3031756,37.9138984 12.4879823,39.0865128 C12.8751962,41.6152013 13.2968114,44.066505 13.7093597,46.4338438 C13.9152337,47.61725 14.1176411,48.7803888 14.3163149,49.9219441 C14.3272486,49.9882738 14.3373823,50.0524978 14.3480494,50.1188275 C13.5250863,50.3122892 12.664522,50.4033609 11.7951573,50.3723017 Z M11.8788936,14.5621568 C11.8826271,13.140806 11.9170283,11.7134012 11.9986313,10.287839 C12.0778341,8.8635928 12.213039,7.4369777 12.4605146,6.05037098 C12.5842524,5.35864691 12.7343911,4.67508243 12.9343984,4.03257921 C13.1306721,3.40113094 13.3981484,2.77073551 13.701626,2.4053957 C13.8018963,2.28063269 13.8920329,2.22219937 13.9347011,2.2027216 L13.9891031,2.20140554 C13.9115003,2.20351124 13.9763026,2.20561695 13.9629688,2.20719623 C13.9803028,2.2087755 14.005637,2.2166719 14.0347047,2.22614757 C14.0936402,2.24720462 14.1707096,2.27773734 14.2584461,2.3351178 C14.6213926,2.54937328 15.0208736,3.03447506 15.3195511,3.56879769 C15.9281064,4.66402748 16.2561182,5.99772836 16.4123905,7.33300851 C16.563596,8.67618506 16.5377284,10.0577907 16.4313245,11.4207083 L16.3859896,11.9160754 L16.3217206,12.4693493 C16.2758522,12.7728341 16.2259838,13.1189593 16.1643816,13.4324461 C16.0321101,14.0678426 15.8638374,14.678497 15.6315623,15.2623037 C15.1816794,16.4320228 14.4813875,17.5269894 13.654691,18.6006357 C13.1514729,19.2399804 12.6085199,19.8719551 12.0450329,20.4997184 C11.9487628,18.537991 11.8834271,16.5573123 11.8788936,14.5621568 Z M13.9189672,2.05479583 L13.9277675,2.05479583 L13.9189672,2.05479583 Z M13.9597687,2.19745734 C13.9688357,2.19640449 13.9523018,2.19929983 13.9365679,2.20140554 C13.9555019,2.19324593 13.9675023,2.19008737 13.9597687,2.19745734 Z M23.7539887,39.3078751 C23.6110502,38.6861657 23.4163765,38.0831444 23.1593006,37.5174994 C22.9083582,36.9494855 22.6211478,36.4033183 22.2760687,35.9026869 C20.9320202,33.8848952 18.9420818,32.3706301 16.6894672,31.754185 C16.1297136,31.5994156 15.5571597,31.5001843 14.9883391,31.4607023 C14.4179186,31.4354339 13.8525648,31.4443831 13.3080118,31.5296642 C13.1605399,31.5470362 13.0160013,31.5720415 12.8725295,31.6012581 C12.7053234,29.8648412 12.5519846,28.1015765 12.4151796,26.3159387 C14.0397716,24.6966516 15.6083615,22.9770803 17.0006784,20.9529714 C17.9036443,19.6197969 18.7447413,18.1302739 19.2468928,16.4799276 C19.5063688,15.661598 19.6751749,14.8211586 19.7858455,13.9920372 C19.8375807,13.5724755 19.8687819,13.1794983 19.899183,12.7451967 L19.9229172,12.1885009 L19.9349176,11.5715294 C19.9485181,9.96935112 19.7722451,8.36638322 19.3772975,6.7910527 C18.9815499,5.21940717 18.393262,3.6711876 17.3988261,2.25746993 C17.1478837,1.90423793 16.8689403,1.56048159 16.5393284,1.23699267 C16.2099832,0.91403017 15.836103,0.601069771 15.3547523,0.352596586 C15.1174105,0.227570354 14.8427339,0.123601172 14.5389896,0.0585875315 C14.385384,0.0272651703 14.2267117,0.00541848141 14.0568389,0.00278635022 C13.9968367,0.00199671086 14.0149707,-0.00195148593 13.8909662,0.0012070715 L13.821097,0.00594490765 C13.7512278,0.0106827438 13.5765549,0.0306869409 13.5034856,0.0512175642 C13.1288054,0.131760779 12.8106606,0.306797503 12.5658517,0.496574162 C12.3181095,0.6879301 12.1322361,0.895605251 11.9783639,1.09959542 C11.3887426,1.92134678 11.1554008,2.7062483 10.9388597,3.47693631 C10.7372524,4.24736111 10.6084478,5.00488847 10.5076441,5.75741478 C10.1430977,8.76383503 10.125497,11.6918178 10.198033,14.5816346 C10.2556351,17.1211148 10.3921733,19.6216394 10.5721798,22.0834717 C9.6870812,23.0070866 8.7750483,23.9233314 7.87581586,24.8358913 C7.3557971,25.3615279 6.83924513,25.86058 6.31469287,26.4054312 C5.76640642,26.9681808 5.23758734,27.5490922 4.74076942,28.1560616 C3.74446681,29.368158 2.87110197,30.6776433 2.14387573,32.0587225 C1.40838253,33.4348007 0.836628566,34.8951071 0.469681994,36.4035815 C0.0958018382,37.9081077 -0.0724708994,39.4623812 0.0291327662,41.0003354 C0.0419332281,41.3835737 0.102468745,41.7670752 0.145136951,42.1463653 C0.218206254,42.5253922 0.270474807,42.9028398 0.376611969,43.2731807 C0.552351643,44.0178106 0.831561716,44.7353296 1.15530673,45.4207365 C1.80199673,46.7968147 2.78656558,47.9860116 3.92874012,48.9056782 L4.3642225,49.241275 L4.81997228,49.5431804 C5.11144946,49.7487499 5.46266213,49.9222073 5.77654012,50.100929 L6.23068984,50.3136052 L6.4818989,50.4304718 L6.72644106,50.5270711 L7.21205858,50.7223752 L7.70620974,50.8932005 C9.02519066,51.3351353 10.3964401,51.581766 11.7564892,51.6220376 C12.7002566,51.6517807 13.6392238,51.5799235 14.5576569,51.4201532 C14.6571272,52.0479165 14.7533973,52.6706787 14.8432672,53.2847549 C15.0099399,54.38288 15.1304776,55.4628435 15.2259477,56.5164856 C15.3160843,57.5703909 15.3774198,58.6006071 15.3432853,59.5966055 C15.327018,60.0943415 15.2915501,60.5826019 15.2222142,61.0558591 C15.2043469,61.1695671 15.1907464,61.3030162 15.1691457,61.3988257 L15.0939429,61.7581117 C15.032074,61.9757889 14.9779388,62.1853065 14.8939357,62.3990356 C14.5875247,63.2507933 14.0835065,63.9930543 13.469351,64.5642267 C12.8474619,65.1280292 12.1210357,65.5199536 11.3703419,65.7102566 L11.0876651,65.7710589 L11.0175292,65.7865884 C11.0108623,65.7876413 10.9836613,65.7939584 10.9935283,65.7913263 L10.9543269,65.797117 L10.7980546,65.8202797 C10.6079144,65.8447585 10.4340415,65.857656 10.2420346,65.8621306 C9.87002114,65.8679213 9.50520798,65.8437057 9.16012886,65.7694796 C8.81584977,65.6947271 8.49023803,65.5860201 8.19209394,65.4483596 C7.89688329,65.3017499 7.63394047,65.1235546 7.40433218,64.9290401 C6.95044914,64.528693 6.65070499,64.0491186 6.50803318,63.5621744 C6.42963035,63.3213344 6.3986959,63.0744405 6.38669547,62.8364958 C6.37816183,62.7185763 6.38056191,62.5990776 6.38722882,62.483527 L6.40349607,62.3103328 C6.41016298,62.3600801 6.40589616,62.3082271 6.40776289,62.3119121 L6.40909628,62.2845379 L6.41176304,62.2289999 L6.41709656,62.1192401 C6.44909772,61.9539422 6.4874991,61.7183665 6.55523488,61.5404344 C6.61977054,61.3538163 6.69764002,61.182991 6.78244308,61.0313802 C6.89364709,60.8376554 7.01845159,60.6860446 7.14458948,60.5649666 C7.6200733,60.9066172 8.20382769,61.1103442 8.8369172,61.1103442 C10.4284413,61.1103442 11.7188878,59.8369191 11.7188878,58.2658 C11.7188878,56.6949441 10.4551089,55.3691396 8.8638515,55.3396597 C7.72941058,55.3186027 6.56483523,55.6365641 5.49092982,56.7436385 C4.63223217,57.6288242 3.95300766,58.8914576 3.78153481,60.2317388 C3.73353308,60.5668091 3.71299901,60.9124079 3.72286603,61.2648503 C3.7367332,61.6265051 3.76420085,61.9528894 3.83967024,62.3648179 C3.98847561,63.0252196 4.28048615,63.7888009 4.72370214,64.4555197 C5.17118495,65.1290821 5.78854055,65.7302608 6.52563381,66.1564029 C6.88991362,66.3746066 7.28326115,66.5530651 7.69634272,66.6809866 C8.10569082,66.8181207 8.53450629,66.9118245 8.97345546,66.9592029 C9.41213795,67.0068445 9.86095414,67.0147409 10.3127038,66.9723636 C10.532445,66.9523594 10.7724537,66.9165624 10.9969951,66.8702369 L11.151134,66.8362824 L11.2428707,66.8144357 L11.3268737,66.7910097 L11.6642192,66.6965162 C12.1079685,66.5451687 12.5469177,66.3556552 12.9594659,66.1053395 C13.3690807,65.8513389 13.7544279,65.548907 14.1035072,65.2025185 C14.7869985,64.4963177 15.3315515,63.6266616 15.6446295,62.6532995 C15.7286325,62.415618 15.7889013,62.153721 15.8489035,61.8991939 L15.9115724,61.5372758 C15.9387734,61.3922454 15.9451737,61.2795902 15.9633076,61.1485101 C16.0249099,60.6418248 16.0497108,60.1288224 16.0545109,59.6121351 C16.0811786,57.5424903 15.8179691,55.4086216 15.5408924,53.1926303 C15.456356,52.559866 15.3696862,51.917626 15.281683,51.2709113 C16.7438691,50.9326825 18.1383194,50.3599307 19.3788975,49.5410747 C20.4797372,48.8098687 21.4664395,47.8949399 22.2326005,46.8126075 C22.6230146,46.2761792 22.9451595,45.6923725 23.2107691,45.0869823 C23.3478407,44.7848136 23.457978,44.4736957 23.5609151,44.1596825 C23.6171838,44.0088614 23.6550518,43.824349 23.7011868,43.6566822 C23.7443884,43.4866465 23.7913234,43.3013445 23.8129242,43.1792136 L23.8963938,42.7691276 L23.9609295,42.2242764 C23.9913306,41.8934175 24.0086646,41.5601897 23.9955974,41.2327526 C23.9865304,40.5747198 23.9035941,39.9280052 23.7539887,39.3078751 Z" id="Fill-1" fill="#000000" mask="url(#mask-10)"/>
                </g>
            </g>
        </g>
    </g>
</svg>