<?xml version="1.0" encoding="UTF-8"?>
<svg width="60px" height="257px" viewBox="0 0 60 257" version="1.1" xmlns="http://www.w3.org/2000/svg" xmlns:xlink="http://www.w3.org/1999/xlink"><script xmlns="" type="text/javascript" charset="utf-8" id="zm-extension"/>
    <!-- Generator: Sketch 49 (51002) - http://www.bohemiancoding.com/sketch -->
    <title>Group 4</title>
    <desc>Created with Sketch.</desc>
    <defs>
        <polygon id="path-1" points="0 0 19.62146 0 19.62146 26.1619466 0 26.1619466"/>
        <polygon id="path-3" points="0 0 18 0 18 27 0 27"/>
        <polygon id="path-5" points="0 0 21.4104317 0 21.4104317 25.7471539 0 25.7471539"/>
        <polygon id="path-7" points="0 0 10.812668 0 10.812668 28.6136951 0 28.6136951"/>
    </defs>
    <g id="Page-1" stroke="none" stroke-width="1" fill="none" fill-rule="evenodd">
        <g id="Artboard-6-Copy-6" transform="translate(-499.000000, -1990.000000)">
            <g id="Group-4" transform="translate(493.000000, 1990.000000)">
                <g id="Page-1-Copy-12" opacity="0.594825634" transform="translate(15.038937, 16.568493) rotate(-27.000000) translate(-15.038937, -16.568493) translate(5.038937, 3.068493)">
                    <mask id="mask-2" fill="white">
                        <use xlink:href="#path-1"/>
                    </mask>
                    <g id="Clip-2"/>
                    <path d="M7.41412814,5.35227186 L7.41113051,4.27041907 L18.6379056,2.52638232 L18.6417359,3.51756591 L7.41412814,5.35227186 Z M19.62146,20.7098387 L19.62146,20.7028641 L19.62146,20.6938969 L19.5628397,0.346734913 L19.5621736,0.346734913 L19.5611744,0 L6.45938429,1.95486753 L6.48070074,4.367465 L6.53848831,20.0376911 C5.85486307,19.2585339 4.85149107,18.7669275 3.73187781,18.766529 C1.67134308,18.7657319 0.000666251176,20.4318529 1.12090202e-07,22.487154 C-0.000499492224,24.5426544 1.66917813,26.1609499 3.72971285,26.1619463 C5.7659335,26.1627434 7.42012339,24.6580334 7.45975867,22.4660311 L7.46442164,22.4660311 L7.46442164,22.5011031 C7.46442164,22.4977155 7.46308936,22.4943279 7.46308936,22.4911395 C7.46308936,22.4867555 7.46209015,22.48277 7.46209015,22.478386 L7.4177919,6.55867023 L18.6462323,4.72376501 L18.6960262,18.2522055 C18.0125675,17.4730483 17.009029,16.9802464 15.8895823,16.9796486 C13.8290475,16.9788515 12.1582042,18.6441754 12.157538,20.6996758 C12.1570384,22.7549769 13.826716,24.470119 15.8872508,24.4707169 C17.9233049,24.4719125 19.5776613,22.864577 19.6171301,20.8718476 L19.62146,20.8718476 L19.62146,20.7098387 Z" id="Fill-1" fill="#000000" mask="url(#mask-2)"/>
                </g>
                <g id="Page-1-Copy-12" opacity="0.592921205" transform="translate(25.806170, 152.178555) rotate(13.000000) translate(-25.806170, -152.178555) translate(16.806170, 138.678555)">
                    <mask id="mask-4" fill="white">
                        <use xlink:href="#path-3"/>
                    </mask>
                    <g id="Clip-2"/>
                    <path d="M16.4241944,18.6054126 C16.0720049,18.2705067 15.6571096,17.9458987 15.1719651,17.637633 C11.6057518,15.3732122 10.7042975,12.1904865 10.5173589,11.3113584 L10.5109941,9.64220153 C11.1896778,10.6511728 12.385802,11.8441633 14.5350066,13.3711642 C17.3534655,15.3732122 17.001276,17.4274213 16.4241944,18.6054126 M14.5350066,7.85439485 C17.3534655,9.85666669 17.001276,11.9108758 16.4241944,13.0888671 C16.0720049,12.7541851 15.6571096,12.4293532 15.1719651,12.1210875 C11.4397937,9.75122505 10.6260332,6.37619707 10.4956712,5.68758032 L10.4895421,4.09297139 C11.1644541,5.10910644 12.3626999,6.3110516 14.5350066,7.85439485 M16.7617682,13.4345187 C18.5863644,11.8349847 18.6535492,8.80157868 15.193417,6.60454202 C11.0336207,3.96290431 10.5168875,0.0702944274 10.5168875,0.044549653 L10.5168875,0 L9.15362653,0 L9.25428578,20.11137 C8.28635401,19.2360477 6.8655735,18.6828708 5.28095652,18.6828708 C2.36419574,18.6828708 0,20.5548517 0,22.8638222 C0,25.1727926 2.36419574,27 5.28095652,27 C8.17178634,27 10.5192448,25.2970391 10.5602629,22.8344955 L10.5168875,22.8344955 L10.5168875,22.8703143 L10.5168875,22.8638222 L10.5168875,22.8555391 L10.5095797,15.1914317 C11.1925067,16.1934631 12.3978245,17.377275 14.5236912,18.8877097 C18.824222,21.942607 15.7492824,25.1188405 15.7492824,25.1188405 C18.035921,24.0682299 18.9013076,21.3157777 16.7589394,18.9510642 C18.2403041,17.6524082 18.5507683,15.409031 16.7617682,13.4345187" id="Fill-1" fill="#000000" mask="url(#mask-4)"/>
                </g>
                <g id="Page-1-Copy-12" opacity="0.594825634" transform="translate(37.702948, 241.576980) rotate(-27.000000) translate(-37.702948, -241.576980) translate(26.702948, 228.576980)">
                    <mask id="mask-6" fill="white">
                        <use xlink:href="#path-5"/>
                    </mask>
                    <g id="Clip-2"/>
                    <path d="M8.09010564,5.26741259 L8.08683471,4.20271238 L20.3372025,2.486327 L20.341382,3.46179557 L8.09010564,5.26741259 Z M21.4104317,20.3814881 L21.4104317,20.3746241 L21.4104317,20.365799 L21.3464668,0.341237496 L21.3457399,0.341237496 L21.3446496,0 L7.04831375,1.92387347 L7.07157371,4.29821966 L7.13463001,19.7199972 C6.38867577,18.9531934 5.29382209,18.4693814 4.07212893,18.4689892 C1.82372651,18.4682048 0.000726996121,20.1079098 1.22309941e-07,22.1306244 C-0.000545033048,24.1535352 1.82136417,25.746173 4.06976659,25.7471536 C6.29163811,25.747938 8.0966475,24.2670849 8.13989649,22.1098364 L8.14498461,22.1098364 L8.14498461,22.1443524 C8.14498461,22.1410184 8.14353086,22.1376845 8.14353086,22.1345467 C8.14353086,22.1302322 8.14244055,22.1263099 8.14244055,22.1219954 L8.09410344,6.45468375 L20.3462884,4.6488706 L20.4006222,17.9628203 C19.6548497,17.1960165 18.5598143,16.7110278 17.3383029,16.7104394 C15.0899004,16.709655 13.2667192,18.3485755 13.2659923,20.3714863 C13.2654472,22.394201 15.0873564,24.0821499 17.3357588,24.0827382 C19.5574486,24.0839149 21.3626397,22.5020634 21.405707,20.5409284 L21.4104317,20.5409284 L21.4104317,20.3814881 Z" id="Fill-1" fill="#000000" mask="url(#mask-6)"/>
                </g>
                <g id="Page-1-Copy-12" opacity="0.594825634" transform="translate(55.921090, 73.500644) rotate(19.000000) translate(-55.921090, -73.500644) translate(50.421090, 59.000644)">
                    <mask id="mask-8" fill="white">
                        <use xlink:href="#path-7"/>
                    </mask>
                    <g id="Clip-2"/>
                    <path d="M10.812668,24.2371927 L10.812668,24.2303125 L10.812668,24.2217716 L10.6759479,0 L9.33013112,0 L9.43273132,21.3133559 C8.44613543,20.3859559 6.99819904,19.7994804 5.38278644,19.7994804 C2.41002357,19.7994804 0,21.783343 0,24.2303125 C0,26.677282 2.41002357,28.6136951 5.38278644,28.6136951 C8.32983918,28.6136951 10.7220819,26.8089543 10.7636506,24.1992331 L10.812668,24.1992331 L10.812668,24.2371927 Z" id="Fill-1" fill="#000000" mask="url(#mask-8)"/>
                </g>
            </g>
        </g>
    </g>
</svg>