<?xml version="1.0" encoding="UTF-8"?>
<svg width="57px" height="170px" viewBox="0 0 57 170" version="1.1" xmlns="http://www.w3.org/2000/svg" xmlns:xlink="http://www.w3.org/1999/xlink"><script xmlns="" type="text/javascript" charset="utf-8" id="zm-extension"/>
    <!-- Generator: Sketch 49 (51002) - http://www.bohemiancoding.com/sketch -->
    <title>Group 2</title>
    <desc>Created with Sketch.</desc>
    <defs>
        <polygon id="path-1" points="0 0 34 0 34 97 0 97"/>
        <polygon id="path-3" points="0 0 16.278192 0 16.278192 27.8705902 0 27.8705902"/>
    </defs>
    <g id="Page-1" stroke="none" stroke-width="1" fill="none" fill-rule="evenodd">
        <g id="Artboard-6-Copy-6" transform="translate(-263.000000, -2023.000000)">
            <g id="Group-2" transform="translate(263.000000, 2023.000000)">
                <g id="Page-1-Copy-12" opacity="0.593580163">
                    <mask id="mask-2" fill="white">
                        <use xlink:href="#path-1"/>
                    </mask>
                    <g id="Clip-2"/>
                    <path d="M29.5290242,62.0353284 C29.4855782,64.6147895 28.2645563,67.5699853 25.8954264,69.6700607 C24.6434257,70.8117456 23.090703,71.6981138 21.3857304,72.2586674 C20.7109949,67.2220686 19.9913023,61.912624 19.3471679,56.3631053 C19.1427828,54.5739829 18.9429311,52.7593288 18.7502575,50.9225726 C18.7608357,50.9214294 18.7695249,50.9199052 18.780103,50.9187619 C18.9950663,50.8958978 19.2070073,50.8551233 19.4253708,50.8543612 C20.2916465,50.7983439 21.1828564,50.9389586 22.0869112,51.2293338 C23.8806648,51.8428561 25.7178644,53.1872701 27.1447826,55.0823299 C27.8527637,56.0296693 28.4655414,57.1035238 28.8939568,58.2699783 C29.1096757,58.8533961 29.281193,59.4585348 29.3873524,60.0792974 C29.4527103,60.3906314 29.4742444,60.7046329 29.5082456,61.0216829 L29.5237351,61.2598515 L29.5320465,61.3795074 L29.5362022,61.4397164 C29.5320465,61.5269814 29.5475359,61.3867477 29.5448914,61.4301897 L29.5290242,62.0353284 Z M16.7098061,72.9270637 C15.8435304,72.8996267 14.9719656,72.8005486 14.1106012,72.6164919 C13.2454589,72.4514887 12.3946727,72.1866452 11.5620204,71.8650224 L10.9382868,71.6184702 L10.3270203,71.3341922 L10.0225204,71.1893857 L9.74408814,71.0350525 L9.12035453,70.688279 C8.41199564,70.2313764 7.68134706,69.7207429 7.05836903,69.0896914 C6.43047971,68.4727395 5.85585897,67.7971029 5.40553162,67.038012 C4.94613727,66.2880667 4.5487007,65.4969659 4.27480193,64.6528965 C3.98805826,63.8164484 3.79840697,62.9426555 3.70962599,62.0513333 C3.6431347,61.6115789 3.6476682,61.1558194 3.61895605,60.7111111 C3.63406771,60.2580191 3.61555593,59.8106433 3.66731335,59.3575513 C3.9419677,55.7305296 5.44066622,52.1957266 7.50454068,49.0358964 C8.54497821,47.4514084 9.7459771,45.9545664 11.050113,44.5343195 C11.7029366,43.8247677 12.3810722,43.1316018 13.0928312,42.4677783 C13.8495474,41.7494619 14.6081525,41.0296211 15.3682688,40.307875 C15.4642278,40.2141319 15.5590535,40.1192455 15.6546347,40.0255024 C15.8586421,42.1518715 16.0804056,44.2519468 16.3199254,46.3264905 C16.2579676,46.3535465 16.1994099,46.3802213 16.1321631,46.4080394 L15.6365007,46.6222006 C15.3278451,46.7814878 15.0191896,46.9251511 14.7248901,47.0962514 C12.361427,48.4597189 10.6296312,50.4401384 9.69497526,52.4510434 C8.73198496,54.460043 8.47244226,56.4457975 8.58464631,58.104213 C8.70856189,59.771012 9.20837993,61.1318121 9.83475808,62.071149 C10.4437578,63.0280151 11.1555168,63.5344568 11.6356897,63.7993002 C11.7577163,63.8625578 11.8650091,63.9178129 11.9571902,63.9650656 C12.0520159,63.9993619 12.131352,64.0279421 12.194821,64.0500441 C12.3225145,64.0953914 12.3871168,64.1186367 12.3871168,64.1186367 C12.3871168,64.1186367 12.3402707,64.0679544 12.2488452,63.9677331 C12.1543973,63.8705603 12.0165035,63.715846 11.8725649,63.5134979 C11.5805322,63.1027048 11.2167191,62.4423109 11.0346236,61.5387945 C10.8457279,60.6421374 10.8234382,59.5019768 11.113582,58.2482573 C11.3886141,56.9972054 11.9843912,55.6367864 12.933781,54.4063122 C13.8911044,53.1815541 15.2156411,52.1172263 16.8809456,51.4511164 C16.9036131,51.4404464 16.9281696,51.432825 16.9515926,51.4232983 C17.1839343,53.1666923 17.4294987,54.8902708 17.6913082,56.5879365 C18.2398613,60.2488735 18.8371495,63.797776 19.4215928,67.2251172 C19.7132478,68.9384068 19.9999915,70.6223539 20.2814461,72.2750534 C20.2969355,72.371083 20.3112916,72.464064 20.3264033,72.5600936 C19.160539,72.8401798 17.9414061,72.97203 16.7098061,72.9270637 Z M16.8284326,21.0825256 C16.8337217,19.024749 16.8824568,16.9582078 16.998061,14.8943341 C17.110265,12.8323657 17.3018053,10.7669677 17.6523957,8.75949232 C17.8276909,7.75804104 18.0403875,6.76840293 18.323731,5.83821169 C18.6017855,4.92402538 18.9807103,4.01136336 19.4106369,3.48243856 C19.5526865,3.3018115 19.68038,3.21721402 19.7408266,3.18901486 L19.817896,3.18710951 C19.7079587,3.19015807 19.799762,3.19320662 19.7808725,3.19549304 C19.8054289,3.19777946 19.8413191,3.20921155 19.8824984,3.22293006 C19.9659903,3.25341564 20.075172,3.29761973 20.1994654,3.38069294 C20.7136395,3.69088371 21.279571,4.39319524 21.7026974,5.16676681 C22.5648174,6.752398 23.0295008,8.68327837 23.2508866,10.6164452 C23.4650943,12.561044 23.4284485,14.5612791 23.2777097,16.5344582 L23.2134852,17.2516315 L23.1224375,18.0526401 C23.0574574,18.4920135 22.9868104,18.9931202 22.8995405,19.4469743 C22.712156,20.3668766 22.4737696,21.2509584 22.1447133,22.0961711 C21.5073792,23.789645 20.515299,25.3748951 19.3441456,26.9292786 C18.6312532,27.854897 17.8620699,28.7698454 17.0637967,29.6786968 C16.927414,26.838584 16.8348551,23.9710342 16.8284326,21.0825256 Z M19.7185369,2.97485366 L19.731004,2.97485366 L19.7185369,2.97485366 Z M19.776339,3.18139346 C19.7891839,3.17986918 19.7657608,3.18406095 19.7434711,3.18710951 C19.7702943,3.17529635 19.7872949,3.17072351 19.776339,3.18139346 Z M33.651484,56.9084161 C33.4489878,56.0083294 33.1732001,55.1352986 32.8090092,54.3163798 C32.4535075,53.4940313 32.0466261,52.7033115 31.557764,51.9785169 C29.6536953,49.0572363 26.8346158,46.8649421 23.6434118,45.9724767 C22.8504277,45.7484077 22.0393095,45.6047444 21.2334804,45.547584 C20.4253846,45.5110013 19.6244668,45.5239576 18.8530168,45.6474242 C18.6440981,45.6725748 18.4393352,45.7087765 18.2360834,45.7510752 C17.9992082,43.2371581 17.7819781,40.6843719 17.5881711,38.0991948 C19.8896764,35.7548538 22.1118455,33.2653252 24.0842944,30.3348989 C25.3634961,28.4047806 26.5550502,26.248307 27.2664314,23.8589997 C27.6340225,22.6742539 27.8731644,21.4574982 28.0299479,20.2571285 C28.1032394,19.6497034 28.147441,19.0807662 28.1905092,18.4520012 L28.2241326,17.6460387 L28.2411333,16.7528112 C28.2604006,14.4332397 28.0106805,12.112525 27.4511714,9.83182257 C26.890529,7.55645515 26.0571211,5.31500294 24.648337,3.26827736 C24.2928353,2.75688177 23.8976654,2.25920469 23.4307153,1.79086998 C22.9641429,1.32329741 22.4344793,0.870205489 21.7525658,0.510475654 C21.4163315,0.329467528 21.0272063,0.17894498 20.5969019,0.0848207546 C20.3792941,0.0394734555 20.1545082,0.00784466712 19.913855,0.00403396972 C19.828852,0.0028907605 19.8545418,-0.00282528561 19.6788688,0.00174755128 L19.5798874,0.0086068066 C19.4809061,0.0154660619 19.2334527,0.0444273622 19.1299379,0.0741508019 C18.5991409,0.190758142 18.1484358,0.44416952 17.8016233,0.718920802 C17.4506551,0.995958503 17.1873345,1.29662253 16.9693488,1.59195158 C16.134052,2.78165131 15.8034845,3.91800127 15.4967179,5.03377347 C15.2111076,6.1491646 15.0286344,7.24588331 14.8858292,8.3353617 C14.3693883,12.6879403 14.3444541,16.9269601 14.4472134,21.1107247 C14.5288163,24.7872856 14.7222455,28.4074481 14.9772547,31.9715934 C13.723365,33.3087671 12.4313184,34.6352709 11.1574058,35.9564397 C10.4207126,36.7174359 9.6889306,37.4399442 8.9458149,38.2287585 C8.16907576,39.0434856 7.4199154,39.8845066 6.71609001,40.7632534 C5.30466131,42.5180795 4.06739445,44.4139015 3.03715728,46.4133744 C1.99520858,48.405607 1.1852238,50.5197819 0.665382824,52.7036926 C0.135719271,54.8818872 -0.102667107,57.1321041 0.0412714188,59.3586946 C0.0594054064,59.9135321 0.145164056,60.4687507 0.205610681,61.0178722 C0.309125527,61.5666126 0.383172643,62.1130666 0.533533623,62.6492318 C0.782498161,63.7272781 1.17804576,64.7660742 1.63668453,65.7583798 C2.5528287,67.7506124 3.94763457,69.4722855 5.56571517,70.8037431 L6.18264854,71.289607 L6.82829406,71.726694 C7.24122007,72.0243095 7.73877135,72.2754345 8.18343184,72.5341808 L8.82681061,72.8420852 L9.18269011,73.0112801 L9.52912483,73.1511327 L10.217083,73.4338865 L10.9171305,73.6812007 C12.7856868,74.3210168 14.7282902,74.6780792 16.6550264,74.7363828 C17.9920302,74.7794437 19.3222337,74.6754117 20.6233473,74.4441024 C20.7642635,75.3529537 20.9006462,76.2545647 21.0279619,77.1436004 C21.2640815,78.7334234 21.4348433,80.2969525 21.5700926,81.8223747 C21.6977861,83.3481779 21.7846781,84.8396849 21.7363208,86.2816528 C21.7132755,87.0022556 21.6630293,87.70914 21.5648035,88.3943034 C21.5394915,88.5589255 21.5202241,88.7521279 21.489623,88.8908373 L21.3830858,89.4109975 C21.2954382,89.7261421 21.2187466,90.0294737 21.0997423,90.3389023 C20.6656599,91.572044 19.9516342,92.6466606 19.0815806,93.473582 C18.200571,94.2898334 17.1714672,94.8572462 16.1079844,95.1327596 L15.7075255,95.2207867 L15.6081664,95.2432698 C15.5987216,95.2447941 15.5601869,95.2539398 15.5741651,95.2501291 L15.5186298,95.2585126 L15.297244,95.2920468 C15.0278788,95.3274863 14.7815588,95.3461587 14.509549,95.3526369 C13.9825299,95.3610204 13.4657113,95.325962 12.9768492,95.2185003 C12.4891205,95.1102765 12.0278372,94.9528947 11.6054664,94.7535952 C11.1872513,94.5413394 10.814749,94.2833552 10.4894706,94.0017446 C9.84646961,93.4221376 9.42183207,92.7278285 9.21971367,92.0228495 C9.108643,91.6741707 9.06481919,91.3167272 9.04781858,90.9722402 C9.03572925,90.801521 9.03912938,90.6285153 9.04857416,90.4612257 L9.07161944,90.2104818 C9.08106422,90.282504 9.07501956,90.2074332 9.0776641,90.2127682 L9.07955306,90.173137 L9.08333097,90.0927312 L9.0908868,89.9338252 C9.13622177,89.6945134 9.19062373,89.3534559 9.28658275,89.0958528 C9.37800827,88.8256744 9.48832336,88.5783601 9.60846103,88.3588639 C9.76600004,88.0783966 9.94280642,87.8589004 10.1215018,87.6836083 C10.7951038,88.1782369 11.6220892,88.4731848 12.518966,88.4731848 C14.7736252,88.4731848 16.6017578,86.6295694 16.6017578,84.3549642 C16.6017578,82.0807399 14.8114043,80.1612917 12.557123,80.1186119 C10.9499983,80.0881263 9.30018324,80.5484585 7.77881724,82.1512379 C6.56232891,83.4327754 5.60009419,85.2607669 5.35717432,87.201174 C5.28917186,87.6862758 5.26008192,88.1866204 5.27406021,88.6968728 C5.29370536,89.2204626 5.33261788,89.6929891 5.43953284,90.2893632 C5.65034045,91.2454672 6.06402204,92.3509505 6.69191136,93.3162002 C7.32584534,94.2913576 8.20043245,95.1617209 9.2446479,95.7786728 C9.76071096,96.0945796 10.3179533,96.3529449 10.9031522,96.5381448 C11.483062,96.7366822 12.0905506,96.872343 12.7123952,96.9409355 C13.3338621,97.0099092 13.969685,97.0213413 14.6096637,96.959989 C14.9209638,96.9310277 15.2609761,96.8792022 15.5790764,96.812134 L15.7974399,96.762976 L15.9274001,96.7313472 L16.0464044,96.697432 L16.5243105,96.5606279 C17.1529554,96.3415128 17.7748001,96.0671426 18.3592434,95.7047453 C18.939531,95.337013 19.4854396,94.8991639 19.9799685,94.3976761 C20.9482479,93.375266 21.719698,92.1162116 22.1632251,90.7070157 C22.2822294,90.3629097 22.3676102,89.9837453 22.4526133,89.6152509 L22.5413943,89.09128 C22.579929,88.8813105 22.588996,88.7182127 22.6146858,88.52844 C22.7019556,87.7948807 22.7370902,87.0521758 22.7438905,86.3041359 C22.7816696,83.3077845 22.4087895,80.2184521 22.0162642,77.010226 C21.8965044,76.0941343 21.7737221,75.1643242 21.649051,74.2280358 C23.7204813,73.7383612 25.6959525,72.9091534 27.4534382,71.7236455 C29.0129611,70.6650337 30.4107893,69.3404353 31.496184,67.7734766 C32.0492706,66.9968564 32.5056427,66.1516437 32.8819229,65.2751833 C33.0761077,64.8377153 33.2321355,64.3872908 33.377963,63.9326746 C33.457677,63.7143217 33.5113234,63.4471918 33.5766813,63.2044504 C33.6378835,62.9582793 33.7043748,62.6900062 33.7349759,62.5131899 L33.8532246,61.9194832 L33.9446501,61.1306688 C33.9877184,60.6516642 34.0122748,60.1692299 33.993763,59.6951791 C33.9809181,58.7425048 33.863425,57.8062164 33.651484,56.9084161 Z" id="Fill-1" fill="#000000" mask="url(#mask-2)"/>
                </g>
                <g id="Page-1-Copy-12" opacity="0.594825634" transform="translate(47.775669, 157.062868) rotate(20.000000) translate(-47.775669, -157.062868) translate(39.275669, 143.062868)">
                    <mask id="mask-4" fill="white">
                        <use xlink:href="#path-3"/>
                    </mask>
                    <g id="Clip-2"/>
                    <path d="M13.7113419,6.81732484 C9.94303962,4.09048734 9.42417207,0.0723305202 9.42417207,0.0457554089 L9.42417207,0 L8.29120449,0 L8.38237998,20.7597836 C7.50564329,19.856461 6.21893718,19.2852116 4.78340363,19.2852116 C2.14144965,19.2852116 0,21.2175688 0,23.6010097 C0,25.9844505 2.14144965,27.8705902 4.78340363,27.8705902 C7.40229683,27.8705902 9.5281591,26.1129354 9.56509906,23.5709682 L9.63769781,23.5709682 L9.63769781,23.6077112 L9.63769781,23.6010097 L9.63769781,23.5926905 L9.53691366,4.2252116 C10.1482379,5.2738886 11.2158666,6.51459966 13.1835062,8.10748872 C17.0786428,11.2611456 14.2635194,14.5398211 14.2635194,14.5398211 C16.7350799,13.2454976 17.3483258,9.44918521 13.7113419,6.81732484" id="Fill-1" fill="#000000" mask="url(#mask-4)"/>
                </g>
            </g>
        </g>
    </g>
</svg>