<svg width="64" height="68" xmlns="http://www.w3.org/2000/svg"><script xmlns="" type="text/javascript" charset="utf-8" id="zm-extension"/><g stroke="#2880B4" fill="none" fill-rule="evenodd"><path d="M9.6 17.148V6.8a.5.5 0 0 0-1 0v10.348a2.6 2.6 0 0 0 0 5.104V45.8a.5.5 0 1 0 1 0V22.252a2.6 2.6 0 0 0 0-5.104zM59.4 67.2H5c-2.2 0-4-1.8-4-4V5c0-2.2 1.8-4 4-4h54.4c2.2 0 4 1.8 4 4v58.2c0 2.3-1.8 4-4 4zM37 45.6c10.66 0 19.3-8.64 19.3-19.3S47.66 7 37 7s-19.3 8.64-19.3 19.3S26.34 45.6 37 45.6zm0-13.4a5.9 5.9 0 1 1 0-11.8 5.9 5.9 0 0 1 0 11.8zM11.1 55a2.4 2.4 0 1 0 0-4.8 2.4 2.4 0 0 0 0 4.8zm13.7 0a2.4 2.4 0 1 0 0-4.8 2.4 2.4 0 0 0 0 4.8zm13.7 0a2.4 2.4 0 1 0 0-4.8 2.4 2.4 0 0 0 0 4.8zm13.7 0a2.4 2.4 0 1 0 0-4.8 2.4 2.4 0 0 0 0 4.8zm-37.9 7.1c.5 0 1-.5 1-1v-2.6c0-.6-.4-1-1-1H7.9c-.6 0-1 .4-1 1v2.6c0 .6.4 1 1 1h6.4zm13.6-.1c.6 0 1-.4 1-.9v-2.6c0-.6-.4-1-1-1h-6.4c-.6 0-1 .4-1 1V61c0 .6.4 1 1 1h6.4zm13.9.2c.5 0 1-.5 1-1v-2.6c0-.6-.4-1-1-1h-6.4c-.6 0-1 .4-1 1v2.6c0 .6.4 1 1 1h6.4zm13.8-.2c.5 0 1-.4 1-.9v-2.6c0-.6-.4-1-1-1h-6.4c-.6 0-1 .4-1 1V61c0 .6.4 1 1 1h6.4z"/><path d="M37 36.1c-5.4 0-9.9-4.4-9.9-9.9s4.4-9.9 9.9-9.9" stroke-linecap="round"/><path d="M36.3 40.6c-7.9 0-14.4-6.4-14.4-14.4s6.4-14.4 14.4-14.4" stroke-linecap="round"/></g></svg>