<svg width="1920" height="473" xmlns="http://www.w3.org/2000/svg"><script xmlns="" type="text/javascript" charset="utf-8" id="zm-extension"/><defs><linearGradient x1="101.237%" y1="60.954%" x2="-.831%" y2="60.954%" id="a"><stop stop-color="#C30071" offset="0%"/><stop stop-color="#0F93BD" offset="100%"/></linearGradient><linearGradient x1=".004%" y1="50.01%" x2="100.016%" y2="50.01%" id="b"><stop stop-color="#2284B5" offset="0%"/><stop stop-color="#6B48AA" offset="54.59%"/><stop stop-color="#BE0574" offset="100%"/></linearGradient></defs><g fill="none" fill-rule="evenodd"><path d="M1198.86 325c-20.192-.004-31.471-28.913-42.375-56.875-8.655-22.197-17.607-45.148-29.258-45.148h-.15c-13.13.225-25.241 12.676-36.954 24.712-12.337 12.689-25.099 25.809-40.069 26.06-.115 0-.23.004-.345.004-14.43 0-24.488-15.608-35.135-32.124-11.169-17.33-22.722-35.26-39.498-35.26-16.788 0-28.39 13.125-39.608 25.818-10.74 12.15-21.847 24.711-37.383 24.958-15.89.29-27.568-8.896-38.675-17.744-10.602-8.448-20.62-16.424-34.214-16.424-12.514 0-22.024 18.546-32.095 38.18-11.793 22.99-23.984 46.76-43.892 46.76-20.037 0-31.604-37.471-42.79-73.705-9.483-30.719-19.294-62.482-32.153-62.482-13.19 0-23.497 28.275-33.466 55.62-11.244 30.848-22.873 62.747-41.441 63.011h-.173c-18.328 0-29.107-42.443-40.515-87.374-9.988-39.338-21.307-83.922-36.144-83.922-14.957 0-25.409 49.715-34.626 93.576-10.638 50.613-19.824 94.324-37.427 94.324-17.758 0-29.9-27.015-41.644-53.15-10.412-23.17-21.183-47.124-33.989-47.124-13.102 0-23.041 15.595-33.564 32.102-11.248 17.656-22.886 35.907-39.984 35.907-16.634 0-28.082-13.336-39.158-26.236-10.899-12.697-21.2-24.69-35.79-24.69-14.81 0-24.815 7.902-35.413 16.265-10.841 8.557-22.054 17.41-38.808 17.577-.155 0-.31.005-.464.005-16.864 0-28.6-9.192-39.954-18.084-10.673-8.359-20.758-16.256-34.577-16.401-15.107-.273-27.276 4.413-39.065 8.83-11.027 4.136-22.43 8.412-35.825 8.566h-.026A2.208 2.208 0 0 1 0 238.357a2.208 2.208 0 0 1 2.186-2.229c12.616-.145 23.16-4.096 34.32-8.284 12.174-4.563 24.812-9.324 40.671-9.112 15.324.163 26.48 8.9 37.264 17.348 11.252 8.808 21.886 17.136 37.219 17.136.137 0 .278-.004.42-.004 15.24-.15 25.373-8.148 36.104-16.621 10.722-8.465 21.811-17.22 38.162-17.22 16.629 0 28.08 13.335 39.152 26.235 10.904 12.693 21.2 24.69 35.795 24.69 14.669 0 25.638-17.216 36.25-33.86 10.7-16.793 21.762-34.15 37.298-34.15 15.674 0 26.533 24.157 38.029 49.732 11.169 24.849 22.718 50.543 37.604 50.543 14.005 0 24.147-48.252 33.095-90.823 10.496-49.921 20.404-97.077 38.958-97.077 18.284 0 29.042 42.377 40.436 87.247 10.005 39.4 21.342 84.049 36.223 84.049h.107c15.518-.22 26.612-30.666 37.347-60.112 10.97-30.094 21.333-58.519 37.626-58.519 16.13 0 25.515 30.398 36.383 65.596 10.213 33.084 21.793 70.59 38.56 70.59 17.195 0 28.767-22.55 39.953-44.354 10.705-20.872 20.811-40.585 36.034-40.585 15.146 0 26.244 8.844 36.98 17.392 10.978 8.747 21.262 17.027 35.842 16.776 13.577-.216 23.555-11.513 34.126-23.461 11.868-13.429 24.143-27.315 42.932-27.315 19.196 0 31.414 18.956 43.224 37.286 10.045 15.582 19.448 30.433 31.679 30.093 13.138-.22 25.254-12.675 36.967-24.716 12.337-12.684 25.094-25.8 40.055-26.055h.235c14.673 0 23.758 23.298 33.373 47.962 9.886 25.341 21.086 54.06 38.25 54.06 16.422 0 28.09-60.671 38.383-114.213C1250.092 139.567 1259.036 99 1274.846 99c16.342 0 26.117 39.889 40.277 105.581 10.04 46.596 21.426 99.407 34.55 99.407h.08c14.085-.22 27.206-37.656 38.777-70.683 12.408-35.4 23.125-65.979 37.241-65.979 13.966 0 23.736 26.487 35.047 57.153 10.797 29.262 23.032 62.43 37.812 62.43 14.589 0 27.404-37.454 38.71-70.498 12.147-35.507 22.638-66.168 37.277-66.168 14.523 0 24.249 37.188 35.497 80.248 11.045 42.24 23.555 90.1 39.299 90.1h.115c16.151-.229 28.927-33.797 40.202-63.41 11.275-29.628 21.014-55.216 34.767-55.216 13.727 0 23.922 22.664 35.728 48.9 11.554 25.676 24.674 54.85 40.224 54.545 15.275-.224 27.192-34.145 37.705-64.072 11.09-31.564 20.665-58.826 35.188-58.826 14.107 0 24.648 16.23 35.812 33.41 11.452 17.639 23.298 35.876 38.808 35.876.097 0 .19-.004.292-.004 14.249-.212 24.333-33.036 34.086-64.781 11.204-36.475 21.785-70.934 40.883-70.934 19.31 0 30.374 43.787 42.087 90.136 9.553 37.823 20.381 80.693 33.9 80.693 14.713 0 26.97-37.831 37.78-71.215 11.294-34.864 21.046-64.97 35.078-64.97 13.731 0 23.71 22.46 35.259 48.48 11.244 25.32 23.988 54.009 39.458 54.009h.186c15.328-.225 27.435-17.577 39.14-34.357 12.102-17.348 23.417-33.714 39.002-33.494 16.328.265 28.842 27.725 40.945 54.277 10.593 23.241 21.55 47.27 32.74 47.27h.142c11.448-.211 22.66-20.505 33.507-40.13 12.173-22.03 24.767-44.813 40.427-44.813 15.218 0 27.457 17.736 39.299 34.886 11.19 16.211 22.762 32.974 35.652 32.974 13.727 0 28.546-29.632 41.618-55.775 12.536-25.073 23.36-46.724 34.36-46.724 21.263 0 71.996 62.077 77.708 69.15a2.2 2.2 0 0 1-.336 3.1 2.217 2.217 0 0 1-3.11-.338c-15.16-18.775-58.057-67.508-74.262-67.508-8.261 0-19.514 22.515-30.4 44.28-14.31 28.623-29.108 58.219-45.578 58.219-15.218 0-27.457-17.736-39.299-34.886-11.195-16.211-22.762-32.974-35.652-32.974-13.045 0-24.993 21.625-36.551 42.531-11.979 21.682-23.293 42.153-37.303 42.413-13.966.312-25.24-24.087-36.994-49.856-10.996-24.126-23.457-51.471-36.984-51.691-.093 0-.181-.005-.27-.005-12.979 0-23.687 15.353-35.029 31.609-12.341 17.691-25.103 35.99-42.701 36.246h-.266c-18.346.005-31.13-28.785-43.498-56.633-10.01-22.545-20.36-45.856-31.21-45.856-10.81 0-21.466 32.89-30.864 61.918-12.373 38.189-24.06 74.268-41.994 74.268-16.966 0-26.803-38.938-38.193-84.023-10.28-40.69-21.93-86.806-37.794-86.806-15.824 0-26.413 34.48-36.653 67.82-10.686 34.78-20.78 67.634-38.254 67.894-.12 0-.244.004-.367.004-17.909 0-30.414-19.259-42.512-37.889-10.487-16.145-20.4-31.397-32.095-31.397-11.38 0-21.36 28.407-31.01 55.876-11.528 32.815-23.453 66.75-41.813 67.022h-.26c-18.351.005-31.423-29.05-44.07-57.148-10.244-22.76-20.837-46.297-31.692-46.297-10.7 0-20.833 26.623-30.63 52.37-12.35 32.437-25.117 65.988-44.281 66.257h-.173c-19.17.004-31.024-45.368-43.578-93.395-9.425-36.07-20.112-76.954-31.218-76.954-11.47 0-22.953 33.564-33.091 63.182-12.926 37.788-25.139 73.484-42.896 73.484-17.869 0-30.117-33.204-41.963-65.314-9.841-26.68-20.023-54.269-30.896-54.269-10.974 0-22.709 33.485-33.06 63.024-13.221 37.73-25.709 73.365-42.891 73.638h-.146c-15.576 0-25.086-38.902-38.879-102.886-10.314-47.86-22.005-102.102-35.949-102.102-13.297 0-23.9 55.15-33.258 103.81C1229.94 267.786 1218.94 325 1198.86 325" fill="url(#a)" opacity=".191" transform="translate(-391)"/><path d="M1139.517 472.09c-14.634-.59-21.228-33.611-34.897-139.28-5.629-42.928-12.383-95.527-18.816-107.91-6.433 11.322-13.348 57.316-19.137 94.937-14.152 92.225-20.906 120.883-35.058 120.293-13.992-.59-19.781-32.196-32.807-140.695-5.629-47.174-12.544-105.316-19.46-116.283-6.271 6.958-13.508 39.743-18.976 64.156-12.383 56.372-19.298 81.02-34.093 80.313-13.509-.59-18.655-30.899-30.234-142.465-5.79-54.957-13.509-129.255-22.675-141.285-9.65 14.27-17.53 106.495-23.962 181.383-12.705 148.125-17.53 176.076-30.395 176.076-13.187 0-18.976-27.715-33.128-155.91-5.629-50.947-12.544-113.334-19.138-127.84-6.272 11.676-13.026 56.844-18.654 93.758-13.83 91.399-20.424 119.82-34.737 119.231-13.991-.59-20.906-23.94-33.611-77.01-5.629-24.06-14.152-60.03-21.228-65.1-8.202 8.02-17.047 65.453-23.64 107.791-13.027 84.441-18.012 105.67-29.912 104.962-11.258-.59-16.404-19.695-29.591-89.63-6.433-34.555-15.278-81.493-22.997-88.333-7.237 5.307-15.92 42.81-21.871 67.93-12.383 52.599-18.655 74.063-31.36 74.063-13.026 0-19.62-27.597-35.701-122.652-6.111-35.852-13.509-79.841-19.138-90.809-10.131 12.501-32.163 78.072-48.888 139.044-.483 1.887-3.056 3.067-5.629 2.713-2.573-.354-4.181-2.24-3.699-4.128.161-.354 9.971-36.324 21.55-71.822 24.283-74.416 31.681-74.416 37.31-74.416 9.488 0 13.348 13.798 27.821 98.593 7.237 42.928 18.173 106.966 26.696 116.047 7.076-5.779 15.76-42.928 21.71-67.812 12.383-52.599 18.655-74.063 31.36-74.063 12.544 0 18.333 21.346 32.163 94.701 5.95 31.37 13.83 73.473 20.424 82.436 6.755-10.142 14.152-58.377 20.263-97.65 13.67-87.978 19.46-113.688 32.164-114.277 13.187-.59 19.137 18.987 31.52 71.232 5.95 25.356 15.921 67.34 24.284 70.996 9.166-6.84 18.816-70.524 25.248-112.863 12.222-81.61 16.886-102.13 28.465-102.13 11.257 0 15.439 20.402 28.143 136.331 6.272 56.726 14.635 133.266 23.48 147.772 8.201-15.804 15.438-99.655 21.228-167.939 13.508-157.206 19.137-188.93 33.128-188.93 14.634 0 20.263 33.493 32.324 148.833 5.95 56.726 13.188 127.015 21.872 135.742 8.201-4.246 17.85-47.881 23.64-74.299 11.418-51.419 16.725-70.878 28.947-70.878 11.418 0 15.921 19.577 28.304 123.595 6.272 52.48 14.795 123.713 23.962 133.855 9.167-8.845 18.655-71.468 25.088-113.57 12.543-82.318 17.207-102.957 28.786-102.957 11.096 0 15.278 17.337 27.982 116.047 6.594 51.302 15.6 120.765 25.088 131.969 9.81-14.742 18.655-114.632 25.248-188.341 3.86-42.928 7.398-83.615 11.258-114.278 6.272-50.358 10.774-53.896 17.207-53.896 11.579 0 16.082 20.756 29.751 138.926 6.594 57.08 15.6 134.21 24.445 146.828 8.845-11.557 17.207-79.487 23.64-129.845 12.865-102.131 17.047-120.057 28.143-120.057 11.257 0 15.76 20.756 29.751 138.572 6.594 55.547 15.439 129.964 23.962 146.003 8.202-19.931 15.76-122.888 21.872-206.62 3.86-53.543 8.04-108.736 12.383-149.777 2.412-22.172 4.663-38.446 6.915-49.768 3.377-16.51 6.432-21.7 12.544-21.7 6.11 0 9.005 5.071 12.222 21.818 2.251 11.44 4.342 27.714 6.432 50.004 4.02 41.395 7.559 95.644 11.418 153.078 6.594 99.772 14.635 223.014 24.927 239.288 9.489-9.08 17.69-70.878 23.319-112.509 10.775-81.138 15.117-101.423 27.5-100.833 12.865.59 20.102 20.638 31.68 55.9 5.951 18.044 15.922 48.118 22.837 50.594 6.594-4.01 13.83-37.62 19.298-62.269 12.062-54.957 18.977-79.016 34.094-79.016 15.76 0 23.157 22.172 34.093 58.495 4.664 15.568 14.313 47.764 21.228 48.118 7.398 0 15.92-20.285 21.71-33.848 8.685-20.402 16.243-37.974 29.913-37.974 12.865 0 17.85 22.171 28.947 85.738 5.79 32.785 15.277 87.271 24.766 92.342 10.131-8.845 18.494-89.04 24.766-148.007 12.061-115.693 16.725-137.63 29.108-137.63 13.026 0 18.011 26.182 30.073 122.888 5.95 48.471 14.152 113.924 23.157 125.01 9.167-14.152 16.726-103.31 22.997-175.604 13.188-152.134 18.495-182.915 32.003-182.915 7.237 0 12.866 4.717 19.62 65.925 4.181 37.62 7.88 88.332 11.257 137.511 5.629 78.072 12.383 174.424 21.067 189.874 8.363-9.907 16.725-64.274 22.837-104.608 12.543-82.436 17.85-104.725 30.394-104.725 13.026 0 18.816 20.992 29.912 72.411 5.468 25.356 14.635 67.812 22.676 70.289 7.076 0 17.046-34.319 21.87-50.712 10.454-35.852 17.048-56.136 31.36-56.136 14.635 0 22.032 17.454 30.717 37.62 6.11 14.035 14.312 33.258 22.353 33.494 8.202 0 17.208-20.756 23.158-34.555 8.684-20.048 16.243-37.385 29.912-37.856 13.83-.354 23.319 10.142 32.485 20.402 7.076 7.784 14.474 15.921 21.228 16.157 2.573.118 4.664 1.77 4.503 3.656-.16 1.887-2.251 3.42-4.985 3.302-11.74-.354-19.941-9.552-28.786-19.223-7.88-8.61-15.921-17.69-24.284-17.336-7.076.236-15.6 19.93-21.228 33.021-9.327 21.346-17.368 39.862-32.485 39.39-14.795-.472-22.354-18.044-31.038-38.328-5.95-13.799-14.152-32.668-21.71-32.668-7.237 0-17.208 34.2-22.033 50.711-10.453 35.852-17.046 56.137-31.359 56.137-13.83 0-20.424-23.233-31.842-76.185-5.307-24.413-13.187-60.854-20.263-66.161-7.558 7.783-15.439 59.792-21.389 98.12-13.187 86.682-19.137 111.92-32.967 111.92-7.237 0-12.383-4.481-18.816-63.684-4.02-36.442-7.559-85.974-10.936-133.855-5.628-79.37-12.704-177.02-21.55-194.827-8.844 16.51-16.403 103.664-22.514 174.424-13.187 152.96-18.655 183.86-32.485 183.152-14.152-.59-19.942-30.31-32.485-132.322-5.79-46.584-12.866-103.9-20.424-115.34-7.559 12.501-14.313 77.247-19.942 129.846-12.543 119.82-18.494 154.611-33.771 154.611-15.76 0-22.676-30.073-34.576-98.593-5.468-31.606-13.027-74.652-20.103-79.605-6.593 1.061-14.795 20.166-20.263 33.021-9.005 21.11-16.886 39.272-31.36 38.683-13.347-.59-19.619-19.813-29.75-53.542-5.95-19.813-15.921-53.07-24.766-53.07-.161 0-5.147.825-12.223 22.407-4.663 14.152-8.684 32.785-12.704 50.83-10.775 49.178-16.082 68.165-28.304 68.165-13.509-.59-20.746-20.638-32.325-55.9-5.789-17.69-15.438-46.702-22.353-50.358-6.755 7.43-13.187 55.429-18.333 94.229-12.062 91.163-18.334 119.585-33.45 119.585-5.79 0-9.489-3.774-13.51-24.176-2.572-12.737-4.985-31.017-7.558-55.901-4.663-45.994-8.684-107.32-12.544-166.759-5.95-90.691-12.543-192.468-20.584-214.994-8.524 22.526-16.082 126.544-22.354 211.338-10.292 140.578-16.243 207.564-26.696 214.286-1.286.826-2.894 1.298-4.503 1.18-12.543-.59-18.494-28.069-33.45-154.612-6.11-51.537-13.67-114.632-20.424-129.727-6.432 13.68-13.187 67.458-18.655 111.33-13.347 106.258-19.298 137.157-33.128 137.157-13.026 0-18.977-27.361-33.772-154.258-5.95-51.065-13.187-113.453-20.102-129.492-6.915 18.516-13.67 95.645-19.298 158.74-14.313 162.277-20.102 196.006-34.094 196.006z" fill="url(#b)" fill-rule="nonzero" opacity=".383" transform="translate(-391)"/></g></svg>