<svg width="507" height="139" xmlns="http://www.w3.org/2000/svg"><script xmlns="" type="text/javascript" charset="utf-8" id="zm-extension"/><defs><linearGradient x1="-.01%" y1="49.577%" x2="99.998%" y2="49.577%" id="a"><stop stop-color="#2284B5" offset="0%"/><stop stop-color="#6B48AA" offset="34.05%"/><stop stop-color="#6A185A" offset="71.89%"/><stop stop-color="#BE0574" offset="100%"/></linearGradient><linearGradient x1="-.009%" y1="49.722%" x2="99.997%" y2="49.722%" id="b"><stop stop-color="#2284B5" offset="0%"/><stop stop-color="#6B48AA" offset="34.05%"/><stop stop-color="#6A185A" offset="71.89%"/><stop stop-color="#BE0574" offset="100%"/></linearGradient><linearGradient x1="-.054%" y1="50.029%" x2="99.933%" y2="50.029%" id="c"><stop stop-color="#2284B5" offset="0%"/><stop stop-color="#6B48AA" offset="34.05%"/><stop stop-color="#6A185A" offset="71.89%"/><stop stop-color="#BE0574" offset="100%"/></linearGradient><linearGradient x1="265.736%" y1="-76.695%" x2="21.577%" y2="66.705%" id="d"><stop stop-color="#175EDA" offset="16.76%"/><stop stop-color="#6B48AA" offset="62.16%"/><stop stop-color="#BE0574" offset="100%"/></linearGradient></defs><g fill="none"><path d="M506.5 87.4h-120c-.3 0-.5-1-.5-2.2 0-1.2.2-2.2.5-2.2h120c.3 0 .5 1 .5 2.2 0 1.2-.3 2.2-.5 2.2z" fill="#B3B3B3" opacity=".51"/><path d="M404.7 87.4H1.6c-.9 0-1.6-1-1.6-2.2C0 84 .7 83 1.6 83h403.1c.9 0 1.6 1 1.6 2.2 0 1.2-.7 2.2-1.6 2.2z" fill="url(#a)"/><path d="M404.2 68.1c-.3-.1-.6-.2-.9-.2-3.5 0-7.7 6.5-10.5 14.1-2.7 7-5.7 15-9.2 15-3.5 0-6.4-7.1-9-13.3-2.7-6.5-5-12.2-8.3-12.2-3.3 0-5.9 6.5-8.8 14.1-2.7 7-5.9 15-9.2 15.1-3.1 0-5.8-11.3-8.2-21.2-3.4-14-5.7-22.5-9.6-22.5-3.8 0-5.9 8.7-8.9 22.9-2.4 11.4-5.2 24.4-9.1 24.4-4.1 0-6.7-6.1-9.1-11.5-2.3-5.3-4.4-10.2-7.9-10.2h-.1c-3.5.1-6.6 2.9-9.5 5.6-2.8 2.6-5.7 5.2-8.8 5.3-2.9.1-5.1-3.1-7.5-6.4-2.8-3.9-5.7-8-10.3-8-4.5 0-7.4 3-10.2 5.8-2.5 2.5-4.9 5-8.1 5-3.5.1-5.9-1.7-8.5-3.6-2.5-1.8-5.2-3.7-8.8-3.7-3.6 0-6 4.2-8.5 8.7-2.7 4.7-5.4 9.5-9.5 9.5-4 0-6.7-8-9.1-15.1-2.6-7.5-4.8-14-8.6-14-3.9 0-6.3 6.1-8.9 12.5-2.5 6.3-5.2 12.8-8.9 12.8-3.5 0-6.2-9.5-8.6-17.9-2.7-9.6-5.3-18.6-9.6-18.6-4.4 0-6.8 10.1-9.2 20.7-2.1 9.1-4.5 19.4-7.9 19.4-3.5 0-6.3-5.5-8.9-10.8-2.7-5.5-5.3-10.6-9-10.6s-6.3 3.7-8.9 7.3c-2.5 3.6-5.1 7.2-8.6 7.2s-5.9-2.6-8.5-5.3c-2.6-2.8-5.3-5.6-9.3-5.6-3.9 0-6.5 1.9-9.1 3.7-2.5 1.8-5 3.5-8.6 3.5h-.1c-3.6 0-6.2-1.8-8.8-3.7-2.6-1.8-5.2-3.7-8.8-3.7-3.8 0-6.8 1-9.7 1.9-2.6.9-5.1 1.7-8.1 1.8-.3 0-.5.2-.5.5s.2.5.5.5c3.2 0 5.9-.9 8.5-1.8 2.8-.9 5.7-1.9 9.3-1.9 3.3 0 5.7 1.7 8.2 3.5C57.2 89 60 91 64 91h.1c4 0 6.6-1.9 9.2-3.7 2.5-1.8 4.9-3.5 8.4-3.5s5.9 2.6 8.5 5.3c2.6 2.8 5.3 5.6 9.3 5.6 4.1 0 6.8-3.9 9.5-7.7 2.5-3.5 4.9-6.8 8-6.8 3 0 5.6 5.1 8.1 10.1 2.8 5.6 5.7 11.3 9.9 11.3s6.4-9.3 8.9-20.1c2.2-9.4 4.7-20 8.2-20 3.5 0 6.2 9.5 8.6 17.9C163.4 89 166 98 170.3 98c4.4-.1 7.2-6.9 9.8-13.4 2.4-5.8 4.8-11.9 7.9-11.9 3.1 0 5.4 6.8 7.6 13.3 2.7 7.7 5.4 15.7 10.2 15.7 4.7 0 7.6-5.1 10.4-10 2.4-4.2 4.6-8.1 7.6-8.1 3.2 0 5.6 1.7 8.1 3.5 2.6 1.9 5.4 3.8 9.2 3.8 3.7-.1 6.3-2.7 8.9-5.3 2.7-2.7 5.4-5.5 9.4-5.5s6.7 3.8 9.4 7.5c2.5 3.5 4.9 6.9 8.3 6.9h.1c3.6-.1 6.6-2.9 9.5-5.6 2.8-2.6 5.7-5.2 8.8-5.3 2.8 0 4.9 4.9 6.9 9.6 2.6 6 5.3 12.1 10.1 12.1s7.4-12.2 10.1-25.1c2.2-10.4 4.7-22.1 7.9-22.1 3.3 0 6.1 11.6 8.5 21.8 3.3 13.6 5.5 21.9 9.2 21.9 4.1-.1 7-7.7 10.2-15.7 2.5-6.3 5.2-13.4 7.8-13.4 2.6 0 5 5.9 7.3 11.6 2.8 6.8 5.7 13.9 10 13.9 4.2 0 7.1-7.6 10.2-15.7 2.4-6.3 6.8-13.5 9.6-13.5.3 0 .6.1.9.4v-1.3z" fill="url(#b)" opacity=".85"/><path d="M407.739 104.7c-4.1-2.3-4.3-8.5-6.5-14.7-3.8-10.3-6.1-16.2-10.2-16.4-4-.2-5.4 5.8-8.8 29.5-1.8 12.2-4.4 30.3-7.5 32.9-3.3-4.8-5.9-40.9-8-70.1-1.2-16.8-2.3-32.7-3.7-44.8-.7-6.5-1.4-11.3-2.1-14.7-1-4.9-1.9-6.4-3.9-6.4s-2.9 1.5-4 6.4c-.7 3.3-1.5 8.1-2.2 14.6-1.4 12-2.7 28.2-4 43.9-2 24.5-4.4 54.7-7.1 60.5-2.7-4.7-5.6-26.5-7.7-42.8-4.5-34.5-5.9-40.6-9.6-40.6-3.6 0-5 5.3-9.1 35.2-2 14.7-4.8 34.7-7.6 38-2.9-3.7-5.8-26.3-7.9-43-4.4-34.6-5.8-40.7-9.6-40.7-2.1 0-3.5 1.1-5.5 15.8-1.2 9-2.4 20.9-3.6 33.5-2.1 21.6-5 50.8-8.1 55.2-3.1-3.3-5.9-23.6-8.1-38.6-4.1-28.9-5.5-34-9-34-3.7 0-5.2 6.1-9.2 30.2-2.1 12.3-5.1 30.7-8.1 33.3-3-2.9-5.7-23.8-7.7-39.2-4-30.4-5.4-36.2-9.1-36.2-3.9 0-5.6 5.7-9.3 20.8-1.9 7.7-5 20.5-7.6 21.8-2.8-2.6-5.1-23.2-7.1-39.8-3.9-33.8-5.7-43.6-10.4-43.6-4.5 0-6.3 9.3-10.7 55.3-1.9 20-4.2 44.6-6.8 49.2-2.8-4.3-5.5-26.7-7.5-43.3-4.1-34-5.5-39.9-9.1-39.9-3.7 0-5.2 6-9.1 29.9-2.1 12.4-5.1 31.1-8.1 33.1-2.7-1.1-5.9-13.4-7.8-20.8-4-15.3-5.9-21-10.1-20.9-4.1.2-6 7.7-10.3 33.5-2 11.5-4.4 25.7-6.5 28.6-2.2-2.6-4.7-15-6.6-24.2-4.4-21.5-6.3-27.7-10.3-27.7-4.1 0-6.1 6.3-10.1 21.7-1.9 7.3-4.7 18.2-7 19.9-2.8-2.7-6.3-21.4-8.6-34-4.6-24.8-5.9-28.9-8.9-28.9-1.8 0-4.2 0-12 21.8-3.7 10.4-6.9 20.9-6.9 21-.2.6.4 1.1 1.2 1.2.8.1 1.6-.2 1.8-.8 5.4-17.9 12.4-37 15.7-40.7 1.8 3.2 4.2 16.1 6.1 26.6 5.2 27.8 7.3 35.9 11.5 35.9 4.1 0 6.1-6.3 10.1-21.7 1.9-7.4 4.7-18.3 7-19.9 2.5 2 5.3 15.7 7.4 25.9 4.2 20.5 5.9 26.1 9.5 26.2 3.9.2 5.4-6 9.6-30.8 2.1-12.4 5-29.2 7.6-31.6 2.3 1.5 5 12 6.8 19.1 4 15.5 6.3 22.4 10.8 22.5 4.6.2 6.7-8.1 11.2-34.9 1.8-10.8 4-24.1 6-27.5 2.1 4.2 4.3 22.5 6.1 37.5 4.5 37.6 6.4 45.7 10.7 45.7 4.1 0 5.7-8.2 9.8-51.6 2.1-21.9 4.6-48.9 7.7-53.1 3 3.5 5.5 25.3 7.3 41.4 3.7 32.7 5.4 41.5 9.7 41.7 4.8.2 7-7 11-23.5 1.7-7.1 4.1-16.8 6.1-18.8 2.2 3.2 4.5 20.2 6.3 34.1 4.2 31.8 6.1 41.1 10.5 41.2 4.6.2 6.8-8.2 11.3-35.2 1.9-11 4.1-24.5 6.2-27.8 2.1 3.6 4.2 19 6 31.6 4.4 30.9 6.5 40.6 11.1 40.8h.1c4.5 0 6.4-9.9 11-57.4 1.8-18.5 4-41.1 6.2-46.5 2.2 4.7 4.6 23 6.5 37.9 4.7 37.2 6.7 45.2 10.9 45.2 4.5 0 6.4-9.1 10.7-40.2 1.8-12.9 3.9-28.6 6-32.6 2.2 4.5 4.6 22.9 6.6 38 4.8 37.1 6.8 45.1 10.8 45.3.5 0 1-.1 1.5-.4 3.4-2 5.3-21.6 8.6-62.8 2-24.9 4.4-55.3 7.2-61.9 2.6 6.6 4.7 36.4 6.6 63 1.2 17.4 2.5 35.4 4 48.8.8 7.3 1.6 12.6 2.4 16.4 1.3 6 2.5 7.1 4.4 7.1 4.9 0 6.9-8.3 10.8-35 1.7-11.4 3.7-25.4 5.9-27.6 2.2 1.1 5.3 9.6 7.2 14.7 3.7 10.2 5.4 16 9.5 16.4v-2.2h-.3z" fill="url(#c)"/><path d="M412.5 109.803c-3.628 0-6.5-2.948-6.5-6.5V66.5c0-3.627 2.947-6.499 6.5-6.499 3.627 0 6.499 2.947 6.499 6.5v36.803c.075 3.552-2.872 6.5-6.5 6.5z" fill="url(#d)"/></g></svg>