<svg width="64" height="68" xmlns="http://www.w3.org/2000/svg"><script xmlns="" type="text/javascript" charset="utf-8" id="zm-extension"/><g stroke="#6E45A7" fill="none" fill-rule="evenodd"><path d="M45.1 28s-.1 0 0 0L45 40.1h.1c3.1 0 5.6-2.7 5.6-6.1 0-3.3-2.5-6-5.6-6zM27.7 44.2H17c-1.1 0-2-.9-2-2V25.9c0-1.1.9-2 2-2h10.7v20.3z"/><path d="M43.4 55.3L27.6 44.1V23.8l15.8-11.4c.7-.5 1.7 0 1.7.9v41.1c0 .9-1 1.4-1.7.9z"/><path d="M59.026 67H4.974C2.788 67 1 65.205 1 63.012V4.988C1 2.795 2.788 1 4.974 1h54.052C61.212 1 63 2.795 63 4.988v58.024C63 65.305 61.212 67 59.026 67z"/></g></svg>