<svg id="outsourcing_x5F_icon" xmlns="http://www.w3.org/2000/svg" viewBox="0 0 68 68"><script xmlns="" type="text/javascript" charset="utf-8" id="zm-extension"/><style>.st2{fill:#e1faff;stroke:#1f489b;stroke-miterlimit:10}</style><path id="bg" fill="#e1faff" d="M0 0h68v68H0z"/><g id="outsource_x5F_line"><circle cx="34.5" cy="34.8" r="21.7" fill="none" stroke="#1f489b" stroke-miterlimit="10"/><circle class="st2" cx="12.7" cy="34.2" r="3.2"/><circle class="st2" cx="34.7" cy="13.1" r="3.2"/><circle class="st2" cx="34.7" cy="55.3" r="3.2"/><circle class="st2" cx="55.8" cy="34.2" r="3.2"/><path d="M34 48.3c-7.7 0-14-6.3-14-14s6.3-14 14-14 13.9 6.3 13.9 14.1c.1 7.7-6.1 13.9-13.9 13.9zm.1-19.8c1.2 0 2.5-.1 3.7-.2.2 0 .4-.1.3-.4-.4-1.8-1-3.6-2.1-5.2-.3-.4-.6-.8-1.1-1-.6-.3-1.1-.3-1.7 0-.5.3-.8.7-1.1 1.1-1.1 1.5-1.6 3.3-2 5.1-.1.3.1.3.3.4 1.2.1 2.4.2 3.7.2zm0 11.6c-1.2 0-2.5.1-3.7.2-.3 0-.4.1-.3.4.4 1.5.8 3 1.6 4.4.2.4.4.7.7 1 1.1 1.3 2.2 1.3 3.3 0 .2-.3.4-.5.6-.8.9-1.4 1.4-3 1.7-4.6.1-.3-.1-.4-.3-.4-1.2-.1-2.4-.2-3.6-.2zm4.6-4v-.9c0-.2-.1-.3-.3-.3h-8.7c-.2 0-.3.1-.3.3.1 1.2.1 2.5.3 3.7 0 .3.1.3.4.3 2.6-.3 5.3-.3 7.9 0 .3 0 .4 0 .4-.3.1-.9.2-1.9.3-2.8zM34 33.8h4.3c.3 0 .5 0 .4-.4-.1-1.2-.1-2.4-.3-3.6 0-.3-.1-.4-.5-.4-2.6.3-5.2.3-7.8 0-.3 0-.4 0-.5.3-.2 1.2-.2 2.4-.3 3.6 0 .3.1.4.4.4 1.5 0 2.9.1 4.3.1zm-9.3 1.1h-3.1c-.3 0-.4.1-.4.4.2 2 .8 3.8 1.8 5.6.1.2.2.2.4.1 1.6-.7 3.2-1.2 4.9-1.5.3 0 .3-.1.3-.4-.2-1.3-.3-2.5-.3-3.8 0-.4-.2-.4-.5-.4h-3.1zm0-1.1h3.1c.3 0 .4-.1.4-.4 0-1.3.1-2.5.3-3.8 0-.3 0-.4-.3-.4-1.7-.3-3.3-.7-4.8-1.5-.2-.1-.3 0-.5.2-1 1.7-1.6 3.6-1.7 5.6 0 .3.1.4.4.4 1-.2 2.1-.2 3.1-.1zm18.7-.1h3.1c.3 0 .4-.1.4-.4-.2-2-.7-3.8-1.7-5.5-.1-.2-.2-.3-.5-.2-1.5.7-3.2 1.2-4.8 1.5-.3 0-.4.1-.3.4.2 1.3.3 2.6.3 3.9 0 .3.1.4.4.4 1-.1 2 0 3.1-.1zm0 1.2h-3.1c-.3 0-.4.1-.4.4 0 1.3-.1 2.5-.3 3.8-.1.3 0 .4.4.5 1.7.3 3.3.7 4.8 1.4.2.1.3.1.5-.1 1-1.7 1.6-3.6 1.7-5.6 0-.3-.1-.4-.4-.4h-3.2zm-6.7-13.1c.3.4.5.8.7 1.1.9 1.5 1.4 3.1 1.7 4.8.1.3.2.4.5.3 1.4-.3 2.9-.6 4.2-1.2.3-.1.4-.2.2-.6-1.2-1.5-2.7-2.6-4.4-3.5-.9-.4-1.8-.7-2.9-.9zm-5.3 0h-.2c-2.9.7-5.3 2.2-7.1 4.5-.2.3-.1.4.2.5 1.3.6 2.7.9 4.1 1.2.4.1.6 0 .7-.4 0-.3.1-.6.2-.8.3-1.8 1-3.5 2.1-5zm5.3 25h.2c2.9-.7 5.3-2.2 7.2-4.5.2-.3.1-.4-.1-.5-1.4-.6-2.8-1-4.3-1.3-.3-.1-.4 0-.5.3-.5 2.2-1.1 4.2-2.5 6zm-5.3.1c-1.4-1.8-2.1-3.9-2.5-6-.1-.3-.2-.3-.5-.2-1.5.3-2.9.7-4.3 1.2-.3.1-.3.3-.1.5 1.2 1.5 2.7 2.6 4.4 3.5 1 .4 1.9.8 3 1z" fill="#1f489b"/></g></svg>