<?xml version="1.0" encoding="UTF-8"?>
<svg width="99px" height="90px" viewBox="0 0 99 90" version="1.1" xmlns="http://www.w3.org/2000/svg" xmlns:xlink="http://www.w3.org/1999/xlink"><script xmlns="" type="text/javascript" charset="utf-8" id="zm-extension"/>
    <!-- Generator: Sketch 49 (51002) - http://www.bohemiancoding.com/sketch -->
    <title>Page 1</title>
    <desc>Created with Sketch.</desc>
    <defs>
        <linearGradient x1="50%" y1="-6.68528089%" x2="50%" y2="108.801448%" id="linearGradient-1">
            <stop stop-color="#BD44AE" offset="0%"/>
            <stop stop-color="#7237D6" offset="100%"/>
        </linearGradient>
        <polygon id="path-2" points="0.0243737152 0.0617182469 34.9622932 0.0617182469 34.9622932 23.894383 0.0243737152 23.894383"/>
    </defs>
    <g id="Page-1" stroke="none" stroke-width="1" fill="none" fill-rule="evenodd">
        <g id="Bonk_320" transform="translate(-221.000000, -1773.000000)">
            <g id="Page-1" transform="translate(221.000000, 1773.000000)">
                <g id="Group-3" transform="translate(27.000000, 0.000000)" fill="url(#linearGradient-1)">
                    <path d="M32.3070271,0.0552238698 C14.5887658,0.0552238698 0.307819228,13.9149635 0.307819228,30.8247429 C0.307819228,32.2241729 0.438409203,33.6236029 0.573663106,35.0185476 C0.704253082,36.8037179 0.834843057,38.4543277 1.10068694,40.1049374 C4.9344355,71.6369664 21.9904191,96.0462553 64.1663172,88.676821 C71.8338143,87.1518011 70.3786689,82.316591 66.9413542,81.554081 C52.5298176,78.5085266 64.1663172,44.0475624 64.1663172,30.8247429 C64.1663172,13.9149635 49.8853706,0.0552238698 32.3070271,0.0552238698 Z" id="Fill-1"/>
                </g>
                <g id="Group-15" transform="translate(0.000000, 15.000000)">
                    <path d="M60.6444944,16.841694 L68.6967481,16.9758908 C68.5684254,21.5960937 65.062464,25.262541 60.6444944,25.262541 C56.098202,25.262541 52.4593349,21.4618969 52.4593349,16.841694 L60.6444944,16.841694 Z" id="Fill-4" fill="#333333"/>
                    <path d="M59.3290097,0 C67.2618438,0 73.6928753,2.69349318 73.6928753,6.01489072 C73.6928753,9.33628826 67.2618438,12.0297814 59.3290097,12.0297814 C51.391569,12.0297814 44.9651442,9.33628826 44.9651442,6.01489072 C44.9651442,2.69349318 51.391569,0 59.3290097,0" id="Fill-6" fill="#FFFFFF"/>
                    <path d="M59.955869,0 C63.4006659,0 66.1986846,2.6948516 66.1986846,6.01263372 C66.1986846,9.33492984 63.4006659,12.0297814 59.955869,12.0297814 C56.5063854,12.0297814 53.7083667,9.33492984 53.7083667,6.01263372 C53.7083667,2.6948516 56.5063854,0 59.955869,0" id="Fill-8" fill="#1A1A1A"/>
                    <path d="M6.80947755,44.3997271 C7.07280199,46.0533532 5.89477161,47.7024979 4.19009236,48.0834145 C2.35606075,48.3388527 0.65600123,47.196103 0.392676792,45.5469582 L6.80947755,44.3997271 Z M6.80947755,44.3997271 L0.392676792,45.5469582 L0.263324437,44.785125 L0.133972082,44.1442889 L0.133972082,43.5124155 L0,42.8760608 L0,42.2441874 L0,41.6078326 L0.133972082,41.1014376 L0.133972082,40.4650829 L0.263324437,39.9586879 L0.263324437,39.3178517 L0.526648875,38.8114567 L0.65600123,38.3050618 L0.785353585,37.7941854 L1.04867802,37.2877904 L1.17803038,36.7813954 L1.44135481,36.4004788 L1.70467925,35.8940839 L2.09273632,35.5131673 L2.35606075,35.1277693 L2.61938519,34.7468527 L3.01206198,34.3659361 L3.40473878,33.9850196 L3.66344349,33.7295814 L4.05612028,33.4741432 L4.44879707,33.097708 L4.84147386,32.8422698 L5.23877038,32.5868316 L5.50209482,32.3358748 L5.89477161,32.205915 L6.28744841,31.9549582 L6.6801252,31.8249985 L7.07280199,31.5740417 L9.82153954,37.2877904 L9.68756746,37.4132688 L9.42424302,37.5432286 L9.16553831,37.668707 L8.90221387,37.7941854 L8.77286152,37.9241452 L8.50953708,38.0496236 L8.38018472,38.175102 L8.25083237,38.3050618 L7.98750793,38.4305402 L7.85815558,38.5560186 L7.72418349,38.6859783 L7.59483114,38.9369351 L7.46547878,39.0668949 L7.3315067,39.1923733 L7.3315067,39.3178517 L7.20215435,39.5732899 L7.07280199,39.6987683 L6.93882991,39.8242467 L6.93882991,40.0841663 L6.80947755,40.3396044 L6.80947755,40.4650829 L6.6801252,40.720521 L6.6801252,40.9714778 L6.54615312,41.226916 L6.54615312,41.6078326 L6.54615312,41.8632708 L6.54615312,42.2441874 L6.54615312,42.625104 L6.54615312,43.0015392 L6.6801252,43.3824557 L6.6801252,43.8933321 L6.80947755,44.3997271 Z M9.82153954,37.2877904 L7.07280199,31.5740417 L7.85815558,31.3186035 L8.50953708,31.0631653 L9.29489066,30.9376869 L10.084864,30.9376869 L10.8702176,30.9376869 L11.5262188,30.9376869 L12.1776003,31.1931251 L12.8336015,31.3186035 L13.3556307,31.5740417 L13.8776598,31.8249985 L14.4043087,32.0804366 L14.7969855,32.3358748 L15.1896623,32.5868316 L15.5823391,32.8422698 L15.9750159,33.097708 L16.2383403,33.3486648 L16.6310171,33.4741432 L16.8943415,33.7295814 L17.1530462,33.8550598 L17.4163707,33.9850196 L17.545723,34.110498 L17.8090475,34.2359764 L17.9383998,34.2359764 L18.0723719,34.2359764 L18.2017243,34.3659361 L18.3310766,34.3659361 L18.460429,34.3659361 L18.5944011,34.3659361 L18.7237534,34.3659361 L18.9870778,34.2359764 L19.2457826,34.110498 L19.509107,33.9850196 L22.521169,39.6987683 L21.7358154,39.9586879 L20.9550815,40.3396044 L20.169728,40.4650829 L19.3797546,40.5905613 L18.5944011,40.720521 L17.9383998,40.720521 L17.1530462,40.5905613 L16.5016647,40.4650829 L15.8456635,40.2096447 L15.3236344,40.0841663 L14.6676331,39.8242467 L14.1409843,39.5732899 L13.7483075,39.3178517 L13.3556307,38.9369351 L12.9629539,38.6859783 L12.5702771,38.4305402 L12.1776003,38.3050618 L11.9142759,38.0496236 L11.6555711,37.7941854 L11.2628944,37.668707 L11.133542,37.5432286 L10.8702176,37.4132688 L10.7408652,37.2877904 L10.6068931,37.2877904 L10.4775408,37.2877904 L10.3481884,37.2877904 L10.3481884,37.162312 L10.2142163,37.162312 L10.2142163,37.2877904 L10.084864,37.2877904 L9.82153954,37.2877904 Z M22.521169,39.6987683 L19.509107,33.9850196 L20.0357559,33.7295814 L20.4284327,33.4741432 L20.8211095,33.2231864 L21.0844339,33.097708 L21.2137862,32.8422698 L21.3431386,32.7167914 L21.4771107,32.5868316 L21.4771107,32.4613532 L21.606463,32.205915 L21.606463,32.0804366 L21.7358154,31.8249985 L21.7358154,31.5740417 L21.7358154,31.3186035 L21.8697875,31.0631653 L21.8697875,30.6822487 L21.8697875,30.1713724 L21.8697875,29.6649774 L21.9991398,29.1585824 L22.1284922,28.647706 L22.2624643,28.0158326 L22.3918166,27.3794779 L22.6551411,26.7476045 L22.9138458,26.1112497 L23.3065226,25.4704136 L23.6991994,24.7085804 L24.2258482,24.076707 L24.8818495,23.4403523 L25.5378507,22.9339573 L26.3232043,22.2976025 L27.1085579,21.7912075 L28.0232638,21.2848125 L28.9379697,20.7739362 L31.9500317,26.4921663 L31.1646781,26.8730829 L30.642649,27.1285211 L30.1206198,27.5049563 L29.7279431,27.7603944 L29.4646186,28.0158326 L29.2012942,28.2667894 L29.0673221,28.5222276 L28.9379697,28.7776658 L28.8086174,28.9031442 L28.6746453,29.1585824 L28.6746453,29.2840608 L28.5452929,29.539499 L28.5452929,29.7904558 L28.4159406,30.0458939 L28.4159406,30.4268105 L28.4159406,30.8122085 L28.4159406,31.1931251 L28.2819685,31.5740417 L28.2819685,32.0804366 L28.1526162,32.7167914 L28.0232638,33.2231864 L27.8892917,33.8550598 L27.7599394,34.4914145 L27.3672626,35.1277693 L27.1085579,35.7641241 L26.581909,36.4004788 L26.0598798,37.0323522 L25.5378507,37.668707 L24.8818495,38.175102 L24.0918761,38.6859783 L23.3065226,39.1923733 L22.521169,39.6987683 Z M28.9379697,20.7739362 C30.642649,20.012103 32.606033,20.6439764 33.3913865,22.1721241 C34.1767401,23.8212688 33.5207389,25.7303331 31.9500317,26.4921663 L28.9379697,20.7739362 Z" id="Fill-10" fill="#AB44BD"/>
                    <g id="Group-14" transform="translate(84.258847, 24.059563)">
                        <mask id="mask-3" fill="white">
                            <use xlink:href="#path-2"/>
                        </mask>
                        <g id="Clip-13"/>
                        <path d="M30.8644217,17.2852211 C32.5792462,16.9040958 34.4338663,17.9219246 34.8299535,19.5719732 C35.3565164,21.2265056 34.2987306,23.0021013 32.4487704,23.3832267 L30.8644217,17.2852211 Z M30.8644217,17.2852211 L32.4487704,23.3832267 L32.0526833,23.5132577 L31.7870718,23.6388049 L31.3909846,23.6388049 L30.9948974,23.764352 L30.5988103,23.764352 L30.2027231,23.764352 L29.8066359,23.894383 L29.4105487,23.894383 L29.0191213,23.894383 L28.6183743,23.894383 L28.2222871,23.894383 L27.8261999,23.894383 L27.4301127,23.894383 L27.0340255,23.764352 L26.5028027,23.764352 L26.1067155,23.764352 L25.7152881,23.6388049 L25.3192009,23.5132577 L24.7879781,23.5132577 L24.3918909,23.3832267 L23.9911439,23.2576795 L23.5950567,23.1321323 L23.0684937,22.8765542 L22.6724065,22.751007 L22.2763193,22.620976 L21.8802321,22.3698816 L21.4841449,22.1143035 L21.0880577,21.8632091 L20.6919705,21.607631 L20.2958833,21.3520528 L19.8997961,21.1009584 L19.503709,20.7153493 L23.9911439,16.1418451 L24.2614151,16.2673922 L24.3918909,16.3974232 L24.5270266,16.5229704 L24.6575023,16.5229704 L24.9231137,16.6485176 L25.0535895,16.7785486 L25.1840653,16.9040958 L25.4496767,16.9040958 L25.5801525,17.0296429 L25.8457639,17.1596739 L26.1067155,17.1596739 L26.2418511,17.2852211 L26.5028027,17.2852211 L26.7684141,17.4107683 L26.8988899,17.4107683 L27.1645013,17.4107683 L27.4301127,17.5407993 L27.6910643,17.5407993 L27.9566757,17.5407993 L28.2222871,17.5407993 L28.3527629,17.5407993 L28.6183743,17.5407993 L28.8793258,17.5407993 L29.1495971,17.5407993 L29.4105487,17.5407993 L29.5456843,17.5407993 L29.8066359,17.5407993 L30.0722473,17.4107683 L30.2027231,17.4107683 L30.4683345,17.4107683 L30.7339459,17.2852211 L30.8644217,17.2852211 Z M23.9911439,16.1418451 L19.503709,20.7153493 L18.9724861,20.2041929 L18.5763989,19.6975204 L18.1803117,19.1908479 L17.9193602,18.6841753 L17.6537488,18.0474718 L17.3881374,17.5407993 L17.2576616,16.9040958 L17.1271858,16.3974232 L17.1271858,15.8862669 L16.9920502,15.3751106 L16.9920502,14.868438 L16.9920502,14.4873127 L16.9920502,13.9806402 L17.1271858,13.5995148 L17.1271858,13.2183895 L17.1271858,12.9628113 L17.1271858,12.5816859 L17.1271858,12.3305916 L17.1271858,12.0750134 L17.1271858,11.6938881 L17.1271858,11.5683409 L17.1271858,11.3082789 L17.1271858,11.0527007 L16.9920502,10.9271535 L16.9920502,10.6715754 L16.8615744,10.5460282 L16.8615744,10.29045 L16.7310986,10.1649028 L16.595963,9.90932467 L16.3350114,9.65823033 L16.0694,9.40265215 L15.8084484,9.1515578 L20.5614948,4.5735698 L21.0880577,5.08024232 L21.4841449,5.71694584 L22.0153678,6.22361836 L22.4114549,6.86480571 L22.6724065,7.49702541 L22.9380179,8.00818176 L23.1989695,8.64040145 L23.3341051,9.27710498 L23.4645809,9.7837775 L23.5950567,10.420481 L23.7301923,10.9271535 L23.7301923,11.4383099 L23.7301923,11.9494662 L23.7301923,12.4561388 L23.7301923,12.8372641 L23.7301923,13.2183895 L23.5950567,13.5995148 L23.5950567,13.9806402 L23.5950567,14.3617655 L23.5950567,14.6128599 L23.5950567,14.868438 L23.5950567,14.9939852 L23.5950567,15.2495634 L23.5950567,15.3751106 L23.5950567,15.5051416 L23.7301923,15.6306887 L23.7301923,15.7562359 L23.8606681,15.8862669 L23.8606681,16.0118141 L23.9911439,16.1418451 Z M20.5614948,4.5735698 L15.8084484,9.1515578 L15.4123612,8.77043246 L15.016274,8.38930711 L14.6201868,8.13372893 L14.3545754,8.00818176 L14.0843042,7.87815076 L13.8233526,7.75260358 L13.5577412,7.62705641 L13.4272654,7.62705641 L13.2921298,7.62705641 L13.0311782,7.62705641 L12.7655668,7.62705641 L12.635091,7.62705641 L12.3694796,7.62705641 L11.9733924,7.75260358 L11.7124408,7.75260358 L11.3163536,7.87815076 L10.9202665,8.00818176 L10.3890436,8.13372893 L9.86248065,8.25927611 L9.33591768,8.25927611 L8.80469485,8.38930711 L8.14299624,8.38930711 L7.48129764,8.38930711 L6.82425888,8.38930711 L6.03208449,8.25927611 L5.2399101,8.13372893 L4.57821149,7.87815076 L3.78137725,7.49702541 L3.12433849,7.11590006 L2.33216411,6.60474371 L1.6704655,6.09807119 L1.01342674,5.46136767 L5.63599729,1.01341066 L6.03208449,1.26898884 L6.2976959,1.52008318 L6.6937831,1.77566136 L6.82425888,1.90569236 L7.08521044,2.03572336 L7.22034607,2.03572336 L7.35082185,2.03572336 L7.48129764,2.16127053 L7.74690905,2.16127053 L7.87738483,2.16127053 L8.01252046,2.03572336 L8.27347202,2.03572336 L8.66955922,2.03572336 L8.93517063,1.90569236 L9.33591768,1.90569236 L9.73200487,1.77566136 L10.1280921,1.65011418 L10.654655,1.52008318 L11.181218,1.39453601 L11.8429166,1.39453601 L12.3694796,1.26898884 L13.0311782,1.26898884 L13.8233526,1.26898884 L14.4850512,1.39453601 L15.2772256,1.52008318 L16.0694,1.77566136 L16.8615744,2.03572336 L17.523273,2.41684871 L18.3154474,2.79797406 L19.1076218,3.30464658 L19.7693204,3.93686627 L20.5614948,4.5735698 Z M1.01342674,5.46136767 C-0.305310626,4.31799162 -0.305310626,2.28681771 1.01342674,1.01341066 C2.20168832,-0.255512558 4.31260008,-0.255512558 5.63599729,1.01341066 L1.01342674,5.46136767 Z" id="Fill-12" fill="#983FC5" mask="url(#mask-3)"/>
                    </g>
                </g>
            </g>
        </g>
    </g>
</svg>