<svg width="427" height="369" xmlns="http://www.w3.org/2000/svg" xmlns:xlink="http://www.w3.org/1999/xlink"><script xmlns="" type="text/javascript" charset="utf-8" id="zm-extension"/><defs><path d="M181.848 78.413V26.008C181.848 11.644 170.2 0 155.844 0H29.018C14.656 0 3.014 11.64 3.014 26.008v314.984C3.014 355.356 14.662 367 29.018 367h126.826c14.361 0 26.004-11.64 26.004-26.008V105.09a.99.99 0 0 1-.402-.798V79.21c0-.325.158-.614.402-.796z" id="a"/><linearGradient x1="61.283%" y1="3.031%" x2="29.418%" y2="96.719%" id="b"><stop stop-color="#FEDD00" offset="0%"/><stop stop-color="#FEE539" stop-opacity=".959" offset="17.19%"/><stop stop-color="#FFF2A0" stop-opacity=".882" offset="49.47%"/><stop stop-color="#FFFBE1" stop-opacity=".829" offset="71.91%"/><stop stop-color="#FFFEFA" stop-opacity=".803" offset="82.43%"/><stop stop-color="#FFF" stop-opacity=".8" offset="100%"/></linearGradient><linearGradient x1="15.861%" y1="106.282%" x2="100.589%" y2="9.136%" id="c"><stop stop-color="#FEDD00" offset="0%"/><stop stop-color="#FEDE0B" stop-opacity=".974" offset="8.567%"/><stop stop-color="#FEE227" stop-opacity=".93" offset="23.4%"/><stop stop-color="#FEE855" stop-opacity=".872" offset="42.71%"/><stop stop-color="#FFF194" stop-opacity=".803" offset="65.77%"/><stop stop-color="#FFFBE4" stop-opacity=".725" offset="91.72%"/><stop stop-color="#FFF" stop-opacity=".7" offset="100%"/></linearGradient><linearGradient x1="9.954%" y1="9.069%" x2="107.321%" y2="90.043%" id="d"><stop stop-color="#FEDD00" offset="0%"/><stop stop-color="#FEED76" stop-opacity=".776" offset="36.97%"/><stop stop-color="#FFF9D4" stop-opacity=".585" offset="68.39%"/><stop stop-color="#FFFEF9" stop-opacity=".5" offset="82.43%"/><stop stop-color="#FFF" offset="100%"/></linearGradient><linearGradient x1="92.52%" y1="17.707%" x2="-127.61%" y2="195.59%" id="e"><stop stop-color="#FEDD00" offset="0%"/><stop stop-color="#FEEA65" stop-opacity=".931" offset="32.01%"/><stop stop-color="#FFF8CA" stop-opacity=".859" offset="65.68%"/><stop stop-color="#FFFDF2" stop-opacity=".827" offset="80.81%"/><stop stop-color="#FFFEFA" stop-opacity=".803" offset="89%"/><stop stop-color="#FFF" stop-opacity=".8" offset="100%"/></linearGradient><linearGradient x1="49.645%" y1="22.517%" x2="-52.509%" y2="125.918%" id="f"><stop stop-color="#FEDD00" offset="0%"/><stop stop-color="#FEEA65" stop-opacity=".931" offset="32.01%"/><stop stop-color="#FFF8CA" stop-opacity=".859" offset="65.68%"/><stop stop-color="#FFFDF2" stop-opacity=".827" offset="80.81%"/><stop stop-color="#FFFEFA" stop-opacity=".803" offset="89%"/><stop stop-color="#FFF" stop-opacity=".8" offset="100%"/></linearGradient><linearGradient x1="-83.915%" y1="28.108%" x2="76.419%" y2="59.888%" id="g"><stop stop-color="#FEDD00" offset="0%"/><stop stop-color="#FEDD00" offset="54.59%"/><stop stop-color="#FEDE07" stop-opacity=".964" offset="58.63%"/><stop stop-color="#FEE01A" stop-opacity=".913" offset="64.42%"/><stop stop-color="#FEE539" stop-opacity=".853" offset="71.27%"/><stop stop-color="#FEEA64" stop-opacity=".786" offset="78.94%"/><stop stop-color="#FFF29C" stop-opacity=".712" offset="87.28%"/><stop stop-color="#FFFBDE" stop-opacity=".635" offset="96.05%"/><stop stop-color="#FFF" stop-opacity=".6" offset="100%"/></linearGradient><linearGradient x1="-.101%" y1="50.04%" x2="99.857%" y2="50.04%" id="h"><stop stop-color="#FEDD00" offset="0%"/><stop stop-color="#FEDD00" offset="54.59%"/><stop stop-color="#FEDE07" stop-opacity=".964" offset="58.63%"/><stop stop-color="#FEE01A" stop-opacity=".913" offset="64.42%"/><stop stop-color="#FEE539" stop-opacity=".853" offset="71.27%"/><stop stop-color="#FEEA64" stop-opacity=".786" offset="78.94%"/><stop stop-color="#FFF29C" stop-opacity=".712" offset="87.28%"/><stop stop-color="#FFFBDE" stop-opacity=".635" offset="96.05%"/><stop stop-color="#FFF" stop-opacity=".6" offset="100%"/></linearGradient><linearGradient x1="101.448%" y1="90.669%" x2="29.055%" y2="25.761%" id="i"><stop stop-color="#FEDD00" offset="0%"/><stop stop-color="#FEDE0A" stop-opacity=".992" offset="59.65%"/><stop stop-color="#FEE53C" stop-opacity=".972" offset="63.97%"/><stop stop-color="#FEEC6F" stop-opacity=".948" offset="69.01%"/><stop stop-color="#FFF29B" stop-opacity=".923" offset="74.15%"/><stop stop-color="#FFF6BF" stop-opacity=".899" offset="79.3%"/><stop stop-color="#FFFADB" stop-opacity=".874" offset="84.44%"/><stop stop-color="#FFFDEF" stop-opacity=".85" offset="89.6%"/><stop stop-color="#FFFEFB" stop-opacity=".825" offset="94.78%"/><stop stop-color="#FFF" stop-opacity=".8" offset="100%"/></linearGradient><linearGradient x1="53.837%" y1="-42.428%" x2="48.403%" y2="121.161%" id="j"><stop stop-color="#FEDD00" offset="0%"/><stop stop-color="#FEED76" stop-opacity=".776" offset="36.97%"/><stop stop-color="#FFF9D4" stop-opacity=".585" offset="68.39%"/><stop stop-color="#FFFEF9" stop-opacity=".5" offset="82.43%"/><stop stop-color="#FFF" offset="100%"/></linearGradient><linearGradient x1="73.032%" y1="24.069%" x2="-42.388%" y2="154.028%" id="k"><stop stop-color="#FEDD00" offset="0%"/><stop stop-color="#FEEA65" stop-opacity=".931" offset="32.01%"/><stop stop-color="#FFF8CA" stop-opacity=".859" offset="65.68%"/><stop stop-color="#FFFDF2" stop-opacity=".827" offset="80.81%"/><stop stop-color="#FFFEFA" stop-opacity=".803" offset="89%"/><stop stop-color="#FFF" stop-opacity=".8" offset="100%"/></linearGradient></defs><g fill="none" fill-rule="evenodd"><g transform="translate(123 1)"><ellipse stroke="#E4E4E4" cx="64.3" cy="23.063" rx="3.014" ry="3.008"/><rect stroke="#E4E4E4" x="77.861" y="21.557" width="29.141" height="3.011" rx="1.505"/><use stroke="#E4E4E4" xlink:href="#a"/><use stroke="#DFDFDF" xlink:href="#a"/><rect stroke="#E4E4E4" x="8.537" y="4.511" width="168.792" height="356.975" rx="22"/><rect stroke="#DFDFDF" x="8.537" y="4.511" width="168.792" height="356.975" rx="22"/><path d="M2.008 78.71v27.58m.504-59.722v14.156m-.505 50.589v27.983" stroke="#E4E4E4" stroke-linecap="square"/><ellipse stroke="#E4E4E4" cx="92.431" cy="11.03" rx="2.009" ry="2.005"/><rect stroke="#E4E4E4" x="14.566" y="43.617" width="155.731" height="277.76" rx="2"/><ellipse stroke="#E4E4E4" cx="92.431" cy="342.934" rx="12.056" ry="12.033"/><ellipse stroke="#E4E4E4" cx="92.431" cy="342.934" rx="14.066" ry="14.038"/></g><path d="M165.948 169.402h-46.572c-4.863 0-8.835-3.967-8.835-8.825v-45.56c0-5.474 4.452-9.92 9.93-9.92h45.477c4.863 0 8.835 3.967 8.835 8.825v46.655a8.808 8.808 0 0 1-8.835 8.825z" stroke="#D2D3D1" stroke-width=".684" fill="#FFF"/><path d="M419.151 94.561h-45.819c-3.767 0-6.849-3.078-6.849-6.84V41.816c0-3.763 3.082-6.841 6.85-6.841h45.818c3.767 0 6.849 3.078 6.849 6.84V87.72a6.821 6.821 0 0 1-6.849 6.841zm-.753 259.823h-48.764a4.367 4.367 0 0 1-4.384-4.378v-47.75a5.521 5.521 0 0 1 5.548-5.542h47.6a4.367 4.367 0 0 1 4.383 4.379v48.845c.069 2.462-1.918 4.446-4.383 4.446zM284.57 227.414h-46.572c-4.862 0-8.835-3.967-8.835-8.824v-45.562c0-5.473 4.452-9.92 9.931-9.92h45.477c4.862 0 8.835 3.968 8.835 8.826v46.656a8.808 8.808 0 0 1-8.835 8.824z" stroke="#D2D3D1" stroke-width=".684"/><path d="M145.95 129.861c-1.781-4.994 3.424-10.33 7.67-10.535 2.534 1.3 4.726 4.72 4.657 9.372-.342 5.747-4.451 10.672-8.972 15.187-.273-5.54-1.438-9.098-3.355-14.024zm-10.068 27.022c-.685-5.61 1.643-10.33 3.904-13.271 5-6.226 4.725-9.988 4.177-13.204 2.671 4.105 4.315 9.03 4.658 13.409.205 3.626-2.398 11.972-12.74 13.066z" fill="#FEDD00"/><path d="M132.252 135.744c-7.602-2.052-9.452-8.55-9.11-12.93 7.33-2.94 15.274.07 19.863 6.295 3.218 4.378 5.205 9.92 5.616 14.776-2.192-2.805-5-4.446-8.493-5.746-2.397-.89-4.657-1.505-7.876-2.395z" fill="#FEDD00"/><path d="M23.355 10.877C21.574 5.883 26.779.547 31.025.342c2.534 1.3 4.726 4.72 4.658 9.372-.343 5.747-4.452 10.672-8.972 15.187-.274-5.54-1.439-9.098-3.356-14.024z" fill="url(#b)" transform="translate(122.595 118.984)"/><path d="M13.287 37.9c-.685-5.61 1.644-10.33 3.904-13.272 5-6.226 4.725-9.988 4.177-13.203 2.672 4.104 4.315 9.03 4.658 13.408.205 3.626-2.397 11.972-12.74 13.066z" fill="url(#c)" transform="translate(122.595 118.984)"/><path d="M9.657 16.76C2.055 14.709.205 8.21.547 3.832 7.877.89 15.821 3.9 20.41 10.126c3.219 4.378 5.205 9.92 5.616 14.776-2.192-2.804-5-4.446-8.493-5.746-2.397-.89-4.657-1.505-7.876-2.394z" fill="url(#d)" transform="translate(122.595 118.984)"/><g stroke-width=".684" stroke="#FEDD00"><path d="M283.064 191.157l-9.383-12.588-12.191-1.3-12.122 1.3-9.383 12.588 21.505 25.107z"/><path d="M274.366 191.157l-.685-12.588-12.191-1.3-12.122 1.3-.685 12.588 12.807 25.107z"/><path d="M274.366 191.157L261.49 177.27l-12.807 13.887 12.807 25.107zm-34.381 0h43.079"/></g><path stroke="#FEDD00" stroke-width=".684" d="M12.807 299.861h32.464v32.427H12.807z"/><path stroke="#FEDD00" stroke-width=".684" d="M10.205 297.33h37.532v37.489H10.205z"/><path d="M33.97 321.41c-1.027 0-2.26-.478-2.945-.82l-.616 2.394c.822.479 2.123.752 3.493.752 3.082 0 4.726-1.505 4.726-3.489 0-1.573-.89-2.668-2.945-3.352-1.302-.479-1.781-.752-1.781-1.231 0-.547.48-.89 1.301-.89.96 0 1.85.343 2.329.616l.616-2.326c-.685-.342-1.78-.615-3.082-.615-2.67 0-4.452 1.505-4.452 3.557 0 1.3.822 2.531 3.082 3.284 1.233.41 1.576.684 1.576 1.231.205.479-.274.89-1.302.89zm-11.3-3.283c.342.068.685.068 1.164.068 1.986 0 3.698-.479 4.863-1.573.89-.821 1.37-2.121 1.37-3.558 0-1.436-.617-2.736-1.576-3.489-1.027-.82-2.465-1.23-4.588-1.23-2.055 0-3.562.136-4.59.341v14.845h3.357v-5.404zm0-7.047c.205-.068.685-.136 1.37-.136 1.712 0 2.67.82 2.67 2.189 0 1.505-1.095 2.463-2.944 2.463-.48 0-.822 0-1.096-.069v-4.447z" fill="#FEDD00" fill-rule="nonzero"/><path d="M33.97 306.41c-1.027 0-2.26-.478-2.945-.82l-.616 2.394c.822.479 2.123.752 3.493.752 3.082 0 4.726-1.505 4.726-3.489 0-1.573-.89-2.668-2.945-3.352-1.302-.479-1.781-.752-1.781-1.231 0-.547.48-.89 1.301-.89.96 0 1.85.343 2.329.616l.616-2.326c-.685-.342-1.78-.615-3.082-.615-2.67 0-4.452 1.505-4.452 3.557 0 1.3.822 2.531 3.082 3.284 1.233.41 1.576.684 1.576 1.231.205.479-.274.89-1.302.89z" fill="url(#e)" fill-rule="nonzero" transform="translate(0 15)"/><path d="M28.491 294.644c-1.027-.821-2.465-1.232-4.588-1.232-2.055 0-3.562.137-4.59.343v14.776h3.357v-5.336c.342.069.685.069 1.164.069 1.986 0 3.698-.48 4.863-1.574.89-.82 1.37-2.12 1.37-3.557 0-1.505-.617-2.737-1.576-3.49zm-4.725 5.952c-.48 0-.822 0-1.096-.069v-4.447c.205-.068.685-.136 1.37-.136 1.712 0 2.67.82 2.67 2.189 0 1.573-1.095 2.463-2.944 2.463z" fill="url(#f)" fill-rule="nonzero" transform="translate(0 15)"/><g fill-rule="nonzero"><path d="M32.806 55.841l.274-.342 12.054-22.85v-.273l-5.342-9.988c-.48-.82-1.712-.615-1.85.342l-5.136 33.111z" fill="#FEDD00"/><g transform="translate(32.875 21.841)" fill="url(#g)"><path d="M.068 33.726l.206-.342L12.191 10.81 6.917.82c-.41-.82-1.575-.615-1.712.343L.068 33.726z"/><path d="M.068 33.726l.206-.342L12.191 10.81 6.917.82c-.41-.82-1.575-.615-1.712.343L.068 33.726z"/></g><path d="M48.97 39.901l3.972-4.036-3.973-7.525c-.342-.684-1.438-.684-1.78 0l-2.123 4.036v.342l3.903 7.183z" fill="#FEDD00"/><path fill="url(#h)" d="M.616 34l.069-.137.48-.137 15.41-15.392.205-.547-3.904-7.32z" transform="translate(32.19 21.841)"/><path fill="#FEDD00" d="M32.806 55.841l.069-.137.479-.137 15.41-15.392.205-.547-3.903-7.32z"/><path d="M49.517 63.571l13.972-7.798-3.972-24.491c-.137-.753-1.096-1.095-1.644-.548L32.806 55.841l13.903 7.73c.822.48 1.918.48 2.808 0" fill="#FEDD00"/><path d="M31.162 33.863L27.19 9.577c-.137-.752-.89-1.094-1.438-.547L.753 33.932l13.698 7.662c.89.478 1.918.478 2.808 0l13.903-7.73z" fill="url(#i)" transform="translate(32.19 21.841)"/><path d="M49.517 63.366a2.924 2.924 0 0 1-2.808 0l-13.834-7.662-.137.137 13.903 7.73c.89.48 1.918.48 2.808 0l13.972-7.798v-.206l-13.904 7.8z" fill="#FEDD00"/><g transform="translate(44.518 27.314)" fill="url(#j)"><path d="M4.383 12.45L8.22 8.484l-3.836-7.32C4.041.479 3.15.41 2.74 1.095L.616 5.199l-.068.205 3.835 7.047z"/><path d="M4.383 12.45L8.22 8.484l-3.836-7.32C4.041.479 3.15.41 2.74 1.095L.616 5.199l-.068.205 3.835 7.047z"/></g></g><path d="M397.166 329.62h-8.698c-1.301 0-1.986.752-1.986 1.915 0 1.026.685 1.71 1.644 1.71 1.164 0 1.78-.752 1.849-1.915h2.534c-.137 2.736-1.85 4.173-4.383 4.173-2.397 0-4.178-1.642-4.178-4.036 0-2.531 1.85-4.31 4.726-4.31h8.63c2.944 0 5.136-2.12 5.136-4.994 0-2.942-1.986-4.926-4.794-4.926s-5.069 2.053-5.069 5.815v2.463h-2.534v-2.463c0-4.994 3.22-8.209 7.671-8.209 4.246 0 7.328 3.01 7.328 7.32-.137 4.31-3.424 7.457-7.876 7.457zm-2.945 13.408c9.931 0 17.739-7.867 17.739-17.718 0-9.851-7.808-17.718-17.739-17.718-9.93 0-17.738 7.867-17.738 17.718 0 9.92 7.807 17.718 17.738 17.718z" fill="#FEDD00" fill-rule="nonzero"/><path d="M397.235 314.825h-9.04c-1.302 0-2.055.82-2.055 1.984 0 1.026.684 1.779 1.712 1.779 1.164 0 1.849-.821 1.917-1.984h2.603c-.137 2.873-1.918 4.378-4.589 4.378-2.465 0-4.315-1.71-4.315-4.173 0-2.6 1.918-4.447 4.863-4.447h8.904c3.013 0 5.273-2.189 5.273-5.199s-2.054-5.13-5-5.13c-2.876 0-5.204 2.12-5.204 6.02v2.53h-2.672v-2.53c0-5.131 3.288-8.484 7.945-8.484 4.383 0 7.602 3.147 7.602 7.594.137 4.378-3.287 7.662-7.944 7.662zm-3.014 13.819c10.274 0 18.355-8.141 18.355-18.334s-8.081-18.334-18.355-18.334c-10.273 0-18.355 8.14-18.355 18.334 0 10.261 8.082 18.334 18.355 18.334z" fill="url(#k)" fill-rule="nonzero" transform="translate(0 15)"/><path d="M53.558 344.807H4.794a4.367 4.367 0 0 1-4.383-4.378v-47.75a5.521 5.521 0 0 1 5.548-5.542h47.6a4.367 4.367 0 0 1 4.382 4.378v48.845c0 2.463-1.986 4.447-4.383 4.447zM73.283 72.738H24.519a4.367 4.367 0 0 1-4.383-4.378V20.61a5.521 5.521 0 0 1 5.547-5.542h47.6a4.367 4.367 0 0 1 4.383 4.379V68.36c.069 2.395-1.917 4.378-4.383 4.378z" stroke="#D2D3D1" stroke-width=".684"/><path d="M380.592 58.577h-.069a2.454 2.454 0 0 0-2.465 2.463v10.604a2.454 2.454 0 0 0 2.465 2.463h.069a2.454 2.454 0 0 0 2.466-2.463V61.04a2.454 2.454 0 0 0-2.466-2.463zm4.726 17.171a2.279 2.279 0 0 0 2.26 2.258h2.397v5.747a2.454 2.454 0 0 0 2.466 2.462h.068a2.454 2.454 0 0 0 2.466-2.462v-5.815h3.356v5.746a2.454 2.454 0 0 0 2.465 2.463h.137a2.454 2.454 0 0 0 2.466-2.463v-5.746h2.397a2.279 2.279 0 0 0 2.26-2.258V58.92h-22.601v16.828h-.137zm27.395-17.171h-.137a2.454 2.454 0 0 0-2.465 2.463v10.604a2.454 2.454 0 0 0 2.465 2.463h.137a2.454 2.454 0 0 0 2.466-2.463V61.04a2.454 2.454 0 0 0-2.466-2.463zM402.234 47.7l1.918-2.941c.137-.206.069-.41-.137-.548-.205-.137-.41-.068-.548.137l-1.986 3.01a12.837 12.837 0 0 0-4.863-.958c-1.78 0-3.424.342-4.862.958l-1.987-3.01c-.137-.205-.342-.274-.547-.137-.206.137-.274.342-.137.548l1.917 2.941c-3.424 1.71-5.753 4.857-5.753 8.483 0 .205 0 .41.069.684h22.738v-.684c0-3.626-2.329-6.773-5.822-8.483z" stroke="#FEDD00" stroke-width=".684"/><path d="M391.345 52.968a1.081 1.081 0 0 1-1.096-1.095c0-.615.48-1.094 1.096-1.094.616 0 1.096.479 1.096 1.094 0 .616-.48 1.095-1.096 1.095zm10.547 0a1.081 1.081 0 0 1-1.096-1.095c0-.615.48-1.094 1.096-1.094.616 0 1.096.479 1.096 1.094 0 .616-.48 1.095-1.096 1.095z" fill="#FEDD00" fill-rule="nonzero"/></g></svg>