<svg width="488" height="368" xmlns="http://www.w3.org/2000/svg"><script xmlns="" type="text/javascript" charset="utf-8" id="zm-extension"/><defs><linearGradient x1="126.44%" y1="-9.09%" x2="4.765%" y2="126.375%" id="a"><stop stop-color="#FEDD00" offset="0%"/><stop stop-color="#FEEA65" stop-opacity=".931" offset="32.01%"/><stop stop-color="#FFF8CA" stop-opacity=".859" offset="65.68%"/><stop stop-color="#FFFDF2" stop-opacity=".827" offset="80.81%"/><stop stop-color="#FFFEFA" stop-opacity=".803" offset="89%"/><stop stop-color="#FFF" stop-opacity=".8" offset="100%"/></linearGradient><linearGradient x1="91.784%" y1="11.435%" x2="-13.921%" y2="121.033%" id="b"><stop stop-color="#FEDD00" offset="0%"/><stop stop-color="#FEEA65" stop-opacity=".931" offset="32.01%"/><stop stop-color="#FFF8CA" stop-opacity=".859" offset="65.68%"/><stop stop-color="#FFFDF2" stop-opacity=".827" offset="80.81%"/><stop stop-color="#FFFEFA" stop-opacity=".803" offset="89%"/><stop stop-color="#FFF" stop-opacity=".8" offset="100%"/></linearGradient><linearGradient x1="-1.055%" y1="49.935%" x2="99.142%" y2="49.935%" id="c"><stop stop-color="#FEDD00" offset="0%"/><stop stop-color="#FEEA65" stop-opacity=".931" offset="32.01%"/><stop stop-color="#FFF8CA" stop-opacity=".859" offset="65.68%"/><stop stop-color="#FFFDF2" stop-opacity=".827" offset="80.81%"/><stop stop-color="#FFFEFA" stop-opacity=".803" offset="89%"/><stop stop-color="#FFF" stop-opacity=".8" offset="100%"/></linearGradient><linearGradient x1="100.469%" y1="50.223%" x2=".272%" y2="50.223%" id="d"><stop stop-color="#FEDD00" offset="0%"/><stop stop-color="#FEEA65" stop-opacity=".931" offset="32.01%"/><stop stop-color="#FFF8CA" stop-opacity=".859" offset="65.68%"/><stop stop-color="#FFFDF2" stop-opacity=".827" offset="80.81%"/><stop stop-color="#FFFEFA" stop-opacity=".803" offset="89%"/><stop stop-color="#FFF" stop-opacity=".8" offset="100%"/></linearGradient><linearGradient x1="61.322%" y1="91.223%" x2="31.167%" y2="2.305%" id="e"><stop stop-color="#FEDD00" offset="0%"/><stop stop-color="#FEEA65" stop-opacity=".931" offset="32.01%"/><stop stop-color="#FFF8CA" stop-opacity=".859" offset="65.68%"/><stop stop-color="#FFFDF2" stop-opacity=".827" offset="80.81%"/><stop stop-color="#FFFEFA" stop-opacity=".803" offset="89%"/><stop stop-color="#FFF" stop-opacity=".8" offset="100%"/></linearGradient><linearGradient x1="-.455%" y1="50.036%" x2="100.046%" y2="50.036%" id="f"><stop stop-color="#FEDD00" offset="0%"/><stop stop-color="#FEEA65" stop-opacity=".931" offset="32.01%"/><stop stop-color="#FFF8CA" stop-opacity=".859" offset="65.68%"/><stop stop-color="#FFFDF2" stop-opacity=".827" offset="80.81%"/><stop stop-color="#FFFEFA" stop-opacity=".803" offset="89%"/><stop stop-color="#FFF" stop-opacity=".8" offset="100%"/></linearGradient><linearGradient x1=".332%" y1="50.054%" x2="99.765%" y2="50.054%" id="g"><stop stop-color="#FEDD00" offset="0%"/><stop stop-color="#FEEA65" stop-opacity=".931" offset="32.01%"/><stop stop-color="#FFF8CA" stop-opacity=".859" offset="65.68%"/><stop stop-color="#FFFDF2" stop-opacity=".827" offset="80.81%"/><stop stop-color="#FFFEFA" stop-opacity=".803" offset="89%"/><stop stop-color="#FFF" stop-opacity=".8" offset="100%"/></linearGradient><linearGradient x1=".272%" y1="49.988%" x2="99.705%" y2="49.988%" id="h"><stop stop-color="#FEDD00" offset="0%"/><stop stop-color="#FEEA65" stop-opacity=".931" offset="32.01%"/><stop stop-color="#FFF8CA" stop-opacity=".859" offset="65.68%"/><stop stop-color="#FFFDF2" stop-opacity=".827" offset="80.81%"/><stop stop-color="#FFFEFA" stop-opacity=".803" offset="89%"/><stop stop-color="#FFF" stop-opacity=".8" offset="100%"/></linearGradient><linearGradient x1="-.44%" y1="49.854%" x2="100.062%" y2="49.854%" id="i"><stop stop-color="#FEDD00" offset="0%"/><stop stop-color="#FEEA65" stop-opacity=".931" offset="32.01%"/><stop stop-color="#FFF8CA" stop-opacity=".859" offset="65.68%"/><stop stop-color="#FFFDF2" stop-opacity=".827" offset="80.81%"/><stop stop-color="#FFFEFA" stop-opacity=".803" offset="89%"/><stop stop-color="#FFF" stop-opacity=".8" offset="100%"/></linearGradient><linearGradient x1=".386%" y1="50.156%" x2="99.919%" y2="50.156%" id="j"><stop stop-color="#FEDD00" offset="0%"/><stop stop-color="#FEEA65" stop-opacity=".931" offset="32.01%"/><stop stop-color="#FFF8CA" stop-opacity=".859" offset="65.68%"/><stop stop-color="#FFFDF2" stop-opacity=".827" offset="80.81%"/><stop stop-color="#FFFEFA" stop-opacity=".803" offset="89%"/><stop stop-color="#FFF" stop-opacity=".8" offset="100%"/></linearGradient><linearGradient x1="91.533%" y1="-11.008%" x2="-38.783%" y2="108.598%" id="k"><stop stop-color="#FEDD00" offset="0%"/><stop stop-color="#FEE539" stop-opacity=".971" offset="8.616%"/><stop stop-color="#FEEC73" stop-opacity=".938" offset="18.48%"/><stop stop-color="#FFF3A3" stop-opacity=".905" offset="28.03%"/><stop stop-color="#FFF8C9" stop-opacity=".875" offset="37.01%"/><stop stop-color="#FFFBE4" stop-opacity=".847" offset="45.29%"/><stop stop-color="#FFFDF4" stop-opacity=".823" offset="52.63%"/><stop stop-color="#FFFEFA" stop-opacity=".803" offset="58.26%"/><stop stop-color="#FFF" stop-opacity=".8" offset="100%"/></linearGradient><linearGradient x1="-10.752%" y1=".995%" x2="126.594%" y2="189.44%" id="l"><stop stop-color="#FEDD00" offset="0%"/><stop stop-color="#FEDD04" stop-opacity=".975" offset="11.78%"/><stop stop-color="#FEDF0E" stop-opacity=".952" offset="22.36%"/><stop stop-color="#FEE121" stop-opacity=".93" offset="32.48%"/><stop stop-color="#FEE53B" stop-opacity=".909" offset="42.31%"/><stop stop-color="#FEE95C" stop-opacity=".889" offset="51.95%"/><stop stop-color="#FFEF85" stop-opacity=".869" offset="61.43%"/><stop stop-color="#FFF5B5" stop-opacity=".849" offset="70.79%"/><stop stop-color="#FFFCEC" stop-opacity=".829" offset="79.84%"/><stop stop-color="#FFFDF2" stop-opacity=".827" offset="80.81%"/><stop stop-color="#FFFEFA" stop-opacity=".803" offset="89%"/><stop stop-color="#FFF" stop-opacity=".8" offset="100%"/></linearGradient></defs><g fill="none" fill-rule="evenodd"><path d="M301.24 26.731a2.59 2.59 0 0 1-2.581 2.58h-37.653a2.59 2.59 0 0 1-2.582-2.58 2.59 2.59 0 0 1 2.582-2.58h37.653a2.59 2.59 0 0 1 2.582 2.58" stroke="#FFF" fill="#E3E3E3"/><path d="M371.764 80.044v-42.07c0-38.36-28.603-37.815-91.932-37.815-63.328 0-91.932-.544-91.932 37.815v78.528c-.936.128-1.678 1.222-1.678 2.556v52.817c0 1.334.742 2.428 1.678 2.556v152.354c0 41.148 39.31 40.92 91.932 40.92s91.932.228 91.932-40.92V107.022c1.032-.08 1.86-1.198 1.86-2.566V82.61c0-1.368-.828-2.486-1.86-2.565zM346.216 360.88c-16.09 5.095-39.671 5.095-64.635 5.095h-3.5c-56.72 0-88.81-1.784-88.81-38.422V37.273c0-33.591 21.924-35.3 85.32-35.3h10.479c63.396 0 85.32 1.709 85.32 35.3v290.28c0 17.753-7.455 28.031-24.174 33.327z" fill="#DBDBDB"/><path d="M245.075 221.945h-60.857c-3.943 0-7.168-3.228-7.168-7.173v-61.114c0-3.945 3.225-7.173 7.168-7.173h60.857c3.943 0 7.168 3.228 7.168 7.173v61.114c0 3.945-3.225 7.173-7.168 7.173zM479.688 265.7h-60.857c-3.943 0-7.168-3.227-7.168-7.173v-61.113c0-3.946 3.225-7.173 7.168-7.173h60.857c3.943 0 7.169 3.227 7.169 7.173v61.113a7.146 7.146 0 0 1-7.169 7.173zM69.169 353.57H8.312c-3.943 0-7.169-3.228-7.169-7.173v-61.114c0-3.945 3.226-7.173 7.169-7.173h60.857c3.943 0 7.168 3.228 7.168 7.173v61.114c0 3.945-3.225 7.173-7.168 7.173zM152.75 68.873h-45.088a4.575 4.575 0 0 1-4.588-4.59V20.169c0-3.228 2.58-5.81 5.807-5.81h43.94c2.58 0 4.588 2.08 4.588 4.59v45.262c-.072 2.582-2.15 4.662-4.66 4.662zm245.652 27.473H345.5c-3.943 0-7.168-3.228-7.168-7.173v-53.08c0-3.945 3.225-7.173 7.168-7.173h52.9c3.943 0 7.169 3.228 7.169 7.173v53.08c0 3.945-3.226 7.173-7.168 7.173zm-66.449 255.646h-45.088a4.575 4.575 0 0 1-4.587-4.591v-44.042c0-3.228 2.58-5.81 5.806-5.81h43.94a4.575 4.575 0 0 1 4.588 4.59v45.262c-.071 2.51-2.078 4.59-4.659 4.59z" stroke="#D2D3D1" stroke-width=".717" fill="#FEFEFE"/><path stroke="#FEDD00" stroke-width=".717" d="M292.098 307.089h35.196v35.219h-35.196z"/><path d="M301.345 336.498l2.724-1.65c.502.933 1.004 1.722 2.15 1.722 1.076 0 1.793-.43 1.793-2.08v-11.262h3.297v11.261c0 3.443-2.007 5.022-4.946 5.022-2.724 0-4.23-1.363-5.018-3.013m11.685-.358l2.723-1.579c.717 1.148 1.649 2.009 3.226 2.009 1.362 0 2.222-.718 2.222-1.65 0-1.148-.932-1.506-2.437-2.224l-.86-.358c-2.366-1.005-3.943-2.296-3.943-5.022 0-2.51 1.864-4.375 4.874-4.375 2.08 0 3.584.717 4.731 2.654l-2.58 1.65c-.574-1.004-1.147-1.435-2.15-1.435-1.004 0-1.578.646-1.578 1.435 0 1.004.646 1.363 2.007 2.008l.86.359c2.796 1.22 4.373 2.439 4.373 5.164 0 3.013-2.365 4.591-5.448 4.591-3.082.144-5.089-1.291-6.02-3.228" fill="#FEDD00" fill-rule="nonzero"/><path d="M9.319 29.84l2.723-1.65c.502.932 1.004 1.721 2.15 1.721 1.076 0 1.793-.43 1.793-2.08V16.57h3.297v11.26c0 3.443-2.007 5.021-4.946 5.021-2.724 0-4.229-1.363-5.017-3.012" fill="url(#a)" fill-rule="nonzero" transform="translate(292.027 306.658)"/><path d="M21.003 29.481l2.724-1.578c.716 1.148 1.648 2.008 3.225 2.008 1.362 0 2.222-.717 2.222-1.65 0-1.147-.932-1.506-2.437-2.223l-.86-.359c-2.365-1.004-3.942-2.295-3.942-5.02 0-2.511 1.863-4.376 4.874-4.376 2.079 0 3.584.717 4.73 2.654l-2.58 1.65c-.573-1.005-1.147-1.435-2.15-1.435-1.004 0-1.577.645-1.577 1.434 0 1.005.645 1.363 2.007 2.009l.86.359c2.796 1.219 4.373 2.438 4.373 5.164 0 3.013-2.366 4.59-5.448 4.59-3.082.144-5.09-1.29-6.021-3.227" fill="url(#b)" fill-rule="nonzero" transform="translate(292.027 306.658)"/><path stroke="#FEDD00" stroke-width=".717" d="M386.073 46.422H357.4l2.724 30.772 11.612 3.156 11.613-3.156z"/><path d="M371.88 59.764h-5.807l-.358-4.52h6.236V50.87h-11.039l.072 1.148 1.075 12.194h9.892v-4.447h-.071zm-.072 11.477l-4.874-1.292-.287-3.514h-4.373l.574 6.957 9.032 2.511v-4.662h-.072z" fill="#FEDD00" fill-rule="nonzero"/><path d="M18.207 16.354h-5.806l-.359-4.519h6.237V7.46H7.24l.072 1.148 1.075 12.194h9.892v-4.448h-.072zm-.072 11.477l-4.874-1.29-.287-3.516H8.602l.573 6.958 9.032 2.51v-4.662h-.072z" fill="url(#c)" fill-rule="nonzero" transform="translate(353.673 43.41)"/><path d="M371.736 59.764v4.447h5.448l-.573 5.667-4.875 1.29v4.591l9.032-2.51.072-.79 1.003-11.62.144-1.147h-10.251v.072zm0-8.895v4.376h10.68l.072-.933.216-2.295.071-1.148h-11.039z" fill="#FEDD00" fill-rule="nonzero"/><path d="M18.064 16.354v4.448h5.448l-.574 5.666-4.874 1.291v4.591l9.032-2.51.071-.79 1.004-11.62.143-1.147h-10.25v.071zm0-8.894v4.376h10.68l.072-.933.215-2.295.072-1.148h-11.04z" fill="url(#d)" fill-rule="nonzero" transform="translate(353.673 43.41)"/><path stroke="#FEDD00" stroke-width=".717" d="M354.246 43.553l3.154 35.865 14.336 4.088 14.408-4.088 3.226-35.865z"/><path d="M57.485 309.169c0-10.258-8.315-18.65-18.637-18.65-10.25 0-18.637 8.32-18.637 18.65v23.384a3.703 3.703 0 0 1 3.727 3.73c0 1.29-.645 2.439-1.649 3.084 1.004.86 2.366 1.435 3.8 1.435 3.225 0 5.877-2.654 5.877-5.882v-25.823a6.886 6.886 0 0 1 6.882-6.886 6.885 6.885 0 0 1 6.881 6.886 6.886 6.886 0 0 1-6.881 6.886c-3.226 0-5.806 2.654-5.806 5.882 0 3.228 2.58 5.81 5.806 5.882 10.322.072 18.637-8.25 18.637-18.578zm-18.637 16.498c-2.079 0-3.8-1.722-3.8-3.802s1.721-3.802 3.8-3.802c2.079 0 3.799 1.722 3.799 3.802a3.78 3.78 0 0 1-3.8 3.802z" fill="#FEDD00" fill-rule="nonzero"/><path d="M56.485 295.169c0-10.258-8.315-18.65-18.637-18.65-10.25 0-18.637 8.32-18.637 18.65v23.384a3.703 3.703 0 0 1 3.727 3.73c0 1.29-.645 2.439-1.649 3.084 1.004.86 2.366 1.435 3.8 1.435 3.225 0 5.877-2.654 5.877-5.882v-25.823a6.886 6.886 0 0 1 6.882-6.886 6.885 6.885 0 0 1 6.881 6.886 6.886 6.886 0 0 1-6.881 6.886c-3.226 0-5.806 2.654-5.806 5.882 0 3.228 2.58 5.81 5.806 5.882 10.322.072 18.637-8.25 18.637-18.578zm-18.637 16.498c-2.079 0-3.8-1.722-3.8-3.802s1.721-3.802 3.8-3.802c2.079 0 3.799 1.722 3.799 3.802a3.78 3.78 0 0 1-3.8 3.802z" fill="url(#e)" fill-rule="nonzero" transform="translate(1 14)"/><g fill-rule="nonzero"><path d="M429.727 220.654l-5.09 2.152 4.66 2.08 5.447-2.08zm-.431 5.666l-7.24-2.94-.143 9.898 7.383 3.228zm1.362-.358l6.667-2.582v9.468l-6.667 2.726zm15.412-5.667l-5.018 2.224 4.66 2.008 5.447-2.008zm-.358 5.667l-7.24-2.87-.144 9.828 7.384 3.228zm1.29-.359l6.738-2.51v9.396l-6.738 2.726zm22.723-18.793l-5.09 2.152 4.731 2.08 5.448-2.08zm-.359 5.667l-7.24-2.87-.214 9.828 7.454 3.227zm1.291-.359l6.738-2.51v9.396l-6.738 2.726zm-32.544 22.595l-5.09 2.152 4.66 2.008 5.448-2.008zm-.43 5.595l-7.24-2.87-.143 9.828 7.383 3.228zm1.362-.287l6.667-2.582v9.396l-6.667 2.798zm14.695-33.211l-5.09 2.152 4.731 2.008 5.377-2.008zm-.574 5.595l-6.523-2.654v9.755l6.308 1.865zm1.649.43l6.021-2.582v9.469l-6.021 2.725z" fill="#FEDD00"/><path fill="url(#f)" d="M8.888 19.726l6.667-2.583v9.469l-6.667 2.726z" transform="translate(421.77 206.236)"/><path fill="url(#g)" d="M25.232 19.367l6.738-2.51v9.396l-6.738 2.726z" transform="translate(421.77 206.236)"/><path fill="url(#h)" d="M48.887 5.882l6.738-2.51v9.396l-6.738 2.726z" transform="translate(421.77 206.236)"/><path fill="url(#i)" d="M17.275 33.785l6.667-2.582v9.396l-6.667 2.798z" transform="translate(421.77 206.236)"/><path fill="url(#j)" d="M33.045 6.6l6.021-2.583v9.468l-6.02 2.726z" transform="translate(421.77 206.236)"/></g><path stroke="#FEDD00" stroke-width=".717" stroke-linejoin="round" d="M214.682 164.49l-20.716 21.805v19.51l20.716-20.73 20.573-20.586zm-20.716 41.316l20.716-20.73 20.573 20.73z"/><path stroke="#FEDD00" stroke-width=".717" stroke-linejoin="round" d="M193.966 164.49h20.716l-20.716 21.805z"/><path fill="#FEDD00" fill-rule="nonzero" d="M214.682 164.49l-20.716 21.805v19.51l20.716-20.73 20.573-20.586z"/><path fill="url(#k)" fill-rule="nonzero" d="M20.86.574L.142 22.38v19.51L20.86 21.16 41.432.574z" transform="translate(193.823 163.916)"/><path fill="#FEDD00" fill-rule="nonzero" d="M193.966 205.806l20.716-20.73 20.573 20.73z"/><path fill="url(#l)" fill-rule="nonzero" d="M.143 41.89L20.86 21.16l20.573 20.73z" transform="translate(193.823 163.916)"/><path fill="#FEDD00" fill-rule="nonzero" d="M193.966 164.49h20.716l-20.716 21.805z"/><path d="M140.994 41.831c-.072-4.95 4.014-7.245 4.157-7.388-2.293-3.371-5.806-3.802-7.096-3.873-3.01-.287-5.878 1.793-7.455 1.793-1.505 0-3.87-1.722-6.38-1.722-3.297.072-6.308 1.937-8.028 4.878-3.44 5.954-.86 14.705 2.437 19.582 1.649 2.367 3.584 5.021 6.093 4.878 2.437-.072 3.37-1.578 6.38-1.578 2.939 0 3.799 1.578 6.38 1.506 2.652-.072 4.3-2.439 5.949-4.734 1.864-2.726 2.652-5.38 2.652-5.523 0 0-5.09-1.937-5.09-7.819zm-4.874-14.417c1.361-1.65 2.293-3.946 2.007-6.17-1.936.072-4.301 1.292-5.735 2.942-1.29 1.434-2.365 3.801-2.079 6.025 2.222.143 4.445-1.148 5.806-2.797z" stroke="#FEDD00" stroke-width=".717"/></g></svg>