<svg width="221" height="58" xmlns="http://www.w3.org/2000/svg"><script xmlns="" type="text/javascript" charset="utf-8" id="zm-extension"/><path d="M134.329 24.172c-7.233 0-13.031 5.19-13.031 13.834 0 1.874.275 3.624.803 5.177 1.853 5.451 6.594 8.746 12.228 8.746 5.637 0 10.467-3.291 12.317-8.746.528-1.55.803-3.303.803-5.177 0-8.643-5.884-13.834-13.12-13.834zm-133.79.803v5.445H2.68v15.173H.538v5.712h13.21v-5.712h-2.32v-3.66a7.091 7.091 0 0 0 1.427.179c2.01 0 5.01-.047 6.873-1.16 2.549-1.51 3.927-4.556 3.927-7.409 0-4.905-3.41-8.568-9.015-8.568H.538zm24.098 0v5.445h2.231v15.173h-2.231v5.712h21.42V40.862h-5.98v4.73h-4.373V30.42h2.678v-5.445H24.637zm31.595 0l-6.515 20.618h-1.785v5.712h9.728v-5.712h-2.142l.536-1.875h6.248l.446 1.875h-2.41v5.712h12.585v-5.712h-1.696l-6.248-20.618h-8.747zm14.906 0v5.445h1.338l7.051 10.71v4.463h-2.856v5.712h14.46v-5.712h-2.768v-5.534l6.159-9.64h1.25v-5.444h-9.55v5.445h1.874l-2.856 4.55-2.767-4.551h1.785v-5.445h-13.12zm26.418 0v5.445h2.053v15.173h-2.053v5.712h16.423c3.83-.007 6.873-3.124 6.873-6.962 0-.414-.04-.785-.09-1.16-.414-2.953-2.399-4.534-4.73-5.355 2.41-1.007 4.106-2.903 4.106-6.159 0-3.684-3.37-6.683-7.051-6.694h-15.53zm48.733 0v5.445h1.338l7.051 10.71v4.463h-2.856v5.712h14.46v-5.712h-2.768v-5.534l6.159-9.64h1.25v-5.444h-9.64v5.445h1.874l-2.766 4.551-2.767-4.551h1.785v-5.445h-13.12zm-11.871 5.088c2.87 0 3.48 3.566 3.48 8.032 0 1.925-.15 3.699-.535 5.088-.51 1.831-1.396 3.034-2.945 3.034-1.55 0-2.524-1.203-3.035-3.034-.385-1.39-.446-3.163-.446-5.088 0-4.466.61-8.032 3.481-8.032zm-122.277.357c2.142 0 3.213 1.32 3.213 2.856 0 1.535-.985 2.677-3.213 2.677a2.48 2.48 0 0 1-.714-.089v-5.355c.236-.025.46-.09.714-.09zm95.68 0h1.963a2.23 2.23 0 0 1 2.231 2.23 2.246 2.246 0 0 1-2.23 2.232h-1.964V30.42zm-48.197 1.338h.09l1.338 5.98H57.75l1.874-5.98zm48.197 9.283h2.052c1.232 0 2.246.931 2.321 2.142.004.05 0 .132 0 .178 0 1.278-.757 2.232-2.32 2.232h-2.053V41.04zM182.486.319s-.432 7.672 5.159 15.19c4.927 6.63 12.178 9.39 13.927 10.036.703.26.5.94-.09.91-.585-.028-4.487-.003-9.178 2.957-4.695 2.963-5.184 7.597-5.184 8.625 0 1.025.414 3.135 3.802 5.309 2.7 1.731 6.17 2.563 6.17 2.563s-.922 1.293-.936 2.717c-.014 1.475.81 2.753.81 2.753s5.406-2.6 6.041-2.856c.325-.133.468-.018.457.246-.018.35-.16 2.835-.16 2.835s6.933-2.535 7.975-2.964c2.1-.864 2.567-1.428 2.86-2.552.575-2.2 1.167-4.163 1.25-7.758.085-3.988-1.022-5.855-1.557-7.008-.382-.825-1.378-1.996-1.628-2.335-.247-.332-.44-.64-.043-1.096.396-.454 2.228-2.114 3.492-4.199 1.26-2.081 2.424-4.662 3.223-8.414 1.057-4.96 1.175-9.183 1.443-14.61.003-.067-5.702 3.785-9.126 9.797-2.816 4.959-2.902 8.536-3.048 10.796-.083 1.257-.097 3.377-.158 3.877-.05.425-.139.907-.842.204-.703-.707-1.321-1.589-3.93-5.284-2.61-3.695-4.692-6.37-7.07-8.975-3.373-3.695-5.455-5.252-6.922-6.22-1.467-.967-2.228-1.406-3.752-2.377a34.189 34.189 0 0 1-2.985-2.167zm10.835 32.81a2.413 2.413 0 1 1 4.828-.001 2.413 2.413 0 0 1-4.828 0zm7.972 17.46l-3.33 2.025c-.072.043-.104.053-.218.043a82.62 82.62 0 0 1-1.103-.132s-3.913-2.125-4.017-2.167c-.103-.047-.16-.047-.175.128-.014.179.072 1.689.132 2.553.058.867.218 1.892.293 2.128.075.235.11.435.236.6.075.106.132.089.218.046.089-.047 3.27-1.482 3.27-1.482l1.003.057s3.499 3.038 3.691 3.2c.19.16.265.042.265-.104 0-.147-.132-2.039-.147-3.242-.014-1.203 0-3.195.015-3.474.014-.282-.133-.178-.133-.178zm1.746 2.632l-.114 1.856 9.704-2.402s.264-.764.353-1.293c.086-.528.132-1.128.132-1.128l-10.075 2.967z" fill-rule="evenodd"/></svg>