<?xml version="1.0" encoding="UTF-8"?>
<svg width="1760px" height="871px" viewBox="0 0 1760 871" version="1.1" xmlns="http://www.w3.org/2000/svg" xmlns:xlink="http://www.w3.org/1999/xlink"><script xmlns="" type="text/javascript" charset="utf-8" id="zm-extension"/>
    <!-- Generator: Sketch 51 (57462) - http://www.bohemiancoding.com/sketch -->
    <title>Group 32</title>
    <desc>Created with Sketch.</desc>
    <defs/>
    <g id="Page-1" stroke="none" stroke-width="1" fill="none" fill-rule="evenodd">
        <g id="Mobile_1920" transform="translate(-117.000000, -2016.000000)">
            <rect fill="#FFFFFF" x="0" y="0" width="1920" height="4985"/>
            <g id="Group-32" transform="translate(117.000000, 2016.000000)">
                <rect id="Rectangle-10" fill="#DAF3FF" transform="translate(1389.020815, 84.020815) rotate(45.000000) translate(-1389.020815, -84.020815) " x="1380.52082" y="75.5208153" width="17" height="17"/>
                <rect id="Rectangle-10-Copy-8" fill="#DAF3FF" transform="translate(1748.313708, 594.313708) rotate(45.000000) translate(-1748.313708, -594.313708) " x="1740.31371" y="586.313708" width="16" height="16"/>
                <rect id="Rectangle-10-Copy-7" fill="#DAF3FF" transform="translate(108.020815, 440.020815) rotate(45.000000) translate(-108.020815, -440.020815) " x="99.5208153" y="431.520815" width="17" height="17"/>
                <rect id="Rectangle-10-Copy-5" fill="#DAF3FF" transform="translate(1719.677670, 17.677670) rotate(45.000000) translate(-1719.677670, -17.677670) " x="1707.17767" y="5.17766953" width="25" height="25"/>
                <rect id="Rectangle-10-Copy-3" fill="#DAF3FF" transform="translate(29.313708, 35.313708) rotate(45.000000) translate(-29.313708, -35.313708) " x="21.3137085" y="27.3137085" width="16" height="16"/>
                <rect id="Rectangle-10-Copy" stroke="#36ADE8" transform="translate(1635.020815, 316.020815) rotate(45.000000) translate(-1635.020815, -316.020815) " x="1627.02082" y="308.020815" width="16" height="16"/>
                <rect id="Rectangle-10-Copy-4" stroke="#36ADE8" transform="translate(53.020815, 822.020815) rotate(45.000000) translate(-53.020815, -822.020815) " x="45.0208153" y="814.020815" width="16" height="16"/>
                <rect id="Rectangle-10-Copy-2" stroke="#36ADE8" transform="translate(18.384776, 28.384776) rotate(45.000000) translate(-18.384776, -28.384776) " x="5.88477631" y="15.8847763" width="25" height="25"/>
                <rect id="Rectangle-10-Copy-9" stroke="#36ADE8" transform="translate(479.384776, 114.384776) rotate(45.000000) translate(-479.384776, -114.384776) " x="466.884776" y="101.884776" width="25" height="25"/>
                <rect id="Rectangle-10-Copy-6" stroke="#36ADE8" transform="translate(1665.384776, 852.384776) rotate(45.000000) translate(-1665.384776, -852.384776) " x="1652.88478" y="839.884776" width="25" height="25"/>
            </g>
        </g>
    </g>
</svg>