<?xml version="1.0" encoding="UTF-8"?>
<svg width="1102px" height="310px" viewBox="0 0 1102 310" version="1.1" xmlns="http://www.w3.org/2000/svg" xmlns:xlink="http://www.w3.org/1999/xlink"><script xmlns="" type="text/javascript" charset="utf-8" id="zm-extension"/>
    <!-- Generator: Sketch 50.2 (55047) - http://www.bohemiancoding.com/sketch -->
    <title>Group 14</title>
    <desc>Created with Sketch.</desc>
    <defs/>
    <g id="Page-1" stroke="none" stroke-width="1" fill="none" fill-rule="evenodd">
        <g id="Mobile_1440" transform="translate(-177.000000, -3942.000000)">
            <g id="Group-14" transform="translate(177.000000, 3942.000000)">
                <path d="M193,37.727014 L184.68875,46.5 L193,55.272986 L201.31125,46.5 L193,37.727014 Z" id="Rectangle-11-Copy-26" stroke="#FFFFFF" fill-opacity="0.25" fill="#FFFFFF"/>
                <polygon id="Rectangle-11-Copy-29" fill-opacity="0.25" fill="#FFFFFF" points="349 196 358 205.5 349 215 340 205.5"/>
                <polygon id="Rectangle-11-Copy-30" fill-opacity="0.25" fill="#FFFFFF" points="790 177 799 186.5 790 196 781 186.5"/>
                <polygon id="Rectangle-11-Copy-32" fill-opacity="0.25" fill="#FFFFFF" points="190 285 202 297.5 190 310 178 297.5"/>
                <polygon id="Rectangle-11-Copy-33" fill-opacity="0.25" fill="#FFFFFF" points="852 0 864 12.5 852 25 840 12.5"/>
                <path d="M103,177.727014 L94.6887501,186.5 L103,195.272986 L111.31125,186.5 L103,177.727014 Z" id="Rectangle-11-Copy-34" stroke="#FFFFFF"/>
                <path d="M906,285.727014 L897.68875,294.5 L906,303.272986 L914.31125,294.5 L906,285.727014 Z" id="Rectangle-11-Copy-35" stroke="#FFFFFF"/>
                <polygon id="Rectangle-11-Copy-28" fill-opacity="0.25" fill="#FFFFFF" points="9 13 18 22.5 9 32 -7.10542736e-13 22.5"/>
                <path d="M1054,93.727014 L1045.68875,102.5 L1054,111.272986 L1062.31125,102.5 L1054,93.727014 Z" id="Rectangle-11-Copy-27" stroke="#FFFFFF" fill-opacity="0.25" fill="#FFFFFF"/>
                <polygon id="Rectangle-11-Copy-31" fill-opacity="0.25" fill="#FFFFFF" points="1093 256 1102 265.5 1093 275 1084 265.5"/>
            </g>
        </g>
    </g>
</svg>