<?xml version="1.0" encoding="UTF-8"?>
<svg width="693px" height="362px" viewBox="0 0 693 362" version="1.1" xmlns="http://www.w3.org/2000/svg" xmlns:xlink="http://www.w3.org/1999/xlink"><script xmlns="" type="text/javascript" charset="utf-8" id="zm-extension"/>
    <!-- Generator: Sketch 50.2 (55047) - http://www.bohemiancoding.com/sketch -->
    <title>Group 27</title>
    <desc>Created with Sketch.</desc>
    <defs/>
    <g id="Page-1" stroke="none" stroke-width="1" fill="none" fill-rule="evenodd">
        <g id="Mobile_768" transform="translate(-48.000000, -4239.000000)">
            <g id="Group-27" transform="translate(48.000000, 4239.000000)">
                <path d="M613,215.727014 L604.68875,224.5 L613,233.272986 L621.31125,224.5 L613,215.727014 Z" id="Rectangle-11-Copy-36" stroke="#FFFFFF" fill-opacity="0.25" fill="#FFFFFF"/>
                <g id="Group-25">
                    <polygon id="Rectangle-11-Copy-36" fill-opacity="0.25" fill="#FFFFFF" points="681 0 693 12.5 681 25 669 12.5"/>
                    <polygon id="Rectangle-11-Copy-36" fill-opacity="0.25" fill="#FFFFFF" points="140 247 149 256.5 140 266 131 256.5"/>
                    <polygon id="Rectangle-11-Copy-36" fill-opacity="0.25" fill="#FFFFFF" points="9 325 18 334.5 9 344 0 334.5"/>
                    <polygon id="Rectangle-11-Copy-36" fill-opacity="0.25" fill="#FFFFFF" points="640 336 652 348.5 640 361 628 348.5"/>
                    <path d="M54,1.72701402 L45.6887501,10.5 L54,19.272986 L62.3112499,10.5 L54,1.72701402 Z" id="Rectangle-11-Copy-36" stroke="#FFFFFF"/>
                    <path d="M357,343.727014 L348.68875,352.5 L357,361.272986 L365.31125,352.5 L357,343.727014 Z" id="Rectangle-11-Copy-36" stroke="#FFFFFF" fill-opacity="0.25" fill="#FFFFFF"/>
                    <polygon id="Rectangle-11-Copy-36" fill-opacity="0.25" fill="#FFFFFF" points="348 13 357 22.5 348 32 339 22.5"/>
                </g>
            </g>
        </g>
    </g>
</svg>