<?xml version="1.0" encoding="UTF-8"?>
<svg width="51px" height="64px" viewBox="0 0 51 64" version="1.1" xmlns="http://www.w3.org/2000/svg" xmlns:xlink="http://www.w3.org/1999/xlink"><script xmlns="" type="text/javascript" charset="utf-8" id="zm-extension"/>
    <!-- Generator: Sketch 49 (51002) - http://www.bohemiancoding.com/sketch -->
    <title>Page 1</title>
    <desc>Created with Sketch.</desc>
    <defs/>
    <g id="Page-1" stroke="none" stroke-width="1" fill="none" fill-rule="evenodd" stroke-linecap="round" stroke-linejoin="round">
        <g id="Artboard-6-Copy-3" transform="translate(-1149.000000, -10601.000000)" stroke="#CF2323">
            <g id="Group-15" transform="translate(583.000000, 10366.000000)">
                <g id="Page-1" transform="translate(566.000000, 235.000000)">
                    <path d="M1.739,25.2636 L6.189,25.2636 C6.687,25.2636 7.132,24.9516 7.301,24.4836 L9.165,19.3216 C9.542,18.2766 11.02,18.2816 11.391,19.3276 L12.654,22.8926 C12.988,23.8356 14.269,23.9636 14.782,23.1046 L15.117,22.5436 C15.59,21.7516 16.747,21.7826 17.177,22.5976 L17.525,23.2556 C17.971,24.1016 19.185,24.0956 19.622,23.2446 L19.844,22.8116 C20.287,21.9506 21.52,21.9576 21.953,22.8236 C22.416,23.7486 23.76,23.6756 24.119,22.7046 L27.543,13.4466 C27.929,12.3996 29.417,12.4216 29.772,13.4796 L33.462,24.4576 C33.624,24.9396 34.075,25.2636 34.583,25.2636 L47.813,25.2636" id="Stroke-1"/>
                    <path d="M4.6463,20.9189 C4.6463,11.9329 11.9323,4.6469 20.9193,4.6469 C29.9063,4.6469 37.1923,11.9329 37.1923,20.9189" id="Stroke-3"/>
                    <path d="M35.0457,29.0028 C32.2397,33.8968 26.9647,37.1918 20.9197,37.1918 C14.5407,37.1918 9.0187,33.5218 6.3507,28.1768" id="Stroke-5"/>
                    <path d="M0.4998,20.9189 C0.4998,9.6429 9.6418,0.4999 20.9188,0.4999 C32.1968,0.4999 41.3388,9.6429 41.3388,20.9189" id="Stroke-7"/>
                    <path d="M38.6453,31.0624 C35.1243,37.2024 28.5043,41.3384 20.9193,41.3384 C12.9153,41.3384 5.9853,36.7324 2.6383,30.0264" id="Stroke-9"/>
                    <path d="M48.7786,62.8632 C47.2586,63.8282 45.2436,63.3782 44.2786,61.8582 L29.8776,39.1772 L35.3816,35.6822 L49.7826,58.3632 C50.7476,59.8832 50.2986,61.8972 48.7786,62.8632 Z" id="Stroke-11"/>
                </g>
            </g>
        </g>
    </g>
</svg>