<?xml version="1.0" encoding="UTF-8"?>
<svg width="132px" height="132px" viewBox="0 0 132 132" version="1.1" xmlns="http://www.w3.org/2000/svg" xmlns:xlink="http://www.w3.org/1999/xlink"><script xmlns="" type="text/javascript" charset="utf-8" id="zm-extension"/>
    <!-- Generator: Sketch 49 (51002) - http://www.bohemiancoding.com/sketch -->
    <title>Group 9 Copy</title>
    <desc>Created with Sketch.</desc>
    <defs/>
    <g id="Page-1" stroke="none" stroke-width="1" fill="none" fill-rule="evenodd">
        <g id="Artboard-6-Copy-3" transform="translate(-486.000000, -4262.000000)">
            <g id="Group-8" transform="translate(454.000000, 4263.000000)">
                <g id="Group-9-Copy" transform="translate(33.000000, 0.000000)">
                    <g id="Page-1" transform="translate(25.000000, 25.000000)">
                        <path d="M80,40 C80,41.38 78.88,42.5 77.5,42.5 C76.12,42.5 75,41.38 75,40 C75,38.62 76.12,37.5 77.5,37.5 C78.88,37.5 80,38.62 80,40" id="Fill-3" fill="#CF2323"/>
                        <path d="M2.5,42.5 C1.12,42.5 0,41.38 0,40 C0,38.62 1.12,37.5 2.5,37.5 C3.88,37.5 5,38.62 5,40 C5,41.38 3.88,42.5 2.5,42.5 Z" id="Fill-5" fill="#CF2323"/>
                        <path d="M0.885625,-0.00025 C0.885625,22.1735 18.368125,40.14975 39.935625,40.14975 C61.501875,40.14975 78.984375,58.12475 78.984375,80.2985" id="Stroke-7" stroke="#CF2323"/>
                        <path d="M2.53432914,40.1811961 L77.7149163,40.1811961" id="Path-5" stroke="#CF2323"/>
                        <polygon id="Fill-9" fill="#FFFFFF" points="37.6575 41.981 42.0425 41.981 42.0425 37.59475 37.6575 37.59475"/>
                        <path d="M37.5,43.13625 L43.135,43.13625 L43.135,37.5 L37.5,37.5 L37.5,43.13625 Z M38.75,41.885 L41.885,41.885 L41.885,38.74875 L38.75,38.74875 L38.75,41.885 Z" id="Fill-11" fill="#CF2323"/>
                    </g>
                    <circle id="Oval" stroke="#DA5252" cx="65" cy="65" r="65"/>
                </g>
            </g>
        </g>
    </g>
</svg>