<?xml version="1.0" encoding="UTF-8"?>
<svg width="57px" height="68px" viewBox="0 0 57 68" version="1.1" xmlns="http://www.w3.org/2000/svg" xmlns:xlink="http://www.w3.org/1999/xlink"><script xmlns="" type="text/javascript" charset="utf-8" id="zm-extension"/>
    <!-- Generator: Sketch 49 (51002) - http://www.bohemiancoding.com/sketch -->
    <title>Android icon</title>
    <desc>Created with Sketch.</desc>
    <defs/>
    <g id="Page-1" stroke="none" stroke-width="1" fill="none" fill-rule="evenodd">
        <g id="Apple-TV" transform="translate(-932.000000, -4775.000000)">
            <g id="Fifth" transform="translate(0.000000, 4076.000000)">
                <g id="Group-7" transform="translate(477.000000, 473.000000)">
                    <g id="Android-icon" transform="translate(455.000000, 226.000000)">
                        <path d="M10,51.0765 C10,52.5755 11.214,53.7925 12.713,53.7925 L17.607,53.7925 L17.607,63.2685 C17.607,65.4525 19.375,67.2225 21.556,67.2225 C23.745,67.2225 25.516,65.4515 25.516,63.2685 L25.516,53.7925 L31.319,53.7925 L31.319,63.2685 C31.319,65.4525 33.091,67.2225 35.273,67.2225 C37.46,67.2225 39.23,65.4515 39.23,63.2685 L39.23,53.7925 L44.113,53.7925 C45.615,53.7925 46.824,52.5755 46.824,51.0765 L46.824,23.0225 C37.433,22.9925 18.231,22.9925 10,23.0225 L10,51.0765 Z" id="Fill-1" fill="#00B660"/>
                        <path d="M10,23.0225 L10,51.0765 C10,52.5755 11.214,53.7925 12.713,53.7925 L17.607,53.7925 L17.607,63.2685 C17.607,65.4525 19.375,67.2225 21.556,67.2225 C23.745,67.2225 25.516,65.4515 25.516,63.2685 L25.516,53.7925 L31.319,53.7925 L31.319,63.2685 C31.319,65.4525 33.091,67.2225 35.273,67.2225 C37.46,67.2225 39.23,65.4515 39.23,63.2685 L39.23,53.7925 L44.113,53.7925 C45.615,53.7925 46.824,52.5755 46.824,51.0765 L46.824,23.0225 C37.433,22.9925 18.231,22.9925 10,23.0225" id="Fill-1-Copy" stroke="#09B5AE" stroke-width="0.5"/>
                        <path d="M52.958,22 C50.77,22 49,23.766 49,25.952 L49,43.253 C49,45.437 50.772,47.206 52.958,47.206 C55.145,47.206 56.912,45.435 56.912,43.253 L56.912,25.952 C56.912,23.766 55.143,22 52.958,22" id="Fill-4" fill-opacity="0.300000012" fill="#09B5AE"/>
                        <path d="M52.958,22 C50.77,22 49,23.766 49,25.952 L49,43.253 C49,45.437 50.772,47.206 52.958,47.206 C55.145,47.206 56.912,45.435 56.912,43.253 L56.912,25.952 C56.912,23.766 55.143,22 52.958,22" id="Fill-4-Copy" fill="#00B660"/>
                        <path d="M3.957,22 C1.768,22 0,23.766 0,25.952 L0,43.253 C0,45.437 1.769,47.206 3.957,47.206 C6.136,47.206 7.909,45.435 7.909,43.253 L7.909,25.952 C7.909,23.766 6.136,22 3.957,22" id="Fill-7" fill-opacity="0.300000012" fill="#09B5AE"/>
                        <path d="M3.957,22 C1.768,22 0,23.766 0,25.952 L0,43.253 C0,45.437 1.769,47.206 3.957,47.206 C6.136,47.206 7.909,45.435 7.909,43.253 L7.909,25.952 C7.909,23.766 6.136,22 3.957,22" id="Fill-7-Copy" fill="#00B660"/>
                        <path d="M37.019,14.1783095 C36.164,14.1783095 35.471,13.4883095 35.471,12.6333095 C35.471,11.7813095 36.164,11.0913095 37.019,11.0913095 C37.876,11.0913095 38.564,11.7813095 38.564,12.6333095 C38.564,13.4883095 37.877,14.1783095 37.019,14.1783095 M20.206,14.1783095 C19.348,14.1783095 18.655,13.4883095 18.655,12.6333095 C18.655,11.7813095 19.348,11.0913095 20.206,11.0913095 C21.055,11.0913095 21.748,11.7813095 21.748,12.6333095 C21.748,13.4883095 21.055,14.1783095 20.206,14.1783095 M37.514,6.31530954 L40.621,0.936309537 C40.793,0.639309537 40.691,0.256309537 40.39,0.0853095365 C40.094,-0.0906904635 39.71,0.0153095365 39.538,0.314309537 L36.397,5.75130954 C34.023,4.65230954 31.381,4.03730954 28.596,4.03730954 C25.747,4.03730954 23.047,4.68030954 20.63,5.82830954 L17.849,0.405309537 C17.691,0.0973095365 17.314,-0.0246904635 17.008,0.133309537 C16.703,0.292309537 16.577,0.665309537 16.734,0.974309537 L19.52,6.40330954 C14.359,9.29530954 10.697,14.5773095 10,20.7633095 L47.189,20.7633095 C46.488,14.5143095 42.759,9.18830954 37.514,6.31530954" id="Fill-10" fill-opacity="0.300000012" fill="#09B5AE"/>
                        <path d="M37.019,14.1783095 C36.164,14.1783095 35.471,13.4883095 35.471,12.6333095 C35.471,11.7813095 36.164,11.0913095 37.019,11.0913095 C37.876,11.0913095 38.564,11.7813095 38.564,12.6333095 C38.564,13.4883095 37.877,14.1783095 37.019,14.1783095 M20.206,14.1783095 C19.348,14.1783095 18.655,13.4883095 18.655,12.6333095 C18.655,11.7813095 19.348,11.0913095 20.206,11.0913095 C21.055,11.0913095 21.748,11.7813095 21.748,12.6333095 C21.748,13.4883095 21.055,14.1783095 20.206,14.1783095 M37.514,6.31530954 L40.621,0.936309537 C40.793,0.639309537 40.691,0.256309537 40.39,0.0853095365 C40.094,-0.0906904635 39.71,0.0153095365 39.538,0.314309537 L36.397,5.75130954 C34.023,4.65230954 31.381,4.03730954 28.596,4.03730954 C25.747,4.03730954 23.047,4.68030954 20.63,5.82830954 L17.849,0.405309537 C17.691,0.0973095365 17.314,-0.0246904635 17.008,0.133309537 C16.703,0.292309537 16.577,0.665309537 16.734,0.974309537 L19.52,6.40330954 C14.359,9.29530954 10.697,14.5773095 10,20.7633095 L47.189,20.7633095 C46.488,14.5143095 42.759,9.18830954 37.514,6.31530954" id="Fill-10-Copy" fill="#00B660"/>
                    </g>
                </g>
            </g>
        </g>
    </g>
</svg>