<?xml version="1.0" encoding="UTF-8"?>
<svg width="1348px" height="335px" viewBox="0 0 1348 335" version="1.1" xmlns="http://www.w3.org/2000/svg" xmlns:xlink="http://www.w3.org/1999/xlink"><script xmlns="" type="text/javascript" charset="utf-8" id="zm-extension"/>
    <!-- Generator: sketchtool 50.2 (55047) - http://www.bohemiancoding.com/sketch -->
    <title>5F518AA1-499B-4BA7-8254-26FF4DCC490A</title>
    <desc>Created with sketchtool.</desc>
    <defs/>
    <g id="Page-1" stroke="none" stroke-width="1" fill="none" fill-rule="evenodd">
        <g id="CRM" transform="translate(-45.000000, -4981.000000)">
            <g id="Group-21" transform="translate(0.000000, 4927.000000)">
                <g id="Group-17">
                    <g id="Group" transform="translate(46.000000, 54.000000)">
                        <path d="M1163.12,27.9981671 L1140.72,50.3967007 C1139.6,51.5166274 1137.76,51.5166274 1136.64,50.3967007 L1114.24,27.9981671 C1113.12,26.8782404 1113.12,25.0383608 1114.24,23.9184341 L1136.64,1.5199005 C1137.76,0.399973815 1139.6,0.399973815 1140.72,1.5199005 L1163.12,23.9184341 C1164.24,25.0383608 1164.24,26.8782404 1163.12,27.9981671 Z" id="Shape" fill="#00CAEC" fill-rule="nonzero" opacity="0.15"/>
                        <path d="M1151.52,26.318277 L1138.96,38.8774548 C1138.8,39.0374444 1138.48,39.0374444 1138.24,38.8774548 L1125.68,26.318277 C1125.52,26.1582875 1125.52,25.8383085 1125.68,25.5983242 L1138.24,13.0391464 C1138.4,12.8791568 1138.72,12.8791568 1138.96,13.0391464 L1151.52,25.5983242 C1151.76,25.7583137 1151.76,26.0782927 1151.52,26.318277 Z" id="Shape" fill="#00CAEC" fill-rule="nonzero" opacity="0.61"/>
                        <path d="M1139.76,25.8383085 L1122.24,43.3571616 C1121.76,43.8371301 1120.88,43.8371301 1120.4,43.3571616 L1102.88,25.8383085 C1102.4,25.3583399 1102.4,24.4783975 1102.88,23.9984289 L1120.4,6.47957581 C1120.88,5.99960723 1121.76,5.99960723 1122.24,6.47957581 L1139.76,23.9984289 C1140.24,24.5583922 1140.24,25.3583399 1139.76,25.8383085 Z" id="Shape" fill="#00CAEC" fill-rule="nonzero" opacity="0.25"/>
                        <path d="M163.44,272.302173 L194.56,241.184211 C195.68,240.064284 197.52,240.064284 198.64,241.184211 L229.76,272.302173 C230.88,273.4221 230.88,275.26198 229.76,276.381906 L198.64,307.499869 C197.52,308.619796 195.68,308.619796 194.56,307.499869 L163.44,276.381906 C162.24,275.26198 162.24,273.4221 163.44,272.302173 Z" id="Shape" fill="#00CAEC" fill-rule="nonzero" opacity="0.15"/>
                        <path d="M179.36,273.982063 L196.32,257.023174 C196.48,256.863184 196.8,256.863184 197.04,257.023174 L214,273.982063 C214.16,274.142053 214.16,274.462032 214,274.702016 L197.04,291.660906 C196.88,291.820896 196.56,291.820896 196.32,291.660906 L179.36,274.702016 C179.12,274.462032 179.12,274.142053 179.36,273.982063 Z" id="Shape" fill="#00CAEC" fill-rule="nonzero" opacity="0.61"/>
                        <path d="M194.8,274.782011 L218.72,250.863577 C219.2,250.383608 220.08,250.383608 220.56,250.863577 L244.48,274.782011 C244.96,275.26198 244.96,276.141922 244.48,276.621891 L220.56,300.540325 C220.08,301.020293 219.2,301.020293 218.72,300.540325 L194.8,276.621891 C194.32,276.061927 194.32,275.26198 194.8,274.782011 Z" id="Shape" fill="#00CAEC" fill-rule="nonzero" opacity="0.25"/>
                        <path d="M68.72,73.1952082 L81.52,60.3960461 C81.68,60.2360566 82,60.2360566 82.24,60.3960461 L95.04,73.1952082 C95.2,73.3551977 95.2,73.6751767 95.04,73.915161 L82.24,86.7143231 C82.08,86.8743126 81.76,86.8743126 81.52,86.7143231 L68.72,73.915161 C68.56,73.7551715 68.56,73.4351925 68.72,73.1952082 Z" id="Shape" fill="#00CAEC" fill-rule="nonzero" opacity="0.61"/>
                        <path d="M1215.28,158.309636 L1228.08,145.510474 C1228.24,145.350484 1228.56,145.350484 1228.8,145.510474 L1241.6,158.309636 C1241.76,158.469626 1241.76,158.789605 1241.6,159.029589 L1228.8,171.828751 C1228.64,171.988741 1228.32,171.988741 1228.08,171.828751 L1215.28,159.029589 C1215.04,158.869599 1215.04,158.54962 1215.28,158.309636 Z" id="Shape" fill="#00CAEC" fill-rule="nonzero" opacity="0.61"/>
                        <path d="M80.72,73.6751767 L98.64,55.7563498 C99.12,55.2763813 100,55.2763813 100.48,55.7563498 L118.4,73.6751767 C118.88,74.1551453 118.88,75.0350877 118.4,75.5150563 L100.48,93.4338832 C100,93.9138518 99.12,93.9138518 98.64,93.4338832 L80.72,75.5150563 C80.24,75.0350877 80.24,74.2351401 80.72,73.6751767 Z" id="Shape" fill="#00CAEC" fill-rule="nonzero" opacity="0.25"/>
                        <path d="M479.52,51.0366588 L495.44,35.117701 C495.92,34.6377324 496.8,34.6377324 497.28,35.117701 L513.2,51.0366588 C513.68,51.5166274 513.68,52.3965698 513.2,52.8765384 L497.28,68.7954962 C496.8,69.2754648 495.92,69.2754648 495.44,68.7954962 L479.52,52.8765384 C479.04,52.316575 479.04,51.5166274 479.52,51.0366588 Z" id="Shape" fill="#00CAEC" fill-rule="nonzero" opacity="0.25"/>
                        <path d="M997.44,257.583137 L1013.36,241.664179 C1013.84,241.184211 1014.72,241.184211 1015.2,241.664179 L1031.12,257.583137 C1031.6,258.063106 1031.6,258.943048 1031.12,259.423016 L1015.2,275.341974 C1014.72,275.821943 1013.84,275.821943 1013.36,275.341974 L997.44,259.423016 C996.96,258.943048 996.96,258.063106 997.44,257.583137 Z" id="Shape" fill="#00CAEC" fill-rule="nonzero" opacity="0.25"/>
                        <path d="M429.44,13.519115 L439.68,3.27978528 C440.16,2.79981671 441.04,2.79981671 441.52,3.27978528 L451.76,13.519115 C452.24,13.9990835 452.24,14.8790259 451.76,15.3589945 L441.52,25.5983242 C441.04,26.0782927 440.16,26.0782927 439.68,25.5983242 L429.44,15.3589945 C428.96,14.7990312 428.96,13.9990835 429.44,13.519115 Z" id="Shape" stroke="#00CAEC" stroke-width="0.8" opacity="0.61"/>
                        <path d="M1323.92,322.138911 L1334.16,311.899581 C1334.64,311.419612 1335.52,311.419612 1336,311.899581 L1346.24,322.138911 C1346.72,322.618879 1346.72,323.498822 1346.24,323.97879 L1336,334.21812 C1335.52,334.698089 1334.64,334.698089 1334.16,334.21812 L1323.92,323.97879 C1323.44,323.418827 1323.44,322.618879 1323.92,322.138911 Z" id="Shape" stroke="#00CAEC" stroke-width="0.8" opacity="0.61"/>
                        <path d="M281.92,169.348913 L292.16,159.109584 C292.64,158.629615 293.52,158.629615 294,159.109584 L304.24,169.348913 C304.72,169.828882 304.72,170.708824 304.24,171.188793 L294,181.428123 C293.52,181.908091 292.64,181.908091 292.16,181.428123 L281.92,171.188793 C281.36,170.62883 281.36,169.828882 281.92,169.348913 Z" id="Shape" stroke="#00CAEC" stroke-width="0.8" opacity="0.61"/>
                        <path d="M1017.68,264.542681 L1033.6,248.623723 C1034.08,248.143755 1034.96,248.143755 1035.44,248.623723 L1051.36,264.542681 C1051.84,265.02265 1051.84,265.902592 1051.36,266.382561 L1035.44,282.301519 C1034.96,282.781487 1034.08,282.781487 1033.6,282.301519 L1017.68,266.382561 C1017.12,265.822598 1017.12,265.02265 1017.68,264.542681 Z" id="Shape" stroke="#00CAEC" stroke-width="0.8" opacity="0.61"/>
                        <path d="M861.6,54.9564022 L887.92,28.6381252 C888.4,28.1581566 889.28,28.1581566 889.76,28.6381252 L916.08,54.9564022 C916.56,55.4363708 916.56,56.3163132 916.08,56.7962817 L889.76,83.1145588 C889.28,83.5945274 888.4,83.5945274 887.92,83.1145588 L861.6,56.7962817 C861.12,56.2363184 861.12,55.4363708 861.6,54.9564022 Z" id="Shape" stroke="#00CAEC" stroke-width="0.8" opacity="0.61"/>
                        <path d="M0.72,233.104739 L17.76,216.065855 C18.24,215.585886 19.12,215.585886 19.6,216.065855 L36.64,233.104739 C37.12,233.584708 37.12,234.46465 36.64,234.944619 L19.6,251.983504 C19.12,252.463472 18.24,252.463472 17.76,251.983504 L0.72,234.944619 C0.24,234.46465 0.24,233.584708 0.72,233.104739 Z" id="Shape" stroke="#00CAEC" stroke-width="0.8" opacity="0.61"/>
                    </g>
                </g>
            </g>
        </g>
    </g>
</svg>