<?xml version="1.0" encoding="UTF-8"?>
<svg width="65px" height="59px" viewBox="0 0 65 59" version="1.1" xmlns="http://www.w3.org/2000/svg" xmlns:xlink="http://www.w3.org/1999/xlink"><script xmlns="" type="text/javascript" charset="utf-8" id="zm-extension"/>
    <!-- Generator: Sketch 49 (51002) - http://www.bohemiancoding.com/sketch -->
    <title>Page 1</title>
    <desc>Created with Sketch.</desc>
    <defs/>
    <g id="Page-1" stroke="none" stroke-width="1" fill="none" fill-rule="evenodd">
        <g id="Artboard-6-Copy-3" transform="translate(-1142.000000, -10372.000000)">
            <g id="Group-15" transform="translate(583.000000, 10366.000000)">
                <g id="Page-1" transform="translate(560.000000, 7.000000)">
                    <path d="M36.145,43.3489 L2.499,43.3489 C1.395,43.3489 0.499,42.4529 0.499,41.3489 L0.499,2.4999 C0.499,1.3959 1.395,0.4999 2.499,0.4999 L54.971,0.4999 C56.076,0.4999 56.971,1.3959 56.971,2.4999 L56.971,30.5359" id="Stroke-1" stroke="#CF2323" stroke-linecap="round" stroke-linejoin="round"/>
                    <path d="M51.1636,31.7219 C44.1456,31.7219 38.4566,37.4109 38.4566,44.4289 C38.4566,51.4469 44.1456,57.1359 51.1636,57.1359 C58.1816,57.1359 63.8706,51.4469 63.8706,44.4289 C63.8706,37.4109 58.1816,31.7219 51.1636,31.7219 M51.1636,32.7219 C57.6186,32.7219 62.8706,37.9739 62.8706,44.4289 C62.8706,50.8839 57.6186,56.1359 51.1636,56.1359 C44.7086,56.1359 39.4566,50.8839 39.4566,44.4289 C39.4566,37.9739 44.7086,32.7219 51.1636,32.7219" id="Fill-3" fill="#CF2323"/>
                    <path d="M28.7359,7.9065 C24.6429,7.9065 21.3259,11.2235 21.3259,15.3165 C21.3259,19.4085 24.6429,22.7255 28.7359,22.7255 C32.8279,22.7255 36.1449,19.4085 36.1449,15.3165 C36.1449,11.2235 32.8279,7.9065 28.7359,7.9065 M28.7359,8.9065 C32.2699,8.9065 35.1449,11.7815 35.1449,15.3165 C35.1449,18.8505 32.2699,21.7255 28.7359,21.7255 C25.2019,21.7255 22.3259,18.8505 22.3259,15.3165 C22.3259,11.7815 25.2019,8.9065 28.7359,8.9065" id="Fill-5" fill="#CF2323"/>
                    <path d="M37.8784,39.3948 L15.9234,39.3948 C15.9234,31.4048 21.6594,24.9278 28.7354,24.9278 C34.2614,24.9278 38.9694,28.8768 40.7684,34.4128" id="Stroke-7" stroke="#CF2323" stroke-linecap="round" stroke-linejoin="round"/>
                    <polyline id="Stroke-9" stroke="#CF2323" stroke-linecap="round" stroke-linejoin="round" points="44.3765 45.009 50.1685 49.731 57.9505 39.127"/>
                </g>
            </g>
        </g>
    </g>
</svg>