<?xml version="1.0" encoding="UTF-8"?>
<svg width="132px" height="132px" viewBox="0 0 132 132" version="1.1" xmlns="http://www.w3.org/2000/svg" xmlns:xlink="http://www.w3.org/1999/xlink"><script xmlns="" type="text/javascript" charset="utf-8" id="zm-extension"/>
    <!-- Generator: Sketch 49 (51002) - http://www.bohemiancoding.com/sketch -->
    <title>Group 8 Copy</title>
    <desc>Created with Sketch.</desc>
    <defs/>
    <g id="Page-1" stroke="none" stroke-width="1" fill="none" fill-rule="evenodd">
        <g id="Artboard-6-Copy-3" transform="translate(-505.000000, -4624.000000)">
            <g id="Group-9" transform="translate(406.000000, 4625.000000)">
                <g id="Group-8-Copy" transform="translate(100.000000, 0.000000)">
                    <g id="Page-1" transform="translate(25.000000, 35.000000)">
                        <polyline id="Stroke-1" stroke="#CF2323" points="0.551625 59.064625 19.601625 23.222125 48.201625 35.097125 77.979125 1.029625"/>
                        <polygon id="Fill-3" fill="#CF2323" points="78.881625 -0.000375 71.337875 0.782125 71.469125 2.039625 77.660375 1.395875 77.851625 7.617125 79.112875 7.577125"/>
                        <g id="Group-12" transform="translate(16.250000, 19.358000)">
                            <path d="M3.352,6.10925 C2.14325,6.10925 1.1595,5.1255 1.1595,3.91675 C1.1595,2.70675 2.14325,1.72425 3.352,1.72425 C4.56075,1.72425 5.5445,2.70675 5.5445,3.91675 C5.5445,5.1255 4.56075,6.10925 3.352,6.10925" id="Fill-4" fill="#FFFFFF"/>
                            <path d="M3.352,1.098875 C1.79575,1.098875 0.5345,2.360125 0.5345,3.916375 C0.5345,5.472625 1.79575,6.733875 3.352,6.733875 C4.90825,6.733875 6.1695,5.472625 6.1695,3.916375 C6.1695,2.360125 4.90825,1.098875 3.352,1.098875 M3.352,2.348875 C4.217,2.348875 4.9195,3.051375 4.9195,3.916375 C4.9195,4.781375 4.217,5.483875 3.352,5.483875 C2.48825,5.483875 1.7845,4.781375 1.7845,3.916375 C1.7845,3.051375 2.48825,2.348875 3.352,2.348875" id="Fill-6" fill="#CF2323"/>
                            <path d="M31.7425,17.411125 C30.53375,17.411125 29.55,16.427375 29.55,15.218625 C29.55,14.009875 30.53375,13.026125 31.7425,13.026125 C32.9525,13.026125 33.93625,14.009875 33.93625,15.218625 C33.93625,16.427375 32.9525,17.411125 31.7425,17.411125" id="Fill-8" fill="#FFFFFF"/>
                            <path d="M31.7425,12.40075 C30.18625,12.40075 28.925,13.662 28.925,15.21825 C28.925,16.7745 30.18625,18.03575 31.7425,18.03575 C33.29875,18.03575 34.56125,16.7745 34.56125,15.21825 C34.56125,13.662 33.29875,12.40075 31.7425,12.40075 M31.7425,13.65075 C32.60625,13.65075 33.31125,14.35325 33.31125,15.21825 C33.31125,16.08325 32.60625,16.78575 31.7425,16.78575 C30.87875,16.78575 30.175,16.08325 30.175,15.21825 C30.175,14.35325 30.87875,13.65075 31.7425,13.65075" id="Fill-10" fill="#CF2323"/>
                        </g>
                    </g>
                    <circle id="Oval-Copy" stroke="#DA5252" cx="65" cy="65" r="65"/>
                </g>
            </g>
        </g>
    </g>
</svg>