<svg width="320" height="64" xmlns="http://www.w3.org/2000/svg"><script xmlns="" type="text/javascript" charset="utf-8" id="zm-extension"/><defs><linearGradient x1="50%" y1="0%" x2="50%" y2="100%" id="a"><stop stop-color="#FFE35A" offset="0%"/><stop stop-color="#FFB064" offset="100%"/></linearGradient><linearGradient x1="50%" y1="100%" x2="44.343%" y2="0%" id="b"><stop stop-color="#FFB163" offset="0%"/><stop stop-color="#FFE35B" offset="100%"/></linearGradient></defs><g transform="translate(-27)" fill="none" fill-rule="evenodd"><circle fill="url(#a)" cx="32" cy="32" r="32"/><circle fill="url(#a)" cx="90.5" cy="35.5" r="9.5"/><circle fill="url(#a)" cx="125" cy="36" r="5"/><path d="M293.1012 23.9724c3.6518-3.9317 8.798-6.257 14.0024-6.327 7.2353-.0967 13.9655 3.9196 21.148 4.8482 9.4864 1.227 18.7524-2.9768 27.5945-6.821 8.8424-3.8438 19.4915-8.1 28.8804-6.2088 13.3216 2.6837 24.636 12.9987 25.254 29.7775.532 14.446-9.8107 30.5103-26.5998 32.6434-6.5363.8304-16.4824-3.0087-22.5839-5.6292-6.1015-2.6207-12.252-5.3526-18.7713-6.3222-7.4114-1.1025-14.9266.1242-22.389.7247-7.4624.6005-15.2806.5009-21.9977-2.9968-12.4081-6.461-14.018-23.481-4.5376-33.6888" fill="url(#b)"/></g></svg>