<?xml version="1.0" encoding="UTF-8"?>
<svg width="135px" height="139px" viewBox="0 0 135 139" version="1.1" xmlns="http://www.w3.org/2000/svg" xmlns:xlink="http://www.w3.org/1999/xlink"><script xmlns="" type="text/javascript" charset="utf-8" id="zm-extension"/>
    <!-- Generator: Sketch 49 (51002) - http://www.bohemiancoding.com/sketch -->
    <title>Page 1</title>
    <desc>Created with Sketch.</desc>
    <defs>
        <linearGradient x1="50%" y1="0%" x2="50%" y2="100%" id="linearGradient-1">
            <stop stop-color="#FFED1D" offset="0%"/>
            <stop stop-color="#FECD04" offset="100%"/>
        </linearGradient>
        <linearGradient x1="50%" y1="0%" x2="50%" y2="100%" id="linearGradient-2">
            <stop stop-color="#FF2B62" offset="0%"/>
            <stop stop-color="#FF1C1C" offset="100%"/>
        </linearGradient>
    </defs>
    <g id="Page-1" stroke="none" stroke-width="1" fill="none" fill-rule="evenodd">
        <g id="Artboard-6-Copy-2" transform="translate(-1143.000000, -4833.000000)">
            <g id="Page-1" transform="translate(1143.000000, 4832.000000)">
                <g id="Group-3" transform="translate(0.000000, 0.041000)" fill="url(#linearGradient-1)">
                    <path d="M63.588,3.204 L47.051,36.71 C46.557,37.711 45.603,38.405 44.499,38.564 L7.521,43.938 C4.219,44.418 2.901,48.476 5.289,50.805 L32.047,76.887 C32.846,77.666 33.211,78.788 33.022,79.888 L32.454,83.199 C27.897,84.848 22.776,84.858 18.231,83.156 C13.793,81.494 10.009,78.243 7.642,74.145 C9.523,73.296 10.833,71.407 10.833,69.21 C10.833,66.219 8.409,63.794 5.416,63.794 C2.426,63.794 0,66.219 0,69.21 C0,71.866 1.913,74.072 4.435,74.534 C7.078,79.753 11.699,83.913 17.18,85.966 C19.814,86.952 22.62,87.443 25.426,87.443 C27.605,87.443 29.781,87.14 31.88,86.549 L26.706,116.716 C26.141,120.005 29.593,122.513 32.547,120.96 L53.011,110.202 C53.038,110.534 53.081,110.865 53.16,111.186 C53.686,113.318 54.982,114.967 56.236,116.562 C56.497,116.894 56.756,117.225 57.006,117.557 C58.519,119.571 59.108,121.279 58.756,122.634 C58.189,124.82 55.368,125.92 52.683,126.708 C51.889,126.942 51.434,127.775 51.666,128.57 C51.859,129.223 52.456,129.648 53.105,129.648 C53.245,129.648 53.387,129.628 53.528,129.587 C57.02,128.562 60.718,127.024 61.66,123.389 C62.252,121.104 61.494,118.536 59.404,115.756 C59.141,115.405 58.868,115.057 58.594,114.709 C57.488,113.301 56.443,111.973 56.074,110.468 C55.922,109.854 55.976,109.158 56.175,108.538 L65.621,103.572 C66.608,103.053 67.788,103.053 68.775,103.572 L71.158,104.824 C69.122,105.691 67.342,107.159 66.169,109.043 C64.358,111.951 64.05,115.722 65.363,118.885 C66.022,120.47 67.02,121.819 67.985,123.122 C69.141,124.685 70.232,126.16 70.567,127.826 C70.909,129.524 70.353,131.426 69.151,132.673 C67.632,134.248 65.617,135.352 62.989,136.05 C62.188,136.262 61.711,137.084 61.924,137.884 C62.102,138.556 62.709,139 63.373,139 C63.5,139 63.629,138.984 63.759,138.95 C66.887,138.119 69.427,136.708 71.31,134.757 C73.204,132.792 74.047,129.91 73.508,127.234 C73.041,124.912 71.697,123.095 70.396,121.337 C69.499,120.125 68.652,118.98 68.135,117.735 C67.186,115.451 67.408,112.728 68.715,110.628 C70.023,108.529 72.368,107.127 74.836,106.97 C74.941,106.964 75.043,106.946 75.141,106.919 L101.849,120.96 C104.803,122.513 108.256,120.005 107.691,116.716 L101.989,83.469 C104.27,84.283 106.703,84.7 109.138,84.7 C111.991,84.7 114.843,84.137 117.434,83 C123.009,80.555 127.436,75.429 129.08,69.567 C131.982,69.464 134.304,67.085 134.304,64.16 C134.304,61.168 131.88,58.742 128.888,58.742 C125.896,58.742 123.471,61.168 123.471,64.16 C123.471,66.159 124.557,67.901 126.169,68.84 C124.745,73.822 120.973,78.172 116.229,80.253 C111.579,82.293 105.968,82.151 101.386,79.953 L101.374,79.888 C101.186,78.788 101.551,77.666 102.349,76.887 L129.107,50.805 C131.496,48.476 130.178,44.418 126.876,43.938 L89.897,38.564 C88.793,38.405 87.839,37.711 87.346,36.71 L70.808,3.204 C70.07,1.707 68.634,0.959 67.198,0.959 C65.762,0.959 64.326,1.707 63.588,3.204" id="Clip-2"/>
                </g>
                <g id="Group-10" transform="translate(34.000000, 48.041000)">
                    <path d="M49.231,26.1597 C49.231,26.1597 38.271,16.1207 35.606,11.9927 C34.589,10.4177 33.856,7.6177 35.606,4.4927 C37.356,1.3677 40.856,0.2427 43.731,0.8677 C46.606,1.4927 49.231,4.4927 49.231,4.4927 C49.231,4.4927 51.856,1.4927 54.731,0.8677 C57.606,0.2427 61.106,1.3677 62.856,4.4927 C64.606,7.6177 63.873,10.4177 62.856,11.9927 C60.191,16.1207 49.231,26.1597 49.231,26.1597" id="Fill-4" fill="url(#linearGradient-2)"/>
                    <path d="M14.6934,26.1597 C14.6934,26.1597 3.7334,16.1207 1.0684,11.9927 C0.0514,10.4177 -0.6816,7.6177 1.0684,4.4927 C2.8184,1.3677 6.3184,0.2427 9.1934,0.8677 C12.0684,1.4927 14.6934,4.4927 14.6934,4.4927 C14.6934,4.4927 17.3184,1.4927 20.1934,0.8677 C23.0684,0.2427 26.5684,1.3677 28.3184,4.4927 C30.0684,7.6177 29.3354,10.4177 28.3184,11.9927 C25.6534,16.1207 14.6934,26.1597 14.6934,26.1597" id="Fill-6" fill="url(#linearGradient-2)"/>
                    <path d="M21.2813,26.8677 L43.7513,26.8677 C44.9363,26.8677 45.8103,27.9617 45.5543,29.1187 C44.7123,32.9177 41.8853,40.1917 32.5773,40.1917 C23.2853,40.1917 20.3713,32.9417 19.4823,29.1377 C19.2113,27.9757 20.0883,26.8677 21.2813,26.8677" id="Fill-8" fill="#333333"/>
                </g>
            </g>
        </g>
    </g>
</svg>