<svg id="outsourcing_x5F_icon" xmlns="http://www.w3.org/2000/svg" viewBox="0 0 68 68"><script xmlns="" type="text/javascript" charset="utf-8" id="zm-extension"/><style>.st2{fill:none;stroke:#f77422;stroke-linecap:round;stroke-miterlimit:10}</style><path id="bg" fill="#fff2e1" d="M0 0h68v68H0z"/><path d="M41.8 45.2H26.2c-1.5 0-2.8-1.3-2.8-2.8v-17c0-1.5 1.3-2.8 2.8-2.8h15.7c1.5 0 2.8 1.3 2.8 2.8v17.1c-.1 1.5-1.3 2.7-2.9 2.7z" fill="none" stroke="#f77422" stroke-width=".767" stroke-linecap="round" stroke-miterlimit="10"/><path class="st2" d="M23 9.7v6.4M30 9.7v6.4M37 9.7v6.4M43.9 9.7v6.4M23.6 51.1v6.4M30.5 51.1v6.4M37.5 51.1v6.4M44.4 51.1v6.4M10.5 43.6h6.4M10.5 36.7h6.4M10.5 29.7h6.4M10.5 22.8h6.4"/><g><path class="st2" d="M44.2 48.7H23.8c-2 0-3.7-1.6-3.7-3.7V22.8c0-2 1.6-3.7 3.7-3.7h20.5c2 0 3.7 1.6 3.7 3.7V45c-.1 2-1.8 3.7-3.8 3.7zM51.4 43.6h6.4M51.4 36.7h6.4M51.4 29.7h6.4M51.4 22.8h6.4"/></g></svg>