<svg width="751" height="256" xmlns="http://www.w3.org/2000/svg"><script xmlns="" type="text/javascript" charset="utf-8" id="zm-extension"/><g fill="none" fill-rule="evenodd"><path d="M654.518 78.75L641.67 92.486a1.587 1.587 0 0 1-2.34 0l-12.848-13.734c-.643-.687-.643-1.815 0-2.502l12.848-13.734a1.587 1.587 0 0 1 2.34 0l12.848 13.734c.643.687.643 1.815 0 2.502z" fill="#9013FE" fill-rule="nonzero" opacity=".15"/><path d="M647.89 77.22l-7.688 7.706c-.098.099-.294.099-.44 0l-7.689-7.705c-.097-.098-.097-.295 0-.442l7.688-7.705c.098-.099.294-.099.441 0l7.688 7.705c.147.098.147.295 0 .442z" fill="#9013FE" fill-rule="nonzero" opacity=".61"/><path d="M641.78 77.063L631.063 87.78c-.294.293-.832.293-1.126 0L619.22 77.063c-.293-.294-.293-.832 0-1.126l10.717-10.717c.294-.293.832-.293 1.126 0l10.717 10.717c.293.343.293.832 0 1.126z" fill="#9013FE" fill-rule="nonzero" opacity=".25"/><path d="M57.542 223.27l18.747-18.764a1.744 1.744 0 0 1 2.458 0l18.747 18.764a1.748 1.748 0 0 1 0 2.46l-18.747 18.764a1.744 1.744 0 0 1-2.458 0L57.542 225.73a1.666 1.666 0 0 1 0-2.46z" fill="#9013FE" fill-rule="nonzero" opacity=".15"/><path d="M67.103 224.794l9.708-9.725c.092-.092.275-.092.412 0l9.708 9.725c.092.091.092.275 0 .412l-9.708 9.725c-.091.092-.275.092-.412 0l-9.708-9.725c-.137-.137-.137-.32 0-.412z" fill="#9013FE" fill-rule="nonzero" opacity=".61"/><path d="M76.207 225.934l13.764-14.713a.743.743 0 0 1 1.058 0l13.764 14.713c.276.295.276.837 0 1.132l-13.764 14.713a.743.743 0 0 1-1.058 0l-13.764-14.713c-.276-.345-.276-.837 0-1.132z" fill="#9013FE" fill-rule="nonzero" opacity=".25"/><path d="M.072 104.783l7.711-7.71c.097-.097.29-.097.434 0l7.71 7.71c.097.097.097.29 0 .434l-7.71 7.71c-.097.097-.29.097-.434 0l-7.71-7.71c-.097-.097-.097-.29 0-.434zM686.115 156.783l8.174-7.71c.102-.097.307-.097.46 0l8.174 7.71c.103.097.103.29 0 .434l-8.174 7.71c-.102.097-.306.097-.46 0l-8.174-7.71c-.153-.097-.153-.29 0-.434z" fill="#9013FE" fill-rule="nonzero" opacity=".61"/><path d="M8.216 105.949l10.733-10.733c.287-.288.815-.288 1.102 0l10.733 10.733c.288.287.288.815 0 1.102l-10.733 10.733c-.287.288-.815.288-1.102 0L8.216 107.051c-.288-.287-.288-.767 0-1.102zM97.21 31.465l9.255-9.256c.28-.279.79-.279 1.07 0l9.256 9.256c.279.28.279.79 0 1.07l-9.256 9.256c-.28.279-.79.279-1.07 0l-9.256-9.256c-.279-.326-.279-.79 0-1.07zM556.21 215.465l9.255-9.256c.28-.279.79-.279 1.07 0l9.256 9.256c.279.28.279.79 0 1.07l-9.256 9.256c-.28.279-.79.279-1.07 0l-9.256-9.256a.788.788 0 0 1 0-1.07z" fill="#9013FE" fill-rule="nonzero" opacity=".25"/><path d="M216.219 34.441l6.222-6.222c.292-.292.826-.292 1.118 0l6.222 6.222c.292.292.292.826 0 1.118l-6.222 6.222c-.292.292-.826.292-1.118 0l-6.222-6.222c-.292-.34-.292-.826 0-1.118zM128.255 163.441l6.206-6.222c.29-.292.824-.292 1.115 0l6.206 6.222c.29.292.29.826 0 1.118l-6.206 6.222c-.291.292-.824.292-1.115 0l-6.206-6.222c-.34-.34-.34-.826 0-1.118zM569.244 219.465l9.24-9.256a.786.786 0 0 1 1.067 0l9.24 9.256a.79.79 0 0 1 0 1.07l-9.24 9.256a.786.786 0 0 1-1.068 0l-9.24-9.256c-.324-.326-.324-.79 0-1.07zM475.215 16.95L490.95 1.215c.287-.287.813-.287 1.1 0l15.735 15.735c.287.287.287.813 0 1.1L492.05 33.785c-.287.287-.813.287-1.1 0L475.215 18.05c-.287-.335-.287-.813 0-1.1z" stroke="#9110FE" stroke-width=".8" opacity=".61"/></g></svg>