<svg width="30" height="30" xmlns="http://www.w3.org/2000/svg"><script xmlns="" type="text/javascript" charset="utf-8" id="zm-extension"/><g fill="#0097A7"><path d="M11.213 10.173L9.388 8.45c.213-.387.344-.824.344-1.296a2.705 2.705 0 0 0-2.706-2.705 2.706 2.706 0 1 0 0 5.412c.527 0 1.015-.157 1.43-.417l1.823 1.723c.276-.365.587-.699.934-.993zm7.719-.216l2.425-4.08c.239.068.486.117.746.117a2.706 2.706 0 1 0 0-5.413A2.704 2.704 0 0 0 20.18 5.19l-2.417 4.07a5.97 5.97 0 0 1 1.169.697zm8.363 3.417c-1.164 0-2.15.74-2.533 1.77l-3.369-.332c0 .026.004.05.004.075 0 .44-.048.868-.136 1.282l3.368.333A2.701 2.701 0 0 0 30 16.079a2.705 2.705 0 0 0-2.705-2.705zm-9.297 10.641l-.753-3.29a6.167 6.167 0 0 1-1.329.306l.754 3.292a2.697 2.697 0 0 0 1.247 5.096 2.704 2.704 0 0 0 2.705-2.705 2.7 2.7 0 0 0-2.624-2.699zm-8.834-7.821L4.97 17.599A2.704 2.704 0 0 0 0 19.075a2.707 2.707 0 0 0 5.413 0c0-.063-.013-.12-.018-.181l4.207-1.41a6.18 6.18 0 0 1-.438-1.29z"/><circle cx="15.211" cy="14.887" r="4.641"/></g></svg>