<svg width="140" height="140" xmlns="http://www.w3.org/2000/svg" xmlns:xlink="http://www.w3.org/1999/xlink"><script xmlns="" type="text/javascript" charset="utf-8" id="zm-extension"/><defs><rect id="b" width="100" height="100" rx="50"/><filter x="-31%" y="-29%" width="162%" height="162%" filterUnits="objectBoundingBox" id="a"><feOffset dy="2" in="SourceAlpha" result="shadowOffsetOuter1"/><feGaussianBlur stdDeviation="10" in="shadowOffsetOuter1" result="shadowBlurOuter1"/><feColorMatrix values="0 0 0 0 0.862909226 0 0 0 0 0.862909226 0 0 0 0 0.862909226 0 0 0 0.5 0" in="shadowBlurOuter1"/></filter></defs><g fill="none" fill-rule="evenodd"><g transform="translate(20 18)"><use fill="#000" filter="url(#a)" xlink:href="#b"/><use fill="#FAFCFE" xlink:href="#b"/></g><path d="M90.126 80.847l-6.023-6.037c-1.2-1.198-3.187-1.161-4.428.083l-3.034 3.041-.6-.334c-1.915-1.064-4.538-2.523-7.298-5.29-2.768-2.774-4.224-5.407-5.29-7.329-.112-.203-.22-.4-.326-.586l2.037-2.038 1.001-1.005c1.243-1.246 1.278-3.237.08-4.438l-6.022-6.038c-1.197-1.2-3.184-1.163-4.428.084l-1.697 1.71.046.047a9.844 9.844 0 0 0-1.399 2.473c-.326.861-.53 1.684-.622 2.508-.795 6.608 2.218 12.647 10.394 20.842C73.82 89.868 82.928 89.012 83.321 88.97a10.158 10.158 0 0 0 2.51-.632 9.777 9.777 0 0 0 2.458-1.396l.037.033 1.72-1.687c1.24-1.247 1.276-3.238.08-4.44z" fill-rule="nonzero" fill="#ABBAC2"/></g></svg>