<svg width="30" height="24" xmlns="http://www.w3.org/2000/svg"><script xmlns="" type="text/javascript" charset="utf-8" id="zm-extension"/><g fill="#0097A7"><path d="M17.379 16.978c0-.07.003-.14.005-.21H3.667C1.645 16.767 0 18.388 0 20.383S1.645 24 3.667 24h19c-3.056-.912-5.288-3.714-5.288-7.022zm-9.617 4.345H4.43a.947.947 0 0 1-.953-.94c0-.517.428-.939.953-.939h3.333c.525 0 .953.422.953.94s-.428.939-.953.939zM3.658 15.78h13.821c.676-3.36 3.681-5.902 7.276-5.902.906 0 1.775.163 2.578.458a3.667 3.667 0 0 0-3.154-1.788H3.658C1.64 8.548 0 10.17 0 12.164s1.64 3.617 3.658 3.617zm.76-4.555h3.325c.524 0 .95.421.95.94a.946.946 0 0 1-.95.939H4.418a.946.946 0 0 1-.95-.94c0-.518.426-.939.95-.939zm-.783-3.992h20.396c2.005 0 3.636-1.622 3.636-3.617C27.667 1.622 26.036 0 24.03 0H3.635C1.631 0 0 1.622 0 3.616c0 1.995 1.63 3.617 3.635 3.617zm18.791-4.814c.664 0 1.204.537 1.204 1.197s-.54 1.198-1.204 1.198a1.202 1.202 0 0 1-1.204-1.198c0-.66.54-1.197 1.204-1.197zm-18.035.258h3.305c.52 0 .944.421.944.94a.943.943 0 0 1-.944.939H4.39a.943.943 0 0 1-.944-.94c0-.518.423-.939.944-.939z"/><path d="M24.667 11.836c-2.946 0-5.334 2.355-5.334 5.26s2.388 5.26 5.334 5.26c2.945 0 5.333-2.355 5.333-5.26s-2.388-5.26-5.333-5.26zm2.85 4.146L24.14 19.31a.379.379 0 0 1-.268.11.379.379 0 0 1-.268-.11l-1.693-1.67a.368.368 0 0 1 0-.528l.335-.33a.379.379 0 0 1 .268-.11c.1 0 .196.04.267.11l1.09 1.075 2.774-2.735a.38.38 0 0 1 .536 0l.334.33a.368.368 0 0 1 0 .529z"/></g></svg>