<svg width="30" height="29" xmlns="http://www.w3.org/2000/svg"><script xmlns="" type="text/javascript" charset="utf-8" id="zm-extension"/><path d="M24.24 17.522c-.06-.002-.117.003-.177.002.07-.312.116-.628.133-.945-.157-2.925-2.209-5.004-5.092-5.162-1.691-.092-3.1.783-4.006 2.063-.904-1.207-2.31-1.97-4.008-2.063-2.877-.157-4.947 2.475-5.09 5.162-.017.344.006.677.059.997a6.047 6.047 0 0 0-.55-.054C2.398 17.352.16 20.198.006 23.1-.152 26.065 2.322 28.248 5 28.625v.051h20.293v-.064c2.55-.439 4.31-2.952 4.446-5.515-.166-3.156-2.384-5.404-5.5-5.575zm-6.153-8.033h1.518V3.773h2.242L18.699.06l-2.855 3.712h2.243zm-3.933-3.712H11.91V.06h-1.518v5.716H8.15l3.149 3.712z" fill="#0097A7"/></svg>