<svg width="1440" height="242" xmlns="http://www.w3.org/2000/svg"><script xmlns="" type="text/javascript" charset="utf-8" id="zm-extension"/><g fill="none" fill-rule="evenodd"><path d="M0 158.651c17.232-7.57 40.308-19.04 57.84-25.86 41.207-15.89 83.088-30.357 125.494-42.799 49.523-14.616 100.02-26.833 151.342-32.905 76.795-8.994 153.44 6.821 225.59 33.805 5.92 2.173 11.763 4.572 17.532 7.045 56.117 24.285 110.885 48.42 172.845 51.493 112.833 5.547 214.202-57.34 321.415-84.397 130.514-32.98 247.318 20.162 367.792 65.21" stroke="#4A4A4A" stroke-width=".5"/><path d="M.524 84.22C156.137 43.747 196.071 26.207 330.481 6.045c149.47-22.411 260.204 41.9 388.545 103.211 157.036 75.029 354.755 143.762 511.717 30.881 58.14-41.824 134.56-61.012 205.136-66.259" stroke="#D8D8D8" stroke-width="1.498" opacity=".08"/><path d="M-3.48 242.845s180.52-124.595 427.763-57.961c247.242 66.634 325.161 62.136 440.316 23.685 115.155-38.451 215.626-49.02 319.992-31.93 83.538 13.641 129.465 54.716 254.96 59.213" stroke="#7A7A7A" stroke-width=".5"/></g></svg>