<svg width="1920" height="224" xmlns="http://www.w3.org/2000/svg"><script xmlns="" type="text/javascript" charset="utf-8" id="zm-extension"/><g fill="none" fill-rule="evenodd"><path d="M0 139.264c23.02-10.085 55.658-25.103 79.176-34.191C134.299 83.907 190.17 64.61 246.786 48.05 312.862 28.628 380.429 12.194 448.99 4.226c102.657-11.952 205.066 9.089 301.377 45.07 7.84 2.988 15.678 6.1 23.393 9.462 74.909 32.37 148.2 64.617 230.948 68.6 150.812 7.346 286.195-76.444 429.418-112.425 174.455-43.949 330.37 26.893 491.385 86.903" stroke="#555" stroke-width=".622"/><path d="M1927.876 106.318c-208.052-29.134-261.434-41.833-441.115-56.275-199.84-16.185-347.915 30.13-519.508 74.328-209.918 54.033-474.338 103.585-684.256 22.285C205.227 116.526 94.32 102.641 0 98.782" stroke="#2F2F2F" stroke-width="2.489"/><path d="M-10.176 214.456L0 223.178s240.814-128.19 570.686-61.208c329.871 66.982 433.773 62.5 587.323 23.905 153.55-38.596 287.565-49.303 426.805-32.122 111.367 13.695 172.713 55.03 340.075 59.636" stroke="#8F8F8F" stroke-width=".622"/></g></svg>