<?xml version="1.0" encoding="UTF-8" standalone="no"?>
<!DOCTYPE svg PUBLIC "-//W3C//DTD SVG 1.1//EN" "http://www.w3.org/Graphics/SVG/1.1/DTD/svg11.dtd">
<svg xmlns="http://www.w3.org/2000/svg">
<metadata/>
<defs>
<font id="epregularregular" horiz-adv-x="1218">
<font-face units-per-em="2048" ascent="1638" descent="-410"/>
<missing-glyph horiz-adv-x="500"/>
<glyph horiz-adv-x="0"/>
<glyph horiz-adv-x="682"/>
<glyph unicode="!" horiz-adv-x="684" d="M204 121q0 56 39 95q40 40 98 40t98 -39q39 -39 39 -94t-39 -95q-40 -40 -98 -40q-56 0 -97 39q-40 40 -40 94zM239 424v1026h203v-1026h-203z"/>
<glyph unicode="&quot;" horiz-adv-x="866" d="M184 938v512h168v-512h-168zM514 938v512h168v-512h-168z"/>
<glyph unicode="#" horiz-adv-x="1175" d="M83 432v150h217l39 288h-201v150h224l59 430h154l-62 -430h242l59 430h154l-62 -430h185v-150h-205l-41 -288h190v-150h-209l-61 -432h-154l62 432h-242l-61 -432h-152l62 432h-197zM452 582h241l39 288h-239z"/>
<glyph unicode="$" d="M83 180l150 127q114 -162 307 -166v521q-192 55 -286 133q-126 106 -126 280q0 173 124 284q116 104 288 114v143h104v-141q252 -4 404 -156l-140 -129q-94 119 -264 123v-488q199 -66 291 -143q135 -111 135 -293q0 -187 -126 -301q-119 -107 -300 -111v-147h-104v147 q-280 7 -457 203zM323 1087q0 -168 217 -231v457q-93 -7 -153 -65q-64 -63 -64 -161zM644 141q97 5 159 65q71 67 71 181q0 171 -230 246v-492z"/>
<glyph unicode="%" horiz-adv-x="1781" d="M83 1112q0 151 106 257t256 106q151 0 257 -106t106 -257q0 -150 -106 -256t-257 -106q-150 0 -256 106t-106 256zM253 1112q0 -80 56 -136q57 -56 136 -56q80 0 137 56q56 56 56 136t-56 136q-57 57 -137 57q-79 0 -136 -57q-56 -56 -56 -136zM378 2l889 1514l137 -68 l-887 -1514zM972 338q0 150 106 256t256 106q151 0 257 -106t106 -256q0 -151 -106 -257t-257 -106q-150 0 -256 106t-106 257zM1142 338q0 -80 56 -136q56 -57 136 -57t137 57q56 56 56 136t-56 136q-57 56 -137 56t-136 -56t-56 -136z"/>
<glyph unicode="&amp;" horiz-adv-x="1480" d="M98 385q0 271 326 420q-166 173 -166 332q0 166 118 262q108 88 269 88q159 0 262 -86q113 -94 113 -254q0 -235 -312 -383l289 -297l182 307h226l-279 -432l332 -342h-268l-181 190q-171 -217 -440 -217q-199 0 -330 106q-141 113 -141 306zM303 389q0 -111 84 -183 q78 -69 186 -69q185 0 307 182l-344 361q-233 -98 -233 -291zM452 1135q0 -126 144 -252q237 104 237 260q0 79 -52 131q-53 53 -134 53q-84 0 -139 -53q-56 -54 -56 -139z"/>
<glyph unicode="'" horiz-adv-x="536" d="M184 938v512h168v-512h-168z"/>
<glyph unicode="(" horiz-adv-x="645" d="M69 590q0 510 299 911l139 -90q-264 -369 -264 -821t264 -821l-139 -91q-299 401 -299 912z"/>
<glyph unicode=")" horiz-adv-x="645" d="M137 -231q264 369 264 821t-264 821l139 90q299 -401 299 -911q0 -511 -299 -912z"/>
<glyph unicode="*" horiz-adv-x="929" d="M57 1114l55 156l260 -84v264h164v-264l260 84l56 -156l-260 -84l165 -223l-131 -98l-172 231l-172 -231l-131 98l166 223z"/>
<glyph unicode="+" horiz-adv-x="1363" d="M143 537v168h455v454h168v-454h454v-168h-454v-455h-168v455h-455z"/>
<glyph unicode="," horiz-adv-x="532" d="M69 -272l141 512h193l-170 -512h-164z"/>
<glyph unicode="-" horiz-adv-x="655" d="M90 418v164h475v-164h-475z"/>
<glyph unicode="." horiz-adv-x="532" d="M129 121q0 56 39 95q40 40 98 40t98 -39q39 -39 39 -94t-39 -95q-40 -40 -98 -40q-56 0 -97 39q-40 40 -40 94z"/>
<glyph unicode="/" horiz-adv-x="778" d="M-4 -18l629 1538l145 -54l-629 -1534z"/>
<glyph unicode="0" d="M114 725q0 338 118 539q130 223 378 223q245 0 375 -223q118 -202 118 -539q0 -339 -118 -540q-129 -222 -375 -222q-248 0 -378 222q-118 201 -118 540zM317 725q0 -235 56 -389q76 -205 237 -205q158 0 233 205q57 155 57 389q0 233 -57 389q-75 207 -233 207 q-161 0 -237 -207q-56 -155 -56 -389z"/>
<glyph unicode="1" d="M186 1116l412 334h178v-1450h-199v1208l-274 -229z"/>
<glyph unicode="2" d="M122 0v190l578 574q159 163 159 307q0 112 -75 182q-73 68 -183 68q-108 0 -182 -71q-71 -69 -90 -181l-195 33q27 168 155 275q131 110 314 110q193 0 320 -105q139 -113 139 -307q0 -208 -233 -438l-471 -459h710v-178h-946z"/>
<glyph unicode="3" d="M81 283l184 61q74 -213 305 -213q119 0 200 69q91 77 91 208q0 139 -117 210q-97 58 -247 58h-62v164h64q323 0 323 241q0 107 -76 175q-73 65 -180 65q-184 0 -254 -178l-180 63q116 281 443 281q190 0 313 -101q133 -108 133 -292q0 -120 -72 -211q-70 -90 -184 -119 v-4q131 -27 211 -121q84 -97 84 -233q0 -207 -150 -330q-137 -113 -335 -113q-376 0 -494 320z"/>
<glyph unicode="4" d="M63 326v180l616 944h244v-954h209v-170h-209v-326h-192v326h-668zM268 496h463v727h-4z"/>
<glyph unicode="5" d="M96 254l180 72q75 -195 283 -195q129 0 215 86q88 88 88 225q0 156 -102 241q-92 77 -238 77q-169 0 -322 -80l21 770h782v-176h-598l-12 -381q77 27 186 27q213 0 347 -124q139 -126 139 -333q0 -224 -145 -364q-141 -136 -361 -136q-334 0 -463 291z"/>
<glyph unicode="6" d="M106 440q0 188 141 412l379 598h236l-389 -584l2 -4q64 39 180 39q192 0 321 -128q131 -130 131 -327q0 -214 -143 -349q-140 -134 -356 -134q-217 0 -359 136q-143 135 -143 341zM307 438q0 -130 83 -217q85 -90 218 -90t216 87q83 86 83 222q0 133 -81 217 q-83 86 -216 86q-136 0 -220 -85q-83 -85 -83 -220z"/>
<glyph unicode="7" d="M131 1274v176h924v-180l-582 -1270h-227l604 1274h-719z"/>
<glyph unicode="8" d="M122 395q0 139 81 241q76 96 193 128v4q-223 78 -223 324q0 175 128 287q124 108 308 108t307 -105q128 -110 128 -286q0 -117 -63 -207q-61 -88 -161 -121v-4q120 -30 196 -129q79 -103 79 -240q0 -197 -145 -318q-136 -114 -341 -114q-206 0 -342 114 q-145 121 -145 318zM325 406q0 -123 79 -200t205 -77q124 0 203 77q80 77 80 200q0 118 -80 196t-203 78q-124 0 -204 -77q-80 -78 -80 -197zM372 1085q0 -100 67 -167q68 -68 170 -68q99 0 168 68q70 68 70 167q0 103 -70 171q-69 67 -168 67q-103 0 -170 -67 q-67 -66 -67 -171z"/>
<glyph unicode="9" d="M110 1004q0 214 144 349q142 134 358 134q215 0 357 -136t142 -341q0 -186 -139 -412l-379 -598h-235l389 586l-2 2q-31 -19 -84 -29q-55 -10 -98 -10q-192 0 -322 128q-131 130 -131 327zM311 1010q0 -132 82 -217q83 -86 217 -86q135 0 220 85q83 85 83 220 q0 130 -83 218q-86 91 -218 91q-133 0 -218 -88q-83 -87 -83 -223z"/>
<glyph unicode=":" horiz-adv-x="614" d="M169 121q0 56 39 95q40 40 98 40t98 -39q39 -39 39 -94t-39 -95q-40 -40 -98 -40q-56 0 -97 39q-40 40 -40 94zM169 848q0 55 39 94q41 41 98 41q58 0 98 -40q39 -39 39 -93q0 -56 -39 -95q-40 -40 -98 -40q-57 0 -97 39t-40 94z"/>
<glyph unicode=";" horiz-adv-x="614" d="M88 -272l141 512h193l-170 -512h-164zM170 848q0 55 39 94q41 41 98 41q58 0 98 -40q39 -39 39 -93q0 -56 -39 -95q-40 -40 -98 -40q-57 0 -97 39t-40 94z"/>
<glyph unicode="&lt;" horiz-adv-x="1363" d="M161 559v123l1044 473v-174l-788 -360l784 -361v-174z"/>
<glyph unicode="=" horiz-adv-x="1363" d="M143 369v166h1077v-166h-1077zM143 707v165h1077v-165h-1077z"/>
<glyph unicode="&gt;" horiz-adv-x="1363" d="M161 86v174l784 361l-784 360v174l1040 -473v-123z"/>
<glyph unicode="?" horiz-adv-x="1024" d="M98 1102q26 175 148 278q121 101 296 101q179 0 294 -98q122 -103 122 -281q0 -185 -196 -350q-89 -76 -115 -119q-31 -53 -31 -150v-71h-192v98q0 169 149 305l76 72q104 90 104 203q0 97 -62 156t-161 59q-98 0 -164 -66q-62 -63 -71 -160zM393 121q0 56 39 95 q40 40 98 40t98 -39q39 -39 39 -94t-39 -95q-40 -40 -98 -40q-56 0 -97 39q-40 40 -40 94z"/>
<glyph unicode="@" horiz-adv-x="1638" d="M67 723q0 325 229 545q227 219 553 219q301 0 503 -164q222 -181 222 -494q0 -236 -121 -374q-112 -127 -280 -127q-83 0 -132 42q-46 40 -46 101h-10q-77 -143 -252 -143q-137 0 -217 93q-78 91 -78 241q0 182 110 318q118 144 295 144q163 0 207 -116h4l19 86h155 l-80 -385q-20 -93 -20 -146q0 -92 82 -92q90 0 147 97q58 96 58 245q0 250 -160 391q-153 135 -408 135q-267 0 -436 -178q-166 -175 -166 -442q0 -277 174 -444q170 -164 447 -164q310 0 530 206l94 -108q-233 -246 -641 -246q-349 0 -567 213q-215 212 -215 547zM618 655 q0 -182 147 -182q114 0 178 109q52 89 52 200q0 197 -152 197q-102 0 -167 -107q-58 -96 -58 -217z"/>
<glyph unicode="A" horiz-adv-x="1456" d="M10 0l629 1450h184l623 -1450h-230l-147 356h-688l-146 -356h-225zM452 535h543l-270 679z"/>
<glyph unicode="B" horiz-adv-x="1314" d="M176 0v1450h500q189 0 309 -80q145 -96 145 -287q0 -246 -254 -315v-4q144 -17 231 -109q91 -95 91 -243q0 -201 -159 -311q-146 -101 -386 -101h-477zM379 172h254q360 0 360 250q0 244 -342 244h-272v-494zM379 838h264q125 0 201 53q84 60 84 172q0 217 -318 217h-231 v-442z"/>
<glyph unicode="C" horiz-adv-x="1449" d="M102 727q0 336 221 550q217 210 551 210q358 0 520 -225l-159 -123q-121 170 -361 170q-246 0 -401 -172q-150 -165 -150 -410q0 -250 147 -414q153 -170 398 -170q257 0 389 193l162 -111q-192 -262 -553 -262q-334 0 -549 215t-215 549z"/>
<glyph unicode="D" horiz-adv-x="1558" d="M176 0v1450h498q313 0 530 -170q252 -197 252 -555q0 -347 -252 -548q-221 -177 -530 -177h-498zM379 178h254q268 0 434 144q172 149 172 403q0 262 -172 409q-163 140 -434 140h-254v-1096z"/>
<glyph unicode="E" horiz-adv-x="1230" d="M176 0v1450h930v-178h-727v-434h684v-174h-684v-484h758v-180h-961z"/>
<glyph unicode="F" horiz-adv-x="1163" d="M176 0v1450h905v-178h-702v-451h657v-174h-657v-647h-203z"/>
<glyph unicode="G" horiz-adv-x="1593" d="M102 727q0 336 221 550q217 210 551 210q342 0 537 -189l-142 -147q-144 158 -393 158q-248 0 -404 -172q-149 -165 -149 -410q0 -249 150 -412q156 -170 409 -170q205 0 338 72v404h-321v172h522v-703q-235 -127 -545 -127q-339 0 -557 215q-217 214 -217 549z"/>
<glyph unicode="H" horiz-adv-x="1492" d="M176 0v1450h203v-606h733v606h205v-1450h-205v664h-733v-664h-203z"/>
<glyph unicode="I" horiz-adv-x="555" d="M176 0v1450h203v-1450h-203z"/>
<glyph unicode="J" horiz-adv-x="1013" d="M30 270l188 54q39 -181 209 -181q219 0 219 310v997h203v-1006q0 -192 -78 -315q-105 -166 -333 -166q-162 0 -271 86q-104 82 -137 221z"/>
<glyph unicode="K" horiz-adv-x="1349" d="M176 0v1450h203v-639h4l647 639h281l-705 -664l748 -786h-291l-680 750h-4v-750h-203z"/>
<glyph unicode="L" horiz-adv-x="1046" d="M176 0v1450h203v-1270h647v-180h-850z"/>
<glyph unicode="M" horiz-adv-x="1849" d="M176 0v1450h315l435 -1114h4l428 1114h315v-1450h-203v1212h-4l-481 -1212h-129l-479 1212h-4v-1212h-197z"/>
<glyph unicode="N" horiz-adv-x="1581" d="M176 0v1450h264l758 -1159h4v1159h203v-1450h-256l-766 1184h-4v-1184h-203z"/>
<glyph unicode="O" horiz-adv-x="1738" d="M102 727q0 337 218 550q215 210 548 210q335 0 551 -210q219 -213 219 -550q0 -333 -219 -549q-218 -215 -551 -215q-332 0 -548 215q-218 215 -218 549zM321 727q0 -248 149 -412q154 -170 398 -170q247 0 401 170q150 164 150 412q0 245 -149 410q-155 172 -402 172 q-244 0 -399 -172q-148 -165 -148 -410z"/>
<glyph unicode="P" d="M176 0v1450h442q519 0 519 -403q0 -209 -152 -314q-137 -96 -377 -96h-229v-637h-203zM379 809h215q338 0 338 238q0 231 -334 231h-219v-469z"/>
<glyph unicode="Q" horiz-adv-x="1732" d="M102 743q0 326 215 536q213 208 541 208q324 0 536 -208q213 -210 213 -536q0 -383 -299 -569v-4h400v-170h-852q-335 0 -543 203q-211 205 -211 540zM321 743q0 -242 145 -401q150 -164 390 -164q236 0 387 164q147 160 147 401q0 239 -143 399q-150 167 -389 167 t-391 -167q-146 -161 -146 -399z"/>
<glyph unicode="R" horiz-adv-x="1257" d="M176 0v1450h465q230 0 363 -90q153 -103 153 -311q0 -156 -99 -259q-93 -98 -253 -124l405 -666h-246l-368 645h-217v-645h-203zM379 815h233q340 0 340 234q0 229 -325 229h-248v-463z"/>
<glyph unicode="S" horiz-adv-x="1165" d="M75 174l158 133q114 -170 323 -170q114 0 196 60q95 68 95 188q0 118 -103 185q-61 40 -241 96q-175 54 -258 125q-119 103 -119 282q0 202 159 315q138 99 339 99q267 0 416 -166l-144 -139q-97 135 -282 135q-111 0 -191 -56q-92 -66 -92 -180q0 -106 87 -166 q54 -37 210 -88q203 -64 286 -126q140 -106 140 -298q0 -213 -154 -333q-138 -107 -348 -107q-309 0 -477 211z"/>
<glyph unicode="T" horiz-adv-x="1165" d="M16 1272v178h1133v-178h-465v-1272h-203v1272h-465z"/>
<glyph unicode="U" horiz-adv-x="1458" d="M165 537v913h203v-901q0 -170 79 -276q94 -128 281 -128q188 0 282 128q79 106 79 276v901h202v-913q0 -241 -138 -399q-153 -175 -425 -175t-425 175q-138 158 -138 399z"/>
<glyph unicode="V" horiz-adv-x="1314" d="M-4 1450h225l437 -1188h6l436 1188h219l-569 -1450h-189z"/>
<glyph unicode="W" horiz-adv-x="2023" d="M20 1450h219l320 -1155h4l340 1155h223l338 -1155h4l319 1155h215l-426 -1450h-210l-353 1165h-4l-352 -1165h-211z"/>
<glyph unicode="X" horiz-adv-x="1368" d="M36 0l518 768l-467 682h248l348 -541l344 541h238l-463 -686l526 -764h-256l-397 610l-389 -610h-250z"/>
<glyph unicode="Y" horiz-adv-x="1277" d="M-6 1450h250l401 -655l404 655h235l-542 -823v-627h-205v627z"/>
<glyph unicode="Z" horiz-adv-x="1212" d="M67 0v178l817 1094h-801v178h1049v-178l-819 -1092h831v-180h-1077z"/>
<glyph unicode="[" horiz-adv-x="645" d="M120 -319v1818h362v-135h-190v-1548h190v-135h-362z"/>
<glyph unicode="\" horiz-adv-x="778" d="M8 1466l143 54l631 -1538l-145 -50z"/>
<glyph unicode="]" horiz-adv-x="645" d="M161 -184h190v1548h-190v135h362v-1818h-362v135z"/>
<glyph unicode="^" horiz-adv-x="1363" d="M151 633l463 817h135l463 -817h-187l-346 614l-342 -614h-186z"/>
<glyph unicode="_" horiz-adv-x="1024" d="M0 -154h1024v-129h-1024v129z"/>
<glyph unicode="`" horiz-adv-x="512" d="M-69 1450h231l205 -295h-157z"/>
<glyph unicode="a" horiz-adv-x="1110" d="M94 274q0 198 215 274q153 54 461 54v27q0 213 -240 213q-164 0 -276 -113l-103 123q152 145 398 145q200 0 307 -109q98 -101 98 -272v-423q0 -127 14 -193h-174q-16 69 -16 139h-6q-109 -164 -326 -164q-137 0 -233 66q-119 81 -119 233zM291 279q0 -152 198 -152 q132 0 208 81q73 77 73 204v51h-47q-432 0 -432 -184z"/>
<glyph unicode="b" horiz-adv-x="1302" d="M169 0v1548h193v-723h6q119 172 346 172q214 0 351 -147q134 -145 134 -363t-132 -363q-138 -151 -357 -151q-234 0 -351 181h-4v-154h-186zM349 485q0 -144 90 -245q94 -105 238 -105q151 0 241 108q82 99 82 244q0 146 -82 244q-90 107 -241 107q-144 0 -238 -107 q-90 -101 -90 -246z"/>
<glyph unicode="c" horiz-adv-x="1011" d="M102 485q0 227 148 371q145 141 370 141q243 0 365 -159l-140 -113q-71 111 -223 111q-145 0 -234 -106q-83 -98 -83 -245q0 -145 83 -244q90 -106 236 -106q151 0 234 107l129 -117q-132 -152 -363 -152q-227 0 -373 140q-149 143 -149 372z"/>
<glyph unicode="d" horiz-adv-x="1300" d="M100 487q0 219 135 363q137 147 352 147q223 0 347 -172h4v723h192v-1548h-186v154h-4q-114 -181 -351 -181q-219 0 -356 151q-133 145 -133 363zM301 487q0 -145 81 -244q90 -108 240 -108q144 0 238 105q90 101 90 245q0 145 -90 246q-94 107 -238 107 q-151 0 -240 -107q-81 -98 -81 -244z"/>
<glyph unicode="e" horiz-adv-x="1173" d="M102 483q0 226 144 371q142 143 358 143q215 0 341 -136q126 -135 126 -367q0 -43 -2 -66h-770q4 -124 96 -210q91 -85 219 -85q183 0 283 148l135 -109q-154 -199 -418 -199q-223 0 -367 141q-145 142 -145 369zM299 571h577q-3 121 -71 195q-73 80 -201 80 q-123 0 -210 -81q-86 -78 -95 -194z"/>
<glyph unicode="f" horiz-adv-x="634" d="M12 813v158h193v203q0 399 362 399q69 0 121 -14l-23 -166q-50 14 -96 14q-172 0 -172 -233v-203h225v-158h-225v-813h-192v813h-193z"/>
<glyph unicode="g" horiz-adv-x="1294" d="M102 492q0 214 132 357q138 148 355 148q239 0 351 -182h4v156h186v-922q0 -237 -117 -376q-138 -165 -419 -165q-283 0 -476 177l123 149q141 -158 355 -158q342 0 342 359v125h-5q-110 -168 -342 -168q-218 0 -356 145q-133 141 -133 355zM301 496q0 -141 84 -238 q91 -104 237 -104q147 0 240 98q90 97 90 244q0 141 -91 240q-95 102 -239 102q-147 0 -237 -101q-84 -96 -84 -241z"/>
<glyph unicode="h" horiz-adv-x="1196" d="M169 0v1548h193v-725h4q81 174 307 174q178 0 275 -116q87 -106 87 -279v-602h-192v537q0 297 -219 297q-115 0 -188 -88q-74 -89 -74 -232v-514h-193z"/>
<glyph unicode="i" horiz-adv-x="530" d="M137 1321q0 52 37 89q38 36 90 36q53 0 91 -36t38 -89q0 -52 -38 -88q-38 -35 -91 -35q-52 0 -90 36q-37 36 -37 87zM168 0v971h192v-971h-192z"/>
<glyph unicode="j" horiz-adv-x="532" d="M-63 -479l20 164q41 -11 78 -11q81 0 112 60q23 46 23 147v1090h193v-1096q0 -367 -315 -367q-50 0 -111 13zM138 1321q0 52 37 89q38 36 92 36q53 0 90 -36q39 -36 39 -89q0 -52 -39 -88q-37 -35 -90 -35q-54 0 -92 36q-37 36 -37 87z"/>
<glyph unicode="k" horiz-adv-x="1079" d="M169 0v1548h193v-999h6l407 422h258l-454 -441l493 -530h-266l-438 504h-6v-504h-193z"/>
<glyph unicode="l" horiz-adv-x="532" d="M169 0v1548h193v-1548h-193z"/>
<glyph unicode="m" horiz-adv-x="1816" d="M157 971h182q8 -99 8 -160h7q89 186 309 186q217 0 301 -194q102 194 330 194q178 0 275 -116q87 -106 87 -279v-602h-192v539q0 297 -215 297q-123 0 -189 -99q-57 -85 -57 -213v-524h-193v578q0 258 -204 258q-108 0 -177 -88q-71 -89 -71 -232v-516h-193v762 q0 124 -8 209z"/>
<glyph unicode="n" horiz-adv-x="1191" d="M157 971h182q8 -99 8 -160h7q36 80 123 132q89 54 192 54q179 0 275 -116q87 -106 87 -279v-602h-192v539q0 297 -221 297q-115 0 -187 -88q-73 -89 -73 -232v-516h-193v762q0 124 -8 209z"/>
<glyph unicode="o" horiz-adv-x="1249" d="M102 487q0 223 150 368q148 142 372 142q225 0 374 -142q151 -145 151 -368q0 -222 -151 -369q-150 -145 -374 -145t-372 145q-150 146 -150 369zM301 487q0 -145 84 -245q90 -107 239 -107q150 0 240 107q84 99 84 245t-84 245q-90 106 -240 106q-149 0 -239 -106 q-84 -99 -84 -245z"/>
<glyph unicode="p" horiz-adv-x="1298" d="M165 -492v1463h188v-152h7q110 178 350 178q214 0 351 -147q134 -145 134 -363t-132 -363q-138 -151 -357 -151q-229 0 -342 172h-6v-637h-193zM345 485q0 -144 90 -245q94 -105 238 -105q151 0 241 108q82 99 82 244q0 146 -82 244q-90 107 -241 107q-144 0 -238 -107 q-90 -101 -90 -246z"/>
<glyph unicode="q" horiz-adv-x="1296" d="M100 487q0 219 135 363q137 147 352 147q237 0 351 -178h6v152h186v-1463h-192v637h-4q-114 -172 -345 -172q-219 0 -356 151q-133 145 -133 363zM301 487q0 -145 81 -244q90 -108 240 -108q144 0 238 105q90 101 90 245q0 145 -90 246q-94 107 -238 107 q-151 0 -240 -107q-81 -98 -81 -244z"/>
<glyph unicode="r" horiz-adv-x="741" d="M157 971h182q8 -99 8 -164h7q90 190 297 190q45 0 75 -8l-8 -178q-41 10 -88 10q-131 0 -205 -95q-67 -85 -67 -216v-510h-193v762q0 124 -8 209z"/>
<glyph unicode="s" horiz-adv-x="909" d="M53 147l137 117q92 -135 258 -135q193 0 193 141q0 64 -65 100q-52 30 -189 62q-283 67 -283 268q0 147 114 227q100 70 253 70q246 0 352 -159l-133 -113q-75 121 -225 121q-181 0 -181 -127q0 -58 56 -91q46 -28 166 -55q325 -72 325 -286q0 -161 -120 -243 q-102 -71 -267 -71q-254 0 -391 174z"/>
<glyph unicode="t" horiz-adv-x="673" d="M6 813v158h186v278h191v-278h258v-158h-258v-506q0 -164 137 -164q64 0 113 25l6 -158q-73 -26 -164 -26q-283 0 -283 303v526h-186z"/>
<glyph unicode="u" horiz-adv-x="1191" d="M157 369v602h193v-537q0 -299 221 -299q115 0 187 88q73 88 73 232v516h192v-762q0 -124 8 -209h-182q-8 98 -8 160h-4q-38 -79 -124 -132q-90 -55 -194 -55q-178 0 -274 117q-88 105 -88 279z"/>
<glyph unicode="v" horiz-adv-x="1032" d="M18 971h213l285 -764h4l286 764h205l-389 -971h-209z"/>
<glyph unicode="w" horiz-adv-x="1583" d="M28 971h209l219 -742h4l232 742h202l236 -742h4l219 742h203l-322 -971h-200l-240 729h-4l-238 -729h-200z"/>
<glyph unicode="x" horiz-adv-x="1046" d="M14 0l389 510l-354 461h237l238 -334l240 334h225l-350 -459l391 -512h-240l-270 379l-275 -379h-231z"/>
<glyph unicode="y" horiz-adv-x="1032" d="M18 971h215l301 -762h4l268 762h205l-471 -1200q-103 -263 -336 -263q-66 0 -127 15l19 170q49 -17 96 -17q117 0 180 162l62 162z"/>
<glyph unicode="z" horiz-adv-x="946" d="M67 0v158l549 655h-522v158h764v-158l-553 -651h575v-162h-813z"/>
<glyph unicode="{" horiz-adv-x="645" d="M10 514v152q152 0 152 184v385q0 133 73 203q64 61 168 61h139v-141h-104q-104 0 -104 -148v-374q0 -117 -75 -186q-53 -49 -116 -58v-4q65 -7 116 -54q75 -69 75 -196v-369q0 -147 104 -147h104v-141h-139q-104 0 -168 61q-73 70 -73 203v377q0 192 -152 192z"/>
<glyph unicode="|" horiz-adv-x="454" d="M143 -512v2048h168v-2048h-168z"/>
<glyph unicode="}" horiz-adv-x="645" d="M102 -178h106q103 0 103 147v369q0 127 75 196q51 47 117 54v4q-64 9 -117 58q-75 69 -75 186v374q0 148 -103 148h-106v141h139q104 0 169 -61q73 -70 73 -203v-385q0 -184 151 -184v-152q-151 0 -151 -192v-377q0 -133 -73 -203q-65 -61 -169 -61h-139v141z"/>
<glyph unicode="~" horiz-adv-x="1363" d="M165 586q121 200 295 200q115 0 235 -77q126 -80 203 -80q102 0 178 139l121 -113q-120 -198 -295 -198q-111 0 -237 78q-124 77 -201 77q-102 0 -178 -139z"/>
<glyph unicode="­" horiz-adv-x="655" d="M90 418v164h475v-164h-475z"/>
<glyph unicode="А" horiz-adv-x="1456" d="M10 0l629 1450h184l623 -1450h-230l-147 356h-688l-146 -356h-225zM452 535h543l-270 679z"/>
<glyph unicode="Б" horiz-adv-x="1296" d="M176 0v1450h905v-174h-702v-436h272q241 0 380 -102q149 -109 149 -318q0 -208 -148 -318q-137 -102 -379 -102h-477zM379 172h252q344 0 344 246q0 250 -344 250h-252v-496z"/>
<glyph unicode="В" horiz-adv-x="1314" d="M176 0v1450h500q189 0 309 -80q145 -96 145 -287q0 -246 -254 -315v-4q144 -17 231 -109q91 -95 91 -243q0 -201 -159 -311q-146 -101 -386 -101h-477zM379 172h254q360 0 360 250q0 244 -342 244h-272v-494zM379 838h264q125 0 201 53q84 60 84 172q0 217 -318 217h-231 v-442z"/>
<glyph unicode="Г" horiz-adv-x="1038" d="M176 0v1450h846v-178h-643v-1272h-203z"/>
<glyph unicode="Д" horiz-adv-x="1564" d="M30 180h119q237 257 237 887v383h953v-1270h164v-524h-185v344h-1104v-344h-184v524zM388 180h748v1092h-553v-219q0 -601 -195 -873z"/>
<glyph unicode="Е" horiz-adv-x="1230" d="M176 0v1450h930v-178h-727v-434h684v-174h-684v-484h758v-180h-961z"/>
<glyph unicode="Ж" horiz-adv-x="2041" d="M-4 0l698 791l-661 659h270l617 -639v639h202v-639l615 639h272l-661 -659l698 -791h-278l-646 745v-745h-202v745l-645 -745h-279z"/>
<glyph unicode="З" horiz-adv-x="1208" d="M65 176l150 133q122 -174 350 -174q141 0 231 73q94 76 94 204q0 254 -370 254h-95v172h97q327 0 327 247q0 103 -75 167q-77 65 -203 65q-206 0 -313 -141l-138 124q149 187 449 187q218 0 346 -102q131 -105 131 -289q0 -125 -73 -216q-70 -86 -183 -116v-4 q135 -29 218 -119q91 -98 91 -238q0 -203 -160 -326q-148 -114 -368 -114q-327 0 -506 213z"/>
<glyph unicode="И" horiz-adv-x="1513" d="M176 0v1450h203v-1149h4l731 1149h223v-1450h-203v1149h-4l-731 -1149h-223z"/>
<glyph unicode="Й" horiz-adv-x="1513" d="M176 0v1450h203v-1149h4l731 1149h223v-1450h-203v1149h-4l-731 -1149h-223zM436 1849l117 23q26 -160 198 -160q173 0 199 160l117 -23q-15 -126 -101 -200q-85 -72 -215 -72q-129 0 -214 72q-86 74 -101 200z"/>
<glyph unicode="К" horiz-adv-x="1349" d="M176 0v1450h203v-639h4l647 639h281l-705 -664l748 -786h-291l-680 750h-4v-750h-203z"/>
<glyph unicode="Л" horiz-adv-x="1556" d="M18 4l27 180q43 -14 88 -14q168 0 239 200q74 207 74 715v365h934v-1450h-203v1272h-534v-240q0 -545 -104 -789q-110 -257 -365 -257q-95 0 -156 18z"/>
<glyph unicode="М" horiz-adv-x="1849" d="M176 0v1450h315l435 -1114h4l428 1114h315v-1450h-203v1212h-4l-481 -1212h-129l-479 1212h-4v-1212h-197z"/>
<glyph unicode="Н" horiz-adv-x="1492" d="M176 0v1450h203v-606h735v606h203v-1450h-203v664h-735v-664h-203z"/>
<glyph unicode="О" horiz-adv-x="1738" d="M102 727q0 337 218 550q215 210 548 210q335 0 551 -210q219 -213 219 -550q0 -333 -219 -549q-218 -215 -551 -215q-332 0 -548 215q-218 215 -218 549zM321 727q0 -248 149 -412q154 -170 398 -170q247 0 401 170q150 164 150 412q0 245 -149 410q-155 172 -402 172 q-244 0 -399 -172q-148 -165 -148 -410z"/>
<glyph unicode="П" horiz-adv-x="1484" d="M176 0v1450h1133v-1450h-203v1272h-727v-1272h-203z"/>
<glyph unicode="Р" d="M176 0v1450h442q519 0 519 -403q0 -209 -152 -314q-137 -96 -377 -96h-229v-637h-203zM379 809h215q338 0 338 238q0 231 -334 231h-219v-469z"/>
<glyph unicode="С" horiz-adv-x="1449" d="M102 727q0 336 221 550q217 210 551 210q358 0 520 -225l-159 -123q-121 170 -361 170q-246 0 -401 -172q-150 -165 -150 -410q0 -250 147 -414q153 -170 398 -170q257 0 389 193l162 -111q-192 -262 -553 -262q-334 0 -549 215t-215 549z"/>
<glyph unicode="Т" horiz-adv-x="1165" d="M16 1272v178h1133v-178h-465v-1272h-203v1272h-465z"/>
<glyph unicode="У" horiz-adv-x="1304" d="M-8 1450h236l438 -795l422 795h225l-639 -1167q-83 -154 -156 -218q-96 -83 -237 -83q-86 0 -158 14l29 184q49 -16 112 -16q130 0 217 166l72 131z"/>
<glyph unicode="Ф" horiz-adv-x="1748" d="M92 748q0 280 188 443q182 157 490 165v131h207v-131q309 -8 491 -165q189 -163 189 -443q0 -269 -189 -438q-189 -170 -491 -173v-174h-207v174q-301 3 -490 173q-188 169 -188 438zM309 745q0 -396 461 -430v865q-224 -12 -346 -134q-115 -115 -115 -301zM977 315 q463 34 463 430q0 187 -116 301q-122 122 -347 134v-865z"/>
<glyph unicode="Х" horiz-adv-x="1368" d="M36 0l518 768l-467 682h248l348 -541l344 541h238l-463 -686l526 -764h-256l-397 610l-389 -610h-250z"/>
<glyph unicode="Ц" horiz-adv-x="1531" d="M176 0v1450h203v-1270h727v1270h203v-1270h161v-524h-184v344h-1110z"/>
<glyph unicode="Ч" horiz-adv-x="1331" d="M147 940v510h203v-473q0 -260 293 -260q205 0 309 43v690h203v-1450h-203v586q-158 -45 -332 -45q-473 0 -473 399z"/>
<glyph unicode="Ш" horiz-adv-x="2172" d="M176 0v1450h203v-1270h606v1270h203v-1270h606v1270h203v-1450h-1821z"/>
<glyph unicode="Щ" horiz-adv-x="2220" d="M176 0v1450h203v-1270h606v1270h203v-1270h606v1270h203v-1270h161v-524h-184v344h-1798z"/>
<glyph unicode="Ъ" horiz-adv-x="1427" d="M20 1272v178h555v-602h236q242 0 383 -103q151 -111 151 -321q0 -209 -149 -320q-140 -104 -381 -104h-443v1272h-352zM575 172h219q346 0 346 250q0 254 -346 254h-219v-504z"/>
<glyph unicode="Ы" horiz-adv-x="1736" d="M176 0v1450h203v-602h233q244 0 384 -103q151 -111 151 -321q0 -209 -149 -320q-140 -104 -382 -104h-440zM379 172h217q346 0 346 250q0 254 -346 254h-217v-504zM1358 0v1450h202v-1450h-202z"/>
<glyph unicode="Ь" horiz-adv-x="1228" d="M176 0v1450h203v-602h233q244 0 384 -103q151 -111 151 -321q0 -209 -149 -320q-140 -104 -382 -104h-440zM379 172h217q346 0 346 250q0 254 -346 254h-217v-504z"/>
<glyph unicode="Э" horiz-adv-x="1449" d="M30 225l154 111q137 -193 401 -193q231 0 382 152q146 146 157 369h-678v174h674q-29 202 -170 333q-149 138 -365 138q-260 0 -379 -170l-149 127q166 221 528 221q326 0 543 -214q219 -217 219 -548q0 -332 -217 -548q-215 -214 -545 -214q-375 0 -555 262z"/>
<glyph unicode="Ю" horiz-adv-x="2195" d="M176 0v1450h203v-606h291q32 282 224 460q196 183 484 183q316 0 517 -220q198 -215 198 -542q0 -326 -198 -542q-202 -222 -517 -222q-303 0 -501 199q-193 195 -212 504h-286v-664h-203zM881 725q0 -241 129 -404q138 -176 368 -176q227 0 366 176q130 163 130 404 t-130 405q-139 177 -366 177q-230 0 -368 -177q-129 -164 -129 -405z"/>
<glyph unicode="Я" horiz-adv-x="1259" d="M59 0l391 627q-340 76 -340 403q0 210 146 318q137 102 387 102h440v-1450h-203v604h-219l-356 -604h-246zM313 1028q0 -256 350 -256h217v506h-221q-346 0 -346 -250z"/>
<glyph unicode="а" horiz-adv-x="1110" d="M94 274q0 198 215 274q153 54 461 54v27q0 213 -240 213q-164 0 -276 -113l-103 123q152 145 398 145q200 0 307 -109q98 -101 98 -272v-423q0 -127 14 -193h-174q-16 69 -16 139h-6q-109 -164 -326 -164q-137 0 -233 66q-119 81 -119 233zM291 279q0 -152 198 -152 q132 0 208 81q73 77 73 204v51h-47q-432 0 -432 -184z"/>
<glyph unicode="б" horiz-adv-x="1267" d="M118 629q0 392 77 564q99 221 374 255l272 33q152 19 174 96l139 -41q-44 -182 -252 -211l-268 -35q-197 -24 -274 -124q-89 -114 -97 -406h7q119 233 415 233q206 0 342 -142q138 -143 138 -366q0 -224 -149 -369q-147 -143 -372 -143q-270 0 -413 185 q-113 146 -113 471zM319 487q0 -149 85 -248q91 -104 238 -104q148 0 239 104q87 99 87 248q0 150 -87 249q-92 104 -241 104q-146 0 -236 -104q-85 -99 -85 -249z"/>
<glyph unicode="в" horiz-adv-x="1118" d="M165 0v971h477q328 0 328 -252q0 -167 -168 -205v-4q94 -13 152 -74q61 -64 61 -164q0 -126 -100 -200q-99 -72 -265 -72h-485zM358 154h262q198 0 198 135q0 137 -188 137h-272v-272zM358 571h268q155 0 155 125t-176 125h-247v-250z"/>
<glyph unicode="г" horiz-adv-x="868" d="M165 0v971h662v-158h-469v-813h-193z"/>
<glyph unicode="д" horiz-adv-x="1243" d="M36 160h106q146 186 146 557v254h747v-811h150v-457h-168v297h-813v-297h-168v457zM351 160h494v653h-373v-147q0 -294 -121 -506z"/>
<glyph unicode="е" horiz-adv-x="1173" d="M102 483q0 226 144 371q142 143 358 143q215 0 341 -136q126 -135 126 -367q0 -43 -2 -66h-770q4 -124 96 -210q91 -85 219 -85q183 0 283 148l135 -109q-154 -199 -418 -199q-223 0 -367 141q-145 142 -145 369zM299 571h577q-3 121 -71 195q-73 80 -201 80 q-123 0 -210 -81q-86 -78 -95 -194z"/>
<glyph unicode="ж" horiz-adv-x="1564" d="M4 0l463 508l-422 463h252l383 -451h6v451h192v-451h7l383 451h252l-424 -463l464 -508h-253l-422 479h-7v-479h-192v479h-6l-422 -479h-254z"/>
<glyph unicode="з" horiz-adv-x="966" d="M45 154l131 112q93 -141 279 -141q215 0 215 151q0 152 -256 152h-72v143h70q229 0 229 148q0 127 -195 127q-154 0 -239 -123l-123 104q114 170 379 170q166 0 268 -69q105 -71 105 -195q0 -81 -58 -144q-55 -60 -141 -79v-4q101 -18 163 -79q64 -65 64 -159 q0 -139 -116 -220q-109 -77 -283 -77q-277 0 -420 183z"/>
<glyph unicode="и" horiz-adv-x="1234" d="M165 0v971h193v-701h2l497 701h211v-971h-192v702h-4l-496 -702h-211z"/>
<glyph unicode="й" horiz-adv-x="1234" d="M165 0v971h193v-701h2l497 701h211v-971h-192v702h-4l-496 -702h-211zM298 1442l113 16q25 -155 196 -155q172 0 197 155l113 -22q-16 -126 -97 -197q-82 -72 -213 -72t-213 75q-80 73 -96 200z"/>
<glyph unicode="к" horiz-adv-x="1077" d="M167 0v971h193v-445h6l409 445h256l-450 -461l491 -510h-260l-446 475h-6v-475h-193z"/>
<glyph unicode="л" horiz-adv-x="1224" d="M24 2l16 162q31 -10 66 -10q104 0 152 101q55 113 55 378v338h745v-971h-192v813h-367v-231q0 -594 -350 -594q-72 0 -125 14z"/>
<glyph unicode="м" horiz-adv-x="1515" d="M165 0v971h272l320 -709h2l315 709h275v-971h-191v743h-4l-342 -743h-117l-337 745h-3v-745h-190z"/>
<glyph unicode="н" horiz-adv-x="1198" d="M165 0v971h193v-385h481v385h192v-971h-192v428h-481v-428h-193z"/>
<glyph unicode="о" horiz-adv-x="1249" d="M102 487q0 223 150 368q148 142 372 142q225 0 374 -142q151 -145 151 -368q0 -222 -151 -369q-150 -145 -374 -145t-372 145q-150 146 -150 369zM301 487q0 -145 84 -245q90 -107 239 -107q150 0 240 107q84 99 84 245t-84 245q-90 106 -240 106q-149 0 -239 -106 q-84 -99 -84 -245z"/>
<glyph unicode="п" horiz-adv-x="1191" d="M165 0v971h860v-971h-192v813h-475v-813h-193z"/>
<glyph unicode="р" horiz-adv-x="1298" d="M165 -492v1463h188v-152h7q110 178 350 178q214 0 351 -147q134 -145 134 -363t-132 -363q-138 -151 -357 -151q-229 0 -342 172h-6v-637h-193zM345 485q0 -144 90 -245q94 -105 238 -105q151 0 241 108q82 99 82 244q0 146 -82 244q-90 107 -241 107q-144 0 -238 -107 q-90 -101 -90 -246z"/>
<glyph unicode="с" horiz-adv-x="1011" d="M102 485q0 227 148 371q145 141 370 141q243 0 365 -159l-140 -113q-71 111 -223 111q-145 0 -234 -106q-83 -98 -83 -245q0 -145 83 -244q90 -106 236 -106q151 0 234 107l129 -117q-132 -152 -363 -152q-227 0 -373 140q-149 143 -149 372z"/>
<glyph unicode="т" horiz-adv-x="933" d="M40 813v158h852v-158h-330v-813h-192v813h-330z"/>
<glyph unicode="у" horiz-adv-x="1032" d="M18 971h215l301 -762h4l268 762h205l-471 -1200q-103 -263 -336 -263q-66 0 -127 15l19 170q49 -17 96 -17q117 0 180 162l62 162z"/>
<glyph unicode="ф" horiz-adv-x="1521" d="M98 481q0 236 151 372q151 137 414 138v557h193v-557q265 -1 416 -138q151 -136 151 -372q0 -232 -150 -370q-152 -140 -417 -142v-461h-193v461q-263 2 -415 142q-150 138 -150 370zM299 483q0 -166 93 -258q95 -94 271 -96v702q-175 -3 -270 -94q-94 -91 -94 -254z M856 129q177 2 273 96q93 92 93 258q0 162 -95 254q-95 91 -271 94v-702z"/>
<glyph unicode="х" horiz-adv-x="1046" d="M14 0l389 510l-354 461h237l238 -334l240 334h225l-350 -459l391 -512h-240l-270 379l-275 -379h-231z"/>
<glyph unicode="ц" horiz-adv-x="1228" d="M165 0v971h193v-809h475v809h192v-809h148v-459h-166v297h-842z"/>
<glyph unicode="ч" horiz-adv-x="1091" d="M131 653v318h188v-275q0 -113 53 -157q45 -37 148 -37t213 30v439h193v-971h-193v379q-119 -33 -270 -33q-332 0 -332 307z"/>
<glyph unicode="ш" horiz-adv-x="1744" d="M165 0v971h193v-809h415v809h193v-809h413v809h193v-971h-1407z"/>
<glyph unicode="щ" horiz-adv-x="1777" d="M165 0v971h193v-809h415v809h193v-809h413v809h193v-809h149v-457h-167v295h-1389z"/>
<glyph unicode="ъ" horiz-adv-x="1200" d="M40 813v158h467v-353h223q180 0 281 -77q106 -80 106 -232q0 -149 -104 -230q-102 -79 -283 -79h-416v813h-274zM507 154h199q217 0 217 153q0 160 -217 160h-199v-313z"/>
<glyph unicode="ы" horiz-adv-x="1507" d="M165 0v971h193v-353h221q180 0 281 -77q106 -80 106 -232q0 -149 -104 -230q-101 -79 -281 -79h-416zM358 154h198q215 0 215 153q0 160 -215 160h-198v-313zM1148 0v971h193v-971h-193z"/>
<glyph unicode="ь" horiz-adv-x="1038" d="M165 0v971h193v-353h221q180 0 281 -77q106 -80 106 -232q0 -149 -104 -230q-101 -79 -281 -79h-416zM358 154h198q215 0 215 153q0 160 -215 160h-198v-313z"/>
<glyph unicode="э" horiz-adv-x="1024" d="M24 127l121 117q95 -111 250 -111q137 0 225 81q86 79 100 212h-424v158h418q-17 107 -102 181q-88 75 -203 75q-161 0 -256 -111l-123 119q127 149 371 149q234 0 377 -142t143 -372q0 -229 -144 -369q-143 -141 -378 -141q-241 0 -375 154z"/>
<glyph unicode="ю" horiz-adv-x="1667" d="M165 0v971h193v-385h200q31 184 168 298q137 113 330 113q219 0 363 -143q145 -145 145 -369t-145 -370q-144 -144 -363 -144q-203 0 -342 127q-140 127 -160 330h-196v-428h-193zM747 485q0 -151 83 -248q86 -102 226 -102q141 0 227 102q82 97 82 248q0 152 -82 249 q-86 102 -227 102t-227 -102q-82 -97 -82 -249z"/>
<glyph unicode="я" horiz-adv-x="1120" d="M98 0l252 381q-227 57 -227 285q0 148 106 229q100 76 272 76h453v-971h-192v362h-207l-221 -362h-236zM311 666q0 -154 223 -154h228v307h-228q-223 0 -223 -153z"/>
<glyph unicode=" " horiz-adv-x="936"/>
<glyph unicode=" " horiz-adv-x="1872"/>
<glyph unicode=" " horiz-adv-x="936"/>
<glyph unicode=" " horiz-adv-x="1872"/>
<glyph unicode=" " horiz-adv-x="624"/>
<glyph unicode=" " horiz-adv-x="468"/>
<glyph unicode=" " horiz-adv-x="312"/>
<glyph unicode=" " horiz-adv-x="312"/>
<glyph unicode=" " horiz-adv-x="234"/>
<glyph unicode=" " horiz-adv-x="374"/>
<glyph unicode=" " horiz-adv-x="104"/>
<glyph unicode="‐" horiz-adv-x="655" d="M90 418v164h475v-164h-475z"/>
<glyph unicode="‑" horiz-adv-x="655" d="M90 418v164h475v-164h-475z"/>
<glyph unicode="‒" horiz-adv-x="655" d="M90 418v164h475v-164h-475z"/>
<glyph unicode="–" horiz-adv-x="1204" d="M90 418v164h1024v-164h-1024z"/>
<glyph unicode="—" horiz-adv-x="2228" d="M90 418v164h2048v-164h-2048z"/>
<glyph unicode=" " horiz-adv-x="374"/>
<glyph unicode=" " horiz-adv-x="468"/>
<glyph unicode="◼" horiz-adv-x="970" d="M0 0v970h970v-970h-970z"/>
</font>
</defs>
</svg>
