<svg xmlns="http://www.w3.org/2000/svg" viewBox="0 0 199.3447 173.4858"><script xmlns="" type="text/javascript" charset="utf-8" id="zm-extension"/>
  <defs>
    <style>
      .a, .c, .d, .e, .f, .g, .h {
        fill-rule: evenodd;
      }

      .b, .h {
        fill: #ffe649;
      }

      .c {
        fill: red;
      }

      .d {
        fill: #226e27;
      }

      .e {
        fill: #f5f4f1;
      }

      .f {
        fill: #fff;
      }

      .g {
        fill: #040405;
      }
    </style>
  </defs>
  <title>Pizza_logo</title>
  <path d="M138.8395,61.9114a11.46,11.46,0,0,0,.53,1.6648,5.4886,5.4886,0,0,0,.7857,1.3626,3.0391,3.0391,0,0,0,1.1033.8445,2.184,2.184,0,0,0,1.42.0714,3.2408,3.2408,0,0,0,2.0687-1.6778,11.2464,11.2464,0,0,0,1.17-3.1411,20.7674,20.7674,0,0,0,.4507-3.5461,21.2394,21.2394,0,0,0-.0731-2.952l-.362-10.7924a6.1531,6.1531,0,0,0-2.6306,1.3978,10.4644,10.4644,0,0,0-2.0908,2.569,17.9577,17.9577,0,0,0-1.5412,3.3313,21.8708,21.8708,0,0,0-.95,3.7313,22.4307,22.4307,0,0,0-.2894,3.7468,15.4156,15.4156,0,0,0,.4079,3.39m-32.614,12.9977a2.6586,2.6586,0,0,1-.0236-1.3456,4.1707,4.1707,0,0,1,.4952-1.131,10.7908,10.7908,0,0,1,.8232-1.1869,11.2285,11.2285,0,0,0,.9448-1.468L115.78,52.5183a11.1119,11.1119,0,0,1-1.2144-.2594c-.3478-.0808-.659-.1692-.9275-.23a4.1222,4.1222,0,0,0-.8234-.1149,3.2643,3.2643,0,0,0-.8612.0953q-1.1271.2755-1.8538.4884a4.15,4.15,0,0,0-1.1815.5409,2.959,2.959,0,0,0-.7532.8518,8.455,8.455,0,0,0-.5927,1.41,19.1622,19.1622,0,0,1-1.2285,2.9,2.045,2.045,0,0,1-1.1322,1.11.8306.8306,0,0,1-.9094-.31,3.3945,3.3945,0,0,1-.5547-1.2937c-.0575-.2373-.1069-.4913-.1474-.7583-.0391-.27-.0717-.5525-.0924-.8507a17.4172,17.4172,0,0,1,.3061-5.292,9.7235,9.7235,0,0,1,1.4709-3.4537,6.8946,6.8946,0,0,1,2.1782-2.0089,9.5418,9.5418,0,0,1,2.332-.9587,4.06,4.06,0,0,1,1.781-.004c.6279.1381,1.2493.3022,1.876.4913s1.2611.35,1.9.4858a4.7045,4.7045,0,0,0,1.8706,0c.4717-.09.8926-.18,1.2861-.2749.3815-.0923.74-.18,1.06-.258.9315-.2265,1.68-.4206,2.2212-.59.5511-.1732.9692-.3242,1.2442-.4417a3.89,3.89,0,0,0,.59-.27.9415.9415,0,0,1,.2631-.1148,1.983,1.983,0,0,1,1.9752.43,4.396,4.396,0,0,1,1.1,2.1837,10.5958,10.5958,0,0,1,.2906,2.0766,1.6932,1.6932,0,0,1-.529.8884,6.8587,6.8587,0,0,1-1.9009,1.3329,23.4371,23.4371,0,0,1-.8677,2.5117q-.6253,1.63-1.4969,3.6607-.8577,2.0112-1.79,4.1769c-.6373,1.4317-1.2325,2.7776-1.798,4.0385-.5653,1.2625-1.07,2.3581-1.4982,3.2961-.4311.9275-.71,1.55-.8546,1.889l.004.7452a4.9059,4.9059,0,0,1,.6786.0873c.4456.0678.955.133,1.5372.1942.5746.0743,1.1908.1145,1.8281.1366a5.86,5.86,0,0,0,1.61-.1391,8.1377,8.1377,0,0,0,2.568-1.0789,11.5013,11.5013,0,0,0,1.9723-1.6557,19.6885,19.6885,0,0,0,1.5789-1.8749c.4742-.646.9184-1.26,1.3615-1.8343a10.8781,10.8781,0,0,1,1.3666-1.4941,3.4211,3.4211,0,0,1,1.5633-.8481,2.3772,2.3772,0,0,1,1.2832.0286,2.9887,2.9887,0,0,1,1.101.58,3.3888,3.3888,0,0,1,.8286.96,4.0169,4.0169,0,0,1,.4833,1.16,3.845,3.845,0,0,1-.2475,2.31,11.51,11.51,0,0,1-1.5412,2.6487,21.49,21.49,0,0,1-2.5223,2.7241,31.2989,31.2989,0,0,1-3.1762,2.5285,26.03,26.03,0,0,1-3.5422,2.0611,17.2446,17.2446,0,0,1-3.55,1.3053,5.846,5.846,0,0,1-.76.0471c-.4166,0-.9782-.0275-1.69-.0938s-1.5307-.1591-2.4752-.3087a31.1357,31.1357,0,0,1-3.1632-.6333,8.1424,8.1424,0,0,1-2.2.9771,4.1653,4.1653,0,0,1-1.9035.0717,3.6242,3.6242,0,0,1-1.5177-.68,4.0808,4.0808,0,0,1-1.1009-1.2495A5.9949,5.9949,0,0,1,106.2255,74.9091Zm-23.527,5.7221a2.6609,2.6609,0,0,1-.0247-1.3459,4.2013,4.2013,0,0,1,.4964-1.1308,10.6346,10.6346,0,0,1,.822-1.1883,11.21,11.21,0,0,0,.9456-1.4669L92.2518,58.24a11.1663,11.1663,0,0,1-1.213-.2591c-.3489-.0808-.66-.1695-.9274-.2307a4.1339,4.1339,0,0,0-.8246-.1145,3.1949,3.1949,0,0,0-.8612.0949q-1.1277.2739-1.8527.4887A4.1631,4.1631,0,0,0,85.39,58.76a2.9569,2.9569,0,0,0-.7529.8521,8.6526,8.6526,0,0,0-.5927,1.4082,19.0868,19.0868,0,0,1-1.2286,2.9013,2.0446,2.0446,0,0,1-1.1321,1.11.8309.8309,0,0,1-.9094-.31,3.3945,3.3945,0,0,1-.555-1.2937c-.0573-.237-.1069-.491-.146-.7583-.04-.27-.0717-.5522-.0938-.8506a17.4719,17.4719,0,0,1,.3061-5.2932,9.7579,9.7579,0,0,1,1.4723-3.4537,6.8924,6.8924,0,0,1,2.1782-2.0075,9.46,9.46,0,0,1,2.3306-.959,4.0681,4.0681,0,0,1,1.781-.0039c.6279.1383,1.2493.3024,1.876.4912s1.2611.35,1.9009.4859a4.7033,4.7033,0,0,0,1.8695,0c.4714-.09.8923-.18,1.2858-.2747.3818-.0927.74-.18,1.0618-.258.9315-.2267,1.6793-.4209,2.22-.59.5525-.1735.9695-.3246,1.2442-.4417a3.9673,3.9673,0,0,0,.5915-.27.892.892,0,0,1,.2631-.1146,1.9826,1.9826,0,0,1,1.9752.43,4.4187,4.4187,0,0,1,1.0995,2.1835,10.6694,10.6694,0,0,1,.29,2.0767,1.7,1.7,0,0,1-.53.8872,6.8263,6.8263,0,0,1-1.8995,1.334,23.2406,23.2406,0,0,1-.8688,2.5118q-.6237,1.63-1.497,3.6609-.8559,2.0108-1.79,4.1766c-.637,1.4306-1.2325,2.7777-1.7978,4.0388s-1.07,2.3578-1.4984,3.2958c-.4311.9264-.71,1.5506-.8546,1.8893l.004.745a5,5,0,0,1,.6789.0861c.4453.0689.9547.1341,1.5383.1953.5746.0743,1.1908.1148,1.8267.137a5.8724,5.8724,0,0,0,1.61-.1395,8.123,8.123,0,0,0,2.5676-1.0786,11.5071,11.5071,0,0,0,1.9738-1.656,19.9,19.9,0,0,0,1.5778-1.8745c.4742-.6463.9195-1.26,1.3612-1.8346a10.8421,10.8421,0,0,1,1.368-1.4942,3.4153,3.4153,0,0,1,1.5633-.8481,2.37,2.37,0,0,1,1.2832.0286,3.02,3.02,0,0,1,1.101.5786,3.405,3.405,0,0,1,.8271.9615,4.0084,4.0084,0,0,1,.4848,1.1594,3.8363,3.8363,0,0,1-.2489,2.31,11.4017,11.4017,0,0,1-1.5412,2.6487,21.4871,21.4871,0,0,1-2.5209,2.7241,31.47,31.47,0,0,1-3.1776,2.5288,26.0463,26.0463,0,0,1-3.5422,2.0611,17.26,17.26,0,0,1-3.5487,1.3053,5.8725,5.8725,0,0,1-.76.0468c-.4167,0-.98-.0272-1.6909-.0938s-1.53-.1588-2.4752-.3087a31.3131,31.3131,0,0,1-3.1621-.6333,8.1386,8.1386,0,0,1-2.2016.9771,4.16,4.16,0,0,1-1.9021.0718,3.6258,3.6258,0,0,1-1.5191-.68,4.064,4.064,0,0,1-1.0995-1.2492A5.9093,5.9093,0,0,1,82.6985,80.6311Zm5.7909-2.3687a32.7018,32.7018,0,0,1-2.5249,3.2295,35.1338,35.1338,0,0,1-3.4472,3.3914,32.39,32.39,0,0,1-3.9812,2.9013,14.281,14.281,0,0,1-4.1037,1.7807,8.412,8.412,0,0,1-3.1777.2424,5.28,5.28,0,0,1-2.36-.929,5.6937,5.6937,0,0,1-1.6378-1.9513,12.4929,12.4929,0,0,1-1.037-2.8063,30.4907,30.4907,0,0,1-.7307-5.245q-.2071-3.0389-.2308-6.35c-.0181-2.2067-.009-4.4073.034-6.6169s.0689-4.2378.0624-6.0811a3.1567,3.1567,0,0,1,.5993-1.8006,6.5492,6.5492,0,0,1,1.4031-1.4525,9.1473,9.1473,0,0,1,1.7785-1.0528,9.709,9.709,0,0,1,1.7521-.6423,2.8648,2.8648,0,0,1,2.1248.0652,2.062,2.062,0,0,1,.8768,1.3158,11.168,11.168,0,0,1,.1967,2.3165c-.0037,1.0239-.0261,2.18-.0859,3.4951-.05,1.3-.0964,2.7151-.1485,4.2186-.0638,1.5074-.0913,3.0055-.0939,4.4971-.013,1.5075.034,2.9469.133,4.34a21.443,21.443,0,0,0,.521,3.7026,7.37,7.37,0,0,0,.9666,2.4179,1.4045,1.4045,0,0,0,1.656.5707,5.8922,5.8922,0,0,0,2.5795-1.55,26.123,26.123,0,0,0,2.6-2.87q1.2765-1.6161,2.4546-3.3128c.7854-1.1387,1.485-2.1053,2.0948-2.9223ZM45.0167,40.6889A53.6343,53.6343,0,0,0,41.6125,56.34l.0273,4.1754.3506,2.8455a22.3468,22.3468,0,0,0,5.4964-3.119,15.0955,15.0955,0,0,0,3.4549-3.7193A10.7063,10.7063,0,0,0,52.51,52.4752a10.3225,10.3225,0,0,0-.1576-4.08A11.8846,11.8846,0,0,0,50.629,44.58a9.7542,9.7542,0,0,0-3.507-3.0889A16.7378,16.7378,0,0,0,45.0167,40.6889ZM31.6944,56.351A47.6167,47.6167,0,0,1,34.79,40.4477c-.4572.0938-.9263.2-1.4042.3156a15.318,15.318,0,0,0-6.07,2.8907A18.0387,18.0387,0,0,0,23.1,48.5591a24.1471,24.1471,0,0,0-2.569,6.3236,38.1219,38.1219,0,0,0-1.1154,7.2085,48.5939,48.5939,0,0,0,.1695,7.5534,54.547,54.547,0,0,0,1.2455,7.3046c.2319.9539.5457,2.2422.9482,3.8512.4079,1.6194.8992,3.3324,1.4567,5.1551q.8479,2.7123,1.9191,5.4482a30.1141,30.1141,0,0,0,2.389,4.8387,12.1568,12.1568,0,0,0,2.7973,3.2882,3.5748,3.5748,0,0,0,3.1932.7648,4.3011,4.3011,0,0,0,2.74-1.98,10.2185,10.2185,0,0,0,1.317-3.7327,22.5913,22.5913,0,0,0,.2358-4.7953c-.0717-1.751-.24-3.4813-.4782-5.19-.2421-1.7237-.5352-3.3457-.86-4.8855q-.4847-2.3058-.8767-3.9189l-.4011-1.6452a49.3718,49.3718,0,0,1-5.0511-.9213,11.1506,11.1506,0,0,1-2.91-1.06A3.81,3.81,0,0,1,25.7745,70.73a8.5193,8.5193,0,0,1-.7333-2.0335c-.1018-.417-.1891-.8246-.2673-1.2481a4.134,4.134,0,0,1-.0689-1.12,2.0944,2.0944,0,0,1,.2645-.8858,1.1814,1.1814,0,0,1,.7492-.4992,1.4529,1.4529,0,0,1,.68-.013c.2265.0456.5094.1159.8442.1981.8779.2293,1.6531.4065,2.3527.5275q1.0456.1625,1.7666.2529a13.9517,13.9517,0,0,0,1.4981.0782c-.0729-.2985-.22-.9068-.4258-1.8045S32.05,62.2408,31.9,61.0514a31.99,31.99,0,0,1-.2344-3.7715C31.6672,56.9658,31.6763,56.6585,31.6944,56.351Zm.5043-24.0063a35.757,35.757,0,0,1,6.6532-1.01C49.8424,14.4781,70.77,5.0422,90.4461,3.5412a87.612,87.612,0,0,1,73.5293,31.0739c26.7214,32.063,20.9591,91.9469-11.4307,119.5776-13.0292,11.1126-30.7366,17.602-49.1476,19.01-25.2947,1.9216-47.7757-6.1086-63.03-19.1823C19.1225,135.7922,23.65,121.9761,38.35,140.2256c13.6948,16.9937,34.7687,28.277,64.5152,25.88,33.5885-2.702,64.6846-32.8445,69.1937-65.8778,1.99-14.5377.9731-28.3643-3.5723-40.9167-.1967.3935-.4144.809-.6488,1.2467a26.3826,26.3826,0,0,1-2.3216,3.5972,19.6585,19.6585,0,0,1-3.0407,3.1918,9.0272,9.0272,0,0,1-3.6128,1.876,5.4591,5.4591,0,0,1-4.204-.5576,12.2938,12.2938,0,0,1-3.71-3.6726,16.9552,16.9552,0,0,1-1.58,2.4948,18.3729,18.3729,0,0,1-2.2252,2.4882,17.54,17.54,0,0,1-2.6915,2.0821,10.3343,10.3343,0,0,1-3.0212,1.2923,8.4816,8.4816,0,0,1-3.4341.1134,8.7357,8.7357,0,0,1-3.2922-1.2716,10.0881,10.0881,0,0,1-2.7136-2.6382,11.4012,11.4012,0,0,1-1.7354-3.9632,21.4252,21.4252,0,0,1-.58-5.5576,30.1458,30.1458,0,0,1,.7127-5.8977,31.7315,31.7315,0,0,1,1.8422-5.7308,25.3766,25.3766,0,0,1,2.8738-5.02,18.8794,18.8794,0,0,1,3.7494-3.8563,11.8216,11.8216,0,0,1,4.4844-2.19,2.1715,2.1715,0,0,1,1.3314.0181,3.1229,3.1229,0,0,1,.9249.5315c.2682.2138.521.43.7648.6489a1.8307,1.8307,0,0,0,.84.3895,3.63,3.63,0,0,0,.9133.0184,7.8334,7.8334,0,0,0,.8964-.167c.2616-.0638.5249-.129.784-.2044.271-.0782.53-.1536.7818-.2148a4.3734,4.3734,0,0,1,1.0043-.1318,1.686,1.686,0,0,1,.9213.2579,2.4344,2.4344,0,0,1,.775.847,6.118,6.118,0,0,1,.6086,1.6713,23.7922,23.7922,0,0,1,.5587,3.8069c.0927,1.4188.1811,2.8752.2554,4.3733.0612,1.501.159,2.994.27,4.483a26.9305,26.9305,0,0,0,.6448,4.1664,8.872,8.872,0,0,0,.9224,2.4922,1.2561,1.2561,0,0,0,1.5035.62,3.8251,3.8251,0,0,0,1.4369-.7412,9.6972,9.6972,0,0,0,1.3992-1.364,16.56,16.56,0,0,0,1.3093-1.734c.4286-.6344.8249-1.2872,1.1843-1.9437q.9027-1.6629,1.7745-3.6034a74.0348,74.0348,0,0,0-18.2092-22.9187C122.208,7.4446,69.7371,4.4336,48.6462,32.7431a23.2563,23.2563,0,0,1,2.6146,1.1322A17.9579,17.9579,0,0,1,57.16,38.86a18.2508,18.2508,0,0,1,3.2063,6.7394,18.89,18.89,0,0,1,.3243,7.0988,19.7182,19.7182,0,0,1-2.5042,7.1665,24.6667,24.6667,0,0,1-5.551,6.5311,32.6983,32.6983,0,0,1-8.8524,5.2239q.5159,2.5857.9627,4.733c.1239.6137.2449,1.217.3688,1.8307s.246,1.1658.3557,1.6687c.1094.5054.2058.95.2826,1.3224s.1316.6383.1656.7818a32.1,32.1,0,0,1,.663,5.2214,30.99,30.99,0,0,1-.2137,5.5108,29.9516,29.9516,0,0,1-1.1778,5.34,18.8686,18.8686,0,0,1-2.2615,4.733,15.0337,15.0337,0,0,1-3.4486,3.6947,12.73,12.73,0,0,1-4.7226,2.1977,9.3614,9.3614,0,0,1-5.4768-.2344,14.4665,14.4665,0,0,1-4.9246-3.0487,26.5459,26.5459,0,0,1-4.2744-5.1029,51.606,51.606,0,0,1-3.58-6.4072,66.0184,66.0184,0,0,1-2.8165-6.9593q-1.2234-3.5508-2-6.7669a56.1834,56.1834,0,0,1-1.58-10.9134,50.022,50.022,0,0,1,.559-10.3337,41.2928,41.2928,0,0,1,2.5872-9.3109,32.3414,32.3414,0,0,1,4.5156-7.8336,27.2568,27.2568,0,0,1,6.338-5.8887A25.2085,25.2085,0,0,1,32.1987,32.3446Z"/>
  <path class="a" d="M76.5229,43.1861c.0128.4609-.1658.19-.2151.5108l-.055.0178-.2291-.6366-.5913-1.4519-.155-.3595.87-.4473a12.9122,12.9122,0,0,1,.3753,2.3667m-10.9375,5.59a7.84,7.84,0,0,0,5.453,1.721l.91-.0993a7.6794,7.6794,0,0,0,3.1172-1.2058,7.2936,7.2936,0,0,0,2.4974-2.632,7.5939,7.5939,0,0,0,.9643-3.8633c.0048-2.2139-1.2285-5.0412-3.287-6.056a10.2242,10.2242,0,0,0-1.1033-.4507,10.2728,10.2728,0,0,1-.8986.4989,7.9515,7.9515,0,0,1-1.065.3649,15.3248,15.3248,0,0,0-2.8661.5286l-.4583.2665a4.4824,4.4824,0,0,0-1.4539,1.5661,1.3676,1.3676,0,0,0-.3288.9564l.0524.4816a.78.78,0,0,0,.0825.2617l-.2432-.2444c-.09-.2557-.26-.4022-.2957-.7257l-.0348-.3211c-.1089-.9995,1.0916-2.4231,1.1474-2.8863l-1.5089-.4314c-.2165.1347-.8141.3614-1.1126.5219a4.5735,4.5735,0,0,0-.8983.6942C61.054,40.6853,62.5645,46.3623,65.5854,48.7765Z"/>
  <path class="a" d="M66.2657,36.5061l1.5089.4314c-.0558.4632-1.2563,1.8868-1.1474,2.8863l.0348.3211c.0355.3235.2061.47.2957.7257l.2432.2444a.78.78,0,0,1-.0825-.2617l-.0524-.4816a1.3676,1.3676,0,0,1,.3288-.9564,4.4824,4.4824,0,0,1,1.4539-1.5661l.4583-.2665a15.3248,15.3248,0,0,1,2.8661-.5286,7.9515,7.9515,0,0,0,1.065-.3649,10.2728,10.2728,0,0,0,.8986-.4989c.2024-.3872.6279-.7288.8524-1.1214.2109-.369.532-.7755.7767-1.1823.3787-.63,1.0182-1.9712,1.8992-2.0871l-.0116-.1072-.3745.0408c-2.0075.2186-2.64,4.0235-3.9858,4.17l-.2676.0292c.1131-.735.6653-1.349.5346-2.5489l-.0873-.8026a6.3687,6.3687,0,0,0-.445-1.391c-.1335-.29-.3838-.64-.538-.9195l-.1264.0139L72.36,30.32l.2934,1.7005.0352.3212a4.9671,4.9671,0,0,1-.345,2.799c-.341.6525-.7291.8158-1.6844.9413a10.3248,10.3248,0,0,0-1.2359-2.8973c-.121-.3453-.8331-1.1007-1.252-1.0551l-.3209.0352a.7042.7042,0,0,0-.6676.8305c.0023.021.3144.3427.6069.6381a3.39,3.39,0,0,1,1.0517,2.7238l-.6018-.12a12.865,12.865,0,0,0-3.655-.2517,4.2315,4.2315,0,0,0-3.4279,1.8354c.028-.011.9708-.6945,1.2084-.8356a5.1675,5.1675,0,0,1,1.5647-.5494l.4309-.0966Z"/>
  <polygon class="a" points="72.36 30.32 72.363 30.284 72.294 30.292 72.36 30.32"/>
  <path class="a" d="M73.98,37.2364a9.7363,9.7363,0,0,0-2.5518,1.0616,8.819,8.819,0,0,1,3.0495,1.9806l.15-.0805,1.12-.5171c-.2531-.4328-1.3326-2.4919-1.7671-2.4446m1.4527,4.39.5913,1.4519.2291.6366.055-.0178.1939-.2818c.409-.5944-.216-1.9443-.3541-2.5957l-.87.4473Z"/>
  <path class="b" d="M135.11,58.62a11.4689,11.4689,0,0,0,.53,1.6651,5.48,5.48,0,0,0,.7858,1.3626,3.0357,3.0357,0,0,0,1.1032.8442,2.1851,2.1851,0,0,0,1.42.0717,3.241,3.241,0,0,0,2.0687-1.6778,11.252,11.252,0,0,0,1.17-3.1411,20.7476,20.7476,0,0,0,.451-3.5462,21.2421,21.2421,0,0,0-.0732-2.9522l-.3622-10.7924a6.1544,6.1544,0,0,0-2.63,1.3981,10.4554,10.4554,0,0,0-2.0908,2.569,17.9539,17.9539,0,0,0-1.5412,3.3313,21.8851,21.8851,0,0,0-.95,3.7312,22.4759,22.4759,0,0,0-.2892,3.7469,15.4158,15.4158,0,0,0,.408,3.39m-32.6141,12.998a2.6606,2.6606,0,0,1-.0235-1.3459,4.1621,4.1621,0,0,1,.4952-1.1307,10.7489,10.7489,0,0,1,.8232-1.1869,11.21,11.21,0,0,0,.9445-1.4683L112.05,49.2272a11.1037,11.1037,0,0,1-1.2144-.2591c-.3478-.0808-.659-.1695-.9275-.2308a4.1492,4.1492,0,0,0-.8234-.1145,3.2611,3.2611,0,0,0-.8612.095c-.7518.1839-1.3691.3452-1.8539.4887a4.1628,4.1628,0,0,0-1.1815.54,2.964,2.964,0,0,0-.7531.8521,8.424,8.424,0,0,0-.5927,1.41,19.1491,19.1491,0,0,1-1.2286,2.9,2.0452,2.0452,0,0,1-1.1321,1.11.8309.8309,0,0,1-.9094-.31,3.3978,3.3978,0,0,1-.555-1.2935c-.0573-.2372-.1066-.4912-.1471-.7582-.0391-.27-.0717-.5525-.0924-.8507a17.4027,17.4027,0,0,1,.3061-5.292,9.7182,9.7182,0,0,1,1.4709-3.4538,6.8979,6.8979,0,0,1,2.1781-2.0089,9.5617,9.5617,0,0,1,2.3321-.9589,4.0625,4.0625,0,0,1,1.7807-.0037c.6282.138,1.2495.3022,1.8763.4909s1.2608.3507,1.8992.4862a4.72,4.72,0,0,0,1.8709,0c.4716-.09.8923-.18,1.2858-.275.3818-.0924.74-.18,1.0607-.2579.9314-.2268,1.68-.421,2.2212-.59.5511-.1732.9692-.3243,1.2441-.4416a3.9234,3.9234,0,0,0,.59-.27.9377.9377,0,0,1,.2631-.1147,1.9817,1.9817,0,0,1,1.9749.43,4.3908,4.3908,0,0,1,1.0995,2.1835,10.5565,10.5565,0,0,1,.2906,2.0764,1.6909,1.6909,0,0,1-.529.8887,6.8584,6.8584,0,0,1-1.9006,1.3328,23.5455,23.5455,0,0,1-.8677,2.5118q-.6255,1.63-1.497,3.6607-.8576,2.0108-1.79,4.1768c-.637,1.4318-1.2323,2.7774-1.7978,4.0385-.5655,1.2626-1.07,2.3582-1.4981,3.2962-.4311.9275-.71,1.55-.8546,1.889l.0039.7452a4.9086,4.9086,0,0,1,.6787.0873c.4456.0677.9549.1327,1.5372.1942.5746.074,1.1908.1145,1.8278.1366a5.8609,5.8609,0,0,0,1.61-.1395,8.1288,8.1288,0,0,0,2.5679-1.0785,11.5047,11.5047,0,0,0,1.9724-1.656,19.75,19.75,0,0,0,1.5789-1.8746c.4742-.6463.9184-1.26,1.3615-1.8343a10.8913,10.8913,0,0,1,1.3665-1.4944,3.4231,3.4231,0,0,1,1.5633-.8481,2.38,2.38,0,0,1,1.2833.0286,2.9891,2.9891,0,0,1,1.101.58,3.39,3.39,0,0,1,.8285.96,4.0129,4.0129,0,0,1,.4833,1.1594,3.8484,3.8484,0,0,1-.2474,2.31,11.5067,11.5067,0,0,1-1.5412,2.6484,21.4919,21.4919,0,0,1-2.5223,2.7241,31.2759,31.2759,0,0,1-3.1762,2.5288,26.0178,26.0178,0,0,1-3.5422,2.061,17.25,17.25,0,0,1-3.55,1.3054,5.8577,5.8577,0,0,1-.76.047c-.4167,0-.9782-.0275-1.69-.0938s-1.5307-.159-2.4752-.309a31.0311,31.0311,0,0,1-3.1632-.6329,8.1548,8.1548,0,0,1-2.2.9771,4.1694,4.1694,0,0,1-1.9034.0714,3.6164,3.6164,0,0,1-1.5177-.68,4.0816,4.0816,0,0,1-1.101-1.2493A6,6,0,0,1,102.4956,71.6184ZM78.9686,77.34a2.66,2.66,0,0,1-.0246-1.3456,4.2092,4.2092,0,0,1,.4963-1.131,10.617,10.617,0,0,1,.8221-1.188,11.28,11.28,0,0,0,.9456-1.4669l7.314-17.2593a11.0909,11.0909,0,0,1-1.213-.2594c-.3492-.0808-.66-.1692-.9275-.23a4.1451,4.1451,0,0,0-.8246-.1148,3.21,3.21,0,0,0-.8611.0953q-1.1277.2734-1.8528.4884a4.1642,4.1642,0,0,0-1.1829.5408,2.9548,2.9548,0,0,0-.7528.8519,8.6673,8.6673,0,0,0-.593,1.4085,19.0652,19.0652,0,0,1-1.2283,2.9013,2.0453,2.0453,0,0,1-1.1322,1.11.83.83,0,0,1-.9093-.31,3.39,3.39,0,0,1-.555-1.2937c-.0573-.2373-.1069-.4913-.146-.7583-.04-.27-.0717-.5525-.0938-.8507a17.4644,17.4644,0,0,1,.3061-5.2931,9.7567,9.7567,0,0,1,1.4723-3.4538,6.89,6.89,0,0,1,2.1782-2.0077,9.4671,9.4671,0,0,1,2.3306-.9587,4.06,4.06,0,0,1,1.781-.004c.6279.1381,1.2492.3022,1.876.4913s1.2611.35,1.9006.4858a4.7022,4.7022,0,0,0,1.87,0c.4714-.09.8924-.18,1.2858-.2749.3816-.0924.74-.18,1.0616-.258.9318-.2265,1.6795-.4207,2.22-.59.5525-.1732.9692-.3242,1.2441-.4416a3.9344,3.9344,0,0,0,.5916-.27.8819.8819,0,0,1,.2631-.1148,1.9822,1.9822,0,0,1,1.9749.43,4.414,4.414,0,0,1,1.0995,2.1836,10.6538,10.6538,0,0,1,.2906,2.0766,1.7005,1.7005,0,0,1-.53.8873,6.8455,6.8455,0,0,1-1.9,1.334,23.2851,23.2851,0,0,1-.8691,2.5117q-.6234,1.63-1.4967,3.6607-.8559,2.0112-1.79,4.1768c-.6372,1.43-1.2325,2.7777-1.798,4.0386-.5641,1.2625-1.0695,2.3581-1.4981,3.2961-.4311.9264-.71,1.55-.8546,1.889l.0039.7452a4.9841,4.9841,0,0,1,.6786.0859c.4456.0692.955.1344,1.5387.1956.5746.0743,1.1908.1145,1.8266.1366a5.8564,5.8564,0,0,0,1.61-.1391,8.1245,8.1245,0,0,0,2.5679-1.0789,11.5233,11.5233,0,0,0,1.9738-1.6557,19.8623,19.8623,0,0,0,1.5775-1.8749c.4742-.646.92-1.26,1.3614-1.8343a10.8128,10.8128,0,0,1,1.368-1.4941,3.4152,3.4152,0,0,1,1.5633-.8481,2.364,2.364,0,0,1,1.2833.0286,3.0185,3.0185,0,0,1,1.101.5783,3.4133,3.4133,0,0,1,.8271.9615,4.0078,4.0078,0,0,1,.4847,1.16,3.8389,3.8389,0,0,1-.2488,2.31,11.4079,11.4079,0,0,1-1.5412,2.6487,21.5,21.5,0,0,1-2.5209,2.7241,31.4843,31.4843,0,0,1-3.1776,2.5288,26.0485,26.0485,0,0,1-3.5422,2.0608,17.2359,17.2359,0,0,1-3.5487,1.3053,5.7924,5.7924,0,0,1-.76.0471c-.417,0-.98-.0275-1.6908-.0939s-1.53-.159-2.4755-.3086a31.4907,31.4907,0,0,1-3.1618-.6333,8.1493,8.1493,0,0,1-2.2017.9771,4.1584,4.1584,0,0,1-1.902.0717,3.6273,3.6273,0,0,1-1.5191-.68,4.0681,4.0681,0,0,1-1.1-1.2495A5.9138,5.9138,0,0,1,78.9686,77.34Zm5.7909-2.3683a32.6813,32.6813,0,0,1-2.5248,3.2295,35.1317,35.1317,0,0,1-3.4472,3.3911,32.3593,32.3593,0,0,1-3.9812,2.9015,14.2949,14.2949,0,0,1-4.1038,1.7808,8.4226,8.4226,0,0,1-3.1776.2423,5.2843,5.2843,0,0,1-2.3607-.9289,5.698,5.698,0,0,1-1.6376-1.9516A12.4807,12.4807,0,0,1,62.49,80.83a30.4566,30.4566,0,0,1-.7308-5.2452q-.2075-3.0384-.2307-6.35c-.0181-2.2071-.0091-4.4073.034-6.6169s.0689-4.2378.0624-6.0815a3.1566,3.1566,0,0,1,.5992-1.8,6.5587,6.5587,0,0,1,1.4032-1.4528,9.1486,9.1486,0,0,1,1.7784-1.0525,9.7052,9.7052,0,0,1,1.7521-.6423,2.8631,2.8631,0,0,1,2.1249.0652,2.06,2.06,0,0,1,.8767,1.3158,11.19,11.19,0,0,1,.1968,2.3162c-.004,1.0242-.0261,2.18-.0859,3.4954-.05,1.3-.0964,2.715-.1486,4.2185-.0637,1.5072-.0912,3.0056-.0938,4.4972-.013,1.5072.0337,2.9469.1329,4.34a21.45,21.45,0,0,0,.5211,3.7027,7.3765,7.3765,0,0,0,.9666,2.4179,1.4047,1.4047,0,0,0,1.656.5706,5.8926,5.8926,0,0,0,2.5795-1.55,26.15,26.15,0,0,0,2.6-2.87q1.2761-1.6162,2.4545-3.3132c.7855-1.1386,1.4851-2.1053,2.0948-2.9219ZM41.2868,37.3979A53.641,53.641,0,0,0,37.8827,53.05l.0272,4.1754.3507,2.8451a22.3414,22.3414,0,0,0,5.4964-3.1186,15.0967,15.0967,0,0,0,3.4548-3.72A10.7012,10.7012,0,0,0,48.78,49.1845a10.3291,10.3291,0,0,0-.1576-4.08,11.887,11.887,0,0,0-1.7237-3.8146A9.7557,9.7557,0,0,0,43.3921,38.2,16.8082,16.8082,0,0,0,41.2868,37.3979ZM27.9646,53.06A47.6132,47.6132,0,0,1,31.06,37.157q-.6858.1408-1.4046.3153a15.3142,15.3142,0,0,0-6.0695,2.891A18.0342,18.0342,0,0,0,19.37,45.268a24.1607,24.1607,0,0,0-2.5693,6.3238A38.1521,38.1521,0,0,0,15.6857,58.8a48.6,48.6,0,0,0,.17,7.5538A54.6006,54.6006,0,0,0,17.1,73.6585c.2322.9536.546,2.2422.9485,3.8511.4079,1.6192.8989,3.3325,1.4567,5.1551.5652,1.8083,1.209,3.623,1.9188,5.4482a30.136,30.136,0,0,0,2.3893,4.8385A12.1468,12.1468,0,0,0,26.611,96.24a3.5741,3.5741,0,0,0,3.193.7648,4.3016,4.3016,0,0,0,2.74-1.98,10.2151,10.2151,0,0,0,1.3169-3.7324,22.6153,22.6153,0,0,0,.2359-4.7957c-.0717-1.7506-.24-3.4809-.4782-5.19-.2424-1.7235-.5355-3.3454-.86-4.8855q-.4847-2.3058-.8767-3.9186l-.4014-1.6455a49.3332,49.3332,0,0,1-5.0508-.921,11.1611,11.1611,0,0,1-2.91-1.06,3.8089,3.8089,0,0,1-1.4749-1.4358,8.527,8.527,0,0,1-.7336-2.0336c-.1015-.4169-.1888-.8246-.267-1.2481a4.1226,4.1226,0,0,1-.0689-1.1205,2.0955,2.0955,0,0,1,.2645-.8858,1.1808,1.1808,0,0,1,.7489-.4989,1.45,1.45,0,0,1,.68-.0131c.2268.0457.5094.116.8445.1982.8778.229,1.6531.4062,2.3527.5275q1.0455.162,1.7666.2529a13.9747,13.9747,0,0,0,1.4981.0779c-.0729-.2982-.22-.9065-.4261-1.8042S28.32,58.95,28.17,57.7607a31.9289,31.9289,0,0,1-.2344-3.7715C27.9371,53.6751,27.9464,53.3674,27.9646,53.06Zm.5043-24.0067a35.7346,35.7346,0,0,1,6.6532-1.0094C46.1123,11.1874,67.04,1.7511,86.7163.25a87.6124,87.6124,0,0,1,73.5293,31.074c26.7213,32.0629,20.9591,91.9468-11.4307,119.5775-13.0292,11.1127-30.7366,17.602-49.1477,19.01-25.2949,1.9216-47.7757-6.109-63.03-19.1823-21.2446-18.2285-16.7173-32.0446-2.0166-13.7951,13.6948,16.9934,34.7686,28.277,64.5151,25.88,33.5883-2.702,64.6847-32.8444,69.1934-65.878,1.9908-14.5378.9735-28.364-3.5722-40.9164-.1967.3934-.4141.809-.6485,1.2467a26.4015,26.4015,0,0,1-2.3216,3.5969,19.6573,19.6573,0,0,1-3.0407,3.1918,9.0291,9.0291,0,0,1-3.6128,1.8762,5.4605,5.4605,0,0,1-4.2041-.5576,12.2956,12.2956,0,0,1-3.71-3.6725,16.96,16.96,0,0,1-1.58,2.4948,18.41,18.41,0,0,1-2.2252,2.4882,17.5587,17.5587,0,0,1-2.6915,2.0818,10.3335,10.3335,0,0,1-3.0212,1.2926,8.4777,8.4777,0,0,1-3.4342.1131,8.7313,8.7313,0,0,1-3.2921-1.2714,10.0868,10.0868,0,0,1-2.7136-2.6382,11.4016,11.4016,0,0,1-1.7354-3.9631,21.42,21.42,0,0,1-.58-5.5576,30.1406,30.1406,0,0,1,.7126-5.8978,31.7332,31.7332,0,0,1,1.842-5.7308,25.41,25.41,0,0,1,2.874-5.02,18.8994,18.8994,0,0,1,3.7494-3.8563,11.8227,11.8227,0,0,1,4.4842-2.19,2.1694,2.1694,0,0,1,1.3314.0182,3.1186,3.1186,0,0,1,.9252.5316c.2682.2137.521.43.7645.6487a1.8344,1.8344,0,0,0,.8405.39,3.6188,3.6188,0,0,0,.913.0182,7.8439,7.8439,0,0,0,.8966-.1667c.2617-.0638.525-.129.7841-.2044.271-.0782.53-.1539.7818-.2152a4.36,4.36,0,0,1,1.0043-.1315,1.6835,1.6835,0,0,1,.9213.258,2.4365,2.4365,0,0,1,.775.8467,6.1143,6.1143,0,0,1,.6083,1.6716,23.7589,23.7589,0,0,1,.559,3.8066c.0924,1.4188.1811,2.8755.2554,4.3736.0612,1.5007.159,2.9937.27,4.483a26.8986,26.8986,0,0,0,.6449,4.1661,8.8531,8.8531,0,0,0,.9224,2.4922,1.2561,1.2561,0,0,0,1.5035.62,3.8338,3.8338,0,0,0,1.4369-.7413,9.7225,9.7225,0,0,0,1.3992-1.364,16.581,16.581,0,0,0,1.3093-1.7339c.4286-.6344.8246-1.2873,1.1843-1.9438q.9027-1.6634,1.7745-3.6036a74.0349,74.0349,0,0,0-18.2092-22.9184C118.4782,4.1535,66.0072,1.1429,44.9163,29.4524a23.2575,23.2575,0,0,1,2.6147,1.1321A17.9555,17.9555,0,0,1,53.43,35.5691a18.2463,18.2463,0,0,1,3.206,6.7391,18.8829,18.8829,0,0,1,.3245,7.0991,19.7258,19.7258,0,0,1-2.5041,7.1665,24.66,24.66,0,0,1-5.5511,6.5307,32.7068,32.7068,0,0,1-8.8523,5.2243q.5158,2.5856.9627,4.733c.1238.6137.2449,1.2169.3687,1.83s.2461,1.1662.3555,1.6691c.1094.5054.2061.95.2829,1.3223s.1315.6384.1653.7815a32.0849,32.0849,0,0,1,.6633,5.2218,30.9812,30.9812,0,0,1-.2138,5.5108,29.938,29.938,0,0,1-1.1778,5.34,18.8685,18.8685,0,0,1-2.2614,4.733,15.0375,15.0375,0,0,1-3.4487,3.6947,12.7372,12.7372,0,0,1-4.7225,2.198,9.3616,9.3616,0,0,1-5.4768-.2345A14.4666,14.4666,0,0,1,20.626,102.08a26.5439,26.5439,0,0,1-4.2744-5.103,51.58,51.58,0,0,1-3.58-6.4071,65.9957,65.9957,0,0,1-2.8165-6.96q-1.2232-3.5505-2-6.7666A56.1621,56.1621,0,0,1,6.3748,65.93a50.0193,50.0193,0,0,1,.559-10.3337,41.273,41.273,0,0,1,2.5872-9.311,32.3352,32.3352,0,0,1,4.5155-7.8338,27.2435,27.2435,0,0,1,6.338-5.8884A25.2134,25.2134,0,0,1,28.4689,29.0536Z"/>
  <path class="c" d="M72.7931,39.8949c.0127.4609-.1658.19-.2152.5108l-.055.0182-.229-.637-.5913-1.4516-.1551-.36.87-.447a12.902,12.902,0,0,1,.3756,2.3663M61.8556,45.4854a7.8375,7.8375,0,0,0,5.453,1.7209l.91-.0989a7.6858,7.6858,0,0,0,3.1172-1.2059,7.29,7.29,0,0,0,2.497-2.6319,7.592,7.592,0,0,0,.9647-3.8636c.0048-2.2136-1.2286-5.0409-3.2871-6.0557A10.1847,10.1847,0,0,0,70.4066,32.9a10.1961,10.1961,0,0,1-.8983.4986,7.9377,7.9377,0,0,1-1.065.3651,15.298,15.298,0,0,0-2.8664.5287l-.4581.2664a4.4839,4.4839,0,0,0-1.4538,1.5662,1.3667,1.3667,0,0,0-.3289.9561l.0525.4816a.7746.7746,0,0,0,.0825.2619l-.2432-.2443c-.09-.256-.26-.4025-.2957-.7257l-.0349-.3212c-.1088-1,1.0914-2.423,1.1475-2.8865l-1.5089-.4312c-.2165.1346-.8141.3615-1.1126.5219a4.5826,4.5826,0,0,0-.8983.6942C57.3239,37.3946,58.8347,43.0714,61.8556,45.4854Z"/>
  <path class="d" d="M62.5359,33.2154l1.5089.4312c-.0561.4635-1.2563,1.887-1.1475,2.8865l.0349.3212c.0354.3232.2061.47.2957.7257l.2432.2443a.7746.7746,0,0,1-.0825-.2619l-.0525-.4816a1.3667,1.3667,0,0,1,.3289-.9561,4.4839,4.4839,0,0,1,1.4538-1.5662l.4581-.2664a15.298,15.298,0,0,1,2.8664-.5287,7.9377,7.9377,0,0,0,1.065-.3651,10.1961,10.1961,0,0,0,.8983-.4986c.2027-.3875.6282-.7288.8527-1.1217.2109-.3688.532-.7752.7767-1.1823.3787-.63,1.0182-1.9713,1.8992-2.0872l-.0117-.1068-.3744.0408c-2.0078.2184-2.64,4.0235-3.9858,4.17l-.2676.0292c.1128-.735.6653-1.349.5346-2.5489L69.743,29.29a6.3714,6.3714,0,0,0-.445-1.3907c-.1335-.29-.3838-.64-.538-.92l-.1265.0135-.0034.0355.2937,1.7007.0349.3212A4.9669,4.9669,0,0,1,68.614,31.85c-.341.6526-.7291.8159-1.6844.9414a10.33,10.33,0,0,0-1.2359-2.8975c-.121-.345-.8331-1.1-1.252-1.0547l-.3212.0348a.7049.7049,0,0,0-.6676.8309c.0023.021.3147.3424.6069.6378a3.3915,3.3915,0,0,1,1.052,2.7238l-.6018-.12a12.8437,12.8437,0,0,0-3.655-.2517A4.2309,4.2309,0,0,0,57.427,34.53c.0281-.0108.9709-.6942,1.2084-.8358a5.1663,5.1663,0,0,1,1.5648-.549l.4308-.0967Z"/>
  <polygon class="e" points="68.63 27.029 68.633 26.993 68.564 27.001 68.63 27.029"/>
  <path class="f" d="M70.25,33.9453a9.75,9.75,0,0,0-2.5517,1.0616,8.8249,8.8249,0,0,1,3.0495,1.9805l.15-.0805,1.12-.5167c-.2535-.4329-1.3326-2.492-1.7672-2.4449m1.4528,4.39.5913,1.4516.229.637.055-.0182.1939-.2814c.4091-.5945-.216-1.9443-.3543-2.5957l-.87.447Z"/>
  <path class="g" d="M36.9221,114.4447l.01-.0028L156.5469,82.286l.01-.0025.04-.01c1.7124-.4425,3.5549.375,5.1594,2.7637a17,17,0,0,0,1.6483,2.7738c2.8389,3.8029,4.5635,2.8692,7.9951,1.9227a37.4229,37.4229,0,0,0,6.99-2.6257c5.5-2.7939,17.0932-10.4639,20.6892.4266l0,.0005v0c2.3493,11.2258-11.5268,10.4026-17.6865,10.7433a37.4077,37.4077,0,0,0-7.3644,1.2331c-3.4438.902-5.404.9587-5.9534,5.6727a16.978,16.978,0,0,0-.0354,3.2261c-.1718,2.5886-1.1511,4.1695-2.59,4.8044a1.3544,1.3544,0,0,1-.5071.2614L45.3078,145.6375a1.354,1.354,0,0,1-.57.0281c-1.5635.1723-3.2037-.7044-4.65-2.8579a16.9826,16.9826,0,0,0-1.6481-2.7737c-2.8391-3.803-4.5637-2.869-7.9954-1.9225a37.4056,37.4056,0,0,0-6.99,2.6255c-5.5,2.7938-17.0932,10.4638-20.6895-.4266v0l0-.0006C.4152,129.084,14.2914,129.9071,20.4511,129.5661a37.4058,37.4058,0,0,0,7.3644-1.2331c3.4435-.9019,5.4039-.9586,5.9533-5.6726a16.9728,16.9728,0,0,0,.0354-3.2262c.1905-2.8712,1.3748-4.5025,3.0782-4.9782Z"/>
  <path class="h" d="M34.4228,109.8975l.01-.0026L154.0476,77.739l.01-.0029.04-.01c1.7124-.4422,3.5549.3751,5.1593,2.7641a16.9978,16.9978,0,0,0,1.6484,2.7734c2.8389,3.803,4.5635,2.8692,7.9951,1.9228a37.4172,37.4172,0,0,0,6.99-2.6258c5.5-2.7935,17.0932-10.4638,20.6893.4266l0,.0006v.0006c2.3493,11.2254-11.5268,10.4023-17.6865,10.743a37.43,37.43,0,0,0-7.3644,1.2333c-3.4438.9017-5.404.9587-5.9534,5.6725a16.9778,16.9778,0,0,0-.0354,3.2261c-.1718,2.5886-1.1511,4.1694-2.59,4.8044a1.3548,1.3548,0,0,1-.5071.2616L42.8085,141.09a1.3569,1.3569,0,0,1-.57.028c-1.5636.1724-3.2037-.7044-4.65-2.8581a16.9817,16.9817,0,0,0-1.6481-2.7735c-2.8391-3.8029-4.5637-2.8692-7.9954-1.9227a37.4265,37.4265,0,0,0-6.99,2.6257c-5.5,2.7936-17.0932,10.4636-20.6895-.4266v0l0-.0006c-2.3491-11.2255,11.5271-10.4023,17.6868-10.743a37.4309,37.4309,0,0,0,7.3644-1.2334c3.4435-.9017,5.4039-.9587,5.9533-5.6724a16.9729,16.9729,0,0,0,.0354-3.2261c.1905-2.8715,1.3748-4.5026,3.0782-4.9785Z"/>
  <path d="M86.3073,103.76a2.7706,2.7706,0,0,0-.0771-.3566,1.3464,1.3464,0,0,0-.163-.3489.6079.6079,0,0,0-.3-.2223.791.791,0,0,0-.4961.0094c-.2829.0774-.5318.3812-.7515.913a10.6892,10.6892,0,0,0-.5635,1.9579q-.239,1.1662-.3954,2.5305c-.1043.91-.1959,1.7892-.2693,2.6376.1641-.0235.3328-.0541.496-.083s.3331-.0542.5134-.0876c.246-.5865.502-1.2226.7685-1.9032.26-.6846.4889-1.345.6865-1.9862a18.1091,18.1091,0,0,0,.4581-1.7771,3.9276,3.9276,0,0,0,.0933-1.2835m8.0521,17.2511q-1.4406,1.2506-2.562,2.2042c-.7532.6355-1.423,1.1753-2.0194,1.6262a14.9132,14.9132,0,0,1-1.5936,1.08,5.7582,5.7582,0,0,1-1.3122.5734,3.52,3.52,0,0,1-2.2859-.0842,4.4517,4.4517,0,0,1-1.8745-1.5228,10.2422,10.2422,0,0,1-1.42-2.832,23.0781,23.0781,0,0,1-.9382-3.9969c-.09-.589-.1576-1.2257-.21-1.9088-.0465-.6849-.07-1.3709-.0763-2.056-.3279.0476-.5887.0819-.7718.0952s-.3765.0349-.5817.0539-.466.0541-.7832.0986-.7691.1157-1.3666.2155a1.445,1.445,0,0,1-.6248-.0023.7146.7146,0,0,1-.3566-.2123.7421.7421,0,0,1-.1646-.322c-.03-.1231-.0519-.2271-.065-.3127a.5648.5648,0,0,1,.2484-.5346,3.224,3.224,0,0,1,.7752-.4527,8.848,8.848,0,0,1,1.0817-.3793c.3935-.1125.7719-.2106,1.1393-.3053.3622-.0884.6916-.1678.981-.2418a3.6816,3.6816,0,0,0,.5845-.1853,34.337,34.337,0,0,1,.529-4.1616,23.728,23.728,0,0,1,1.01-3.7312,11.1183,11.1183,0,0,1,1.4721-2.83,3.6712,3.6712,0,0,1,1.9485-1.4445,2.3229,2.3229,0,0,1,1.3312.004,2.7457,2.7457,0,0,1,1.127.6783,3.9264,3.9264,0,0,1,.8374,1.2084,5.6375,5.6375,0,0,1,.4722,1.58,5.9777,5.9777,0,0,1,.0051,1.5928,12.8262,12.8262,0,0,1-.3724,1.8059,19.0051,19.0051,0,0,1-.66,1.9367c-.2678.6709-.5485,1.3345-.8577,2.001.1014-.0171.2639-.0508.4926-.108s.49-.1234.7912-.1954.6253-.1493.9774-.23c.3464-.0788.6876-.1562,1.0111-.2339.3291-.08.6307-.1514.9144-.2234q.4269-.1008.7042-.161a.4739.4739,0,0,1,.5173.1684,1.3832,1.3832,0,0,1,.2582.6693,1.2806,1.2806,0,0,1-.2.93,1.1731,1.1731,0,0,1-.6673.5179l-6.2467,1.7048c-.2568.4793-.5142.953-.773,1.4173-.2648.4654-.5068.8881-.7322,1.2693q.0727.9321.1573,1.8292c.0278.26.0621.5233.0924.7983.0295.27.06.5442.0885.8093.0295.27.0575.53.0895.7778s.0667.4748.0981.6812a4.6371,4.6371,0,0,0,.3648,1.2954,2.0578,2.0578,0,0,0,.6078.7625,1.6134,1.6134,0,0,0,.832.2971,3.1707,3.1707,0,0,0,1.0287-.1185,3.4822,3.4822,0,0,0,.8265-.3827,10.953,10.953,0,0,0,1.06-.7089c.3847-.2832.7809-.6064,1.1948-.9658s.8189-.7376,1.2146-1.1392c.3963-.3963.7733-.8088,1.1262-1.2249a15.5229,15.5229,0,0,0,.9491-1.25Z"/>
  <path d="M96.362,118.928a4.1677,4.1677,0,0,0,.1644.6993,1.87,1.87,0,0,0,.294.5649,1.0963,1.0963,0,0,0,.4618.3354,1.0411,1.0411,0,0,0,.642-.0023,1.8083,1.8083,0,0,0,1.0168-.7651,5.5011,5.5011,0,0,0,.6761-1.37,9.1325,9.1325,0,0,0,.3693-1.527,8.6688,8.6688,0,0,0,.1032-1.26l.3336-4.606a3.4381,3.4381,0,0,0-1.2591.6585,5.7342,5.7342,0,0,0-1.0684,1.1463,9.0966,9.0966,0,0,0-.8535,1.46,10.221,10.221,0,0,0-.6038,1.6171,9.5769,9.5769,0,0,0-.3047,1.6093,6.0213,6.0213,0,0,0,.0283,1.44M110.4261,116.3a15.6218,15.6218,0,0,1-.8308,1.3807,14.029,14.029,0,0,1-1.2206,1.5914,10.8922,10.8922,0,0,1-1.5282,1.4343,5.0393,5.0393,0,0,1-1.7274.8858,2.49,2.49,0,0,1-1.8836-.1411,4.3013,4.3013,0,0,1-1.516-1.4845,9.0373,9.0373,0,0,1-.8325,1.1026,10.1959,10.1959,0,0,1-1.1257,1.1149,9.9105,9.9105,0,0,1-1.3181.9525,5.7264,5.7264,0,0,1-1.432.6216,4.1743,4.1743,0,0,1-1.5653.1281,3.4211,3.4211,0,0,1-2.547-1.5335,3.9944,3.9944,0,0,1-.6046-1.6543,8.3893,8.3893,0,0,1-.0071-2.3633,13.185,13.185,0,0,1,.5967-2.5381,15.2236,15.2236,0,0,1,1.101-2.4922,13.2826,13.2826,0,0,1,1.5369-2.2128,10.5486,10.5486,0,0,1,1.8811-1.7353,6.6076,6.6076,0,0,1,2.1376-1.04,1.0457,1.0457,0,0,1,.6041-.0232,1.1925,1.1925,0,0,1,.3957.2066q.1671.1272.3169.2594a.7209.7209,0,0,0,.364.1471,1.7411,1.7411,0,0,0,.4141-.0133,3.8642,3.8642,0,0,0,.4142-.0918c.1221-.0335.2443-.0667.3659-.1052.1267-.04.2483-.0785.3646-.11a2.2328,2.2328,0,0,1,.4623-.0791.7181.7181,0,0,1,.4068.0885.8538.8538,0,0,1,.3129.3447,2.1932,2.1932,0,0,1,.1987.7007,9.0889,9.0889,0,0,1,.0782,1.6146c-.0235.6044-.05,1.2251-.0861,1.8641-.0414.6406-.0658,1.2764-.0848,1.9108a10.36,10.36,0,0,0,.1012,1.766,3.1312,3.1312,0,0,0,.3033,1.0443.51.51,0,0,0,.654.2307,2.1358,2.1358,0,0,0,.6871-.35,5.4929,5.4929,0,0,0,.6987-.6157,9.0785,9.0785,0,0,0,.6747-.7716c.2233-.2809.434-.5692.6273-.8577.4467-.6727.8943-1.4188,1.3365-2.2371Z"/>
  <path d="M112.0872,107.3207q.5527-1.3781,1.1506-3.0773c.4-1.1319.7617-2.29,1.0916-3.4651a35.0954,35.0954,0,0,0,.7915-3.4619,14.068,14.068,0,0,0,.2415-3.0864c-.0437-.2869-.0862-.5273-.1338-.724s-.1123-.284-.2013-.26a1.8171,1.8171,0,0,0-.9317.8311,8.7765,8.7765,0,0,0-.8606,1.792,19.1244,19.1244,0,0,0-.709,2.4852,28.7263,28.7263,0,0,0-.4762,2.9092,27.497,27.497,0,0,0-.1783,3.0846,19.9792,19.9792,0,0,0,.2157,2.9722m1.78,11.8054a2.21,2.21,0,0,1-1.7388-.254,5.1691,5.1691,0,0,1-1.6027-1.5239,10.5081,10.5081,0,0,1-1.2991-2.4928,15.7147,15.7147,0,0,1-.8141-3.181,21.874,21.874,0,0,1-.2239-2.9123,32.6469,32.6469,0,0,1,.1383-3.3463c.1-1.1653.2608-2.3522.4649-3.5561a35.7711,35.7711,0,0,1,.7886-3.5189,29.1261,29.1261,0,0,1,1.1007-3.2528,18.4746,18.4746,0,0,1,1.3923-2.7816,9.8045,9.8045,0,0,1,1.67-2.0605,4.6914,4.6914,0,0,1,1.931-1.1089,2.0981,2.0981,0,0,1,1.1985-.0284,1.7361,1.7361,0,0,1,.8319.565,3.1263,3.1263,0,0,1,.5293.9669,7.1532,7.1532,0,0,1,.2908,1.19,12.3492,12.3492,0,0,1,.0805,2.92,22.5718,22.5718,0,0,1-.504,3.1474q-.3695,1.6191-.9334,3.291-.5525,1.6685-1.1852,3.3437c-.4153,1.11-.8374,2.2108-1.2682,3.293-.4247,1.0863-.8249,2.1393-1.1843,3.16a3.3531,3.3531,0,0,0-.114.43c-.0374.1726-.0669.3589-.0947.5553s-.0479.4062-.072.6279-.038.4351-.0414.6406l.0315.2064a3.1455,3.1455,0,0,0,.2024.7208,3.284,3.284,0,0,0,.3209.5891,1.5759,1.5759,0,0,0,.3467.3773.3448.3448,0,0,0,.3036.0955,2.9621,2.9621,0,0,0,.6874-.3084,8.4928,8.4928,0,0,0,.7956-.5477c.2793-.2177.5616-.4518.8524-.7095s.5633-.5159.8306-.7724q.9308-.899,1.9312-2.016l1.8043,2.7323q-1.3059,1.34-2.6093,2.4636c-.3793.3186-.7764.6366-1.1835.9629-.4079.3209-.82.6168-1.24.8943a11.8566,11.8566,0,0,1-1.2473.7336A5.9337,5.9337,0,0,1,113.8671,119.1262Z"/>
  <path d="M119.8244,98.4341a2.2634,2.2634,0,0,1,.0442-.8091,2.8251,2.8251,0,0,1,.4051-.95,3.5545,3.5545,0,0,1,.8807-.9011,4.4324,4.4324,0,0,1,1.4822-.6721,4.9952,4.9952,0,0,1,1.0891-.1766,2.5516,2.5516,0,0,1,.9329.123,1.5013,1.5013,0,0,1,.6922.4822,1.7264,1.7264,0,0,1,.3654.881,2.9628,2.9628,0,0,1-.0289,1.0253,2.7188,2.7188,0,0,1-.4442.9967,3.6507,3.6507,0,0,1-.8921.8623,4.4756,4.4756,0,0,1-1.3864.6193,2.9952,2.9952,0,0,1-2.2087-.0365,1.8529,1.8529,0,0,1-.9315-1.4448m9.5777,13.18a18.01,18.01,0,0,1-1.2963,1.4392,19.5856,19.5856,0,0,1-1.722,1.529,18.2207,18.2207,0,0,1-1.9426,1.3325,7.9136,7.9136,0,0,1-1.946.8564,4.2173,4.2173,0,0,1-1.4539.1763,2.1338,2.1338,0,0,1-1.0293-.343,1.9626,1.9626,0,0,1-.6536-.7968,4.4133,4.4133,0,0,1-.341-1.1758,11.7414,11.7414,0,0,1-.09-2.2249c.03-.8632.0953-1.7672.1888-2.7105s.1987-1.8839.3206-2.83.2273-1.8136.31-2.6013a1.5166,1.5166,0,0,1,.3546-.7841,3.6718,3.6718,0,0,1,.7044-.6534,5.184,5.184,0,0,1,.8564-.4909,5.3383,5.3383,0,0,1,.8254-.3144,1.356,1.356,0,0,1,.9624-.0215.7142.7142,0,0,1,.337.5428,4.378,4.378,0,0,1-.0175.9853c-.0488.438-.1123.9326-.2,1.4964-.0827.5576-.17,1.1634-.2625,1.8074-.0983.6457-.18,1.2867-.2508,1.9247-.0751.6446-.1205,1.26-.14,1.8528a8.2839,8.2839,0,0,0,.0661,1.5709,2.59,2.59,0,0,0,.3274,1.0117.5824.5824,0,0,0,.7251.2055,3.3125,3.3125,0,0,0,1.2433-.722,14.5921,14.5921,0,0,0,1.3135-1.2863q.654-.7217,1.268-1.4735c.4087-.5051.7716-.9346,1.0862-1.2985Z"/>
  <path d="M131.1239,109.44a4.16,4.16,0,0,0,.1644.7,1.8687,1.8687,0,0,0,.2939.5647,1.0992,1.0992,0,0,0,.4618.3356,1.0388,1.0388,0,0,0,.642-.0025,1.8084,1.8084,0,0,0,1.0168-.7648,5.5009,5.5009,0,0,0,.6761-1.37,9.1278,9.1278,0,0,0,.3693-1.5271,8.6237,8.6237,0,0,0,.1029-1.26l.334-4.6063a3.4385,3.4385,0,0,0-1.2592.6584,5.7355,5.7355,0,0,0-1.0684,1.1464,9.1108,9.1108,0,0,0-.8535,1.46,10.2043,10.2043,0,0,0-.6038,1.6169A9.58,9.58,0,0,0,131.0955,108a6.022,6.022,0,0,0,.0284,1.44m14.0641-2.6274a15.6291,15.6291,0,0,1-.8309,1.38,13.9771,13.9771,0,0,1-1.2206,1.5913,10.905,10.905,0,0,1-1.5281,1.4347,5.0427,5.0427,0,0,1-1.7275.8858,2.4892,2.4892,0,0,1-1.8836-.1415,4.3018,4.3018,0,0,1-1.516-1.4842,9.0505,9.0505,0,0,1-.8325,1.1027,10.2386,10.2386,0,0,1-1.1256,1.1146,9.9153,9.9153,0,0,1-1.3181.9524,5.72,5.72,0,0,1-1.4321.6217,4.1767,4.1767,0,0,1-1.5653.1281,3.42,3.42,0,0,1-2.5469-1.5333,3.9986,3.9986,0,0,1-.6047-1.6543,8.3919,8.3919,0,0,1-.007-2.3635,13.1879,13.1879,0,0,1,.5966-2.5382,15.23,15.23,0,0,1,1.101-2.4922,13.2883,13.2883,0,0,1,1.537-2.2127,10.5645,10.5645,0,0,1,1.881-1.7354,6.6079,6.6079,0,0,1,2.1376-1.04,1.0482,1.0482,0,0,1,.6041-.0233,1.1911,1.1911,0,0,1,.3957.207c.1114.0847.2172.1715.3169.2593a.7239.7239,0,0,0,.364.1472,1.7475,1.7475,0,0,0,.4141-.0136,3.7788,3.7788,0,0,0,.4142-.0919c.1222-.0334.2443-.0666.3659-.1049.1268-.04.2484-.0785.3646-.1105a2.2187,2.2187,0,0,1,.4623-.0788.7143.7143,0,0,1,.4068.0884.8528.8528,0,0,1,.3129.3447,2.1968,2.1968,0,0,1,.1987.7007,9.1076,9.1076,0,0,1,.0783,1.6144c-.0236.6043-.05,1.2251-.0862,1.864-.0414.6409-.0658,1.2767-.0848,1.9111a10.3691,10.3691,0,0,0,.1012,1.766,3.1266,3.1266,0,0,0,.3033,1.0443.51.51,0,0,0,.654.2308,2.14,2.14,0,0,0,.6868-.35,5.4722,5.4722,0,0,0,.6991-.6154,9.1073,9.1073,0,0,0,.6746-.7716c.2234-.2809.434-.5692.6273-.8581.4467-.6726.8943-1.4187,1.3365-2.2368Z"/>
  <path d="M75.38,105.15c-.0023.1355-.0063.3169-.008.5428-.0076.254-.0107.5743-.0138.9714-.0043.3924.0314.8924-.0012,1.514-.2656,5.0945.1942,10.3794-.7594,15.4786a10.3331,10.3331,0,0,1-2.2082,5.2909A9.6206,9.6206,0,0,1,70.1418,130.9a11.3877,11.3877,0,0,1-3.1011,1.32c-.25.068-.5519.1349-.9008.2-.3543.0654-.722.12-1.11.1533a10.7927,10.7927,0,0,1-1.173.0423,4.6788,4.6788,0,0,1-1.0627-.1423,2.2081,2.2081,0,0,1-.8039-.3779.9984.9984,0,0,1-.39-.6656,2.1536,2.1536,0,0,1,.0182-.6021,2.9063,2.9063,0,0,1,.2228-.7766,2.6708,2.6708,0,0,1,.4617-.7283,1.5093,1.5093,0,0,1,.7674-.4665,4.3334,4.3334,0,0,1,1.1571-.1514c.41-.0034.8388.0028,1.2812.021q.6626.02,1.3536.0011a6.1288,6.1288,0,0,0,1.379-.2115,1.98,1.98,0,0,0,.98-.6689,5.2033,5.2033,0,0,0,.794-1.3184,13.5149,13.5149,0,0,0,.6094-1.8085q.27-1.0162.468-2.1666.199-1.1433.3328-2.3711c.1667-1.5384.5865-4.5145.77-8.3135.034-.8025.0561-1.529.0723-2.1821s.0269-1.2685.0433-1.8448c.0091-.5054.0315-1.0468.0593-1.6143.6537-.241,2.1311-.7654,3.01-1.0766"/>
  <path d="M59.3878,115.2673c.0031.02.0093.0919.0175.21a.9262.9262,0,0,1-.0927.4235,1.4418,1.4418,0,0,1-.39.4947,2.303,2.303,0,0,1-.8793.4079,6.3833,6.3833,0,0,1-1.262.2449,1.4925,1.4925,0,0,1-.7047-.0856.5989.5989,0,0,1-.3217-.3107,1.8422,1.8422,0,0,1-.1137-.4252,7.2678,7.2678,0,0,1,.4621-4.0484,9.4492,9.4492,0,0,1,2.5129-3.3656,17.5785,17.5785,0,0,1,4.2571-2.6983,35.4812,35.4812,0,0,1,5.7-2.0483q2.097-.5724,4.4144-1.0531,2.3181-.4754,4.8146-.7736a1.542,1.542,0,0,1,1.0641.3229,1.26,1.26,0,0,1,.3921.7373,2.78,2.78,0,0,1,.0144.61,2.5606,2.5606,0,0,1-.1425.6418,1.4951,1.4951,0,0,1-.3391.5434,1.202,1.202,0,0,1-.5717.3345.8976.8976,0,0,1-.1194.0218c-.043.0065-.0861.0131-.1346.0159-.6148.0527-1.279.1341-1.9882.2441-.7141.1057-1.4548.2341-2.2252.392q-1.1565.2292-2.3865.5255c-.8133.1959-1.6433.4119-2.4766.6395q-.3742.1021-.8827.288c-.3439.125-.6687.2455-.9876.3745q-.5082.1977-1.05.4325l-.0561-.0243-2.4673,1.1863-.0612.0649.0008-.0542a11.8876,11.8876,0,0,0-1.9459,1.4539,8.6545,8.6545,0,0,0-1.2952,1.5072,4.8275,4.8275,0,0,0-.6658,1.4562,3.32,3.32,0,0,0-.0893,1.3141"/>
</svg>