<?xml version="1.0" standalone="no"?>
<!DOCTYPE svg PUBLIC "-//W3C//DTD SVG 1.1//EN" "http://www.w3.org/Graphics/SVG/1.1/DTD/svg11.dtd" >
<svg xmlns="http://www.w3.org/2000/svg" xmlns:xlink="http://www.w3.org/1999/xlink" version="1.1">
<metadata>
Created by FontForge 20170731 at Tue Mar 20 10:13:36 1928
 By Aleksey,,,
TrueType font: Copyright (c) 1991, 1994 ParaGraph. Technical realization by TeamAXis Corp. Hinted with AXisType ToolKit: Copyright (c) 1992, 1994 by Dmitry Komissarov. Studio Script is a registered trade mark of International Typeface Corporation.
</metadata>
<defs>
<font id="StudioScriptCTT" horiz-adv-x="236" >
  <font-face 
    font-family="StudioScriptCTT"
    font-weight="400"
    font-stretch="normal"
    units-per-em="1000"
    panose-1="0 0 0 0 0 0 0 0 0 0"
    ascent="800"
    descent="-200"
    x-height="311"
    cap-height="700"
    bbox="-320 -378 1615 963"
    underline-thickness="50"
    underline-position="-175"
    unicode-range="U+0020-2122"
  />
<missing-glyph horiz-adv-x="963" 
d="M60 0v963h843v-963h-843zM843 60v843h-723v-843h723z" />
    <glyph glyph-name=".notdef" horiz-adv-x="963" 
d="M60 0v963h843v-963h-843zM843 60v843h-723v-843h723z" />
    <glyph glyph-name=".null" horiz-adv-x="0" 
 />
    <glyph glyph-name="nonmarkingreturn" horiz-adv-x="233" 
 />
    <glyph glyph-name="space" unicode=" " horiz-adv-x="233" 
 />
    <glyph glyph-name="exclam" unicode="!" horiz-adv-x="368" 
d="M326 636q0 -15 -7.5 -39t-29.5 -79t-51 -121q-57 -131 -71 -188q-2 -9 -6.5 -39.5t-12.5 -39t-21 -8.5q-14 0 -20 7t-6 24q0 13 1 20.5t7 27.5q21 81 50 150q35 78 52 119.5t41 120.5q16 53 31 66q10 8 17 8q9 0 17.5 -5.5t8.5 -23.5zM141 22q0 -58 -52 -58
q-22 0 -33.5 12.5t-11.5 28.5q0 23 17.5 42.5t37.5 19.5q15 0 28.5 -11.5t13.5 -33.5z" />
    <glyph glyph-name="quotedbl" unicode="&#x22;" horiz-adv-x="402" 
d="M312 630q-4 -24 -5.5 -61.5t-1.5 -49.5v-13q1 -6 1 -13v-10q0 -20 -5 -29q-8 -14 -27 -14q-21 0 -26 29q-1 5 -1 15q1 17 1 25q0 20 1.5 58.5t3.5 71.5q0 18 1.5 28t10.5 17t18 7q17 0 23 -5q11 -10 11 -25q0 -9 -2.5 -18.5t-2.5 -12.5zM201 622q-3 -20 -4.5 -37
t-1.5 -37q0 -12 0.5 -22t2 -22t1.5 -21q0 -17 -6 -25.5t-24 -8.5t-23.5 13.5t-5.5 33.5v11l2 65q0 15 -1 40t-1 33q0 30 8.5 37.5t26.5 7.5q10 0 17 -4t9.5 -11.5t2.5 -19.5q0 -8 -1 -16.5t-2 -16.5z" />
    <glyph glyph-name="numbersign" unicode="#" horiz-adv-x="634" 
d="M604 386q0 -7 -6 -13t-13 -6l-21 3q-12 3 -28.5 4t-18.5 1q-13 0 -26 -0.5t-26 -0.5l-36 -123l35 -2q34 0 52.5 -3.5t30.5 -16.5q4 -5 7.5 -11.5t3.5 -13.5q0 -12 -10 -19q-6 -4 -13 -4q-20 7 -45 12.5t-75 5.5l-14 -65q-5 -18 -7 -29t-2 -24v-23q0 -21 -3.5 -32.5
t-10 -15t-22.5 -3.5q-11 0 -17 7q-10 11 -10 36q0 18 4 37q15 58 28 116q-35 0 -66.5 -0.5t-69.5 -4.5l-23 -102q-2 -7 -2 -21q0 -10 3 -26t3 -22q0 -12 -8.5 -21.5t-24.5 -9.5q-14 0 -23.5 10.5t-9.5 32.5q0 17 11 68t21 89l-86 -2q-19 0 -29 5q-15 8 -15 26q0 11 4.5 18
t9.5 10q10 6 29 6q6 0 45 -2.5t57 -2.5l36 113l-42 -1q-17 -1 -28 -1q-26 0 -41 8q-21 11 -21 38q0 16 7.5 23.5t18.5 7.5q16 0 46 -10q18 -6 39 -6l39 2l46 137q10 31 15 40q12 23 29 23q9 0 15.5 -5t6.5 -18q0 -8 -4 -19l-53 -158l135 1l36 98l24 66q19 42 40 42
q10 0 17.5 -7.5t7.5 -21.5q0 -13 -7 -27q-18 -37 -36 -73q-16 -37 -29 -77h31t29 1q26 0 40 -7.5t17 -15.5t3 -21zM411 375l-134 -5l-38 -117l136 2z" />
    <glyph glyph-name="dollar" unicode="$" horiz-adv-x="406" 
d="M360 454q10 -21 10 -41q0 -9 -2 -19q-6 -21 -9 -32q-8 -27 -19 -38t-24 -11q-11 0 -17.5 6.5t-6.5 17.5q0 8 3.5 17t6.5 16q12 22 12 50q0 25 -23.5 44.5t-58.5 19.5q-44 0 -84 -35t-40 -74q0 -26 20 -48q7 -8 81 -59q49 -35 62 -46q37 -32 37 -58q0 -27 -34 -50.5
t-85 -23.5q-11 1 -17 1q-12 -21 -13 -60.5t-33 -39.5q-8 0 -12 6.5t-4 23.5q0 37 14 75q-30 7 -53 21t-36 34q-9 13 -9 25t8 18q13 10 21 10q9 0 18.5 -14t19 -27.5t28.5 -21t37 -9.5h32q26 0 47.5 8t21.5 23q0 5 -8 15q-11 15 -35 31q-12 8 -37 24q-31 20 -45 30
q-21 16 -43 39q-17 18 -24.5 36.5t-7.5 37.5q0 23 12 48q8 17 22 34q19 23 48 41t58 22l44 6q4 9 27 69q14 37 21.5 44t18.5 7q19 0 19 -21q0 -7 -4 -19q-16 -40 -34 -90q49 -21 69 -63z" />
    <glyph glyph-name="percent" unicode="%" horiz-adv-x="642" 
d="M555 543q7 -6 7 -14t-6 -17q-2 -3 -6 -8q-13 -16 -28 -31l-29 -29l-41 -47q-95 -115 -102 -123q-51 -62 -80 -100q-51 -69 -68 -93.5t-21 -36.5q-10 -29 -13 -36q-11 -24 -26 -24q-10 0 -20.5 9.5t-10.5 21.5q0 9 5 19t13 21q29 41 58 83q36 47 243 303q-18 -7 -34 -12
t-33 -9q-39 -75 -98.5 -118.5t-115.5 -43.5q-32 0 -58 14.5t-41 40.5q-18 30 -18 68q0 39 17.5 77t57.5 62q11 31 28 52t45 40q53 36 107 36q34 0 55 -13q29 -18 41 -62q4 -20 4.5 -28t0.5 -17q0 -33 -9 -62q47 11 80 32q11 7 44 32q9 7 19 12.5t19 5.5t14 -5zM581 168
q0 -55 -30 -111.5t-79 -87.5q-38 -24 -81 -24q-47 0 -77 29q-33 32 -33 91q0 42 14 74.5t43 62.5q33 35 74 59q45 27 77 27q46 0 69 -32t23 -88zM344 529q0 46 -21 67q-16 16 -38 16t-44 -10t-45 -33q-19 -19 -28.5 -39t-9.5 -37q0 -28 23 -40t57 -12q30 0 47.5 2t40.5 11
q9 16 13.5 36t4.5 39zM303 409q-33 -11 -70 -11q-43 0 -75.5 15t-48.5 48q-19 -18 -26 -39.5t-7 -42.5q0 -38 23 -60t57 -22q10 0 20 2.5t16 4.5q35 12 64 40.5t47 64.5zM538 178q0 36 -12.5 51.5t-35.5 15.5q-28 0 -72 -33q-39 -29 -62 -58q-16 -21 -25 -45t-9 -45
q0 -33 18.5 -54.5t49.5 -21.5q36 0 70.5 26.5t55.5 72.5q12 27 17 50.5t5 40.5z" />
    <glyph glyph-name="ampersand" unicode="&#x26;" horiz-adv-x="825" 
d="M776 230q0 -22 -20 -22q-4 0 -11.5 3.5t-11.5 5.5q-13 6 -32 7.5t-27 1.5q-26 0 -47 -0.5t-62 -5.5q27 -9 43.5 -29.5t16.5 -40.5q0 -28 -20 -55q-13 -17 -36 -35q-57 -42 -129.5 -64t-144.5 -22q-111 0 -178.5 43.5t-67.5 115.5q0 77 76 134q62 47 182 86
q-58 14 -96.5 50.5t-38.5 75.5q0 64 96.5 114.5t228.5 50.5q82 0 126 -24t44 -66q0 -55 -60 -103q-55 -44 -103 -44q-17 0 -24 6t-7 14q0 10 15 16q29 9 59 19q29 14 52 39t23 49q0 23 -25 37q-31 17 -103 17q-108 0 -190 -38t-82 -86q0 -30 26 -52q37 -32 120 -46
q24 -4 54 -9.5t37 -15.5q4 -5 4 -18q0 -14 -3.5 -17.5t-11.5 -3.5q-4 0 -20 2t-29 2q-61 0 -145.5 -33.5t-125.5 -77.5q-19 -20 -27.5 -39.5t-8.5 -38.5t9 -38q6 -13 18 -26q28 -30 92 -42q38 -7 90 -7q96 0 185.5 40t89.5 88q0 29 -33 41t-82 12q-16 0 -31 -1t-49 -4
q-23 0 -41.5 -5t-28.5 -7t-19 -2q-17 0 -24 10t-7 20q0 18 12.5 23.5t31.5 5.5h9q49 0 112 7t97 10.5t91 6t92 2.5q24 0 47 -10.5t23 -26.5z" />
    <glyph glyph-name="quotesingle" unicode="'" horiz-adv-x="254" 
d="M176 665q0 -19 -3 -39q-7 -48 -8 -55t-1.5 -16t-0.5 -12q0 -16 2.5 -36t2.5 -23q0 -19 -9 -27t-22 -8q-17 0 -23 11t-6 20q0 4 3 26t3 50v12q0 14 -0.5 28.5t-0.5 29.5v12q0 13 2.5 27.5t11.5 22t18 7.5l13 -1q11 -3 14.5 -10t3.5 -19z" />
    <glyph glyph-name="parenleft" unicode="(" horiz-adv-x="366" 
d="M335 699q0 -14 -61 -86q-40 -47 -73 -106q-62 -108 -93 -210t-31 -196q0 -61 14 -95.5t44 -55.5q9 -6 34.5 -12t25.5 -22q0 -8 -10.5 -12.5t-26.5 -4.5q-19 0 -39 10.5t-41 33.5q-29 33 -40.5 75t-11.5 87q0 109 48 245t126 248q13 29 51 73q44 52 65 52q19 0 19 -24z
" />
    <glyph glyph-name="parenright" unicode=")" horiz-adv-x="385" 
d="M362 479q0 -120 -60.5 -268t-143.5 -232q-23 -23 -46.5 -40.5t-34.5 -17.5q-17 0 -22 7q-7 11 3 21q2 2 14 11q101 74 173 248q64 154 64 271q0 72 -32 121q-36 44 -71 88q0 7 1 9q5 12 20 12q41 0 84 -60q51 -71 51 -170z" />
    <glyph glyph-name="asterisk" unicode="*" horiz-adv-x="567" 
d="M496 736q-6 -8 -18 -13q-36 -16 -89 -61l-33 -28l53 4q10 1 18 1.5t13 0.5q21 0 31 -10q7 -7 7 -19q0 -13 -7.5 -18.5t-20.5 -5.5q-27 3 -51.5 5t-57.5 2q9 -19 24.5 -33.5t31.5 -21.5q22 -5 33 -8t11 -16q0 -6 -3 -10q-9 -13 -33 -13q-34 0 -63.5 24.5t-43.5 59.5
q-25 -26 -42 -46q-25 -30 -36 -48q-4 -7 -7 -13q-9 -13 -25 -13q-14 0 -20.5 7t-6.5 16q0 16 38 54q28 28 52 55h-20q-47 0 -66 5q-30 8 -30 32q0 20 16.5 26.5t42.5 6.5q16 0 20.5 -12t7.5 -15t15 -3l32 1q-19 45 -24.5 71t-5.5 45q0 16 10 24t22 8q19 0 25 -10t6 -30v-17
q0 -26 1.5 -38.5t8.5 -31.5l40 37q35 33 57 51t38.5 27t29.5 9q26 0 26 -20q0 -10 -7 -18z" />
    <glyph glyph-name="plus" unicode="+" horiz-adv-x="442" 
d="M377 191q0 -11 -5 -17q-9 -11 -29 -11l-35 2q-13 1 -22.5 1.5t-16.5 0.5q-12 0 -24.5 -0.5t-25.5 -0.5q-22 -86 -32.5 -115t-19 -40t-16 -15t-14.5 -4t-11 3.5t-4 12.5q0 7 1.5 13t5.5 15q10 24 22 58q8 22 9 26l12 44q-22 0 -45 -2t-38 -2h-18q-19 0 -32 4.5t-13 18.5
q0 16 11 21.5t30 5.5q6 0 14.5 -0.5t19.5 -1.5q7 -1 14.5 -1h16.5h28q18 2 25 2q7 27 17.5 63.5t19 58t20 35t22.5 13.5q15 0 15 -13q0 -8 -14 -51q-20 -61 -33 -104h28h20h14h27.5t26.5 1q16 0 22.5 -5.5t6.5 -15.5z" />
    <glyph glyph-name="comma" unicode="," horiz-adv-x="237" 
d="M149 46q0 -11 -17 -27q-7 -7 -23 -18l-51 -61q-7 -8 -19.5 -28t-18 -29.5t-8.5 -17.5q-9 -15 -30 -15q-11 0 -16 5t-5 10t10 23q42 73 71 112q51 68 83 68q3 0 13.5 -3.5t10.5 -18.5z" />
    <glyph glyph-name="hyphen" unicode="-" horiz-adv-x="304" 
d="M230 199q-7 -9 -22 -9q-10 1 -15 1q-6 1 -16 1q-16 -1 -25 -1q-28 0 -46 -1t-34 -2q-14 0 -21 6.5t-7 16.5q0 8 5 15.5t14.5 10t23.5 2.5h40q22 0 42 2.5t25 2.5l19 -3q23 -7 23 -26q0 -10 -6 -16z" />
    <glyph glyph-name="period" unicode="." horiz-adv-x="234" 
d="M125 2q-2 -5 -11.5 -14.5t-20 -14t-23.5 -4.5q-20 0 -29.5 9.5t-9.5 21.5q0 11 8 20q16 20 45 20q19 0 31 -9.5t12 -19.5q0 -3 -2 -9z" />
    <glyph glyph-name="slash" unicode="/" horiz-adv-x="571" 
d="M490 610q-71 -127 -141 -253q-86 -155 -144 -276q-76 -159 -117 -282l-10 -34q-8 -23 -16.5 -31.5t-22.5 -8.5q-12 0 -19 7.5t-7 18.5q0 10 6 24q23 61 47 122t43 103.5t66 134.5q76 150 147 275q40 70 81 141q28 51 34 80.5t10 36.5q10 20 33 20q26 0 26 -28
q0 -19 -16 -50z" />
    <glyph glyph-name="zero" unicode="0" horiz-adv-x="645" 
d="M616 334q0 -157 -127 -267q-118 -102 -261 -102q-115 0 -175 58q-53 51 -53 138q0 147 131 294q127 143 239 143q23 0 36.5 -5.5t23.5 -16.5q83 -24 134.5 -91.5t51.5 -150.5zM531 440q-14 26 -27 40t-65 47q-10 -2 -15 -2q-18 0 -35 12l-64 -7l-44 -18q-42 -17 -104 -88
q-56 -65 -88 -123q-22 -40 -31.5 -75t-9.5 -65q0 -37 13 -66q9 -21 25 -39q27 -30 71 -42q30 -8 69 -8q64 0 122 27q49 23 105 72q109 95 109 217q0 62 -31 118z" />
    <glyph glyph-name="one" unicode="1" horiz-adv-x="300" 
d="M295 584q0 -15 -17.5 -56t-33.5 -79q-29 -69 -75 -204q-59 -170 -63 -222q0 -18 -5 -28q-8 -16 -30 -16q-14 0 -20.5 8.5t-6.5 22.5q0 9 1.5 16.5t4.5 16.5q46 157 68 222q39 96 80 207q-54 -42 -85 -58q-23 -12 -40 -12q-16 0 -21.5 7t-5.5 18q0 12 29 25q47 21 65 34
q53 38 72 61q14 26 29 52q11 13 25 13q13 0 21 -6.5t8 -21.5z" />
    <glyph glyph-name="two" unicode="2" horiz-adv-x="636" 
d="M656 463q-17 -64 -88 -143q-50 -56 -123 -115q-35 -29 -86.5 -64t-97.5 -63q86 0 140.5 -16.5t54.5 -42.5q0 -12 -5 -21.5t-16 -9.5q-16 0 -24 6.5t-15.5 18t-23 16.5t-61.5 5q-53 0 -113 -11t-108 -28q-10 -3 -24 -7t-25 -4q-14 0 -21 4.5t-7 18.5q0 23 43 37l76 20
q32 11 87.5 41t97.5 59q82 56 146 113q99 89 136 164q17 34 17 64q0 44 -41 66.5t-108 22.5q-22 0 -49 -3t-53 -8q-81 -16 -147 -54.5t-99 -83.5q-26 -36 -26 -70q0 -36 29 -58t77 -22l43 2q18 0 24 -3.5t6 -12.5q0 -19 -32.5 -22t-50.5 -3q-71 0 -108 33.5t-37 83.5
q0 41 24 80q37 60 117 106q73 42 161 62q61 14 120 14q90 0 143 -33.5t53 -95.5q0 -20 -6 -43z" />
    <glyph glyph-name="three" unicode="3" horiz-adv-x="729" 
d="M690 542q0 -64 -85 -129q-54 -42 -139 -79q97 -14 146 -55q43 -36 43 -86q0 -38 -25 -74q-40 -58 -135.5 -93.5t-205.5 -35.5q-52 0 -100 9q-100 18 -150 63q-39 35 -39 78q0 30 24 57t50 27q23 0 23 -17q0 -7 -9 -18q-15 -12 -23 -20q-16 -15 -16 -32q0 -27 33 -53.5
t98 -41.5q42 -9 93 -9q101 0 189 31q97 34 131 90q12 20 12 38q0 42 -56.5 70t-145.5 28h-26t-41 -4q-31 -3 -44.5 -4.5t-17.5 -1.5q-24 0 -38 7t-14 25q0 13 11 18t25 6q11 0 22 -0.5t22 -0.5q18 0 30 1t32 6q60 13 147 65q97 58 120 104q10 20 10 37q0 39 -45 59t-115 20
q-17 0 -37 -1.5t-44 -5.5q-73 -12 -137 -44t-87 -71q-10 -17 -10 -30q0 -26 55.5 -40t55.5 -26q0 -9 -7 -15t-27 -6q-50 0 -89.5 26t-39.5 67q0 26 20.5 56t68.5 58q52 31 121 49q35 9 68 14.5t63 5.5q59 0 100 -4.5t78 -25.5q57 -32 57 -92z" />
    <glyph glyph-name="four" unicode="4" horiz-adv-x="663" 
d="M621 167q0 -13 -11 -17t-26 -4l-46 1q-30 0 -60 -0.5t-62 -4.5q-9 -23 -19 -49t-10 -44l1 -19q5 -20 5 -23q0 -8 -9.5 -16t-18.5 -8q-17 0 -27.5 10t-10.5 36q0 20 20 73q9 23 16 39q-65 0 -123.5 -4.5t-63.5 -4.5q-89 0 -119 7q-57 13 -57 59q0 31 41 79q58 67 197 179
q79 63 174 125q117 76 151 76q16 0 24 -8t8 -19q0 -28 -33 -119q-38 -103 -129 -324q120 8 151 8q23 0 32 -11q5 -6 5 -17zM541 595l-2 6q-9 0 -17.5 -3.5t-27.5 -15.5q-57 -35 -156 -110q-115 -87 -191 -156q-94 -86 -94 -116q0 -12 14.5 -18.5t56.5 -6.5h22q40 0 99.5 2.5
t135.5 6.5q100 239 126 306q34 86 34 105z" />
    <glyph glyph-name="five" unicode="5" horiz-adv-x="656" 
d="M591 636q0 -10 -8 -16.5t-27 -6.5q-23 0 -85.5 -5t-98.5 -5h-148q-36 -58 -61 -118q-19 -45 -33 -96q55 16 120 16q52 0 89.5 -6t82.5 -24q79 -30 117 -82q31 -42 31 -87q0 -85 -90 -145q-102 -68 -281 -68q-108 0 -166.5 27.5t-58.5 61.5q0 8 5.5 16.5t12.5 8.5
q22 0 29.5 -19t16.5 -26q18 -13 64 -22t99 -9q150 0 242 58q82 52 82 122q0 25 -17 51t-56 51t-89.5 39.5t-100.5 14.5q-38 0 -74 -8t-71 -31q-5 -3 -12.5 -6.5t-16.5 -3.5q-23 0 -23 29q0 20 42 119q35 84 56 125l11 21q-13 0 -18.5 7t-5.5 16q0 7 5 11q9 8 29 8
q12 0 21 -2q33 -7 35 -7q4 0 15 -0.5t29 -0.5q24 0 50.5 1t69.5 5q19 0 69.5 5.5t74.5 5.5q20 0 26 -2q17 -6 17 -23z" />
    <glyph glyph-name="six" unicode="6" horiz-adv-x="633" 
d="M593 236q0 -90 -92 -168q-101 -85 -245 -85q-117 0 -180 61q-54 52 -54 129q0 32 10.5 63.5t28.5 60.5q-13 10 -13 23q0 12 11.5 22.5t27.5 11.5q71 112 171 205q120 112 203 112q35 0 35 -21q0 -10 -7.5 -17t-18 -9.5t-30 -5.5t-42.5 -15t-46 -29q-42 -30 -83 -70
q-61 -59 -106 -126q93 29 191 29q127 0 191 -63q48 -47 48 -108zM548 228q0 54 -46 91q-55 44 -156 44q-57 0 -117 -13t-109 -36q-15 -22 -28 -55q-20 -51 -20 -100q0 -69 55 -106q49 -33 123 -33q119 0 208.5 65.5t89.5 142.5z" />
    <glyph glyph-name="seven" unicode="7" horiz-adv-x="545" 
d="M559 567q-10 -22 -53 -64q-37 -35 -59 -57q-91 -88 -161 -159q-55 -56 -89 -93q-22 -24 -34 -39q-46 -55 -63.5 -78t-22.5 -38t-10 -32q-8 -17 -30 -17q-27 0 -27 34q0 30 42 85q32 43 103 116l126 128q3 3 151 146q76 73 76 88q0 6 -9 9.5t-21 3.5q-3 0 -59 -5t-88 -5
q-55 0 -108.5 -4.5t-111.5 -9.5q-60 0 -84 16q-15 10 -15 27q0 9 10 16t25 7q24 0 66 -15q56 4 107 6.5t120 2.5q38 0 86 3t63 3q33 0 54.5 -13t21.5 -37q0 -11 -6 -25z" />
    <glyph glyph-name="eight" unicode="8" horiz-adv-x="665" 
d="M675 511q0 -53 -70 -94q-64 -37 -250 -101q115 -71 155 -118q35 -42 35 -85q0 -68 -90 -106q-78 -33 -178 -33q-133 0 -209 47q-68 42 -68 101q0 49 49 95q60 57 194 110q-63 47 -95 83q-43 49 -43 94q0 75 120 115q95 32 219 32q136 0 194 -55q37 -35 37 -85zM620 519
q0 35 -29 58q-45 36 -150 36q-108 0 -187 -26q-94 -31 -94 -85q0 -41 49 -90q40 -40 87 -65q324 103 324 172zM497 113q0 35 -44 76q-53 50 -161 102q-91 -29 -160 -75q-80 -54 -80 -98q0 -40 59 -71q66 -35 168 -35q107 0 166 33q52 29 52 68z" />
    <glyph glyph-name="nine" unicode="9" horiz-adv-x="620" 
d="M620 432q0 -43 -18 -70l-56 -80q-125 -214 -128 -239.5t-5 -41.5q-6 -21 -26 -21q-10 0 -16 7q-9 10 -9 30q0 35 47 130q17 34 48 90q-55 -26 -112 -40.5t-111 -14.5q-99 0 -160 42t-61 114q0 109 115 207t251 98q103 0 172 -59t69 -152zM556 383q4 10 7 26.5t3 26.5
q0 67 -56.5 116.5t-130.5 49.5q-100 0 -205.5 -83t-105.5 -173q0 -54 40 -86q45 -36 127 -36q52 0 111 17q39 11 75.5 27.5t57 32.5t34 40.5t15.5 27.5q9 11 28 14z" />
    <glyph glyph-name="colon" unicode=":" horiz-adv-x="235" 
d="M144 161q0 -15 -10 -26q-14 -15 -38 -15t-35.5 9.5t-11.5 21.5q0 15 13 27t39 12q23 0 33 -9t10 -20zM107 20q0 -16 -14 -28t-35 -12q-19 0 -30.5 10t-11.5 24q0 19 14 28.5t34 9.5q21 0 32 -10t11 -22z" />
    <glyph glyph-name="semicolon" unicode=";" horiz-adv-x="237" 
d="M163 173q0 -16 -13.5 -27.5t-34.5 -11.5q-24 0 -34 9t-10 21q0 15 13.5 28.5t34.5 13.5t32.5 -9.5t11.5 -23.5zM103 44q10 -7 10 -15q0 -6 -2.5 -10.5t-12.5 -14.5q-47 -45 -68 -74q-26 -35 -36 -64q-5 -13 -9 -18t-17 -5q-12 0 -16 7.5t-4 20.5q0 14 5 27t17 31.5
t43 58.5q35 45 46 53t29 8q7 0 15 -5z" />
    <glyph glyph-name="less" unicode="&#x3c;" horiz-adv-x="395" 
d="M309 298q0 -13 -10 -24q-5 -5 -19 -14q-74 -51 -99 -69q-44 -32 -69 -56q16 -37 22 -48q23 -47 47 -76q4 -5 9.5 -15.5t5.5 -17.5q0 -11 -11 -19q-7 -4 -13 -4q-9 0 -16.5 6.5t-16.5 17.5q-28 37 -44 64q-23 38 -37 79l-3 13q0 8 5 16q2 3 13 14q22 22 111 88
q45 33 64 47q28 20 44 20q17 0 17 -22z" />
    <glyph glyph-name="equal" unicode="=" horiz-adv-x="445" 
d="M367 233q0 -17 -11 -22t-28 -5q-8 0 -59 -1.5t-67 -1.5l-92 -6h-26q-16 1 -22.5 8t-6.5 17q0 14 10 21t25 7q8 0 25 -2t36 -2q14 0 35 1t52 4q18 0 49.5 2.5t36.5 2.5q15 0 29 -3t14 -20zM334 139q0 -10 -7.5 -17.5t-18.5 -7.5l-19 1h-40q-31 -4 -63 -6.5t-109 -2.5h-27
q-16 2 -22.5 9t-6.5 15q0 15 11.5 22.5t31.5 7.5q2 0 33 -2t42 -2q16 0 62.5 5.5t68.5 5.5h30q16 -2 25 -9t9 -19z" />
    <glyph glyph-name="greater" unicode="&#x3e;" horiz-adv-x="395" 
d="M309 140q0 -8 -3.5 -13.5t-14.5 -16.5q-22 -22 -111 -88q-45 -33 -64 -47q-28 -20 -44 -20q-17 0 -17 22q0 13 10 24q5 5 19 14q76 52 120 86q31 24 49 42q-14 34 -36 69q-10 16 -34 49q-5 6 -10 16.5t-5 18.5q0 12 11 20q7 4 13 4q9 0 18 -8q6 -5 15 -16q28 -37 44 -64
q23 -38 37 -79z" />
    <glyph glyph-name="question" unicode="?" horiz-adv-x="599" 
d="M589 474q0 -68 -74 -115q-25 -16 -138.5 -63t-154.5 -76q-25 -17 -25 -29l3 -18q0 -22 -23 -22q-13 0 -23 12t-10 26q0 40 62 78q29 17 107 50q136 58 150 66q70 41 70 97q0 45 -53 79q-59 38 -156 38q-91 0 -150 -31q-52 -27 -52 -59q0 -13 9 -24q3 -3 11.5 -11t8.5 -14
q0 -20 -25 -20q-24 0 -42.5 19.5t-18.5 49.5q0 50 62 89q73 46 196 46q133 0 206 -56q60 -46 60 -112zM183 65q0 -27 -18 -37q-11 -6 -30 -6q-26 0 -38 12q-8 8 -8 18q0 17 21.5 31.5t42.5 14.5q15 0 22.5 -9.5t7.5 -23.5z" />
    <glyph glyph-name="at" unicode="@" horiz-adv-x="672" 
d="M637 504q0 -144 -60 -238q-55 -86 -127 -86q-33 0 -50 19t-17 47q0 11 3 22q-28 -33 -55 -55q-44 -36 -73 -36q-25 0 -45 20q-24 24 -24 64q0 43 18.5 98t48.5 102q39 60 83 93t81 33q30 0 51 -26.5t21 -71.5q0 -26 -7 -53q2 -14 2 -17q0 -12 -12 -31q-30 -46 -41 -124
q-2 -10 -2 -18q0 -22 17 -22q51 0 96 89.5t45 202.5q0 82 -50 127q-45 40 -113 40q-126 0 -241.5 -162.5t-115.5 -319.5q0 -93 49.5 -140t136.5 -47q88 0 167 40q45 23 101 69q18 15 37 31q8 5 14 5q22 0 22 -26q0 -14 -16 -31q-9 -9 -33 -28q-66 -50 -113 -71
q-80 -35 -184 -35q-108 0 -169 59t-61 167q0 95 52 217q57 133 144 219q101 100 213 100q91 0 145 -52q62 -59 62 -174zM446 472q2 16 2 25q0 5 -3 19t-13 22t-22 8q-28 0 -67 -39q-32 -32 -52.5 -64.5t-37 -80t-19 -68t-2.5 -31.5q0 -26 10 -37q7 -8 19 -8q27 0 87 76
q47 60 69 100q-2 16 3 22q21 24 26 56z" />
    <glyph glyph-name="A" unicode="A" horiz-adv-x="553" 
d="M537 335q0 -14 -12 -25q-17 -15 -56 -21q-12 -60 -24 -151t-12 -147l2 -62q0 -25 -22 -25q-15 0 -26 15q-14 19 -14 55q0 48 14 141t28 160q-162 -36 -331 -85l-4 -13l-57 -148q-11 -27 -21.5 -37.5t-26.5 -10.5q-6 0 -13 6t-7 13q0 20 22 71q1 3 50 107q-11 -4 -22 -4
q-14 0 -24 8t-10 20q0 18 26 24.5t52 12.5q116 258 230 415q106 146 167 146q39 0 54 -61q10 -40 10 -99q0 -69 -8 -143q-2 -20 -21 -153q18 6 33 6q4 0 10 -1q5 0 9 -4t4 -10zM462 648q0 49 -8.5 68.5t-21.5 19.5q-47 0 -162 -186q-102 -164 -158 -300q170 46 312 78
q12 68 25 169t13 151z" />
    <glyph glyph-name="B" unicode="B" horiz-adv-x="796" 
d="M786 601q0 -68 -86 -129.5t-229 -86.5q43 -12 83 -28t76 -37t60 -44q35 -35 45 -74q1 -8 2.5 -15t1.5 -18q0 -34 -16 -62q-19 -34 -64.5 -64.5t-111 -47t-139.5 -16.5q-95 0 -169 30q-32 13 -45.5 28.5t-13.5 34.5q0 8 1 14t8 22l93 241h-46q-23 0 -33 5t-10 17
q0 20 34 27.5t79 7.5l68 183q10 25 18.5 33.5t23.5 8.5q21 0 28 -24q4 -15 -8 -41q-7 -15 -14 -29l-56 -125q47 0 95 11t115 36q83 30 127 73q37 36 37 69q0 43 -71 70q-78 30 -220 30q-66 0 -130.5 -12.5t-120.5 -35.5q-75 -30 -111 -71q-31 -35 -31 -74q0 -35 25 -53
q16 -11 18 -13q8 -8 8 -22q0 -5 -5.5 -8t-18.5 -3q-29 0 -51 30t-22 75q0 46 33 87q41 51 127 87q64 27 149.5 40.5t162.5 13.5q50 0 92 -5q77 -9 131 -33q33 -14 53 -35q28 -29 28 -68zM686 159q0 42 -38 83q-52 56 -162 88q-35 10 -69.5 15t-75.5 5l-36 -87
q-22 -56 -27 -70q-18 -48 -32 -93q-4 -14 -4 -22q0 -17 20.5 -30.5t75.5 -21.5q37 -5 73 -5q56 0 109 10q82 18 127 57q39 34 39 71z" />
    <glyph glyph-name="C" unicode="C" horiz-adv-x="597" 
d="M559 571q15 -14 15 -26q0 -8 -7 -22q-10 -21 -14 -30.5t-11.5 -39.5t-10.5 -49t-6 -44q-5 -28 -21 -54q-9 -15 -21.5 -24.5t-21.5 -9.5q-29 0 -29 45q0 27 41 115q23 51 28.5 69.5t5.5 43.5q0 55 -23 93q-27 45 -77 45q-112 0 -224.5 -166.5t-112.5 -335.5
q0 -101 45 -148q38 -39 101 -39q76 0 148 47q51 33 123 110q9 10 19 21q17 17 29 17q22 0 22 -26q0 -19 -51 -66q-70 -64 -114 -92q-91 -57 -181 -57q-82 0 -132 51q-58 60 -58 175q0 191 126.5 373.5t262.5 182.5q67 0 103.5 -40.5t45.5 -118.5z" />
    <glyph glyph-name="D" unicode="D" horiz-adv-x="825" 
d="M808 466q7 -34 7 -69q0 -31 -4 -58.5t-20 -67.5q-41 -107 -139 -185q-88 -70 -190 -92q-21 -5 -42.5 -7t-39.5 -2q-57 0 -93.5 18.5t-36.5 42.5q0 8 6 25q11 31 14 46q17 72 44 146q16 45 47 114q35 77 48 106q21 46 30 78.5t15 43.5q12 22 35 22q15 0 22.5 -11.5
t7.5 -23.5q0 -10 -19 -38q-11 -16 -20 -35q-39 -82 -82 -187q-47 -116 -70 -195q-7 -24 -10.5 -42t-3.5 -30q0 -18 11 -24q17 -10 59 -10q54 0 105 18q74 26 140 82q85 71 117 163q18 53 18 104q0 115 -78 192q-83 82 -217 82q-139 0 -272.5 -88.5t-133.5 -182.5
q0 -18 4 -31q8 -26 30 -42q19 -13 49 -21q15 -3 25 -9.5t10 -21.5q0 -3 -3 -6q-8 -8 -24 -8l-16 2q-60 14 -94.5 49.5t-34.5 82.5q0 48 34 101q42 66 122 121q84 58 179 82q65 17 130 17q28 0 52.5 -2t46.5 -8q82 -20 143 -76q71 -66 92 -165z" />
    <glyph glyph-name="E" unicode="E" horiz-adv-x="571" 
d="M611 553q-19 -37 -56 -75q-43 -44 -79 -54q-6 -2 -16 -2q-14 0 -23 5t-9 14q0 30 26 35q44 9 62 25q23 21 38.5 44.5t22.5 49.5q4 15 4 29q0 32 -23.5 49.5t-65.5 17.5q-34 0 -81 -13.5t-104 -44.5q-65 -35 -99 -71q-18 -19 -26 -37t-8 -34q0 -50 103 -66q49 -7 99 -14
q18 -3 26.5 -11.5t8.5 -22.5t-20 -22q-8 -3 -31 -8q-124 -22 -205.5 -66t-107.5 -96q-13 -25 -13 -49q0 -19 9 -35.5t26 -32.5q25 -22 69.5 -35.5t85.5 -13.5q50 0 102.5 12t90.5 38q10 7 45 37q23 20 37 20q20 0 20 -28q0 -17 -34 -43q-25 -19 -54 -33q-35 -18 -77 -29
q-55 -15 -110 -15q-73 0 -120 12.5t-76 32.5q-34 23 -47.5 52.5t-13.5 56.5q0 24 9 48q29 77 129 133q34 19 73.5 34.5t81.5 27.5q-59 7 -103 32q-58 33 -58 84q0 29 22 66q35 56 122 106.5t166 65.5q41 7 87 7q55 0 85.5 -28.5t30.5 -75.5q0 -37 -21 -79z" />
    <glyph glyph-name="F" unicode="F" horiz-adv-x="570" 
d="M691 613q0 -6 -6 -13t-13 -7q-23 0 -44.5 5.5t-45.5 7.5t-64 2h-27q-11 0 -96 -5q-34 -2 -77 -2q-16 -33 -58 -135q-51 -123 -66 -161q65 8 141 8h27q47 0 71.5 -6.5t24.5 -29.5q0 -10 -8 -19t-19 -9q-12 0 -25 13q-8 2 -17 3t-29 1q-44 0 -92 -5q-12 -1 -91 -13
q-40 -95 -57 -157q-12 -43 -12 -68q0 -11 2 -13q5 -10 5 -23q0 -12 -7 -19t-26 -7t-27 12.5t-8 30.5q0 24 10 63q16 62 57.5 175.5t141.5 356.5q-15 0 -52 -3t-51 -3q-15 -1 -24 -1q-18 0 -31 6t-13 23q0 13 4 19q9 14 34 14q11 0 26 -5q33 0 65 1l64 2q16 13 28 13
q7 0 10.5 -1.5t12.5 -10.5q11 0 73 2t109 2h49q57 0 94 -8.5t37 -35.5z" />
    <glyph glyph-name="G" unicode="G" horiz-adv-x="614" 
d="M608 513q0 -6 -3 -13q-11 -20 -20.5 -39t-27.5 -63q-12 -29 -22 -40q-15 -16 -34 -16q-16 0 -24 10.5t-8 21.5q0 19 18 46q12 17 15 21q18 24 30.5 49.5t16.5 49t4 37.5q0 45 -26.5 69.5t-68.5 24.5q-46 0 -102 -28q-90 -46 -172 -152q-78 -101 -113 -211
q-20 -60 -20 -116q0 -45 16 -78t46 -53q36 -24 90 -24q57 0 113.5 24t95.5 62q26 26 50 64q21 34 38 73l-36 -2l-254 -8q-49 0 -66 6.5t-17 17.5q0 10 10.5 13.5t25.5 3.5l354 13q20 0 27 -2q20 -6 20 -23q0 -7 -6 -21q-29 -49 -56 -98q-36 -64 -66 -129q-26 -56 -26 -78
q2 -18 2 -29q0 -17 -8.5 -25.5t-22.5 -8.5q-16 0 -25 9.5t-9 24.5q0 11 3 20t10 22q13 28 25.5 55t27.5 53q-44 -36 -103.5 -60t-116.5 -24q-64 0 -111 33q-37 26 -59.5 70.5t-22.5 102.5q0 34 6 63t17 63q39 119 115 219q66 86 145 140q36 24 72 39q57 24 107 24
q55 0 93 -32q48 -40 48 -117q0 -26 1.5 -34.5t3.5 -19.5z" />
    <glyph glyph-name="H" unicode="H" horiz-adv-x="889" 
d="M988 662q0 -13 -15 -37q-26 -41 -43 -76q-45 -93 -71 -151q-47 -104 -73 -180q-34 -99 -34 -149q-1 -15 -1 -18q0 -11 2.5 -25t2.5 -17q0 -10 -8 -20.5t-25 -10.5q-13 0 -20.5 7.5t-9.5 19t-2 13.5q0 10 3 23t5 23l17 73q-44 4 -75.5 5t-59.5 1q-70 0 -129 -6l-23 -64
q-5 -14 -7 -25.5t-3 -16.5q0 -5 3 -12t3 -15q0 -13 -13 -23t-29 -10q-11 0 -19 7q-11 10 -11 30q0 14 7 34q17 45 30 92h-32q-16 0 -23.5 7.5t-7.5 17.5q0 17 9.5 21.5t24.5 4.5h48q55 134 66 167q35 102 35 170q0 69 -29 100q-24 26 -66 26q-17 0 -32.5 -3.5t-35.5 -10.5
q-82 -29 -166 -111q-78 -76 -122 -160q-16 -31 -26 -62t-10 -59q0 -34 18 -54q25 -28 81 -28q32 0 72.5 10t69.5 26q14 7 26 11.5t22 4.5q3 0 8.5 -4.5t5.5 -14.5q0 -16 -25 -32q-17 -11 -51 -23.5t-70.5 -19t-70.5 -6.5q-71 0 -109.5 33.5t-38.5 92.5q0 32 14 72
q41 115 150 227t214 148q42 14 76 14q67 0 106.5 -43.5t39.5 -123.5q0 -55 -16 -121q-11 -47 -38 -121l-39 -107q67 7 149 7q49 0 114 -5l57 165q18 53 68.5 166t73.5 149q10 16 20.5 19t24.5 3q5 0 9 -8t4 -17z" />
    <glyph glyph-name="I" unicode="I" horiz-adv-x="339" 
d="M386 682q0 -20 -22 -29q-14 -6 -49 -10q-50 -146 -74 -215q-40 -115 -65 -179q-29 -76 -91 -226l32 -1q15 0 23 -8t8 -17q0 -8 -11.5 -16t-33.5 -8h-28t-25 -1q-66 0 -90.5 8.5t-24.5 24.5q0 12 13 18t34 6l43 -3q44 90 121 294.5t111 317.5q-38 0 -53 6t-15 21
q0 16 17 22t35 6l94 6q17 1 24 1q13 0 20 -3.5t7 -14.5z" />
    <glyph glyph-name="J" unicode="J" horiz-adv-x="661" 
d="M771 619q0 -9 -7 -15t-24 -6q-9 1 -12 1q-12 2 -17 2q-15 0 -25.5 -8.5t-22.5 -34.5q-29 -61 -69 -183t-67 -177q-42 -88 -104 -137q-41 -33 -98 -53t-117 -20q-53 0 -97 14.5t-77 39.5q-42 31 -61 73q-15 32 -15 66q0 39 18 73.5t51 60.5q28 21 64.5 31t70.5 10
q16 0 35.5 -5t32.5 -13t13 -21q0 -9 -9 -14q-7 -4 -20 1t-20 8q-19 7 -38 7q-53 0 -97 -35q-50 -40 -50 -98q0 -18 6 -38q16 -54 76 -87q55 -30 123 -30q45 0 89 16t79 43q48 37 83 97q28 48 58 132l54 160q12 35 22 66q15 47 18 57q-73 0 -142.5 -0.5t-135.5 -1.5h-31
q-26 0 -32 1q-28 5 -28 25q0 10 7 17.5t23 7.5q15 -3 29 -5t39 -2q78 0 162 1t163 2h61q17 0 28 -8t11 -20z" />
    <glyph glyph-name="K" unicode="K" horiz-adv-x="635" 
d="M739 642q0 -33 -77 -96q-59 -48 -163 -112q-79 -48 -140 -80q23 -19 37 -46q32 -59 45 -170q10 -84 12 -94q9 -50 20 -65t30 -15q15 0 24 6.5t16.5 16.5t16 18t16.5 8t13.5 -6.5t5.5 -16.5q0 -12 -8 -23q-11 -15 -37 -30.5t-52 -15.5q-43 0 -67 43q-14 25 -23 84
q-25 166 -28 178q-11 38 -25 61.5t-35 42.5q-52 -26 -73 -36q-35 -17 -68 -30l-30 -114q-7 -24 -13.5 -50t-6.5 -45q-2 -20 -5 -28q-8 -20 -29 -20q-14 0 -21 8t-7 21q0 20 17.5 81.5t35.5 124.5q-22 -10 -47.5 -16.5t-48.5 -6.5q-19 0 -32 7t-13 25q0 37 32 70.5t72.5 53.5
t84.5 28l23 62q34 93 53.5 132t37.5 51q8 5 16 5q9 0 16 -7.5t7 -18.5q0 -14 -14 -35q-6 -9 -12 -17q-9 -14 -30 -60q-17 -39 -25 -59l-17 -47q27 0 49.5 -6.5t49.5 -21.5q115 60 212 124q88 58 121 92q17 17 21.5 48.5t27.5 31.5q19 0 27 -11t8 -24zM280 354q-24 12 -51 12
q-5 0 -19 -2l-15 -46zM154 354q-52 -12 -90 -44q-29 -25 -29 -37q0 -3 6 -4t8 -1q15 0 24 2q25 5 59 23z" />
    <glyph glyph-name="L" unicode="L" horiz-adv-x="686" 
d="M697 461q-40 -92 -143 -165q-93 -66 -212 -100q-4 -17 -11 -39.5t-15 -42.5q22 -8 46 -20q34 -18 80 -48q18 -12 31.5 -25.5t13.5 -21.5q0 -20 -21 -20q-13 0 -31 14q-39 31 -51 39q-36 23 -84 42q-31 -77 -90 -123t-126 -46q-58 0 -102.5 34.5t-44.5 83.5q0 27 16 55
q21 36 67.5 57.5t107.5 21.5q71 0 141 -24q14 29 23 57q-30 -3 -58 -3q-102 0 -162.5 41.5t-60.5 97.5q0 20 11 29t24 9q6 0 11.5 -5.5t5.5 -11.5q0 -4 -2.5 -14t-2.5 -13q0 -34 33 -60q48 -37 144 -37h39q18 3 27 4l43 189q19 75 44 133q30 71 62 105q28 30 64.5 45.5
t73.5 15.5q40 0 68.5 -18t46.5 -53t18 -79q0 -27 -5 -50.5t-19 -53.5zM669 564q0 50 -23 78t-60 28q-70 0 -121 -76q-38 -57 -71 -172q-16 -57 -43 -181q133 41 223 130q95 94 95 193zM255 91q-36 12 -67.5 18.5t-60.5 6.5q-42 0 -76 -10t-49.5 -32t-15.5 -47
q0 -34 25 -58.5t73 -24.5q40 0 72.5 18.5t56.5 54.5q5 7 14 23q18 32 28 51z" />
    <glyph glyph-name="M" unicode="M" horiz-adv-x="1143" 
d="M1098 448q-5 -28 -16 -69t-23 -85q-18 -72 -19 -78q-10 -45 -18 -90q-3 -17 -5.5 -40.5t-2.5 -33.5q0 -29 7.5 -46.5t26.5 -17.5l14 1q22 0 22 -19q0 -7 -2 -10q-8 -13 -37 -13q-43 0 -62 35q-15 28 -15 78q0 40 7 77q11 60 31 139q25 91 35 127.5t10 41.5q0 6 -2.5 8.5
t-5.5 3.5q-4 0 -9 -2.5t-21 -21.5q-31 -36 -76 -102q-60 -88 -113 -184q-27 -62 -39 -87q-21 -42 -48 -42q-10 0 -19.5 8.5t-10.5 23.5q0 9 2 21.5t8 35.5q23 89 60 200q25 75 51 151l12 42q3 11 3 16q0 11 -8 11q-4 0 -12 -4.5t-15 -11.5q-49 -54 -85 -102
q-47 -62 -123 -179l-63 -96q-15 -25 -32 -59q-22 -46 -37 -65q-11 -15 -21 -21.5t-18 -6.5q-6 0 -11.5 3.5t-10 9.5t-4.5 21q0 26 31 110q25 66 39 105q23 62 38 113q20 67 39 148q6 28 10.5 54t4.5 51q0 31 -9 55t-30 39q-14 10 -31 14t-39 4q-37 0 -71.5 -9.5t-68.5 -25.5
q-72 -35 -123 -85q-67 -65 -98 -149q-18 -48 -18 -85q0 -77 74.5 -111t220.5 -34q18 0 26 -4.5t8 -15.5q0 -18 -23 -23q-10 -2 -29 -2h-18t-17 1q-91 0 -150 17q-74 21 -113 73q-18 24 -26 49.5t-8 53.5t7 55q4 15 15 41q37 86 108 158q78 79 174 116q35 13 64.5 19.5
t62.5 6.5q70 0 110 -36q48 -43 48 -130q0 -46 -15 -111q-30 -121 -68 -233l-33 -98l56 84q13 21 64 98q46 70 93 130q67 86 103 110q25 16 44 16q39 0 39 -53q0 -22 -9 -51l-16 -49l-66 -206l-25 -80q61 108 103 173q33 51 92 132q23 33 43 50q24 21 45 21q13 0 23 -9
q16 -14 16 -43q0 -6 -2 -22z" />
    <glyph glyph-name="N" unicode="N" horiz-adv-x="863" 
d="M822 445q-36 -139 -47 -185q-7 -28 -20 -91q-3 -14 -7 -40t-4 -41q0 -25 6 -39.5t22 -18.5q15 0 26 -1.5t11 -14.5q0 -11 -10.5 -20.5t-30.5 -9.5q-39 0 -54.5 28t-15.5 72q0 17 1 29.5t6 40.5q10 63 26 133q20 84 25 106t8.5 37.5t3.5 19.5q0 3 -0.5 6t-1.5 6
q-7 0 -18 -9q-7 -6 -18 -18q-53 -60 -124 -164q-64 -95 -97 -157q-28 -53 -36 -64q-22 -32 -44 -32q-11 0 -17 3q-13 6 -13 23q0 18 13 52q2 6 30 71q48 112 93 245q40 116 48 171q1 12 2.5 23t1.5 24q0 47 -21 72q-24 28 -74 28q-61 0 -157 -58t-163 -140q-77 -94 -77 -177
q0 -56 38.5 -88.5t101.5 -32.5q21 0 51 6t51 15q6 2 17 5.5t17 3.5q16 0 16 -17q0 -19 -26 -32q-12 -6 -30 -11q-49 -13 -94 -13q-85 0 -140 37q-62 42 -62 121q0 31 10 65q28 101 143 207q102 94 203 133q27 10 56.5 17t54.5 7q59 0 93 -32q39 -37 39 -112
q0 -46 -17.5 -114.5t-38.5 -125.5q-2 -5 -54 -136l-34 -86l84 127q31 47 68 96q45 61 74 92q16 17 31 27q21 13 43 13q14 0 23 -8q14 -12 14 -39q0 -17 -5 -35z" />
    <glyph glyph-name="O" unicode="O" horiz-adv-x="682" 
d="M637 525q7 -32 7 -72q0 -50 -10 -101t-28 -97q-36 -94 -97 -169q-78 -95 -174 -130q-26 -10 -50 -14t-48 -4q-87 0 -140.5 57.5t-53.5 150.5q0 32 6.5 64.5t17.5 60.5q-12 39 -12 88q0 111 68 209t169 137q54 21 106 21q89 0 155 -56t84 -145zM593 442q0 114 -58 176
q-53 57 -136 57q-27 0 -59 -8q-54 -14 -102 -51t-80 -89q-24 -38 -35 -78.5t-11 -73.5l22 40q40 73 89 127q56 61 110 82q28 11 53 11q23 0 37 -8.5t14 -18.5q-1 -7 -2 -10q-5 -10 -15 -12t-20 -2q-6 0 -17 1t-15 1q-14 0 -24.5 -3.5t-30.5 -17.5q-39 -27 -80 -80t-72 -115
q-13 -27 -18 -39q-12 -28 -19 -54q14 -55 62.5 -88t112.5 -33q47 0 92 19q5 2 14.5 4t13.5 2q14 0 14 -11q0 -14 -5 -20q-8 -10 -25 -15q-30 -10 -52.5 -14.5t-56.5 -4.5q-53 0 -96 17q-55 22 -95 74q-10 -30 -10 -67q0 -57 25 -94q17 -25 44 -41.5t60 -16.5t62 5.5t60 19.5
q78 36 141 123q53 73 82 158q12 37 19 75t7 73z" />
    <glyph glyph-name="P" unicode="P" horiz-adv-x="779" 
d="M803 433q-22 -60 -67 -108q-57 -61 -151 -103t-186 -42h-18q-12 2 -18 2l-34 -105q-3 -8 -5.5 -20.5t-2.5 -21.5t3.5 -19.5t3.5 -16.5q-4 -25 -34 -25q-12 0 -22.5 11t-10.5 30q0 14 6 37t10 38l34 104q-14 7 -17 17t-3 25q0 12 22 12q6 0 12 -3l41 105q31 81 63 163
q7 18 39 86q10 23 23.5 32.5t29.5 9.5q9 0 17.5 -7t8.5 -20q0 -9 -5 -21.5t-18 -29.5q-25 -35 -51 -89q-16 -32 -35 -81q-39 -95 -58 -161q21 -5 50 -5q24 0 53 6q94 20 172.5 87t99.5 143q7 24 7 48q0 77 -67 123.5t-173 46.5q-43 0 -82 -7q-66 -11 -139.5 -43.5
t-127.5 -76.5q-40 -32 -64 -67t-24 -59q0 -34 17 -55q32 -39 117 -39q18 0 30.5 -3t12.5 -16q0 -16 -15.5 -21t-46.5 -5q-99 0 -145 53q-32 37 -32 88q0 35 23 72q18 29 52 61q50 47 134.5 89t167.5 61q21 5 54.5 9.5t67.5 4.5q38 0 70 -4.5t68 -17.5q76 -26 117 -76
t41 -116q0 -38 -15 -80z" />
    <glyph glyph-name="Q" unicode="Q" horiz-adv-x="672" 
d="M637 432q0 -131 -76 -263q-81 -140 -204 -201q38 -50 80 -71q31 -15 65 -15q38 0 57 14q16 18 24.5 24.5t18.5 6.5q8 0 14 -6t6 -12q0 -25 -40 -47t-88 -22q-52 0 -100 26q-55 30 -85 84q-38 -12 -78 -12q-82 0 -135 50q-60 57 -60 158q0 32 6.5 64.5t17.5 60.5
q-6 19 -9 43.5t-3 44.5q0 141 104.5 253.5t236.5 112.5q71 0 128 -34q49 -29 78 -77q21 -34 31.5 -82.5t10.5 -99.5zM586 442q0 106 -52 169.5t-138 63.5q-108 0 -197 -86q-94 -91 -94 -214q74 142 152 208q62 52 117 52q22 0 39 -7.5t17 -19.5q0 -20 -12 -20q-2 0 -15 2
t-24 2q-29 0 -57 -15q-38 -20 -80 -70q-31 -37 -63 -91q-43 -73 -62 -139q4 -14 10.5 -27.5t18.5 -28.5q52 -64 142 -64q26 0 50 4t46 14q14 6 22 6q6 0 13 -3t7 -8q0 -26 -38.5 -40t-100.5 -14q-53 0 -96 17q-55 22 -95 74q-6 -18 -8 -36.5t-2 -39.5q0 -69 43 -108
q40 -36 102 -36q16 0 25 1t26 6q-8 14 -24 26.5t-29 12.5q-8 0 -25 -3t-26 -3q-10 0 -10 19q0 16 21 25.5t47 9.5q28 0 53 -21q21 -18 41 -50q107 48 183 180q73 127 73 252z" />
    <glyph glyph-name="R" unicode="R" horiz-adv-x="788" 
d="M804 526q0 -94 -90.5 -182.5t-229.5 -127.5l36 -53q57 -84 84 -120q31 -41 53 -58q13 -10 24 -14.5t22 -4.5q6 0 20 2q23 3 23 -14q0 -11 -11.5 -19.5t-32.5 -8.5q-17 0 -43 9q-42 16 -83 63q-24 28 -75 103q-38 58 -67 107q-25 -4 -31 -5h-21q-21 0 -49 5l-35 -97
q-5 -13 -13 -36.5t-11 -38.5l-3 -29q-6 -21 -35 -21q-9 0 -16.5 6t-7.5 21q0 12 5 25l67 181q-34 10 -56 32t-29 48q-3 11 -3 23q0 30 19.5 52.5t56.5 22.5q18 0 37 -5.5t36 -19.5q32 69 63 144t39.5 79.5t14.5 4.5t11 -3q15 -8 15 -22q0 -12 -21 -56q-47 -97 -82 -178
q23 -20 43 -44q16 -20 32 -45q104 20 194 93q102 83 102 174q0 78 -68.5 121t-180.5 43q-44 0 -81.5 -6.5t-88.5 -24.5q-72 -25 -131 -66q-45 -31 -78 -68q-25 -28 -35.5 -52.5t-10.5 -45.5q0 -24 15 -46q11 -16 25.5 -26.5t19.5 -17.5t5 -14q0 -11 -20 -11q-14 0 -23 3.5
t-24 14.5q-29 19 -41 43t-12 50q0 24 10 51q4 12 14 29q42 71 129 127q70 44 158.5 72t171.5 28q148 0 227 -65q67 -55 67 -132zM411 243q-17 28 -44 52l-20 -50q17 -4 41 -4h11q8 2 12 2zM328 331q-21 21 -47 21q-35 0 -35 -31q0 -18 16.5 -36.5t37.5 -25.5z" />
    <glyph glyph-name="S" unicode="S" horiz-adv-x="527" 
d="M585 505q-13 -44 -30.5 -76t-30 -40.5t-23.5 -8.5q-13 0 -21.5 10t-8.5 23t8 27q1 1 17 24q26 36 36 62t10 49q0 37 -28 63q-36 33 -102 33q-31 0 -81.5 -10.5t-108.5 -41.5q-66 -35 -94 -75q-23 -32 -23 -63q0 -24 15.5 -52.5t70.5 -74.5q37 -31 105 -81t97 -78
q21 -21 35 -44.5t14 -47.5q0 -31 -29 -63q-25 -28 -64.5 -48t-84.5 -28t-86 -8q-76 0 -135 22q-48 18 -78 46q-20 20 -31.5 45.5t-11.5 49.5q0 18 6 35q14 38 42 38q23 0 23 -18q0 -7 -9.5 -24t-9.5 -34q0 -30 24.5 -57.5t75.5 -45.5q22 -8 49 -12.5t56 -4.5
q65 0 119.5 21.5t79.5 60.5q12 20 12 36q0 20 -16 38q-11 13 -38 33q-85 62 -166.5 124.5t-104.5 116.5q-3 6 -8 23.5t-5 33.5q0 39 26 78q34 52 102 92q58 34 119 49.5t112 15.5q59 0 99.5 -17t61.5 -45q13 -17 19 -39t6 -42q0 -18 -3.5 -35.5t-8.5 -34.5z" />
    <glyph glyph-name="T" unicode="T" horiz-adv-x="509" 
d="M696 653q0 -11 -12.5 -18.5t-26.5 -7.5q-15 0 -23.5 4t-15 12.5t-9.5 9.5q-8 5 -30 5h-125q-35 -56 -68 -127q-28 -61 -63 -146l-61 -151q-23 -54 -45 -107t-22 -87q0 -37 -8 -49.5t-27 -12.5q-13 0 -21 6q-13 9 -13 32q0 22 19 67q38 88 77 177q74 175 158 391
q-47 0 -91.5 -3.5t-54.5 -3.5l-224 -11q-90 0 -119 12.5t-29 33.5q0 14 20.5 24.5t49.5 10.5q34 0 47.5 -5.5t13.5 -16.5q0 -6 -5 -14h29l23 1l98 4q21 0 196 12q87 6 210 6q49 0 81.5 -3t56.5 -16q14 -9 14 -29z" />
    <glyph glyph-name="U" unicode="U" horiz-adv-x="876" 
d="M896 604q0 -8 -9 -23q-19 -32 -28 -51q-37 -80 -68 -179q-48 -151 -48 -252q0 -38 10.5 -71t36.5 -39q4 -1 12 -1q12 1 17 1q13 0 13 -15q0 -9 -11.5 -14t-24.5 -5q-47 0 -75.5 40.5t-28.5 102.5q0 41 9 91.5t28 126.5q-83 -142 -153 -226q-53 -63 -101 -92
q-32 -19 -53 -19q-37 0 -52 18.5t-15 51.5q0 20 6 45.5t16 54.5l115 319q21 56 27 85.5t6 50.5q0 33 -14 52q-22 30 -71 30q-17 0 -35.5 -3t-43.5 -11q-86 -28 -159 -89q-81 -67 -118 -154q-17 -39 -17 -73q0 -42 26 -68t78 -26q28 0 50 4t45 15q14 7 22 10q14 6 23 6
q20 0 20 -15q0 -22 -48 -42t-112 -20q-77 0 -116 39q-35 35 -35 95q0 25 5 47t16 48q36 83 121.5 155.5t181.5 102.5q51 17 102 17q57 0 89 -24q38 -28 38 -91q0 -27 -6.5 -59t-25.5 -82l-102 -270q-19 -51 -27 -84t-8 -58q0 -11 7.5 -22.5t16.5 -11.5q21 0 46 20t60 63
q56 68 116 164q46 74 92 160q24 46 56 110l33 66q4 9 13.5 16.5t24.5 7.5q9 0 18 -8t9 -17z" />
    <glyph glyph-name="V" unicode="V" horiz-adv-x="830" 
d="M986 632q-6 -9 -18 -9q-4 0 -9 2q-12 5 -16 5q-7 0 -15 -3.5t-20 -13.5q-35 -29 -70 -71q-45 -53 -95 -136q-62 -102 -127 -235q-29 -63 -57 -126q-29 -58 -52 -58q-16 0 -24 11t-8 28q0 18 6 52q12 66 17 103q11 75 18.5 158.5t7.5 144.5q0 65 -7.5 100t-21.5 62
q-17 33 -40 51q-31 24 -75 24q-9 0 -20 -0.5t-32 -7.5q-75 -21 -147 -88q-79 -72 -113 -161q-7 -19 -10.5 -35.5t-3.5 -34.5q0 -55 37.5 -86.5t101.5 -31.5q17 0 28 -3t11 -17q0 -13 -11.5 -17.5t-22.5 -4.5q-95 0 -146.5 42.5t-51.5 108.5q0 33 9.5 65.5t23.5 59.5
q32 61 84 115q56 58 125 96q37 21 74 31.5t65 10.5q42 0 76 -17q26 -13 47 -36q35 -37 49 -101t14 -143q0 -42 -1.5 -65.5t-6.5 -83.5l-19 -200l94 184q50 94 83 147q66 105 132 169q36 35 66 49q19 9 34 9q12 0 22 -3.5t14.5 -10t4.5 -16.5q0 -8 -4 -13z" />
    <glyph glyph-name="W" unicode="W" horiz-adv-x="1150" 
d="M1310 648q0 -11 -10.5 -16.5t-45.5 -10.5q-14 -7 -24 -15t-24 -22q-47 -46 -93 -124q-39 -65 -86 -166.5t-93 -202.5q-25 -53 -43 -77q-33 -45 -70 -45q-50 0 -68 77q-10 43 -10 127q0 59 3.5 103.5t12.5 98.5q-25 -21 -43 -40t-38 -46q-33 -43 -67.5 -99t-63.5 -116
q-14 -31 -28 -61q-17 -29 -44 -29q-14 0 -25 12.5t-11 39.5q0 10 8 31q13 33 19 53q12 38 46 129q47 126 67 225q9 45 9 83q0 85 -43.5 130.5t-127.5 45.5q-135 0 -256 -115q-114 -108 -114 -207q0 -64 54 -91q44 -22 128 -22q45 0 95 15q24 7 42 7q15 0 19.5 -3.5
t4.5 -10.5q0 -22 -60 -36t-119 -14q-111 0 -167 44q-50 39 -50 105q0 117 129 239q139 131 296 131q116 0 173 -68q49 -58 49 -157q0 -13 -1.5 -29t-2.5 -25q-8 -55 -34 -139q-21 -68 -50 -140l-46 -116q29 46 45.5 74t32.5 54q47 75 88 129q24 31 42 51q30 32 53 47
q15 10 25 10q18 0 27 -8.5t9 -20.5q0 -4 -8 -39t-14 -66t-10 -85.5t-4 -101.5v-37t4 -40q9 -54 27 -54q20 0 45 54q44 99 89 198q58 126 95 190q53 92 111 152q33 34 57 47.5t47 13.5q18 0 30 -5t12 -16z" />
    <glyph glyph-name="X" unicode="X" horiz-adv-x="850" 
d="M984 695q0 -10 -9 -19t-19 -9q-4 0 -11 3t-11 3q-29 0 -122 -81q-102 -89 -202 -211q22 -115 48 -187q34 -94 79 -136q28 -25 70.5 -26.5t42.5 -18.5q0 -11 -7 -17q-12 -10 -38 -10q-86 0 -143.5 85.5t-89.5 260.5q-88 -100 -151 -185q-33 -45 -75 -107
q-25 -37 -34 -42.5t-20 -5.5q-8 0 -16 6t-8 17q0 17 26 55q33 47 131 167l132 161q-15 69 -24.5 105t-15.5 57q-27 91 -73 135q-41 40 -96 40q-54 0 -110 -39q-69 -47 -118 -126q-52 -84 -52 -159q0 -56 19 -88q15 -26 42 -37q10 -5 25.5 -7t30.5 -2q21 0 32.5 2.5t16 3
t9.5 0.5q13 0 18 -10q2 -3 2 -9q0 -11 -13 -18t-35 -12t-47 -5q-70 0 -114 48t-44 127q0 72 52 160q47 79 112 137q46 41 90 59t91 18q80 0 132 -58q70 -79 111 -278q167 172 235.5 230.5t104.5 58.5q23 0 34.5 -10.5t11.5 -25.5z" />
    <glyph glyph-name="Y" unicode="Y" horiz-adv-x="862" 
d="M868 545q0 -12 -13 -46t-22 -57q-21 -56 -55 -193q-38 -152 -57.5 -239t-26 -126t-6.5 -58q0 -13 3.5 -32.5t3.5 -22.5q0 -8 -8.5 -15.5t-18.5 -7.5q-18 0 -25.5 12.5t-7.5 35.5q0 22 5.5 53t8.5 47q21 121 42 203.5t30 118.5l17 70l-38 -71q-39 -72 -86 -135
q-57 -77 -96 -102q-10 -7 -24.5 -12.5t-28.5 -5.5q-19 0 -36 13.5t-24.5 35t-7.5 50.5q0 30 9 72q5 24 18 69t32 100.5t38 111.5q24 73 24 127q0 65 -37 95q-31 25 -84 25q-42 0 -88 -16q-62 -22 -116 -68t-88 -111q-28 -55 -28 -103q0 -66 48.5 -106.5t130.5 -40.5
q32 0 79 10q23 5 31 6.5t11 0.5q12 -4 12 -14q0 -13 -24 -26q-15 -8 -37 -14q-37 -10 -85 -10q-86 0 -151 45q-75 52 -75 138q0 26 5.5 49.5t18.5 53.5q38 88 114.5 153t169.5 89q44 12 83 12q73 0 115.5 -40.5t42.5 -121.5q0 -33 -7.5 -71t-31 -109t-47.5 -143
q-13 -38 -23 -79q-13 -52 -13 -81q0 -25 9 -40.5t24 -15.5q16 0 36 19q14 13 40 45q46 56 92 136q37 64 76 146q25 52 57 127l26 64q17 31 43 31q9 0 15 -10t6 -21z" />
    <glyph glyph-name="Z" unicode="Z" horiz-adv-x="702" 
d="M803 675q0 -16 -10 -26q-14 -14 -43 -14q-41 -57 -157 -232q-87 -131 -142 -198q-80 -97 -167 -162q44 -10 93 -27q70 -24 115 -24q64 0 93 20q11 8 23.5 16t21.5 8q12 0 18.5 -6.5t6.5 -16.5q0 -23 -52 -46t-108 -23q-45 0 -109 19q-139 42 -149 44q-45 -19 -68 -28
q-52 -19 -101 -19q-45 0 -76 19.5t-31 43.5t24 40q33 22 100 22q42 0 78 -10.5t57 -16.5q56 37 105 83q73 69 151 172q96 127 205 313q-38 -3 -69 -3q-24 0 -47.5 1t-71.5 7q-77 9 -170 22q-64 9 -85 9h-13q-10 -2 -20.5 -3.5t-23.5 -10t-13 -26.5q0 -19 16 -32
q20 -12 27 -16q18 -11 18 -25q0 -17 -24 -17q-15 0 -33.5 8t-33.5 19q-22 16 -31.5 34t-9.5 38q0 14 5 26t14 21q15 15 42.5 23t73.5 8q29 0 45 -2t26 -3q138 -17 277 -33q42 0 72.5 3t59.5 12q12 10 23.5 14t21.5 4q19 0 32.5 -8.5t13.5 -20.5zM172 26q-30 9 -51.5 12.5
t-41.5 3.5q-26 0 -42 -4.5t-16 -15.5t15.5 -18t34.5 -7q20 0 42.5 6t58.5 23z" />
    <glyph glyph-name="bracketleft" unicode="[" horiz-adv-x="392" 
d="M397 710q0 -13 -9 -17.5t-25 -4.5t-23 1t-14.5 1h-10.5q-44 0 -88 -8q-70 -229 -105 -376q-42 -178 -67 -366q4 1 33 5t36 4h39q27 0 40 -12q9 -8 9 -20q0 -14 -9 -18t-22 -4l-32 2l-41 2q-12 0 -36 -2t-38 -2h-13q-21 0 -21 17q0 13 12 90.5t18 108.5q27 141 62 281
q39 158 81 288q9 28 57.5 43.5t129.5 15.5q22 0 31 -11q6 -8 6 -18z" />
    <glyph glyph-name="backslash" unicode="\" horiz-adv-x="383" 
d="M295 -224q0 -22 -3 -31q-7 -20 -28 -20q-13 0 -20 6q-10 9 -10 28q0 6 1 12.5t2.5 15t1.5 19.5v17q0 27 -6 69q-23 179 -29 216q-9 50 -36 159q-59 236 -85 342l-3.5 24.5t-1.5 13.5q0 19 7 30t27 11q17 0 24.5 -4t7.5 -18q0 -8 -1.5 -18.5t-1.5 -11.5q0 -16 5 -39.5
t14 -57.5q40 -149 69 -280q20 -92 36 -185q9 -54 14 -91t10.5 -103t5.5 -104z" />
    <glyph glyph-name="bracketright" unicode="]" horiz-adv-x="415" 
d="M402 722q0 -13 -12 -90.5t-18 -108.5q-20 -105 -36 -175q-33 -147 -82 -313q-25 -85 -28 -92q-15 -33 -105 -44q-35 -4 -79 -4q-22 0 -29.5 9.5t-7.5 19.5q0 13 9 17.5t25 4.5t22 -1t12.5 -1h13.5q44 0 88 8q70 229 105 376q42 178 67 366q-4 -1 -33 -5t-36 -4h-39
q-27 0 -40 12q-9 8 -9 20q0 14 9 18t22 4l32 -2l41 -2q12 0 36 2t38 2h13q21 0 21 -17z" />
    <glyph glyph-name="asciicircum" unicode="^" horiz-adv-x="537" 
d="M560 428q0 -8 -6 -14.5t-15 -6.5q-10 0 -22.5 16.5t-19.5 25.5l-50 60l-44 -56q-10 -14 -20.5 -28t-22.5 -14q-13 0 -13 21q0 12 15 35.5t47 60.5q8 9 17 17q14 12 20 12q17 0 52 -42q40 -49 51 -64.5t11 -22.5z" />
    <glyph glyph-name="underscore" unicode="_" horiz-adv-x="492" 
d="M395 -98q-10 -7 -29 -7t-38 1t-36 2l-91 -3q-21 0 -56.5 -2.5t-42.5 -2.5q-23 0 -33 3q-18 6 -18 21q0 8 4.5 18.5t16.5 10.5l60 -4h71h34h13h12h49q18 3 26 4l46 5q23 0 23 -23q0 -15 -11 -23z" />
    <glyph glyph-name="grave" unicode="`" horiz-adv-x="577" 
d="M395 454q0 -18 -16 -18q-4 0 -10.5 2.5t-15.5 7.5l-66 41q-9 6 -21 15t-18 17q-9 12 -9 24q0 20 18 20q7 0 13 -5q2 -1 11 -12q15 -16 40.5 -33.5t48.5 -27.5q6 -3 13 -6q12 -8 12 -25z" />
    <glyph glyph-name="a" unicode="a" horiz-adv-x="427" 
d="M450 252q0 -22 -47 -99q-38 -63 -69 -101q-19 -24 -37 -39q-30 -25 -51 -23q-16 0 -27.5 13.5t-11.5 39.5q0 15 6 35q-52 -50 -66 -60q-42 -32 -79 -32q-26 0 -43.5 20t-17.5 58q0 15 2 28.5t8 35.5q17 59 52 119q39 67 86 111q22 20 42.5 30t47.5 10q36 0 55 -31
q16 -26 16 -68l-2 -40l1 -18q0 -16 -12 -40q-25 -50 -26 -53q-9 -23 -15 -39q-10 -28 -10 -49q0 -24 5 -24q8 0 29.5 20.5t30.5 34.5q23 32 47 72q29 47 42 78q5 13 8 17q8 11 21 11q15 0 15 -17zM256 225q13 36 13 74q0 26 -7.5 41t-23.5 15q-48 0 -120 -111t-72 -184
q0 -15 5 -26.5t20 -11.5q34 0 100 75t85 128z" />
    <glyph glyph-name="b" unicode="b" horiz-adv-x="342" 
d="M324 246q0 -86 -51 -172q-57 -95 -126 -95q-31 0 -63 22q-23 18 -34 26q-20 16 -24 20q-13 13 -13 28q0 11 3 25t19 69q36 118 74 216q28 74 55 130q15 31 26 51t20.5 28.5t18.5 8.5q22 0 22 -27q0 -17 -21 -53l-26 -44q-22 -40 -52 -115q-24 -61 -40 -112q27 33 54 56
q46 38 81 38q32 0 52 -21q25 -26 25 -79zM267 181q10 39 10 65q0 27 -11 40t-27 13q-44 0 -98 -73q-47 -63 -74 -140q12 -23 33 -41q26 -23 48 -23q29 0 57 29q39 41 62 130z" />
    <glyph glyph-name="c" unicode="c" horiz-adv-x="370" 
d="M380 225q0 -10 -5 -24.5t-22 -44.5q-43 -75 -106 -127q-71 -59 -138 -59q-46 0 -72.5 29.5t-26.5 83.5q0 37 11 74q25 89 79 156q60 75 121 75q43 0 66 -35q20 -30 20 -75q-18 -49 -21 -57q-21 -47 -45 -47q-12 0 -19 8t-7 18q0 13 10.5 36.5t22.5 50.5q1 2 1 7v8
q0 17 -5 26q-8 13 -26 13q-39 0 -93 -79q-48 -70 -64 -127q-8 -30 -8 -56q0 -32 13 -51.5t41 -19.5q42 0 90 35t95 100q12 17 38 70q16 33 31 33q19 0 19 -21z" />
    <glyph glyph-name="d" unicode="d" horiz-adv-x="410" 
d="M430 510q-61 -173 -81 -236q-14 -45 -37 -135q-6 -23 -12 -49q-9 -40 -9 -48q0 -23 13 -23q7 0 18 10t20 21q21 27 33 48.5t25 44.5q4 7 8.5 12t10.5 5q3 0 8 -3q5 -5 5 -14q0 -10 -9 -30q-14 -27 -35 -56t-45 -53q-10 -10 -21.5 -17.5t-23.5 -7.5q-18 0 -32.5 17.5
t-14.5 54.5q0 20 5 37q-17 -21 -36 -41q-13 -14 -31 -32q-25 -23 -49 -36q-32 -18 -55 -18q-15 0 -28.5 8t-23 24t-12.5 31t-3 33q0 20 3.5 38.5t8.5 35.5q21 72 65 137q41 61 89 93q18 12 34 18t33 6q24 0 40.5 -11.5t28.5 -38.5l17 51l29 86l18 57q3 11 10.5 22.5
t19.5 11.5q23 0 23 -23q0 -9 -3 -18zM269 196q17 43 17 78q0 30 -11 47t-28 17t-35 -9q-13 -6 -22 -14q-33 -26 -64 -71q-37 -54 -58 -119q-12 -38 -12 -69q0 -59 36 -59q18 0 42 17q32 23 68 69q45 56 67 113z" />
    <glyph glyph-name="e" unicode="e" horiz-adv-x="303" 
d="M295 241q0 -62 -60 -152q-66 -99 -129 -99q-37 0 -59 25q-26 30 -26 93q0 71 29.5 146t66.5 111q13 12 27 17.5t24 5.5q19 0 33 -13q20 -19 20 -55q0 -66 -35.5 -115t-88.5 -49q-11 0 -23 3q-2 -12 -4 -26t-2 -25q0 -33 9.5 -53.5t32.5 -20.5q35 0 81.5 65t60.5 129
q4 17 7 24q7 15 19 15q17 0 17 -26zM177 314q0 26 -16 26q-17 0 -40.5 -44.5t-36.5 -92.5q5 -3 10.5 -4t9.5 -1q30 0 51.5 38t21.5 78z" />
    <glyph glyph-name="f" unicode="f" horiz-adv-x="289" 
d="M299 262q0 -19 -35 -60q-31 -36 -60 -58q5 -24 5 -58q0 -104 -53.5 -198.5t-111.5 -94.5q-25 0 -39.5 28.5t-14.5 71.5q0 59 15 136q8 42 24 99q-8 8 -13 19t-5 29q0 40 52 62l14 39q49 135 70 186q31 75 33 82q9 38 11 43q11 24 36 24q23 0 23 -21q0 -14 -10 -35
q-14 -30 -51.5 -113.5t-54.5 -134.5l-22 -65q29 -3 48 -19t29 -40q18 14 37 35t32 43q6 10 11.5 13.5t10.5 3.5q9 -2 12 -2q7 0 7 -15zM151 164q-5 17 -16 28q-14 14 -33 14l-16 -55q40 0 65 13zM164 123q-33 -16 -73 -16q-13 0 -19 1q-16 -44 -29 -107.5t-13 -103.5
q0 -30 5 -48.5t21 -18.5q29 0 66 69q44 82 44 182v26q-2 11 -2 16z" />
    <glyph glyph-name="g" unicode="g" horiz-adv-x="344" 
d="M318 212l-1 -43q0 -14 -8 -41q-13 -42 -18 -71q-21 -115 -24 -126q-18 -72 -47 -113q-49 -69 -123 -69q-51 0 -84 27q-38 31 -38 85q0 31 8 45.5t18 14.5q23 0 23 -16q0 -9 -2.5 -22.5t-2.5 -23.5t1 -14q5 -25 24.5 -42.5t49.5 -17.5q80 0 121 103q32 81 32 197
q-25 -37 -58 -64q-47 -39 -89 -39q-36 0 -56 26.5t-20 70.5q0 101 68 197.5t143 96.5q48 0 70 -36q18 -29 18 -76q0 -27 -5 -49zM277 272q0 56 -46 56q-50 0 -108.5 -88.5t-58.5 -165.5q0 -26 11 -41.5t31 -15.5q16 0 33 10q30 18 60.5 56.5t36 69t7.5 35.5q7 17 26 25
q2 11 5 30.5t3 28.5z" />
    <glyph glyph-name="h" unicode="h" horiz-adv-x="383" 
d="M393 260q0 -8 -2 -16t-13 -33q-26 -65 -52 -111q-43 -78 -82 -107q-18 -14 -35 -14q-16 0 -25.5 12.5t-9.5 32.5q0 15 10 56q15 54 26 100q1 1 6.5 27t5.5 27l-2 7q-6 -6 -11 -12q-13 -15 -40 -51q-62 -92 -85 -126q-39 -57 -59 -57q-6 0 -12 6t-6 21q0 9 11 43.5
t18 59.5t58 181q17 53 38 108q13 35 18 55q7 49 9.5 62t25.5 30q17 12 27 12q16 0 16 -22q0 -5 -4.5 -21.5t-16.5 -44.5q-17 -41 -28 -71q-5 -15 -37 -103q-23 -64 -28 -82l-33 -109l26 37q58 82 92 116q27 27 44 27q12 0 19 -8.5t7 -23.5t-4 -37.5t-24 -99.5q-5 -17 -9 -33
q-7 -27 -10 -54v-7q1 -3 2 -4.5t2 -2.5q6 0 15.5 8.5t23.5 32.5q21 36 43 81q15 31 39 88q4 10 10.5 23t20.5 13q15 0 15 -16z" />
    <glyph glyph-name="i" unicode="i" 
d="M178 431q0 -19 -13.5 -33.5t-28.5 -14.5q-12 0 -22.5 9t-10.5 25q0 19 12 32t30 13q14 0 23.5 -6.5t9.5 -24.5zM231 199q-11 -31 -39.5 -76t-52 -73t-44 -43t-36.5 -15q-20 0 -29 17.5t-9 45.5q0 23 3 43t8 37q17 78 48 148q9 20 20.5 31.5t23.5 11.5q9 0 16 -7t7 -17
q0 -7 -5 -18q-9 -18 -16 -33q-15 -32 -32 -78t-26 -82q-5 -22 -5 -36q0 -21 10 -21q9 0 21 15q28 32 58 88q20 40 41 81q4 8 12 16t16 8q15 0 15 -18q0 -11 -5 -25z" />
    <glyph glyph-name="j" unicode="j" horiz-adv-x="207" 
d="M249 430q0 -17 -9 -29q-12 -16 -37 -16q-21 0 -31 13.5t-10 27.5q0 15 11.5 25.5t31.5 10.5q21 0 32.5 -9.5t11.5 -22.5zM187 279q-32 -57 -33 -58q-11 -23 -21 -59q-17 -57 -42 -165q-8 -33 -21 -71q-45 -129 -126 -190q-60 -45 -128 -45q-61 0 -98.5 37.5t-37.5 89.5
q0 31 22.5 57.5t52.5 26.5q14 0 23 -8t9 -19q0 -22 -23 -22l-14 1q-9 0 -16 -10.5t-7 -26.5q0 -36 24.5 -61.5t63.5 -25.5q33 0 63 13q50 21 89 75q53 72 82 194q23 101 47 203q29 100 70 100q27 0 27 -19q0 -6 -6 -17z" />
    <glyph glyph-name="k" unicode="k" horiz-adv-x="478" 
d="M470 228q9 -6 9 -18q0 -9 -3.5 -18t-13.5 -24q-35 -53 -69 -90q-52 -57 -102 -78q-35 -14 -64 -14q-52 0 -81 46q-19 30 -26 76q-15 7 -20 24q-19 -32 -26.5 -85t-32.5 -53q-10 0 -17 5q-11 8 -11 28q0 10 5 35.5t28 106.5q9 30 35.5 113.5t37.5 112.5q37 95 51.5 134.5
t23.5 71t14 41.5q12 23 32 23q11 0 19 -5.5t8 -22.5q0 -20 -20 -64q-27 -58 -53 -115q-40 -93 -76 -209q58 77 100 116q69 63 127 63q41 0 62 -25t21 -69q0 -27 -11 -65q-20 -63 -69 -107q-41 -37 -84 -47q-14 -3 -32.5 -5t-55.5 -2q0 -35 18.5 -56.5t49.5 -21.5q27 0 59 19
q59 35 90 87l38 74q8 12 14.5 16.5t13.5 4.5q5 0 11 -3zM383 332q0 49 -49 49q-50 0 -120 -76q-62 -67 -96 -139q4 1 12 1q27 0 44 -19q9 -1 25 -1q95 0 145 67q39 52 39 118z" />
    <glyph glyph-name="l" unicode="l" horiz-adv-x="321" 
d="M321 575q0 -47 -17 -106q-25 -83 -70 -170q-61 -117 -141 -195q-2 -16 -2 -35q0 -29 5.5 -40t14.5 -11q11 0 27 15q30 28 67 90q30 50 51 100q7 15 9 18q8 10 19 10q15 0 15 -20q0 -13 -8 -29q-19 -42 -45 -85q-30 -50 -57 -83t-55 -49q-23 -13 -41 -13q-20 0 -33 20
q-18 27 -18 82q-13 5 -13 19q0 22 12 34q11 82 36 172.5t60 172.5q50 115 96 149q8 6 18 10.5t18 4.5q26 0 39 -15t13 -46zM280 562q0 27 -12 27t-32 -27q-24 -33 -52 -98q-33 -77 -57 -155.5t-32 -143.5q72 88 131 219q54 121 54 178z" />
    <glyph glyph-name="m" unicode="m" horiz-adv-x="587" 
d="M580 215q-28 -56 -44 -84q-21 -37 -50 -80q-25 -38 -50 -53q-15 -9 -29 -9q-18 0 -32 17q-17 21 -17 56q0 30 14.5 77.5t23.5 75.5q4 11 5.5 21t1.5 13l-6 3q-7 0 -42 -44q-28 -36 -51 -69q-1 -1 -66 -102q-25 -39 -38 -39q-7 0 -13.5 11.5t-6.5 26.5q0 12 5 27
q18 45 35 93.5t25.5 76t8.5 36.5q0 12 -8 12q-7 -1 -15 -6.5t-21 -20.5q-43 -50 -81 -106q-30 -45 -52 -86q-12 -24 -23 -47q-14 -24 -31 -24q-8 0 -15.5 10t-7.5 26q0 18 6.5 42t29.5 79l50 118l14 32q4 9 4 18q2 17 2.5 28.5t6 25.5t21 30t27.5 16q9 0 16.5 -8.5
t7.5 -26.5q0 -16 -21 -59q-44 -90 -75 -167q22 33 37 54q6 8 50 64q30 40 52 54.5t42 14.5q14 0 24 -11t10 -35q0 -25 -12 -69q-7 -24 -20 -63q58 81 70 96q55 70 91 70q16 0 22.5 -7.5t6.5 -21.5q0 -10 -4 -28q-9 -37 -28 -99q-9 -30 -17 -68q-3 -17 -4.5 -33t-1.5 -19
q0 -10 9 -16q10 -6 16.5 0.5t15 22.5t39.5 78q17 34 51 92q7 11 13.5 17t18.5 6q17 0 17 -17q0 -9 -7 -22z" />
    <glyph glyph-name="n" unicode="n" horiz-adv-x="411" 
d="M406 171q-15 -41 -42 -87q-36 -63 -69 -86q-19 -14 -37 -14q-12 0 -25 7q-18 10 -25.5 29t-7.5 44q0 16 1.5 27t4.5 32.5t10.5 59t26.5 101.5q2 4 2 10q0 7 -6 7l-4 -2q-7 -5 -16 -15q-32 -37 -60 -79q-46 -69 -93 -164q-11 -22 -20.5 -29t-17.5 -7q-6 0 -12 10.5
t-6 28.5q0 15 3.5 34.5t15.5 68.5q17 64 27.5 96t21.5 62q6 19 8 34.5t5 33.5q4 15 15.5 26t25.5 11q10 0 17.5 -5.5t7.5 -21.5q0 -13 -7 -31q-30 -78 -59 -155l-14 -53l28 42q27 41 56 80q37 50 68 85q10 11 16 16q13 10 23 10q18 0 25.5 -10.5t7.5 -26.5q0 -10 -2.5 -22
t-3.5 -17q-15 -61 -29.5 -121.5t-14.5 -101.5v-16q0 -19 3 -28t14 -9q8 0 17 8t16 18q15 22 30 57.5t31 75.5q8 17 17 22t17 5q15 0 15 -18q0 -7 -5 -22z" />
    <glyph glyph-name="o" unicode="o" horiz-adv-x="386" 
d="M365 242q0 -118 -77 -195q-67 -67 -145 -67q-56 0 -88 38t-32 105q0 87 61.5 187t120.5 91q15 3 31 3q57 0 91 -39q38 -43 38 -123zM318 242q0 61 -27 92q-22 25 -52 25q-17 0 -24.5 -1.5t-17.5 -6.5q-51 -22 -88.5 -93t-37.5 -140q0 -49 23 -73q20 -21 51 -21
q66 0 119.5 66.5t53.5 151.5z" />
    <glyph glyph-name="p" unicode="p" horiz-adv-x="399" 
d="M376 243q0 -117 -63 -198q-57 -73 -120 -73q-22 0 -57 16t-65 43l-3 3q-26 -92 -39.5 -153t-13.5 -87q0 -4 2 -13t2 -14q0 -18 -10 -27t-22 -9q-15 0 -23 10t-8 26q0 34 41 184q30 111 59 202q46 147 51 163q29 85 57 85q13 0 18.5 -6.5t5.5 -18.5q0 -11 -6 -22
q-23 -43 -27 -59q36 43 70.5 68t62.5 25q36 0 62 -37.5t26 -107.5zM329 233q0 56 -18 87q-14 25 -32 25q-40 0 -107 -97q-61 -88 -90 -166q18 -21 54.5 -43.5t62.5 -22.5q46 0 86 60q44 66 44 157z" />
    <glyph glyph-name="q" unicode="q" horiz-adv-x="360" 
d="M341 174q-21 -44 -46 -116q-28 -78 -40 -127l-27 -109q-3 -11 -3 -17q0 -7 6 -15t6 -18q0 -13 -12 -24t-27 -11q-14 0 -18 12t-4 29q0 37 26 130q16 58 41 131q-31 -30 -69 -50.5t-72 -20.5q-44 0 -65 33t-21 84q0 107 67 215q74 119 160 119q58 0 83 -52q19 -39 19 -100
q0 -21 -2 -35t-2 -19q7 -10 7 -19q0 -5 -3 -11t-4 -9zM291 270q0 44 -8 68q-12 37 -43 37q-54 0 -116 -97.5t-62 -191.5q0 -40 17 -60q13 -15 32 -15q15 0 35 9t36 21q46 35 77.5 97.5t31.5 131.5z" />
    <glyph glyph-name="r" unicode="r" horiz-adv-x="301" 
d="M292 151q-22 -52 -29 -66q-21 -44 -44.5 -67.5t-43.5 -23.5q-18 0 -31.5 19.5t-13.5 50.5q0 26 6 57.5t24 90.5l16 53q-18 0 -26 11l-7 -20q-34 -99 -54 -143q-29 -63 -62 -101q-19 -22 -37 -22q-20 0 -20 20q0 7 11 19q21 23 30 35q31 42 67 132q33 84 43 136q3 21 9 31
q10 17 28 17q10 0 15 -3q14 -8 14 -31q0 -4 -2 -14q13 11 29 11q12 0 17.5 -5.5t5.5 -16.5q0 -9 -4 -20q-13 -33 -31 -98.5t-21.5 -87t-4 -28.5t-0.5 -16q0 -27 15 -27q5 0 12 7t12.5 16.5t22.5 48.5t25 62q5 15 10.5 20.5t13.5 5.5q14 0 14 -18q0 -11 -1.5 -16t-7.5 -19z
" />
    <glyph glyph-name="s" unicode="s" horiz-adv-x="323" 
d="M320 290q0 -30 -11 -65q-15 -47 -38 -57q-6 -3 -15 -3q-5 0 -10 3q-13 7 -13 21q0 7 5 18l4 8q10 16 17 34q11 27 11 45q0 17 -9 29q-15 18 -52 18q-29 0 -56 -10.5t-47 -32.5q-10 -12 -16 -24t-6 -28q0 -14 5 -27.5t18 -28.5t51 -43q33 -24 50 -37.5t27 -26.5
q15 -19 15 -39q0 -28 -31 -41q-25 -10 -63 -10q-71 0 -109 26q-31 21 -31 50q0 16 12 30t26 14q18 0 18 -14q0 -8 -5.5 -15.5t-5.5 -14.5q0 -16 27.5 -28.5t76.5 -12.5q25 0 33 5t8 12q0 11 -15 24.5t-61 45.5q-35 24 -53 41q-22 20 -30.5 38t-8.5 43q0 17 3 30t12 28
q17 31 46 52q36 25 89 34l40 3q43 0 67.5 -23.5t24.5 -70.5z" />
    <glyph glyph-name="t" unicode="t" horiz-adv-x="283" 
d="M278 225q-23 -57 -49 -105q-31 -57 -60 -94q-17 -21 -35 -35q-24 -19 -42 -19q-20 0 -33 17t-13 47q0 36 15.5 93.5t56.5 172.5q-8 -1 -29 -2t-49 -1q-11 0 -18 3q-12 6 -12 17q0 9 7 14t15 6.5t18 1.5q17 -1 25 -1q20 0 36.5 1t24.5 2q29 70 59 140q20 40 43 40
q15 0 21.5 -6.5t6.5 -15.5q0 -4 -25.5 -51t-48.5 -103l44 7q16 0 25 -6t9 -20q0 -11 -7.5 -18.5t-17.5 -7.5l-33 3h-19.5t-23.5 -3q-31 -74 -51 -132q-30 -87 -30 -117q0 -12 3 -22.5t9 -10.5q11 0 18 3q13 6 26 22q32 40 91 167q7 16 14.5 32.5t20.5 16.5t13 -14
q0 -8 -2 -14t-3 -8z" />
    <glyph glyph-name="u" unicode="u" horiz-adv-x="400" 
d="M395 174q-19 -43 -53.5 -92.5t-64.5 -74.5q-10 -9 -18.5 -13t-16.5 -4q-13 0 -26 16q-7 9 -11 25.5t-4 30.5v12q-29 -38 -50.5 -57.5t-39 -27.5t-27.5 -8q-20 0 -35 19q-7 10 -11 27t-4 32q0 21 2 34t7 32q13 50 43.5 112t62.5 100q8 10 15 13.5t16 3.5q10 0 18 -6t8 -18
q0 -13 -14 -31q-28 -38 -51 -77q-27 -47 -42 -85q-8 -19 -13.5 -43t-5.5 -43q0 -14 4 -20t9 -6q9 0 23.5 11.5t36.5 36.5q38 44 61 86q10 18 35 79q7 18 14 27q12 16 27 16q9 0 17 -6t8 -19q0 -16 -18 -44q-23 -34 -34.5 -59.5t-16.5 -48.5t-5 -37t3.5 -19.5t10.5 -5.5
q5 0 11.5 5.5t15.5 15.5q23 25 42 60q5 9 29 60q8 17 14.5 23t15.5 6q17 0 17 -18q0 -10 -5 -20z" />
    <glyph glyph-name="v" unicode="v" horiz-adv-x="280" 
d="M262 312q-2 -14 -7.5 -32t-5.5 -26q0 -6 3 -17t3 -16q0 -7 -5 -12l-12 -11q-10 -19 -16 -32q-1 -2 -14 -33q-20 -47 -42 -84q-32 -53 -60 -69q-14 -8 -27 -8q-22 0 -36 21.5t-14 64.5q0 17 3 38l24 148q8 45 9 50q9 36 33 36t24 -28q0 -19 -11 -53.5t-21.5 -74.5
t-13.5 -57q-7 -38 -7 -61q0 -24 7 -35q4 -7 9 -7q4 0 11 5t11 10q12 15 40 71.5t39 87.5l11 32q1 8 1 17.5v14.5v31v23.5t4 30.5t13 28t16 9q13 0 20 -7q12 -12 12 -38q0 -11 -1 -17z" />
    <glyph glyph-name="w" unicode="w" horiz-adv-x="426" 
d="M410 221v-16q0 -12 -2.5 -18.5t-14.5 -13.5l-28 -60q-13 -28 -35 -59q-27 -38 -48.5 -54t-42.5 -16q-38 0 -50 45q-7 25 -7 60q0 25 3 45l-15 -26q-25 -43 -47.5 -69.5t-49.5 -42.5q-6 -4 -12.5 -7t-14.5 -3q-14 0 -23.5 11.5t-9.5 33.5q0 16 1.5 24.5t8.5 31.5
q16 55 38 108q47 100 59 129q9 22 17 29t21 7q26 0 26 -26q0 -9 -20 -43q-42 -73 -61 -114q-11 -24 -30.5 -72.5t-19.5 -65.5q0 -12 8 -12q5 0 15 10.5t24 29.5q45 64 76 133q11 26 18 36q13 18 29 18q9 0 13.5 -8.5t4.5 -20.5v-12q-2 -8 -3 -15.5t-7.5 -49t-6.5 -63.5
q0 -18 4.5 -41.5t16.5 -23.5q8 0 16.5 6t22 27t20.5 33q32 56 48 107l6 19l-8 35l-9 33q-2 14 -2 24q0 12 1.5 23.5t10.5 21.5t22 10q22 0 32 -29q5 -14 7 -27t2 -24t-2 -33.5t-2 -24.5z" />
    <glyph glyph-name="x" unicode="x" horiz-adv-x="317" 
d="M347 324q0 -11 -17 -26q-26 -20 -44 -35q-44 -37 -79 -74q-25 -26 -38 -44q0 -49 8 -74q13 -41 45 -41l10 1l28 8q5 0 7 -1q9 -5 9 -20t-19.5 -23t-38.5 -8q-33 0 -59 26q-31 31 -31 81q-43 -57 -68 -80q-18 -17 -29 -17q-18 0 -18 20q0 12 26 38q16 16 32 36
q13 15 30 39q9 13 23 34q0 43 -5 76t-14 33q-2 -1 -4.5 -2t-7 -6.5t-7.5 -8.5q-8 -7 -15 -7q-22 0 -22 22q0 17 21 38t41 21q33 0 47 -42q10 -30 10 -79q142 134 158 134q21 0 21 -19z" />
    <glyph glyph-name="y" unicode="y" horiz-adv-x="324" 
d="M303 274q0 -11 -5.5 -27.5t-12.5 -33.5q-11 -55 -29 -179q-13 -88 -24 -129q-16 -60 -47 -105q-17 -25 -40 -43q-31 -24 -67 -24q-53 0 -83 55q-26 47 -26 114q0 24 8.5 34.5t21.5 10.5q26 0 26 -26q0 -14 -13 -26q-2 -8 -2 -24q0 -39 21 -67t47 -28q55 0 96.5 100.5
t41.5 214.5q-10 -15 -23 -32t-24 -29q-25 -27 -44.5 -38.5t-41.5 -11.5q-15 0 -28 14q-20 22 -20 65q0 88 41.5 190.5t83.5 102.5q12 0 18 -7t6 -18q0 -12 -31 -46q-21 -23 -33 -51.5t-26.5 -78t-14.5 -78.5q0 -25 6 -36t11 -11q10 0 21 7.5t25 26.5q35 46 58 85
q28 47 42 89q4 12 8 40t28 28q14 0 19.5 -6.5t5.5 -21.5z" />
    <glyph glyph-name="z" unicode="z" horiz-adv-x="317" 
d="M310 239q-11 -20 -59 -51q-78 -51 -140 -102q-19 -16 -31 -29q-6 -7 -10 -14q3 -2 5.5 -3t5.5 -1l37 4q22 2 39 3.5t36 1.5q24 0 38 -5.5t18 -12.5t4 -15q0 -12 -8 -17t-15 -5q-16 0 -24 5.5t-30 5.5q-33 0 -77 -4.5t-49 -4.5q-25 0 -37.5 9.5t-12.5 23.5q0 11 7 22.5
t18 22.5q39 40 105 86q86 60 122 90q7 6 7 13q0 8 -12 8q-8 1 -29.5 -2t-31.5 -4t-63 -8q-31 -4 -45 -4q-25 0 -36 9.5t-11 20.5q0 15 10.5 20.5t27.5 5.5h12q8 -2 14.5 -3t24.5 -1.5t31 -0.5q24 2 52.5 5t54.5 3q16 0 29.5 -4t21.5 -16t8 -26q0 -13 -7 -26z" />
    <glyph glyph-name="braceleft" unicode="{" horiz-adv-x="383" 
d="M367 709q0 -22 -22 -30q-15 -4 -21 -5q-56 -15 -115 -112q-46 -76 -76 -166q-12 -38 -20 -51q-15 -26 -48 -44q22 -10 22 -43q0 -18 -5 -42q-12 -58 -12 -95q0 -53 16.5 -101.5t50.5 -70.5q6 -4 34.5 -11t28.5 -20q0 -7 -10 -13.5t-26 -6.5q-17 0 -34 7t-37 24
q-37 32 -51.5 81t-14.5 109q0 31 1.5 48t6.5 57q1 8 2 22.5t0 19.5q-2 9 -16 30q-8 11 -8 14q0 7 14 16q21 14 22 15q15 12 23 26.5t20 50.5q28 76 61 138q51 95 106 136q14 10 41.5 21.5t43.5 11.5q9 0 16 -4.5t7 -11.5z" />
    <glyph glyph-name="bar" unicode="|" horiz-adv-x="163" 
d="M98 670q0 -133 -8.5 -236t-17 -212t-8.5 -225q0 -54 6.5 -125.5t6.5 -106.5q0 -19 1.5 -31.5t3.5 -28.5v-6q-2 -4 -2 -5q-4 -10 -15 -16t-22 -2q-12 4 -15.5 14.5t-3.5 23.5q0 36 -3 93q-7 132 -7 299q0 152 7 260t15.5 182.5t8.5 86.5q0 19 -3 30.5t-5 24t-2 15.5
q0 14 5.5 20.5t12 9t12.5 2.5h12q12 0 16.5 -15.5t4.5 -35.5v-16z" />
    <glyph glyph-name="braceright" unicode="}" horiz-adv-x="390" 
d="M346 347q0 -4 -15 -20q-9 -10 -18 -23q-13 -20 -25 -56q-6 -17 -21 -77t-25 -87q-17 -48 -43.5 -89t-57.5 -68q-39 -34 -70 -34q-19 0 -23.5 7t-4.5 18q0 3 49 33q31 19 56 57q33 48 54 114q10 29 35 132q12 46 24 63t33 28q-18 9 -26 22.5t-8 28.5q0 10 1 16.5t3 13.5
q1 10 1.5 19.5t0.5 16.5q0 72 -19 131q-25 79 -76 94q-24 3 -42 6t-18 14q0 13 3 18q7 11 29 11q34 0 65 -18q25 -15 44 -38q30 -37 45.5 -96t15.5 -122q0 -11 -0.5 -21t-0.5 -20q0 -16 1.5 -24.5t7.5 -18.5q3 -5 14 -16t11 -15z" />
    <glyph glyph-name="asciitilde" unicode="~" horiz-adv-x="569" 
d="M483 185q0 -13 -16 -23q-22 -14 -59 -14q-33 0 -72 14q-19 7 -62 27q-69 31 -96 31q-24 0 -44 -14q-14 -10 -27 -29q-4 -6 -7 -12q-8 -10 -26 -10q-22 0 -22 19q0 15 11 29q40 59 117 59q19 0 36 -4t32 -9q27 -9 79 -36q39 -20 62 -20q17 0 36 7t32 7q17 0 23 -11
q3 -5 3 -11z" />
    <glyph glyph-name="c128" horiz-adv-x="553" 
d="M680 613q0 -6 -6 -13t-13 -7q-22 6 -59 11t-83 5q-25 0 -83.5 -2t-62.5 -2l-71 -1l-19 -56q-18 -51 -28 -81q-37 -108 -65 -223q58 98 105 142q43 40 80 40q50 0 78.5 -30t28.5 -92q0 -77 -24.5 -180.5t-59.5 -178.5q-23 -49 -49 -81q-32 -40 -74.5 -59.5t-96.5 -19.5
q-38 0 -71 10.5t-49 29.5q-9 10 -14 23.5t-5 25.5q0 21 10.5 34.5t27.5 13.5q27 0 38 -22q5 -16 11 -33q6 -10 19 -16t40 -6q51 0 88.5 27t69.5 92q36 74 59 169.5t23 154.5q0 46 -21 64q-15 13 -39 13q-36 0 -96 -77q-33 -42 -76 -112q-9 -15 -55 -122q-31 -71 -55 -71
q-8 0 -13 3q-15 9 -15 30q0 17 18 64q42 109 62 166q59 168 114 352q-25 0 -64.5 -2.5t-42.5 -2.5q-15 -1 -24 -1q-18 0 -31 6t-13 23q0 18 9 25t25 7q14 0 20 -1q7 -3 10 -3.5t12 -0.5q1 0 38 2t79 2q16 13 28 13q7 0 10.5 -1.5t12.5 -10.5q11 0 73 2t109 2h49
q57 0 94 -8.5t37 -35.5z" />
    <glyph glyph-name="c128" unicode="&#x402;" horiz-adv-x="553" 
d="M680 613q0 -6 -6 -13t-13 -7q-22 6 -59 11t-83 5q-25 0 -83.5 -2t-62.5 -2l-71 -1l-19 -56q-18 -51 -28 -81q-37 -108 -65 -223q58 98 105 142q43 40 80 40q50 0 78.5 -30t28.5 -92q0 -77 -24.5 -180.5t-59.5 -178.5q-23 -49 -49 -81q-32 -40 -74.5 -59.5t-96.5 -19.5
q-38 0 -71 10.5t-49 29.5q-9 10 -14 23.5t-5 25.5q0 21 10.5 34.5t27.5 13.5q27 0 38 -22q5 -16 11 -33q6 -10 19 -16t40 -6q51 0 88.5 27t69.5 92q36 74 59 169.5t23 154.5q0 46 -21 64q-15 13 -39 13q-36 0 -96 -77q-33 -42 -76 -112q-9 -15 -55 -122q-31 -71 -55 -71
q-8 0 -13 3q-15 9 -15 30q0 17 18 64q42 109 62 166q59 168 114 352q-25 0 -64.5 -2.5t-42.5 -2.5q-15 -1 -24 -1q-18 0 -31 6t-13 23q0 18 9 25t25 7q14 0 20 -1q7 -3 10 -3.5t12 -0.5q1 0 38 2t79 2q16 13 28 13q7 0 10.5 -1.5t12.5 -10.5q11 0 73 2t109 2h49
q57 0 94 -8.5t37 -35.5z" />
    <glyph glyph-name="c129" horiz-adv-x="570" 
d="M457 781q-11 -14 -40 -38q-23 -19 -41.5 -31t-31.5 -12q-11 0 -17.5 6.5t-6.5 15.5q0 14 7.5 20t21.5 11q27 10 48 30q9 8 32 35q6 7 7 8q5 4 10 4q9 0 15 -8.5t6 -15.5q0 -11 -10 -25zM691 613q0 -6 -6 -13t-13 -7q-23 0 -44.5 5.5t-45.5 7.5t-64 2h-27q-11 0 -96 -5
q-34 -2 -77 -2l-24 -53q-45 -99 -90 -219q-21 -55 -64 -180l-18 -58q-15 -52 -15 -65q0 -7 5 -18.5t5 -17.5q0 -12 -8 -20.5t-27 -8.5t-27 12.5t-8 30.5q0 24 10 63q16 62 57.5 175.5t141.5 356.5q-15 0 -52 -3t-51 -3q-15 -1 -24 -1q-18 0 -31 6t-13 23q0 14 8.5 24
t26.5 10q12 0 29 -6q33 0 65 1l64 2q16 13 28 13q7 0 10.5 -1.5t12.5 -10.5q11 0 73 2t109 2h49q57 0 94 -8.5t37 -35.5z" />
    <glyph glyph-name="c129" unicode="&#x403;" horiz-adv-x="570" 
d="M457 781q-11 -14 -40 -38q-23 -19 -41.5 -31t-31.5 -12q-11 0 -17.5 6.5t-6.5 15.5q0 14 7.5 20t21.5 11q27 10 48 30q9 8 32 35q6 7 7 8q5 4 10 4q9 0 15 -8.5t6 -15.5q0 -11 -10 -25zM691 613q0 -6 -6 -13t-13 -7q-23 0 -44.5 5.5t-45.5 7.5t-64 2h-27q-11 0 -96 -5
q-34 -2 -77 -2l-24 -53q-45 -99 -90 -219q-21 -55 -64 -180l-18 -58q-15 -52 -15 -65q0 -7 5 -18.5t5 -17.5q0 -12 -8 -20.5t-27 -8.5t-27 12.5t-8 30.5q0 24 10 63q16 62 57.5 175.5t141.5 356.5q-15 0 -52 -3t-51 -3q-15 -1 -24 -1q-18 0 -31 6t-13 23q0 14 8.5 24
t26.5 10q12 0 29 -6q33 0 65 1l64 2q16 13 28 13q7 0 10.5 -1.5t12.5 -10.5q11 0 73 2t109 2h49q57 0 94 -8.5t37 -35.5z" />
    <glyph glyph-name="c141" horiz-adv-x="635" 
d="M556 757q-11 -14 -40 -38q-23 -19 -41.5 -31t-31.5 -12q-11 0 -17.5 6.5t-6.5 15.5q0 14 7.5 20t21.5 11q27 10 48 30q9 8 32 35q6 7 7 8q5 4 10 4q9 0 15 -8.5t6 -15.5q0 -11 -10 -25zM739 642q0 -33 -77 -96q-59 -48 -163 -112q-79 -48 -140 -80q23 -19 37 -46
q32 -59 45 -170q10 -84 12 -94q9 -50 20 -65t30 -15q15 0 24 6.5t16.5 16.5t16 18t16.5 8t13.5 -6.5t5.5 -16.5q0 -12 -8 -23q-11 -15 -37 -30.5t-52 -15.5q-43 0 -67 43q-14 25 -23 84q-25 166 -28 178q-11 38 -25 61.5t-35 42.5q-52 -26 -73 -36q-35 -17 -68 -30l-30 -114
q-7 -24 -13.5 -50t-6.5 -45q-2 -20 -5 -28q-8 -20 -29 -20q-14 0 -21 8t-7 21q0 20 17.5 81.5t35.5 124.5q-22 -10 -47.5 -16.5t-48.5 -6.5q-19 0 -32 7t-13 25q0 37 32 70.5t72.5 53.5t84.5 28l23 62q34 93 53.5 132t37.5 51q8 5 16 5q9 0 16 -7.5t7 -18.5q0 -14 -14 -35
q-6 -9 -12 -17q-9 -14 -30 -60q-17 -39 -25 -59l-17 -47q27 0 49.5 -6.5t49.5 -21.5q115 60 212 124q88 58 121 92q17 17 21.5 48.5t27.5 31.5q19 0 27 -11t8 -24zM280 354q-24 12 -51 12q-5 0 -19 -2l-15 -46zM154 354q-52 -12 -90 -44q-29 -25 -29 -37q0 -3 6 -4t8 -1
q15 0 24 2q25 5 59 23z" />
    <glyph glyph-name="c141" unicode="&#x40c;" horiz-adv-x="635" 
d="M556 757q-11 -14 -40 -38q-23 -19 -41.5 -31t-31.5 -12q-11 0 -17.5 6.5t-6.5 15.5q0 14 7.5 20t21.5 11q27 10 48 30q9 8 32 35q6 7 7 8q5 4 10 4q9 0 15 -8.5t6 -15.5q0 -11 -10 -25zM739 642q0 -33 -77 -96q-59 -48 -163 -112q-79 -48 -140 -80q23 -19 37 -46
q32 -59 45 -170q10 -84 12 -94q9 -50 20 -65t30 -15q15 0 24 6.5t16.5 16.5t16 18t16.5 8t13.5 -6.5t5.5 -16.5q0 -12 -8 -23q-11 -15 -37 -30.5t-52 -15.5q-43 0 -67 43q-14 25 -23 84q-25 166 -28 178q-11 38 -25 61.5t-35 42.5q-52 -26 -73 -36q-35 -17 -68 -30l-30 -114
q-7 -24 -13.5 -50t-6.5 -45q-2 -20 -5 -28q-8 -20 -29 -20q-14 0 -21 8t-7 21q0 20 17.5 81.5t35.5 124.5q-22 -10 -47.5 -16.5t-48.5 -6.5q-19 0 -32 7t-13 25q0 37 32 70.5t72.5 53.5t84.5 28l23 62q34 93 53.5 132t37.5 51q8 5 16 5q9 0 16 -7.5t7 -18.5q0 -14 -14 -35
q-6 -9 -12 -17q-9 -14 -30 -60q-17 -39 -25 -59l-17 -47q27 0 49.5 -6.5t49.5 -21.5q115 60 212 124q88 58 121 92q17 17 21.5 48.5t27.5 31.5q19 0 27 -11t8 -24zM280 354q-24 12 -51 12q-5 0 -19 -2l-15 -46zM154 354q-52 -12 -90 -44q-29 -25 -29 -37q0 -3 6 -4t8 -1
q15 0 24 2q25 5 59 23z" />
    <glyph glyph-name="c142" horiz-adv-x="705" 
d="M665 613q0 -6 -6 -13t-13 -7q-22 6 -59 11t-83 5q-25 0 -83.5 -2t-62.5 -2l-71 -1l-19 -56q-18 -51 -28 -81q-37 -108 -65 -223q61 102 108 145q41 37 77 37q33 0 55 -22q28 -27 28 -80q0 -30 -17 -118q-8 -42 -13 -75.5t-5 -55.5q0 -48 14 -64q7 -9 23.5 -11t25 -7
t8.5 -14q0 -8 -11.5 -17.5t-25.5 -9.5q-34 0 -57 21q-30 27 -30 83q0 44 9 100q2 11 11 58t10 54q5 28 5 46q0 24 -9.5 38t-33.5 14q-36 0 -89 -69q-26 -34 -80 -121q-10 -16 -55 -122q-30 -71 -55 -71q-8 0 -13 3q-15 9 -15 30q0 17 18 64q42 109 62 166q59 168 114 352
q-25 0 -64.5 -2.5t-42.5 -2.5q-15 -1 -24 -1q-18 0 -31 6t-13 23q0 18 9 25t25 7q14 0 20 -1q7 -3 10 -3.5t12 -0.5q1 0 38 2t79 2q16 13 28 13q7 0 10.5 -1.5t12.5 -10.5q11 0 73 2t109 2h49q57 0 94 -8.5t37 -35.5z" />
    <glyph glyph-name="c142" unicode="&#x40b;" horiz-adv-x="705" 
d="M665 613q0 -6 -6 -13t-13 -7q-22 6 -59 11t-83 5q-25 0 -83.5 -2t-62.5 -2l-71 -1l-19 -56q-18 -51 -28 -81q-37 -108 -65 -223q61 102 108 145q41 37 77 37q33 0 55 -22q28 -27 28 -80q0 -30 -17 -118q-8 -42 -13 -75.5t-5 -55.5q0 -48 14 -64q7 -9 23.5 -11t25 -7
t8.5 -14q0 -8 -11.5 -17.5t-25.5 -9.5q-34 0 -57 21q-30 27 -30 83q0 44 9 100q2 11 11 58t10 54q5 28 5 46q0 24 -9.5 38t-33.5 14q-36 0 -89 -69q-26 -34 -80 -121q-10 -16 -55 -122q-30 -71 -55 -71q-8 0 -13 3q-15 9 -15 30q0 17 18 64q42 109 62 166q59 168 114 352
q-25 0 -64.5 -2.5t-42.5 -2.5q-15 -1 -24 -1q-18 0 -31 6t-13 23q0 18 9 25t25 7q14 0 20 -1q7 -3 10 -3.5t12 -0.5q1 0 38 2t79 2q16 13 28 13q7 0 10.5 -1.5t12.5 -10.5q11 0 73 2t109 2h49q57 0 94 -8.5t37 -35.5z" />
    <glyph glyph-name="c143" horiz-adv-x="793" 
d="M705 652q0 -12 -18 -47q-34 -66 -58 -127q-35 -88 -70 -207q-43 -149 -54 -245q10 3 16 5t10 2q11 0 17.5 -10.5t6.5 -26.5q0 -13 -18.5 -23t-52.5 -10q-26 0 -87 1t-91 1q-11 -22 -25 -55t-17.5 -43.5t-9 -35.5t-7.5 -41.5t-10.5 -25t-20.5 -8.5q-8 1 -10 1q-9 0 -9 13
q0 5 1 10l2 10q9 50 20 92t26 81q-123 -2 -143 -2q-26 0 -41 8t-15 30q0 27 50 175q39 117 63 178q15 38 66 183q33 93 52 126q27 47 59 47q11 0 19 -7.5t8 -23.5q0 -12 -7 -22.5t-22 -15.5q-7 -10 -63 -160t-103 -285q-54 -156 -54 -172q0 -4 41.5 -5t62.5 -1h13h11h28.5
t21.5 1l154 2q17 99 40 187.5t51 168.5q15 43 69 183q14 37 29 74q21 49 45 49q9 0 16.5 -6t7.5 -23z" />
    <glyph glyph-name="c143" unicode="&#x40f;" horiz-adv-x="793" 
d="M705 652q0 -12 -18 -47q-34 -66 -58 -127q-35 -88 -70 -207q-43 -149 -54 -245q10 3 16 5t10 2q11 0 17.5 -10.5t6.5 -26.5q0 -13 -18.5 -23t-52.5 -10q-26 0 -87 1t-91 1q-11 -22 -25 -55t-17.5 -43.5t-9 -35.5t-7.5 -41.5t-10.5 -25t-20.5 -8.5q-8 1 -10 1q-9 0 -9 13
q0 5 1 10l2 10q9 50 20 92t26 81q-123 -2 -143 -2q-26 0 -41 8t-15 30q0 27 50 175q39 117 63 178q15 38 66 183q33 93 52 126q27 47 59 47q11 0 19 -7.5t8 -23.5q0 -12 -7 -22.5t-22 -15.5q-7 -10 -63 -160t-103 -285q-54 -156 -54 -172q0 -4 41.5 -5t62.5 -1h13h11h28.5
t21.5 1l154 2q17 99 40 187.5t51 168.5q15 43 69 183q14 37 29 74q21 49 45 49q9 0 16.5 -6t7.5 -23z" />
    <glyph glyph-name="c144" horiz-adv-x="434" 
d="M394 467q0 -13 -8 -19t-23 -6l-86 5q-34 -89 -56 -154q-14 -42 -21 -64l-33 -109l26 37q58 82 92 116q27 27 44 27q12 0 19 -8.5t7 -23.5t-9 -58t-12 -64q-19 -118 -45 -180q-36 -88 -100 -119q-32 -15 -74 -15q-29 0 -55.5 8t-38.5 23q-15 16 -15 38q0 16 8 27t22 11
q21 0 29 -17q4 -13 9 -26q4 -6 15.5 -11.5t30.5 -5.5q58 0 93 42t59 133q8 29 22 97.5t14 82.5l-2 7q-6 -6 -11 -12q-13 -15 -40 -51q-62 -92 -85 -126q-39 -57 -59 -57q-6 0 -12 6t-6 21q0 9 11 43.5t17 55.5q11 39 13 45q14 45 46 140l50 144q-43 0 -58.5 -2t-23.5 -3h-13
q-18 3 -18 20t31.5 23.5t92.5 6.5q0 31 5.5 42t23.5 23t29 12q16 0 16 -20q0 -9 -5 -22l-15 -40q11 -2 28 -2q9 0 22.5 1t17.5 1q9 0 17 -3q14 -7 14 -20z" />
    <glyph glyph-name="c144" unicode="&#x452;" horiz-adv-x="434" 
d="M394 467q0 -13 -8 -19t-23 -6l-86 5q-34 -89 -56 -154q-14 -42 -21 -64l-33 -109l26 37q58 82 92 116q27 27 44 27q12 0 19 -8.5t7 -23.5t-9 -58t-12 -64q-19 -118 -45 -180q-36 -88 -100 -119q-32 -15 -74 -15q-29 0 -55.5 8t-38.5 23q-15 16 -15 38q0 16 8 27t22 11
q21 0 29 -17q4 -13 9 -26q4 -6 15.5 -11.5t30.5 -5.5q58 0 93 42t59 133q8 29 22 97.5t14 82.5l-2 7q-6 -6 -11 -12q-13 -15 -40 -51q-62 -92 -85 -126q-39 -57 -59 -57q-6 0 -12 6t-6 21q0 9 11 43.5t17 55.5q11 39 13 45q14 45 46 140l50 144q-43 0 -58.5 -2t-23.5 -3h-13
q-18 3 -18 20t31.5 23.5t92.5 6.5q0 31 5.5 42t23.5 23t29 12q16 0 16 -20q0 -9 -5 -22l-15 -40q11 -2 28 -2q9 0 22.5 1t17.5 1q9 0 17 -3q14 -7 14 -20z" />
    <glyph glyph-name="c157" horiz-adv-x="377" 
d="M289 523q-11 -14 -40 -38q-23 -19 -41.5 -31t-31.5 -12q-11 0 -17.5 6.5t-6.5 15.5q0 14 7.5 20t21.5 11q27 10 48 30q9 8 32 35q6 7 7 8q5 4 10 4q9 0 15 -8.5t6 -15.5q0 -11 -10 -25zM377 148q0 -11 -7 -23.5t-22 -30.5q-51 -63 -56 -68q-39 -40 -67 -40q-34 0 -60 45
q-9 16 -34 81q-8 21 -15 29q-10 12 -30 16q-6 -22 -10 -38t-7 -36q-2 -43 -5 -63t-29 -20q-11 0 -15.5 6.5t-4.5 25.5q0 26 8 60q10 36 16 63q-17 -4 -17 10q0 13 6 25t21 14q13 48 22 74.5t10 29.5q5 29 10 40q12 27 36 27q20 0 20 -14q-13 -33 -25 -66q-15 -39 -25 -91
q36 -3 77.5 27.5t71.5 72.5q7 9 15 34q12 36 30 36q9 0 16 -4.5t7 -14.5q0 -39 -48 -95q-52 -61 -119 -87q19 -21 26 -38q0 -1 11.5 -36t17.5 -46q13 -24 30 -24q18 0 46 39q16 25 22 33q14 22 28 45q16 22 30 22q19 0 19 -20z" />
    <glyph glyph-name="c157" unicode="&#x45c;" horiz-adv-x="377" 
d="M289 523q-11 -14 -40 -38q-23 -19 -41.5 -31t-31.5 -12q-11 0 -17.5 6.5t-6.5 15.5q0 14 7.5 20t21.5 11q27 10 48 30q9 8 32 35q6 7 7 8q5 4 10 4q9 0 15 -8.5t6 -15.5q0 -11 -10 -25zM377 148q0 -11 -7 -23.5t-22 -30.5q-51 -63 -56 -68q-39 -40 -67 -40q-34 0 -60 45
q-9 16 -34 81q-8 21 -15 29q-10 12 -30 16q-6 -22 -10 -38t-7 -36q-2 -43 -5 -63t-29 -20q-11 0 -15.5 6.5t-4.5 25.5q0 26 8 60q10 36 16 63q-17 -4 -17 10q0 13 6 25t21 14q13 48 22 74.5t10 29.5q5 29 10 40q12 27 36 27q20 0 20 -14q-13 -33 -25 -66q-15 -39 -25 -91
q36 -3 77.5 27.5t71.5 72.5q7 9 15 34q12 36 30 36q9 0 16 -4.5t7 -14.5q0 -39 -48 -95q-52 -61 -119 -87q19 -21 26 -38q0 -1 11.5 -36t17.5 -46q13 -24 30 -24q18 0 46 39q16 25 22 33q14 22 28 45q16 22 30 22q19 0 19 -20z" />
    <glyph glyph-name="c158" horiz-adv-x="474" 
d="M393 260q0 -8 -2 -16t-13 -33q-26 -65 -52 -111q-43 -78 -82 -107q-18 -14 -35 -14q-16 0 -25.5 12.5t-9.5 32.5q0 15 10 56q15 54 26 100q1 1 6.5 27t5.5 27l-2 7q-6 -6 -11 -12q-13 -15 -40 -51q-62 -92 -85 -126q-39 -57 -59 -57q-6 0 -12 6t-6 21q0 9 11 43.5
t17 55.5q11 39 13 45q14 45 46 140l50 144q-43 0 -58.5 -2t-23.5 -3h-13q-18 3 -18 20t31.5 23.5t92.5 6.5q0 31 5.5 42t23.5 23t29 12q16 0 16 -20q0 -9 -5 -22l-15 -40q11 -2 28 -2q9 0 22.5 1t17.5 1q9 0 17 -3q14 -7 14 -20t-8 -19t-23 -6l-86 5q-34 -89 -56 -154
q-14 -42 -21 -64l-33 -109l26 37q58 82 92 116q27 27 44 27q12 0 19 -8.5t7 -23.5t-4 -37.5t-24 -99.5q-5 -17 -9 -33q-7 -27 -10 -54v-7q1 -3 2 -4.5t2 -2.5q6 0 15.5 8.5t23.5 32.5q21 36 43 81q15 31 39 88q4 10 10.5 23t20.5 13q15 0 15 -16z" />
    <glyph glyph-name="c158" unicode="&#x45b;" horiz-adv-x="474" 
d="M393 260q0 -8 -2 -16t-13 -33q-26 -65 -52 -111q-43 -78 -82 -107q-18 -14 -35 -14q-16 0 -25.5 12.5t-9.5 32.5q0 15 10 56q15 54 26 100q1 1 6.5 27t5.5 27l-2 7q-6 -6 -11 -12q-13 -15 -40 -51q-62 -92 -85 -126q-39 -57 -59 -57q-6 0 -12 6t-6 21q0 9 11 43.5
t17 55.5q11 39 13 45q14 45 46 140l50 144q-43 0 -58.5 -2t-23.5 -3h-13q-18 3 -18 20t31.5 23.5t92.5 6.5q0 31 5.5 42t23.5 23t29 12q16 0 16 -20q0 -9 -5 -22l-15 -40q11 -2 28 -2q9 0 22.5 1t17.5 1q9 0 17 -3q14 -7 14 -20t-8 -19t-23 -6l-86 5q-34 -89 -56 -154
q-14 -42 -21 -64l-33 -109l26 37q58 82 92 116q27 27 44 27q12 0 19 -8.5t7 -23.5t-4 -37.5t-24 -99.5q-5 -17 -9 -33q-7 -27 -10 -54v-7q1 -3 2 -4.5t2 -2.5q6 0 15.5 8.5t23.5 32.5q21 36 43 81q15 31 39 88q4 10 10.5 23t20.5 13q15 0 15 -16z" />
    <glyph glyph-name="nonbreakingspace" unicode="&#xa0;" horiz-adv-x="500" 
 />
    <glyph glyph-name="cent" unicode="&#xa2;" horiz-adv-x="324" 
d="M346 545q1 -7 -1 -20.5t-6 -22.5q-13 -35 -45 -56t-70 -21q-27 0 -50 12q-34 18 -50 59q-5 14 -8 27.5t-3 26.5t3.5 18.5t9.5 5.5q14 0 19 -21q9 -35 16 -46.5t23 -22t41 -10.5q20 0 38.5 8.5t31.5 24.5q5 6 10 15.5t10 22.5q7 13 14 13q14 0 17 -13zM303 274
q0 -11 -5.5 -27.5t-12.5 -33.5q-28 -158 -56 -315q-46 -165 -151 -165q-53 0 -83 55q-26 47 -26 114q0 24 8.5 34.5t21.5 10.5q26 0 26 -26q0 -14 -13 -26q-2 -8 -2 -24q0 -39 21 -67t47 -28q55 0 96.5 100.5t41.5 214.5q-26 -40 -59 -71q-43 -40 -74 -40q-15 0 -28 14
q-20 22 -20 65q0 88 41.5 190.5t83.5 102.5q12 0 18 -7t6 -18q0 -12 -31 -46q-21 -23 -33 -51.5t-26.5 -78t-14.5 -78.5q0 -25 6 -36t11 -11q22 0 74 76q45 65 61 103q3 8 17 68q7 29 30 29q14 0 19.5 -6.5t5.5 -21.5z" />
    <glyph glyph-name="cent" unicode="&#x45e;" horiz-adv-x="324" 
d="M346 545q1 -7 -1 -20.5t-6 -22.5q-13 -35 -45 -56t-70 -21q-27 0 -50 12q-34 18 -50 59q-5 14 -8 27.5t-3 26.5t3.5 18.5t9.5 5.5q14 0 19 -21q9 -35 16 -46.5t23 -22t41 -10.5q20 0 38.5 8.5t31.5 24.5q5 6 10 15.5t10 22.5q7 13 14 13q14 0 17 -13zM303 274
q0 -11 -5.5 -27.5t-12.5 -33.5q-28 -158 -56 -315q-46 -165 -151 -165q-53 0 -83 55q-26 47 -26 114q0 24 8.5 34.5t21.5 10.5q26 0 26 -26q0 -14 -13 -26q-2 -8 -2 -24q0 -39 21 -67t47 -28q55 0 96.5 100.5t41.5 214.5q-26 -40 -59 -71q-43 -40 -74 -40q-15 0 -28 14
q-20 22 -20 65q0 88 41.5 190.5t83.5 102.5q12 0 18 -7t6 -18q0 -12 -31 -46q-21 -23 -33 -51.5t-26.5 -78t-14.5 -78.5q0 -25 6 -36t11 -11q22 0 74 76q45 65 61 103q3 8 17 68q7 29 30 29q14 0 19.5 -6.5t5.5 -21.5z" />
    <glyph glyph-name="sterling" unicode="&#xa3;" horiz-adv-x="661" 
d="M771 619q0 -9 -7 -15t-24 -6q-9 1 -12 1q-12 2 -17 2q-15 0 -25.5 -8.5t-22.5 -34.5q-29 -61 -69 -183t-67 -177q-42 -88 -104 -137q-41 -33 -98 -53t-117 -20q-53 0 -97 14.5t-77 39.5q-42 31 -61 73q-15 32 -15 66q0 39 18 73.5t51 60.5q28 21 64.5 31t70.5 10
q16 0 35.5 -5t32.5 -13t13 -21q0 -9 -9 -14q-7 -4 -20 1t-20 8q-19 7 -38 7q-53 0 -97 -35q-50 -40 -50 -98q0 -18 6 -38q16 -54 76 -87q55 -30 123 -30q45 0 89 16t79 43q48 37 83 97q28 48 58 132l54 160q12 35 22 66q15 47 18 57q-73 0 -142.5 -0.5t-135.5 -1.5h-31
q-26 0 -32 1q-28 5 -28 25q0 10 7 17.5t23 7.5q15 -3 29 -5t39 -2q78 0 162 1t163 2h61q17 0 28 -8t11 -20z" />
    <glyph glyph-name="sterling" unicode="&#x408;" horiz-adv-x="661" 
d="M771 619q0 -9 -7 -15t-24 -6q-9 1 -12 1q-12 2 -17 2q-15 0 -25.5 -8.5t-22.5 -34.5q-29 -61 -69 -183t-67 -177q-42 -88 -104 -137q-41 -33 -98 -53t-117 -20q-53 0 -97 14.5t-77 39.5q-42 31 -61 73q-15 32 -15 66q0 39 18 73.5t51 60.5q28 21 64.5 31t70.5 10
q16 0 35.5 -5t32.5 -13t13 -21q0 -9 -9 -14q-7 -4 -20 1t-20 8q-19 7 -38 7q-53 0 -97 -35q-50 -40 -50 -98q0 -18 6 -38q16 -54 76 -87q55 -30 123 -30q45 0 89 16t79 43q48 37 83 97q28 48 58 132l54 160q12 35 22 66q15 47 18 57q-73 0 -142.5 -0.5t-135.5 -1.5h-31
q-26 0 -32 1q-28 5 -28 25q0 10 7 17.5t23 7.5q15 -3 29 -5t39 -2q78 0 162 1t163 2h61q17 0 28 -8t11 -20z" />
    <glyph glyph-name="currency" unicode="&#xa4;" horiz-adv-x="595" 
d="M550 588q0 -9 -4 -19.5t-9 -20.5l-40 -70q31 -36 46.5 -76.5t15.5 -76.5q0 -51 -25 -96.5t-67 -77.5l29 -51q6 -12 9.5 -21t3.5 -19q0 -11 -18 -11q-11 0 -20 8q-4 4 -11 14l-34 55q-52 -20 -105 -20q-43 0 -80 12q-18 6 -45 20l-40 -66l-15 -17q-4 -5 -14 -5q-8 0 -14 3
t-6 8q0 9 4 19.5t9 20.5l38 66q-64 57 -64 152q0 57 25 103q22 40 64 75l-29 51q-6 12 -9.5 21t-3.5 19q0 11 18 11q11 0 20 -8q4 -3 11 -14l34 -55q27 12 52.5 17.5t51.5 5.5q30 0 62 -8t68 -30q10 13 18 29q5 11 25 41q7 10 14 15.5t21 5.5t14 -10zM515 327q0 65 -46 115
q-54 59 -141 59q-74 0 -129 -45q-61 -50 -61 -126q0 -78 46 -127q50 -53 141 -53q87 0 141 56q49 51 49 121z" />
    <glyph glyph-name="yen" unicode="&#xa5;" horiz-adv-x="794" 
d="M716 695q0 -44 -10 -69q-14 -34 -43 -34q-7 0 -16 1.5t-25 6t-36 6.5t-63 2q-47 0 -111 -3.5t-94 -3.5l-24 -53q-45 -99 -90 -219q-21 -55 -64 -180l-18 -58q-15 -52 -15 -65q0 -7 5 -18.5t5 -17.5q0 -12 -8 -20.5t-27 -8.5t-27 12.5t-8 30.5q0 24 10 63
q16 62 57.5 175.5t141.5 356.5q-15 0 -52 -3t-51 -3q-15 -1 -24 -1q-18 0 -31 6t-13 23q0 18 9 25t25 7q14 0 20 -1q7 -3 10 -3.5t12 -0.5q1 0 38 2t79 2q16 13 28 13q7 0 10.5 -1.5t12.5 -10.5l182 4l136 -3q10 18 17 48.5t17 30.5q7 0 23 -10q12 -7 12 -28z" />
    <glyph glyph-name="yen" unicode="&#x490;" horiz-adv-x="794" 
d="M716 695q0 -44 -10 -69q-14 -34 -43 -34q-7 0 -16 1.5t-25 6t-36 6.5t-63 2q-47 0 -111 -3.5t-94 -3.5l-24 -53q-45 -99 -90 -219q-21 -55 -64 -180l-18 -58q-15 -52 -15 -65q0 -7 5 -18.5t5 -17.5q0 -12 -8 -20.5t-27 -8.5t-27 12.5t-8 30.5q0 24 10 63
q16 62 57.5 175.5t141.5 356.5q-15 0 -52 -3t-51 -3q-15 -1 -24 -1q-18 0 -31 6t-13 23q0 18 9 25t25 7q14 0 20 -1q7 -3 10 -3.5t12 -0.5q1 0 38 2t79 2q16 13 28 13q7 0 10.5 -1.5t12.5 -10.5l182 4l136 -3q10 18 17 48.5t17 30.5q7 0 23 -10q12 -7 12 -28z" />
    <glyph glyph-name="brokenbar" unicode="&#xa6;" horiz-adv-x="206" 
d="M141 682q0 -4 -3 -106t-3 -147q0 -44 -2.5 -67.5t-7 -40.5t-10 -23.5t-20.5 -6.5q-28 0 -28 32q0 12 4 27q12 44 12 123v157v20q0 22 -2.5 36t-2.5 17q0 20 9.5 28.5t20.5 8.5q20 0 28 -23q5 -15 5 -35zM122 -32q-3 -30 -5.5 -88t-2.5 -79v-28q2 -16 2 -22q2 -10 2.5 -17
t0.5 -16q0 -19 -7 -31.5t-23 -12.5q-17 0 -27 15t-10 53l7 126l5 73v62l-1 69q0 29 9.5 42t23.5 13t24 -10.5t10 -41.5q0 -25 -8 -107z" />
    <glyph glyph-name="section" unicode="&#xa7;" horiz-adv-x="630" 
d="M643 615q0 -26 -10.5 -41.5t-24.5 -15.5q-30 0 -30 22q0 7 6.5 18t6.5 23q0 35 -40 66q-51 39 -138 39q-109 0 -177 -45q-60 -40 -60 -88q0 -37 58 -74l108 -58q65 -35 103 -60q58 -39 86 -75q35 -46 35 -98q0 -30 -14 -56q-19 -37 -60 -56q9 -24 9 -54q0 -80 -88 -136
t-218 -56q-82 0 -130.5 41.5t-48.5 102.5q0 46 21 78t51 32q14 0 24 -7t10 -17q0 -8 -6 -14.5t-33 -24.5q-8 -11 -12.5 -25t-4.5 -27q0 -44 40 -71q36 -24 96 -24q99 0 171.5 45.5t72.5 106.5q0 57 -72 106q-28 19 -144 75q-98 48 -115 60q-53 38 -53 94q0 33 21 62
q27 37 77 56q-19 15 -27.5 35t-8.5 36q0 68 76 121q85 60 218 60q100 0 162.5 -44.5t62.5 -111.5zM513 232q0 55 -69 112q-21 17 -249 147q-38 -4 -60 -27t-22 -54q0 -27 17 -47t76 -48q99 -47 177 -93q31 -18 50 -32.5t39 -37.5q22 16 31.5 37.5t9.5 42.5z" />
    <glyph glyph-name="dieresis" unicode="&#xa8;" horiz-adv-x="596" 
d="M658 822q0 -27 -14 -44t-33 -17q-13 0 -20.5 10.5t-7.5 24.5q0 21 12 38.5t33 17.5q12 0 21 -6.5t9 -23.5zM512 831q0 -27 -12 -42t-29 -15q-12 0 -21 8t-9 26q0 22 11.5 39t29.5 17q30 0 30 -33zM629 662q4 -12 4 -29q0 -43 -28.5 -92t-80.5 -90q-13 -10 -30.5 -19.5
t-34.5 -9.5q-7 0 -10 1q-22 5 -22 27q0 17 8 22.5t22 5.5q12 -1 17 -1q28 0 66 51.5t38 96.5q0 18 -7.5 31.5t-24.5 22.5q-22 12 -55 12q-29 0 -74 -12q-70 -20 -135 -59q-85 -51 -104 -104q-5 -15 -5 -23q0 -34 44 -52q30 -13 77 -18q71 -9 79 -11q38 -10 38 -35
q0 -14 -20 -22q-7 -3 -31 -8q-123 -22 -202.5 -64t-109.5 -100q-13 -26 -13 -49q0 -38 28.5 -64t75.5 -38.5t95 -12.5q63 0 121 21t104 64q13 12 23.5 17.5t17.5 5.5q18 0 18 -17q0 -12 -3 -21.5t-16 -21.5q-36 -34 -101 -59q-77 -30 -154 -30q-73 0 -120 12.5t-76 32.5
q-34 23 -47.5 52.5t-13.5 57.5q0 45 31 89q35 51 107 91q34 19 73.5 34.5t81.5 27.5q-59 7 -103 32q-58 33 -58 84q0 29 22 66q38 60 128 110q78 43 162 61q15 3 30.5 6t30.5 3q70 0 108 -32q22 -19 29 -43z" />
    <glyph glyph-name="dieresis" unicode="&#x401;" horiz-adv-x="596" 
d="M658 822q0 -27 -14 -44t-33 -17q-13 0 -20.5 10.5t-7.5 24.5q0 21 12 38.5t33 17.5q12 0 21 -6.5t9 -23.5zM512 831q0 -27 -12 -42t-29 -15q-12 0 -21 8t-9 26q0 22 11.5 39t29.5 17q30 0 30 -33zM629 662q4 -12 4 -29q0 -43 -28.5 -92t-80.5 -90q-13 -10 -30.5 -19.5
t-34.5 -9.5q-7 0 -10 1q-22 5 -22 27q0 17 8 22.5t22 5.5q12 -1 17 -1q28 0 66 51.5t38 96.5q0 18 -7.5 31.5t-24.5 22.5q-22 12 -55 12q-29 0 -74 -12q-70 -20 -135 -59q-85 -51 -104 -104q-5 -15 -5 -23q0 -34 44 -52q30 -13 77 -18q71 -9 79 -11q38 -10 38 -35
q0 -14 -20 -22q-7 -3 -31 -8q-123 -22 -202.5 -64t-109.5 -100q-13 -26 -13 -49q0 -38 28.5 -64t75.5 -38.5t95 -12.5q63 0 121 21t104 64q13 12 23.5 17.5t17.5 5.5q18 0 18 -17q0 -12 -3 -21.5t-16 -21.5q-36 -34 -101 -59q-77 -30 -154 -30q-73 0 -120 12.5t-76 32.5
q-34 23 -47.5 52.5t-13.5 57.5q0 45 31 89q35 51 107 91q34 19 73.5 34.5t81.5 27.5q-59 7 -103 32q-58 33 -58 84q0 29 22 66q38 60 128 110q78 43 162 61q15 3 30.5 6t30.5 3q70 0 108 -32q22 -19 29 -43z" />
    <glyph glyph-name="copyright" unicode="&#xa9;" horiz-adv-x="625" 
d="M596 325q0 -137 -118 -244t-270 -107q-74 0 -126 30q-82 48 -82 157q0 133 124.5 280.5t245.5 147.5q23 0 36.5 -5.5t23.5 -16.5q62 -28 105 -77q61 -70 61 -165zM521 440q-14 26 -27 40t-65 47q-10 -2 -15 -2q-18 0 -35 12l-64 -7l-44 -18q-42 -17 -104 -88
q-56 -65 -88 -123q-22 -40 -31.5 -75t-9.5 -65q0 -37 13 -66q9 -21 25 -39q27 -30 71 -42q30 -8 69 -8q64 0 122 27q49 23 105 72q109 95 109 217q0 62 -31 118zM409 353q0 -12 -13.5 -28.5t-27.5 -16.5q-16 0 -16 14q0 6 5.5 14.5t5.5 18.5q0 21 -12 35t-31 14
q-35 0 -77.5 -62.5t-42.5 -117.5q0 -60 60 -60q30 0 56.5 17t45.5 42q8 9 11 12q8 7 15 7q4 0 8 -2.5t4 -8.5q0 -25 -44 -58q-49 -37 -100 -37q-43 0 -67.5 25.5t-24.5 68.5q0 67 51 136.5t110 69.5q33 0 53 -23q15 -18 19 -46q12 -4 12 -14z" />
    <glyph glyph-name="ordfeminine" unicode="&#xaa;" horiz-adv-x="693" 
d="M638 571q15 -14 15 -27q0 -9 -11 -34q-14 -31 -18 -55q-12 -76 -36 -102q-15 -17 -38 -17q-19 0 -19 58q0 20 26.5 72t26.5 92q0 46 -20 80q-27 45 -78 45q-98 0 -202 -138t-128 -294q45 6 99.5 13t70.5 7q49 0 72 -13q16 -9 16 -21q0 -11 -9.5 -15.5t-26.5 -4.5
q-15 0 -26.5 1t-21 2.5t-17 1.5h-10.5q-32 0 -75.5 -5t-77.5 -11q0 -119 40 -168q36 -44 105 -44q68 0 135 39q43 25 93 74q18 18 48.5 50t42.5 32q22 0 22 -26q0 -13 -15 -31q-18 -22 -66 -65q-61 -55 -130.5 -87t-134.5 -32q-107 0 -154 84q-35 62 -35 166q-4 -1 -28 -6
t-28 -5q-20 0 -24 20v13q4 15 25 17t38 4l22 3q29 193 147 339.5t236 146.5q67 0 103.5 -40.5t45.5 -118.5z" />
    <glyph glyph-name="ordfeminine" unicode="&#x404;" horiz-adv-x="693" 
d="M638 571q15 -14 15 -27q0 -9 -11 -34q-14 -31 -18 -55q-12 -76 -36 -102q-15 -17 -38 -17q-19 0 -19 58q0 20 26.5 72t26.5 92q0 46 -20 80q-27 45 -78 45q-98 0 -202 -138t-128 -294q45 6 99.5 13t70.5 7q49 0 72 -13q16 -9 16 -21q0 -11 -9.5 -15.5t-26.5 -4.5
q-15 0 -26.5 1t-21 2.5t-17 1.5h-10.5q-32 0 -75.5 -5t-77.5 -11q0 -119 40 -168q36 -44 105 -44q68 0 135 39q43 25 93 74q18 18 48.5 50t42.5 32q22 0 22 -26q0 -13 -15 -31q-18 -22 -66 -65q-61 -55 -130.5 -87t-134.5 -32q-107 0 -154 84q-35 62 -35 166q-4 -1 -28 -6
t-28 -5q-20 0 -24 20v13q4 15 25 17t38 4l22 3q29 193 147 339.5t236 146.5q67 0 103.5 -40.5t45.5 -118.5z" />
    <glyph glyph-name="guillemotleft" unicode="&#xab;" horiz-adv-x="406" 
d="M355 255q-9 -10 -18 -17q-5 -4 -30 -23l-26 -22q-20 -17 -32 -30l-20 -21l8 -14q19 -33 34.5 -51.5t23.5 -27t8 -20.5q0 -9 -8 -17t-21 -8q-11 0 -26 10t-37 49q-16 28 -30 59l-6 19q0 5 4 12t17 23q26 30 62 63q44 39 70 53q4 2 9 3.5t10 1.5q20 0 20 -18q0 -10 -12 -24
zM207 265q0 -14 -41 -52q-29 -27 -41 -42l-26 -32l5 -11q11 -25 32 -49q13 -16 27 -32q6 -11 6 -18q0 -9 -10 -19q-6 -6 -16 -6q-11 0 -23 10q-4 3 -11 12q-13 14 -33.5 46.5t-28.5 51.5q-3 8 -3 12q0 5 17 31.5t50.5 61.5t56.5 49q11 7 20 7q19 0 19 -20z" />
    <glyph glyph-name="logicalnot" unicode="&#xac;" horiz-adv-x="453" 
d="M388 171q-9 -26 -21 -54.5t-21 -48t-16.5 -26t-16.5 -6.5q-6 0 -13 5.5t-7 14.5q0 5 0.5 8t3.5 10l38 89q-43 0 -137.5 -3.5t-97.5 -3.5q-7 -1 -11 -1q-21 0 -29 8t-8 20q0 9 4 17.5t20 8.5l56 -4h34h26h21h17h13q19 0 34 0.5t30 3.5l53 5q35 0 35 -26q0 -9 -7 -17z" />
    <glyph glyph-name="minus" unicode="&#xad;" horiz-adv-x="304" 
d="M230 199q-7 -9 -22 -9q-10 1 -15 1q-6 1 -16 1q-16 -1 -25 -1q-28 0 -46 -1t-34 -2q-14 0 -21 6.5t-7 16.5q0 8 5 15.5t14.5 10t23.5 2.5h40q22 0 42 2.5t25 2.5l19 -3q23 -7 23 -26q0 -10 -6 -16z" />
    <glyph glyph-name="registered" unicode="&#xae;" horiz-adv-x="619" 
d="M596 325q0 -137 -118 -244t-270 -107q-74 0 -126 30q-82 48 -82 157q0 133 124.5 280.5t245.5 147.5q23 0 36.5 -5.5t23.5 -16.5q62 -28 105 -77q61 -70 61 -165zM521 440q-14 26 -27 40t-65 47q-10 -2 -15 -2q-18 0 -35 12l-64 -7l-44 -18q-42 -17 -104 -88
q-56 -65 -88 -123q-22 -40 -31.5 -75t-9.5 -65q0 -37 13 -66q9 -21 25 -39q27 -30 71 -42q30 -8 69 -8q64 0 122 27q49 23 105 72q109 95 109 217q0 62 -31 118zM414 129q0 -21 -24 -21q-13 0 -32 10q-33 18 -64.5 40.5t-61.5 48.5q-13 2 -24 8t-20 15q-6 -18 -11 -66
t-26 -48q-10 0 -16 6.5t-6 16.5q0 14 12 56q1 3 35 111q27 85 39 110.5t28 25.5q18 0 18 -19q0 -4 -2 -9l-10 -20q47 42 102 42q32 0 46 -18q11 -14 11 -42q0 -49 -44 -96q-49 -52 -112 -52q30 -25 73 -50q31 -19 52 -31q21 0 29 -2t8 -16zM373 368q0 31 -29 31
q-41 0 -81 -30q-50 -37 -65 -102q15 1 23 -2.5t13 -10.5q40 -5 89.5 34.5t49.5 79.5z" />
    <glyph glyph-name="macron" unicode="&#xaf;" horiz-adv-x="339" 
d="M367 799q7 -7 7 -21q0 -31 -22 -43q-6 -3 -13 -3q-12 0 -19 7t-7 22q0 12 4 20q11 24 33 24q11 0 17 -6zM248 798q8 -8 8 -24q0 -20 -10 -31t-22 -11q-10 0 -15 5q-12 9 -12 30q0 16 13 29q11 9 21 9t17 -7zM386 682q0 -20 -22 -29q-14 -6 -49 -10q-50 -146 -74 -215
q-40 -115 -65 -179q-29 -76 -91 -226l32 -1q15 0 23 -8t8 -17q0 -8 -11.5 -16t-33.5 -8h-28t-25 -1q-66 0 -90.5 8.5t-24.5 24.5q0 12 13 18t34 6l43 -3q44 90 121 294.5t111 317.5q-38 0 -53 6t-15 21q0 16 17 22t35 6l94 6q17 1 24 1q13 0 20 -3.5t7 -14.5z" />
    <glyph glyph-name="macron" unicode="&#x407;" horiz-adv-x="339" 
d="M367 799q7 -7 7 -21q0 -31 -22 -43q-6 -3 -13 -3q-12 0 -19 7t-7 22q0 12 4 20q11 24 33 24q11 0 17 -6zM248 798q8 -8 8 -24q0 -20 -10 -31t-22 -11q-10 0 -15 5q-12 9 -12 30q0 16 13 29q11 9 21 9t17 -7zM386 682q0 -20 -22 -29q-14 -6 -49 -10q-50 -146 -74 -215
q-40 -115 -65 -179q-29 -76 -91 -226l32 -1q15 0 23 -8t8 -17q0 -8 -11.5 -16t-33.5 -8h-28t-25 -1q-66 0 -90.5 8.5t-24.5 24.5q0 12 13 18t34 6l43 -3q44 90 121 294.5t111 317.5q-38 0 -53 6t-15 21q0 16 17 22t35 6l94 6q17 1 24 1q13 0 20 -3.5t7 -14.5z" />
    <glyph glyph-name="degree" unicode="&#xb0;" horiz-adv-x="491" 
d="M397 530q0 -57 -44 -99t-104 -42q-68 0 -111.5 39.5t-43.5 98.5q0 62 43.5 104.5t104.5 42.5q59 0 102 -33q53 -40 53 -111zM346 530q0 41 -28.5 68.5t-71.5 27.5q-38 0 -69.5 -26.5t-31.5 -67.5q0 -43 25 -70t70 -27q50 0 80 31q26 27 26 64z" />
    <glyph glyph-name="plusminus" unicode="&#xb1;" horiz-adv-x="473" 
d="M405 189q0 -15 -9.5 -20t-24.5 -5l-54 1l-71 -1q-12 -39 -24 -77q-8 -23 -23 -40q-5 -5 -12.5 -10t-15.5 -5q-10 0 -13 11v15q10 20 21 43t22 63q-41 -4 -63.5 -5.5t-30.5 -1.5q-22 0 -37 5t-15 20q0 11 7 19t22 8q7 0 45 -1t83 -1q16 55 32 111q22 61 53 61q12 0 12 -13
q0 -8 -4 -16.5t-4 -9.5q-10 -21 -24 -65.5t-19 -67.5q17 0 45.5 2.5t35.5 2.5q14 1 22 1q20 0 32 -4.5t12 -19.5zM338 -7q0 -15 -10.5 -19.5t-28.5 -4.5h-19l-57 1q-78 0 -110 -2.5t-53 -4.5q-17 0 -25.5 6t-8.5 18q0 17 18 26q8 3 14 3q16 -2 24 -2l54 -2q87 0 127 3t42 3
q18 0 25.5 -7.5t7.5 -17.5z" />
    <glyph glyph-name="twosuperior" unicode="&#xb2;" horiz-adv-x="339" 
d="M386 682q0 -20 -22 -29q-14 -6 -49 -10q-50 -146 -74 -215q-40 -115 -65 -179q-29 -76 -91 -226l32 -1q15 0 23 -8t8 -17q0 -8 -11.5 -16t-33.5 -8h-28t-25 -1q-66 0 -90.5 8.5t-24.5 24.5q0 12 13 18t34 6l43 -3q44 90 121 294.5t111 317.5q-38 0 -53 6t-15 21
q0 16 17 22t35 6l94 6q17 1 24 1q13 0 20 -3.5t7 -14.5z" />
    <glyph glyph-name="twosuperior" unicode="&#x406;" horiz-adv-x="339" 
d="M386 682q0 -20 -22 -29q-14 -6 -49 -10q-50 -146 -74 -215q-40 -115 -65 -179q-29 -76 -91 -226l32 -1q15 0 23 -8t8 -17q0 -8 -11.5 -16t-33.5 -8h-28t-25 -1q-66 0 -90.5 8.5t-24.5 24.5q0 12 13 18t34 6l43 -3q44 90 121 294.5t111 317.5q-38 0 -53 6t-15 21
q0 16 17 22t35 6l94 6q17 1 24 1q13 0 20 -3.5t7 -14.5z" />
    <glyph glyph-name="threesuperior" unicode="&#xb3;" 
d="M178 431q0 -19 -13.5 -33.5t-28.5 -14.5q-12 0 -22.5 9t-10.5 25q0 19 12 32t30 13q14 0 23.5 -6.5t9.5 -24.5zM231 199q-11 -31 -39.5 -76t-52 -73t-44 -43t-36.5 -15q-20 0 -29 17.5t-9 45.5q0 23 3 43t8 37q17 78 48 148q9 20 20.5 31.5t23.5 11.5q9 0 16 -7t7 -17
q0 -7 -5 -18q-9 -18 -16 -33q-15 -32 -32 -78t-26 -82q-5 -22 -5 -36q0 -21 10 -21q9 0 21 15q28 32 58 88q20 40 41 81q4 8 12 16t16 8q15 0 15 -18q0 -11 -5 -25z" />
    <glyph glyph-name="threesuperior" unicode="&#x456;" 
d="M178 431q0 -19 -13.5 -33.5t-28.5 -14.5q-12 0 -22.5 9t-10.5 25q0 19 12 32t30 13q14 0 23.5 -6.5t9.5 -24.5zM231 199q-11 -31 -39.5 -76t-52 -73t-44 -43t-36.5 -15q-20 0 -29 17.5t-9 45.5q0 23 3 43t8 37q17 78 48 148q9 20 20.5 31.5t23.5 11.5q9 0 16 -7t7 -17
q0 -7 -5 -18q-9 -18 -16 -33q-15 -32 -32 -78t-26 -82q-5 -22 -5 -36q0 -21 10 -21q9 0 21 15q28 32 58 88q20 40 41 81q4 8 12 16t16 8q15 0 15 -18q0 -11 -5 -25z" />
    <glyph glyph-name="acute" unicode="&#xb4;" horiz-adv-x="448" 
d="M438 392q0 -38 -25 -51q-12 -6 -33 -6q-17 0 -34 2.5t-43.5 9.5t-44.5 10t-45 3q-75 0 -113 -77q-31 -62 -31 -148q0 -49 14 -76.5t41 -27.5q50 0 69 91q27 129 47 161q9 15 18 25q14 16 24 16q9 0 18 -6.5t9 -22.5q0 -3 -3 -17t-16 -24.5t-18 -18.5q-8 -12 -13 -26
q-8 -20 -15 -53q-15 -65 -16 -67q-13 -43 -39.5 -68.5t-66.5 -25.5q-29 0 -49 15q-43 35 -43 123q0 35 10.5 78t29.5 81q26 52 61 78q21 16 56 25t68 9q39 0 46 -4q15 -8 75 -15q7 11 14 23q11 15 29 15q10 0 14.5 -9t4.5 -22z" />
    <glyph glyph-name="acute" unicode="&#x491;" horiz-adv-x="448" 
d="M438 392q0 -38 -25 -51q-12 -6 -33 -6q-17 0 -34 2.5t-43.5 9.5t-44.5 10t-45 3q-75 0 -113 -77q-31 -62 -31 -148q0 -49 14 -76.5t41 -27.5q50 0 69 91q27 129 47 161q9 15 18 25q14 16 24 16q9 0 18 -6.5t9 -22.5q0 -3 -3 -17t-16 -24.5t-18 -18.5q-8 -12 -13 -26
q-8 -20 -15 -53q-15 -65 -16 -67q-13 -43 -39.5 -68.5t-66.5 -25.5q-29 0 -49 15q-43 35 -43 123q0 35 10.5 78t29.5 81q26 52 61 78q21 16 56 25t68 9q39 0 46 -4q15 -8 75 -15q7 11 14 23q11 15 29 15q10 0 14.5 -9t4.5 -22z" />
    <glyph glyph-name="mu" unicode="&#xb5;" horiz-adv-x="577" 
d="M577 216q0 -10 -5.5 -25.5t-13.5 -34.5q-14 -31 -48 -75q-37 -48 -69 -72q-16 -11 -22 -15q-18 -11 -32 -11q-16 0 -25 14.5t-9 36.5q0 19 7.5 54t17 73.5t16.5 63t4 31.5q-3 6 -8 2.5t-25 -24.5q-40 -44 -54 -63q-39 -58 -89 -131q-28 -41 -42 -41q-13 0 -13 21
q0 10 3 24l6 28l22 105l11 59q4 18 4 29t-7 11t-14.5 -6.5t-14.5 -15.5q-39 -46 -69 -111t-41.5 -124t-11.5 -86q0 -19 2 -30q7 -39 7 -42q0 -20 -10.5 -27t-23.5 -7q-11 0 -19 13q-11 18 -11 52q0 32 6 65q3 18 15 64q27 102 69 179q35 64 80 110q21 21 40 33t33 12
q17 0 23.5 -12.5t6.5 -30.5q0 -13 -2 -23l-24 -135l22 31q23 33 66.5 78.5t67.5 60.5q16 10 29 10q25 0 25 -35q0 -5 -2.5 -20t-11.5 -52l-27.5 -110t-9 -48t-0.5 -17q0 -7 6 -7q5 0 16 7q37 28 63 70t38 87q5 18 10.5 23.5t16.5 5.5q9 0 11 -1q10 -5 10 -21z" />
    <glyph glyph-name="paragraph" unicode="&#xb6;" horiz-adv-x="899" 
d="M895 634q5 -8 5 -15q0 -12 -7.5 -19.5t-24.5 -7.5q-8 0 -23.5 4t-40 8t-54.5 4l-83 -198q-37 -88 -56 -144q-10 -29 -19 -58q-19 -54 -36.5 -107t-17.5 -75q0 -12 5 -24t5 -16q0 -7 -6 -14q-9 -11 -27 -11q-17 0 -27 11q-6 6 -7.5 12t-1.5 18q0 48 41 170q47 139 171 436
q-57 0 -94 -1t-69 -2q-19 -40 -71 -167q-63 -152 -95 -243q-47 -132 -47 -169q0 -12 5 -24t5 -16q0 -7 -6 -14q-9 -11 -27 -11q-17 0 -27.5 11t-10.5 36q0 27 11 67q3 10 26 81q-35 -8 -66 -8q-71 0 -115 32q-50 36 -50 102q0 24 4 44t17 49q27 65 81 122q46 49 108 85
q96 56 213 71q14 12 28 12q12 0 26 -12q45 0 86.5 1t82.5 2q14 9 26 9q13 0 24 -8q43 0 86 -4.5t53 -18.5zM467 602l-69 -16q-62 -14 -117 -50q-74 -48 -124 -129q-20 -33 -29.5 -61.5t-9.5 -53.5q0 -48 34 -76q30 -25 79 -25q42 0 77 19q18 42 38 96q10 28 28 74z" />
    <glyph glyph-name="periodcentered" unicode="&#xb7;" horiz-adv-x="195" 
d="M125 222q-2 -5 -11.5 -14.5t-20 -14t-23.5 -4.5q-20 0 -29.5 9.5t-9.5 21.5q0 11 8 20q16 20 45 20q19 0 31 -9.5t12 -19.5q0 -3 -2 -9z" />
    <glyph glyph-name="periodcentered" unicode="&#x2219;" horiz-adv-x="195" 
d="M125 222q-2 -5 -11.5 -14.5t-20 -14t-23.5 -4.5q-20 0 -29.5 9.5t-9.5 21.5q0 11 8 20q16 20 45 20q19 0 31 -9.5t12 -19.5q0 -3 -2 -9z" />
    <glyph glyph-name="cedilla" unicode="&#xb8;" horiz-adv-x="303" 
d="M287 517q6 -6 6 -20q0 -18 -10 -32.5t-26 -14.5q-10 0 -17 7t-7 23q0 21 10.5 32.5t26.5 11.5q10 0 17 -7zM175 514q6 -8 6 -21q0 -16 -9.5 -29t-25.5 -13q-10 0 -16.5 7t-6.5 24q0 21 11.5 31.5t23.5 10.5q9 0 17 -10zM284 193q-19 -52 -49 -100q-37 -59 -77 -85
q-29 -19 -57 -19q-35 0 -56 27q-24 31 -24 92q0 71 29.5 146t66.5 111q13 12 27 17.5t24 5.5q19 0 33 -13q20 -19 20 -55q0 -66 -35.5 -115t-88.5 -49q-11 0 -23 3q-5 -22 -5 -50q0 -32 8.5 -54t28.5 -22q13 0 33 12q37 24 72 84q32 54 41 99q4 17 7 24q7 15 19 15
q7 0 12 -4.5t5 -20.5q0 -19 -11 -49zM178 310q0 19 -7 24.5t-10 5.5q-17 0 -40.5 -44.5t-36.5 -92.5q9 -5 21 -5q30 0 53 41q20 36 20 71z" />
    <glyph glyph-name="cedilla" unicode="&#x451;" horiz-adv-x="303" 
d="M287 517q6 -6 6 -20q0 -18 -10 -32.5t-26 -14.5q-10 0 -17 7t-7 23q0 21 10.5 32.5t26.5 11.5q10 0 17 -7zM175 514q6 -8 6 -21q0 -16 -9.5 -29t-25.5 -13q-10 0 -16.5 7t-6.5 24q0 21 11.5 31.5t23.5 10.5q9 0 17 -10zM284 193q-19 -52 -49 -100q-37 -59 -77 -85
q-29 -19 -57 -19q-35 0 -56 27q-24 31 -24 92q0 71 29.5 146t66.5 111q13 12 27 17.5t24 5.5q19 0 33 -13q20 -19 20 -55q0 -66 -35.5 -115t-88.5 -49q-11 0 -23 3q-5 -22 -5 -50q0 -32 8.5 -54t28.5 -22q13 0 33 12q37 24 72 84q32 54 41 99q4 17 7 24q7 15 19 15
q7 0 12 -4.5t5 -20.5q0 -19 -11 -49zM178 310q0 19 -7 24.5t-10 5.5q-17 0 -40.5 -44.5t-36.5 -92.5q9 -5 21 -5q30 0 53 41q20 36 20 71z" />
    <glyph glyph-name="onesuperior" unicode="&#xb9;" horiz-adv-x="1625" 
d="M1521 358q0 -84 -57.5 -153.5t-130.5 -69.5q-41 0 -71 23q-41 31 -41 97q0 87 80 159q71 64 128 64q46 0 69 -32t23 -88zM1615 28q0 -9 -7.5 -16.5t-28.5 -7.5q-16 0 -46 2t-44 2q-21 0 -64.5 -5t-90 -9.5t-83.5 -9.5t-55 -5q-27 0 -39.5 7.5t-12.5 20.5q0 24 16.5 28.5
t26.5 4.5l95 -1q75 0 149.5 4t148.5 9q16 0 25.5 -6.5t9.5 -17.5zM1516 694q0 -9 -4.5 -17t-12.5 -8q-12 0 -53 9.5t-66 9.5q-49 0 -95 -60q-15 -20 -49 -72t-72 -117q-31 -53 -68 -122q-25 -47 -65.5 -125t-42.5 -103.5t-3 -53.5q-6 -36 -35 -36q-26 0 -34.5 26.5
t-8.5 77.5v38t1 39q0 36 -8 111q-15 144 -16 153q-8 101 -8 201q0 20 -5.5 28t-11.5 8q-9 0 -29.5 -36.5t-31.5 -55.5l-106 -183l-129 -226q-72 -115 -121 -158q-59 -52 -140 -52q-52 0 -99 25q-80 42 -138 149q-26 47 -40.5 102.5t-14.5 111.5q0 105 68 163.5t171 58.5
q47 0 97 -9.5t116 -38.5q30 -13 40.5 -21.5t10.5 -14.5q0 -21 -16 -21q-6 0 -14.5 3.5t-12.5 5.5q-42 18 -76 28q-54 16 -106 16q-101 0 -156 -60q-50 -55 -50 -142q0 -33 7 -64q15 -66 51.5 -123t85 -87.5t92.5 -30.5q59 0 115 60q39 42 97 140l63 112l61 109l123 201
q30 51 34 56q24 32 49 32q38 0 53 -38q7 -18 11 -64q0 -39 5 -60q13 -54 13 -163l12 -176l5 -71l26 48q47 88 94 175.5t72 129.5q30 52 63 101q54 80 103 111q40 25 92 25q48 0 77.5 -17t29.5 -38zM1478 368q0 36 -12.5 51.5t-35.5 15.5q-48 0 -107.5 -58.5t-59.5 -117.5
q0 -40 22 -62q19 -19 45 -19q54 0 101 56.5t47 133.5z" />
    <glyph glyph-name="onesuperior" unicode="&#x2116;" horiz-adv-x="1625" 
d="M1521 358q0 -84 -57.5 -153.5t-130.5 -69.5q-41 0 -71 23q-41 31 -41 97q0 87 80 159q71 64 128 64q46 0 69 -32t23 -88zM1615 28q0 -9 -7.5 -16.5t-28.5 -7.5q-16 0 -46 2t-44 2q-21 0 -64.5 -5t-90 -9.5t-83.5 -9.5t-55 -5q-27 0 -39.5 7.5t-12.5 20.5q0 24 16.5 28.5
t26.5 4.5l95 -1q75 0 149.5 4t148.5 9q16 0 25.5 -6.5t9.5 -17.5zM1516 694q0 -9 -4.5 -17t-12.5 -8q-12 0 -53 9.5t-66 9.5q-49 0 -95 -60q-15 -20 -49 -72t-72 -117q-31 -53 -68 -122q-25 -47 -65.5 -125t-42.5 -103.5t-3 -53.5q-6 -36 -35 -36q-26 0 -34.5 26.5
t-8.5 77.5v38t1 39q0 36 -8 111q-15 144 -16 153q-8 101 -8 201q0 20 -5.5 28t-11.5 8q-9 0 -29.5 -36.5t-31.5 -55.5l-106 -183l-129 -226q-72 -115 -121 -158q-59 -52 -140 -52q-52 0 -99 25q-80 42 -138 149q-26 47 -40.5 102.5t-14.5 111.5q0 105 68 163.5t171 58.5
q47 0 97 -9.5t116 -38.5q30 -13 40.5 -21.5t10.5 -14.5q0 -21 -16 -21q-6 0 -14.5 3.5t-12.5 5.5q-42 18 -76 28q-54 16 -106 16q-101 0 -156 -60q-50 -55 -50 -142q0 -33 7 -64q15 -66 51.5 -123t85 -87.5t92.5 -30.5q59 0 115 60q39 42 97 140l63 112l61 109l123 201
q30 51 34 56q24 32 49 32q38 0 53 -38q7 -18 11 -64q0 -39 5 -60q13 -54 13 -163l12 -176l5 -71l26 48q47 88 94 175.5t72 129.5q30 52 63 101q54 80 103 111q40 25 92 25q48 0 77.5 -17t29.5 -38zM1478 368q0 36 -12.5 51.5t-35.5 15.5q-48 0 -107.5 -58.5t-59.5 -117.5
q0 -40 22 -62q19 -19 45 -19q54 0 101 56.5t47 133.5z" />
    <glyph glyph-name="ordmasculine" unicode="&#xba;" horiz-adv-x="409" 
d="M391 271q0 -20 -20 -42t-37 -22q-14 0 -18 7t-4 14q0 6 7.5 18t7.5 27q0 28 -16 48.5t-44 20.5q-45 0 -94 -63q-39 -51 -63 -117l42 5q20 3 35 3q14 0 28.5 -5t18.5 -15q1 -2 1 -13q0 -6 -8 -9t-23 -3q-33 0 -54 -1.5t-51 -6.5q-2 -18 -2 -26q0 -48 29 -69q22 -16 56 -16
q40 0 79.5 24.5t64.5 57.5q11 15 19 21t17 6q5 0 11 -5t6 -11q0 -33 -61 -80q-69 -53 -142 -53q-58 0 -93.5 34.5t-35.5 84.5q0 7 2 21q-12 -2 -18.5 6.5t-6.5 20.5q0 13 15 15l15 2q28 105 92 171t128 66q51 0 78 -36q18 -25 23 -60q16 -8 16 -20z" />
    <glyph glyph-name="ordmasculine" unicode="&#x454;" horiz-adv-x="409" 
d="M391 271q0 -20 -20 -42t-37 -22q-14 0 -18 7t-4 14q0 6 7.5 18t7.5 27q0 28 -16 48.5t-44 20.5q-45 0 -94 -63q-39 -51 -63 -117l42 5q20 3 35 3q14 0 28.5 -5t18.5 -15q1 -2 1 -13q0 -6 -8 -9t-23 -3q-33 0 -54 -1.5t-51 -6.5q-2 -18 -2 -26q0 -48 29 -69q22 -16 56 -16
q40 0 79.5 24.5t64.5 57.5q11 15 19 21t17 6q5 0 11 -5t6 -11q0 -33 -61 -80q-69 -53 -142 -53q-58 0 -93.5 34.5t-35.5 84.5q0 7 2 21q-12 -2 -18.5 6.5t-6.5 20.5q0 13 15 15l15 2q28 105 92 171t128 66q51 0 78 -36q18 -25 23 -60q16 -8 16 -20z" />
    <glyph glyph-name="guillemotright" unicode="&#xbb;" horiz-adv-x="385" 
d="M343 178q3 -8 3 -12q0 -5 -17.5 -31.5t-41.5 -52.5q-9 -9 -36 -35q-20 -18 -25 -21q-14 -9 -24 -9q-8 0 -13.5 5t-5.5 14q0 11 9 20q5 7 17 18.5t25 23.5l31 33l26 32l-9 16q-16 29 -22.5 38.5t-22.5 25.5q-1 1 -7 9q-9 12 -9 21q0 10 8 17.5t18 7.5q11 0 23 -10
q4 -3 11 -12q13 -14 33.5 -46.5t28.5 -51.5zM215 161q0 -5 -3.5 -12t-17.5 -23q-26 -30 -62 -63q-44 -39 -70 -53q-4 -1 -10 -3.5t-10 -2.5q-8 0 -14 5.5t-6 13.5q0 9 7 17.5t32 29.5q22 17 42 33.5t38 35.5l20 21l-8 14q-19 33 -34.5 51.5t-21.5 25.5q-10 10 -10 22
q0 9 8 17t21 8q11 0 26 -10t37 -49q16 -28 30 -59z" />
    <glyph glyph-name="onequarter" unicode="&#xbc;" 
d="M278 430q0 -17 -9 -29q-12 -16 -37 -16q-21 0 -31 13.5t-10 27.5q0 15 11.5 25.5t31.5 10.5q21 0 32.5 -9.5t11.5 -22.5zM216 279q-32 -57 -33 -58q-11 -23 -21 -59q-17 -57 -42 -165q-8 -33 -21 -71q-45 -129 -126 -190q-60 -45 -128 -45q-61 0 -98.5 37.5t-37.5 89.5
q0 31 22.5 57.5t52.5 26.5q14 0 23 -8t9 -19q0 -22 -23 -22l-14 1q-9 0 -16 -10.5t-7 -26.5q0 -36 24.5 -61.5t63.5 -25.5q33 0 63 13q50 21 89 75q53 72 82 194q23 101 47 203q29 100 70 100q27 0 27 -19q0 -6 -6 -17z" />
    <glyph glyph-name="onequarter" unicode="&#x458;" 
d="M278 430q0 -17 -9 -29q-12 -16 -37 -16q-21 0 -31 13.5t-10 27.5q0 15 11.5 25.5t31.5 10.5q21 0 32.5 -9.5t11.5 -22.5zM216 279q-32 -57 -33 -58q-11 -23 -21 -59q-17 -57 -42 -165q-8 -33 -21 -71q-45 -129 -126 -190q-60 -45 -128 -45q-61 0 -98.5 37.5t-37.5 89.5
q0 31 22.5 57.5t52.5 26.5q14 0 23 -8t9 -19q0 -22 -23 -22l-14 1q-9 0 -16 -10.5t-7 -26.5q0 -36 24.5 -61.5t63.5 -25.5q33 0 63 13q50 21 89 75q53 72 82 194q23 101 47 203q29 100 70 100q27 0 27 -19q0 -6 -6 -17z" />
    <glyph glyph-name="onehalf" unicode="&#xbd;" horiz-adv-x="527" 
d="M585 505q-13 -44 -30.5 -76t-30 -40.5t-23.5 -8.5q-13 0 -21.5 10t-8.5 23t8 27q1 1 17 24q26 36 36 62t10 49q0 37 -28 63q-36 33 -102 33q-31 0 -81.5 -10.5t-108.5 -41.5q-66 -35 -94 -75q-23 -32 -23 -63q0 -24 15.5 -52.5t70.5 -74.5q37 -31 105 -81t97 -78
q21 -21 35 -44.5t14 -47.5q0 -31 -29 -63q-25 -28 -64.5 -48t-84.5 -28t-86 -8q-76 0 -135 22q-48 18 -78 46q-20 20 -31.5 45.5t-11.5 49.5q0 18 6 35q14 38 42 38q23 0 23 -18q0 -7 -9.5 -24t-9.5 -34q0 -30 24.5 -57.5t75.5 -45.5q22 -8 49 -12.5t56 -4.5
q65 0 119.5 21.5t79.5 60.5q12 20 12 36q0 20 -16 38q-11 13 -38 33q-85 62 -166.5 124.5t-104.5 116.5q-3 6 -8 23.5t-5 33.5q0 39 26 78q34 52 102 92q58 34 119 49.5t112 15.5q59 0 99.5 -17t61.5 -45q13 -17 19 -39t6 -42q0 -18 -3.5 -35.5t-8.5 -34.5z" />
    <glyph glyph-name="onehalf" unicode="&#x405;" horiz-adv-x="527" 
d="M585 505q-13 -44 -30.5 -76t-30 -40.5t-23.5 -8.5q-13 0 -21.5 10t-8.5 23t8 27q1 1 17 24q26 36 36 62t10 49q0 37 -28 63q-36 33 -102 33q-31 0 -81.5 -10.5t-108.5 -41.5q-66 -35 -94 -75q-23 -32 -23 -63q0 -24 15.5 -52.5t70.5 -74.5q37 -31 105 -81t97 -78
q21 -21 35 -44.5t14 -47.5q0 -31 -29 -63q-25 -28 -64.5 -48t-84.5 -28t-86 -8q-76 0 -135 22q-48 18 -78 46q-20 20 -31.5 45.5t-11.5 49.5q0 18 6 35q14 38 42 38q23 0 23 -18q0 -7 -9.5 -24t-9.5 -34q0 -30 24.5 -57.5t75.5 -45.5q22 -8 49 -12.5t56 -4.5
q65 0 119.5 21.5t79.5 60.5q12 20 12 36q0 20 -16 38q-11 13 -38 33q-85 62 -166.5 124.5t-104.5 116.5q-3 6 -8 23.5t-5 33.5q0 39 26 78q34 52 102 92q58 34 119 49.5t112 15.5q59 0 99.5 -17t61.5 -45q13 -17 19 -39t6 -42q0 -18 -3.5 -35.5t-8.5 -34.5z" />
    <glyph glyph-name="threequarters" unicode="&#xbe;" horiz-adv-x="323" 
d="M320 290q0 -30 -11 -65q-15 -47 -38 -57q-6 -3 -15 -3q-5 0 -10 3q-13 7 -13 21q0 7 4.5 16t5.5 12q14 24 18 34q8 18 8 36q0 31 -16 42.5t-52 11.5q-25 0 -52 -12.5t-43 -30.5q-22 -25 -22 -53q0 -13 4 -24.5t18 -28.5t52 -45q33 -24 50 -37.5t27 -26.5q15 -19 15 -39
q0 -28 -31 -41q-25 -10 -63 -10q-71 0 -109 26q-31 21 -31 50q0 16 12 30t26 14q18 0 18 -14q0 -8 -5.5 -15.5t-5.5 -14.5q0 -8 7.5 -15.5t20 -13t40 -9t50.5 -3.5q11 0 20 6l6 6q0 15 -14.5 29t-60.5 46q-35 24 -53 41q-22 20 -28.5 34t-8.5 25t-2 24q0 28 16 57.5t45 50.5
q36 25 89 34l40 3q43 0 67.5 -23.5t24.5 -70.5z" />
    <glyph glyph-name="threequarters" unicode="&#x455;" horiz-adv-x="323" 
d="M320 290q0 -30 -11 -65q-15 -47 -38 -57q-6 -3 -15 -3q-5 0 -10 3q-13 7 -13 21q0 7 4.5 16t5.5 12q14 24 18 34q8 18 8 36q0 31 -16 42.5t-52 11.5q-25 0 -52 -12.5t-43 -30.5q-22 -25 -22 -53q0 -13 4 -24.5t18 -28.5t52 -45q33 -24 50 -37.5t27 -26.5q15 -19 15 -39
q0 -28 -31 -41q-25 -10 -63 -10q-71 0 -109 26q-31 21 -31 50q0 16 12 30t26 14q18 0 18 -14q0 -8 -5.5 -15.5t-5.5 -14.5q0 -8 7.5 -15.5t20 -13t40 -9t50.5 -3.5q11 0 20 6l6 6q0 15 -14.5 29t-60.5 46q-35 24 -53 41q-22 20 -28.5 34t-8.5 25t-2 24q0 28 16 57.5t45 50.5
q36 25 89 34l40 3q43 0 67.5 -23.5t24.5 -70.5z" />
    <glyph glyph-name="questiondown" unicode="&#xbf;" 
d="M228 486q7 -7 7 -21q0 -31 -22 -43q-6 -3 -13 -3q-12 0 -19 7t-7 22q0 12 4 20q11 24 33 24q11 0 17 -6zM109 485q8 -8 8 -24q0 -20 -10 -31t-22 -11q-10 0 -15 5q-12 9 -12 30q0 16 13 29q11 9 21 9t17 -7zM231 199q-11 -31 -39.5 -76t-52 -73t-44 -43t-36.5 -15
q-20 0 -29 17.5t-9 45.5q0 23 3 43t8 37q17 78 48 148q9 20 20.5 31.5t23.5 11.5q9 0 16 -7t7 -17q0 -7 -5 -18q-9 -18 -16 -33q-15 -32 -32 -78t-26 -82q-5 -22 -5 -36q0 -21 10 -21q9 0 21 15q28 32 58 88q20 40 41 81q4 8 12 16t16 8q15 0 15 -18q0 -11 -5 -25z" />
    <glyph glyph-name="questiondown" unicode="&#x457;" 
d="M228 486q7 -7 7 -21q0 -31 -22 -43q-6 -3 -13 -3q-12 0 -19 7t-7 22q0 12 4 20q11 24 33 24q11 0 17 -6zM109 485q8 -8 8 -24q0 -20 -10 -31t-22 -11q-10 0 -15 5q-12 9 -12 30q0 16 13 29q11 9 21 9t17 -7zM231 199q-11 -31 -39.5 -76t-52 -73t-44 -43t-36.5 -15
q-20 0 -29 17.5t-9 45.5q0 23 3 43t8 37q17 78 48 148q9 20 20.5 31.5t23.5 11.5q9 0 16 -7t7 -17q0 -7 -5 -18q-9 -18 -16 -33q-15 -32 -32 -78t-26 -82q-5 -22 -5 -36q0 -21 10 -21q9 0 21 15q28 32 58 88q20 40 41 81q4 8 12 16t16 8q15 0 15 -18q0 -11 -5 -25z" />
    <glyph glyph-name="Agrave" unicode="&#xc0;" horiz-adv-x="553" 
d="M537 335q0 -14 -12 -25q-17 -15 -56 -21q-12 -60 -24 -151t-12 -147l2 -62q0 -25 -22 -25q-15 0 -26 15q-14 19 -14 55q0 48 14 141t28 160q-162 -36 -331 -85l-4 -13l-57 -148q-11 -27 -21.5 -37.5t-26.5 -10.5q-6 0 -13 6t-7 13q0 20 22 71q1 3 50 107q-11 -4 -22 -4
q-14 0 -24 8t-10 20q0 18 26 24.5t52 12.5q116 258 230 415q106 146 167 146q39 0 54 -61q10 -40 10 -99q0 -69 -8 -143q-2 -20 -21 -153q18 6 33 6q4 0 10 -1q5 0 9 -4t4 -10zM462 648q0 49 -8.5 68.5t-21.5 19.5q-47 0 -162 -186q-102 -164 -158 -300q170 46 312 78
q12 68 25 169t13 151z" />
    <glyph glyph-name="Agrave" unicode="&#x410;" horiz-adv-x="553" 
d="M537 335q0 -14 -12 -25q-17 -15 -56 -21q-12 -60 -24 -151t-12 -147l2 -62q0 -25 -22 -25q-15 0 -26 15q-14 19 -14 55q0 48 14 141t28 160q-162 -36 -331 -85l-4 -13l-57 -148q-11 -27 -21.5 -37.5t-26.5 -10.5q-6 0 -13 6t-7 13q0 20 22 71q1 3 50 107q-11 -4 -22 -4
q-14 0 -24 8t-10 20q0 18 26 24.5t52 12.5q116 258 230 415q106 146 167 146q39 0 54 -61q10 -40 10 -99q0 -69 -8 -143q-2 -20 -21 -153q18 6 33 6q4 0 10 -1q5 0 9 -4t4 -10zM462 648q0 49 -8.5 68.5t-21.5 19.5q-47 0 -162 -186q-102 -164 -158 -300q170 46 312 78
q12 68 25 169t13 151z" />
    <glyph glyph-name="Aacute" unicode="&#xc1;" horiz-adv-x="605" 
d="M645 613q0 -6 -6 -13t-13 -7q-23 0 -44.5 5.5t-45.5 7.5t-64 2h-27q-9 0 -99 -5q-36 -2 -83 -2q-24 -47 -47 -99q-18 -40 -32 -75l53 -5q84 -8 159 -43q113 -52 153 -146q13 -30 13 -63q0 -18 -4 -33.5t-16 -35.5q-24 -40 -73 -70q-44 -27 -99 -42t-151 -15
q-55 0 -96 6.5t-67 21.5t-36 33t-10 41q0 10 1.5 19.5t9.5 35.5q28 89 63 180l28 72q-12 -2 -16 -2q-23 0 -23 15q0 16 12.5 23t42.5 7q23 56 44 105q18 42 28 68q-41 0 -93 -5q-21 -2 -33 -2q-21 0 -28 10.5t-7 24.5q0 12 9.5 20t26.5 8q11 0 28 -6q33 0 64.5 1t62.5 2
q5 3 15 8t16 5q10 0 22 -12q11 0 73 2t109 2h49q57 0 94 -8.5t37 -35.5zM497 221q-22 57 -93 101q-65 40 -143 53q-50 9 -95 9q-24 -52 -55 -134q-35 -91 -46 -134q-3 -10 -4 -15t-1 -15q0 -24 16 -39q20 -19 66 -25q19 -3 48 -4t32 -1q89 0 159 26t101 69q23 31 23 67
q0 23 -8 42z" />
    <glyph glyph-name="Aacute" unicode="&#x411;" horiz-adv-x="605" 
d="M645 613q0 -6 -6 -13t-13 -7q-23 0 -44.5 5.5t-45.5 7.5t-64 2h-27q-9 0 -99 -5q-36 -2 -83 -2q-24 -47 -47 -99q-18 -40 -32 -75l53 -5q84 -8 159 -43q113 -52 153 -146q13 -30 13 -63q0 -18 -4 -33.5t-16 -35.5q-24 -40 -73 -70q-44 -27 -99 -42t-151 -15
q-55 0 -96 6.5t-67 21.5t-36 33t-10 41q0 10 1.5 19.5t9.5 35.5q28 89 63 180l28 72q-12 -2 -16 -2q-23 0 -23 15q0 16 12.5 23t42.5 7q23 56 44 105q18 42 28 68q-41 0 -93 -5q-21 -2 -33 -2q-21 0 -28 10.5t-7 24.5q0 12 9.5 20t26.5 8q11 0 28 -6q33 0 64.5 1t62.5 2
q5 3 15 8t16 5q10 0 22 -12q11 0 73 2t109 2h49q57 0 94 -8.5t37 -35.5zM497 221q-22 57 -93 101q-65 40 -143 53q-50 9 -95 9q-24 -52 -55 -134q-35 -91 -46 -134q-3 -10 -4 -15t-1 -15q0 -24 16 -39q20 -19 66 -25q19 -3 48 -4t32 -1q89 0 159 26t101 69q23 31 23 67
q0 23 -8 42z" />
    <glyph glyph-name="Acircumflex" unicode="&#xc2;" horiz-adv-x="796" 
d="M786 601q0 -68 -86 -129.5t-229 -86.5q43 -12 83 -28t76 -37t60 -44q35 -35 45 -74q1 -8 2.5 -15t1.5 -18q0 -34 -16 -62q-19 -34 -64.5 -64.5t-111 -47t-139.5 -16.5q-95 0 -169 30q-32 13 -45.5 28.5t-13.5 34.5q0 8 1 14t8 22l93 241h-46q-23 0 -33 5t-10 17
q0 20 34 27.5t79 7.5l68 183q8 22 19.5 32.5t22.5 10.5q18 0 27 -21q2 -4 2 -13q0 -14 -12 -38q-8 -16 -11 -23l-56 -125q47 0 95 11t115 36q83 30 127 73q37 36 37 69q0 43 -71 70q-78 30 -220 30q-66 0 -130.5 -12.5t-120.5 -35.5q-75 -30 -111 -71q-31 -35 -31 -74
q0 -35 25 -53q16 -11 18 -13q8 -8 8 -22q0 -5 -5.5 -8t-18.5 -3q-29 0 -51 30t-22 75q0 46 33 87q41 51 127 87q64 26 132 39.5t135 13.5q78 0 147 -7.5t121 -29.5q33 -14 53 -35q28 -29 28 -68zM686 159q0 42 -38 83q-52 56 -162 88q-35 10 -69.5 15t-75.5 5l-36 -87
q-22 -56 -27 -70q-18 -48 -32 -93q-4 -14 -4 -22q0 -17 20.5 -30.5t75.5 -21.5q37 -5 73 -5q56 0 109 10q82 18 127 57q39 34 39 71z" />
    <glyph glyph-name="Acircumflex" unicode="&#x412;" horiz-adv-x="796" 
d="M786 601q0 -68 -86 -129.5t-229 -86.5q43 -12 83 -28t76 -37t60 -44q35 -35 45 -74q1 -8 2.5 -15t1.5 -18q0 -34 -16 -62q-19 -34 -64.5 -64.5t-111 -47t-139.5 -16.5q-95 0 -169 30q-32 13 -45.5 28.5t-13.5 34.5q0 8 1 14t8 22l93 241h-46q-23 0 -33 5t-10 17
q0 20 34 27.5t79 7.5l68 183q8 22 19.5 32.5t22.5 10.5q18 0 27 -21q2 -4 2 -13q0 -14 -12 -38q-8 -16 -11 -23l-56 -125q47 0 95 11t115 36q83 30 127 73q37 36 37 69q0 43 -71 70q-78 30 -220 30q-66 0 -130.5 -12.5t-120.5 -35.5q-75 -30 -111 -71q-31 -35 -31 -74
q0 -35 25 -53q16 -11 18 -13q8 -8 8 -22q0 -5 -5.5 -8t-18.5 -3q-29 0 -51 30t-22 75q0 46 33 87q41 51 127 87q64 26 132 39.5t135 13.5q78 0 147 -7.5t121 -29.5q33 -14 53 -35q28 -29 28 -68zM686 159q0 42 -38 83q-52 56 -162 88q-35 10 -69.5 15t-75.5 5l-36 -87
q-22 -56 -27 -70q-18 -48 -32 -93q-4 -14 -4 -22q0 -17 20.5 -30.5t75.5 -21.5q37 -5 73 -5q56 0 109 10q82 18 127 57q39 34 39 71z" />
    <glyph glyph-name="Atilde" unicode="&#xc3;" horiz-adv-x="570" 
d="M691 613q0 -6 -6 -13t-13 -7q-23 0 -44.5 5.5t-45.5 7.5t-64 2h-27q-11 0 -96 -5q-34 -2 -77 -2l-24 -53q-45 -99 -90 -219q-21 -55 -64 -180l-18 -58q-15 -52 -15 -65q0 -7 5 -18.5t5 -17.5q0 -12 -8 -20.5t-27 -8.5t-27 12.5t-8 30.5q0 24 10 63q16 62 57.5 175.5
t141.5 356.5q-15 0 -52 -3t-51 -3q-15 -1 -24 -1q-18 0 -31 6t-13 23q0 14 8.5 24t26.5 10q12 0 29 -6q33 0 65 1l64 2q16 13 28 13q7 0 10.5 -1.5t12.5 -10.5q11 0 73 2t109 2h49q57 0 94 -8.5t37 -35.5z" />
    <glyph glyph-name="Atilde" unicode="&#x413;" horiz-adv-x="570" 
d="M691 613q0 -6 -6 -13t-13 -7q-23 0 -44.5 5.5t-45.5 7.5t-64 2h-27q-11 0 -96 -5q-34 -2 -77 -2l-24 -53q-45 -99 -90 -219q-21 -55 -64 -180l-18 -58q-15 -52 -15 -65q0 -7 5 -18.5t5 -17.5q0 -12 -8 -20.5t-27 -8.5t-27 12.5t-8 30.5q0 24 10 63q16 62 57.5 175.5
t141.5 356.5q-15 0 -52 -3t-51 -3q-15 -1 -24 -1q-18 0 -31 6t-13 23q0 14 8.5 24t26.5 10q12 0 29 -6q33 0 65 1l64 2q16 13 28 13q7 0 10.5 -1.5t12.5 -10.5q11 0 73 2t109 2h49q57 0 94 -8.5t37 -35.5z" />
    <glyph glyph-name="Adieresis" unicode="&#xc4;" horiz-adv-x="825" 
d="M808 466q7 -34 7 -69q0 -31 -4 -58.5t-20 -67.5q-41 -107 -139 -185q-88 -70 -190 -92q-21 -5 -42.5 -7t-39.5 -2q-57 0 -93.5 18.5t-36.5 42.5q0 8 6 25q11 31 14 46q17 72 44 146q16 45 47 114q35 77 48 106q21 46 30 78.5t15 43.5q12 22 35 22q15 0 22.5 -11.5
t7.5 -23.5q0 -10 -19 -38q-11 -16 -20 -35q-39 -82 -82 -187q-47 -116 -70 -195q-7 -24 -10.5 -42t-3.5 -30q0 -18 11 -24q17 -10 59 -10q54 0 105 18q74 26 140 82q85 71 117 163q18 53 18 104q0 115 -78 192q-83 82 -217 82q-139 0 -272.5 -88.5t-133.5 -182.5
q0 -18 4 -31q8 -26 30 -42q19 -13 49 -21q15 -3 25 -9.5t10 -21.5q0 -3 -3 -6q-8 -8 -24 -8l-16 2q-60 14 -94.5 49.5t-34.5 82.5q0 48 34 101q42 66 122 121q84 58 179 82q65 17 130 17q28 0 52.5 -2t46.5 -8q82 -20 143 -76q71 -66 92 -165z" />
    <glyph glyph-name="Adieresis" unicode="&#x414;" horiz-adv-x="825" 
d="M808 466q7 -34 7 -69q0 -31 -4 -58.5t-20 -67.5q-41 -107 -139 -185q-88 -70 -190 -92q-21 -5 -42.5 -7t-39.5 -2q-57 0 -93.5 18.5t-36.5 42.5q0 8 6 25q11 31 14 46q17 72 44 146q16 45 47 114q35 77 48 106q21 46 30 78.5t15 43.5q12 22 35 22q15 0 22.5 -11.5
t7.5 -23.5q0 -10 -19 -38q-11 -16 -20 -35q-39 -82 -82 -187q-47 -116 -70 -195q-7 -24 -10.5 -42t-3.5 -30q0 -18 11 -24q17 -10 59 -10q54 0 105 18q74 26 140 82q85 71 117 163q18 53 18 104q0 115 -78 192q-83 82 -217 82q-139 0 -272.5 -88.5t-133.5 -182.5
q0 -18 4 -31q8 -26 30 -42q19 -13 49 -21q15 -3 25 -9.5t10 -21.5q0 -3 -3 -6q-8 -8 -24 -8l-16 2q-60 14 -94.5 49.5t-34.5 82.5q0 48 34 101q42 66 122 121q84 58 179 82q65 17 130 17q28 0 52.5 -2t46.5 -8q82 -20 143 -76q71 -66 92 -165z" />
    <glyph glyph-name="Aring" unicode="&#xc5;" horiz-adv-x="571" 
d="M611 553q-19 -37 -56 -75q-43 -44 -79 -54q-6 -2 -16 -2q-14 0 -23 5t-9 14q0 30 26 35q44 9 62 25q23 21 38.5 44.5t22.5 49.5q4 15 4 29q0 32 -23.5 49.5t-65.5 17.5q-34 0 -81 -13.5t-104 -44.5q-65 -35 -99 -71q-18 -19 -26 -37t-8 -34q0 -50 103 -66q49 -7 99 -14
q18 -3 26.5 -11.5t8.5 -22.5t-20 -22q-8 -3 -31 -8q-124 -22 -205.5 -66t-107.5 -96q-13 -25 -13 -49q0 -19 9 -35.5t26 -32.5q25 -22 69.5 -35.5t85.5 -13.5q50 0 102.5 12t90.5 38q10 7 45 37q23 20 37 20q20 0 20 -28q0 -17 -34 -43q-25 -19 -54 -33q-35 -18 -77 -29
q-55 -15 -110 -15q-73 0 -120 12.5t-76 32.5q-34 23 -47.5 52.5t-13.5 56.5q0 24 9 48q29 77 129 133q34 19 73.5 34.5t81.5 27.5q-59 7 -103 32q-58 33 -58 84q0 29 22 66q35 56 122 106.5t166 65.5q41 7 87 7q55 0 85.5 -28.5t30.5 -75.5q0 -37 -21 -79z" />
    <glyph glyph-name="Aring" unicode="&#x415;" horiz-adv-x="571" 
d="M611 553q-19 -37 -56 -75q-43 -44 -79 -54q-6 -2 -16 -2q-14 0 -23 5t-9 14q0 30 26 35q44 9 62 25q23 21 38.5 44.5t22.5 49.5q4 15 4 29q0 32 -23.5 49.5t-65.5 17.5q-34 0 -81 -13.5t-104 -44.5q-65 -35 -99 -71q-18 -19 -26 -37t-8 -34q0 -50 103 -66q49 -7 99 -14
q18 -3 26.5 -11.5t8.5 -22.5t-20 -22q-8 -3 -31 -8q-124 -22 -205.5 -66t-107.5 -96q-13 -25 -13 -49q0 -19 9 -35.5t26 -32.5q25 -22 69.5 -35.5t85.5 -13.5q50 0 102.5 12t90.5 38q10 7 45 37q23 20 37 20q20 0 20 -28q0 -17 -34 -43q-25 -19 -54 -33q-35 -18 -77 -29
q-55 -15 -110 -15q-73 0 -120 12.5t-76 32.5q-34 23 -47.5 52.5t-13.5 56.5q0 24 9 48q29 77 129 133q34 19 73.5 34.5t81.5 27.5q-59 7 -103 32q-58 33 -58 84q0 29 22 66q35 56 122 106.5t166 65.5q41 7 87 7q55 0 85.5 -28.5t30.5 -75.5q0 -37 -21 -79z" />
    <glyph glyph-name="AE" unicode="&#xc6;" horiz-adv-x="945" 
d="M1045 647q0 -21 -19 -29q-12 -5 -38 -5h-17q-39 0 -104 -36.5t-225 -147.5l-56 -39l16 -44l44 -120q33 -83 68 -136q46 -70 96 -91q24 -9 41 -9q12 0 29 5q23 8 26 9q13 4 21 4q10 0 10 -11q0 -19 -24.5 -33.5t-60.5 -14.5q-22 0 -39.5 4.5t-40.5 16.5q-56 31 -105 103
q-54 81 -87 183l-25 76l-70 -203q-1 -4 -4.5 -21.5t-3.5 -28.5v-38q-3 -22 -17 -37t-29 -15q-11 0 -20 10t-9 33q0 19 7 43q17 59 53.5 145.5t44.5 106.5l11 27l-63 -40q-53 -34 -103 -74q-72 -58 -181 -163q-11 -11 -49 -57q-25 -31 -38 -31q-8 0 -14 12t-6 25t8 27
q13 23 43 53q36 36 73 67q25 21 77 60q69 53 117 85q53 35 86 57l57 38l-56 136q-29 68 -54 100q-42 53 -96 53q-30 0 -63 -16q-78 -37 -137 -125q-55 -82 -55 -147q0 -34 22 -63q28 -37 79 -42h39l20 2q24 0 24 -14q0 -10 -21 -17t-51 -7t-59 7.5t-52 24.5q-32 23 -43.5 53
t-11.5 62q0 75 70 166q65 85 143 126q57 30 106 30q70 0 122 -66q32 -40 69 -129l37 -88q55 129 72 166t24 49q11 20 27 31t32 11q10 0 17 -8t7 -25q0 -16 -22 -40q-34 -37 -44 -53t-34.5 -66.5t-36.5 -76.5l62 44q23 17 103.5 70.5t96.5 63.5q52 32 91 46q27 10 42 10
q28 0 41 -12q10 -9 10 -22z" />
    <glyph glyph-name="AE" unicode="&#x416;" horiz-adv-x="945" 
d="M1045 647q0 -21 -19 -29q-12 -5 -38 -5h-17q-39 0 -104 -36.5t-225 -147.5l-56 -39l16 -44l44 -120q33 -83 68 -136q46 -70 96 -91q24 -9 41 -9q12 0 29 5q23 8 26 9q13 4 21 4q10 0 10 -11q0 -19 -24.5 -33.5t-60.5 -14.5q-22 0 -39.5 4.5t-40.5 16.5q-56 31 -105 103
q-54 81 -87 183l-25 76l-70 -203q-1 -4 -4.5 -21.5t-3.5 -28.5v-38q-3 -22 -17 -37t-29 -15q-11 0 -20 10t-9 33q0 19 7 43q17 59 53.5 145.5t44.5 106.5l11 27l-63 -40q-53 -34 -103 -74q-72 -58 -181 -163q-11 -11 -49 -57q-25 -31 -38 -31q-8 0 -14 12t-6 25t8 27
q13 23 43 53q36 36 73 67q25 21 77 60q69 53 117 85q53 35 86 57l57 38l-56 136q-29 68 -54 100q-42 53 -96 53q-30 0 -63 -16q-78 -37 -137 -125q-55 -82 -55 -147q0 -34 22 -63q28 -37 79 -42h39l20 2q24 0 24 -14q0 -10 -21 -17t-51 -7t-59 7.5t-52 24.5q-32 23 -43.5 53
t-11.5 62q0 75 70 166q65 85 143 126q57 30 106 30q70 0 122 -66q32 -40 69 -129l37 -88q55 129 72 166t24 49q11 20 27 31t32 11q10 0 17 -8t7 -25q0 -16 -22 -40q-34 -37 -44 -53t-34.5 -66.5t-36.5 -76.5l62 44q23 17 103.5 70.5t96.5 63.5q52 32 91 46q27 10 42 10
q28 0 41 -12q10 -9 10 -22z" />
    <glyph glyph-name="Ccedilla" unicode="&#xc7;" horiz-adv-x="672" 
d="M672 580q0 -72 -50 -143q-35 -49 -89 -92q74 -54 74 -144q0 -28 -9.5 -56t-28.5 -54q-42 -55 -121 -88.5t-167 -33.5q-100 0 -167.5 33.5t-67.5 75.5q0 16 8.5 25.5t19.5 9.5q16 0 26 -16q10 -22 15 -31q16 -28 68 -42q41 -11 95 -11q99 0 170 38q60 32 87 82
q18 33 18 73q0 72 -58 114q-36 -26 -83.5 -43t-93.5 -17q-38 0 -59 17.5t-21 45.5q0 36 41 59t100 23q35 0 69 -11q25 -8 48 -22q57 41 93 104q33 58 33 110q0 57 -36 92q-39 38 -113 38q-50 0 -114 -19q-87 -26 -161.5 -82t-102.5 -118q-13 -29 -13 -54q0 -26 12 -38
q13 -8 28 -17t15 -25q0 -13 -11 -23t-24 -10q-14 0 -31 13t-26 27q-15 23 -15 59q0 25 7.5 50.5t25.5 55.5q47 79 142 139q81 51 170 73q53 13 103 13q91 0 142.5 -47.5t51.5 -132.5zM453 345q-33 18 -81 18q-35 0 -59.5 -12t-24.5 -28q0 -11 6.5 -15.5t16.5 -5.5h25
q22 2 50 11q36 12 67 32z" />
    <glyph glyph-name="Ccedilla" unicode="&#x417;" horiz-adv-x="672" 
d="M672 580q0 -72 -50 -143q-35 -49 -89 -92q74 -54 74 -144q0 -28 -9.5 -56t-28.5 -54q-42 -55 -121 -88.5t-167 -33.5q-100 0 -167.5 33.5t-67.5 75.5q0 16 8.5 25.5t19.5 9.5q16 0 26 -16q10 -22 15 -31q16 -28 68 -42q41 -11 95 -11q99 0 170 38q60 32 87 82
q18 33 18 73q0 72 -58 114q-36 -26 -83.5 -43t-93.5 -17q-38 0 -59 17.5t-21 45.5q0 36 41 59t100 23q35 0 69 -11q25 -8 48 -22q57 41 93 104q33 58 33 110q0 57 -36 92q-39 38 -113 38q-50 0 -114 -19q-87 -26 -161.5 -82t-102.5 -118q-13 -29 -13 -54q0 -26 12 -38
q13 -8 28 -17t15 -25q0 -13 -11 -23t-24 -10q-14 0 -31 13t-26 27q-15 23 -15 59q0 25 7.5 50.5t25.5 55.5q47 79 142 139q81 51 170 73q53 13 103 13q91 0 142.5 -47.5t51.5 -132.5zM453 345q-33 18 -81 18q-35 0 -59.5 -12t-24.5 -28q0 -11 6.5 -15.5t16.5 -5.5h25
q22 2 50 11q36 12 67 32z" />
    <glyph glyph-name="Egrave" unicode="&#xc8;" horiz-adv-x="876" 
d="M896 606q0 -7 -15 -33q-10 -18 -22 -43q-36 -76 -68 -179q-48 -152 -48 -252q0 -38 10.5 -71t36.5 -39q4 -1 12 -1q12 1 17 1q13 0 13 -15q0 -9 -11.5 -14t-24.5 -5q-47 0 -75.5 40.5t-28.5 102.5q0 41 9 91.5t28 126.5q-83 -142 -153 -226q-53 -63 -101 -92
q-32 -19 -53 -19q-37 0 -52 18.5t-15 51.5q0 20 6 45.5t16 54.5l115 319q21 56 27 85.5t6 50.5q0 33 -14 52q-22 30 -71 30q-17 0 -35.5 -3t-43.5 -11q-86 -28 -159 -89q-81 -67 -118 -154q-17 -39 -17 -73q0 -42 26 -68t78 -26q28 0 50 4t45 15q14 7 22 10q14 6 23 6
q20 0 20 -15q0 -22 -48 -42t-112 -20q-77 0 -116 39q-35 35 -35 95q0 25 5 47t16 48q36 83 121.5 155.5t181.5 102.5q51 17 102 17q57 0 89 -24q38 -28 38 -91q0 -27 -6.5 -59t-25.5 -82l-102 -270q-10 -26 -22.5 -74.5t-12.5 -67.5q0 -23 14 -31q5 -3 12 -3t19 4t33.5 23.5
t51.5 55.5q55 66 114 160q46 74 92 160q25 47 58 114l33 66q4 9 13.5 16.5t24.5 7.5q10 0 18.5 -7.5t8.5 -15.5z" />
    <glyph glyph-name="Egrave" unicode="&#x418;" horiz-adv-x="876" 
d="M896 606q0 -7 -15 -33q-10 -18 -22 -43q-36 -76 -68 -179q-48 -152 -48 -252q0 -38 10.5 -71t36.5 -39q4 -1 12 -1q12 1 17 1q13 0 13 -15q0 -9 -11.5 -14t-24.5 -5q-47 0 -75.5 40.5t-28.5 102.5q0 41 9 91.5t28 126.5q-83 -142 -153 -226q-53 -63 -101 -92
q-32 -19 -53 -19q-37 0 -52 18.5t-15 51.5q0 20 6 45.5t16 54.5l115 319q21 56 27 85.5t6 50.5q0 33 -14 52q-22 30 -71 30q-17 0 -35.5 -3t-43.5 -11q-86 -28 -159 -89q-81 -67 -118 -154q-17 -39 -17 -73q0 -42 26 -68t78 -26q28 0 50 4t45 15q14 7 22 10q14 6 23 6
q20 0 20 -15q0 -22 -48 -42t-112 -20q-77 0 -116 39q-35 35 -35 95q0 25 5 47t16 48q36 83 121.5 155.5t181.5 102.5q51 17 102 17q57 0 89 -24q38 -28 38 -91q0 -27 -6.5 -59t-25.5 -82l-102 -270q-10 -26 -22.5 -74.5t-12.5 -67.5q0 -23 14 -31q5 -3 12 -3t19 4t33.5 23.5
t51.5 55.5q55 66 114 160q46 74 92 160q25 47 58 114l33 66q4 9 13.5 16.5t24.5 7.5q10 0 18.5 -7.5t8.5 -15.5z" />
    <glyph glyph-name="Eacute" unicode="&#xc9;" horiz-adv-x="901" 
d="M909 947q0 -17 -10 -44t-30.5 -56.5t-53 -56t-62.5 -37.5q-12 -5 -29 -8t-30 -3q-42 0 -71.5 20.5t-37.5 55.5q-1 6 -1.5 13t-0.5 10q0 41 28 75q25 30 49 30q10 0 14 -7t4 -12q0 -6 -3.5 -13t-14.5 -14.5t-21 -13.5q-8 -7 -13.5 -17.5t-5.5 -25.5q0 -7 1 -10
q11 -48 74 -48q21 0 48 9.5t58 34t50 52.5q14 21 26 59q7 23 17 23q15 0 15 -16zM896 606q0 -7 -15 -33q-10 -18 -22 -43q-36 -76 -68 -179q-48 -152 -48 -252q0 -38 10.5 -71t36.5 -39q4 -1 12 -1q12 1 17 1q13 0 13 -15q0 -9 -11.5 -14t-24.5 -5q-47 0 -75.5 40.5
t-28.5 102.5q0 41 9 91.5t28 126.5q-83 -142 -153 -226q-53 -63 -101 -92q-32 -19 -53 -19q-37 0 -52 18.5t-15 51.5q0 20 6 45.5t16 54.5l115 319q21 56 27 85.5t6 50.5q0 33 -14 52q-22 30 -71 30q-17 0 -35.5 -3t-43.5 -11q-86 -28 -159 -89q-81 -67 -118 -154
q-17 -39 -17 -73q0 -42 26 -68t78 -26q28 0 50 4t45 15q14 7 22 10q14 6 23 6q20 0 20 -15q0 -22 -48 -42t-112 -20q-77 0 -116 39q-35 35 -35 95q0 25 5 47t16 48q36 83 121.5 155.5t181.5 102.5q51 17 102 17q57 0 89 -24q38 -28 38 -91q0 -27 -6.5 -59t-25.5 -82
l-102 -270q-10 -26 -22.5 -74.5t-12.5 -67.5q0 -23 14 -31q5 -3 12 -3t19 4t33.5 23.5t51.5 55.5q55 66 114 160q46 74 92 160q25 47 58 114l33 66q4 9 13.5 16.5t24.5 7.5q10 0 18.5 -7.5t8.5 -15.5z" />
    <glyph glyph-name="Eacute" unicode="&#x419;" horiz-adv-x="901" 
d="M909 947q0 -17 -10 -44t-30.5 -56.5t-53 -56t-62.5 -37.5q-12 -5 -29 -8t-30 -3q-42 0 -71.5 20.5t-37.5 55.5q-1 6 -1.5 13t-0.5 10q0 41 28 75q25 30 49 30q10 0 14 -7t4 -12q0 -6 -3.5 -13t-14.5 -14.5t-21 -13.5q-8 -7 -13.5 -17.5t-5.5 -25.5q0 -7 1 -10
q11 -48 74 -48q21 0 48 9.5t58 34t50 52.5q14 21 26 59q7 23 17 23q15 0 15 -16zM896 606q0 -7 -15 -33q-10 -18 -22 -43q-36 -76 -68 -179q-48 -152 -48 -252q0 -38 10.5 -71t36.5 -39q4 -1 12 -1q12 1 17 1q13 0 13 -15q0 -9 -11.5 -14t-24.5 -5q-47 0 -75.5 40.5
t-28.5 102.5q0 41 9 91.5t28 126.5q-83 -142 -153 -226q-53 -63 -101 -92q-32 -19 -53 -19q-37 0 -52 18.5t-15 51.5q0 20 6 45.5t16 54.5l115 319q21 56 27 85.5t6 50.5q0 33 -14 52q-22 30 -71 30q-17 0 -35.5 -3t-43.5 -11q-86 -28 -159 -89q-81 -67 -118 -154
q-17 -39 -17 -73q0 -42 26 -68t78 -26q28 0 50 4t45 15q14 7 22 10q14 6 23 6q20 0 20 -15q0 -22 -48 -42t-112 -20q-77 0 -116 39q-35 35 -35 95q0 25 5 47t16 48q36 83 121.5 155.5t181.5 102.5q51 17 102 17q57 0 89 -24q38 -28 38 -91q0 -27 -6.5 -59t-25.5 -82
l-102 -270q-10 -26 -22.5 -74.5t-12.5 -67.5q0 -23 14 -31q5 -3 12 -3t19 4t33.5 23.5t51.5 55.5q55 66 114 160q46 74 92 160q25 47 58 114l33 66q4 9 13.5 16.5t24.5 7.5q10 0 18.5 -7.5t8.5 -15.5z" />
    <glyph glyph-name="Ecircumflex" unicode="&#xca;" horiz-adv-x="635" 
d="M739 642q0 -33 -77 -96q-59 -48 -163 -112q-79 -48 -140 -80q27 -21 44 -59q26 -56 37.5 -154t15.5 -116q15 -61 47 -61q11 0 20.5 4t18 14.5l17 21t16.5 10.5q7 0 13.5 -6.5t6.5 -14.5q0 -10 -10 -24q-18 -25 -45 -38q-21 -10 -42 -10q-24 0 -39.5 10.5t-28.5 33.5
t-20 71q-24 159 -32 188q-11 40 -22 62t-36 44q-52 -26 -73 -36q-35 -17 -68 -30l-30 -114l-17 -72l-6 -46q-6 -25 -31 -25q-15 0 -21.5 8.5t-6.5 24.5q0 10 5 33l48 169q-22 -10 -47.5 -16.5t-48.5 -6.5q-19 0 -32 7t-13 25q0 37 32 70.5t72.5 53.5t84.5 28q23 64 45 116
q15 36 31 72q12 27 13 29q11 19 25 28q10 5 17 5q14 0 20 -11q3 -6 3 -12q0 -15 -13 -35l-14 -20q-14 -21 -37.5 -77t-34.5 -89q27 0 49.5 -6.5t49.5 -21.5q115 60 212 124q88 58 121 92q17 17 21.5 48.5t27.5 31.5q19 0 27 -11t8 -24zM280 354q-24 12 -51 12q-5 0 -19 -2
l-15 -46zM154 354q-20 -4 -35 -10q-25 -10 -50 -29q-34 -26 -34 -42q0 -3 6 -4t8 -1q15 0 24 2q25 5 59 23z" />
    <glyph glyph-name="Ecircumflex" unicode="&#x41a;" horiz-adv-x="635" 
d="M739 642q0 -33 -77 -96q-59 -48 -163 -112q-79 -48 -140 -80q27 -21 44 -59q26 -56 37.5 -154t15.5 -116q15 -61 47 -61q11 0 20.5 4t18 14.5l17 21t16.5 10.5q7 0 13.5 -6.5t6.5 -14.5q0 -10 -10 -24q-18 -25 -45 -38q-21 -10 -42 -10q-24 0 -39.5 10.5t-28.5 33.5
t-20 71q-24 159 -32 188q-11 40 -22 62t-36 44q-52 -26 -73 -36q-35 -17 -68 -30l-30 -114l-17 -72l-6 -46q-6 -25 -31 -25q-15 0 -21.5 8.5t-6.5 24.5q0 10 5 33l48 169q-22 -10 -47.5 -16.5t-48.5 -6.5q-19 0 -32 7t-13 25q0 37 32 70.5t72.5 53.5t84.5 28q23 64 45 116
q15 36 31 72q12 27 13 29q11 19 25 28q10 5 17 5q14 0 20 -11q3 -6 3 -12q0 -15 -13 -35l-14 -20q-14 -21 -37.5 -77t-34.5 -89q27 0 49.5 -6.5t49.5 -21.5q115 60 212 124q88 58 121 92q17 17 21.5 48.5t27.5 31.5q19 0 27 -11t8 -24zM280 354q-24 12 -51 12q-5 0 -19 -2
l-15 -46zM154 354q-20 -4 -35 -10q-25 -10 -50 -29q-34 -26 -34 -42q0 -3 6 -4t8 -1q15 0 24 2q25 5 59 23z" />
    <glyph glyph-name="Edieresis" unicode="&#xcb;" horiz-adv-x="896" 
d="M904 -6q0 -11 -10.5 -17.5t-23.5 -6.5q-7 0 -15 1t-18 5q-50 18 -70.5 54t-20.5 90q0 24 2.5 46.5t8.5 57.5q10 64 30 156q29 134 39 187q3 17 3 26q0 19 -9 26q-4 3 -14 3q-9 0 -23 -16q-18 -21 -48 -75q-15 -27 -145 -302q-44 -94 -77.5 -139.5t-68.5 -67.5
q-46 -29 -107 -29q-84 0 -152 47q-48 34 -88.5 91.5t-59 113.5t-18.5 108q0 44 12.5 82.5t34.5 66.5q30 38 68 55t86 17q51 0 97.5 -10t92.5 -28q31 -12 53 -24q37 -20 37 -33q0 -16 -13 -16q-9 0 -16.5 3t-15.5 9q-29 15 -72 29q-73 22 -132 22q-91 0 -137.5 -49
t-46.5 -128q0 -29 8 -64q19 -82 73 -145q51 -59 116 -84q44 -16 80 -16q71 0 124 68q32 40 86 154q51 107 66 139q42 87 62 123q32 57 63 98q17 22 35 36q26 20 50 20q27 0 38.5 -20t11.5 -53q0 -26 -5 -56q-8 -38 -11 -53l-28 -144l-20 -99q-8 -43 -12 -67q-7 -42 -7 -68
q0 -34 9 -57t32 -36q10 -6 38 -10t28 -21z" />
    <glyph glyph-name="Edieresis" unicode="&#x41b;" horiz-adv-x="896" 
d="M904 -6q0 -11 -10.5 -17.5t-23.5 -6.5q-7 0 -15 1t-18 5q-50 18 -70.5 54t-20.5 90q0 24 2.5 46.5t8.5 57.5q10 64 30 156q29 134 39 187q3 17 3 26q0 19 -9 26q-4 3 -14 3q-9 0 -23 -16q-18 -21 -48 -75q-15 -27 -145 -302q-44 -94 -77.5 -139.5t-68.5 -67.5
q-46 -29 -107 -29q-84 0 -152 47q-48 34 -88.5 91.5t-59 113.5t-18.5 108q0 44 12.5 82.5t34.5 66.5q30 38 68 55t86 17q51 0 97.5 -10t92.5 -28q31 -12 53 -24q37 -20 37 -33q0 -16 -13 -16q-9 0 -16.5 3t-15.5 9q-29 15 -72 29q-73 22 -132 22q-91 0 -137.5 -49
t-46.5 -128q0 -29 8 -64q19 -82 73 -145q51 -59 116 -84q44 -16 80 -16q71 0 124 68q32 40 86 154q51 107 66 139q42 87 62 123q32 57 63 98q17 22 35 36q26 20 50 20q27 0 38.5 -20t11.5 -53q0 -26 -5 -56q-8 -38 -11 -53l-28 -144l-20 -99q-8 -43 -12 -67q-7 -42 -7 -68
q0 -34 9 -57t32 -36q10 -6 38 -10t28 -21z" />
    <glyph glyph-name="Igrave" unicode="&#xcc;" horiz-adv-x="1365" 
d="M1279 -9q0 -8 -8.5 -14t-27.5 -6q-18 0 -35 6.5t-29 15.5q-27 19 -40 54t-13 98q0 35 4 80t12 98.5t15 89.5q21 118 25 140q1 7 4 22t3 21q0 15 -11 15q-14 0 -29 -17q-8 -9 -25 -35.5t-63 -108.5q-22 -38 -88 -160q-54 -98 -62 -115l-48 -130q-16 -29 -47 -29
q-27 0 -37.5 18t-10.5 50q0 19 4 46q1 7 8 46l79 415q3 14 5.5 29.5t2.5 26.5q0 15 -4.5 24t-15.5 9q-21 0 -59 -73l-36 -72q-131 -256 -190 -357q-55 -95 -93 -135t-87 -59q-41 -16 -87 -16q-55 0 -112 35q-19 12 -52 40q-58 53 -94.5 142.5t-36.5 172.5q0 48 15.5 86.5
t49 71t69.5 47t79 14.5q70 0 137 -16q44 -11 87 -29q29 -12 40.5 -20.5t11.5 -15.5q0 -17 -5 -17q-10 0 -39.5 8.5t-65.5 19.5t-60.5 16t-54.5 5q-49 0 -71 -5q-43 -10 -77 -42q-59 -56 -59 -152q0 -47 14.5 -93t45.5 -96q44 -69 102 -98q40 -20 81 -20q65 0 114 42
q35 30 74 94q43 70 71 120t68 129l58 114q43 82 78 140q18 30 37 49q31 31 62 31q33 0 46 -26t13 -68q0 -23 -2 -37.5t-8 -48.5l-58 -305l-14 -110l54 102q45 85 106 190q77 134 121 195q16 23 31 35q21 17 43 17q27 0 38 -21t11 -52q0 -13 -1 -21.5t-3 -20.5l-51 -328
q-8 -50 -8 -96q0 -42 7.5 -70t25.5 -41q5 -4 44 -16q22 -7 22 -28z" />
    <glyph glyph-name="Igrave" unicode="&#x41c;" horiz-adv-x="1365" 
d="M1279 -9q0 -8 -8.5 -14t-27.5 -6q-18 0 -35 6.5t-29 15.5q-27 19 -40 54t-13 98q0 35 4 80t12 98.5t15 89.5q21 118 25 140q1 7 4 22t3 21q0 15 -11 15q-14 0 -29 -17q-8 -9 -25 -35.5t-63 -108.5q-22 -38 -88 -160q-54 -98 -62 -115l-48 -130q-16 -29 -47 -29
q-27 0 -37.5 18t-10.5 50q0 19 4 46q1 7 8 46l79 415q3 14 5.5 29.5t2.5 26.5q0 15 -4.5 24t-15.5 9q-21 0 -59 -73l-36 -72q-131 -256 -190 -357q-55 -95 -93 -135t-87 -59q-41 -16 -87 -16q-55 0 -112 35q-19 12 -52 40q-58 53 -94.5 142.5t-36.5 172.5q0 48 15.5 86.5
t49 71t69.5 47t79 14.5q70 0 137 -16q44 -11 87 -29q29 -12 40.5 -20.5t11.5 -15.5q0 -17 -5 -17q-10 0 -39.5 8.5t-65.5 19.5t-60.5 16t-54.5 5q-49 0 -71 -5q-43 -10 -77 -42q-59 -56 -59 -152q0 -47 14.5 -93t45.5 -96q44 -69 102 -98q40 -20 81 -20q65 0 114 42
q35 30 74 94q43 70 71 120t68 129l58 114q43 82 78 140q18 30 37 49q31 31 62 31q33 0 46 -26t13 -68q0 -23 -2 -37.5t-8 -48.5l-58 -305l-14 -110l54 102q45 85 106 190q77 134 121 195q16 23 31 35q21 17 43 17q27 0 38 -21t11 -52q0 -13 -1 -21.5t-3 -20.5l-51 -328
q-8 -50 -8 -96q0 -42 7.5 -70t25.5 -41q5 -4 44 -16q22 -7 22 -28z" />
    <glyph glyph-name="Iacute" unicode="&#xcd;" horiz-adv-x="889" 
d="M988 662q0 -13 -15 -37q-26 -41 -43 -76q-45 -93 -71 -151q-47 -104 -73 -180q-34 -99 -34 -149q-1 -15 -1 -18q0 -11 2.5 -25t2.5 -17q0 -10 -8 -20.5t-25 -10.5q-13 0 -20.5 7.5t-9.5 19t-2 13.5q0 10 3 23t5 23l17 73q-44 4 -75.5 5t-59.5 1q-70 0 -129 -6l-23 -64
q-5 -14 -7 -25.5t-3 -16.5q0 -5 3 -12t3 -15q0 -13 -13 -23t-29 -10q-11 0 -19 7q-11 10 -11 30q0 14 7 34q17 45 30 92h-32q-16 0 -23.5 7.5t-7.5 17.5q0 17 9.5 21.5t24.5 4.5h48q55 134 66 167q35 102 35 170q0 69 -29 100q-24 26 -66 26q-17 0 -32.5 -3.5t-35.5 -10.5
q-82 -29 -166 -111q-78 -76 -122 -160q-16 -31 -26 -62t-10 -59q0 -34 18 -54q25 -28 81 -28q32 0 72.5 10t69.5 26q14 7 26 11.5t22 4.5q3 0 8.5 -4.5t5.5 -14.5q0 -16 -25 -32q-17 -11 -51 -23.5t-70.5 -19t-70.5 -6.5q-71 0 -109.5 33.5t-38.5 92.5q0 32 14 72
q41 115 150 227t214 148q42 14 76 14q67 0 106.5 -43.5t39.5 -123.5q0 -55 -16 -121q-11 -47 -38 -121l-39 -107q67 7 149 7q49 0 114 -5l57 165q18 53 68.5 166t73.5 149q10 16 20.5 19t24.5 3q5 0 9 -8t4 -17z" />
    <glyph glyph-name="Iacute" unicode="&#x41d;" horiz-adv-x="889" 
d="M988 662q0 -13 -15 -37q-26 -41 -43 -76q-45 -93 -71 -151q-47 -104 -73 -180q-34 -99 -34 -149q-1 -15 -1 -18q0 -11 2.5 -25t2.5 -17q0 -10 -8 -20.5t-25 -10.5q-13 0 -20.5 7.5t-9.5 19t-2 13.5q0 10 3 23t5 23l17 73q-44 4 -75.5 5t-59.5 1q-70 0 -129 -6l-23 -64
q-5 -14 -7 -25.5t-3 -16.5q0 -5 3 -12t3 -15q0 -13 -13 -23t-29 -10q-11 0 -19 7q-11 10 -11 30q0 14 7 34q17 45 30 92h-32q-16 0 -23.5 7.5t-7.5 17.5q0 17 9.5 21.5t24.5 4.5h48q55 134 66 167q35 102 35 170q0 69 -29 100q-24 26 -66 26q-17 0 -32.5 -3.5t-35.5 -10.5
q-82 -29 -166 -111q-78 -76 -122 -160q-16 -31 -26 -62t-10 -59q0 -34 18 -54q25 -28 81 -28q32 0 72.5 10t69.5 26q14 7 26 11.5t22 4.5q3 0 8.5 -4.5t5.5 -14.5q0 -16 -25 -32q-17 -11 -51 -23.5t-70.5 -19t-70.5 -6.5q-71 0 -109.5 33.5t-38.5 92.5q0 32 14 72
q41 115 150 227t214 148q42 14 76 14q67 0 106.5 -43.5t39.5 -123.5q0 -55 -16 -121q-11 -47 -38 -121l-39 -107q67 7 149 7q49 0 114 -5l57 165q18 53 68.5 166t73.5 149q10 16 20.5 19t24.5 3q5 0 9 -8t4 -17z" />
    <glyph glyph-name="Icircumflex" unicode="&#xce;" horiz-adv-x="682" 
d="M637 525q7 -32 7 -72q0 -50 -10 -101t-28 -97q-36 -94 -97 -169q-78 -95 -174 -130q-26 -10 -50 -14t-48 -4q-87 0 -140.5 57.5t-53.5 150.5q0 32 6.5 64.5t17.5 60.5q-12 39 -12 88q0 111 68 209t169 137q54 21 106 21q89 0 155 -56t84 -145zM593 442q0 114 -58 176
q-53 57 -136 57q-27 0 -59 -8q-54 -14 -102 -51t-80 -89q-24 -38 -35 -78.5t-11 -73.5l22 40q40 73 89 127q56 61 110 82q28 11 53 11q23 0 37 -8.5t14 -18.5q-1 -7 -2 -10q-5 -10 -15 -12t-20 -2q-6 0 -17 1t-15 1q-14 0 -24.5 -3.5t-30.5 -17.5q-39 -27 -80 -80t-72 -115
q-13 -27 -18 -39q-12 -28 -19 -54q14 -55 62.5 -88t112.5 -33q47 0 92 19q5 2 14.5 4t13.5 2q14 0 14 -11q0 -14 -5 -20q-8 -10 -25 -15q-30 -10 -52.5 -14.5t-56.5 -4.5q-53 0 -96 17q-55 22 -95 74q-10 -30 -10 -67q0 -57 25 -94q17 -25 44 -41.5t60 -16.5t62 5.5t60 19.5
q78 36 141 123q53 73 82 158q12 37 19 75t7 73z" />
    <glyph glyph-name="Icircumflex" unicode="&#x41e;" horiz-adv-x="682" 
d="M637 525q7 -32 7 -72q0 -50 -10 -101t-28 -97q-36 -94 -97 -169q-78 -95 -174 -130q-26 -10 -50 -14t-48 -4q-87 0 -140.5 57.5t-53.5 150.5q0 32 6.5 64.5t17.5 60.5q-12 39 -12 88q0 111 68 209t169 137q54 21 106 21q89 0 155 -56t84 -145zM593 442q0 114 -58 176
q-53 57 -136 57q-27 0 -59 -8q-54 -14 -102 -51t-80 -89q-24 -38 -35 -78.5t-11 -73.5l22 40q40 73 89 127q56 61 110 82q28 11 53 11q23 0 37 -8.5t14 -18.5q-1 -7 -2 -10q-5 -10 -15 -12t-20 -2q-6 0 -17 1t-15 1q-14 0 -24.5 -3.5t-30.5 -17.5q-39 -27 -80 -80t-72 -115
q-13 -27 -18 -39q-12 -28 -19 -54q14 -55 62.5 -88t112.5 -33q47 0 92 19q5 2 14.5 4t13.5 2q14 0 14 -11q0 -14 -5 -20q-8 -10 -25 -15q-30 -10 -52.5 -14.5t-56.5 -4.5q-53 0 -96 17q-55 22 -95 74q-10 -30 -10 -67q0 -57 25 -94q17 -25 44 -41.5t60 -16.5t62 5.5t60 19.5
q78 36 141 123q53 73 82 158q12 37 19 75t7 73z" />
    <glyph glyph-name="Idieresis" unicode="&#xcf;" horiz-adv-x="847" 
d="M802 445q-14 -60 -37 -147q-18 -70 -29.5 -127.5t-11.5 -89.5q0 -30 10.5 -41t32.5 -12t22 -14q0 -12 -10.5 -21t-27.5 -9t-34 10q-22 14 -30.5 35.5t-8.5 52.5q0 14 2 32.5t6.5 47t19.5 100t25.5 113.5t14 57t3.5 22q0 2 -1 8q-6 0 -16.5 -7.5t-21.5 -19.5
q-33 -35 -86 -109q-46 -64 -83 -124q-30 -48 -58 -99q-21 -38 -34 -57q-17 -27 -46 -27q-25 0 -25 29q0 8 4 24t23 60q40 93 78 191q23 59 46 132q27 85 34 128q1 12 2.5 23t1.5 24q0 47 -21 72q-24 28 -74 28q-61 0 -157 -58t-163 -140q-77 -94 -77 -177q0 -56 38.5 -88.5
t101.5 -32.5q25 0 51.5 5.5t50.5 15.5q8 4 18 6.5t16 2.5q13 0 13 -10q1 -7 1 -11q0 -11 -6.5 -17.5t-18.5 -11.5q-56 -23 -120 -23q-94 0 -149 44t-55 118q0 28 9 61q29 103 143 207q100 91 203 133q66 26 114 26q61 0 94.5 -37.5t33.5 -110.5q0 -51 -17 -116t-38 -122
q-2 -5 -54 -136l-34 -86l84 127q35 53 68 98q41 56 74 90q14 14 31 25q25 16 45 16q19 0 27.5 -11.5t8.5 -30.5q0 -9 -2 -21t-4 -20z" />
    <glyph glyph-name="Idieresis" unicode="&#x41f;" horiz-adv-x="847" 
d="M802 445q-14 -60 -37 -147q-18 -70 -29.5 -127.5t-11.5 -89.5q0 -30 10.5 -41t32.5 -12t22 -14q0 -12 -10.5 -21t-27.5 -9t-34 10q-22 14 -30.5 35.5t-8.5 52.5q0 14 2 32.5t6.5 47t19.5 100t25.5 113.5t14 57t3.5 22q0 2 -1 8q-6 0 -16.5 -7.5t-21.5 -19.5
q-33 -35 -86 -109q-46 -64 -83 -124q-30 -48 -58 -99q-21 -38 -34 -57q-17 -27 -46 -27q-25 0 -25 29q0 8 4 24t23 60q40 93 78 191q23 59 46 132q27 85 34 128q1 12 2.5 23t1.5 24q0 47 -21 72q-24 28 -74 28q-61 0 -157 -58t-163 -140q-77 -94 -77 -177q0 -56 38.5 -88.5
t101.5 -32.5q25 0 51.5 5.5t50.5 15.5q8 4 18 6.5t16 2.5q13 0 13 -10q1 -7 1 -11q0 -11 -6.5 -17.5t-18.5 -11.5q-56 -23 -120 -23q-94 0 -149 44t-55 118q0 28 9 61q29 103 143 207q100 91 203 133q66 26 114 26q61 0 94.5 -37.5t33.5 -110.5q0 -51 -17 -116t-38 -122
q-2 -5 -54 -136l-34 -86l84 127q35 53 68 98q41 56 74 90q14 14 31 25q25 16 45 16q19 0 27.5 -11.5t8.5 -30.5q0 -9 -2 -21t-4 -20z" />
    <glyph glyph-name="Eth" unicode="&#xd0;" horiz-adv-x="779" 
d="M803 433q-22 -60 -67 -108q-57 -61 -151 -103t-186 -42h-18q-12 2 -18 2l-34 -105q-3 -8 -5.5 -20.5t-2.5 -21.5t3.5 -19.5t3.5 -16.5q-4 -25 -34 -25q-12 0 -22.5 11t-10.5 30q0 14 6 37t10 38l34 104q-14 7 -17 17t-3 25q0 12 22 12q6 0 12 -3l41 105q31 81 63 163
q7 18 39 86q10 23 23.5 32.5t29.5 9.5q9 0 17.5 -7t8.5 -20q0 -9 -5 -21.5t-18 -29.5q-25 -35 -51 -89q-16 -32 -35 -81q-39 -95 -58 -161q21 -5 50 -5q24 0 53 6q94 20 172.5 87t99.5 143q7 24 7 48q0 77 -67 123.5t-173 46.5q-43 0 -82 -7q-66 -11 -139.5 -43.5
t-127.5 -76.5q-40 -32 -64 -67t-24 -59q0 -34 17 -55q32 -39 117 -39q18 0 30.5 -3t12.5 -16q0 -16 -15.5 -21t-46.5 -5q-99 0 -145 53q-32 37 -32 88q0 35 23 72q18 29 52 61q50 47 134.5 89t167.5 61q21 5 54.5 9.5t67.5 4.5q38 0 70 -4.5t68 -17.5q76 -26 117 -76
t41 -116q0 -38 -15 -80z" />
    <glyph glyph-name="Eth" unicode="&#x420;" horiz-adv-x="779" 
d="M803 433q-22 -60 -67 -108q-57 -61 -151 -103t-186 -42h-18q-12 2 -18 2l-34 -105q-3 -8 -5.5 -20.5t-2.5 -21.5t3.5 -19.5t3.5 -16.5q-4 -25 -34 -25q-12 0 -22.5 11t-10.5 30q0 14 6 37t10 38l34 104q-14 7 -17 17t-3 25q0 12 22 12q6 0 12 -3l41 105q31 81 63 163
q7 18 39 86q10 23 23.5 32.5t29.5 9.5q9 0 17.5 -7t8.5 -20q0 -9 -5 -21.5t-18 -29.5q-25 -35 -51 -89q-16 -32 -35 -81q-39 -95 -58 -161q21 -5 50 -5q24 0 53 6q94 20 172.5 87t99.5 143q7 24 7 48q0 77 -67 123.5t-173 46.5q-43 0 -82 -7q-66 -11 -139.5 -43.5
t-127.5 -76.5q-40 -32 -64 -67t-24 -59q0 -34 17 -55q32 -39 117 -39q18 0 30.5 -3t12.5 -16q0 -16 -15.5 -21t-46.5 -5q-99 0 -145 53q-32 37 -32 88q0 35 23 72q18 29 52 61q50 47 134.5 89t167.5 61q21 5 54.5 9.5t67.5 4.5q38 0 70 -4.5t68 -17.5q76 -26 117 -76
t41 -116q0 -38 -15 -80z" />
    <glyph glyph-name="Ntilde" unicode="&#xd1;" horiz-adv-x="597" 
d="M559 571q15 -14 15 -26q0 -8 -7 -22q-10 -21 -14 -30t-11.5 -39.5t-10.5 -49.5t-6 -44q-5 -27 -21 -54q-19 -34 -42 -34q-30 0 -30 45q0 23 16 60q8 18 25 55q23 51 28.5 69.5t5.5 43.5q0 55 -23 93q-27 45 -77 45q-112 0 -224.5 -166.5t-112.5 -335.5q0 -101 45 -148
q38 -39 101 -39q76 0 148 47q51 33 123 110q9 10 19 21q17 17 29 17q22 0 22 -26q0 -19 -51 -66q-70 -64 -114 -92q-91 -57 -181 -57q-82 0 -132 51q-58 60 -58 175q0 191 126.5 373.5t262.5 182.5q67 0 103.5 -40.5t45.5 -118.5z" />
    <glyph glyph-name="Ntilde" unicode="&#x421;" horiz-adv-x="597" 
d="M559 571q15 -14 15 -26q0 -8 -7 -22q-10 -21 -14 -30t-11.5 -39.5t-10.5 -49.5t-6 -44q-5 -27 -21 -54q-19 -34 -42 -34q-30 0 -30 45q0 23 16 60q8 18 25 55q23 51 28.5 69.5t5.5 43.5q0 55 -23 93q-27 45 -77 45q-112 0 -224.5 -166.5t-112.5 -335.5q0 -101 45 -148
q38 -39 101 -39q76 0 148 47q51 33 123 110q9 10 19 21q17 17 29 17q22 0 22 -26q0 -19 -51 -66q-70 -64 -114 -92q-91 -57 -181 -57q-82 0 -132 51q-58 60 -58 175q0 191 126.5 373.5t262.5 182.5q67 0 103.5 -40.5t45.5 -118.5z" />
    <glyph glyph-name="Ograve" unicode="&#xd2;" horiz-adv-x="1143" 
d="M1098 448q-5 -28 -16 -69t-23 -85q-18 -72 -19 -78q-10 -45 -18 -90q-3 -17 -5.5 -40.5t-2.5 -33.5q0 -29 7.5 -46.5t26.5 -17.5l14 1q22 0 22 -19q0 -7 -2 -10q-8 -13 -37 -13q-43 0 -62 35q-15 28 -15 78q0 40 7 77q11 60 31 139q25 91 35 127.5t10 41.5q0 6 -2.5 8.5
t-5.5 3.5q-4 0 -9 -2.5t-21 -21.5q-31 -36 -76 -102q-60 -88 -113 -184q-27 -62 -39 -87q-21 -42 -48 -42q-10 0 -19.5 8.5t-10.5 23.5q0 9 2 21.5t8 35.5q23 89 60 200q25 75 51 151l12 42q3 11 3 16q0 11 -8 11q-4 0 -12 -4.5t-15 -11.5q-49 -54 -85 -102
q-47 -62 -123 -179l-63 -96q-15 -25 -32 -59q-22 -46 -37 -65q-11 -15 -21 -21.5t-18 -6.5q-6 0 -11.5 3.5t-10 9.5t-4.5 21q0 26 31 110q25 66 39 105q23 62 38 113q20 67 39 148q6 28 10.5 54t4.5 51q0 31 -9 55t-30 39q-14 10 -31 14t-39 4q-37 0 -71.5 -9.5t-68.5 -25.5
q-72 -35 -123 -85q-67 -65 -98 -149q-18 -48 -18 -85q0 -77 74.5 -111t220.5 -34q18 0 26 -4.5t8 -15.5q0 -18 -23 -23q-10 -2 -29 -2h-18t-17 1q-91 0 -150 17q-74 21 -113 73q-18 24 -26 49.5t-8 53.5t7 55q4 15 15 41q37 86 108 158q78 79 174 116q35 13 64.5 19.5
t62.5 6.5q70 0 110 -36q48 -43 48 -130q0 -46 -15 -111q-30 -121 -68 -233l-33 -98l56 84q13 21 64 98q46 70 93 130q67 86 103 110q25 16 44 16q39 0 39 -53q0 -22 -9 -51l-16 -49l-66 -206l-25 -80q61 108 103 173q33 51 92 132q23 33 43 50q24 21 45 21q13 0 23 -9
q16 -14 16 -43q0 -6 -2 -22z" />
    <glyph glyph-name="Ograve" unicode="&#x422;" horiz-adv-x="1143" 
d="M1098 448q-5 -28 -16 -69t-23 -85q-18 -72 -19 -78q-10 -45 -18 -90q-3 -17 -5.5 -40.5t-2.5 -33.5q0 -29 7.5 -46.5t26.5 -17.5l14 1q22 0 22 -19q0 -7 -2 -10q-8 -13 -37 -13q-43 0 -62 35q-15 28 -15 78q0 40 7 77q11 60 31 139q25 91 35 127.5t10 41.5q0 6 -2.5 8.5
t-5.5 3.5q-4 0 -9 -2.5t-21 -21.5q-31 -36 -76 -102q-60 -88 -113 -184q-27 -62 -39 -87q-21 -42 -48 -42q-10 0 -19.5 8.5t-10.5 23.5q0 9 2 21.5t8 35.5q23 89 60 200q25 75 51 151l12 42q3 11 3 16q0 11 -8 11q-4 0 -12 -4.5t-15 -11.5q-49 -54 -85 -102
q-47 -62 -123 -179l-63 -96q-15 -25 -32 -59q-22 -46 -37 -65q-11 -15 -21 -21.5t-18 -6.5q-6 0 -11.5 3.5t-10 9.5t-4.5 21q0 26 31 110q25 66 39 105q23 62 38 113q20 67 39 148q6 28 10.5 54t4.5 51q0 31 -9 55t-30 39q-14 10 -31 14t-39 4q-37 0 -71.5 -9.5t-68.5 -25.5
q-72 -35 -123 -85q-67 -65 -98 -149q-18 -48 -18 -85q0 -77 74.5 -111t220.5 -34q18 0 26 -4.5t8 -15.5q0 -18 -23 -23q-10 -2 -29 -2h-18t-17 1q-91 0 -150 17q-74 21 -113 73q-18 24 -26 49.5t-8 53.5t7 55q4 15 15 41q37 86 108 158q78 79 174 116q35 13 64.5 19.5
t62.5 6.5q70 0 110 -36q48 -43 48 -130q0 -46 -15 -111q-30 -121 -68 -233l-33 -98l56 84q13 21 64 98q46 70 93 130q67 86 103 110q25 16 44 16q39 0 39 -53q0 -22 -9 -51l-16 -49l-66 -206l-25 -80q61 108 103 173q33 51 92 132q23 33 43 50q24 21 45 21q13 0 23 -9
q16 -14 16 -43q0 -6 -2 -22z" />
    <glyph glyph-name="Oacute" unicode="&#xd3;" horiz-adv-x="863" 
d="M862 525q-20 -52 -27 -76q-11 -38 -18 -98q-14 -110 -27 -219q-20 -129 -53 -219q-41 -112 -111 -181q-55 -55 -130 -82.5t-154 -27.5q-68 0 -133 20q-98 29 -148 93q-41 52 -41 111q0 36 23 65q19 24 50 38q15 7 30.5 10t29.5 3q34 0 63 -15q11 -6 35 -24q9 -7 14.5 -17
t5.5 -17q0 -16 -13 -24q-8 -5 -16 -5q-9 0 -13.5 3t-22.5 21q-11 10 -30.5 18t-35.5 8q-25 0 -45.5 -17.5t-20.5 -42.5q0 -42 19 -73q16 -26 48 -49q41 -30 93.5 -45t110.5 -15q73 0 130 25q82 35 139 113q45 62 77 160q23 69 41 162q22 110 33 221l-65 -121
q-26 -48 -61 -99q-46 -68 -86 -106q-52 -50 -90 -50q-15 0 -28 8q-21 13 -29.5 38t-8.5 53q0 62 45 198q26 77 50.5 153.5t24.5 129.5q0 64 -35 94q-30 26 -83 26q-42 0 -90 -17q-90 -31 -161.5 -116.5t-71.5 -170.5q0 -41 26 -74q19 -25 49 -42q23 -13 50.5 -19t51.5 -6
q28 0 63 6q37 8 51 10h10q9 -3 9 -21q0 -21 -40.5 -31.5t-95.5 -10.5q-48 0 -84 9q-82 22 -120 79q-28 41 -28 93q0 79 57.5 165.5t145.5 137.5q41 24 87.5 39t89.5 15q61 0 99 -21q69 -39 69 -139q0 -33 -7 -70t-27 -99q-30 -89 -52 -155q-16 -49 -26 -94.5t-10 -76.5
q0 -50 24 -50q18 0 47 27.5t57 64.5q38 51 87 139q61 110 120 247l26 64q17 31 43 31q7 0 14 -8.5t7 -23.5q0 -13 -7 -30z" />
    <glyph glyph-name="Oacute" unicode="&#x423;" horiz-adv-x="863" 
d="M862 525q-20 -52 -27 -76q-11 -38 -18 -98q-14 -110 -27 -219q-20 -129 -53 -219q-41 -112 -111 -181q-55 -55 -130 -82.5t-154 -27.5q-68 0 -133 20q-98 29 -148 93q-41 52 -41 111q0 36 23 65q19 24 50 38q15 7 30.5 10t29.5 3q34 0 63 -15q11 -6 35 -24q9 -7 14.5 -17
t5.5 -17q0 -16 -13 -24q-8 -5 -16 -5q-9 0 -13.5 3t-22.5 21q-11 10 -30.5 18t-35.5 8q-25 0 -45.5 -17.5t-20.5 -42.5q0 -42 19 -73q16 -26 48 -49q41 -30 93.5 -45t110.5 -15q73 0 130 25q82 35 139 113q45 62 77 160q23 69 41 162q22 110 33 221l-65 -121
q-26 -48 -61 -99q-46 -68 -86 -106q-52 -50 -90 -50q-15 0 -28 8q-21 13 -29.5 38t-8.5 53q0 62 45 198q26 77 50.5 153.5t24.5 129.5q0 64 -35 94q-30 26 -83 26q-42 0 -90 -17q-90 -31 -161.5 -116.5t-71.5 -170.5q0 -41 26 -74q19 -25 49 -42q23 -13 50.5 -19t51.5 -6
q28 0 63 6q37 8 51 10h10q9 -3 9 -21q0 -21 -40.5 -31.5t-95.5 -10.5q-48 0 -84 9q-82 22 -120 79q-28 41 -28 93q0 79 57.5 165.5t145.5 137.5q41 24 87.5 39t89.5 15q61 0 99 -21q69 -39 69 -139q0 -33 -7 -70t-27 -99q-30 -89 -52 -155q-16 -49 -26 -94.5t-10 -76.5
q0 -50 24 -50q18 0 47 27.5t57 64.5q38 51 87 139q61 110 120 247l26 64q17 31 43 31q7 0 14 -8.5t7 -23.5q0 -13 -7 -30z" />
    <glyph glyph-name="Ocircumflex" unicode="&#xd4;" horiz-adv-x="880" 
d="M824 365q-20 -58 -58 -108q-52 -69 -136 -124q-68 -45 -134 -69.5t-137 -24.5q-1 -7 -5 -36t-4 -38q2 -11 2 -17q0 -3 -2 -11.5t-9 -15.5t-15 -7q-14 0 -20 11t-6 29q0 12 1 19.5t7 36.5l6 28q-38 4 -77 15q-57 16 -95 41q-49 33 -74 83t-25 112q0 63 27 131
q44 108 135 186q59 50 135 86q11 6 20 8t17 2q21 0 21 -18q0 -8 -16 -16l-50 -24q-59 -31 -100 -66q-62 -54 -99 -129q-14 -28 -24 -63q-13 -45 -13 -87q0 -45 16.5 -86.5t54.5 -74.5q67 -58 151 -58l23 81q16 58 33 116q21 70 34.5 112t41.5 115l47 117q-30 -5 -49.5 -13
t-51.5 -26q-70 -40 -132 -105q-22 -23 -32 -23t-10 8q0 16 41 61q31 34 55 54q49 40 98 63t105 35q17 44 39 72q26 33 44 33q23 0 28.5 -3t5.5 -10q0 -11 -7.5 -23.5t-11.5 -19.5l-25 -43q36 0 61 -3.5t61 -19.5q62 -28 93.5 -79t31.5 -117q0 -23 -4 -48t-13 -49zM742 571
q-25 29 -64 47t-90 18q-13 0 -20 -1l-20 -39q-37 -72 -87.5 -212t-74.5 -234l-18 -69q45 0 88.5 14t102.5 46q113 61 172 148q54 79 54 161q0 72 -43 121z" />
    <glyph glyph-name="Ocircumflex" unicode="&#x424;" horiz-adv-x="880" 
d="M824 365q-20 -58 -58 -108q-52 -69 -136 -124q-68 -45 -134 -69.5t-137 -24.5q-1 -7 -5 -36t-4 -38q2 -11 2 -17q0 -3 -2 -11.5t-9 -15.5t-15 -7q-14 0 -20 11t-6 29q0 12 1 19.5t7 36.5l6 28q-38 4 -77 15q-57 16 -95 41q-49 33 -74 83t-25 112q0 63 27 131
q44 108 135 186q59 50 135 86q11 6 20 8t17 2q21 0 21 -18q0 -8 -16 -16l-50 -24q-59 -31 -100 -66q-62 -54 -99 -129q-14 -28 -24 -63q-13 -45 -13 -87q0 -45 16.5 -86.5t54.5 -74.5q67 -58 151 -58l23 81q16 58 33 116q21 70 34.5 112t41.5 115l47 117q-30 -5 -49.5 -13
t-51.5 -26q-70 -40 -132 -105q-22 -23 -32 -23t-10 8q0 16 41 61q31 34 55 54q49 40 98 63t105 35q17 44 39 72q26 33 44 33q23 0 28.5 -3t5.5 -10q0 -11 -7.5 -23.5t-11.5 -19.5l-25 -43q36 0 61 -3.5t61 -19.5q62 -28 93.5 -79t31.5 -117q0 -23 -4 -48t-13 -49zM742 571
q-25 29 -64 47t-90 18q-13 0 -20 -1l-20 -39q-37 -72 -87.5 -212t-74.5 -234l-18 -69q45 0 88.5 14t102.5 46q113 61 172 148q54 79 54 161q0 72 -43 121z" />
    <glyph glyph-name="Otilde" unicode="&#xd5;" horiz-adv-x="850" 
d="M984 695q0 -10 -9 -19t-19 -9q-4 0 -11 3t-11 3q-29 0 -122 -81q-102 -89 -202 -211q22 -115 48 -187q34 -94 79 -136q28 -25 70.5 -26.5t42.5 -18.5q0 -11 -7 -17q-12 -10 -38 -10q-86 0 -143.5 85.5t-89.5 260.5q-88 -100 -151 -185q-33 -45 -75 -107
q-25 -37 -34 -42.5t-20 -5.5q-8 0 -16 6t-8 17q0 17 26 55q33 47 131 167l132 161q-15 69 -24.5 105t-15.5 57q-27 91 -73 135q-41 40 -96 40q-54 0 -110 -39q-69 -47 -118 -126q-52 -84 -52 -159q0 -56 19 -88q15 -26 42 -37q10 -5 25.5 -7t30.5 -2q21 0 32.5 2.5t16 3
t9.5 0.5q13 0 18 -10q2 -3 2 -9q0 -11 -13 -18t-35 -12t-47 -5q-70 0 -114 48t-44 127q0 72 52 160q47 79 112 137q46 41 90 59t91 18q80 0 132 -58q70 -79 111 -278q167 172 235.5 230.5t104.5 58.5q23 0 34.5 -10.5t11.5 -25.5z" />
    <glyph glyph-name="Otilde" unicode="&#x425;" horiz-adv-x="850" 
d="M984 695q0 -10 -9 -19t-19 -9q-4 0 -11 3t-11 3q-29 0 -122 -81q-102 -89 -202 -211q22 -115 48 -187q34 -94 79 -136q28 -25 70.5 -26.5t42.5 -18.5q0 -11 -7 -17q-12 -10 -38 -10q-86 0 -143.5 85.5t-89.5 260.5q-88 -100 -151 -185q-33 -45 -75 -107
q-25 -37 -34 -42.5t-20 -5.5q-8 0 -16 6t-8 17q0 17 26 55q33 47 131 167l132 161q-15 69 -24.5 105t-15.5 57q-27 91 -73 135q-41 40 -96 40q-54 0 -110 -39q-69 -47 -118 -126q-52 -84 -52 -159q0 -56 19 -88q15 -26 42 -37q10 -5 25.5 -7t30.5 -2q21 0 32.5 2.5t16 3
t9.5 0.5q13 0 18 -10q2 -3 2 -9q0 -11 -13 -18t-35 -12t-47 -5q-70 0 -114 48t-44 127q0 72 52 160q47 79 112 137q46 41 90 59t91 18q80 0 132 -58q70 -79 111 -278q167 172 235.5 230.5t104.5 58.5q23 0 34.5 -10.5t11.5 -25.5z" />
    <glyph glyph-name="Odieresis" unicode="&#xd6;" horiz-adv-x="1009" 
d="M968 173q-7 -23 -12.5 -46.5t-5.5 -49.5v-35v-23v-15q0 -20 -1.5 -34.5t-3.5 -27.5q-6 -69 -41 -126.5t-85 -78.5q-27 -12 -69 -12q-30 0 -54.5 7.5t-39 24.5t-14.5 34q0 16 11 28t26 12q18 0 24 -17q3 -12 7 -25q3 -6 15.5 -11.5t30.5 -5.5q69 0 110 65q30 48 38 115
q2 10 2 22v19q0 25 -1.5 39t-2.5 28q-22 -38 -56 -63.5t-65 -25.5q-25 0 -44 18q-30 28 -30 92q0 49 9.5 113t24.5 122l-67 -112q-20 -34 -68.5 -97t-75.5 -90.5t-55 -42.5q-23 -12 -45 -12q-26 0 -41 15q-19 19 -19 60q0 25 9 63t30 100q5 14 46 133q33 94 59 176
q13 39 13 74q0 43 -23 68t-68 25q-25 0 -58 -9q-68 -18 -131.5 -62.5t-106.5 -100.5q-28 -37 -45 -74q-21 -46 -21 -83q0 -52 30 -82t83 -30q33 0 71 13q20 7 39.5 14.5t27.5 7.5q13 0 13 -13q0 -14 -33 -30q-22 -10 -51 -18q-14 -4 -38 -7t-38 -3q-68 0 -110 32
q-45 35 -45 97q0 43 22 94q40 95 127.5 171.5t187.5 105.5q17 5 42 9t42 4q58 0 93.5 -30.5t35.5 -90.5q0 -10 -1 -21t-6 -34q-13 -61 -44.5 -149t-60.5 -170.5t-37.5 -114.5t-8.5 -46q0 -48 20 -48q25 0 68 42q48 46 113 140q50 71 97 155q59 105 92 194q15 41 26 57
q19 29 44 29q9 0 17 -10t8 -19q0 -5 -23 -43q-18 -29 -35 -70q-42 -100 -67 -205.5t-25 -176.5q0 -28 4 -45t11 -26q11 -14 25 -14q25 0 65 41t40 65l-3 34q0 18 4.5 31.5t16.5 25.5q16 16 31 16q27 0 27 -37q0 -8 -3 -19z" />
    <glyph glyph-name="Odieresis" unicode="&#x426;" horiz-adv-x="1009" 
d="M968 173q-7 -23 -12.5 -46.5t-5.5 -49.5v-35v-23v-15q0 -20 -1.5 -34.5t-3.5 -27.5q-6 -69 -41 -126.5t-85 -78.5q-27 -12 -69 -12q-30 0 -54.5 7.5t-39 24.5t-14.5 34q0 16 11 28t26 12q18 0 24 -17q3 -12 7 -25q3 -6 15.5 -11.5t30.5 -5.5q69 0 110 65q30 48 38 115
q2 10 2 22v19q0 25 -1.5 39t-2.5 28q-22 -38 -56 -63.5t-65 -25.5q-25 0 -44 18q-30 28 -30 92q0 49 9.5 113t24.5 122l-67 -112q-20 -34 -68.5 -97t-75.5 -90.5t-55 -42.5q-23 -12 -45 -12q-26 0 -41 15q-19 19 -19 60q0 25 9 63t30 100q5 14 46 133q33 94 59 176
q13 39 13 74q0 43 -23 68t-68 25q-25 0 -58 -9q-68 -18 -131.5 -62.5t-106.5 -100.5q-28 -37 -45 -74q-21 -46 -21 -83q0 -52 30 -82t83 -30q33 0 71 13q20 7 39.5 14.5t27.5 7.5q13 0 13 -13q0 -14 -33 -30q-22 -10 -51 -18q-14 -4 -38 -7t-38 -3q-68 0 -110 32
q-45 35 -45 97q0 43 22 94q40 95 127.5 171.5t187.5 105.5q17 5 42 9t42 4q58 0 93.5 -30.5t35.5 -90.5q0 -10 -1 -21t-6 -34q-13 -61 -44.5 -149t-60.5 -170.5t-37.5 -114.5t-8.5 -46q0 -48 20 -48q25 0 68 42q48 46 113 140q50 71 97 155q59 105 92 194q15 41 26 57
q19 29 44 29q9 0 17 -10t8 -19q0 -5 -23 -43q-18 -29 -35 -70q-42 -100 -67 -205.5t-25 -176.5q0 -28 4 -45t11 -26q11 -14 25 -14q25 0 65 41t40 65l-3 34q0 18 4.5 31.5t16.5 25.5q16 16 31 16q27 0 27 -37q0 -8 -3 -19z" />
    <glyph glyph-name="multiply" unicode="&#xd7;" horiz-adv-x="936" 
d="M896 600q0 -10 -12 -31q-24 -43 -40 -81q-19 -45 -39 -111t-31 -118.5t-16 -80.5q-10 -58 -10 -90q0 -53 18 -79q12 -17 30 -22q11 -2 17 -3q22 -5 22 -22q0 -5 -5 -9t-10 -4q-31 0 -60 16q-38 21 -51 62q-7 21 -7 56q0 34 6 75.5t23 122.5q11 51 17.5 76t21.5 68
l-46 -57q-54 -68 -90 -99q-45 -39 -80 -39q-17 0 -32 7.5t-26 25.5q-14 24 -14 58q0 38 17 93q13 41 27 83q7 27 7 51q0 56 -36 86t-95 30q-61 0 -123 -31.5t-111 -84.5q-53 -57 -76 -123q-6 -16 -9 -34.5t-3 -31.5q0 -47 27 -81q21 -26 54 -42q17 -8 42.5 -12.5t55.5 -4.5
q45 0 76 10q8 2 17 4t12 2q15 0 15 -13t-9 -20q-5 -4 -17 -8q-32 -9 -59.5 -12.5t-54.5 -3.5q-33 0 -66 6.5t-59 20.5q-43 23 -66.5 61t-23.5 94q0 36 10.5 69t32.5 68q46 75 111.5 125t139.5 71q50 14 89 14q77 0 121.5 -43.5t44.5 -115.5q0 -33 -10 -69q-18 -51 -26 -78
q-16 -50 -16 -77t14 -41q10 -10 24 -10t28.5 9.5t30.5 24.5q66 63 115 138q25 38 61 108q27 51 54 65q10 5 30 5q8 0 13 -7t5 -16z" />
    <glyph glyph-name="multiply" unicode="&#x427;" horiz-adv-x="936" 
d="M896 600q0 -10 -12 -31q-24 -43 -40 -81q-19 -45 -39 -111t-31 -118.5t-16 -80.5q-10 -58 -10 -90q0 -53 18 -79q12 -17 30 -22q11 -2 17 -3q22 -5 22 -22q0 -5 -5 -9t-10 -4q-31 0 -60 16q-38 21 -51 62q-7 21 -7 56q0 34 6 75.5t23 122.5q11 51 17.5 76t21.5 68
l-46 -57q-54 -68 -90 -99q-45 -39 -80 -39q-17 0 -32 7.5t-26 25.5q-14 24 -14 58q0 38 17 93q13 41 27 83q7 27 7 51q0 56 -36 86t-95 30q-61 0 -123 -31.5t-111 -84.5q-53 -57 -76 -123q-6 -16 -9 -34.5t-3 -31.5q0 -47 27 -81q21 -26 54 -42q17 -8 42.5 -12.5t55.5 -4.5
q45 0 76 10q8 2 17 4t12 2q15 0 15 -13t-9 -20q-5 -4 -17 -8q-32 -9 -59.5 -12.5t-54.5 -3.5q-33 0 -66 6.5t-59 20.5q-43 23 -66.5 61t-23.5 94q0 36 10.5 69t32.5 68q46 75 111.5 125t139.5 71q50 14 89 14q77 0 121.5 -43.5t44.5 -115.5q0 -33 -10 -69q-18 -51 -26 -78
q-16 -50 -16 -77t14 -41q10 -10 24 -10t28.5 9.5t30.5 24.5q66 63 115 138q25 38 61 108q27 51 54 65q10 5 30 5q8 0 13 -7t5 -16z" />
    <glyph glyph-name="Oslash" unicode="&#xd8;" horiz-adv-x="1256" 
d="M1216 596q0 -5 -24 -45q-18 -30 -34 -68q-31 -73 -51 -148q-14 -52 -28 -127q-6 -31 -9.5 -61.5t-3.5 -47.5q0 -40 11 -65.5t38 -33.5q10 -2 16 -2q5 0 15 1t16 1q22 0 28 -11q3 -5 3 -16q0 -10 -13.5 -16t-33.5 -6q-39 0 -69 18.5t-42.5 48t-12.5 65.5q0 43 4.5 89.5
t25.5 134.5q-69 -126 -147 -223q-99 -122 -159 -122q-28 0 -44 22t-16 51q0 46 9 106.5t38 174.5q-86 -148 -153 -228q-55 -66 -101 -92q-30 -17 -60 -17q-29 0 -44.5 21t-15.5 49q0 20 6 45.5t16 54.5l115 319q18 52 27 91q6 27 6 45q0 33 -15 53q-22 30 -70 30
q-18 0 -36 -3t-43 -12q-72 -24 -134 -69q-54 -39 -92 -88q-24 -31 -44 -72q-24 -49 -24 -83q0 -42 21 -67q27 -31 83 -31q28 0 50 4t45 15q14 7 22 10q14 6 23 6q20 0 20 -15q0 -8 -5 -15q-9 -12 -28 -21q-32 -15 -61.5 -20.5t-65.5 -5.5q-76 0 -114 37.5t-38 96.5
q0 45 22 95q36 83 121.5 155.5t181.5 102.5q53 17 103 17q57 0 88 -23q38 -28 38 -89q0 -57 -32 -144l-101 -270q-13 -36 -22 -64q-15 -48 -15 -69q0 -20 3.5 -32t21.5 -12q15 0 30 9q9 5 23 18q60 58 134 168q56 84 116 193q40 73 67 130q21 46 24 51q17 32 28 36.5t17 4.5
t11.5 -3t11.5 -9.5t6 -12.5q0 -7 -5 -17q-16 -31 -31 -61q-42 -91 -62 -149q-35 -103 -65 -263q-3 -16 -5.5 -37.5t-2.5 -28.5v-11q0 -17 10 -26q7 -6 17 -6q11 0 29 12q12 8 26 21q35 35 78 91q61 80 122 184q31 52 55.5 100.5t47.5 104.5q3 8 18 47q6 15 13.5 30
t19.5 21.5t26 6.5q9 0 17 -10t8 -19z" />
    <glyph glyph-name="Oslash" unicode="&#x428;" horiz-adv-x="1256" 
d="M1216 596q0 -5 -24 -45q-18 -30 -34 -68q-31 -73 -51 -148q-14 -52 -28 -127q-6 -31 -9.5 -61.5t-3.5 -47.5q0 -40 11 -65.5t38 -33.5q10 -2 16 -2q5 0 15 1t16 1q22 0 28 -11q3 -5 3 -16q0 -10 -13.5 -16t-33.5 -6q-39 0 -69 18.5t-42.5 48t-12.5 65.5q0 43 4.5 89.5
t25.5 134.5q-69 -126 -147 -223q-99 -122 -159 -122q-28 0 -44 22t-16 51q0 46 9 106.5t38 174.5q-86 -148 -153 -228q-55 -66 -101 -92q-30 -17 -60 -17q-29 0 -44.5 21t-15.5 49q0 20 6 45.5t16 54.5l115 319q18 52 27 91q6 27 6 45q0 33 -15 53q-22 30 -70 30
q-18 0 -36 -3t-43 -12q-72 -24 -134 -69q-54 -39 -92 -88q-24 -31 -44 -72q-24 -49 -24 -83q0 -42 21 -67q27 -31 83 -31q28 0 50 4t45 15q14 7 22 10q14 6 23 6q20 0 20 -15q0 -8 -5 -15q-9 -12 -28 -21q-32 -15 -61.5 -20.5t-65.5 -5.5q-76 0 -114 37.5t-38 96.5
q0 45 22 95q36 83 121.5 155.5t181.5 102.5q53 17 103 17q57 0 88 -23q38 -28 38 -89q0 -57 -32 -144l-101 -270q-13 -36 -22 -64q-15 -48 -15 -69q0 -20 3.5 -32t21.5 -12q15 0 30 9q9 5 23 18q60 58 134 168q56 84 116 193q40 73 67 130q21 46 24 51q17 32 28 36.5t17 4.5
t11.5 -3t11.5 -9.5t6 -12.5q0 -7 -5 -17q-16 -31 -31 -61q-42 -91 -62 -149q-35 -103 -65 -263q-3 -16 -5.5 -37.5t-2.5 -28.5v-11q0 -17 10 -26q7 -6 17 -6q11 0 29 12q12 8 26 21q35 35 78 91q61 80 122 184q31 52 55.5 100.5t47.5 104.5q3 8 18 47q6 15 13.5 30
t19.5 21.5t26 6.5q9 0 17 -10t8 -19z" />
    <glyph glyph-name="Ugrave" unicode="&#xd9;" horiz-adv-x="1331" 
d="M1291 205q0 -19 -2.5 -33.5t-9 -37.5t-9 -42t-2.5 -37v-27t1 -29q0 -58 -10 -101q-15 -64 -53 -108q-30 -35 -66.5 -50t-74.5 -15q-28 0 -48.5 7.5t-37.5 23.5q-10 10 -14 19.5t-4 19.5q0 15 10 26t23 11q19 0 30.5 -18t19.5 -25q19 -18 43 -18q15 0 31 6.5t35 22.5
q51 42 65 118q7 38 7 139q-16 -24 -35 -44t-38 -30q-25 -14 -50 -14q-35 0 -57 27.5t-22 84.5q0 49 9.5 112t24.5 123q-38 -70 -86 -141q-60 -89 -115 -145q-67 -68 -110 -68q-35 0 -50 28q-10 18 -10 45q0 45 13 123t34 158q-83 -142 -153 -226q-53 -63 -101 -92
q-32 -19 -53 -19q-37 0 -52 18.5t-15 51.5q0 20 6 45.5t16 54.5l115 319q18 52 27 91q6 27 6 45q0 33 -15 53q-22 30 -70 30q-18 0 -36 -3t-43 -12q-72 -24 -134 -69q-54 -39 -92 -88q-24 -31 -44 -72q-24 -49 -24 -83q0 -47 31.5 -73.5t80.5 -26.5q42 0 87 21q11 6 26 11
t24 5q15 0 15 -15q0 -25 -51.5 -43.5t-110.5 -18.5q-37 0 -64 9q-37 13 -60 43q-26 34 -26 82q0 42 22 95q36 84 120.5 156t182.5 102q53 17 103 17q57 0 88 -23q38 -28 38 -89q0 -28 -6.5 -61.5t-25.5 -82.5l-102 -270q-9 -22 -20 -65q-15 -56 -15 -79q0 -21 12 -29
q5 -3 12 -3q9 0 17 3q18 6 38.5 25t50.5 55q57 69 138.5 203.5t125.5 230.5q21 47 32.5 65.5t21 22.5t15.5 4t11.5 -3t11.5 -9.5t6 -12.5q0 -8 -9 -25q-22 -43 -27 -53q-31 -67 -45 -105q-32 -86 -61 -208q-14 -58 -20.5 -98.5t-6.5 -60.5q0 -48 20 -48q12 0 30 10t30 22
q65 64 149 196q67 104 118 208q25 49 41 89q12 30 25 61q8 15 19 23t28 8q9 0 17 -10t8 -19q0 -10 -13 -30q-9 -14 -16 -26q-30 -53 -60 -142q-35 -103 -48 -190q-4 -28 -8 -60.5t-4 -55.5q0 -36 10 -56t35 -20q20 0 40 14q14 10 26 25q22 29 30.5 44t8.5 23l-3 34
q0 27 16.5 50.5t35.5 23.5q7 0 16 -8t9 -17z" />
    <glyph glyph-name="Ugrave" unicode="&#x429;" horiz-adv-x="1331" 
d="M1291 205q0 -19 -2.5 -33.5t-9 -37.5t-9 -42t-2.5 -37v-27t1 -29q0 -58 -10 -101q-15 -64 -53 -108q-30 -35 -66.5 -50t-74.5 -15q-28 0 -48.5 7.5t-37.5 23.5q-10 10 -14 19.5t-4 19.5q0 15 10 26t23 11q19 0 30.5 -18t19.5 -25q19 -18 43 -18q15 0 31 6.5t35 22.5
q51 42 65 118q7 38 7 139q-16 -24 -35 -44t-38 -30q-25 -14 -50 -14q-35 0 -57 27.5t-22 84.5q0 49 9.5 112t24.5 123q-38 -70 -86 -141q-60 -89 -115 -145q-67 -68 -110 -68q-35 0 -50 28q-10 18 -10 45q0 45 13 123t34 158q-83 -142 -153 -226q-53 -63 -101 -92
q-32 -19 -53 -19q-37 0 -52 18.5t-15 51.5q0 20 6 45.5t16 54.5l115 319q18 52 27 91q6 27 6 45q0 33 -15 53q-22 30 -70 30q-18 0 -36 -3t-43 -12q-72 -24 -134 -69q-54 -39 -92 -88q-24 -31 -44 -72q-24 -49 -24 -83q0 -47 31.5 -73.5t80.5 -26.5q42 0 87 21q11 6 26 11
t24 5q15 0 15 -15q0 -25 -51.5 -43.5t-110.5 -18.5q-37 0 -64 9q-37 13 -60 43q-26 34 -26 82q0 42 22 95q36 84 120.5 156t182.5 102q53 17 103 17q57 0 88 -23q38 -28 38 -89q0 -28 -6.5 -61.5t-25.5 -82.5l-102 -270q-9 -22 -20 -65q-15 -56 -15 -79q0 -21 12 -29
q5 -3 12 -3q9 0 17 3q18 6 38.5 25t50.5 55q57 69 138.5 203.5t125.5 230.5q21 47 32.5 65.5t21 22.5t15.5 4t11.5 -3t11.5 -9.5t6 -12.5q0 -8 -9 -25q-22 -43 -27 -53q-31 -67 -45 -105q-32 -86 -61 -208q-14 -58 -20.5 -98.5t-6.5 -60.5q0 -48 20 -48q12 0 30 10t30 22
q65 64 149 196q67 104 118 208q25 49 41 89q12 30 25 61q8 15 19 23t28 8q9 0 17 -10t8 -19q0 -10 -13 -30q-9 -14 -16 -26q-30 -53 -60 -142q-35 -103 -48 -190q-4 -28 -8 -60.5t-4 -55.5q0 -36 10 -56t35 -20q20 0 40 14q14 10 26 25q22 29 30.5 44t8.5 23l-3 34
q0 27 16.5 50.5t35.5 23.5q7 0 16 -8t9 -17z" />
    <glyph glyph-name="Uacute" unicode="&#xda;" horiz-adv-x="576" 
d="M600 233q12 -30 12 -59q0 -20 -4.5 -37t-14.5 -36q-30 -55 -104 -89q-85 -39 -208 -39q-24 0 -37.5 1t-47.5 4q-74 8 -106 37q-26 24 -26 64q0 16 1.5 24t8.5 34t24 74q13 38 37 100l28 72q-12 -2 -16 -2q-23 0 -23 15q0 16 12.5 23t42.5 7l74 177l-96 -5q-28 0 -49.5 -2
t-51.5 -4q-12 0 -21.5 2t-15.5 8q-9 9 -9 22q0 16 9 23t23 7q10 0 18.5 -2t12.5 -3t22.5 -1.5t31.5 -0.5q41 0 88 2t62 3.5t44 6t43 4.5q20 0 30 -5.5t10 -22.5q0 -12 -10 -22t-29 -10l-25 2q-13 0 -18.5 -4t-11.5 -12q-12 -16 -29 -53t-46 -109q47 0 95.5 -10.5t93.5 -28.5
q63 -25 110 -65.5t66 -89.5zM548 221q-19 49 -71 87q-63 45 -164 65q-17 3 -41.5 7t-54.5 4l-17 -39q-22 -50 -40 -99q-26 -69 -42 -130q-5 -18 -5 -32q0 -24 15 -38q19 -18 63 -23.5t80 -5.5q59 0 111.5 11.5t92.5 34.5t60.5 53t20.5 65q0 18 -8 40z" />
    <glyph glyph-name="Uacute" unicode="&#x42a;" horiz-adv-x="576" 
d="M600 233q12 -30 12 -59q0 -20 -4.5 -37t-14.5 -36q-30 -55 -104 -89q-85 -39 -208 -39q-24 0 -37.5 1t-47.5 4q-74 8 -106 37q-26 24 -26 64q0 16 1.5 24t8.5 34t24 74q13 38 37 100l28 72q-12 -2 -16 -2q-23 0 -23 15q0 16 12.5 23t42.5 7l74 177l-96 -5q-28 0 -49.5 -2
t-51.5 -4q-12 0 -21.5 2t-15.5 8q-9 9 -9 22q0 16 9 23t23 7q10 0 18.5 -2t12.5 -3t22.5 -1.5t31.5 -0.5q41 0 88 2t62 3.5t44 6t43 4.5q20 0 30 -5.5t10 -22.5q0 -12 -10 -22t-29 -10l-25 2q-13 0 -18.5 -4t-11.5 -12q-12 -16 -29 -53t-46 -109q47 0 95.5 -10.5t93.5 -28.5
q63 -25 110 -65.5t66 -89.5zM548 221q-19 49 -71 87q-63 45 -164 65q-17 3 -41.5 7t-54.5 4l-17 -39q-22 -50 -40 -99q-26 -69 -42 -130q-5 -18 -5 -32q0 -24 15 -38q19 -18 63 -23.5t80 -5.5q59 0 111.5 11.5t92.5 34.5t60.5 53t20.5 65q0 18 -8 40z" />
    <glyph glyph-name="Ucircumflex" unicode="&#xdb;" horiz-adv-x="952" 
d="M941 601l-24 -53q-32 -70 -76.5 -186.5t-77.5 -212.5q-21 -62 -27 -85.5t-6 -37.5q0 -11 5 -17t5 -19q0 -12 -8 -20.5t-27 -8.5t-27 12.5t-8 30.5q0 20 6 47.5t32.5 106.5t52.5 146q19 48 39 97q17 44 25 66q13 33 28 66l21 50q5 16 9.5 38.5t24.5 35.5q8 5 19 5
q14 0 24.5 -8.5t10.5 -20.5q0 -9 -4.5 -16t-16.5 -16zM551 101q-36 -62 -116 -94.5t-198 -32.5h-52q-23 3 -33 4q-75 7 -108 38q-26 24 -26 62q0 12 4 29q1 6 7 24q30 93 64 180l28 72q-12 -2 -16 -2q-23 0 -23 15q0 16 12.5 23t42.5 7l20 48l36 84l28 69q6 14 13 22
q15 16 34 16q27 0 27 -17q0 -11 -10 -26.5t-13 -20.5q-11 -16 -21 -38q-13 -27 -33 -76l-25 -60q47 0 95.5 -10.5t93.5 -28.5q77 -31 129 -85q60 -62 60 -129q0 -37 -20 -73zM490 112q24 32 24 69q0 64 -68.5 117.5t-175.5 74.5q-17 3 -40.5 7t-54.5 4l-17 -39
q-16 -36 -38 -95q-17 -44 -29 -82q-8 -22 -15 -44t-7 -38q0 -22 14 -37q19 -21 75 -28q31 -4 82 -4q69 0 131 19q82 25 119 76z" />
    <glyph glyph-name="Ucircumflex" unicode="&#x42b;" horiz-adv-x="952" 
d="M941 601l-24 -53q-32 -70 -76.5 -186.5t-77.5 -212.5q-21 -62 -27 -85.5t-6 -37.5q0 -11 5 -17t5 -19q0 -12 -8 -20.5t-27 -8.5t-27 12.5t-8 30.5q0 20 6 47.5t32.5 106.5t52.5 146q19 48 39 97q17 44 25 66q13 33 28 66l21 50q5 16 9.5 38.5t24.5 35.5q8 5 19 5
q14 0 24.5 -8.5t10.5 -20.5q0 -9 -4.5 -16t-16.5 -16zM551 101q-36 -62 -116 -94.5t-198 -32.5h-52q-23 3 -33 4q-75 7 -108 38q-26 24 -26 62q0 12 4 29q1 6 7 24q30 93 64 180l28 72q-12 -2 -16 -2q-23 0 -23 15q0 16 12.5 23t42.5 7l20 48l36 84l28 69q6 14 13 22
q15 16 34 16q27 0 27 -17q0 -11 -10 -26.5t-13 -20.5q-11 -16 -21 -38q-13 -27 -33 -76l-25 -60q47 0 95.5 -10.5t93.5 -28.5q77 -31 129 -85q60 -62 60 -129q0 -37 -20 -73zM490 112q24 32 24 69q0 64 -68.5 117.5t-175.5 74.5q-17 3 -40.5 7t-54.5 4l-17 -39
q-16 -36 -38 -95q-17 -44 -29 -82q-8 -22 -15 -44t-7 -38q0 -22 14 -37q19 -21 75 -28q31 -4 82 -4q69 0 131 19q82 25 119 76z" />
    <glyph glyph-name="Udieresis" unicode="&#xdc;" horiz-adv-x="570" 
d="M548 233q12 -30 12 -60q0 -84 -86 -141q-47 -30 -110 -44t-139 -14h-52q-21 3 -31 4q-74 8 -105 37q-26 24 -26 63q0 13 2.5 24t7.5 29q9 30 19 61q15 45 43 119l28 72q-12 -2 -16 -2q-23 0 -23 15q0 16 12.5 23t42.5 7l20 48l36 84l28 69q9 20 20 29t27 9q27 0 27 -27
q0 -10 -16 -28t-33 -58q-7 -18 -23 -53q-11 -24 -30 -72q48 0 94.5 -10t94.5 -29q68 -26 115 -70q42 -38 61 -85zM496 221q-20 53 -81 94q-67 45 -166 61q-15 2 -42.5 5t-41.5 3q-14 -31 -26.5 -60.5t-30.5 -78.5q-34 -92 -41.5 -117t-7.5 -42q0 -21 14.5 -37t51.5 -23.5
t83 -7.5q35 0 73.5 4t59.5 9q76 18 119.5 58t43.5 91q0 19 -8 41z" />
    <glyph glyph-name="Udieresis" unicode="&#x42c;" horiz-adv-x="570" 
d="M548 233q12 -30 12 -60q0 -84 -86 -141q-47 -30 -110 -44t-139 -14h-52q-21 3 -31 4q-74 8 -105 37q-26 24 -26 63q0 13 2.5 24t7.5 29q9 30 19 61q15 45 43 119l28 72q-12 -2 -16 -2q-23 0 -23 15q0 16 12.5 23t42.5 7l20 48l36 84l28 69q9 20 20 29t27 9q27 0 27 -27
q0 -10 -16 -28t-33 -58q-7 -18 -23 -53q-11 -24 -30 -72q48 0 94.5 -10t94.5 -29q68 -26 115 -70q42 -38 61 -85zM496 221q-20 53 -81 94q-67 45 -166 61q-15 2 -42.5 5t-41.5 3q-14 -31 -26.5 -60.5t-30.5 -78.5q-34 -92 -41.5 -117t-7.5 -42q0 -21 14.5 -37t51.5 -23.5
t83 -7.5q35 0 73.5 4t59.5 9q76 18 119.5 58t43.5 91q0 19 -8 41z" />
    <glyph glyph-name="Yacute" unicode="&#xdd;" horiz-adv-x="659" 
d="M619 470q0 -60 -14 -126q-8 -39 -25 -92q21 0 28.5 -5.5t7.5 -22.5q0 -15 -10 -20q-4 -2 -12 -2l-30 3q-48 -132 -133 -193q-70 -50 -163 -50q-64 0 -118 22q-69 28 -98 82q-12 21 -12 42q0 15 6 23t15 8q11 0 20 -11q6 -7 10 -20q19 -55 63 -82t108 -27q72 0 128 38
q79 53 118 174q-15 0 -59 2.5t-53 2.5q-66 0 -108 -8q-26 -5 -43 -5q-23 0 -23 17q0 31 78 38q24 2 74 2q37 0 69.5 -2t78.5 -4q17 46 28 99q15 69 15 128q0 83 -25 127q-32 57 -104 57q-90 0 -195 -80t-105 -145q0 -27 24 -45q29 -22 83 -22q19 0 28.5 2t42.5 13
q4 1 22.5 8t25.5 7q16 0 16 -15q0 -5 -8 -12q-13 -11 -41 -21.5t-54 -16t-56 -5.5q-68 0 -105 33q-33 29 -33 75q0 89 123 175.5t236 86.5q86 0 130 -52q49 -57 49 -181z" />
    <glyph glyph-name="Yacute" unicode="&#x42d;" horiz-adv-x="659" 
d="M619 470q0 -60 -14 -126q-8 -39 -25 -92q21 0 28.5 -5.5t7.5 -22.5q0 -15 -10 -20q-4 -2 -12 -2l-30 3q-48 -132 -133 -193q-70 -50 -163 -50q-64 0 -118 22q-69 28 -98 82q-12 21 -12 42q0 15 6 23t15 8q11 0 20 -11q6 -7 10 -20q19 -55 63 -82t108 -27q72 0 128 38
q79 53 118 174q-15 0 -59 2.5t-53 2.5q-66 0 -108 -8q-26 -5 -43 -5q-23 0 -23 17q0 31 78 38q24 2 74 2q37 0 69.5 -2t78.5 -4q17 46 28 99q15 69 15 128q0 83 -25 127q-32 57 -104 57q-90 0 -195 -80t-105 -145q0 -27 24 -45q29 -22 83 -22q19 0 28.5 2t42.5 13
q4 1 22.5 8t25.5 7q16 0 16 -15q0 -5 -8 -12q-13 -11 -41 -21.5t-54 -16t-56 -5.5q-68 0 -105 33q-33 29 -33 75q0 89 123 175.5t236 86.5q86 0 130 -52q49 -57 49 -181z" />
    <glyph glyph-name="Thorn" unicode="&#xde;" horiz-adv-x="1247" 
d="M1187 329q-22 -79 -60 -150q-41 -76 -95.5 -133.5t-112.5 -86.5q-50 -25 -96 -25q-77 0 -126 36q-43 31 -62 87q-7 22 -10.5 45.5t-3.5 54.5q0 42 7.5 89t19.5 86q-63 -43 -131.5 -103.5t-105.5 -104.5q-2 -6 -17 -70q-18 -77 -54 -77q-11 0 -17 5q-10 8 -10 27
q0 11 4 25t11 31q25 63 65 150.5t63 139.5q34 78 56 142q10 27 15 47.5t5 40.5q0 37 -21 55q-25 22 -85 22q-120 0 -238.5 -98.5t-118.5 -208.5q0 -49 29.5 -76.5t74.5 -27.5q26 0 43.5 4t67.5 22q9 4 18 4q16 0 16 -16q0 -8 -4 -13t-14 -10q-26 -13 -63 -21.5t-68 -8.5
q-75 0 -116 40q-37 36 -37 91q0 125 139.5 244.5t294.5 119.5q71 0 106 -41q27 -32 27 -74q0 -38 -19 -92q-15 -43 -51 -124q-69 -155 -71 -160q34 28 146 117q45 36 58.5 51.5t18.5 19.5q14 13 25 13q9 0 17.5 -8.5t8.5 -19.5t-8 -24.5t-16 -26.5q-11 -24 -19 -67.5
t-8 -90.5q0 -61 16 -105q22 -57 67 -81q33 -17 79 -17q37 0 78 22q50 27 98 82q68 78 110 179.5t42 190.5q0 81 -37 117q-28 28 -73 28q-54 0 -111 -38t-108 -112q-24 -35 -42.5 -73t-27.5 -72q-5 -20 -9 -39q-7 -21 -23 -21q-6 0 -10 5q-7 8 -7 23q0 14 6.5 38t28.5 71
q52 109 121 177q55 54 112 76q39 16 78 16q68 0 110.5 -49.5t42.5 -140.5q0 -58 -19 -128z" />
    <glyph glyph-name="Thorn" unicode="&#x42e;" horiz-adv-x="1247" 
d="M1187 329q-22 -79 -60 -150q-41 -76 -95.5 -133.5t-112.5 -86.5q-50 -25 -96 -25q-77 0 -126 36q-43 31 -62 87q-7 22 -10.5 45.5t-3.5 54.5q0 42 7.5 89t19.5 86q-63 -43 -131.5 -103.5t-105.5 -104.5q-2 -6 -17 -70q-18 -77 -54 -77q-11 0 -17 5q-10 8 -10 27
q0 11 4 25t11 31q25 63 65 150.5t63 139.5q34 78 56 142q10 27 15 47.5t5 40.5q0 37 -21 55q-25 22 -85 22q-120 0 -238.5 -98.5t-118.5 -208.5q0 -49 29.5 -76.5t74.5 -27.5q26 0 43.5 4t67.5 22q9 4 18 4q16 0 16 -16q0 -8 -4 -13t-14 -10q-26 -13 -63 -21.5t-68 -8.5
q-75 0 -116 40q-37 36 -37 91q0 125 139.5 244.5t294.5 119.5q71 0 106 -41q27 -32 27 -74q0 -38 -19 -92q-15 -43 -51 -124q-69 -155 -71 -160q34 28 146 117q45 36 58.5 51.5t18.5 19.5q14 13 25 13q9 0 17.5 -8.5t8.5 -19.5t-8 -24.5t-16 -26.5q-11 -24 -19 -67.5
t-8 -90.5q0 -61 16 -105q22 -57 67 -81q33 -17 79 -17q37 0 78 22q50 27 98 82q68 78 110 179.5t42 190.5q0 81 -37 117q-28 28 -73 28q-54 0 -111 -38t-108 -112q-24 -35 -42.5 -73t-27.5 -72q-5 -20 -9 -39q-7 -21 -23 -21q-6 0 -10 5q-7 8 -7 23q0 14 6.5 38t28.5 71
q52 109 121 177q55 54 112 76q39 16 78 16q68 0 110.5 -49.5t42.5 -140.5q0 -58 -19 -128z" />
    <glyph glyph-name="germandbls" unicode="&#xdf;" horiz-adv-x="587" 
d="M547 -34q0 -9 -10 -17.5t-27 -8.5q-13 0 -25.5 4.5t-23.5 10.5q-31 17 -44 52q-9 23 -9 52q0 43 9 87q13 63 49 162l-67 -19l-28 -47q-23 -39 -68 -96t-77 -87.5t-67 -46.5q-29 -13 -55 -13q-19 0 -34 6.5t-22.5 17t-7.5 23.5q0 14 8 20.5t15 6.5t15 -5t18.5 -10.5
t22.5 -5.5q33 0 79 41q64 57 145 185q-52 -11 -103 -11q-86 0 -133 33.5t-47 82.5q0 96 125.5 217.5t219.5 121.5q55 0 86 -33t31 -85q0 -46 -27.5 -120.5t-64.5 -140.5q41 18 63 25.5t30 7.5q19 0 19 -14q0 -10 -11 -36q-24 -56 -37.5 -94t-22.5 -75q-13 -56 -13 -96
q0 -37 16 -57q11 -15 30 -20q17 -3 30 -6t13 -12zM477 602q0 38 -24.5 58t-59.5 20q-64 0 -168 -99q-108 -103 -108 -180q0 -44 50 -66q43 -19 109 -19q54 0 96 11q30 48 65 133q40 98 40 142z" />
    <glyph glyph-name="germandbls" unicode="&#x42f;" horiz-adv-x="587" 
d="M547 -34q0 -9 -10 -17.5t-27 -8.5q-13 0 -25.5 4.5t-23.5 10.5q-31 17 -44 52q-9 23 -9 52q0 43 9 87q13 63 49 162l-67 -19l-28 -47q-23 -39 -68 -96t-77 -87.5t-67 -46.5q-29 -13 -55 -13q-19 0 -34 6.5t-22.5 17t-7.5 23.5q0 14 8 20.5t15 6.5t15 -5t18.5 -10.5
t22.5 -5.5q33 0 79 41q64 57 145 185q-52 -11 -103 -11q-86 0 -133 33.5t-47 82.5q0 96 125.5 217.5t219.5 121.5q55 0 86 -33t31 -85q0 -46 -27.5 -120.5t-64.5 -140.5q41 18 63 25.5t30 7.5q19 0 19 -14q0 -10 -11 -36q-24 -56 -37.5 -94t-22.5 -75q-13 -56 -13 -96
q0 -37 16 -57q11 -15 30 -20q17 -3 30 -6t13 -12zM477 602q0 38 -24.5 58t-59.5 20q-64 0 -168 -99q-108 -103 -108 -180q0 -44 50 -66q43 -19 109 -19q54 0 96 11q30 48 65 133q40 98 40 142z" />
    <glyph glyph-name="agrave" unicode="&#xe0;" horiz-adv-x="427" 
d="M442 220q-16 -32 -48 -82q-35 -54 -60 -86q-18 -22 -37 -38q-29 -24 -51 -24q-16 0 -27.5 13.5t-11.5 39.5q0 15 6 35q-52 -50 -66 -60q-42 -32 -79 -32q-23 0 -38 13q-23 19 -23 60q0 67 52 165q47 88 96 134q22 20 42.5 30t47.5 10q36 0 55 -31q16 -26 16 -68l-2 -40
l1 -18q0 -16 -12 -40q-25 -50 -26 -53q-9 -23 -15 -39q-10 -28 -10 -49q0 -24 5 -24q13 0 44 36q37 44 81 122q15 33 23 48q14 27 30 27q15 0 15 -20q0 -13 -8 -29zM256 225q13 36 13 74q0 26 -7.5 41t-23.5 15q-48 0 -120 -111t-72 -184q0 -15 5 -26.5t20 -11.5
q34 0 100 75t85 128z" />
    <glyph glyph-name="agrave" unicode="&#x430;" horiz-adv-x="427" 
d="M442 220q-16 -32 -48 -82q-35 -54 -60 -86q-18 -22 -37 -38q-29 -24 -51 -24q-16 0 -27.5 13.5t-11.5 39.5q0 15 6 35q-52 -50 -66 -60q-42 -32 -79 -32q-23 0 -38 13q-23 19 -23 60q0 67 52 165q47 88 96 134q22 20 42.5 30t47.5 10q36 0 55 -31q16 -26 16 -68l-2 -40
l1 -18q0 -16 -12 -40q-25 -50 -26 -53q-9 -23 -15 -39q-10 -28 -10 -49q0 -24 5 -24q13 0 44 36q37 44 81 122q15 33 23 48q14 27 30 27q15 0 15 -20q0 -13 -8 -29zM256 225q13 36 13 74q0 26 -7.5 41t-23.5 15q-48 0 -120 -111t-72 -184q0 -15 5 -26.5t20 -11.5
q34 0 100 75t85 128z" />
    <glyph glyph-name="aacute" unicode="&#xe1;" horiz-adv-x="342" 
d="M472 609q0 -17 -4 -17q-6 0 -12 5t-26 5q-55 0 -143 -26q-103 -30 -103 -63q0 -16 18 -35q8 -8 33 -28q45 -37 67 -77q29 -51 29 -119q0 -97 -68.5 -182.5t-149.5 -85.5q-40 0 -66.5 33.5t-26.5 93.5q0 91 52 160q49 65 105 65q37 0 64.5 -25.5t27.5 -65.5q0 -13 -4 -19
t-14 -6q-8 0 -12 16q-7 26 -9 30q-5 11 -11 16q-11 10 -27 10q-52 0 -91 -57.5t-39 -123.5q0 -46 19 -70q16 -20 40 -20q56 0 111 78t55 161q0 49 -19 88q-14 29 -42.5 55t-55.5 50q-31 32 -31 60q0 34 43 64q52 36 165 63q41 10 69 10q31 0 45 -13q11 -10 11 -30z" />
    <glyph glyph-name="aacute" unicode="&#x431;" horiz-adv-x="342" 
d="M472 609q0 -17 -4 -17q-6 0 -12 5t-26 5q-55 0 -143 -26q-103 -30 -103 -63q0 -16 18 -35q8 -8 33 -28q45 -37 67 -77q29 -51 29 -119q0 -97 -68.5 -182.5t-149.5 -85.5q-40 0 -66.5 33.5t-26.5 93.5q0 91 52 160q49 65 105 65q37 0 64.5 -25.5t27.5 -65.5q0 -13 -4 -19
t-14 -6q-8 0 -12 16q-7 26 -9 30q-5 11 -11 16q-11 10 -27 10q-52 0 -91 -57.5t-39 -123.5q0 -46 19 -70q16 -20 40 -20q56 0 111 78t55 161q0 49 -19 88q-14 29 -42.5 55t-55.5 50q-31 32 -31 60q0 34 43 64q52 36 165 63q41 10 69 10q31 0 45 -13q11 -10 11 -30z" />
    <glyph glyph-name="acircumflex" unicode="&#xe2;" horiz-adv-x="353" 
d="M353 633q0 -79 -47 -175q-53 -108 -134 -168q22 -3 38 -17q21 0 33.5 5.5t32 18t29.5 12.5q11 0 11 -11q0 -15 -25.5 -35.5t-54.5 -27.5q5 -25 5 -45q0 -36 -15 -77q-20 -55 -58.5 -94.5t-73.5 -39.5q-29 0 -47 26.5t-18 81.5q0 26 9 70t31 111q-7 4 -7 14q0 8 5.5 19.5
t15.5 13.5l11 29q32 84 53 132q46 104 92 164q23 30 46 43q16 9 28 9q16 0 26 -11q14 -15 14 -48zM316 620v16q-3 10 -13 10q-7 0 -15.5 -7.5t-26.5 -35.5q-31 -48 -64 -116q-28 -59 -48 -115l-23 -65q45 16 89 73q36 46 62 106q19 42 29 77.5t10 56.5zM194 222
q-34 0 -51.5 6t-35.5 21q-15 -44 -27 -96t-12 -86q0 -51 29 -51q11 0 25 9q32 22 53 71t21 99v13q-2 10 -2 14z" />
    <glyph glyph-name="acircumflex" unicode="&#x432;" horiz-adv-x="353" 
d="M353 633q0 -79 -47 -175q-53 -108 -134 -168q22 -3 38 -17q21 0 33.5 5.5t32 18t29.5 12.5q11 0 11 -11q0 -15 -25.5 -35.5t-54.5 -27.5q5 -25 5 -45q0 -36 -15 -77q-20 -55 -58.5 -94.5t-73.5 -39.5q-29 0 -47 26.5t-18 81.5q0 26 9 70t31 111q-7 4 -7 14q0 8 5.5 19.5
t15.5 13.5l11 29q32 84 53 132q46 104 92 164q23 30 46 43q16 9 28 9q16 0 26 -11q14 -15 14 -48zM316 620v16q-3 10 -13 10q-7 0 -15.5 -7.5t-26.5 -35.5q-31 -48 -64 -116q-28 -59 -48 -115l-23 -65q45 16 89 73q36 46 62 106q19 42 29 77.5t10 56.5zM194 222
q-34 0 -51.5 6t-35.5 21q-15 -44 -27 -96t-12 -86q0 -51 29 -51q11 0 25 9q32 22 53 71t21 99v13q-2 10 -2 14z" />
    <glyph glyph-name="atilde" unicode="&#xe3;" horiz-adv-x="336" 
d="M336 237q0 -52 -74 -149q-82 -107 -151 -107q-34 0 -54.5 24t-20.5 56q0 36 36 81q6 7 46 51q49 52 68 81.5t19 50.5q0 22 -19 22q-22 0 -53.5 -24t-50.5 -58q-11 -19 -20 -26.5t-19 -7.5q-9 0 -16 7t-7 17q0 27 52 73q47 42 72 53t53 11q22 0 39 -17t17 -48
q0 -34 -27 -75q-14 -21 -49 -60q-58 -63 -62 -68q-26 -33 -26 -59q0 -22 8.5 -31.5t21.5 -9.5q31 0 84 56t67 110q5 22 11 44q10 26 30 26q25 0 25 -23z" />
    <glyph glyph-name="atilde" unicode="&#x433;" horiz-adv-x="336" 
d="M336 237q0 -52 -74 -149q-82 -107 -151 -107q-34 0 -54.5 24t-20.5 56q0 36 36 81q6 7 46 51q49 52 68 81.5t19 50.5q0 22 -19 22q-22 0 -53.5 -24t-50.5 -58q-11 -19 -20 -26.5t-19 -7.5q-9 0 -16 7t-7 17q0 27 52 73q47 42 72 53t53 11q22 0 39 -17t17 -48
q0 -34 -27 -75q-14 -21 -49 -60q-58 -63 -62 -68q-26 -33 -26 -59q0 -22 8.5 -31.5t21.5 -9.5q31 0 84 56t67 110q5 22 11 44q10 26 30 26q25 0 25 -23z" />
    <glyph glyph-name="adieresis" unicode="&#xe4;" horiz-adv-x="349" 
d="M323 212q0 -33 -8 -69q-18 -81 -19 -86q-30 -157 -48 -199q-47 -109 -146 -109q-51 0 -84 27q-38 31 -38 85q0 31 8 45.5t18 14.5q23 0 23 -16q0 -9 -2.5 -22.5t-2.5 -23.5t1 -14q5 -25 24.5 -42.5t49.5 -17.5q80 0 121 103q32 81 32 197q-25 -37 -58 -64
q-47 -39 -89 -39q-36 0 -56 26.5t-20 70.5q0 101 68 197.5t143 96.5q48 0 70 -36q18 -29 18 -76q0 -27 -5 -49zM282 272q0 56 -46 56q-50 0 -108.5 -88.5t-58.5 -165.5q0 -29 13 -45q10 -12 24 -12q34 0 80.5 48.5t54.5 89.5q5 28 7 33q7 17 26 25q2 11 5 30.5t3 28.5z" />
    <glyph glyph-name="adieresis" unicode="&#x434;" horiz-adv-x="349" 
d="M323 212q0 -33 -8 -69q-18 -81 -19 -86q-30 -157 -48 -199q-47 -109 -146 -109q-51 0 -84 27q-38 31 -38 85q0 31 8 45.5t18 14.5q23 0 23 -16q0 -9 -2.5 -22.5t-2.5 -23.5t1 -14q5 -25 24.5 -42.5t49.5 -17.5q80 0 121 103q32 81 32 197q-25 -37 -58 -64
q-47 -39 -89 -39q-36 0 -56 26.5t-20 70.5q0 101 68 197.5t143 96.5q48 0 70 -36q18 -29 18 -76q0 -27 -5 -49zM282 272q0 56 -46 56q-50 0 -108.5 -88.5t-58.5 -165.5q0 -29 13 -45q10 -12 24 -12q34 0 80.5 48.5t54.5 89.5q5 28 7 33q7 17 26 25q2 11 5 30.5t3 28.5z" />
    <glyph glyph-name="aring" unicode="&#xe5;" horiz-adv-x="303" 
d="M295 241q0 -62 -60 -152q-66 -99 -129 -99q-37 0 -59 25q-26 30 -26 93q0 95 48.5 187.5t98.5 92.5q19 0 33 -13q20 -19 20 -55q0 -66 -35.5 -115t-88.5 -49q-11 0 -23 3q-2 -12 -4 -26t-2 -25q0 -33 9.5 -53.5t32.5 -20.5q35 0 81.5 65t60.5 129q4 17 7 24q7 15 19 15
q17 0 17 -26zM177 314q0 26 -16 26q-17 0 -40.5 -44.5t-36.5 -92.5q5 -3 10.5 -4t9.5 -1q30 0 51.5 38t21.5 78z" />
    <glyph glyph-name="aring" unicode="&#x435;" horiz-adv-x="303" 
d="M295 241q0 -62 -60 -152q-66 -99 -129 -99q-37 0 -59 25q-26 30 -26 93q0 95 48.5 187.5t98.5 92.5q19 0 33 -13q20 -19 20 -55q0 -66 -35.5 -115t-88.5 -49q-11 0 -23 3q-2 -12 -4 -26t-2 -25q0 -33 9.5 -53.5t32.5 -20.5q35 0 81.5 65t60.5 129q4 17 7 24q7 15 19 15
q17 0 17 -26zM177 314q0 26 -16 26q-17 0 -40.5 -44.5t-36.5 -92.5q5 -3 10.5 -4t9.5 -1q30 0 51.5 38t21.5 78z" />
    <glyph glyph-name="ae" unicode="&#xe6;" horiz-adv-x="646" 
d="M646 182q0 -13 -8 -30t-11 -24q-30 -62 -51 -92q-40 -58 -76 -58q-27 0 -42 21t-15 58q0 33 4 71t12 73q-35 -51 -42 -61q-17 -23 -27 -38q-29 -50 -41 -69q-22 -33 -43 -33q-15 0 -19 7.5t-4 22.5q0 37 14 104q11 54 25 99q-28 -27 -62 -64q-42 -45 -64 -75.5t-44 -61.5
q-27 -33 -50 -33q-19 0 -19 28q0 19 21 39q10 10 41 31q22 38 45.5 120.5t23.5 132.5q0 14 -4.5 22t-9.5 8q-17 0 -46 -26q-35 -31 -72 -86l-28 -49q-15 -24 -30 -24q-8 0 -16 7t-8 20q0 25 52 85q45 53 88 86q14 11 35 21q27 13 46 13q15 0 26 -18t11 -55t-9.5 -83.5
t-22.5 -86.5l114 119q18 47 35 69q26 34 56 34q26 0 26 -21q0 -8 -10.5 -21.5t-36.5 -36.5q-29 -39 -48.5 -101.5t-19.5 -125.5q50 76 70 103q37 51 67 79q34 32 60 32q13 0 20 -7t7 -16q0 -15 -13.5 -25.5t-33.5 -19.5q-15 -37 -24 -80.5t-9 -75.5q0 -39 7 -52t17 -13
q15 0 38 33t32 61q7 28 15 57q10 27 34 27q7 0 12 -5t5 -16z" />
    <glyph glyph-name="ae" unicode="&#x436;" horiz-adv-x="646" 
d="M646 182q0 -13 -8 -30t-11 -24q-30 -62 -51 -92q-40 -58 -76 -58q-27 0 -42 21t-15 58q0 33 4 71t12 73q-35 -51 -42 -61q-17 -23 -27 -38q-29 -50 -41 -69q-22 -33 -43 -33q-15 0 -19 7.5t-4 22.5q0 37 14 104q11 54 25 99q-28 -27 -62 -64q-42 -45 -64 -75.5t-44 -61.5
q-27 -33 -50 -33q-19 0 -19 28q0 19 21 39q10 10 41 31q22 38 45.5 120.5t23.5 132.5q0 14 -4.5 22t-9.5 8q-17 0 -46 -26q-35 -31 -72 -86l-28 -49q-15 -24 -30 -24q-8 0 -16 7t-8 20q0 25 52 85q45 53 88 86q14 11 35 21q27 13 46 13q15 0 26 -18t11 -55t-9.5 -83.5
t-22.5 -86.5l114 119q18 47 35 69q26 34 56 34q26 0 26 -21q0 -8 -10.5 -21.5t-36.5 -36.5q-29 -39 -48.5 -101.5t-19.5 -125.5q50 76 70 103q37 51 67 79q34 32 60 32q13 0 20 -7t7 -16q0 -15 -13.5 -25.5t-33.5 -19.5q-15 -37 -24 -80.5t-9 -75.5q0 -39 7 -52t17 -13
q15 0 38 33t32 61q7 28 15 57q10 27 34 27q7 0 12 -5t5 -16z" />
    <glyph glyph-name="ccedilla" unicode="&#xe7;" horiz-adv-x="342" 
d="M322 324q0 -26 -24 -54.5t-56 -45.5q19 -5 32 -16q21 -18 21 -46q0 -51 -66 -113.5t-125 -62.5q-30 0 -49 17q-23 20 -23 57q0 27 11 44t24 17q8 0 14 -5t6 -15q0 -8 -6 -20t-6 -24q0 -18 8.5 -26.5t27.5 -8.5q37 0 88.5 50.5t51.5 86.5q0 14 -8 24q-12 15 -38 15
q-10 0 -24 -4.5t-28.5 -9.5t-27.5 -9.5t-21 -4.5q-10 0 -16 5t-6 12q0 19 33 28.5t64 18.5q46 19 74 44.5t28 46.5q0 17 -18 26t-44 9q-25 0 -60.5 -12t-65.5 -34q-19 -46 -58 -46q-12 0 -16 8t-4 13q0 32 72 70t130 38q53 0 81 -24q24 -20 24 -49z" />
    <glyph glyph-name="ccedilla" unicode="&#x437;" horiz-adv-x="342" 
d="M322 324q0 -26 -24 -54.5t-56 -45.5q19 -5 32 -16q21 -18 21 -46q0 -51 -66 -113.5t-125 -62.5q-30 0 -49 17q-23 20 -23 57q0 27 11 44t24 17q8 0 14 -5t6 -15q0 -8 -6 -20t-6 -24q0 -18 8.5 -26.5t27.5 -8.5q37 0 88.5 50.5t51.5 86.5q0 14 -8 24q-12 15 -38 15
q-10 0 -24 -4.5t-28.5 -9.5t-27.5 -9.5t-21 -4.5q-10 0 -16 5t-6 12q0 19 33 28.5t64 18.5q46 19 74 44.5t28 46.5q0 17 -18 26t-44 9q-25 0 -60.5 -12t-65.5 -34q-19 -46 -58 -46q-12 0 -16 8t-4 13q0 32 72 70t130 38q53 0 81 -24q24 -20 24 -49z" />
    <glyph glyph-name="egrave" unicode="&#xe8;" horiz-adv-x="400" 
d="M395 174q-17 -37 -48 -84q-38 -56 -70 -83q-20 -16 -35 -16q-21 0 -32.5 28.5t-8.5 54.5q-31 -41 -55 -62q-19 -17 -36.5 -24t-27.5 -7q-18 0 -33 19q-7 10 -11 27t-4 32q0 20 2 33t7 33q13 50 43.5 112t62.5 100q8 10 15 13.5t16 3.5q10 0 18 -6t8 -18q0 -13 -14 -31
q-36 -49 -64 -100q-34 -63 -44 -111q-4 -20 -4 -35q0 -28 13 -28q8 0 31 20q18 16 29 28q23 27 42 55q16 24 27 48q7 15 23 53q10 25 17 34t15 13.5t14 4.5q12 0 18 -7t6 -18q0 -15 -12 -35q-19 -32 -37 -63q-14 -28 -21 -56q-2 -8 -3 -14.5t-1 -16.5q0 -28 13 -28q7 0 15 7
q21 18 42 52q18 29 42 81q8 17 14.5 23t15.5 6q17 0 17 -19q0 -6 -5 -19z" />
    <glyph glyph-name="egrave" unicode="&#x438;" horiz-adv-x="400" 
d="M395 174q-17 -37 -48 -84q-38 -56 -70 -83q-20 -16 -35 -16q-21 0 -32.5 28.5t-8.5 54.5q-31 -41 -55 -62q-19 -17 -36.5 -24t-27.5 -7q-18 0 -33 19q-7 10 -11 27t-4 32q0 20 2 33t7 33q13 50 43.5 112t62.5 100q8 10 15 13.5t16 3.5q10 0 18 -6t8 -18q0 -13 -14 -31
q-36 -49 -64 -100q-34 -63 -44 -111q-4 -20 -4 -35q0 -28 13 -28q8 0 31 20q18 16 29 28q23 27 42 55q16 24 27 48q7 15 23 53q10 25 17 34t15 13.5t14 4.5q12 0 18 -7t6 -18q0 -15 -12 -35q-19 -32 -37 -63q-14 -28 -21 -56q-2 -8 -3 -14.5t-1 -16.5q0 -28 13 -28q7 0 15 7
q21 18 42 52q18 29 42 81q8 17 14.5 23t15.5 6q17 0 17 -19q0 -6 -5 -19z" />
    <glyph glyph-name="eacute" unicode="&#xe9;" horiz-adv-x="400" 
d="M365 374q0 -18 -19 -27t-42 -9q-33 0 -53 20t-20 54q0 23 11 42t25 19q20 0 20 -22q0 -7 -2.5 -15t-6 -19.5t-3.5 -16.5q0 -13 7 -20t26 -7q18 0 30 6.5t18 6.5q5 0 7 -4t2 -8zM395 174q-17 -37 -48 -84q-38 -56 -70 -83q-20 -16 -35 -16q-21 0 -32.5 28.5t-8.5 54.5
q-31 -41 -55 -62q-19 -17 -36.5 -24t-27.5 -7q-18 0 -33 19q-7 10 -11 27t-4 32q0 20 2 33t7 33q13 50 43.5 112t62.5 100q8 10 15 13.5t16 3.5q10 0 18 -6t8 -18q0 -13 -14 -31q-36 -49 -64 -100q-34 -63 -44 -111q-4 -20 -4 -35q0 -28 13 -28q8 0 31 20q18 16 29 28
q23 27 42 55q16 24 27 48q7 15 23 53q10 25 17 34t15 13.5t14 4.5q12 0 18 -7t6 -18q0 -15 -12 -35q-19 -32 -37 -63q-14 -28 -21 -56q-2 -8 -3 -14.5t-1 -16.5q0 -28 13 -28q7 0 15 7q21 18 42 52q18 29 42 81q8 17 14.5 23t15.5 6q17 0 17 -19q0 -6 -5 -19z" />
    <glyph glyph-name="eacute" unicode="&#x439;" horiz-adv-x="400" 
d="M365 374q0 -18 -19 -27t-42 -9q-33 0 -53 20t-20 54q0 23 11 42t25 19q20 0 20 -22q0 -7 -2.5 -15t-6 -19.5t-3.5 -16.5q0 -13 7 -20t26 -7q18 0 30 6.5t18 6.5q5 0 7 -4t2 -8zM395 174q-17 -37 -48 -84q-38 -56 -70 -83q-20 -16 -35 -16q-21 0 -32.5 28.5t-8.5 54.5
q-31 -41 -55 -62q-19 -17 -36.5 -24t-27.5 -7q-18 0 -33 19q-7 10 -11 27t-4 32q0 20 2 33t7 33q13 50 43.5 112t62.5 100q8 10 15 13.5t16 3.5q10 0 18 -6t8 -18q0 -13 -14 -31q-36 -49 -64 -100q-34 -63 -44 -111q-4 -20 -4 -35q0 -28 13 -28q8 0 31 20q18 16 29 28
q23 27 42 55q16 24 27 48q7 15 23 53q10 25 17 34t15 13.5t14 4.5q12 0 18 -7t6 -18q0 -15 -12 -35q-19 -32 -37 -63q-14 -28 -21 -56q-2 -8 -3 -14.5t-1 -16.5q0 -28 13 -28q7 0 15 7q21 18 42 52q18 29 42 81q8 17 14.5 23t15.5 6q17 0 17 -19q0 -6 -5 -19z" />
    <glyph glyph-name="ecircumflex" unicode="&#xea;" horiz-adv-x="377" 
d="M377 148q0 -11 -7 -23.5t-22 -30.5q-51 -63 -56 -68q-39 -40 -67 -40q-34 0 -60 45q-9 16 -34 81q-8 21 -15 29q-10 12 -30 16q-6 -22 -10 -38t-7 -36q-2 -43 -5 -63t-29 -20q-11 0 -15.5 6.5t-4.5 25.5q0 26 8 60q10 36 16 63q-17 -4 -17 10q0 13 6 25t21 14
q13 48 22 74.5t10 29.5q5 29 10 40q12 27 36 27q20 0 20 -14q-13 -33 -25 -66q-15 -39 -25 -91q36 -3 77.5 27.5t71.5 72.5q7 9 15 34q12 36 30 36q9 0 16 -4.5t7 -14.5q0 -39 -48 -95q-52 -61 -119 -87q19 -21 26 -38q0 -1 11.5 -36t17.5 -46q13 -24 30 -24q18 0 46 39
q16 25 22 33q14 22 28 45q16 22 30 22q19 0 19 -20z" />
    <glyph glyph-name="ecircumflex" unicode="&#x43a;" horiz-adv-x="377" 
d="M377 148q0 -11 -7 -23.5t-22 -30.5q-51 -63 -56 -68q-39 -40 -67 -40q-34 0 -60 45q-9 16 -34 81q-8 21 -15 29q-10 12 -30 16q-6 -22 -10 -38t-7 -36q-2 -43 -5 -63t-29 -20q-11 0 -15.5 6.5t-4.5 25.5q0 26 8 60q10 36 16 63q-17 -4 -17 10q0 13 6 25t21 14
q13 48 22 74.5t10 29.5q5 29 10 40q12 27 36 27q20 0 20 -14q-13 -33 -25 -66q-15 -39 -25 -91q36 -3 77.5 27.5t71.5 72.5q7 9 15 34q12 36 30 36q9 0 16 -4.5t7 -14.5q0 -39 -48 -95q-52 -61 -119 -87q19 -21 26 -38q0 -1 11.5 -36t17.5 -46q13 -24 30 -24q18 0 46 39
q16 25 22 33q14 22 28 45q16 22 30 22q19 0 19 -20z" />
    <glyph glyph-name="edieresis" unicode="&#xeb;" horiz-adv-x="452" 
d="M447 161q-13 -39 -32 -73q-22 -40 -50 -70q-20 -21 -35 -28t-29 -7q-16 0 -28 15.5t-12 48.5q0 22 5 47q20 104 27 159v13l-3 6h-7q-14 -5 -40 -46q-22 -34 -59 -101.5t-55 -92.5q-37 -50 -73 -50q-23 0 -39.5 25t-16.5 71q0 36 14 58t33 22q9 0 14 -4q10 -8 10 -25
q0 -12 -6.5 -23t-17.5 -21q-2 -5 -3 -13t-1 -12q0 -17 6 -27.5t13 -10.5q12 0 35 37q61 108 111 188q27 43 49 68q39 43 71 43q10 0 18.5 -8.5t8.5 -30.5q0 -14 -3 -33q-10 -49 -18 -94.5t-12 -72.5q-7 -48 -7 -63q0 -10 3.5 -13.5t7.5 -3.5q9 0 25.5 22t28.5 50q2 5 15 46
q17 54 36 54q10 0 15.5 -6.5t5.5 -17.5q0 -8 -5 -26z" />
    <glyph glyph-name="edieresis" unicode="&#x43b;" horiz-adv-x="452" 
d="M447 161q-13 -39 -32 -73q-22 -40 -50 -70q-20 -21 -35 -28t-29 -7q-16 0 -28 15.5t-12 48.5q0 22 5 47q20 104 27 159v13l-3 6h-7q-14 -5 -40 -46q-22 -34 -59 -101.5t-55 -92.5q-37 -50 -73 -50q-23 0 -39.5 25t-16.5 71q0 36 14 58t33 22q9 0 14 -4q10 -8 10 -25
q0 -12 -6.5 -23t-17.5 -21q-2 -5 -3 -13t-1 -12q0 -17 6 -27.5t13 -10.5q12 0 35 37q61 108 111 188q27 43 49 68q39 43 71 43q10 0 18.5 -8.5t8.5 -30.5q0 -14 -3 -33q-10 -49 -18 -94.5t-12 -72.5q-7 -48 -7 -63q0 -10 3.5 -13.5t7.5 -3.5q9 0 25.5 22t28.5 50q2 5 15 46
q17 54 36 54q10 0 15.5 -6.5t5.5 -17.5q0 -8 -5 -26z" />
    <glyph glyph-name="igrave" unicode="&#xec;" horiz-adv-x="630" 
d="M630 216q0 -23 -22 -67q-25 -50 -63 -95q-33 -39 -64 -57q-23 -13 -40 -13q-11 0 -18 16t-7 36v12q2 9 2 14q5 32 17 82q9 38 19 77l6 28q2 6 -2 10q-2 0 -3 1q-2 -1 -4.5 -2t-7.5 -6q-36 -35 -94 -122q-19 -29 -58 -90q-14 -21 -23 -31t-17 -10q-11 0 -11 16q1 12 1 16
q0 9 2.5 21t5 31t8 43t13 59t11.5 65l2 12q0 5 -0.5 9.5t-6.5 4.5q-10 0 -32 -28q-17 -21 -26 -37q-63 -110 -84 -146q-34 -56 -62 -72q-13 -7 -24 -7q-23 0 -35.5 25t-12.5 60q0 53 16 78q13 20 30 20q9 0 17 -6t8 -16q0 -13 -7 -22q-9 -9 -14.5 -15.5t-8.5 -20.5t-3 -27
q0 -32 16 -32q11 0 27 25q43 77 76 135q25 42 49 75q66 90 105 90q29 0 29 -41q0 -14 -7 -53q-12 -65 -18 -107q35 54 83 108q63 71 91 71q15 0 20.5 -8.5t5.5 -23.5q0 -7 -3 -27.5t-15 -64t-23 -98.5q-4 -18 -7 -36t0 -24q3 -5 8 -5t22 15q48 46 71 100q33 77 41 77
q14 0 17.5 -5t3.5 -17z" />
    <glyph glyph-name="igrave" unicode="&#x43c;" horiz-adv-x="630" 
d="M630 216q0 -23 -22 -67q-25 -50 -63 -95q-33 -39 -64 -57q-23 -13 -40 -13q-11 0 -18 16t-7 36v12q2 9 2 14q5 32 17 82q9 38 19 77l6 28q2 6 -2 10q-2 0 -3 1q-2 -1 -4.5 -2t-7.5 -6q-36 -35 -94 -122q-19 -29 -58 -90q-14 -21 -23 -31t-17 -10q-11 0 -11 16q1 12 1 16
q0 9 2.5 21t5 31t8 43t13 59t11.5 65l2 12q0 5 -0.5 9.5t-6.5 4.5q-10 0 -32 -28q-17 -21 -26 -37q-63 -110 -84 -146q-34 -56 -62 -72q-13 -7 -24 -7q-23 0 -35.5 25t-12.5 60q0 53 16 78q13 20 30 20q9 0 17 -6t8 -16q0 -13 -7 -22q-9 -9 -14.5 -15.5t-8.5 -20.5t-3 -27
q0 -32 16 -32q11 0 27 25q43 77 76 135q25 42 49 75q66 90 105 90q29 0 29 -41q0 -14 -7 -53q-12 -65 -18 -107q35 54 83 108q63 71 91 71q15 0 20.5 -8.5t5.5 -23.5q0 -7 -3 -27.5t-15 -64t-23 -98.5q-4 -18 -7 -36t0 -24q3 -5 8 -5t22 15q48 46 71 100q33 77 41 77
q14 0 17.5 -5t3.5 -17z" />
    <glyph glyph-name="iacute" unicode="&#xed;" horiz-adv-x="415" 
d="M415 197q0 -34 -53 -119q-59 -94 -103 -94q-22 0 -38 17q-19 21 -19 56q0 21 5.5 48.5t14.5 53.5q-16 -6 -35 -12q-47 -14 -102 -14q-8 -19 -16.5 -44.5t-10.5 -42.5t-4 -33q-5 -16 -24 -16q-12 0 -17.5 7.5t-5.5 19.5q0 13 5 36.5t22 72.5q-14 5 -14 25q0 12 6.5 20.5
t21.5 5.5q39 118 67 166q21 36 41 36q10 0 18 -5t8 -17q0 -11 -7.5 -27t-17.5 -28q-14 -16 -23 -37q-15 -34 -36 -90q33 0 65.5 5t72.5 21q50 131 75 131q27 0 27 -22q0 -8 -11 -31q-24 -50 -41 -92t-27.5 -79t-10.5 -52q0 -19 2.5 -28t12.5 -9q18 0 49 46q24 36 43 79
q8 20 17 40q13 24 28 24t15 -18z" />
    <glyph glyph-name="iacute" unicode="&#x43d;" horiz-adv-x="415" 
d="M415 197q0 -34 -53 -119q-59 -94 -103 -94q-22 0 -38 17q-19 21 -19 56q0 21 5.5 48.5t14.5 53.5q-16 -6 -35 -12q-47 -14 -102 -14q-8 -19 -16.5 -44.5t-10.5 -42.5t-4 -33q-5 -16 -24 -16q-12 0 -17.5 7.5t-5.5 19.5q0 13 5 36.5t22 72.5q-14 5 -14 25q0 12 6.5 20.5
t21.5 5.5q39 118 67 166q21 36 41 36q10 0 18 -5t8 -17q0 -11 -7.5 -27t-17.5 -28q-14 -16 -23 -37q-15 -34 -36 -90q33 0 65.5 5t72.5 21q50 131 75 131q27 0 27 -22q0 -8 -11 -31q-24 -50 -41 -92t-27.5 -79t-10.5 -52q0 -19 2.5 -28t12.5 -9q18 0 49 46q24 36 43 79
q8 20 17 40q13 24 28 24t15 -18z" />
    <glyph glyph-name="icircumflex" unicode="&#xee;" horiz-adv-x="386" 
d="M365 242q0 -118 -77 -195q-67 -67 -145 -67q-56 0 -88 38t-32 105q0 87 61.5 187t120.5 91q15 3 31 3q57 0 91 -39q38 -43 38 -123zM318 242q0 61 -27 92q-22 25 -52 25q-17 0 -24.5 -1.5t-17.5 -6.5q-51 -22 -88.5 -93t-37.5 -140q0 -49 23 -73q20 -21 51 -21
q66 0 119.5 66.5t53.5 151.5z" />
    <glyph glyph-name="icircumflex" unicode="&#x43e;" horiz-adv-x="386" 
d="M365 242q0 -118 -77 -195q-67 -67 -145 -67q-56 0 -88 38t-32 105q0 87 61.5 187t120.5 91q15 3 31 3q57 0 91 -39q38 -43 38 -123zM318 242q0 61 -27 92q-22 25 -52 25q-17 0 -24.5 -1.5t-17.5 -6.5q-51 -22 -88.5 -93t-37.5 -140q0 -49 23 -73q20 -21 51 -21
q66 0 119.5 66.5t53.5 151.5z" />
    <glyph glyph-name="idieresis" unicode="&#xef;" horiz-adv-x="411" 
d="M411 192q0 -7 -4.5 -19t-18.5 -43q-37 -76 -73 -114q-31 -32 -57 -32q-14 0 -25 6q-32 18 -32 73q0 38 9 86q1 3 13 60q9 39 13.5 54.5t8.5 28.5q0 6 -3 8q-2 0 -3 1q-16 0 -72.5 -85.5t-100.5 -174.5q-11 -22 -20.5 -29t-17.5 -7q-6 0 -12 10.5t-6 28.5q0 32 19 106
q16 61 34 112q7 21 15 44.5t10 42.5l3 24q4 15 15.5 26t25.5 11q9 0 17 -6t8 -19q0 -14 -36 -105q-29 -70 -44 -136q92 140 142 196q33 37 49 37q15 0 21 -5q12 -10 12 -38q0 -14 -5 -35q-8 -26 -12 -45q-15 -57 -21 -86q-12 -52 -12 -90v-27q1 -15 6 -20.5t11 -5.5
q11 0 24 15q20 22 42 75l26 64q16 32 36 32q15 0 15 -19z" />
    <glyph glyph-name="idieresis" unicode="&#x43f;" horiz-adv-x="411" 
d="M411 192q0 -7 -4.5 -19t-18.5 -43q-37 -76 -73 -114q-31 -32 -57 -32q-14 0 -25 6q-32 18 -32 73q0 38 9 86q1 3 13 60q9 39 13.5 54.5t8.5 28.5q0 6 -3 8q-2 0 -3 1q-16 0 -72.5 -85.5t-100.5 -174.5q-11 -22 -20.5 -29t-17.5 -7q-6 0 -12 10.5t-6 28.5q0 32 19 106
q16 61 34 112q7 21 15 44.5t10 42.5l3 24q4 15 15.5 26t25.5 11q9 0 17 -6t8 -19q0 -14 -36 -105q-29 -70 -44 -136q92 140 142 196q33 37 49 37q15 0 21 -5q12 -10 12 -38q0 -14 -5 -35q-8 -26 -12 -45q-15 -57 -21 -86q-12 -52 -12 -90v-27q1 -15 6 -20.5t11 -5.5
q11 0 24 15q20 22 42 75l26 64q16 32 36 32q15 0 15 -19z" />
    <glyph glyph-name="eth" unicode="&#xf0;" horiz-adv-x="399" 
d="M376 243q0 -117 -63 -198q-57 -73 -120 -73q-22 0 -57 16t-65 43l-3 3q-26 -92 -39.5 -153t-13.5 -87q0 -4 2 -13t2 -14q0 -18 -10 -27t-22 -9q-15 0 -23 10t-8 26q0 34 41 184q30 111 59 202q46 147 51 163q29 85 57 85q13 0 18.5 -6.5t5.5 -18.5q0 -11 -6 -22
q-23 -43 -27 -59q36 43 70.5 68t62.5 25q36 0 62 -37.5t26 -107.5zM329 233q0 56 -18 87q-14 25 -32 25q-24 0 -61.5 -38.5t-76.5 -102.5q-34 -57 -59 -122q18 -21 54.5 -43.5t62.5 -22.5q46 0 86 60q44 66 44 157z" />
    <glyph glyph-name="eth" unicode="&#x440;" horiz-adv-x="399" 
d="M376 243q0 -117 -63 -198q-57 -73 -120 -73q-22 0 -57 16t-65 43l-3 3q-26 -92 -39.5 -153t-13.5 -87q0 -4 2 -13t2 -14q0 -18 -10 -27t-22 -9q-15 0 -23 10t-8 26q0 34 41 184q30 111 59 202q46 147 51 163q29 85 57 85q13 0 18.5 -6.5t5.5 -18.5q0 -11 -6 -22
q-23 -43 -27 -59q36 43 70.5 68t62.5 25q36 0 62 -37.5t26 -107.5zM329 233q0 56 -18 87q-14 25 -32 25q-24 0 -61.5 -38.5t-76.5 -102.5q-34 -57 -59 -122q18 -21 54.5 -43.5t62.5 -22.5q46 0 86 60q44 66 44 157z" />
    <glyph glyph-name="ntilde" unicode="&#xf1;" horiz-adv-x="386" 
d="M382 204q-24 -73 -98 -147q-87 -87 -169 -87q-45 0 -72 27t-27 76t20 109q13 40 27 64q39 74 85 110q40 32 79 32q43 0 66 -35q20 -30 20 -75q-18 -49 -21 -57q-21 -47 -45 -47q-12 0 -19 8t-7 18q0 13 10.5 36.5t22.5 50.5q1 2 1 7v8q0 17 -5 26q-8 13 -26 13
q-39 0 -96 -84q-24 -35 -39 -66q-18 -38 -24 -62.5t-6 -50.5q0 -32 15 -51t39 -19q55 0 125.5 66.5t101.5 141.5q6 15 9 19q7 11 18 11q19 0 19 -21q0 -9 -4 -21z" />
    <glyph glyph-name="ntilde" unicode="&#x441;" horiz-adv-x="386" 
d="M382 204q-24 -73 -98 -147q-87 -87 -169 -87q-45 0 -72 27t-27 76t20 109q13 40 27 64q39 74 85 110q40 32 79 32q43 0 66 -35q20 -30 20 -75q-18 -49 -21 -57q-21 -47 -45 -47q-12 0 -19 8t-7 18q0 13 10.5 36.5t22.5 50.5q1 2 1 7v8q0 17 -5 26q-8 13 -26 13
q-39 0 -96 -84q-24 -35 -39 -66q-18 -38 -24 -62.5t-6 -50.5q0 -32 15 -51t39 -19q55 0 125.5 66.5t101.5 141.5q6 15 9 19q7 11 18 11q19 0 19 -21q0 -9 -4 -21z" />
    <glyph glyph-name="ograve" unicode="&#xf2;" horiz-adv-x="587" 
d="M587 236q0 -7 -7 -22.5t-36 -67.5q-38 -69 -60 -98q-44 -59 -77 -59q-24 0 -36.5 21.5t-12.5 51.5t17 86q14 45 28 91q2 7 0 10l-6 3q-7 0 -42 -44q-28 -36 -51 -69q-1 -1 -66 -102q-25 -39 -38 -39q-7 0 -13.5 11.5t-6.5 26.5q0 12 5 27q18 45 34 90q21 62 24 70
q11 34 11 46t-12 12q-5 0 -16 -10q-6 -5 -16 -17q-34 -37 -75 -97q-50 -72 -74 -127q-8 -17 -13 -24q-11 -15 -25 -15q-8 0 -15.5 10t-7.5 26q0 22 13 61q18 55 73 178q15 34 16.5 39.5t2.5 26.5t7 36.5t21.5 31.5t27.5 16q9 0 16.5 -8.5t7.5 -26.5q0 -16 -21 -59
q-44 -90 -75 -167q69 103 108 145t66 42q18 0 29.5 -10t11.5 -36q0 -25 -12 -69q-7 -24 -20 -63q58 81 70 96q55 70 91 70q17 0 23 -9.5t6 -20.5t-4 -28.5t-19 -65.5q-10 -34 -19 -68q-13 -51 -13 -69q0 -16 3 -24t8 -8q10 0 23 18.5t44 76.5q64 122 83 122q10 0 14.5 -5.5
t4.5 -12.5z" />
    <glyph glyph-name="ograve" unicode="&#x442;" horiz-adv-x="587" 
d="M587 236q0 -7 -7 -22.5t-36 -67.5q-38 -69 -60 -98q-44 -59 -77 -59q-24 0 -36.5 21.5t-12.5 51.5t17 86q14 45 28 91q2 7 0 10l-6 3q-7 0 -42 -44q-28 -36 -51 -69q-1 -1 -66 -102q-25 -39 -38 -39q-7 0 -13.5 11.5t-6.5 26.5q0 12 5 27q18 45 34 90q21 62 24 70
q11 34 11 46t-12 12q-5 0 -16 -10q-6 -5 -16 -17q-34 -37 -75 -97q-50 -72 -74 -127q-8 -17 -13 -24q-11 -15 -25 -15q-8 0 -15.5 10t-7.5 26q0 22 13 61q18 55 73 178q15 34 16.5 39.5t2.5 26.5t7 36.5t21.5 31.5t27.5 16q9 0 16.5 -8.5t7.5 -26.5q0 -16 -21 -59
q-44 -90 -75 -167q69 103 108 145t66 42q18 0 29.5 -10t11.5 -36q0 -25 -12 -69q-7 -24 -20 -63q58 81 70 96q55 70 91 70q17 0 23 -9.5t6 -20.5t-4 -28.5t-19 -65.5q-10 -34 -19 -68q-13 -51 -13 -69q0 -16 3 -24t8 -8q10 0 23 18.5t44 76.5q64 122 83 122q10 0 14.5 -5.5
t4.5 -12.5z" />
    <glyph glyph-name="oacute" unicode="&#xf3;" horiz-adv-x="324" 
d="M303 274q0 -11 -5.5 -27.5t-12.5 -33.5q-28 -158 -56 -315q-46 -165 -151 -165q-53 0 -83 55q-26 47 -26 114q0 24 8.5 34.5t21.5 10.5q26 0 26 -26q0 -14 -13 -26q-2 -8 -2 -24q0 -39 21 -67t47 -28q55 0 96.5 100.5t41.5 214.5q-26 -40 -59 -71q-43 -40 -74 -40
q-15 0 -28 14q-20 22 -20 65q0 88 41.5 190.5t83.5 102.5q12 0 18 -7t6 -18q0 -12 -31 -46q-21 -23 -33 -51.5t-26.5 -78t-14.5 -78.5q0 -25 6 -36t11 -11q22 0 74 76q45 65 61 103q3 8 17 68q7 29 30 29q14 0 19.5 -6.5t5.5 -21.5z" />
    <glyph glyph-name="oacute" unicode="&#x443;" horiz-adv-x="324" 
d="M303 274q0 -11 -5.5 -27.5t-12.5 -33.5q-28 -158 -56 -315q-46 -165 -151 -165q-53 0 -83 55q-26 47 -26 114q0 24 8.5 34.5t21.5 10.5q26 0 26 -26q0 -14 -13 -26q-2 -8 -2 -24q0 -39 21 -67t47 -28q55 0 96.5 100.5t41.5 214.5q-26 -40 -59 -71q-43 -40 -74 -40
q-15 0 -28 14q-20 22 -20 65q0 88 41.5 190.5t83.5 102.5q12 0 18 -7t6 -18q0 -12 -31 -46q-21 -23 -33 -51.5t-26.5 -78t-14.5 -78.5q0 -25 6 -36t11 -11q22 0 74 76q45 65 61 103q3 8 17 68q7 29 30 29q14 0 19.5 -6.5t5.5 -21.5z" />
    <glyph glyph-name="ocircumflex" unicode="&#xf4;" horiz-adv-x="624" 
d="M600 174q-21 -106 -79 -162q-49 -47 -105 -47q-32 0 -63.5 19.5t-53.5 47.5q-20 -56 -35 -104t-16 -57t-1 -16.5v-11.5v-21t1 -22v-37q0 -26 -9.5 -35.5t-20.5 -9.5q-12 0 -23 15.5t-11 40.5q0 31 15.5 86.5t79.5 237.5q-52 -57 -80 -80q-49 -40 -88 -40
q-20 0 -41.5 14.5t-32.5 37.5q-14 29 -14 69q0 33 11.5 78t41.5 92q34 54 74 76q13 7 32.5 12.5t38.5 5.5q31 0 60.5 -14t53.5 -48q24 69 48 139q30 73 62 73q8 0 13 -3q13 -8 13 -19q0 -13 -16.5 -36t-31.5 -45q-14 -25 -30 -72q-11 -33 -24 -73l54 50q26 24 51 34.5
t47 10.5q20 0 35 -6.5t27 -19.5t18 -37.5t6 -53.5q0 -38 -7 -69zM556 182q7 34 7 62q0 39 -14.5 58t-37.5 19q-19 0 -40 -12q-31 -18 -74 -72t-61 -99l-20 -49q15 -38 45.5 -61.5t64.5 -23.5q22 0 39 10q33 18 59 70q21 43 32 98zM322 253q-16 33 -42.5 50.5t-57.5 17.5
q-33 0 -59.5 -19.5t-51.5 -62.5q-21 -36 -32 -73.5t-11 -71.5q0 -45 19 -64q12 -12 27 -12q45 0 115 87q60 74 93 148z" />
    <glyph glyph-name="ocircumflex" unicode="&#x444;" horiz-adv-x="624" 
d="M600 174q-21 -106 -79 -162q-49 -47 -105 -47q-32 0 -63.5 19.5t-53.5 47.5q-20 -56 -35 -104t-16 -57t-1 -16.5v-11.5v-21t1 -22v-37q0 -26 -9.5 -35.5t-20.5 -9.5q-12 0 -23 15.5t-11 40.5q0 31 15.5 86.5t79.5 237.5q-52 -57 -80 -80q-49 -40 -88 -40
q-20 0 -41.5 14.5t-32.5 37.5q-14 29 -14 69q0 33 11.5 78t41.5 92q34 54 74 76q13 7 32.5 12.5t38.5 5.5q31 0 60.5 -14t53.5 -48q24 69 48 139q30 73 62 73q8 0 13 -3q13 -8 13 -19q0 -13 -16.5 -36t-31.5 -45q-14 -25 -30 -72q-11 -33 -24 -73l54 50q26 24 51 34.5
t47 10.5q20 0 35 -6.5t27 -19.5t18 -37.5t6 -53.5q0 -38 -7 -69zM556 182q7 34 7 62q0 39 -14.5 58t-37.5 19q-19 0 -40 -12q-31 -18 -74 -72t-61 -99l-20 -49q15 -38 45.5 -61.5t64.5 -23.5q22 0 39 10q33 18 59 70q21 43 32 98zM322 253q-16 33 -42.5 50.5t-57.5 17.5
q-33 0 -59.5 -19.5t-51.5 -62.5q-21 -36 -32 -73.5t-11 -71.5q0 -45 19 -64q12 -12 27 -12q45 0 115 87q60 74 93 148z" />
    <glyph glyph-name="otilde" unicode="&#xf5;" horiz-adv-x="317" 
d="M347 324q0 -7 -80 -74q-52 -44 -98 -105q0 -44 7 -70q12 -45 44 -45q10 0 14.5 4.5t23.5 4.5q12 0 15 -5.5t3 -15.5q0 -15 -19.5 -23t-38.5 -8q-33 0 -59 26q-31 31 -31 81q-43 -57 -68 -80q-18 -17 -29 -17q-18 0 -18 20q0 12 21 36q73 85 90 111q0 43 -5 76t-14 33
q-2 -1 -4.5 -2t-7 -6.5t-7.5 -8.5q-8 -7 -15 -7q-22 0 -22 22q0 17 21 38t41 21q33 0 47 -42q10 -30 10 -79q142 134 158 134q21 0 21 -19z" />
    <glyph glyph-name="otilde" unicode="&#x445;" horiz-adv-x="317" 
d="M347 324q0 -7 -80 -74q-52 -44 -98 -105q0 -44 7 -70q12 -45 44 -45q10 0 14.5 4.5t23.5 4.5q12 0 15 -5.5t3 -15.5q0 -15 -19.5 -23t-38.5 -8q-33 0 -59 26q-31 31 -31 81q-43 -57 -68 -80q-18 -17 -29 -17q-18 0 -18 20q0 12 21 36q73 85 90 111q0 43 -5 76t-14 33
q-2 -1 -4.5 -2t-7 -6.5t-7.5 -8.5q-8 -7 -15 -7q-22 0 -22 22q0 17 21 38t41 21q33 0 47 -42q10 -30 10 -79q142 134 158 134q21 0 21 -19z" />
    <glyph glyph-name="odieresis" unicode="&#xf6;" horiz-adv-x="384" 
d="M369 107q0 -77 -54 -174q-59 -105 -119 -105q-26 0 -26 28q0 14 8 22.5t18 8.5q9 -4 14 -4q24 0 62 62q35 57 47 106q-18 -21 -33 -35q-29 -26 -46 -26q-14 0 -27 19.5t-13 51.5q1 8 1 13q-41 -53 -75 -75q-27 -17 -52 -17q-14 0 -26 17q-15 22 -15 59q0 30 11 71.5
t54 124.5q52 100 82 100q9 0 17.5 -5.5t8.5 -19.5q0 -10 -13 -29q-51 -75 -70 -112t-28 -62q-15 -42 -15 -75q0 -11 3 -16.5t10 -9.5q19 0 63 52.5t66 98.5q19 41 38 83q14 22 30 22q10 0 17.5 -6t7.5 -19q0 -18 -19.5 -48t-24.5 -39q-12 -23 -21 -50t-9 -49q0 -13 3.5 -20
t7.5 -7q9 0 24.5 10.5t23.5 19.5q5 5 26 41q13 21 29 21q9 0 11.5 -8.5t2.5 -19.5z" />
    <glyph glyph-name="odieresis" unicode="&#x446;" horiz-adv-x="384" 
d="M369 107q0 -77 -54 -174q-59 -105 -119 -105q-26 0 -26 28q0 14 8 22.5t18 8.5q9 -4 14 -4q24 0 62 62q35 57 47 106q-18 -21 -33 -35q-29 -26 -46 -26q-14 0 -27 19.5t-13 51.5q1 8 1 13q-41 -53 -75 -75q-27 -17 -52 -17q-14 0 -26 17q-15 22 -15 59q0 30 11 71.5
t54 124.5q52 100 82 100q9 0 17.5 -5.5t8.5 -19.5q0 -10 -13 -29q-51 -75 -70 -112t-28 -62q-15 -42 -15 -75q0 -11 3 -16.5t10 -9.5q19 0 63 52.5t66 98.5q19 41 38 83q14 22 30 22q10 0 17.5 -6t7.5 -19q0 -18 -19.5 -48t-24.5 -39q-12 -23 -21 -50t-9 -49q0 -13 3.5 -20
t7.5 -7q9 0 24.5 10.5t23.5 19.5q5 5 26 41q13 21 29 21q9 0 11.5 -8.5t2.5 -19.5z" />
    <glyph glyph-name="divide" unicode="&#xf7;" horiz-adv-x="385" 
d="M372 226q13 -4 13 -19q0 -9 -3.5 -18.5t-10.5 -23.5q-21 -39 -60 -87q-43 -53 -76 -75q-27 -17 -48 -17q-18 0 -30.5 10t-19.5 23q-11 21 -11 50q0 37 16 84q12 35 36 83q-26 12 -44 29q-13 13 -21 27q-16 -22 -43 -44.5t-43 -22.5q-13 0 -20 9.5t-7 21.5q0 6 46 37
q29 19 48 47q-2 11 -3 20.5t-1 21.5q0 45 17 68.5t39 23.5q15 0 19.5 -8.5t4.5 -23.5q0 -30 -8.5 -55.5t-21.5 -49.5q9 -21 25 -37t38 -25q12 16 29 27.5t33 11.5q15 0 21.5 -5.5t6.5 -17.5q0 -20 -19 -41t-46 -27q-46 -63 -58 -128q-3 -15 -3 -27q0 -20 6.5 -31t15.5 -13
q20 -5 53 29q37 38 70 102q12 25 25 51q16 26 35 20z" />
    <glyph glyph-name="divide" unicode="&#x447;" horiz-adv-x="385" 
d="M372 226q13 -4 13 -19q0 -9 -3.5 -18.5t-10.5 -23.5q-21 -39 -60 -87q-43 -53 -76 -75q-27 -17 -48 -17q-18 0 -30.5 10t-19.5 23q-11 21 -11 50q0 37 16 84q12 35 36 83q-26 12 -44 29q-13 13 -21 27q-16 -22 -43 -44.5t-43 -22.5q-13 0 -20 9.5t-7 21.5q0 6 46 37
q29 19 48 47q-2 11 -3 20.5t-1 21.5q0 45 17 68.5t39 23.5q15 0 19.5 -8.5t4.5 -23.5q0 -30 -8.5 -55.5t-21.5 -49.5q9 -21 25 -37t38 -25q12 16 29 27.5t33 11.5q15 0 21.5 -5.5t6.5 -17.5q0 -20 -19 -41t-46 -27q-46 -63 -58 -128q-3 -15 -3 -27q0 -20 6.5 -31t15.5 -13
q20 -5 53 29q37 38 70 102q12 25 25 51q16 26 35 20z" />
    <glyph glyph-name="oslash" unicode="&#xf8;" horiz-adv-x="649" 
d="M639 181q-24 -47 -60 -97q-43 -60 -73 -81q-5 -4 -14.5 -8.5t-21.5 -4.5q-11 0 -21 7q-26 18 -26 69q0 18 4 33q-25 -43 -54 -72q-19 -19 -38 -31.5t-37 -12.5q-25 0 -41 23t-16 55l1 40l-30 -40q-11 -14 -37.5 -36t-45 -32.5t-34.5 -10.5q-28 0 -44.5 28.5t-16.5 73.5
q0 25 3 42q5 19 7 28q10 40 26 79q25 61 68 134q11 20 21 31q18 21 34 21q11 0 20.5 -6.5t9.5 -17.5q0 -14 -6 -28t-26 -42q-32 -44 -52 -80q-36 -65 -49 -121q-5 -25 -5 -41q0 -45 26 -45q12 0 28 11t36 33t35 42q19 25 38 63q30 59 57 138q11 30 16 36q9 11 22 11
q14 0 23.5 -7t9.5 -23q0 -15 -11 -36q-20 -37 -33 -66q-17 -38 -30 -82.5t-13 -69.5q0 -22 8.5 -37t19.5 -15q10 0 25 15q11 11 50.5 64.5t65.5 108.5l32 72q6 13 11 17q10 9 24 9q29 0 29 -24q0 -13 -10 -27q-13 -20 -22 -34q-34 -53 -48 -106q-6 -24 -6 -45q0 -43 20 -43
q12 0 27 19q21 26 37.5 52.5t39.5 74.5q11 22 16 29q11 14 26 14t15 -19q0 -12 -10 -32z" />
    <glyph glyph-name="oslash" unicode="&#x448;" horiz-adv-x="649" 
d="M639 181q-24 -47 -60 -97q-43 -60 -73 -81q-5 -4 -14.5 -8.5t-21.5 -4.5q-11 0 -21 7q-26 18 -26 69q0 18 4 33q-25 -43 -54 -72q-19 -19 -38 -31.5t-37 -12.5q-25 0 -41 23t-16 55l1 40l-30 -40q-11 -14 -37.5 -36t-45 -32.5t-34.5 -10.5q-28 0 -44.5 28.5t-16.5 73.5
q0 25 3 42q5 19 7 28q10 40 26 79q25 61 68 134q11 20 21 31q18 21 34 21q11 0 20.5 -6.5t9.5 -17.5q0 -14 -6 -28t-26 -42q-32 -44 -52 -80q-36 -65 -49 -121q-5 -25 -5 -41q0 -45 26 -45q12 0 28 11t36 33t35 42q19 25 38 63q30 59 57 138q11 30 16 36q9 11 22 11
q14 0 23.5 -7t9.5 -23q0 -15 -11 -36q-20 -37 -33 -66q-17 -38 -30 -82.5t-13 -69.5q0 -22 8.5 -37t19.5 -15q10 0 25 15q11 11 50.5 64.5t65.5 108.5l32 72q6 13 11 17q10 9 24 9q29 0 29 -24q0 -13 -10 -27q-13 -20 -22 -34q-34 -53 -48 -106q-6 -24 -6 -45q0 -43 20 -43
q12 0 27 19q21 26 37.5 52.5t39.5 74.5q11 22 16 29q11 14 26 14t15 -19q0 -12 -10 -32z" />
    <glyph glyph-name="ugrave" unicode="&#xf9;" horiz-adv-x="611" 
d="M606 69q-12 -60 -39 -115q-33 -67 -74 -101q-13 -11 -29 -18.5t-26 -7.5q-26 0 -26 29q0 17 8.5 24.5t17.5 6.5l16 -4q10 0 22 12q21 19 43 57t32 69l11 34q-12 -14 -26 -27q-18 -17 -30 -25q-19 -13 -35 -13q-21 0 -33.5 21.5t-12.5 56.5l2 31q-17 -29 -38 -54
q-11 -13 -20 -22q-23 -21 -38.5 -30.5t-26.5 -9.5q-25 0 -44 21.5t-19 61.5l1 31q-25 -33 -51 -58q-31 -30 -60 -46q-20 -11 -36 -11q-28 0 -44.5 28.5t-16.5 73.5q0 25 3 42q5 19 7 28q10 40 26 79q25 61 68 134q11 20 21 31q18 21 34 21q13 0 21.5 -7.5t8.5 -21.5
q0 -13 -8 -28q-40 -59 -64 -96q-45 -70 -61 -142q-5 -23 -5 -43q0 -24 8 -33.5t18 -9.5q14 0 35 17q16 12 30 28q35 37 62 86q35 62 67 156q11 30 16 36q9 11 22 11q14 0 23.5 -7t9.5 -23q0 -15 -11 -36q-24 -44 -34 -66q-15 -33 -28 -77t-13 -74q0 -25 8 -38.5t18 -13.5
q18 0 77 79q37 50 65 109q16 35 32 71q6 13 11 17q10 9 24 9q29 0 29 -24q0 -13 -10 -27l-32 -50q-26 -45 -38 -90q-7 -24 -7 -46q0 -44 24 -44q13 0 29.5 15t26.5 25q14 15 21.5 30.5t8.5 16.5q6 7 20 7q15 0 15 -24q0 -8 -2 -21t-4 -21z" />
    <glyph glyph-name="ugrave" unicode="&#x449;" horiz-adv-x="611" 
d="M606 69q-12 -60 -39 -115q-33 -67 -74 -101q-13 -11 -29 -18.5t-26 -7.5q-26 0 -26 29q0 17 8.5 24.5t17.5 6.5l16 -4q10 0 22 12q21 19 43 57t32 69l11 34q-12 -14 -26 -27q-18 -17 -30 -25q-19 -13 -35 -13q-21 0 -33.5 21.5t-12.5 56.5l2 31q-17 -29 -38 -54
q-11 -13 -20 -22q-23 -21 -38.5 -30.5t-26.5 -9.5q-25 0 -44 21.5t-19 61.5l1 31q-25 -33 -51 -58q-31 -30 -60 -46q-20 -11 -36 -11q-28 0 -44.5 28.5t-16.5 73.5q0 25 3 42q5 19 7 28q10 40 26 79q25 61 68 134q11 20 21 31q18 21 34 21q13 0 21.5 -7.5t8.5 -21.5
q0 -13 -8 -28q-40 -59 -64 -96q-45 -70 -61 -142q-5 -23 -5 -43q0 -24 8 -33.5t18 -9.5q14 0 35 17q16 12 30 28q35 37 62 86q35 62 67 156q11 30 16 36q9 11 22 11q14 0 23.5 -7t9.5 -23q0 -15 -11 -36q-24 -44 -34 -66q-15 -33 -28 -77t-13 -74q0 -25 8 -38.5t18 -13.5
q18 0 77 79q37 50 65 109q16 35 32 71q6 13 11 17q10 9 24 9q29 0 29 -24q0 -13 -10 -27l-32 -50q-26 -45 -38 -90q-7 -24 -7 -46q0 -44 24 -44q13 0 29.5 15t26.5 25q14 15 21.5 30.5t8.5 16.5q6 7 20 7q15 0 15 -24q0 -8 -2 -21t-4 -21z" />
    <glyph glyph-name="uacute" unicode="&#xfa;" horiz-adv-x="316" 
d="M288 128q-16 -49 -53 -88q-33 -34 -71 -48q-18 -7 -36 -7q-37 0 -60.5 27.5t-23.5 74.5t23.5 110.5t56.5 113.5q-26 -7 -59 -7q-27 0 -46 8t-19 26q0 14 6.5 20.5t16.5 6.5t20.5 -4t16 -6.5t14.5 -3.5t20 -1q20 0 34 4q30 7 53 22q31 20 42 25t23 5t17 -6.5t5 -16.5
q0 -13 -12 -21q-7 -5 -25.5 -12t-38.5 -28q-28 -30 -58 -83q-25 -45 -36.5 -82t-11.5 -66q0 -38 18 -54q5 -5 14 -9.5t21 -4.5q16 0 35 11q24 14 43 39.5t28 52.5q3 10 5.5 22.5t2.5 22.5q0 23 -9.5 35.5t-24.5 12.5q-8 0 -18 -5q-2 -1 -10.5 -6.5t-14.5 -9t-13 -3.5
q-15 0 -15 13q0 11 11.5 21.5t25.5 17.5q22 11 47 11q29 0 46.5 -22.5t17.5 -58.5q0 -22 -8 -49z" />
    <glyph glyph-name="uacute" unicode="&#x44a;" horiz-adv-x="316" 
d="M288 128q-16 -49 -53 -88q-33 -34 -71 -48q-18 -7 -36 -7q-37 0 -60.5 27.5t-23.5 74.5t23.5 110.5t56.5 113.5q-26 -7 -59 -7q-27 0 -46 8t-19 26q0 14 6.5 20.5t16.5 6.5t20.5 -4t16 -6.5t14.5 -3.5t20 -1q20 0 34 4q30 7 53 22q31 20 42 25t23 5t17 -6.5t5 -16.5
q0 -13 -12 -21q-7 -5 -25.5 -12t-38.5 -28q-28 -30 -58 -83q-25 -45 -36.5 -82t-11.5 -66q0 -38 18 -54q5 -5 14 -9.5t21 -4.5q16 0 35 11q24 14 43 39.5t28 52.5q3 10 5.5 22.5t2.5 22.5q0 23 -9.5 35.5t-24.5 12.5q-8 0 -18 -5q-2 -1 -10.5 -6.5t-14.5 -9t-13 -3.5
q-15 0 -15 13q0 11 11.5 21.5t25.5 17.5q22 11 47 11q29 0 46.5 -22.5t17.5 -58.5q0 -22 -8 -49z" />
    <glyph glyph-name="ucircumflex" unicode="&#xfb;" horiz-adv-x="463" 
d="M181 114q-8 -2 -13 -2q-16 0 -28 12t-12 28q0 17 12 30t35 13q12 0 24 -6t20 -22q21 0 36.5 3.5t32.5 12.5q10 33 23.5 59t23.5 33t21 7q26 0 26 -31q0 -16 -12.5 -36.5t-30.5 -34.5q-13 -23 -22.5 -52t-9.5 -52q0 -21 5 -28.5t11 -7.5q3 0 9.5 5.5t19.5 22.5
q25 32 42 66q3 7 22 49q5 13 10 20q9 13 19 13q18 0 18 -19q0 -6 -3 -17q-11 -36 -42 -81q-25 -36 -56 -69q-21 -22 -38 -30q-11 -5 -21 -5q-12 0 -22 14q-14 20 -14 59q0 40 9 70q-19 -6 -29 -8.5t-22 -2.5q-8 -63 -54 -110q-42 -42 -82 -42q-28 0 -46.5 24t-18.5 70
q0 37 13 82.5t37.5 97t46.5 80.5q12 16 20 20t21 4q21 0 21 -20q0 -13 -10 -27q-18 -24 -30 -42q-44 -64 -64 -118q-16 -43 -16 -81q0 -23 8.5 -37.5t26.5 -14.5q26 0 51 32t32 69z" />
    <glyph glyph-name="ucircumflex" unicode="&#x44b;" horiz-adv-x="463" 
d="M181 114q-8 -2 -13 -2q-16 0 -28 12t-12 28q0 17 12 30t35 13q12 0 24 -6t20 -22q21 0 36.5 3.5t32.5 12.5q10 33 23.5 59t23.5 33t21 7q26 0 26 -31q0 -16 -12.5 -36.5t-30.5 -34.5q-13 -23 -22.5 -52t-9.5 -52q0 -21 5 -28.5t11 -7.5q3 0 9.5 5.5t19.5 22.5
q25 32 42 66q3 7 22 49q5 13 10 20q9 13 19 13q18 0 18 -19q0 -6 -3 -17q-11 -36 -42 -81q-25 -36 -56 -69q-21 -22 -38 -30q-11 -5 -21 -5q-12 0 -22 14q-14 20 -14 59q0 40 9 70q-19 -6 -29 -8.5t-22 -2.5q-8 -63 -54 -110q-42 -42 -82 -42q-28 0 -46.5 24t-18.5 70
q0 37 13 82.5t37.5 97t46.5 80.5q12 16 20 20t21 4q21 0 21 -20q0 -13 -10 -27q-18 -24 -30 -42q-44 -64 -64 -118q-16 -43 -16 -81q0 -23 8.5 -37.5t26.5 -14.5q26 0 51 32t32 69z" />
    <glyph glyph-name="udieresis" unicode="&#xfc;" horiz-adv-x="313" 
d="M287 134q-13 -40 -42 -74q-38 -44 -91 -64q-26 -10 -50 -10q-36 0 -58 22t-22 62q0 50 41 131q14 28 35 63q14 23 15.5 36t4 27t18.5 23q6 4 14 6.5t14 2.5q23 0 23 -21q0 -10 -10 -26q-4 -7 -15 -23q-17 -26 -43 -75q-30 -57 -43 -92q-4 -12 -7.5 -29t-3.5 -26
q0 -45 40 -45q23 0 49 15q37 20 67 61t30 77q0 18 -8.5 27.5t-21.5 9.5q-10 0 -19 -6q-2 -1 -14 -12q-5 -4 -11.5 -7.5t-13.5 -3.5q-11 0 -17 6t-6 15t9 20q22 24 66 24q24 0 41 -10q35 -19 35 -67q0 -17 -6 -37z" />
    <glyph glyph-name="udieresis" unicode="&#x44c;" horiz-adv-x="313" 
d="M287 134q-13 -40 -42 -74q-38 -44 -91 -64q-26 -10 -50 -10q-36 0 -58 22t-22 62q0 50 41 131q14 28 35 63q14 23 15.5 36t4 27t18.5 23q6 4 14 6.5t14 2.5q23 0 23 -21q0 -10 -10 -26q-4 -7 -15 -23q-17 -26 -43 -75q-30 -57 -43 -92q-4 -12 -7.5 -29t-3.5 -26
q0 -45 40 -45q23 0 49 15q37 20 67 61t30 77q0 18 -8.5 27.5t-21.5 9.5q-10 0 -19 -6q-2 -1 -14 -12q-5 -4 -11.5 -7.5t-13.5 -3.5q-11 0 -17 6t-6 15t9 20q22 24 66 24q24 0 41 -10q35 -19 35 -67q0 -17 -6 -37z" />
    <glyph glyph-name="yacute" unicode="&#xfd;" horiz-adv-x="354" 
d="M334 182q-3 -18 -14 -18h-8l-10 -35q-13 -45 -40 -83q-35 -48 -82 -66q-26 -9 -47 -9q-19 0 -35 5.5t-28 15.5q-23 17 -35 47.5t-12 66.5q0 26 10 54q7 18 17 26t19 8q15 0 20.5 -5.5t5.5 -16.5q0 -9 -5 -21.5t-9 -20.5q-13 -25 -13 -50q0 -19 6 -33t17 -24
q17 -15 43 -15q16 0 27 5q35 13 62 57q18 30 27 63l7 26q-19 0 -30.5 -1.5t-31.5 -7t-28 -5.5q-13 0 -13 15q0 23 36 32.5t76 9.5q2 9 5 29.5t3 34.5q0 39 -15 65t-41 26q-17 0 -31.5 -12t-21.5 -35t-17 -32t-21 -9q-13 0 -21 11q-4 8 -4 16q0 15 12 37.5t29 36.5t36 20.5
t39 6.5q28 0 51.5 -13t38.5 -42q6 -11 10.5 -33.5t4.5 -51.5q0 -22 -3 -54q11 2 14 -8v-13z" />
    <glyph glyph-name="yacute" unicode="&#x44d;" horiz-adv-x="354" 
d="M334 182q-3 -18 -14 -18h-8l-10 -35q-13 -45 -40 -83q-35 -48 -82 -66q-26 -9 -47 -9q-19 0 -35 5.5t-28 15.5q-23 17 -35 47.5t-12 66.5q0 26 10 54q7 18 17 26t19 8q15 0 20.5 -5.5t5.5 -16.5q0 -9 -5 -21.5t-9 -20.5q-13 -25 -13 -50q0 -19 6 -33t17 -24
q17 -15 43 -15q16 0 27 5q35 13 62 57q18 30 27 63l7 26q-19 0 -30.5 -1.5t-31.5 -7t-28 -5.5q-13 0 -13 15q0 23 36 32.5t76 9.5q2 9 5 29.5t3 34.5q0 39 -15 65t-41 26q-17 0 -31.5 -12t-21.5 -35t-17 -32t-21 -9q-13 0 -21 11q-4 8 -4 16q0 15 12 37.5t29 36.5t36 20.5
t39 6.5q28 0 51.5 -13t38.5 -42q6 -11 10.5 -33.5t4.5 -51.5q0 -22 -3 -54q11 2 14 -8v-13z" />
    </font>
</defs>
</svg>
