<svg xmlns="http://www.w3.org/2000/svg" width="18" height="16" viewBox="0 0 18 16">
  <metadata><?xpacket begin="﻿" id="W5M0MpCehiHzreSzNTczkc9d"?>
<x:xmpmeta xmlns:x="adobe:ns:meta/" x:xmptk="Adobe XMP Core 5.6-c142 79.160924, 2017/07/13-01:06:39        ">
   <rdf:RDF xmlns:rdf="http://www.w3.org/1999/02/22-rdf-syntax-ns#">
      <rdf:Description rdf:about=""/>
   </rdf:RDF>
</x:xmpmeta>
                                                                                                    
                                                                                                    
                                                                                                    
                                                                                                    
                                                                                                    
                                                                                                    
                                                                                                    
                                                                                                    
                                                                                                    
                                                                                                    
                                                                                                    
                                                                                                    
                                                                                                    
                                                                                                    
                                                                                                    
                                                                                                    
                                                                                                    
                                                                                                    
                                                                                                    
                                                                                                    
                           
<?xpacket end="w"?></metadata>
<defs>
    <style>
      .cls-1 {
        fill-rule: evenodd;
      }
    </style>
  </defs>
  <path id="check_box" data-name="check box" class="cls-1" d="M1255,6832.22a2.185,2.185,0,0,1,.38-0.87,1.838,1.838,0,0,1,1.49-.7h8.95v1.79h-9v10.75h12.63v-4.47h1.8a1.408,1.408,0,0,1,.01.2c0,1.4.01,2.8,0,4.2a1.8,1.8,0,0,1-1.9,1.87c-4.13,0-8.26-.01-12.39.01a1.9,1.9,0,0,1-1.95-1.52,0.053,0.053,0,0,0-.02-0.03v-11.23Zm18-1.68a1.741,1.741,0,0,0-.14.12q-4.68,5.115-9.36,10.22c-0.11.12-.22,0.23-0.31,0.33q-2.235-2.205-4.44-4.39c0.52-.51,1.05-1.03,1.58-1.56,0.91,0.9,1.82,1.81,2.75,2.74l8.25-9c0.56,0.51,1.12,1.01,1.67,1.51v0.03Z" transform="translate(-1255 -6829)"/>
</svg>