<svg xmlns="http://www.w3.org/2000/svg" width="112" height="32" viewBox="0 0 112 32">
  <metadata><?xpacket begin="﻿" id="W5M0MpCehiHzreSzNTczkc9d"?>
<x:xmpmeta xmlns:x="adobe:ns:meta/" x:xmptk="Adobe XMP Core 5.6-c142 79.160924, 2017/07/13-01:06:39        ">
   <rdf:RDF xmlns:rdf="http://www.w3.org/1999/02/22-rdf-syntax-ns#">
      <rdf:Description rdf:about=""/>
   </rdf:RDF>
</x:xmpmeta>
                                                                                                    
                                                                                                    
                                                                                                    
                                                                                                    
                                                                                                    
                                                                                                    
                                                                                                    
                                                                                                    
                                                                                                    
                                                                                                    
                                                                                                    
                                                                                                    
                                                                                                    
                                                                                                    
                                                                                                    
                                                                                                    
                                                                                                    
                                                                                                    
                                                                                                    
                                                                                                    
                           
<?xpacket end="w"?></metadata>
<defs>
    <style>
      .cls-1 {
        fill: #f8f8f8;
        fill-rule: evenodd;
      }
    </style>
  </defs>
  <path id="Digital_Agency_copy_2" data-name="Digital Agency copy 2" class="cls-1" d="M653.032,229.718l5.607-13.484h2.755L667,229.718h-13.97Zm6.9-9.535-2.444,6.689h5.2Zm-13.276,9.766A5.418,5.418,0,0,1,640.783,224v-7.806h3.08v7.149q0,3.709,2.791,3.71a2.053,2.053,0,0,0,1.858-.87,4.961,4.961,0,0,0,.567-2.666v-3.437h3.08v4.055a5.643,5.643,0,0,1-1.578,4.367A5.544,5.544,0,0,1,646.654,229.949Zm-8.747-.115a1.878,1.878,0,0,1-1.416-.569,1.931,1.931,0,0,1-.549-1.4,1.72,1.72,0,0,1,.559-1.262,1.923,1.923,0,0,1,1.406-.549,1.718,1.718,0,0,1,1.282.549,1.766,1.766,0,0,1,.529,1.262,2.027,2.027,0,0,1-.51,1.387A1.661,1.661,0,0,1,637.907,229.834Zm-8.169.115a7.273,7.273,0,0,1-5.318-1.887,6.833,6.833,0,0,1-1.908-5.086,6.966,6.966,0,0,1,1.869-4.97,6.516,6.516,0,0,1,4.971-2,6.832,6.832,0,0,1,4.413,1.406l-1.291,2.485a3.1,3.1,0,0,0-1.185-.713,4.509,4.509,0,0,0-1.571-.289,3.893,3.893,0,0,0-2.861,1.059,4.713,4.713,0,0,0,.019,6,3.882,3.882,0,0,0,2.9,1.108,4.074,4.074,0,0,0,1.214-.212,2.539,2.539,0,0,0,.906-0.463v-1.463h-2.871v-2.89h5.761v6.01a6.17,6.17,0,0,1-2.312,1.387A7.861,7.861,0,0,1,629.738,229.949Zm-5.813,10.824a2.494,2.494,0,0,1,1.24.327v1.2a1.785,1.785,0,0,0-1.283-.567,1.352,1.352,0,0,0-1,.4,1.437,1.437,0,0,0-.389,1.058,1.5,1.5,0,0,0,.41,1.1,1.338,1.338,0,0,0,.96.371,1.662,1.662,0,0,0,1.3-.589v1.189a2.537,2.537,0,0,1-1.38.36,2.255,2.255,0,0,1-1.726-.677,2.392,2.392,0,0,1-.647-1.723,2.422,2.422,0,0,1,.69-1.777A2.447,2.447,0,0,1,623.925,240.773Zm-11.286-19.156v8.138h-2.892V216.192h2.468l6.4,8.176v-8.176h2.892v13.563H619.04Zm-1.57,19.156a1.926,1.926,0,0,1,1.456.6,2.7,2.7,0,0,1,.637,1.942v0.131h-3.257a1.414,1.414,0,0,0,.388.926,1.084,1.084,0,0,0,.809.295,1.164,1.164,0,0,0,.722-0.229,1.679,1.679,0,0,0,.421-0.5l0.884,0.5a2.26,2.26,0,0,1-.765.839,2.379,2.379,0,0,1-1.338.35,2.057,2.057,0,0,1-1.531-.59,2.387,2.387,0,0,1-.669-1.755,2.616,2.616,0,0,1,.723-1.887A2.055,2.055,0,0,1,611.069,240.773Zm-1.089,1.8h2.1a1.067,1.067,0,0,0-.323-0.622,1.092,1.092,0,0,0-1.456.033A1.122,1.122,0,0,0,609.98,242.572Zm-4.476-26.38h3.089v13.563H605.5V216.192Zm0.087,24.7h1.057v4.22a5.792,5.792,0,0,1-.151,1.456,1.8,1.8,0,0,1-.594.932,2.289,2.289,0,0,1-1.509.491,2,2,0,0,1-1.489-.568,2.439,2.439,0,0,1-.669-1.428h1.025a1.394,1.394,0,0,0,.334.72,1.064,1.064,0,0,0,.82.316,1.116,1.116,0,0,0,.83-0.305,1.577,1.577,0,0,0,.346-1.156v-0.6a1.654,1.654,0,0,1-1.381.655,1.963,1.963,0,0,1-1.5-.622,2.547,2.547,0,0,1-.679-1.821,2.419,2.419,0,0,1,.668-1.778,2.061,2.061,0,0,1,1.543-.632,1.674,1.674,0,0,1,1.348.621v-0.5Zm-0.367,1.166a1.15,1.15,0,0,0-.852-0.327,1.092,1.092,0,0,0-.8.306,1.526,1.526,0,0,0-.464,1.167,1.469,1.469,0,0,0,.453,1.156,1.232,1.232,0,0,0,1.693-.066A1.714,1.714,0,0,0,605.224,242.059Zm-8.555-12.3q-0.747,0-1.666-.019t-2.088-.018H592.59V216.252h0.268q0.861,0,1.915-.019,0.4,0,.89-0.01t0.757-.019c0.179-.007.313-0.01,0.4-0.01q3.772,0,5.65,1.886a6.5,6.5,0,0,1,1.876,4.79,6.621,6.621,0,0,1-2.01,4.944A7.786,7.786,0,0,1,596.669,229.756Zm3.256-9.676a4.667,4.667,0,0,0-3.141-1,8.1,8.1,0,0,0-1.13.058v7.695c0.357,0.026.728,0.038,1.111,0.038a4.513,4.513,0,0,0,3.179-1.058,3.8,3.8,0,0,0,1.149-2.943A3.478,3.478,0,0,0,599.925,220.08Zm-17.372,1.548v8.09h-2.89V216.234h2.466l6.4,8.129v-8.129h2.891v13.484H588.95Zm-12.342-5.436h2.737l5.571,13.563H564.64Zm1.282,3.972-2.755,6.727h5.36Zm-8.135,19.518a0.655,0.655,0,0,1-.486-0.2,0.717,0.717,0,0,1,0-.981,0.7,0.7,0,0,1,.971,0,0.717,0.717,0,0,1,0,.981A0.654,0.654,0,0,1,563.358,239.682ZM555,216.192h3.05v10.656h5.434v2.907H555V216.192Zm3,22.166a3.1,3.1,0,0,1,1.186.561,3.391,3.391,0,0,1,1.019,1.265,3.848,3.848,0,0,1,.361,1.668,3.5,3.5,0,0,1-2.631,3.49,6.441,6.441,0,0,1-1.445.141H555V238.21h1.51A6.617,6.617,0,0,1,558,238.358Zm-1.9,6.079h0.475a3.111,3.111,0,0,0,1.909-.513,2.467,2.467,0,0,0,.981-2.072,2.729,2.729,0,0,0-.275-1.232,2.3,2.3,0,0,0-.695-0.862,3.219,3.219,0,0,0-1.92-.5H556.1v5.18Zm7.787,1.046h-1.057v-4.59h1.057v4.59Zm4.357,0.143a1.963,1.963,0,0,1-1.5-.622,2.548,2.548,0,0,1-.68-1.821,2.419,2.419,0,0,1,.669-1.778,2.06,2.06,0,0,1,1.542-.632,1.674,1.674,0,0,1,1.349.621v-0.5h1.056v4.22a5.746,5.746,0,0,1-.151,1.456,1.8,1.8,0,0,1-.593.932,2.29,2.29,0,0,1-1.51.491,2,2,0,0,1-1.488-.568,2.427,2.427,0,0,1-.669-1.428h1.025a1.394,1.394,0,0,0,.334.72,1.062,1.062,0,0,0,.82.316,1.116,1.116,0,0,0,.83-0.305,1.581,1.581,0,0,0,.346-1.156v-0.6A1.657,1.657,0,0,1,568.243,245.626Zm1.445-2.411a1.531,1.531,0,0,0-.431-1.156,1.15,1.15,0,0,0-.852-0.327,1.092,1.092,0,0,0-.8.306,1.526,1.526,0,0,0-.464,1.167,1.469,1.469,0,0,0,.453,1.156,1.232,1.232,0,0,0,1.693-.066A1.539,1.539,0,0,0,569.688,243.215Zm3.937-4.907a0.654,0.654,0,0,1,.485.2,0.717,0.717,0,0,1,0,.981,0.7,0.7,0,0,1-.971,0,0.717,0.717,0,0,1,0-.981A0.657,0.657,0,0,1,573.625,238.308Zm0.528,7.175H573.1v-4.59h1.057v4.59Zm2.448-6.27h1.057v1.68h0.809v0.981h-0.809v3.609H576.6v-3.609h-0.442v-0.981H576.6v-1.68Zm5.63,1.56a1.6,1.6,0,0,1,1.348.654v-0.534h1.057v4.59h-1.057V245a1.7,1.7,0,0,1-1.359.622,1.973,1.973,0,0,1-1.6-.721,2.6,2.6,0,0,1-.6-1.722,2.4,2.4,0,0,1,.642-1.751A2.1,2.1,0,0,1,582.231,240.773Zm-0.782,3.467a1.124,1.124,0,0,0,.911.426,1.228,1.228,0,0,0,.912-0.382,1.467,1.467,0,0,0,.372-1.069,1.519,1.519,0,0,0-.372-1.1,1.221,1.221,0,0,0-.912-0.387,1.124,1.124,0,0,0-.911.426,1.588,1.588,0,0,0-.351,1.047A1.571,1.571,0,0,0,581.449,244.24Zm6.66,1.243h-1.057v-7.949h1.057v7.949Zm12.37,0h-1.187l-0.755-1.755h-3.073l-0.788,1.755H593.49l3.581-7.7Zm-4.562-2.8H598.1l-1.068-2.465Zm20.469-1.363a1.574,1.574,0,0,1,1.23-.545,1.532,1.532,0,0,1,1.337.621,2.276,2.276,0,0,1,.28,1.276v2.813h-1.056v-2.551a2.9,2.9,0,0,0-.065-0.676,0.624,0.624,0,0,0-.2-0.366,0.776,0.776,0,0,0-.253-0.131,1.452,1.452,0,0,0-.308-0.027,1.343,1.343,0,0,0-.361.039,0.776,0.776,0,0,0-.291.174,0.859,0.859,0,0,0-.232.469,4,4,0,0,0-.076.867v2.2h-1.057v-4.59h1.057v0.425Zm11.54-.425,1.294,2.683,1.316-2.683h1.186l-3.613,7.088h-1.186l1.672-3.217-1.942-3.871h1.273Z" transform="translate(-555 -216)"/>
</svg>